<svg width="32" height="32" viewBox="0 0 32 32" fill="none" xmlns="http://www.w3.org/2000/svg">
<path fill-rule="evenodd" clip-rule="evenodd" d="M25.8455 14.0544C27.3228 14.9958 27.8768 16.6904 27.6306 18.2594L25.9071 27.7364C25.5377 29.6193 23.9373 31 22.0291 31H9.96428C8.05606 31 6.45563 29.6193 6.08631 27.7364L4.36276 18.2594C4.11653 16.7531 4.7321 15.0586 6.20942 14.1172C7.07119 13.4895 7.25586 12.4226 6.20942 12.046C4.7321 11.4812 5.03986 9.66109 6.51721 9.66109H15.5043C16.92 9.66109 18.6436 10.728 18.6436 14.1799C18.6436 17.6318 17.0431 17.318 17.0431 19.7657C17.0431 20.8326 17.9049 21.9623 18.9514 22.0879C20.7365 22.2762 21.7829 21.5858 21.7829 19.0753C21.7829 16.5021 20.3056 15.3096 20.3056 13.1757C20.3056 10.6025 21.906 9.5983 22.9524 9.5983H25.5378C27.0151 9.5983 27.3229 11.4184 25.8455 11.9832C24.7991 12.4226 24.9837 13.4895 25.8455 14.0544V14.0544ZM7.44051 8.3431C6.82497 8.3431 6.27096 7.77824 6.27096 7.15062C6.27096 5.70711 9.84116 4.64016 13.9038 4.64016C14.2731 4.64016 14.5194 4.64016 14.5194 4.32636C14.5194 3.7615 13.2883 3.57323 13.2883 2.63181C13.2883 1.62762 14.4578 1 15.9351 1C17.4125 1 18.582 1.62762 18.582 2.63181C18.582 3.57323 17.3509 3.69876 17.3509 4.32636C17.3509 4.51465 17.5356 4.64016 17.9664 4.64016C22.0291 4.64016 25.6609 5.64434 25.6609 7.15062C25.6609 7.77824 25.1684 8.3431 24.4913 8.3431H7.44051Z" fill="#2CACF4"/>
</svg>
