<svg width="112" height="112" viewBox="0 0 112 112" fill="none" xmlns="http://www.w3.org/2000/svg">
<g clip-path="url(#clip0_6700_49981)">
<rect x="2" y="1.99998" width="108" height="108" rx="8" fill="white"/>
<path fill-rule="evenodd" clip-rule="evenodd" d="M84.951 53.0876C84.951 51.6325 83.7941 50.4529 82.3258 50.4529C80.8576 50.4529 79.701 51.6325 79.701 53.0876C79.701 53.6437 79.8755 54.1589 80.1723 54.584C80.2908 54.7935 80.4204 54.9771 80.5406 55.1475C80.7209 55.403 80.88 55.6285 80.9484 55.8662C81.1218 56.4668 80.9383 56.8696 80.6433 56.9898C80.2617 57.1455 79.6627 56.88 79.6627 56.88C76.9618 55.8346 75.0483 53.2315 75.0483 50.1845C75.0483 46.2166 78.3218 43 82.3258 43C86.3298 43 89.6033 46.2166 89.6033 50.1845C89.6033 53.2315 87.6902 55.8346 84.989 56.88C84.989 56.88 84.3899 57.1455 84.0087 56.9898C83.7133 56.8696 83.5302 56.4668 83.7036 55.8662C83.7717 55.6286 83.9308 55.4032 84.111 55.1478C84.2313 54.9774 84.3609 54.7936 84.4793 54.584C84.7761 54.1589 84.951 53.6437 84.951 53.0876ZM77.3948 67.7809C78.7573 66.9439 79.153 65.059 79.153 63.3448C79.153 59.7457 76.2085 56.8276 72.5767 56.8276C71.1964 56.8276 69.9464 57.0403 69.078 57.8048C68.3931 58.4076 68.6415 59.0465 69.0661 59.5247L75.7969 67.5627C75.7969 67.5627 76.4199 68.38 77.3948 67.7809ZM87.2569 67.7809C85.8943 66.9439 85.4987 65.059 85.4987 63.3448C85.4987 59.7457 88.4431 56.8276 92.0753 56.8276C93.4552 56.8276 94.7052 57.0403 95.574 57.8048C96.2585 58.4076 96.0102 59.0465 95.5856 59.5247L88.8547 67.5627C88.8547 67.5627 88.2321 68.38 87.2569 67.7809Z" fill="#169CD4"/>
<path fill-rule="evenodd" clip-rule="evenodd" d="M33.0698 59.3243L31.7373 52.2158C31.5126 51.2583 30.5258 51.3139 30.5258 51.3139L28.3426 51.3893C26.0385 51.4664 24.5656 53.7851 24.5656 53.7851L21.0101 59.3243H33.0698ZM59.3115 56.0713H53.5686C53.1765 56.0713 52.854 55.7793 52.8095 55.4026H52.8037V55.3129V53.3533V52.0607C52.8037 51.6421 53.1461 51.3138 53.5686 51.3138H66.5177C66.9398 51.3138 67.2822 51.6421 67.2822 52.0607V54.1057C67.2822 54.1057 67.3438 54.985 66.5181 55.8037L63.8538 59.3242H56.842C57.8059 58.053 58.7229 56.8461 59.2023 56.2151L59.2029 56.2142L59.3115 56.0713ZM60.5152 63.7359H66.5177C66.9249 63.7359 67.2565 64.0517 67.2797 64.4495L67.2822 64.4492V67.6575C67.2822 68.0759 66.9398 68.3514 66.5177 68.3514H53.5686C53.1461 68.3514 52.8037 68.0759 52.8037 67.6575V65.2958C52.8037 65.2958 52.8934 64.5826 53.4781 63.7808C53.7253 63.4414 54.8504 61.9533 56.0652 60.3493H63.0781L60.5152 63.7359ZM28.6124 67.2567L27.4475 60.3487H33.2633L34.6316 67.558C34.6316 67.558 34.9248 68.3512 34.1154 68.3512H30.0513C30.0513 68.3512 28.843 68.4029 28.6124 67.2567ZM20.3609 60.3487L16.3819 66.6324C15.3477 68.2364 16.7417 68.3512 16.7417 68.3512H21.1482C21.7777 68.4402 22.4974 67.3453 22.4974 67.3453L26.8015 60.3487H20.3609ZM46.0587 59.3243L46.6882 60.3493H51.1848V67.5682C51.1848 67.9865 50.8428 68.3514 50.42 68.3514H46.4641C45.7597 68.3804 45.2254 67.8581 44.8 67.212L41.158 60.9739V67.5686C41.158 67.9872 40.8152 68.3514 40.3931 68.3514H36.5716C36.1492 68.3514 35.8067 67.9865 35.8067 67.5682V60.3489H40.8431L40.2136 59.3243H35.8067V52.0605C35.8067 51.6422 36.1492 51.3139 36.5716 51.3139H40.3931C41.1153 51.3139 41.8545 51.7706 42.2817 52.595C42.5173 53.0499 45.6996 58.6086 45.6996 58.6086V52.1053C45.6996 51.6866 46.0417 51.3139 46.4641 51.3139H50.42C50.8428 51.3139 51.1848 51.6422 51.1848 52.0605V59.3243H46.0587Z" fill="#169CD4"/>
</g>
<rect x="1" y="1" width="110" height="110" rx="9" stroke="black" stroke-opacity="0.1" stroke-width="2"/>
<defs>
<clipPath id="clip0_6700_49981">
<rect x="2" y="2" width="108" height="108" rx="8" fill="white"/>
</clipPath>
</defs>
</svg>
