<svg width="112" height="112" viewBox="0 0 112 112" fill="none" xmlns="http://www.w3.org/2000/svg">
<g clip-path="url(#clip0_6700_50128)">
<rect x="2" y="2" width="108" height="108" rx="8" fill="white"/>
<path d="M30.5402 40.2272C30.5402 40.2272 29.3577 37.5022 28.7252 37.2597C28.0927 37.0172 26.7327 45.6172 27.4127 47.4672C27.4127 47.4672 30.9377 50.2397 31.5177 52.6497L33.6227 49.9747L35.0277 44.9522L30.5377 40.2272H30.5402Z" fill="url(#paint0_linear_6700_50128)" stroke="#A3822E" stroke-width="0.075" stroke-miterlimit="10"/>
<path d="M31.2704 49.4672C31.2704 49.4672 29.3129 45.3822 29.1729 40.0397" stroke="#A3822E" stroke-width="0.025" stroke-miterlimit="10"/>
<path d="M81.1877 40.2272C81.1877 40.2272 82.3702 37.5022 83.0027 37.2597C83.6352 37.0172 84.9952 45.6172 84.3152 47.4672C84.3152 47.4672 80.7902 50.2397 80.2102 52.6497L78.1052 49.9747L76.7002 44.9522L81.1902 40.2272H81.1877Z" fill="url(#paint1_linear_6700_50128)" stroke="#A3822E" stroke-width="0.075" stroke-miterlimit="10"/>
<path d="M80.458 49.4672C80.458 49.4672 82.4155 45.3822 82.5555 40.0397" stroke="#A3822E" stroke-width="0.025" stroke-miterlimit="10"/>
<path d="M37.5305 33.5948C37.5305 33.5948 36.0155 30.5723 35.2655 30.5723C34.5155 30.5723 32.7355 35.7747 33.5555 38.3298C34.3755 40.8848 35.528 41.1773 35.243 42.7523C34.9605 44.3273 39.8105 40.0173 39.858 39.6648C39.9055 39.3123 39.578 35.5398 39.578 35.5398L37.5305 33.5948Z" fill="url(#paint2_linear_6700_50128)" stroke="#A3822E" stroke-width="0.075" stroke-miterlimit="10"/>
<path d="M41.3227 27.3147C41.3227 27.3147 36.0902 28.5647 37.9152 39.3397C39.7402 50.1147 43.5827 37.8122 43.5827 37.8122C43.5827 37.8122 49.2302 33.3122 47.2152 32.2347C45.2002 31.1572 41.3227 27.3147 41.3227 27.3147Z" fill="url(#paint3_linear_6700_50128)" stroke="#A3822E" stroke-width="0.075" stroke-miterlimit="10"/>
<path d="M37.9155 39.3397C37.9155 39.3397 39.668 30.7822 43.8405 30.3497C48.013 29.9172 48.7155 34.8447 48.7155 34.8447L39.863 38.2122L37.918 39.3397H37.9155Z" fill="url(#paint4_linear_6700_50128)" stroke="#A3822E" stroke-width="0.075" stroke-miterlimit="10"/>
<path d="M34.1755 77.4472L31.2705 78.4022C31.2705 78.4022 33.5655 80.7447 35.5355 80.2522C37.5055 79.7597 39.9655 77.1022 39.9655 77.1022C39.9655 77.1022 40.1955 75.4147 39.9305 75.3297C39.6655 75.2447 34.3055 76.5247 34.3055 76.5247L34.178 77.4472H34.1755Z" fill="url(#paint5_linear_6700_50128)" stroke="#A3822E" stroke-width="0.075" stroke-miterlimit="10"/>
<path d="M30.893 70.8898L27.168 70.9623C27.168 70.9623 30.083 75.9148 33.6005 77.1248C33.6005 77.1248 35.1155 78.4098 37.9605 77.3098C40.8055 76.2098 41.438 74.3223 41.438 74.3223L36.308 69.4948C36.308 69.4948 33.1555 69.8498 32.923 69.8823C32.6905 69.9148 30.8955 70.8898 30.8955 70.8898H30.893Z" fill="url(#paint6_linear_6700_50128)" stroke="#A3822E" stroke-width="0.075" stroke-miterlimit="10"/>
<path d="M34.4179 71.4598C34.4179 71.4598 29.6629 71.8523 27.4504 67.9848C25.2354 64.1173 25.5879 62.6073 25.5879 62.6073C25.5879 62.6073 25.4129 61.8698 28.1979 63.8273L34.6929 64.2948C34.6929 64.2948 35.0204 66.1698 35.0329 66.9723C35.0454 67.7748 35.5379 70.2698 35.5379 70.5173C35.5379 70.7648 34.4229 71.4623 34.4229 71.4623L34.4179 71.4598Z" fill="url(#paint7_linear_6700_50128)" stroke="#A3822E" stroke-width="0.075" stroke-miterlimit="10"/>
<path d="M38.9905 76.0597C38.9905 76.0597 35.918 74.5572 34.1605 70.9722C32.403 67.3872 32.918 66.2997 32.918 66.2997L35.123 65.8647C35.123 65.8647 36.4105 67.2447 36.938 68.5472C37.4655 69.8472 39.683 72.6947 40.2105 73.1522C40.7355 73.6097 40.7705 75.0797 40.7705 75.0797L38.9905 76.0597Z" fill="url(#paint8_linear_6700_50128)" stroke="#A3822E" stroke-width="0.075" stroke-miterlimit="10"/>
<path d="M27.7229 55.8547C27.7229 55.8547 25.7979 54.5922 25.0254 54.5922C25.0254 54.5922 24.7004 57.8972 26.3754 61.0947C28.0479 64.2922 29.9079 65.9622 33.4779 66.3772C33.4779 66.3772 36.3104 61.2372 34.5529 59.6197C32.7954 58.0022 27.7254 55.8572 27.7254 55.8572L27.7229 55.8547Z" fill="url(#paint9_linear_6700_50128)" stroke="#A3822E" stroke-width="0.075" stroke-miterlimit="10"/>
<path d="M31.5203 52.6497C31.5203 52.6497 31.5853 50.0672 26.6178 46.6472C26.6178 46.6472 23.9003 54.2397 30.1103 57.9422L31.4128 58.8297L32.9228 55.4197L31.5228 52.6522L31.5203 52.6497Z" fill="url(#paint10_linear_6700_50128)" stroke="#A3822E" stroke-width="0.075" stroke-miterlimit="10"/>
<path d="M35.4755 42.6397C35.4755 42.6397 35.4305 37.8822 31.2705 36.0772C31.2705 36.0772 28.4905 41.5847 33.788 45.3097C33.788 45.3097 35.6655 44.0397 35.4755 42.6397Z" fill="url(#paint11_linear_6700_50128)" stroke="#A3822E" stroke-width="0.075" stroke-miterlimit="10"/>
<path d="M37.1481 75.6722C36.9106 75.7322 35.0081 75.4072 32.2806 73.9872C31.4181 73.5397 30.4756 72.9822 29.4756 72.2947" stroke="#A3822E" stroke-width="0.025" stroke-miterlimit="10"/>
<path d="M32.4055 69.4947C32.4055 69.4947 28.7505 67.1747 27.168 64.2922" stroke="#A3822E" stroke-width="0.025" stroke-miterlimit="10"/>
<path d="M31.1279 62.9572C31.1279 62.9572 27.3729 60.6347 25.5654 56.1722" stroke="#A3822E" stroke-width="0.025" stroke-miterlimit="10"/>
<path d="M30.5405 55.4172C30.5405 55.4172 27.9055 53.1147 27.168 48.3322" stroke="#A3822E" stroke-width="0.025" stroke-miterlimit="10"/>
<path d="M33.3431 43.1747L31.7031 37.2598" stroke="#A3822E" stroke-width="0.025" stroke-miterlimit="10"/>
<path d="M74.1979 33.5948C74.1979 33.5948 75.7129 30.5723 76.4629 30.5723C77.2129 30.5723 78.9929 35.7747 78.1729 38.3298C77.3529 40.8848 76.2004 41.1773 76.4854 42.7523C76.7679 44.3273 71.9179 40.0173 71.8704 39.6648C71.8229 39.3123 72.1504 35.5398 72.1504 35.5398L74.1979 33.5948Z" fill="url(#paint12_linear_6700_50128)" stroke="#A3822E" stroke-width="0.075" stroke-miterlimit="10"/>
<path d="M70.4056 27.3147C70.4056 27.3147 75.6381 28.5647 73.8131 39.3397C71.9881 50.1147 68.1456 37.8122 68.1456 37.8122C68.1456 37.8122 62.4981 33.3122 64.5131 32.2347C66.5281 31.1572 70.4056 27.3147 70.4056 27.3147Z" fill="url(#paint13_linear_6700_50128)" stroke="#A3822E" stroke-width="0.075" stroke-miterlimit="10"/>
<path d="M73.8127 39.3397C73.8127 39.3397 72.0602 30.7822 67.8877 30.3497C63.7152 29.9172 63.0127 34.8447 63.0127 34.8447L71.8652 38.2122L73.8102 39.3397H73.8127Z" fill="url(#paint14_linear_6700_50128)" stroke="#A3822E" stroke-width="0.075" stroke-miterlimit="10"/>
<path d="M77.553 77.4472L80.458 78.4022C80.458 78.4022 78.163 80.7447 76.193 80.2522C74.2255 79.7572 71.763 77.1022 71.763 77.1022C71.763 77.1022 71.533 75.4147 71.798 75.3297C72.063 75.2447 77.423 76.5247 77.423 76.5247L77.5505 77.4472H77.553Z" fill="url(#paint15_linear_6700_50128)" stroke="#A3822E" stroke-width="0.075" stroke-miterlimit="10"/>
<path d="M80.8355 70.8898L84.5605 70.9623C84.5605 70.9623 81.6455 75.9148 78.128 77.1248C78.128 77.1248 76.613 78.4098 73.768 77.3098C70.923 76.2098 70.2905 74.3223 70.2905 74.3223L75.4205 69.4948C75.4205 69.4948 78.573 69.8498 78.8055 69.8823C79.038 69.9148 80.833 70.8898 80.833 70.8898H80.8355Z" fill="url(#paint16_linear_6700_50128)" stroke="#A3822E" stroke-width="0.075" stroke-miterlimit="10"/>
<path d="M77.3104 71.4598C77.3104 71.4598 82.0654 71.8523 84.2779 67.9848C86.4929 64.1173 86.1404 62.6073 86.1404 62.6073C86.1404 62.6073 86.3154 61.8698 83.5304 63.8273L77.0354 64.2948C77.0354 64.2948 76.7079 66.1698 76.6954 66.9723C76.6829 67.7748 76.1904 70.2698 76.1904 70.5173C76.1904 70.7648 77.3054 71.4623 77.3054 71.4623L77.3104 71.4598Z" fill="url(#paint17_linear_6700_50128)" stroke="#A3822E" stroke-width="0.075" stroke-miterlimit="10"/>
<path d="M72.7356 76.0597C72.7356 76.0597 75.8081 74.5572 77.5656 70.9722C79.3231 67.3872 78.8081 66.2997 78.8081 66.2997L76.6031 65.8647C76.6031 65.8647 75.3156 67.2447 74.7881 68.5472C74.2606 69.8472 72.0431 72.6947 71.5156 73.1522C70.9881 73.6097 70.9556 75.0797 70.9556 75.0797L72.7356 76.0597Z" fill="url(#paint18_linear_6700_50128)" stroke="#A3822E" stroke-width="0.075" stroke-miterlimit="10"/>
<path d="M84.0055 55.8547C84.0055 55.8547 85.9305 54.5922 86.703 54.5922C86.703 54.5922 87.028 57.8972 85.353 61.0947C83.6805 64.2922 81.8205 65.9622 78.2505 66.3772C78.2505 66.3772 75.418 61.2372 77.1755 59.6197C78.933 58.0022 84.003 55.8572 84.003 55.8572L84.0055 55.8547Z" fill="url(#paint19_linear_6700_50128)" stroke="#A3822E" stroke-width="0.075" stroke-miterlimit="10"/>
<path d="M80.2077 52.6497C80.2077 52.6497 80.1427 50.0672 85.1102 46.6472C85.1102 46.6472 87.8277 54.2397 81.6177 57.9422L80.3152 58.8297L78.8052 55.4197L80.2052 52.6522L80.2077 52.6497Z" fill="url(#paint20_linear_6700_50128)" stroke="#A3822E" stroke-width="0.075" stroke-miterlimit="10"/>
<path d="M76.2528 42.6397C76.2528 42.6397 76.2978 37.8822 80.4578 36.0772C80.4578 36.0772 83.2378 41.5847 77.9403 45.3097C77.9403 45.3097 76.0628 44.0397 76.2528 42.6397Z" fill="url(#paint21_linear_6700_50128)" stroke="#A3822E" stroke-width="0.075" stroke-miterlimit="10"/>
<path d="M40.6079 74.4472C40.3654 74.3372 34.9829 81.4647 34.9829 81.4647C34.9829 81.4647 41.6029 88.7597 56.4779 88.7597C71.3529 88.7597 76.6479 80.8072 76.6479 80.8072L70.8829 73.8147C70.8829 73.8147 60.9004 83.7097 40.6054 74.4472H40.6079Z" fill="url(#paint22_linear_6700_50128)" stroke="#A3822E" stroke-width="0.075" stroke-miterlimit="10"/>
<path d="M40.5377 80.9047L40.5927 80.9423C40.5827 81.2048 40.6127 81.4273 40.6827 81.6098C40.7552 81.7923 40.8852 81.9473 41.0777 82.0773C41.2177 82.1723 41.3677 82.2223 41.5277 82.2273C41.6877 82.2323 41.8402 82.1973 41.9852 82.1223C42.1302 82.0473 42.2502 81.9398 42.3427 81.7998C42.4902 81.5798 42.5327 81.3723 42.4652 81.1798C42.3977 80.9873 42.2627 80.7448 42.0602 80.4498C41.8577 80.1548 41.7277 79.8923 41.6727 79.6648C41.6177 79.4373 41.6802 79.1873 41.8627 78.9173C42.0827 78.5898 42.3652 78.4123 42.7077 78.3873C43.0502 78.3623 43.3927 78.4648 43.7352 78.6948C43.8727 78.7873 43.9977 78.9022 44.1077 79.0372C44.2177 79.1722 44.2902 79.3148 44.3227 79.4598C44.2527 79.5023 44.1077 79.6173 43.8852 79.7998L43.8327 79.7648C43.8752 79.5848 43.8677 79.4148 43.8077 79.2548C43.7477 79.0948 43.6402 78.9623 43.4852 78.8573C43.3627 78.7748 43.2327 78.7248 43.0952 78.7073C42.9577 78.6898 42.8277 78.7073 42.7027 78.7648C42.5777 78.8198 42.4752 78.9073 42.3952 79.0273C42.2477 79.2448 42.2077 79.4473 42.2727 79.6398C42.3377 79.8323 42.4727 80.0773 42.6802 80.3798C42.8877 80.6823 43.0202 80.9448 43.0777 81.1673C43.1352 81.3898 43.0777 81.6273 42.9102 81.8798C42.7852 82.0673 42.6377 82.2123 42.4677 82.3173C42.3002 82.4223 42.1177 82.4872 41.9252 82.5097C41.7327 82.5322 41.5377 82.5197 41.3427 82.4672C41.1477 82.4148 40.9577 82.3273 40.7752 82.2048C40.6327 82.1098 40.4927 81.9748 40.3552 81.7973C40.2177 81.6223 40.1377 81.4598 40.1152 81.3098C40.2352 81.2223 40.3752 81.0872 40.5352 80.9047H40.5377Z" fill="#222222"/>
<path d="M45.9853 82.7247L45.3303 84.0622C45.2928 84.1372 45.2678 84.1947 45.2553 84.2322C45.2428 84.2697 45.2403 84.3072 45.2553 84.3397C45.2678 84.3747 45.2978 84.4022 45.3453 84.4272C45.3878 84.4472 45.4478 84.4672 45.5278 84.4847L45.4653 84.6122C45.3853 84.6122 45.3178 84.5997 45.2603 84.5847C45.1928 84.5647 45.1278 84.5422 45.0678 84.5122C44.9553 84.4522 44.8753 84.3772 44.8303 84.2897C44.7853 84.2022 44.7853 84.0897 44.8303 83.9597L44.7528 83.9872C44.3928 84.1122 44.0478 84.0922 43.7203 83.9322C43.5103 83.8297 43.3603 83.6747 43.2753 83.4697C43.1878 83.2647 43.1953 83.0572 43.2978 82.8522C43.3978 82.6497 43.5228 82.5147 43.6753 82.4497C43.8278 82.3847 43.9853 82.3647 44.1478 82.3897C44.3103 82.4147 44.5203 82.4672 44.7728 82.5447C44.9678 82.6022 45.1103 82.6397 45.1978 82.6547C45.2853 82.6697 45.3603 82.6647 45.4178 82.6372C45.4753 82.6097 45.5278 82.5497 45.5728 82.4572C45.6778 82.2422 45.7003 82.0472 45.6403 81.8697C45.5803 81.6947 45.4428 81.5547 45.2303 81.4497C45.1053 81.3872 44.9803 81.3547 44.8603 81.3522C44.7378 81.3497 44.6328 81.3622 44.5453 81.3947C44.4578 81.4272 44.3903 81.4647 44.3478 81.5097L44.2828 81.4772L44.4403 81.1572C44.8528 81.0972 45.2153 81.1422 45.5253 81.2947C45.8303 81.4447 46.0253 81.6397 46.1028 81.8772C46.1828 82.1172 46.1428 82.3972 45.9853 82.7197V82.7247ZM44.9228 83.7272L45.3353 82.8847L45.1128 82.8272C44.9753 82.7872 44.8453 82.7522 44.7278 82.7247C44.6078 82.6947 44.4928 82.6797 44.3778 82.6747C44.2653 82.6697 44.1553 82.6922 44.0553 82.7422C43.9528 82.7922 43.8728 82.8797 43.8128 83.0022C43.7253 83.1822 43.7078 83.3422 43.7603 83.4822C43.8153 83.6222 43.9303 83.7347 44.1128 83.8222C44.1853 83.8572 44.2753 83.8747 44.3878 83.8722C44.5003 83.8722 44.5978 83.8572 44.6828 83.8272C44.7103 83.8172 44.7403 83.8072 44.7728 83.7997C44.8053 83.7897 44.8378 83.7772 44.8703 83.7622C44.9028 83.7472 44.9203 83.7347 44.9253 83.7247L44.9228 83.7272Z" fill="#222222"/>
<path d="M46.4954 85.1997L47.3179 82.2397C47.3679 82.2572 47.4154 82.2747 47.4554 82.2897C47.4954 82.3047 47.5304 82.3172 47.5604 82.3247C47.5879 82.3322 47.6229 82.3397 47.6654 82.3472C47.7079 82.3547 47.7554 82.3647 47.8129 82.3747L47.6654 82.9072C47.7704 82.8047 47.8779 82.7247 47.9854 82.6647C48.0954 82.6047 48.2129 82.5697 48.3404 82.5547C48.4679 82.5422 48.6004 82.5547 48.7379 82.5922C48.9454 82.6497 49.1179 82.7572 49.2529 82.9122C49.3904 83.0697 49.4629 83.2497 49.4704 83.4572C49.8279 83.1172 50.2079 83.0022 50.6129 83.1147C50.9779 83.2172 51.2079 83.3872 51.3029 83.6297C51.3979 83.8722 51.3879 84.1947 51.2779 84.5972L50.7804 86.3872C50.7404 86.3722 50.7079 86.3597 50.6804 86.3497C50.6529 86.3397 50.6329 86.3322 50.6129 86.3247C50.5929 86.3172 50.5704 86.3097 50.5354 86.2997C50.4979 86.2897 50.4729 86.2822 50.4604 86.2797C50.4479 86.2772 50.4254 86.2722 50.3904 86.2672C50.3554 86.2597 50.3179 86.2547 50.2804 86.2497L50.7379 84.6022C50.7954 84.3922 50.8279 84.2097 50.8354 84.0522C50.8429 83.8947 50.8104 83.7572 50.7329 83.6397C50.6579 83.5222 50.5229 83.4347 50.3329 83.3822C50.0529 83.3047 49.8379 83.3472 49.6879 83.5097C49.5379 83.6747 49.4229 83.8997 49.3429 84.1872L48.8779 85.8597C48.8379 85.8447 48.8054 85.8322 48.7804 85.8222C48.7554 85.8122 48.7329 85.8047 48.7154 85.7972C48.6979 85.7897 48.6729 85.7822 48.6354 85.7722C48.5979 85.7622 48.5679 85.7547 48.5504 85.7522C48.5329 85.7497 48.5079 85.7447 48.4804 85.7397C48.4529 85.7347 48.4204 85.7272 48.3829 85.7222L48.8854 83.9072C48.9679 83.6122 48.9754 83.3822 48.9079 83.2122C48.8429 83.0422 48.6954 82.9272 48.4679 82.8647C48.2629 82.8072 48.0979 82.8047 47.9679 82.8522C47.8379 82.8997 47.7379 82.9822 47.6629 83.0997C47.5904 83.2147 47.5279 83.3597 47.4804 83.5297L46.9804 85.3322C46.9404 85.3172 46.9079 85.3047 46.8829 85.2947C46.8554 85.2847 46.8354 85.2772 46.8179 85.2697C46.8004 85.2622 46.7754 85.2547 46.7379 85.2447C46.7079 85.2372 46.6704 85.2272 46.6229 85.2197C46.5754 85.2097 46.5304 85.2022 46.4854 85.1947L46.4954 85.1997Z" fill="#222222"/>
<path d="M52.7579 86.0248L52.5954 88.2272C52.5529 88.2197 52.5204 88.2148 52.4929 88.2098C52.4654 88.2048 52.4429 88.2023 52.4254 88.1973C52.4079 88.1948 52.3804 88.1898 52.3429 88.1873C52.3029 88.1848 52.2729 88.1823 52.2554 88.1848C52.2379 88.1848 52.2129 88.1848 52.1854 88.1848C52.1579 88.1848 52.1229 88.1848 52.0854 88.1848L52.4304 83.4823C52.4854 83.4898 52.5329 83.4973 52.5779 83.5048C52.6229 83.5123 52.658 83.5173 52.688 83.5198C52.7155 83.5198 52.7504 83.5223 52.7929 83.5198C52.8354 83.5173 52.8854 83.5198 52.9454 83.5198L52.8979 84.1673H52.9104C53.0304 83.9748 53.1654 83.8173 53.3154 83.6998C53.4654 83.5823 53.7079 83.5373 54.0454 83.5623C54.2454 83.5773 54.4229 83.6273 54.5754 83.7173C54.7304 83.8048 54.8579 83.9223 54.9604 84.0698C55.0629 84.2173 55.1379 84.3823 55.1804 84.5598C55.2254 84.7373 55.2379 84.9273 55.2254 85.1248C55.1879 85.6448 55.0304 86.0448 54.7529 86.3298C54.4754 86.6123 54.1304 86.7398 53.7154 86.7098C53.2779 86.6773 52.9629 86.4473 52.7754 86.0223H52.7629L52.7579 86.0248ZM52.8229 85.1398C52.7954 85.5048 52.8529 85.8073 52.9929 86.0473C53.1329 86.2873 53.3604 86.4198 53.6729 86.4423C53.8804 86.4573 54.0529 86.4073 54.1929 86.2948C54.3329 86.1798 54.4404 86.0223 54.5129 85.8198C54.5879 85.6173 54.6354 85.3823 54.6554 85.1173C54.6729 84.8898 54.6604 84.6773 54.6179 84.4823C54.5754 84.2873 54.4929 84.1248 54.3704 83.9948C54.2479 83.8648 54.0779 83.7948 53.8629 83.7798C53.6329 83.7623 53.4429 83.8223 53.2929 83.9573C53.1429 84.0923 53.0304 84.2698 52.9579 84.4848C52.8854 84.6998 52.8404 84.9198 52.8229 85.1423V85.1398Z" fill="#222222"/>
<path d="M55.9003 85.1998C55.8803 84.9723 55.9053 84.7623 55.9703 84.5673C56.0353 84.3723 56.1378 84.1998 56.2753 84.0473C56.4128 83.8973 56.5778 83.7773 56.7653 83.6873C56.9528 83.5973 57.1653 83.5448 57.4003 83.5248C57.6928 83.5023 57.9553 83.5423 58.1903 83.6523C58.4253 83.7598 58.6153 83.9273 58.7578 84.1548C58.9003 84.3823 58.9878 84.6523 59.0128 84.9673C59.0303 85.1723 59.0128 85.3723 58.9578 85.5698C58.9053 85.7673 58.8153 85.9473 58.6903 86.1098C58.5653 86.2723 58.4053 86.4048 58.2103 86.5048C58.0178 86.6048 57.7928 86.6673 57.5403 86.6873C57.2628 86.7098 57.0028 86.6673 56.7628 86.5573C56.5203 86.4473 56.3228 86.2773 56.1703 86.0423C56.0153 85.8073 55.9253 85.5273 55.9003 85.1998ZM57.4078 83.7223C57.1528 83.7448 56.9528 83.8298 56.8078 83.9823C56.6603 84.1348 56.5628 84.3223 56.5128 84.5473C56.4628 84.7723 56.4478 85.0073 56.4678 85.2548C56.4878 85.4873 56.5378 85.6973 56.6228 85.8898C56.7078 86.0823 56.8278 86.2348 56.9903 86.3473C57.1503 86.4598 57.3453 86.5073 57.5753 86.4898C57.8028 86.4698 57.9828 86.3773 58.1203 86.2073C58.2578 86.0373 58.3478 85.8423 58.3978 85.6173C58.4453 85.3923 58.4628 85.1798 58.4478 84.9848C58.4353 84.8248 58.4053 84.6673 58.3628 84.5173C58.3178 84.3673 58.2553 84.2298 58.1703 84.1048C58.0853 83.9798 57.9803 83.8823 57.8528 83.8123C57.7253 83.7423 57.5778 83.7123 57.4078 83.7273V83.7223Z" fill="#222222"/>
<path d="M62.3626 85.1522L62.4301 85.4823C62.2876 85.6348 62.1326 85.7647 61.9626 85.8722C61.7926 85.9772 61.6151 86.0522 61.4351 86.0922C61.1476 86.1572 60.8776 86.1497 60.6251 86.0772C60.3726 86.0022 60.1601 85.8647 59.9826 85.6572C59.8076 85.4522 59.6826 85.1922 59.6126 84.8747C59.5476 84.5797 59.5451 84.3047 59.6026 84.0472C59.6601 83.7897 59.7851 83.5697 59.9726 83.3872C60.1601 83.2047 60.4051 83.0822 60.7076 83.0147C60.8776 82.9772 61.0451 82.9697 61.2126 82.9947C61.3801 83.0172 61.5351 83.0747 61.6776 83.1622C61.8201 83.2497 61.9451 83.3747 62.0526 83.5347C62.1601 83.6972 62.2426 83.8947 62.2926 84.1322C62.3001 84.1597 62.3051 84.1848 62.3076 84.2048C62.3101 84.2248 62.3151 84.2472 62.3176 84.2722C61.8901 84.3522 61.4651 84.4422 61.0426 84.5347L60.1576 84.7297C60.1576 84.7597 60.1676 84.8047 60.1801 84.8622C60.2151 85.0197 60.2726 85.1672 60.3501 85.2972C60.4276 85.4297 60.5276 85.5397 60.6451 85.6272C60.7626 85.7147 60.9001 85.7747 61.0501 85.8047C61.2001 85.8347 61.3601 85.8297 61.5276 85.7922C61.8451 85.7222 62.1226 85.5097 62.3601 85.1522H62.3626ZM60.1076 84.4947L61.7751 84.1272C61.6951 83.8072 61.5751 83.5572 61.4151 83.3797C61.2551 83.2022 61.0326 83.1447 60.7526 83.2072C60.5676 83.2497 60.4226 83.3347 60.3176 83.4672C60.2126 83.5972 60.1451 83.7547 60.1126 83.9372C60.0801 84.1197 60.0801 84.3072 60.1101 84.4972L60.1076 84.4947Z" fill="#222222"/>
<path d="M63.6102 85.4623L62.6602 82.5423C62.7127 82.5298 62.7627 82.5173 62.8052 82.5073C62.8477 82.4973 62.8852 82.4873 62.9127 82.4798C62.9377 82.4723 62.9702 82.4573 63.0102 82.4423C63.0502 82.4248 63.0977 82.4048 63.1502 82.3823L63.3502 82.9948L63.3552 82.9098C63.4727 82.4498 63.6652 82.1748 63.9377 82.0873C64.0177 82.0623 64.0827 82.0498 64.1352 82.0548L64.2177 82.5948C64.1977 82.5948 64.1502 82.5948 64.0752 82.5823C64.0002 82.5698 63.9402 82.5748 63.8952 82.5898C63.8227 82.6123 63.7552 82.6497 63.6927 82.6972C63.6302 82.7472 63.5827 82.8048 63.5552 82.8698C63.4952 83.0148 63.4677 83.1447 63.4777 83.2597C63.4877 83.3747 63.5227 83.5273 63.5852 83.7172L64.1002 85.2973C64.0602 85.3073 64.0252 85.3148 63.9977 85.3198C63.9702 85.3273 63.9477 85.3323 63.9277 85.3348C63.9102 85.3373 63.8827 85.3473 63.8502 85.3573C63.8127 85.3698 63.7877 85.3773 63.7777 85.3823C63.7677 85.3873 63.7452 85.3948 63.7127 85.4098C63.6802 85.4223 63.6452 85.4373 63.6127 85.4548L63.6102 85.4623Z" fill="#222222"/>
<path d="M65.8629 84.6997L64.6479 81.8797C64.7004 81.8622 64.7454 81.8472 64.7879 81.8322C64.8304 81.8197 64.8654 81.8072 64.8904 81.7947C64.9154 81.7822 64.948 81.7672 64.9855 81.7472C65.023 81.7272 65.0679 81.7022 65.1204 81.6747L65.353 82.2122C65.4055 81.7372 65.6379 81.4097 66.0529 81.2297C66.3929 81.0822 66.6755 81.0722 66.903 81.1922C67.1305 81.3147 67.3279 81.5722 67.4979 81.9697L68.2329 83.6747C68.1929 83.6872 68.1604 83.6972 68.1329 83.7072C68.1054 83.7172 68.0829 83.7247 68.0679 83.7297C68.0504 83.7347 68.0254 83.7447 67.9904 83.7597C67.9529 83.7747 67.9279 83.7872 67.9104 83.7972C67.8929 83.8072 67.8729 83.8172 67.8479 83.8322C67.8229 83.8447 67.7929 83.8622 67.7604 83.8797L67.083 82.3097C66.9955 82.1072 66.9054 81.9447 66.8079 81.8172C66.7129 81.6897 66.598 81.6047 66.4655 81.5647C66.333 81.5222 66.1804 81.5397 66.0054 81.6147C65.7154 81.7397 65.558 81.9247 65.528 82.1697C65.5005 82.4147 65.573 82.7347 65.743 83.1297L66.333 84.4972C66.293 84.5097 66.2604 84.5197 66.2329 84.5297C66.2054 84.5397 66.183 84.5472 66.1655 84.5522C66.148 84.5572 66.1204 84.5672 66.0879 84.5822C66.0504 84.5972 66.0279 84.6072 66.0179 84.6147C66.0079 84.6197 65.9879 84.6322 65.9554 84.6497C65.9229 84.6672 65.8904 84.6847 65.8579 84.7022L65.8629 84.6997Z" fill="#222222"/>
<path d="M70.273 80.2948L70.9905 81.5998C71.0305 81.6723 71.063 81.7273 71.088 81.7598C71.113 81.7923 71.143 81.8148 71.1755 81.8248C71.2105 81.8348 71.2505 81.8248 71.298 81.7998C71.338 81.7773 71.388 81.7398 71.448 81.6848L71.5155 81.8098C71.468 81.8748 71.4205 81.9248 71.378 81.9598C71.323 82.0048 71.268 82.0423 71.208 82.0748C71.0955 82.1323 70.988 82.1548 70.888 82.1423C70.788 82.1298 70.698 82.0648 70.618 81.9523L70.598 82.0323C70.493 82.3973 70.2805 82.6698 69.9605 82.8448C69.7555 82.9573 69.543 82.9898 69.3255 82.9448C69.108 82.8973 68.943 82.7723 68.833 82.5723C68.723 82.3748 68.6855 82.1948 68.7205 82.0323C68.7555 81.8698 68.828 81.7298 68.943 81.6123C69.0555 81.4923 69.218 81.3523 69.4305 81.1898C69.5905 81.0648 69.703 80.9698 69.7655 80.9048C69.828 80.8423 69.8655 80.7773 69.878 80.7148C69.8905 80.6523 69.8705 80.5748 69.8205 80.4848C69.7055 80.2748 69.558 80.1423 69.3805 80.0898C69.203 80.0373 69.0105 80.0698 68.8005 80.1848C68.678 80.2523 68.5805 80.3348 68.5055 80.4323C68.433 80.5298 68.383 80.6248 68.3605 80.7148C68.3355 80.8048 68.3305 80.8823 68.3405 80.9423L68.278 80.9773L68.1055 80.6648C68.293 80.2923 68.538 80.0223 68.843 79.8548C69.1405 79.6898 69.4105 79.6448 69.653 79.7173C69.893 79.7898 70.1005 79.9823 70.2755 80.2973L70.273 80.2948ZM70.4805 81.7423L70.028 80.9198L69.853 81.0698C69.7405 81.1598 69.638 81.2448 69.5455 81.3248C69.453 81.4048 69.373 81.4898 69.303 81.5823C69.233 81.6748 69.1905 81.7748 69.173 81.8873C69.1555 81.9998 69.1805 82.1148 69.248 82.2373C69.3455 82.4123 69.4655 82.5198 69.6105 82.5548C69.7555 82.5898 69.9155 82.5598 70.093 82.4648C70.163 82.4273 70.228 82.3623 70.293 82.2698C70.358 82.1773 70.4005 82.0898 70.4255 82.0048C70.433 81.9773 70.443 81.9473 70.453 81.9148C70.463 81.8823 70.473 81.8498 70.478 81.8123C70.483 81.7773 70.483 81.7548 70.478 81.7448L70.4805 81.7423Z" fill="#222222"/>
<path d="M44.743 34.4697C44.743 34.4697 43.9705 28.6497 41.2305 27.3122C41.2305 27.3122 55.573 17.6097 70.4055 27.3122C70.4055 27.3122 66.4905 30.9347 66.6555 33.9747L44.743 34.4697Z" fill="url(#paint23_linear_6700_50128)" stroke="#A3822E" stroke-width="0.075" stroke-miterlimit="10"/>
<path d="M48.7253 30.7447L47.7378 25.8047L49.1578 25.5197C49.5203 25.4472 49.8278 25.4197 50.0778 25.4347C50.3278 25.4522 50.5278 25.5222 50.6778 25.6447C50.8278 25.7672 50.9278 25.9522 50.9753 26.1972C51.0078 26.3622 51.0103 26.5197 50.9803 26.6697C50.9503 26.8197 50.8953 26.9597 50.8128 27.0922C50.7303 27.2247 50.6278 27.3397 50.5053 27.4422C50.3828 27.5422 50.2403 27.6322 50.0828 27.7097C50.2353 27.6872 50.3953 27.6822 50.5603 27.6947C50.7253 27.7072 50.8828 27.7447 51.0278 27.8047C51.1753 27.8647 51.3053 27.9597 51.4153 28.0872C51.5253 28.2147 51.6003 28.3797 51.6428 28.5822C51.7453 29.0972 51.6103 29.5497 51.2353 29.9372C51.1253 30.0472 50.9903 30.1422 50.8278 30.2197C50.6678 30.2997 50.5053 30.3597 50.3453 30.4022C50.1828 30.4447 49.9903 30.4872 49.7603 30.5347L48.7278 30.7422L48.7253 30.7447ZM48.4278 25.9472L48.8103 27.8622L49.1078 27.8022C49.2978 27.7647 49.4628 27.7197 49.5978 27.6722C49.7328 27.6247 49.8653 27.5572 49.9878 27.4672C50.1478 27.3472 50.2603 27.2022 50.3278 27.0322C50.3928 26.8622 50.4078 26.6772 50.3678 26.4797C50.3228 26.2597 50.2403 26.0947 50.1178 25.9822C49.9953 25.8697 49.8378 25.8047 49.6478 25.7872C49.4578 25.7697 49.2278 25.7872 48.9603 25.8422L48.4278 25.9497V25.9472ZM48.8653 28.1322L49.3078 30.3497L49.9953 30.2122C50.2353 30.1647 50.4353 30.0747 50.6003 29.9422C50.7653 29.8097 50.8828 29.6472 50.9503 29.4547C51.0178 29.2622 51.0303 29.0597 50.9878 28.8472C50.9078 28.4447 50.7203 28.1897 50.4278 28.0772C50.1328 27.9672 49.7453 27.9572 49.2653 28.0547L48.8603 28.1347L48.8653 28.1322Z" fill="#222222"/>
<path d="M55.2276 27.5772L55.3201 29.2897C55.3251 29.3872 55.3326 29.4572 55.3401 29.5047C55.3476 29.5522 55.3676 29.5872 55.3976 29.6147C55.4276 29.6422 55.4751 29.6547 55.5376 29.6497C55.5901 29.6472 55.6626 29.6322 55.7526 29.6047L55.7601 29.7672C55.6776 29.8097 55.6051 29.8397 55.5401 29.8547C55.4626 29.8722 55.3826 29.8847 55.3076 29.8897C55.1601 29.8922 55.0401 29.8622 54.9426 29.7997C54.8476 29.7372 54.7851 29.6247 54.7576 29.4672L54.6951 29.5397C54.4026 29.8647 54.0451 30.0397 53.6276 30.0622C53.3576 30.0772 53.1226 30.0047 52.9201 29.8472C52.7176 29.6897 52.6101 29.4772 52.5951 29.2122C52.5826 28.9522 52.6326 28.7472 52.7476 28.5972C52.8626 28.4472 53.0101 28.3372 53.1876 28.2722C53.3651 28.2072 53.6026 28.1397 53.9026 28.0772C54.1301 28.0272 54.2951 27.9847 54.3901 27.9497C54.4876 27.9147 54.5576 27.8672 54.6001 27.8072C54.6451 27.7472 54.6626 27.6572 54.6576 27.5397C54.6426 27.2622 54.5551 27.0547 54.3976 26.9122C54.2401 26.7697 54.0226 26.7072 53.7501 26.7222C53.5876 26.7297 53.4451 26.7672 53.3226 26.8322C53.1976 26.8972 53.1001 26.9697 53.0301 27.0522C52.9601 27.1347 52.9151 27.2097 52.8976 27.2772L52.8151 27.2822L52.7926 26.8722C53.1751 26.5797 53.5651 26.4222 53.9601 26.4022C54.3501 26.3822 54.6551 26.4697 54.8676 26.6647C55.0826 26.8597 55.2001 27.1647 55.2226 27.5797L55.2276 27.5772ZM54.7201 29.1797L54.6626 28.1022L54.4051 28.1697C54.2426 28.2072 54.0951 28.2447 53.9601 28.2822C53.8251 28.3197 53.6976 28.3672 53.5801 28.4272C53.4626 28.4872 53.3676 28.5697 53.2926 28.6772C53.2201 28.7847 53.1851 28.9172 53.1951 29.0772C53.2076 29.3072 53.2801 29.4772 53.4126 29.5872C53.5451 29.6972 53.7276 29.7472 53.9576 29.7347C54.0501 29.7297 54.1501 29.6947 54.2626 29.6322C54.3751 29.5697 54.4651 29.4997 54.5351 29.4222C54.5576 29.3972 54.5826 29.3697 54.6101 29.3422C54.6376 29.3147 54.6626 29.2847 54.6851 29.2497C54.7076 29.2172 54.7201 29.1947 54.7201 29.1822V29.1797Z" fill="#222222"/>
<path d="M56.3955 29.9047L56.6755 26.3822C56.738 26.3922 56.793 26.4022 56.843 26.4097C56.893 26.4172 56.9355 26.4247 56.968 26.4272C56.998 26.4272 57.0405 26.4297 57.088 26.4272C57.138 26.4272 57.1955 26.4272 57.263 26.4272L57.208 27.0997C57.518 26.6447 57.9305 26.4372 58.4505 26.4772C58.8755 26.5122 59.1705 26.6497 59.3355 26.8972C59.5005 27.1422 59.563 27.5122 59.523 28.0072L59.353 30.1372C59.3055 30.1297 59.2655 30.1222 59.233 30.1172C59.2005 30.1122 59.1755 30.1072 59.1555 30.1047C59.1355 30.1022 59.103 30.0972 59.0605 30.0947C59.0155 30.0922 58.9805 30.0897 58.9605 30.0897C58.9405 30.0897 58.9105 30.0897 58.878 30.0897C58.8455 30.0897 58.808 30.0897 58.763 30.0897L58.9205 28.1297C58.9405 27.8772 58.9355 27.6622 58.908 27.4797C58.8805 27.2972 58.808 27.1522 58.6955 27.0372C58.583 26.9222 58.418 26.8572 58.203 26.8397C57.8405 26.8097 57.5805 26.9122 57.4205 27.1472C57.2605 27.3822 57.1605 27.7447 57.1205 28.2397L56.9855 29.9497C56.938 29.9422 56.898 29.9347 56.8655 29.9297C56.833 29.9247 56.808 29.9197 56.7855 29.9172C56.763 29.9147 56.733 29.9097 56.693 29.9072C56.648 29.9047 56.618 29.9022 56.6055 29.9022C56.593 29.9022 56.5655 29.9022 56.523 29.9022C56.4805 29.9022 56.4405 29.9022 56.3955 29.9022V29.9047Z" fill="#222222"/>
<path d="M62.0728 24.9947L61.3753 28.2347C61.3553 28.3322 61.3428 28.3922 61.3428 28.4197C61.3428 28.4472 61.3478 28.4672 61.3603 28.4797C61.4953 28.5072 61.7353 28.4122 62.0803 28.1872L62.6253 27.8297L63.3228 27.3297C63.3828 27.3472 63.4378 27.3647 63.4853 27.3797C63.5328 27.3947 63.5753 27.4072 63.6078 27.4122C63.6328 27.4172 63.6703 27.4222 63.7203 27.4297C63.7703 27.4347 63.8278 27.4422 63.8953 27.4522L63.8828 27.5047C63.7928 27.5572 63.7153 27.5997 63.6453 27.6347C63.5778 27.6697 63.4228 27.7497 63.1828 27.8772C62.9428 28.0047 62.7053 28.1372 62.4753 28.2697C62.2453 28.4022 62.0828 28.4972 61.9903 28.5547C62.0478 28.6597 62.1278 28.8022 62.2278 28.9872C62.3278 29.1722 62.4428 29.3872 62.5753 29.6322C62.7078 29.8772 62.8303 30.0997 62.9403 30.3022C63.0503 30.5047 63.1578 30.6997 63.2628 30.8922L63.2553 30.9272C63.1953 30.9097 63.1478 30.8947 63.1103 30.8847C63.0753 30.8747 63.0453 30.8647 63.0178 30.8572C62.9928 30.8497 62.9553 30.8397 62.9053 30.8297C62.8503 30.8172 62.8128 30.8097 62.7953 30.8072C62.7778 30.8047 62.7453 30.7997 62.6953 30.7922C62.6453 30.7847 62.5928 30.7772 62.5403 30.7722C62.4628 30.6047 62.3328 30.3522 62.1478 30.0122C61.9628 29.6722 61.7503 29.2847 61.5078 28.8472C61.4553 28.7572 61.4078 28.7072 61.3653 28.6972C61.3053 28.6847 61.2553 28.7647 61.2153 28.9422L60.8978 30.4172C60.8503 30.4022 60.8128 30.3897 60.7828 30.3822C60.7528 30.3722 60.7253 30.3647 60.7053 30.3572C60.6853 30.3497 60.6528 30.3422 60.6153 30.3347C60.5703 30.3247 60.5428 30.3197 60.5278 30.3172C60.5153 30.3172 60.4878 30.3122 60.4478 30.3072C60.4078 30.3022 60.3653 30.2972 60.3228 30.2922L61.4928 24.8622C61.5528 24.8797 61.6078 24.8972 61.6553 24.9122C61.7028 24.9272 61.7453 24.9397 61.7778 24.9447C61.8078 24.9522 61.8478 24.9572 61.8978 24.9622C61.9478 24.9672 62.0053 24.9747 62.0728 24.9847V24.9947Z" fill="#222222"/>
<path d="M55.8177 80.8122C69.426 80.8122 80.4577 69.7805 80.4577 56.1722C80.4577 42.5639 69.426 31.5322 55.8177 31.5322C42.2094 31.5322 31.1777 42.5639 31.1777 56.1722C31.1777 69.7805 42.2094 80.8122 55.8177 80.8122Z" fill="url(#paint24_linear_6700_50128)" stroke="#A3822E" stroke-width="0.075" stroke-miterlimit="10"/>
<path d="M56.1852 74.4447C66.6938 74.4447 75.2127 65.9258 75.2127 55.4172C75.2127 44.9086 66.6938 36.3897 56.1852 36.3897C45.6766 36.3897 37.1577 44.9086 37.1577 55.4172C37.1577 65.9258 45.6766 74.4447 56.1852 74.4447Z" fill="white"/>
<path d="M56.1854 75.0797C45.3429 75.0797 36.5254 66.2597 36.5254 55.4197C36.5254 44.5797 45.3429 35.7572 56.1854 35.7572C67.0279 35.7572 75.8454 44.5772 75.8454 55.4172C75.8454 66.2572 67.0254 75.0772 56.1854 75.0772V75.0797ZM56.1854 37.0222C46.0429 37.0222 37.7904 45.2747 37.7904 55.4172C37.7904 65.5597 46.0429 73.8122 56.1854 73.8122C66.3279 73.8122 74.5804 65.5597 74.5804 55.4172C74.5804 45.2747 66.3279 37.0222 56.1854 37.0222Z" fill="#222222"/>
<path d="M56.1829 38.5447C46.8704 38.5447 39.3154 46.0997 39.3154 55.4197C39.3154 64.7397 46.8704 72.2947 56.1829 72.2947C65.4954 72.2947 73.0579 64.7397 73.0579 55.4197C73.0579 46.0997 65.5029 38.5447 56.1829 38.5447ZM55.6054 65.5897H56.0379C55.8879 65.7697 55.7904 65.8672 55.7904 65.8672C55.7229 65.7772 55.6679 65.6822 55.6054 65.5897Z" fill="#FF0000"/>
<path d="M68.4827 47.3847C60.1502 44.4672 55.8277 49.6697 55.8277 49.6697C49.1152 44.1522 42.6802 48.1947 42.6802 48.1947C44.5477 56.8072 51.1202 57.7222 51.1202 57.7222C49.0777 64.3972 55.8277 69.8822 55.8277 69.8822C61.5227 66.6497 61.2752 57.4747 61.2752 57.4747C67.8877 55.0447 68.4827 47.3822 68.4827 47.3822V47.3847ZM55.6327 53.4522C56.0877 52.8322 57.5302 55.7872 57.2527 56.0647C56.9752 56.3497 54.5627 56.4697 54.3552 55.9072C54.1402 55.3497 55.6327 53.4522 55.6327 53.4522ZM51.8552 55.0847C47.4252 53.9272 46.2302 49.9347 46.2302 49.9347C51.2802 49.1822 53.9802 51.6747 53.9802 51.6747C51.8552 52.9397 51.8552 55.0847 51.8552 55.0847ZM55.6452 65.5297C53.2852 62.3022 53.5452 58.2797 53.5452 58.2797C55.5127 58.8422 58.0177 58.2797 58.0177 58.2797C58.5677 62.6022 55.6452 65.5297 55.6452 65.5297ZM60.2377 55.0847C59.7327 53.4322 57.7252 51.5172 57.7252 51.5172C61.0652 48.7197 65.1102 49.5997 65.1102 49.5997C63.6677 53.3272 60.2377 55.0847 60.2377 55.0847Z" fill="white" stroke="#222222" stroke-width="0.125" stroke-miterlimit="10"/>
<path d="M48.4829 77.4422L48.5154 77.4572C48.5304 77.5647 48.568 77.6672 48.6255 77.7622C48.6855 77.8572 48.7579 77.9222 48.8479 77.9622C48.9129 77.9922 48.9854 78.0047 49.0579 77.9997C49.1329 77.9947 49.2029 77.9722 49.2654 77.9322C49.3279 77.8922 49.3754 77.8397 49.4054 77.7697C49.4579 77.6497 49.4579 77.5497 49.4054 77.4722C49.3504 77.3947 49.2529 77.2947 49.1104 77.1747C48.9679 77.0547 48.8704 76.9447 48.8204 76.8422C48.7704 76.7397 48.7804 76.6097 48.8479 76.4522C48.9304 76.2672 49.0579 76.1472 49.2279 76.0972C49.3979 76.0472 49.5804 76.0622 49.7704 76.1472C49.8629 76.1872 49.9454 76.2397 50.0229 76.2997C50.1004 76.3597 50.1529 76.4122 50.1804 76.4547C50.1054 76.5222 50.0304 76.6022 49.9554 76.6972L49.9204 76.6822C49.9204 76.6322 49.9154 76.5772 49.8979 76.5172C49.8804 76.4572 49.8554 76.4072 49.8229 76.3622C49.7904 76.3172 49.7479 76.2847 49.6979 76.2622C49.5929 76.2172 49.4929 76.2072 49.3979 76.2347C49.3029 76.2622 49.2304 76.3297 49.1854 76.4347C49.1354 76.5472 49.1355 76.6447 49.188 76.7247C49.2405 76.8022 49.3354 76.9047 49.4729 77.0272C49.6104 77.1497 49.7054 77.2622 49.7604 77.3672C49.8154 77.4722 49.8079 77.5972 49.7454 77.7422C49.6854 77.8772 49.5979 77.9772 49.4829 78.0422C49.3679 78.1072 49.2429 78.1397 49.1054 78.1347C48.9704 78.1322 48.8404 78.1047 48.7204 78.0497C48.5304 77.9647 48.3804 77.8497 48.2729 77.6997C48.3904 77.5697 48.4604 77.4847 48.4879 77.4422H48.4829Z" fill="#222222"/>
<path d="M51.9957 77.6597L51.7232 78.6422C51.7082 78.6972 51.6982 78.7397 51.6932 78.7672C51.6882 78.7947 51.6932 78.8197 51.7057 78.8397C51.7182 78.8597 51.7407 78.8772 51.7782 78.8872C51.8082 78.8947 51.8507 78.8997 51.9082 78.9022L51.8832 78.9947C51.8282 79.0022 51.7832 79.0047 51.7432 79.0022C51.6957 78.9972 51.6507 78.9897 51.6057 78.9772C51.5232 78.9522 51.4582 78.9097 51.4182 78.8572C51.3757 78.8022 51.3607 78.7297 51.3757 78.6347L51.3282 78.6647C51.1007 78.7922 50.8682 78.8247 50.6257 78.7572C50.4707 78.7147 50.3507 78.6297 50.2682 78.5022C50.1832 78.3747 50.1632 78.2347 50.2057 78.0847C50.2482 77.9347 50.3132 77.8297 50.4082 77.7672C50.5032 77.7047 50.6057 77.6697 50.7182 77.6672C50.8307 77.6647 50.9782 77.6722 51.1582 77.6922C51.2982 77.7072 51.3957 77.7147 51.4582 77.7122C51.5207 77.7097 51.5682 77.6972 51.6032 77.6722C51.6407 77.6472 51.6657 77.5997 51.6857 77.5322C51.7307 77.3747 51.7207 77.2397 51.6582 77.1297C51.5957 77.0197 51.4857 76.9422 51.3282 76.8997C51.2357 76.8747 51.1482 76.8672 51.0657 76.8797C50.9832 76.8922 50.9132 76.9147 50.8607 76.9497C50.8057 76.9822 50.7657 77.0172 50.7432 77.0522L50.6957 77.0397L50.7607 76.8047C51.0307 76.7122 51.2807 76.6972 51.5082 76.7597C51.7332 76.8222 51.8882 76.9297 51.9707 77.0797C52.0532 77.2297 52.0632 77.4247 51.9982 77.6622L51.9957 77.6597ZM51.4057 78.4672L51.5782 77.8472L51.4207 77.8372C51.3207 77.8272 51.2307 77.8222 51.1482 77.8172C51.0657 77.8122 50.9832 77.8172 50.9082 77.8272C50.8307 77.8397 50.7607 77.8672 50.6982 77.9147C50.6357 77.9622 50.5932 78.0297 50.5657 78.1222C50.5282 78.2547 50.5382 78.3647 50.5907 78.4522C50.6432 78.5397 50.7382 78.6022 50.8707 78.6372C50.9232 78.6522 50.9857 78.6522 51.0632 78.6372C51.1407 78.6222 51.2032 78.5997 51.2557 78.5697C51.2732 78.5597 51.2932 78.5497 51.3132 78.5397C51.3332 78.5297 51.3557 78.5172 51.3732 78.5022C51.3932 78.4872 51.4032 78.4772 51.4057 78.4697V78.4672Z" fill="#222222"/>
<path d="M52.5952 79.2022L52.9977 75.9222C53.0352 75.9297 53.0677 75.9372 53.0977 75.9422C53.1277 75.9497 53.1527 75.9547 53.1727 75.9547C53.1927 75.9547 53.2152 75.9572 53.2452 75.9597C53.2752 75.9597 53.3102 75.9597 53.3502 75.9647L53.1552 77.5547C53.3502 77.2922 53.6027 77.1797 53.9102 77.2172C54.1577 77.2472 54.3302 77.3397 54.4227 77.4947C54.5152 77.6497 54.5452 77.8697 54.5102 78.1547L54.3552 79.4172C54.3277 79.4097 54.3052 79.4047 54.2852 79.4022C54.2652 79.3972 54.2502 79.3947 54.2402 79.3922C54.2302 79.3897 54.2102 79.3872 54.1827 79.3822C54.1552 79.3797 54.1352 79.3772 54.1227 79.3772C54.1102 79.3772 54.0927 79.3772 54.0752 79.3772C54.0552 79.3772 54.0327 79.3772 54.0077 79.3772L54.1502 78.2147C54.1802 77.9622 54.1677 77.7722 54.1102 77.6497C54.0527 77.5247 53.9352 77.4522 53.7552 77.4297C53.3727 77.3822 53.1552 77.5922 53.0977 78.0597L52.9527 79.2472C52.9252 79.2397 52.9027 79.2347 52.8827 79.2322C52.8627 79.2297 52.8477 79.2247 52.8352 79.2222C52.8227 79.2197 52.8052 79.2172 52.7802 79.2122C52.7527 79.2097 52.7352 79.2072 52.7277 79.2072C52.7202 79.2072 52.7027 79.2072 52.6802 79.2072C52.6552 79.2072 52.6302 79.2072 52.6052 79.2072L52.5952 79.2022Z" fill="#222222"/>
<path d="M56.7431 78.0472L56.7581 79.0672C56.7581 79.1247 56.7606 79.1672 56.7656 79.1947C56.7681 79.2222 56.7806 79.2447 56.7981 79.2622C56.8156 79.2797 56.8431 79.2872 56.8806 79.2872C56.9131 79.2872 56.9556 79.2797 57.0081 79.2672V79.3647C56.9606 79.3872 56.9156 79.4047 56.8781 79.4122C56.8306 79.4222 56.7831 79.4272 56.7381 79.4272C56.6506 79.4272 56.5806 79.4047 56.5231 79.3647C56.4681 79.3247 56.4331 79.2572 56.4206 79.1622L56.3831 79.2047C56.2006 79.3922 55.9856 79.4872 55.7356 79.4897C55.5756 79.4922 55.4356 79.4447 55.3206 79.3447C55.2031 79.2472 55.1431 79.1172 55.1431 78.9597C55.1431 78.8047 55.1756 78.6847 55.2481 78.5972C55.3206 78.5097 55.4106 78.4497 55.5181 78.4122C55.6256 78.3772 55.7681 78.3447 55.9481 78.3122C56.0856 78.2872 56.1831 78.2672 56.2406 78.2472C56.2981 78.2297 56.3431 78.2022 56.3706 78.1672C56.3981 78.1322 56.4106 78.0797 56.4106 78.0097C56.4106 77.8447 56.3606 77.7197 56.2706 77.6297C56.1806 77.5397 56.0531 77.4997 55.8881 77.5022C55.7931 77.5022 55.7081 77.5222 55.6306 77.5572C55.5531 77.5922 55.4956 77.6347 55.4531 77.6822C55.4081 77.7297 55.3806 77.7722 55.3681 77.8122H55.3181L55.3156 77.5672C55.5506 77.4022 55.7856 77.3172 56.0206 77.3147C56.2531 77.3122 56.4331 77.3697 56.5556 77.4922C56.6781 77.6147 56.7406 77.7972 56.7456 78.0447L56.7431 78.0472ZM56.4031 78.9897L56.3931 78.3472L56.2381 78.3822C56.1406 78.4022 56.0506 78.4197 55.9706 78.4397C55.8881 78.4572 55.8131 78.4847 55.7406 78.5172C55.6706 78.5497 55.6106 78.5972 55.5631 78.6597C55.5181 78.7222 55.4956 78.7997 55.4956 78.8947C55.4956 79.0322 55.5381 79.1347 55.6131 79.2022C55.6906 79.2697 55.7956 79.3047 55.9331 79.3022C55.9881 79.3022 56.0481 79.2822 56.1181 79.2472C56.1856 79.2122 56.2406 79.1722 56.2831 79.1297C56.2981 79.1147 56.3131 79.0997 56.3306 79.0847C56.3481 79.0697 56.3631 79.0522 56.3781 79.0322C56.3931 79.0122 56.4006 78.9997 56.4006 78.9922L56.4031 78.9897Z" fill="#222222"/>
<path d="M57.6528 79.3672L57.1953 76.1072C57.2328 76.1072 57.2653 76.1022 57.2953 76.1022C57.3253 76.1022 57.3503 76.0997 57.3703 76.0947C57.3878 76.0922 57.4128 76.0872 57.4403 76.0797C57.4703 76.0722 57.5028 76.0647 57.5428 76.0572L57.7703 77.6697C57.8453 77.5147 57.9403 77.3897 58.0503 77.2922C58.1628 77.1947 58.3003 77.1372 58.4603 77.1147C58.6553 77.0872 58.8253 77.1147 58.9728 77.1922C59.1178 77.2697 59.2353 77.3822 59.3203 77.5297C59.4053 77.6772 59.4603 77.8322 59.4828 78.0022C59.5028 78.1497 59.5028 78.2947 59.4778 78.4372C59.4528 78.5772 59.4053 78.7072 59.3353 78.8247C59.2653 78.9422 59.1728 79.0422 59.0603 79.1222C58.9453 79.2022 58.8128 79.2522 58.6578 79.2747C58.3853 79.3122 58.1628 79.2397 57.9953 79.0522C57.9653 79.0822 57.9278 79.1222 57.8853 79.1747C57.8428 79.2272 57.7928 79.2872 57.7353 79.3547L57.6528 79.3647V79.3672ZM58.3778 77.3147C58.1478 77.3472 57.9953 77.4672 57.9203 77.6772C57.8453 77.8872 57.8278 78.1372 57.8703 78.4297C57.8928 78.5822 57.9353 78.7172 58.0028 78.8322C58.0678 78.9472 58.1528 79.0322 58.2553 79.0872C58.3578 79.1422 58.4703 79.1597 58.5953 79.1422C58.7128 79.1247 58.8078 79.0822 58.8828 79.0097C58.9578 78.9372 59.0153 78.8472 59.0528 78.7397C59.0903 78.6322 59.1128 78.5247 59.1203 78.4122C59.1278 78.3022 59.1203 78.1872 59.1053 78.0747C59.0828 77.9097 59.0403 77.7672 58.9803 77.6472C58.9203 77.5272 58.8403 77.4372 58.7403 77.3772C58.6403 77.3172 58.5203 77.2947 58.3828 77.3147H58.3778Z" fill="#222222"/>
<path d="M61.4106 77.2272L61.6656 78.2147C61.6806 78.2697 61.6931 78.3122 61.7031 78.3372C61.7131 78.3622 61.7281 78.3822 61.7506 78.3947C61.7706 78.4072 61.8006 78.4072 61.8356 78.3997C61.8656 78.3922 61.9056 78.3747 61.9556 78.3472L61.9806 78.4397C61.9381 78.4747 61.8981 78.4997 61.8631 78.5172C61.8206 78.5372 61.7756 78.5547 61.7306 78.5647C61.6456 78.5847 61.5706 78.5822 61.5081 78.5547C61.4431 78.5297 61.3956 78.4722 61.3606 78.3822L61.3331 78.4322C61.2006 78.6572 61.0131 78.8022 60.7731 78.8647C60.6181 78.9047 60.4731 78.8922 60.3356 78.8222C60.1981 78.7547 60.1106 78.6447 60.0706 78.4922C60.0331 78.3422 60.0381 78.2172 60.0881 78.1147C60.1381 78.0122 60.2106 77.9322 60.3056 77.8722C60.4006 77.8122 60.5331 77.7472 60.7006 77.6722C60.8281 77.6147 60.9181 77.5722 60.9706 77.5397C61.0231 77.5097 61.0581 77.4722 61.0781 77.4322C61.0956 77.3922 61.0956 77.3372 61.0781 77.2697C61.0356 77.1097 60.9606 76.9972 60.8531 76.9347C60.7431 76.8697 60.6106 76.8597 60.4531 76.8997C60.3606 76.9247 60.2806 76.9622 60.2156 77.0147C60.1506 77.0672 60.1031 77.1222 60.0706 77.1772C60.0406 77.2347 60.0231 77.2822 60.0206 77.3247L59.9731 77.3372L59.9106 77.0997C60.0981 76.8847 60.3081 76.7472 60.5356 76.6872C60.7606 76.6272 60.9481 76.6447 61.0981 76.7322C61.2456 76.8222 61.3506 76.9847 61.4131 77.2222L61.4106 77.2272ZM61.3056 78.2222L61.1431 77.5997L61.0006 77.6697C60.9106 77.7097 60.8281 77.7497 60.7531 77.7872C60.6781 77.8247 60.6106 77.8672 60.5481 77.9172C60.4856 77.9647 60.4406 78.0247 60.4106 78.0972C60.3806 78.1697 60.3756 78.2497 60.4006 78.3422C60.4356 78.4747 60.4981 78.5647 60.5881 78.6147C60.6781 78.6622 60.7906 78.6697 60.9231 78.6347C60.9756 78.6197 61.0306 78.5897 61.0881 78.5372C61.1456 78.4872 61.1906 78.4347 61.2206 78.3822C61.2306 78.3647 61.2431 78.3472 61.2556 78.3272C61.2681 78.3072 61.2806 78.2872 61.2906 78.2647C61.3006 78.2422 61.3031 78.2272 61.3031 78.2197L61.3056 78.2222Z" fill="#222222"/>
<path d="M61.7307 75.9147L62.0207 75.6722L62.2057 76.2122L62.6457 76.0622C62.6532 76.1047 62.6607 76.1347 62.6657 76.1497C62.6732 76.1722 62.6857 76.1972 62.7007 76.2222L62.2607 76.3722L62.6182 77.4172L62.6707 77.5672C62.7257 77.7272 62.7882 77.8472 62.8632 77.9272C62.9357 78.0097 63.0357 78.0272 63.1607 77.9847C63.1882 77.9747 63.2457 77.9447 63.3382 77.8922L63.3732 77.9922C63.2532 78.0897 63.1432 78.1547 63.0482 78.1872C62.9707 78.2147 62.9007 78.2272 62.8357 78.2272C62.7707 78.2272 62.7082 78.2097 62.6507 78.1722C62.5932 78.1347 62.5382 78.0797 62.4857 77.9997C62.4357 77.9197 62.3882 77.8197 62.3457 77.6947L61.9307 76.4822L61.6732 76.5697C61.6732 76.5497 61.6682 76.5197 61.6557 76.4872C61.6432 76.4497 61.6307 76.4247 61.6182 76.4122L61.8757 76.3247L61.7357 75.9122L61.7307 75.9147Z" fill="#222222"/>
<path d="M74.5806 75.6722C74.8181 75.7322 76.7206 75.4072 79.4481 73.9872C80.3106 73.5397 81.2531 72.9822 82.2531 72.2947" stroke="#A3822E" stroke-width="0.025" stroke-miterlimit="10"/>
<path d="M79.3228 69.4947C79.3228 69.4947 82.9778 67.1747 84.5603 64.2922" stroke="#A3822E" stroke-width="0.025" stroke-miterlimit="10"/>
<path d="M80.5981 62.9572C80.5981 62.9572 84.3531 60.6347 86.1606 56.1722" stroke="#A3822E" stroke-width="0.025" stroke-miterlimit="10"/>
<path d="M81.188 55.4172C81.188 55.4172 83.823 53.1147 84.5605 48.3322" stroke="#A3822E" stroke-width="0.025" stroke-miterlimit="10"/>
<path d="M78.3853 43.1747L80.0253 37.2598" stroke="#A3822E" stroke-width="0.025" stroke-miterlimit="10"/>
</g>
<rect x="1" y="1" width="110" height="110" rx="9" stroke="black" stroke-opacity="0.1" stroke-width="2"/>
<defs>
<linearGradient id="paint0_linear_6700_50128" x1="30.6802" y1="44.2397" x2="26.3227" y2="49.4422" gradientUnits="userSpaceOnUse">
<stop stop-color="#F7E349"/>
<stop offset="1" stop-color="#A3822E"/>
</linearGradient>
<linearGradient id="paint1_linear_6700_50128" x1="81.0477" y1="44.2397" x2="85.4052" y2="49.4422" gradientUnits="userSpaceOnUse">
<stop stop-color="#F7E349"/>
<stop offset="1" stop-color="#A3822E"/>
</linearGradient>
<linearGradient id="paint2_linear_6700_50128" x1="36.3855" y1="36.7648" x2="31.183" y2="37.1148" gradientUnits="userSpaceOnUse">
<stop stop-color="#F7E349"/>
<stop offset="1" stop-color="#A3822E"/>
</linearGradient>
<linearGradient id="paint3_linear_6700_50128" x1="42.7852" y1="32.2647" x2="39.2002" y2="39.8572" gradientUnits="userSpaceOnUse">
<stop stop-color="#F7E349"/>
<stop offset="1" stop-color="#A3822E"/>
</linearGradient>
<linearGradient id="paint4_linear_6700_50128" x1="46.5355" y1="34.8297" x2="35.148" y2="34.8297" gradientUnits="userSpaceOnUse">
<stop stop-color="#F7E349"/>
<stop offset="1" stop-color="#A3822E"/>
</linearGradient>
<linearGradient id="paint5_linear_6700_50128" x1="30.5305" y1="76.7747" x2="40.0905" y2="78.2497" gradientUnits="userSpaceOnUse">
<stop stop-color="#F7E349"/>
<stop offset="1" stop-color="#A3822E"/>
</linearGradient>
<linearGradient id="paint6_linear_6700_50128" x1="34.5755" y1="71.4248" x2="32.748" y2="79.5798" gradientUnits="userSpaceOnUse">
<stop stop-color="#F7E349"/>
<stop offset="1" stop-color="#A3822E"/>
</linearGradient>
<linearGradient id="paint7_linear_6700_50128" x1="30.9754" y1="65.8323" x2="27.9529" y2="71.0348" gradientUnits="userSpaceOnUse">
<stop stop-color="#F7E349"/>
<stop offset="1" stop-color="#A3822E"/>
</linearGradient>
<linearGradient id="paint8_linear_6700_50128" x1="34.113" y1="68.2747" x2="42.408" y2="76.8522" gradientUnits="userSpaceOnUse">
<stop stop-color="#F7E349"/>
<stop offset="1" stop-color="#A3822E"/>
</linearGradient>
<linearGradient id="paint9_linear_6700_50128" x1="30.1829" y1="58.4347" x2="25.8254" y2="68.2772" gradientUnits="userSpaceOnUse">
<stop stop-color="#F7E349"/>
<stop offset="1" stop-color="#A3822E"/>
</linearGradient>
<linearGradient id="paint10_linear_6700_50128" x1="30.6203" y1="50.7697" x2="24.0828" y2="58.7822" gradientUnits="userSpaceOnUse">
<stop stop-color="#F7E349"/>
<stop offset="1" stop-color="#A3822E"/>
</linearGradient>
<linearGradient id="paint11_linear_6700_50128" x1="34.373" y1="40.4347" x2="28.398" y2="41.2772" gradientUnits="userSpaceOnUse">
<stop stop-color="#F7E349"/>
<stop offset="1" stop-color="#A3822E"/>
</linearGradient>
<linearGradient id="paint12_linear_6700_50128" x1="75.3429" y1="36.7648" x2="80.5454" y2="37.1148" gradientUnits="userSpaceOnUse">
<stop stop-color="#F7E349"/>
<stop offset="1" stop-color="#A3822E"/>
</linearGradient>
<linearGradient id="paint13_linear_6700_50128" x1="68.9431" y1="32.2647" x2="72.5281" y2="39.8572" gradientUnits="userSpaceOnUse">
<stop stop-color="#F7E349"/>
<stop offset="1" stop-color="#A3822E"/>
</linearGradient>
<linearGradient id="paint14_linear_6700_50128" x1="65.1927" y1="34.8297" x2="76.5802" y2="34.8297" gradientUnits="userSpaceOnUse">
<stop stop-color="#F7E349"/>
<stop offset="1" stop-color="#A3822E"/>
</linearGradient>
<linearGradient id="paint15_linear_6700_50128" x1="81.198" y1="76.7747" x2="71.638" y2="78.2497" gradientUnits="userSpaceOnUse">
<stop stop-color="#F7E349"/>
<stop offset="1" stop-color="#A3822E"/>
</linearGradient>
<linearGradient id="paint16_linear_6700_50128" x1="77.153" y1="71.4248" x2="78.9805" y2="79.5798" gradientUnits="userSpaceOnUse">
<stop stop-color="#F7E349"/>
<stop offset="1" stop-color="#A3822E"/>
</linearGradient>
<linearGradient id="paint17_linear_6700_50128" x1="80.7529" y1="65.8323" x2="83.7754" y2="71.0348" gradientUnits="userSpaceOnUse">
<stop stop-color="#F7E349"/>
<stop offset="1" stop-color="#A3822E"/>
</linearGradient>
<linearGradient id="paint18_linear_6700_50128" x1="77.6156" y1="68.2747" x2="69.3206" y2="76.8522" gradientUnits="userSpaceOnUse">
<stop stop-color="#F7E349"/>
<stop offset="1" stop-color="#A3822E"/>
</linearGradient>
<linearGradient id="paint19_linear_6700_50128" x1="81.5455" y1="58.4347" x2="85.903" y2="68.2772" gradientUnits="userSpaceOnUse">
<stop stop-color="#F7E349"/>
<stop offset="1" stop-color="#A3822E"/>
</linearGradient>
<linearGradient id="paint20_linear_6700_50128" x1="81.1077" y1="50.7697" x2="87.6452" y2="58.7822" gradientUnits="userSpaceOnUse">
<stop stop-color="#F7E349"/>
<stop offset="1" stop-color="#A3822E"/>
</linearGradient>
<linearGradient id="paint21_linear_6700_50128" x1="77.3553" y1="40.4347" x2="83.3303" y2="41.2772" gradientUnits="userSpaceOnUse">
<stop stop-color="#F7E349"/>
<stop offset="1" stop-color="#A3822E"/>
</linearGradient>
<linearGradient id="paint22_linear_6700_50128" x1="55.8179" y1="73.8147" x2="55.8179" y2="88.7572" gradientUnits="userSpaceOnUse">
<stop stop-color="#F7E349"/>
<stop offset="1" stop-color="#A3822E"/>
</linearGradient>
<linearGradient id="paint23_linear_6700_50128" x1="55.818" y1="34.4697" x2="55.818" y2="23.0022" gradientUnits="userSpaceOnUse">
<stop stop-color="#F7E349"/>
<stop offset="1" stop-color="#A3822E"/>
</linearGradient>
<linearGradient id="paint24_linear_6700_50128" x1="55.8177" y1="31.5322" x2="55.8177" y2="80.8122" gradientUnits="userSpaceOnUse">
<stop stop-color="#F7E349"/>
<stop offset="1" stop-color="#A3822E"/>
</linearGradient>
<clipPath id="clip0_6700_50128">
<rect x="2" y="2" width="108" height="108" rx="8" fill="white"/>
</clipPath>
</defs>
</svg>
