<svg width="112" height="112" viewBox="0 0 112 112" fill="none" xmlns="http://www.w3.org/2000/svg">
<g clip-path="url(#clip0_6700_49996)">
<rect x="2" y="2.00002" width="108" height="108" rx="8" fill="white"/>
<path d="M27.7878 62.0307C27.7878 61.0314 27.7986 58.3604 27.774 58.0313C27.7955 54.0567 24.9057 51.253 23.08 51.4716C21.8167 51.5812 20.758 52.0964 20.1895 53.5782C19.6627 54.9593 20.1337 56.7962 21.8855 57.2273C23.7586 57.6902 24.8523 58.0753 25.6439 58.6187C26.6138 59.2839 27.4056 60.5549 27.4266 62.0322" fill="#0060AF"/>
<path d="M28.5354 68.0722C25.2327 68.0722 21.8384 67.2587 18.4486 65.6498L18.3654 65.6089L18.3256 65.5241C16.8044 62.3131 16 58.8011 16 55.365C16 51.934 16.7714 48.5723 18.2938 45.3656L18.3356 45.2804L18.4203 45.2379C21.5561 43.7524 24.9293 42.9999 28.4496 42.9999C31.7288 42.9999 35.2309 43.8376 38.5757 45.4266L38.6616 45.4648L38.7012 45.5516C40.2515 48.8218 41.0691 52.333 41.0691 55.7121C41.0691 59.0782 40.2841 62.4429 38.7319 65.7111L38.691 65.797L38.6047 65.8367C35.5169 67.2985 32.0346 68.0722 28.5354 68.0722ZM18.7623 65.2095C22.0554 66.7585 25.3396 67.5408 28.5354 67.5408C31.9241 67.5408 35.2942 66.8001 38.2941 65.396C39.7843 62.2291 40.5397 58.9697 40.5397 55.7121C40.5397 52.4415 39.7513 49.0393 38.26 45.8653C35.0139 44.3394 31.6239 43.5302 28.4496 43.5302C25.0415 43.5302 21.7749 44.2531 18.7338 45.6791C17.2741 48.7872 16.5312 52.0441 16.5312 55.365C16.5312 58.6921 17.3033 62.0957 18.7623 65.2095Z" fill="#0060AF"/>
<path d="M27.005 62.0322C27.0111 60.7513 26.2962 59.6187 25.3618 59.01C24.5329 58.472 23.4201 58.1185 21.625 57.6633C21.0701 57.5213 20.4897 57.206 20.31 56.8041C19.8346 57.2831 19.7483 58.3599 19.8319 58.9892C19.9291 59.7174 20.7801 60.9177 22.0615 60.9647C22.844 60.9961 23.8333 60.7963 24.3078 60.6955C25.1262 60.5187 26.4212 61.0314 26.6273 62.0306" fill="#0060AF"/>
<path d="M28.4498 45.2772C26.2772 45.2772 24.4005 46.71 24.4072 49.1894C24.414 51.2743 26.0907 52.3904 26.689 53.1876C27.5931 54.389 28.0825 55.8109 28.1334 57.9867C28.1729 59.7184 28.1709 61.4283 28.1797 62.0343H28.6593C28.651 61.4002 28.6293 59.585 28.6541 57.9332C28.6867 55.7567 29.1937 54.389 30.0982 53.1876C30.7017 52.3904 32.3771 51.2743 32.3807 49.1894C32.3888 46.71 30.5132 45.2772 28.3424 45.2772" fill="#0060AF"/>
<path d="M29.0012 62.0307C29.0012 61.0314 28.9899 58.3604 29.0141 58.0313C28.9928 54.0567 31.8808 51.253 33.708 51.4716C34.9713 51.5812 36.0289 52.0964 36.599 53.5782C37.1254 54.9593 36.6516 56.7962 34.9019 57.2273C33.0279 57.6902 31.9355 58.0753 31.1419 58.6187C30.1731 59.2839 29.4367 60.5549 29.4141 62.0322" fill="#0060AF"/>
<path d="M29.7833 62.0322C29.7765 60.7513 30.4912 59.6187 31.4229 59.01C32.2551 58.472 33.3692 58.1185 35.1628 57.6633C35.7188 57.5213 36.2986 57.206 36.4751 56.8041C36.9527 57.2831 37.0388 58.3599 36.9552 58.9892C36.856 59.7174 36.0072 60.9177 34.7281 60.9647C33.9458 60.9961 32.9513 60.7963 32.4789 60.6955C31.6636 60.5187 30.3651 61.0314 30.158 62.0306" fill="#0060AF"/>
<path d="M30.4538 66.1675L30.1758 64.1388L30.8469 64.0371C31.0103 64.0147 31.2092 64.0432 31.2888 64.1456C31.3767 64.2525 31.4036 64.3409 31.4205 64.481C31.4458 64.6544 31.3957 64.8549 31.2004 64.9548V64.9609C31.4185 64.9609 31.5503 65.1175 31.5885 65.382C31.5941 65.4378 31.6106 65.5728 31.5941 65.6853C31.5498 65.9532 31.39 66.0393 31.1204 66.077L30.4538 66.1675ZM30.8857 65.8042C30.9653 65.7929 31.046 65.7886 31.1091 65.7484C31.2056 65.6853 31.1968 65.5504 31.1834 65.4503C31.1497 65.2301 31.0923 65.1465 30.8588 65.1811L30.7122 65.2037L30.8051 65.8155L30.8857 65.8042ZM30.7452 64.8669C30.834 64.8525 30.9545 64.8418 31.0046 64.7575C31.0309 64.7012 31.0645 64.6564 31.0424 64.5312C31.015 64.3827 30.9658 64.2907 30.7772 64.3264L30.6016 64.3547L30.6708 64.8746" fill="#0060AF"/>
<path d="M33.3608 64.9473C33.366 64.9851 33.3721 65.0271 33.3743 65.0649C33.4286 65.4349 33.3608 65.7412 32.9449 65.8255C32.3301 65.9439 32.2123 65.5619 32.1041 65.0271L32.0464 64.7378C31.9617 64.2261 31.9253 63.8387 32.5247 63.7193C32.8626 63.6576 33.0859 63.7921 33.1788 64.1284C33.1933 64.1786 33.2114 64.2283 33.2182 64.2787L32.8504 64.3547C32.8079 64.2283 32.7516 64.0025 32.5862 64.0215C32.2892 64.0572 32.3873 64.4268 32.4178 64.5812L32.5283 65.1365C32.5615 65.3045 32.6275 65.5728 32.8845 65.521C33.0932 65.4792 33.0023 65.1542 32.9838 65.021" fill="#0060AF"/>
<path d="M33.9505 65.5612L33.8232 63.4619L34.3173 63.3111L35.3532 65.137L34.9642 65.2534L34.7188 64.7894L34.2868 64.9191L34.3427 65.4466L33.9505 65.5612ZM34.2507 64.58L34.5628 64.4896L34.1483 63.6402" fill="#0060AF"/>
<path d="M21.7467 63.9741C21.9013 63.4791 22.0399 63.1147 22.6298 63.2765C22.9456 63.3647 23.1414 63.5039 23.1321 63.8707C23.1306 63.9524 23.1036 64.0355 23.086 64.1162L22.7187 64.0147C22.7668 63.8122 22.7973 63.6515 22.5478 63.5747C22.2594 63.4955 22.1891 63.8452 22.1493 63.9962L21.9999 64.5466C21.9524 64.71 21.8955 64.9801 22.1493 65.0497C22.3591 65.1062 22.4863 64.9003 22.5623 64.5997L22.3053 64.5317L22.3941 64.2132L22.9983 64.4076L22.7114 65.4683L22.4334 65.3928L22.496 65.1686H22.4881C22.3602 65.3519 22.204 65.3712 22.0672 65.3449C21.4631 65.1815 21.5261 64.7866 21.6703 64.2591" fill="#0060AF"/>
<path d="M23.9958 64.8701L23.8139 65.733L23.4043 65.6444L23.8408 63.6294L24.539 63.7871C24.9476 63.8753 25.071 64.0572 25.0132 64.4318C24.9802 64.6467 24.8742 64.8784 24.6154 64.8597L24.6127 64.8561C24.8315 64.9328 24.85 65.0431 24.8118 65.2338C24.7953 65.315 24.6816 65.8075 24.76 65.8871L24.7627 65.9474L24.3389 65.8369C24.3213 65.7004 24.3812 65.4549 24.4049 65.319C24.4289 65.1988 24.4671 65.0293 24.345 64.9655C24.2494 64.9147 24.2139 64.9172 24.1059 64.8923L23.9958 64.8701ZM24.0657 64.5579L24.3414 64.6323C24.5089 64.6565 24.602 64.5697 24.635 64.3674C24.6649 64.1818 24.6262 64.1092 24.4759 64.0733L24.1803 64.0134" fill="#0060AF"/>
<path d="M26.6227 64.0796L27.0278 64.1266L26.8533 65.5432C26.7685 65.9923 26.5949 66.1887 26.1008 66.1272C25.5982 66.0637 25.4788 65.8348 25.5093 65.382L25.6849 63.9666L26.0932 64.0134L25.918 65.3972C25.8995 65.5475 25.8646 65.7701 26.132 65.797C26.3691 65.8151 26.4229 65.658 26.4496 65.4627" fill="#0060AF"/>
<path d="M27.4741 66.2048L27.596 64.1791L28.3742 64.2128C28.7419 64.2308 28.8382 64.5312 28.8267 64.8178C28.8161 64.9921 28.7616 65.1867 28.6097 65.2923C28.4852 65.382 28.3251 65.4033 28.1766 65.396L27.923 65.382L27.8724 66.2309L27.4741 66.2048ZM27.9345 65.073L28.1407 65.0846C28.3082 65.0906 28.4192 65.0244 28.4336 64.7785C28.4418 64.5423 28.3525 64.5023 28.1355 64.4928L27.9721 64.4872" fill="#0060AF"/>
<path d="M82.3615 47.2351L79.2685 52.849C78.1011 51.9011 76.6755 51.2033 74.8566 51.2033C70.5523 51.2033 68.804 54.4118 68.804 56.6719C68.804 58.3495 69.9025 60.8248 73.7324 60.8248C75.3399 60.8248 77.6253 59.7064 78.283 59.1976L75.2239 65.7107C73.7658 66.0016 73.2869 66.1819 72.0525 66.2201C65.1977 66.4247 62.4277 62.2137 62.4297 57.9108C62.4342 52.2225 67.4916 45.3046 75.8756 45.3046C76.3894 45.3046 77.0177 45.4823 77.555 45.6791L78.0979 44.9848" fill="#0060AF"/>
<path d="M95.1239 45.1608L95.9998 65.5651H89.4815L89.4776 62.0657H85.033L83.5701 65.5651H76.501L83.8915 50.9947L82.225 50.9838L85.3914 45.1608H95.1239ZM89.4354 51.4029L86.9224 57.3378H89.5111" fill="#0060AF"/>
<path d="M58.3151 45.1608C61.5431 45.1789 63.3671 46.9311 63.3671 49.4622C63.3671 51.7955 61.4434 53.861 59.3316 54.929C61.5058 55.7282 61.6938 57.6902 61.6938 59.0782C61.6938 62.4316 58.3289 65.5651 53.955 65.5651H44.416L48.1369 51.1977L46.6085 51.1889L49.7329 45.1608C49.7329 45.1608 55.6902 45.1428 58.3151 45.1608ZM55.1482 53.4336C55.8159 53.4336 56.9949 53.2645 57.2896 51.9723C57.6126 50.5695 56.5062 50.5318 55.9755 50.5318L54.0791 50.5235L53.4177 53.4336L55.1482 53.4336ZM52.467 57.0392L51.5939 60.3926H53.8268C54.7054 60.3926 55.9027 59.9566 56.1961 58.8653C56.4858 57.7709 55.6488 57.0392 54.7734 57.0392" fill="#0060AF"/>
</g>
<rect x="1" y="1" width="110" height="110" rx="9" stroke="black" stroke-opacity="0.1" stroke-width="2"/>
<defs>
<clipPath id="clip0_6700_49996">
<rect x="2" y="2" width="108" height="108" rx="8" fill="white"/>
</clipPath>
</defs>
</svg>
