<svg width="112" height="112" viewBox="0 0 112 112" fill="none" xmlns="http://www.w3.org/2000/svg">
<g clip-path="url(#clip0_6700_50458)">
<rect x="2" y="2" width="108" height="108" rx="8" fill="white"/>
<path d="M43.2408 42.1689L42.7185 44.7342C47.8796 44.7137 64.1203 38.7454 64.8744 35.1848C64.8744 35.1854 64.9243 34.9517 64.9729 34.7167C65.0215 34.483 65.0695 34.2493 65.0664 34.2493C58.0305 38.9835 47.4016 42.1583 43.2408 42.1689ZM42.2561 46.5946L41.7693 48.9555C46.7453 48.9462 63.1711 42.9679 63.9252 39.4067L64.134 38.3883C56.8582 43.4266 46.6699 46.4718 42.2561 46.5946ZM41.1959 50.9025L40.6724 53.4653C45.6796 53.3681 62.0754 47.4784 62.8296 43.9184L63.0782 42.7006C57.4384 46.6202 45.7369 50.9268 41.1959 50.9025Z" fill="url(#paint0_linear_6700_50458)"/>
<path d="M16.3355 58.8098H18.2209V65.3963H18.2645C18.9363 64.2271 20.1492 63.4679 21.8401 63.4679C24.4409 63.4679 26.282 65.6344 26.2595 68.821C26.2595 72.568 23.8987 74.4309 21.5577 74.4309C20.0407 74.4309 18.8273 73.8463 18.0476 72.4602H17.9828L17.8968 74.1928H16.2495C16.2925 73.4773 16.3355 72.4153 16.3355 71.4842V58.8098ZM18.2209 69.9896C18.2209 70.2277 18.2645 70.4652 18.3081 70.6827C18.6765 72.004 19.7815 72.9152 21.1682 72.9152C23.1614 72.9152 24.3536 71.2897 24.3536 68.884C24.3536 66.7818 23.2692 64.9843 21.233 64.9843C19.9323 64.9843 18.7188 65.8724 18.3287 67.3246C18.2857 67.5415 18.2209 67.8008 18.2209 68.1049V69.9896Z" fill="#1B517E"/>
<path d="M35.7722 71.6792C35.7722 72.5898 35.8152 73.4773 35.9454 74.1928H34.2116L34.0601 72.8709H33.9947C33.4101 73.6948 32.2826 74.4309 30.7887 74.4309C28.6646 74.4309 27.582 72.9369 27.582 71.4206C27.582 68.8846 29.8345 67.4972 33.8868 67.5209V67.3027C33.8868 66.437 33.6488 64.8758 31.5035 64.8758C30.5281 64.8758 29.5104 65.1787 28.7731 65.6561L28.3387 64.399C29.2062 63.8362 30.4639 63.4679 31.7846 63.4679C34.9919 63.4679 35.7722 65.6561 35.7722 67.7577V71.6792ZM33.9305 68.8409C31.8494 68.7973 29.4886 69.1663 29.4886 71.2018C29.4886 72.4383 30.3112 73.0236 31.286 73.0236C32.6516 73.0236 33.5179 72.156 33.8214 71.2685C33.8868 71.0722 33.9305 70.8559 33.9305 70.6621V68.8409Z" fill="#1B517E"/>
<path d="M38.6984 66.5435C38.6984 65.4603 38.676 64.5734 38.6118 63.7058H40.3002L40.4099 65.4391H40.4523C40.9733 64.4437 42.1868 63.4677 43.92 63.4677C45.3703 63.4677 47.6253 64.3347 47.6253 67.9302V74.1933H45.7175V68.1477C45.7175 66.4575 45.0905 65.0483 43.2912 65.0483C42.0347 65.0483 41.0581 65.9377 40.7334 66.9997C40.6474 67.2365 40.6037 67.5625 40.6037 67.8884V74.1933H38.6984V66.5435Z" fill="#1B517E"/>
<path d="M52.3048 68.5164H52.3478C52.6083 68.1474 52.9766 67.6925 53.2808 67.3248L56.3571 63.7062H58.6538L54.6021 68.0178L59.216 74.193H56.8994L53.2808 69.1665L52.3048 70.2497V74.193H50.4194V58.8099H52.3048V68.5164Z" fill="#1B517E"/>
<path d="M74.9263 64.0772C74.8553 63.9924 74.7855 63.9076 74.71 63.8297C74.5866 63.7026 74.4495 63.5823 74.3037 63.4689C73.5147 62.8244 72.5611 62.4455 71.5333 62.4455C70.4239 62.4455 69.4024 62.8905 68.5804 63.6315C68.5561 63.6465 68.5355 63.6633 68.5112 63.677C68.4819 63.692 68.4401 63.7138 68.3915 63.7007C68.2569 63.6652 68.1117 63.5212 68.1111 63.3149V59.0263C68.1111 58.7577 67.8898 58.5402 67.6193 58.5402H65.5327C65.2603 58.5402 65.0403 58.7577 65.0403 59.0263V59.1759C65.0403 59.1809 65.0391 59.1853 65.0391 59.1915V59.6888L65.0428 73.5126C65.0428 73.7868 65.2647 74.0099 65.5383 74.0099H67.4274C67.5476 74.0099 67.6567 73.9644 67.7433 73.8921C67.7458 73.8902 67.7502 73.8902 67.7515 73.8877C67.7546 73.8859 67.7558 73.8828 67.7577 73.8803C67.7982 73.8447 67.83 73.803 67.8568 73.7562H67.8574C67.8898 73.6952 67.9116 73.631 67.9191 73.5599C67.9565 73.2545 68.1647 73.0856 68.2937 73.1299C68.3379 73.1442 68.3803 73.1654 68.4239 73.1953C68.4682 73.2227 68.5112 73.2527 68.5536 73.2807C68.6813 73.3742 69.2454 73.76 69.681 73.9544C69.901 74.0517 70.6016 74.2891 71.4149 74.2891C72.2289 74.2891 72.8066 74.109 72.9431 74.0729C73.0802 74.0361 73.2149 73.99 73.3445 73.9308C73.9815 73.6565 74.4932 73.2807 74.8827 72.8039C75.2672 72.3359 75.5863 71.7818 75.845 71.1454C76.2295 70.3072 76.4483 69.3467 76.4483 68.3234C76.4483 66.6524 75.8631 65.1473 74.9263 64.0772ZM70.6178 72.0809C69.0889 72.0809 67.8487 70.4343 67.8487 68.4038C67.8487 66.372 69.0889 64.7253 70.6178 64.7253C72.146 64.7253 73.385 66.372 73.385 68.4038C73.385 70.4343 72.146 72.0809 70.6178 72.0809Z" fill="#1B517E"/>
<path d="M81.8802 63.6757C81.8784 63.6477 81.8752 63.6203 81.8728 63.5935V63.227C81.8728 62.9515 81.6509 62.7284 81.3754 62.7284H79.2725C78.9971 62.7284 78.7739 62.9515 78.7739 63.227V74.5558C78.7634 74.8444 78.4125 75.2402 78.0067 75.338C77.8197 75.396 77.6321 75.4228 77.4439 75.414C77.2557 75.4072 77.1267 75.4832 77.0538 75.6422C77.0251 75.7132 77.0039 75.8079 76.9883 75.9245C76.9752 76.0398 76.9914 77.2539 76.9995 77.3542C77.0077 77.4558 77.0251 77.5418 77.0538 77.6135C77.1404 77.7444 77.2925 77.831 77.5087 77.8746C77.581 77.9039 78.9771 77.9077 79.9164 77.6796C80.2847 77.5904 80.5814 77.4122 80.8282 77.2258C81.0719 77.0376 81.2894 76.7983 81.4789 76.5091C81.6957 76.1626 81.8142 75.725 81.8366 75.1978C81.8435 75.0388 81.8728 74.6238 81.8728 74.5751V64.2809C81.8752 64.2254 81.8771 64.1693 81.8802 64.1101C81.8877 63.9662 81.8877 63.821 81.8802 63.6757Z" fill="#1B517E"/>
<path d="M94.2291 64.0772C94.1593 63.9924 94.0888 63.9076 94.0128 63.8297C93.8894 63.7026 93.7516 63.5823 93.6064 63.4689C92.818 62.8244 91.8644 62.4455 90.8361 62.4455C89.7273 62.4455 88.7058 62.8905 87.8844 63.6315C87.8594 63.6465 87.8382 63.6633 87.8133 63.677C87.7846 63.692 87.7441 63.7138 87.6949 63.7007C87.5603 63.6652 87.4151 63.5212 87.4132 63.3149V59.0263C87.4132 58.7577 87.1938 58.5402 86.9227 58.5402H84.836C84.5637 58.5402 84.3437 58.7577 84.3437 59.0263V59.1759C84.3437 59.1809 84.3418 59.1853 84.3418 59.1915V59.6888L84.3449 73.5126C84.3449 73.7868 84.5674 74.0099 84.8423 74.0099H86.7288C86.851 74.0099 86.9607 73.9644 87.0467 73.8921C87.0492 73.8902 87.0517 73.8902 87.0548 73.8877C87.0573 73.8859 87.0592 73.8828 87.061 73.8803C87.0997 73.8447 87.134 73.803 87.1601 73.7562L87.1614 73.7544C87.1938 73.6952 87.215 73.631 87.2225 73.5599C87.2599 73.2545 87.4668 73.0856 87.5964 73.1299C87.6407 73.1442 87.6843 73.1654 87.7273 73.1953C87.7703 73.2227 87.8133 73.2527 87.8576 73.2807C87.9847 73.3742 88.5481 73.76 88.9844 73.9544C89.2044 74.0517 89.9037 74.2891 90.7189 74.2891C91.531 74.2891 92.1088 74.109 92.2465 74.0729C92.3836 74.0361 92.5176 73.99 92.6479 73.9308C93.283 73.6565 93.7971 73.2807 94.1867 72.8039C94.5712 72.3359 94.8903 71.7818 95.1484 71.1454C95.5323 70.3072 95.751 69.3467 95.751 68.3234C95.751 66.6524 95.1652 65.1473 94.2291 64.0772ZM89.9218 72.0809C88.3917 72.0809 87.1527 70.4343 87.1527 68.4038C87.1527 66.372 88.3917 64.7253 89.9218 64.7253C91.45 64.7253 92.689 66.372 92.689 68.4038C92.689 70.4343 91.45 72.0809 89.9218 72.0809Z" fill="#1B517E"/>
<path d="M80.2867 58.6643C79.9875 58.6686 79.7245 58.7366 79.4983 58.8681C79.2758 59.004 79.1038 59.1853 78.9816 59.4078C78.8545 59.6341 78.7915 59.8834 78.7915 60.1601C78.7915 60.4275 78.8545 60.6674 78.9722 60.8893C79.09 61.1118 79.2577 61.2888 79.4708 61.424C79.6884 61.5555 79.942 61.6235 80.2325 61.6285C80.5584 61.6235 80.8351 61.5555 81.062 61.424C81.2883 61.2888 81.4603 61.1118 81.5781 60.8893C81.6959 60.6674 81.7551 60.4275 81.7551 60.1601C81.7551 59.8834 81.6915 59.6341 81.5737 59.4078C81.4559 59.1853 81.2839 59.004 81.0658 58.8681C80.8482 58.7366 80.5858 58.6686 80.2867 58.6643Z" fill="#1B517E"/>
</g>
<rect x="1" y="1" width="110" height="110" rx="9" stroke="black" stroke-opacity="0.1" stroke-width="2"/>
<defs>
<linearGradient id="paint0_linear_6700_50458" x1="39.0826" y1="34.6272" x2="68.5377" y2="33.5986" gradientUnits="userSpaceOnUse">
<stop stop-color="#3AA7DF"/>
<stop offset="0.12" stop-color="#227AAB"/>
<stop offset="0.42" stop-color="#1B517E"/>
<stop offset="0.57" stop-color="#8B8666"/>
<stop offset="1" stop-color="#EFC900"/>
</linearGradient>
<clipPath id="clip0_6700_50458">
<rect x="2" y="2" width="108" height="108" rx="8" fill="white"/>
</clipPath>
</defs>
</svg>
