<svg width="112" height="112" viewBox="0 0 112 112" fill="none" xmlns="http://www.w3.org/2000/svg">
<g clip-path="url(#clip0_6700_50657)">
<rect x="2" y="2" width="108" height="108" rx="8" fill="white"/>
<path d="M16.0091 55.6526C16.0091 49.9338 16.0091 44.2153 16.0091 38.4973C16.011 37.989 15.9132 38.0033 16.5226 38.0033C19.3719 38.0033 22.2211 38.0033 25.0704 38.0033C25.5192 38 25.5192 37.9961 25.5192 38.4352C25.5192 42.9345 25.5192 47.4337 25.5192 51.933C25.5192 52.148 25.4985 52.3649 25.5554 52.5767C25.659 52.9613 25.8792 53.0624 26.236 52.881C26.5928 52.6997 26.8389 52.3954 27.1277 52.1383C28.9264 50.527 31.0934 49.3822 33.4382 48.8046C36.1463 48.126 38.8285 48.2043 41.4551 49.1686C43.9275 50.0751 45.8183 51.6941 47.1063 54.0013C48.507 56.5126 48.8464 59.2272 48.6521 62.0428C48.5226 63.957 48.0583 65.7831 47.1588 67.4869C45.6895 70.2714 43.4269 72.0735 40.3976 72.9031C38.4666 73.4321 36.5031 73.4438 34.5274 73.1867C32.7732 72.9588 31.1238 72.4388 29.5995 71.5328C28.2642 70.7389 27.1588 69.6957 26.2321 68.4563C25.9414 68.0677 25.6493 67.6792 25.2763 67.3632C24.6858 66.8665 24.2066 66.9053 23.7222 67.5063C23.2611 68.0781 22.9088 68.725 22.5099 69.3389C21.2796 71.2285 19.6607 72.5806 17.4233 73.1064C17.0801 73.1874 16.7304 73.2424 16.3827 73.3007C16.1295 73.3441 15.9903 73.2845 16 72.9685C16.0239 72.2464 16.0091 71.5231 16.0091 70.8004C16.0095 65.7512 16.0095 60.7019 16.0091 55.6526ZM33.3974 65.7248C34.9114 65.7203 36.068 65.4535 37.2601 64.8325C39.5156 63.6572 40.3814 60.8338 39.1789 58.5848C38.6854 57.6627 37.8889 57.0844 36.9584 56.6978C34.6213 55.7264 32.2564 55.7497 29.8999 56.633C29.0879 56.9374 28.3529 57.3952 27.8141 58.1062C27.1193 59.0238 26.9322 60.0813 27.0125 61.1951C27.1225 62.7324 27.8277 63.9065 29.1818 64.6861C30.4931 65.4386 31.9061 65.73 33.3974 65.7248Z" fill="#33CDCF"/>
<path d="M95.9981 61.0138V72.859C95.9981 73.3389 95.9981 73.3434 95.5098 73.2767C93.1423 72.9529 91.2495 71.8307 89.8689 69.8744C89.4221 69.2411 89.0141 68.5793 88.5854 67.9317C88.4067 67.6623 88.2254 67.3968 87.9573 67.2C87.651 66.9753 87.3466 66.9675 87.0235 67.1559C86.4757 67.4758 86.1227 67.9842 85.7556 68.475C84.3484 70.3529 82.5572 71.7083 80.338 72.5009C77.9725 73.346 75.5344 73.4574 73.0646 73.2722C72.0101 73.2016 70.9698 72.9906 69.9712 72.6447C68.3976 72.0865 67.3201 70.9992 66.6039 69.5176C65.8307 67.911 65.525 66.1891 65.321 64.4374C65.0691 62.2785 65.0724 60.1117 65.0737 57.9437C65.0737 54.9878 65.0704 52.0318 65.064 49.0759C65.064 48.7522 65.1546 48.6544 65.4829 48.6557C68.397 48.6667 71.311 48.6602 74.225 48.6596C74.5793 48.6596 74.5903 48.6751 74.5896 49.1575C74.5896 50.8727 74.5883 52.5879 74.5857 54.3031C74.5857 56.0405 74.5696 57.7773 74.6 59.5134C74.6207 60.6893 74.7295 61.8608 75.0533 63.0011C75.4418 64.3733 76.1541 65.493 77.6079 65.8835C80.8308 66.7499 83.3136 65.9359 85.0769 62.8839C86.0191 61.254 86.4595 59.4674 86.4821 57.5953C86.5145 54.8878 86.4938 52.1797 86.4931 49.4716C86.4931 48.6783 86.4886 48.677 87.2903 48.677C90.0308 48.677 92.7721 48.677 95.5143 48.677C96.0046 48.677 96.0058 48.677 96.0058 49.1692V61.0138H95.9981Z" fill="#33CDCF"/>
<path d="M61.3865 55.6927C61.3865 61.4211 61.3865 67.1494 61.3865 72.8778C61.3865 73.3136 61.3865 73.3136 60.9507 73.3142C58.0593 73.3142 55.1673 73.309 52.2733 73.3214C51.9496 73.3214 51.8582 73.2443 51.8589 72.9114C51.8697 61.4228 51.8731 49.9335 51.8692 38.4436C51.8692 38.0175 51.8693 38.0168 52.2882 38.0168H60.9656C61.3891 38.0168 61.3898 38.0168 61.3898 38.4416L61.3865 55.6927Z" fill="#33CDCF"/>
</g>
<rect x="1" y="1" width="110" height="110" rx="9" stroke="black" stroke-opacity="0.1" stroke-width="2"/>
<defs>
<clipPath id="clip0_6700_50657">
<rect x="2" y="2" width="108" height="108" rx="8" fill="white"/>
</clipPath>
</defs>
</svg>
