<svg width="112" height="112" viewBox="0 0 112 112" fill="none" xmlns="http://www.w3.org/2000/svg">
<g clip-path="url(#clip0_6700_50629)">
<rect x="2" y="2" width="108" height="108" rx="8" fill="white"/>
<path d="M28.1195 37.0361C31.3795 37 34.6426 37.0302 37.9036 37.0205C39.4527 37.0341 41.0047 36.9932 42.5528 37.04C43.4474 37.1805 44.335 37.5541 44.9447 38.2428C45.5469 38.9249 45.9049 39.788 45.9622 40.6961C46.0022 41.3224 45.9466 41.9506 45.9388 42.5778C45.8177 41.789 45.497 41.0442 45.0072 40.4142C44.0122 39.1783 42.5782 38.3306 41.0418 37.9608C39.2166 37.5024 37.3193 37.6828 35.4581 37.6526C35.3147 37.637 35.0913 37.6828 35.1303 37.8779C35.1303 41.3604 35.1303 44.8449 35.1303 48.3274C35.0864 48.5391 35.341 48.4708 35.46 48.4883C37.6607 48.4483 39.957 48.7176 42.0514 47.8757C43.3664 47.3431 44.6062 46.4818 45.3466 45.2487C45.6439 44.7302 45.8474 44.1631 45.9475 43.5738C45.9895 45.1824 45.9378 46.7929 45.967 48.4015C45.6803 48.4991 45.3954 48.6122 45.1174 48.7342C45.3974 48.7956 45.6783 48.8512 45.9602 48.9029C45.9388 49.6511 45.9495 50.4013 45.9553 51.1466C44.9955 50.4764 43.9673 49.8862 42.8338 49.5702C41.3705 49.1195 39.8195 49.1156 38.2997 49.1224C37.2471 49.1302 36.1946 49.1107 35.143 49.1419C35.1303 52.8907 35.143 56.6405 35.1371 60.3903C35.0835 60.5991 35.3215 60.5854 35.4591 60.5854C36.8247 60.5854 38.1904 60.5854 39.5561 60.5854C41.7705 60.5727 44.058 60.005 45.8237 58.6188C46.4321 58.1819 46.9326 57.6117 47.2869 56.9517C48.0409 55.6972 48.0878 54.0155 47.2869 52.7707C47.201 51.6284 47.2869 50.4783 47.2537 49.3331C48.717 49.8989 50.0602 50.8715 50.9001 52.2147C51.3114 52.8508 51.5734 53.5718 51.6665 54.3236C51.7596 55.0753 51.6813 55.8384 51.4376 56.5557C50.9128 58.095 49.6495 59.2675 48.2643 60.0518C47.2332 60.5669 46.1339 60.9649 44.9847 61.1083C44.3848 61.1687 43.7858 61.2565 43.181 61.2448C38.1085 61.2357 33.0359 61.2338 27.9634 61.239C28.853 61.0351 29.7446 60.6664 30.3485 59.9533C30.981 59.2117 31.3209 58.2647 31.3044 57.2902C31.3044 52.5753 31.3044 47.8605 31.3044 43.1456C31.3044 42.2676 31.3386 41.3829 31.2771 40.5049C31.2238 39.8665 31.0097 39.2519 30.6547 38.7185C30.2997 38.1851 29.8155 37.7503 29.2471 37.4546C28.8979 37.2478 28.4921 37.1834 28.1195 37.0361Z" fill="#020202"/>
<path d="M67.9699 38.3842C71.9929 36.5513 76.8088 36.5454 80.7937 38.474C80.981 38.5501 81.2288 38.7169 81.4054 38.5237C81.9263 38.0282 82.4306 37.5112 82.933 37C82.9018 39.6094 82.9457 42.2208 82.9105 44.8303C82.8325 44.6962 82.7697 44.5539 82.7232 44.4059C82.1282 42.7476 81.18 41.1985 79.8875 39.9909C78.8145 38.9744 77.4946 38.1852 76.0421 37.8594C74.2993 37.4529 72.4689 37.6729 70.872 38.4808C69.2848 39.3023 67.9571 40.5489 67.0374 42.0813C66.4013 43.07 65.9268 44.1537 65.6317 45.2917C64.9908 47.3246 64.9488 49.5165 65.2912 51.6099C65.3624 52.1113 65.5322 52.5922 65.6034 53.0936L65.6834 53.161C65.712 53.5133 65.7211 53.867 65.7107 54.2203L65.5849 54.1677L65.6161 54.1384C63.9577 52.3825 62.2428 50.6676 60.5981 48.8932C60.6791 46.9481 61.2273 45.0137 62.2682 43.3631C63.1307 41.9684 64.2573 40.7556 65.5849 39.7928C66.3429 39.2633 67.1402 38.7924 67.9699 38.3842Z" fill="#020202"/>
<path d="M47.2456 41.498C48.0816 42.3233 48.9234 43.1436 49.7321 43.9972C49.4287 45.1424 48.8912 46.3072 47.9323 47.0407C47.7187 47.1988 47.3402 47.5148 47.2212 47.588C47.2612 45.559 47.2153 43.528 47.2456 41.498Z" fill="#020202"/>
<path d="M82.6767 53.9736C82.7362 53.8292 82.7742 53.6653 82.905 53.5648C82.9323 56.1118 82.9118 58.6598 82.9157 61.2068C82.3762 60.7405 81.9031 60.2021 81.3881 59.7094C81.2626 59.5755 81.1325 59.5755 80.9979 59.7094C79.4235 60.4294 77.7563 60.9727 76.0229 61.1444C73.1306 61.4585 70.1368 60.9805 67.5362 59.6577C67.3547 59.5495 67.1226 59.5036 66.9928 59.328C66.986 58.2716 66.9733 57.2141 66.9928 56.1577C67.9507 57.6463 69.2364 58.9564 70.8265 59.7611C72.282 60.4946 73.9307 60.7536 75.541 60.5015C77.3203 60.2167 78.9191 59.251 80.1736 57.9965C81.2767 56.8426 82.1289 55.4729 82.6767 53.9736Z" fill="#020202"/>
<path d="M16.0184 66.3281C16.2281 66.3515 16.631 66.215 16.6388 66.5467C16.6691 67.2295 16.6388 67.9123 16.6515 68.5952C17.2144 68.205 17.9382 68.1582 18.5888 68.3103C19.3078 68.5054 19.857 69.2195 19.8287 69.9687C19.8287 70.7491 19.8345 71.5295 19.8287 72.3099C19.8181 72.6726 19.693 73.0227 19.4714 73.3101C19.2497 73.5974 18.9429 73.8073 18.5947 73.9097C17.8553 74.095 16.9549 74.0072 16.433 73.3917C16.1438 73.0698 15.9919 72.6476 16.0096 72.2152C16.0106 70.2535 15.9823 68.2899 16.0184 66.3281ZM17.6709 68.8878C17.3947 68.9008 17.1346 69.0215 16.9466 69.2242C16.7585 69.4269 16.6574 69.6952 16.6652 69.9716C16.6652 70.7188 16.6388 71.4661 16.6515 72.2152C16.6408 72.6054 16.8378 73.0161 17.1968 73.1956C17.5002 73.378 17.8679 73.3458 18.2064 73.3253C18.4657 73.3058 18.7089 73.1921 18.8901 73.0055C19.0712 72.819 19.1778 72.5725 19.1897 72.3128C19.2141 71.5636 19.1995 70.8144 19.1966 70.0692C19.2075 69.8985 19.18 69.7275 19.1162 69.5688C19.0524 69.4102 18.9539 69.2678 18.8278 69.1522C18.5176 68.8654 18.066 68.8566 17.6709 68.8878Z" fill="#020202"/>
<path d="M30.3589 66.332C30.5597 66.3157 30.7618 66.3289 30.9588 66.3711C31.0124 66.8588 30.9822 67.3466 30.989 67.8275C30.989 69.8126 30.9949 71.7977 30.989 73.778C30.9822 74.1028 30.5296 73.9974 30.3423 73.894C30.3608 71.3763 30.3198 68.8527 30.3589 66.332Z" fill="#020202"/>
<path d="M22.2488 68.285C22.6946 68.2099 23.1736 68.1943 23.5999 68.3689C24.1695 68.5864 24.6046 69.1493 24.6085 69.7716C24.6251 71.1715 24.6085 72.5723 24.6085 73.9731C24.3061 74.0931 24.1832 73.8063 24.0847 73.5829C23.6867 73.8209 23.2497 74.0306 22.7736 74.0131C22.2234 73.9945 21.6206 73.8755 21.2284 73.4561C20.8002 72.9976 20.688 72.3138 20.8304 71.7168C20.9169 71.3892 21.1019 71.0961 21.3605 70.8773C21.6191 70.6585 21.9388 70.5245 22.2761 70.4935C22.838 70.4476 23.4009 70.4935 23.9627 70.4681C23.9627 70.0467 24.0359 69.557 23.7257 69.2175C23.3638 68.8127 22.7307 68.8147 22.243 68.9571C21.8596 69.0771 21.6577 69.4448 21.5962 69.8233C21.3874 69.8321 21.1797 69.8321 20.9709 69.8233C20.9804 69.4607 21.1116 69.1118 21.3434 68.8328C21.5752 68.5538 21.8941 68.3608 22.2488 68.285ZM21.804 71.3373C21.1699 71.8563 21.3523 73.0932 22.1825 73.3019C22.7424 73.377 23.4877 73.4326 23.8154 72.86C24.0866 72.3264 23.9208 71.6943 23.9569 71.1188C23.4691 71.1071 22.9814 71.1051 22.4937 71.1129C22.2444 71.1037 22 71.1832 21.804 71.3373Z" fill="#020202"/>
<path d="M25.5598 68.2401C25.671 68.2352 25.7822 68.2323 25.8934 68.2303C25.9578 68.3767 26.0222 68.523 26.0885 68.6693C26.5002 68.4011 26.9548 68.1552 27.464 68.1816C28.4053 68.1572 29.3701 68.8839 29.3867 69.8701C29.3915 71.2261 29.3993 72.583 29.3867 73.9389C29.1867 73.9389 28.974 73.9906 28.7848 73.9038C28.7058 72.5625 28.7906 71.2144 28.7399 69.8711C28.7317 69.6749 28.6674 69.4852 28.5547 69.3244C28.442 69.1636 28.2855 69.0385 28.1039 68.9639C27.77 68.8542 27.4141 68.8287 27.0679 68.8898C26.8366 68.9336 26.6271 69.055 26.474 69.234C26.3209 69.4129 26.2335 69.6387 26.2261 69.874C26.1987 71.2085 26.2348 72.544 26.2114 73.8736C26.0875 74.1087 25.7598 73.9711 25.5627 73.9145C25.5354 72.025 25.5715 70.1326 25.5598 68.2401Z" fill="#020202"/>
<path d="M33.2523 68.4459C33.4317 68.1016 33.8668 68.284 34.1731 68.243C33.579 69.0302 33.0142 69.8399 32.4085 70.6193C32.266 70.8046 31.9705 71.0407 32.1685 71.2904C32.8513 72.1684 33.5127 73.0658 34.1526 73.975C33.8688 73.9487 33.4591 74.1116 33.2747 73.8121C32.624 72.9117 31.9627 72.0211 31.3062 71.1256C31.9295 70.2145 32.6114 69.3443 33.2523 68.4459Z" fill="#020202"/>
<path d="M38.002 68.2157C38.319 68.1377 38.4322 68.4313 38.5492 68.6586C39.1014 68.2264 39.8603 68.0538 40.5334 68.284C41.265 68.4967 41.8425 69.1912 41.8191 69.9716C41.8064 71.2973 41.8522 72.6259 41.8015 73.9506C41.6064 73.9165 41.2338 74.0696 41.1869 73.7916C41.1567 72.5235 41.1869 71.2475 41.1713 69.9765C41.1645 69.635 41.0309 69.279 40.7411 69.08C40.3939 68.8429 39.9481 68.841 39.5462 68.8849C39.2894 68.925 39.0561 69.0576 38.8902 69.2578C38.7244 69.4579 38.6374 69.7118 38.6458 69.9716C38.6458 71.2934 38.6458 72.6152 38.6458 73.937C38.4405 74.005 38.2195 74.0094 38.0117 73.9496C37.9444 73.3721 37.9922 72.7898 37.9776 72.2103C37.9883 70.8788 37.9698 69.5473 38.002 68.2157Z" fill="#020202"/>
<path d="M42.9948 69.1112C43.3118 68.5337 43.9703 68.2128 44.6229 68.2333C45.2804 68.1806 45.9798 68.4576 46.3261 69.039C46.6939 69.5707 46.5837 70.2418 46.6012 70.8495C46.6129 70.9871 46.5944 71.2026 46.3954 71.1558C45.4199 71.1617 44.4444 71.1412 43.4689 71.1656L43.4152 71.2046C43.4396 71.7899 43.2611 72.4727 43.6718 72.9605C44.0259 73.3819 44.6356 73.3712 45.135 73.3039C45.696 73.1809 45.9984 72.5976 45.9749 72.0572C46.17 72.0572 46.3593 72.0572 46.5524 72.0572C46.6929 72.5186 46.4666 73.019 46.1778 73.3799C45.7155 73.9389 44.9224 74.0686 44.2395 73.9594C43.4748 73.8521 42.8134 73.179 42.7763 72.3986C42.7431 71.784 42.7646 71.1675 42.7597 70.552C42.7675 70.0691 42.7285 69.5424 42.9948 69.1112ZM43.745 69.1892C43.3548 69.517 43.4172 70.0555 43.4123 70.5091C44.2532 70.5208 45.097 70.5461 45.9369 70.4935C45.974 70.0984 46.0032 69.6575 45.7486 69.3229C45.2804 68.7288 44.301 68.721 43.745 69.1912V69.1892Z" fill="#020202"/>
<path d="M55.5258 68.9532C56.0009 68.2498 56.951 68.1289 57.7226 68.2937C58.1253 68.3962 58.4773 68.6409 58.7136 68.9827C58.9499 69.3244 59.0546 69.7401 59.0083 70.153C58.8084 70.153 58.6084 70.153 58.4084 70.153C58.4084 69.6575 58.1762 69.1102 57.669 68.9542C57.1666 68.8283 56.5442 68.8098 56.1492 69.198C55.8858 69.4468 55.8282 69.8253 55.8331 70.1735C55.8331 70.8876 55.8165 71.6016 55.8438 72.3196C55.8551 72.5699 55.9549 72.8081 56.1256 72.9916C56.2962 73.1752 56.5266 73.292 56.7754 73.3214C57.19 73.3575 57.6641 73.3887 57.9967 73.0873C58.3089 72.8473 58.3791 72.4405 58.4162 72.0728C58.6181 72.0728 58.8201 72.0728 59.0239 72.0728C59.054 72.4332 58.9755 72.7943 58.7986 73.1097C58.1158 74.292 56.117 74.3018 55.4332 73.1195C55.0849 72.5517 55.2225 71.8631 55.1981 71.2339C55.241 70.4759 55.0332 69.6155 55.5258 68.9532Z" fill="#020202"/>
<path d="M61.3602 68.2781C61.8587 68.2089 62.401 68.1894 62.8624 68.4264C63.1459 68.5715 63.384 68.7917 63.5507 69.0631C63.7174 69.3344 63.8063 69.6463 63.8077 69.9648C63.8155 70.6476 63.7999 71.3304 63.8155 72.0133C63.833 72.5566 63.6818 73.1322 63.2692 73.5097C62.7727 73.9974 62.0108 74.0677 61.3563 73.9487C60.5993 73.8053 59.9838 73.0971 59.9906 72.3206C59.9828 71.506 59.977 70.6925 59.9906 69.8818C59.9838 69.1053 60.6091 68.4108 61.3602 68.2781ZM61.567 68.8898C61.3049 68.9267 61.0646 69.0559 60.8894 69.2542C60.7141 69.4526 60.6154 69.707 60.611 69.9716C60.6276 70.752 60.5925 71.5265 60.6198 72.303C60.6286 72.5013 60.6923 72.6933 60.8037 72.8576C60.9151 73.0219 61.07 73.1521 61.2509 73.2336C61.5436 73.3575 61.8723 73.338 62.1854 73.3244C62.6595 73.2902 63.1258 72.9059 63.1346 72.4084C63.2117 71.4796 63.2039 70.5458 63.1112 69.6185C62.9366 68.9688 62.1523 68.7893 61.5641 68.8898H61.567Z" fill="#020202"/>
<path d="M64.7598 68.2372C65.0301 68.1728 65.1774 68.3562 65.2788 68.5776C65.8202 68.2723 66.466 68.1191 67.0747 68.3074C67.4122 68.3757 67.6678 68.6137 67.9429 68.803C68.6121 68.1435 69.7515 68.0226 70.524 68.5718C70.7089 68.7131 70.8593 68.8945 70.9641 69.1023C71.0688 69.3101 71.1252 69.5389 71.1289 69.7716C71.1289 71.1627 71.1289 72.5547 71.1337 73.9467C70.9312 74.0084 70.7145 74.006 70.5133 73.9399C70.4772 72.5839 70.5133 71.2261 70.4938 69.8701C70.5006 69.4712 70.2811 69.0459 69.8783 68.9317C69.4071 68.7971 68.7925 68.8078 68.4667 69.2302C68.3232 69.4117 68.2553 69.6417 68.2775 69.8721C68.2775 71.1734 68.2775 72.4747 68.2824 73.774C68.2989 74.0969 67.8619 74.0091 67.6707 73.9379C67.6034 73.7945 67.6259 73.6306 67.6171 73.4794C67.6171 72.2415 67.6239 71.0027 67.6171 69.7648C67.6132 69.5571 67.5382 69.3571 67.4044 69.1981C67.2707 69.0392 67.0865 68.931 66.8825 68.8917C66.4699 68.8186 65.9743 68.8234 65.6641 69.1483C65.4505 69.3619 65.3968 69.6731 65.4007 69.9638C65.4007 71.1675 65.4007 72.3723 65.4076 73.5731C65.4059 73.7204 65.3876 73.867 65.3529 74.0101C65.1564 73.9979 64.9608 73.9725 64.7677 73.934C64.712 72.0386 64.7745 70.1374 64.7598 68.2372Z" fill="#020202"/>
<path d="M72.0819 68.244C72.1882 68.244 72.2945 68.244 72.4019 68.2538C72.4672 68.3678 72.5261 68.4853 72.5784 68.6059C72.9481 68.4664 73.2944 68.2342 73.7041 68.2294C74.2894 68.1718 74.8533 68.4606 75.2708 68.8566C75.4847 68.6109 75.7598 68.4263 76.0683 68.3216C76.3767 68.2169 76.7074 68.1959 77.0267 68.2606C77.7983 68.3074 78.4646 68.9971 78.4509 69.7755C78.4587 71.1776 78.4587 72.5791 78.4509 73.9799C78.2438 74.0217 78.0292 74.0058 77.8305 73.934C77.812 72.6776 77.7983 71.4192 77.8305 70.1628C77.8539 69.7502 77.7495 69.2673 77.373 69.038C76.7809 68.6937 75.779 68.8693 75.622 69.6233C75.5761 71.0768 75.6415 72.5362 75.5907 73.9916C75.3693 74.0043 75.141 74.0179 74.944 73.9038C74.9372 72.5566 74.944 71.2105 74.944 69.8643C74.9674 69.4234 74.6513 68.9805 74.2016 68.9171C73.7549 68.8195 73.1959 68.8615 72.9159 69.2731C72.6867 69.5531 72.7501 69.9316 72.7335 70.2662C72.7335 71.3724 72.7277 72.4796 72.7443 73.5829C72.7228 73.7145 72.7716 73.9096 72.6369 73.9916C72.4495 74.0117 72.2599 73.9901 72.0819 73.9282C72.0565 72.0338 72.0965 70.1394 72.0819 68.244Z" fill="#020202"/>
<path d="M80.3013 68.4566C80.7539 68.2079 81.2943 68.2089 81.7938 68.2615C82.1656 68.3229 82.5071 68.5041 82.7664 68.7776C83.0256 69.0511 83.1883 69.4019 83.2297 69.7765C83.258 70.2311 83.2394 70.6876 83.2385 71.1422C82.183 71.1851 81.1256 71.1422 80.0691 71.1656C80.0632 71.6319 80.0164 72.105 80.0993 72.5673C80.1642 72.7867 80.2974 72.9795 80.4795 73.1178C80.6617 73.2561 80.8832 73.3325 81.1119 73.336C81.5021 73.3575 81.9489 73.3429 82.2542 73.0561C82.5468 72.8093 82.5722 72.4083 82.6317 72.0601C82.8268 72.0601 83.0219 72.0601 83.217 72.0601C83.2651 72.4471 83.1787 72.8388 82.9724 73.1697C82.766 73.5006 82.4522 73.7504 82.0835 73.8774C81.5794 74.0381 81.0374 74.0347 80.5354 73.8677C80.2119 73.7532 79.9314 73.5421 79.7318 73.2629C79.5322 72.9838 79.4231 72.65 79.4194 72.3069C79.4038 71.4953 79.4038 70.6824 79.4194 69.8682C79.43 69.5763 79.517 69.2923 79.6717 69.0446C79.8265 68.7969 80.0436 68.5941 80.3013 68.4566ZM80.312 69.2663C80.0008 69.6048 80.0525 70.0906 80.0642 70.5149C80.8758 70.51 81.6913 70.552 82.5029 70.4964C82.6805 70.3384 82.6005 70.0789 82.5946 69.873C82.5517 69.4311 82.2464 69.0127 81.7986 68.919C81.2914 68.8244 80.6671 68.8322 80.312 69.2663Z" fill="#020202"/>
<path d="M84.1866 68.2508C84.2902 68.245 84.3941 68.245 84.4978 68.2508C84.6031 68.3669 84.6646 68.7171 84.8685 68.5308C85.324 68.2137 85.8976 68.2098 86.4293 68.2557C86.4293 68.4508 86.4293 68.6459 86.4293 68.841C86.1288 68.8859 85.8215 68.8595 85.525 68.922C85.3369 68.9733 85.1699 69.083 85.0482 69.2354C84.9265 69.3878 84.8564 69.5748 84.848 69.7697C84.8304 71.1353 84.8597 72.501 84.8372 73.8667C84.7124 74.1087 84.3817 73.9643 84.1817 73.9126C84.17 72.0279 84.1973 70.1394 84.1866 68.2508Z" fill="#020202"/>
<path d="M87.841 68.7942C88.3472 68.2137 89.1989 68.1503 89.908 68.2967C90.3093 68.3997 90.66 68.6437 90.8962 68.984C91.1325 69.3243 91.2384 69.7382 91.1947 70.1501C90.9762 70.1667 90.7518 70.1998 90.547 70.1052C90.576 69.9104 90.5495 69.7114 90.4707 69.531C90.3919 69.3505 90.2638 69.1959 90.1012 69.0849C89.7929 68.8644 89.392 68.8683 89.0281 68.8898C88.518 68.9249 88.0341 69.3443 88.0322 69.875C88.0058 70.6554 88.0136 71.4358 88.0234 72.222C88.0175 72.5557 88.1326 72.9049 88.4136 73.1068C88.7062 73.3595 89.1237 73.3546 89.4944 73.3409C89.6769 73.3388 89.8558 73.2905 90.0146 73.2006C90.1734 73.1108 90.3069 72.9822 90.4026 72.8268C90.5431 72.6161 90.5314 72.3528 90.5977 72.1167C90.7752 72.0094 91.0084 72.105 91.2074 72.0962C91.2293 72.3995 91.173 72.7034 91.0441 72.9789C90.9152 73.2543 90.7178 73.4921 90.4709 73.6697C89.9968 74.0101 89.3754 74.0433 88.8126 73.9623C88.4216 73.8954 88.0654 73.6964 87.8035 73.3985C87.5416 73.1005 87.3899 72.7218 87.3737 72.3254C87.36 71.6719 87.3815 71.0173 87.3678 70.3637C87.3444 69.8067 87.4283 69.2009 87.841 68.7942Z" fill="#020202"/>
<path d="M92.3389 69.1912C92.6315 68.5727 93.3143 68.2069 93.9972 68.2342C94.68 68.1796 95.4145 68.4742 95.753 69.0907C96.1432 69.7121 95.9481 70.4632 95.9891 71.1509C94.9404 71.1675 93.8908 71.1324 92.8441 71.1695C92.7466 71.4963 92.8178 71.864 92.8012 72.2074C92.7837 72.6951 93.1144 73.1829 93.5992 73.2902C94.084 73.3975 94.6722 73.3799 95.0536 73.0161C95.2906 72.7605 95.3394 72.4015 95.3687 72.0699C95.5774 72.0581 95.7872 72.0533 95.9979 72.0484C96.0303 72.4175 95.9473 72.7877 95.7603 73.1076C95.5733 73.4276 95.2916 73.6816 94.9541 73.8345C94.4971 74.0017 94.0022 74.0372 93.526 73.9369C92.812 73.7906 92.2198 73.1497 92.1769 72.4162C92.1535 71.7948 92.1769 71.1724 92.1681 70.551C92.1681 70.0974 92.1125 69.6106 92.3389 69.1912ZM93.0412 69.2819C92.7486 69.6155 92.7993 70.0838 92.7915 70.4964C93.6177 70.5227 94.4498 70.552 95.2789 70.4818C95.5423 69.8896 95.1814 69.0137 94.4878 68.9083C93.9913 68.8264 93.3738 68.8449 93.0412 69.2887V69.2819Z" fill="#020202"/>
<path d="M48.7501 68.3279C49.1544 68.2206 49.5772 68.203 49.989 68.2762C50.7362 68.4167 51.3547 69.0976 51.3732 69.8663C51.3986 70.5491 51.382 71.2319 51.3859 71.9148C51.3859 72.2874 51.381 72.6786 51.2045 73.019C50.585 74.3018 48.437 74.3398 47.7659 73.0863C47.4479 72.5235 47.5708 71.8533 47.5464 71.2378C47.5688 70.6525 47.4859 70.0496 47.6254 69.4722C47.7038 69.2033 47.8475 68.9581 48.0438 68.7585C48.24 68.5588 48.4827 68.4109 48.7501 68.3279ZM49.1794 68.8908C48.675 68.9239 48.2185 69.3492 48.2039 69.8663C48.1766 70.6847 48.1814 71.5051 48.2039 72.3245C48.2145 72.5737 48.3131 72.811 48.4823 72.9943C48.6514 73.1775 48.8801 73.2948 49.1277 73.3253C49.5276 73.3546 49.9802 73.3761 50.3178 73.1205C50.6045 72.9205 50.7382 72.5635 50.7392 72.224C50.7587 71.5714 50.7236 70.9178 50.7392 70.2662C50.7392 69.9062 50.7392 69.4965 50.4563 69.2302C50.1295 68.8791 49.6203 68.8381 49.1794 68.8908Z" fill="#020202"/>
<path d="M42.5527 37.04C44.7612 37.0185 46.9698 37.0292 49.1783 37.04C50.1538 38.0535 51.1088 39.0934 52.1096 40.0864C54.9268 43.0363 57.7558 45.9739 60.5964 48.899C62.2411 50.6734 63.954 52.3845 65.6143 54.1442L65.5831 54.1735L65.7089 54.2262C65.7193 53.8728 65.7102 53.5192 65.6816 53.1668C65.7421 50.8012 65.7128 48.4337 65.7304 46.0662C65.7263 45.8072 65.6936 45.5494 65.6328 45.2975C65.9288 44.159 66.4043 43.075 67.0415 42.0862C66.981 42.5037 67.0141 42.9261 67.0083 43.3465C67.0083 47.6182 67.0171 51.8899 67.0083 56.1625C66.9839 57.219 66.9966 58.2764 67.0083 59.3329C67.0171 59.8957 67.0346 60.4605 67.0083 61.0234L66.9185 61.2C65.2465 59.4743 63.5229 57.7984 61.8333 56.0903C59.7965 54.0642 57.7811 52.0167 55.7297 50.0072C53.9962 48.2308 52.2384 46.4759 50.4796 44.7239C50.2845 44.523 50.0669 44.3454 49.9148 44.1103L49.7392 44.0021C48.9305 43.1485 48.0886 42.3281 47.2526 41.5029C47.2195 43.5328 47.2683 45.5638 47.2283 47.5928C47.2283 47.7001 47.2166 48.7742 47.2507 49.3419C47.2858 50.4871 47.198 51.6372 47.2839 52.7795C47.1922 53.5316 47.2575 54.2915 47.237 55.0475C47.2644 55.6845 47.1902 56.3274 47.2868 56.9605C46.9325 57.6205 46.432 58.1907 45.8236 58.6276C45.8762 58.1828 45.9718 57.7428 45.9591 57.2931C45.9533 55.2446 45.9591 53.2009 45.9533 51.1553C45.9474 50.4062 45.9367 49.656 45.9582 48.9117C45.9582 48.7264 45.965 48.5839 45.965 48.4103C45.9357 46.8007 45.9874 45.1912 45.9455 43.5826C45.9357 43.25 45.9377 42.9183 45.9455 42.5866C45.9533 41.9594 46.0089 41.3312 45.9689 40.7049C45.9116 39.7968 45.5536 38.9337 44.9515 38.2515C44.335 37.5541 43.4473 37.1804 42.5527 37.04Z" fill="#FFBE00"/>
<path d="M62.3813 37.0478C64.9566 37.0215 67.5329 37.0146 70.1072 37.0478C69.3268 37.3346 68.4255 37.6331 67.9699 38.3842C67.1395 38.7926 66.3415 39.2638 65.5829 39.7938C65.4551 39.2836 65.1469 38.8427 64.8464 38.4203C64.2136 37.6848 63.3399 37.1983 62.3813 37.0478Z" fill="#FFBE00"/>
<path d="M44.9719 61.1122C46.121 60.9688 47.2204 60.5708 48.2515 60.0557L48.2905 60.0499C48.6701 60.4537 49.1373 60.7651 49.6562 60.96C49.8201 61.0302 50.0122 61.0576 50.1244 61.2127C48.3861 61.2761 45.5611 61.2214 43.8208 61.24L44.9719 61.1122Z" fill="#FFBE00"/>
</g>
<rect x="1" y="1" width="110" height="110" rx="9" stroke="black" stroke-opacity="0.1" stroke-width="2"/>
<defs>
<clipPath id="clip0_6700_50629">
<rect x="2" y="2" width="108" height="108" rx="8" fill="white"/>
</clipPath>
</defs>
</svg>
