<svg width="112" height="112" viewBox="0 0 112 112" fill="none" xmlns="http://www.w3.org/2000/svg">
<g clip-path="url(#clip0_6700_50432)">
<rect x="2" y="2" width="108" height="108" rx="8" fill="white"/>
<path d="M48.3139 45H26.7881V66.5258H48.3139V45Z" fill="white"/>
<path d="M59.0769 55.7882L48.314 45V66.5511L59.0769 55.7882Z" fill="#DB0011"/>
<path d="M37.551 55.7882L48.3139 45H26.7881L37.551 55.7882Z" fill="#DB0011"/>
<path d="M16 55.7882L26.7882 66.5511V45L16 55.7882Z" fill="#DB0011"/>
<path d="M37.551 55.7882L26.7881 66.5511H48.3139L37.551 55.7882Z" fill="#DB0011"/>
<path d="M68.5228 56.4213H64.6228V60.2707H62.6729V51.2552H64.6228V54.9525H68.5228V51.2552H70.4728V60.2707H68.5228V56.4213Z" fill="#222222"/>
<path d="M75.1831 60.4479C73.2331 60.4479 71.6376 59.6629 71.6123 57.5103H73.5623C73.5876 58.4726 74.1448 59.0551 75.2084 59.0551C75.9934 59.0551 76.9051 58.6499 76.9051 57.7635C76.9051 57.0545 76.2973 56.8519 75.2844 56.548L74.6259 56.3707C73.2077 55.9655 71.7896 55.4084 71.7896 53.7876C71.7896 51.787 73.6636 51.1032 75.3603 51.1032C77.1077 51.1032 78.6272 51.711 78.6525 53.7116H76.7025C76.6266 52.9012 76.1454 52.4201 75.2337 52.4201C74.4993 52.4201 73.7902 52.7999 73.7902 53.6103C73.7902 54.2688 74.398 54.4714 75.6642 54.8766L76.424 55.1045C77.9688 55.5856 78.9564 56.1175 78.9564 57.6369C78.9311 59.6629 76.9558 60.4479 75.1831 60.4479Z" fill="#222222"/>
<path d="M80.0459 51.2805H83.1861C83.7686 51.2551 84.3764 51.2805 84.9589 51.3818C86.0478 51.635 86.8835 52.3441 86.8835 53.5597C86.8835 54.7246 86.1491 55.3071 85.0855 55.5856C86.301 55.8135 87.2127 56.4213 87.2127 57.7635C87.2127 59.8148 85.1868 60.2707 83.6167 60.2707H80.0712L80.0459 51.2805ZM83.1861 55.0285C84.0472 55.0285 84.9335 54.8512 84.9335 53.8129C84.9335 52.8759 84.1231 52.6227 83.3128 52.6227H81.9452V55.0285H83.1861ZM83.3634 58.9285C84.2751 58.9285 85.1615 58.7259 85.1615 57.6116C85.1615 56.4973 84.4017 56.2947 83.4647 56.2947H81.9199V58.9285H83.3634Z" fill="#222222"/>
<path d="M92.2771 60.4479C89.3648 60.4479 88.0732 58.5992 88.0732 55.8389C88.0732 53.0785 89.5167 51.0779 92.3784 51.0779C94.1764 51.0779 95.9238 51.8883 95.9745 53.9142H93.9485C93.8472 53.0025 93.2394 52.5467 92.3784 52.5467C90.6057 52.5467 90.0739 54.446 90.0739 55.8895C90.0739 57.333 90.6057 59.0044 92.3024 59.0044C93.1888 59.0044 93.8472 58.5233 93.9738 57.6116H95.9998C95.7972 59.6882 94.1511 60.4479 92.2771 60.4479Z" fill="#222222"/>
</g>
<rect x="1" y="1" width="110" height="110" rx="9" stroke="black" stroke-opacity="0.1" stroke-width="2"/>
<defs>
<clipPath id="clip0_6700_50432">
<rect x="2" y="2" width="108" height="108" rx="8" fill="white"/>
</clipPath>
</defs>
</svg>
