<svg width="112" height="112" viewBox="0 0 112 112" fill="none" xmlns="http://www.w3.org/2000/svg">
<g clip-path="url(#clip0_6700_50255)">
<rect x="2" y="2" width="108" height="108" rx="8" fill="white"/>
<g clip-path="url(#clip1_6700_50255)">
<path fill-rule="evenodd" clip-rule="evenodd" d="M54.8958 34.311V30.9846H44.0904V40.9656H50.7108V44.292H44.0904V54.2712H54.8958V50.9466H47.415V47.622H54.0624V37.6356H47.415V34.3128H54.8958V34.311ZM34.041 42.6432C34.041 30.6858 43.725 21.0018 55.686 21.0018C67.647 21.0018 77.3329 30.6858 77.3329 42.6432C77.3329 54.6006 67.6416 64.2864 55.686 64.2864C43.7304 64.2864 34.041 54.5988 34.041 42.6432ZM37.3926 42.6432C37.3926 32.547 45.5826 24.3498 55.686 24.3498C65.7894 24.3498 73.9758 32.547 73.9758 42.6432C73.9758 52.7394 65.784 60.9348 55.686 60.9348C45.588 60.9348 37.3926 52.743 37.3926 42.6432ZM56.5698 50.952V54.2766H67.3572V44.3028H60.7242V40.9782H67.3572V30.9882H56.5698V34.3146H64.029V37.6482H57.3816V47.6256H64.029V50.9502H56.5698V50.952Z" fill="#B2292E"/>
<path d="M54.8958 34.311V30.9846H44.0904V40.9656H50.7108V44.292H44.0904V54.2712H54.8958V50.9466H47.415V47.622H54.0624V37.6356H47.415V34.3128H54.8958V34.311ZM34.041 42.6432C34.041 30.6858 43.725 21.0018 55.686 21.0018C67.647 21.0018 77.3329 30.6858 77.3329 42.6432C77.3329 54.6006 67.6416 64.2864 55.686 64.2864C43.7304 64.2864 34.041 54.5988 34.041 42.6432ZM37.3926 42.6432C37.3926 32.547 45.5826 24.3498 55.686 24.3498C65.7894 24.3498 73.9758 32.547 73.9758 42.6432C73.9758 52.7394 65.784 60.9348 55.686 60.9348C45.588 60.9348 37.3926 52.743 37.3926 42.6432ZM56.5698 50.952V54.2766H67.3572V44.3028H60.7242V40.9782H67.3572V30.9882H56.5698V34.3146H64.029V37.6482H57.3816V47.6256H64.029V50.9502H56.5698V50.952Z" stroke="#B2292E" stroke-width="0.0036"/>
<path d="M61.0858 90.1542C63.1486 90.1542 64.702 89.6556 65.7082 88.6746C66.7414 87.663 66.9574 86.3634 66.9574 85.449C66.9574 83.4474 66.1186 82.056 64.459 81.318L64.387 81.2874L64.4572 81.2514C65.206 80.8608 66.196 80.067 66.196 77.6946C66.196 76.3932 65.701 75.2196 64.7992 74.3916C63.8128 73.4808 62.3746 73.002 60.6394 73.002L51.6538 72.9948V90.1506L61.0858 90.156V90.1542ZM54.9172 79.7322V76.1502H60.3604C61.318 76.1502 62.9236 76.1502 62.9236 78.0366C62.9236 78.7278 62.623 79.221 62.029 79.4946C61.498 79.743 60.8284 79.7718 60.373 79.7718H54.9172V79.7322ZM54.9172 82.92V82.884H60.8644C61.4062 82.884 62.1874 82.9686 62.8156 83.3772C63.4006 83.7606 63.6976 84.324 63.6976 85.0548C63.6976 85.6398 63.5356 86.0952 63.2242 86.4084C62.641 86.9916 61.633 86.9898 60.8986 86.9898H54.8992V86.952L54.919 82.92H54.9172Z" fill="#161519"/>
<path d="M31.4218 73.0002H28V90.1542H31.4218V73.0002Z" fill="#161519"/>
<path d="M34.201 81.4314C34.201 83.091 34.4818 84.4608 35.0632 85.6164C35.5438 86.5812 36.2242 87.3912 37.207 88.1742C38.737 89.3928 40.8916 90.0102 43.6078 90.0102H48.2914V86.7702H43.8688C41.41 86.7702 39.6226 86.16 38.5642 84.9594C37.8136 84.1026 37.4266 82.956 37.4176 81.5394C37.405 80.022 37.8334 78.8142 38.6866 77.9538C39.754 76.8756 41.4982 76.3302 43.8688 76.3302H48.2914V73.119H43.7716C42.2488 73.119 40.9726 73.272 39.8674 73.5798C38.7658 73.8912 37.8568 74.3538 37.0972 74.9946C36.0136 75.9054 34.1992 77.9538 34.1992 81.4314" fill="#161519"/>
<path d="M69.0238 81.4314C69.0238 83.0874 69.3136 84.549 69.8842 85.7694C70.381 86.8278 71.1028 87.7386 72.0298 88.482C73.4644 89.625 75.502 90.156 78.4324 90.156H83.3716V86.9178H78.6916C76.2364 86.9178 74.4508 86.2824 73.3852 85.0314C72.6364 84.1494 72.253 82.974 72.2386 81.5394C72.2242 79.9788 72.6688 78.7332 73.5544 77.8422C74.629 76.7586 76.357 76.2078 78.6916 76.2078H83.3716V73.002H78.5962C77.0752 73.002 75.7972 73.1532 74.6938 73.4628C73.5886 73.7706 72.6796 74.2332 71.9218 74.8758C71.0506 75.6066 69.022 77.7162 69.022 81.4332" fill="#161519"/>
</g>
</g>
<rect x="1" y="1" width="110" height="110" rx="9" stroke="black" stroke-opacity="0.1" stroke-width="2"/>
<defs>
<clipPath id="clip0_6700_50255">
<rect x="2" y="2" width="108" height="108" rx="8" fill="white"/>
</clipPath>
<clipPath id="clip1_6700_50255">
<rect width="55.3716" height="69.1542" fill="white" transform="translate(28 21)"/>
</clipPath>
</defs>
</svg>
