<svg width="112" height="112" viewBox="0 0 112 112" fill="none" xmlns="http://www.w3.org/2000/svg">
<g clip-path="url(#clip0_6700_50543)">
<rect x="2" y="2" width="108" height="108" rx="8" fill="white"/>
<path fill-rule="evenodd" clip-rule="evenodd" d="M45.9457 60.0782C45.9457 61.5891 44.988 62.4402 42.9451 62.5043V64.8025C45.2649 64.8025 48.2014 63.5469 48.2014 60.0782V48.8158H45.9457V60.0782ZM59.2569 53.6663C59.2569 51.8786 58.2779 48.6014 54.6603 48.6014C51.2339 48.6014 50.0637 51.4744 50.0637 54.4536C50.0637 57.4328 51.2552 60.3058 55.1924 60.3058C56.2563 60.3058 57.6182 60.0506 59.1717 58.9437L58.0224 57.1562C57.0436 57.7733 56.1073 58.0928 55.1924 58.0928C53.4469 58.0928 52.6385 56.901 52.447 55.6667H57.1926C58.5974 55.6667 59.2569 55.1133 59.2569 53.6663ZM52.4257 53.4535C52.5747 52.0489 53.1706 50.8147 54.6603 50.8147C56.15 50.8147 56.7457 52.0489 56.8947 53.4535H52.4257ZM65.3908 48.6014C62.5817 48.6014 61.1344 50.9212 61.1344 50.9212V60.1782H63.3901V51.6658C63.3901 51.6658 64.0928 50.8147 65.3908 50.8147C66.8165 50.8147 67.6039 51.9851 67.6039 53.0279V60.1782H69.8598V53.0279C69.8598 50.8785 68.3485 48.6014 65.3908 48.6014ZM72.3633 48.729H74.619V60.1782H72.3633V48.729ZM91.6813 53.2407H91.7026C90.9366 53.0279 89.9363 52.645 89.9363 51.8575C89.9363 51.2829 90.5322 50.8147 91.6599 50.8147C92.7879 50.8147 94.0649 51.3254 94.5542 51.5595L95.278 49.5379C94.5329 49.1548 93.022 48.6014 91.6599 48.6014C89.7022 48.6014 87.6592 49.6018 87.6592 51.8575C87.6592 53.9431 89.4894 54.9857 91.2984 55.4328C92.2772 55.6454 93.5114 56.0498 93.5114 56.8585C93.5114 57.7097 92.5111 58.0928 91.5325 58.0928C90.5749 58.0928 89.2552 57.4758 88.2549 56.9435L87.3826 59.0504C88.34 59.5398 89.7449 60.2633 91.5325 60.306C93.5966 60.306 95.7671 59.327 95.7671 56.8585C95.7671 54.475 93.3836 53.6665 91.6813 53.2407ZM83.6529 55.8795C83.6529 56.9186 82.8707 58.0843 81.4535 58.0918C80.0369 58.0843 79.2545 56.9186 79.2545 55.8795V48.729H76.9988V55.8795C76.9988 58.0219 78.5 60.2908 81.4399 60.3053V60.306H81.4676V60.3053C84.4071 60.2908 85.9088 58.0219 85.9088 55.8795V48.729H83.6529V55.8795ZM28.1313 47.0014C25.9635 47.0014 22.8843 47.9403 21.0657 50.2157C18.188 51.4725 16.0869 54.2821 16.0869 57.3503C16.0869 62.1123 20.142 64.9568 25.0298 64.9568C25.8342 64.9568 26.5993 64.7781 27.3151 64.5977C27.8422 64.6805 28.3884 64.7243 28.9521 64.7243C33.5649 64.7243 37.6299 60.9838 37.6299 56.0996C37.6299 51.0554 33.621 47.0014 28.1313 47.0014ZM24.8238 50.6502C27.1429 50.6502 28.9418 52.9324 28.9418 54.9704C28.9418 57.7252 27.259 59.5731 24.9087 59.5731C22.7996 59.5731 20.9202 57.6182 20.9202 54.8407C20.9202 52.5503 22.6227 50.6502 24.8238 50.6502ZM24.5134 64.0994C21.3209 64.0994 17.9457 61.0113 17.9457 57.1623C17.9457 55.2846 18.5359 53.4066 20.028 52.1442C19.7601 52.6974 19.5823 53.362 19.5103 54.1554C19.4737 54.4435 19.4532 54.7424 19.4532 55.0509C19.4532 59.2083 21.7313 62.654 25.2942 64.0529C25.0364 64.0832 24.7757 64.0994 24.5134 64.0994ZM26.9064 63.6644C24.2307 63.1391 22.0367 61.1121 21.0889 58.7133C22.0273 59.6292 23.3625 60.2575 25.0643 60.2575C27.7862 60.2575 30.3743 58.1733 30.3743 55.0793C30.3743 53.5607 29.8373 52.5664 29.8373 52.5664C30.9714 53.7181 31.6888 55.3355 31.6888 57.308C31.6888 60.0808 29.614 62.6657 26.9064 63.6644ZM29.553 63.6796C31.7338 62.3767 33.0896 60.1493 33.0896 57.7261C33.0896 52.329 27.8267 50.395 27.8267 50.395C26.8595 49.8253 25.6679 49.5213 24.3438 49.5213C24.2432 49.5213 24.071 49.5239 23.9713 49.5274C25.3132 48.5155 27.0591 47.8927 28.8254 47.8927C32.943 47.8927 36.0576 51.8005 36.0576 55.4596C36.0576 59.7137 33.0469 63.0134 29.553 63.6796Z" fill="#00A4DE"/>
</g>
<rect x="1" y="1" width="110" height="110" rx="9" stroke="black" stroke-opacity="0.1" stroke-width="2"/>
<defs>
<clipPath id="clip0_6700_50543">
<rect x="2" y="2" width="108" height="108" rx="8" fill="white"/>
</clipPath>
</defs>
</svg>
