<svg width="112" height="112" viewBox="0 0 112 112" fill="none" xmlns="http://www.w3.org/2000/svg">
<g clip-path="url(#clip0_6700_50230)">
<rect x="2" y="2" width="108" height="108" rx="8" fill="white"/>
<rect x="24" y="24" width="64" height="64" rx="8.31769" fill="#6936D3"/>
<g clip-path="url(#clip1_6700_50230)">
<path d="M38.2671 73.0499C38.3599 72.9187 38.4361 72.8026 38.5204 72.6926C41.05 69.3972 43.233 65.8843 45.133 62.1928C47.6453 57.312 49.64 52.2259 51.2137 46.9705C52.032 44.2372 52.7277 41.4737 53.3074 38.681C53.6412 37.0725 53.9111 35.4522 54.1542 33.8276C54.1931 33.5671 54.2255 33.3056 54.2576 33.044C54.2723 32.9252 54.3467 32.8869 54.4513 32.8974C54.8065 32.9324 55.1615 32.9692 55.516 33.0095C56.5644 33.1284 57.6128 33.2477 58.6609 33.3699C59.6011 33.4794 60.5406 33.5941 61.4806 33.7046C61.6503 33.7244 61.8214 33.7302 61.9911 33.7503C62.1656 33.771 62.2148 33.822 62.1964 33.9887C62.1642 34.2812 62.1269 34.5737 62.0766 34.8637C61.8361 36.253 61.5816 37.6396 61.2949 39.0203C60.7812 41.4942 60.1812 43.9463 59.5049 46.3808C58.6707 49.3837 57.7195 52.3487 56.6231 55.2668C56.6068 55.3104 56.5926 55.3547 56.5756 55.398C56.3383 56.0035 56.3364 55.9497 56.9271 55.9C59.4356 55.6898 61.6529 54.7873 63.5371 53.1071C64.6139 52.1468 65.4678 51.009 66.1575 49.7459C66.5519 49.0236 66.8936 48.2769 67.1774 47.5042C67.2043 47.4315 67.2287 47.3579 67.2595 47.287C67.3038 47.1858 67.3718 47.1604 67.4821 47.2008C67.8461 47.3339 68.2139 47.4567 68.5799 47.5851C70.175 48.145 71.77 48.7055 73.3649 49.2658C73.4672 49.3017 73.57 49.3374 73.6707 49.3779C73.7557 49.4122 73.7832 49.484 73.7567 49.5662C73.7042 49.7282 73.6478 49.889 73.5858 50.0478C72.726 52.2503 71.5073 54.2399 69.9925 56.0499C68.5402 57.7854 66.8919 59.309 65.0075 60.5697C64.5952 60.8457 64.1652 61.095 63.7431 61.3566C63.6771 61.3973 63.6088 61.4342 63.5443 61.4773C63.486 61.516 63.4895 61.5994 63.5487 61.6255C63.5909 61.6442 63.6354 61.6582 63.6792 61.6731C65.2464 62.2063 66.4799 63.1841 67.4511 64.5075C68.4018 65.8032 68.9989 67.2566 69.3709 68.8108C69.7128 70.2393 69.8119 71.6876 69.7564 73.1513C69.6828 75.0912 69.2779 76.9595 68.557 78.7607C68.5225 78.8469 68.4887 78.9337 68.4465 79.0162C68.4169 79.074 68.3615 79.1047 68.2946 79.105C68.2482 79.105 68.2018 79.101 68.1552 79.0991C67.0071 79.0507 65.8589 79.0047 64.7108 78.9532C63.4233 78.8954 62.136 78.8327 60.8488 78.7712C60.7716 78.7675 60.6935 78.7633 60.6178 78.7491C60.5437 78.7353 60.5187 78.6749 60.5392 78.6097C60.5763 78.4917 60.6248 78.3773 60.6677 78.261C61.1359 76.9942 61.5254 75.7056 61.7752 74.3763C61.9911 73.2271 62.0789 72.0677 61.9906 70.9033C61.793 68.2959 60.6551 66.195 58.5411 64.6331C57.4319 63.8136 56.2143 63.2102 54.897 62.8074C54.5261 62.6942 54.1476 62.6068 53.8025 62.4215C53.7062 62.3697 53.6216 62.3928 53.5696 62.4935C53.5127 62.6037 53.4596 62.7156 53.4058 62.8275C52.4394 64.8403 51.4901 66.8615 50.4639 68.8452C49.4085 70.8856 48.2856 72.8865 46.9701 74.7742C46.1972 75.8832 45.3642 76.9441 44.4389 77.9312C44.3646 78.0104 44.2918 78.0916 44.2133 78.1664C44.1049 78.2699 44.055 78.2729 43.9348 78.1671C43.6315 77.9007 43.3325 77.6296 43.0325 77.3597C41.4856 75.9692 39.9387 74.5784 38.3925 73.1872C38.3582 73.1564 38.33 73.1189 38.2671 73.0494L38.2671 73.0499Z" fill="white"/>
</g>
</g>
<rect x="1" y="1" width="110" height="110" rx="9" stroke="black" stroke-opacity="0.1" stroke-width="2"/>
<defs>
<clipPath id="clip0_6700_50230">
<rect x="2" y="2" width="108" height="108" rx="8" fill="white"/>
</clipPath>
<clipPath id="clip1_6700_50230">
<rect width="35.4994" height="46.2094" fill="white" transform="translate(38.2671 32.8953)"/>
</clipPath>
</defs>
</svg>
