<svg width="112" height="112" viewBox="0 0 112 112" fill="none" xmlns="http://www.w3.org/2000/svg">
<g clip-path="url(#clip0_6700_50069)">
<rect x="2" y="2" width="108" height="108" rx="8" fill="white"/>
<path fill-rule="evenodd" clip-rule="evenodd" d="M25.1771 81.3996L28.189 73.162L29.174 81.3996H32.3559L30.6326 69.3009H26.7495L24.1779 76.5689L21.6069 69.3009H17.7239L16 81.3996H19.1825L20.1669 73.162L23.1793 81.3996H25.1771Z" fill="#231F20"/>
<path fill-rule="evenodd" clip-rule="evenodd" d="M85.5732 68.3033V81.3891H88.8695V76.8328L92.2499 81.3891H96L92.279 76.5788L95.668 72.4023H91.8808L88.8695 76.3316V68.3033H85.5732Z" fill="#231F20"/>
<path fill-rule="evenodd" clip-rule="evenodd" d="M49.8859 72.4023L47.7279 78.6945L45.5391 72.4023H41.9033L45.9948 81.3995L44.3741 84.9292H47.898L53.5228 72.4023H49.8859Z" fill="#231F20"/>
<path fill-rule="evenodd" clip-rule="evenodd" d="M57.4064 79.3129V74.5801C58.0742 74.3546 60.4931 73.7493 60.4931 76.8241C60.4931 79.9579 58.0117 79.4771 57.4064 79.3129ZM54.0532 80.9361C54.0532 80.9361 55.7963 81.5892 58.2399 81.5892C60.6829 81.5892 63.8648 80.829 63.8648 76.6166C63.8648 72.4023 59.6416 72.2505 59.1488 72.2505C58.2189 72.2505 57.6247 72.5039 57.4064 72.6161V68.2835H54.0532V80.9361Z" fill="#231F20"/>
<path fill-rule="evenodd" clip-rule="evenodd" d="M67.3506 78.6274C67.3506 77.3343 69.8029 77.242 70.4768 77.2414V79.5443C69.775 79.6286 67.3506 79.8287 67.3506 78.6274ZM65.6644 74.6801C70.4756 73.2564 70.4768 74.9658 70.4768 75.1925V75.498C66.5826 75.5308 64.2627 76.6454 64.2627 78.6658C64.2627 80.7153 66.4225 81.6074 69.2829 81.6074C72.1432 81.6074 73.6012 80.9426 73.6012 80.9426V75.3443C73.6012 73.3704 72.3324 72.1176 69.2829 72.1176C66.2327 72.1176 64.9076 72.8394 64.9076 72.8394L65.6644 74.6801Z" fill="#231F20"/>
<path fill-rule="evenodd" clip-rule="evenodd" d="M35.8701 78.6274C35.8701 77.3343 38.3224 77.242 38.9951 77.2414V79.5443C38.294 79.6286 35.8701 79.8287 35.8701 78.6274ZM34.184 74.6801C38.9951 73.2564 38.9951 74.9658 38.9951 75.1925V75.498C35.1022 75.5308 32.7822 76.6454 32.7822 78.6658C32.7822 80.7153 34.942 81.6074 37.8018 81.6074C40.6621 81.6074 42.1208 80.9426 42.1208 80.9426V75.3443C42.1208 73.3704 40.852 72.1176 37.8018 72.1176C34.7522 72.1176 33.4265 72.8394 33.4265 72.8394L34.184 74.6801Z" fill="#231F20"/>
<path fill-rule="evenodd" clip-rule="evenodd" d="M81.0079 81.3803H84.3228V75.6866C84.3228 72.7257 82.2019 72.0987 79.587 72.0987C76.974 72.0987 74.8711 72.8199 74.8711 72.8199V81.3803H78.1865V74.5726C80.7353 73.826 81.0079 75.0528 81.0079 75.6481V81.3803Z" fill="#231F20"/>
<mask id="mask0_6700_50069" style="mask-type:luminance" maskUnits="userSpaceOnUse" x="37" y="28" width="36" height="35">
<path fill-rule="evenodd" clip-rule="evenodd" d="M37.9385 28H72.7819V62.9142H37.9385V28Z" fill="white"/>
</mask>
<g mask="url(#mask0_6700_50069)">
<path fill-rule="evenodd" clip-rule="evenodd" d="M55.3598 27.9998C45.7546 27.9998 37.9385 35.8326 37.9385 45.456C37.9385 55.0815 45.7546 62.9143 55.3598 62.9143C64.9672 62.9143 72.7823 55.0815 72.7823 45.456C72.7823 35.8326 64.9672 27.9998 55.3598 27.9998Z" fill="#FFC600"/>
<path fill-rule="evenodd" clip-rule="evenodd" d="M55.3598 27.9998C45.7546 27.9998 37.9385 35.8326 37.9385 45.456C37.9385 55.0815 45.7546 62.9143 55.3598 62.9143C64.9672 62.9143 72.7823 55.0815 72.7823 45.456C72.7823 35.8326 64.9672 27.9998 55.3598 27.9998ZM55.3597 29.4576C64.1769 29.4576 71.326 36.6188 71.326 45.4558C71.326 54.2917 64.1769 61.454 55.3597 61.454C46.5436 61.454 39.3956 54.2917 39.3956 45.4558C39.3956 36.6188 46.5436 29.4576 55.3597 29.4576Z" fill="#231F20"/>
</g>
<path fill-rule="evenodd" clip-rule="evenodd" d="M47.8572 39.3441C47.8572 39.3441 48.2266 37.8893 48.8165 37.3969C49.4076 36.9034 51.5308 35.4979 54.5972 34.512C54.9624 34.394 55.3864 34.5292 55.4056 34.5356C55.3853 34.6568 55.3735 34.7394 55.3682 34.7663C55.3275 34.9969 55.1551 35.1439 55.1551 35.1439C55.7782 35.2265 56.1883 34.7834 56.3029 34.2728C56.4185 33.7653 56.8115 31.7462 57.4517 31.7763C59.2387 31.8578 60.5182 37.6436 60.3876 37.9054C60.3009 38.0771 59.5996 37.9376 59.5996 37.9376C60.7142 39.696 62.1735 39.6788 62.5022 39.4009C62.8299 39.1231 62.65 38.2176 62.65 38.2176C66.1597 40.3053 65.9627 42.7868 65.9627 42.7868C67.012 38.6789 64.5858 36.9195 64.5858 36.9195C65.5366 36.8862 66.5698 37.4945 66.5698 37.4945C65.0933 35.5065 62.0429 34.4047 62.0429 34.4047C62.0429 34.4047 58.485 30.4449 57.3372 30.5929C56.3853 30.7163 55.8414 32.465 55.5748 33.6602C55.4442 33.6494 55.1947 33.6398 54.8703 33.6784C54.6187 33.3651 53.5533 32.0981 53.139 32.5154C52.9773 32.6764 52.9259 33.8179 52.912 34.2974C51.1881 34.9841 48.2555 36.2747 47.6591 37.222C47.1195 38.0856 46.9953 38.7272 46.9953 38.7272C46.9953 38.7272 43.4791 40.9941 42.6172 43.4616C42.6172 43.4616 44.9792 40.6991 47.8572 39.3441Z" fill="#231F20"/>
<path fill-rule="evenodd" clip-rule="evenodd" d="M59.1734 37.5127C59.1231 35.6867 58.2227 34.2255 57.7623 34.1408C57.304 34.0603 57.1562 35.8005 57.1562 35.8005C58.3704 36.6051 59.1734 37.5127 59.1734 37.5127Z" fill="#231F20"/>
<path fill-rule="evenodd" clip-rule="evenodd" d="M50.5298 37.1839C49.8242 37.6087 50.1369 37.9713 50.1369 37.9713C50.1369 37.9713 50.0223 37.6087 50.8917 37.363C52.4421 36.9242 53.8436 36.4747 53.8094 36.0981C53.7773 35.7205 52.728 35.5724 52.728 35.5724C53.0235 35.9662 51.2354 36.7558 50.5298 37.1839Z" fill="#231F20"/>
<path fill-rule="evenodd" clip-rule="evenodd" d="M51.2599 39.5977C51.473 39.5977 51.6454 39.4261 51.6454 39.2126C51.6454 39.0957 51.5929 38.9948 51.5105 38.924C51.7664 38.9068 52.351 38.939 52.351 38.939C52.2857 38.924 52.1379 39.0881 51.8092 39.499C51.4816 39.911 51.1711 39.5977 51.1711 39.5977L51.1657 39.5795C51.1957 39.5859 51.2267 39.5977 51.2599 39.5977ZM50.0222 41.3562C50.0222 41.3562 50.4644 40.322 50.7931 40.1911C50.7931 40.1911 51.367 40.3381 51.6786 40.2222C51.9901 40.1085 52.5801 39.3199 52.8103 39.3028C52.8103 39.3028 52.2032 41.9463 49.7427 41.898C49.7427 41.898 51.5148 42.9011 52.4163 42.1941C53.3189 41.4871 52.6294 40.9453 53.7943 39.8113C54.9581 38.6762 54.1883 38.629 54.139 38.6462C54.0898 38.6612 53.7279 38.5464 53.7279 38.5464C53.7279 38.5464 53.8917 38.3329 54.2215 38.187C54.5491 38.0368 56.4346 37.1839 56.4678 36.6711C56.4999 36.1636 55.1059 35.5886 54.4014 35.6036C54.4014 35.6036 55.0395 35.8665 55.0074 36.2291C54.9753 36.5906 53.139 37.3963 53.139 38.4316C53.139 38.4316 52.4827 38.4799 52.0062 38.3834C51.5308 38.2825 51.0222 38.3329 50.4976 38.6762C49.9729 39.0228 49.9408 38.2514 49.989 38.1516C49.989 38.1516 48.9729 38.7921 50.2524 39.6139C50.2524 39.6139 49.7267 40.1568 49.6774 40.2887C49.6282 40.4196 49.4151 41.1255 50.0222 41.3562Z" fill="#231F20"/>
<path fill-rule="evenodd" clip-rule="evenodd" d="M48.3982 44.7419C48.3982 44.7419 48.3736 43.8053 47.5117 44.0027C46.0641 44.3331 45.5684 46.9101 45.5684 46.9101C47.1937 43.904 48.3982 44.7419 48.3982 44.7419Z" fill="#231F20"/>
<path fill-rule="evenodd" clip-rule="evenodd" d="M48.9401 47.0332C49.726 45.7533 48.7677 44.939 47.5375 45.6278C46.3083 46.3187 46.0117 47.9709 46.0117 47.9709C48.4476 45.3092 48.9401 47.0332 48.9401 47.0332Z" fill="#231F20"/>
<path fill-rule="evenodd" clip-rule="evenodd" d="M60.5514 45.382C60.5514 45.382 59.6649 44.5956 59.7634 43.1387C59.8619 41.6839 60.1328 39.4932 57.6734 37.9633C57.6734 37.9633 58.6809 39.5168 58.3115 41.0445C57.9422 42.5733 56.7108 45.1814 56.8115 46.0483C57.0331 47.9461 59.0011 48.2916 58.8533 50.8793C58.8533 50.8793 60.0097 49.4728 59.7891 47.8227C59.5675 46.1706 58.1156 45.455 58.7548 44.1504C58.7548 44.1504 59.4925 45.234 60.5514 45.382Z" fill="#231F20"/>
<path fill-rule="evenodd" clip-rule="evenodd" d="M49.37 52.9736C49.1473 52.9018 48.9514 52.0875 48.9514 52.0875C49.2715 52.3471 49.9236 52.3589 49.9236 52.3589C49.6152 52.6529 49.5917 53.0477 49.37 52.9736ZM51.8262 50.3785C51.8262 50.3785 52.5961 50.4107 52.6292 50.2798C52.6624 50.1478 52.383 49.2434 52.383 49.2434C52.383 49.2434 53.3509 49.3421 53.368 49.6554C53.3841 49.9654 52.8263 50.7572 51.6453 51.2657C51.6453 51.2657 51.8594 50.6402 51.8262 50.3785ZM46.8218 49.5406C46.9278 49.4794 47.0273 49.414 47.1184 49.3421C47.3582 49.1608 47.5381 49.0739 47.6591 49.0342C47.6344 49.3807 47.6141 49.9901 47.7222 50.4965C47.7222 50.4965 47.0852 50.0877 46.8218 49.5406ZM43.7403 46.3843C43.3634 46.3843 42.691 45.3822 42.5764 45.1848C42.4619 44.9885 43.2146 44.6259 43.4459 44.5604C43.675 44.4939 43.917 44.5497 43.9534 44.6613C43.9866 44.7568 43.479 45.07 43.4127 45.1848C43.3473 45.3007 43.8152 45.7331 43.8881 45.8242C44.0187 45.9916 44.1183 46.3843 43.7403 46.3843ZM67.633 38.5042C67.633 38.5042 69.784 44.3641 67.3567 49.6875C67.3567 49.6875 67.4948 48.914 66.8974 47.3884C66.2571 45.7534 66.4713 43.641 66.7336 43.2473C66.7336 43.2473 65.5515 44.4295 65.6179 46.4025C65.6843 48.3722 66.2079 53.9274 62.2077 55.998C62.2077 55.998 63.7238 53.2204 63.1574 49.9654C63.1574 49.9654 63.6746 50.165 63.9455 50.8548C63.9455 50.8548 65.028 47.9957 63.6253 44.4939C63.6253 44.4939 64.4123 44.643 64.9048 45.0614C64.9048 45.0614 65.422 42.5564 62.5921 40.7969C61.879 40.3527 61.9765 40.1081 61.9765 40.1081C61.9765 40.1081 61.7559 40.6746 62.2227 41.2411C62.6895 41.8086 63.3309 42.9179 63.2324 43.4854C63.2324 43.4854 62.469 42.9415 61.3619 43.0906C61.3619 43.0906 63.4776 44.8887 63.1574 48.7595C63.1574 48.7595 62.6178 48.1684 61.2398 47.9216C61.2398 47.9216 62.7891 50.8312 61.4111 53.6152C61.4111 53.6152 61.3126 52.6293 60.8704 52.0124C60.8704 52.0124 60.5257 54.0594 58.0663 54.775C58.0663 54.775 60.0578 52.2838 57.6969 51.0286C55.3349 49.7691 53.3423 52.5552 52.9494 54.997C52.9494 54.997 50.2191 55.1923 49.9482 54.084C49.6773 52.9737 50.4643 52.5048 50.4643 52.5048C50.4643 52.5048 50.8829 52.7762 51.8434 52.3332C52.8016 51.8901 54.8188 50.681 54.6218 49.1533C54.4248 47.6266 52.0393 46.1225 50.1442 46.7372C48.2512 47.3552 47.1676 49.031 46.1836 49.0063C45.1997 48.9816 43.9941 47.4775 44.1675 46.69C44.3388 45.9004 44.978 45.6783 45.1997 44.3469C45.1997 44.3469 44.856 44.3802 44.6268 44.2321C44.3966 44.083 43.7895 43.8373 43.4619 43.921C43.1332 44.0026 42.3302 44.5454 42.297 44.4456C42.2638 44.3469 42.3794 43.7537 42.3794 43.7537C42.3794 43.7537 41.494 44.6902 41.6257 45.07C41.7563 45.4477 42.5272 46.3843 43.3302 46.911C43.3302 46.911 43.479 48.06 44.5283 49.1297C45.1547 49.768 45.7393 49.8839 46.2382 49.7766C46.4492 50.0888 47.1676 51.0307 48.3122 51.2367C48.3122 51.2367 48.1141 49.9161 48.2576 48.9183C48.3015 48.8947 48.3454 48.869 48.3818 48.8325C48.5617 48.6533 50.6613 46.7136 52.2192 48.5868C52.2192 48.5868 51.5136 48.8497 51.2352 49.7358C50.9568 50.6252 50.793 52.8267 48.4803 51.4137C48.4803 51.4137 48.2833 52.6786 48.9889 53.436C48.9889 53.436 48.8904 54.7825 50.415 55.5206C51.9408 56.2608 53.0072 55.703 53.9912 56.1954C53.9912 56.1954 53.8927 54.1731 54.7278 52.9415C55.5651 51.7088 56.7461 51.2979 57.32 51.7764C57.8928 52.2516 58.2547 54.0594 56.0405 55.9336C56.0405 55.9336 58.5823 56.2608 60.3212 54.9305C60.3212 54.9305 60.1049 57.2779 58.35 59.2669C64.7089 57.9001 69.4553 52.2355 69.4553 45.4552C69.4553 42.9286 68.7925 40.5566 67.633 38.5042Z" fill="#231F20"/>
<path fill-rule="evenodd" clip-rule="evenodd" d="M57.4188 39.055C57.4188 39.055 55.7624 38.1206 55.0247 39.0883C54.3298 40.0013 54.7817 41.5644 54.3737 42.5418C54.362 42.531 54.347 42.5182 54.3352 42.5074C53.4165 41.6835 52.2859 43.0825 52.0717 43.4923C51.8597 43.9043 51.5803 43.9515 51.5803 43.9515C49.5631 44.3635 49.9892 42.737 49.3168 42.2446C48.6455 41.75 47.5127 42.4753 47.5127 42.4753C48.6444 42.2585 48.9067 43.0492 48.8746 43.3604C48.8414 43.6736 49.0706 44.5952 49.3821 45.1037C49.6937 45.6122 50.9571 45.2507 51.9904 45.3355C53.0236 45.4159 53.6135 46.6797 53.6135 46.6797C54.2367 45.1681 52.5643 44.4793 52.5643 44.4793C52.5643 44.4793 53.0525 43.5502 53.6296 43.87C55.4669 44.8881 55.0076 49.0132 55.0076 49.0132C56.5901 46.0328 55.8931 44.283 55.0676 43.2606C55.1714 42.3315 55.6414 39.4005 57.4188 39.055Z" fill="#231F20"/>
</g>
<rect x="1" y="1" width="110" height="110" rx="9" stroke="black" stroke-opacity="0.1" stroke-width="2"/>
<defs>
<clipPath id="clip0_6700_50069">
<rect x="2" y="2" width="108" height="108" rx="8" fill="white"/>
</clipPath>
</defs>
</svg>
