<svg width="112" height="112" viewBox="0 0 112 112" fill="none" xmlns="http://www.w3.org/2000/svg">
<g clip-path="url(#clip0_6700_49940)">
<rect x="2" y="2" width="108" height="108" rx="8" fill="white"/>
<path d="M39.1226 33H51.9467C49.812 37.8029 47.6726 42.6041 45.5344 47.4059C43.5294 51.9118 41.5226 56.4172 39.517 60.9225C35.24 60.9243 30.963 60.9237 26.6865 60.9231C30.8321 51.6154 34.9741 42.3059 39.1226 33Z" fill="#FFCA08"/>
<path d="M51.9465 33H51.95C53.2935 36.0257 54.6452 39.0478 55.9882 42.0741L55.9976 42.0952C55.0813 44.0938 54.2062 46.1111 53.307 48.1172C52.2722 50.4315 51.2457 52.75 50.2121 55.0648C49.9937 55.5297 49.8183 56.0145 49.5682 56.4635C48.2224 53.4449 46.8794 50.4245 45.5342 47.4059C47.6724 42.6041 49.8118 37.8029 51.9465 33Z" fill="#FA9D1C"/>
<path d="M60.0317 33H60.0352C62.1723 37.8041 64.3117 42.607 66.4511 47.41C65.0947 50.4304 63.7582 53.4602 62.4053 56.4823C60.2618 51.6899 58.1336 46.8911 55.9977 42.0952L55.9883 42.0741C57.3435 39.0525 58.687 36.0257 60.0317 33Z" fill="#9E9FA3"/>
<path d="M60.0352 33H72.8592C77.0101 42.3054 81.1504 51.6154 85.2971 60.9225C81.0212 60.9266 76.7448 60.9231 72.4689 60.9243C70.461 56.4201 68.456 51.9147 66.451 47.41C64.3116 42.607 62.1722 37.8041 60.0352 33Z" fill="#636466"/>
<path d="M78.9546 68.7787C79.781 68.3262 80.7577 68.2405 81.6809 68.3379C82.5367 68.4283 83.3848 68.7523 84.0211 69.3428C84.7583 70.0148 85.1767 70.9768 85.317 71.9529C84.4102 71.9535 83.5034 71.9541 82.5966 71.9523C82.4798 71.5097 82.2508 71.0431 81.8042 70.8571C81.2478 70.634 80.5282 70.6393 80.0704 71.0689C79.7587 71.3589 79.6777 71.7991 79.629 72.2023C79.538 73.0628 79.5509 73.9297 79.5638 74.7931C79.5896 75.37 79.592 75.9629 79.7757 76.5169C79.9148 76.9489 80.3304 77.2441 80.7735 77.2952C81.2965 77.3574 81.8969 77.2565 82.2585 76.8397C82.5807 76.4623 82.6417 75.9405 82.6441 75.4622C82.1023 75.4458 81.56 75.4604 81.0183 75.4552C81.0177 74.7003 81.0171 73.9455 81.0189 73.1907C82.4563 73.1907 83.8937 73.1901 85.3317 73.1913C85.3094 74.4908 85.4344 75.8261 85.0494 77.0874C84.7723 78.0283 84.0639 78.8007 83.2093 79.2591C82.6588 79.5543 82.0349 79.6764 81.4174 79.7204H80.7025C80.1044 79.6782 79.5063 79.5403 78.9757 79.2544C78.1698 78.8207 77.4761 78.1228 77.1767 77.2447C76.7676 76.082 76.8604 74.8289 76.8457 73.618C76.8469 72.6648 76.8522 71.6846 77.1779 70.7761C77.4772 69.9074 78.1628 69.2183 78.9546 68.7787Z" fill="#636466"/>
<path d="M16 68.5205C17.0365 68.5528 18.0754 68.5252 19.1131 68.5346C19.7957 68.5475 20.4907 68.4812 21.1604 68.649C21.8718 68.8145 22.5461 69.2207 22.9429 69.8446C23.3444 70.4679 23.4618 71.2486 23.3438 71.9729C23.2006 72.8233 22.5931 73.5817 21.7808 73.8816C22.3472 74.0999 22.859 74.4844 23.1701 75.0121C23.6208 75.7592 23.6461 76.6972 23.4213 77.5224C23.2182 78.2707 22.6641 78.9064 21.9533 79.2146C21.4315 79.4511 20.8528 79.5409 20.2829 79.5397C18.8555 79.5385 17.4274 79.5397 16 79.5391V68.5205ZM17.1803 69.5905C17.1768 70.8606 17.1798 72.1302 17.1792 73.4003C18.1558 73.4021 19.1331 73.4009 20.1103 73.4009C20.7125 73.3933 21.3558 73.2213 21.7708 72.7594C22.1717 72.3162 22.2674 71.6753 22.1781 71.1013C22.1159 70.6904 21.9081 70.296 21.5759 70.0407C21.1627 69.7167 20.6257 69.5987 20.1103 69.5911C19.1337 69.5899 18.157 69.5916 17.1803 69.5905ZM17.1798 74.4574C17.178 75.7991 17.1786 77.1409 17.1792 78.4826C18.0772 78.4832 18.9746 78.4826 19.8726 78.4832C20.2477 78.4891 20.6292 78.4867 20.9913 78.374C21.5302 78.2232 22.0109 77.837 22.2198 77.3105C22.5156 76.5598 22.4176 75.6002 21.8136 75.0261C21.3464 74.5789 20.6726 74.4386 20.0452 74.4568C19.0897 74.458 18.1347 74.4574 17.1798 74.4574Z" fill="#636466"/>
<path d="M28.3427 68.5346C28.6743 68.5352 29.0059 68.5316 29.3381 68.5363C30.681 72.2024 32.0216 75.8696 33.3704 79.5332C32.9496 79.5444 32.5281 79.5409 32.1073 79.5356C31.8173 78.7062 31.528 77.8769 31.2263 77.0522C29.6281 77.0581 28.0298 77.0528 26.4316 77.0546C26.1369 77.8822 25.8446 78.7103 25.5523 79.5385C25.1327 79.5409 24.713 79.5379 24.2939 79.5397C25.641 75.8707 26.9927 72.2029 28.3427 68.5346ZM28.838 70.2801C28.1543 72.1953 27.4711 74.1105 26.7902 76.0269C28.1566 76.0274 29.5224 76.0286 30.8882 76.0263C30.2173 74.1117 29.5453 72.1977 28.8721 70.2836C28.8639 70.2831 28.8468 70.2813 28.838 70.2801Z" fill="#636466"/>
<path d="M34.5225 68.5351C34.8946 68.5328 35.2667 68.5346 35.6394 68.5346C37.5839 71.4599 39.5261 74.3869 41.4712 77.3122C41.4759 74.3858 41.4701 71.4599 41.4748 68.5334C41.8663 68.5334 42.2583 68.5369 42.6504 68.5316C42.6651 72.2006 42.6528 75.8701 42.6563 79.5391C42.283 79.5391 41.9103 79.5391 41.537 79.5391C39.5901 76.6044 37.6503 73.665 35.7028 70.7303C35.6993 73.6668 35.7016 76.6026 35.7016 79.5385C35.309 79.5403 34.9157 79.5385 34.523 79.5391C34.5219 75.8713 34.523 72.2035 34.5225 68.5351Z" fill="#636466"/>
<path d="M45.2119 68.5404C45.6052 68.5264 45.999 68.5381 46.3934 68.5346C46.3946 70.637 46.3911 72.7394 46.3952 74.8424C48.1085 72.7423 49.8082 70.6311 51.5233 68.5328C52.0034 68.5363 52.4829 68.5328 52.963 68.5346C51.8103 69.9538 50.6523 71.3677 49.5013 72.7881C50.819 75.039 52.139 77.2882 53.4555 79.5391C52.9883 79.5379 52.5217 79.5415 52.0551 79.5373C50.9422 77.5869 49.8229 75.6401 48.7089 73.6902C47.9664 74.5712 47.2345 75.4616 46.4932 76.3438C46.4498 76.4043 46.3764 76.4612 46.3934 76.5463C46.3934 77.5441 46.3928 78.5413 46.3934 79.5391C46.0008 79.5397 45.6081 79.5391 45.2148 79.5391C45.2125 75.8731 45.219 72.2065 45.2119 68.5404Z" fill="#636466"/>
<path d="M55.2858 79.5385C55.2916 75.8707 55.2752 72.2018 55.294 68.5345C56.1797 68.5475 57.066 68.5328 57.9522 68.5422C58.7687 70.1569 59.5945 71.7674 60.4133 73.3815C61.2426 71.7704 62.0579 70.1522 62.8831 68.5392C63.7712 68.5398 64.6592 68.5387 65.5479 68.5398C65.5473 72.2065 65.5479 75.8725 65.5473 79.5391C64.6446 79.5397 63.7413 79.5391 62.8385 79.5391C62.835 77.7108 62.8421 75.8825 62.835 74.0536C62.325 74.9451 61.8161 75.8373 61.3037 76.7277C61.1264 77.0323 60.7854 77.2359 60.4309 77.2324C60.0723 77.2453 59.7184 77.0493 59.5364 76.7412C59.0181 75.8508 58.5169 74.9504 57.9963 74.0618C57.9951 75.8877 57.9963 77.7137 57.9951 79.5391C57.0918 79.5385 56.1891 79.5403 55.2858 79.5385Z" fill="#636466"/>
<path d="M67.8075 68.5398C70.302 68.5387 72.7965 68.5392 75.2904 68.5398C75.2933 69.3404 75.2857 70.1416 75.2945 70.9422C73.7027 70.9621 72.1098 70.9434 70.5174 70.9516C70.5168 71.5626 70.5162 72.173 70.5174 72.784C71.8774 72.7858 73.2367 72.784 74.5966 72.7852C74.5961 73.5905 74.5961 74.3952 74.5966 75.2004C73.2367 75.2028 71.8768 75.1987 70.5174 75.2022C70.5168 75.8437 70.5162 76.4858 70.5174 77.1274C72.1086 77.1291 73.6992 77.1274 75.2904 77.128C75.291 77.9321 75.291 78.7356 75.2904 79.5391C72.7959 79.5391 70.302 79.5397 67.8081 79.5391C67.8069 75.8725 67.8069 72.2065 67.8075 68.5398Z" fill="#636466"/>
<path d="M89.8911 68.5398C90.5896 68.5416 91.2886 68.5334 91.9877 68.544C92.9233 71.14 93.8729 73.7308 94.8138 76.3244C95.2141 77.3944 95.5768 78.4797 96 79.5409C95.065 79.5368 94.13 79.5415 93.1956 79.5385C93.0154 78.9927 92.8376 78.4468 92.655 77.9016C91.5076 77.9027 90.3595 77.8957 89.212 77.9051C89.0389 78.4515 88.8552 78.9944 88.6761 79.5391C87.7476 79.5397 86.8191 79.5391 85.8911 79.5391C87.2223 75.8719 88.557 72.2059 89.8911 68.5398ZM90.9318 72.5357C90.6001 73.5893 90.2632 74.6411 89.931 75.6941C90.6007 75.6958 91.271 75.6947 91.9419 75.6947C91.6044 74.6417 91.2822 73.584 90.9318 72.5357Z" fill="#636466"/>
<path d="M55.9977 42.0952C58.1336 46.8911 60.2618 51.6899 62.4053 56.4823C61.8313 57.7436 60.8675 58.8213 59.686 59.545C57.9358 60.632 55.7001 60.8785 53.7497 60.2217C51.9161 59.6183 50.3619 58.2238 49.5684 56.4635C49.8184 56.0145 49.9939 55.5297 50.2122 55.0648C51.2458 52.7499 52.2724 50.4315 53.3072 48.1172C54.2064 46.1111 55.0815 44.0937 55.9977 42.0952Z" fill="#F37022"/>
</g>
<rect x="1" y="1" width="110" height="110" rx="9" stroke="black" stroke-opacity="0.1" stroke-width="2"/>
<defs>
<clipPath id="clip0_6700_49940">
<rect x="2" y="2" width="108" height="108" rx="8" fill="white"/>
</clipPath>
</defs>
</svg>
