<svg width="112" height="112" viewBox="0 0 112 112" fill="none" xmlns="http://www.w3.org/2000/svg">
<g clip-path="url(#clip0_6700_50220)">
<rect x="2" y="2" width="108" height="108" rx="8" fill="white"/>
<g clip-path="url(#clip1_6700_50220)">
<path d="M30.1585 54.7742C29.9186 54.1026 28.7194 53.7189 28.4796 53.623C28.2397 53.527 27.9999 53.4311 27.9999 53.4311C28.1438 54.0547 27.808 54.5823 27.808 54.5823H27.856C27.904 54.5344 27.9999 54.5823 27.9999 54.5823C29.1991 54.8701 30.0625 55.7336 30.0625 55.7336C30.1105 55.7336 30.1105 55.7336 30.1105 55.7336C30.1585 55.5897 30.1585 55.4458 30.1585 55.3498C30.1585 55.2539 30.1585 54.8701 30.1585 54.7742ZM31.6455 48.97C31.4056 49.066 30.5902 48.9221 30.3503 48.7782C30.1585 48.6343 30.0146 48.6343 30.0146 48.6343C29.1991 48.4904 28.9113 48.9221 28.8633 48.9221C28.8633 48.97 28.8633 48.97 28.8633 48.97C28.8633 48.97 29.391 48.7782 30.2064 49.1619C31.0699 49.5457 31.5975 49.018 31.5975 49.018C31.6935 48.97 31.6455 48.97 31.6455 48.97ZM32.317 68.685C32.461 67.7736 31.1658 67.9175 31.1658 67.9175C31.1178 67.8695 31.1178 67.8695 31.1178 67.8695C32.0772 67.7256 32.365 68.1574 32.365 68.1574C32.365 67.5817 31.9333 67.4858 31.9333 67.4858H31.8853C31.7414 67.15 31.1658 67.102 30.878 67.2939C30.5902 67.4858 30.3503 67.4858 30.3503 67.4858C29.1991 67.7256 28.5275 66.7663 28.5275 66.7663C27.4243 65.0394 29.0552 65.2313 28.8154 63.3126C28.5755 61.4418 25.4096 61.0101 25.4096 61.0101C24.5462 60.9141 23.8746 62.641 23.7307 63.1207C23.5868 63.6004 23.4429 63.7443 23.4429 63.7443C23.3949 63.8402 23.4909 63.7922 23.4909 63.7922C26.0812 64.176 25.9852 65.5671 25.9852 65.5671C25.9852 65.8069 25.6015 65.8549 25.6015 65.8549C25.3616 65.9028 24.834 66.1907 25.7454 66.8142C25.8413 66.8622 25.8893 66.9102 25.9373 66.9581C25.9373 66.9581 25.9373 66.9581 25.9373 67.0061C25.8893 67.0541 25.7934 67.102 25.6495 67.198C25.6495 67.198 25.6015 67.198 25.4576 67.246C25.3616 67.2939 25.1698 67.4378 25.1218 67.7736C25.1218 67.7736 25.1218 67.7736 25.1218 67.7256C25.1698 67.7256 25.2657 67.4858 25.6974 67.5338C25.9373 67.5338 26.1771 67.4378 26.4169 67.2939C26.5129 67.3419 26.6088 67.4378 26.7048 67.4858C26.6088 67.5338 26.5608 67.5338 26.4649 67.5817C26.4649 67.5817 26.369 67.6297 26.273 67.6297C26.1771 67.6297 25.9852 67.7736 25.8893 68.1094C25.8893 68.1094 25.8893 68.1094 25.8893 68.0614C25.8893 68.0614 26.0332 67.8216 26.4649 67.9175C26.7048 67.9655 26.9446 67.9175 27.1365 67.8216C27.2324 67.8695 27.2804 67.9175 27.3763 67.9655C27.2804 68.0134 27.1844 68.0614 27.0405 68.1094C27.0405 68.1094 26.9446 68.1574 26.8487 68.1574C26.7527 68.1574 26.5129 68.3013 26.4169 68.5891C26.4649 68.5411 26.5608 68.3492 26.9926 68.4452C27.2804 68.5411 27.5682 68.4452 27.808 68.3492H27.856C28.4316 68.7809 28.9113 69.2606 28.9113 69.5484C28.9113 70.1241 29.391 70.268 29.391 70.268C29.391 70.5558 29.2471 70.5558 29.2471 70.5558C29.1991 70.6037 29.2471 70.6037 29.2471 70.6037C29.7268 70.6517 29.8707 70.268 29.8707 70.268C30.3024 69.8842 30.1585 69.4525 30.1585 69.4525C30.6382 70.22 31.1178 70.0281 31.1178 70.0281V70.0761C31.1658 70.4119 30.9739 70.6997 30.926 70.6997C30.926 70.7476 30.926 70.7476 30.926 70.7476C31.5496 70.3639 31.5496 69.9801 31.5496 69.9801C31.5496 69.9322 31.5496 69.9322 31.5496 69.9322C32.1731 69.1647 30.9739 68.5891 30.9739 68.5891C31.4056 68.637 31.5975 68.7809 31.6455 68.8289C31.6935 68.8769 31.7414 69.0208 31.8853 69.0687C32.0292 69.0687 32.1731 69.0687 32.1731 69.0687C32.2691 69.0687 32.317 69.4045 32.317 69.4045C32.6049 68.9728 32.317 68.685 32.317 68.685ZM30.4942 51.992C30.4942 51.992 30.3503 51.9441 30.3983 52.04C30.3983 52.04 30.9739 52.8555 30.926 53.0953C30.926 53.2872 30.926 53.2872 30.83 53.2392C30.7821 53.2392 30.5422 53.2392 30.6861 53.527C30.83 53.8628 31.0219 54.1506 30.83 54.5823V54.6303C30.7821 54.6303 30.7341 54.5344 30.5902 54.6783C30.4942 54.8222 30.4463 55.2539 30.4942 55.7336C30.4942 55.7336 30.4942 55.8295 30.3983 55.8775C30.3024 55.9254 30.3983 56.0214 30.5422 56.0214C30.6382 55.9734 31.3577 55.7336 31.3577 55.7336C31.3577 55.7336 31.7414 55.6376 32.0772 54.7742C32.413 53.8628 33.948 51.8961 34.0439 51.8481C34.1878 51.8002 34.4756 51.6563 34.5716 51.5603C34.6195 51.4644 34.7634 50.9847 34.8594 50.7449H34.9073C34.9073 50.7449 35.387 50.9847 35.7228 50.601C35.7228 50.601 35.8667 50.6489 35.9147 50.8408C35.9147 50.8408 35.9147 50.8408 35.9626 50.8408C35.9626 50.8408 36.0586 50.553 35.8667 50.2652C35.8667 50.2652 35.8187 49.5457 34.8114 49.8335C34.8114 49.8335 34.8594 49.7375 35.1472 49.6416C35.387 49.5936 35.435 49.6416 35.6269 49.3538C35.6269 49.3538 35.7228 49.2099 35.9626 49.5936C35.9626 49.5936 35.9626 49.5936 36.0106 49.5936C36.0106 49.5936 36.1545 49.2578 35.7708 48.97C35.7708 48.9221 35.7228 48.3464 35.0033 48.4424C35.0033 48.4424 34.5236 48.4904 34.1878 48.97C34.1878 48.9221 34.2837 48.6822 34.6195 48.4424C34.6195 48.4424 34.8114 48.3464 34.8114 48.2025C34.8594 48.0107 34.7155 47.9627 34.7634 47.8668C34.8594 47.7708 35.0033 47.7229 35.0992 47.7229C35.0992 47.7229 34.9553 47.435 34.4756 47.6269C34.4277 47.6269 33.5642 47.3391 33.5642 48.6822C33.5642 48.6822 33.5642 48.7782 33.5642 48.7302C33.5642 48.7302 33.4203 48.5863 33.4683 48.1066C33.4683 48.1066 33.5642 47.8668 33.3723 47.8668H33.3244C33.3244 47.8668 33.3723 47.6269 33.5163 47.579H33.5642C33.5642 47.579 33.0845 47.2911 32.8447 48.4904C32.8447 48.4904 32.8447 48.9221 32.9406 49.1139C32.9886 49.3058 33.0366 50.0253 32.5569 50.601C32.5569 50.601 31.2617 51.9441 30.4942 51.992ZM24.834 56.549C26.6568 55.7336 27.3283 55.014 27.5682 54.4864C27.6162 54.3425 27.6641 54.2465 27.7121 54.1506C27.7121 54.0067 27.7121 53.8148 27.7121 53.8148C27.7121 53.623 27.7121 53.4311 27.6162 53.2872C27.5682 53.1912 27.4243 53.0473 27.2804 52.9514C27.0405 52.7595 26.8487 52.5197 26.8487 52.5197C26.9446 54.6783 24.882 55.4937 24.882 55.4937C24.834 55.4937 24.834 55.5417 24.834 55.5417C24.9779 56.2612 24.7381 56.5011 24.7381 56.549C24.7381 56.597 24.834 56.549 24.834 56.549ZM26.6568 55.7815C26.6568 55.7815 27.5202 55.7336 27.7121 57.0767C27.7121 57.0767 27.7121 57.1246 27.7601 57.1246C27.7601 57.1246 28.9593 56.2132 29.0072 55.3018C29.0072 55.3018 29.0072 55.2539 28.9593 55.2539C28.9593 55.2539 28.5275 54.9181 27.7601 54.7262H27.7121C27.7121 54.7262 27.4243 55.3018 26.6568 55.7815ZM25.4576 40C17.8306 40.1918 11.8346 46.5237 12.0265 54.1506C12.1224 58.084 13.8972 61.5857 16.6314 64.0321L16.6794 64.08L16.7753 64.0321C16.9192 63.7922 17.255 63.6004 17.4469 63.6004H17.6867C17.6867 63.6004 17.6867 63.6004 17.6867 63.5524L17.4948 63.4085C17.3509 63.2646 17.207 63.1686 17.0631 62.9768C14.7127 60.7702 13.1777 57.6043 13.0818 54.1026C12.9858 50.601 14.3289 47.3871 16.5834 45.0366C18.838 42.6862 21.9559 41.1512 25.4576 41.0553C29.0072 40.9593 32.1731 42.3024 34.5716 44.557C36.922 46.8115 38.409 49.9294 38.505 53.4311C38.6009 56.9807 37.2578 60.1946 35.0033 62.5451C33.5163 64.128 31.6935 65.2793 29.5349 65.9508H29.4389V65.9988L29.4869 66.0467C29.6308 66.4785 29.9186 66.6703 30.1105 66.8142L30.1585 66.8622L30.2064 66.8142C35.8667 65.0394 39.7042 59.7629 39.5603 53.527V53.4311C39.3684 45.8041 33.0366 39.8081 25.4576 40ZM27.4722 46.6196H27.4243C27.7601 46.8115 28.2397 47.2432 28.4316 46.6676C28.1918 46.3797 27.7121 46.5716 27.4722 46.6196ZM21.9559 69.4525C21.9559 69.4525 21.9559 69.4525 21.9559 69.4045C21.9559 69.4045 22.5795 68.7809 23.251 69.4525C23.251 69.4525 23.299 69.5005 23.299 69.4525C23.299 69.4525 23.251 69.0208 22.8673 68.8289C22.7714 68.7809 22.7234 68.8289 22.7234 68.8289H22.6754C22.5315 68.733 22.4356 68.685 22.1957 68.733C22.1957 68.733 21.812 68.7809 21.5721 68.9248C21.3803 69.1167 21.1884 69.0687 21.0925 68.9728C20.9486 68.8769 19.9412 67.5338 19.8933 66.0467C19.8933 66.0467 19.9412 65.9508 20.0372 65.9028C20.0372 65.9028 21.764 65.0394 22.4356 64.3679C23.1071 63.6963 23.6348 61.7776 24.3063 61.058C24.3063 61.058 24.5941 60.6743 24.9299 60.5784C25.2177 60.4824 26.6088 60.0507 26.9926 59.8109C27.3763 59.571 28.0479 58.8035 28.4796 58.7556C28.4796 58.7556 28.5755 58.6596 28.6715 58.8035L30.2544 60.2426C30.2544 60.2426 30.4942 60.4824 30.7341 60.5304C30.9739 60.5304 31.3577 60.6743 31.3577 60.9141C31.4056 61.154 31.2138 61.8255 31.5975 62.0654C31.5975 62.0654 31.6935 62.2093 31.4536 62.3532C31.4536 62.3532 31.4056 62.4012 31.4536 62.4012C31.4536 62.4012 32.7008 62.4491 32.413 61.3938C32.413 61.3938 32.413 61.3459 32.461 61.3459C32.461 61.3459 32.7488 61.5377 32.8927 61.9694C33.0366 62.4012 33.2764 62.4491 33.2764 62.4491C33.2764 62.4491 33.3244 62.4971 33.3244 62.5451C33.3244 62.5451 33.3723 62.689 33.1805 62.9288C33.1805 62.9288 33.7081 62.9288 33.7081 62.593C33.7081 62.593 33.9959 62.4971 34.0919 62.3532C34.1878 62.1613 34.3797 61.3938 33.4203 60.8182C33.4203 60.8182 33.9 60.7702 34.1398 61.2499C34.4277 61.7296 34.6195 61.154 34.7155 61.6816V61.7296C34.7155 61.7296 35.0512 61.5377 34.8114 61.106V61.058C34.8114 61.058 35.0512 60.2426 33.852 60.0507H33.8041C33.8041 60.0507 33.948 59.9068 34.2837 60.0507C34.6195 60.1466 34.7634 60.0507 34.7634 59.9068C34.7634 59.9068 34.9553 59.9068 35.0992 60.0987C35.0992 60.0987 35.1472 59.0434 33.4203 59.3312C33.4203 59.3312 32.9886 59.5231 32.6049 59.2352C32.1731 58.9474 30.1105 56.9328 30.1105 56.9328C30.1105 56.9328 29.9666 56.7409 29.9186 56.645C29.8707 56.549 29.7268 55.9734 29.7268 55.8295C29.7268 55.8295 29.7268 55.8295 29.6788 55.7815C29.6788 55.7815 29.391 55.5417 29.2471 55.4458C29.2471 55.4458 29.1032 56.549 27.6162 57.4604C27.6162 57.4604 27.4243 57.5084 27.4243 57.3645C27.4243 57.2685 27.0885 55.5897 26.1291 56.1173C25.1218 56.6929 24.4023 57.0287 24.2584 56.9328C24.2104 56.9328 24.2104 56.8368 24.2584 56.7889C24.3543 56.7409 24.6901 56.2132 24.5941 55.6376H24.5462C24.5462 55.6376 24.4502 55.6856 24.3063 55.7336C23.5868 55.9734 23.1071 56.2132 22.8673 56.4051C22.8193 56.4051 22.7234 56.4531 22.6754 56.5011C22.5315 56.645 22.0039 57.0767 21.2364 57.4604C20.4689 57.8442 19.2217 58.5157 18.8859 59.4751C18.5981 60.4345 17.4948 60.6263 16.8713 59.8588C16.2477 59.1393 16.8713 57.7962 19.6054 55.8775C19.6054 55.8775 20.4209 55.3498 20.7087 54.5344C20.9965 53.7189 20.8047 53.4791 20.7567 53.1433C20.7087 52.8075 20.9486 52.3758 21.0445 52.2798C21.0925 52.1839 21.0445 51.8961 21.0445 51.9441C21.0445 51.9441 20.9486 52.1359 20.7087 52.1839C20.4689 52.2319 20.4209 52.2798 20.4209 52.3278C20.4209 52.3278 20.3729 52.3278 20.3729 52.2798C20.3729 52.2798 20.3729 52.088 20.6128 51.9441C20.8526 51.7522 20.9006 51.3684 20.8526 51.1286C20.8526 50.8888 20.9006 50.7928 20.9486 50.7449C20.9486 50.7449 20.8047 50.7928 20.6607 50.9367C20.6607 50.8888 20.4689 50.0733 20.9006 49.6416C20.9965 49.5936 21.0925 49.1619 20.7567 48.7302C20.4209 48.2985 20.4209 48.1546 20.4209 48.1546C20.4209 48.1546 20.3729 48.1546 20.3729 48.2985C20.4209 48.4424 20.325 48.5863 20.325 48.6822C20.277 48.7302 20.277 48.9221 20.325 49.018C20.325 49.018 20.0851 48.6343 20.1331 48.2985C20.1811 47.9627 20.4209 47.3871 20.1331 47.0993C20.1331 47.0993 20.0851 47.0513 20.1331 47.1472C20.1331 47.1472 20.1811 47.6749 19.7014 48.2025C19.2217 48.6822 19.7493 49.3538 19.9412 49.6416C20.1331 49.8814 19.9412 50.3131 19.9892 50.4571C19.9892 50.4571 19.9412 50.3611 19.9412 50.3131C19.9412 50.2172 19.8933 49.8814 19.7014 49.7855C19.7014 49.7855 19.7014 49.7855 19.7014 49.8335C19.7014 49.8335 19.7014 50.0733 19.6534 50.2172C19.6054 50.3131 19.6054 50.6969 19.8453 50.9367C20.0851 51.1766 19.8933 51.8961 19.7493 51.992C19.7493 51.992 19.7493 51.992 19.7493 51.9441C19.7493 51.8961 19.7493 51.8002 19.7973 51.7522C19.8453 51.6563 19.8453 51.3205 19.7973 51.2725C19.7973 51.2725 19.7493 51.5124 19.4136 51.7522C19.2697 51.8481 19.1258 52.3278 19.5575 52.8075C19.5575 52.8075 19.7014 52.9514 19.7973 53.0953C19.7973 53.0953 19.4615 53.0473 19.4136 52.8555C19.4136 52.8555 19.4136 52.8555 19.3656 52.8555C19.3656 52.8555 19.3176 53.3351 19.7973 53.4791C20.1331 53.527 20.4209 54.5344 18.694 55.5417C18.3583 55.6856 18.0225 55.9254 17.6867 56.2132C17.5908 56.1653 17.3509 56.0214 17.0152 55.5417C17.0152 55.5417 16.9672 55.4458 16.9672 55.3498C16.9192 55.2539 16.7273 55.062 16.4395 55.014V55.062C16.4395 55.062 16.6794 55.1579 16.6794 55.5897C16.6794 55.9734 16.9672 56.4051 17.255 56.549C17.255 56.549 17.255 56.549 17.207 56.597C17.1111 56.6929 17.0152 56.8368 16.9192 56.9328C16.8233 56.7889 16.6794 56.645 16.5834 56.4531C16.5834 56.4531 16.5355 56.3572 16.4875 56.2612C16.4875 56.1653 16.2956 55.9734 16.0078 55.8775C16.0078 55.8775 16.0078 55.8775 16.0078 55.9254C16.0558 55.9254 16.2477 56.0214 16.2477 56.4531C16.1997 56.7889 16.3916 57.1246 16.5834 57.3165V57.3645C16.4875 57.4604 16.3916 57.5564 16.3436 57.7003C16.2477 57.5564 16.1517 57.4125 16.0558 57.2206C16.0558 57.2206 16.0078 57.1246 16.0078 57.0287C15.9599 56.9328 15.8159 56.6929 15.5281 56.597C15.5761 56.597 15.768 56.7409 15.72 57.1726C15.6241 57.5564 15.8159 58.036 16.0558 58.1799C16.0558 58.1799 16.0558 58.1799 16.0558 58.2279C15.768 58.9474 15.72 59.7629 16.1997 60.4824C17.1591 61.8735 18.694 61.058 18.694 61.058C18.694 61.058 18.79 60.9621 18.79 61.058C18.79 61.058 18.9339 62.2093 19.2217 62.8808C19.5095 63.5524 19.1258 64.0321 18.4542 64.128C17.7826 64.224 17.207 64.5597 17.3989 65.3272C17.4948 65.5191 17.5908 65.8549 17.7347 66.2386C17.5908 66.2386 17.3989 66.2386 17.207 66.2386C17.207 66.2386 17.1111 66.2386 17.0152 66.1907C16.9192 66.1427 16.6794 66.1907 16.4395 66.3825C16.4875 66.3825 16.6794 66.2386 17.0152 66.5264C17.255 66.7183 17.6387 66.7663 17.8786 66.7663H17.9266C17.9745 66.8622 18.0225 67.0061 18.0705 67.102C17.9266 67.102 17.7826 67.0541 17.6387 67.0061C17.6387 67.0061 17.5428 67.0061 17.4469 66.9581C17.3509 66.9102 17.1111 66.9102 16.8233 67.102C16.8233 67.102 16.8233 67.102 16.8713 67.102C16.8713 67.0541 17.1111 66.9581 17.3989 67.2939C17.6387 67.5338 17.9745 67.6297 18.2623 67.6297C18.3103 67.6777 18.3103 67.7736 18.3583 67.8216C18.2144 67.8216 18.0225 67.7736 17.7826 67.7256C17.7826 67.7256 17.6867 67.7256 17.6387 67.6777C17.5428 67.6297 17.255 67.6297 17.0152 67.7736C17.0631 67.7736 17.303 67.6777 17.5908 68.0134C17.8306 68.2533 18.2623 68.3972 18.5501 68.3492C18.742 68.8289 18.8859 69.1647 18.8859 69.1647C18.8859 69.1647 18.9819 69.7403 18.9339 69.9322C18.8859 70.172 19.0298 70.6037 19.3656 70.7476C19.7014 70.9395 19.9892 71.3712 19.9892 71.4192C19.9892 71.5151 19.9892 71.9948 20.5648 72.2347C20.5648 72.2347 20.6607 72.1867 20.6607 72.2826C20.6607 72.3786 20.5648 72.5704 20.5648 72.5704C20.5648 72.5704 20.5648 72.6184 20.6128 72.5704C20.6607 72.5704 20.9006 72.5225 21.0445 72.2347V72.1867C21.0445 72.1867 21.2843 71.9468 21.3323 71.707C21.3803 71.4672 21.2843 71.1794 20.8526 70.9395V70.8915C20.8526 70.8915 20.9965 70.8915 21.1404 71.0354C21.2364 71.1314 21.5242 71.3712 21.5721 71.4192C21.6201 71.4672 21.9079 71.755 22.3396 71.707C22.3396 71.707 22.3876 71.659 22.3876 71.707C22.4356 71.707 22.5315 71.8029 22.4835 72.1867V72.2347C22.4835 72.1867 22.9153 72.0428 22.8193 71.5151C22.8193 71.5151 22.8193 71.5151 22.8193 71.4672C22.8193 71.4672 22.9632 71.1314 22.9632 70.9395C22.9153 70.7476 22.7714 70.3159 22.0039 70.172C22.0039 70.172 22.1957 70.0281 22.6274 70.22C22.6274 70.22 22.6754 70.22 22.7234 70.22C22.7234 70.268 22.8673 70.5078 23.2031 70.4119C23.2031 70.4119 23.4909 70.4598 23.5388 70.8436C23.5388 70.8436 23.8746 70.5078 23.3949 70.0281C23.3949 70.0281 23.1071 69.0687 21.9559 69.4525ZM28.7674 46.1879C28.7674 46.1879 28.7674 46.1399 28.7674 46.0919C28.7674 46.0919 28.6715 45.948 28.4796 45.8521C28.3357 45.7562 27.9519 45.7562 27.6641 45.7562C27.3763 45.8041 27.1844 45.7082 26.9446 45.6602C26.7527 45.6123 26.2251 45.4683 25.8893 45.8041C25.8893 45.8041 25.8413 45.8521 25.8893 45.9001C25.8893 45.9001 25.9852 46.0919 26.1771 46.2358C26.369 46.3797 26.7527 46.6676 27.1844 46.5237C27.1844 46.5237 27.3763 46.4757 27.4243 46.4277C27.5202 46.3797 27.7121 46.2358 27.856 46.2358C28.0479 46.2358 28.2397 46.2838 28.2397 46.2838C28.2877 46.2838 28.4316 46.3318 28.4316 46.3318C28.4316 46.3318 28.7194 46.3797 28.7674 46.1879ZM24.0185 52.9034H23.9706C24.0185 52.9514 24.0665 52.9994 24.1624 52.9994C24.3063 52.9994 24.834 52.9034 24.9299 52.2798C24.9779 51.6083 24.1624 50.8408 23.6828 50.4571C23.1071 49.9774 22.2917 49.4497 22.0998 48.8741C22.0998 48.8741 21.9559 49.2099 21.764 49.5457C21.5721 49.9294 21.6201 50.4091 21.7161 50.6489C21.86 50.9847 22.0518 51.3205 22.0998 51.4164C22.1478 51.5124 22.1478 51.6563 22.3876 51.7522C22.4835 51.7522 22.8193 51.7522 23.0112 51.5603C23.1551 51.4644 23.251 51.2725 23.251 51.1286C23.251 50.553 22.7234 50.601 22.7714 50.7928C22.7714 50.8408 22.8673 50.8408 22.8193 50.9367C22.7714 50.9847 22.6754 51.0327 22.5795 50.9847C22.4835 50.9847 22.2437 50.6489 22.7234 50.4571C23.1551 50.3131 23.6828 50.6969 23.5868 51.2725C23.4909 51.8481 22.7234 52.088 22.3396 51.992H22.2917C22.2917 52.04 22.2917 52.1839 22.2437 52.3278C22.1478 52.4238 21.764 53.527 22.4356 54.6783C22.4356 54.6783 22.5795 54.8701 22.9153 54.8701C23.251 54.8701 23.6348 54.3905 23.3949 54.0547C23.347 54.0067 23.347 54.0067 23.347 54.0547C23.347 54.0547 23.347 54.2465 23.1551 54.1506C22.8673 54.0547 22.9153 53.6709 23.251 53.575C23.5868 53.4791 23.9706 53.623 23.8267 54.2945C23.6828 54.9661 23.0112 55.2059 22.8673 55.1579C22.7714 55.1579 22.7714 55.1579 22.7714 55.2059C22.7714 55.2059 22.9632 55.7815 22.8673 56.0693C22.8673 56.0693 22.8193 56.1653 22.9632 56.0693C22.9632 56.0693 23.4429 55.8295 23.8267 55.6856C24.1624 55.5417 25.1218 55.3018 25.8413 54.3905C26.5608 53.4311 26.8966 52.04 25.8893 50.505C25.7454 50.2652 25.6015 49.8335 24.6901 49.4977C24.6901 49.4977 24.4982 49.4497 24.6421 49.3538C24.6421 49.3538 24.6901 49.3058 24.882 49.3538C24.882 49.3538 25.8413 49.4977 26.4169 50.7928C26.9446 52.088 27.1844 52.6636 27.904 53.0473C28.6715 53.4311 30.1105 53.9108 30.3503 54.4384C30.3503 54.4384 30.4463 54.5823 30.4942 54.3905C30.5422 54.1986 30.5422 53.9587 30.3503 53.575C30.2064 53.1912 30.2064 53.0953 30.3503 53.0953C30.5422 53.0953 30.5422 53.0953 30.5422 52.9994C30.5422 52.9034 30.3983 51.7522 28.3357 51.7522C28.3357 51.7522 28.1438 51.8002 28.1918 51.6563C28.2397 51.5603 28.3836 51.5603 28.5755 51.5603C28.8154 51.5603 29.8707 51.6563 30.2064 51.9441C30.2064 51.9441 30.3503 52.04 30.2544 51.8481C30.1585 51.6083 29.6308 50.6969 27.904 50.3131C26.1771 49.9294 26.1771 48.7302 26.1771 48.7302C26.1771 48.7302 26.2251 48.5383 26.369 48.8261C26.8966 50.0253 28.8633 50.2172 28.9593 50.2652C29.1032 50.2652 29.295 50.4091 29.391 50.3131C29.6308 50.0733 29.6788 49.6416 29.5349 49.4497C29.5349 49.4497 29.5349 49.3538 29.4869 49.4017C29.4389 49.4497 29.295 49.5457 29.2471 49.5457C29.2471 49.5457 29.2471 49.5457 29.2471 49.4977C29.1991 49.4977 29.1032 49.3058 29.1032 49.2099C29.1032 49.2099 28.9593 49.4977 28.8633 49.5936C28.8633 49.5936 28.8633 49.6416 28.8154 49.6416C28.8154 49.6416 27.9999 49.5936 27.904 48.9221C27.808 48.2985 28.0958 47.8668 28.8154 47.9627C28.8154 47.9627 28.9593 48.0107 29.0072 48.0586C29.0552 48.1066 29.1511 48.3464 29.1511 48.3464V48.3944L29.295 48.2025C29.295 48.2025 29.343 48.1546 29.343 48.2025L29.7268 48.2985C29.7268 48.2985 29.7747 48.3464 29.7747 48.2985C29.7747 48.2985 29.9186 48.2025 30.0146 47.9147C30.0625 47.6749 30.1105 47.3391 30.0625 47.3391C30.0625 47.3391 29.7268 47.1472 29.6788 47.0993V47.0513C29.6788 47.0513 29.7747 47.0513 30.1105 47.1472C30.1105 47.1472 30.2064 47.1472 30.1585 47.1472C30.1585 47.0993 30.1585 47.0993 30.1585 47.0993C30.1585 47.0993 30.0146 46.8594 29.6308 46.7155C29.1511 46.5237 29.0072 46.4757 28.7674 46.5237C28.7674 46.5237 28.7194 46.5237 28.6715 46.5237C28.6715 46.5237 28.5275 47.0993 27.9999 47.1472C27.9999 47.1472 27.856 47.1472 27.6641 47.0033C27.4722 46.8594 27.4243 46.8594 27.0885 46.8115C26.8007 46.7635 26.0812 46.6196 25.7454 46.0919C25.3616 45.5163 25.2177 45.2765 24.4502 45.6602C23.6828 46.044 23.3949 46.044 22.8193 45.5163H22.7714C22.7714 45.5163 22.8193 45.6123 22.7234 45.948C22.6754 46.2838 22.7714 46.4757 22.8673 46.5716C22.9153 46.7155 22.9153 47.0033 23.347 47.1472C23.7307 47.2911 23.9226 47.0513 24.3063 47.2911H24.3543C24.3543 47.2911 24.4023 47.3391 24.3543 47.3391C24.3063 47.3391 24.2584 47.3391 24.2584 47.3391C24.2584 47.3391 24.1145 47.2432 23.9706 47.2432C23.8267 47.2911 23.6348 47.3391 23.5388 47.3391C23.4429 47.3391 23.0592 47.3391 22.9153 47.0993C22.9153 47.0993 22.9153 47.0993 22.9153 47.1472C22.9153 47.1472 22.8673 47.435 22.4835 47.9627C22.1478 48.4904 22.4835 49.066 23.299 49.7375C24.1145 50.4091 25.0738 51.1766 25.2177 51.8961C25.3616 52.5677 24.882 53.2392 24.3543 53.2872C23.7787 53.3351 23.4909 52.7595 23.8746 52.5677C24.3543 52.3278 24.3543 53.0953 24.0185 52.9034ZM70.26 65.0874L71.0754 62.0654H71.1234L71.9389 65.0874H70.26ZM70.4039 61.2499L68.3892 67.3899H69.5884L70.0201 65.8549H72.1307L72.5625 67.3899H73.7617L71.8909 61.2499H70.4039ZM67.0941 65.8069H67.0461L64.9835 61.2499H63.5924V67.3899H64.6957V62.689L66.7583 67.3899H68.1494V61.2499H67.0941V65.8069ZM60.5224 66.7663C59.8029 66.7663 59.2752 66.3825 59.2752 64.2719C59.2752 62.2093 59.8029 61.8735 60.5224 61.8735C61.194 61.8735 61.7216 62.2093 61.7216 64.2719C61.7216 66.3825 61.194 66.7663 60.5224 66.7663ZM60.5224 61.154C58.8435 61.154 58.124 62.1133 58.124 64.3199C58.124 66.5264 58.8435 67.4858 60.5224 67.4858C62.1533 67.4858 62.8729 66.5264 62.8729 64.3199C62.8729 62.1133 62.1533 61.154 60.5224 61.154ZM100.336 61.2499H99.0889L96.9304 63.9361H96.8824V61.2499H95.7791V67.3899H96.8824V65.3752L97.5539 64.6077L99.2808 67.3899H100.576L98.2735 63.8402L100.336 61.2499ZM56.3012 67.3899H57.4524V61.2499H56.3012V67.3899ZM75.1048 61.2499H73.9535V67.3899H77.8869V66.5744H75.1048V61.2499ZM86.6172 65.0874L87.4806 62.0654H87.5286L88.344 65.0874H86.6172ZM86.809 61.2499L84.7464 67.3899H85.9456L86.4253 65.8549H88.5359L88.9676 67.3899H90.1668L88.2961 61.2499H86.809ZM93.8604 65.8069L91.7498 61.2499H90.3587V67.3899H91.462V62.689L93.5726 67.3899H94.9637V61.2499H93.8604V65.8069ZM82.6358 66.6224H81.4846V64.5118H82.5878C83.2114 64.5118 83.6911 64.8955 83.6911 65.5671C83.6911 66.2866 83.3074 66.6224 82.6358 66.6224ZM81.4846 61.9694H82.3C82.9716 61.9694 83.4513 62.1133 83.4513 62.8808C83.4513 63.4565 83.1155 63.8402 82.396 63.8402H81.4846V61.9694ZM83.5472 64.128C84.2667 63.9361 84.6025 63.5044 84.6025 62.7369C84.6025 61.6337 83.7391 61.2499 82.6838 61.2499H80.3333V67.3899H82.6358C83.9789 67.3899 84.8423 66.7183 84.8423 65.711C84.8423 64.6557 84.3147 64.2719 83.5472 64.128ZM48.8661 65.0874L49.6816 62.0654H49.7295L50.545 65.0874H48.8661ZM49.01 61.2499L46.9953 67.3899H48.1946L48.6263 65.8549H50.7369L51.1686 67.3899H52.3678L50.497 61.2499H49.01ZM51.5044 62.0654H53.1833V67.3899H54.3345V62.0654H56.0134V61.2499H51.5044V62.0654ZM45.7002 65.8069H45.6522L43.5896 61.2499H42.1985V67.3899H43.3018V62.689L45.3644 67.3899H46.7555V61.2499H45.7002V65.8069ZM96.5466 43.9334V53.1912C96.5466 55.1579 95.8271 56.1653 93.8604 56.1653C91.8937 56.1653 91.1742 55.1579 91.1742 53.1912V43.9334H87.1928V52.9514C87.1928 57.4125 89.2075 59.619 93.8604 59.619C98.5133 59.619 100.576 57.4125 100.576 52.9514V43.9334H96.5466ZM64.12 47.0513C66.7103 47.0513 67.6697 49.3058 67.6697 51.6083C67.6697 53.9108 66.7103 56.1653 64.12 56.1653C61.5297 56.1653 60.5224 53.9108 60.5224 51.6083C60.5224 49.3058 61.5297 47.0513 64.12 47.0513ZM64.12 59.619C68.9648 59.619 71.699 56.0693 71.699 51.6083C71.699 47.1472 68.9648 43.5976 64.12 43.5976C59.2752 43.5976 56.541 47.1472 56.541 51.6083C56.541 56.0693 59.2752 59.619 64.12 59.619ZM79.9975 56.0693H76.7837V52.5677H79.9975C81.2447 52.5677 82.1561 52.9994 82.1561 54.3425C82.1561 55.6376 81.2927 56.0693 79.9975 56.0693ZM76.7837 47.0033H79.9016C80.765 47.0033 81.5325 47.3871 81.5325 48.4904C81.5325 49.5936 80.6211 49.9774 79.9016 49.9774H76.7837V47.0033ZM86.1855 54.5344C86.1855 52.7595 85.1781 51.3684 83.5472 50.8888C84.7464 50.2652 85.5619 49.1619 85.5619 47.7708C85.5619 44.557 82.6358 43.8854 79.9975 43.9334H72.8023V59.2832H80.1894C83.4992 59.2832 86.1855 58.1799 86.1855 54.5344ZM45.94 49.6896H45.988L51.3605 59.2832H55.4378V43.9334H51.6962V53.3831H51.6483L46.2758 43.9334H42.1985V59.2832H45.94V49.6896Z" fill="#E20613"/>
</g>
</g>
<rect x="1" y="1" width="110" height="110" rx="9" stroke="black" stroke-opacity="0.1" stroke-width="2"/>
<defs>
<clipPath id="clip0_6700_50220">
<rect x="2" y="2" width="108" height="108" rx="8" fill="white"/>
</clipPath>
<clipPath id="clip1_6700_50220">
<rect width="88.6027" height="32.6184" fill="white" transform="translate(12 40)"/>
</clipPath>
</defs>
</svg>
