<svg width="112" height="112" viewBox="0 0 112 112" fill="none" xmlns="http://www.w3.org/2000/svg">
<g clip-path="url(#clip0_6700_50486)">
<rect x="2" y="2" width="108" height="108" rx="8" fill="white"/>
<path d="M47.3545 57.156V57.1771C47.3479 57.6701 47.0059 57.84 46.5573 57.8378H46.1764V58.6561H45.6445V56.4953H46.5728C46.9726 56.4953 47.3157 56.6186 47.3523 57.0783L47.3545 57.1171V57.156ZM46.8082 57.1704L46.8071 57.1538C46.8115 56.9517 46.6306 56.9639 46.4795 56.9561H46.1764V57.377H46.474C46.6072 57.3703 46.8027 57.3892 46.806 57.2037L46.8071 57.1882L46.8082 57.1704ZM49.5042 58.6561H48.9268L48.7803 58.222H48.0685L47.9208 58.6561H47.3579L48.1551 56.4953H48.7159L49.5042 58.6561ZM48.6326 57.7823L48.4283 57.1604L48.2217 57.7823H48.6326ZM51.7239 58.6561H51.2342L50.4125 57.3281V58.6561H49.904V56.4953H50.4136L51.2142 57.8189V56.4953H51.7239V58.6561ZM52.8099 58.6561H52.278V56.4942H52.8099V58.6561ZM55.1839 58.6561H54.6953L53.8736 57.3281V58.6561H53.3651V56.4953H53.8747L54.6742 57.8189V56.4953H55.1839V58.6561ZM61.5897 58.6561H61.0134L60.8668 58.222H60.1551L60.0085 58.6561H59.4455L60.2417 56.4953H60.8035L61.5897 58.6561ZM60.7203 57.7823L60.5148 57.1604L60.3083 57.7823H60.7203ZM63.8105 58.6561H63.3208L62.5002 57.3281V58.6561H61.9916V56.4953H62.5002L63.3008 57.8189V56.4953H63.8105V58.6561ZM66.4321 58.6561H65.7559L65.0674 57.6934L64.9064 57.8489V58.6561H64.3745V56.4953H64.9064V57.2426L65.7148 56.4953H66.4066L65.4716 57.3192" fill="#007DC5"/>
<path fill-rule="evenodd" clip-rule="evenodd" d="M57.2148 56.5063H58.2919C58.4951 56.5075 58.645 56.5474 58.7438 56.6252C58.8427 56.7029 58.9093 56.7884 58.9415 56.8817C58.9515 56.9116 58.9593 56.9416 58.9637 56.9716C58.9693 57.0005 58.9715 57.0304 58.9715 57.0582C58.9715 57.1592 58.9548 57.2381 58.9204 57.2969C58.8871 57.3569 58.8493 57.4002 58.8105 57.4302C58.7905 57.4457 58.7705 57.4591 58.7527 57.4679C58.7339 57.4779 58.7161 57.4879 58.7017 57.4957C58.836 57.5457 58.9271 57.6178 58.9737 57.7133C59.0192 57.8088 59.0437 57.9088 59.0437 58.0131C59.0437 58.0997 59.0259 58.1808 58.9904 58.2574C58.9548 58.3329 58.9093 58.3996 58.8516 58.4551C58.8493 58.4573 58.8471 58.4584 58.846 58.4595C58.8449 58.4617 58.8438 58.4628 58.8438 58.464C58.7816 58.5195 58.7061 58.5639 58.6162 58.5972C58.5284 58.6294 58.373 58.6461 58.1542 58.6461H57.2148V56.5063ZM57.7423 58.2763H58.2086C58.3008 58.2785 58.373 58.2541 58.4241 58.2041C58.4762 58.1553 58.5007 58.0742 58.5007 57.9654C58.5007 57.8732 58.4729 57.8077 58.4174 57.7677C58.3619 57.7278 58.3019 57.7056 58.2364 57.7044H57.7423V58.2763ZM57.7423 57.3436H58.1731C58.2442 57.3458 58.3052 57.328 58.3563 57.2914C58.4063 57.2547 58.4307 57.1937 58.4307 57.1082C58.4307 57.0193 58.4074 56.9583 58.3585 56.9261C58.3108 56.8916 58.2442 56.875 58.1609 56.875H57.7423" fill="#007DC5"/>
<path fill-rule="evenodd" clip-rule="evenodd" d="M44.534 34H67.5413L67.6612 34.0034L67.7866 34.0122C68.9914 34.1377 69.9308 35.1315 69.9941 36.3407L69.9963 36.4606V58.5551C69.9963 59.7632 69.1025 60.8037 67.9088 60.9869L67.7866 61.0035L67.6612 61.0124L67.5413 61.0157H44.534C43.3215 61.0135 42.2944 60.1186 42.1078 58.9238L42.0923 58.8005L42.0823 58.6751L42.0801 58.5551V36.4606L42.0823 36.3407L42.0923 36.2153L42.1078 36.092L42.1289 35.971L42.1578 35.8522L42.1911 35.7345C42.2522 35.5379 42.331 35.3647 42.4376 35.1893L42.5009 35.0882L42.5698 34.9927L42.643 34.8994C42.9695 34.5008 43.427 34.2066 43.9267 34.0778L44.0455 34.05L44.1665 34.0289L44.2897 34.0122L44.4152 34.0034L44.534 34ZM44.5429 34.6751H67.5335L67.6268 34.6785L67.7178 34.6851C68.5906 34.7751 69.2768 35.5002 69.3201 36.3751L69.3234 36.4695V58.5462C69.3245 59.4257 68.6761 60.1863 67.8066 60.3195L67.7178 60.3317L67.6268 60.3384L67.5335 60.3406H44.5429C43.6624 60.3429 42.9084 59.6888 42.7741 58.8216L42.763 58.7317L42.7552 58.6406L42.753 58.5462V36.4695L42.7552 36.3751L42.763 36.2841L42.7741 36.1953L42.7896 36.1064L42.8096 36.0209L42.834 35.9354C42.8762 35.7989 42.9395 35.6623 43.0128 35.5401L43.0594 35.468L43.1094 35.3969L43.1627 35.3292C43.3981 35.0416 43.7346 34.8239 44.0954 34.7329L44.1809 34.7118L44.2698 34.6962L44.3586 34.6851L44.4485 34.6785" fill="#007DC5"/>
<path fill-rule="evenodd" clip-rule="evenodd" d="M55.4544 35.8209C53.066 36.1118 51.2061 38.1594 51.2061 40.63C51.2061 43.2972 53.3769 45.4724 56.0385 45.4724C58.6989 45.4724 60.8698 43.2972 60.8698 40.63C60.8698 38.1594 59.0099 36.1118 56.6214 35.8209C56.9534 36.0208 57.1777 36.3861 57.1777 36.8014C57.1777 37.431 56.6647 37.944 56.0385 37.944C55.41 37.944 54.8981 37.431 54.8981 36.8014C54.8981 36.3861 55.1224 36.0208 55.4544 35.8209Z" fill="#007DC5"/>
<path fill-rule="evenodd" clip-rule="evenodd" d="M55.0518 47.1868C55.366 47.7309 56.0656 47.9197 56.6085 47.6054C57.1515 47.2901 57.3392 46.5894 57.0249 46.0442C56.7107 45.5001 56.0123 45.3114 55.4693 45.6256C54.9252 45.941 54.7375 46.6416 55.0518 47.1868Z" fill="#007DC5"/>
<path fill-rule="evenodd" clip-rule="evenodd" d="M47.0047 52.519C48.4494 54.4466 51.1487 55.0373 53.2829 53.8037C55.5869 52.469 56.382 49.4965 55.0517 47.1858C53.7204 44.8751 50.7556 44.0789 48.4505 45.4136C46.3174 46.6484 45.478 49.2878 46.4207 51.5052C46.4285 51.1166 46.6317 50.7401 46.9903 50.5325C47.5333 50.2183 48.2328 50.4059 48.5471 50.9511C48.8602 51.4952 48.6725 52.1959 48.1296 52.5112C47.7709 52.7188 47.3445 52.7077 47.0047 52.519Z" fill="#007DC5"/>
<path fill-rule="evenodd" clip-rule="evenodd" d="M65.0707 52.519C63.626 54.4467 60.9267 55.0374 58.7925 53.8038C56.4885 52.4691 55.6934 49.4966 57.0237 47.1859C58.355 44.8751 61.3198 44.079 63.6249 45.4137C65.758 46.6484 66.5974 49.2878 65.6536 51.5053C65.6469 51.1166 65.4437 50.7402 65.0851 50.5326C64.5421 50.2183 63.8437 50.406 63.5294 50.9512C63.2152 51.4953 63.4028 52.1959 63.9447 52.5113C64.3045 52.7189 64.7309 52.7078 65.0707 52.519Z" fill="#007DC5"/>
<path fill-rule="evenodd" clip-rule="evenodd" d="M47.5121 68.2398C47.5121 68.63 47.3108 68.9612 46.9077 69.2334C46.5543 69.4694 46.1561 69.5869 45.7139 69.5869C45.2524 69.5869 44.8448 69.4738 44.4908 69.2472C44.0982 68.9929 43.9014 68.6617 43.9014 68.2542C43.9014 67.8363 44.0932 67.4962 44.4765 67.2329C44.83 67.0064 45.2424 66.8928 45.7139 66.8928C46.1661 66.8928 46.5691 67.0108 46.9226 67.2468C47.3153 67.5101 47.5121 67.8407 47.5121 68.2398Z" fill="#007DC5"/>
<path fill-rule="evenodd" clip-rule="evenodd" d="M86.8618 66.8929H89.9207V72.4505L92.1562 69.8635H95.8393L93.0367 72.5982L95.9999 77.6695H92.6252L91.0447 74.5382L89.9207 75.6398V77.6695H86.8618" fill="#007DC5"/>
<path fill-rule="evenodd" clip-rule="evenodd" d="M77.5459 70.0286H80.2712V71.2795C80.6782 70.7718 81.0907 70.4109 81.5071 70.1927C81.9246 69.9746 82.4322 69.864 83.0306 69.864C83.8402 69.864 84.4728 70.107 84.9319 70.5879C85.388 71.0688 85.6161 71.8114 85.6161 72.8174V77.6695H82.6777V73.4723C82.6777 72.9944 82.5894 72.6552 82.4129 72.4569C82.2334 72.2556 81.986 72.1575 81.6643 72.1575C81.3113 72.1575 81.0218 72.2923 80.8031 72.5601C80.5825 72.8273 80.4724 73.3102 80.4724 74.0047V77.6695H77.5459" fill="#007DC5"/>
<path fill-rule="evenodd" clip-rule="evenodd" d="M60.7075 77.6695H57.4126V66.8929H60.7075V67.2806C61.1968 67.0138 61.8136 66.8934 62.7129 66.8934C64.7327 66.8934 66.5269 67.7168 66.5328 69.4481C66.5388 70.9404 65.6821 71.4793 64.5255 71.5576C65.988 71.7276 67.3241 72.628 67.3241 74.1475C67.3241 76.6928 65.6345 77.6695 62.7565 77.6695C61.8552 77.6695 61.3595 77.5475 60.7075 77.315V77.6695ZM60.7075 69.0054V70.8481C61.6644 70.8863 63.5438 71.0088 63.5438 69.7946C63.5438 68.5864 61.5711 68.6469 60.7075 69.0054ZM60.7075 72.9185V75.611C61.0699 75.7221 61.4487 75.7831 61.9093 75.7831C62.9197 75.7831 64.1164 75.326 64.0842 74.2734C64.0332 72.6086 61.9752 72.8575 60.7075 72.9185Z" fill="#007DC5"/>
<path fill-rule="evenodd" clip-rule="evenodd" d="M70.9883 72.5342L68.214 72.2372C68.3186 71.7439 68.4698 71.3553 68.6671 71.0727C68.8644 70.7901 69.147 70.5452 69.5193 70.3369C69.7851 70.1857 70.1529 70.0692 70.618 69.9874C71.0835 69.9061 71.5872 69.8635 72.1306 69.8635C73.0002 69.8635 73.7017 69.9131 74.2277 70.0127C74.7562 70.1119 75.1944 70.3216 75.5479 70.6344C76.0888 71.1133 76.3972 71.9889 76.3972 72.6983V77.6689H73.6724V76.8023C73.0745 77.3254 71.8976 77.6714 70.7692 77.6689C69.3329 77.666 67.9755 77.1052 67.9854 75.7072C67.9894 75.1207 68.1535 74.6398 68.4921 74.2635C68.8302 73.8842 69.4514 73.6046 70.3597 73.4211C71.4509 73.198 72.1573 73.0419 72.4811 72.9531C72.8028 72.8634 73.1459 72.7444 73.5063 72.6011C73.5063 72.2372 73.4335 71.9844 73.2877 71.8381C73.139 71.6944 72.8807 71.62 72.5079 71.62C72.0334 71.62 71.6774 71.6993 71.439 71.853C71.2535 71.9745 71.1028 72.2025 70.9883 72.5342ZM73.5063 74.0875C73.1067 74.2243 72.6908 74.3443 72.2595 74.4484C71.67 74.5966 71.2947 74.7454 71.139 74.8886C70.9759 75.0389 70.8961 75.2079 70.8961 75.3973C70.8961 75.6149 70.9759 75.7909 71.1346 75.9298C71.2947 76.0666 71.5287 76.136 71.8381 76.136C72.1618 76.136 72.4617 76.0616 72.7419 75.9134C73.0195 75.7632 73.2168 75.5802 73.3338 75.3676C73.4508 75.1524 73.5063 74.8723 73.5063 74.5292" fill="#007DC5"/>
<path fill-rule="evenodd" clip-rule="evenodd" d="M35.0112 70.0286H37.7365V71.2794C38.1435 70.7718 38.5555 70.4113 38.9725 70.1932C39.3894 69.975 39.8976 69.8645 40.496 69.8645C41.3056 69.8645 41.9382 70.1074 42.3973 70.5878C42.8529 71.0682 43.0814 71.8114 43.0814 72.8173V77.668H40.1425V73.4722C40.1425 72.9933 40.0542 72.6552 39.8777 72.4564C39.6988 72.2551 39.4509 72.1569 39.1296 72.1569C38.7761 72.1569 38.4871 72.2923 38.2685 72.5595C38.0478 72.8267 37.9373 73.3101 37.9373 74.0042V77.668H35.0112" fill="#D71920"/>
<path fill-rule="evenodd" clip-rule="evenodd" d="M48.3164 70.0286H51.0417V71.2794C51.4487 70.7718 51.8607 70.4113 52.2776 70.1932C52.6946 69.975 53.2028 69.8645 53.8011 69.8645C54.6107 69.8645 55.2434 70.1074 55.7024 70.5878C56.1586 71.0682 56.3866 71.8114 56.3866 72.8173V77.668H53.4482V73.4722C53.4482 72.9933 53.3594 72.6552 53.1829 72.4564C53.0039 72.2551 52.7561 72.1569 52.4348 72.1569C52.0818 72.1569 51.7923 72.2923 51.5736 72.5595C51.353 72.8267 51.243 73.3101 51.243 74.0042V77.668H48.3164" fill="#D71920"/>
<path d="M44.1074 77.6679H47.2903V70.0286H44.1074V77.6679Z" fill="#D71920"/>
<path fill-rule="evenodd" clip-rule="evenodd" d="M25.2318 70.5987C25.2477 74.0255 22.0703 75.1534 19.2944 74.0563V77.668H16V66.8948H19.2944V67.2815C19.9077 67.0232 20.4268 66.8854 21.2502 66.8948C23.5353 66.9196 25.2194 67.9617 25.2318 70.5987ZM19.2944 69.2264V72.0618C20.6791 72.6041 22.2155 72.324 22.2562 70.4341C22.2829 69.1724 20.7986 68.3484 19.2944 69.2264Z" fill="#D71920"/>
<path fill-rule="evenodd" clip-rule="evenodd" d="M28.5762 72.5342L25.8023 72.2368C25.907 71.744 26.0577 71.3553 26.2555 71.0727C26.4523 70.7906 26.7349 70.5457 27.1072 70.3374C27.373 70.1862 27.7413 70.0697 28.2059 69.9879C28.6714 69.9061 29.1751 69.864 29.7185 69.864C30.588 69.864 31.2896 69.9136 31.8156 70.0127C32.3446 70.1119 32.7828 70.3221 33.1358 70.6344C33.6767 71.1138 33.9856 71.9889 33.9856 72.6983V77.6675H31.2603V76.8013C30.6624 77.3239 29.4854 77.6704 28.3571 77.6675C26.9213 77.6645 25.5634 77.1043 25.5733 75.7067C25.5773 75.1202 25.7414 74.6393 26.08 74.263C26.4181 73.8837 27.0393 73.6041 27.9476 73.4207C29.0388 73.1976 29.7452 73.0414 30.0695 72.9527C30.3907 72.8634 30.7343 72.7444 31.0947 72.6012C31.0947 72.2368 31.0218 71.9844 30.8756 71.8382C30.7269 71.6949 30.4686 71.62 30.0962 71.62C29.6213 71.62 29.2658 71.6993 29.0269 71.853C28.8414 71.9745 28.6907 72.2025 28.5762 72.5342ZM31.0947 74.087C30.6951 74.2238 30.2787 74.3438 29.8479 74.4479C29.2579 74.5956 28.8831 74.7444 28.7274 74.8877C28.5638 75.0384 28.484 75.2069 28.484 75.3963C28.484 75.6145 28.5638 75.79 28.7225 75.9288C28.8831 76.0656 29.1171 76.135 29.4264 76.135C29.7502 76.135 30.0496 76.0612 30.3297 75.9129C30.6074 75.7622 30.8047 75.5798 30.9217 75.3666C31.0387 75.1514 31.0947 74.8713 31.0947 74.5287" fill="#D71920"/>
</g>
<rect x="1" y="1" width="110" height="110" rx="9" stroke="black" stroke-opacity="0.1" stroke-width="2"/>
<defs>
<clipPath id="clip0_6700_50486">
<rect x="2" y="2" width="108" height="108" rx="8" fill="white"/>
</clipPath>
</defs>
</svg>
