<svg width="112" height="112" viewBox="0 0 112 112" fill="none" xmlns="http://www.w3.org/2000/svg">
<g clip-path="url(#clip0_6700_50525)">
<rect x="2" y="2" width="108" height="108" rx="8" fill="white"/>
<mask id="mask0_6700_50525" style="mask-type:alpha" maskUnits="userSpaceOnUse" x="16" y="55" width="20" height="17">
<path d="M35.7044 71.3683H16.02V55.0299H35.7044V71.3683Z" fill="white"/>
</mask>
<g mask="url(#mask0_6700_50525)">
<path fill-rule="evenodd" clip-rule="evenodd" d="M31.3071 70.9073L18.1485 62.3486C18.1485 62.3486 16.4981 61.4009 16.1202 59.6349C15.5897 57.1555 17.3392 55.0299 17.3392 55.0299L34.4171 66.1414C35.7344 66.9994 36.0941 68.7542 35.2472 70.0779C34.3774 71.4375 32.5897 71.7376 31.3071 70.9073Z" fill="#38D200"/>
</g>
<mask id="mask1_6700_50525" style="mask-type:alpha" maskUnits="userSpaceOnUse" x="16" y="40" width="20" height="24">
<path d="M35.7276 63.329H16.8271V40H35.7276V63.329Z" fill="white"/>
</mask>
<g mask="url(#mask1_6700_50525)">
<path fill-rule="evenodd" clip-rule="evenodd" d="M18.8428 53.1958C18.8428 53.1958 16.8271 51.9798 16.8271 49.1675C16.8271 46.3645 18.842 45.164 18.842 45.164L26.0358 40.4599C27.3543 39.6037 29.1178 39.9774 29.9749 41.2946C30.8319 42.6118 30.4579 44.3737 29.1394 45.23L23.0764 49.1745L33.407 55.896C33.407 55.896 35.2665 56.9607 35.6329 58.7572C36.1442 61.264 34.4172 63.329 34.4172 63.329L18.8428 53.1958Z" fill="#0473EA"/>
</g>
<path fill-rule="evenodd" clip-rule="evenodd" d="M32.3838 46.3714C31.7082 46.3715 31.2275 46.5843 30.7586 46.8892L27.2466 49.1744L30.7586 51.4595C31.2321 51.7641 31.7289 51.9773 32.3838 51.9773C33.9332 51.9773 35.1893 50.7224 35.1893 49.1744C35.1893 47.6263 33.9332 46.3711 32.3838 46.3714Z" fill="#38D200"/>
<path fill-rule="evenodd" clip-rule="evenodd" d="M18.8056 71.3609C19.4812 71.3607 19.9618 71.148 20.4307 70.843L23.9427 68.5578L20.4307 66.2728C19.9573 65.9683 19.4604 65.7549 18.8056 65.7549C17.2561 65.7549 16 67.0099 16 68.5579C16 70.106 17.2561 71.3612 18.8056 71.3609Z" fill="#0473EA"/>
<path fill-rule="evenodd" clip-rule="evenodd" d="M94.9679 55.1554L96.0001 55.7853V63.3185H94.9679V62.2543C94.4645 62.9962 93.6589 63.449 92.6896 63.449C90.8769 63.449 89.5804 62.1033 89.5804 60.2673C89.5804 58.3935 90.8769 57.0227 92.6896 57.0227C93.6589 57.0227 94.4645 57.4881 94.9679 58.2426V55.1554ZM68.6636 55.1525L69.6832 55.7821V61.258C69.6832 62.1257 70.2118 62.4653 70.8791 62.4653C71.3826 62.4653 71.886 62.3269 72.3266 62.0125V63.0061C71.8987 63.3205 71.307 63.4462 70.7909 63.4462C69.4692 63.4462 68.6636 62.8551 68.6636 61.1825V55.1525ZM85.9269 57.0059C87.7143 57.0059 88.8849 58.3263 88.8849 60.0995C88.8849 60.2756 88.8724 60.4516 88.8472 60.6152H83.9506C84.1016 61.7344 84.9828 62.4764 86.2164 62.4764C87.0094 62.4764 87.7772 62.25 88.4319 61.7847V62.7656C87.7647 63.2184 87.0094 63.4322 86.2164 63.4322C84.2653 63.4322 82.8681 62.1746 82.8681 60.2756C82.8681 58.4144 84.0513 57.0059 85.9269 57.0059H85.9269ZM59.7197 57.0058C60.689 57.0058 61.4819 57.4586 61.998 58.2006V57.119H63.0302V63.319H61.998V62.2626C61.4819 62.992 60.689 63.4322 59.7197 63.4322C57.907 63.4322 56.6105 62.0865 56.6105 60.2504C56.6105 58.3766 57.907 57.0059 59.7197 57.0059V57.0058ZM46.918 57.0058C47.6606 57.0058 48.353 57.2197 48.9069 57.6346V58.7791C48.4159 58.2509 47.7363 57.9742 46.9809 57.9742C45.6592 57.9742 44.7277 58.8923 44.7277 60.2127C44.7277 61.5332 45.6719 62.4638 46.9936 62.4638C47.7363 62.4638 48.4286 62.2626 48.9698 61.7973V62.8411C48.3655 63.2561 47.6481 63.4321 46.8928 63.4321C44.9921 63.4321 43.6704 62.1117 43.6704 60.2127C43.6704 58.3263 45.0298 57.0058 46.918 57.0058ZM75.4288 57.0059C77.2163 57.0059 78.3869 58.3263 78.3869 60.0995C78.3869 60.2756 78.3743 60.4516 78.3492 60.6152H73.4526C73.6036 61.7344 74.4848 62.4764 75.7183 62.4764C76.5114 62.4764 77.2792 62.25 77.9338 61.7847V62.7656C77.2666 63.2184 76.5114 63.4322 75.7183 63.4322C73.7672 63.4322 72.37 62.1746 72.37 60.2756C72.37 58.4144 73.5532 57.0059 75.4288 57.0059ZM50.1026 55.1537L51.1222 55.7834L51.1223 58.1754C51.588 57.4586 52.3307 57.0058 53.2747 57.0058C54.8356 57.0058 55.6664 58.1503 55.6664 59.672V63.319H54.6342V59.848C54.6342 58.6407 54.1055 57.9994 53.023 57.9994C51.8775 57.9994 51.1223 58.9803 51.1223 60.2127V63.319H50.1026V55.1537ZM67.9015 57.0058V58.1754C66.668 57.9994 65.6358 58.8294 65.6358 60.3636V63.319H64.6161V57.119H65.6358V58.4395C66.1266 57.5215 66.9197 57.0058 67.9015 57.0058ZM82.7925 57.0058V58.1754C81.5589 57.9994 80.5267 58.8294 80.5267 60.3636V63.319H79.5071V57.119H80.5267V58.4395C81.0176 57.5215 81.8106 57.0058 82.7925 57.0058ZM92.7903 57.991C91.5315 57.991 90.6378 58.9468 90.6378 60.2547C90.6378 61.5374 91.5315 62.4806 92.7903 62.4806C94.0617 62.4806 94.9679 61.5374 94.9679 60.2547C94.9679 58.9468 94.0617 57.991 92.7903 57.991ZM59.8204 57.9742C58.5616 57.9742 57.6679 58.93 57.6679 60.2379C57.6679 61.5206 58.5616 62.4638 59.8204 62.4638C61.0918 62.4638 61.998 61.5206 61.998 60.2379C61.998 58.93 61.0918 57.9742 59.8204 57.9742ZM75.4414 57.9491C74.3086 57.9491 73.6288 58.7414 73.4652 59.7851H77.3044C77.2037 58.7288 76.5365 57.9491 75.4414 57.9491ZM85.9394 57.9491C84.8066 57.9491 84.1269 58.7414 83.9632 59.7851H87.8025C87.7018 58.7288 87.0346 57.9491 85.9394 57.9491ZM70.4753 57.0307C70.7371 56.8645 71.0723 56.8674 71.3313 57.0382L72.3583 57.721L71.3442 58.3707C71.0858 58.5363 70.7547 58.5367 70.4958 58.3718L70.4741 58.3579C69.9883 58.0484 69.9889 57.3394 70.4752 57.0307L70.4753 57.0307ZM56.0944 47.9395C57.0637 47.9395 57.8568 48.3923 58.3727 49.1343V48.0527H59.4049V54.2526H58.3727V53.1963C57.8568 53.9257 57.0637 54.3658 56.0944 54.3658C54.2818 54.3658 52.9853 53.0202 52.9853 51.1841C52.9853 49.3103 54.2818 47.9395 56.0944 47.9395ZM50.0272 46.0663V52.1776C50.0272 53.0454 50.5559 53.3849 51.2231 53.3849C51.7266 53.3849 52.23 53.2466 52.6707 52.9322V53.9257C52.2428 54.2401 51.651 54.3658 51.1349 54.3658C49.8132 54.3658 49.0076 53.7747 49.0076 52.1022V46.6966L50.0272 46.0663ZM92.8002 46.0668V54.2526H91.768V53.1711C91.2646 53.9131 90.459 54.3658 89.4897 54.3658C87.677 54.3658 86.3806 53.0202 86.3806 51.1841C86.3806 49.3103 87.677 47.9395 89.4897 47.9395C90.459 47.9395 91.2646 48.4049 91.768 49.1594V46.6963L92.8002 46.0668ZM78.1354 47.9395C79.1047 47.9395 79.8976 48.3923 80.4137 49.1343V48.0527H81.4459V54.2526H80.4137V53.1963C79.8976 53.9257 79.1047 54.3658 78.1354 54.3658C76.3228 54.3658 75.0263 53.0202 75.0263 51.1841C75.0263 49.3103 76.3228 47.9395 78.1354 47.9395ZM45.8985 47.9395C46.6285 47.9395 47.3082 48.1408 47.7865 48.5055V49.5744C47.2202 49.0714 46.5277 48.7822 45.911 48.7822C45.2564 48.7822 44.7906 49.084 44.7906 49.587C44.7906 49.9643 44.9669 50.1907 45.4579 50.3793L46.9307 50.9704C47.7236 51.3099 48.0887 51.7878 48.0887 52.4543C48.0887 53.6364 47.132 54.3658 45.7852 54.3658C44.9669 54.3658 44.2242 54.1395 43.683 53.737V52.6304C44.3375 53.2466 45.0676 53.5233 45.7977 53.5233C46.5277 53.5233 47.0565 53.2089 47.0565 52.6429C47.0565 52.3034 46.8803 52.0393 46.4145 51.8506L44.9417 51.2596C44.1865 50.9327 43.7712 50.5051 43.7712 49.7002C43.7712 48.6187 44.6397 47.9395 45.8985 47.9395ZM73.9185 46.0668V54.2526H72.8863V53.1711C72.3829 53.9131 71.5773 54.3658 70.608 54.3658C68.7953 54.3658 67.4988 53.0202 67.4988 51.1841C67.4988 49.3103 68.7953 47.9395 70.608 47.9395C71.5773 47.9395 72.3829 48.4049 72.8863 49.1594V46.6963L73.9185 46.0668ZM86.3173 47.9395V49.1091C85.0837 48.9331 84.0515 49.7631 84.0515 51.2973V54.2526H83.0319V48.0527H84.0515V49.3732C84.5424 48.4552 85.3354 47.9395 86.3173 47.9395ZM64.163 47.9395C65.7238 47.9395 66.5547 49.084 66.5547 50.6057V54.2526H65.5225V50.7817C65.5225 49.5744 64.9939 48.9331 63.9113 48.9331C62.7658 48.9331 62.0105 49.914 62.0105 51.1464V54.2526H60.9909V48.0527H62.0105V49.1091C62.4763 48.3923 63.2189 47.9395 64.163 47.9395ZM56.1952 48.9079C54.9364 48.9079 54.0426 49.8637 54.0426 51.1716C54.0426 52.4543 54.9364 53.3975 56.1952 53.3975C57.4665 53.3975 58.3727 52.4543 58.3727 51.1716C58.3727 49.8637 57.4665 48.9079 56.1952 48.9079ZM70.7087 48.9079C69.4499 48.9079 68.5562 49.8637 68.5562 51.1716C68.5562 52.4543 69.4499 53.3975 70.7087 53.3975C71.9801 53.3975 72.8863 52.4543 72.8863 51.1716C72.8863 49.8637 71.9801 48.9079 70.7087 48.9079ZM89.5905 48.9079C88.3317 48.9079 87.4379 49.8637 87.4379 51.1716C87.4379 52.4543 88.3317 53.3975 89.5905 53.3975C90.8618 53.3975 91.768 52.4543 91.768 51.1716C91.768 49.8637 90.8618 48.9079 89.5905 48.9079ZM78.2362 48.9079C76.9774 48.9079 76.0836 49.8637 76.0836 51.1716C76.0836 52.4543 76.9774 53.3975 78.2362 53.3975C79.5075 53.3975 80.4137 52.4543 80.4137 51.1716C80.4137 49.8637 79.5075 48.9079 78.2362 48.9079ZM51.4485 48.0415C51.7065 47.8753 52.0377 47.8741 52.2969 48.0384L52.3186 48.0522C52.8052 48.3606 52.8063 49.0696 52.3206 49.3794C52.0592 49.5463 51.724 49.5441 51.4646 49.374L50.436 48.6936L51.4485 48.0415Z" fill="#525355"/>
</g>
<rect x="1" y="1" width="110" height="110" rx="9" stroke="black" stroke-opacity="0.1" stroke-width="2"/>
<defs>
<clipPath id="clip0_6700_50525">
<rect x="2" y="2" width="108" height="108" rx="8" fill="white"/>
</clipPath>
</defs>
</svg>
