<svg width="112" height="112" viewBox="0 0 112 112" fill="none" xmlns="http://www.w3.org/2000/svg">
<g clip-path="url(#clip0_6700_50237)">
<rect x="2" y="2" width="108" height="108" rx="8" fill="white"/>
<circle cx="56" cy="56" r="36" fill="#012A31"/>
<g clip-path="url(#clip1_6700_50237)">
<path d="M46.2647 33.5509C45.6365 33.7322 45.0034 33.8985 44.3827 34.0996C32.3364 37.9826 31.4327 50.5727 36.1499 56.9882C38.9182 60.7545 42.7441 62.6141 47.3298 62.994C49.0553 63.1355 50.7982 63.0237 52.5336 63.0734C56.3844 63.1851 58.9466 65.0273 59.684 68.1705C60.5703 71.9517 59.0881 75.45 55.7985 77.2077C53.0029 78.6999 49.9615 78.9953 46.8829 78.6751C34.3226 77.3666 25.5585 67.3214 25.9731 54.7934C26.3182 44.3062 34.489 35.1647 44.9141 33.6031C45.3535 33.536 45.793 33.474 46.2324 33.4069C46.2423 33.4541 46.2547 33.5037 46.2647 33.5509Z" fill="#AFEE01"/>
<path d="M68.2796 43.472V34.0524C74.196 39.9093 80.172 45.8232 86.0735 51.6651C81.098 56.5884 75.8942 61.7352 70.735 66.8373C70.6109 66.1048 70.4942 65.1093 70.2658 64.136C68.6123 57.0775 62.6785 52.3851 55.0638 52.1244C53.2887 52.0624 51.5085 52.1443 49.7358 52.0723C47.2134 51.9705 45.4804 50.451 45.2867 48.2786C45.0285 45.3788 46.7069 43.5167 49.7607 43.4919C55.3369 43.4447 60.9157 43.4745 66.4945 43.472C67.0283 43.472 67.562 43.472 68.2796 43.472Z" fill="#AFEE01"/>
</g>
</g>
<rect x="1" y="1" width="110" height="110" rx="9" stroke="black" stroke-opacity="0.1" stroke-width="2"/>
<defs>
<clipPath id="clip0_6700_50237">
<rect x="2" y="2" width="108" height="108" rx="8" fill="white"/>
</clipPath>
<clipPath id="clip1_6700_50237">
<rect width="60.1175" height="45.3848" fill="white" transform="translate(25.9585 33.4069)"/>
</clipPath>
</defs>
</svg>
