<svg width="40" height="40" viewBox="0 0 40 40" fill="none" xmlns="http://www.w3.org/2000/svg">
<path d="M7.75 4C7.75 2.20508 9.20508 0.75 11 0.75H27C27.1212 0.75 27.2375 0.798159 27.3232 0.883885L38.1161 11.6768C38.2018 11.7625 38.25 11.8788 38.25 12V36C38.25 37.7949 36.7949 39.25 35 39.25H11C9.20507 39.25 7.75 37.7949 7.75 36V4Z" fill="white" stroke="#CDD5DF" stroke-width="1.5"/>
<path d="M27 0.5V8C27 10.2091 28.7909 12 31 12H38.5" stroke="#CDD5DF" stroke-width="1.5"/>
<rect x="0.471924" y="18" width="28.056" height="16" rx="2" fill="#4B5565"/>
<path d="M4.47192 29.6V22.4H7.69192C8.21192 22.4 8.66526 22.49 9.05192 22.67C9.43859 22.8434 9.73859 23.09 9.95192 23.41C10.1653 23.73 10.2719 24.1034 10.2719 24.53C10.2719 24.95 10.1653 25.32 9.95192 25.64C9.73859 25.9534 9.43859 26.2 9.05192 26.38C8.66526 26.5534 8.21192 26.64 7.69192 26.64H5.69192V25.51H7.65192C8.01859 25.51 8.29859 25.4267 8.49192 25.26C8.69192 25.0867 8.79192 24.8467 8.79192 24.54C8.79192 24.2267 8.69526 23.99 8.50192 23.83C8.30859 23.6634 8.02526 23.58 7.65192 23.58H6.01192V29.6H4.47192ZM8.53192 29.6L5.64192 25.86H7.27192L10.6119 29.6H8.53192Z" fill="white"/>
<path d="M10.9316 29.6L13.5116 22.4H14.8316L12.4616 29.6H10.9316ZM16.2116 29.6L13.8516 22.4H15.2316L17.8116 29.6H16.2116ZM12.2916 26.81H16.3316V28.01H12.2916V26.81Z" fill="white"/>
<path d="M18.3879 29.6V22.4H21.6079C22.1279 22.4 22.5813 22.49 22.9679 22.67C23.3546 22.8434 23.6546 23.09 23.8679 23.41C24.0813 23.73 24.1879 24.1034 24.1879 24.53C24.1879 24.95 24.0813 25.32 23.8679 25.64C23.6546 25.9534 23.3546 26.2 22.9679 26.38C22.5813 26.5534 22.1279 26.64 21.6079 26.64H19.6079V25.51H21.5679C21.9346 25.51 22.2146 25.4267 22.4079 25.26C22.6079 25.0867 22.7079 24.8467 22.7079 24.54C22.7079 24.2267 22.6113 23.99 22.4179 23.83C22.2246 23.6634 21.9413 23.58 21.5679 23.58H19.9279V29.6H18.3879ZM22.4479 29.6L19.5579 25.86H21.1879L24.5279 29.6H22.4479Z" fill="white"/>
</svg>
