<svg width="40" height="40" viewBox="0 0 40 40" fill="none" xmlns="http://www.w3.org/2000/svg">
<path d="M7.75 4C7.75 2.20508 9.20508 0.75 11 0.75H27C27.1212 0.75 27.2375 0.798159 27.3232 0.883885L38.1161 11.6768C38.2018 11.7625 38.25 11.8788 38.25 12V36C38.25 37.7949 36.7949 39.25 35 39.25H11C9.20507 39.25 7.75 37.7949 7.75 36V4Z" fill="white" stroke="#CDD5DF" stroke-width="1.5"/>
<path d="M27 0.5V8C27 10.2091 28.7909 12 31 12H38.5" stroke="#CDD5DF" stroke-width="1.5"/>
<rect x="0.506592" y="18" width="22.9867" height="16" rx="2" fill="#4B5565"/>
<path d="M4.50659 29.6V28.56L8.48659 23.01L8.85659 23.58H4.64659V22.4H10.0566V23.44L6.13659 28.92L5.78659 28.42H10.0966V29.6H4.50659Z" fill="white"/>
<path d="M10.9542 29.6V22.4H12.4942V29.6H10.9542Z" fill="white"/>
<path d="M13.4933 29.6V22.4H16.9133C17.4466 22.4 17.9033 22.4934 18.2833 22.68C18.67 22.8667 18.9666 23.1267 19.1733 23.46C19.3866 23.7934 19.4933 24.1834 19.4933 24.63C19.4933 25.0767 19.3866 25.47 19.1733 25.81C18.96 26.15 18.66 26.4167 18.2733 26.61C17.8933 26.7967 17.44 26.89 16.9133 26.89H14.7133V25.71H16.8333C17.1866 25.71 17.46 25.6134 17.6533 25.42C17.8533 25.22 17.9533 24.96 17.9533 24.64C17.9533 24.32 17.8533 24.0634 17.6533 23.87C17.46 23.6767 17.1866 23.58 16.8333 23.58H15.0333V29.6H13.4933Z" fill="white"/>
</svg>
