<svg width="112" height="26" viewBox="0 0 112 26" fill="none" xmlns="http://www.w3.org/2000/svg">
<path d="M34.0929 7.46826C34.4654 7.46826 34.7669 7.5925 34.9974 7.84097C35.2457 8.08944 35.3699 8.39116 35.3699 8.74612V15.8276C35.3699 17.6734 34.8555 19.1109 33.8269 20.1403C32.8159 21.152 31.3793 21.6578 29.5171 21.6578C27.6726 21.6578 26.2449 21.152 25.2339 20.1403C24.223 19.1109 23.7175 17.6734 23.7175 15.8276V8.74612C23.7175 8.39116 23.8328 8.08944 24.0634 7.84097C24.3117 7.5925 24.6132 7.46826 24.9679 7.46826C25.3403 7.46826 25.6419 7.5925 25.8724 7.84097C26.1207 8.08944 26.2449 8.39116 26.2449 8.74612V15.8276C26.2449 18.1526 27.3356 19.315 29.5171 19.315C30.599 19.315 31.4237 19.0222 31.9912 18.4365C32.5588 17.8508 32.8425 16.9812 32.8425 15.8276V8.74612C32.8425 8.39116 32.9578 8.08944 33.1884 7.84097C33.4367 7.5925 33.7382 7.46826 34.0929 7.46826Z" fill="#222222"/>
<path d="M85.2285 7.57476C85.601 7.57476 85.9025 7.69899 86.133 7.94746C86.3813 8.19594 86.5055 8.49765 86.5055 8.85261V15.9341C86.5055 17.7799 85.9912 19.2174 84.9625 20.2468C83.9516 21.2585 82.515 21.7643 80.6527 21.7643C78.8082 21.7643 77.3805 21.2585 76.3696 20.2468C75.3586 19.2174 74.8531 17.7799 74.8531 15.9341V8.85261C74.8531 8.49765 74.9684 8.19594 75.199 7.94746C75.4473 7.69899 75.7488 7.57476 76.1035 7.57476C76.476 7.57476 76.7775 7.69899 77.008 7.94746C77.2563 8.19594 77.3805 8.49765 77.3805 8.85261V15.9341C77.3805 18.259 78.4712 19.4215 80.6527 19.4215C81.7346 19.4215 82.5593 19.1287 83.1268 18.543C83.6944 17.9573 83.9782 17.0877 83.9782 15.9341V8.85261C83.9782 8.49765 84.0934 8.19594 84.324 7.94746C84.5723 7.69899 84.8738 7.57476 85.2285 7.57476Z" fill="#222222"/>
<path d="M104.678 7.33516C107.782 7.33516 109.333 9.26969 109.333 13.1388V20.2468C109.333 20.6195 109.218 20.9301 108.988 21.1786C108.757 21.4093 108.455 21.5247 108.083 21.5247C107.711 21.5247 107.4 21.4004 107.152 21.152C106.921 20.9035 106.806 20.6018 106.806 20.2468V13.1654C106.806 10.8404 105.831 9.67789 103.88 9.67789C103.188 9.67789 102.558 9.83763 101.991 10.1571C101.441 10.4588 101.007 10.8759 100.687 11.4083C100.386 11.9408 100.235 12.5264 100.235 13.1654V20.2468C100.235 20.6018 100.111 20.9035 99.8626 21.152C99.632 21.4004 99.3305 21.5247 98.958 21.5247C98.5856 21.5247 98.2841 21.4093 98.0535 21.1786C97.8229 20.9301 97.7077 20.6195 97.7077 20.2468V13.1388C97.7077 12.0916 97.486 11.2575 97.0426 10.6363C96.5992 9.99736 95.8632 9.67789 94.8345 9.67789C93.7881 9.67789 92.919 10.0151 92.2273 10.6895C91.5534 11.3462 91.2164 12.1626 91.2164 13.1388V20.2468C91.2164 20.6018 91.0923 20.9035 90.844 21.152C90.6134 21.4004 90.3119 21.5247 89.9394 21.5247C89.567 21.5247 89.2655 21.4093 89.0349 21.1786C88.8043 20.9301 88.6891 20.6195 88.6891 20.2468V8.85261C88.6891 8.49765 88.8043 8.19594 89.0349 7.94746C89.2832 7.69899 89.5847 7.57476 89.9394 7.57476C90.3119 7.57476 90.6134 7.69899 90.844 7.94746C91.0923 8.19594 91.2164 8.49765 91.2164 8.85261V9.78438C91.6775 9.09221 92.2894 8.5154 93.052 8.05395C93.8324 7.57476 94.6749 7.33516 95.5794 7.33516C97.7786 7.33516 99.2063 8.3113 99.8626 10.2636C100.253 9.51816 100.9 8.84374 101.805 8.24031C102.709 7.63688 103.667 7.33516 104.678 7.33516Z" fill="#222222"/>
<path d="M48.8578 7.30852C49.2302 7.30852 49.5317 7.43275 49.7623 7.68123C50.0106 7.91195 50.1347 8.22254 50.1347 8.613V20.1669C50.1347 20.5219 50.0106 20.8236 49.7623 21.0721C49.5317 21.3206 49.2302 21.4448 48.8578 21.4448C48.4853 21.4448 48.1838 21.3294 47.9532 21.0987C47.7227 20.8502 47.6074 20.5396 47.6074 20.1669V19.4748C47.1463 20.0959 46.5167 20.6284 45.7185 21.0721C44.9204 21.498 44.0603 21.711 43.138 21.711C41.932 21.711 40.8324 21.4004 39.8392 20.7792C38.8637 20.1581 38.0922 19.2973 37.5247 18.1969C36.9749 17.0788 36.7 15.8276 36.7 14.4432C36.7 13.0589 36.9749 11.8165 37.5247 10.7161C38.0922 9.59801 38.8637 8.72836 39.8392 8.10718C40.8146 7.486 41.8876 7.17541 43.0582 7.17541C43.9982 7.17541 44.8672 7.37064 45.6653 7.76109C46.4812 8.15155 47.1285 8.64849 47.6074 9.25192V8.613C47.6074 8.24029 47.7227 7.9297 47.9532 7.68123C48.1838 7.43275 48.4853 7.30852 48.8578 7.30852ZM43.4306 19.3683C44.2642 19.3683 45.0003 19.1553 45.6387 18.7293C46.295 18.3034 46.8004 17.7177 47.1551 16.9723C47.5276 16.2269 47.7138 15.3839 47.7138 14.4432C47.7138 13.5203 47.5276 12.6862 47.1551 11.9407C46.8004 11.1953 46.295 10.6096 45.6387 10.1837C45.0003 9.73999 44.2642 9.51814 43.4306 9.51814C42.5971 9.51814 41.8522 9.73112 41.1959 10.1571C40.5575 10.583 40.052 11.1687 39.6795 11.9141C39.3248 12.6595 39.1475 13.5026 39.1475 14.4432C39.1475 15.3839 39.3248 16.2269 39.6795 16.9723C40.052 17.7177 40.5575 18.3034 41.1959 18.7293C41.8522 19.1553 42.5971 19.3683 43.4306 19.3683Z" fill="#E1202D"/>
<path d="M59.3996 7.17541C62.592 7.17541 64.1883 9.09219 64.1883 12.9258V20.1669C64.1883 20.5219 64.0641 20.8236 63.8158 21.0721C63.5852 21.3206 63.2837 21.4448 62.9113 21.4448C62.5566 21.4448 62.2551 21.3206 62.0068 21.0721C61.7762 20.8236 61.6609 20.5219 61.6609 20.1669V12.9524C61.6609 11.9052 61.4215 11.0711 60.9426 10.4499C60.4638 9.82873 59.6834 9.51814 58.6015 9.51814C57.8921 9.51814 57.2447 9.67787 56.6595 9.99734C56.0919 10.2991 55.6397 10.7161 55.3027 11.2486C54.9834 11.7633 54.8238 12.3312 54.8238 12.9524V20.1669C54.8238 20.5219 54.6997 20.8236 54.4514 21.0721C54.2208 21.3206 53.9193 21.4448 53.5468 21.4448C53.1744 21.4448 52.8729 21.3294 52.6423 21.0987C52.4118 20.8502 52.2965 20.5396 52.2965 20.1669V8.77273C52.2965 8.41777 52.4118 8.11605 52.6423 7.86758C52.8906 7.61911 53.1921 7.49487 53.5468 7.49487C53.9193 7.49487 54.2208 7.61911 54.4514 7.86758C54.6997 8.11605 54.8238 8.41777 54.8238 8.77273V9.7045C55.2849 8.99458 55.9234 8.40002 56.7393 7.92082C57.5728 7.42388 58.4596 7.17541 59.3996 7.17541Z" fill="#E1202D"/>
<path d="M70.1439 9.97072V17.9041C70.1439 18.7915 70.543 19.2352 71.3411 19.2352C71.4652 19.2352 71.6337 19.2085 71.8465 19.1553C72.0594 19.0843 72.2279 19.0488 72.352 19.0488C72.5826 19.0488 72.7777 19.1464 72.9373 19.3417C73.0969 19.5369 73.1767 19.7854 73.1767 20.0871C73.1767 20.4598 72.9639 20.7792 72.5382 21.0455C72.1126 21.3117 71.6337 21.4448 71.1016 21.4448C70.5164 21.4448 69.9754 21.3827 69.4788 21.2584C69 21.1342 68.5654 20.8236 68.1753 20.3267C67.8028 19.812 67.6166 19.0399 67.6166 18.0106V9.97072H66.0736C65.7366 9.97072 65.4528 9.86423 65.2223 9.65125C65.0094 9.42053 64.903 9.13656 64.903 8.79935C64.903 8.46214 65.0094 8.18704 65.2223 7.97407C65.4528 7.76109 65.7366 7.6546 66.0736 7.6546H67.6166V5.41836C67.6166 5.0634 67.7319 4.76168 67.9624 4.51321C68.2107 4.26474 68.5211 4.1405 68.8936 4.1405C69.2483 4.1405 69.5409 4.26474 69.7715 4.51321C70.0198 4.76168 70.1439 5.0634 70.1439 5.41836V7.6546H72.352C72.689 7.6546 72.9639 7.76997 73.1767 8.00069C73.4073 8.21367 73.5226 8.48876 73.5226 8.82597C73.5226 9.16318 73.4073 9.43828 73.1767 9.65125C72.9639 9.86423 72.689 9.97072 72.352 9.97072H70.1439Z" fill="#E1202D"/>
<path d="M20.1805 16.251C20.9101 14.5309 21.0396 12.6151 20.5483 10.8122C20.0571 9.00938 18.9735 7.42445 17.4723 6.31286C15.9711 5.20126 14.1396 4.62774 12.2731 4.6847C10.4065 4.74166 8.61352 5.42579 7.18304 6.62686C5.75257 7.82792 4.7679 9.47596 4.38772 11.3054C4.00753 13.1349 4.25396 15.0392 5.0873 16.7116C5.92064 18.3839 7.29235 19.7269 8.98141 20.5241C10.6705 21.3213 12.5785 21.5263 14.3981 21.106" stroke="#222222" stroke-width="2.4" stroke-linecap="round"/>
<path d="M14.6712 15.854L19.6264 21.2541" stroke="#E1202D" stroke-width="2.4" stroke-linecap="round"/>
<path d="M47.2819 9.39837C47.2819 10.3904 46.4776 11.1947 45.4853 11.1947C44.493 11.1947 43.6887 10.3904 43.6887 9.39837C43.6887 8.40634 44.493 7.60206 45.4853 7.60206C46.4776 7.60206 47.2819 8.40634 47.2819 9.39837Z" fill="#E1202D" stroke="white" stroke-width="0.8"/>
</svg>
