<svg width="40" height="40" viewBox="0 0 40 40" fill="none" xmlns="http://www.w3.org/2000/svg">
<path d="M4 4C4 1.79086 5.79086 0 8 0H24L36 12V36C36 38.2091 34.2091 40 32 40H8C5.79086 40 4 38.2091 4 36V4Z" fill="url(#paint0_linear_6726_48934)"/>
<path d="M24 0L36 12H28C25.7909 12 24 10.2091 24 8V0Z" fill="#CDD5DF"/>
<path d="M11.7444 32V25.52H13.1304V32H11.7444ZM12.3924 32V30.938H16.5684V32H12.3924ZM12.3924 29.21V28.166H16.2534V29.21H12.3924ZM12.3924 26.582V25.52H16.4604V26.582H12.3924Z" fill="#4B5565"/>
<path d="M17.3782 32V25.52H20.4562C20.9362 25.52 21.3472 25.604 21.6892 25.772C22.0372 25.94 22.3042 26.174 22.4902 26.474C22.6822 26.774 22.7782 27.125 22.7782 27.527C22.7782 27.929 22.6822 28.283 22.4902 28.589C22.2982 28.895 22.0282 29.135 21.6802 29.309C21.3382 29.477 20.9302 29.561 20.4562 29.561H18.4762V28.499H20.3842C20.7022 28.499 20.9482 28.412 21.1222 28.238C21.3022 28.058 21.3922 27.824 21.3922 27.536C21.3922 27.248 21.3022 27.017 21.1222 26.843C20.9482 26.669 20.7022 26.582 20.3842 26.582H18.7642V32H17.3782Z" fill="#4B5565"/>
<path d="M25.9484 32.081C25.1084 32.081 24.4364 31.895 23.9324 31.523C23.4284 31.145 23.1344 30.614 23.0504 29.93H24.3824C24.4244 30.278 24.5924 30.554 24.8864 30.758C25.1804 30.956 25.5554 31.055 26.0114 31.055C26.3834 31.055 26.6684 30.989 26.8664 30.857C27.0704 30.725 27.1724 30.548 27.1724 30.326C27.1724 30.116 27.1124 29.948 26.9924 29.822C26.8724 29.69 26.6654 29.585 26.3714 29.507L25.1654 29.174C24.5474 29 24.0944 28.763 23.8064 28.463C23.5244 28.157 23.3834 27.776 23.3834 27.32C23.3834 26.93 23.4824 26.594 23.6804 26.312C23.8844 26.024 24.1694 25.805 24.5354 25.655C24.9014 25.499 25.3304 25.421 25.8224 25.421C26.5784 25.421 27.1814 25.601 27.6314 25.961C28.0814 26.315 28.3364 26.786 28.3964 27.374H27.0644C27.0044 27.056 26.8574 26.822 26.6234 26.672C26.3954 26.522 26.1014 26.447 25.7414 26.447C25.4294 26.447 25.1804 26.507 24.9944 26.627C24.8084 26.747 24.7154 26.909 24.7154 27.113C24.7154 27.269 24.7664 27.413 24.8684 27.545C24.9704 27.671 25.1834 27.779 25.5074 27.869L26.7134 28.202C27.3494 28.376 27.8054 28.616 28.0814 28.922C28.3634 29.222 28.5044 29.603 28.5044 30.065C28.5044 30.713 28.2794 31.211 27.8294 31.559C27.3794 31.907 26.7524 32.081 25.9484 32.081Z" fill="#4B5565"/>
<defs>
<linearGradient id="paint0_linear_6726_48934" x1="20" y1="0" x2="20" y2="40" gradientUnits="userSpaceOnUse">
<stop stop-color="#F9FAFB"/>
<stop offset="1" stop-color="#EDF0F3"/>
</linearGradient>
</defs>
</svg>
