<svg width="40" height="40" viewBox="0 0 40 40" fill="none" xmlns="http://www.w3.org/2000/svg">
<path d="M7.75 4C7.75 2.20508 9.20508 0.75 11 0.75H27C27.1212 0.75 27.2375 0.798159 27.3232 0.883885L38.1161 11.6768C38.2018 11.7625 38.25 11.8788 38.25 12V36C38.25 37.7949 36.7949 39.25 35 39.25H11C9.20507 39.25 7.75 37.7949 7.75 36V4Z" fill="white" stroke="#CDD5DF" stroke-width="1.5"/>
<path d="M27 0.5V8C27 10.2091 28.7909 12 31 12H38.5" stroke="#CDD5DF" stroke-width="1.5"/>
<rect x="0.688965" y="18" width="26.6223" height="16" rx="2" fill="#0F6AF5"/>
<path d="M4.68896 29.61V22.41H6.22896V29.61H4.68896ZM5.40896 29.61V28.43H10.049V29.61H5.40896ZM5.40896 26.51V25.35H9.69896V26.51H5.40896ZM5.40896 23.59V22.41H9.92896V23.59H5.40896Z" fill="white"/>
<path d="M10.9487 29.61V22.41H14.3687C14.9021 22.41 15.3587 22.5033 15.7387 22.69C16.1254 22.8767 16.4221 23.1367 16.6287 23.47C16.8421 23.8033 16.9487 24.1933 16.9487 24.64C16.9487 25.0867 16.8421 25.48 16.6287 25.82C16.4154 26.16 16.1154 26.4267 15.7287 26.62C15.3487 26.8067 14.8954 26.9 14.3687 26.9H12.1687V25.72H14.2887C14.6421 25.72 14.9154 25.6233 15.1087 25.43C15.3087 25.23 15.4087 24.97 15.4087 24.65C15.4087 24.33 15.3087 24.0733 15.1087 23.88C14.9154 23.6867 14.6421 23.59 14.2887 23.59H12.4887V29.61H10.9487Z" fill="white"/>
<path d="M20.4712 29.7C19.5379 29.7 18.7912 29.4933 18.2312 29.08C17.6712 28.66 17.3446 28.07 17.2512 27.31H18.7312C18.7779 27.6967 18.9646 28.0033 19.2912 28.23C19.6179 28.45 20.0346 28.56 20.5412 28.56C20.9546 28.56 21.2712 28.4867 21.4912 28.34C21.7179 28.1933 21.8312 27.9967 21.8312 27.75C21.8312 27.5167 21.7646 27.33 21.6312 27.19C21.4979 27.0433 21.2679 26.9267 20.9412 26.84L19.6012 26.47C18.9146 26.2767 18.4112 26.0133 18.0912 25.68C17.7779 25.34 17.6212 24.9167 17.6212 24.41C17.6212 23.9767 17.7312 23.6033 17.9512 23.29C18.1779 22.97 18.4946 22.7267 18.9012 22.56C19.3079 22.3867 19.7846 22.3 20.3312 22.3C21.1712 22.3 21.8412 22.5 22.3412 22.9C22.8412 23.2933 23.1246 23.8167 23.1912 24.47H21.7112C21.6446 24.1167 21.4812 23.8567 21.2212 23.69C20.9679 23.5233 20.6412 23.44 20.2412 23.44C19.8946 23.44 19.6179 23.5067 19.4112 23.64C19.2046 23.7733 19.1012 23.9533 19.1012 24.18C19.1012 24.3533 19.1579 24.5133 19.2712 24.66C19.3846 24.8 19.6212 24.92 19.9812 25.02L21.3212 25.39C22.0279 25.5833 22.5346 25.85 22.8412 26.19C23.1546 26.5233 23.3112 26.9467 23.3112 27.46C23.3112 28.18 23.0612 28.7333 22.5612 29.12C22.0612 29.5067 21.3646 29.7 20.4712 29.7Z" fill="white"/>
</svg>
