<svg width="40" height="40" viewBox="0 0 40 40" fill="none" xmlns="http://www.w3.org/2000/svg">
<path d="M4 4C4 1.79086 5.79086 0 8 0H24L36 12V36C36 38.2091 34.2091 40 32 40H8C5.79086 40 4 38.2091 4 36V4Z" fill="#0F6AF5"/>
<path opacity="0.3" d="M24 0L36 12H28C25.7909 12 24 10.2091 24 8V0Z" fill="white"/>
<path d="M16.425 32.09C15.723 32.09 15.12 31.952 14.616 31.676C14.112 31.4 13.722 31.013 13.446 30.515C13.176 30.017 13.041 29.435 13.041 28.769C13.041 28.109 13.179 27.53 13.455 27.032C13.731 26.528 14.112 26.135 14.598 25.853C15.09 25.571 15.66 25.43 16.308 25.43C16.842 25.43 17.319 25.526 17.739 25.718C18.165 25.91 18.507 26.174 18.765 26.51C19.029 26.84 19.185 27.224 19.233 27.662H17.847C17.787 27.308 17.619 27.032 17.343 26.834C17.073 26.63 16.734 26.528 16.326 26.528C15.948 26.528 15.618 26.618 15.336 26.798C15.054 26.972 14.835 27.224 14.679 27.554C14.523 27.884 14.445 28.28 14.445 28.742C14.445 29.222 14.523 29.633 14.679 29.975C14.835 30.311 15.063 30.569 15.363 30.749C15.669 30.923 16.044 31.01 16.488 31.01C16.848 31.01 17.154 30.965 17.406 30.875C17.658 30.785 17.85 30.659 17.982 30.497L19.296 31.019C18.948 31.367 18.543 31.634 18.081 31.82C17.625 32 17.073 32.09 16.425 32.09ZM17.91 31.019V29.237L18.189 29.516H16.479V28.454H19.296V31.019H17.91Z" fill="white"/>
<path d="M20.0853 32V25.52H21.4713V32H20.0853Z" fill="white"/>
<path d="M22.3704 32V25.52H23.7564V32H22.3704ZM23.0184 29.489V28.427H26.7354V29.489H23.0184ZM23.0184 26.582V25.52H26.9424V26.582H23.0184Z" fill="white"/>
</svg>
