<svg width="40" height="40" viewBox="0 0 40 40" fill="none" xmlns="http://www.w3.org/2000/svg">
<path d="M7.75 4C7.75 2.20508 9.20508 0.75 11 0.75H27C27.1212 0.75 27.2375 0.798159 27.3232 0.883885L38.1161 11.6768C38.2018 11.7625 38.25 11.8788 38.25 12V36C38.25 37.7949 36.7949 39.25 35 39.25H11C9.20507 39.25 7.75 37.7949 7.75 36V4Z" fill="white" stroke="#CDD5DF" stroke-width="1.5"/>
<path d="M27 0.5V8C27 10.2091 28.7909 12 31 12H38.5" stroke="#CDD5DF" stroke-width="1.5"/>
<rect x="0.7771" y="18" width="23.446" height="16" rx="2" fill="#0F6AF5"/>
<path d="M8.5371 29.7C7.7571 29.7 7.0871 29.5467 6.5271 29.24C5.9671 28.9333 5.53377 28.5033 5.2271 27.95C4.9271 27.3967 4.7771 26.75 4.7771 26.01C4.7771 25.2767 4.93043 24.6333 5.2371 24.08C5.54377 23.52 5.9671 23.0833 6.5071 22.77C7.05377 22.4567 7.6871 22.3 8.4071 22.3C9.00043 22.3 9.53043 22.4067 9.9971 22.62C10.4704 22.8333 10.8504 23.1267 11.1371 23.5C11.4304 23.8667 11.6038 24.2933 11.6571 24.78H10.1171C10.0504 24.3867 9.86377 24.08 9.5571 23.86C9.2571 23.6333 8.88043 23.52 8.4271 23.52C8.0071 23.52 7.64043 23.62 7.3271 23.82C7.01377 24.0133 6.77043 24.2933 6.5971 24.66C6.42377 25.0267 6.3371 25.4667 6.3371 25.98C6.3371 26.5133 6.42377 26.97 6.5971 27.35C6.77043 27.7233 7.02377 28.01 7.3571 28.21C7.6971 28.4033 8.11377 28.5 8.6071 28.5C9.0071 28.5 9.3471 28.45 9.6271 28.35C9.9071 28.25 10.1204 28.11 10.2671 27.93L11.7271 28.51C11.3404 28.8967 10.8904 29.1933 10.3771 29.4C9.87043 29.6 9.2571 29.7 8.5371 29.7ZM10.1871 28.51V26.53L10.4971 26.84H8.5971V25.66H11.7271V28.51H10.1871Z" fill="white"/>
<path d="M12.6041 29.6V22.4H14.1441V29.6H12.6041Z" fill="white"/>
<path d="M15.1431 29.6V22.4H16.6831V29.6H15.1431ZM15.8631 26.81V25.63H19.9931V26.81H15.8631ZM15.8631 23.58V22.4H20.2231V23.58H15.8631Z" fill="white"/>
</svg>
