<svg width="40" height="40" viewBox="0 0 40 40" fill="none" xmlns="http://www.w3.org/2000/svg">
<path d="M7.75 4C7.75 2.20508 9.20508 0.75 11 0.75H27C27.1212 0.75 27.2375 0.798159 27.3232 0.883885L38.1161 11.6768C38.2018 11.7625 38.25 11.8788 38.25 12V36C38.25 37.7949 36.7949 39.25 35 39.25H11C9.20507 39.25 7.75 37.7949 7.75 36V4Z" fill="white" stroke="#CDD5DF" stroke-width="1.5"/>
<path d="M27 0.5V8C27 10.2091 28.7909 12 31 12H38.5" stroke="#CDD5DF" stroke-width="1.5"/>
<rect x="0.887695" y="18" width="26.2246" height="16" rx="2" fill="#0F6AF5"/>
<path d="M4.8877 29.6V22.4H6.4277V29.6H4.8877Z" fill="white"/>
<path d="M7.42676 29.6V22.4H9.82676L11.8268 29.34H10.9568L12.9568 22.4H15.3668V29.6H13.8468V22.83H14.1068L12.1568 29.6H10.5668L8.63676 22.89H8.88676V29.6H7.42676Z" fill="white"/>
<path d="M19.9223 29.7C19.1423 29.7 18.4723 29.5467 17.9123 29.24C17.3523 28.9333 16.919 28.5033 16.6123 27.95C16.3123 27.3967 16.1623 26.75 16.1623 26.01C16.1623 25.2767 16.3156 24.6333 16.6223 24.08C16.929 23.52 17.3523 23.0833 17.8923 22.77C18.439 22.4567 19.0723 22.3 19.7923 22.3C20.3856 22.3 20.9156 22.4067 21.3823 22.62C21.8556 22.8333 22.2356 23.1267 22.5223 23.5C22.8156 23.8667 22.989 24.2933 23.0423 24.78H21.5023C21.4356 24.3867 21.249 24.08 20.9423 23.86C20.6423 23.6333 20.2656 23.52 19.8123 23.52C19.3923 23.52 19.0256 23.62 18.7123 23.82C18.399 24.0133 18.1556 24.2933 17.9823 24.66C17.809 25.0267 17.7223 25.4667 17.7223 25.98C17.7223 26.5133 17.809 26.97 17.9823 27.35C18.1556 27.7233 18.409 28.01 18.7423 28.21C19.0823 28.4033 19.499 28.5 19.9923 28.5C20.3923 28.5 20.7323 28.45 21.0123 28.35C21.2923 28.25 21.5056 28.11 21.6523 27.93L23.1123 28.51C22.7256 28.8967 22.2756 29.1933 21.7623 29.4C21.2556 29.6 20.6423 29.7 19.9223 29.7ZM21.5723 28.51V26.53L21.8823 26.84H19.9823V25.66H23.1123V28.51H21.5723Z" fill="white"/>
</svg>
