<svg width="40" height="40" viewBox="0 0 40 40" fill="none" xmlns="http://www.w3.org/2000/svg">
<path d="M7.75 4C7.75 2.20508 9.20508 0.75 11 0.75H27C27.1212 0.75 27.2375 0.798159 27.3232 0.883885L38.1161 11.6768C38.2018 11.7625 38.25 11.8788 38.25 12V36C38.25 37.7949 36.7949 39.25 35 39.25H11C9.20507 39.25 7.75 37.7949 7.75 36V4Z" fill="white" stroke="#CDD5DF" stroke-width="1.5"/>
<path d="M27 0.5V8C27 10.2091 28.7909 12 31 12H38.5" stroke="#CDD5DF" stroke-width="1.5"/>
<rect x="0.947266" y="18" width="28.1057" height="16" rx="2" fill="#0F6AF5"/>
<path d="M8.16727 29.695C7.23393 29.695 6.48727 29.4883 5.92727 29.075C5.36727 28.655 5.0406 28.065 4.94727 27.305H6.42727C6.47393 27.6917 6.6606 27.9983 6.98727 28.225C7.31393 28.445 7.7306 28.555 8.23727 28.555C8.6506 28.555 8.96727 28.4817 9.18727 28.335C9.41393 28.1883 9.52727 27.9917 9.52727 27.745C9.52727 27.5117 9.4606 27.325 9.32727 27.185C9.19393 27.0383 8.96393 26.9217 8.63727 26.835L7.29727 26.465C6.6106 26.2717 6.10727 26.0083 5.78727 25.675C5.47393 25.335 5.31727 24.9117 5.31727 24.405C5.31727 23.9717 5.42727 23.5983 5.64727 23.285C5.87393 22.965 6.1906 22.7217 6.59727 22.555C7.00393 22.3817 7.4806 22.295 8.02727 22.295C8.86727 22.295 9.53727 22.495 10.0373 22.895C10.5373 23.2883 10.8206 23.8117 10.8873 24.465H9.40727C9.3406 24.1117 9.17727 23.8517 8.91727 23.685C8.66393 23.5183 8.33727 23.435 7.93727 23.435C7.5906 23.435 7.31393 23.5017 7.10727 23.635C6.9006 23.7683 6.79727 23.9483 6.79727 24.175C6.79727 24.3483 6.85393 24.5083 6.96727 24.655C7.0806 24.795 7.31727 24.915 7.67727 25.015L9.01727 25.385C9.72393 25.5783 10.2306 25.845 10.5373 26.185C10.8506 26.5183 11.0073 26.9417 11.0073 27.455C11.0073 28.175 10.7573 28.7283 10.2573 29.115C9.75727 29.5017 9.0606 29.695 8.16727 29.695Z" fill="white"/>
<path d="M13.7382 29.605L11.1582 22.405H12.7582L14.7282 28.405H14.5382L16.5182 22.405H18.0382L15.4582 29.605H13.7382Z" fill="white"/>
<path d="M21.863 29.705C21.083 29.705 20.413 29.5517 19.853 29.245C19.293 28.9383 18.8596 28.5083 18.553 27.955C18.253 27.4017 18.103 26.755 18.103 26.015C18.103 25.2817 18.2563 24.6383 18.563 24.085C18.8696 23.525 19.293 23.0883 19.833 22.775C20.3796 22.4617 21.013 22.305 21.733 22.305C22.3263 22.305 22.8563 22.4117 23.323 22.625C23.7963 22.8383 24.1763 23.1317 24.463 23.505C24.7563 23.8717 24.9296 24.2983 24.983 24.785H23.443C23.3763 24.3917 23.1896 24.085 22.883 23.865C22.583 23.6383 22.2063 23.525 21.753 23.525C21.333 23.525 20.9663 23.625 20.653 23.825C20.3396 24.0183 20.0963 24.2983 19.923 24.665C19.7496 25.0317 19.663 25.4717 19.663 25.985C19.663 26.5183 19.7496 26.975 19.923 27.355C20.0963 27.7283 20.3496 28.015 20.683 28.215C21.023 28.4083 21.4396 28.505 21.933 28.505C22.333 28.505 22.673 28.455 22.953 28.355C23.233 28.255 23.4463 28.115 23.593 27.935L25.053 28.515C24.6663 28.9017 24.2163 29.1983 23.703 29.405C23.1963 29.605 22.583 29.705 21.863 29.705ZM23.513 28.515V26.535L23.823 26.845H21.923V25.665H25.053V28.515H23.513Z" fill="white"/>
</svg>
