<svg width="40" height="40" viewBox="0 0 40 40" fill="none" xmlns="http://www.w3.org/2000/svg">
<path d="M7.75 4C7.75 2.20508 9.20508 0.75 11 0.75H27C27.1212 0.75 27.2375 0.798159 27.3232 0.883885L38.1161 11.6768C38.2018 11.7625 38.25 11.8788 38.25 12V36C38.25 37.7949 36.7949 39.25 35 39.25H11C9.20507 39.25 7.75 37.7949 7.75 36V4Z" fill="white" stroke="#CDD5DF" stroke-width="1.5"/>
<path d="M27 0.5V8C27 10.2091 28.7909 12 31 12H38.5" stroke="#CDD5DF" stroke-width="1.5"/>
<rect x="0.147461" y="18" width="37.7049" height="16" rx="2" fill="#0F6AF5"/>
<path d="M6.17746 29.6L4.14746 22.4H5.70746L7.38746 28.99H6.89746L8.39746 22.4H10.1475L11.6275 28.99H11.1475L12.8375 22.4H14.3275L12.2975 29.6H10.5775L9.04746 23.14H9.44746L7.89746 29.6H6.17746Z" fill="white"/>
<path d="M15.1668 29.6V22.4H16.7068V29.6H15.1668ZM15.8868 29.6V28.42H20.5268V29.6H15.8868ZM15.8868 26.5V25.34H20.1768V26.5H15.8868ZM15.8868 23.58V22.4H20.4068V23.58H15.8868Z" fill="white"/>
<path d="M22.6182 29.6V28.5H24.4782C24.8116 28.5 25.0616 28.41 25.2282 28.23C25.4016 28.0433 25.4882 27.7867 25.4882 27.46C25.4882 27.1267 25.3949 26.8633 25.2082 26.67C25.0282 26.4767 24.7682 26.38 24.4282 26.38H22.6182V25.28H24.3482C24.6616 25.28 24.8982 25.2067 25.0582 25.06C25.2249 24.9067 25.3082 24.6833 25.3082 24.39C25.3082 24.0967 25.2282 23.8767 25.0682 23.73C24.9149 23.5767 24.6849 23.5 24.3782 23.5H22.6182V22.4H24.7082C25.3482 22.4 25.8649 22.5633 26.2582 22.89C26.6516 23.2167 26.8482 23.66 26.8482 24.22C26.8482 24.5733 26.7649 24.8767 26.5982 25.13C26.4316 25.3833 26.2082 25.5767 25.9282 25.71C25.6482 25.8433 25.3349 25.91 24.9882 25.91L25.0382 25.7C25.4116 25.7 25.7482 25.78 26.0482 25.94C26.3549 26.1 26.5982 26.3267 26.7782 26.62C26.9582 26.9067 27.0482 27.2467 27.0482 27.64C27.0482 28.0333 26.9549 28.38 26.7682 28.68C26.5882 28.9733 26.3316 29.2 25.9982 29.36C25.6716 29.52 25.2849 29.6 24.8382 29.6H22.6182ZM21.3582 29.6V22.4H22.8982V29.6H21.3582Z" fill="white"/>
<path d="M27.8524 29.6V22.4H31.2724C31.8057 22.4 32.2624 22.4933 32.6424 22.68C33.0291 22.8667 33.3257 23.1267 33.5324 23.46C33.7457 23.7933 33.8524 24.1833 33.8524 24.63C33.8524 25.0767 33.7457 25.47 33.5324 25.81C33.319 26.15 33.0191 26.4167 32.6324 26.61C32.2524 26.7967 31.799 26.89 31.2724 26.89H29.0724V25.71H31.1924C31.5457 25.71 31.819 25.6133 32.0124 25.42C32.2124 25.22 32.3124 24.96 32.3124 24.64C32.3124 24.32 32.2124 24.0633 32.0124 23.87C31.819 23.6767 31.5457 23.58 31.1924 23.58H29.3924V29.6H27.8524Z" fill="white"/>
</svg>
