<svg width="40" height="40" viewBox="0 0 40 40" fill="none" xmlns="http://www.w3.org/2000/svg">
<path d="M4 4C4 1.79086 5.79086 0 8 0H24L36 12V36C36 38.2091 34.2091 40 32 40H8C5.79086 40 4 38.2091 4 36V4Z" fill="url(#paint0_linear_6726_48870)"/>
<path d="M24 0L36 12H28C25.7909 12 24 10.2091 24 8V0Z" fill="#CDD5DF"/>
<path d="M8.51426 32L6.68726 25.52H8.09126L9.60326 31.451H9.16226L10.5123 25.52H12.0873L13.4193 31.451H12.9873L14.5083 25.52H15.8493L14.0223 32H12.4743L11.0973 26.186H11.4573L10.0623 32H8.51426Z" fill="#4B5565"/>
<path d="M16.6047 32V25.52H17.9907V32H16.6047ZM17.2527 32V30.938H21.4287V32H17.2527ZM17.2527 29.21V28.166H21.1137V29.21H17.2527ZM17.2527 26.582V25.52H21.3207V26.582H17.2527Z" fill="#4B5565"/>
<path d="M23.311 32V31.01H24.985C25.285 31.01 25.51 30.929 25.66 30.767C25.816 30.599 25.894 30.368 25.894 30.074C25.894 29.774 25.81 29.537 25.642 29.363C25.48 29.189 25.246 29.102 24.94 29.102H23.311V28.112H24.868C25.15 28.112 25.363 28.046 25.507 27.914C25.657 27.776 25.732 27.575 25.732 27.311C25.732 27.047 25.66 26.849 25.516 26.717C25.378 26.579 25.171 26.51 24.895 26.51H23.311V25.52H25.192C25.768 25.52 26.233 25.667 26.587 25.961C26.941 26.255 27.118 26.654 27.118 27.158C27.118 27.476 27.043 27.749 26.893 27.977C26.743 28.205 26.542 28.379 26.29 28.499C26.038 28.619 25.756 28.679 25.444 28.679L25.489 28.49C25.825 28.49 26.128 28.562 26.398 28.706C26.674 28.85 26.893 29.054 27.055 29.318C27.217 29.576 27.298 29.882 27.298 30.236C27.298 30.59 27.214 30.902 27.046 31.172C26.884 31.436 26.653 31.64 26.353 31.784C26.059 31.928 25.711 32 25.309 32H23.311ZM22.177 32V25.52H23.563V32H22.177Z" fill="#4B5565"/>
<path d="M28.0217 32V25.52H31.0997C31.5797 25.52 31.9907 25.604 32.3327 25.772C32.6807 25.94 32.9477 26.174 33.1337 26.474C33.3257 26.774 33.4217 27.125 33.4217 27.527C33.4217 27.929 33.3257 28.283 33.1337 28.589C32.9417 28.895 32.6717 29.135 32.3237 29.309C31.9817 29.477 31.5737 29.561 31.0997 29.561H29.1197V28.499H31.0277C31.3457 28.499 31.5917 28.412 31.7657 28.238C31.9457 28.058 32.0357 27.824 32.0357 27.536C32.0357 27.248 31.9457 27.017 31.7657 26.843C31.5917 26.669 31.3457 26.582 31.0277 26.582H29.4077V32H28.0217Z" fill="#4B5565"/>
<defs>
<linearGradient id="paint0_linear_6726_48870" x1="20" y1="0" x2="20" y2="40" gradientUnits="userSpaceOnUse">
<stop stop-color="#F9FAFB"/>
<stop offset="1" stop-color="#EDF0F3"/>
</linearGradient>
</defs>
</svg>
