<svg width="32" height="32" viewBox="0 0 32 32" fill="none" xmlns="http://www.w3.org/2000/svg">
<path d="M5.79742 6.99579L2.04553 10.3966L3.34372 12.0312C3.92184 11.6719 5.07809 10.7344 5.59372 10.7344C6.74997 10.7344 7.7894 13.8672 8.78122 17.3125C9.67184 20.4062 10.5937 28.0938 14.8437 28.0938C19.7343 28.0938 30.0156 14.8906 30.0156 9.01435C30.0156 6.88807 29.5937 3.82812 25.3593 3.82812C20.8218 3.82812 18.5895 8.20714 18.0405 10.3966C18.4354 10.1333 19.5105 9.95781 20.1029 9.95781C22.5164 9.95781 22.001 12.4595 21.6718 13.4688C21.3427 14.478 18.8125 19.3924 17.4481 19.3924C15.7806 19.3924 14.7932 12.1519 14.3105 9.01435C13.8278 5.87679 12.5772 4.16541 10.6683 4.16541C9.14123 4.16541 6.78477 6.05233 5.79742 6.99579Z" fill="#3CB9E6"/>
</svg>
