<svg width="32" height="32" viewBox="0 0 32 32" fill="none" xmlns="http://www.w3.org/2000/svg">
<g clip-path="url(#clip0_6726_48114)">
<path d="M27.0629 25.1429L32 12.0229L17.0514 8.68573L15.0857 14.2629L27.0629 25.1429Z" fill="#247CE6"/>
<path d="M32 25.6457L24.4572 32L9.41716 28.1143L13.44 20.8L32 25.6457Z" fill="url(#paint0_linear_6726_48114)"/>
<path d="M4.43429 15.9086L0.594292 4.93714L17.5543 0L16.1829 14.1714L4.43429 15.9086Z" fill="url(#paint1_linear_6726_48114)"/>
<path d="M27.9314 18.5143L23.1771 10.3771L23.2686 10.3314L17.5543 0L0 18.9714V32L31.9086 25.6457L27.9314 18.5143Z" fill="url(#paint2_linear_6726_48114)"/>
<path d="M6.1257 6.1257H25.8743V25.8743H6.1257V6.1257Z" fill="#222222"/>
<path d="M7.95428 22.1714H15.36V23.4057H7.95428V22.1714Z" fill="white"/>
<path d="M11.2 8.68573H12.8457L16.32 16.8686H14.4457L13.7143 15.04H10.2857L9.55427 16.8686H7.7257L11.2 8.68573ZM13.0743 13.44L11.9771 10.7886L10.88 13.44H13.0743Z" fill="white"/>
<path d="M15.8629 12.8457C15.8629 10.4685 17.6457 8.54852 20.16 8.54852C21.7143 8.54852 22.6286 9.05138 23.4057 9.82852L22.2629 11.1542C21.6229 10.56 20.9829 10.24 20.16 10.24C18.7886 10.24 17.7829 11.3828 17.7829 12.8C17.7829 14.2171 18.7429 15.4057 20.16 15.4057C21.12 15.4057 21.6686 15.04 22.3086 14.4457L23.4514 15.5885C22.5829 16.5028 21.6686 17.0514 20.0686 17.0514C17.6457 17.0514 15.8629 15.1771 15.8629 12.8457Z" fill="white"/>
</g>
<defs>
<linearGradient id="paint0_linear_6726_48114" x1="9.42493" y1="26.4023" x2="32" y2="26.4023" gradientUnits="userSpaceOnUse">
<stop offset="0.194" stop-color="#00DAF0"/>
<stop offset="0.903" stop-color="#247CE6"/>
</linearGradient>
<linearGradient id="paint1_linear_6726_48114" x1="0.582406" y1="7.96114" x2="17.5589" y2="7.96114" gradientUnits="userSpaceOnUse">
<stop offset="0.194" stop-color="#00DAF0"/>
<stop offset="0.903" stop-color="#247CE6"/>
</linearGradient>
<linearGradient id="paint2_linear_6726_48114" x1="20.9719" y1="33.0158" x2="5.11863" y2="10.891" gradientUnits="userSpaceOnUse">
<stop offset="0.091" stop-color="#1DDF93"/>
<stop offset="0.484" stop-color="#00DAF0"/>
<stop offset="0.903" stop-color="#247CE6"/>
</linearGradient>
<clipPath id="clip0_6726_48114">
<rect width="32" height="32" fill="white"/>
</clipPath>
</defs>
</svg>
