<svg width="32" height="32" viewBox="0 0 32 32" fill="none" xmlns="http://www.w3.org/2000/svg">
<g clip-path="url(#clip0_6726_48240)">
<path d="M3.65714 29.76L0.0457153 17.1886L23.6343 20.6629L20.2514 32L3.65714 29.76Z" fill="url(#paint0_linear_6726_48240)"/>
<path d="M10.7428 0.0457143L19.2457 2.46857L28.8914 0L32 21.1657L6.1257 17.1886L10.7428 0.0457143Z" fill="url(#paint1_linear_6726_48240)"/>
<path d="M32 21.0743L30.7657 13.2114L11.7029 6.58286L0.0457143 9.09714L0 17.2343L22.6743 23.4514L32 21.0743Z" fill="url(#paint2_linear_6726_48240)"/>
<path d="M6.1257 6.1257H25.8743V25.8743H6.1257V6.1257Z" fill="#222222"/>
<path d="M7.95428 22.1714H15.36V23.4057H7.95428V22.1714Z" fill="white"/>
<path d="M7.95428 8.68573H11.1086C13.6686 8.68573 15.4514 10.4686 15.4514 12.7543V12.8C15.4514 15.0857 13.6686 16.9143 11.1086 16.9143H7.95428V8.68573ZM9.73714 10.3314V15.2686H11.0629C12.5257 15.2686 13.5314 14.2629 13.5314 12.8V12.8C13.5314 11.3372 12.5257 10.3314 11.0629 10.3314H9.73714Z" fill="white"/>
<path d="M15.9085 8.73145H17.8743L19.9771 12.16L22.1257 8.73145H24.0457V16.8686H22.2628V11.52L19.9771 14.9943H19.9314L17.6914 11.5657V16.8686H15.9085V8.73145Z" fill="white"/>
</g>
<defs>
<linearGradient id="paint0_linear_6726_48240" x1="9.36092" y1="8.58608" x2="14.8407" y2="31.5237" gradientUnits="userSpaceOnUse">
<stop stop-color="#7866FF"/>
<stop offset="0.023" stop-color="#7E64FE"/>
<stop offset="0.195" stop-color="#AA56F3"/>
<stop offset="0.349" stop-color="#C94CEC"/>
<stop offset="0.48" stop-color="#DC45E8"/>
<stop offset="0.57" stop-color="#E343E6"/>
<stop offset="0.641" stop-color="#E859BC"/>
<stop offset="0.819" stop-color="#F48F58"/>
<stop offset="0.942" stop-color="#FCB019"/>
<stop offset="1" stop-color="#FFBD00"/>
</linearGradient>
<linearGradient id="paint1_linear_6726_48240" x1="22.5911" y1="18.949" x2="14.9577" y2="3.43588" gradientUnits="userSpaceOnUse">
<stop stop-color="#7866FF"/>
<stop offset="0.202" stop-color="#965CF8"/>
<stop offset="0.64" stop-color="#E343E6"/>
<stop offset="0.968" stop-color="#FFBD00"/>
</linearGradient>
<linearGradient id="paint2_linear_6726_48240" x1="12.0471" y1="24.5047" x2="16.5531" y2="13.8158" gradientUnits="userSpaceOnUse">
<stop offset="0.118" stop-color="#E343E6"/>
<stop offset="0.211" stop-color="#C84CEC"/>
<stop offset="0.338" stop-color="#AB55F3"/>
<stop offset="0.472" stop-color="#955DF8"/>
<stop offset="0.618" stop-color="#8562FC"/>
<stop offset="0.781" stop-color="#7B65FE"/>
<stop offset="1" stop-color="#7866FF"/>
</linearGradient>
<clipPath id="clip0_6726_48240">
<rect width="32" height="32" fill="white"/>
</clipPath>
</defs>
</svg>
