<svg width="32" height="32" viewBox="0 0 32 32" fill="none" xmlns="http://www.w3.org/2000/svg">
<g clip-path="url(#clip0_6726_48144)">
<path d="M22.7657 6.94861L16.4571 16.7772L26.6971 32L32 10.56L22.7657 6.94861Z" fill="url(#paint0_linear_6726_48144)"/>
<path d="M23.36 7.17714L22.4 0L8.5943 15.36L12.6172 19.3371L9.50858 32H26.6972L23.36 7.17714Z" fill="url(#paint1_linear_6726_48144)"/>
<path d="M22.4 0H5.30286L0 21.5314H25.4171L22.4 0Z" fill="url(#paint2_linear_6726_48144)"/>
<path d="M25.28 21.5314L23.36 7.17714L22.4 0L19.0629 10.5143L25.28 21.5314Z" fill="url(#paint3_linear_6726_48144)"/>
<path d="M25.8716 25.8815L6.12304 25.9324L6.07209 6.18385L25.8207 6.1329L25.8716 25.8815Z" fill="#222222"/>
<path d="M8.0441 22.2267L15.4498 22.2076L15.453 23.4419L8.04729 23.461L8.0441 22.2267Z" fill="white"/>
<path d="M7.95428 8.73145H11.7029C12.7543 8.73145 13.5314 9.00573 14.08 9.5543C14.5371 10.0114 14.7657 10.6514 14.7657 11.4286V11.4743C14.7657 12.16 14.6286 12.6629 14.2629 13.0743C13.9429 13.4857 13.5314 13.8057 12.9829 13.9886L14.9943 16.9143H12.8914L11.2 14.4H9.69143V16.9143H7.90857L7.95428 8.73145ZM11.5657 12.7086C12.0229 12.7086 12.3429 12.6172 12.5714 12.3886C12.8 12.16 12.9371 11.8857 12.9371 11.5657V11.52C12.9371 11.1086 12.8 10.8343 12.5714 10.6514C12.3429 10.4686 11.9771 10.3772 11.52 10.3772H9.73714V12.7086H11.5657Z" fill="white"/>
<path d="M16.4571 15.1772H15.5886V13.6686H16.7314L17.0057 11.9314H15.9543V10.4229H17.2343L17.5086 8.73145H19.0629L18.7886 10.4229H20.48L20.7543 8.73145H22.3086L22.0343 10.4229H22.9029V11.9314H21.76L21.4857 13.6686H22.5371V15.1772H21.2571L20.9371 16.9143H19.3829L19.7029 15.1772H18.0114L17.6914 16.9143H16.1371L16.4571 15.1772ZM19.9771 13.6686L20.2514 11.9314H18.56L18.2857 13.6686H19.9771Z" fill="white"/>
</g>
<defs>
<linearGradient id="paint0_linear_6726_48144" x1="10.4891" y1="34.6455" x2="34.1883" y2="9.43638" gradientUnits="userSpaceOnUse">
<stop offset="0.016" stop-color="#B35BA3"/>
<stop offset="0.404" stop-color="#C41E57"/>
<stop offset="0.468" stop-color="#C41E57"/>
<stop offset="0.65" stop-color="#EB8523"/>
<stop offset="0.952" stop-color="#FEBD11"/>
</linearGradient>
<linearGradient id="paint1_linear_6726_48144" x1="8.10013" y1="33.5049" x2="31.797" y2="8.29806" gradientUnits="userSpaceOnUse">
<stop offset="0.016" stop-color="#B35BA3"/>
<stop offset="0.404" stop-color="#C41E57"/>
<stop offset="0.468" stop-color="#C41E57"/>
<stop offset="0.704" stop-color="#EB8523"/>
</linearGradient>
<linearGradient id="paint2_linear_6726_48144" x1="0.835658" y1="24.4242" x2="22.32" y2="4.2176" gradientUnits="userSpaceOnUse">
<stop offset="0.016" stop-color="#B35BA3"/>
<stop offset="0.661" stop-color="#C41E57"/>
</linearGradient>
<linearGradient id="paint3_linear_6726_48144" x1="22.8087" y1="-5.2832" x2="22.3355" y2="10.9874" gradientUnits="userSpaceOnUse">
<stop offset="0.5" stop-color="#C41E57"/>
<stop offset="0.667" stop-color="#D13F48"/>
<stop offset="0.795" stop-color="#D94F39"/>
<stop offset="0.866" stop-color="#DD5433"/>
</linearGradient>
<clipPath id="clip0_6726_48144">
<rect width="32" height="32" fill="white"/>
</clipPath>
</defs>
</svg>
