<svg width="32" height="32" viewBox="0 0 32 32" fill="none" xmlns="http://www.w3.org/2000/svg">
<g clip-path="url(#clip0_6726_48221)">
<path d="M4.29714 28.9371L0 3.33714L8 0.0457153L13.0743 3.06286L17.7371 0.548573L27.4743 4.29714L21.9886 32L4.29714 28.9371Z" fill="url(#paint0_linear_6726_48221)"/>
<path d="M32 10.8343L27.8857 0.64L20.3886 0L8.82288 11.1086L11.9314 25.4171L17.7372 29.5314L32 21.0286L28.48 14.4914L32 10.8343Z" fill="url(#paint1_linear_6726_48221)"/>
<path d="M25.6 9.32569L28.48 14.4914L32 10.8343L29.44 4.47998L25.6 9.32569Z" fill="url(#paint2_linear_6726_48221)"/>
<path d="M6.1257 6.1257H25.8743V25.8743H6.1257V6.1257Z" fill="#222222"/>
<path d="M8 22.1714H15.4057V23.4057H8V22.1714Z" fill="white"/>
<path d="M17.6914 15.68L18.7429 14.4C19.4743 14.9943 20.2514 15.4057 21.1657 15.4057C21.8972 15.4057 22.3086 15.1314 22.3086 14.6286V14.5829C22.3086 14.1257 22.0343 13.8972 20.6629 13.5314C19.0172 13.12 18.0114 12.6629 18.0114 11.0172V10.9714C18.0114 9.46287 19.2 8.50287 20.8457 8.50287C22.0343 8.50287 23.04 8.86858 23.8629 9.5543L22.9486 10.9257C22.2172 10.4229 21.5314 10.1029 20.8457 10.1029C20.16 10.1029 19.7943 10.4229 19.7943 10.8343V10.88C19.7943 11.4286 20.16 11.6114 21.5314 11.9772C23.1771 12.4343 24.0914 13.0286 24.0914 14.4457V14.4914C24.0914 16.1372 22.8572 17.0514 21.12 17.0514C19.8857 17.0057 18.6514 16.5486 17.6914 15.68Z" fill="white"/>
<path d="M16.0914 8.68573L14.8571 13.44L13.4857 8.68573H12.1143L10.6971 13.44L9.46283 8.68573H7.58855L9.91998 16.8686H11.4285L12.8 12.1143L14.1257 16.8686H15.68L18.0114 8.68573H16.0914Z" fill="white"/>
</g>
<defs>
<linearGradient id="paint0_linear_6726_48221" x1="11.4597" y1="0.66743" x2="19.7408" y2="30.48" gradientUnits="userSpaceOnUse">
<stop offset="0.285" stop-color="#00CDD7"/>
<stop offset="0.941" stop-color="#2086D7"/>
</linearGradient>
<linearGradient id="paint1_linear_6726_48221" x1="14.0434" y1="4.44983" x2="28.0526" y2="24.9925" gradientUnits="userSpaceOnUse">
<stop offset="0.14" stop-color="#FFF045"/>
<stop offset="0.366" stop-color="#00CDD7"/>
</linearGradient>
<linearGradient id="paint2_linear_6726_48221" x1="27.9232" y1="6.98969" x2="29.7627" y2="13.5058" gradientUnits="userSpaceOnUse">
<stop offset="0.285" stop-color="#00CDD7"/>
<stop offset="0.941" stop-color="#2086D7"/>
</linearGradient>
<clipPath id="clip0_6726_48221">
<rect width="32" height="32" fill="white"/>
</clipPath>
</defs>
</svg>
