<svg width="60" height="45" viewBox="0 0 60 45" fill="none" xmlns="http://www.w3.org/2000/svg">
<g clip-path="url(#clip0_4_18325)">
<path d="M0 0H60V45H0V0Z" fill="#E41E20"/>
<path d="M25.5 8.74689C25.0688 8.74689 24.3469 8.88751 24.3563 9.21564C23.1375 9.01876 23.0156 9.51564 23.0906 9.96564C23.2031 9.78751 23.3438 9.68439 23.4563 9.67501C23.6156 9.64689 23.7844 9.70314 23.9625 9.80626C24.1305 9.91166 24.2821 10.0412 24.4125 10.1906C23.9813 10.2938 23.6438 10.2281 23.3063 10.1719C23.1155 10.1312 22.9342 10.0549 22.7719 9.94689C22.6313 9.85314 22.5844 9.75939 22.3688 9.54376C22.1156 9.28126 21.8438 9.35626 21.9281 9.75939C22.125 10.1344 22.4531 10.3031 22.8656 10.3781C23.0625 10.4063 23.3625 10.4719 23.7 10.4719C24.0375 10.4719 24.4125 10.425 24.6188 10.4719C24.4969 10.5469 24.3563 10.6875 24.075 10.7344C23.7938 10.7906 23.3719 10.5656 23.1094 10.5094C23.1375 10.725 23.4188 10.9313 23.9625 11.0438C24.8625 11.2313 25.6031 11.3813 26.1 11.6531C26.4929 11.8722 26.8399 12.1651 27.1219 12.5156C27.5625 13.0313 27.5906 13.4344 27.6094 13.5281C27.7031 14.3531 27.4125 14.8219 26.8688 14.9719C26.6063 15.0375 26.1188 14.9063 25.95 14.7C25.7625 14.4938 25.6031 14.1375 25.65 13.575C25.6969 13.3688 25.9406 12.7969 25.7344 12.6844C24.7569 12.1472 23.7453 11.6743 22.7063 11.2688C22.4719 11.175 22.2844 11.4938 22.2094 11.625C21.5171 11.5285 20.8551 11.279 20.2713 10.8947C19.6875 10.5104 19.1967 10.0009 18.8344 9.40314C18.4406 8.69064 17.775 9.40314 17.8875 10.0875C18.0656 10.8375 18.6375 11.3813 19.3313 11.775C20.0344 12.1594 20.925 12.5438 21.8156 12.525C22.3031 12.6188 22.2938 13.2375 21.7219 13.3594C20.5875 13.3594 19.6781 13.3406 18.825 12.5156C18.1781 11.925 17.8219 12.6281 18 13.0219C18.3188 14.25 20.0719 14.5969 21.8438 14.2031C22.5375 14.0906 22.125 14.8219 21.9375 14.8313C21.1875 15.3656 19.8656 15.8813 18.6938 14.8313C18.1594 14.4188 17.7938 14.7563 18 15.3469C18.5156 16.8938 20.5031 16.5656 21.8625 15.8156C22.2094 15.6188 22.5281 16.0688 22.1063 16.4156C20.4094 17.5969 19.5656 17.6156 18.7969 17.1656C17.8406 16.7813 17.7656 17.8406 18.3281 18.1969C18.9563 18.5719 20.5594 18.2906 21.7406 17.5406C22.2469 17.1656 22.2656 17.7563 21.9469 17.9906C20.55 19.2 19.9969 19.5188 18.5438 19.3219C17.8219 19.2656 17.8313 20.1563 18.3938 20.5031C19.1719 20.9813 20.6906 20.1938 21.8625 19.2094C22.3594 18.9469 22.4438 19.3781 22.2 19.8938C21.681 20.6281 20.9755 21.2106 20.1563 21.5813C19.5 21.8344 18.8813 21.7969 18.4406 21.6469C17.8969 21.4594 17.8313 22.0219 18.1313 22.5281C18.3094 22.8375 19.05 22.9313 19.8563 22.65C20.6625 22.3688 21.525 21.6938 22.1156 20.9156C22.6313 20.4563 22.575 21.0656 22.3313 21.4969C21.15 23.3719 20.0625 24.0656 18.6281 23.9531C18 23.8406 17.85 24.3281 18.2531 24.7969C18.9656 25.3781 19.8469 25.3594 20.6344 24.7781C21.3188 24.1219 22.6406 22.6781 23.3344 21.9094C23.8219 21.525 23.9813 21.9094 23.8313 22.6969C23.7 23.1469 23.3813 23.6344 22.4906 23.9719C21.8813 24.3188 22.3406 24.7969 22.7906 24.8156C23.0438 24.8156 23.55 24.5156 23.9438 24.0844C24.45 23.5031 24.4875 23.1188 24.7688 22.2188C25.0313 21.7875 25.5094 21.9938 25.5094 22.4438C25.275 23.3438 25.0875 23.5031 24.6188 23.8688C24.1781 24.2906 24.9281 24.4313 25.1813 24.2531C25.9125 23.7656 26.175 23.1281 26.4188 22.5469C26.6063 22.1344 27.1125 22.3313 26.8688 23.0156C26.3063 24.6469 25.3688 25.2844 23.7469 25.6219C23.5875 25.65 23.4844 25.7438 23.5406 25.9313L24.1969 26.5875C23.1938 26.8875 22.3781 27.0563 21.3656 27.3375L19.9781 26.4188C19.8563 26.1188 19.7906 25.65 19.0594 25.9781C18.5719 25.7531 18.3375 25.8375 18.0656 26.0719C18.4594 26.0719 18.6281 26.1844 18.7875 26.3625C18.9938 26.8969 19.4625 26.9531 19.9406 26.8031C20.25 27.0563 20.4094 27.2625 20.7281 27.525L19.1625 27.4781C18.6 26.8875 18.1688 26.9156 17.775 27.3844C17.4656 27.4313 17.3438 27.4313 17.1375 27.7969C17.4563 27.6656 17.6625 27.6281 17.8031 27.7688C18.3938 28.1156 18.7781 28.0406 19.0688 27.7688L20.7094 27.8719C20.5031 28.0594 20.2219 28.1531 20.0063 28.3219C19.1625 28.0781 18.7125 28.4156 18.5625 29.1C18.444 29.3743 18.405 29.6765 18.45 29.9719C18.525 29.6906 18.6656 29.4563 18.9094 29.3156C19.6594 29.5031 19.9406 29.1938 19.9875 28.7438C20.3625 28.4438 20.9063 28.3781 21.2719 28.0781C21.7031 28.2094 21.9094 28.2938 22.3406 28.4344C22.4906 28.9031 22.8375 29.0813 23.4 28.9594C24.0563 28.9781 23.9438 29.2594 24 29.475C24.1875 29.1656 24.1781 28.8563 23.7656 28.575C23.6156 28.1719 23.2781 27.9844 22.8469 28.2188C22.4344 28.1063 22.3313 27.9375 21.9188 27.8156C22.95 27.4875 23.6813 27.4125 24.7125 27.0844L25.4344 27.7219C25.575 27.8063 25.7063 27.825 25.7906 27.7219C26.4375 26.7844 26.7281 25.9688 27.3188 25.35C27.5531 25.0875 27.8438 24.75 28.1625 24.6656C28.3219 24.6188 28.5188 24.6469 28.65 24.7875C28.7719 24.9188 28.875 25.1719 28.8375 25.5563C28.7719 26.0906 28.6406 26.2688 28.4906 26.5875C28.3313 26.9156 28.1531 27.1125 27.9563 27.3656C27.5813 27.8625 27.075 28.1531 26.775 28.35C26.175 28.7344 25.9313 28.5656 25.4625 28.5375C24.8625 28.6031 24.7125 28.8938 25.2 29.2969C25.65 29.5406 26.0625 29.5688 26.4 29.5031C26.6813 29.4469 27.0188 29.0813 27.2625 28.8844C27.525 28.575 27.975 28.9406 27.6656 29.3063C27.1125 29.9625 26.5688 30.3938 25.8844 30.3844C25.1625 30.4781 25.3031 30.8813 25.7719 31.0781C26.6344 31.425 27.4031 30.7688 27.7969 30.3281C28.0969 30 28.3125 29.9906 28.2656 30.5063C27.9563 31.4344 27.5531 31.7906 26.8781 31.8375C26.3344 31.7813 26.325 32.2125 26.7281 32.4938C27.6281 33.1125 28.2844 32.0438 28.5938 31.4063C28.8094 30.825 29.1469 31.0969 29.1844 31.575C29.1844 32.2219 28.9031 32.7375 28.125 33.3938C28.7156 34.3406 29.4094 35.3063 30 36.2531L31.8 16.1906L30 13.0313C29.8125 12.8625 29.175 12.1125 29.0156 12C28.95 11.9438 28.9219 11.9063 29.0063 11.8688C29.0906 11.8313 29.2875 11.7938 29.4281 11.775C29.0531 11.3906 28.7156 11.2688 27.9938 11.0625C28.1719 10.9875 28.3406 11.025 28.8656 11.0063C28.5435 10.5734 28.1044 10.2417 27.6 10.05C27.9938 9.76876 28.0688 9.75001 28.4625 9.42189C27.8415 9.37391 27.228 9.25437 26.6344 9.06564C26.2799 8.89717 25.8996 8.78942 25.5094 8.74689H25.5ZM25.575 9.53439C25.9313 9.53439 26.1469 9.65626 26.1469 9.80626C26.1469 9.95626 25.9313 10.0781 25.575 10.0781C25.2188 10.0781 24.9938 9.93751 24.9938 9.79689C24.9938 9.64689 25.2188 9.53439 25.575 9.53439V9.53439Z" fill="black"/>
</g>
<defs>
<clipPath id="clip0_4_18325">
<rect width="60" height="45" fill="white"/>
</clipPath>
</defs>
</svg>
