<svg width="60" height="45" viewBox="0 0 60 45" fill="none" xmlns="http://www.w3.org/2000/svg">
<g clip-path="url(#clip0_4_18217)">
<path d="M0 0H60V45H0V0Z" fill="#000066"/>
<path d="M-0.0562515 22.5L59.9437 0V45L-0.0562515 22.5Z" fill="#BD1021"/>
<path d="M5.59688 22.5L59.9719 2.40936V42.5906" fill="white"/>
<path d="M44.4375 25.35C44.9156 25.3781 44.9062 25.8563 44.9062 25.8563L46.5937 25.8938C46.8094 25.3031 47.0437 25.3688 47.4562 25.6688C47.7073 25.8394 47.9821 25.9721 48.2719 26.0625C48.4312 25.2188 49.6312 25.3875 49.6312 25.3875C50.1562 24.1688 50.1937 24.1781 49.8844 24.0281C49.7007 23.9351 49.5502 23.7878 49.4531 23.6063C49.1719 23.2594 49.0219 22.7531 48.9844 22.4438C48.9469 22.1344 48.5906 22.5938 48.5156 22.5C48.4594 22.4063 47.925 22.4625 47.925 22.4625C48.0562 22.6032 47.6062 22.5188 47.6062 22.5188C47.6531 22.5563 47.6062 22.6781 47.6062 22.6781C47.5687 22.6219 47.2219 22.5656 47.2219 22.5656C47.1957 22.6208 47.1609 22.6715 47.1187 22.7156C46.9312 22.6406 46.5562 22.65 46.5562 22.65C46.1975 22.6379 45.8428 22.729 45.5344 22.9125C45.3844 22.9969 44.8406 23.2688 44.3812 23.7094C43.9406 24.1406 43.6875 24.0844 43.6875 24.0844C43.5562 24.5719 42.4875 25.1625 42.4875 25.1625C42.3187 25.3125 41.775 25.3875 41.5031 25.1625C41.2312 24.9375 41.5031 24.5156 41.5031 24.5156C41.6156 24.3281 41.7094 24.3375 41.7187 23.6719C41.7281 23.2313 42.1875 22.875 42.6562 22.3594C43.2469 21.7219 44.0625 20.6719 44.0625 20.6719C44.0625 20.9906 44.2312 21.0469 44.2312 21.0469C44.3906 20.7188 44.625 20.4563 44.625 20.4563C44.6344 20.4844 44.6719 20.4938 44.6719 20.4938C44.8594 20.25 44.9531 20.1563 44.9531 20.1563C44.9062 20.1281 44.3906 20.1563 43.9219 20.5688C43.4531 20.9813 43.1344 20.85 43.1344 20.85C42.8062 20.7375 42.7781 20.475 42.7781 20.475C42.5437 19.4531 43.4719 18.7219 43.4719 18.7219C42.2156 18.4219 43.125 16.8188 44.6906 16.1438C46.2469 15.4688 46.2281 15.1594 46.2281 15.1594C46.2968 15.2451 46.3535 15.3397 46.3969 15.4406C46.4062 15.4406 46.5281 15.2625 47.4281 14.8688C48.3281 14.4657 48.7594 14.1188 48.7594 14.1188C48.8719 14.3438 48.8531 14.4938 48.8531 14.4938C51.3187 13.6407 53.7281 11.6625 53.7281 11.6625C53.8031 11.8219 53.775 12.075 53.775 12.075C54.1687 11.7 55.6219 10.8375 55.6219 10.8375C55.6324 10.9937 55.5972 11.1495 55.5206 11.286C55.444 11.4226 55.3294 11.5338 55.1906 11.6063C55.2269 11.6737 55.2522 11.7465 55.2656 11.8219C55.7227 11.5359 56.1728 11.2389 56.6156 10.9313C57.0187 11.2781 56.6531 11.85 56.6531 11.85C56.8031 11.8219 56.8969 11.7 56.8969 11.7C57.0094 12.3 56.3437 12.825 56.3437 12.825C56.4656 12.825 56.6531 12.7031 56.6531 12.7031C56.5312 13.3594 55.3031 14.0719 55.3031 14.0719C55.4812 14.2407 55.3031 14.4469 55.1531 14.5407C55.0125 14.6344 54.75 14.85 54.8344 14.9344C54.9094 15.0281 55.4625 14.6344 55.4625 14.6344C55.5562 14.9063 54.8531 15.4406 54.8531 15.4406C55.3406 15.5063 56.6906 14.8875 56.6906 14.8875C56.5875 15.4125 56.0719 15.825 55.4437 16.0594C54.8156 16.2938 54.8437 16.3406 54.8437 16.3406C54.9562 16.4156 55.8281 16.1719 55.8281 16.1719C55.5656 16.7531 54.6562 17.1563 54.6562 17.1563C54.9094 17.3719 55.2469 17.1188 55.5937 16.8844C56.0027 16.6272 56.4441 16.4254 56.9062 16.2844C57.4031 16.1063 57.7687 16.2375 57.7687 16.2375C58.2 16.1063 58.5562 16.2938 58.5562 16.2938C59.3719 16.3594 59.4562 16.6594 59.4562 16.6594C59.55 16.6781 59.6156 16.7156 59.8312 16.875C60.0281 17.025 60.0187 17.4938 60.0187 17.7375C60 17.9625 59.9344 17.9625 59.8969 18.0188C59.8594 18.0938 59.85 18.1688 59.85 18.2531C59.85 18.3469 59.6437 18.9 58.3781 18.9H56.475C56.3625 18.9 56.2406 18.9656 56.2406 18.9656C55.7062 19.2281 55.9875 18.7781 55.3594 19.3031C54.7219 19.8188 54.4031 19.7344 54.4031 19.7344C54.049 20.0964 53.6631 20.4259 53.25 20.7188C52.875 20.9625 52.9406 20.9344 53.2781 21.075C53.6156 21.2156 54.1031 21.075 54.1031 21.075C53.7844 21.2906 54.0094 21.3938 54.0094 21.3938C54.4219 21.1406 54.6844 21.2344 54.6844 21.2344C54.8156 21.6 54.3281 22.1719 54.3281 22.1719C54.5156 22.2 54.8719 22.1719 54.8719 22.1719C54.7781 22.425 54.4406 22.6969 54.1781 22.7719C53.925 22.8656 53.9625 22.8938 54.0469 23.0531C54.1125 23.2031 54.0562 23.3625 54.0562 23.3625C53.6062 23.0531 53.5875 23.325 53.5875 23.325C53.5406 23.7 53.55 24.225 53.55 24.225C53.2312 24.0656 53.2219 24.2719 53.2219 24.2719C53.1281 24.6094 52.7437 24.9938 52.7437 24.9938C52.725 24.7875 52.5375 24.7313 52.5375 24.7313C52.3312 25.125 51.9656 25.3594 51.9656 25.3594C51.9187 25.6875 52.0125 26.1656 52.0125 26.1656C51.7687 26.1094 51.6844 26.1094 51.6375 26.1656C51.6094 26.2313 51.6937 26.2594 51.6937 26.2594L54.825 26.3344C54.8719 26.3344 55.0594 26.3625 55.0594 26.6906C55.0594 27.0375 54.7781 27.0563 54.7781 27.0563L51.3656 26.9719C51.3656 26.9719 51.375 27.0656 51.1969 27.1594C51.0187 27.2531 51.0844 27.0563 51.0375 27.4781C50.9812 27.8906 50.3062 27.4406 50.3062 27.4406C50.1937 27.6094 49.9312 27.8156 49.9312 27.8156C49.7719 27.3469 49.6125 27.2156 49.3687 27.6094C49.125 28.0125 49.8187 27.9469 49.8187 27.9469C49.8187 27.9469 53.8312 27.3563 54.0469 27.3375C54.2625 27.3094 54.5062 27.3281 54.6094 27.6281C54.7031 27.9375 54.1125 27.9844 54.1125 27.9844L49.9875 28.4344C49.9031 28.6781 49.5656 28.6594 49.5656 28.6594C49.5937 28.8938 49.35 29.0344 49.2281 29.1281C49.0969 29.2031 48.7031 29.175 48.7031 29.175C48.2344 29.4938 47.9906 29.2406 47.9906 29.2406C47.6812 29.3719 47.4844 29.3156 47.2312 29.2031C46.9687 29.0906 46.9969 28.7813 46.9969 28.7813L44.3906 29.0625C44.3154 29.0867 44.2454 29.1249 44.1844 29.175C44.2781 29.2969 43.9969 29.5781 43.9969 29.5781C44.0812 29.625 44.2312 29.775 44.25 30.0938C44.2687 30.4406 43.8281 30.4969 44.0437 30.75C44.2594 30.9844 44.6719 30.7781 45.1219 30.5625C45.5719 30.3469 46.0125 30.375 46.2 30.375C46.3875 30.375 46.9312 30.525 47.2687 30.6375C47.6062 30.75 47.7187 30.675 47.7375 30.5063C47.7562 30.3469 47.9156 30.2906 47.9156 30.2906C47.8687 30.4594 47.9625 30.5344 47.9625 30.5344C48.0845 30.5149 48.202 30.4736 48.3094 30.4125C48.2906 30.5438 48.1219 30.6188 48.1219 30.6188C47.8031 30.8344 48.2531 30.7594 48.2531 30.7594C49.1437 30.5719 49.4719 30.5906 49.6969 30.6188C50.1534 30.7533 50.6012 30.9161 51.0375 31.1063C51.075 30.9938 51.0469 30.7313 51.0469 30.7313C51.3281 30.8063 51.4406 30.9656 51.4406 30.9656C51.5531 30.8531 51.4781 30.6469 51.4781 30.6469C52.3875 31.1625 51.2906 31.3969 51 31.4906C50.7187 31.5844 50.7187 31.7063 50.7187 31.7063C50.9531 31.6313 51.1219 31.6031 51.3187 31.5844C51.525 31.5656 51.45 31.5844 51.9281 31.4906C52.4156 31.3969 52.6594 31.6031 52.6594 31.6031C52.2562 31.6219 52.1437 31.7438 52.1437 31.7438C52.3875 31.9031 52.1437 32.0625 52.1437 32.0625C51.7875 31.5938 51.4687 32.0719 51.4687 32.0719C51.6759 32.0718 51.8806 32.1166 52.0687 32.2031L52.575 32.4563C52.9125 32.6063 52.8469 32.5125 53.1 32.6063C53.3625 32.7 53.2594 32.9531 53.2594 32.9531C53.1562 32.7469 52.9125 32.6719 52.9125 32.6719C52.8937 32.9531 52.6219 33 52.6219 33C52.9594 32.625 52.2375 32.4563 51.8906 32.4656C51.5531 32.4656 51.3 32.6906 51.3 32.6906C51.9844 33.3375 52.4531 33.1219 52.4531 33.1219C52.3687 33.3563 51.8062 33.2625 51.8062 33.2625C52.0687 33.4688 52.0406 33.6 52.0406 33.6C51.9 33.4688 51.6656 33.5344 51.1781 33.225C50.6906 32.8969 50.25 33.0094 50.25 33.0094C50.7375 33.5063 50.0812 33.8156 50.0812 33.8156C49.8375 33.9656 50.175 34.1438 50.175 34.1438C49.875 34.2 49.8375 33.9 49.8375 33.9C49.6781 33.8625 49.4437 34.05 49.4437 34.05C49.4625 33.75 49.875 33.9 49.875 33.5813C49.8937 33.2531 49.5 33 48.3469 33.1594C47.1844 33.3188 46.8469 32.9531 46.8469 32.9531C46.7531 32.9531 46.7344 33.0469 46.7344 33.0469C46.9219 33.2344 47.0062 33.3094 46.9781 33.4406C46.9406 33.5625 47.0344 33.6094 47.0344 33.6094C46.8187 33.5906 46.8094 33.3469 46.8094 33.3469C46.8094 33.45 46.7625 33.4594 46.6875 33.5625C46.6125 33.6656 46.6875 33.8156 46.6875 33.8156C46.5937 33.7406 46.4344 33.6469 46.5937 33.4125C46.7062 33.2438 46.3406 33.0188 46.3406 33.0188C46.2 32.8781 45.8156 33.0188 45.8156 33.0188C45.5952 33.0658 45.3667 33.0589 45.1496 32.9985C44.9325 32.9381 44.7332 32.826 44.5687 32.6719C44.475 32.6719 44.2969 32.6156 44.2969 32.6156C43.4625 32.9906 42.7312 32.1844 42.7312 32.1844C42.1031 32.3063 41.8125 31.9969 41.625 31.6969C41.517 31.4924 41.3461 31.3281 41.1375 31.2281C40.8937 31.0781 40.65 30.6469 40.8937 30.4125C41.0812 30.2156 41.0344 30.1688 41.0344 30.1688C40.7062 29.6156 41.6062 29.4469 41.625 29.3063C41.6531 29.1188 41.8406 28.9969 42.0469 28.9875C42.2531 28.9688 42.2531 28.9875 42.3937 28.8563C42.5156 28.7156 42.7687 28.8844 42.7687 28.8844C42.8344 28.8469 43.2844 28.5 43.6781 28.6781C44.0812 28.8563 44.4187 28.7344 44.4187 28.7344C44.7 28.6688 47.0437 28.3594 47.0437 28.3594C47.1844 28.125 47.2969 27.8531 47.9437 27.7031C48.5906 27.5531 49.0687 27.1406 49.0687 27.1406C48.9562 27.0281 48.7687 27.0281 48.675 27.0188C48.5719 27.0188 48.375 26.8313 48.375 26.8313C48.2531 26.8875 48.1875 26.8594 47.3437 27.375C46.5844 27.8438 46.5656 26.925 46.5656 26.925H44.9062C44.8781 27.2719 44.625 27.4125 44.625 27.4125L44.0156 27.4406C43.6781 27.2719 43.6781 26.6719 43.6781 26.6719C41.8594 26.7 40.8562 27.3469 40.8562 27.3469C38.7937 26.2969 37.1812 26.0531 37.1812 26.0531C38.5019 25.9575 39.796 25.6339 41.0062 25.0969C41.8168 25.5874 42.7329 25.8767 43.6781 25.9406C43.725 25.4344 44.0625 25.3125 44.0625 25.3125L44.4375 25.35Z" fill="black"/>
<path d="M41.4656 29.4938C40.95 29.7938 41.0437 29.9625 41.0906 30.0563C41.1375 30.15 41.1375 30.2438 40.9969 30.3938C40.8562 30.5344 40.8656 30.5813 40.8656 30.5813C40.8937 31.0875 41.2406 31.2 41.4 31.3313C41.5312 31.425 41.7375 31.7531 41.7375 31.7531C42.0094 32.1375 42.2906 32.1469 42.4969 32.1469C42.7125 32.1469 42.6844 32.1188 42.5906 32.025L42.2719 31.7719C42.4807 31.8606 42.669 31.9915 42.825 32.1563C43.35 32.7375 43.8375 32.6625 44.0531 32.6438C44.2687 32.6156 44.2406 32.4844 44.2406 32.4844C44.1677 32.4618 44.092 32.4491 44.0156 32.4469C43.2187 32.3719 42.9844 31.8469 42.9844 31.8469C43.3892 32.2028 43.9079 32.4024 44.4469 32.4094C44.6719 32.4 44.6625 32.4656 44.6062 32.4844L44.3812 32.4656C44.2781 32.4656 44.2781 32.4938 44.2969 32.5406C44.325 32.5781 44.4281 32.5781 44.55 32.5781C44.6813 32.5781 44.5781 32.5875 44.9062 32.8406C45.2437 33.1031 46.0594 32.8875 46.0594 32.8875C45.525 32.7656 45.4594 32.5125 45.4594 32.5125C44.7375 32.6063 44.4469 32.175 44.4469 32.175C44.2835 32.0481 44.1076 31.9382 43.9219 31.8469C43.5281 31.6688 43.4531 31.3031 43.4531 31.3031C43.575 31.4719 43.8 31.6594 44.0813 31.7344C44.3625 31.8094 44.4375 31.8469 44.4375 31.8469C44.3654 31.8632 44.2901 31.8566 44.2219 31.8281C43.9406 31.7344 44.1 31.8563 44.1 31.8563C44.4187 32.1094 44.5031 32.0906 44.5031 32.0906C45.3094 32.175 44.9062 31.8469 44.9062 31.8469C45.4875 31.9875 45.5813 31.7719 45.5813 31.7719C45.7031 32.025 46.1438 31.9313 46.1438 31.9313C45.5625 32.2125 46.0031 32.1281 46.0031 32.1281C46.5938 32.025 46.7156 32.175 46.7156 32.175C46.8656 32.3156 47.0344 32.3063 47.0344 32.3063C47.0344 32.3063 47.1469 32.3063 47.3625 32.3438C47.5875 32.3906 47.9437 32.5781 48.2625 32.55C48.5906 32.5031 48.6375 32.6063 48.6375 32.6063C48.5812 32.5781 48.4312 32.5594 48.1875 32.6719C47.9344 32.7938 47.4937 32.8219 46.8562 32.6719C46.2187 32.5219 46.1625 32.55 46.1625 32.55C46.3219 32.6531 46.4531 32.8219 46.4812 32.925C46.5094 33.0375 46.6219 33.0375 46.6219 33.0375C46.6687 32.8969 46.8562 32.8406 46.8562 32.8406C47.0027 32.9445 47.1599 33.0325 47.325 33.1031C47.3625 33.0375 47.325 32.9813 47.325 32.9813C47.5687 33.2156 47.85 33.1406 47.85 33.1406C47.925 33.0938 47.9062 32.9531 47.9062 32.9531C48 32.9531 48.0187 33.0094 48.0937 33.0656C48.1594 33.1031 48.375 33.075 48.375 33.075C48.3 33.0375 48.2344 32.9156 48.2344 32.9156C48.5625 32.7 49.2656 32.7938 49.2656 32.7938C49.7625 32.8875 49.7062 33.2156 49.7062 33.2156C49.7946 33.268 49.8738 33.3345 49.9406 33.4125C49.9875 33.3 49.9406 33.1781 49.9406 33.1781C50.1844 33.2906 50.2219 33.5531 50.2219 33.5531C50.5031 33.2531 49.9687 32.9156 49.9687 32.9156C50.2219 32.8781 50.5031 32.8969 50.6719 32.9156C50.9005 32.9553 51.1142 33.0557 51.2906 33.2063C51.4875 33.3656 51.8437 33.4406 51.8437 33.4406C51.8344 33.375 51.6375 33.2531 51.5906 33.2344C51.5531 33.2156 51.5344 33.15 51.5344 33.15C51.7125 33.1875 51.825 33.1688 51.825 33.1688C51.225 32.7938 51.0656 32.6156 51.0656 32.6156C51.2906 32.6438 51.4219 32.5031 51.4219 32.5031C50.9437 32.5031 50.9156 32.3906 50.9156 32.3906C50.9812 32.4 51.2062 32.4563 51.4969 32.4C51.7875 32.3438 52.1719 32.4 52.1719 32.4C51.9656 32.0625 51.1687 32.1188 50.9062 32.1375C50.6437 32.1563 50.55 32.1188 50.55 32.1188C50.5875 32.1 50.6344 32.0625 50.8312 32.0531C51.0375 32.0531 51.2344 32.0719 51.4687 31.9031C51.6844 31.7531 52.0031 31.8094 52.0031 31.8094C51.9281 31.6594 51.5625 31.6031 51.2531 31.8094C50.925 32.0063 50.6437 31.95 50.6437 31.95C51.1406 31.875 51.2906 31.6969 51.2906 31.6969C51.1406 31.6594 51.0562 31.7063 50.7469 31.7719C50.4469 31.8281 50.3719 31.725 50.3719 31.725C50.7 31.5281 50.9344 31.4438 50.9344 31.4438C50.6531 31.3875 50.3906 31.2563 50.3906 31.2563C50.0906 31.5375 49.8656 31.6875 49.2937 31.4063C48.7312 31.1063 48.4312 31.1438 48.4312 31.1438C48.9375 30.8531 49.4438 30.975 49.8188 31.2C50.1938 31.4156 50.2875 31.2375 50.2875 31.2375C50.175 31.1719 50.1938 31.0969 50.1938 31.0969C51.0938 31.5563 51.4875 31.2844 51.6844 31.1438C51.8812 31.0031 51.5906 30.825 51.5906 30.825C51.5719 31.1063 51.2156 31.2563 50.9156 31.1531C50.6344 31.0594 50.3531 30.9281 49.9406 30.75C49.5281 30.5813 49.0031 30.675 48.525 30.7688C48.0375 30.8719 47.9719 30.825 47.925 30.7875C47.8781 30.75 47.8594 30.6281 47.6062 30.7313C47.3625 30.8344 46.7813 30.5625 46.425 30.4781C46.0688 30.3844 45.4781 30.4313 44.9719 30.7125C44.4656 31.0031 44.2031 30.9281 44.0531 30.8625C43.9031 30.7875 43.8 30.6 43.9687 30.4313C44.1375 30.2625 44.1562 30.2156 44.1375 29.9625C44.1187 29.7188 43.875 29.5688 43.875 29.5688C44.1 29.3344 44.1563 29.2875 44.0813 29.1938C44.0063 29.0813 44.1187 29.0813 44.25 29.025C44.3812 28.9688 44.325 28.9594 44.2969 28.8844C44.2594 28.8094 44.1844 28.8281 44.1844 28.8281C43.8937 28.8375 43.725 28.7531 43.725 28.7531C43.2375 28.5281 42.7781 28.9688 42.7781 28.9688C42.4969 28.7531 42.4312 28.9031 42.3844 28.95C42.3375 28.9969 42.2344 29.0438 42.1031 29.0438C41.9906 29.0625 41.8125 29.1094 41.7469 29.2219C41.7469 29.2219 41.6906 29.3156 41.7562 29.4094C41.7562 29.4094 41.8312 29.5219 41.7 29.6625C41.5594 29.8031 41.5125 29.8313 41.5594 29.9719C41.5969 30.0938 41.5875 30.1969 41.5312 30.2813C41.5312 30.2813 41.4656 30.2156 41.4844 30.1219C41.5031 30.0281 41.5031 29.9719 41.4844 29.9344C41.4844 29.9344 41.3438 30.0656 41.3156 30.1594C41.3156 30.1594 41.2594 30.0094 41.4656 29.8125C41.6531 29.625 41.7469 29.5125 41.6906 29.4375C41.6531 29.3813 41.5031 29.475 41.475 29.4938H41.4656Z" fill="#FFC221"/>
<path d="M42.0375 31.6875C42.0375 31.6875 41.7844 31.5 41.8125 31.2281C41.8406 30.975 41.8406 30.9469 41.8125 30.8813C41.8125 30.8813 41.7656 30.9094 41.775 31.0125C41.775 31.1063 41.7563 31.2094 41.7469 31.2281C41.7469 31.2281 41.625 31.0125 41.5594 30.9656C41.5594 30.9656 41.6156 30.7406 41.5406 30.6469C41.475 30.5438 41.4 30.5344 41.3156 30.5719C41.2031 30.6094 41.1188 30.7125 41.5031 31.0219C41.5031 31.0219 41.6438 31.1438 41.7375 31.3875C41.8313 31.6313 42 31.6688 42.0281 31.6875H42.0375ZM43.2563 30.9563C43.2563 30.9563 43.2469 30.8156 43.3781 30.5531C43.4245 30.4743 43.4512 30.3854 43.4561 30.2941C43.461 30.2027 43.4439 30.1115 43.4063 30.0281C43.3781 29.9531 43.35 29.9813 43.4906 29.8688C43.65 29.7281 43.425 29.55 43.7063 29.3063C43.7063 29.3063 43.875 29.1563 43.9219 29.0906C43.9219 29.0906 43.6406 29.2406 43.4344 29.325C43.2469 29.4 42.5344 29.7563 42.6844 29.9906C42.8531 30.225 42.8344 30.2438 42.8063 30.3469C42.8063 30.3469 42.375 30.1125 42.525 29.7469C42.525 29.7469 42.6 29.6063 42.7781 29.4281C42.9469 29.2781 42.8531 29.4656 43.1813 29.2688C43.1813 29.2688 43.4344 29.1188 43.5844 28.9031C43.5844 28.9031 43.3969 29.0156 43.3406 29.0344C43.3406 29.0344 42.9656 29.1094 42.7969 29.2688C42.6469 29.4281 42.3188 29.7094 42.4219 30.0188C42.4219 30.0188 42.0469 29.9813 41.9531 29.5781C41.9531 29.5781 41.2406 30.4594 42.7406 30.8719C42.7406 30.8719 43.0219 30.9469 43.2656 30.9656L43.2563 30.9563Z" fill="black"/>
<path d="M49.8375 28.0313C50.4 27.9375 53.625 27.45 53.925 27.4219C54.2438 27.3938 54.3656 27.3469 54.4781 27.6094C54.6 27.8906 54.0281 27.9 54.0281 27.9L50.175 28.3406C49.9875 28.3594 49.9406 28.2844 49.9406 28.2844L49.8 28.0969C49.8 28.0969 49.7531 28.0406 49.8375 28.0219V28.0313Z" fill="#FFC221"/>
<path d="M41.9344 29.7844C41.9344 29.7844 41.5219 30.6562 43.1531 30.8719C43.1531 30.8719 43.1625 30.7781 43.2281 30.6375C43.3031 30.4969 43.4438 30.2156 43.3031 30.0375C43.1719 29.8594 43.4156 29.9531 43.4438 29.7187C43.4906 29.4844 43.425 29.5125 43.5375 29.3625C43.5375 29.3625 43.0313 29.55 42.825 29.7844C42.6375 30.0094 43.0969 30.1781 42.825 30.4312C42.825 30.4312 42.5906 30.3375 42.45 30.0937C42.45 30.0937 42.1406 30.0937 41.9344 29.7844Z" fill="#5A3719"/>
<path d="M43.5469 30.8625C43.5469 30.8625 43.95 31.2094 44.4281 31.2C44.9062 31.1719 45.1219 31.05 45.2437 30.8625C45.2437 30.8625 45.3375 31.0031 45.3375 31.1062C45.3375 31.1062 45.75 30.7594 46.4625 31.0594C47.175 31.3594 46.9687 31.275 47.1281 31.2937C47.1281 31.2937 46.8187 31.2469 46.125 31.5656C45.4031 31.8937 43.5281 31.7812 43.5375 30.8625H43.5469Z" fill="black"/>
<path d="M42.8719 29.3062C42.8719 29.3062 43.05 29.3344 43.2281 29.1281C43.2281 29.1281 42.9844 29.175 42.8719 29.3156V29.3062ZM41.4938 30.9375C41.4938 30.9375 41.1563 30.675 41.3719 30.6187C41.3719 30.6187 41.5313 30.5906 41.4938 30.9375Z" fill="#5A3719"/>
<path d="M48.8625 32.6062C48.8625 32.6062 49.05 32.2781 49.5656 32.2781C50.0813 32.2781 50.1375 32.5218 50.7938 32.5593C50.7938 32.5593 50.0062 32.7843 49.4625 32.5875C49.1812 32.4843 48.9188 32.5687 48.8625 32.6062Z" fill="black"/>
<path d="M43.7156 31.0969C43.7156 31.0969 44.5031 31.5656 45.1875 31.05C45.1875 31.05 45.2437 31.1062 45.3 31.2375C45.3 31.2375 45.825 30.7312 46.7531 31.275C46.7531 31.275 46.6406 31.2656 46.2 31.4437C45.6281 31.6969 44.1937 31.8656 43.7156 31.0875V31.0969Z" fill="#5A3719"/>
<path d="M46.7156 31.5657C46.7156 31.5657 47.4656 31.6594 48.0937 31.6219C48.4781 31.6032 48.9 31.5282 48.6938 31.6594C48.4781 31.7813 48.5906 31.8 49.4812 31.725C50.3625 31.6313 49.4719 31.8844 50.0812 31.9688C50.0812 31.9688 48.5906 32.7188 46.7156 31.5657V31.5657Z" fill="black"/>
<path d="M48.675 31.0969C48.675 31.0969 49.1063 30.9375 49.5188 31.125C49.9219 31.3125 49.8563 31.3312 50.1281 31.3594C50.1281 31.3594 49.9406 31.6312 49.5 31.4156C49.05 31.2 48.9375 31.1531 48.675 31.0969V31.0969ZM49.1625 32.4375C49.1625 32.4375 49.5938 32.2219 50.0625 32.4375C50.1188 32.475 50.25 32.5312 50.3719 32.55C50.3719 32.55 50.0156 32.6719 49.6406 32.55C49.4813 32.5031 49.3594 32.4656 49.1625 32.4375ZM47.0344 31.6687C47.0344 31.6687 48 31.7625 48.5156 31.6594C48.5156 31.6594 47.9156 31.9406 49.425 31.8187C49.425 31.8187 49.7531 31.7812 49.7063 31.8281C49.6781 31.875 49.65 31.9219 49.8188 31.9687C49.8188 31.9687 48.6938 32.475 47.0344 31.6687V31.6687Z" fill="#5A3719"/>
<path d="M42.2531 30.8625C42.2531 30.8625 42.2719 30.9281 42.4781 31.0219C42.6938 31.125 42.8063 31.2938 42.8531 31.3875C42.8858 31.4533 42.9318 31.5114 42.9884 31.5582C43.0449 31.6051 43.1106 31.6395 43.1813 31.6594C43.1813 31.6594 42.4313 31.8188 42.0938 31.4156C42.0938 31.4156 41.8406 31.1344 42.2438 30.8531" fill="black"/>
<path d="M48.1594 32.5875C48.1594 32.5875 47.8688 32.5687 47.4563 32.4281C47.0531 32.2875 46.95 32.4094 46.7156 32.2406C46.4906 32.0625 46.0313 32.175 45.9469 32.1844C45.8531 32.1937 45.6094 32.1844 45.9188 31.9875C45.9188 31.9875 45.675 31.9875 45.5813 31.8562C45.5813 31.8562 45.4688 31.9687 45.0563 31.9312C45.0563 31.9312 45.2438 32.2125 44.4938 32.1281C44.6196 32.2731 44.7858 32.3774 44.9712 32.4275C45.1565 32.4776 45.3526 32.4713 45.5344 32.4094C45.5344 32.4281 45.4875 32.6437 45.8156 32.7375C46.1719 32.8219 46.2375 32.8875 46.4156 32.9531C46.4156 32.9531 46.4438 32.8125 45.9844 32.4844C45.9844 32.4844 46.2281 32.4656 46.5844 32.55C46.9406 32.6344 47.7281 32.8406 48.1594 32.5875V32.5875ZM48.3469 32.9344C48.3469 32.9344 48.4219 33.1031 48.6469 33.0656C48.8719 33.0281 49.2469 32.9719 49.6031 33.1406C49.6031 33.1406 49.6688 32.8406 48.9469 32.8219C48.9469 32.8219 48.4969 32.8406 48.3469 32.9344V32.9344ZM42.2344 30.9656C42.2344 30.9656 41.9531 31.2 42.2063 31.4344C42.4313 31.65 42.7875 31.6312 42.9563 31.6219C42.9563 31.6219 42.8625 31.5656 42.7688 31.4344C42.675 31.2937 42.675 31.2 42.4875 31.1156C42.2906 31.0312 42.2719 31.0125 42.2344 30.9656ZM41.9531 29.7844C41.9531 29.7844 41.5219 30.6562 43.1719 30.8719C43.1719 30.8719 43.1719 30.7781 43.2375 30.6375C43.2938 30.4969 43.4344 30.2156 43.3125 30.0375C43.1625 29.8594 43.4156 29.9531 43.4531 29.7187C43.4906 29.4844 43.425 29.5125 43.5469 29.3625C43.5469 29.3625 43.0313 29.55 42.825 29.7844C42.6375 30.0094 43.0969 30.1781 42.825 30.4312C42.825 30.4312 42.5906 30.3375 42.45 30.0937C42.45 30.0937 42.1406 30.0937 41.9344 29.7844H41.9531Z" fill="#5A3719"/>
<path d="M46.2469 31.8093C46.2469 31.8093 46.5937 31.7531 47.4656 32.0812C48.3469 32.4 48.7125 32.325 48.8344 32.3156C48.8344 32.3156 48.3469 32.5781 47.5781 32.2406C46.9031 31.9406 46.8656 32.0531 46.2469 31.8093V31.8093Z" fill="black"/>
<path d="M51.7313 31.6125C51.7313 31.6125 51.9188 31.6125 52.05 31.6594C52.05 31.6594 52.1156 31.5938 52.3031 31.5656C52.3031 31.5656 52.1813 31.4531 51.7313 31.6125ZM51.1313 31.125C51.1313 31.125 51.3281 31.125 51.3938 31.0125C51.3938 31.0125 51.2906 30.8906 51.1313 30.825C51.1313 30.825 51.1688 30.975 51.1313 31.125ZM44.4094 28.8938C44.4094 28.8938 44.3625 28.8 44.5781 28.7625L47.5125 28.3406C47.5125 28.3406 47.6531 28.3406 47.6719 28.4344C47.7 28.5375 47.6625 28.6125 46.9969 28.6875L44.5969 28.9875C44.5969 28.9875 44.4188 29.0156 44.4094 28.8938Z" fill="#FFC221"/>
<path d="M47.0625 28.7719C47.0625 28.7719 47.0625 29.1562 47.4563 29.2125C47.8313 29.2687 47.9719 29.1937 48.0656 28.9969C48.0938 28.9312 48.2156 28.5281 48.0469 28.5C47.9719 28.4906 47.8594 28.5 47.775 28.5281C47.6438 28.5937 47.5219 28.6594 47.5594 28.7156C47.6531 28.8656 47.6719 28.9031 47.6531 28.9031C47.5406 28.9312 47.4844 28.8469 47.4656 28.7906C47.4375 28.7156 47.5125 28.6781 47.2594 28.7156C47.1469 28.725 47.0719 28.725 47.0719 28.7719H47.0625ZM48.7031 28.4719C48.8906 28.5 48.8813 28.9219 48.6469 29.1187C48.3844 29.325 48.1406 29.2406 48.1406 29.2406C48.0094 29.1937 48.0281 29.2031 48.1313 29.0531C48.225 28.9125 48.2719 28.7156 48.2156 28.5844C48.1969 28.5375 48.2437 28.5 48.3094 28.4906C48.3094 28.4906 48.4969 28.4531 48.7031 28.4719Z" fill="#FFC221"/>
<path d="M48.8719 28.5094C48.8719 28.5094 49.0219 28.6969 48.8344 29.025C48.8344 29.025 48.7594 29.1188 48.9375 29.1094C49.1062 29.0906 49.5094 28.9031 49.4719 28.6594C49.4719 28.6594 49.4531 28.6031 49.35 28.6031C49.2469 28.6031 49.3312 28.5563 49.3781 28.5281C49.4156 28.5281 49.5562 28.4719 49.2 28.2469C49.2 28.2469 49.1437 28.1906 49.0781 28.2188C49.0219 28.2375 48.8344 28.3125 48.8344 28.425C48.8344 28.4719 48.8719 28.5188 48.8719 28.5188V28.5094Z" fill="#FFC221"/>
<path d="M49.2562 28.2094C49.2562 28.2094 49.5375 28.4062 49.5375 28.4719C49.5375 28.5281 49.5094 28.6125 49.5844 28.5937C49.6594 28.5937 49.9594 28.5281 49.8656 28.3312C49.7906 28.1344 49.7062 28.05 49.5656 28.0125C49.425 27.9562 49.3875 28.0219 49.2656 28.1156C49.2656 28.1156 49.1812 28.1719 49.2562 28.2094V28.2094ZM47.7469 28.4906C47.7469 28.4906 47.7937 28.35 47.5406 28.2844C47.5406 28.2844 47.6437 28.1906 47.8594 28.2469C48.0656 28.2844 48.0469 28.4344 48.0469 28.4437C48.0469 28.4437 47.8781 28.4437 47.7469 28.4906V28.4906ZM48.2906 28.4531C48.2906 28.4531 48.5719 28.4062 48.7125 28.4156C48.7125 28.4156 48.5625 28.1062 48.1781 28.2C48.1781 28.2 48.3187 28.3687 48.2906 28.4531ZM48.7875 28.3781C48.7875 28.3781 48.7875 28.275 49.0312 28.1812C49.0312 28.1812 48.9187 28.0687 48.75 28.0875C48.5625 28.0875 48.5156 28.1531 48.5156 28.1531C48.5156 28.1531 48.7312 28.2281 48.7875 28.3781V28.3781ZM48.8812 28.0406C48.8812 28.0406 49.0406 28.0781 49.1344 28.1625C49.1344 28.1625 49.275 28.0031 49.3969 27.975C49.3969 27.975 49.1625 27.8437 48.8812 28.0406Z" fill="#FFC221"/>
<path d="M40.8562 27.2718C40.8562 27.2718 41.5312 26.6906 41.9062 26.7656C42.2812 26.8406 42.0937 26.7843 42.5062 26.7187C42.9187 26.6625 43.35 26.6156 43.5188 26.6344C43.5188 26.6344 43.0125 26.2781 42.1219 26.2875C42.1219 26.2875 41.5031 26.5031 41.0625 26.7844C41.0625 26.7844 40.2281 26.325 39.375 26.5969C39.375 26.5969 40.3031 26.9437 40.8562 27.2718V27.2718Z" fill="#5A3719"/>
<path d="M48.0188 28.2562L48.1313 28.2375C48.1313 28.2375 48.3188 28.4719 48.1875 28.4719C48.075 28.4719 48.1125 28.4437 48.0938 28.3781C48.0834 28.3301 48.0569 28.2871 48.0188 28.2562V28.2562ZM47.175 28.275C47.175 28.275 47.1 28.3687 47.2313 28.35C47.3906 28.3219 47.3625 28.35 47.5219 28.2281C47.5219 28.2281 47.6344 28.125 47.8219 28.1906C47.8219 28.1906 47.9906 28.2469 48.1219 28.1812C48.2531 28.1062 48.2813 28.1156 48.3563 28.125C48.4313 28.125 48.4313 28.1437 48.5156 28.0687C48.6094 28.0031 48.7781 28.0594 48.8813 27.975C48.9844 27.8812 49.1156 27.9562 48.8813 27.7875C48.8813 27.7875 48.8344 27.7406 48.8344 27.6937C48.8344 27.6937 48.9281 27.7312 49.0031 27.7875C49.0781 27.8625 49.1906 27.8344 49.2094 27.825C49.2094 27.825 49.2281 27.6094 49.425 27.4219C49.6406 27.2344 49.6406 27.2156 49.5188 27.2156C49.3969 27.2156 49.1906 27.1594 49.1156 27.2156C49.0406 27.2719 48.4406 27.6656 48.0844 27.7312C47.7281 27.7969 47.4 27.9 47.175 28.275V28.275ZM37.6781 26.0812C37.6781 26.0812 38.775 26.3625 39.0188 26.475C39.0188 26.475 39.075 26.2969 38.5781 26.1562C38.5781 26.1562 39.7875 26.1187 41.0531 26.7C41.0531 26.7 41.6719 26.175 43.65 26.3344C43.65 26.3344 43.65 26.1656 43.6688 26.025C43.6688 26.025 42.2813 25.9875 41.0063 25.2094C41.0063 25.2094 39.8531 25.7719 37.6781 26.0812V26.0812ZM43.7438 26.6062C43.6781 25.5 44.1 25.3875 44.1 25.3875C44.1 25.3875 44.2969 25.3875 44.5125 25.4344C44.5125 25.4344 44.175 25.8375 44.2688 26.6344C44.2688 26.6344 44.3063 26.7562 44.0156 26.7562C43.725 26.7562 43.7438 26.6156 43.7438 26.6156V26.6062Z" fill="#FFC221"/>
<path d="M44.0437 27.3469C44.0437 27.3469 43.8281 27.1312 43.8094 26.8875C43.8094 26.8875 43.8094 26.8312 44.0156 26.8312C44.2312 26.8312 44.25 26.8125 44.2969 26.9344C44.3531 27.0562 44.4844 27.3094 44.5125 27.3375L44.0437 27.3469Z" fill="#5A3719"/>
<path d="M44.4844 26.7844C44.4669 26.6445 44.4607 26.5034 44.4656 26.3625C44.475 25.7437 44.5781 25.8 44.625 25.875H44.8406C44.8406 25.875 44.6813 25.1812 44.4938 25.5937C44.3562 25.8991 44.3074 26.237 44.3531 26.5687C44.3625 26.7562 44.3813 26.8781 44.4094 26.9437L44.4844 26.7844Z" fill="#FFC221"/>
<path d="M46.8937 26.7844C46.8937 26.7844 47.2969 26.8594 46.6781 27C46.6781 27 46.7062 27.7687 47.4469 27.2344C47.4469 27.2344 47.8875 26.9531 48.1969 26.8406C48.1969 26.8406 48.3469 26.7844 48.3281 26.6719C48.3281 26.6719 48.3469 26.5312 48.1875 26.5687C48.1875 26.5687 48.0562 26.5687 47.9719 26.5406C47.9719 26.5406 47.8781 26.4281 47.8219 26.4656C47.7656 26.5125 47.625 26.4844 47.7375 26.625C47.85 26.7562 47.8781 26.7187 47.925 26.6812C47.9812 26.6437 48.2156 26.55 48.0094 26.7468C47.8031 26.9437 47.6156 26.6344 47.5406 26.5781L46.8937 26.7844ZM44.8312 26.8781H44.6437C44.6437 26.8781 44.55 27.0281 44.4844 26.7844L44.4187 26.9343C44.4187 26.9343 44.6344 27.7594 44.8312 26.8781Z" fill="#5A3719"/>
<path d="M44.5688 25.9312C44.5688 25.9312 44.475 26.475 44.5969 26.7937L46.575 26.8406C46.575 26.8406 46.5563 26.4656 46.575 25.9312H46.3125C46.3125 25.9312 46.2656 26.3625 46.3125 26.6344H46.2656C46.2656 26.6344 46.2281 26.2594 46.2656 25.9312H46.0313C46.0313 25.9312 45.9938 26.3344 46.0313 26.6344H45.9844C45.9844 26.6344 45.9469 26.2875 45.9844 25.9312H45.75C45.75 25.9312 45.7031 26.2969 45.75 26.6344H45.6938C45.6938 26.6344 45.6469 26.2687 45.6938 25.9312H45.4406C45.4406 25.9312 45.3844 26.2687 45.4406 26.6344H45.3938C45.3938 26.6344 45.3375 26.2969 45.3938 25.9312H45.1406C45.1406 25.9312 45.0844 26.325 45.1406 26.6344H45.0844C45.0844 26.6344 45.0469 26.2594 45.0938 25.9312H44.8594C44.8594 25.9312 44.7938 26.2594 44.8594 26.6344H44.7938C44.7938 26.6344 44.7563 26.3531 44.8125 25.9312H44.5688ZM46.6594 26.9062C46.6594 26.9062 46.6125 25.95 46.7906 25.6875C46.9781 25.4437 47.025 25.5 47.3344 25.6875C47.6531 25.8937 48.0563 26.1094 48.1313 26.1375C48.1875 26.1656 48.2813 26.1844 48.2813 26.3625C48.2813 26.5406 48.3094 26.5875 48.0375 26.3625C48.0094 26.3344 47.8781 26.2219 47.7844 26.1937C47.5406 26.1094 47.8406 26.2406 47.925 26.3719C48 26.4656 48.0656 26.4656 47.8688 26.5125C47.4617 26.6312 47.0583 26.7625 46.6594 26.9062Z" fill="#FFC221"/>
<path d="M47.3437 26.2125C47.3437 26.2125 47.2031 26.0437 47.3906 25.9969C47.5781 25.9594 47.5875 26.2781 47.625 26.475C47.6531 26.6812 47.3906 26.2781 47.3625 26.2219L47.3437 26.2125ZM47.0906 27.0562C47.0906 27.0562 46.875 27.1406 47.025 27.2062C47.1562 27.2719 47.5406 26.9531 47.4187 26.9719C47.2687 27 47.0906 27.0656 47.0906 27.0656V27.0562ZM47.3719 26.775C47.3719 26.775 47.5594 26.7469 47.5219 26.8219C47.4937 26.9156 47.4281 26.8594 47.3906 26.8406C47.3625 26.8219 47.2406 26.775 47.3812 26.7656L47.3719 26.775Z" fill="black"/>
<path d="M48.375 26.5125C48.375 26.5125 48.4312 26.8875 48.75 26.9813C48.75 26.9813 48.9375 27.0188 48.8906 26.8594C48.8906 26.8594 48.8625 26.7188 48.8344 26.6719C48.8062 26.6063 48.6844 26.5781 48.6656 26.5688C48.6469 26.5688 48.6375 26.5219 48.7219 26.55C48.8156 26.5781 48.8156 26.5875 48.8156 26.5219C48.8156 26.4563 48.7594 26.4844 48.6844 26.4469C48.6469 26.4281 48.6844 26.4094 48.7125 26.4188C48.75 26.4188 48.8344 26.4469 48.8344 26.325C48.8344 26.325 48.8437 26.25 48.75 26.25C48.6469 26.25 48.6562 26.1938 48.6844 26.1844C48.7125 26.1844 48.825 26.2594 48.8625 26.1281C48.8906 26.0063 48.7125 26.0813 48.7312 26.0156C48.7594 25.9406 48.8906 26.0438 48.8906 25.9688C48.9094 25.8938 49.0125 25.8656 48.8344 25.8375C48.75 25.8281 48.8344 25.7813 48.9281 25.8C49.0219 25.8094 49.0781 25.6875 49.1437 25.65C49.2 25.6031 49.5375 25.4063 49.0875 25.4719C48.6469 25.5375 48.5156 25.7531 48.4969 25.8C48.3851 26.0197 48.3426 26.2681 48.375 26.5125V26.5125Z" fill="#FFC221"/>
<path d="M49.4063 26.7938C49.4719 26.7938 49.5188 26.7938 49.5375 26.8406C49.6125 26.9906 49.4438 26.9344 49.35 27.0469C49.2563 27.1594 49.2563 27.1406 49.125 27.0938C48.9938 27.0563 48.9375 26.8594 48.9375 26.8594C48.9375 26.7938 48.9844 26.7844 49.05 26.8031C49.05 26.8031 49.2656 26.8219 49.4156 26.8031L49.4063 26.7938ZM48.9375 26.7188C48.9375 26.7188 48.9375 26.7563 49.0219 26.7656C49.0875 26.7656 49.3031 26.7938 49.4438 26.7563C49.4438 26.7563 49.4813 26.7469 49.4625 26.6625C49.4625 26.6625 49.4625 26.5969 49.35 26.625C49.2281 26.6438 49.0688 26.625 49.0031 26.6156C48.9469 26.5969 48.9094 26.6156 48.9281 26.7094L48.9375 26.7188ZM48.9188 26.4469C48.9188 26.4469 48.9094 26.5688 49.0219 26.5781C49.1438 26.5969 49.2938 26.5969 49.35 26.5781C49.3969 26.5781 49.4813 26.5594 49.4906 26.4844C49.4906 26.4188 49.5094 26.3719 49.3688 26.4094C49.2281 26.4469 49.05 26.4094 49.0313 26.4094C49.0219 26.4094 48.9188 26.3813 48.9188 26.4469V26.4469ZM48.9656 26.2125C48.9656 26.2125 48.9375 26.2688 48.9469 26.325C48.9469 26.3719 49.0313 26.3906 49.1813 26.3906C49.3313 26.3906 49.4625 26.3719 49.4813 26.325C49.4906 26.2594 49.5281 26.2031 49.4156 26.2313C49.2938 26.2406 49.1344 26.25 49.0781 26.2313C49.0219 26.2031 48.975 26.1938 48.9656 26.2125V26.2125Z" fill="#FFC221"/>
<path d="M54.5719 26.8125C54.5719 26.8125 54.5719 26.9062 54.6562 27.0187L50.4187 26.8969C50.4187 26.8969 50.475 26.8594 50.4937 26.6906L54.5719 26.8125Z" fill="#5A3719"/>
<path d="M49.0031 26.0437C49.0031 26.0437 48.9656 26.1469 49.0406 26.175C49.1062 26.1938 49.2469 26.2125 49.4156 26.1844C49.4156 26.1844 49.5094 26.1844 49.5375 26.0906C49.5656 25.9969 49.5656 26.0531 49.3219 26.0156C49.3219 26.0156 49.2469 25.9875 49.4625 25.9875C49.4625 25.9875 49.5937 25.9875 49.6031 25.9688C49.6312 25.95 49.7906 25.8094 49.575 25.8281C49.3594 25.8281 49.4719 25.7812 49.575 25.7812C49.6875 25.7812 49.725 25.8094 49.7625 25.7812C49.8 25.7531 49.7625 25.7625 49.6969 25.7063C49.6312 25.65 49.6875 25.6594 49.725 25.6969C49.7719 25.725 49.8 25.7438 49.8469 25.6969C49.8937 25.65 49.8094 25.5844 49.8469 25.6031C49.875 25.6031 49.9031 25.6781 50.0344 25.6031C50.1844 25.5375 50.3625 25.575 50.4094 25.6031C50.4656 25.65 50.6156 25.6969 50.7 25.6031C50.7937 25.5281 50.5969 25.4437 50.6719 25.4344C50.7656 25.425 50.8219 25.4531 50.85 25.3875C50.8875 25.3125 50.7187 25.2563 50.8781 25.2188C51.0281 25.1719 50.8969 24.75 50.85 24.7031C50.85 24.7031 50.6719 24.8062 50.4937 25.1062C50.2969 25.4156 50.1844 25.5938 49.9312 25.5C49.5656 25.3594 49.3687 25.5562 49.3219 25.5938C49.2281 25.65 49.5094 25.6687 49.3406 25.6781C49.1812 25.6781 49.1812 25.6969 49.1719 25.7156C49.1531 25.7437 49.1719 25.7625 49.2 25.7719C49.2281 25.7719 49.2844 25.8281 49.1906 25.8281C49.0969 25.8281 49.0219 25.8 49.05 25.9125C49.05 25.9125 49.05 25.9313 49.1062 25.9406C49.1625 25.9406 49.1812 26.0156 49.0781 26.0156C49.0031 26.0156 49.0031 26.0344 49.0031 26.0437V26.0437ZM49.3875 27.1031C49.3875 27.1031 49.3219 27.15 49.4156 27.1594C49.5281 27.1594 49.575 27.1875 49.6125 27.1312C49.65 27.075 49.7812 27.0938 49.6875 27.0188C49.5937 26.9438 49.5375 26.9906 49.3875 27.1125V27.1031Z" fill="#FFC221"/>
<path d="M49.8281 25.8281C49.8281 25.8281 50.1844 25.5 50.475 25.7156C50.775 25.95 50.7938 25.9781 50.8031 25.9875C50.8031 25.9875 50.8406 26.0156 50.7656 26.0812C50.6812 26.1562 50.7656 26.1562 50.85 26.1094C50.9344 26.0625 50.9437 26.1094 50.9812 26.1562C51.0281 26.2031 51.0844 26.2312 50.9531 26.2312H50.5219C50.5219 26.2312 50.325 26.25 50.4281 26.1656C50.5219 26.0812 50.5031 25.9875 50.4562 25.9781C50.4 25.9781 50.4563 26.0344 50.4281 26.0719C50.3906 26.1094 50.325 26.1375 50.25 26.1375C50.175 26.1375 50.1187 26.1937 50.2312 26.2312C50.3344 26.2687 50.2125 26.2969 50.1562 26.2969C50.1 26.2969 49.8281 26.3156 50.1094 26.3531C50.3906 26.3812 50.0812 26.3812 50.2969 26.4937C50.5219 26.625 50.3531 26.8969 50.2687 26.925C50.2687 26.925 50.175 26.9719 50.2875 26.9625C50.4094 26.9437 50.475 26.9344 50.3813 27C50.3063 27.0562 50.1375 27.2719 49.9125 27.1125C49.9125 27.1125 49.8 27.0562 49.9875 27.0469C50.175 27.0469 49.8375 27 49.7719 26.9531C49.725 26.925 49.4906 26.7 49.6313 26.7187C49.7813 26.7562 49.725 26.6719 49.6406 26.6437C49.5656 26.6156 49.5469 26.4937 49.6406 26.5125C49.7344 26.5406 49.8281 26.5969 49.9219 26.5875C49.9875 26.5875 49.9687 26.5594 49.8094 26.5125C49.65 26.4562 49.5844 26.4469 49.6219 26.325C49.6594 26.1844 49.8375 26.3719 49.7906 26.2687C49.7531 26.175 49.6031 26.2219 49.6781 26.0906C49.7531 25.9594 49.7719 26.0156 49.8188 26.0344C49.8469 26.0437 49.9125 26.0344 49.8094 25.9594C49.7344 25.9125 49.8094 25.8375 49.8281 25.8281Z" fill="#FFC221"/>
<path d="M50.0813 25.9219C50.0813 25.9219 50.0813 25.875 50.1563 25.8844C50.2125 25.8844 50.1937 25.8656 50.2125 25.8469C50.2312 25.8469 50.3906 25.8937 50.2406 25.9406C50.1844 25.9687 50.0906 25.9594 50.0906 25.9219H50.0813Z" fill="black"/>
<path d="M50.4281 26.2969C50.4281 26.2969 50.3063 26.3531 50.4094 26.4844C50.5031 26.5781 50.5031 26.625 50.5031 26.6906C50.4938 26.7656 54.5719 26.8125 54.5719 26.8125C54.5719 26.8125 54.5719 26.5406 54.7406 26.3906L50.4281 26.2969V26.2969Z" fill="#FFC221"/>
<path d="M54.6375 26.7375C54.6375 26.7375 54.6563 26.5125 54.7875 26.4469C54.8531 26.4 54.9375 26.4187 54.975 26.5969C55.0313 26.85 54.8156 27.075 54.7219 26.9719C54.6281 26.8781 54.6469 26.7375 54.6469 26.7375H54.6375Z" fill="#5A3719"/>
<path d="M49.9594 27.6938C49.9594 27.6938 50.2313 27.4594 50.2781 27.3563C50.2781 27.3563 51.0094 27.8813 50.9625 27.3938L50.9813 27.15C50.9813 27.15 51.2531 27.1781 51.2906 26.9625L50.6063 26.9344C50.6063 26.9344 50.5313 26.925 50.4188 27.0375C50.325 27.15 50.1 27.2719 49.9031 27.1688C49.9031 27.1688 49.8094 27.0938 49.725 27.1688C49.6313 27.2156 49.6313 27.2344 49.7063 27.3094C49.7813 27.3844 49.9313 27.5813 49.9594 27.6844V27.6938ZM51.5344 26.25L51.1313 26.2313C51.1313 26.2313 50.9906 26.025 50.7 25.8C50.7 25.8 50.6156 25.7625 50.775 25.6313C50.9438 25.5 50.9906 25.3688 50.9906 25.3031C50.9906 25.2469 50.9906 25.1438 51.0469 25.2094C51.1031 25.2844 51.5156 25.6688 51.5906 25.5563C51.6469 25.4438 51.6563 25.3969 51.6563 25.3594C51.675 25.3219 51.6844 25.2188 51.75 25.3313C51.8063 25.4344 51.8438 25.4063 51.8531 25.6875C51.8531 25.6875 51.8531 25.9688 51.9 26.0625C51.9 26.0625 51.375 25.9031 51.5438 26.25H51.5344ZM49.7906 25.3875C49.7906 25.3875 50.1 25.575 50.2594 25.3313C50.4 25.0969 50.5031 25.0688 50.3906 24.8344C50.2781 24.6188 50.3906 24.5156 50.475 24.4219C50.5688 24.3281 50.6438 24.3469 50.6438 23.9906C50.6625 23.625 50.9063 23.5219 51.0188 23.4C51.1313 23.2875 51.4125 23.1188 50.9813 23.0531C50.5688 22.9781 49.725 22.7719 49.5094 22.4438C49.2938 22.1156 49.2 22.3031 49.2 22.3219C49.2 22.3406 49.125 22.575 49.3406 23.0063C49.5563 23.4375 49.7344 23.7188 49.95 23.85C50.1563 23.9906 50.3438 24.0656 50.2313 24.3563C50.1188 24.6469 49.95 25.1625 49.7906 25.3875V25.3875Z" fill="#7B3C20"/>
<path d="M50.925 24.4688C50.925 24.4688 50.9812 25.2188 51.5156 25.4813C51.5156 25.4813 51.6375 25.2 51.5906 24.9094C51.5906 24.9094 51.7687 24.9188 51.8156 25.0031C51.8156 25.0031 51.8156 24.7875 51.5719 24.7031C51.3187 24.6375 51.4406 24.1406 51.5344 24.0938C51.6187 24.0375 51.5906 23.9344 51.5344 23.85C51.4687 23.7563 51.4594 23.6344 51.6656 23.6906C51.8812 23.7469 51.8531 23.6344 51.7125 23.5313C51.5906 23.4281 51.5906 23.2969 51.7781 23.2969C51.9656 23.2969 52.2469 23.1188 52.0781 23.0719C51.8906 23.0156 51.8437 22.95 52.0781 22.8844C52.3312 22.8094 52.4531 22.725 52.2656 22.6969C52.0781 22.6781 51.9562 22.6125 52.1344 22.5844C52.3125 22.5563 52.1062 22.3688 51.9 22.3688C51.6844 22.35 51.2437 22.4344 51.5906 22.1531C51.9469 21.8719 51.0844 22.0781 51.4406 21.8906C51.7969 21.7031 51.3187 21.7875 51.2531 21.7875C51.1875 21.7875 51.1875 21.7875 51.2156 21.6938C51.2344 21.6 51.1687 21.5438 51.0562 21.6094C50.9625 21.6656 50.9625 21.6656 50.9625 21.5438C50.9625 21.4031 50.8406 21.5063 50.7656 21.5438C50.6812 21.5719 50.4844 21.7219 50.4 21.6375C50.3344 21.5531 50.2875 21.4781 50.0437 21.6188C49.8 21.7594 49.8562 21.6375 49.8562 21.5719C49.8562 21.5063 49.95 21.2531 49.6312 21.525C49.3125 21.7969 49.5656 21.2438 49.3031 21.4313C49.05 21.6188 49.0219 21.6563 48.975 21.5719C48.9281 21.4781 48.8812 21.4125 48.6 21.6C48.3094 21.7781 48.525 21.4781 48.5531 21.4125C48.6 21.3563 48.7219 20.9438 48.4687 21.2625C48.4687 21.2625 48.3469 21.4875 48.075 21.0844C48.075 21.0844 47.7937 21.4875 47.7094 21.3094C47.6344 21.1219 47.5687 21.1219 47.4656 21.2344C47.3719 21.3469 47.4469 21.225 47.4 21.1219C47.3625 21.0281 47.3344 20.85 46.8562 21.1969C46.3781 21.5531 47.025 21.2906 46.6594 21.45C46.2937 21.6094 45.3937 22.1063 46.2094 22.0031C47.025 21.8813 45.8156 22.3125 46.0969 22.3969C46.3781 22.4719 46.2844 22.725 47.3531 22.425C48.4031 22.1438 48.2344 22.3875 48.7781 22.1438C49.3219 21.9188 48.6469 22.2281 49.3781 22.2188C50.1 22.2 49.5 22.2188 49.6406 22.3688C49.7812 22.5188 50.3906 22.8656 50.9625 22.9313C51.5344 22.9875 51.6844 22.7719 51.5156 23.025C51.3469 23.2688 51.2906 23.3625 51.1969 23.4563C51.1031 23.5313 50.8219 23.7375 50.8219 24.075C50.8219 24.4219 50.3719 24.4781 50.5406 24.8531L50.925 24.4781V24.4688Z" fill="#5A3719"/>
<path d="M51.8719 25.3031C51.8719 25.3031 51.7406 25.2094 51.7406 25.0406C51.7406 25.0406 51.8344 25.0594 51.8719 25.1156C51.8719 25.1156 52.2 24.7406 51.7969 24.6094C51.4125 24.4781 51.6094 24.1125 51.7406 24.1125C51.8719 24.1125 51.9 24.0844 51.7781 23.925C51.6656 23.7844 51.6844 23.775 51.9 23.7375C52.1156 23.7 52.0969 23.6437 51.9938 23.5969C51.9267 23.5568 51.8665 23.5062 51.8156 23.4469C51.8156 23.4469 52.4531 23.175 52.2469 23.0437C52.0406 22.9219 52.2469 22.95 52.4344 22.8281C52.6219 22.6969 52.6406 22.6687 52.6688 22.6125C52.6688 22.6125 52.4813 22.6406 52.35 22.6125C52.35 22.6125 52.5094 22.5281 52.35 22.3969C52.1906 22.2656 52.1344 22.1531 51.8813 22.2094C51.6281 22.275 51.7125 22.1906 51.8063 22.0875C51.9 21.9844 51.8625 21.9281 51.6844 21.9C51.6844 21.9 51.7031 21.7875 51.8438 21.6656C51.8438 21.6656 51.4969 21.6844 51.375 21.6281C51.375 21.6281 51.525 21.5344 51.525 21.4125C51.525 21.4125 51.3375 21.4781 51.1031 21.4594C51.1031 21.4594 51.2438 21.3375 51.2438 21.2344C51.2438 21.2344 50.8313 21.3281 50.6438 21.4687C50.6438 21.4687 50.5969 21.4687 50.5688 21.4125C50.5313 21.375 50.5125 21.3187 50.0531 21.4687C50.0531 21.4687 50.1 21.2625 50.2125 21.1875C50.325 21.1125 50.3063 20.9437 49.6031 21.3844C49.6031 21.3844 49.5094 21.3281 49.425 21.1125C49.425 21.1125 49.2656 21.3281 49.1531 21.4031C49.1531 21.4031 49.0594 21.45 49.0594 21.3094C49.0781 21.1687 48.9938 21.2625 48.9281 21.3094C48.8531 21.3469 48.8063 21.45 48.8344 21.1687C48.8625 20.8875 48.7406 20.8312 48.7406 20.8312C48.7406 20.8312 48.525 21.1406 48.3938 21.1781C48.3938 21.1781 48.1594 20.9531 48.075 20.8031C48 20.6531 48 20.5969 47.9156 20.8594C47.8313 21.1125 47.7281 21.1406 47.7281 21.1406C47.7281 21.1406 47.5875 21.0187 47.5781 20.9531C47.5781 20.9531 47.55 21.0187 47.5031 21.0469C47.5031 21.0469 47.3813 20.9062 47.3906 20.7C47.3906 20.7 46.6219 21.1219 46.5281 21.375C46.5281 21.375 45.8063 21.3281 45.5156 21.3844C45.5156 21.3844 45.5813 21.1594 45.7688 21.0375C45.7688 21.0375 45.5813 21.0187 45.5813 20.8219C45.5813 20.8219 45.7313 20.8406 45.825 20.8219C45.9188 20.8031 45.6938 20.5312 45.9281 20.5219C46.1625 20.5125 46.3219 20.6344 46.2094 20.3156C46.1156 20.0062 46.1531 20.0062 46.1531 20.0062C46.1531 20.0062 46.5656 20.25 46.6313 20.1844C46.7063 20.1281 46.5844 19.9969 46.95 20.0531C47.3156 20.1187 47.2125 19.9125 47.3625 19.8937C47.5031 19.8937 47.5781 19.9875 47.4844 19.3219C47.3906 18.6562 47.9344 19.65 47.5688 18.6469C47.5688 18.6469 47.475 18.3375 47.2594 18.2062C47.2594 18.2062 47.2031 18.4219 46.9594 18.2344C46.7156 18.0469 46.2281 17.9719 46.4344 17.8219C46.6406 17.6625 46.7344 17.4562 46.6781 17.3344C46.6781 17.3344 46.4344 17.5781 46.0219 17.4C45.6844 17.2594 45.6094 17.5219 45.2719 17.4469C45.2719 17.4469 45.2719 17.3531 45.5625 17.1281C45.8438 16.9125 45.3938 17.2031 45.225 17.25C45.0469 17.2875 45 17.25 45.3656 16.9594C45.7406 16.6781 46.4906 16.1625 46.3969 15.7406C46.3969 15.7406 46.5656 15.9562 47.025 15.7969C47.4938 15.6375 47.8313 15.5812 47.9625 15.3281C48.1125 15.0937 48.4688 14.8594 48.5625 14.8031C48.6656 14.7562 48.7875 14.7094 48.6469 14.9437C48.4969 15.1687 48.2719 15.5625 47.6344 15.825C46.9969 16.0875 46.7438 16.275 46.6313 16.4156C46.5188 16.5562 45.9375 16.8656 46.3219 16.8187C46.6969 16.7531 47.3438 16.8187 47.0344 16.725C46.7344 16.6406 46.3875 16.7812 46.6688 16.5281C46.95 16.275 46.9969 16.1906 47.4094 16.0219C47.8219 15.8437 48.2719 15.45 48.225 15.8719C48.1781 16.2844 47.4188 16.725 47.2313 16.8656C47.0438 16.9969 47.1188 16.9781 47.1188 17.0344C47.1188 17.0906 47.0813 17.2031 47.0063 17.25C46.9313 17.3062 46.9594 17.3625 46.9781 17.475C46.9969 17.5969 46.9594 17.6437 47.0156 17.6625C47.0719 17.6719 47.1281 17.6812 47.1469 17.7656C47.1656 17.8594 47.2031 17.8594 47.3156 17.8594C47.4188 17.8406 47.5031 17.8594 47.5031 17.9156C47.5031 17.9812 47.6156 18.075 47.625 17.8781C47.6344 17.6719 47.7188 17.6437 47.5125 17.7375C47.3063 17.8219 47.2688 17.7937 47.2688 17.7C47.2688 17.6062 47.25 17.625 47.175 17.6156C47.0813 17.6156 47.0531 17.4937 47.2031 17.4094C47.3531 17.3344 47.3531 17.4094 47.5406 17.2594C47.7281 17.1 47.7281 17.0719 47.7563 16.9781C47.7844 16.9125 47.4844 17.2031 47.3438 17.2594C47.2031 17.3344 47.25 17.2125 47.2688 17.0625C47.2969 16.9031 47.6438 16.6875 47.8031 16.6875C47.9719 16.6875 48.3281 16.7812 48.1781 16.9969C48.0188 17.2125 47.5781 17.4844 47.7563 17.5031C47.9531 17.5219 47.9813 17.4469 48.0938 17.5406C48.2063 17.6344 48.0938 17.8406 48.0563 17.9531C48.0059 18.051 47.9357 18.1372 47.85 18.2062C47.85 18.2062 47.6438 17.85 47.6531 18.1312C47.6531 18.4219 47.6063 18.525 47.6531 18.5344C47.7 18.5437 47.9156 18.6937 47.9906 18.6937C48.0656 18.6937 47.6063 18.9094 47.8031 18.9281C47.9906 18.9375 48.3 18.8344 48.4031 18.6469C48.4031 18.6469 48.0094 18.5531 47.85 18.4031C47.85 18.4031 48.3094 18.2906 48.1781 17.8594C48.1781 17.8594 48.6375 17.9812 48.4313 18.1875C48.2438 18.3844 48.1219 18.3562 48.2906 18.4125C48.4688 18.4687 48.5438 18.525 48.5438 18.525C48.5438 18.525 48.6656 18.5812 48.5906 18.675C48.525 18.7687 48.525 18.9187 48.5906 18.9094C48.6375 18.9094 48.8344 18.8156 48.675 18.7219C48.5063 18.6281 48.8531 18.6469 48.7125 18.5625C48.5625 18.4687 48.525 18.4594 48.4875 18.4125C48.4406 18.3844 50.3344 17.2687 49.3781 17.6812C49.3781 17.6812 49.575 17.25 49.8563 17.25C50.1375 17.25 50.1563 17.4656 49.9969 17.6437C49.8375 17.8031 49.7344 18.075 49.3688 18.1312C49.3688 18.1312 49.8938 18.3844 49.275 18.8062C49.275 18.8062 49.1344 18.8719 49.1813 18.9187C49.2281 18.9656 49.6031 18.7594 49.65 18.6375C49.6759 18.5743 49.7141 18.5169 49.7624 18.4686C49.8107 18.4204 49.8681 18.3822 49.9313 18.3562C50.0719 18.2906 50.775 17.8125 50.9813 17.4562C51.1969 17.0906 51.2438 17.0812 51.6563 16.7531C52.0688 16.425 51.9938 16.4906 52.05 16.4156C52.0969 16.3312 52.1156 16.2 52.3031 16.0969C52.4906 15.9844 53.2219 15.5906 53.4563 15.4219C53.6813 15.2531 54.15 14.9531 54.3563 14.6906C54.5531 14.4375 55.1063 14.1094 55.2375 14.1656C55.3688 14.2312 55.2188 14.4281 54.9094 14.6719C54.5813 14.9062 53.7844 15.5437 53.6625 15.6469C53.3445 15.9032 52.9908 16.1116 52.6125 16.2656C52.3594 16.2937 52.3875 16.3875 52.2375 16.5469C52.0875 16.7062 51.7406 17.0531 51.6281 17.1469C51.5063 17.2406 51.225 17.4281 51.2156 17.5687C51.1969 17.7094 51.2625 17.7187 51.0375 17.925C50.7042 18.2306 50.3284 18.4864 49.9219 18.6844C49.9219 18.6844 50.3438 18.8344 50.0906 19.1156C49.8469 19.3969 49.8563 19.3594 49.8469 19.3781C49.8469 19.3781 50.475 19.2844 50.0344 19.7812C50.0344 19.7812 49.9406 19.9219 50.1375 19.7812C50.3531 19.6031 50.2688 19.3969 50.2313 19.3594C50.2313 19.3594 50.5781 19.1437 50.9719 19.1437C51.3563 19.1437 51.3469 19.1156 50.9906 19.0125C50.9906 19.0125 51.2438 18.7125 51.4594 18.8625C51.6656 19.0031 51.5906 19.0969 51.375 19.2187C51.15 19.3312 50.8313 19.3781 50.5781 19.5187C50.5781 19.5187 51.0469 19.6125 51.2906 19.4156C51.5344 19.2281 51.5531 19.3219 51.5719 19.3594C51.6188 19.3969 51.6469 19.4531 51.5344 19.6031C51.4219 19.7625 51.4125 19.7719 51.4219 19.8094C51.4219 19.8469 51.4125 19.95 51.1875 19.9969C50.9719 20.025 50.8594 20.1187 50.9438 20.2219C51.0094 20.3344 51.0094 20.5969 50.8313 20.5687C50.6438 20.5406 50.6813 20.3906 50.6156 20.3344C50.5406 20.2781 50.4375 20.1937 50.1094 20.3531C49.7719 20.5312 49.7531 20.325 49.7625 20.2125C49.7625 20.2125 49.5469 20.4 49.3688 20.2312C49.1813 20.0531 49.35 19.9875 49.4625 19.9031C49.5563 19.8094 49.9781 19.6219 49.725 19.6687C49.4719 19.6969 49.0969 19.7062 49.0125 19.5187C48.9188 19.3219 49.2 19.3406 49.2375 19.3594C49.2844 19.3781 49.4531 19.5187 49.4719 19.3312C49.4719 19.1437 49.7531 19.1156 49.6594 19.0875C49.5656 19.05 49.425 19.1719 49.3875 19.2094C49.3875 19.2094 49.2 18.9375 48.8813 19.0219C48.5625 19.1156 48.975 19.0875 49.0688 19.0969C49.1438 19.1156 49.0969 19.2656 48.8156 19.5281C48.5344 19.7812 48.6563 19.6969 48.8625 19.6969C49.0781 19.6969 49.6031 19.6969 49.2938 19.9406C48.9938 20.1937 48.8719 20.3156 48.7313 20.2781C48.5625 20.2312 48.7313 20.1281 48.8063 20.0812C48.8813 20.0344 48.9188 19.9687 48.7688 20.025C48.6188 20.0719 48.5719 20.0906 48.45 19.8844C48.3375 19.6687 48.375 19.7344 48.4313 19.5937C48.4875 19.4531 48.6 19.3125 48.4688 19.3594C48.3188 19.4156 48.3375 19.425 48.3469 19.2656C48.3563 19.1062 48.1875 19.0687 48.1875 19.0687C48.1875 19.0687 48.2625 19.2281 48.1969 19.3312C48.1406 19.425 48.1313 19.4625 48.2344 19.4812C48.3281 19.5187 48.4219 19.6031 48.2906 19.6969C48.1594 19.7812 48.1781 19.7625 48.2531 19.8187C48.3469 19.8844 48.4688 19.9406 48.3375 20.0719C48.2063 20.2031 48.3094 20.1656 48.375 20.1656C48.45 20.1656 48.5906 20.2219 48.5906 20.3531C48.5906 20.4656 48.5906 20.4937 48.8063 20.3812C49.0219 20.2594 49.4344 20.2781 49.4344 20.4375C49.4344 20.6062 49.3781 20.6531 49.6031 20.5125C49.8281 20.3719 49.9313 20.6437 50.0906 20.5125C50.2406 20.3719 50.3344 20.25 50.5219 20.475C50.7 20.7 50.6438 20.7562 50.4281 20.925C50.2125 21.0844 50.5313 20.9625 50.7 20.8781C50.8688 20.7937 51.3281 20.7375 51.5906 20.8594C51.8625 20.9719 51.9375 20.9531 52.1344 20.8594C52.3313 20.7844 52.4344 20.7656 52.725 20.9625C53.0344 21.1687 53.2594 21.2062 53.4188 21.1969C53.4188 21.1969 53.0906 21.3281 52.7156 21.3469C52.3406 21.375 52.1531 21.4406 52.0875 21.4969C52.0875 21.4969 52.3031 21.6375 52.35 21.7969C52.35 21.7969 52.5938 21.7687 52.7063 21.8156C52.7063 21.8156 52.65 21.9937 52.8 22.0875C52.95 22.1812 53.0531 22.2187 52.9406 22.3406C52.8281 22.4719 53.1188 22.4156 52.95 22.5937C52.7906 22.7812 52.7531 22.875 52.7438 23.0156C52.7438 23.1656 52.7813 23.1844 52.6406 23.2031C52.4906 23.2125 52.6594 23.3812 52.5938 23.5781C52.5281 23.7656 52.125 23.7375 52.1438 24.2531C52.1438 24.2531 52.2563 24 52.5 23.7844C52.7344 23.5594 52.7438 23.5406 52.7344 23.4094C52.7344 23.2781 52.725 23.3062 52.8469 23.2031C52.9781 23.1094 52.7906 23.0156 52.9219 22.8656C53.0438 22.725 52.9406 22.7531 53.0906 22.6125C53.2313 22.4625 52.95 22.4531 53.1094 22.3031C53.25 22.1531 52.7344 21.975 52.8938 21.8812C53.0344 21.7875 53.2969 21.6562 52.425 21.6656C52.425 21.6656 52.6406 21.3281 53.3625 21.3937C53.3625 21.3937 53.175 21.5437 53.1563 21.675L53.3063 21.7219C53.3063 21.7219 53.2688 21.825 53.1281 21.9375C53.1281 21.9375 53.5219 22.1531 53.5875 22.2937C53.5875 22.2937 53.3438 22.3687 53.2781 22.4625C53.2781 22.4625 53.3906 22.5844 53.4281 22.7437C53.4281 22.7437 53.1563 22.7062 53.1281 22.9031C53.0906 23.1 53.0063 22.9687 53.0063 23.0906C53.0063 23.2125 53.0156 23.25 52.9219 23.2781C52.8281 23.2781 52.9125 23.3812 52.9219 23.4469C52.9406 23.5125 52.9781 23.6625 52.9594 23.7094C52.9594 23.7094 52.8188 23.7094 52.7625 23.7281C52.7625 23.7281 52.8 24.0094 52.6406 24.0562C52.4813 24.0937 52.7344 24.15 52.5563 24.1781C52.3875 24.2062 52.4156 24.225 52.2094 24.6C52.2094 24.6 52.3875 24.5062 52.5656 24.375C52.7531 24.2531 52.5469 24.2812 52.8469 24C53.1563 23.6906 53.1 23.6719 53.0719 23.5219C53.0531 23.3719 53.0438 23.2406 53.1563 23.1C53.2688 22.9594 53.2969 22.8 53.6906 22.8187C53.6906 22.8187 53.5781 22.5562 53.4375 22.4906C53.4375 22.4906 53.625 22.3687 53.8125 22.35C53.8125 22.35 53.6438 22.1344 53.2875 21.9375C53.2875 21.9375 53.5688 21.6937 53.6531 21.5719C53.6531 21.5719 53.5125 21.6 53.4 21.5719C53.4 21.5719 53.4563 21.45 53.7188 21.2812C53.7188 21.2812 53.8594 21.4125 53.85 21.5531C53.85 21.5531 54.3 21.3 54.5531 21.3281C54.5531 21.3281 54.6844 21.6469 54.0563 22.2656C54.0563 22.2656 54.45 22.2937 54.6188 22.2656C54.6188 22.2656 54.525 22.5656 54.0563 22.7344C53.5875 22.9219 54.15 23.1281 53.6719 23.0906C53.2031 23.0531 53.3438 23.2125 53.3531 23.4562C53.3719 23.7 53.3813 23.9531 53.3719 24.0187C53.3719 24.0187 52.9969 23.8969 52.9969 24.2625C53.0063 24.6375 52.8094 24.7125 52.7625 24.7406C52.7625 24.7406 52.65 24.6469 52.4813 24.5812C52.4813 24.5812 52.2469 25.0406 51.8719 25.3031V25.3031Z" fill="#5A3719"/>
<path d="M51.3187 20.6718C51.3187 20.6718 51.45 20.6531 51.675 20.7843C51.8906 20.925 52.1062 20.6437 51.8625 20.5687C51.6187 20.4937 51.8625 20.4 52.0875 20.5875C52.3125 20.7656 52.3969 20.6718 52.4812 20.6156C52.5562 20.55 52.6594 20.5125 52.5094 20.4093C52.3594 20.3062 52.6031 20.3531 52.725 20.4375C52.8375 20.5031 52.7906 20.5781 52.7812 20.5968C52.7625 20.6156 52.7531 20.8687 52.9687 20.6437C53.1937 20.4093 53.3156 20.1937 53.3062 20.0812C53.3062 20.0812 53.4281 20.1562 53.4469 20.2968C53.4656 20.4375 53.6344 20.2218 53.6906 20.1468C53.7469 20.0718 53.8406 19.8656 53.8312 19.7343C53.8312 19.7343 53.9812 19.9687 54.2062 19.7343C54.4312 19.5 54.3375 19.6406 54.6 19.575C54.907 19.4926 55.1838 19.3233 55.3969 19.0875C55.5844 18.8531 55.5937 19.0125 55.8281 18.9562C56.0625 18.9 56.55 18.5625 56.5969 18.3843C56.6344 18.2062 56.625 18.0937 56.5594 18.1593C56.4937 18.2156 56.5219 18.1593 56.4187 18.1031C56.3156 18.0375 56.1656 18.1875 56.1656 18.1875C56.1656 18.1875 56.3156 18.3 56.1937 18.3468C56.0812 18.4031 55.9781 18.5625 55.7625 18.4968C55.5469 18.4406 55.3125 18.7031 55.3125 18.7031C55.3125 18.7031 55.5 18.8531 55.2469 18.9562C54.9937 19.05 55.0312 19.0875 54.8812 18.975C54.8812 18.975 54.6094 19.3218 54.45 19.3968C54.45 19.3968 54.3844 19.3968 54.3375 19.3218C54.3375 19.3218 54.15 19.5187 54.075 19.5562C54.075 19.5562 53.9531 19.4625 53.8594 19.4156C53.8594 19.4156 53.6437 19.6875 53.4656 19.7625C53.4656 19.7625 53.4094 19.6687 53.2969 19.6031C53.2969 19.6031 53.2406 19.9406 52.8656 20.1468C52.8656 20.1468 52.8844 20.0531 52.6969 19.9312C52.6969 19.9312 52.2281 20.3343 52.05 20.3718C51.8625 20.4093 52.0312 20.2875 52.05 20.2312C52.0875 20.1843 52.2 20.0156 51.975 19.95C51.75 19.8843 51.7875 19.9968 51.7406 20.0156C51.6844 20.0343 51.6844 19.9781 51.5344 19.9968C51.3844 20.0156 51.4125 20.0812 51.3469 20.1093C51.2719 20.1281 51.0094 20.0625 51.0281 20.2406C51.0375 20.4093 51.1687 20.5312 50.9344 20.6343C50.7 20.7281 51.0281 20.7093 51.3187 20.6718V20.6718Z" fill="#7B3C20"/>
<path d="M52.2656 20.1844C52.2656 20.1844 52.3219 19.95 52.125 19.8563C52.125 19.8563 53.3625 19.6594 52.425 19.1813C52.425 19.1813 53.5406 18.9656 53.2688 18.6094C53.0156 18.2531 52.7625 18.3281 52.725 18.3281C52.6875 18.3281 52.9594 18.1313 53.0344 18.1594C53.1 18.1875 53.9906 18.525 53.7656 18.225C53.5406 17.9438 53.5594 17.9531 53.5219 17.8688C53.5219 17.8688 53.8125 17.8688 54.2625 18.3C54.2625 18.3 54.3563 18.2063 54.3469 18.0281C54.3469 18.0281 54.6562 18.1219 54.7594 18.2156C54.7594 18.2156 54.8156 18.1031 54.7875 18.0469C54.7875 18.0469 55.0688 18.1875 55.1625 18.3469C55.1625 18.3469 55.2844 18.2344 55.3031 18.1031C55.3031 18.1031 55.5844 18.225 55.65 18.3094C55.65 18.3094 55.7438 18.1875 55.7063 18.0281C55.7063 18.0281 56.1656 18.15 56.2219 17.8781C56.2219 17.8781 56.6813 17.9719 56.3813 18.15C56.0063 18.3844 56.3437 18.0938 55.95 18.3656C55.65 18.5813 55.4813 18.825 55.3313 18.7781C55.2281 18.7313 55.0969 19.05 54.9563 18.9C54.8156 18.7406 54.8156 18.8063 54.7031 18.9656C54.6258 19.0828 54.538 19.1926 54.4406 19.2938C54.4406 19.2938 54.3656 19.2469 54.2906 19.1813C54.2906 19.1813 54.2156 19.3313 54.1031 19.4438C54.1031 19.4438 54.0094 19.3219 53.8594 19.2563C53.8594 19.2563 53.6438 19.5094 53.5031 19.6031C53.5031 19.6031 53.3719 19.4719 53.2312 19.425C53.2312 19.425 53.2125 19.7813 52.9406 19.9594C52.9406 19.9594 52.8844 19.8469 52.6969 19.7719C52.6969 19.7719 52.5656 19.9875 52.2656 20.175V20.1844Z" fill="#5A3719"/>
<path d="M51.6187 19.6406C51.6187 19.6406 51.4688 19.7531 51.5625 19.875C51.6563 20.0062 51.6656 19.8562 51.7875 19.8469C51.9094 19.8281 53.4281 19.5656 52.05 19.1625C52.05 19.1625 52.1156 19.1062 52.3406 19.0875C52.5844 19.0594 53.4469 18.8344 53.0438 18.525C52.6406 18.225 52.3031 18.6281 52.6406 18.2625C52.9219 17.9719 52.6969 17.8312 52.6969 17.8312C52.6969 17.8312 51.9 18.3562 51.7219 18.4594C51.5531 18.5531 51.2906 18.7406 51.5906 18.8344C51.9 18.9281 52.0969 18.5156 52.125 18.6094C52.1531 18.7031 51.525 19.0594 51.6187 19.2094C51.7031 19.3781 51.6844 19.5187 51.8438 19.4812C51.9938 19.4531 52.4063 19.5562 52.0781 19.5469C51.7313 19.5375 51.6094 19.6406 51.6094 19.6406H51.6187Z" fill="#5A3719"/>
<path d="M52.1625 18.8719C52.1625 18.8719 52.0219 18.975 52.2094 18.9281C52.3969 18.8812 52.7625 18.7969 52.6969 18.7031C52.6219 18.6094 52.3781 18.7219 52.1625 18.8719Z" fill="black"/>
<path d="M54.6 17.2969C54.6 17.2969 55.3031 17.2781 55.5844 17.475C55.8656 17.6625 56.0156 17.7937 56.1 17.8312C56.1 17.8312 56.0906 18.0937 55.6313 17.8969C55.6313 17.8969 55.6688 18.0281 55.6125 18.1594C55.6125 18.1594 55.4531 18.0469 55.2563 18C55.2563 18 55.2188 18.0937 55.1625 18.1594C55.1625 18.1594 54.9656 17.9531 54.7313 17.8875C54.7313 17.8875 54.6938 17.9906 54.6563 18.0375C54.6563 18.0375 54.4125 17.8875 54.225 17.8875C54.225 17.8875 54.2625 18.0469 54.225 18.1031C54.225 18.1031 53.7188 17.7 53.2594 17.7469C53.2594 17.7469 53.475 18.075 53.6156 18.225C53.6156 18.225 52.6969 18.1594 52.8656 17.6625C53.0063 17.1656 52.8469 17.2875 53.4469 17.2875H54.6V17.2969Z" fill="#7B3C20"/>
<path d="M50.2781 18.6656C50.2781 18.6656 50.175 18.7594 50.2781 18.825C50.3813 18.9 50.7469 18.6375 50.7938 18.6C50.85 18.5625 50.9813 18.5625 50.7938 18.7031C50.6063 18.8438 50.4375 18.9844 50.325 19.1344C50.325 19.1344 50.925 18.9656 51.3188 18.6281C51.7219 18.2812 51.3094 18.5062 51.975 18.1781C52.6594 17.85 53.0156 17.325 52.65 17.3812C52.2938 17.4375 51.9656 17.85 51.675 18.0094C51.3938 18.1688 51.2344 18.1969 51.2813 18.1031C51.3188 18.0094 51.5344 18.0469 51.9281 17.7281C52.3125 17.4188 52.2281 17.4469 52.2281 17.3344C52.2281 17.2219 52.0875 16.9594 52.6688 16.6406C53.25 16.3313 55.0688 15.2812 55.2281 14.9062C55.2281 14.9062 54.6938 14.9625 53.9906 15.4781C53.605 15.8005 53.1835 16.0774 52.7344 16.3031C52.5469 16.3781 52.5656 16.3219 52.4438 16.4813C52.1408 16.8003 51.8249 17.1068 51.4969 17.4C51.375 17.4938 51.3281 17.55 51.3188 17.7562C51.3188 17.85 50.5313 18.4406 50.2875 18.6656H50.2781Z" fill="#5A3719"/>
<path d="M52.6875 17.2781C52.6875 17.2781 52.5469 17.3344 52.4062 17.2781C52.2844 17.2125 52.3312 16.9406 52.6406 16.7625C53.0122 16.5599 53.4096 16.4085 53.8219 16.3125C53.8219 16.3125 53.775 16.6688 52.875 16.9781C52.875 16.9781 52.9312 17.1656 52.6875 17.2781V17.2781Z" fill="#5A3719"/>
<path d="M53.0063 17.0437C53.0063 17.0437 53.0344 17.1375 53.0063 17.2125C53.0063 17.2125 54.6844 17.3719 55.5469 16.35C55.5469 16.35 54.3563 16.4625 53.8875 16.7531C53.8875 16.7531 54.1875 16.3781 55.0781 16.0687C55.9688 15.7594 56.3344 15.375 56.4094 15.1594C56.4094 15.1594 55.2844 15.5625 54.75 15.5625C54.75 15.5625 54.6375 15.5625 54.5344 15.6094C54.4313 15.675 53.7094 16.1906 53.5219 16.2844C53.5219 16.2844 53.925 16.2469 54.075 16.1156C54.075 16.1156 53.7938 16.8656 53.0063 17.0531V17.0437Z" fill="#AA5323"/>
<path d="M49.7812 18C49.7812 18 49.5656 18.1594 49.6594 18.225C49.7531 18.3094 49.9031 18.3187 50.2219 18.0469C50.5594 17.7656 51.3563 17.0906 50.8594 17.0625C50.8594 17.0625 50.2031 17.025 50.2312 17.4187C50.25 17.8125 49.8188 17.9812 49.7812 18ZM48.2906 17.7656C48.2906 17.7656 48.7219 18.0187 48.5531 18.225C48.5531 18.225 49.8656 17.1187 49.4906 16.875C49.1344 16.6312 48.8438 17.0906 48.9281 17.1281C49.0219 17.1844 49.2094 17.0906 49.1438 17.1844C48.8765 17.3978 48.5946 17.592 48.3 17.7656H48.2906ZM47.9531 17.4094C47.9531 17.4094 48.2344 17.5031 48.2531 17.625C48.2625 17.7375 49.1156 17.025 48.8906 16.7156C48.7875 16.575 48.3281 16.5281 48.2906 16.7906C48.2719 17.0719 48.7219 16.7625 48.5719 16.9594C48.3656 17.2125 48.0187 17.3719 47.9531 17.4094V17.4094ZM51.0094 16.8094C51.0094 16.8094 50.8313 16.9406 51 17.025C51.1687 17.0906 51.2625 16.9687 51.3469 16.9031C51.4313 16.8281 51.8438 16.5281 51.9281 16.3406C52.0219 16.1531 52.1625 16.0875 52.3125 15.9937C52.4531 15.9 53.4937 15.375 54.1406 14.8031C54.7781 14.2312 54.5156 14.3812 55.1719 14.0156C55.8281 13.65 56.2688 13.3125 56.4094 12.9094C56.4094 12.9094 56.1 13.0031 55.8281 13.1906C55.499 13.4023 55.1646 13.6055 54.825 13.8C54.7031 13.8469 54.5437 13.8562 54.45 13.95C54.3562 14.0437 54.3562 14.1656 54.0469 14.4187C53.7188 14.6906 52.0781 15.8531 51.8719 16.0125C51.5794 16.2727 51.2919 16.5384 51.0094 16.8094Z" fill="#5A3719"/>
<path d="M49.6875 17.1937C49.6875 17.1937 49.875 17.1 50.2125 17.1187C50.55 17.1375 51.8812 15.8437 52.275 15.5906C52.8739 15.1794 53.4586 14.7479 54.0281 14.2969C54.1969 14.1281 54.2156 13.9594 54.3656 13.8656C54.5063 13.7719 54.6469 13.7812 54.9656 13.5937C55.2937 13.4062 56.8687 12.4687 56.775 11.925C56.775 11.925 54.4313 13.3312 53.8969 13.7812C53.1477 14.3654 52.3752 14.919 51.5813 15.4406C51.3188 15.6187 51.1125 15.9094 50.6531 16.2656C50.2125 16.6312 49.7625 16.9406 49.6875 17.2031V17.1937Z" fill="#AA5323"/>
<path d="M49.2 16.6875C49.2 16.6875 49.6312 16.65 49.6875 16.8656C49.6875 16.8656 50.625 16.2282 50.8312 15.9657C51.0375 15.7032 50.7562 15.8531 51.2906 15.5063C52.1508 14.933 52.9949 14.3359 53.8219 13.7157C54.075 13.5 54.5531 13.2 54.9375 12.9469C55.3125 12.6844 56.8031 11.9531 56.6344 11.3531L55.3031 12.2438C55.05 12.4125 54.9375 12.3188 54.6938 12.5156C54.45 12.7125 53.8969 13.1063 53.8031 13.2282C53.3728 13.5969 52.9221 13.9412 52.4531 14.2594C52.0406 14.5407 51.1312 15.0656 50.6812 15.4594C50.1946 15.8803 49.7008 16.2929 49.2 16.6969V16.6875Z" fill="#AA5323"/>
<path d="M47.85 16.575C47.85 16.575 48.0656 16.575 48.1406 16.6594C48.1406 16.6594 48.5438 16.2937 48.975 16.6594C48.975 16.6594 50.55 15.5813 50.7094 15.3094C50.8688 15.0469 51.1313 15.0375 51.7406 14.5969C52.3594 14.1469 52.7438 13.95 53.1469 13.6406C53.5594 13.3219 53.9063 12.9562 54.1969 12.7687C54.4875 12.5812 55.2281 12.0938 55.1156 11.6719C55.1156 11.6719 54.5063 12.0094 54.1219 12.4406C53.7281 12.8719 53.7656 12.5062 53.3625 12.8625C52.8995 13.2888 52.3864 13.6571 51.8344 13.9594C51.3188 14.2125 51.6281 14.1844 51.2531 14.4281C50.8875 14.6625 50.9156 14.6156 50.7844 14.6625C50.6003 14.7059 50.4336 14.8039 50.3063 14.9437C50.1563 15.1031 49.8 15.3187 49.4063 15.5531C48.8568 15.8445 48.3358 16.1866 47.85 16.575V16.575Z" fill="#AA5323"/>
<path d="M48.3281 15.75C48.3281 15.75 48.2344 15.5719 48.3938 15.4406C48.5438 15.3188 48.825 14.9906 48.8625 14.7844C48.9094 14.5688 48.8719 14.6063 49.3125 14.4281C50.5811 13.8951 51.7831 13.2155 52.8938 12.4031C53.0625 12.2625 53.4938 11.9719 53.6719 11.8219C53.6719 11.8219 53.7469 12.0563 53.5594 12.2156C52.9155 12.7205 52.2425 13.1869 51.5438 13.6125C51.3375 13.7156 50.8313 13.9781 50.6438 14.1281C50.4656 14.2781 50.4938 14.3156 49.6875 14.7188C48.8906 15.1031 48.8438 15.15 48.8719 15.1781C48.9 15.2156 49.2656 15.0563 49.4344 14.9531C49.6031 14.8594 50.2594 14.55 50.4656 14.3906C50.6744 14.2209 50.8936 14.0643 51.1219 13.9219C51.6967 13.5922 52.2596 13.2419 52.8094 12.8719C53.1375 12.6188 53.2312 12.5438 53.3062 12.5906C53.3719 12.6281 53.4938 12.6281 53.3438 12.7781C53.1938 12.9281 52.7156 13.3407 52.5281 13.4625C52.3406 13.5844 51.7688 13.9313 51.6094 14.0063C51.45 14.1 51.3844 14.2407 51.2906 14.3063C51.2062 14.3813 50.9437 14.5594 50.6344 14.6344C50.325 14.7094 50.2594 14.9438 50.0438 15.0844C49.8281 15.2156 48.3563 16.0219 48.3094 16.05C48.3094 16.05 48.3938 15.9563 48.3281 15.75V15.75Z" fill="#AA5323"/>
<path d="M53.4656 12.4125C53.4656 12.4125 53.3812 12.4875 53.4281 12.525C53.4844 12.5813 53.6906 12.7313 53.9531 12.4688C54.3197 12.1273 54.7114 11.8139 55.125 11.5313C55.3406 11.3906 55.4625 11.2688 55.4531 11.0906C55.4531 11.0906 54.3844 11.6531 53.4656 12.4125ZM54.9281 12.3188C54.9281 12.3188 55.0875 12.0469 55.4906 11.7844C55.8937 11.5313 56.5031 11.1563 56.5687 11.0719C56.5687 11.0719 56.7187 11.2313 56.4094 11.4281C56.0674 11.6399 55.7298 11.8587 55.3969 12.0844C55.3312 12.15 55.2094 12.2344 54.9281 12.3188Z" fill="#AA5323"/>
<path d="M46.7813 15.2812C46.7813 15.2812 46.3313 15.525 46.4906 15.675C46.65 15.8156 46.8844 15.7688 46.9969 15.7313L47.2969 15.6375C47.3344 15.6375 47.7188 15.5156 47.8219 15.3375C47.9156 15.15 48.1781 14.9438 48.3844 14.7938C48.5906 14.6531 48.6656 14.4938 48.6375 14.3906L46.7813 15.2812ZM44.1188 17.3438C44.1188 17.3438 44.4375 17.1563 44.8688 17.2781C44.8688 17.2781 44.85 17.175 44.775 17.1188C44.775 17.1188 45.3094 16.9781 45.4219 16.7438C45.5344 16.5094 45.5625 16.5563 45.6563 16.5C45.7688 16.425 46.4719 15.8625 46.3875 15.7406C46.3031 15.6187 46.2938 15.45 46.2281 15.3937C46.2281 15.3937 46.0875 15.5906 45.3844 15.9281C44.7094 16.2656 43.9406 16.5094 43.3781 17.2594C42.825 18.0094 42.8813 18.4406 43.5656 18.6375C43.5656 18.6375 44.0344 18.3375 45.2156 18.4406C46.3781 18.5437 46.7719 18.9844 46.8469 19.0594C46.9219 19.1438 47.1563 19.4344 46.9313 19.9125C46.9313 19.9125 47.1656 20.0156 47.175 19.7906C47.2031 19.575 47.2125 19.6219 47.2688 19.65C47.325 19.6875 47.3906 19.6969 47.3625 19.5187C47.3392 19.281 47.2657 19.051 47.1469 18.8438C47.0438 18.7031 47.1656 18.7687 47.2312 18.7875C47.2969 18.8156 47.5406 19.0219 47.4 18.6469C47.2594 18.2906 47.2125 18.4594 47.2125 18.4781C47.2125 18.5063 47.175 18.5906 46.8562 18.3469C46.6091 18.1596 46.3294 18.0198 46.0313 17.9344C45.8156 17.8781 45.9656 17.8781 46.0969 17.8406C46.2281 17.7844 46.3875 17.7656 46.4531 17.6156C46.4531 17.6156 46.3219 17.6438 46.0969 17.5594C45.9148 17.5059 45.7229 17.495 45.536 17.5275C45.349 17.56 45.1721 17.6351 45.0188 17.7469C45.0188 17.7469 45.1313 17.325 44.7844 17.3438C44.4469 17.3719 44.2031 17.3625 43.8469 17.6437C43.8469 17.6437 43.8188 17.2125 44.1656 16.9875C44.5125 16.7531 44.4656 16.8938 44.6531 16.8375C44.8406 16.7813 44.8688 16.5844 44.7844 16.5187C44.7844 16.5187 45.2344 16.6031 45.9844 15.975C45.9844 15.975 45.5813 16.5094 45.0938 16.6125C45.0938 16.6125 45.0094 16.8937 44.5594 16.9594C44.1094 17.025 44.1281 17.2781 44.1281 17.3438H44.1188Z" fill="#7B3C20"/>
<path d="M42.8437 19.9406C42.8437 19.9406 43.05 18.6187 44.2969 18.525C45.3656 18.4312 45.7125 18.5719 45.9281 18.6469C46.1437 18.7219 46.6781 18.8719 46.4719 19.0406C46.2656 19.2094 46.1437 19.1812 46.1437 19.1812C46.1437 19.1812 46.3781 18.9094 46.1625 18.8719C45.9469 18.825 45.9375 18.9562 45.9094 19.0594C45.8719 19.1812 45.8625 19.3031 45.7594 19.3969C45.7594 19.3969 45.6469 19.2656 45.4875 19.3781C45.3281 19.4906 45.4687 19.4906 45.5344 19.4719C45.5906 19.4531 45.675 19.425 45.6562 19.5187C45.6469 19.6125 45.5625 19.7812 45.3 19.9125C45.0469 20.0437 45.0562 20.0344 44.7562 20.0906C44.4469 20.1375 44.1656 20.2594 43.7719 20.5875C43.3781 20.925 42.9562 20.8125 42.8719 20.4469C42.7969 20.1281 42.8344 19.9406 42.8344 19.9406H42.8437Z" fill="#5A3719"/>
<path d="M44.25 19.8938C44.25 19.8938 44.3625 19.6406 44.1562 19.5188C44.1562 19.5188 43.5094 19.6313 43.3125 19.4344C43.3125 19.4344 44.0156 19.3969 44.4563 19.2188C44.8875 19.0594 44.7656 18.9375 44.6156 18.9C44.4656 18.8719 44.1844 18.9469 44.1562 19.0875C44.1562 19.0875 44.0625 18.9375 44.175 18.8438C44.2969 18.7406 44.4562 18.7219 44.6156 18.7688C44.775 18.8063 44.9062 18.8813 45.4219 18.6188C45.4219 18.6188 45.7125 18.6844 45.7312 18.8813C45.7312 19.0875 45.7031 19.1625 45.675 19.1906C45.6563 19.2281 45.6187 19.2844 45.5531 19.2844C45.4969 19.2656 45.4125 19.2563 45.3375 19.3969C45.2719 19.5375 45.2156 19.65 45.0938 19.7438C45.0938 19.7438 45.2344 19.3125 44.8594 19.2094C44.8594 19.2094 44.55 19.3969 44.3156 19.4063C44.3156 19.4063 44.6156 19.6875 44.2406 19.8938H44.25Z" fill="black"/>
<path d="M44.9344 19.1062C44.9344 19.1062 44.7844 18.9562 44.9719 18.9281C45.1594 18.9187 45.4031 19.0594 45.3656 19.1812C45.3094 19.2937 45.0844 19.2844 44.9344 19.1062V19.1062Z" fill="#5A3719"/>
<path d="M55.5563 17.025C55.5563 17.025 55.2094 17.1187 55.5375 17.3344C55.8563 17.55 56.0063 17.7281 56.2406 17.7844C56.475 17.85 56.7094 17.925 56.7094 18.1594C56.7094 18.3937 56.6625 18.4875 56.5313 18.6469C56.4094 18.8062 56.6063 18.8719 56.775 18.7875C56.9438 18.6937 57.0844 18.6469 57.1969 18.5812C57.3 18.5156 57.4781 18.525 57.3281 18.6094C57.15 18.7031 56.9813 18.75 57.1969 18.75C57.4125 18.7594 58.7156 18.7875 58.9875 18.6937C59.2688 18.6094 59.625 18.5812 59.6438 18.225C59.6438 18.225 59.6625 18.075 59.7656 18C59.8594 17.9344 59.9344 17.7844 59.7844 17.8875C59.6438 17.9906 59.5313 18.0469 59.5031 18.0094C59.475 17.9812 59.4563 17.9531 59.5688 17.9062C59.6813 17.8594 59.7375 17.9062 59.8406 17.7656C59.9344 17.6156 59.9344 17.6344 59.8781 17.5781C59.8219 17.5219 59.7094 17.4844 59.7656 17.4094C59.8219 17.3344 59.8781 17.1281 59.6344 17.25C59.4 17.3719 58.9219 17.7 58.6969 17.7469C58.4906 17.7937 58.3219 17.8594 58.0313 17.9156C57.75 17.9812 57.5625 18.0469 57.2344 18.225C56.925 18.3937 56.9531 18.1219 57 18.0844C57 18.0844 57.1219 18.3 57.4406 18.0187C57.7594 17.7469 57.6563 18.0094 58.4344 17.7469C59.2125 17.4937 59.025 17.4562 59.325 17.2969C59.6344 17.1375 59.925 17.1281 59.7 16.9219C59.4938 16.6969 59.475 16.6875 59.2031 16.9219C58.7619 17.2455 58.2458 17.452 57.7031 17.5219C57.7031 17.5219 59.4656 16.7719 59.2875 16.6594C59.1338 16.5582 58.9665 16.4793 58.7906 16.425C58.6688 16.3969 58.6313 16.3687 58.35 16.5C58.0688 16.6219 58.0219 16.65 57.9469 16.6594C57.8531 16.6594 57.6188 16.7156 57.2906 16.8844C56.9531 17.0625 56.775 17.1281 56.5406 17.2594C56.5406 17.2594 56.7 16.95 57.3938 16.7437C58.0875 16.5375 58.4344 16.35 58.3688 16.3125C58.3031 16.275 58.1156 16.2375 57.9938 16.2656C57.8531 16.2937 57.9 16.2562 57.4688 16.425C57.0469 16.5937 57.225 16.5562 56.8875 16.6312C56.5406 16.6969 56.4094 16.7719 56.2406 16.8469C56.2406 16.8469 56.3156 16.7531 56.5313 16.6687C56.6531 16.6312 56.4094 16.5844 56.7375 16.575H56.8313C57.1134 16.511 57.385 16.4069 57.6375 16.2656C57.5719 16.2562 57.1594 16.2094 56.7469 16.4156C56.325 16.6031 56.5125 16.5375 56.3719 16.5562C56.2219 16.5937 55.9031 16.7812 55.8094 16.875C55.7063 16.9594 55.5563 17.0156 55.5563 17.0156V17.025Z" fill="white"/>
<path d="M45.2531 18.9187C45.2531 18.9187 45.4219 18.9656 45.4594 19.0875C45.5063 19.2 45.6094 19.0312 45.6094 18.9844C45.6 18.9281 45.4969 18.7031 45.3281 18.8062C45.1406 18.9094 45.2344 18.9094 45.2531 18.9187Z" fill="#5A3719"/>
<path d="M44.8031 21.1875C44.8031 21.1875 45.15 21.0187 45.45 21.0469C45.45 21.0469 45.3281 20.6344 45.5344 20.7C45.7312 20.775 45.675 20.7375 45.7219 20.7375C45.7219 20.7375 45.7312 20.4656 45.675 20.3625C45.675 20.3625 45.8906 20.4094 46.1062 20.4094C46.1062 20.4094 45.9 20.025 46.125 19.7531C46.1658 19.83 46.2217 19.8979 46.2894 19.9526C46.357 20.0074 46.435 20.0479 46.5187 20.0719V19.8562C46.5187 19.8562 46.6781 19.8281 46.8 19.8937C46.9312 19.9687 47.0344 19.1812 46.6594 19.0219C46.6594 19.0219 46.5656 19.1625 46.2187 19.2375C45.8719 19.3125 45.8719 19.3781 45.7312 19.6406C45.5906 19.9031 45.45 19.9125 45.15 20.1094C44.8687 20.2969 44.6812 20.6719 44.6812 20.7094C44.6812 20.7094 44.8219 20.8969 44.8031 21.1875V21.1875Z" fill="#7B3C20"/>
<path d="M56.5406 16.6687C56.6625 16.65 56.4094 16.5844 56.7281 16.575H56.8219C57.1073 16.5119 57.382 16.4077 57.6375 16.2656C57.5719 16.2562 57.1594 16.2094 56.7469 16.4062C56.3344 16.6031 56.5125 16.5375 56.3719 16.5656C56.2219 16.5937 55.9031 16.7812 55.8094 16.875C55.7063 16.9594 55.5563 17.0156 55.5563 17.0156C55.5563 17.0156 55.2094 17.1094 55.5375 17.3344C55.8563 17.55 56.0063 17.7281 56.2406 17.7844C56.475 17.85 56.7094 17.925 56.7094 18.1594C56.7144 18.2485 56.7012 18.3376 56.6706 18.4215C56.6399 18.5053 56.5925 18.582 56.5313 18.6469C56.4094 18.8062 56.6063 18.8719 56.775 18.7875C56.9438 18.6937 57.0844 18.6469 57.1969 18.5812C57.3 18.5156 57.4781 18.525 57.3188 18.6094C57.15 18.7031 56.9813 18.75 57.1969 18.75C57.4125 18.7594 58.7156 18.7875 58.9875 18.6937C59.2688 18.6094 59.625 18.5812 59.6438 18.225C59.6438 18.225 59.6625 18.075 59.7656 18C59.8594 17.9344 59.9344 17.7844 59.7844 17.8875C59.6438 17.9906 59.5219 18.0469 59.5031 18.0094C59.475 17.9812 59.4563 17.9531 59.5688 17.9062C59.6813 17.8594 59.7375 17.9062 59.8406 17.7656C59.9344 17.6156 59.9344 17.6344 59.8781 17.5781L59.7844 17.4937C59.7844 17.4937 59.7 17.4281 59.6063 17.4844C59.4 17.5982 59.1793 17.6834 58.95 17.7375C58.8 17.7469 58.6219 17.8219 58.3406 17.9625C58.0594 18.1031 57.5719 18.3937 57.4969 18.1219L57.2344 18.2156C56.9156 18.3844 56.9531 18.15 57 18.0844C57 18.0844 56.8313 18.2719 56.8406 18.1031C56.8406 17.9344 56.9531 17.9625 57.15 17.9062C57.3375 17.85 57.6188 17.7187 57.5063 17.625C57.3844 17.5312 57.2531 17.7187 57.1125 17.7937C56.9813 17.8594 56.7094 17.9062 56.6625 17.7094C56.625 17.5125 56.625 17.3719 56.2594 17.3531C55.8844 17.3344 55.8938 17.1 55.9969 16.9969C56.1 16.9031 56.1844 16.7344 56.5313 16.6687H56.5406Z" fill="#999999"/>
<path d="M57.7125 18.4594C57.7125 18.4594 58.2844 18.1969 58.8094 18.075C59.3437 17.9531 58.9219 18.0938 58.8375 18.1125C58.7437 18.1406 57.9281 18.4125 57.7312 18.5063C57.5437 18.6 57.5719 18.525 57.7125 18.4688V18.4594ZM57.8437 18.5813C57.8437 18.5813 58.4906 18.3656 58.6125 18.45C58.7344 18.5438 58.6313 18.5063 58.4906 18.525C58.3406 18.5344 57.9562 18.6 57.8531 18.6C57.75 18.6 57.8437 18.5813 57.8437 18.5813V18.5813ZM58.875 18.3469C58.875 18.3469 59.0062 18.3281 59.0156 18.3844C59.025 18.4219 58.9594 18.4313 58.8938 18.4219C58.8281 18.4125 58.7719 18.375 58.8844 18.3469H58.875Z" fill="black"/>
<path d="M41.8125 23.9906C41.8125 23.9906 41.7844 23.4094 42.075 23.1281C42.3656 22.8469 43.7438 21.3937 43.9594 20.9906C43.9594 20.9906 44.1469 21.1125 44.1469 21.3469C44.1469 21.3469 44.3813 20.9437 44.5688 20.7844C44.5688 20.7844 44.7281 20.9531 44.7094 21.2906C44.7094 21.2906 45.0375 21.1125 45.5531 21.1125C45.5531 21.1125 45.3656 21.3375 45.3563 21.4781C45.3563 21.4781 46.0688 21.3844 46.4531 21.45C46.4531 21.45 45.4594 22.0125 45.7313 22.0594C46.0219 22.1062 46.3125 22.0594 46.3125 22.0594C46.3125 22.0594 45.9938 22.3687 45.4875 22.4344C45.4875 22.4344 46.1344 22.4344 46.2563 22.575C46.2563 22.575 45.6375 22.6687 45.1313 23.0437C45.1313 23.0437 45.0938 23.025 45.0938 22.8844C45.0938 22.8844 45.0656 23.0156 44.925 23.1375C44.7844 23.25 44.4469 23.5125 44.3156 23.6344C44.1844 23.7562 43.9594 24.0094 43.6969 24.0094C43.6969 24.0094 43.7531 23.8125 43.5656 23.7469C43.4683 23.7137 43.3634 23.7093 43.2637 23.7343C43.1639 23.7592 43.0734 23.8124 43.0031 23.8875C43.0031 23.8875 42.3469 23.8969 42.1219 23.9344C42.1219 23.9344 42.2719 23.6906 42.4031 23.6906C42.5531 23.6906 43.1156 23.7844 43.1625 23.3906C43.2188 23.0156 42.8063 23.1094 42.9563 22.8844C43.1156 22.6594 43.0781 22.6781 43.0875 22.6406C43.0875 22.6406 42.9563 22.7156 42.8813 22.9219C42.8203 23.1498 42.6808 23.349 42.4875 23.4844C42.303 23.6033 42.1489 23.7639 42.0375 23.9531C42.0375 23.9531 41.9156 23.9531 41.8125 23.9906V23.9906Z" fill="white"/>
<path d="M42.45 23.6437C42.45 23.6437 42.4781 23.5687 42.6656 23.5312C42.8719 23.5031 42.8812 23.4094 42.8531 23.3625C42.825 23.325 42.7125 23.325 42.9 23.1C42.9 23.1 42.975 23.1281 43.0125 23.175C43.0687 23.2312 43.2844 23.6906 42.45 23.6437Z" fill="white"/>
<path d="M41.9906 23.2406C41.9906 23.6156 42.4875 23.475 42.4875 23.475C42.3554 23.5725 42.2357 23.6858 42.1313 23.8125C42.1688 23.625 41.85 23.5781 41.85 23.5781C41.8786 23.4589 41.9261 23.3449 41.9906 23.2406V23.2406ZM43.8 21.225L43.9594 20.9906C43.9594 20.9906 44.1469 21.1125 44.1469 21.3469C44.1469 21.3469 44.3813 20.9437 44.5688 20.7844C44.5688 20.7844 44.7281 20.9531 44.7094 21.2906C44.7094 21.2906 45.0375 21.1125 45.5531 21.1125C45.5531 21.1125 45.3656 21.3375 45.3563 21.4781C45.3563 21.4781 46.0688 21.3844 46.4531 21.45C46.4531 21.45 45.4594 22.0125 45.7313 22.0594C46.0219 22.1062 46.3125 22.0594 46.3125 22.0594C46.3125 22.0594 45.9938 22.3687 45.4875 22.4344C45.4875 22.4344 46.1344 22.4344 46.2563 22.575C46.2563 22.575 46.0688 22.6031 45.825 22.6875C45.825 22.6875 45.6469 22.5187 45.1125 22.5469C45.1125 22.5469 45.525 22.3031 45.8625 22.2281C45.8625 22.2281 45.7125 22.0406 45.4875 22.2187C45.4875 22.2187 45.0281 21.9094 45.4125 21.6375C45.4125 21.6375 45.15 21.5906 44.9719 21.7125C44.9719 21.7125 44.9719 21.4969 45.1688 21.4031C45.1688 21.4031 44.6625 21.3094 44.5406 21.6844C44.5406 21.6844 44.4469 21.5437 44.4938 21.3656C44.4938 21.3656 44.1844 21.5437 44.0438 21.7406C44.0438 21.7406 43.9969 21.3656 43.8 21.225M42.825 23.625C42.7406 23.6437 42.6094 23.6531 42.45 23.6437C42.45 23.6437 42.4688 23.5969 42.5719 23.55C42.5719 23.55 42.6094 23.625 42.825 23.625Z" fill="#999999"/>
<path d="M43.7437 22.1906C43.7437 22.1906 43.9781 22.3781 44.0531 22.4719C44.0531 22.4719 44.2687 22.3406 44.3344 22.2188C44.3344 22.2188 44.5125 22.3219 44.5594 22.4813C44.5594 22.4813 44.6812 22.4063 44.7 22.2938C44.7 22.2938 44.9812 22.35 45.0937 22.4438C45.0937 22.4438 45.1312 22.1625 45.0937 21.9938C45.0937 21.9938 45.2906 22.0125 45.4125 22.0594C45.4125 22.0594 45.3 21.8719 45.8812 21.6375C45.8812 21.6375 45.4406 21.7406 45.2719 21.9188C45.2719 21.9188 45.0844 21.9375 45 21.8813V22.3031C45 22.3031 44.8875 22.2469 44.6719 22.2C44.6719 22.2 44.6156 22.2938 44.5781 22.3125C44.5781 22.3125 44.4375 22.2 44.3812 22.0594C44.3812 22.0594 44.1656 22.2563 44.1 22.3406C44.1 22.3406 43.8844 22.1906 43.7437 22.1906V22.1906Z" fill="black"/>
<path d="M42.4219 25.0594C42.4219 25.0594 42.5156 25.0969 42.7312 24.9281C42.9469 24.7594 43.5469 24.375 43.5938 24.0656C43.6594 23.7563 43.4062 23.7469 43.2188 23.8313C43.0125 23.925 43.0969 24.0844 43.1062 24.15C43.1062 24.2063 43.125 24.4219 42.7969 24.7125L42.4219 25.0594Z" fill="#FFC221"/>
<path d="M42.3656 25.1531C42.3656 25.1531 41.8781 24.9469 42.3094 24.7312C42.7406 24.5156 42.9375 24.4594 42.9844 24.2719C43.0406 24.0937 43.0031 24.1312 42.8438 24.2062C42.6844 24.2719 42.075 24.5625 41.9813 24.3C41.9813 24.3 42.2344 24.3937 42.5438 24.2437C42.8625 24.0844 43.125 24.0469 42.9188 23.9812C42.5746 23.9453 42.227 23.9611 41.8875 24.0281C41.7563 24.0656 41.7938 24.0562 41.7656 24.1781C41.7469 24.3 41.6156 24.5531 41.5594 24.6187C41.5125 24.6937 41.3906 24.9937 41.6156 25.1344C41.7298 25.198 41.8577 25.233 41.9883 25.2363C42.119 25.2396 42.2485 25.211 42.3656 25.1531V25.1531Z" fill="#FFC221"/>
<path d="M42.1781 24.0938C42.1781 24.0938 42.0563 24.1125 42.0844 24.1594C42.1031 24.2063 42.1313 24.1969 42.1781 24.1969C42.2063 24.1969 42.2719 24.1781 42.2813 24.15C42.2813 24.1219 42.2063 24.0844 42.1781 24.1031V24.0938Z" fill="black"/>
<path d="M42.3281 25.0406C42.3281 25.0406 42.1031 24.9375 42.3656 24.7969C42.6187 24.6562 42.8906 24.5156 42.9281 24.4594C42.9281 24.4594 42.8062 24.6375 42.3281 25.0406V25.0406Z" fill="white"/>
</g>
<defs>
<clipPath id="clip0_4_18217">
<rect width="60" height="45" fill="white"/>
</clipPath>
</defs>
</svg>
