<svg width="60" height="45" viewBox="0 0 60 45" fill="none" xmlns="http://www.w3.org/2000/svg">
<g clip-path="url(#clip0_4_18310)">
<path fill-rule="evenodd" clip-rule="evenodd" d="M0 0H60V22.8375H0V0Z" fill="#FF0000"/>
<path fill-rule="evenodd" clip-rule="evenodd" d="M0 22.1625H60V45H0V22.1625Z" fill="black"/>
<path fill-rule="evenodd" clip-rule="evenodd" d="M21.4406 13.8938C36.9281 17.9531 26.9719 37.8563 14.7562 29.5688L13.9312 30.8438C21.1219 35.9625 28.2375 31.8375 30.2437 26.4938C32.325 20.9813 29.5312 13.2281 21.5625 12.4313L21.4406 13.8938V13.8938Z" fill="#FFEC00"/>
<path fill-rule="evenodd" clip-rule="evenodd" d="M15.9375 31.0125L17.9719 31.9594L17.0156 34.0031L14.9812 33.0469L15.9375 31.0125ZM29.9062 21.6844H32.1562V23.9344H29.9062V21.6844ZM28.8094 18.0375L30.9 17.2313L31.7156 19.3219L29.625 20.1375L28.8094 18.0375ZM26.3719 15.3094L27.975 13.725L29.5594 15.3187L27.9656 16.9031L26.3719 15.3094ZM23.9156 11.5781L26.0156 12.3656L25.2187 14.4656L23.1187 13.6781L23.9156 11.5781ZM29.625 25.3125L31.7156 26.1469L30.8719 28.2281L28.7906 27.3938L29.625 25.3125ZM23.0719 31.875L25.1344 31.0031L26.025 33.0656L23.9625 33.9469L23.0719 31.875ZM19.3687 32.1375H21.6187V34.3875H19.3687V32.1375ZM23.2406 21.2625L21.3375 19.8563L19.4344 21.225L20.1844 19.0687L18.2812 17.6625H20.5781L21.375 15.5438L22.1062 17.6719L24.4219 17.6437L22.5844 19.0781L23.2406 21.2719V21.2625Z" fill="#FFEC00"/>
<path fill-rule="evenodd" clip-rule="evenodd" d="M31.5 32.475C31.3875 32.5125 30.9187 33.6375 30.5906 34.1812L30.9375 34.275C32.2125 34.725 32.85 35.1375 33.3937 35.9156C33.5195 36.0381 33.6847 36.1119 33.8598 36.124C34.035 36.136 34.2087 36.0854 34.35 35.9812C34.35 35.9812 34.6125 35.8875 34.95 35.5125C35.2312 35.0906 35.1562 34.7625 34.8187 34.4719C33.7875 33.7219 32.6719 33.1594 31.5 32.475V32.475Z" fill="#FFEE00"/>
<path fill-rule="evenodd" clip-rule="evenodd" d="M34.2469 34.95C34.2469 35.0582 34.2039 35.1619 34.1274 35.2384C34.051 35.3149 33.9472 35.3578 33.8391 35.3578C33.7309 35.3578 33.6272 35.3149 33.5507 35.2384C33.4742 35.1619 33.4313 35.0582 33.4313 34.95C33.4313 34.8431 33.4737 34.7406 33.5493 34.665C33.6249 34.5894 33.7275 34.5469 33.8344 34.5469C33.9413 34.5469 34.0438 34.5894 34.1194 34.665C34.195 34.7406 34.2375 34.8431 34.2375 34.95H34.2469ZM32.2406 33.675C32.2406 33.7832 32.1977 33.8869 32.1212 33.9634C32.0447 34.0399 31.941 34.0828 31.8328 34.0828C31.7247 34.0828 31.6209 34.0399 31.5444 33.9634C31.468 33.8869 31.425 33.7832 31.425 33.675C31.425 33.5669 31.468 33.4631 31.5444 33.3867C31.6209 33.3102 31.7247 33.2672 31.8328 33.2672C31.941 33.2672 32.0447 33.3102 32.1212 33.3867C32.1977 33.4631 32.2406 33.5669 32.2406 33.675ZM33.2625 34.3313C33.2625 34.4394 33.2195 34.5432 33.1431 34.6196C33.0666 34.6961 32.9628 34.7391 32.8547 34.7391C32.7465 34.7391 32.6428 34.6961 32.5663 34.6196C32.4898 34.5432 32.4469 34.4394 32.4469 34.3313C32.4469 34.2231 32.4898 34.1194 32.5663 34.0429C32.6428 33.9664 32.7465 33.9235 32.8547 33.9235C32.9628 33.9235 33.0666 33.9664 33.1431 34.0429C33.2195 34.1194 33.2625 34.2231 33.2625 34.3313V34.3313Z" fill="black"/>
<path fill-rule="evenodd" clip-rule="evenodd" d="M30.4219 34.0969C26.4281 31.8187 22.2375 29.3625 18.2344 27.0843C16.4813 25.9875 16.3969 23.9531 17.5781 22.4062C17.6906 22.1906 17.8406 22.2375 17.8969 22.3594C18.0375 23.1094 18.4594 23.8875 18.9656 24.375C23.1208 26.9887 27.2368 29.664 31.3125 32.4C30.9938 32.9437 30.75 33.5531 30.4219 34.0875V34.0969Z" fill="#FFEE00"/>
<path fill-rule="evenodd" clip-rule="evenodd" d="M27.8625 28.6406L29.5313 30.1406L28.0313 31.8094L26.3625 30.3094L27.8625 28.6406Z" fill="#FFEC00"/>
<path fill-rule="evenodd" clip-rule="evenodd" d="M19.4321 25.5015L31.1508 32.5797L31.0054 32.8204L19.2867 25.7423L19.4321 25.5015ZM25.764 28.3914L29.7109 30.9508L29.5579 31.1868L25.611 28.6274L25.764 28.3914ZM23.4423 30.0658L27.4641 32.3908L27.3234 32.6343L23.3015 30.3093L23.4423 30.0658Z" fill="black"/>
</g>
<defs>
<clipPath id="clip0_4_18310">
<rect width="60" height="45" fill="white"/>
</clipPath>
</defs>
</svg>
