<svg width="60" height="45" viewBox="0 0 60 45" fill="none" xmlns="http://www.w3.org/2000/svg">
<g clip-path="url(#clip0_4_18328)">
<path d="M0 0H60V45H0V0Z" fill="#012169"/>
<path d="M45.4031 16.9125L45.5906 17.1L45.4031 16.9125Z" fill="#49497D"/>
<path d="M45.5906 16.9125L45.7781 17.1L45.5906 16.9125Z" fill="#0E0E6E"/>
<path d="M45.0187 17.1L45.2062 17.2875L45.0187 17.1Z" fill="#262678"/>
<path d="M45.2156 17.1L45.4031 17.2875L45.2156 17.1Z" fill="#808067"/>
<path d="M45.7781 17.1L45.9656 17.2875L45.7781 17.1Z" fill="#58587B"/>
<path d="M38.7375 17.2969L38.925 17.4844L38.7375 17.2969Z" fill="#0E0E6E"/>
<path d="M44.6437 17.2969L44.8312 17.4844L44.6437 17.2969Z" fill="#1B1B74"/>
<path d="M44.8312 17.2969L45.0187 17.4844L44.8312 17.2969Z" fill="#6E6C70"/>
<path d="M39.075 17.625C39.075 22.5563 38.5125 28.0969 42.1687 31.95C42.9187 32.7375 44.3625 34.5469 45.5906 34.4813C46.875 34.4063 48.5344 32.5031 49.2656 31.575C52.4531 27.375 51.9562 22.3688 52.0594 17.4938C50.625 18.1406 49.9031 18.3563 48.6469 18.3375C47.7094 18.4313 46.275 17.8219 45.4125 17.4C44.85 17.775 44.0344 18.2344 42.5625 18.2813C40.875 18.3563 40.3312 18.0656 39.075 17.625V17.625Z" fill="#CCCC33"/>
<path d="M45.975 17.2969L46.1625 17.4844L45.975 17.2969Z" fill="#99994E"/>
<path d="M46.1625 17.2969L46.35 17.4844L46.1625 17.2969Z" fill="#49497D"/>
<path d="M52.0594 17.2969L52.2469 17.4844L52.0594 17.2969Z" fill="#0E0E6E"/>
<path d="M38.9344 17.4844L39.1219 17.6719L38.9344 17.4844Z" fill="#A4A43D"/>
<path d="M39.1219 17.4844L39.3094 17.6719L39.1219 17.4844Z" fill="#6E6C70"/>
<path d="M39.3094 17.4844L39.4969 17.6719L39.3094 17.4844Z" fill="#3A3A7C"/>
<path d="M44.25 17.4844L44.4375 17.6719L44.25 17.4844Z" fill="#1B1B74"/>
<path d="M44.4375 17.4844L44.625 17.6719L44.4375 17.4844Z" fill="#6E6C70"/>
<path d="M44.6437 17.4844L44.8312 17.6719L44.6437 17.4844Z" fill="#A4A43D"/>
<path d="M45.4031 17.4844L45.5906 17.6719L45.4031 17.4844Z" fill="#D0D045"/>
<path d="M46.1625 17.4844L46.35 17.6719L46.1625 17.4844Z" fill="#A4A43D"/>
<path d="M46.35 17.4844L46.5375 17.6719L46.35 17.4844Z" fill="#8D8D5B"/>
<path d="M46.5469 17.4844L46.7344 17.6719L46.5469 17.4844Z" fill="#3A3A7C"/>
<path d="M51.4875 17.4844L51.675 17.6719L51.4875 17.4844Z" fill="#262678"/>
<path d="M51.6844 17.4844L51.8719 17.6719L51.6844 17.4844Z" fill="#53527C"/>
<path d="M51.8719 17.4844L52.0594 17.6719L51.8719 17.4844Z" fill="#8D8D5B"/>
<path d="M39.6938 17.6813L39.8813 17.8688L39.6938 17.6813Z" fill="#737370"/>
<path d="M39.8813 17.6813L40.0688 17.8688L39.8813 17.6813Z" fill="#53527C"/>
<path d="M40.0688 17.6813L40.2563 17.8688L40.0688 17.6813Z" fill="#1B1B74"/>
<path d="M43.875 17.6813L44.0625 17.8688L43.875 17.6813Z" fill="#262678"/>
<path d="M44.0625 17.6813L44.25 17.8688L44.0625 17.6813Z" fill="#6E6C70"/>
<path d="M44.25 17.6813L44.4375 17.8688L44.25 17.6813Z" fill="#A4A43D"/>
<path d="M45.2156 17.6813L45.4031 17.8688L45.2156 17.6813Z" fill="#E5E59D"/>
<path d="M39.4594 18.1688C39.3656 20.7563 39.4406 23.6625 39.8344 26.4188C40.2937 27.8719 40.2281 28.6688 40.8937 29.5313L50.175 29.4563C50.7375 28.5469 51.1594 27.1688 51.2062 26.6156C51.7312 23.8313 51.7406 20.7469 51.7594 17.9906C50.7385 18.5521 49.5724 18.7938 48.4125 18.6844C47.4051 18.6239 46.4259 18.3285 45.5531 17.8219C44.6625 18.3469 44.3531 18.5906 42.8906 18.6563C41.7469 18.7125 40.8281 18.8063 39.4594 18.1688Z" fill="white"/>
<path d="M45.5906 17.6813L45.7781 17.8688L45.5906 17.6813Z" fill="#F2F1D7"/>
<path d="M45.7781 17.6813L45.9656 17.8688L45.7781 17.6813Z" fill="#D9D868"/>
<path d="M46.5469 17.6813L46.7344 17.8688L46.5469 17.6813Z" fill="#A4A43D"/>
<path d="M46.7344 17.6813L46.9219 17.8688L46.7344 17.6813Z" fill="#99994E"/>
<path d="M46.9219 17.6813L47.1094 17.8688L46.9219 17.6813Z" fill="#49497D"/>
<path d="M47.1094 17.6813L47.2969 17.8688L47.1094 17.6813Z" fill="#0E0E6E"/>
<path d="M50.925 17.6813L51.1125 17.8688L50.925 17.6813Z" fill="#3A3A7C"/>
<path d="M51.1125 17.6813L51.3 17.8688L51.1125 17.6813Z" fill="#666677"/>
<path d="M51.3 17.6813L51.4875 17.8688L51.3 17.6813Z" fill="#99994E"/>
<path d="M51.4875 17.6813L51.675 17.8688L51.4875 17.6813ZM40.0688 17.8688L40.2563 18.0563L40.0688 17.8688Z" fill="#A4A43D"/>
<path d="M40.2656 17.8688L40.4531 18.0563L40.2656 17.8688Z" fill="#99994E"/>
<path d="M40.4531 17.8688L40.6406 18.0563L40.4531 17.8688Z" fill="#6E6C70"/>
<path d="M40.6406 17.8688L40.8281 18.0563L40.6406 17.8688Z" fill="#49497D"/>
<path d="M40.8281 17.8688L41.0156 18.0563L40.8281 17.8688ZM43.3031 17.8688L43.4906 18.0563L43.3031 17.8688Z" fill="#1B1B74"/>
<path d="M43.4906 17.8688L43.6781 18.0563L43.4906 17.8688Z" fill="#53527C"/>
<path d="M43.6875 17.8688L43.875 18.0563L43.6875 17.8688Z" fill="#8D8D5B"/>
<path d="M43.875 17.8688L44.0625 18.0563L43.875 17.8688Z" fill="#A4A43D"/>
<path d="M44.8312 17.8688L45.0187 18.0563L44.8312 17.8688Z" fill="#E5E59D"/>
<path d="M45.0187 17.8688L45.2062 18.0563L45.0187 17.8688Z" fill="#FBFAF2"/>
<path d="M45.975 17.8688L46.1625 18.0563L45.975 17.8688Z" fill="#F2F1D2"/>
<path d="M46.1625 17.8688L46.35 18.0563L46.1625 17.8688Z" fill="#D9D868"/>
<path d="M47.1094 17.8688L47.2969 18.0563L47.1094 17.8688Z" fill="#A4A43D"/>
<path d="M47.3062 17.8688L47.4937 18.0563L47.3062 17.8688Z" fill="#6E6C70"/>
<path d="M47.4937 17.8688L47.6812 18.0563L47.4937 17.8688Z" fill="#3A3A7C"/>
<path d="M49.9688 17.8688L50.1562 18.0563L49.9688 17.8688Z" fill="#0E0E6E"/>
<path d="M50.1562 17.8688L50.3438 18.0563L50.1562 17.8688Z" fill="#32327B"/>
<path d="M50.3438 17.8688L50.5312 18.0563L50.3438 17.8688Z" fill="#58587B"/>
<path d="M50.5312 17.8688L50.7188 18.0563L50.5312 17.8688Z" fill="#808067"/>
<path d="M50.8594 17.925L50.9812 17.9906L50.8594 17.925Z" fill="#A4A43D"/>
<path d="M39.3094 18.0563L39.4969 18.2438L39.3094 18.0563Z" fill="#DDDC7A"/>
<path d="M39.4969 18.0563L39.6844 18.2438L39.4969 18.0563Z" fill="#D0D045"/>
<path d="M40.9594 18.1125L41.0906 18.1781L40.9594 18.1125Z" fill="#A4A43D"/>
<path d="M41.2125 18.0563L41.4 18.2438L41.2125 18.0563Z" fill="#808067"/>
<path d="M41.4 18.0563L41.5875 18.2438L41.4 18.0563Z" fill="#666677"/>
<path d="M41.5969 18.0563L41.7844 18.2438L41.5969 18.0563Z" fill="#58587B"/>
<path d="M41.7844 18.0563L41.9719 18.2438L41.7844 18.0563Z" fill="#49497D"/>
<path d="M42.9281 18.0563L43.1156 18.2438L42.9281 18.0563Z" fill="#737370"/>
<path d="M43.1156 18.0563L43.3031 18.2438L43.1156 18.0563Z" fill="#99994E"/>
<path d="M43.3031 18.0563L43.4906 18.2438L43.3031 18.0563Z" fill="#A4A43D"/>
<path d="M44.4375 18.0563L44.625 18.2438L44.4375 18.0563Z" fill="#E5E59D"/>
<path d="M44.6437 18.0563L44.8312 18.2438L44.6437 18.0563Z" fill="#FBFAF2"/>
<path d="M46.35 18.0563L46.5375 18.2438L46.35 18.0563Z" fill="#F2F1D2"/>
<path d="M46.5469 18.0563L46.7344 18.2438L46.5469 18.0563Z" fill="#D9D868"/>
<path d="M47.6156 18.1125L47.7469 18.1781L47.625 18.1125H47.6156Z" fill="#A4A43D"/>
<path d="M47.8781 18.0563L48.0656 18.2438L47.8781 18.0563Z" fill="#808067"/>
<path d="M48.0656 18.0563L48.2531 18.2438L48.0656 18.0563Z" fill="#666677"/>
<path d="M48.2531 18.0563L48.4406 18.2438L48.2531 18.0563Z" fill="#58587B"/>
<path d="M48.45 18.0563L48.6375 18.2438L48.45 18.0563Z" fill="#3A3A7C"/>
<path d="M49.3312 18.1125L49.4625 18.1781L49.3312 18.1125Z" fill="#58587B"/>
<path d="M49.5844 18.0563L49.7719 18.2438L49.5844 18.0563Z" fill="#737370"/>
<path d="M49.7719 18.0563L49.9594 18.2438L49.7719 18.0563Z" fill="#99994E"/>
<path d="M49.9688 18.0563L50.1562 18.2438L49.9688 18.0563Z" fill="#A4A43D"/>
<path d="M51.4875 18.0563L51.675 18.2438L51.4875 18.0563Z" fill="#DDDC7A"/>
<path d="M51.6844 18.0563L51.8719 18.2438L51.6844 18.0563Z" fill="#D0D045"/>
<path d="M39.6938 18.2438L39.8813 18.4313L39.6938 18.2438Z" fill="#F2F1D7"/>
<path d="M39.8813 18.2438L40.0688 18.4313L39.8813 18.2438Z" fill="#E0DEA1"/>
<path d="M40.0688 18.2438L40.2563 18.4313L40.0688 18.2438Z" fill="#DDDC7A"/>
<path d="M43.875 18.2438L44.0625 18.4313L43.875 18.2438Z" fill="#D9D868"/>
<path d="M44.0625 18.2438L44.25 18.4313L44.0625 18.2438Z" fill="#E5E3AF"/>
<path d="M46.7344 18.2438L46.9219 18.4313L46.7344 18.2438Z" fill="#F6F6E4"/>
<path d="M46.9219 18.2438L47.1094 18.4313L46.9219 18.2438Z" fill="#E1E18C"/>
<path d="M50.7188 18.2438L50.9062 18.4313L50.7188 18.2438Z" fill="#D4D456"/>
<path d="M50.925 18.2438L51.1125 18.4313L50.925 18.2438Z" fill="#E1E18C"/>
<path d="M51.1125 18.2438L51.3 18.4313L51.1125 18.2438Z" fill="#EEEDC1"/>
<path d="M40.4531 18.4313L40.6406 18.6188L40.4531 18.4313Z" fill="#F2F1D2"/>
<path d="M40.6406 18.4313L40.8281 18.6188L40.6406 18.4313Z" fill="#E0DEA1"/>
<path d="M40.8281 18.4313L41.0156 18.6188L40.8281 18.4313Z" fill="#DDDC7A"/>
<path d="M41.025 18.4313L41.2125 18.6188L41.025 18.4313Z" fill="#D0D045"/>
<path d="M43.3031 18.4313L43.4906 18.6188L43.3031 18.4313Z" fill="#DDDC7A"/>
<path d="M43.4906 18.4313L43.6781 18.6188L43.4906 18.4313Z" fill="#E5E3AF"/>
<path d="M43.6875 18.4313L43.875 18.6188L43.6875 18.4313Z" fill="#F6F6E4"/>
<path d="M47.3062 18.4313L47.4937 18.6188L47.3062 18.4313Z" fill="#EEEDC1"/>
<path d="M47.4937 18.4313L47.6812 18.6188L47.4937 18.4313Z" fill="#E1E18C"/>
<path d="M47.6812 18.4313L47.8687 18.6188L47.6812 18.4313Z" fill="#D4D456"/>
<path d="M49.9688 18.4313L50.1562 18.6188L49.9688 18.4313Z" fill="#D9D868"/>
<path d="M50.1562 18.4313L50.3438 18.6188L50.1562 18.4313Z" fill="#E1E18C"/>
<path d="M50.3438 18.4313L50.5312 18.6188L50.3438 18.4313Z" fill="#EEEDC1"/>
<path d="M50.5312 18.4313L50.7188 18.6188L50.5312 18.4313Z" fill="#F6F6E4"/>
<path d="M41.4 18.6188L41.5875 18.8063L41.4 18.6188Z" fill="#F2F1D7"/>
<path d="M41.5969 18.6188L41.7844 18.8063L41.5969 18.6188Z" fill="#F2F1D2"/>
<path d="M41.7844 18.6188L41.9719 18.8063L41.7844 18.6188Z" fill="#EEEDC1"/>
<path d="M42.675 18.6844L42.7969 18.75L42.675 18.6844Z" fill="#F2F1D2"/>
<path d="M42.9281 18.6188L43.1156 18.8063L42.9281 18.6188Z" fill="#FBFAF2"/>
<path d="M43.875 18.6188L44.25 18.9938V18.6188H43.875Z" fill="#FEF8F1"/>
<path d="M48.0656 18.6188L48.2531 18.8063L48.0656 18.6188Z" fill="#F2F1D7"/>
<path d="M48.2531 18.6188L48.4406 18.8063L48.2531 18.6188Z" fill="#F2F1D2"/>
<path d="M48.45 18.6188L48.6375 18.8063L48.45 18.6188Z" fill="#E5E3AF"/>
<path d="M48.7687 18.6844L48.8906 18.75L48.7594 18.6844H48.7687Z" fill="#E5E59D"/>
<path d="M49.0219 18.6188L49.2094 18.8063L49.0219 18.6188Z" fill="#E0DEA1"/>
<path d="M49.3312 18.6844L49.4625 18.75L49.3312 18.6844Z" fill="#F2F1D2"/>
<path d="M49.5844 18.6188L49.7719 18.8063L49.5844 18.6188Z" fill="#FBFAF2"/>
<path d="M43.4906 18.8156L43.6781 19.0031L43.4906 18.8156Z" fill="#FEF8F1"/>
<path d="M43.6875 18.8156L43.875 19.0031L43.6875 18.8156Z" fill="#FBBE66"/>
<path d="M43.4906 19.0031L43.6781 19.1906L43.4906 19.0031Z" fill="#FBC477"/>
<path d="M43.875 19.0031L44.0625 19.1906L43.875 19.0031Z" fill="#FCB144"/>
<path d="M43.4906 19.2L43.6781 19.3875L43.4906 19.2Z" fill="#FE9F11"/>
<path d="M43.875 19.2L44.0625 19.3875L43.875 19.2Z" fill="#FEA522"/>
<path d="M43.3031 19.3875L43.4906 19.575L43.3031 19.3875ZM44.0719 19.3875L44.2594 19.575L44.0719 19.3875Z" fill="#FAE3C9"/>
<path d="M45.0187 19.3875L45.2062 19.575L45.0187 19.3875Z" fill="#FBEAD6"/>
<path d="M45.2156 19.3875L45.4031 19.575L45.2156 19.3875Z" fill="#F9D6AA"/>
<path d="M45.975 19.3875L46.1625 19.575L45.975 19.3875Z" fill="#FAE3C9"/>
<path d="M46.1625 19.3875L46.35 19.575L46.1625 19.3875Z" fill="#FEF8F1"/>
<path d="M43.3031 19.575L43.4906 19.7625L43.3031 19.575Z" fill="#F9D099"/>
<path d="M44.0625 19.575L44.25 19.7625L44.0625 19.575Z" fill="#FDAB33"/>
<path d="M44.4375 19.575L44.625 19.7625L44.4375 19.575Z" fill="#FCF1E4"/>
<path d="M44.6437 19.575L44.8312 19.7625L44.6437 19.575Z" fill="#FBC477"/>
<path d="M44.8312 19.575L45.0187 19.7625L44.8312 19.575Z" fill="#FEA522"/>
<path d="M46.35 19.575L46.5375 19.7625L46.35 19.575Z" fill="#FCB755"/>
<path d="M46.5469 19.575L46.7344 19.7625L46.5469 19.575Z" fill="#F9D6AA"/>
<path d="M43.3031 19.7719L43.4906 19.9594L43.3031 19.7719Z" fill="#FACA88"/>
<path d="M44.25 19.7719L44.4375 19.9594L44.25 19.7719ZM46.7344 19.7719L46.9219 19.9594L46.7344 19.7719Z" fill="#FEA522"/>
<path d="M46.9219 19.7719L47.1094 19.9594L46.9219 19.7719Z" fill="#F8DCBB"/>
<path d="M39.3094 19.9594L39.4969 20.1469L39.3094 19.9594Z" fill="#F6F6E4"/>
<path d="M43.3031 19.9594L43.4906 20.1469L43.3031 19.9594Z" fill="#FBC477"/>
<path d="M47.1094 19.9594L47.2969 20.1469L47.1094 19.9594Z" fill="#FBBE66"/>
<path d="M47.3062 19.9594L47.4937 20.1469L47.3062 19.9594Z" fill="#F8DCBB"/>
<path d="M43.3031 20.1469L43.4906 20.3344L43.3031 20.1469Z" fill="#FACA88"/>
<path d="M47.6812 20.1469L47.8687 20.3344L47.6812 20.1469Z" fill="#FCB755"/>
<path d="M47.8781 20.1469L48.0656 20.3344L47.8781 20.1469Z" fill="#F8DCBB"/>
<path d="M43.1156 20.3438L43.3031 20.5312L43.1156 20.3438Z" fill="#FEF8F1"/>
<path d="M43.3031 20.3438L43.4906 20.5312L43.3031 20.3438Z" fill="#FE9F11"/>
<path d="M48.6375 20.3438L48.825 20.5312L48.6375 20.3438Z" fill="#FDAB33"/>
<path d="M48.8344 20.3438L49.0219 20.5312L48.8344 20.3438Z" fill="#FCB144"/>
<path d="M49.0219 20.3438L49.2094 20.5312L49.0219 20.3438Z" fill="#FBC477"/>
<path d="M49.2094 20.3438L49.5844 20.7188L49.2094 20.3438Z" fill="#F9D6AA"/>
<path d="M49.3969 20.3438L49.5844 20.5312L49.3969 20.3438Z" fill="#FEF8F1"/>
<path d="M43.1156 20.5312L43.3031 20.7188L43.1156 20.5312Z" fill="#FCB144"/>
<path d="M45.7781 20.5312L45.9656 20.7188L45.7781 20.5312Z" fill="#FDAB33"/>
<path d="M45.975 20.5312L46.1625 20.7188L45.975 20.5312ZM46.725 20.5312L46.9125 20.7188L46.725 20.5312Z" fill="#FBC477"/>
<path d="M46.9219 20.5312L47.1094 20.7188L46.9219 20.5312Z" fill="#FEA522"/>
<path d="M42.9281 20.7188L43.1156 20.9062L42.9281 20.7188Z" fill="#FAE3C9"/>
<path d="M45.4031 20.7188L45.5906 20.9062L45.4031 20.7188Z" fill="#FCB144"/>
<path d="M45.5906 20.7188L45.7781 20.9062L45.5906 20.7188Z" fill="#FAE3C9"/>
<path d="M47.1094 20.7188L47.2969 20.9062L47.1094 20.7188Z" fill="#F8DCBB"/>
<path d="M47.3062 20.7188L47.4937 20.9062L47.3062 20.7188Z" fill="#FDAB33"/>
<path d="M48.45 20.7188L48.6375 20.9062L48.45 20.7188Z" fill="#FE9F11"/>
<path d="M48.6375 20.7188L48.825 20.9062L48.6375 20.7188Z" fill="#FCB755"/>
<path d="M48.8344 20.7188L49.0219 20.9062L48.8344 20.7188Z" fill="#F9D099"/>
<path d="M49.0219 20.7188L49.2094 20.9062L49.0219 20.7188Z" fill="#FBEAD6"/>
<path d="M42.9281 20.9062L43.1156 21.0938L42.9281 20.9062Z" fill="#FCB144"/>
<path d="M45.2156 20.9062L45.4031 21.0938L45.2156 20.9062Z" fill="#FBBE66"/>
<path d="M47.4937 20.9062L47.6812 21.0938L47.4937 20.9062Z" fill="#F9D099"/>
<path d="M48.2531 20.9062L48.4406 21.0938L48.2531 20.9062Z" fill="#FBEAD6"/>
<path d="M42.7406 21.0938L42.9281 21.2812L42.7406 21.0938Z" fill="#FCF1E4"/>
<path d="M45.0187 21.0938L45.2062 21.2812L45.0187 21.0938Z" fill="#FBBE66"/>
<path d="M47.6812 21.0938L47.8687 21.2812L47.6812 21.0938Z" fill="#F9D099"/>
<path d="M48.2531 21.0938L48.4406 21.2812L48.2531 21.0938Z" fill="#FAE3C9"/>
<path d="M42.7406 21.2812L42.9281 21.4688L42.7406 21.2812Z" fill="#FBC477"/>
<path d="M44.8312 21.2812L45.0187 21.4688L44.8312 21.2812ZM47.8781 21.2812L48.0656 21.4688L47.8781 21.2812Z" fill="#FCB144"/>
<path d="M48.2531 21.2812L48.4406 21.4688L48.2531 21.2812Z" fill="#FBBE66"/>
<path d="M39.3094 21.4688L39.4969 21.6562L39.3094 21.4688Z" fill="#F6F6E4"/>
<path d="M42.7406 21.4688L42.9281 21.6562L42.7406 21.4688Z" fill="#FEA522"/>
<path d="M44.8312 21.4688L45.0187 21.6562L44.8312 21.4688Z" fill="#FBEAD6"/>
<path d="M47.8781 21.4688L48.0656 21.6562L47.8781 21.4688Z" fill="#FCF1E4"/>
<path d="M48.45 21.4688L48.6375 21.6562L48.45 21.4688Z" fill="#FEF8F1"/>
<path d="M42.5531 21.675L42.7406 21.8625L42.5531 21.675Z" fill="#FCF1E4"/>
<path d="M44.6437 21.675L44.8312 21.8625L44.6437 21.675Z" fill="#FBBE66"/>
<path d="M48.0656 21.675L48.2531 21.8625L48.0656 21.675Z" fill="#FACA88"/>
<path d="M48.45 21.675L48.6375 21.8625L48.45 21.675Z" fill="#F9D099"/>
<path d="M42.5531 21.8625L42.7406 22.05L42.5531 21.8625Z" fill="#F9D6AA"/>
<path d="M44.6437 21.8625L44.8312 22.05L44.6437 21.8625Z" fill="#FCF1E4"/>
<path d="M45.5906 21.8625L45.7781 22.05L45.5906 21.8625Z" fill="#FAE3C9"/>
<path d="M45.7781 21.8625L45.9656 22.05L45.7781 21.8625Z" fill="#FEA522"/>
<path d="M45.975 21.8625L46.1625 22.05L45.975 21.8625Z" fill="#FCB144"/>
<path d="M46.1625 21.8625L46.35 22.05L46.1625 21.8625Z" fill="#F9D6AA"/>
<path d="M48.0656 21.8625L48.2531 22.05L48.0656 21.8625Z" fill="#FEF8F1"/>
<path d="M48.2531 21.8625L48.4406 22.05L48.2531 21.8625Z" fill="#FEA522"/>
<path d="M48.45 21.8625L48.6375 22.05L48.45 21.8625Z" fill="#FDAB33"/>
<path d="M42.5531 22.05L42.3563 22.6125L42.5438 22.05H42.5531Z" fill="#FACA88"/>
<path d="M44.4375 22.05L44.625 22.2375L44.4375 22.05Z" fill="#FEA522"/>
<path d="M44.6437 22.05L44.8312 22.2375L44.6437 22.05Z" fill="#FEF8F1"/>
<path d="M45.5906 22.05L45.7781 22.2375L45.5906 22.05Z" fill="#F9D099"/>
<path d="M46.35 22.05L46.5375 22.2375L46.35 22.05Z" fill="#FDAB33"/>
<path d="M46.5469 22.05L46.7344 22.2375L46.5469 22.05Z" fill="#FAE3C9"/>
<path d="M48.2531 22.05L48.4406 22.2375L48.2531 22.05Z" fill="#F8DCBB"/>
<path d="M48.45 22.05L48.6375 22.2375L48.45 22.05Z" fill="#FF9900"/>
<path d="M48.7031 22.1813L48.7594 22.3031L48.7031 22.1813Z" fill="#FBEAD6"/>
<path d="M44.8312 22.2375L45.0187 22.425L44.8312 22.2375Z" fill="#FEA522"/>
<path d="M45.0187 22.2375L45.2062 22.425L45.0187 22.2375Z" fill="#FBBE66"/>
<path d="M45.2156 22.2375L45.4031 22.425L45.2156 22.2375Z" fill="#FACA88"/>
<path d="M45.4031 22.2375L45.5906 22.425L45.4031 22.2375Z" fill="#FCB144"/>
<path d="M45.5906 22.2375L45.7781 22.425L45.5906 22.2375Z" fill="#FAE3C9"/>
<path d="M45.7781 22.2375L45.9656 22.425L45.7781 22.2375Z" fill="#FE9F11"/>
<path d="M46.7344 22.2375L46.9219 22.425L46.7344 22.2375Z" fill="#FDAB33"/>
<path d="M46.9219 22.2375L47.1094 22.425L46.9219 22.2375Z" fill="#FBC477"/>
<path d="M47.1094 22.2375L47.2969 22.425L47.1094 22.2375Z" fill="#FACA88"/>
<path d="M47.3062 22.2375L47.4937 22.425L47.3062 22.2375Z" fill="#F9D6AA"/>
<path d="M47.6156 22.3031L47.7469 22.3687L47.625 22.3031H47.6156Z" fill="#FAE3C9"/>
<path d="M47.8781 22.2375L48.0656 22.425L47.8781 22.2375Z" fill="#FEF8F1"/>
<path d="M48.45 22.2375L48.6375 22.425L48.45 22.2375Z" fill="#FBC477"/>
<path d="M40.2656 22.4344L40.4531 22.6219L40.2656 22.4344Z" fill="#FEF8F1"/>
<path d="M40.4531 22.4344L40.6406 22.6219L40.4531 22.4344Z" fill="#FCF1E4"/>
<path d="M45.4031 22.4344L45.5906 22.6219L45.4031 22.4344Z" fill="#FCB755"/>
<path d="M45.7781 22.4344L45.9656 22.6219L45.7781 22.4344Z" fill="#FBEAD6"/>
<path d="M45.975 22.4344L46.1625 22.6219L45.975 22.4344Z" fill="#FEA522"/>
<path d="M47.4937 22.4344L47.6812 22.6219L47.4937 22.4344Z" fill="#FE9F11"/>
<path d="M47.6812 22.4344L47.4937 22.8094L47.6812 22.4344Z" fill="#FCB144"/>
<path d="M48.0656 22.4344L48.2531 22.6219L48.0656 22.4344Z" fill="#FE9F11"/>
<path d="M48.2531 22.4344L48.4406 22.6219L48.2531 22.4344Z" fill="#FBBE66"/>
<path d="M48.45 22.4344L48.6375 22.6219L48.45 22.4344Z" fill="#FCF1E4"/>
<path d="M40.2656 22.6219L40.4531 22.8094L40.2656 22.6219Z" fill="#FAE3C9"/>
<path d="M40.4531 22.6219L40.8281 22.9969L40.4531 22.6219Z" fill="#FE9F11"/>
<path d="M40.6406 22.6219L40.8281 22.8094L40.6406 22.6219ZM42.3562 22.6219L42.5437 22.8094L42.3562 22.6219Z" fill="#FBEAD6"/>
<path d="M42.5531 22.6219L42.7406 22.8094L42.5531 22.6219Z" fill="#FAE3C9"/>
<path d="M44.25 22.6219L44.4375 22.8094L44.25 22.6219Z" fill="#FE9F11"/>
<path d="M44.4375 22.6219L44.625 22.8094L44.4375 22.6219Z" fill="#FBC477"/>
<path d="M44.6437 22.6219L44.8312 22.8094L44.6437 22.6219Z" fill="#FEA522"/>
<path d="M45.2156 22.6219L45.4031 22.8094L45.2156 22.6219Z" fill="#FBC477"/>
<path d="M45.4031 22.6219L45.5906 22.8094L45.4031 22.6219Z" fill="#FEF8F1"/>
<path d="M46.1625 22.6219L46.35 22.8094L46.1625 22.6219Z" fill="#FBC477"/>
<path d="M47.6812 22.6219L47.8687 22.8094L47.6812 22.6219Z" fill="white"/>
<path d="M47.8781 22.6219L48.0656 22.8094L47.8781 22.6219Z" fill="#FDAB33"/>
<path d="M48.6375 22.6219L48.825 22.8094L48.6375 22.6219Z" fill="#FBC477"/>
<path d="M40.2656 22.8094L40.4531 22.9969L40.2656 22.8094Z" fill="#FEF8F1"/>
<path d="M40.8281 22.8094L41.0156 22.9969L40.8281 22.8094Z" fill="#FBEAD6"/>
<path d="M41.7844 22.8094L41.9719 22.9969L41.7844 22.8094Z" fill="#F9D6AA"/>
<path d="M42.7406 22.8094L42.9281 22.9969L42.7406 22.8094Z" fill="#FE9F11"/>
<path d="M43.05 22.875L43.1812 22.9406L43.05 22.875Z" fill="#F9D6AA"/>
<path d="M44.25 22.8094L44.4375 22.9969L44.25 22.8094Z" fill="#F8DCBB"/>
<path d="M44.8312 22.8094L45.0187 22.9969L44.8312 22.8094Z" fill="#FCF1E4"/>
<path d="M46.35 22.8094L46.5375 22.9969L46.35 22.8094Z" fill="#F9D6AA"/>
<path d="M47.6812 22.8094L47.8687 22.9969L47.6812 22.8094Z" fill="#FDAB33"/>
<path d="M48.8344 22.8094L49.0219 22.9969L48.8344 22.8094Z" fill="#FCB755"/>
<path d="M49.0219 22.8094L49.2094 22.9969L49.0219 22.8094Z" fill="#FEF8F1"/>
<path d="M38.7375 23.0062L38.925 23.1937L38.7375 23.0062Z" fill="#53527C"/>
<path d="M40.4531 23.0062L40.6406 23.1937L40.4531 23.0062Z" fill="#FCB755"/>
<path d="M40.8281 23.0062L41.0156 23.1937L40.8281 23.0062Z" fill="#FEA522"/>
<path d="M41.5969 23.0062L41.7844 23.1937L41.5969 23.0062Z" fill="#FBEAD6"/>
<path d="M41.9719 23.0062L42.1594 23.1937L41.9719 23.0062Z" fill="#FE9F11"/>
<path d="M42.1688 23.0062L42.3563 23.1937L42.1688 23.0062Z" fill="#FCF1E4"/>
<path d="M42.7406 23.0062L42.9281 23.1937L42.7406 23.0062Z" fill="#FBBE66"/>
<path d="M42.9281 23.0062L43.1156 23.1937L42.9281 23.0062Z" fill="#FBC477"/>
<path d="M43.1156 23.0062L43.3031 23.1937L43.1156 23.0062Z" fill="#FBBE66"/>
<path d="M44.0625 23.0062L44.25 23.1937L44.0625 23.0062Z" fill="#FEA522"/>
<path d="M46.5469 23.0062L46.7344 23.1937L46.5469 23.0062Z" fill="#F9D6AA"/>
<path d="M49.0219 23.0062L49.2094 23.1937L49.0219 23.0062Z" fill="#FCB144"/>
<path d="M52.0594 23.0062L52.2469 23.1937L52.0594 23.0062Z" fill="#8D8D5B"/>
<path d="M39.3094 23.1937L39.4969 23.3812L39.3094 23.1937Z" fill="#E5E3AF"/>
<path d="M40.4531 23.1937L40.6406 23.3812L40.4531 23.1937Z" fill="#F8DCBB"/>
<path d="M41.025 23.1937L41.2125 23.3812L41.025 23.1937Z" fill="#FDAB33"/>
<path d="M41.5969 23.1937L41.7844 23.3812L41.5969 23.1937Z" fill="#FE9F11"/>
<path d="M41.9719 23.1937L42.1594 23.3812L41.9719 23.1937Z" fill="#FACA88"/>
<path d="M42.7406 23.1937L42.9281 23.3812L42.7406 23.1937Z" fill="#FCF1E4"/>
<path d="M44.0625 23.1937L44.25 23.3812L44.0625 23.1937ZM46.7344 23.1937L46.9219 23.3812L46.7344 23.1937Z" fill="#F9D099"/>
<path d="M49.2094 23.1937L49.3969 23.3812L49.2094 23.1937Z" fill="#FBBE66"/>
<path d="M40.6406 23.3812L40.8281 23.5687L40.6406 23.3812Z" fill="#FEA522"/>
<path d="M41.2125 23.3812L41.4 23.5687L41.2125 23.3812Z" fill="#FDAB33"/>
<path d="M41.4 23.3812L41.5875 23.5687L41.4 23.3812Z" fill="#FEA522"/>
<path d="M41.7844 23.3812L41.9719 23.5687L41.7844 23.3812Z" fill="#FE9F11"/>
<path d="M41.9719 23.3812L42.1594 23.5687L41.9719 23.3812Z" fill="#FEF8F1"/>
<path d="M42.9281 23.3812L43.1156 23.5687L42.9281 23.3812Z" fill="#FBBE66"/>
<path d="M44.0625 23.3812L44.25 23.5687L44.0625 23.3812Z" fill="#FEF8F1"/>
<path d="M46.9219 23.3812L47.1094 23.5687L46.9219 23.3812Z" fill="#FBBE66"/>
<path d="M49.3969 23.3812L49.5844 23.5687L49.3969 23.3812Z" fill="#F9D099"/>
<path d="M40.6406 23.5781L40.8281 23.7656L40.6406 23.5781Z" fill="#F9D6AA"/>
<path d="M41.7844 23.5781L41.9719 23.7656L41.7844 23.5781Z" fill="#F9D099"/>
<path d="M42.9281 23.5781L43.1156 23.7656L42.9281 23.5781Z" fill="#FCF1E4"/>
<path d="M43.875 23.5781L44.0625 23.7656L43.875 23.5781ZM47.1094 23.5781L47.2969 23.7656L47.1094 23.5781Z" fill="#FDAB33"/>
<path d="M49.5844 23.5781L49.7719 23.7656L49.5844 23.5781Z" fill="#FBEAD6"/>
<path d="M40.8281 23.7656L41.0156 23.9531L40.8281 23.7656Z" fill="#FEA522"/>
<path d="M41.5969 23.7656L41.7844 23.9531L41.5969 23.7656Z" fill="#FE9F11"/>
<path d="M43.1156 23.7656L43.3031 23.9531L43.1156 23.7656Z" fill="#FCB144"/>
<path d="M43.875 23.7656L44.0625 23.9531L43.875 23.7656Z" fill="#FACA88"/>
<path d="M47.1094 23.7656L47.2969 23.9531L47.1094 23.7656Z" fill="#F8DCBB"/>
<path d="M49.5844 23.7656L49.7719 23.9531L49.5844 23.7656Z" fill="#FCB144"/>
<path d="M39.3094 23.9625L39.4969 24.15L39.3094 23.9625Z" fill="#D3D079"/>
<path d="M40.8281 23.9625L41.0156 24.15L40.8281 23.9625ZM43.1156 23.9625L43.3031 24.15L43.1156 23.9625Z" fill="#FACA88"/>
<path d="M43.875 23.9625L44.0625 24.15L43.875 23.9625M47.1094 23.9625L47.2969 24.15L47.1094 23.9625Z" fill="#FAE3C9"/>
<path d="M49.7719 23.9625L49.9594 24.15L49.7719 23.9625V23.9625Z" fill="#F8DCBB"/>
<path d="M51.4875 23.9625L51.675 24.15L51.4875 23.9625Z" fill="#F2F1D7"/>
<path d="M52.125 24.0844L52.1906 24.2062L52.125 24.0844Z" fill="#58587B"/>
<path d="M39.3656 24.2719L39.4406 24.4031L39.375 24.2719H39.3656Z" fill="#D9D868"/>
<path d="M40.8281 24.15L41.0156 24.3375L40.8281 24.15Z" fill="#F8DCBB"/>
<path d="M46.9219 24.15L47.1094 24.3375L46.9219 24.15Z" fill="#F9D6AA"/>
<path d="M47.1094 24.15L47.2969 24.3375L47.1094 24.15Z" fill="#FE9F11"/>
<path d="M49.7719 24.15L49.9594 24.3375L49.7719 24.15Z" fill="#FCB144"/>
<path d="M51.5531 24.2719L51.6188 24.4031L51.5531 24.2719Z" fill="#F2F1D2"/>
<path d="M40.8281 24.3375L41.0156 24.525L40.8281 24.3375Z" fill="#FCF1E4"/>
<path d="M46.7344 24.3375L46.9219 24.525L46.7344 24.3375Z" fill="#FEF8F1"/>
<path d="M46.9219 24.3375L47.1094 24.525L46.9219 24.3375Z" fill="#FE9F11"/>
<path d="M47.4937 24.3375L47.3062 24.7125L47.4937 24.3375Z" fill="#FDAB33"/>
<path d="M47.6812 24.3375L47.8687 24.525L47.6812 24.3375Z" fill="#FCB755"/>
<path d="M49.9688 24.3375L50.1562 24.525L49.9688 24.3375Z" fill="#FEA522"/>
<path d="M50.1562 24.3375L50.3438 24.525L50.1562 24.3375Z" fill="#F9D099"/>
<path d="M52.0594 24.3375L52.2469 24.525L52.0594 24.3375Z" fill="#53527C"/>
<path d="M38.9906 24.6562L39.0563 24.7781L38.9906 24.6562Z" fill="#808067"/>
<path d="M41.025 24.525L41.2125 24.7125L41.025 24.525ZM41.5875 24.525L41.775 24.7125L41.5875 24.525Z" fill="#FEA522"/>
<path d="M43.6875 24.525L43.875 24.7125L43.6875 24.525Z" fill="#FE9F11"/>
<path d="M46.7344 24.525L46.9219 24.7125L46.7344 24.525Z" fill="#FAE3C9"/>
<path d="M47.4937 24.525L47.6812 24.7125L47.4937 24.525Z" fill="#FEF8F1"/>
<path d="M47.8781 24.525L48.0656 24.7125L47.8781 24.525Z" fill="#FCB144"/>
<path d="M50.3438 24.525L50.5312 24.7125L50.3438 24.525Z" fill="#FCB755"/>
<path d="M50.5312 24.525L50.9062 24.9L50.5312 24.525Z" fill="#FEF8F1"/>
<path d="M51.5531 24.6562L51.6188 24.7781L51.5531 24.6562Z" fill="#E5E59D"/>
<path d="M52.125 24.6562L52.1906 24.7781L52.125 24.6562Z" fill="#32327B"/>
<path d="M41.0906 24.8438L41.1469 24.975L41.0906 24.8438Z" fill="#FCB755"/>
<path d="M41.7844 24.7125L41.9719 24.9L41.7844 24.7125Z" fill="#FEF8F1"/>
<path d="M43.6875 24.7125L43.875 24.9L43.6875 24.7125Z" fill="#FBBE66"/>
<path d="M46.7344 24.7125L46.9219 24.9L46.7344 24.7125Z" fill="#FBEAD6"/>
<path d="M47.1094 24.7125L47.2969 24.9L47.1094 24.7125Z" fill="#FE9F11"/>
<path d="M47.3062 24.7125L47.4937 24.9L47.3062 24.7125Z" fill="#FCF1E4"/>
<path d="M47.8781 24.7125L48.0656 24.9L47.8781 24.7125Z" fill="#FBEAD6"/>
<path d="M50.5312 24.7125L50.7188 24.9L50.5312 24.7125Z" fill="#FDAB33"/>
<path d="M38.9344 24.9L39.1219 25.0875L38.9344 24.9Z" fill="#666677"/>
<path d="M39.4969 24.9L39.6844 25.0875L39.4969 24.9Z" fill="#F6F6E4"/>
<path d="M41.7844 24.9L41.9719 25.0875L41.7844 24.9Z" fill="#F9D6AA"/>
<path d="M43.3031 24.9L43.4906 25.0875L43.3031 24.9Z" fill="#FDAB33"/>
<path d="M43.4906 24.9L43.6781 25.0875L43.4906 24.9Z" fill="#FE9F11"/>
<path d="M43.6875 24.9L43.875 25.0875L43.6875 24.9Z" fill="#FCF1E4"/>
<path d="M46.9219 24.9L47.1094 25.0875L46.9219 24.9Z" fill="#FEA522"/>
<path d="M47.1094 24.9L47.2969 25.0875L47.1094 24.9ZM48.0656 24.9L48.2531 25.0875L48.0656 24.9Z" fill="#FACA88"/>
<path d="M50.7188 24.9L50.9062 25.0875L50.7188 24.9Z" fill="#FCB144"/>
<path d="M51.4875 24.9L51.675 25.0875L51.4875 24.9Z" fill="#DDDC7A"/>
<path d="M38.9344 25.0969L39.1219 25.2844L38.9344 25.0969Z" fill="#58587B"/>
<path d="M39.4969 25.0969L39.6844 25.2844L39.4969 25.0969Z" fill="#F2F1D2"/>
<path d="M41.0906 25.2188L41.1469 25.35L41.0906 25.2188Z" fill="#FCB144"/>
<path d="M41.7844 25.0969L41.9719 25.2844L41.7844 25.0969Z" fill="#FEA522"/>
<path d="M43.6875 25.0969L43.875 25.2844L43.6875 25.0969Z" fill="#FEF8F1"/>
<path d="M43.875 25.0969L44.0625 25.2844L43.875 25.0969Z" fill="#FEA522"/>
<path d="M44.25 25.0969L44.4375 25.2844L44.25 25.0969Z" fill="#FCB144"/>
<path d="M44.4375 25.0969L44.625 25.2844L44.4375 25.0969Z" fill="#FBEAD6"/>
<path d="M46.9219 25.0969L47.1094 25.2844L46.9219 25.0969Z" fill="#F8DCBB"/>
<path d="M47.1094 25.0969L47.2969 25.2844L47.1094 25.0969Z" fill="#FCF1E4"/>
<path d="M48.0656 25.0969L48.2531 25.2844L48.0656 25.0969Z" fill="#FEF8F1"/>
<path d="M48.2531 25.0969L48.4406 25.2844L48.2531 25.0969Z" fill="#FE9F11"/>
<path d="M50.925 25.0969L51.1125 25.2844L50.925 25.0969Z" fill="#FBEAD6"/>
<path d="M51.4875 25.0969L51.675 25.2844L51.4875 25.0969Z" fill="#D9D868"/>
<path d="M38.9344 25.2844L39.1219 25.4719L38.9344 25.2844Z" fill="#3A3A7C"/>
<path d="M39.4969 25.2844L39.6844 25.4719L39.4969 25.2844Z" fill="#E5E3AF"/>
<path d="M41.9719 25.2844L42.1594 25.4719L41.9719 25.2844Z" fill="#FACA88"/>
<path d="M43.875 25.2844L44.0625 25.4719L43.875 25.2844Z" fill="#FBEAD6"/>
<path d="M44.4375 25.2844L44.625 25.4719L44.4375 25.2844Z" fill="#FE9F11"/>
<path d="M44.6437 25.2844L44.8312 25.4719L44.6437 25.2844Z" fill="#FCF1E4"/>
<path d="M46.7344 25.2844L46.9219 25.4719L46.7344 25.2844Z" fill="#FBEAD6"/>
<path d="M46.9219 25.2844L47.1094 25.4719L46.9219 25.2844Z" fill="#FAE3C9"/>
<path d="M47.1094 25.2844L47.2969 25.4719L47.1094 25.2844Z" fill="#FBEAD6"/>
<path d="M48.2531 25.2844L48.4406 25.4719L48.2531 25.2844ZM49.7812 25.2844L49.9687 25.4719L49.7812 25.2844Z" fill="#FBBE66"/>
<path d="M49.9688 25.2844L50.1562 25.4719L49.9688 25.2844Z" fill="#FCF1E4"/>
<path d="M50.1562 25.2844L50.3438 25.4719L50.1562 25.2844Z" fill="#FEF8F1"/>
<path d="M50.3438 25.2844L50.5312 25.4719L50.3438 25.2844Z" fill="#F8DCBB"/>
<path d="M50.5312 25.2844L50.7188 25.4719L50.5312 25.2844Z" fill="#FCB755"/>
<path d="M50.925 25.2844L51.1125 25.4719L50.925 25.2844Z" fill="#FAE3C9"/>
<path d="M51.8719 25.2844L52.0594 25.4719L51.8719 25.2844Z" fill="#808067"/>
<path d="M38.9344 25.4813L39.1219 25.6688L38.9344 25.4813Z" fill="#32327B"/>
<path d="M39.1781 25.5938L39.2438 25.7344L39.1875 25.6031L39.1781 25.5938Z" fill="#A4A43D"/>
<path d="M39.4969 25.4813L39.6844 25.6688L39.4969 25.4813Z" fill="#E5E59D"/>
<path d="M41.025 25.4813L41.2125 25.6688L41.025 25.4813Z" fill="#FBC477"/>
<path d="M42.1688 25.4813L42.3563 25.6688L42.1688 25.4813Z" fill="#F9D6AA"/>
<path d="M44.0625 25.4813L44.25 25.6688L44.0625 25.4813Z" fill="#FBBE66"/>
<path d="M44.6437 25.4813L44.8312 25.6688L44.6437 25.4813Z" fill="#F9D099"/>
<path d="M46.35 25.4813L46.5375 25.6688L46.35 25.4813Z" fill="#FAE3C9"/>
<path d="M46.5469 25.4813L46.7344 25.6688L46.5469 25.4813Z" fill="#FCB144"/>
<path d="M47.3062 25.4813L47.4937 25.6688L47.3062 25.4813Z" fill="#FAE3C9"/>
<path d="M48.2531 25.4813L48.4406 25.6688L48.2531 25.4813Z" fill="#F8DCBB"/>
<path d="M49.7719 25.4813L49.9594 25.6688L49.7719 25.4813Z" fill="#F9D099"/>
<path d="M50.7188 25.4813L50.9062 25.6688L50.7188 25.4813Z" fill="#FBC477"/>
<path d="M50.925 25.4813L51.1125 25.6688L50.925 25.4813Z" fill="#FBEAD6"/>
<path d="M51.8719 25.4813L52.0594 25.6688L51.8719 25.4813Z" fill="#737370"/>
<path d="M39.4969 25.6688L39.6844 25.8563L39.4969 25.6688Z" fill="#D9D868"/>
<path d="M41.025 25.6688L41.2125 25.8563L41.025 25.6688Z" fill="#F9D099"/>
<path d="M42.3563 25.6688L42.5438 25.8563L42.3563 25.6688ZM44.0719 25.6688L44.2594 25.8563L44.0719 25.6688Z" fill="#F9D6AA"/>
<path d="M44.6437 25.6688L44.8312 25.8563L44.6437 25.6688Z" fill="#FBC477"/>
<path d="M45.5906 25.6688L45.7781 25.8563L45.5906 25.6688Z" fill="#FEF8F1"/>
<path d="M45.7781 25.6688L45.9656 25.8563L45.7781 25.6688Z" fill="#F8DCBB"/>
<path d="M45.975 25.6688L46.1625 25.8563L45.975 25.6688Z" fill="#FBC477"/>
<path d="M46.1625 25.6688L46.35 25.8563L46.1625 25.6688Z" fill="#FEA522"/>
<path d="M47.3062 25.6688L47.4937 25.8563L47.3062 25.6688Z" fill="#FBEAD6"/>
<path d="M51.3 25.6688L51.4875 25.8563L51.3 25.6688Z" fill="#F2F1D2"/>
<path d="M51.8719 25.6688L52.0594 25.8563L51.8719 25.6688Z" fill="#58587B"/>
<path d="M39.1219 25.8563L39.3094 26.0438L39.1219 25.8563Z" fill="#99994E"/>
<path d="M39.4969 25.8563L39.6844 26.0438L39.4969 25.8563Z" fill="#D0D045"/>
<path d="M42.5531 25.8563L42.7406 26.0438L42.5531 25.8563Z" fill="#FCB144"/>
<path d="M42.7406 25.8563L42.9281 26.0438L42.7406 25.8563Z" fill="#FAE3C9"/>
<path d="M44.0625 25.8563L44.25 26.0438L44.0625 25.8563Z" fill="#FEF8F1"/>
<path d="M44.8312 25.8563L45.0187 26.0438L44.8312 25.8563Z" fill="#FCB755"/>
<path d="M45.0187 25.8563L45.2062 26.0438L45.0187 25.8563Z" fill="#FBC477"/>
<path d="M45.2156 25.8563L45.4031 26.0438L45.2156 25.8563Z" fill="#FCB144"/>
<path d="M45.4031 25.8563L45.5906 26.0438L45.4031 25.8563Z" fill="#FEA522"/>
<path d="M46.9219 25.8563L47.1094 26.0438L46.9219 25.8563Z" fill="#FE9F11"/>
<path d="M47.1094 25.8563L47.2969 26.0438L47.1094 25.8563Z" fill="#F9D6AA"/>
<path d="M49.7719 25.8563L49.9594 26.0438L49.7719 25.8563Z" fill="#FEF8F1"/>
<path d="M51.3 25.8563L51.4875 26.0438L51.3 25.8563Z" fill="#E0DEA1"/>
<path d="M51.8719 25.8563L52.0594 26.0438L51.8719 25.8563Z" fill="#3A3A7C"/>
<path d="M39.1219 26.0531L39.3094 26.2406L39.1219 26.0531Z" fill="#737370"/>
<path d="M39.6938 26.0531L39.8813 26.2406L39.6938 26.0531Z" fill="#FBFAF2"/>
<path d="M41.2125 26.0531L41.4 26.2406L41.2125 26.0531Z" fill="#FEA522"/>
<path d="M42.9281 26.0531L43.1156 26.2406L42.9281 26.0531Z" fill="#FE9F11"/>
<path d="M43.1156 26.0531L43.3031 26.2406L43.1156 26.0531Z" fill="#FCB144"/>
<path d="M43.3031 26.0531L43.4906 26.2406L43.3031 26.0531Z" fill="#FBC477"/>
<path d="M43.4906 26.0531L43.6781 26.2406L43.4906 26.0531Z" fill="#FACA88"/>
<path d="M43.6875 26.0531L43.875 26.2406L43.6875 26.0531Z" fill="#FBC477"/>
<path d="M43.875 26.0531L44.0625 26.2406L43.875 26.0531Z" fill="#FCB144"/>
<path d="M44.0625 26.0531L44.25 26.2406L44.0625 26.0531Z" fill="#FDAB33"/>
<path d="M46.7344 26.0531L46.9219 26.2406L46.7344 26.0531Z" fill="#FBC477"/>
<path d="M46.9219 26.0531L47.1094 26.2406L46.9219 26.0531Z" fill="#FEF8F1"/>
<path d="M49.5844 26.0531L49.7719 26.2406L49.5844 26.0531Z" fill="#FDAB33"/>
<path d="M51.3 26.0531L51.4875 26.2406L51.3 26.0531Z" fill="#E1E18C"/>
<path d="M51.7406 26.175L51.8063 26.3062L51.7406 26.175Z" fill="#A4A43D"/>
<path d="M51.8719 26.0531L52.0594 26.2406L51.8719 26.0531Z" fill="#262678"/>
<path d="M39.1219 26.2406L39.3094 26.4281L39.1219 26.2406Z" fill="#58587B"/>
<path d="M39.6938 26.2406L39.8813 26.4281L39.6938 26.2406Z" fill="#F2F1D2"/>
<path d="M41.2125 26.2406L41.4 26.4281L41.2125 26.2406Z" fill="#FACA88"/>
<path d="M46.35 26.2406L46.5375 26.4281L46.35 26.2406Z" fill="#FE9F11"/>
<path d="M46.5469 26.2406L46.7344 26.4281L46.5469 26.2406Z" fill="#FBEAD6"/>
<path d="M48.2531 26.2406L48.4406 26.4281L48.2531 26.2406Z" fill="#FBC477"/>
<path d="M49.5844 26.2406L49.7719 26.4281L49.5844 26.2406Z" fill="#FACA88"/>
<path d="M51.3 26.2406L51.4875 26.4281L51.3 26.2406Z" fill="#D4D456"/>
<path d="M39.1219 26.4281L39.3094 26.6156L39.1219 26.4281Z" fill="#32327B"/>
<path d="M39.6938 26.4281L39.8813 26.6156L39.6938 26.4281Z" fill="#E5E59D"/>
<path d="M41.2125 26.4281L41.4 26.6156L41.2125 26.4281Z" fill="#FEF8F1"/>
<path d="M41.4 26.4281L41.5875 26.6156L41.4 26.4281Z" fill="#FE9F11"/>
<path d="M46.35 26.4281L46.5375 26.6156L46.35 26.4281Z" fill="#FBEAD6"/>
<path d="M48.2531 26.4281L48.4406 26.6156L48.2531 26.4281Z" fill="#FEA522"/>
<path d="M49.5844 26.4281L49.7719 26.6156L49.5844 26.4281Z" fill="#FCF1E4"/>
<path d="M51.6844 26.4281L51.8719 26.6156L51.6844 26.4281Z" fill="#808067"/>
<path d="M39.1219 26.6156L39.3094 26.8031L39.1219 26.6156Z" fill="#0E0E6E"/>
<path d="M39.3094 26.6156L39.4969 26.8031L39.3094 26.6156Z" fill="#A4A43D"/>
<path d="M39.6938 26.6156L39.8813 26.8031L39.6938 26.6156Z" fill="#D9D868"/>
<path d="M41.4 26.6156L41.5875 26.8031L41.4 26.6156Z" fill="#F8DCBB"/>
<path d="M48.0656 26.6156L48.2531 26.8031L48.0656 26.6156Z" fill="#F9D6AA"/>
<path d="M49.3969 26.6156L49.5844 26.8031L49.3969 26.6156Z" fill="#FACA88"/>
<path d="M51.1125 26.6156L51.3 26.8031L51.1125 26.6156Z" fill="#F2F1D2"/>
<path d="M51.6844 26.6156L51.8719 26.8031L51.6844 26.6156Z" fill="#58587B"/>
<path d="M39.3094 26.8125L39.4969 27L39.3094 26.8125Z" fill="#8D8D5B"/>
<path d="M41.5969 26.8125L41.7844 27L41.5969 26.8125Z" fill="#F9D6AA"/>
<path d="M45.4031 26.8125L45.5906 27L45.4031 26.8125Z" fill="#FDAB33"/>
<path d="M45.5906 26.8125L45.7781 27L45.5906 26.8125Z" fill="white"/>
<path d="M45.9094 26.8688L46.0406 26.9344L45.9094 26.8688Z" fill="#FCB144"/>
<path d="M47.8781 26.8125L47.6906 27.1875L47.8781 26.8125Z" fill="#FEF8F1"/>
<path d="M48.0656 26.8125L48.2531 27L48.0656 26.8125Z" fill="#FE9F11"/>
<path d="M49.2094 26.8125L49.0219 27.1875L49.2094 26.8125Z" fill="#FDAB33"/>
<path d="M51.1125 26.8125L51.3 27L51.1125 26.8125Z" fill="#E5E59D"/>
<path d="M51.6844 26.8125L51.8719 27L51.6844 26.8125Z" fill="#3A3A7C"/>
<path d="M39.3094 27L39.4969 27.1875L39.3094 27Z" fill="#666677"/>
<path d="M39.8813 27L40.0688 27.1875L39.8813 27Z" fill="#F2F1D2"/>
<path d="M41.7844 27L41.9719 27.1875L41.7844 27Z" fill="#F9D6AA"/>
<path d="M45.4031 27L45.5906 27.1875L45.4031 27Z" fill="#FE9F11"/>
<path d="M45.5906 27L45.7781 27.1875L45.5906 27Z" fill="#FACA88"/>
<path d="M45.7781 27L45.9656 27.1875L45.7781 27Z" fill="#FEA522"/>
<path d="M45.975 27L46.1625 27.1875L45.975 27Z" fill="#FCF1E4"/>
<path d="M47.8781 27L48.0656 27.1875L47.8781 27Z" fill="#FDAB33"/>
<path d="M49.2094 27L49.3969 27.1875L49.2094 27Z" fill="#FEF8F1"/>
<path d="M51.1125 27L51.3 27.1875L51.1125 27Z" fill="#D9D868"/>
<path d="M51.4875 27L51.675 27.1875L51.4875 27Z" fill="#A4A43D"/>
<path d="M51.6844 27L51.8719 27.1875L51.6844 27Z" fill="#0E0E6E"/>
<path d="M39.3094 27.1875L39.4969 27.375L39.3094 27.1875Z" fill="#3A3A7C"/>
<path d="M39.8813 27.1875L40.0688 27.375L39.8813 27.1875Z" fill="#E5E59D"/>
<path d="M41.9719 27.1875L42.3469 27.5625L41.9719 27.1875Z" fill="#FAE3C9"/>
<path d="M42.1688 27.1875L42.3563 27.375L42.1688 27.1875Z" fill="#FE9F11"/>
<path d="M45.7781 27.1875L45.9656 27.375L45.7781 27.1875Z" fill="#F8DCBB"/>
<path d="M47.4937 27.1875L47.6812 27.375L47.4937 27.1875Z" fill="#FCF1E4"/>
<path d="M47.6812 27.1875L47.8687 27.375L47.6812 27.1875Z" fill="#FDAB33"/>
<path d="M48.8344 27.1875L49.0219 27.375L48.8344 27.1875Z" fill="#FCB144"/>
<path d="M49.0219 27.1875L49.2094 27.375L49.0219 27.1875Z" fill="#FEF8F1"/>
<path d="M50.925 27.1875L51.1125 27.375L50.925 27.1875Z" fill="#FBFAF2"/>
<path d="M51.4875 27.1875L51.675 27.375L51.4875 27.1875Z" fill="#8D8D5B"/>
<path d="M39.3094 27.375L39.4969 27.5625L39.3094 27.375Z" fill="#0E0E6E"/>
<path d="M39.4969 27.375L39.6844 27.5625L39.4969 27.375Z" fill="#A4A43D"/>
<path d="M39.8813 27.375L40.0688 27.5625L39.8813 27.375Z" fill="#D4D456"/>
<path d="M45.5906 27.375L45.7781 27.5625L45.5906 27.375Z" fill="#F9D6AA"/>
<path d="M47.3062 27.375L47.4937 27.5625L47.3062 27.375Z" fill="#F9D099"/>
<path d="M47.4937 27.375L47.6812 27.5625L47.4937 27.375Z" fill="#FE9F11"/>
<path d="M48.6375 27.375L48.825 27.5625L48.6375 27.375Z" fill="#FACA88"/>
<path d="M50.925 27.375L51.1125 27.5625L50.925 27.375Z" fill="#EEEDC1"/>
<path d="M51.4875 27.375L51.675 27.5625L51.4875 27.375Z" fill="#58587B"/>
<path d="M39.4969 27.5625L39.6844 27.75L39.4969 27.5625Z" fill="#737370"/>
<path d="M40.0688 27.5625L40.2563 27.75L40.0688 27.5625Z" fill="#F6F6E4"/>
<path d="M42.1688 27.5625L42.3563 27.75L42.1688 27.5625Z" fill="#FBBE66"/>
<path d="M45.2156 27.5625L45.4031 27.75L45.2156 27.5625Z" fill="#FCB144"/>
<path d="M45.4594 27.7031L45.525 27.825L45.4594 27.7031Z" fill="#F8DCBB"/>
<path d="M46.9219 27.5625L47.1094 27.75L46.9219 27.5625Z" fill="#FBBE66"/>
<path d="M47.1094 27.5625L47.2969 27.75L47.1094 27.5625Z" fill="#FE9F11"/>
<path d="M48.2531 27.5625L48.4406 27.75L48.2531 27.5625Z" fill="#FBC477"/>
<path d="M48.45 27.5625L48.6375 27.75L48.45 27.5625Z" fill="#FCF1E4"/>
<path d="M50.925 27.5625L51.1125 27.75L50.925 27.5625Z" fill="#D3D079"/>
<path d="M51.3 27.5625L51.4875 27.75L51.3 27.5625Z" fill="#A4A43D"/>
<path d="M51.4875 27.5625L51.675 27.75L51.4875 27.5625Z" fill="#262678"/>
<path d="M39.4969 27.75L39.6844 27.9375L39.4969 27.75Z" fill="#49497D"/>
<path d="M40.0688 27.75L40.2563 27.9375L40.0688 27.75Z" fill="#E0DEA1"/>
<path d="M41.9719 27.75L42.1594 27.9375L41.9719 27.75Z" fill="#FAE3C9"/>
<path d="M44.6437 27.75L44.8312 27.9375L44.6437 27.75Z" fill="#FDAB33"/>
<path d="M44.8312 27.75L45.0187 27.9375L44.8312 27.75Z" fill="#FBC477"/>
<path d="M45.0187 27.75L45.2062 27.9375L45.0187 27.75Z" fill="#FBEAD6"/>
<path d="M45.5906 27.75L45.7781 27.9375L45.5906 27.75Z" fill="#FCB144"/>
<path d="M48.0656 27.75L48.2531 27.9375L48.0656 27.75Z" fill="#F9D6AA"/>
<path d="M51.3 27.75L51.4875 27.9375L51.3 27.75Z" fill="#99994E"/>
<path d="M39.4969 27.9562L39.6844 28.1437L39.4969 27.9562Z" fill="#0E0E6E"/>
<path d="M39.6938 27.9562L39.8813 28.1437L39.6938 27.9562Z" fill="#A4A43D"/>
<path d="M40.0688 27.9562L40.2563 28.1437L40.0688 27.9562Z" fill="#D4D456"/>
<path d="M41.7844 27.9562L41.9719 28.1437L41.7844 27.9562Z" fill="#F9D099"/>
<path d="M41.9719 27.9562L42.1594 28.1437L41.9719 27.9562ZM42.9281 27.9562L43.1156 28.1437L42.9281 27.9562Z" fill="#FE9F11"/>
<path d="M43.1156 27.9562L43.3031 28.1437L43.1156 27.9562Z" fill="#F9D6AA"/>
<path d="M43.3031 27.9562L43.4906 28.1437L43.3031 27.9562Z" fill="#F9D099"/>
<path d="M44.0625 27.9562L44.25 28.1437L44.0625 27.9562Z" fill="#F9D6AA"/>
<path d="M44.25 27.9562L44.4375 28.1437L44.25 27.9562Z" fill="#FAE3C9"/>
<path d="M44.4375 27.9562L44.625 28.1437L44.4375 27.9562Z" fill="#FEF8F1"/>
<path d="M45.975 27.9562L46.1625 28.1437L45.975 27.9562Z" fill="#FBEAD6"/>
<path d="M46.1625 27.9562L46.35 28.1437L46.1625 27.9562Z" fill="#FAE3C9"/>
<path d="M46.35 27.9562L46.5375 28.1437L46.35 27.9562Z" fill="#FACA88"/>
<path d="M46.5469 27.9562L46.7344 28.1437L46.5469 27.9562Z" fill="#FBC477"/>
<path d="M46.7344 27.9562L46.9219 28.1437L46.7344 27.9562Z" fill="#FDAB33"/>
<path d="M47.6812 27.9562L47.8687 28.1437L47.6812 27.9562Z" fill="#FE9F11"/>
<path d="M47.8781 27.9562L48.0656 28.1437L47.8781 27.9562Z" fill="#F9D6AA"/>
<path d="M50.7188 27.9562L50.9062 28.1437L50.7188 27.9562Z" fill="#E5E3AF"/>
<path d="M51.3 27.9562L51.4875 28.1437L51.3 27.9562Z" fill="#666677"/>
<path d="M39.6938 28.1437L39.8813 28.3312L39.6938 28.1437Z" fill="#737370"/>
<path d="M40.2656 28.1437L40.4531 28.3312L40.2656 28.1437Z" fill="#F2F1D7"/>
<path d="M41.5969 28.1437L41.7844 28.3312L41.5969 28.1437Z" fill="#FEA522"/>
<path d="M42.5531 28.1437L42.7406 28.3312L42.5531 28.1437Z" fill="#FE9F11"/>
<path d="M42.7406 28.1437L42.9281 28.3312L42.7406 28.1437Z" fill="#FBBE66"/>
<path d="M42.9281 28.1437L43.1156 28.3312L42.9281 28.1437Z" fill="#FCF1E4"/>
<path d="M47.4937 28.1437L47.6812 28.3312L47.4937 28.1437Z" fill="#FEA522"/>
<path d="M47.6812 28.1437L47.8687 28.3312L47.6812 28.1437Z" fill="#FBEAD6"/>
<path d="M50.7188 28.1437L50.9062 28.3312L50.7188 28.1437Z" fill="#DDDC7A"/>
<path d="M51.1125 28.1437L51.3 28.3312L51.1125 28.1437Z" fill="#A4A43D"/>
<path d="M51.3 28.1437L51.4875 28.3312L51.3 28.1437Z" fill="#262678"/>
<path d="M39.6938 28.3312L39.8813 28.5187L39.6938 28.3312Z" fill="#49497D"/>
<path d="M39.9375 28.4625L40.0125 28.5844L39.9375 28.4625Z" fill="#A4A43D"/>
<path d="M40.2656 28.3312L40.4531 28.5187L40.2656 28.3312Z" fill="#D3D079"/>
<path d="M41.7844 28.3312L41.9719 28.5187L41.7844 28.3312Z" fill="#F9D099"/>
<path d="M41.9719 28.3312L42.1594 28.5187L41.9719 28.3312Z" fill="#FCB144"/>
<path d="M42.1688 28.3312L42.3563 28.5187L42.1688 28.3312Z" fill="#FACA88"/>
<path d="M42.3563 28.3312L42.5438 28.5187L42.3563 28.3312Z" fill="#F8DCBB"/>
<path d="M42.5531 28.3312L42.7406 28.5187L42.5531 28.3312Z" fill="#FEF8F1"/>
<path d="M46.7344 28.3312L46.9219 28.5187L46.7344 28.3312Z" fill="#F8DCBB"/>
<path d="M47.4937 28.3312L47.6812 28.5187L47.4937 28.3312Z" fill="#FCF1E4"/>
<path d="M50.5312 28.3312L50.7188 28.5187L50.5312 28.3312Z" fill="#F6F6E4"/>
<path d="M51.1125 28.3312L51.3 28.5187L51.1125 28.3312Z" fill="#8D8D5B"/>
<path d="M40.4531 28.5187L40.6406 28.7062L40.4531 28.5187Z" fill="#FBFAF2"/>
<path d="M46.7344 28.5187L46.9219 28.7062L46.7344 28.5187Z" fill="#FBBE66"/>
<path d="M47.3062 28.5187L47.4937 28.7062L47.3062 28.5187Z" fill="#FACA88"/>
<path d="M50.5312 28.5187L50.7188 28.7062L50.5312 28.5187Z" fill="#E1E18C"/>
<path d="M51.1125 28.5187L51.3 28.7062L51.1125 28.5187Z" fill="#49497D"/>
<path d="M39.8813 28.7156L40.0688 28.9031L39.8813 28.7156Z" fill="#58587B"/>
<path d="M40.4531 28.7156L40.6406 28.9031L40.4531 28.7156Z" fill="#E5E59D"/>
<path d="M46.7344 28.7156L46.9219 28.9031L46.7344 28.7156Z" fill="#FE9F11"/>
<path d="M47.1094 28.7156L47.2969 28.9031L47.1094 28.7156Z" fill="#FDAB33"/>
<path d="M50.3438 28.7156L50.5312 28.9031L50.3438 28.7156Z" fill="#FBFAF2"/>
<path d="M50.925 28.7156L51.1125 28.9031L50.925 28.7156Z" fill="#A4A43D"/>
<path d="M51.1125 28.7156L51.3 28.9031L51.1125 28.7156Z" fill="#0E0E6E"/>
<path d="M39.8813 28.9031L40.0688 29.0906L39.8813 28.9031Z" fill="#1B1B74"/>
<path d="M40.0688 28.9031L40.2563 29.0906L40.0688 28.9031Z" fill="#A4A43D"/>
<path d="M40.4531 28.9031L40.6406 29.0906L40.4531 28.9031Z" fill="#D0D045"/>
<path d="M46.5469 28.9031L46.7344 29.0906L46.5469 28.9031Z" fill="#FBEAD6"/>
<path d="M46.9219 28.9031L47.1094 29.0906L46.9219 28.9031Z" fill="#FE9F11"/>
<path d="M47.1094 28.9031L47.2969 29.0906L47.1094 28.9031Z" fill="#FBEAD6"/>
<path d="M50.3438 28.9031L50.5312 29.0906L50.3438 28.9031Z" fill="#E5E59D"/>
<path d="M50.925 28.9031L51.1125 29.0906L50.925 28.9031Z" fill="#666677"/>
<path d="M40.0688 29.0906L40.2563 29.2781L40.0688 29.0906Z" fill="#6E6C70"/>
<path d="M40.6406 29.0906L40.8281 29.2781L40.6406 29.0906Z" fill="#E5E3AF"/>
<path d="M46.5938 29.2219L46.6687 29.3531L46.5938 29.2219Z" fill="#FACA88"/>
<path d="M46.9219 29.0906L47.1094 29.2781L46.9219 29.0906Z" fill="#FAE3C9"/>
<path d="M50.1562 29.0906L50.3438 29.2781L50.1562 29.0906Z" fill="#FBFAF2"/>
<path d="M50.7188 29.0906L50.9062 29.2781L50.7188 29.0906Z" fill="#A4A43D"/>
<path d="M50.925 29.0906L51.1125 29.2781L50.925 29.0906ZM40.0688 29.2781L40.2563 29.4656L40.0688 29.2781Z" fill="#1B1B74"/>
<path d="M40.2656 29.2875L40.4531 29.475L40.2656 29.2875Z" fill="#A4A43D"/>
<path d="M40.6406 29.2875L40.8281 29.475L40.6406 29.2875Z" fill="#D0D045"/>
<path d="M40.8281 29.2875L41.0156 29.475L40.8281 29.2875Z" fill="#FBFAF2"/>
<path d="M46.7344 29.2875L46.9219 29.475L46.7344 29.2875Z" fill="#F9D6AA"/>
<path d="M50.1562 29.2875L50.3438 29.475L50.1562 29.2875Z" fill="#E5E59D"/>
<path d="M50.7188 29.2875L50.9062 29.475L50.7188 29.2875ZM40.2656 29.475L40.4531 29.6625L40.2656 29.475Z" fill="#6E6C70"/>
<path d="M40.8281 29.475L41.0156 29.6625L40.8281 29.475Z" fill="#8CBF84"/>
<path d="M40.9125 29.475C41.5688 30.8625 43.9125 34.1437 45.6938 34.0875C47.4375 34.0219 49.3969 30.8062 50.1563 29.475H40.9125Z" fill="#00CCFF"/>
<path d="M50.5312 29.475L50.7188 29.6625L50.5312 29.475Z" fill="#A4A43D"/>
<path d="M50.7188 29.475L50.9062 29.6625L50.7188 29.475ZM40.2656 29.6625L40.4531 29.85L40.2656 29.6625Z" fill="#1B1B74"/>
<path d="M40.4531 29.6625L40.6406 29.85L40.4531 29.6625Z" fill="#A4A43D"/>
<path d="M40.8281 29.6625L41.0156 29.85L40.8281 29.6625Z" fill="#ADB333"/>
<path d="M41.025 29.6625L41.2125 29.85L41.025 29.6625Z" fill="#1AC5B5"/>
<path d="M49.9688 29.6625L50.1562 29.85L49.9688 29.6625Z" fill="#68B070"/>
<path d="M50.5312 29.6625L50.7188 29.85L50.5312 29.6625Z" fill="#666677"/>
<path d="M40.4531 29.8594L40.6406 30.0469L40.4531 29.8594Z" fill="#58587B"/>
<path d="M41.025 29.8594L41.2125 30.0469L41.025 29.8594Z" fill="#7FB15C"/>
<path d="M49.7719 29.8594L49.9594 30.0469L49.7719 29.8594Z" fill="#27C2AA"/>
<path d="M50.3438 29.8594L50.1562 30.2344L50.3438 29.8594Z" fill="#A4A43D"/>
<path d="M50.5312 29.8594L50.7188 30.0469L50.5312 29.8594ZM40.4531 30.0469L40.6406 30.2344L40.4531 30.0469Z" fill="#0E0E6E"/>
<path d="M40.6406 30.0469L41.0156 30.4219L40.6406 30.0469Z" fill="#A4A43D"/>
<path d="M41.2125 30.0469L41.4 30.2344L41.2125 30.0469Z" fill="#34BE9E"/>
<path d="M49.7719 30.0469L49.9594 30.2344L49.7719 30.0469Z" fill="#96B247"/>
<path d="M50.3438 30.0469L50.5312 30.2344L50.3438 30.0469Z" fill="#53527C"/>
<path d="M40.6406 30.2438L40.8281 30.4313L40.6406 30.2438Z" fill="#3A3A7C"/>
<path d="M41.2125 30.2438L41.4 30.4313L41.2125 30.2438Z" fill="#A2B23D"/>
<path d="M41.4 30.2438L41.5875 30.4313L41.4 30.2438Z" fill="#0DC9C1"/>
<path d="M49.5844 30.2438L49.7719 30.4313L49.5844 30.2438Z" fill="#5BB47C"/>
<path d="M50.1562 30.2438L50.3438 30.4313L50.1562 30.2438Z" fill="#8D8D5B"/>
<path d="M40.8281 30.4313L41.0156 30.6188L40.8281 30.4313Z" fill="#737370"/>
<path d="M41.4 30.4313L41.5875 30.6188L41.4 30.4313Z" fill="#74B166"/>
<path d="M49.3969 30.4313L49.5844 30.6188L49.3969 30.4313Z" fill="#27C2AA"/>
<path d="M49.9688 30.4313L49.7812 30.8063L49.9688 30.4313Z" fill="#A4A43D"/>
<path d="M50.1562 30.4313L50.3438 30.6188L50.1562 30.4313Z" fill="#262678"/>
<path d="M40.8281 30.6188L41.0156 30.8063L40.8281 30.6188Z" fill="#0E0E6E"/>
<path d="M41.025 30.6188L41.4 30.9938L41.025 30.6188Z" fill="#A4A43D"/>
<path d="M41.5969 30.6188L41.7844 30.8063L41.5969 30.6188Z" fill="#42BB92"/>
<path d="M49.2094 30.6188L49.3969 30.8063L49.2094 30.6188Z" fill="#0DC9C1"/>
<path d="M49.3969 30.6188L49.5844 30.8063L49.3969 30.6188Z" fill="#96B247"/>
<path d="M49.9688 30.6188L50.1562 30.8063L49.9688 30.6188Z" fill="#58587B"/>
<path d="M41.025 30.8063L41.2125 30.9938L41.025 30.8063Z" fill="#3A3A7C"/>
<path d="M41.5969 30.8063L41.7844 30.9938L41.5969 30.8063Z" fill="#ADB333"/>
<path d="M41.7844 30.8063L41.9719 30.9938L41.7844 30.8063Z" fill="#27C2AA"/>
<path d="M49.2094 30.8063L49.3969 30.9938L49.2094 30.8063Z" fill="#74B166"/>
<path d="M49.7719 30.8063L49.9594 30.9938L49.7719 30.8063Z" fill="#8D8D5B"/>
<path d="M41.2125 30.9938L41.4 31.1813L41.2125 30.9938Z" fill="#6E6C70"/>
<path d="M41.7844 30.9938L41.9719 31.1813L41.7844 30.9938Z" fill="#96B247"/>
<path d="M41.9719 30.9938L42.1594 31.1813L41.9719 30.9938Z" fill="#0DC9C1"/>
<path d="M49.0219 30.9938L49.2094 31.1813L49.0219 30.9938Z" fill="#42BB92"/>
<path d="M49.5844 30.9938L49.2094 31.5563L49.5844 30.9938Z" fill="#A4A43D"/>
<path d="M49.7719 30.9938L49.9594 31.1813L49.7719 30.9938Z" fill="#1B1B74"/>
<path d="M41.2125 31.1813L41.4 31.3688L41.2125 31.1813Z" fill="#0E0E6E"/>
<path d="M41.4 31.1813L41.5875 31.3688L41.4 31.1813Z" fill="#8D8D5B"/>
<path d="M41.9719 31.1813L42.1594 31.3688L41.9719 31.1813Z" fill="#7FB15C"/>
<path d="M48.8344 31.1813L49.0219 31.3688L48.8344 31.1813Z" fill="#34BE9E"/>
<path d="M49.5844 31.1813L49.7719 31.3688L49.5844 31.1813Z" fill="#3A3A7C"/>
<path d="M41.4 31.3782L41.5875 31.5657L41.4 31.3782Z" fill="#1B1B74"/>
<path d="M41.5969 31.3782L43.6875 33.4688L41.5969 31.3782Z" fill="#A4A43D"/>
<path d="M42.1688 31.3782L42.3563 31.5657L42.1688 31.3782Z" fill="#74B166"/>
<path d="M48.6375 31.3782L48.825 31.5657L48.6375 31.3782Z" fill="#27C2AA"/>
<path d="M48.8344 31.3782L49.0219 31.5657L48.8344 31.3782Z" fill="#ADB333"/>
<path d="M49.3969 31.3782L49.5844 31.5657L49.3969 31.3782Z" fill="#666677"/>
<path d="M41.5969 31.5657L41.7844 31.7532L41.5969 31.5657Z" fill="#32327B"/>
<path d="M42.3563 31.5657L42.5438 31.7532L42.3563 31.5657Z" fill="#42BB92"/>
<path d="M48.45 31.5656L47.6812 32.5219L48.4594 31.5563L48.45 31.5656Z" fill="#0DC9C1"/>
<path d="M48.6375 31.5657L48.825 31.7532L48.6375 31.5657Z" fill="#ADB333"/>
<path d="M49.2094 31.5657L49.3969 31.7532L49.2094 31.5657Z" fill="#737370"/>
<path d="M41.7844 31.7625L41.9719 31.95L41.7844 31.7625Z" fill="#49497D"/>
<path d="M42.5531 31.7625L42.7406 31.95L42.5531 31.7625Z" fill="#42BB92"/>
<path d="M48.45 31.7625L48.6375 31.95L48.45 31.7625Z" fill="#96B247"/>
<path d="M49.0219 31.7625L48.8344 32.1375L49.0219 31.7625Z" fill="#8D8D5B"/>
<path d="M49.2094 31.7625L49.3969 31.95L49.2094 31.7625Z" fill="#0E0E6E"/>
<path d="M41.9719 31.95L42.1594 32.1375L41.9719 31.95Z" fill="#53527C"/>
<path d="M42.7406 31.95L42.9281 32.1375L42.7406 31.95Z" fill="#42BB92"/>
<path d="M48.2531 31.95L48.4406 32.1375L48.2531 31.95Z" fill="#96B247"/>
<path d="M49.0219 31.95L49.2094 32.1375L49.0219 31.95Z" fill="#0E0E6E"/>
<path d="M42.1688 32.1375L42.3563 32.325L42.1688 32.1375Z" fill="#6E6C70"/>
<path d="M42.9281 32.1375L43.1156 32.325L42.9281 32.1375Z" fill="#42BB92"/>
<path d="M48.0656 32.1375L48.2531 32.325L48.0656 32.1375Z" fill="#96B247"/>
<path d="M48.6375 32.1375L48.2625 32.7L48.6375 32.1375Z" fill="#A4A43D"/>
<path d="M48.8344 32.1375L49.0219 32.325L48.8344 32.1375Z" fill="#262678"/>
<path d="M42.3563 32.3344L42.5438 32.5219L42.3563 32.3344Z" fill="#6E6C70"/>
<path d="M43.1156 32.3344L43.3031 32.5219L43.1156 32.3344Z" fill="#42BB92"/>
<path d="M47.8781 32.3344L48.0656 32.5219L47.8781 32.3344Z" fill="#96B247"/>
<path d="M48.6375 32.3344L48.825 32.5219L48.6375 32.3344Z" fill="#262678"/>
<path d="M42.5531 32.5219L42.7406 32.7094L42.5531 32.5219Z" fill="#6E6C70"/>
<path d="M43.3031 32.5219L43.4906 32.7094L43.3031 32.5219Z" fill="#68B070"/>
<path d="M47.4937 32.5219L47.6812 32.7094L47.4937 32.5219Z" fill="#27C2AA"/>
<path d="M47.6812 32.5219L47.8687 32.7094L47.6812 32.5219Z" fill="#ADB333"/>
<path d="M48.45 32.5219L48.6375 32.7094L48.45 32.5219Z" fill="#262678"/>
<path d="M42.7406 32.7094L42.9281 32.8969L42.7406 32.7094Z" fill="#666677"/>
<path d="M43.4906 32.7094L43.6781 32.8969L43.4906 32.7094Z" fill="#74B166"/>
<path d="M47.3062 32.7094L47.4937 32.8969L47.3062 32.7094Z" fill="#34BE9E"/>
<path d="M47.4937 32.7094L47.6812 32.8969L47.4937 32.7094Z" fill="#ADB333"/>
<path d="M48.0656 32.7094L47.8781 33.0844L48.0656 32.7094Z" fill="#8D8D5B"/>
<path d="M48.2531 32.7094L48.4406 32.8969L48.2531 32.7094Z" fill="#262678"/>
<path d="M42.9281 32.8969L43.1156 33.0844L42.9281 32.8969Z" fill="#49497D"/>
<path d="M43.6875 32.8969L43.875 33.0844L43.6875 32.8969Z" fill="#96B247"/>
<path d="M43.875 32.8969L44.0625 33.0844L43.875 32.8969Z" fill="#0DC9C1"/>
<path d="M47.1094 32.8969L47.2969 33.0844L47.1094 32.8969Z" fill="#42BB92"/>
<path d="M48.0656 32.8969L48.2531 33.0844L48.0656 32.8969Z" fill="#0E0E6E"/>
<path d="M43.1156 33.0938L43.3031 33.2812L43.1156 33.0938Z" fill="#49497D"/>
<path d="M43.875 33.0938L44.0625 33.2812L43.875 33.0938Z" fill="#A2B23D"/>
<path d="M44.0625 33.0938L44.25 33.2812L44.0625 33.0938Z" fill="#27C2AA"/>
<path d="M46.9219 33.0938L47.1094 33.2812L46.9219 33.0938Z" fill="#74B166"/>
<path d="M47.4937 33.0938L46.9312 33.8438L47.4937 33.0938Z" fill="#A4A43D"/>
<path d="M47.6812 33.0938L47.8687 33.2812L47.6812 33.0938Z" fill="#808067"/>
<path d="M47.8781 33.0938L48.0656 33.2812L47.8781 33.0938Z" fill="#0E0E6E"/>
<path d="M43.3031 33.2812L43.4906 33.4688L43.3031 33.2812Z" fill="#262678"/>
<path d="M44.0625 33.2812L44.25 33.4688L44.0625 33.2812Z" fill="#ADB333"/>
<path d="M44.25 33.2812L44.4375 33.4688L44.25 33.2812Z" fill="#42BB92"/>
<path d="M46.5469 33.2812L46.7344 33.4688L46.5469 33.2812Z" fill="#0DC9C1"/>
<path d="M46.7344 33.2812L46.9219 33.4688L46.7344 33.2812Z" fill="#96B247"/>
<path d="M47.4937 33.2812L47.6812 33.4688L47.4937 33.2812Z" fill="#6E6C70"/>
<path d="M43.4906 33.4688L43.6781 33.6562L43.4906 33.4688Z" fill="#1B1B74"/>
<path d="M43.6875 33.4688L43.875 33.6562L43.6875 33.4688Z" fill="#8D8D5B"/>
<path d="M44.4375 33.4688L44.625 33.6562L44.4375 33.4688Z" fill="#74B166"/>
<path d="M44.6437 33.4688L44.8312 33.6562L44.6437 33.4688Z" fill="#0DC9C1"/>
<path d="M46.35 33.4688L46.5375 33.6562L46.35 33.4688Z" fill="#34BE9E"/>
<path d="M46.5469 33.4688L46.7344 33.6562L46.5469 33.4688Z" fill="#ADB333"/>
<path d="M47.3062 33.4688L47.4937 33.6562L47.3062 33.4688Z" fill="#49497D"/>
<path d="M43.6875 33.6562L43.875 33.8438L43.6875 33.6562Z" fill="#0E0E6E"/>
<path d="M43.875 33.6562L44.0625 33.8438L43.875 33.6562Z" fill="#6E6C70"/>
<path d="M44.0625 33.6562L44.4375 34.0312L44.0625 33.6562Z" fill="#A4A43D"/>
<path d="M44.6437 33.6562L44.8312 33.8438L44.6437 33.6562Z" fill="#96B247"/>
<path d="M44.8312 33.6562L45.0187 33.8438L44.8312 33.6562Z" fill="#27C2AA"/>
<path d="M46.1625 33.6562L46.35 33.8438L46.1625 33.6562Z" fill="#68B070"/>
<path d="M47.1094 33.6562L47.2969 33.8438L47.1094 33.6562Z" fill="#32327B"/>
<path d="M44.0625 33.8438L44.25 34.0312L44.0625 33.8438Z" fill="#49497D"/>
<path d="M45.0187 33.8438L45.2062 34.0312L45.0187 33.8438Z" fill="#5BB47C"/>
<path d="M45.7781 33.8438L45.9656 34.0312L45.7781 33.8438Z" fill="#27C2AA"/>
<path d="M45.975 33.8438L46.1625 34.0312L45.975 33.8438Z" fill="#96B247"/>
<path d="M46.5469 33.8438L46.3594 34.2188L46.5469 33.8438Z" fill="#A4A43D"/>
<path d="M46.7344 33.8438L46.9219 34.0312L46.7344 33.8438Z" fill="#808067"/>
<path d="M46.9219 33.8438L47.1094 34.0312L46.9219 33.8438Z" fill="#0E0E6E"/>
<path d="M44.25 34.0312L44.4375 34.2188L44.25 34.0312Z" fill="#262678"/>
<path d="M44.4375 34.0312L44.625 34.2188L44.4375 34.0312Z" fill="#8D8D5B"/>
<path d="M45.2156 34.0312L45.4031 34.2188L45.2156 34.0312Z" fill="#8BB252"/>
<path d="M45.4031 34.0312L45.5906 34.2188L45.4031 34.0312Z" fill="#1AC5B5"/>
<path d="M45.5906 34.0312L45.7781 34.2188L45.5906 34.0312Z" fill="#5BB47C"/>
<path d="M46.5469 34.0312L46.7344 34.2188L46.5469 34.0312Z" fill="#58587B"/>
<path d="M44.4375 34.2375L44.625 34.425L44.4375 34.2375Z" fill="#0E0E6E"/>
<path d="M44.6437 34.2375L44.8312 34.425L44.6437 34.2375Z" fill="#666677"/>
<path d="M44.8312 34.2375L45.0187 34.425L44.8312 34.2375Z" fill="#A4A43D"/>
<path d="M46.1625 34.2375L46.35 34.425L46.1625 34.2375Z" fill="#99994E"/>
<path d="M46.35 34.2375L46.5375 34.425L46.35 34.2375ZM44.8312 34.425L45.0187 34.6125L44.8312 34.425Z" fill="#32327B"/>
<path d="M45.0187 34.425L45.2062 34.6125L45.0187 34.425Z" fill="#99994E"/>
<path d="M45.7781 34.425L45.9656 34.6125L45.7781 34.425Z" fill="#A4A43D"/>
<path d="M45.975 34.425L46.1625 34.6125L45.975 34.425Z" fill="#666677"/>
<path d="M46.1625 34.425L46.35 34.6125L46.1625 34.425ZM45.0187 34.6125L45.2062 34.8L45.0187 34.6125Z" fill="#0E0E6E"/>
<path d="M45.2156 34.6125L45.4031 34.8L45.2156 34.6125Z" fill="#666677"/>
<path d="M45.4031 34.6125L45.5906 34.8L45.4031 34.6125Z" fill="#A4A43D"/>
<path d="M45.5906 34.6125L45.7781 34.8L45.5906 34.6125Z" fill="#99994E"/>
<path d="M45.7781 34.6125L45.9656 34.8L45.7781 34.6125Z" fill="#32327B"/>
<path d="M45.4031 34.8L45.5906 34.9875L45.4031 34.8Z" fill="#262678"/>
<path d="M45.5906 34.8L45.7781 34.9875L45.5906 34.8Z" fill="#0E0E6E"/>
<path d="M45.7781 22.05C46.0781 22.7437 47.0156 23.5031 47.2781 23.8781C46.95 24.2531 46.8844 24.2156 46.9219 24.9093C47.4844 24.3093 47.5031 24.2531 47.8781 24.3375C48.6844 25.1437 48.0188 26.8687 47.3531 27.2437C46.6875 27.6468 46.8094 27.2343 45.8063 27.7312C46.2656 28.125 46.8 27.675 47.2313 27.7968C47.4656 28.0781 47.1188 28.5843 47.2969 29.0718C47.6719 29.0343 47.6344 28.2562 47.7281 27.975C48.0094 26.9437 49.6969 26.2312 49.7813 25.2843C50.1375 25.125 50.4844 25.2375 50.9063 25.4718C50.7 24.5906 49.9969 24.6 49.8 24.3281C49.35 23.6343 48.9469 22.8468 47.9813 22.6406C47.2313 22.4812 47.2969 22.6875 46.8281 22.3593C46.5281 22.1343 45.6375 21.7031 45.7781 22.05V22.05Z" fill="#FF9900"/>
<path fill-rule="evenodd" clip-rule="evenodd" d="M47.8969 22.8375C47.8969 22.8785 47.8806 22.9179 47.8516 22.9469C47.8226 22.9759 47.7832 22.9922 47.7422 22.9922C47.7012 22.9922 47.6618 22.9759 47.6328 22.9469C47.6038 22.9179 47.5875 22.8785 47.5875 22.8375C47.5875 22.7965 47.6038 22.7571 47.6328 22.7281C47.6618 22.6991 47.7012 22.6828 47.7422 22.6828C47.7832 22.6828 47.8226 22.6991 47.8516 22.7281C47.8806 22.7571 47.8969 22.7965 47.8969 22.8375V22.8375Z" fill="white"/>
<path d="M43.425 24.9844C43.8938 24.4031 44.1375 23.2031 44.3438 22.8094C44.8313 22.9219 44.8125 22.9969 45.4219 22.6406C44.625 22.4156 44.5594 22.4344 44.4656 22.0687C44.8031 20.9719 46.6406 20.7562 47.2781 21.1687C47.9531 21.5719 47.5313 21.6562 48.4406 22.2937C48.5719 21.7125 47.925 21.45 47.8313 21.0187C47.9719 20.6719 48.5813 20.7375 48.9188 20.3625C48.7125 20.0344 48.0469 20.4375 47.7563 20.4937C46.725 20.7281 45.2906 19.575 44.4188 19.9312C44.1094 19.6969 44.0438 19.3312 44.0438 18.8344C43.3781 19.4437 43.7156 20.0531 43.5563 20.3625C43.1625 21.0844 42.6469 21.8156 42.9188 22.7625C43.125 23.4937 43.275 23.3437 43.2188 23.9156C43.1531 24.2812 43.1813 25.275 43.425 24.9844V24.9844Z" fill="#FF9900"/>
<path fill-rule="evenodd" clip-rule="evenodd" d="M43.125 22.7438C43.2094 22.7063 43.3031 22.7344 43.3406 22.8094C43.3536 22.8358 43.3585 22.8654 43.3548 22.8946C43.3511 22.9237 43.3388 22.9512 43.3197 22.9735C43.3005 22.9957 43.2752 23.0119 43.2469 23.0199C43.2186 23.0279 43.1885 23.0274 43.1605 23.0185C43.1325 23.0096 43.1077 22.9926 43.0893 22.9697C43.0708 22.9469 43.0595 22.919 43.0567 22.8898C43.0539 22.8605 43.0598 22.8311 43.0736 22.8051C43.0874 22.7791 43.1085 22.7578 43.1344 22.7438H43.125Z" fill="white"/>
<path d="M47.2781 25.3875C46.5281 25.2937 45.3938 25.6969 44.9344 25.7344C44.7938 25.2562 44.8594 25.2187 44.2406 24.8906C44.4563 25.6969 44.5031 25.7344 44.2406 26.0156C43.1344 26.2875 41.9906 24.825 42.0094 24.0656C42.0094 23.2875 42.3094 23.5969 42.3844 22.4719C41.8219 22.6594 41.9344 23.3625 41.6063 23.6719C41.2313 23.7281 40.9875 23.175 40.4813 23.0812C40.3125 23.4281 40.9969 23.7844 41.1938 24.0094C41.9344 24.7781 41.6813 26.5875 42.4406 27.15C42.4031 27.5437 42.1219 27.7875 41.6906 28.0312C42.5625 28.3031 42.9094 27.6844 43.2563 27.6562C44.0813 27.6375 44.9719 27.6937 45.6469 26.9719C46.1531 26.4094 45.9563 26.3625 46.4719 26.1281C46.8188 25.9969 47.6531 25.4531 47.2781 25.3781V25.3875Z" fill="#FF9900"/>
<path fill-rule="evenodd" clip-rule="evenodd" d="M45.5156 26.8031C45.4984 26.7926 45.4834 26.7789 45.4715 26.7626C45.4595 26.7464 45.451 26.7279 45.4462 26.7083C45.4414 26.6887 45.4405 26.6684 45.4436 26.6485C45.4466 26.6285 45.4536 26.6094 45.4641 26.5922C45.4745 26.5749 45.4883 26.5599 45.5046 26.548C45.5208 26.5361 45.5393 26.5275 45.5589 26.5227C45.5784 26.5179 45.5988 26.517 45.6187 26.5201C45.6386 26.5232 45.6578 26.5301 45.675 26.5406C45.7098 26.5617 45.7348 26.5958 45.7445 26.6354C45.7541 26.675 45.7477 26.7167 45.7266 26.7515C45.7054 26.7864 45.6713 26.8113 45.6318 26.821C45.5922 26.8307 45.5504 26.8242 45.5156 26.8031V26.8031Z" fill="white"/>
<path d="M0 0H30V22.5H0V0Z" fill="#012169"/>
<path d="M3.51562 0L14.9531 8.48438L26.3438 0H30V2.90625L18.75 11.2969L30 19.6406V22.5H26.25L15 14.1094L3.79688 22.5H0V19.6875L11.2031 11.3438L0 3V0H3.51562Z" fill="white"/>
<path d="M19.875 13.1719L30 20.625V22.5L17.2969 13.1719H19.875ZM11.25 14.1094L11.5312 15.75L2.53125 22.5H0L11.25 14.1094ZM30 0V0.140625L18.3281 8.95312L18.4219 6.89062L27.6562 0H30ZM0 0L11.2031 8.25H8.39062L0 1.96875V0Z" fill="#C8102E"/>
<path d="M11.2969 0V22.5H18.7969V0H11.2969ZM0 7.5V15H30V7.5H0Z" fill="white"/>
<path d="M0 9.04688V13.5469H30V9.04688H0ZM12.7969 0V22.5H17.2969V0H12.7969Z" fill="#C8102E"/>
</g>
<defs>
<clipPath id="clip0_4_18328">
<rect width="60" height="45" fill="white"/>
</clipPath>
</defs>
</svg>
