<svg width="60" height="45" viewBox="0 0 60 45" fill="none" xmlns="http://www.w3.org/2000/svg">
<g clip-path="url(#clip0_4_18010)">
<path d="M0.00939941 0H60.0094V45H0.00939941V0Z" fill="#3F9C35"/>
<path d="M0.00939941 0H60.0094V30H0.00939941V0Z" fill="#ED2939"/>
<path d="M0.00939941 0H60.0094V15H0.00939941V0Z" fill="#00B9E4"/>
<path d="M28.5 29.25C32.2279 29.25 35.25 26.2279 35.25 22.5C35.25 18.7721 32.2279 15.75 28.5 15.75C24.7721 15.75 21.75 18.7721 21.75 22.5C21.75 26.2279 24.7721 29.25 28.5 29.25Z" fill="white"/>
<path d="M30 28.125C33.1066 28.125 35.625 25.6066 35.625 22.5C35.625 19.3934 33.1066 16.875 30 16.875C26.8934 16.875 24.375 19.3934 24.375 22.5C24.375 25.6066 26.8934 28.125 30 28.125Z" fill="#ED2939"/>
<path d="M36 18.75L36.7219 20.7656L38.6531 19.8469L37.7344 21.7875L39.75 22.5L37.7344 23.2219L38.6531 25.1531L36.7219 24.2344L36 26.25L35.2781 24.2344L33.3469 25.1531L34.2656 23.2219L32.25 22.5L34.2656 21.7781L33.3469 19.8469L35.2781 20.7656L36 18.75Z" fill="white"/>
</g>
<defs>
<clipPath id="clip0_4_18010">
<rect width="60" height="45" fill="white"/>
</clipPath>
</defs>
</svg>
