<svg width="60" height="45" viewBox="0 0 60 45" fill="none" xmlns="http://www.w3.org/2000/svg">
<g clip-path="url(#clip0_4_18001)">
<path d="M0 0H60V45H0V0Z" fill="#00267F"/>
<path d="M19.9969 0H40.0031V45H19.9969V0Z" fill="#FFC726"/>
<path d="M29.9812 12.7031C29.325 14.4844 28.6687 16.3219 27.2437 17.7375C27.6843 17.5875 28.4625 17.4562 28.95 17.475V24.9281L26.85 25.2375C26.775 25.2375 26.7562 25.1156 26.7562 24.9563C26.55 22.6406 26.0062 20.6906 25.3687 18.675C25.3218 18.4031 24.525 17.3625 25.1437 17.55C25.2187 17.55 26.0343 17.8875 25.9125 17.7281C24.7346 16.5401 23.2127 15.7529 21.5625 15.4781C21.4218 15.45 21.3375 15.525 21.4687 15.6844C23.5687 18.9281 25.3406 22.7625 25.3218 27.3094C26.1468 27.3094 28.1343 26.8219 28.95 26.8219V32.0813H30L30.2343 17.3906L29.9812 12.7031Z" fill="black"/>
</g>
<defs>
<clipPath id="clip0_4_18001">
<rect width="60" height="45" fill="white"/>
</clipPath>
</defs>
</svg>
