<svg width="60" height="45" viewBox="0 0 60 45" fill="none" xmlns="http://www.w3.org/2000/svg">
<g clip-path="url(#clip0_4_17940)">
<path fill-rule="evenodd" clip-rule="evenodd" d="M-7.68518 0L30.0023 22.5L-7.68518 45V0ZM67.6898 0L30.0023 22.5L67.6898 45V0Z" fill="#18B637"/>
<path fill-rule="evenodd" clip-rule="evenodd" d="M-7.68518 0L30.0023 22.5L67.6898 0H-7.68518ZM-7.68518 45L30.0023 22.5L67.6898 45H-7.68518Z" fill="#CF0921"/>
<path fill-rule="evenodd" clip-rule="evenodd" d="M67.6898 0H60.6674L-7.68518 40.8076V45H-0.66272L67.6898 4.19238V0Z" fill="white"/>
<path fill-rule="evenodd" clip-rule="evenodd" d="M43.0189 22.5C43.0189 25.9511 41.648 29.2608 39.2077 31.701C36.7675 34.1413 33.4578 35.5122 30.0067 35.5122C26.5557 35.5122 23.246 34.1413 20.8057 31.701C18.3654 29.2608 16.9945 25.9511 16.9945 22.5C16.9945 19.0501 18.365 15.7415 20.8044 13.3021C23.2438 10.8626 26.5524 9.49219 30.0023 9.49219C33.4522 9.49219 36.7608 10.8626 39.2002 13.3021C41.6397 15.7415 43.0101 19.0501 43.0101 22.5H43.0189Z" fill="white"/>
<path fill-rule="evenodd" clip-rule="evenodd" d="M-7.68518 0V4.19238L60.6674 45H67.6898V40.8076L-0.66272 0H-7.68518Z" fill="white"/>
<path fill-rule="evenodd" clip-rule="evenodd" d="M32.5687 17.5957L30.8724 17.6221L29.9935 19.0635L29.1234 17.6221L27.4359 17.5869L28.2533 16.1016L27.4447 14.625L29.1322 14.5898L30.0111 13.1484L30.8812 14.5986L32.5687 14.6338L31.7513 16.1104L32.5687 17.5957ZM26.891 27.4043L25.2035 27.4307L24.3246 28.8721L23.4545 27.4307L21.767 27.3955L22.5843 25.9102L21.7758 24.4336L23.4633 24.3984L24.3422 22.957L25.2123 24.4072L26.8998 24.4424L26.0824 25.9189L26.891 27.4043ZM38.3695 27.4043L36.682 27.4307L35.8031 28.8721L34.9242 27.4307L33.2455 27.3955L34.0629 25.9102L33.2455 24.4336L34.933 24.3984L35.8119 22.957L36.6908 24.4072L38.3783 24.4424L37.5521 25.9189L38.3695 27.4043Z" fill="#CF0921"/>
<path fill-rule="evenodd" clip-rule="evenodd" d="M30.0123 12.8173L30.9795 14.4292L32.8562 14.4683L31.9472 16.1106L32.8563 17.7626L30.9696 17.7919L29.9928 19.3939L29.0255 17.7914L27.1493 17.7523L28.0578 16.1013L27.1587 14.4595L29.0348 14.4204L30.0123 12.8173ZM30.01 13.4796L29.2297 14.7592L27.7308 14.7904L28.4489 16.1017L27.7226 17.4214L29.2214 17.4527L29.9943 18.733L30.7753 17.4521L32.2813 17.4287L31.5556 16.1101L32.2813 14.7992L30.783 14.768L30.01 13.4796ZM24.3434 22.6259L25.3106 24.2378L27.1873 24.2769L26.278 25.9196L27.1771 27.5712L25.3007 27.6005L24.3239 29.2025L23.3566 27.6L21.4803 27.5609L22.3889 25.9099L21.4898 24.2681L23.3659 24.229L24.3434 22.6259ZM35.8124 22.6271L36.7886 24.2378L38.6673 24.2769L37.7482 25.9196L38.657 27.5712L36.7792 27.6005L35.8031 29.2012L34.8268 27.6L32.9589 27.5609L33.8672 25.9104L32.9581 24.2681L34.8356 24.229L35.8124 22.6271ZM24.341 23.2881L23.5608 24.5678L22.0618 24.599L22.7799 25.9103L22.0537 27.23L23.5525 27.2612L24.3254 28.5416L25.1064 27.2607L26.605 27.2373L25.8869 25.9182L26.6124 24.6078L25.1141 24.5766L24.341 23.2881ZM35.8115 23.2869L35.0305 24.5678L33.533 24.599L34.2587 25.9099L33.5322 27.2301L35.0217 27.2612L35.8031 28.5428L36.5849 27.2607L38.0821 27.2373L37.3562 25.9182L38.0894 24.6078L36.5931 24.5766L35.8115 23.2869Z" fill="#18B637"/>
</g>
<defs>
<clipPath id="clip0_4_17940">
<rect width="60" height="45" fill="white"/>
</clipPath>
</defs>
</svg>
