<svg width="60" height="45" viewBox="0 0 60 45" fill="none" xmlns="http://www.w3.org/2000/svg">
<g clip-path="url(#clip0_4_5125)">
<path d="M0 0H60V45H0V0Z" fill="#032EA1"/>
<path d="M0 11.25H60V33.75H0V11.25Z" fill="#E00025"/>
<path d="M23.6625 21.2063H36.465V26.1338H23.6625V21.2063Z" fill="white"/>
<path fill-rule="evenodd" clip-rule="evenodd" d="M23.6063 21.2063L23.6625 21.15H36.465L36.5213 21.2063V26.1338L36.465 26.19H23.6625L23.6063 26.1338V21.2063ZM23.7188 21.2625V26.0775H36.4088V21.2625H23.7188Z" fill="black"/>
<path d="M35.8125 23.9175H36.2063V25.7737H35.8125V23.9175ZM23.6625 23.0063H36.465V23.5688H23.6625V23.0063ZM23.6625 22.2188H36.465V22.7362H23.6625V22.2188Z" fill="white"/>
<path fill-rule="evenodd" clip-rule="evenodd" d="M23.6063 22.2187L23.6625 22.1625H36.465L36.5213 22.2187V22.7362L36.465 22.7925H23.6625L23.6063 22.7362V22.2187ZM23.7188 22.275V22.68H36.4088V22.275H23.7188ZM23.6063 23.0062L23.6625 22.95H36.465L36.5213 23.0062V23.5687L36.465 23.625H23.6625L23.6063 23.5687V23.0062ZM23.7188 23.0625V23.5125H36.4088V23.0625H23.7188ZM35.7563 23.9175L35.8125 23.8612H36.2063L36.2625 23.9175V25.7737L36.2063 25.83H35.8125L35.7563 25.7737V23.9175ZM35.8688 23.9737V25.7175H36.15V23.9737H35.8688Z" fill="black"/>
<path d="M23.6625 21.4537H36.465V21.9375H23.6625V21.4537Z" fill="white"/>
<path fill-rule="evenodd" clip-rule="evenodd" d="M23.6119 21.4538L23.6625 21.4032H36.465L36.5157 21.4538V21.9376L36.465 21.9882H23.6625L23.6119 21.9376V21.4538ZM23.7132 21.5044V21.8869H36.4144V21.5044H23.7132Z" fill="black"/>
<path d="M27.0375 23.9175H27.4425V25.7737H27.0375V23.9175ZM32.55 23.9175H32.955V25.7737H32.55V23.9175ZM23.775 23.9175H24.1688V25.7737H23.775V23.9175ZM24.5625 23.9175H24.9563V25.7737H24.5625V23.9175ZM25.4063 23.9175H25.8V25.7737H25.4063V23.9175ZM26.25 23.9175H26.6438V25.7737H26.25V23.9175ZM33.315 23.9175H33.72V25.7737H33.315V23.9175ZM34.1588 23.9175H34.5638V25.7737H34.1588V23.9175ZM35.0025 23.9175H35.4075V25.7737H35.0025V23.9175Z" fill="white"/>
<path fill-rule="evenodd" clip-rule="evenodd" d="M23.7188 23.9176L23.775 23.8613H24.1688L24.225 23.9176V25.7738L24.1688 25.8301H23.775L23.7188 25.7738V23.9176ZM23.8313 23.9738V25.7176H24.1125V23.9738H23.8313ZM24.5063 23.9176L24.5625 23.8613H24.9563L25.0125 23.9176V25.7738L24.9563 25.8301H24.5625L24.5063 25.7738V23.9176ZM24.6188 23.9738V25.7176H24.9V23.9738H24.6188ZM25.35 23.9176L25.4063 23.8613H25.8L25.8563 23.9176V25.7738L25.8 25.8301H25.4063L25.35 25.7738V23.9176ZM25.4625 23.9738V25.7176H25.7438V23.9738H25.4625ZM26.1938 23.9176L26.25 23.8613H26.6438L26.7 23.9176V25.7738L26.6438 25.8301H26.25L26.1938 25.7738V23.9176ZM26.3063 23.9738V25.7176H26.5875V23.9738H26.3063ZM26.9813 23.9176L27.0375 23.8613H27.4425L27.4988 23.9176V25.7738L27.4425 25.8301H27.0375L26.9813 25.7738V23.9176ZM27.0938 23.9738V25.7176H27.3863V23.9738H27.0938ZM32.4938 23.9176L32.55 23.8613H32.955L33.0113 23.9176V25.7738L32.955 25.8301H32.55L32.4938 25.7738V23.9176ZM32.6063 23.9738V25.7176H32.8988V23.9738H32.6063ZM33.2588 23.9176L33.315 23.8613H33.72L33.7763 23.9176V25.7738L33.72 25.8301H33.315L33.2588 25.7738V23.9176ZM33.3713 23.9738V25.7176H33.6638V23.9738H33.3713ZM34.1025 23.9176L34.1588 23.8613H34.5638L34.62 23.9176V25.7738L34.5638 25.8301H34.1588L34.1025 25.7738V23.9176ZM34.215 23.9738V25.7176H34.5075V23.9738H34.215ZM34.9463 23.9176L35.0025 23.8613H35.4075L35.4638 23.9176V25.7738L35.4075 25.8301H35.0025L34.9463 25.7738V23.9176ZM35.0588 23.9738V25.7176H35.3513V23.9738H35.0588Z" fill="black"/>
<path d="M18.6563 26.3813C18.8915 26.2532 19.0687 26.0398 19.1513 25.785H40.8751C40.9577 26.0398 41.1348 26.2532 41.3701 26.3813H18.6563Z" fill="white"/>
<path fill-rule="evenodd" clip-rule="evenodd" d="M19.1104 25.7288H40.9159L40.9285 25.7677C41.0067 26.0087 41.1743 26.2107 41.3969 26.3319L41.37 26.4375H18.6563L18.6294 26.3319C18.852 26.2107 19.0196 26.0087 19.0978 25.7677L19.1104 25.7288ZM19.1914 25.8413C19.1214 26.0324 19.0003 26.1995 18.8426 26.325H41.1838C41.026 26.1995 40.9049 26.0324 40.835 25.8413H19.1914Z" fill="black"/>
<path d="M29.7375 13.7025C29.7375 13.7025 29.7263 13.2412 29.9963 13.23C30.255 13.23 30.2438 13.7025 30.2438 13.7025H29.7375ZM28.3313 19.8337V19.215C28.3313 18.9 28.0163 18.8775 28.0163 18.6525C28.0163 18.6525 27.9713 18.315 28.0613 18.1575C28.185 18.6075 28.3988 18.5287 28.3988 18.3375C28.3988 18.18 28.2863 18.0225 28.0275 17.6287C27.9375 17.505 27.9938 17.1112 28.1063 16.965C28.1513 17.3025 28.2075 17.4712 28.3538 17.4712C28.4438 17.4712 28.5113 17.415 28.5113 17.2462C28.5113 17.0212 28.365 16.9087 28.2863 16.7062C28.2475 16.6055 28.2385 16.4956 28.2605 16.3899C28.2824 16.2842 28.3343 16.187 28.41 16.11C28.4663 16.4475 28.455 16.5825 28.6013 16.5825C28.905 16.4812 28.6013 16.0425 28.5338 15.93C28.4663 15.8062 28.6463 15.5475 28.6463 15.5475C28.7363 15.8512 28.7588 15.8737 28.8713 15.84C29.0063 15.8062 28.9838 15.615 28.8263 15.4575C28.725 15.345 28.7363 15.1987 28.8488 15.0862C28.9613 15.3 29.0963 15.2887 29.1075 15.1537L29.0175 14.6587H30.975L30.8738 15.1425C30.8513 15.2775 31.0313 15.3112 31.1438 15.0862C31.2563 15.1987 31.2675 15.3562 31.1663 15.4575C31.0088 15.615 30.9863 15.8062 31.1213 15.84C31.2338 15.8737 31.2563 15.84 31.3463 15.5475C31.3463 15.5475 31.515 15.7162 31.4588 15.93C31.3913 16.0425 31.0875 16.4925 31.3913 16.5825C31.5375 16.5825 31.5263 16.4475 31.5825 16.11C31.6563 16.1882 31.7061 16.286 31.7261 16.3916C31.746 16.4973 31.7352 16.6065 31.695 16.7062C31.6275 16.9087 31.47 17.0212 31.47 17.2462C31.47 17.415 31.5488 17.4712 31.6388 17.4712C31.785 17.4712 31.8413 17.3137 31.8863 16.965C31.9988 17.1112 32.055 17.505 31.965 17.64C31.7063 18.0225 31.5825 18.18 31.5825 18.3375C31.5825 18.5287 31.8075 18.6075 31.92 18.1575C32.0213 18.315 31.9763 18.6525 31.9763 18.6525C31.9763 18.8775 31.6725 18.9 31.6613 19.215V19.8337H28.3313ZM29.1413 14.6587L29.0963 14.31H30.885L30.84 14.6587H29.1413ZM29.2538 14.2987L29.2313 14.0175H30.75L30.7163 14.2987H29.2538ZM29.5125 14.0062L29.4788 13.7137H30.4913L30.48 14.0062H29.5125ZM33.225 26.3812C33 26.3025 32.6625 26.055 32.6625 25.8187V23.085L32.955 22.7025H27.0375L27.3188 23.085V25.8187C27.3188 26.055 27.0938 26.3025 26.8688 26.3812H33.225Z" fill="white"/>
<path d="M28.0725 23.9175H28.4775V25.7737H28.0725V23.9175ZM31.4925 23.9175H31.8975V25.7737H31.4925V23.9175Z" fill="white"/>
<path fill-rule="evenodd" clip-rule="evenodd" d="M28.0163 23.9175L28.0725 23.8612H28.4775L28.5338 23.9175V25.7737L28.4775 25.83H28.0725L28.0163 25.7737V23.9175ZM28.1288 23.9737V25.7175H28.4213V23.9737H28.1288ZM31.4363 23.9175L31.4925 23.8612H31.8975L31.9538 23.9175V25.7737L31.8975 25.83H31.4925L31.4363 25.7737V23.9175ZM31.5488 23.9737V25.7175H31.8413V23.9737H31.5488Z" fill="black"/>
<path d="M26.925 19.5975V22.7025H33V19.5975C32.9298 19.6232 32.8667 19.6651 32.8159 19.7198C32.765 19.7746 32.7279 19.8406 32.7075 19.9125V21.24H27.2288V19.9125C27.2288 19.9125 27.1613 19.6875 26.9138 19.5975H26.925Z" fill="white"/>
<path fill-rule="evenodd" clip-rule="evenodd" d="M33.0563 19.5171V22.7588H26.8688V19.5975H26.9039L26.9138 19.5413H26.9813V19.5646C27.0909 19.6157 27.1637 19.691 27.21 19.7563C27.2363 19.7934 27.2542 19.8276 27.2656 19.8527C27.2713 19.8653 27.2754 19.8758 27.2782 19.8832C27.2796 19.887 27.2806 19.89 27.2813 19.8922L27.2822 19.8949L27.2825 19.8958L27.2826 19.8961L27.2826 19.8962C27.2826 19.8963 27.2827 19.8964 27.2288 19.9125L27.2827 19.8964L27.285 19.9043V21.1838H32.6513V19.9047L32.6534 19.8972C32.6762 19.8167 32.7178 19.7428 32.7747 19.6816C32.8316 19.6203 32.9022 19.5734 32.9807 19.5447L33.0563 19.5171ZM27.1725 19.9219C27.1706 19.9167 27.1675 19.9089 27.1631 19.8992C27.1541 19.8793 27.1397 19.8516 27.1182 19.8213C27.0878 19.7784 27.0437 19.7307 26.9813 19.6922V22.6463H32.9438V19.687C32.9119 19.7066 32.8827 19.7305 32.8571 19.7581C32.814 19.8045 32.7821 19.8601 32.7638 19.9206V21.2963H27.1725V19.9219Z" fill="black"/>
<path d="M32.1675 26.3812C31.965 26.3025 31.5375 26.055 31.5375 25.8187V22.7587C31.5825 22.59 31.8075 22.4887 31.9538 22.3762H27.9375C28.1288 22.4887 28.3425 22.5675 28.4213 22.7587V25.8187C28.4213 26.055 28.0838 26.3025 27.8813 26.3812H32.1675Z" fill="white"/>
<path fill-rule="evenodd" clip-rule="evenodd" d="M27.731 22.3199H32.1192L31.9881 22.4208C31.9496 22.4504 31.9064 22.4789 31.8643 22.5066L31.8634 22.5073C31.821 22.5352 31.7797 22.5625 31.7416 22.5913C31.6659 22.6483 31.6129 22.7042 31.5938 22.7666V25.8187C31.5938 25.8608 31.6131 25.9089 31.6525 25.9614C31.6916 26.0135 31.7471 26.0655 31.8108 26.1144C31.9384 26.2121 32.0911 26.2911 32.1879 26.3288L32.1675 26.4374H27.8813L27.8609 26.3288C27.9552 26.2921 28.0843 26.2144 28.1891 26.1177C28.2962 26.0188 28.365 25.9121 28.365 25.8187V22.7703C28.3308 22.6945 28.27 22.6374 28.1906 22.5848C28.1491 22.5574 28.1038 22.532 28.0558 22.5059C28.0462 22.5007 28.0364 22.4954 28.0265 22.49C27.9879 22.4692 27.9479 22.4476 27.909 22.4247L27.731 22.3199ZM28.1555 22.4324C28.1886 22.451 28.2213 22.4703 28.2526 22.491C28.3442 22.5515 28.4278 22.6268 28.4733 22.7373L28.4775 22.7476V25.8187C28.4775 25.9616 28.3776 26.0967 28.2654 26.2003C28.2155 26.2464 28.1607 26.2885 28.1057 26.3249H31.9254C31.864 26.2895 31.8009 26.2485 31.7424 26.2037C31.6739 26.1512 31.6099 26.0921 31.5625 26.0289C31.5154 25.9662 31.4813 25.8947 31.4813 25.8187V22.7513L31.4832 22.7442C31.5108 22.6405 31.5918 22.5633 31.6738 22.5014C31.7058 22.4773 31.7396 22.4543 31.7726 22.4324H28.1555Z" fill="black"/>
<path d="M32.7075 22.41V20.205H32.1563V19.9912H27.7913V20.2162H27.2288V22.41H32.7075ZM31.3125 26.3812C31.11 26.3025 30.8288 26.055 30.8288 25.8187V23.2087L30.9863 22.9725H28.995L29.1638 23.1975V25.8187C29.1638 26.055 28.8713 26.3025 28.68 26.3812H31.3125Z" fill="white"/>
<path fill-rule="evenodd" clip-rule="evenodd" d="M27.735 19.9349H32.2125V20.1487H32.7638V22.4662H27.1725V20.1599H27.735V19.9349ZM27.8475 20.0474V20.2724H27.285V22.3537H32.6513V20.2612H32.1V20.0474H27.8475ZM28.8825 22.9162H31.0914L30.885 23.2257V25.8187C30.885 25.9157 30.944 26.0233 31.0356 26.1204C31.1262 26.2163 31.2403 26.2928 31.3329 26.3288L31.3125 26.4374H28.68L28.6586 26.3292C28.7462 26.2931 28.8608 26.2163 28.953 26.1201C29.0465 26.0225 29.1075 25.915 29.1075 25.8187V23.2162L28.8825 22.9162ZM29.1075 23.0287L29.22 23.1787V25.8187C29.22 25.9586 29.1348 26.093 29.0342 26.1979C28.9893 26.2448 28.9394 26.2878 28.8887 26.3249H31.0989C31.0478 26.2877 30.9982 26.2446 30.9538 26.1976C30.8542 26.0922 30.7725 25.9579 30.7725 25.8187V23.1917L30.8812 23.0287H29.1075Z" fill="black"/>
<path d="M29.4788 22.9725H30.4913V26.3813H29.4788V22.9725Z" fill="white"/>
<path fill-rule="evenodd" clip-rule="evenodd" d="M29.4225 22.9163H30.5475V26.4375H29.4225V22.9163ZM29.535 23.0288V26.325H30.435V23.0288H29.535Z" fill="black"/>
<path d="M31.02 22.2188C31.02 21.9938 31.6725 21.9825 32.01 21.7913H27.96C28.2975 21.9825 28.9388 21.9938 28.9388 22.2188L29.0738 22.6575L30.7613 22.725L31.02 22.2188Z" fill="white"/>
<path fill-rule="evenodd" clip-rule="evenodd" d="M27.9323 21.8402L27.96 21.735H32.01L32.0377 21.8402C31.9476 21.8913 31.8385 21.9293 31.7286 21.9611C31.6599 21.981 31.588 21.9992 31.5192 22.0167C31.479 22.0269 31.4398 22.0368 31.403 22.0467C31.3002 22.0741 31.2139 22.1012 31.1539 22.1335C31.0922 22.1666 31.0763 22.195 31.0763 22.2187L31.0701 22.2443L30.8114 22.7506L30.759 22.7812L29.0715 22.7137L29.02 22.674L28.885 22.2353L28.8825 22.2187C28.8825 22.1945 28.8666 22.1662 28.8063 22.1333C28.7474 22.1011 28.6626 22.0741 28.5612 22.0466C28.5245 22.0367 28.4853 22.0266 28.445 22.0162C28.3775 21.9989 28.307 21.9808 28.2395 21.9611C28.1307 21.9292 28.0224 21.8912 27.9323 21.8402ZM28.2522 21.8475C28.2585 21.8494 28.2648 21.8512 28.2711 21.8531C28.3374 21.8725 28.4039 21.8895 28.4696 21.9064C28.5103 21.9169 28.5508 21.9272 28.5907 21.938C28.6918 21.9654 28.7884 21.9953 28.8602 22.0345C28.9283 22.0717 28.9905 22.1264 28.9948 22.2095L29.1158 22.6029L30.7276 22.6673L30.9644 22.204C30.9712 22.1236 31.0334 22.0704 31.1006 22.0344C31.1735 21.9952 31.2714 21.9654 31.3739 21.938C31.4138 21.9273 31.4542 21.9171 31.4949 21.9068C31.562 21.8898 31.6299 21.8726 31.6973 21.853C31.7036 21.8512 31.71 21.8494 31.7163 21.8475H28.2522Z" fill="black"/>
<path d="M31.8075 19.8338C31.8075 19.2825 31.83 19.08 31.9988 19.08V20.8125C31.5825 20.97 31.29 21.4875 31.29 21.4875H28.68C28.68 21.4875 28.3875 20.97 27.9713 20.8125V19.0688C28.1738 19.0688 28.1738 19.2938 28.1738 19.8225L31.8075 19.8338ZM31.9988 19.6088C31.9988 18.9788 32.55 18.9113 32.55 18.9113V19.4738C32.3363 19.4625 32.235 19.6538 32.235 19.9238C32.235 20.205 32.4038 20.205 32.4038 20.205V21.8025H31.9988V19.6088Z" fill="white"/>
<path fill-rule="evenodd" clip-rule="evenodd" d="M32.6063 18.8477V19.533L32.5471 19.5299C32.461 19.5254 32.401 19.56 32.3595 19.6239C32.3158 19.6913 32.2913 19.7943 32.2913 19.9237C32.2913 20.0527 32.3295 20.105 32.3554 20.1266C32.3693 20.1382 32.3828 20.1437 32.3924 20.1464C32.3973 20.1477 32.401 20.1483 32.4032 20.1486C32.4039 20.1486 32.4044 20.1487 32.4047 20.1487H32.46V21.8587H31.9425V20.8987C31.7798 20.981 31.638 21.1182 31.5314 21.2452C31.4704 21.3178 31.4221 21.3857 31.389 21.4353C31.3725 21.4601 31.3599 21.4803 31.3514 21.4942C31.3472 21.5011 31.344 21.5065 31.3419 21.5101L31.3396 21.514L31.3391 21.515L31.339 21.5151L31.3228 21.5437H28.6472L28.6311 21.5152L28.6309 21.515L28.6304 21.514L28.6281 21.5101C28.626 21.5065 28.6228 21.5011 28.6186 21.4942C28.6101 21.4803 28.5975 21.4601 28.581 21.4353C28.5479 21.3857 28.4996 21.3178 28.4386 21.2452C28.3157 21.0987 28.146 20.9387 27.9514 20.8651L27.915 20.8513V19.0125H27.9713C28.0332 19.0125 28.0872 19.0302 28.1287 19.073C28.1681 19.1136 28.19 19.1705 28.2035 19.2359C28.2284 19.3559 28.2299 19.533 28.23 19.7664L31.7513 19.7773C31.7521 19.5328 31.7586 19.3558 31.785 19.2379C31.7992 19.1742 31.8207 19.1201 31.8566 19.0818C31.8949 19.0409 31.9438 19.0237 31.9988 19.0237H32.055V19.1735C32.1083 19.0879 32.1749 19.0243 32.2423 18.9775C32.317 18.9257 32.3915 18.8953 32.4471 18.8779C32.475 18.8692 32.4984 18.8636 32.5151 18.8602C32.5234 18.8585 32.5301 18.8574 32.5349 18.8566C32.5373 18.8562 32.5392 18.8559 32.5406 18.8557L32.5423 18.8555L32.5428 18.8554L32.543 18.8554C32.5431 18.8554 32.5432 18.8554 32.55 18.9112L32.5432 18.8554L32.6063 18.8477ZM32.4938 18.9813C32.4896 18.9826 32.4852 18.9839 32.4807 18.9853C32.4329 19.0002 32.3695 19.0262 32.3065 19.0699C32.1826 19.1559 32.055 19.3135 32.055 19.6087V21.7462H32.3475V20.25C32.3282 20.243 32.3057 20.2316 32.2834 20.213C32.2249 20.1643 32.1788 20.076 32.1788 19.9237C32.1788 19.7832 32.2049 19.6555 32.2652 19.5626C32.3177 19.4817 32.3948 19.4297 32.4938 19.419V18.9813ZM31.9425 19.1549C31.9412 19.1561 31.94 19.1574 31.9387 19.1587C31.923 19.1755 31.9072 19.2066 31.8947 19.2624C31.8697 19.3747 31.8638 19.5564 31.8638 19.8337V19.8901L28.1175 19.8785V19.8225C28.1175 19.555 28.1172 19.3739 28.0934 19.2587C28.0816 19.2018 28.0655 19.1694 28.048 19.1513C28.0422 19.1454 28.0356 19.1402 28.0275 19.1361V20.7746C28.233 20.8632 28.4045 21.0296 28.5248 21.1729C28.589 21.2493 28.6398 21.3207 28.6746 21.373C28.6904 21.3967 28.7029 21.4165 28.7119 21.4312H31.2581C31.2671 21.4165 31.2796 21.3967 31.2954 21.373C31.3302 21.3207 31.381 21.2493 31.4452 21.1729C31.5655 21.0296 31.7371 20.8632 31.9425 20.7746V19.1549Z" fill="black"/>
<path d="M27.9713 19.6088C27.9713 18.9788 27.42 18.9113 27.42 18.9113V19.4738C27.6338 19.4625 27.735 19.6538 27.735 19.9238C27.735 20.205 27.5663 20.205 27.5663 20.205V21.8025H27.9713V19.6088Z" fill="white"/>
<path fill-rule="evenodd" clip-rule="evenodd" d="M27.4269 18.8554L27.42 18.9112C27.4269 18.8554 27.4268 18.8554 27.4269 18.8554L27.427 18.8554L27.4272 18.8554L27.4278 18.8555L27.4294 18.8557C27.4308 18.8559 27.4327 18.8562 27.4351 18.8566C27.4399 18.8574 27.4466 18.8585 27.455 18.8602C27.4717 18.8636 27.4951 18.8692 27.523 18.8779C27.5786 18.8953 27.653 18.9257 27.7277 18.9775C27.8795 19.0828 28.0275 19.2739 28.0275 19.6087V21.8587H27.51V20.1487H27.5653C27.5656 20.1487 27.5661 20.1486 27.5669 20.1486C27.569 20.1483 27.5728 20.1477 27.5776 20.1464C27.5872 20.1437 27.6007 20.1382 27.6146 20.1266C27.6406 20.105 27.6788 20.0527 27.6788 19.9237C27.6788 19.7943 27.6543 19.6913 27.6105 19.6239C27.569 19.56 27.5091 19.5254 27.423 19.5299L27.3638 19.533V18.8477L27.4269 18.8554ZM27.6225 20.25V21.7462H27.915V19.6087C27.915 19.3135 27.7874 19.1559 27.6636 19.0699C27.6005 19.0262 27.5371 19.0002 27.4894 18.9853C27.4848 18.9839 27.4805 18.9826 27.4763 18.9813V19.419C27.5752 19.4297 27.6523 19.4817 27.7049 19.5626C27.7652 19.6555 27.7913 19.7832 27.7913 19.9237C27.7913 20.076 27.7451 20.1643 27.6867 20.213C27.6644 20.2316 27.6418 20.243 27.6225 20.25Z" fill="black"/>
<path fill-rule="evenodd" clip-rule="evenodd" d="M30.975 15.3H29.04V15.21H30.975V15.3ZM31.1775 15.9075H28.815V15.8175H31.1775V15.9075ZM31.3913 16.6387H28.59V16.5487H31.3913V16.6387ZM31.6725 17.5275H28.3538V17.4375H31.6725V17.5275ZM31.695 18.54H28.275V18.45H31.695V18.54Z" fill="black"/>
<path fill-rule="evenodd" clip-rule="evenodd" d="M28.9163 21.8812H27.24V21.7687H32.7075V21.8812H31.0538V22.6237H28.9163V21.8812ZM29.0288 21.8812V22.5112H30.9413V21.8812H29.0288Z" fill="black"/>
<path d="M28.725 20.16C29.0625 20.565 29.0175 21.2513 29.0175 21.6563H30.975C30.975 21.2513 30.93 20.565 31.2675 20.16H28.725ZM29.8163 15.5475L29.5463 15.4013V15.0075C29.6588 15.0413 29.7713 15.0525 29.7938 15.2325C29.8275 14.9738 29.9063 14.9963 30.0075 14.895C30.12 14.9963 30.1763 14.9738 30.2213 15.2325C30.2213 15.0525 30.3563 15.0413 30.4575 15.0075V15.4013L30.1988 15.5363L29.8163 15.5475Z" fill="white"/>
<path fill-rule="evenodd" clip-rule="evenodd" d="M30.0055 14.8175L30.0451 14.8532C30.0679 14.8737 30.0879 14.8884 30.1078 14.9031C30.1104 14.905 30.113 14.907 30.1156 14.9089C30.1376 14.9252 30.1611 14.9432 30.1824 14.9681C30.2015 14.9903 30.2174 15.0164 30.2313 15.0496C30.2437 15.0372 30.2572 15.0267 30.2712 15.0177C30.3005 14.9991 30.3322 14.9872 30.3607 14.978C30.3739 14.9738 30.3872 14.97 30.3995 14.9664L30.4026 14.9655C30.416 14.9616 30.4282 14.958 30.4397 14.9542L30.5138 14.9295V15.4354L30.2133 15.5921L29.8028 15.6042L29.49 15.4348V14.9319L29.5624 14.9536C29.5717 14.9564 29.5826 14.9595 29.594 14.9627C29.6117 14.9676 29.6305 14.9729 29.6465 14.9781C29.6753 14.9874 29.7061 14.9994 29.7346 15.0181C29.7507 15.0287 29.7654 15.0409 29.7785 15.055C29.7936 15.0184 29.812 14.9902 29.8341 14.9664C29.8558 14.9431 29.8796 14.9257 29.9004 14.9105C29.9013 14.9099 29.9021 14.9093 29.903 14.9086C29.925 14.8926 29.9458 14.8772 29.9677 14.8552L30.0055 14.8175ZM30.0088 14.9694C29.9946 14.981 29.9813 14.9908 29.9693 14.9995C29.9464 15.0163 29.9305 15.0279 29.9165 15.043C29.8914 15.07 29.8657 15.1156 29.8495 15.2398L29.7379 15.2395C29.7284 15.1629 29.7018 15.1311 29.6729 15.1122C29.6565 15.1014 29.6366 15.0931 29.612 15.0851C29.6088 15.0841 29.6056 15.0831 29.6025 15.0822V15.3678L29.8297 15.4908L30.1842 15.4804L30.4013 15.3672V15.0832C30.3992 15.0839 30.3971 15.0845 30.395 15.0852C30.3698 15.0933 30.3488 15.1017 30.3316 15.1126C30.3151 15.1231 30.3026 15.1357 30.2937 15.1525C30.2846 15.1696 30.2775 15.1946 30.2775 15.2325L30.1658 15.2422C30.1438 15.1154 30.1206 15.0688 30.097 15.0413C30.0846 15.0268 30.0701 15.0153 30.0485 14.9993C30.0461 14.9975 30.0436 14.9956 30.041 14.9937C30.0313 14.9865 30.0205 14.9786 30.0088 14.9694ZM28.6049 20.1038H31.3876L31.3107 20.196C31.1524 20.386 31.0811 20.6458 31.0506 20.9145C31.0263 21.129 31.0285 21.3429 31.0303 21.525C31.0308 21.5709 31.0313 21.6149 31.0313 21.6563V21.7125H28.9613V21.6563C28.9613 21.6149 28.9617 21.5709 28.9622 21.525C28.9641 21.3429 28.9663 21.129 28.9419 20.9145C28.9115 20.6458 28.8402 20.386 28.6818 20.196L28.6049 20.1038ZM28.8362 20.2163C28.9671 20.4172 29.0266 20.6628 29.0537 20.9018C29.0789 21.124 29.0766 21.3469 29.0747 21.5293C29.0744 21.5536 29.0742 21.5772 29.074 21.6H30.9185C30.9184 21.5772 30.9181 21.5536 30.9179 21.5293C30.9159 21.3469 30.9136 21.124 30.9388 20.9018C30.9659 20.6628 31.0254 20.4172 31.1563 20.2163H28.8362Z" fill="black"/>
<path d="M29.7937 16.1888L29.3438 15.8738V15.525C29.5125 15.5588 29.6812 15.5813 29.7037 15.7725C29.7487 15.4913 29.85 15.3563 30.0075 15.2438C30.1537 15.3563 30.255 15.4913 30.3113 15.7725C30.3225 15.5813 30.5025 15.5588 30.6488 15.525V15.885L30.21 16.1888H29.7937Z" fill="white"/>
<path fill-rule="evenodd" clip-rule="evenodd" d="M30.0087 15.1737L30.0418 15.1991C30.1189 15.2584 30.186 15.3252 30.2411 15.4155C30.2734 15.4684 30.301 15.5285 30.3242 15.5985C30.3475 15.5736 30.3748 15.5547 30.4034 15.5398C30.4646 15.5078 30.5393 15.4915 30.6018 15.4778C30.6137 15.4752 30.6252 15.4727 30.6361 15.4702L30.705 15.4543V15.9144L30.2276 16.245H29.776L29.2875 15.903V15.4564L29.3548 15.4698C29.3637 15.4716 29.3728 15.4734 29.382 15.4752C29.4557 15.4896 29.5376 15.5056 29.6042 15.5396C29.6336 15.5546 29.6614 15.5737 29.6853 15.5986C29.7064 15.5287 29.733 15.4686 29.7654 15.4155C29.821 15.3244 29.8918 15.2573 29.9748 15.1979L30.0087 15.1737ZM29.8615 15.4741C29.8156 15.5492 29.781 15.6458 29.7593 15.7814L29.6479 15.779C29.6432 15.7395 29.6315 15.7118 29.6164 15.6911C29.6011 15.6702 29.5802 15.6536 29.553 15.6398C29.5109 15.6182 29.4595 15.6057 29.4 15.5935V15.8444L29.8115 16.1325H30.1924L30.5925 15.8555V15.5952C30.5413 15.6068 30.4948 15.619 30.4554 15.6395C30.4288 15.6534 30.4085 15.6699 30.3942 15.6902C30.3802 15.7102 30.3697 15.7371 30.3674 15.7758L30.2561 15.7835C30.2289 15.6475 30.1915 15.5501 30.1451 15.4741C30.1065 15.4109 30.0607 15.3607 30.0063 15.3149C29.9476 15.3609 29.8999 15.4111 29.8615 15.4741Z" fill="black"/>
<path d="M29.76 17.19L29.2537 16.74V16.2113C29.4337 16.2563 29.6362 16.2788 29.6587 16.56C29.715 16.1663 29.8275 15.9525 29.9962 15.795C30.1762 15.9525 30.2887 16.1663 30.3562 16.56C30.3787 16.2788 30.5812 16.2563 30.7612 16.2113V16.74L30.2437 17.19H29.76ZM30.705 17.7863L30.255 18.4275H29.7262L29.265 17.7863H30.705ZM28.995 18.855C29.22 18.9788 29.31 19.2375 29.3325 19.71H30.6375C30.66 19.2375 30.75 18.9788 30.975 18.855H28.995Z" fill="white"/>
<path fill-rule="evenodd" clip-rule="evenodd" d="M29.995 15.7191L30.0333 15.7526C30.1905 15.8902 30.297 16.0667 30.3683 16.3442C30.3959 16.3043 30.4306 16.2733 30.4704 16.249C30.5419 16.2052 30.6293 16.1846 30.705 16.1668C30.7197 16.1634 30.734 16.16 30.7476 16.1566L30.8175 16.1391V16.7655L30.2648 17.2462H29.7386L29.1975 16.7652V16.1391L29.2674 16.1566C29.281 16.16 29.2953 16.1634 29.31 16.1668C29.3857 16.1846 29.4731 16.2052 29.5446 16.249C29.5826 16.2721 29.6158 16.3014 29.6428 16.3386C29.7077 16.0646 29.8118 15.8901 29.9579 15.7538L29.995 15.7191ZM29.9975 15.8727C29.8607 16.016 29.765 16.2139 29.7144 16.5679L29.6027 16.5644C29.5927 16.4401 29.5452 16.3812 29.486 16.3449C29.4362 16.3145 29.3771 16.2987 29.31 16.2826V16.7147L29.7814 17.1337H30.2227L30.705 16.7143V16.2826C30.6379 16.2987 30.5788 16.3145 30.529 16.3449C30.4698 16.3812 30.4223 16.4401 30.4123 16.5644L30.3008 16.5694C30.2398 16.2135 30.1429 16.0159 29.9975 15.8727ZM29.1553 17.7299H30.8132L30.2842 18.4837H29.6974L29.1553 17.7299ZM29.3748 17.8424L29.7551 18.3712H30.2258L30.5968 17.8424H29.3748ZM28.9679 18.9042L28.995 18.7987H30.975L31.0021 18.9042C30.8061 19.012 30.7162 19.2405 30.6937 19.7126L30.6911 19.7662H29.2789L29.2763 19.7126C29.2538 19.2405 29.1639 19.012 28.9679 18.9042ZM29.159 18.9112C29.303 19.0643 29.3648 19.3068 29.3858 19.6537H30.5842C30.6053 19.3068 30.667 19.0643 30.8111 18.9112H29.159Z" fill="black"/>
<path d="M30.9975 17.7749V17.1449C30.9006 17.1656 30.8106 17.2105 30.7358 17.2754C30.6611 17.3403 30.604 17.4232 30.57 17.5162C30.57 17.2912 30.2888 16.8074 29.985 16.5599C29.6813 16.8299 29.3888 17.2799 29.4 17.5049C29.3438 17.3362 29.1975 17.2012 28.9725 17.1449V17.7862L30.9975 17.7749Z" fill="white"/>
<path fill-rule="evenodd" clip-rule="evenodd" d="M29.9476 16.5179L30.0205 16.5164C30.1788 16.6453 30.329 16.8337 30.4396 17.0175C30.4951 17.1097 30.5413 17.202 30.5738 17.2865C30.5818 17.3071 30.589 17.3276 30.5953 17.3476C30.625 17.3055 30.6598 17.267 30.699 17.233C30.7809 17.1618 30.8796 17.1126 30.9858 17.09L31.0538 17.145V17.775L30.9978 17.8312L28.9728 17.8425L28.9163 17.7862V17.145L28.9862 17.0904C29.1563 17.1329 29.2878 17.2188 29.3726 17.3326C29.3783 17.3152 29.3846 17.2976 29.3916 17.2798C29.4238 17.1977 29.4706 17.1087 29.5268 17.0194C29.639 16.8409 29.7914 16.6568 29.9476 16.5179ZM29.9864 16.6349C29.8513 16.7618 29.7204 16.9229 29.622 17.0793C29.5685 17.1644 29.5253 17.2469 29.4963 17.3209C29.467 17.3958 29.454 17.4574 29.4562 17.5022L29.3466 17.5227C29.3031 17.3922 29.1972 17.2809 29.0288 17.2206V17.7296L30.9413 17.719V17.2193C30.8796 17.2413 30.8225 17.2747 30.7727 17.3179C30.7052 17.3766 30.6536 17.4515 30.6228 17.5355L30.5138 17.5162C30.5138 17.47 30.4989 17.4051 30.4688 17.3269C30.4391 17.2497 30.396 17.1633 30.3432 17.0755C30.2462 16.9143 30.1188 16.7522 29.9864 16.6349Z" fill="black"/>
<path d="M31.0875 18.855V18.225C30.8513 18.2925 30.6938 18.4163 30.6263 18.5963C30.6263 18.3713 30.3225 17.8875 29.985 17.64C29.6475 17.9213 29.3325 18.36 29.3438 18.5963C29.2875 18.4275 29.1188 18.2925 28.8825 18.225V18.8663L31.0875 18.855Z" fill="white"/>
<path fill-rule="evenodd" clip-rule="evenodd" d="M29.949 17.5968L30.0183 17.5946C30.1937 17.7233 30.3584 17.9116 30.4792 18.0957C30.5398 18.1879 30.5901 18.2803 30.6254 18.365C30.6352 18.3884 30.6439 18.4114 30.6515 18.4341C30.7445 18.3102 30.8885 18.2233 31.0721 18.1709L31.1438 18.225V18.855L31.0878 18.9112L28.8828 18.9225L28.8263 18.8662V18.225L28.898 18.1709C29.0756 18.2216 29.2231 18.3108 29.3157 18.4289C29.3227 18.4077 29.3309 18.3863 29.3399 18.3648C29.375 18.2817 29.426 18.1925 29.4872 18.1032C29.6097 17.9245 29.7763 17.7407 29.949 17.5968ZM29.987 17.7122C29.8344 17.8448 29.6886 18.0084 29.58 18.1668C29.5217 18.2518 29.4749 18.3342 29.4436 18.4085C29.4119 18.4838 29.3977 18.5465 29.4 18.5935L29.2904 18.614C29.2475 18.4852 29.1246 18.3715 28.9388 18.3025V18.8097L31.0313 18.799V18.3023C30.8478 18.3693 30.7317 18.4753 30.6789 18.616L30.57 18.5962C30.57 18.5508 30.5542 18.4864 30.5216 18.4084C30.4895 18.3313 30.4427 18.2451 30.3852 18.1574C30.2781 17.9943 30.1363 17.8299 29.987 17.7122Z" fill="black"/>
<path d="M31.3575 20.1712V19.4287C31.1232 19.5019 30.9209 19.6527 30.7838 19.8562C30.7838 19.4625 30.3338 18.8437 29.985 18.6525C29.625 18.855 29.1863 19.485 29.1863 19.8562C29.0456 19.6512 28.8393 19.5004 28.6013 19.4287V20.1712H31.3575Z" fill="white"/>
<path fill-rule="evenodd" clip-rule="evenodd" d="M29.9574 18.6034L30.0121 18.6031C30.1971 18.7046 30.4028 18.9149 30.5616 19.1466C30.6856 19.3276 30.7864 19.5296 30.8241 19.7117C30.9614 19.5547 31.1399 19.4378 31.3407 19.375L31.4138 19.4287V20.1712L31.3575 20.2275H28.6013L28.545 20.1712V19.4287L28.6175 19.3749C28.8228 19.4367 29.0057 19.5545 29.1464 19.7139C29.1839 19.5389 29.2822 19.3401 29.404 19.1596C29.5613 18.9266 29.7668 18.7106 29.9574 18.6034ZM29.9853 18.7176C29.8227 18.8182 29.6413 19.0091 29.4973 19.2225C29.3443 19.4492 29.2425 19.6879 29.2425 19.8562L29.1399 19.888C29.021 19.7148 28.8526 19.5823 28.6575 19.5074V20.115H31.3013V19.5083C31.1103 19.5842 30.9459 19.7162 30.8304 19.8876L30.7275 19.8562C30.7275 19.6766 30.6229 19.4352 30.4688 19.2102C30.3238 18.9986 30.1429 18.8131 29.9853 18.7176Z" fill="black"/>
<path d="M31.2 21.825V21.06C30.93 21.1612 30.8625 21.4087 30.7725 21.5887C30.8063 20.8125 30.345 19.9912 29.985 19.7775C29.625 19.9912 29.1525 20.835 29.1975 21.5775C29.1075 21.42 29.0288 21.1612 28.77 21.06V21.8137L31.2 21.825Z" fill="white"/>
<path fill-rule="evenodd" clip-rule="evenodd" d="M29.3886 20.455C29.548 20.1206 29.7621 19.8444 29.9563 19.7291H30.0137C30.2077 19.8443 30.4191 20.1148 30.5772 20.4481C30.7038 20.7149 30.7992 21.0283 30.8241 21.3464C30.8935 21.2135 30.9936 21.0773 31.1802 21.0073L31.2562 21.06V21.825L31.1997 21.8812L28.7697 21.87L28.7137 21.8137V21.06L28.7905 21.0076C28.9344 21.0639 29.027 21.1639 29.0941 21.2669C29.1119 21.2941 29.1279 21.3217 29.1428 21.3488C29.1642 21.0378 29.2604 20.724 29.3886 20.455ZM29.4901 20.5034C29.3354 20.8281 29.2319 21.215 29.2536 21.5741L29.1487 21.6054C29.1304 21.5735 29.1125 21.5374 29.0945 21.5012C29.0893 21.4906 29.0841 21.4801 29.0788 21.4697C29.055 21.4221 29.0298 21.3742 28.9999 21.3284C28.9549 21.2593 28.9002 21.1966 28.8262 21.1507V21.7578L31.1437 21.7685V21.1484C30.9978 21.2326 30.9342 21.3724 30.8702 21.5131C30.8548 21.5469 30.8394 21.5808 30.8228 21.6139L30.7163 21.5863C30.7327 21.2094 30.6288 20.8192 30.4756 20.4963C30.3303 20.19 30.1449 19.9529 29.985 19.8442C29.825 19.9534 29.6369 20.1955 29.4901 20.5034Z" fill="black"/>
<path d="M31.02 22.9725V22.2075C30.7388 22.275 30.7275 22.3763 30.6375 22.545C30.6713 22.0838 30.345 21.555 29.985 21.3525C29.625 21.555 29.31 22.0838 29.3325 22.545C29.2425 22.3763 29.2313 22.275 28.95 22.2075V22.9725H31.02Z" fill="white"/>
<path fill-rule="evenodd" clip-rule="evenodd" d="M29.985 21.288L30.0126 21.3035C30.2034 21.4108 30.3816 21.602 30.5078 21.8239C30.5979 21.9823 30.6631 22.1594 30.6866 22.3367C30.6953 22.3244 30.7047 22.3124 30.7152 22.3007C30.775 22.2341 30.8604 22.188 31.0069 22.1528L31.0763 22.1362V23.0288H28.8938V22.1362L28.9631 22.1528C29.1096 22.188 29.1951 22.2341 29.2549 22.3007C29.2665 22.3137 29.2769 22.3271 29.2864 22.3409C29.3113 22.1625 29.3765 21.984 29.4663 21.8242C29.591 21.6024 29.7664 21.411 29.9574 21.3035L29.985 21.288ZM29.5644 21.8793C29.4472 22.0877 29.3781 22.3247 29.3887 22.5423L29.2829 22.5715C29.2712 22.5496 29.2609 22.5289 29.2514 22.5099C29.2506 22.5082 29.2497 22.5065 29.2489 22.5049C29.2403 22.4875 29.2325 22.4718 29.2246 22.4568C29.2074 22.4243 29.1913 22.3983 29.1711 22.3759C29.1398 22.341 29.094 22.3093 29.0063 22.2813V22.9163H30.9638V22.2813C30.876 22.3093 30.8302 22.341 30.7989 22.3759C30.7788 22.3983 30.7627 22.4243 30.7454 22.4568C30.7375 22.4718 30.7297 22.4875 30.7211 22.5048C30.7203 22.5065 30.7195 22.5082 30.7186 22.5099C30.7091 22.5289 30.6988 22.5496 30.6872 22.5715L30.5814 22.5409C30.5973 22.3243 30.5285 22.0879 30.41 21.8795C30.298 21.6825 30.1444 21.5158 29.985 21.4178C29.8261 21.5156 29.6752 21.6821 29.5644 21.8793Z" fill="black"/>
<path d="M19.1625 25.785V23.49C19.0838 23.1975 18.825 22.9275 18.645 22.8825V20.8575L19.0613 21.0825L19.545 23.2088V25.7963L19.1625 25.785Z" fill="white"/>
<path fill-rule="evenodd" clip-rule="evenodd" d="M18.5887 20.7632L19.1104 21.0452L19.6012 23.2025V25.8542L19.1062 25.8396V23.4976C19.0688 23.3638 18.9905 23.2335 18.8996 23.1307C18.8058 23.0247 18.7054 22.9556 18.6314 22.9371L18.5887 22.9264V20.7632ZM18.7012 20.9519V22.8416C18.7957 22.8782 18.8968 22.9578 18.9838 23.0562C19.0854 23.171 19.1747 23.3191 19.2168 23.4754L19.2187 23.4826V25.7304L19.4887 25.7383V23.2151L19.0121 21.1199L18.7012 20.9519Z" fill="black"/>
<path d="M19.1625 25.7963V23.49C19.0838 23.1975 18.825 22.9275 18.645 22.8825V20.7225C18.9263 20.7225 19.0613 21.0825 19.0613 21.0825L19.545 23.2088V25.785L19.1625 25.7963Z" fill="white"/>
<path fill-rule="evenodd" clip-rule="evenodd" d="M18.5887 20.6663H18.645C18.8116 20.6663 18.9302 20.7729 19.0033 20.8683C19.0404 20.9168 19.0678 20.965 19.086 21.0009C19.0951 21.0189 19.1019 21.034 19.1066 21.0448C19.1089 21.0502 19.1106 21.0545 19.1119 21.0575L19.1133 21.0611L19.1137 21.0622L19.1138 21.0626L19.1139 21.0627C19.1139 21.0627 19.1139 21.0628 19.0612 21.0825L19.1139 21.0627L19.1152 21.0663L19.6012 23.2024V25.8396L19.1062 25.8542V23.4976C19.0688 23.3638 18.9905 23.2335 18.8996 23.1307C18.8058 23.0247 18.7054 22.9556 18.6314 22.9371L18.5887 22.9264V20.6663ZM19.0073 21.0991C19.0064 21.0969 19.0051 21.0936 19.0032 21.0893C18.9994 21.0804 18.9935 21.0674 18.9855 21.0516C18.9696 21.02 18.9457 20.9782 18.9139 20.9367C18.8601 20.8665 18.7893 20.804 18.7012 20.7848V22.8416C18.7957 22.8782 18.8968 22.9578 18.9838 23.0562C19.0854 23.171 19.1747 23.3191 19.2168 23.4754L19.2187 23.4826V25.7383L19.4887 25.7304V23.2151L19.0073 21.0991Z" fill="black"/>
<path d="M18.8588 26.3812C19.05 26.3025 19.3313 26.055 19.3313 25.8187V22.9387L19.1963 22.7137H24.1125L23.9213 22.9387V25.8187C23.9295 25.938 23.9693 26.0529 24.0365 26.1517C24.1037 26.2505 24.1959 26.3297 24.3038 26.3812H18.8588Z" fill="white"/>
<path fill-rule="evenodd" clip-rule="evenodd" d="M19.0969 22.6576H24.2341L23.9775 22.9595V25.8169C23.9854 25.9255 24.0217 26.0301 24.083 26.1202C24.1446 26.2108 24.2291 26.2834 24.328 26.3306L24.3038 26.4376H18.8588L18.8373 26.3293C18.9246 26.2934 19.0361 26.2169 19.1255 26.1208C19.216 26.0236 19.275 25.916 19.275 25.8188V22.9544L19.0969 22.6576ZM19.2956 22.7701L19.3875 22.9233V25.8188C19.3875 25.958 19.3059 26.0922 19.2079 26.1975C19.1641 26.2446 19.1152 26.2878 19.0653 26.3251H24.116C24.0682 26.2837 24.0258 26.2361 23.99 26.1834C23.9172 26.0764 23.8741 25.9519 23.8651 25.8227L23.865 25.8208V22.9182L23.9909 22.7701H19.2956Z" fill="black"/>
<path d="M23.3025 26.3813C23.1113 26.3025 22.83 26.055 22.83 25.8188V23.085L23.235 22.7025H19.905L20.31 23.085V25.8188C20.31 26.055 20.0288 26.3025 19.8375 26.3813H23.3025Z" fill="white"/>
<path fill-rule="evenodd" clip-rule="evenodd" d="M19.7635 22.6462H23.3764L22.8862 23.1092V25.8187C22.8862 25.9159 22.9452 26.0235 23.0357 26.1207C23.1251 26.2168 23.2367 26.2933 23.3239 26.3292L23.3025 26.4375H19.8375L19.8161 26.3292C19.9033 26.2933 20.0148 26.2168 20.1043 26.1207C20.1947 26.0235 20.2537 25.9159 20.2537 25.8187V23.1092L19.7635 22.6462ZM20.0465 22.7587L20.3662 23.0607V25.8187C20.3662 25.9579 20.2846 26.0921 20.1866 26.1974C20.1428 26.2445 20.0939 26.2877 20.044 26.325H23.0959C23.046 26.2877 22.9972 26.2445 22.9533 26.1974C22.8553 26.0921 22.7737 25.9579 22.7737 25.8187V23.0607L23.0935 22.7587H20.0465Z" fill="black"/>
<path d="M22.8413 26.3813C22.65 26.3025 22.3575 26.055 22.3575 25.8188V23.3438L22.6275 22.9725H20.5125L20.7825 23.3438V25.8188C20.7825 26.055 20.5013 26.3025 20.2988 26.3813H22.8413Z" fill="white"/>
<path fill-rule="evenodd" clip-rule="evenodd" d="M20.4021 22.9163H22.738L22.4138 23.3621V25.8188C22.4138 25.9151 22.4748 26.0226 22.5683 26.1202C22.6605 26.2164 22.7751 26.2932 22.8627 26.3292L22.8413 26.4375H20.2988L20.2784 26.3288C20.3709 26.2928 20.4851 26.2164 20.5757 26.1204C20.6673 26.0234 20.7263 25.9158 20.7263 25.8188V23.3621L20.4021 22.9163ZM20.623 23.0288L20.8388 23.3255V25.8188C20.8388 25.958 20.7571 26.0922 20.6575 26.1977C20.6131 26.2447 20.5634 26.2878 20.5124 26.325H22.6326C22.5819 26.2879 22.532 26.2449 22.4871 26.198C22.3865 26.0931 22.3013 25.9586 22.3013 25.8188V23.3255L22.5171 23.0288H20.623Z" fill="black"/>
<path d="M21.075 22.9725H22.0763V26.3925H21.0638L21.075 22.9725Z" fill="white"/>
<path fill-rule="evenodd" clip-rule="evenodd" d="M21.0189 22.9163H22.1325V26.4488H21.0073L21.0189 22.9163ZM21.1311 23.0288L21.1202 26.3363H22.02V23.0288H21.1311Z" fill="black"/>
<path d="M19.6912 23.9176H20.0962V25.7738H19.6912V23.9176ZM23.1562 23.9176H23.55V25.7738H23.145L23.1562 23.9176ZM19.3425 20.7901H19.8375V22.7026H19.3425V20.7901ZM19.3425 20.4301H19.8262V20.7901H19.3425V20.4301ZM23.3475 21.2063H24.0337V22.6688H23.3475V21.2063Z" fill="white"/>
<path fill-rule="evenodd" clip-rule="evenodd" d="M19.2863 20.43L19.3425 20.3738H19.8263L19.8825 20.43V20.7788L19.8938 20.79V22.7025L19.8375 22.7588H19.3425L19.2863 22.7025V20.43ZM19.3988 20.8463V22.6463H19.7813V20.8463H19.3988ZM19.77 20.7338H19.3988V20.4863H19.77V20.7338ZM23.2913 21.2063L23.3475 21.15H24.0338L24.09 21.2063V22.6688L24.0338 22.725H23.3475L23.2913 22.6688V21.2063ZM23.4038 21.2625V22.6125H23.9775V21.2625H23.4038ZM19.635 23.9175L19.6913 23.8613H20.0963L20.1525 23.9175V25.7738L20.0963 25.83H19.6913L19.635 25.7738V23.9175ZM19.7475 23.9738V25.7175H20.04V23.9738H19.7475ZM23.1 23.9172L23.1563 23.8613H23.55L23.6063 23.9175V25.7738L23.55 25.83H23.145L23.0888 25.7734L23.1 23.9172ZM23.2122 23.9738L23.2016 25.7175H23.4938V23.9738H23.2122Z" fill="black"/>
<path d="M19.8262 22.6801V19.4176C19.9612 19.4176 19.9837 19.9013 20.2987 19.9013C20.4675 19.9013 20.4562 19.6988 20.355 19.5413C20.2762 19.3951 20.175 19.2038 20.31 18.8326C20.4112 19.1138 20.6587 19.2038 20.6137 19.0351C20.535 18.7313 20.2987 18.6751 20.4787 18.2138C20.535 18.5963 20.7825 18.5851 20.7262 18.3601C20.6587 18.1013 20.5125 17.9888 20.6925 17.6288C20.7937 18.0451 20.9175 18.0226 20.9175 17.7638C20.9175 17.3813 20.9175 16.9763 21.39 16.8301C21.39 16.8301 21.4237 16.4926 21.6037 16.4926C21.7725 16.4926 21.8062 16.8301 21.8062 16.8301C22.29 16.9763 22.2787 17.3926 22.2787 17.7638C22.2787 18.0226 22.4025 18.0451 22.5037 17.6288C22.6837 17.9888 22.5375 18.1013 22.47 18.3601C22.4137 18.5851 22.6612 18.5963 22.7175 18.2138C22.8975 18.6751 22.6612 18.7313 22.5825 19.0351C22.5375 19.2038 22.785 19.1138 22.8862 18.8326C23.0212 19.2038 22.92 19.3951 22.8412 19.5413C22.7512 19.6988 22.7287 19.9013 22.8975 19.9013C23.2125 19.9013 23.235 19.4288 23.37 19.4288V22.6801H19.8262ZM19.05 20.2163V22.7026H19.3312V20.2163C19.23 20.1601 19.14 20.1601 19.05 20.2163Z" fill="white"/>
<path fill-rule="evenodd" clip-rule="evenodd" d="M21.446 16.8357L21.4423 16.8727L21.4067 16.8838C21.1878 16.9515 21.0829 17.0761 21.0296 17.227C20.9744 17.3836 20.9738 17.5701 20.9738 17.7638C20.9738 17.8315 20.9659 17.8899 20.9486 17.9318C20.9401 17.9526 20.927 17.9747 20.9063 17.9899C20.8829 18.007 20.8541 18.0121 20.8257 18.0029C20.8007 17.9949 20.7807 17.9773 20.7652 17.9589C20.7491 17.9399 20.7341 17.9155 20.7199 17.8868C20.7077 17.862 20.6956 17.8329 20.6837 17.7993C20.6566 17.8906 20.6585 17.959 20.6716 18.0206C20.6818 18.0683 20.6991 18.1138 20.7197 18.1669L20.7217 18.1721C20.7414 18.2229 20.7635 18.2798 20.7807 18.3458L20.7808 18.3464C20.7968 18.4104 20.7943 18.4705 20.7674 18.515C20.7535 18.5379 20.7333 18.5561 20.7078 18.566C20.6824 18.5758 20.6553 18.5759 20.6299 18.569C20.5802 18.5554 20.5357 18.5153 20.5012 18.4591C20.4929 18.4456 20.485 18.431 20.4776 18.4152C20.4724 18.4445 20.4697 18.4711 20.4691 18.4954C20.4674 18.5611 20.4805 18.6129 20.501 18.6616C20.5168 18.6987 20.5359 18.7324 20.5576 18.7705C20.5659 18.785 20.5745 18.8001 20.5834 18.8163C20.6148 18.8733 20.6468 18.9384 20.6682 19.0208C20.6808 19.0681 20.6815 19.131 20.6281 19.1626C20.6045 19.1765 20.5784 19.1781 20.5563 19.175C20.534 19.1718 20.5116 19.1635 20.4904 19.1522C20.4344 19.1225 20.3732 19.0656 20.3225 18.9858C20.2962 19.0982 20.2958 19.1881 20.3079 19.2623C20.3244 19.3637 20.3645 19.4403 20.4035 19.5128C20.4577 19.5977 20.4911 19.699 20.4842 19.7848C20.4807 19.8288 20.4661 19.8731 20.4331 19.9066C20.3993 19.941 20.3527 19.9575 20.2988 19.9575C20.1054 19.9575 20.007 19.8064 19.9449 19.685C19.9316 19.6589 19.9192 19.6328 19.9078 19.6086C19.9056 19.6039 19.9034 19.5993 19.9012 19.5947C19.8947 19.5809 19.8885 19.568 19.8825 19.5561V22.6238H23.3138V19.5647C23.3077 19.5765 23.3015 19.5892 23.2948 19.6029C23.2927 19.6073 23.2905 19.6118 23.2883 19.6164C23.2769 19.64 23.2645 19.6656 23.2511 19.6911C23.1887 19.8102 23.0902 19.9575 22.8975 19.9575C22.8436 19.9575 22.7971 19.941 22.764 19.9058C22.7318 19.8716 22.7188 19.827 22.7162 19.7837C22.7111 19.6987 22.7443 19.5979 22.7921 19.514C22.8313 19.4412 22.8718 19.3643 22.8884 19.2623C22.9005 19.1881 22.9001 19.0982 22.8738 18.9858C22.8231 19.0656 22.7619 19.1225 22.7059 19.1522C22.6847 19.1635 22.6623 19.1718 22.64 19.175C22.6179 19.1781 22.5918 19.1765 22.5682 19.1626C22.5147 19.131 22.5155 19.0681 22.5281 19.0207C22.5495 18.9384 22.5815 18.8733 22.6129 18.8163C22.6218 18.8001 22.6304 18.785 22.6387 18.7705C22.6604 18.7324 22.6795 18.6987 22.6953 18.6616C22.7158 18.6129 22.7289 18.5611 22.7272 18.4954C22.7266 18.4711 22.7239 18.4445 22.7187 18.4152C22.7113 18.431 22.7034 18.4456 22.6951 18.4591C22.6606 18.5153 22.6161 18.5554 22.5664 18.569C22.5409 18.5759 22.5139 18.5758 22.4885 18.566C22.463 18.5561 22.4428 18.5379 22.4289 18.515C22.402 18.4705 22.3995 18.4104 22.4155 18.3464L22.4156 18.3458C22.4328 18.2798 22.4549 18.2229 22.4746 18.1721L22.4766 18.1669C22.4972 18.1138 22.5145 18.0683 22.5247 18.0206C22.5378 17.959 22.5397 17.8906 22.5126 17.7993C22.5007 17.8329 22.4886 17.862 22.4763 17.8868C22.4622 17.9155 22.4472 17.9399 22.4311 17.9589C22.4156 17.9773 22.3956 17.9949 22.3706 18.0029C22.3422 18.0121 22.3134 18.007 22.29 17.9899C22.2693 17.9747 22.2562 17.9526 22.2477 17.9318C22.2304 17.8899 22.2225 17.8315 22.2225 17.7638C22.2225 17.7568 22.2225 17.7498 22.2225 17.7427C22.2226 17.5612 22.2227 17.3829 22.1707 17.2307C22.1187 17.0786 22.0141 16.9516 21.79 16.8839L21.754 16.873L21.7503 16.8357L21.7502 16.8351L21.75 16.8328C21.7497 16.8306 21.7493 16.8273 21.7488 16.8231C21.7476 16.8146 21.7458 16.8023 21.743 16.7874C21.7376 16.7575 21.7287 16.7184 21.7152 16.6799C21.7015 16.6407 21.6843 16.6058 21.6637 16.5817C21.644 16.5584 21.6247 16.5488 21.6038 16.5488C21.5787 16.5488 21.557 16.5598 21.5362 16.5829C21.5145 16.607 21.4965 16.6417 21.4822 16.6806C21.4682 16.719 21.459 16.7579 21.4534 16.7877C21.4506 16.8025 21.4487 16.8148 21.4475 16.8232C21.447 16.8274 21.4466 16.8307 21.4463 16.8328L21.446 16.8351L21.446 16.8357ZM21.8572 16.7874C21.8562 16.7812 21.855 16.7744 21.8537 16.7672C21.8476 16.7338 21.8374 16.6885 21.8214 16.6427C21.8056 16.5975 21.7827 16.548 21.7495 16.5088C21.7154 16.4688 21.6673 16.4363 21.6038 16.4363C21.5389 16.4363 21.4888 16.4675 21.4526 16.5076C21.4174 16.5468 21.3933 16.5965 21.3766 16.6419C21.3597 16.688 21.3492 16.7334 21.3428 16.7669C21.3414 16.7743 21.3402 16.7813 21.3392 16.7876C21.1078 16.8688 20.9854 17.0143 20.9235 17.1896C20.8613 17.3661 20.8613 17.571 20.8613 17.7584V17.7638C20.8613 17.8192 20.8552 17.8582 20.8473 17.8816C20.8398 17.8716 20.8308 17.8571 20.8208 17.837C20.7975 17.7897 20.772 17.7174 20.7472 17.6155L20.7109 17.4663L20.6422 17.6036C20.5478 17.7925 20.5359 17.9237 20.5616 18.0441C20.5739 18.1019 20.5946 18.1555 20.6148 18.2076L20.6162 18.2112C20.6362 18.2629 20.6562 18.3144 20.6718 18.3739C20.6838 18.4223 20.6765 18.4479 20.6711 18.4568C20.6699 18.4588 20.6689 18.4599 20.6683 18.4603C20.6681 18.4605 20.6679 18.4607 20.6677 18.4608C20.6675 18.4609 20.6674 18.461 20.6672 18.461C20.6672 18.461 20.665 18.462 20.6595 18.4605C20.6473 18.4571 20.623 18.4425 20.597 18.4002C20.5717 18.359 20.5477 18.2957 20.5344 18.2056L20.5035 17.9956L20.4264 18.1933C20.3798 18.3127 20.3588 18.4093 20.3566 18.4925C20.3545 18.5766 20.3716 18.6444 20.3974 18.7054C20.4159 18.7491 20.4399 18.7911 20.4626 18.8311C20.4703 18.8445 20.4778 18.8576 20.4849 18.8706C20.5143 18.9239 20.5413 18.9797 20.5593 19.0491L20.5594 19.0495C20.5606 19.0541 20.5615 19.0579 20.5621 19.0611C20.5569 19.0594 20.5505 19.0568 20.5431 19.0528C20.4888 19.024 20.4098 18.9436 20.3629 18.8135L20.3103 18.6672L20.2572 18.8133C20.1869 19.0065 20.1768 19.1569 20.1968 19.2803C20.2168 19.403 20.2661 19.4947 20.3055 19.568L20.3065 19.5699L20.3077 19.5717C20.3541 19.6439 20.3764 19.7217 20.3721 19.7759C20.37 19.8022 20.3621 19.8184 20.3529 19.8277C20.3445 19.8363 20.3292 19.845 20.2988 19.845C20.1772 19.845 20.1068 19.7543 20.0451 19.6338C20.0326 19.6094 20.0211 19.5851 20.0097 19.561C20.0074 19.5561 20.0052 19.5513 20.0029 19.5465C19.9895 19.5182 19.9758 19.4899 19.9616 19.4651C19.9476 19.4407 19.9311 19.4161 19.9108 19.3972C19.8899 19.3777 19.8617 19.3613 19.8263 19.3613H19.77V22.7363H23.4263V19.3725H23.37C23.335 19.3725 23.307 19.3883 23.286 19.4075C23.2656 19.4261 23.2491 19.4502 23.235 19.4741C23.2208 19.4984 23.2071 19.5261 23.1937 19.5537C23.1914 19.5584 23.1891 19.5631 23.1868 19.5678C23.1754 19.5914 23.1639 19.6151 23.1514 19.6389C23.0901 19.7561 23.0198 19.845 22.8975 19.845C22.8671 19.845 22.8531 19.8363 22.8458 19.8286C22.8376 19.8198 22.8301 19.804 22.8285 19.777C22.8252 19.7216 22.8481 19.6427 22.8901 19.5692L22.8905 19.5686L22.8908 19.568C22.9302 19.4947 22.9795 19.403 22.9995 19.2803C23.0195 19.1569 23.0094 19.0065 22.9391 18.8133L22.886 18.6672L22.8333 18.8135C22.7865 18.9436 22.7075 19.024 22.6532 19.0528C22.6457 19.0568 22.6394 19.0594 22.6342 19.0611C22.6348 19.0579 22.6357 19.0541 22.6369 19.0495L22.637 19.0491C22.655 18.9797 22.682 18.9239 22.7114 18.8706C22.7185 18.8576 22.726 18.8445 22.7337 18.8311C22.7564 18.7911 22.7803 18.7491 22.7989 18.7054C22.8247 18.6444 22.8418 18.5766 22.8397 18.4925C22.8375 18.4093 22.8165 18.3127 22.7699 18.1933L22.6928 17.9956L22.6619 18.2056C22.6486 18.2957 22.6246 18.359 22.5993 18.4002C22.5733 18.4425 22.549 18.4571 22.5368 18.4605C22.5313 18.462 22.5291 18.461 22.529 18.461C22.529 18.461 22.5289 18.4609 22.5287 18.4609C22.5286 18.4608 22.5283 18.4606 22.528 18.4603C22.5274 18.4599 22.5264 18.4588 22.5252 18.4568C22.5198 18.4479 22.5125 18.4223 22.5245 18.374C22.5401 18.3144 22.5601 18.2629 22.5801 18.2112L22.5815 18.2076C22.6017 18.1555 22.6224 18.1019 22.6347 18.0441C22.6604 17.9237 22.6485 17.7925 22.5541 17.6036L22.4854 17.4663L22.4491 17.6155C22.4243 17.7174 22.3988 17.7897 22.3755 17.837C22.3655 17.8571 22.3565 17.8716 22.349 17.8816C22.3411 17.8582 22.335 17.8192 22.335 17.7638C22.335 17.7546 22.335 17.7453 22.335 17.736C22.3352 17.5604 22.3354 17.3648 22.2772 17.1943C22.2167 17.0174 22.0941 16.8688 21.8572 16.7874ZM22.6337 19.0752C22.6336 19.0753 22.6334 19.0748 22.6333 19.0734C22.6337 19.0745 22.6338 19.0751 22.6337 19.0752ZM20.5626 19.0752C20.5625 19.0751 20.5626 19.0745 20.563 19.0734C20.5629 19.0748 20.5627 19.0753 20.5626 19.0752ZM20.5756 19.0638C20.5757 19.0638 20.5757 19.0638 20.5757 19.0638ZM19.1864 20.1178C19.2446 20.1178 19.3018 20.1356 19.3586 20.1671L19.3875 20.1832V22.7588H18.9938V20.1851L19.0202 20.1686C19.0727 20.1358 19.1279 20.1178 19.1864 20.1178ZM19.1063 20.2494V22.6463H19.275V20.251C19.2425 20.2366 19.2133 20.2303 19.1864 20.2303C19.1603 20.2303 19.1339 20.2362 19.1063 20.2494Z" fill="black"/>
<path d="M19.0725 21.825C19.4213 22.005 19.77 22.2188 19.86 22.7025H19.0725V21.825ZM23.9325 21.0825V22.7025H24.1575V21.0825C24.09 21.0488 23.9888 21.0375 23.9325 21.0825Z" fill="white"/>
<path fill-rule="evenodd" clip-rule="evenodd" d="M24.0427 20.9968C24.0917 20.9985 24.1418 21.0118 24.1826 21.0322L24.2137 21.0477V22.7588H23.8762V21.0555L23.8973 21.0386C23.9398 21.0046 23.9945 20.9951 24.0427 20.9968ZM23.9887 21.1154V22.6463H24.1012V21.1203C24.0814 21.114 24.0597 21.1099 24.0388 21.1092C24.0187 21.1085 24.0019 21.1109 23.9887 21.1154ZM19.0162 21.7327L19.0983 21.775C19.4481 21.9556 19.82 22.1801 19.9153 22.6922L19.9277 22.7588H19.0162V21.7327ZM19.1287 21.9182V22.6463H19.7902C19.6959 22.2712 19.4273 22.0789 19.1287 21.9182Z" fill="black"/>
<path d="M24.1575 21.825C23.8088 21.9938 23.46 22.1963 23.37 22.6913H24.1575V21.825ZM21.84 18.0338L22.0425 17.865V17.64C21.975 17.64 21.93 17.6738 21.8738 17.7525C21.8519 17.6803 21.8158 17.6132 21.7674 17.5552C21.7191 17.4972 21.6596 17.4495 21.5925 17.415C21.5244 17.4471 21.4634 17.4925 21.4132 17.5485C21.3629 17.6046 21.3245 17.6701 21.3 17.7413C21.2438 17.6625 21.21 17.6513 21.1313 17.6288V17.8538L21.3338 18.0338H21.84Z" fill="white"/>
<path fill-rule="evenodd" clip-rule="evenodd" d="M21.5936 17.3523L21.6182 17.365C21.692 17.4029 21.7575 17.4553 21.8106 17.5191C21.8427 17.5576 21.8699 17.5998 21.8918 17.6447C21.9015 17.6357 21.9116 17.6275 21.9221 17.6203C21.9587 17.5953 21.998 17.5837 22.0425 17.5837H22.0987V17.8913L21.8603 18.09H21.3123L21.075 17.879V17.5542L21.1467 17.5746C21.1848 17.5855 21.2205 17.5958 21.2534 17.6159C21.2639 17.6223 21.2738 17.6296 21.2834 17.6377C21.3072 17.592 21.3367 17.5494 21.3713 17.5109C21.4265 17.4493 21.4936 17.3993 21.5685 17.3641L21.5936 17.3523ZM21.5914 17.4785C21.5401 17.5062 21.494 17.5425 21.455 17.586C21.4098 17.6364 21.3752 17.6954 21.3532 17.7595L21.3177 17.8628L21.2542 17.7739C21.2284 17.7377 21.2111 17.7219 21.1947 17.7119C21.1924 17.7105 21.19 17.7091 21.1875 17.7078V17.8285L21.3551 17.9775H21.8196L21.9862 17.8386V17.7127C21.986 17.7129 21.9858 17.713 21.9857 17.7131C21.967 17.7259 21.9462 17.7477 21.9195 17.7852L21.853 17.8783L21.8199 17.7688C21.8002 17.7037 21.7677 17.6433 21.7242 17.5911C21.6867 17.5462 21.6418 17.5081 21.5914 17.4785ZM24.2137 21.7353V22.7475H23.3026L23.3146 22.6812C23.4099 22.1571 23.7826 21.9439 24.133 21.7743L24.2137 21.7353ZM23.4394 22.635H24.1012V21.9155C23.8023 22.0667 23.5334 22.251 23.4394 22.635Z" fill="black"/>
<path d="M21.9525 18.585L22.0425 18.3712V18.09C21.975 18.09 21.93 18.1237 21.8738 18.2025C21.8519 18.1302 21.8158 18.0631 21.7674 18.0051C21.7191 17.9472 21.6596 17.8995 21.5925 17.865C21.5244 17.897 21.4634 17.9424 21.4132 17.9985C21.3629 18.0545 21.3245 18.1201 21.3 18.1912C21.2438 18.1125 21.21 18.1012 21.1313 18.09V18.3712L21.2213 18.585H21.9525Z" fill="white"/>
<path fill-rule="evenodd" clip-rule="evenodd" d="M21.5936 17.8024L21.6182 17.815C21.692 17.853 21.7575 17.9054 21.8106 17.9692C21.8427 18.0077 21.8699 18.0499 21.8918 18.0948C21.9015 18.0857 21.9116 18.0776 21.9221 18.0703C21.9587 18.0453 21.998 18.0338 22.0425 18.0338H22.0987V18.3827L21.9898 18.6413H21.1839L21.075 18.3827V18.0252L21.1392 18.0344C21.1787 18.04 21.2161 18.0466 21.2514 18.0662C21.2626 18.0725 21.2732 18.0797 21.2833 18.0881C21.3071 18.0423 21.3367 17.9996 21.3713 17.961C21.4265 17.8993 21.4936 17.8494 21.5685 17.8142L21.5936 17.8024ZM21.5914 17.9286C21.5401 17.9563 21.494 17.9926 21.455 18.0361C21.4098 18.0865 21.3752 18.1455 21.3532 18.2096L21.3177 18.3129L21.2542 18.224C21.2281 18.1874 21.2114 18.1727 21.1967 18.1645C21.1938 18.1629 21.1908 18.1614 21.1875 18.1601V18.3599L21.2586 18.5288H21.9151L21.9862 18.3599V18.1628C21.986 18.1629 21.9858 18.1631 21.9857 18.1632C21.967 18.176 21.9462 18.1978 21.9195 18.2352L21.853 18.3284L21.8199 18.2188C21.8002 18.1538 21.7677 18.0934 21.7242 18.0412C21.6867 17.9962 21.6418 17.9582 21.5914 17.9286Z" fill="black"/>
<path d="M21.975 19.3275L22.2675 18.9563V18.5963C22.155 18.5963 22.0988 18.6525 22.02 18.7763C21.9413 18.5175 21.795 18.4725 21.5925 18.3488C21.3787 18.4613 21.2325 18.5175 21.165 18.765C21.075 18.6413 21.0188 18.6075 20.9062 18.5963V18.9563L21.21 19.3275H21.975Z" fill="white"/>
<path fill-rule="evenodd" clip-rule="evenodd" d="M21.5945 18.2842L21.6218 18.3008C21.6499 18.318 21.6782 18.3343 21.7059 18.3503C21.7718 18.3882 21.8351 18.4247 21.8884 18.4685C21.9472 18.5169 21.9961 18.5755 22.0348 18.6575C22.0542 18.6336 22.0745 18.6127 22.0965 18.5955C22.1455 18.5575 22.2002 18.5401 22.2675 18.5401H22.3237V18.9758L22.0023 19.3838H21.1833L20.85 18.9764V18.5342L20.9118 18.5404C20.973 18.5465 21.0249 18.5593 21.0745 18.5912C21.0993 18.6072 21.1224 18.6272 21.1453 18.6516C21.181 18.5709 21.2288 18.5118 21.2881 18.4629C21.3528 18.4096 21.4316 18.3689 21.5157 18.3254C21.5324 18.3167 21.5493 18.308 21.5663 18.2991L21.5945 18.2842ZM21.3596 18.5498C21.2974 18.601 21.2501 18.6667 21.2192 18.7799L21.1884 18.8929L21.1195 18.7982C21.0758 18.7381 21.0441 18.7055 21.0136 18.6858C20.9983 18.676 20.982 18.6686 20.9625 18.6631V18.9363L21.2366 19.2713H21.9477L22.2112 18.9368V18.6601C22.1941 18.6654 22.1795 18.6735 22.1656 18.6843C22.1359 18.7075 22.1065 18.7452 22.0674 18.8065L22.0018 18.9097L21.9662 18.7927C21.9298 18.6734 21.8796 18.607 21.8169 18.5554C21.7711 18.5177 21.7205 18.4886 21.6593 18.4534C21.6378 18.441 21.6149 18.4279 21.5905 18.4133C21.5816 18.418 21.5728 18.4225 21.5643 18.427C21.4802 18.4705 21.4143 18.5047 21.3596 18.5498Z" fill="black"/>
<path d="M22.0537 20.0587C22.0537 20.0587 22.4137 19.755 22.425 19.5862V19.1925C22.29 19.2037 22.1662 19.2375 22.065 19.4063C21.975 19.08 21.84 18.99 21.5925 18.8438C21.3337 18.99 21.1987 19.08 21.12 19.4063C21.0075 19.2375 20.895 19.2038 20.7487 19.1813V19.5862C20.8432 19.7647 20.9689 19.9247 21.12 20.0587H22.0537Z" fill="white"/>
<path fill-rule="evenodd" clip-rule="evenodd" d="M21.5931 18.7788L21.6211 18.7953C21.744 18.868 21.8467 18.9308 21.929 19.0192C21.9937 19.0887 22.0441 19.1719 22.0852 19.2842C22.1228 19.2429 22.1634 19.2124 22.2067 19.1903C22.2768 19.1544 22.35 19.1423 22.4203 19.1365L22.4813 19.1314V19.5881L22.4811 19.59C22.4773 19.6479 22.4452 19.709 22.4088 19.7628C22.3711 19.8185 22.3228 19.8748 22.2761 19.9244C22.2292 19.9742 22.1828 20.0184 22.1482 20.0501C22.1309 20.066 22.1164 20.0788 22.1063 20.0877C22.1012 20.0922 22.0972 20.0956 22.0944 20.098L22.0912 20.1007L22.0904 20.1015L22.0901 20.1017L22.09 20.1018C22.09 20.1018 22.09 20.1018 22.0538 20.0588L22.09 20.1018L22.0743 20.115H21.0986L21.0827 20.1008C20.9266 19.9624 20.7967 19.797 20.699 19.6126L20.6925 19.6002V19.1157L20.7573 19.1257C20.8319 19.1371 20.9044 19.1523 20.9736 19.1893C21.0169 19.2125 21.0573 19.2433 21.0962 19.2848C21.1338 19.1726 21.1826 19.089 21.2476 19.0192C21.3303 18.9304 21.4363 18.8675 21.5648 18.7948L21.5931 18.7788ZM22.0328 20.0025C22.0424 19.9942 22.0559 19.9821 22.0722 19.9672C22.1054 19.9367 22.1497 19.8945 22.1942 19.8472C22.2389 19.7998 22.2827 19.7485 22.3157 19.6998C22.3492 19.6501 22.3664 19.6106 22.3688 19.5841V19.2559C22.3288 19.2625 22.2922 19.2729 22.258 19.2904C22.2081 19.3159 22.1592 19.3586 22.1132 19.4352L22.0457 19.5478L22.0108 19.4212C21.9675 19.2642 21.9148 19.169 21.8466 19.0959C21.7824 19.0269 21.7019 18.9744 21.5919 18.9088C21.4766 18.9746 21.394 19.0271 21.3299 19.0959C21.2624 19.1684 21.2125 19.2628 21.1747 19.4195L21.1445 19.5445L21.0732 19.4375C21.021 19.3592 20.9713 19.3157 20.9205 19.2885C20.8854 19.2697 20.8479 19.2577 20.805 19.2485V19.5722C20.8922 19.7335 21.006 19.879 21.1416 20.0025H22.0328Z" fill="black"/>
<path d="M22.2 21.4088C22.2 21.4088 22.695 20.8801 22.7063 20.6663V20.0588C22.5263 20.0813 22.3463 20.2051 22.2113 20.4638C22.0988 19.9576 21.9188 19.6088 21.5925 19.3613C21.255 19.6088 21.075 19.9576 20.9625 20.4638C20.8275 20.2051 20.6588 20.0813 20.4788 20.0588V20.6663C20.5125 20.8801 20.9738 21.4088 20.9738 21.4088H22.2Z" fill="white"/>
<path fill-rule="evenodd" clip-rule="evenodd" d="M21.5931 19.2911L21.6265 19.3165C21.9367 19.5518 22.1176 19.8738 22.2337 20.317C22.3654 20.1253 22.5291 20.0243 22.6993 20.003L22.7625 19.9951V20.6678L22.7624 20.6693C22.7588 20.738 22.7186 20.8218 22.6706 20.9015C22.6209 20.984 22.5563 21.0722 22.4931 21.1525C22.4297 21.233 22.3667 21.3066 22.3197 21.36C22.2962 21.3868 22.2766 21.4085 22.2629 21.4236C22.256 21.4311 22.2506 21.437 22.2469 21.441L22.2426 21.4456L22.2415 21.4468L22.2411 21.4472C22.2411 21.4472 22.241 21.4473 22.2 21.4088L22.2411 21.4472L22.2244 21.4651H20.9482L20.9313 21.4458L20.9737 21.4088C20.9313 21.4458 20.9314 21.4458 20.9313 21.4458L20.9299 21.4442L20.926 21.4396C20.9225 21.4356 20.9175 21.4297 20.911 21.4222C20.8982 21.4071 20.8799 21.3854 20.8578 21.3587C20.8137 21.3054 20.7544 21.2319 20.6939 21.1515C20.6336 21.0713 20.5715 20.9835 20.5221 20.9015C20.474 20.8217 20.4335 20.7403 20.4232 20.6751L20.4225 20.6707V19.9951L20.4857 20.003C20.6565 20.0243 20.8118 20.1259 20.9403 20.3162C21.0565 19.8732 21.2385 19.5512 21.5592 19.3159L21.5931 19.2911ZM20.9995 21.3526H22.1753C22.1767 21.3511 22.1782 21.3495 22.1797 21.3478C22.1931 21.3331 22.2122 21.3119 22.2353 21.2857C22.2814 21.2333 22.343 21.1613 22.4047 21.0829C22.4666 21.0043 22.5279 20.9202 22.5742 20.8435C22.6216 20.7648 22.6475 20.7029 22.65 20.6647V20.1273C22.5124 20.1657 22.3728 20.2758 22.2611 20.4898L22.1898 20.6265L22.1563 20.476C22.0495 19.9952 21.8829 19.6671 21.5919 19.4323C21.2909 19.6671 21.1243 19.9949 21.0174 20.476L20.9839 20.6265L20.9126 20.4898C20.8006 20.2751 20.6693 20.1658 20.535 20.1275V20.6615C20.5428 20.7033 20.5722 20.7666 20.6185 20.8435C20.6651 20.9208 20.7246 21.0052 20.7838 21.0839C20.8429 21.1625 20.9011 21.2345 20.9445 21.287C20.9662 21.3132 20.9841 21.3345 20.9967 21.3492C20.9977 21.3504 20.9986 21.3515 20.9995 21.3526Z" fill="black"/>
<path d="M22.2 22.2076C22.2 22.2076 22.6163 21.7913 22.7063 21.6113V21.0038C22.5263 21.0263 22.3463 21.1501 22.2113 21.3976C22.1812 21.1928 22.111 20.9961 22.0049 20.8185C21.8987 20.6409 21.7586 20.486 21.5925 20.3625C21.255 20.61 21.075 20.8913 20.9625 21.3976C20.8275 21.1501 20.6588 21.0263 20.4788 21.0038V21.6113C20.5913 21.7913 20.9738 22.2076 20.9738 22.2076H22.2Z" fill="white"/>
<path fill-rule="evenodd" clip-rule="evenodd" d="M21.5927 20.2926L21.626 20.3174C21.798 20.4452 21.9432 20.6057 22.0531 20.7896C22.1383 20.932 22.201 21.0864 22.2395 21.2472C22.3703 21.0672 22.5318 20.9689 22.6993 20.948L22.7625 20.9401V21.6245L22.7565 21.6364C22.7312 21.6872 22.685 21.7509 22.633 21.8156C22.5803 21.8812 22.519 21.9511 22.4609 22.0148C22.4028 22.0786 22.3476 22.1367 22.3069 22.1788C22.2865 22.1998 22.2698 22.2169 22.2581 22.2288C22.2523 22.2347 22.2477 22.2393 22.2446 22.2424L22.241 22.246L22.2399 22.2472L22.2398 22.2473C22.2398 22.2473 22.2398 22.2473 22.2 22.2075L22.2398 22.2473L22.2233 22.2638H20.949L20.9323 22.2456L20.9737 22.2075C20.9323 22.2456 20.9323 22.2456 20.9323 22.2456L20.9279 22.2408L20.9155 22.2271C20.9047 22.2153 20.8893 22.1983 20.8704 22.1773C20.8326 22.1353 20.781 22.0773 20.7259 22.0137C20.6168 21.8879 20.49 21.7355 20.431 21.6411L20.4225 21.6274V20.9401L20.4857 20.948C20.656 20.9692 20.8112 21.0704 20.9397 21.2537C20.9922 21.0572 21.0584 20.8946 21.1452 20.7535C21.251 20.5816 21.3858 20.4443 21.5592 20.3172L21.5927 20.2926ZM20.9985 22.1513H22.1765C22.177 22.1508 22.1775 22.1503 22.178 22.1498C22.1894 22.1382 22.2059 22.1214 22.226 22.1006C22.2662 22.059 22.3206 22.0018 22.3778 21.939C22.435 21.8762 22.4946 21.8082 22.5453 21.7451C22.592 21.6871 22.6289 21.6357 22.65 21.5974V21.0723C22.5121 21.1106 22.3722 21.2198 22.2606 21.4245L22.1801 21.5722L22.1556 21.4057C22.1266 21.2083 22.0589 21.0186 21.9566 20.8473C21.8613 20.688 21.7378 20.5477 21.5921 20.4331C21.4446 20.546 21.331 20.6662 21.241 20.8125C21.144 20.9701 21.0728 21.1605 21.0174 21.4097L20.9849 21.556L20.9131 21.4245C20.8011 21.2191 20.6697 21.1106 20.535 21.0724V21.5948C20.592 21.6816 20.7062 21.8192 20.8109 21.9401C20.8655 22.003 20.9166 22.0604 20.954 22.1021C20.9727 22.1228 20.9879 22.1396 20.9985 22.1513Z" fill="black"/>
<path d="M22.3688 22.68C22.2563 22.1513 22.1438 21.7575 21.57 21.3638C20.985 21.7575 20.8838 22.1513 20.76 22.68H22.3688Z" fill="white"/>
<path fill-rule="evenodd" clip-rule="evenodd" d="M21.5703 21.2958L21.6019 21.3174C21.8951 21.5186 22.0733 21.722 22.192 21.9448C22.31 22.1663 22.3675 22.4039 22.4238 22.6683L22.4382 22.7363H20.6891L20.7053 22.6672C20.7669 22.4037 20.8245 22.166 20.9424 21.9448C21.0612 21.7219 21.2395 21.5184 21.5386 21.3171L21.5703 21.2958ZM20.8311 22.6238H22.2991C22.2475 22.3887 22.193 22.1859 22.0927 21.9977C21.9878 21.8009 21.8312 21.6172 21.5697 21.4321C21.3032 21.6172 21.1466 21.8009 21.0417 21.9977C20.9414 22.1859 20.887 22.3884 20.8311 22.6238Z" fill="black"/>
<path d="M22.6725 22.9726V22.2076C22.4025 22.3201 22.1663 22.4663 22.0763 22.6351C21.9863 22.2076 21.795 22.0275 21.5588 21.7688C21.3225 22.0275 21.165 22.2188 21.0638 22.6351C20.9738 22.4663 20.7375 22.3088 20.4788 22.2076V22.9726H22.6725Z" fill="white"/>
<path fill-rule="evenodd" clip-rule="evenodd" d="M21.5587 21.6853L21.6003 21.7308C21.6186 21.7508 21.6366 21.7704 21.6545 21.7898C21.8444 21.9958 22.0076 22.1729 22.1016 22.5028C22.1494 22.4491 22.2088 22.3994 22.2749 22.3538C22.3832 22.2792 22.5135 22.2128 22.6509 22.1556L22.7287 22.1231V23.0287H20.4225V22.1251L20.4992 22.1551C20.6322 22.2071 20.7601 22.2739 20.8672 22.3501C20.9334 22.3973 20.993 22.4491 21.0407 22.5044C21.1458 22.1533 21.3012 21.9674 21.5172 21.7308L21.5587 21.6853ZM21.559 21.8522C21.3488 22.0853 21.2105 22.2697 21.1184 22.6483L21.0835 22.7916L21.0141 22.6614C20.9748 22.5877 20.9008 22.5122 20.8019 22.4417C20.7238 22.3861 20.6324 22.3352 20.535 22.2919V22.9162H22.6162V22.2933C22.5135 22.34 22.4188 22.3913 22.3388 22.4465C22.2383 22.5157 22.1649 22.5883 22.1259 22.6614L22.0531 22.798L22.0212 22.6466C21.9414 22.2675 21.7815 22.0939 21.5707 21.8649C21.5668 21.8607 21.5629 21.8564 21.559 21.8522Z" fill="black"/>
<path d="M16.2038 29.1713H43.8V30.5775H16.2038V29.1713ZM15.4725 30.5775H44.5313V31.9838H15.4725V30.5775ZM17.655 27.0563H42.3375V27.9675H17.655V27.0563Z" fill="white"/>
<path fill-rule="evenodd" clip-rule="evenodd" d="M17.5988 27H42.3938V28.0237H17.5988V27ZM17.7113 27.1125V27.9112H42.2813V27.1125H17.7113ZM16.1475 29.115H43.8563V30.5212H44.5875V32.04H15.4163V30.5212H16.1475V29.115ZM16.26 30.5212H43.7438V29.2275H16.26V30.5212ZM15.5288 30.6337V31.9275H44.475V30.6337H15.5288Z" fill="black"/>
<path d="M16.935 27.9675H43.08V29.16H16.935V27.9675ZM18.0825 26.3588H41.9325V27.0563H18.0825V26.3588Z" fill="white"/>
<path fill-rule="evenodd" clip-rule="evenodd" d="M18.0263 26.3025H41.9888V27.1125H18.0263V26.3025ZM18.1388 26.415V27H41.8763V26.415H18.1388ZM16.8788 27.9112H43.1363V29.2162H16.8788V27.9112ZM16.9913 28.0237V29.1037H43.0238V28.0237H16.9913Z" fill="black"/>
<path d="M20.67 26.3588H22.47V31.9838H20.67V26.3588Z" fill="white"/>
<path fill-rule="evenodd" clip-rule="evenodd" d="M20.6138 26.3025H22.5263V32.04H20.6138V26.3025ZM20.7263 26.415V31.9275H22.4138V26.415H20.7263Z" fill="black"/>
<path d="M21.075 26.3588H22.0763V31.9838H21.0638L21.075 26.3588ZM29.0625 26.3588H30.8625V31.9838H29.0625V26.3588Z" fill="white"/>
<path fill-rule="evenodd" clip-rule="evenodd" d="M21.0189 26.3025H22.1325V32.04H21.0074L21.0189 26.3025ZM21.1311 26.415L21.1201 31.9275H22.02V26.415H21.1311ZM29.0062 26.3025H30.9187V32.04H29.0062V26.3025ZM29.1187 26.415V31.9275H30.8062V26.415H29.1187Z" fill="black"/>
<path d="M29.4788 26.3588H30.4913V31.9838H29.4788V26.3588ZM37.5225 26.3588H39.3225V31.9838H37.5225V26.3588Z" fill="white"/>
<path fill-rule="evenodd" clip-rule="evenodd" d="M29.4225 26.3025H30.5475V32.04H29.4225V26.3025ZM29.535 26.415V31.9275H30.435V26.415H29.535ZM37.4663 26.3025H39.3788V32.04H37.4663V26.3025ZM37.5788 26.415V31.9275H39.2663V26.415H37.5788Z" fill="black"/>
<path d="M37.9163 26.3588H38.9288V31.9838H37.9163V26.3588Z" fill="white"/>
<path fill-rule="evenodd" clip-rule="evenodd" d="M37.86 26.3025H38.985V32.04H37.86V26.3025ZM37.9725 26.415V31.9275H38.8725V26.415H37.9725Z" fill="black"/>
<path fill-rule="evenodd" clip-rule="evenodd" d="M40.875 25.8413H19.1625V25.7288H40.875V25.8413ZM22.0875 27.1125H21.0525V27H22.0875V27.1125ZM30.4575 27.1125H29.49V27H30.4575V27.1125ZM38.94 27.1125H37.905V27H38.94V27.1125ZM22.0875 27.81H21.0525V27.6975H22.0875V27.81ZM30.4575 27.81H29.49V27.6975H30.4575V27.81ZM38.94 27.81H37.905V27.6975H38.94V27.81ZM22.0875 28.5188H21.0525V28.4063H22.0875V28.5188ZM30.4575 28.5188H29.49V28.4063H30.4575V28.5188ZM38.94 28.5188H37.905V28.4063H38.94V28.5188ZM22.0875 29.2163H21.0525V29.1038H22.0875V29.2163ZM30.4575 29.2163H29.49V29.1038H30.4575V29.2163ZM38.94 29.2163H37.905V29.1038H38.94V29.2163ZM22.0875 29.925H21.0525V29.8125H22.0875V29.925ZM30.4575 29.925H29.49V29.8125H30.4575V29.925ZM38.94 29.925H37.905V29.8125H38.94V29.925ZM22.0875 30.6225H21.0525V30.51H22.0875V30.6225ZM30.4575 30.6225H29.49V30.51H30.4575V30.6225ZM38.94 30.6225H37.905V30.51H38.94V30.6225ZM22.0875 31.3313H21.0525V31.2188H22.0875V31.3313ZM30.4575 31.3313H29.49V31.2188H30.4575V31.3313ZM38.94 31.3313H37.905V31.2188H38.94V31.3313Z" fill="black"/>
</g>
<defs>
<clipPath id="clip0_4_5125">
<rect width="60" height="45" fill="white"/>
</clipPath>
</defs>
</svg>
