<svg width="60" height="45" viewBox="0 0 60 45" fill="none" xmlns="http://www.w3.org/2000/svg">
<g clip-path="url(#clip0_4_16359)">
<path d="M0 0H60V45H0V0Z" fill="#EE1C25"/>
<path d="M7.20003 16.65L11.25 4.5L15.2999 16.65L4.50006 9.225H17.9999L7.20003 16.65Z" fill="#FFFF00"/>
<path d="M24.766 4.73287L20.5981 5.65651L23.3783 2.41682L23.1056 6.77701L20.7927 2.91693L24.766 4.73287Z" fill="#FFFF00"/>
<path d="M28.9724 10.0638L24.7726 9.29862L28.5916 7.39078L26.6492 11.3039L26.0144 6.84893L28.9724 10.0638Z" fill="#FFFF00"/>
<path d="M28.3594 17.5429L24.8367 15.1313L29.1018 14.9469L25.7323 17.7276L26.9697 13.4011L28.3594 17.5429Z" fill="#FFFF00"/>
<path d="M23.0615 22.4288L20.7436 18.8438L24.7489 20.321L20.5669 21.5845L23.3792 18.0716L23.0615 22.4288Z" fill="#FFFF00"/>
</g>
<defs>
<clipPath id="clip0_4_16359">
<rect width="60" height="45" fill="white"/>
</clipPath>
</defs>
</svg>
