<svg width="60" height="45" viewBox="0 0 60 45" fill="none" xmlns="http://www.w3.org/2000/svg">
<g clip-path="url(#clip0_4_16316)">
<path d="M0 0H60V45H0V0Z" fill="#0021AD"/>
<path d="M0 0H60V45L0 0Z" fill="#1C8A42"/>
<path d="M30 27.9188C32.9927 27.9188 35.4188 25.4927 35.4188 22.5C35.4188 19.5074 32.9927 17.0813 30 17.0813C27.0073 17.0813 24.5813 19.5074 24.5813 22.5C24.5813 25.4927 27.0073 27.9188 30 27.9188Z" fill="#FFC639"/>
<path d="M26.6906 20.0625C27.0656 20.5782 27.6281 21.4313 28.0781 21.2063C28.425 21.2063 28.6125 21.2344 28.6594 21.4688C29.2465 21.5269 29.8387 21.4343 30.3801 21.1997C30.9215 20.9651 31.394 20.5963 31.7531 20.1282C31.7531 20.1282 31.8281 20.1282 31.8 19.7063C31.8 19.5188 32.0625 19.5563 32.0625 19.6125C32.1 19.7063 32.1 19.7719 32.1469 19.7813C32.2406 19.7438 32.4 19.5 32.5219 19.35C32.55 19.2844 32.5313 19.2094 32.5406 19.125C32.6063 18.9657 32.7656 19.0032 32.8031 19.0875L32.8594 19.2375C33.0281 19.35 33.3281 19.2375 33.3469 19.2375C33.375 19.1063 33.4594 19.125 33.4594 19.125C33.5719 19.0969 33.525 19.1063 33.6 19.1438C33.5344 19.8657 33.7406 19.8938 33.7219 20.2688C33.7313 20.6813 33.6 20.7938 33.6 20.9532C33.6375 21.1407 34.2563 21.15 34.0313 21.3188C33.8438 21.4125 34.0313 21.6 33.75 21.675C32.925 22.0969 32.775 22.4532 32.775 22.4532C32.775 22.4532 32.5688 22.8469 32.5406 22.8469C32.4 23.1094 32.2313 22.9594 32.1281 23.0907C32.0813 23.25 32.0344 23.6063 32.1281 23.7844C32.175 24.0375 32.1281 24.1782 32.0625 24.4313C32.0063 24.9563 31.8 25.0407 31.7719 25.2188C31.6781 25.425 31.7906 26.3438 31.6969 26.3438C31.0875 26.3625 30.6188 26.2313 30.375 26.1844C30.6094 25.1625 30.5156 24.2719 30.5156 24.1782C30.4594 23.4469 29.4281 23.625 29.2688 23.5219C29.1375 23.5032 29.0531 23.4 29.0156 23.3532C28.8656 23.3344 28.8094 23.2969 28.6688 23.2875C28.5938 23.325 28.6406 23.3625 28.4813 23.4094C28.0594 23.4563 27.8813 23.0532 27.8813 23.0532C27.9 22.9125 26.9531 23.0813 26.4469 22.9594C26.2313 23.0813 26.1375 23.4282 25.9688 23.4657C25.9688 23.5688 25.6875 23.3719 25.6313 23.2782C25.6125 22.9594 25.8938 22.8282 25.8938 22.8282C26.1188 22.6688 26.25 22.6407 26.3625 22.5375C26.4094 22.2657 26.3813 22.0688 26.5031 21.8719C26.5969 21.7125 26.7375 21.7782 26.8313 21.7219C26.9344 21.6469 26.9813 21.1969 26.8875 21.0657L26.4469 20.6719C26.3156 20.2875 26.6063 20.0344 26.6906 20.0625V20.0625Z" fill="#1C8A42"/>
<path d="M52.6781 13.35C52.4344 12.3844 50.2406 10.2844 48.5812 8.95316C48.1875 8.69066 47.925 8.85004 47.9812 9.23441C48.1875 9.57191 48.3375 9.94691 48.5437 10.2938C48.6 10.5282 48.7125 10.6875 48.7687 10.9125C48.7687 10.9125 48.7875 11.3063 48.825 11.3438C49.3312 11.9063 49.4062 12.3844 49.4062 12.3844C49.6647 12.9388 50.0312 13.4361 50.4844 13.8469C51.0656 14.2125 50.6344 15.3469 50.6531 15.9563C50.6531 16.3313 50.3812 16.2938 50.1375 16.2375C48.2531 14.5032 46.3781 14.5032 44.7187 13.9969C44.0812 13.9313 44.0625 14.2407 44.2781 14.4094C45.3113 15.5603 46.5557 16.5023 47.9437 17.1844L48.6656 17.6344L49.4906 18.3188C50.1281 18.7313 50.175 19.1063 50.175 19.1438C50.1937 19.9125 49.7812 20.5125 49.6594 20.7563C49.4437 21.5719 49.0031 21.7125 49.0031 21.7125C45.4781 24.0938 43.6219 24.7125 37.9031 23.9719C37.8094 23.9344 37.2656 24.0188 37.9031 24.2532C39.3562 24.7407 42.9375 25.5188 46.3969 23.8782C47.2406 23.2969 47.7844 23.4844 48.3937 23.1282C49.2504 22.5977 50.1362 22.1157 51.0469 21.6844C51.825 21.2625 53.9812 20.8032 54.4781 20.3907C55.05 20.3438 55.6406 20.2688 55.6781 19.7813C55.8656 19.6594 56.1469 19.7532 56.3531 19.35C56.8031 19.2657 56.7281 19.1063 56.7281 19.1063C56.6156 18.7875 56.1844 18.6563 55.8844 18.4219C55.4344 18.2719 55.1344 18.2344 54.8062 18.3844L54.4969 18.525C54.4969 18.525 54.0187 18.4594 54.0187 18.4219C52.95 18.3657 53.0531 14.8313 52.6781 13.3594V13.35Z" fill="#FFC639"/>
<path d="M55.1812 19.1437C55.1737 19.1649 55.1597 19.1838 55.1401 19.1993C55.1204 19.2148 55.0955 19.2267 55.0666 19.2342C55.0378 19.2418 55.0057 19.2449 54.9721 19.2433C54.9385 19.2417 54.9041 19.2355 54.8709 19.2251C54.8377 19.2146 54.8062 19.2001 54.7784 19.1823C54.7506 19.1645 54.7269 19.1439 54.7087 19.1215C54.6905 19.0992 54.6781 19.0756 54.6724 19.052C54.6666 19.0285 54.6675 19.0055 54.675 18.9844C54.6902 18.9417 54.7314 18.9091 54.7896 18.8939C54.8478 18.8786 54.9182 18.8819 54.9853 18.903C55.0525 18.9242 55.1108 18.9614 55.1476 19.0065C55.1843 19.0517 55.1964 19.101 55.1812 19.1437V19.1437Z" fill="#1C8A42"/>
<path d="M11.292 18.96L10.524 18.24L9.75 18.948L9.834 17.904L8.79601 17.736L9.66601 17.148L9.15 16.236L10.152 16.554L10.542 15.582L10.92 16.56L11.922 16.26L11.394 17.16L12.258 17.76L11.22 17.91L11.292 18.954V18.96Z" fill="white"/>
<path d="M14.004 27.6301L13.176 27.0841L12.372 27.6601L12.66 26.7301L11.844 26.1601L12.84 26.1361L13.14 25.2061L13.476 26.1241L14.478 26.1181L13.68 26.7001L13.998 27.6241L14.004 27.6301Z" fill="white"/>
</g>
<defs>
<clipPath id="clip0_4_16316">
<rect width="60" height="45" fill="white"/>
</clipPath>
</defs>
</svg>
