<svg width="60" height="45" viewBox="0 0 60 45" fill="none" xmlns="http://www.w3.org/2000/svg">
<g clip-path="url(#clip0_4_16420)">
<path d="M0 0H60V45H0V0Z" fill="#008000"/>
<path d="M30 28.7531C33.4535 28.7531 36.2531 25.9535 36.2531 22.5C36.2531 19.0464 33.4535 16.2468 30 16.2468C26.5465 16.2468 23.7469 19.0464 23.7469 22.5C23.7469 25.9535 26.5465 28.7531 30 28.7531Z" fill="#FFE000"/>
<path d="M31.95 27.6469C34.7925 27.6469 37.0969 25.3426 37.0969 22.5C37.0969 19.6575 34.7925 17.3531 31.95 17.3531C29.1074 17.3531 26.8031 19.6575 26.8031 22.5C26.8031 25.3426 29.1074 27.6469 31.95 27.6469Z" fill="#008000"/>
<path d="M10.2938 22.7906C13.9078 22.7906 16.8375 19.8609 16.8375 16.2469C16.8375 12.6329 13.9078 9.70312 10.2938 9.70312C6.67974 9.70312 3.75 12.6329 3.75 16.2469C3.75 19.8609 6.67974 22.7906 10.2938 22.7906Z" fill="#FFE000"/>
<path d="M9.84375 21.1875H11.4844C11.4844 21.1875 11.55 21.0375 11.4656 20.9625C11.3719 20.8875 11.025 20.8688 11.1187 20.6063C11.3062 20.0625 11.3438 20.2313 11.4656 18.9375C11.5548 17.8298 11.6173 16.7201 11.6531 15.6094H11.4094C11.4094 15.6094 11.4562 16.2375 11.3156 17.0625C11.1844 17.8875 11.1375 17.9531 10.9875 18.5906C10.9168 18.9494 10.8133 19.3009 10.6781 19.6406C10.5469 20.0156 10.5281 20.025 10.3219 20.3719C10.1062 20.7094 10.1813 20.5781 10.0688 20.7844C10.0031 20.8875 9.9375 20.8594 9.89062 20.9344C9.85312 21.0094 9.84375 21.1875 9.84375 21.1875V21.1875Z" fill="#802000"/>
<path fill-rule="evenodd" clip-rule="evenodd" d="M11.3336 15.5391H11.7258L11.7234 15.6116C11.6876 16.7235 11.625 17.8343 11.5357 18.9431L11.5357 18.9441C11.4748 19.5902 11.4346 19.8769 11.3849 20.0706C11.3598 20.1685 11.3325 20.2419 11.3004 20.3238C11.2953 20.3366 11.2902 20.3497 11.2849 20.363C11.2565 20.4347 11.2242 20.5161 11.1852 20.6292L11.185 20.6299C11.1666 20.6813 11.1727 20.7107 11.1826 20.7296C11.194 20.7514 11.2172 20.7722 11.2553 20.7928C11.2908 20.812 11.3312 20.827 11.3738 20.8427C11.3769 20.8439 11.38 20.845 11.3832 20.8462L11.3843 20.8466C11.4248 20.8616 11.4757 20.8805 11.5096 20.9076L11.511 20.9087L11.5124 20.9099C11.581 20.9709 11.5832 21.0575 11.5764 21.1118C11.5728 21.1407 11.5661 21.1662 11.5604 21.1842C11.5575 21.1933 11.5548 21.2007 11.5527 21.2061C11.5517 21.2088 11.5508 21.211 11.5501 21.2126L11.5493 21.2146L11.549 21.2152L11.5489 21.2155L11.5489 21.2156C11.5488 21.2156 11.5488 21.2157 11.4844 21.1875L11.5488 21.2157L11.5304 21.2578H9.84377V21.1875C9.77356 21.1838 9.77356 21.1838 9.77356 21.1838L9.77357 21.1836L9.7736 21.1831L9.7737 21.1814L9.77409 21.1751C9.77444 21.1697 9.77498 21.1621 9.77575 21.1528C9.77728 21.1341 9.77973 21.1083 9.78343 21.08C9.79035 21.0269 9.80303 20.9524 9.82776 20.9029L9.82925 20.8999L9.83102 20.8971C9.86361 20.845 9.90579 20.8244 9.93398 20.8106C9.93652 20.8094 9.93894 20.8082 9.94124 20.807C9.965 20.7951 9.9853 20.7839 10.0083 20.7485C10.0545 20.6637 10.0696 20.6351 10.0863 20.6075C10.11 20.5681 10.137 20.5307 10.262 20.335C10.2878 20.2916 10.3105 20.2538 10.3308 20.22C10.3923 20.1174 10.4313 20.0524 10.4654 19.985C10.51 19.8969 10.5463 19.8046 10.6118 19.6174L10.6123 19.616L10.6128 19.6146C10.7464 19.2789 10.8487 18.9316 10.9185 18.577L10.9188 18.5758L10.9191 18.5745C10.9613 18.3949 10.9953 18.2609 11.0253 18.1429C11.1021 17.8399 11.1521 17.6428 11.2462 17.0515L11.2463 17.0507C11.3159 16.6423 11.3392 16.2825 11.345 16.025C11.3479 15.8963 11.3464 15.7932 11.3442 15.7226C11.3432 15.6872 11.3419 15.66 11.3409 15.6417C11.3404 15.6326 11.34 15.6257 11.3397 15.6211L11.3394 15.6161L11.3393 15.6149L11.3393 15.6146L11.3336 15.5391ZM11.4835 15.6797C11.4839 15.6913 11.4844 15.7042 11.4848 15.7183C11.487 15.7912 11.4885 15.8967 11.4856 16.0281C11.4796 16.2909 11.456 16.6575 11.385 17.0739C11.2899 17.6715 11.2384 17.8747 11.161 18.1798C11.1312 18.2972 11.0976 18.4296 11.0563 18.6055C10.9849 18.9676 10.8804 19.3223 10.744 19.6652C10.6786 19.8522 10.6399 19.9518 10.5909 20.0486C10.5543 20.1208 10.5119 20.1916 10.4492 20.296C10.4291 20.3294 10.407 20.3663 10.3823 20.4078L10.3818 20.4088L10.3812 20.4097C10.253 20.6103 10.2275 20.6454 10.2052 20.6825C10.1898 20.7082 10.1759 20.7348 10.1305 20.818L10.1294 20.8201L10.1281 20.8221C10.0859 20.8884 10.0409 20.9144 10.0041 20.9328C10.0026 20.9335 10.0012 20.9343 9.99984 20.935C9.97181 20.9489 9.96222 20.9537 9.95212 20.9688C9.93997 20.9953 9.92974 21.0455 9.92287 21.0982C9.92202 21.1047 9.92125 21.111 9.92054 21.1172H11.4329C11.4345 21.11 11.4359 21.1023 11.4369 21.0944C11.4417 21.0561 11.4351 21.0305 11.4202 21.0163C11.407 21.0064 11.3803 20.9951 11.3343 20.978C11.3307 20.9767 11.3271 20.9754 11.3234 20.974C11.2827 20.959 11.2331 20.9407 11.1885 20.9165C11.1398 20.8903 11.0881 20.8525 11.0579 20.7946C11.0262 20.7339 11.0241 20.6627 11.0524 20.583C11.0925 20.4669 11.1259 20.3826 11.1543 20.3109C11.1595 20.2976 11.1646 20.2848 11.1695 20.2723C11.2009 20.1924 11.2258 20.1253 11.2487 20.0357C11.2952 19.8544 11.3346 19.5787 11.3956 18.9314C11.4827 17.8491 11.5444 16.7649 11.5805 15.6797H11.4835Z" fill="#7B3100"/>
<path d="M11.0906 11.4844C11.1121 11.7765 11.0738 12.07 10.9781 12.3469C10.8482 12.6365 10.775 12.9484 10.7625 13.2656C10.5938 13.3219 10.4156 12.9 10.2469 13.1531C10.3688 13.5 10.6594 13.7719 10.8469 14.0812C10.8844 14.175 11.1656 14.4281 10.9969 14.4844C10.5938 14.3438 10.4906 13.8281 10.2469 13.5187C10.1042 13.2519 9.89596 13.0259 9.64173 12.8618C9.38749 12.6978 9.09566 12.6012 8.79376 12.5812C8.55939 12.5906 7.81876 12.5344 8.00626 12.9281C8.28751 13.1156 8.64376 13.2469 8.92501 13.4625C9.14064 13.4813 9.51564 13.8375 9.49689 13.9688C9.12189 13.8187 8.95314 13.6406 8.55939 13.4813C8.01564 13.275 7.27501 13.3969 6.96564 13.9313C6.91876 14.0719 6.83439 14.475 7.01251 14.5219C7.21876 14.2031 7.50939 13.8375 7.94064 13.9406C8.27814 13.9687 7.56564 14.5688 7.83751 14.4469C7.93126 14.4094 8.11876 14.2781 8.26876 14.2594C8.40939 14.2594 8.48439 14.3531 8.58751 14.3719C8.80314 14.4 8.86876 14.4844 8.84064 14.5406C8.82189 14.5969 8.74689 14.5406 8.53126 14.6156C8.42814 14.6531 8.37189 14.7469 8.25001 14.7938C8.11876 14.8313 7.85626 14.8406 7.76251 14.7938C7.41564 14.6531 6.85314 14.6719 6.75001 15.1031C6.75001 15.2906 6.58126 15.0844 6.50626 15.1688C6.44064 15.375 6.43126 15.5813 6.13126 15.5625C5.94376 15.75 5.75626 15.9562 5.51251 16.0969C5.65314 16.4156 6.19689 15.7781 6.16876 16.05C5.93439 16.3781 6.30001 16.4437 6.45001 16.1906C6.72189 15.9094 7.05939 15.5625 7.45314 15.8531C7.64064 16.0313 7.75314 15.7594 7.89376 15.7594C7.98751 15.9938 8.09064 15.7781 8.19376 15.7125C8.35314 15.6938 8.30626 15.9188 8.49376 15.7781C8.87814 15.525 9.34689 15.7406 9.72189 15.4969C10.125 15.3094 9.77814 15.6375 9.67501 15.7687C9.49689 16.1062 9.64689 16.5563 9.27189 16.7625C9.11251 17.1656 9.45001 17.7 9.11251 18C9.06564 18.1875 9.54376 18.1688 9.67501 18.2438C9.91876 18.2438 9.67501 17.7 9.90939 17.625C10.2281 17.8125 10.2094 17.2687 10.1438 17.1C10.1813 16.725 10.2 16.2938 10.3875 15.9469C10.5938 15.525 10.7813 16.125 10.5563 16.2938C10.425 16.6781 10.2375 17.175 10.5281 17.5406C10.6219 17.5594 10.6875 17.7656 10.7906 17.8219C10.9031 17.8875 11.0531 17.8125 11.0719 17.625C11.2219 17.0625 11.1469 16.4625 11.3531 15.9094C11.4938 15.7406 11.6906 15.8813 11.775 16.0406C12.0563 16.3688 12.2531 16.7719 12.5906 17.0438C12.9101 17.1744 13.1704 17.418 13.3219 17.7281C13.3219 17.9719 14.0156 18.0094 13.8094 17.7281C13.6125 17.475 13.7438 17.2031 13.9406 17.025C14.0531 17.0531 14.025 16.8563 13.9406 16.9313C13.8 16.9031 13.7906 16.65 13.9781 16.7719C14.3063 16.875 13.9594 16.5375 13.8375 16.5281C13.5656 16.3594 13.2563 16.1719 13.125 15.8719C13.4813 15.8719 13.8469 16.0687 14.2031 15.9562C14.4938 15.8062 14.7844 15.9563 14.8875 16.2188C15.1125 16.1812 15.0188 15.9562 14.8875 15.8812C15.0469 15.8156 15.1688 15.675 14.9625 15.5531C14.8688 15.4219 15.1031 15.1781 14.8031 15.1969C14.8125 14.9625 14.7281 14.7562 14.475 14.6719C14.2219 14.4656 13.4813 14.9906 13.5094 14.5125C13.4344 14.25 13.8094 14.475 13.9125 14.3438C14.0156 14.0625 13.3969 14.1 13.6031 13.875C13.7344 13.8 14.3625 13.6781 13.875 13.5844C13.7648 13.6167 13.6488 13.6242 13.5353 13.6064C13.4219 13.5885 13.3138 13.5458 13.2188 13.4813C13.0406 13.7719 12.5438 13.3125 12.6281 13.8375C12.5625 14.0344 12.1125 14.55 11.9906 14.1562C12.0844 13.8469 12.6281 13.7531 12.4594 13.3312C12.4313 13.0781 12.2156 13.3781 12.1219 13.3594C12.0656 13.2 12.2719 13.0031 12.4219 12.9656C12.7031 13.1906 12.7031 12.6844 12.9844 12.7313C13.1813 12.6844 12.9188 12.6 12.8625 12.5625C12.9188 12.4219 13.2281 12.3469 12.9281 12.2156C12.6563 12.0281 12.4594 12.4125 12.2438 12.4313C12.0375 12.1969 12.4313 12.0844 12.5438 11.9625C12.5531 11.8687 12.3188 11.9344 12.3844 11.85C12.45 11.7469 12.8719 11.7375 12.6656 11.5688C12.3504 11.4726 12.0112 11.4925 11.7094 11.625C11.5219 11.6813 11.475 12.0938 11.3156 12.075C11.25 11.8875 11.3438 11.5312 11.0906 11.4844V11.4844ZM12.4969 15.45C12.7219 15.4125 12.4969 15.7969 12.4031 15.7875C12.4031 15.6562 12.0656 15.6656 12.2813 15.5438C12.3472 15.5003 12.4201 15.4686 12.4969 15.45V15.45Z" fill="#008000"/>
<path d="M45.0056 30.36L45.4188 31.6447L46.6808 31.1666L45.9343 32.2912L47.0952 32.98L45.7498 33.0972L45.9349 34.4343L45.0056 33.4556L44.0757 34.4337L44.2609 33.0972L42.9161 32.9794L44.0769 32.2906L43.3298 31.166L44.5919 31.6441L45.0056 30.36Z" fill="#FFE000"/>
<path d="M37.5047 18.4835L37.9179 19.7682L39.1799 19.2902L38.4334 20.4147L39.5943 21.1035L38.2488 21.2208L38.434 22.5578L37.5047 21.5791L36.5748 22.5572L36.76 21.2208L35.4152 21.1029L36.576 20.4141L35.8289 19.2896L37.091 19.7676L37.5047 18.4835Z" fill="#FFE000"/>
<path d="M45.0056 10.3575L45.4188 11.6422L46.6808 11.1642L45.9343 12.2887L47.0952 12.9775L45.7498 13.0948L45.9349 14.4319L45.0056 13.4532L44.0757 14.4313L44.2609 13.0948L42.9161 12.9769L44.0769 12.2881L43.3298 11.1636L44.5919 11.6416L45.0056 10.3575Z" fill="#FFE000"/>
<path d="M51.6732 16.4833L52.0863 17.768L53.3484 17.2899L52.6019 18.4145L53.7627 19.1032L52.4173 19.2205L52.6024 20.5576L51.6732 19.5789L50.7433 20.557L50.9284 19.2205L49.5836 19.1027L50.7445 18.4139L49.9974 17.2893L51.2594 17.7674L51.6732 16.4833Z" fill="#FFE000"/>
<path d="M48.006 22.502L48.3329 23.3026L49.1949 23.3658L48.5341 23.9242L48.7406 24.7635L48.006 24.3075L47.2714 24.7641L47.4774 23.9247L46.8166 23.3663L47.6798 23.3032L48.006 22.502Z" fill="#FFE000"/>
</g>
<defs>
<clipPath id="clip0_4_16420">
<rect width="60" height="45" fill="white"/>
</clipPath>
</defs>
</svg>
