<svg width="60" height="45" viewBox="0 0 60 45" fill="none" xmlns="http://www.w3.org/2000/svg">
<g clip-path="url(#clip0_4_16312)">
<path d="M0 0H60V45H0V0Z" fill="white"/>
<path d="M28.8563 37.3687C28.8489 37.3636 28.8426 37.3573 28.8375 37.35H28.8281L28.7063 37.2187L28.35 36.7969L27.8906 36.2062L27.8344 36.1219L27.2531 35.9437L26.8219 35.7469L27.0469 35.4937L27.8344 35.8219L28.4156 35.9437L29.4938 36.7406L29.1844 37.0125C29.0743 37.1151 28.9709 37.2247 28.875 37.3406L28.9406 37.2937L29.0156 37.35L28.8656 37.3687H28.8563ZM24.8625 36.1687C24.3339 36.164 23.8161 36.0184 23.3625 35.7469C23.3625 35.7469 23.4281 35.625 23.5781 35.5219C23.7281 35.4094 23.9906 35.2875 24.4219 35.2781C24.9281 35.2781 25.5469 35.4562 26.25 35.7844C25.8299 36.0324 25.3504 36.162 24.8625 36.1594V36.1687ZM22.6594 35.6812C22.5656 35.6812 22.4719 35.6437 22.4156 35.5875C22.3625 35.5226 22.3269 35.4451 22.3125 35.3625C22.2876 35.2582 22.2781 35.1508 22.2844 35.0437C22.3235 35.0298 22.3648 35.0235 22.4063 35.025C22.5938 35.025 22.7438 35.1844 22.8094 35.3437C22.8469 35.4375 22.8563 35.5125 22.8281 35.5781C22.8094 35.6344 22.7344 35.6719 22.6594 35.6719V35.6812ZM26.5313 35.2312C25.2281 35.0437 24.675 34.575 24.4406 34.2094C24.1969 33.825 24.2531 33.4594 24.2531 33.4594C24.2531 33.4594 24.3281 33.4406 24.4406 33.4406C24.7969 33.4406 25.6781 33.6187 26.5313 35.2219V35.2312ZM23.8594 34.9687C23.3063 34.9687 22.8844 34.875 22.6031 34.6875C22.4829 34.6119 22.3856 34.505 22.3219 34.3781C22.3018 34.3303 22.2891 34.2797 22.2844 34.2281C22.4981 34.139 22.7278 34.0943 22.9594 34.0969C23.294 34.1089 23.6229 34.1871 23.927 34.3271C24.2312 34.4671 24.5045 34.6661 24.7313 34.9125C24.4125 34.95 24.1219 34.9687 23.8594 34.9687V34.9687ZM21.1688 34.875C20.5875 34.875 19.7813 34.6875 19.275 34.1906C19.275 34.1906 19.8281 34.05 20.4375 34.0312H20.55C21.1031 34.0312 21.525 34.1344 21.8063 34.35C21.9 34.425 21.9563 34.4906 21.9656 34.5562C21.975 34.6125 21.9469 34.6687 21.8906 34.7156C21.7594 34.8094 21.5344 34.8656 21.2156 34.8656H21.1688V34.875ZM19.2656 33.8906C19.2294 33.8899 19.1937 33.8811 19.1613 33.8649C19.1288 33.8487 19.1004 33.8254 19.0781 33.7969C19.0389 33.741 19.0133 33.6768 19.0031 33.6094C18.975 33.4781 18.9844 33.3469 18.9844 33.3375C19.0139 33.3246 19.0459 33.3182 19.0781 33.3187C19.1625 33.3187 19.2281 33.3656 19.2656 33.4125C19.3226 33.4646 19.3674 33.5286 19.3969 33.6C19.4156 33.6844 19.425 33.75 19.3969 33.8062C19.3969 33.8437 19.3406 33.9 19.275 33.9L19.2656 33.8906ZM23.6625 33.7969C23.5688 33.7969 23.475 33.7594 23.4188 33.7031C23.3656 33.6382 23.3301 33.5607 23.3156 33.4781C23.2907 33.3738 23.2812 33.2664 23.2875 33.1594C23.3266 33.1455 23.3679 33.1391 23.4094 33.1406C23.5969 33.1406 23.7563 33.3 23.8125 33.4594C23.85 33.5531 23.8594 33.6281 23.8406 33.6937C23.8125 33.75 23.7469 33.7875 23.6531 33.7875L23.6625 33.7969ZM21.525 33.7031C20.3438 33.6656 19.725 33.3281 19.425 33.0469C19.2943 32.9338 19.1861 32.797 19.1063 32.6437C19.0594 32.55 19.0406 32.475 19.0406 32.4562C19.0406 32.4375 19.1531 32.4187 19.3219 32.4187H19.3594C19.7531 32.4187 20.5688 32.5875 21.5156 33.7031H21.525ZM22.8 33.5906C22.1253 33.5172 21.4979 33.2086 21.0281 32.7187C20.8552 32.5295 20.7242 32.3059 20.6438 32.0625C20.6438 32.0625 20.7563 32.0344 20.925 32.025C20.9562 32.0239 20.9875 32.0239 21.0188 32.025C21.4875 32.0344 22.3594 32.25 22.8 33.5906ZM17.925 33.1218C17.6255 33.1246 17.3267 33.0931 17.0344 33.0281C16.5375 32.8968 16.3219 32.7094 16.2281 32.5687C16.1898 32.5124 16.1642 32.4484 16.1531 32.3812C16.1502 32.3563 16.1502 32.3311 16.1531 32.3062C16.1531 32.3062 16.4813 32.2125 16.9406 32.2031C17.1732 32.1972 17.4058 32.2161 17.6344 32.2594C18.1126 32.3601 18.5386 32.6297 18.8344 33.0187C18.8344 33.0187 18.4594 33.1312 17.925 33.1312V33.1218ZM20.1281 32.3344C20.0847 32.3355 20.0416 32.3278 20.0013 32.3117C19.961 32.2955 19.9244 32.2714 19.8938 32.2406C19.8406 32.1757 19.8051 32.0982 19.7906 32.0156C19.7531 31.8656 19.7625 31.7156 19.7625 31.6969C19.798 31.6809 19.8361 31.6713 19.875 31.6687H19.8844C20.0719 31.6687 20.2219 31.8375 20.2875 31.9968C20.325 32.0906 20.325 32.1656 20.3063 32.2219C20.2781 32.2875 20.2125 32.325 20.1281 32.325V32.3344ZM18.4781 32.1C18.1616 32.0102 17.8588 31.8778 17.5781 31.7062C17.1656 31.4531 16.65 31.0031 16.5938 30.3L16.6875 30.2906H16.7156C16.8375 30.2906 17.0906 30.3187 17.4 30.5531C17.7938 30.8531 18.15 31.3781 18.4781 32.1V32.1ZM19.5563 32.0625C19.2977 31.9448 19.0577 31.79 18.8438 31.6031C18.2951 31.1295 17.8676 30.5317 17.5969 29.8594C17.5969 29.8594 17.6813 29.8125 17.8125 29.8031C17.8188 29.8029 17.825 29.8029 17.8313 29.8031H17.8688C18.0563 29.8031 18.3281 29.8875 18.6281 30.2156C18.9844 30.5906 19.2938 31.2094 19.5656 32.0625H19.5563ZM16.7531 31.9781C16.3875 31.9781 16.2656 31.7906 16.2281 31.6969C16.1918 31.6078 16.1789 31.511 16.1906 31.4156C16.2522 31.402 16.3151 31.3957 16.3781 31.3969C16.4946 31.3932 16.6103 31.4167 16.716 31.4655C16.8218 31.5143 16.9147 31.5871 16.9875 31.6781C17.0063 31.7156 17.0625 31.8094 17.0156 31.8937C16.9781 31.95 16.8938 31.9875 16.7531 31.9875V31.9781ZM15.9563 30.9656C15.6736 30.9687 15.3913 30.9467 15.1125 30.9C14.7938 30.8437 14.6156 30.5719 14.5125 30.3469C14.4188 30.1125 14.3813 29.8781 14.3813 29.8781C15.375 29.9062 15.8531 30.1969 16.0688 30.4406C16.2049 30.5807 16.2907 30.7621 16.3125 30.9562C16.3125 30.9562 16.1625 30.975 15.9563 30.975V30.9656ZM16.9875 29.9343C16.9074 29.8318 16.8323 29.7254 16.7625 29.6156C16.6406 29.4281 16.5375 29.2406 16.5375 29.0906C16.5375 28.9312 16.5 28.6218 16.4813 28.4343L16.425 28.0125C16.4531 28.0125 17.0438 28.2375 17.0438 28.8C17.0438 29.3625 16.9875 29.925 16.9875 29.925V29.9343ZM16.2188 29.8781H16.2C15.5569 29.6855 14.971 29.3378 14.4938 28.8656C14.3344 28.6781 14.2313 28.3781 14.2031 27.9844C14.1844 27.7031 14.2031 27.4687 14.2031 27.4406C14.2367 27.4317 14.2716 27.4285 14.3063 27.4312C14.4375 27.4312 14.5875 27.4875 14.775 27.6187C14.949 27.742 15.1122 27.88 15.2625 28.0312C15.5625 28.3312 15.7969 28.6312 15.7969 28.6312C15.825 28.6687 15.9844 28.9781 16.125 29.2781C16.1908 29.4159 16.2411 29.5605 16.275 29.7094C16.2844 29.7656 16.2938 29.8031 16.275 29.8406C16.2706 29.8561 16.2605 29.8695 16.2469 29.8781C16.2345 29.8809 16.2217 29.8809 16.2094 29.8781H16.2188Z" fill="#435125"/>
<path d="M48.6562 7.16248L48.4875 7.2281L48.4125 7.25623L48.2062 7.24685L48 7.3406L47.6437 7.58435L47.6344 7.59373L47.4937 7.63123L47.3719 7.57498L47.3062 7.61248L47.2781 7.7531L47.2125 7.85623L47.1281 7.91248L46.8469 7.9406L46.6125 8.07185L46.2937 7.9781L46.1531 8.04373L45.8437 8.32498L45.6844 8.3906H45.6375L45.4219 8.38123L45.3375 8.40935L45.2062 8.53123L44.9625 8.54998L44.8781 8.60623L44.7562 8.84998L44.625 8.99998L44.55 9.00935L44.475 8.98123L44.4094 8.9906L44.3812 9.14998L44.325 9.2156L44.1562 9.27185L44.025 9.38435L43.9031 9.4406H43.7156L43.5562 9.53435L43.2656 9.5531L43.1437 9.6656L43.1156 9.69373L43.0594 9.72185L42.9656 9.7781L42.9469 9.79685L42.8344 9.7781L42.7031 9.82498L42.6469 9.74998L42.5531 9.79685L42.4406 9.80623L42.2906 9.7406L42.1687 9.68435L42.0844 9.7031L42.0562 9.84373V9.86248L41.9625 9.97498L41.8031 10.0781L41.7844 10.1062L41.5969 10.35L41.2406 10.725L40.9406 10.875L40.6312 10.9687L40.4156 11.1469L39.8531 11.4281L38.9437 11.8781L38.7562 11.9344L38.4937 11.9719L38.025 12.15L37.6125 12.2718L37.5844 12.2812L37.5094 12.3094L36.9187 12.4875L36.6469 12.45L36.4875 12.5156L36.0656 12.4687H35.775L35.5875 12.5062L35.2406 12.675L34.65 12.9562L34.4625 13.1437L34.1625 13.2937L33.8062 13.4062V13.2562L33.6844 13.2937L33.5906 13.3219L33.3094 13.3594H33.15L33.0469 13.3312H33.0281L32.4469 13.5281L31.7906 13.5937L31.4625 13.6969H31.2187L31.0687 13.7437L30.7687 13.7812L30.6562 13.7531L30.6375 13.7437L29.7562 13.7812L29.3531 13.7344L29.1656 13.7812L28.8375 13.6687L28.3687 13.6125L28.2562 13.5843L28.0125 13.5094L27.9 13.575L27.8062 13.5843L27.6187 13.5094H27.5437L27.375 13.5656L27.2812 13.5469L27.1875 13.4719L26.9906 13.4437L26.8594 13.3406L26.1562 13.4344L25.9687 13.3781L25.3219 13.1906H25.2281L25.0969 13.2844L24.9094 13.3594L24.7312 13.3968L24.5062 13.4062L24.2437 13.3406L23.9812 13.2093L23.8781 13.1812L23.6531 13.2093H23.5875L23.175 12.9937L22.65 12.6656L22.2937 12.4875L22.1531 12.4687L22.1344 12.5344L22.2 12.7406L22.2281 12.9562V13.1437L22.2187 13.2656L22.2469 13.3687L22.3781 13.5187L22.4344 13.6594L22.4719 14.0531V14.4562L22.4062 15.0937L22.3875 15.1875L22.3125 15.525L22.2469 15.8343L21.975 16.65L21.9094 16.7437L21.7219 16.8656L21.3187 17.1468L21.0187 17.3156L20.925 17.3531L20.6812 17.3719H20.5312L20.3437 17.2687L20.1562 17.2219L19.9125 17.0437L19.65 16.9875L19.35 16.8187L19.275 16.725L19.1156 16.7062L18.8906 16.6406L18.8062 16.6125L18.75 16.6031L18.4687 16.5937L18.1969 16.4719L18.0562 16.4344H17.8687L17.6719 16.5281L17.5687 16.5656L17.4375 16.5187H17.3437L17.25 16.6781L17.2312 16.7062L17.1562 16.7437H16.9969L16.9219 16.7718L16.8187 16.8187L16.725 16.8562L16.6781 16.875H16.65L16.6031 16.8937H16.5469L16.4344 16.8375L16.3781 16.8094L16.2844 16.7906L16.2375 16.8187L16.2281 16.9969L16.1812 17.1L16.0312 17.2312L15.8812 17.3625L15.7875 17.5125L15.5062 18.1406L15.3281 18.3937L15.2812 18.4593L15.0937 18.6562L14.9344 18.7781L14.5687 19.0594L14.2219 19.2L13.9219 19.2562H13.7719L13.4906 19.2187L13.2469 19.1437L12.9656 18.975L12.675 18.7312L12.2344 18.3094L12.1781 18.2718L12.1594 18.2625L12.0281 18.1687H11.925L11.8875 18.2437L11.8594 18.3375L11.8406 18.4219L11.7937 18.8906V18.9187L11.8219 19.1156L12.1594 19.5844L12.2531 19.8281L12.2719 19.8562L12.3375 19.9687L12.3937 20.0625L12.5156 20.4L12.4312 20.5875L12.4687 20.7187L12.375 20.7937L12.3562 20.9062L12.6469 21.2812L12.7125 21.4406L12.6469 21.6656L12.525 21.7969L12.4969 21.825L12.5156 21.9187L12.6469 22.05L12.8812 22.2562L13.0031 22.5562L13.0969 22.65L13.2094 22.6219L13.2656 22.6687H13.3594L13.4531 22.7625L13.5094 22.7812L13.6031 22.8281L13.6781 22.9219L13.6875 23.2218L13.8281 23.5781V23.8125L13.9219 23.9531L13.9406 24.0656L13.8937 24.375L14.0062 24.4687L14.1187 24.45L14.1937 24.4594L14.3156 24.5625L14.4656 24.7875L14.6156 24.7687L14.7094 24.8062L15.15 25.2094L15.2437 25.2656L15.3281 25.3031L15.4219 25.3969L15.5531 25.3031H15.5719L15.7219 25.2844L15.7875 25.3312L15.9187 25.4156H16.0781L16.4531 25.5281L16.6031 25.5656L16.9219 25.7625L17.0625 25.8469L17.1375 25.9125L17.25 26.0062L17.4562 26.1L17.6437 26.1375L17.7375 26.1562L17.8219 26.1844L18.2156 26.3437L18.4312 26.3906L18.6187 26.4656L18.7687 26.5125H18.8812L19.0312 26.3906H19.1719L19.2937 26.4094L19.4156 26.3906L19.6031 26.2781L19.6312 26.2219L19.7625 26.1656L20.2125 26.1094L20.3437 26.1469L20.6812 26.0062L20.9062 26.0625L21.0937 25.9969L21.5344 26.0906L21.6469 26.175L21.7781 26.3156H21.9375L21.8719 26.4187L22.0594 26.625L22.2375 26.8781L22.2469 26.9156L22.3687 27.2812L22.4625 27.4125L22.5281 27.5906V27.7031L22.4344 27.7875L22.4156 27.825V27.8437L22.4344 27.8906L22.4719 27.8719L22.5375 27.8344L22.6312 27.8156L22.7812 27.8344L22.8844 27.8437L23.0437 27.7687L23.1562 27.7125L23.325 27.7875H23.5125L23.5969 27.8156L23.8219 27.9187L23.9344 27.9281L23.9719 27.9L24 27.8437L23.9906 27.7687L23.8969 27.6656L23.7094 27.4406L23.6344 27.3281L23.5781 27.1687L23.5594 26.9625L23.5406 26.8219L23.5687 26.6344L23.6156 26.5687L23.6531 26.4187L23.6625 26.3812L23.775 26.2406L24.0562 26.0531L24.3562 25.7906L24.5906 25.6312L24.8344 25.5281V25.5L24.8719 25.5094L25.4906 25.2937L25.7719 25.2469L27.6469 25.3781L27.7125 25.3594L27.7781 25.1812L27.8062 25.1531L27.8344 25.1344L28.0406 25.0406L28.1344 25.0219L28.3969 25.0875L28.5094 25.1156L28.6875 25.0219H28.8094L29.0625 24.8812H29.2219L29.2875 24.8625L29.5969 24.6375L29.8875 24.5531L29.9625 24.5156L29.9906 24.4969L30.3 24.3375L30.4875 24.1875L30.6562 24.0937L30.8437 24.0562L31.3125 24.0187L31.4156 23.8594L31.6219 23.8312L31.7437 23.6906L31.8844 23.6344L31.9875 23.4844L32.0812 23.3625L32.1937 23.2969L32.5781 23.2687L33.0281 23.325L33.0937 23.2875L33.1875 22.9219L33.3 22.8562L33.5812 22.4344V22.2843L33.5906 22.1531L33.6375 21.9656L33.6094 21.6469L33.6469 21.3094L33.825 20.8875L33.9844 20.7187L34.2375 20.5406L34.3687 20.4844L34.5562 20.4562H34.575L34.6219 20.4375H35.4844L35.7 20.4281L36.2344 20.5219H36.2719L36.45 20.5875L36.6562 20.7469L36.8812 20.9625L36.9187 21L37.0594 21.0656L37.1062 21.0844L37.2187 21.0656L37.3875 20.9718L37.5187 20.8781L37.6875 20.7843V20.7656L37.7906 20.625L37.8281 20.5594L38.1656 20.4281L38.5594 20.4093L38.6062 20.3812H38.625L38.7281 20.25H38.8219L39.0656 20.3437L39.225 20.3062L39.3562 20.3531L39.4594 20.3437L39.6469 20.3156L39.8625 20.4656L39.9844 20.4844L40.4062 20.7281H40.4437L40.4625 20.7375L40.5094 20.7187L40.5844 20.7H40.5937L40.6031 20.7094L40.6594 20.775L40.725 20.7843L40.8 20.6906L40.7719 20.6344L40.7625 20.6156L40.6031 20.5875L40.4719 20.3531L40.6031 20.2125L40.3969 19.9687L40.3594 19.9219V19.9125L40.2844 19.8L39.9281 19.2562L39.4594 18.8812L39.3 18.7594L39.2437 18.7125L38.9906 18.4593L38.8125 18.225L38.7937 18.1781L38.7562 18.0937L38.6531 17.8687L38.4656 17.7281L38.3156 17.5594L37.9969 17.1281L37.95 17.0625L37.875 17.0156H37.7156L37.7062 16.9969H37.6969V16.9875L37.7719 16.9125L37.8656 16.8937L37.8937 16.8094L37.7344 16.35V16.3312L37.725 16.1906L37.8469 15.525L37.8656 15.4406L38.0906 15L38.2219 14.8875L38.3719 14.5969L38.5031 14.4094L38.625 14.2875L38.6437 14.2781L38.8594 14.1468L39.0469 14.1187L39.225 14.0906L39.5344 14.1844H39.8156L39.8812 14.175L40.0125 14.1562L40.2281 14.0906L40.3312 14.025L40.3875 13.95L40.5 13.575L40.5375 13.4531L40.6031 13.3219L41.0062 12.8625L41.3062 12.5812L41.9812 12.0937L42.3094 11.8969L42.4781 11.7937L43.9875 11.1187L44.3812 10.725L44.5875 10.5187L44.9437 10.275L45.3656 10.0969L45.7406 9.8156L45.8156 9.71248L45.9094 9.38435L46.0031 9.3656L46.0687 9.20623L46.0969 9.15935L46.3875 8.9531L46.425 8.93435L47.5781 8.3531L47.7469 8.38123L47.8406 8.2406L48.1687 8.18435H48.2344L48.3188 8.13748L48.3844 8.0156V7.98748L48.3937 7.66873L48.4687 7.58435L48.5063 7.3781L48.5437 7.32185L48.5812 7.27498L48.675 7.20935L48.6562 7.17185V7.16248Z" fill="#D47600"/>
</g>
<defs>
<clipPath id="clip0_4_16312">
<rect width="60" height="45" fill="white"/>
</clipPath>
</defs>
</svg>
