<svg width="60" height="45" viewBox="0 0 60 45" fill="none" xmlns="http://www.w3.org/2000/svg">
<g clip-path="url(#clip0_4_8323)">
<path d="M0 30H60V45H0V30Z" fill="black"/>
<path d="M0 15H60V30H0V15Z" fill="white"/>
<path d="M0 0H60V15H0V0Z" fill="#CE1126"/>
<path d="M30.06 22.68L35.1975 27.4501L34.83 18.7875C34.7775 17.475 33.6375 17.7751 32.805 18.2476C31.9725 18.7876 31.005 18.7876 30 18.4351C28.9875 18.7876 28.0275 18.7876 27.195 18.2476C26.37 17.7751 25.2225 17.475 25.17 18.7875L24.8025 27.4501L30.06 22.68V22.68Z" fill="white"/>
<path fill-rule="evenodd" clip-rule="evenodd" d="M25.8892 17.7996C26.301 17.7685 26.8049 17.968 27.2193 18.2053C27.22 18.2057 27.2208 18.2062 27.2216 18.2067C28.0375 18.7359 28.9806 18.7384 29.984 18.3891C29.9944 18.3854 30.0058 18.3854 30.0162 18.3891C31.012 18.7384 31.9626 18.7359 32.7785 18.2067C32.7793 18.2062 32.7801 18.2057 32.781 18.2052C33.1989 17.968 33.7029 17.7685 34.1137 17.7996C34.3213 17.8153 34.5081 17.8903 34.6456 18.0514C34.7824 18.2116 34.8654 18.451 34.8787 18.7856L35.2462 27.448C35.2471 27.4678 35.2359 27.4861 35.218 27.4944C35.2 27.5026 35.1788 27.4993 35.1644 27.4858L30.0597 22.7463L24.8353 27.4862C24.8207 27.4994 24.7997 27.5026 24.7818 27.4942C24.764 27.4859 24.753 27.4677 24.7538 27.448L25.1213 18.7856C25.1213 18.7856 25.1213 18.7856 25.1213 18.7856C25.1347 18.4509 25.2182 18.2115 25.3556 18.0513C25.4937 17.8902 25.6812 17.8153 25.8892 17.7996ZM30.06 22.6801L30.0932 22.6444L35.1438 27.3337L34.7813 18.7897L34.7813 18.7895C34.7685 18.4679 34.6892 18.2526 34.5715 18.1147C34.4545 17.9777 34.2944 17.9111 34.1063 17.8968C33.7263 17.868 33.2446 18.0543 32.8303 18.2893C31.986 18.8363 31.008 18.8367 30 18.4867C28.9847 18.8366 28.014 18.8364 27.1696 18.2892C26.7593 18.0544 26.2775 17.868 25.8965 17.8968C25.708 17.9111 25.5471 17.9777 25.4296 18.1148C25.3113 18.2527 25.2316 18.468 25.2187 18.7895L25.2187 18.7897L24.8562 27.3356L30.0273 22.644L30.06 22.6801Z" fill="#C09300"/>
<path d="M25.7625 18.4875L25.4025 26.91L24.8025 27.45L25.17 18.7875C25.3472 18.6517 25.5481 18.5499 25.7625 18.4875V18.4875ZM26.4825 19.0875L26.1825 26.1375L25.5825 26.7525L25.9425 18.615C26.0625 18.735 26.415 19.0275 26.4825 19.0875ZM27.135 19.6275L26.9025 25.5075L26.415 25.98L26.715 19.275C26.835 19.3875 27.075 19.56 27.135 19.6275ZM27.8475 19.9275L27.615 24.9375L27.1425 25.32L27.375 19.7475C27.495 19.8 27.7275 19.9275 27.8475 19.9275ZM28.5075 19.9275L28.335 24.105L27.8475 24.5776L28.035 19.98C28.1475 19.98 28.455 19.98 28.5075 19.9275Z" fill="#C09300"/>
<path d="M30.24 23.625L30.96 26.91L30.72 27.15L30.4725 26.9625L30.0675 24.0375L30.24 26.9625L30 27.2625L29.7675 26.9625L29.94 24.0375L29.5275 26.9625L29.28 27.15L29.04 26.91L29.76 23.6325H30.24V23.625Z" fill="#C09300"/>
<path fill-rule="evenodd" clip-rule="evenodd" d="M29.7268 23.5913H30.24V23.6206L30.2803 23.6162L31.0051 26.9233L30.7238 27.2046L30.434 26.9851L30.1704 25.0813L30.2821 26.976L29.9995 27.3292L29.7254 26.9756L29.839 25.0489L29.566 26.9852L29.2763 27.2046L28.9949 26.9233L29.7268 23.5913ZM30.2085 23.6738H29.7932L29.0851 26.8969L29.2838 27.0955L29.489 26.94L29.8992 24.0318L29.9812 24.04L29.8096 26.9495L30.0005 27.1959L30.1979 26.9492L30.0263 24.04L30.1084 24.0319L30.511 26.94L30.7163 27.0955L30.9149 26.8968L30.2085 23.6738Z" fill="#C09300"/>
<path d="M28.3876 22.1851L26.9551 27.2626L28.9276 27.5626L29.7601 23.7451L28.3876 22.1851Z" fill="white"/>
<path fill-rule="evenodd" clip-rule="evenodd" d="M28.3776 22.1411C28.3936 22.1375 28.4104 22.1429 28.4213 22.1553L29.7938 23.7153C29.8033 23.726 29.807 23.7406 29.804 23.7546L28.9715 27.5721C28.9664 27.5953 28.9442 27.6106 28.9208 27.607L26.9483 27.307C26.9355 27.3051 26.9242 27.2977 26.9172 27.2869C26.9102 27.276 26.9082 27.2627 26.9117 27.2503L28.3442 22.1728C28.3487 22.1569 28.3615 22.1448 28.3776 22.1411ZM28.4084 22.2768L27.0122 27.2257L28.8926 27.5117L29.7112 23.7577L28.4084 22.2768Z" fill="#C09300"/>
<path fill-rule="evenodd" clip-rule="evenodd" d="M29.0512 23.4879L28.1212 24.3729C28.1096 24.3839 28.0933 24.3886 28.0776 24.3853C28.0619 24.382 28.0488 24.3712 28.0426 24.3564L27.8701 23.9439L27.9601 23.9062L28.1053 24.2534L28.984 23.4172L29.0512 23.4879Z" fill="#C09300"/>
<path fill-rule="evenodd" clip-rule="evenodd" d="M28.7066 24.7027L28.5116 22.8802L28.6086 22.8699L28.7905 24.5703L29.3088 23.8881L29.3864 23.947L29.1645 24.2392L29.404 25.0745L29.5169 24.9032L29.5983 24.9569L29.4394 25.198L29.4769 25.3291L29.3832 25.356L29.3687 25.3053L28.9513 25.9385L29.1553 26.8999L29.0599 26.9202L28.8743 26.0451L28.4884 26.6367C28.4781 26.6524 28.4598 26.6609 28.4411 26.6584C28.4225 26.6559 28.407 26.6429 28.4012 26.625L28.2011 26.0055L27.8216 26.6207C27.8114 26.6372 27.7923 26.6461 27.7731 26.6433C27.7538 26.6405 27.7381 26.6265 27.733 26.6078L27.4255 25.4678C27.421 25.4511 27.4257 25.4333 27.4377 25.421L28.0527 24.791C28.0649 24.7785 28.0829 24.7735 28.0998 24.7779C28.1167 24.7822 28.13 24.7953 28.1346 24.8121L28.2957 25.3985L28.6785 24.8859C28.6901 24.8703 28.7099 24.8631 28.7288 24.8676C28.7477 24.8721 28.7621 24.8873 28.7656 24.9065L28.9256 25.8003L29.3333 25.1818L29.0909 24.3361L28.7939 24.727C28.7818 24.743 28.7613 24.7499 28.742 24.7445C28.7228 24.7392 28.7087 24.7226 28.7066 24.7027ZM28.8462 25.9096L28.6894 25.0343L28.3141 25.5367C28.303 25.5517 28.2843 25.5589 28.266 25.5555C28.2477 25.552 28.233 25.5384 28.2281 25.5205L28.0631 24.9199L27.5269 25.4692L27.7978 26.4735L28.1736 25.8645C28.1836 25.8483 28.2021 25.8394 28.2209 25.8417C28.2398 25.8439 28.2556 25.857 28.2615 25.8751L28.4626 26.4978L28.8462 25.9096Z" fill="#C09300"/>
<path fill-rule="evenodd" clip-rule="evenodd" d="M27.7805 26.5395C27.7989 26.5425 27.814 26.5558 27.8193 26.5737L28.0428 27.3298L28.3457 26.825C28.3556 26.8086 28.3741 26.7995 28.3931 26.8016C28.4121 26.8038 28.428 26.8169 28.4339 26.8351L28.6664 27.5551L28.5736 27.5851L28.3741 26.9672L28.0693 27.4752C28.0594 27.4917 28.0406 27.5009 28.0214 27.4984C28.0022 27.496 27.9863 27.4824 27.9808 27.4639L27.7543 26.6978L27.4148 27.1782L27.3352 27.1219L27.7327 26.5594C27.7435 26.5442 27.762 26.5364 27.7805 26.5395Z" fill="#C09300"/>
<path d="M30 29.535C31.5 29.535 32.925 29.415 33.765 29.1825C34.1175 29.115 34.1175 28.935 34.1175 28.695C34.4775 28.575 34.2975 28.155 34.545 28.155C34.29 28.23 34.245 27.7425 33.945 27.8025C33.945 27.3825 33.5175 27.33 33.165 27.45C32.4525 27.6825 31.1925 27.7425 30 27.7425C28.8 27.6825 27.555 27.6825 26.835 27.4425C26.4825 27.33 26.0625 27.3825 26.0625 27.8025C25.7625 27.7425 25.71 28.2225 25.4625 28.155C25.71 28.155 25.5225 28.5825 25.8825 28.695C25.8825 28.935 25.8825 29.115 26.2425 29.1825C27.0675 29.415 28.5075 29.535 30 29.535V29.535Z" fill="white"/>
<path fill-rule="evenodd" clip-rule="evenodd" d="M26.2872 27.3378C26.4612 27.2776 26.6757 27.2972 26.8624 27.3568L26.8635 27.3572L26.8635 27.3572C27.2117 27.4733 27.6929 27.5328 28.2437 27.5703C28.583 27.5934 28.9435 27.6078 29.3114 27.6226C29.5399 27.6318 29.7713 27.641 30.0023 27.6526C31.1962 27.6525 32.4403 27.5917 33.1366 27.3647C33.3239 27.301 33.5401 27.2795 33.7159 27.3385C33.8054 27.3685 33.8867 27.4204 33.9453 27.5002C33.9883 27.5587 34.0164 27.6287 34.0284 27.7092C34.087 27.7155 34.1379 27.7382 34.1819 27.7697C34.2449 27.8148 34.2942 27.8787 34.3333 27.9296L34.3347 27.9314C34.3771 27.9867 34.4078 28.0267 34.4406 28.0517C34.4555 28.0631 34.4688 28.07 34.4831 28.0722C34.5029 28.0673 34.5236 28.0651 34.5451 28.0651C34.5898 28.0651 34.6278 28.098 34.6341 28.1423C34.6405 28.1865 34.6134 28.2288 34.5705 28.2414C34.5511 28.2471 34.5325 28.2506 34.5145 28.2521C34.5115 28.2545 34.5075 28.2587 34.5026 28.2672C34.4891 28.291 34.4808 28.3234 34.4677 28.3751C34.4655 28.3837 34.4632 28.3928 34.4607 28.4026C34.4449 28.4635 34.423 28.5402 34.3762 28.6101C34.3374 28.6682 34.2833 28.719 34.2074 28.7556C34.2065 28.8529 34.1998 28.9571 34.1531 29.0455C34.0915 29.1621 33.9736 29.2337 33.7856 29.2703C32.9331 29.5055 31.4999 29.6251 30.0001 29.6251C28.5082 29.6251 27.06 29.5056 26.222 29.2703C26.0311 29.2338 25.9112 29.1627 25.8484 29.0462C25.8007 28.9578 25.7937 28.8537 25.7927 28.7567C25.717 28.7212 25.6632 28.671 25.6248 28.6128C25.5785 28.5428 25.5576 28.4653 25.5429 28.4039C25.5404 28.3935 25.538 28.3837 25.5359 28.3745C25.5238 28.3232 25.5161 28.2908 25.503 28.2668C25.4977 28.2571 25.4935 28.2529 25.4907 28.251C25.474 28.2497 25.4568 28.2468 25.4389 28.2419C25.3954 28.23 25.3674 28.1878 25.3734 28.1431C25.3793 28.0984 25.4175 28.0651 25.4626 28.0651C25.4819 28.0651 25.5007 28.0669 25.5187 28.0709C25.5331 28.0687 25.547 28.0617 25.5633 28.049C25.5953 28.0241 25.6254 27.9856 25.6662 27.9335C25.6682 27.9311 25.6701 27.9286 25.672 27.9261C25.7119 27.8753 25.762 27.8123 25.8256 27.768C25.8698 27.7372 25.9208 27.7151 25.9792 27.7091C25.991 27.6289 26.0185 27.5591 26.0607 27.5007C26.1184 27.4207 26.1986 27.3685 26.2872 27.3378ZM25.6684 28.1952C25.6897 28.2401 25.7021 28.294 25.7124 28.3383C25.7143 28.3465 25.7161 28.3544 25.7179 28.3619C25.7322 28.4214 25.7474 28.4719 25.775 28.5137C25.8005 28.5523 25.8393 28.5873 25.9094 28.6092C25.947 28.6209 25.9726 28.6557 25.9726 28.6951C25.9726 28.822 25.9748 28.9014 26.0068 28.9608C26.0335 29.0104 26.0924 29.0629 26.2592 29.0941C26.2618 29.0946 26.2644 29.0952 26.267 29.096C27.0795 29.3249 28.5092 29.4451 30.0001 29.4451C31.4982 29.4451 32.9132 29.325 33.7411 29.0958C33.7434 29.0952 33.7458 29.0946 33.7481 29.0942C33.9106 29.0631 33.9677 29.0111 33.9939 28.9615C34.0254 28.9018 34.0276 28.8219 34.0276 28.6951C34.0276 28.6563 34.0524 28.622 34.0891 28.6097C34.16 28.5861 34.2 28.5499 34.2266 28.5101C34.2551 28.4674 34.2711 28.4167 34.2864 28.3576C34.2882 28.3504 34.2901 28.3428 34.2921 28.3349C34.3026 28.2926 34.3153 28.2416 34.3358 28.1981C34.3343 28.197 34.3328 28.1959 34.3313 28.1947C34.2788 28.1546 34.2347 28.0969 34.1986 28.0498C34.1959 28.0462 34.1932 28.0427 34.1906 28.0393C34.149 27.9852 34.1149 27.9432 34.0771 27.9161C34.0439 27.8923 34.0098 27.8814 33.9627 27.8908C33.9363 27.8961 33.9089 27.8893 33.888 27.8722C33.8672 27.8551 33.8551 27.8295 33.8551 27.8026C33.8551 27.7133 33.8326 27.6508 33.8002 27.6067C33.7676 27.5623 33.7201 27.5298 33.6586 27.5092C33.5327 27.4669 33.3592 27.4791 33.1941 27.5353L33.193 27.5356L33.193 27.5356C32.4647 27.7733 31.1902 27.8326 30.0001 27.8326C29.9986 27.8326 29.9971 27.8325 29.9956 27.8325C29.7679 27.8211 29.5374 27.8118 29.3086 27.8026C28.9382 27.7878 28.5726 27.7731 28.2315 27.7499C27.68 27.7124 27.1789 27.652 26.8072 27.5282C26.6416 27.4754 26.47 27.4651 26.346 27.5079C26.2856 27.5289 26.2388 27.5615 26.2067 27.606C26.1747 27.6503 26.1526 27.713 26.1526 27.8026C26.1526 27.8295 26.1405 27.8551 26.1196 27.8722C26.0988 27.8893 26.0714 27.8961 26.0449 27.8908C25.9973 27.8813 25.9623 27.8921 25.9285 27.9157C25.8902 27.9424 25.8554 27.9839 25.8137 28.0372C25.8105 28.0413 25.8072 28.0455 25.8038 28.0498C25.7679 28.0959 25.7243 28.1517 25.6738 28.1911C25.672 28.1925 25.6702 28.1938 25.6684 28.1952Z" fill="#C09300"/>
<path d="M27.9675 27.2625C28.4475 27.33 28.9875 27.3825 29.4075 27.33C29.6475 27.33 29.82 27.7425 29.34 27.8025C28.9275 27.855 28.2675 27.8025 27.915 27.7425C27.4511 27.6613 26.9908 27.5612 26.535 27.4425C26.115 27.2625 26.415 26.9175 26.655 26.9625C27.0832 27.0997 27.5223 27.2 27.9675 27.2625V27.2625ZM32.0325 27.2625C31.5525 27.33 31.0125 27.3825 30.6075 27.33C30.3525 27.33 30.18 27.7425 30.66 27.8025C31.08 27.855 31.7325 27.8025 32.085 27.7425C32.385 27.6825 33.045 27.57 33.465 27.4425C33.885 27.2625 33.585 26.9175 33.345 26.9625C32.9169 27.0997 32.4778 27.2001 32.0325 27.2625V27.2625Z" fill="white"/>
<path fill-rule="evenodd" clip-rule="evenodd" d="M26.551 27.3963C26.4546 27.3544 26.407 27.3064 26.3869 27.2643C26.3672 27.2231 26.3705 27.1805 26.391 27.1403C26.412 27.0991 26.4509 27.0613 26.4985 27.0365C26.5452 27.0122 26.5967 27.002 26.6433 27.01C27.0731 27.1475 27.5139 27.2481 27.9608 27.3108M26.551 27.3963C27.0042 27.5143 27.462 27.6138 27.9234 27.6945C28.2735 27.7541 28.9281 27.8058 29.3339 27.7542L29.334 27.7542C29.4475 27.74 29.5152 27.7058 29.5526 27.6688C29.5889 27.6328 29.6003 27.5908 29.5954 27.5495C29.585 27.4622 29.5024 27.3805 29.4104 27.3788C28.9839 27.4315 28.4397 27.3782 27.9608 27.3108M26.4535 26.95C26.5165 26.9172 26.5913 26.901 26.6641 26.9146C26.666 26.915 26.668 26.9155 26.6699 26.9161C27.0955 27.0525 27.5318 27.1522 27.9743 27.2143L27.9676 27.2626L27.9744 27.2143C28.4542 27.2818 28.9885 27.3333 29.4015 27.2817C29.4035 27.2814 29.4055 27.2813 29.4076 27.2813C29.5544 27.2813 29.6765 27.4051 29.6922 27.5381C29.7005 27.6074 29.68 27.6798 29.6212 27.7381C29.5634 27.7952 29.4727 27.8351 29.3462 27.8509C28.927 27.9043 28.2618 27.851 27.9069 27.7906L27.9067 27.7906C27.4415 27.7091 26.9798 27.6088 26.5228 27.4897C26.5204 27.4891 26.5181 27.4883 26.5159 27.4874C26.4045 27.4396 26.3329 27.3776 26.2989 27.3063C26.2642 27.2336 26.2721 27.1589 26.3041 27.0961C26.3356 27.0342 26.3905 26.9828 26.4535 26.95ZM33.7013 27.3063C33.6672 27.3776 33.5957 27.4396 33.4843 27.4874C33.4826 27.4881 33.4809 27.4887 33.4792 27.4892C33.1427 27.5914 32.6534 27.684 32.3178 27.7475C32.2315 27.7638 32.1554 27.7782 32.0946 27.7904L32.0932 27.7906C31.7383 27.851 31.0806 27.9043 30.654 27.8509C30.5276 27.8351 30.4367 27.7953 30.3791 27.738C30.3204 27.6795 30.3004 27.6069 30.3099 27.5373C30.3281 27.4032 30.4549 27.2813 30.6076 27.2813C30.6097 27.2813 30.6118 27.2814 30.6138 27.2817C31.0116 27.3333 31.5458 27.2818 32.0258 27.2143L32.0326 27.2626L32.0258 27.2143C32.4683 27.1522 32.9047 27.0525 33.3302 26.9161C33.3321 26.9155 33.3341 26.915 33.3361 26.9146C33.4088 26.901 33.4836 26.9172 33.5467 26.95C33.6096 26.9828 33.6645 27.0342 33.696 27.0961C33.728 27.1589 33.736 27.2336 33.7013 27.3063ZM32.0393 27.3108C31.5607 27.3781 31.0164 27.4315 30.6046 27.3788C30.5036 27.3804 30.4182 27.464 30.4065 27.5504C30.4009 27.5913 30.4119 27.6331 30.4479 27.6689C30.485 27.7058 30.5526 27.74 30.6661 27.7542C31.0793 27.8058 31.726 27.7542 32.0762 27.6946C32.1387 27.6821 32.2161 27.6675 32.3033 27.6509C32.6383 27.5875 33.1176 27.4968 33.4483 27.3967C33.5453 27.3547 33.5931 27.3065 33.6133 27.2643C33.6329 27.2231 33.6296 27.1805 33.6091 27.1403C33.5881 27.0991 33.5493 27.0613 33.5016 27.0365C33.4549 27.0122 33.4034 27.002 33.3569 27.01C32.927 27.1475 32.4863 27.2482 32.0394 27.3108" fill="#C09300"/>
<path d="M26.475 27.0301C26.115 26.9626 25.95 27.3826 26.0625 27.6226C26.115 27.5026 26.3625 27.5026 26.415 27.3826C26.4825 27.2026 26.3625 27.2026 26.4825 27.0301H26.475ZM27.915 28.1326C27.915 27.8926 28.1475 27.9226 28.1475 27.6826C28.1475 27.5701 28.0875 27.3826 27.9675 27.3826C27.905 27.3862 27.846 27.4126 27.8018 27.4568C27.7575 27.5011 27.7311 27.5601 27.7275 27.6226C27.675 27.8551 27.915 27.8926 27.915 28.1326V28.1326ZM29.6175 27.4501C29.97 27.4501 29.9325 27.9226 29.7675 28.1626C29.7675 27.9901 29.4675 27.9226 29.4675 27.8026C29.4675 27.6226 29.7375 27.6226 29.6175 27.4501ZM33.5175 27.0301C33.885 26.9626 34.0575 27.3826 33.9375 27.6226C33.885 27.5026 33.6375 27.5026 33.585 27.3826C33.5175 27.2026 33.6375 27.2026 33.5175 27.0301V27.0301ZM32.1 28.1251C32.1 27.8851 31.86 27.9151 31.86 27.6751C31.86 27.5626 31.92 27.3751 32.04 27.3751C32.1025 27.3787 32.1615 27.4051 32.2057 27.4493C32.25 27.4936 32.2764 27.5526 32.28 27.6151C32.3325 27.8476 32.0925 27.8851 32.0925 28.1251H32.1ZM30.375 27.4501C30.0225 27.4501 30.06 27.9226 30.225 28.1626C30.225 27.9901 30.525 27.9226 30.525 27.8026C30.525 27.6226 30.255 27.6226 30.375 27.4501Z" fill="white"/>
<path fill-rule="evenodd" clip-rule="evenodd" d="M26.4795 26.9813C26.2777 26.9454 26.1292 27.0467 26.0493 27.1868C25.9705 27.325 25.9545 27.5068 26.0184 27.6432C26.0266 27.6606 26.0441 27.6715 26.0632 27.6713C26.0823 27.671 26.0996 27.6596 26.1072 27.6421C26.1146 27.6253 26.1301 27.6094 26.1574 27.5931C26.1849 27.5767 26.2186 27.5631 26.2569 27.5478L26.2588 27.547C26.295 27.5326 26.3355 27.5164 26.3702 27.4956C26.4058 27.4744 26.4408 27.4453 26.4597 27.4021C26.4601 27.4013 26.4604 27.4005 26.4607 27.3996C26.4794 27.3499 26.4858 27.3104 26.486 27.276C26.4861 27.2493 26.4822 27.2257 26.4792 27.2079C26.4785 27.2037 26.4779 27.1998 26.4773 27.1963C26.4745 27.1772 26.4737 27.1625 26.4782 27.1442C26.483 27.125 26.4946 27.0981 26.5226 27.0579C26.533 27.043 26.5342 27.0235 26.5258 27.0075C26.5174 26.9914 26.5007 26.9813 26.4826 26.9813H26.4795ZM26.4015 27.0716C26.2788 27.0709 26.1886 27.1393 26.134 27.2351C26.0832 27.3241 26.0656 27.433 26.0828 27.5257C26.0908 27.5198 26.0991 27.5144 26.1074 27.5094C26.1422 27.4887 26.1827 27.4725 26.2188 27.458L26.2207 27.4573C26.2591 27.4419 26.2928 27.4283 26.3202 27.4119C26.3469 27.396 26.3624 27.3804 26.3699 27.364C26.3846 27.3245 26.3884 27.2969 26.3885 27.2756C26.3885 27.2579 26.3863 27.2442 26.3836 27.2274C26.3827 27.2222 26.3818 27.2167 26.3809 27.2107C26.3772 27.1857 26.3747 27.1567 26.3836 27.1209C26.3874 27.1052 26.3933 27.0889 26.4015 27.0716ZM33.5176 27.03L33.4775 27.0579C33.5056 27.0981 33.5172 27.125 33.5219 27.1442C33.5264 27.1625 33.5256 27.1772 33.5228 27.1963C33.5223 27.1998 33.5216 27.2037 33.5209 27.2079C33.518 27.2257 33.5141 27.2493 33.5142 27.276C33.5143 27.3104 33.5208 27.3499 33.5394 27.3996C33.5397 27.4005 33.5401 27.4013 33.5404 27.4021C33.5593 27.4453 33.5944 27.4744 33.6299 27.4956C33.6647 27.5164 33.7052 27.5326 33.7413 27.547L33.7432 27.5478C33.7816 27.5631 33.8153 27.5767 33.8427 27.5931C33.87 27.6094 33.8856 27.6253 33.8929 27.6421C33.9005 27.6594 33.9174 27.6708 33.9363 27.6713C33.9552 27.6717 33.9727 27.6613 33.9812 27.6443C34.0497 27.5072 34.0334 27.3247 33.9525 27.1863C33.8697 27.045 33.7158 26.944 33.5088 26.9821L33.5176 27.03ZM33.8683 27.2356C33.8132 27.1414 33.722 27.0731 33.5987 27.0716C33.6069 27.0889 33.6127 27.1052 33.6166 27.1209C33.6254 27.1567 33.6229 27.1857 33.6192 27.2107C33.6183 27.2167 33.6174 27.2222 33.6166 27.2274C33.6138 27.2442 33.6116 27.2579 33.6117 27.2756C33.6118 27.2969 33.6155 27.3245 33.6302 27.364C33.6377 27.3804 33.6532 27.396 33.6799 27.4119C33.7074 27.4283 33.7411 27.4419 33.7794 27.4573L33.7813 27.458C33.8175 27.4725 33.858 27.4887 33.8927 27.5094C33.9016 27.5147 33.9105 27.5206 33.9191 27.527C33.9382 27.4344 33.9207 27.325 33.8683 27.2356ZM31.9488 27.5044C31.9223 27.5582 31.9088 27.6257 31.9088 27.675C31.9088 27.726 31.9213 27.7598 31.9385 27.7863C31.9567 27.8144 31.9814 27.8364 32.0122 27.8633L32.014 27.8649C32.0387 27.8866 32.0675 27.9117 32.0917 27.9439C32.1121 27.9077 32.1361 27.8772 32.1579 27.8496C32.1612 27.8454 32.1644 27.8413 32.1676 27.8372C32.1943 27.803 32.2151 27.7741 32.2273 27.7418C32.2389 27.7111 32.2436 27.6749 32.2325 27.6258C32.2319 27.6232 32.2316 27.6205 32.2314 27.6178C32.2285 27.5673 32.2071 27.5196 32.1713 27.4838C32.1359 27.4483 32.0888 27.427 32.0388 27.4238C32.008 27.4244 31.976 27.4491 31.9488 27.5044ZM32.1456 28.0757C32.1578 28.0079 32.1947 27.9606 32.2368 27.9069C32.2394 27.9037 32.2419 27.9005 32.2444 27.8972C32.2711 27.863 32.3005 27.8239 32.3185 27.7763C32.3368 27.728 32.3426 27.6736 32.3285 27.6082C32.3233 27.5353 32.292 27.4666 32.2403 27.4148C32.1876 27.3621 32.1173 27.3306 32.0429 27.3264C32.0423 27.3263 32.0418 27.3263 32.0413 27.3263C32.0409 27.3263 32.0405 27.3263 32.0401 27.3263C31.9513 27.3263 31.8937 27.3955 31.8613 27.4613C31.8278 27.5294 31.8113 27.6118 31.8113 27.675C31.8113 27.7441 31.8289 27.7965 31.8567 27.8394C31.8829 27.8798 31.9173 27.9099 31.9461 27.9351L31.948 27.9367C31.9787 27.9636 32.0034 27.9857 32.0217 28.0137C32.0327 28.0307 32.0418 28.0508 32.0469 28.0764C32.0449 28.0918 32.0438 28.108 32.0438 28.125C32.0438 28.152 32.0656 28.1738 32.0926 28.1738H32.1001C32.127 28.1738 32.1488 28.152 32.1488 28.125C32.1488 28.1075 32.1477 28.0911 32.1456 28.0757ZM27.9648 27.3339C27.9657 27.3338 27.9666 27.3338 27.9676 27.3338C28.0564 27.3338 28.1139 27.403 28.1463 27.4688C28.1798 27.5369 28.1963 27.6193 28.1963 27.6825C28.1963 27.7513 28.1794 27.8035 28.1525 27.8463C28.1271 27.8867 28.0938 27.9168 28.0658 27.9421L28.064 27.9437C28.0342 27.9706 28.0103 27.9926 27.9927 28.0207C27.976 28.0472 27.9638 28.0813 27.9638 28.1325H27.8663C27.8663 28.0363 27.8224 27.9803 27.7708 27.9144C27.7683 27.9112 27.7658 27.908 27.7632 27.9047C27.7365 27.8705 27.7071 27.8314 27.6891 27.7838C27.6709 27.7355 27.6651 27.6811 27.6792 27.6157C27.6843 27.5428 27.7156 27.4741 27.7674 27.4223C27.8201 27.3696 27.8903 27.3381 27.9648 27.3339ZM27.9186 27.9561C27.8977 27.9179 27.8725 27.8859 27.8498 27.8571C27.8465 27.8529 27.8432 27.8488 27.8401 27.8447C27.8133 27.8105 27.7925 27.7816 27.7803 27.7493C27.7687 27.7186 27.764 27.6824 27.7751 27.6333C27.7757 27.6307 27.7761 27.628 27.7762 27.6253C27.7791 27.5748 27.8005 27.5271 27.8363 27.4913C27.8717 27.4558 27.9189 27.4345 27.9688 27.4313C27.9996 27.4319 28.0316 27.4566 28.0588 27.5119C28.0853 27.5657 28.0988 27.6332 28.0988 27.6825C28.0988 27.7338 28.0866 27.7679 28.07 27.7944C28.0523 27.8225 28.0284 27.8445 27.9986 27.8714L27.9969 27.8729C27.9719 27.8955 27.9426 27.9219 27.9186 27.9561ZM29.5744 27.4275C29.5828 27.4114 29.5994 27.4013 29.6176 27.4013C29.7176 27.4013 29.7952 27.4353 29.8491 27.4949C29.9018 27.5532 29.9275 27.631 29.9352 27.7117C29.9504 27.872 29.8963 28.0614 29.8077 28.1902C29.7956 28.2077 29.7735 28.2154 29.7531 28.2091C29.7327 28.2028 29.7188 28.1839 29.7188 28.1625C29.7188 28.1349 29.7072 28.1092 29.6838 28.0823C29.6599 28.0547 29.6268 28.0292 29.5893 28.0025C29.5831 27.9981 29.5767 27.9936 29.5702 27.9891C29.5397 27.9676 29.507 27.9446 29.4814 27.921C29.4509 27.8929 29.4188 27.8539 29.4188 27.8025C29.4188 27.6969 29.4929 27.6373 29.5409 27.5986C29.5464 27.5942 29.5516 27.59 29.5562 27.5861C29.583 27.5636 29.5945 27.55 29.5982 27.5381C29.6005 27.5308 29.6028 27.5142 29.5775 27.4779C29.5672 27.463 29.566 27.4435 29.5744 27.4275ZM29.6956 27.5095C29.7303 27.5202 29.7567 27.5381 29.7768 27.5603C29.811 27.5981 29.8317 27.6534 29.8381 27.7209C29.8478 27.8236 29.8233 27.9439 29.7778 28.0446C29.7715 28.0354 29.7647 28.0267 29.7575 28.0185C29.7252 27.9812 29.6834 27.9499 29.6459 27.9231C29.6384 27.9179 29.6312 27.9128 29.6243 27.9079C29.594 27.8865 29.5679 27.8681 29.5475 27.8493C29.5218 27.8256 29.5163 27.8112 29.5163 27.8025C29.5163 27.7459 29.5518 27.7164 29.6031 27.674C29.6082 27.6697 29.6135 27.6654 29.6189 27.6608C29.6446 27.6392 29.6781 27.6093 29.6913 27.5671C29.6972 27.5481 29.6985 27.5289 29.6956 27.5095ZM30.1436 27.4949C30.1975 27.4353 30.275 27.4013 30.3751 27.4013C30.3932 27.4013 30.4099 27.4114 30.4183 27.4275C30.4267 27.4435 30.4255 27.463 30.4151 27.4779C30.3898 27.5142 30.3921 27.5308 30.3944 27.5381C30.3981 27.55 30.4096 27.5636 30.4364 27.5861C30.4411 27.59 30.4462 27.5942 30.4517 27.5986C30.4998 27.6373 30.5738 27.6969 30.5738 27.8025C30.5738 27.8539 30.5418 27.8929 30.5112 27.921C30.4856 27.9446 30.4529 27.9676 30.4224 27.9891C30.4159 27.9936 30.4096 27.9981 30.4034 28.0025C30.3659 28.0292 30.3327 28.0547 30.3088 28.0823C30.2855 28.1092 30.2738 28.1349 30.2738 28.1625C30.2738 28.1839 30.2599 28.2028 30.2395 28.2091C30.2191 28.2154 30.197 28.2077 30.1849 28.1902C30.0964 28.0614 30.0423 27.872 30.0575 27.7117C30.0651 27.631 30.0908 27.5532 30.1436 27.4949ZM30.2148 28.0446C30.1693 27.9439 30.1448 27.8236 30.1545 27.7209C30.1609 27.6534 30.1816 27.5981 30.2159 27.5603C30.236 27.5381 30.2623 27.5202 30.297 27.5095C30.2941 27.5289 30.2954 27.5481 30.3013 27.5671C30.3145 27.6093 30.348 27.6392 30.3737 27.6608C30.3792 27.6654 30.3844 27.6697 30.3896 27.674C30.4408 27.7164 30.4763 27.7459 30.4763 27.8025C30.4763 27.8112 30.4709 27.8256 30.4452 27.8493C30.4247 27.8681 30.3987 27.8865 30.3684 27.9079C30.3614 27.9128 30.3542 27.9179 30.3468 27.9231C30.3093 27.9499 30.2674 27.9812 30.2351 28.0185C30.2279 28.0267 30.2211 28.0354 30.2148 28.0446Z" fill="#C09300"/>
<path d="M26.6025 27.15C26.7225 27.15 26.9025 27.2025 26.955 27.27L26.6025 27.15ZM27.195 27.33C27.255 27.33 27.495 27.3825 27.6075 27.45L27.195 27.33ZM29.34 27.57C29.2275 27.57 28.9875 27.57 28.9275 27.6225L29.34 27.5625V27.57ZM28.6875 27.57C28.62 27.5025 28.3875 27.5025 28.2675 27.57H28.6875ZM33.3975 27.15C33.2703 27.1516 33.1468 27.1937 33.045 27.27L33.3975 27.15ZM32.8125 27.33C32.7375 27.33 32.5125 27.3825 32.3925 27.45L32.8125 27.33ZM30.66 27.57C30.7725 27.57 31.0125 27.57 31.08 27.6225L30.66 27.5625V27.57ZM31.3125 27.57C31.38 27.5025 31.6125 27.5025 31.7325 27.57H31.3125Z" fill="white"/>
<path fill-rule="evenodd" clip-rule="evenodd" d="M33.4309 27.1444C33.4337 27.1607 33.4242 27.1767 33.4085 27.182L33.056 27.302C33.0403 27.3074 33.023 27.3005 33.0153 27.2858C33.0075 27.2712 33.0116 27.253 33.0248 27.2431C33.1324 27.1624 33.2628 27.118 33.3972 27.1163C33.4138 27.1161 33.428 27.128 33.4309 27.1444ZM26.5693 27.1446C26.572 27.1283 26.5861 27.1163 26.6026 27.1163C26.6668 27.1163 26.7453 27.1302 26.8146 27.1527C26.8493 27.1639 26.8826 27.1776 26.911 27.1933C26.9391 27.2088 26.9646 27.2274 26.9817 27.2494C26.9909 27.2611 26.9912 27.2775 26.9826 27.2897C26.9739 27.3018 26.9583 27.3068 26.9442 27.302L26.5917 27.182C26.5761 27.1767 26.5666 27.1609 26.5693 27.1446ZM27.1617 27.3253C27.1641 27.3087 27.1783 27.2963 27.1951 27.2963C27.2299 27.2963 27.3086 27.3106 27.3903 27.3321C27.4725 27.3539 27.5644 27.3848 27.625 27.4211C27.6395 27.4299 27.6453 27.448 27.6385 27.4636C27.6317 27.4791 27.6145 27.4872 27.5982 27.4825L27.1857 27.3625C27.1695 27.3578 27.1593 27.342 27.1617 27.3253ZM32.6108 27.3322C32.6919 27.3105 32.7704 27.2963 32.8126 27.2963C32.8294 27.2963 32.8437 27.3087 32.846 27.3254C32.8484 27.3421 32.8381 27.3579 32.8219 27.3625L32.4019 27.4825C32.3854 27.4872 32.368 27.4789 32.3615 27.4631C32.3549 27.4473 32.3611 27.4291 32.3761 27.4207C32.4397 27.3849 32.5291 27.354 32.6108 27.3322ZM28.6187 27.4994C28.6544 27.5085 28.6884 27.5231 28.7115 27.5462C28.7211 27.5559 28.724 27.5704 28.7188 27.583C28.7136 27.5956 28.7013 27.6038 28.6876 27.6038H28.2676C28.2523 27.6038 28.2388 27.5935 28.235 27.5786C28.2311 27.5638 28.2377 27.5482 28.2511 27.5407C28.3178 27.5031 28.4123 27.4857 28.4973 27.4857C28.5402 27.4857 28.5822 27.4901 28.6187 27.4994ZM31.5029 27.4857C31.5879 27.4857 31.6824 27.5031 31.7491 27.5407C31.7625 27.5482 31.7691 27.5638 31.7652 27.5786C31.7614 27.5935 31.7479 27.6038 31.7326 27.6038H31.3126C31.2989 27.6038 31.2866 27.5956 31.2814 27.583C31.2762 27.5704 31.2791 27.5559 31.2887 27.5462C31.3118 27.5231 31.3458 27.5085 31.3815 27.4994C31.418 27.4901 31.46 27.4857 31.5029 27.4857ZM29.3622 27.5371C29.3696 27.5435 29.3739 27.5528 29.3739 27.5626V27.5701C29.3739 27.5887 29.3587 27.6038 29.3401 27.6038C29.3253 27.6038 29.3084 27.6038 29.2902 27.604L28.9325 27.656C28.9177 27.6581 28.9032 27.6503 28.8969 27.6367C28.8907 27.6231 28.8941 27.607 28.9054 27.5972C28.9272 27.5781 28.9607 27.5669 28.9941 27.5593C29.029 27.5514 29.0699 27.5463 29.1115 27.543C29.1709 27.5382 29.2336 27.5369 29.2851 27.5365L29.3352 27.5292C29.3449 27.5278 29.3548 27.5306 29.3622 27.5371ZM30.638 27.5371C30.6454 27.5307 30.6552 27.5278 30.6649 27.5292L30.7161 27.5365C30.7674 27.5369 30.8299 27.5382 30.8897 27.543C30.9316 27.5463 30.9732 27.5514 31.009 27.5593C31.0437 27.5669 31.0777 27.5779 31.1008 27.5959C31.1129 27.6053 31.1171 27.6217 31.1112 27.6358C31.1052 27.6499 31.0905 27.6582 31.0753 27.656L30.7111 27.604C30.6924 27.6038 30.6752 27.6038 30.6601 27.6038C30.6415 27.6038 30.6263 27.5887 30.6263 27.5701V27.5626C30.6263 27.5528 30.6306 27.5435 30.638 27.5371Z" fill="#C09300"/>
<path d="M26.4976 28.095C26.4601 28.0875 26.4376 28.05 26.4526 28.02C26.4601 27.9675 26.4976 27.945 26.5276 27.96C26.5576 27.96 26.5951 28.005 26.5951 28.02L26.5651 28.0725L26.5501 28.08C26.5501 28.095 26.5201 28.095 26.4976 28.095ZM30.6226 28.3875C30.6076 28.3875 30.5776 28.35 30.5776 28.335C30.5776 28.305 30.6226 28.26 30.6526 28.26L30.7126 28.29C30.7351 28.3125 30.7351 28.3575 30.7051 28.38C30.6901 28.395 30.6451 28.395 30.6226 28.38V28.3875ZM30.6451 28.575C30.6151 28.56 30.6076 28.545 30.6001 28.515C30.6001 28.4775 30.6001 28.47 30.6376 28.4475L30.6676 28.4325L30.6976 28.4475C30.7276 28.4625 30.7501 28.4775 30.7501 28.5075C30.7501 28.53 30.7276 28.5525 30.6976 28.5675C30.6751 28.5825 30.6676 28.5825 30.6451 28.5675V28.575Z" fill="#C09300"/>
<path d="M26.8351 27.75C26.8051 27.75 26.7676 27.78 26.7451 27.795C26.7001 27.8025 26.6401 27.8325 26.5951 27.795C26.5501 27.7875 26.4901 27.795 26.4826 27.855C26.4901 27.9075 26.5576 27.93 26.6026 27.9C26.6326 27.8625 26.7151 27.8325 26.7301 27.9C26.6926 27.96 26.7001 28.0275 26.6701 28.08C26.6701 28.1175 26.6476 28.1475 26.6326 28.1775C26.5951 28.1775 26.5576 28.1775 26.5276 28.2C26.5043 28.2 26.4813 28.2054 26.4605 28.2158C26.4397 28.2263 26.4216 28.2414 26.4076 28.26C26.3776 28.305 26.3476 28.35 26.3401 28.41C26.3476 28.455 26.4151 28.47 26.4601 28.4775L26.6101 28.5225L26.8501 28.59C26.9701 28.6275 27.0901 28.6425 27.2101 28.6725L27.2476 28.68C27.3001 28.695 27.3226 28.6425 27.3226 28.605L27.3976 28.335C27.4126 28.2975 27.4351 28.2225 27.3676 28.2375C27.3301 28.26 27.2926 28.2975 27.2476 28.2975C27.1801 28.2975 27.2176 28.3725 27.2476 28.395C27.2476 28.44 27.2326 28.4925 27.2101 28.53C27.1651 28.5525 27.1201 28.53 27.0751 28.515C27.0376 28.515 26.9476 28.4925 26.9851 28.44L27.0226 28.305C27.0451 28.26 27.0451 28.2075 27.0601 28.155C27.0301 28.1025 26.9851 28.1775 26.9476 28.185C26.9176 28.2 26.8276 28.2075 26.8726 28.26C26.9176 28.29 26.8876 28.3425 26.8726 28.3875C26.8726 28.44 26.8126 28.4625 26.7676 28.44C26.7226 28.44 26.6551 28.4025 26.6926 28.3575L26.7301 28.2225L26.7826 28.0725C26.7826 28.02 26.8051 27.9825 26.8276 27.9375C26.8276 27.885 26.8651 27.84 26.8651 27.7875C26.8651 27.765 26.8501 27.7575 26.8351 27.7575V27.75ZM26.5576 28.2975C26.561 28.2955 26.5649 28.2945 26.5688 28.2945C26.5728 28.2945 26.5767 28.2955 26.5801 28.2975C26.5951 28.3125 26.5951 28.3275 26.5801 28.3425L26.5576 28.3575C26.5201 28.3575 26.5126 28.35 26.5126 28.335C26.5126 28.3275 26.5126 28.32 26.5351 28.3125C26.5442 28.3059 26.5543 28.3009 26.5651 28.2975H26.5576ZM26.4826 28.6725C26.4451 28.6425 26.4526 28.62 26.5051 28.575C26.5351 28.56 26.5426 28.56 26.5726 28.5825C26.6176 28.62 26.6176 28.6425 26.5726 28.68C26.5576 28.695 26.5501 28.695 26.5351 28.695C26.5126 28.695 26.5051 28.695 26.4826 28.68V28.6725ZM26.7076 28.7475C26.6908 28.7423 26.6768 28.7308 26.6684 28.7154C26.66 28.7 26.6579 28.6819 26.6626 28.665C26.6776 28.635 26.6851 28.6275 26.7301 28.6275C26.7826 28.6275 26.7901 28.635 26.7976 28.68C26.7976 28.71 26.7976 28.7175 26.7751 28.7325C26.7667 28.7391 26.7571 28.7439 26.7467 28.7465C26.7364 28.7491 26.7256 28.7494 26.7151 28.7475H26.7076ZM33.3976 28.7475C33.3826 28.74 33.3751 28.7325 33.3751 28.71C33.3751 28.68 33.3901 28.6575 33.4351 28.6425C33.4801 28.62 33.5101 28.62 33.5251 28.6575C33.5476 28.7025 33.5476 28.7175 33.5176 28.7475C33.5026 28.77 33.4951 28.77 33.4576 28.77C33.4201 28.77 33.4126 28.77 33.3976 28.755V28.7475ZM27.0226 28.8375C26.9926 28.8375 26.9776 28.8075 26.9776 28.7775C26.9776 28.755 26.9776 28.7475 26.9926 28.7325L27.0376 28.7175L27.0826 28.725C27.1201 28.755 27.1276 28.785 27.1051 28.815C27.0826 28.845 27.0601 28.845 27.0151 28.8375H27.0226ZM28.6576 28.9125L28.6426 28.89C28.6426 28.845 28.6426 28.8075 28.6576 28.7625C28.6651 28.725 28.6576 28.6875 28.6726 28.65L28.7026 28.44C28.7026 28.4025 28.7026 28.365 28.7176 28.335C28.7251 28.275 28.7176 28.2225 28.7326 28.17C28.7326 28.1475 28.7551 28.095 28.7776 28.125C28.8076 28.17 28.8451 28.2 28.8826 28.2375C28.9126 28.26 28.8826 28.29 28.8601 28.2975C28.8301 28.305 28.8226 28.3425 28.8226 28.3725L28.8076 28.4625C28.8076 28.515 28.8076 28.56 28.7926 28.6125L28.7851 28.7475L28.7701 28.8375C28.7701 28.8675 28.7701 28.905 28.7401 28.92C28.7176 28.935 28.6801 28.935 28.6651 28.9125H28.6576ZM30.8851 28.1775L30.7876 28.2675C30.7426 28.305 30.8251 28.32 30.8326 28.35C30.8476 28.395 30.8476 28.44 30.8476 28.485C30.8626 28.53 30.8701 28.5675 30.8626 28.6125C30.8626 28.665 30.8026 28.65 30.7726 28.68C30.7351 28.695 30.7201 28.7325 30.6976 28.755C30.6798 28.7926 30.6696 28.8334 30.6676 28.875C30.6676 28.9125 30.6451 28.95 30.6676 28.98L30.6751 28.995H30.7126L30.8251 28.9875C30.9151 28.9725 31.0126 28.9725 31.1026 28.965L31.2676 28.95C31.3126 28.9575 31.3351 28.9125 31.3351 28.875C31.3051 28.8225 31.3276 28.77 31.3051 28.725C31.2901 28.665 31.2976 28.6125 31.2901 28.56C31.2901 28.515 31.2376 28.5 31.2151 28.53C31.1851 28.56 31.1401 28.5675 31.1251 28.5975C31.1026 28.6425 31.1701 28.6425 31.1851 28.6725L31.1926 28.785C31.2001 28.83 31.1551 28.83 31.1176 28.8375C31.0801 28.8525 31.0276 28.86 31.0051 28.815C30.9901 28.7775 30.9901 28.74 30.9901 28.7025C30.9901 28.6275 30.9676 28.5675 30.9676 28.5C30.9676 28.425 30.9451 28.3425 30.9451 28.26C30.9451 28.2225 30.9376 28.17 30.8851 28.1775V28.1775ZM30.8401 28.7925H30.8626V28.8525L30.8401 28.86C30.8303 28.8631 30.8202 28.8656 30.8101 28.8675C30.8051 28.8677 30.8001 28.8677 30.7951 28.8675C30.7801 28.8525 30.7801 28.83 30.8026 28.8075L30.8401 28.7925V28.7925ZM28.5901 28.1025C28.5676 28.1025 28.5301 28.155 28.5001 28.1475C28.4326 28.155 28.4401 28.2225 28.4926 28.245V28.305C28.5001 28.365 28.4626 28.4175 28.4701 28.4775C28.4701 28.5375 28.4476 28.605 28.4476 28.6725C28.4251 28.74 28.4251 28.8075 28.4176 28.875C28.4101 28.935 28.3651 28.9125 28.3276 28.8975V28.8225C28.3351 28.755 28.2901 28.74 28.2376 28.7325C28.1851 28.7325 28.1626 28.695 28.1776 28.65C28.2001 28.62 28.2526 28.6275 28.2901 28.6275C28.3651 28.6425 28.3576 28.545 28.3201 28.5075C28.2901 28.4625 28.2301 28.4325 28.2151 28.3875C28.2151 28.3275 28.1776 28.26 28.1251 28.23C28.0426 28.2225 27.9751 28.29 27.9526 28.365C27.9151 28.365 27.8776 28.38 27.8476 28.395C27.7951 28.41 27.7201 28.5 27.7951 28.5375C27.8326 28.545 27.9601 28.575 27.9001 28.6275C27.8701 28.6875 27.8101 28.6875 27.7576 28.6725C27.7051 28.6725 27.6451 28.6425 27.6451 28.5825C27.6376 28.5225 27.6376 28.4625 27.6151 28.41C27.6001 28.35 27.5326 28.365 27.5251 28.425C27.4726 28.4625 27.4801 28.53 27.5176 28.575C27.5401 28.6275 27.5176 28.695 27.4951 28.74C27.4801 28.815 27.4051 28.815 27.3526 28.83C27.3301 28.845 27.2326 28.83 27.2701 28.8825C27.3263 28.9084 27.3892 28.9163 27.4501 28.905C27.5101 28.905 27.5626 28.8525 27.6001 28.8C27.6376 28.7625 27.7051 28.785 27.7651 28.785C27.8176 28.785 27.8776 28.8225 27.9376 28.7925C27.9526 28.755 28.0276 28.68 28.0501 28.755C28.0501 28.8225 28.1026 28.8525 28.1626 28.845C28.2301 28.845 28.2001 28.89 28.2001 28.935C28.2001 29.0025 28.2526 29.04 28.3126 29.07H28.3726C28.4251 29.0475 28.4851 29.025 28.5076 28.965C28.5301 28.9125 28.5301 28.8525 28.5451 28.8C28.5601 28.7175 28.5751 28.6275 28.5751 28.545C28.5976 28.47 28.5901 28.3875 28.6051 28.305L28.6276 28.1325C28.6276 28.095 28.6126 28.095 28.5901 28.1025V28.1025ZM28.0876 28.41C28.0951 28.41 28.1026 28.425 28.1026 28.4475C28.1026 28.4775 28.1176 28.5 28.1401 28.5075V28.53L28.0801 28.545C28.0426 28.545 28.0126 28.53 27.9901 28.5075L27.9751 28.4925L27.9976 28.4775L28.0351 28.44C28.0576 28.4175 28.0726 28.41 28.0876 28.41V28.41ZM33.0376 27.8175C32.9944 27.8206 32.9517 27.8281 32.9101 27.84C32.8351 27.84 32.7976 27.915 32.8726 27.96C32.9176 28.0725 32.9851 27.93 33.0601 27.945C33.1651 27.96 33.1726 28.08 33.1951 28.17C33.1951 28.2525 33.2251 28.335 33.2476 28.4175C33.3226 28.5 33.1951 28.5525 33.1426 28.4925C33.0976 28.44 32.9926 28.38 32.9401 28.4475C32.8726 28.4775 32.8651 28.5675 32.8126 28.5975C32.7226 28.62 32.7151 28.5075 32.6626 28.4625C32.6176 28.395 32.5351 28.3875 32.4676 28.3725C32.4376 28.305 32.4526 28.1925 32.3926 28.1475C32.3326 28.17 32.2276 28.275 32.3176 28.3275C32.3926 28.4025 32.2801 28.4325 32.2426 28.4775C32.1826 28.545 32.1676 28.6275 32.1676 28.7025C32.0701 28.755 32.0551 28.6425 32.0401 28.575C32.0401 28.4925 31.9651 28.515 31.9126 28.545C31.8376 28.575 31.8076 28.6425 31.7626 28.695V28.845C31.7776 28.9125 31.8526 28.8825 31.8976 28.875C31.9726 28.845 32.0026 28.9275 31.9426 28.9725C31.8976 29.0175 31.7776 28.995 31.7926 29.0775H31.9126C31.9876 29.055 32.0776 28.995 32.0851 28.905C32.1001 28.83 32.2126 28.8375 32.2726 28.8225C32.3476 28.8 32.4451 28.7925 32.4676 28.8975C32.5201 28.95 32.6326 29.01 32.6926 28.935C32.7212 28.9169 32.744 28.8911 32.7586 28.8606C32.7732 28.8301 32.7789 28.7961 32.7751 28.7625C32.7676 28.7025 32.8726 28.7025 32.9026 28.74C32.9401 28.8 33.0601 28.785 33.1201 28.74C33.1801 28.7025 33.1951 28.62 33.2851 28.62L33.6901 28.5075C33.7951 28.485 33.6751 28.4175 33.6451 28.3725C33.5701 28.335 33.4951 28.5 33.4051 28.4175C33.3301 28.365 33.3376 28.2675 33.3151 28.185C33.2926 28.08 33.3001 27.96 33.2251 27.885C33.1801 27.8325 33.1051 27.8175 33.0376 27.8175V27.8175ZM32.5276 28.53C32.5351 28.53 32.5501 28.53 32.5651 28.545C32.5951 28.56 32.6176 28.59 32.6176 28.62C32.6176 28.635 32.6176 28.635 32.5951 28.6425L32.5576 28.6575C32.5426 28.6575 32.5051 28.635 32.5051 28.62V28.59C32.4901 28.56 32.4901 28.56 32.5051 28.545L32.5276 28.53ZM33.0151 28.56C33.0451 28.56 33.0601 28.56 33.0751 28.5825C33.0826 28.6125 33.0751 28.6275 33.0451 28.6425L33.0076 28.6575L32.9776 28.635C32.9626 28.6275 32.9551 28.62 32.9551 28.605C32.9551 28.5825 32.9851 28.56 33.0151 28.5525V28.56ZM32.3401 28.56C32.3551 28.56 32.3626 28.56 32.3701 28.575C32.3851 28.59 32.3926 28.5975 32.3926 28.62V28.665C32.3926 28.6875 32.3926 28.68 32.3476 28.68C32.3026 28.68 32.2951 28.68 32.2951 28.635C32.2951 28.605 32.2951 28.5975 32.3176 28.5825C32.3251 28.5675 32.3401 28.5675 32.3476 28.5675L32.3401 28.56ZM31.9351 28.6725C31.9422 28.6746 31.9486 28.6785 31.9538 28.6837C31.9591 28.689 31.9629 28.6954 31.9651 28.7025C31.9651 28.725 31.9651 28.74 31.9501 28.7475C31.9276 28.755 31.8901 28.7625 31.8751 28.7475C31.8749 28.745 31.8749 28.7425 31.8751 28.74C31.8601 28.7325 31.8601 28.725 31.8751 28.7175V28.71L31.8901 28.6875C31.8947 28.6802 31.9017 28.6747 31.9099 28.672C31.9181 28.6692 31.927 28.6694 31.9351 28.6725V28.6725ZM32.6251 28.7625L32.6626 28.77V28.815H32.5726L32.5651 28.8C32.5651 28.785 32.5651 28.7775 32.5801 28.77L32.6251 28.7625V28.7625ZM31.3426 29.1225C31.3351 29.1225 31.3201 29.115 31.3351 29.1075C31.3426 29.085 31.3726 29.0775 31.3951 29.0625C31.4359 29.0469 31.4721 29.0211 31.5001 28.9875C31.5001 28.9575 31.5301 28.9425 31.5301 28.9125L31.5226 28.8075C31.5125 28.776 31.4911 28.7493 31.4626 28.7325C31.4401 28.725 31.4101 28.7175 31.4026 28.6875C31.4026 28.665 31.4251 28.6425 31.4326 28.62L31.4776 28.53C31.5001 28.5075 31.5301 28.53 31.5376 28.545L31.5751 28.62C31.5976 28.6425 31.6126 28.665 31.6201 28.695C31.6351 28.725 31.6501 28.7475 31.6501 28.77L31.6651 28.8675C31.6651 28.905 31.6651 28.95 31.6501 28.9875L31.6051 29.0475C31.5826 29.07 31.5601 29.0925 31.5301 29.1C31.5076 29.1075 31.4926 29.13 31.4626 29.13H31.3501L31.3426 29.1225ZM30.8251 29.1525C30.8101 29.1375 30.8026 29.13 30.8026 29.1075C30.8026 29.085 30.8026 29.085 30.8251 29.0625C30.8551 29.0325 30.8701 29.0325 30.9301 29.0625C30.9826 29.0925 31.0051 29.0925 31.0051 29.07C31.0126 29.055 31.0426 29.0325 31.0801 29.0325C31.0939 29.033 31.1072 29.0383 31.1176 29.0475C31.1326 29.0625 31.1401 29.07 31.1401 29.1C31.1401 29.1375 31.1401 29.1375 31.1176 29.16C31.0951 29.175 31.0951 29.175 31.0651 29.175C31.0518 29.1743 31.0389 29.1696 31.0283 29.1616C31.0176 29.1536 31.0095 29.1426 31.0051 29.13C31.0051 29.115 31.0051 29.1075 30.9901 29.1225L30.9751 29.13C30.9601 29.13 30.9301 29.1525 30.9151 29.1675L30.8776 29.175C30.8476 29.175 30.8476 29.175 30.8251 29.1525V29.1525ZM29.3401 28.485C29.2876 28.485 29.2351 28.53 29.2276 28.5825C29.2426 28.635 29.2876 28.695 29.2576 28.7475C29.2801 28.8225 29.1976 28.8525 29.1451 28.815C29.1151 28.74 29.1001 28.665 29.0476 28.59C28.9876 28.575 28.9651 28.6725 28.9201 28.71C28.9426 28.7625 29.0026 28.815 29.0101 28.8825C29.0251 28.9575 28.9801 29.0325 28.9276 29.0625C28.8751 29.115 28.8001 29.1 28.7401 29.1075C28.6651 29.1525 28.7926 29.1675 28.8301 29.1675C28.9051 29.175 28.9876 29.1675 29.0551 29.1075C29.1076 29.085 29.1001 28.98 29.1676 28.9725L29.5276 28.995C29.5876 29.01 29.6851 28.9875 29.7301 29.0325C29.7301 29.1075 29.8051 29.1675 29.8726 29.1975C29.9101 29.2125 29.9476 29.16 29.9851 29.1525C30.0601 29.13 30.0376 29.04 30.0826 29.0025H30.4576C30.4726 29.0025 30.4801 28.965 30.5026 28.95L30.4876 28.8075C30.4651 28.7475 30.4876 28.6725 30.4501 28.62C30.3826 28.605 30.3301 28.6575 30.2701 28.665C30.1951 28.695 30.1426 28.7625 30.1351 28.8375C30.0976 28.905 30.0301 28.8225 30.0601 28.7625L30.0526 28.6875C30.0151 28.65 29.9476 28.665 29.8951 28.6575L29.6701 28.6425C29.5951 28.6425 29.5276 28.65 29.4676 28.635C29.3926 28.635 29.3926 28.56 29.3926 28.5C29.3776 28.4886 29.3589 28.4832 29.3401 28.485V28.485ZM29.4901 28.7625L29.5651 28.77H29.6626C29.7376 28.785 29.8126 28.785 29.8876 28.785C29.9026 28.785 29.9176 28.8 29.9326 28.815V28.965C29.9326 28.9875 29.9326 29.0175 29.9176 29.025C29.9137 29.031 29.9086 29.0361 29.9026 29.04C29.8916 29.0381 29.8812 29.0337 29.8721 29.0272C29.863 29.0207 29.8555 29.0123 29.8501 29.0025V28.8975C29.8352 28.8849 29.8169 28.8771 29.7976 28.875L29.6026 28.8675L29.4526 28.86C29.4301 28.8525 29.4001 28.86 29.3851 28.83C29.3701 28.815 29.3926 28.785 29.4151 28.7775C29.4387 28.767 29.4643 28.7618 29.4901 28.7625V28.7625ZM30.3376 28.785C30.3451 28.785 30.3526 28.785 30.3526 28.8075L30.3676 28.845C30.3676 28.8525 30.3676 28.86 30.3526 28.86C30.3151 28.875 30.2776 28.875 30.2626 28.86C30.2626 28.8525 30.2626 28.8225 30.2776 28.815L30.3376 28.785Z" fill="#C09300"/>
<path d="M30.0001 24.5401C32.4451 22.6651 32.2351 19.9051 32.2351 19.9051L32.0476 19.9201C31.5301 19.9201 30.3076 19.6201 30.0226 19.2526C29.7226 19.5901 28.4626 19.9276 27.9526 19.9276L27.7651 19.9051C27.7651 19.9051 27.5476 22.6576 30.0001 24.5401Z" fill="white"/>
<path fill-rule="evenodd" clip-rule="evenodd" d="M30.0247 19.188L30.0552 19.2272C30.1205 19.3115 30.2433 19.3957 30.4046 19.4748C30.5647 19.5533 30.7581 19.6245 30.9596 19.6845C31.3627 19.8046 31.7924 19.8784 32.0459 19.8788L32.273 19.8606L32.2762 19.9019L32.2351 19.905C32.2762 19.9019 32.2762 19.9018 32.2762 19.9019L32.2762 19.9025L32.2764 19.9042L32.2768 19.9105C32.2771 19.916 32.2775 19.924 32.278 19.9346C32.279 19.9557 32.2801 19.9867 32.2806 20.0268C32.2815 20.1068 32.2802 20.223 32.2708 20.3682C32.2522 20.6585 32.2016 21.0649 32.0742 21.5303C31.8193 22.4612 31.2564 23.6285 30.0252 24.5727L30 24.592L29.9749 24.5727C28.74 23.6248 28.1771 22.4575 27.9231 21.5274C27.7961 21.0625 27.7463 20.6568 27.7282 20.3671C27.7192 20.2222 27.7181 20.1063 27.7193 20.0264C27.7198 19.9864 27.721 19.9555 27.722 19.9344C27.7225 19.9239 27.723 19.9158 27.7233 19.9103L27.7238 19.9041L27.7239 19.9024L27.7239 19.902L27.7239 19.9018C27.7239 19.9018 27.7239 19.9018 27.7651 19.905L27.7239 19.9018L27.7273 19.8589L27.955 19.8863C28.2044 19.8857 28.6409 19.8028 29.0543 19.6771C29.2612 19.6142 29.4608 19.541 29.6267 19.463C29.7939 19.3844 29.9225 19.3029 29.9917 19.2251L30.0247 19.188ZM27.8038 19.9512C27.803 19.9705 27.8022 19.9961 27.8017 20.0276C27.8006 20.1055 27.8017 20.2194 27.8106 20.3619C27.8284 20.6471 27.8774 21.0472 28.0027 21.5057C28.2513 22.4162 28.8 23.5569 30.0001 24.4879C31.1964 23.5606 31.745 22.42 31.9946 21.5085C32.1203 21.0495 32.1701 20.6487 32.1885 20.3629C32.1977 20.22 32.199 20.1059 32.1981 20.0278C32.1977 19.9953 32.1969 19.9691 32.1961 19.9495L32.0492 19.9613H32.0476C31.7833 19.9613 31.3441 19.8852 30.9361 19.7636C30.7317 19.7027 30.5337 19.63 30.3683 19.5489C30.2239 19.4781 30.1007 19.3992 30.0206 19.3136C29.9371 19.3924 29.8102 19.468 29.6618 19.5377C29.4912 19.6179 29.2877 19.6924 29.0783 19.756C28.6606 19.8831 28.2135 19.9688 27.9526 19.9688H27.9501L27.8038 19.9512Z" fill="#C09300"/>
<path d="M32.0401 20.1001H31.9801C31.5151 20.1001 30.4351 19.8676 30.0151 19.5076C29.5801 19.8376 28.4776 20.1076 28.0201 20.1076C27.9999 20.1068 27.9798 20.1043 27.9601 20.1001C27.9642 20.574 28.0297 21.0455 28.1551 21.5026C28.4559 22.6039 29.1027 23.5793 30.0001 24.2851C30.898 23.5766 31.5447 22.5987 31.8451 21.4951C31.9698 21.0404 32.0353 20.5715 32.0401 20.1001V20.1001Z" fill="white"/>
<path fill-rule="evenodd" clip-rule="evenodd" d="M30.0163 19.4642L30.037 19.482C30.2409 19.6567 30.6096 19.8033 30.9895 19.9063C31.3684 20.0089 31.7515 20.0663 31.98 20.0663H32.04V20.1001L32.0738 20.1004C32.069 20.5748 32.003 21.0465 31.8776 21.504C31.5753 22.6145 30.9245 23.5987 30.0209 24.3116L30.0001 24.328L29.9792 24.3116C29.0761 23.6014 28.4252 22.6197 28.1225 21.5115C27.9963 21.0516 27.9304 20.5772 27.9263 20.1004L27.9259 20.0583L27.9671 20.0671C27.9847 20.0708 28.0026 20.0731 28.0207 20.0738C28.245 20.0737 28.6312 20.0071 29.0168 19.8988C29.4033 19.7903 29.7825 19.6416 29.9946 19.4807L30.0163 19.4642ZM32.0058 20.1338H31.98C31.7435 20.1338 31.3541 20.075 30.9718 19.9714C30.6024 19.8713 30.233 19.7277 30.0138 19.5505C29.7879 19.7131 29.4107 19.8583 29.0351 19.9638C28.6467 20.0729 28.2533 20.1413 28.02 20.1413H28.0187L28.0187 20.1413C28.0105 20.141 28.0024 20.1404 27.9943 20.1396C28.0016 20.5972 28.0665 21.0522 28.1876 21.4937L28.1876 21.4937C28.4842 22.5794 29.1192 23.5421 30 24.242C30.8814 23.5394 31.5163 22.5743 31.8125 21.4862L31.8125 21.4861C31.9334 21.0452 31.9984 20.5909 32.0058 20.1338Z" fill="#C09300"/>
<path d="M29.2051 19.8751C28.8022 20.0062 28.3834 20.0819 27.9601 20.1001L27.9676 20.4076C27.9932 20.7755 28.056 21.1398 28.1551 21.4951C28.3567 22.2327 28.7148 22.9182 29.2051 23.5051V19.8751ZM30.7501 19.8751V23.5651C31.264 22.9647 31.638 22.2577 31.8451 21.4951C31.9441 21.1398 32.0069 20.7754 32.0326 20.4076L32.0401 20.1076H31.9801C31.6951 20.1076 31.2001 20.0176 30.7501 19.8676V19.8751Z" fill="#C09300"/>
<path d="M30.9226 18.9751C30.9751 18.9826 30.8551 18.7126 30.8551 18.7126C30.9901 18.8476 31.4851 18.8851 31.4851 18.8851C31.1851 18.7501 30.8851 17.7526 30.9226 16.9501C30.9526 16.1551 30.8101 15.8401 30.6976 15.7201C30.5476 15.5701 30.0601 15.4351 29.7451 15.4201C29.5576 15.4126 29.5951 15.5551 29.5951 15.5551C29.2576 15.4726 28.9201 15.4351 28.7701 15.5401C28.6351 15.6301 28.6051 16.1026 28.7101 16.0201C28.9576 15.8176 29.1751 16.0051 29.3251 16.2226C29.4601 16.4101 29.4526 16.9501 29.2576 17.5876C29.0849 18.0695 28.8313 18.5185 28.5076 18.9151C28.8076 18.9151 29.2276 18.6526 29.2276 18.6526L29.1301 19.0651C29.4451 18.9151 29.6926 18.6826 29.6926 18.6826L29.9926 18.9976C30.0901 18.8626 30.2926 18.6826 30.2926 18.6826C30.2926 18.6826 30.5401 18.9451 30.9226 18.9826V18.9751Z" fill="white"/>
<path fill-rule="evenodd" clip-rule="evenodd" d="M29.6212 15.3983C29.6532 15.3811 29.6947 15.373 29.7468 15.3751L29.7472 15.3751C29.9091 15.3828 30.1134 15.4211 30.2962 15.4763C30.3877 15.504 30.4747 15.5361 30.549 15.5713C30.6225 15.6062 30.6865 15.6454 30.7293 15.6882L30.7299 15.6887L30.7304 15.6893C30.8558 15.823 30.9976 16.154 30.9675 16.9517L30.9675 16.9521C30.949 17.3477 31.0138 17.7927 31.1204 18.1552C31.1737 18.3363 31.237 18.4954 31.3046 18.6167C31.3734 18.74 31.4424 18.8165 31.5035 18.844L31.4816 18.9299L31.485 18.885C31.4816 18.9299 31.4816 18.9299 31.4816 18.9299L31.4815 18.9299L31.4812 18.9299L31.48 18.9298L31.4757 18.9294C31.4719 18.9291 31.4664 18.9286 31.4593 18.928C31.4452 18.9267 31.425 18.9246 31.4004 18.9218C31.3512 18.9161 31.284 18.907 31.2124 18.8937C31.141 18.8803 31.0641 18.8625 30.9958 18.839C30.9792 18.8333 30.9629 18.8272 30.9469 18.8205C30.9483 18.8242 30.9496 18.8279 30.9509 18.8317C30.9627 18.8653 30.974 18.9016 30.9786 18.9301C30.9807 18.9432 30.9825 18.961 30.9782 18.9773C30.9766 18.9834 30.9736 18.9916 30.9675 18.9994V19.0322L30.9181 19.0273C30.7177 19.0077 30.5535 18.9292 30.4398 18.8564C30.3829 18.8199 30.3383 18.7845 30.3078 18.7582C30.3019 18.7532 30.2966 18.7484 30.2918 18.7441C30.2912 18.7447 30.2906 18.7452 30.2899 18.7458C30.2697 18.7645 30.2417 18.7909 30.2107 18.8215C30.1481 18.8831 30.0754 18.9596 30.029 19.0239L29.9973 19.0678L29.69 18.7452C29.6864 18.7483 29.6824 18.7518 29.6782 18.7554C29.6495 18.78 29.6081 18.8143 29.5566 18.8534C29.4539 18.9314 29.3106 19.0289 29.1494 19.1057L29.0646 19.146L29.1598 18.7436C29.117 18.767 29.0615 18.7958 28.9989 18.8247C28.8555 18.8907 28.6679 18.96 28.5075 18.96H28.4127L28.4727 18.8866C28.7929 18.4942 29.0439 18.0501 29.2148 17.5734C29.3112 17.258 29.3609 16.9679 29.3701 16.7345C29.3747 16.6177 29.3691 16.516 29.3545 16.433C29.3399 16.3494 29.3167 16.288 29.2885 16.2488L29.288 16.2481C29.2143 16.1413 29.128 16.0481 29.035 16.0045C28.9894 15.9832 28.9429 15.9741 28.8953 15.9803C28.8475 15.9865 28.7952 16.0085 28.7385 16.0549L28.7378 16.0554C28.7175 16.0714 28.686 16.0841 28.6543 16.0657C28.6295 16.0513 28.6185 16.0243 28.6129 16.005C28.6007 15.9627 28.5994 15.9019 28.6052 15.8405C28.6111 15.7779 28.6249 15.7092 28.6466 15.6493C28.6675 15.5916 28.6987 15.5338 28.7446 15.5029C28.8326 15.4415 28.9675 15.4256 29.1142 15.4323C29.2472 15.4383 29.3979 15.4633 29.5494 15.498C29.5511 15.4884 29.5538 15.4781 29.558 15.4678C29.5686 15.4416 29.5883 15.416 29.6212 15.3983ZM29.2037 18.6144L29.2965 18.5564L29.1962 18.9809C29.3153 18.9163 29.4213 18.8431 29.5022 18.7817C29.552 18.7439 29.5921 18.7107 29.6196 18.6871C29.6334 18.6752 29.644 18.6658 29.6512 18.6594C29.6547 18.6562 29.6574 18.6537 29.6592 18.6521L29.6612 18.6503L29.6617 18.6497M29.2037 18.6144L29.2035 18.6145L29.2027 18.615L29.1993 18.6171C29.1963 18.6189 29.1918 18.6216 29.1859 18.6251C29.1741 18.6321 29.1569 18.6422 29.1353 18.6543C29.092 18.6785 29.0311 18.7107 28.9612 18.7429C28.8521 18.7932 28.7247 18.8414 28.6082 18.8609C28.9038 18.481 29.1374 18.0563 29.2999 17.6027L29.3003 17.6017L29.3006 17.6007C29.399 17.279 29.4504 16.9807 29.46 16.7381C29.4648 16.6168 29.4591 16.5084 29.4432 16.4175C29.4274 16.3275 29.401 16.2512 29.3618 16.1966C29.2855 16.0861 29.1881 15.9769 29.0732 15.923C29.0147 15.8957 28.951 15.8823 28.8836 15.891C28.8216 15.8991 28.7593 15.9256 28.6975 15.9726C28.6915 15.9456 28.6899 15.9015 28.6948 15.849C28.7002 15.7925 28.7126 15.7314 28.7312 15.6799C28.7506 15.6264 28.7737 15.5917 28.795 15.5775L28.7958 15.5769C28.8578 15.5335 28.9665 15.5157 29.1102 15.5222C29.2514 15.5286 29.417 15.5579 29.5843 15.5988L29.6578 15.6167L29.6386 15.5439C29.6386 15.5439 29.6386 15.5438 29.6386 15.5438C29.6385 15.5434 29.6383 15.5426 29.6381 15.5414C29.6377 15.539 29.6373 15.5354 29.6371 15.5309C29.6366 15.5216 29.6376 15.511 29.6414 15.5016C29.6449 15.4932 29.651 15.4845 29.6638 15.4776C29.6775 15.4702 29.7016 15.4634 29.7431 15.465C29.8961 15.4723 30.093 15.509 30.2701 15.5625C30.3586 15.5892 30.4413 15.6199 30.5104 15.6527C30.58 15.6856 30.633 15.7194 30.6652 15.7514C30.7648 15.858 30.9074 16.1574 30.8776 16.9481C30.8586 17.355 30.925 17.81 31.034 18.1806C31.0886 18.3659 31.1542 18.5317 31.226 18.6605C31.2606 18.7225 31.2976 18.7778 31.3368 18.8228" fill="#C09300"/>
<path fill-rule="evenodd" clip-rule="evenodd" d="M29.9289 17.0297L29.9775 17.0326C30.0262 17.0355 30.0262 17.0355 30.0262 17.0355L30.026 17.0392L30.0253 17.0499C30.0247 17.0592 30.0238 17.073 30.0225 17.0906C30.0201 17.1258 30.0163 17.1765 30.0111 17.2385C30.0008 17.3626 29.9848 17.5323 29.9622 17.7145C29.9396 17.8966 29.9103 18.0919 29.8734 18.2671C29.8366 18.4411 29.7915 18.5996 29.7356 18.7053L29.6494 18.6598C29.6986 18.5668 29.7415 18.4196 29.778 18.247C29.8141 18.0755 29.843 17.8832 29.8654 17.7025C29.8878 17.5219 29.9037 17.3536 29.9139 17.2304C29.9191 17.1689 29.9228 17.1186 29.9253 17.0837C29.9265 17.0663 29.9274 17.0528 29.928 17.0436L29.9287 17.0331L29.9289 17.0297ZM29.6592 17.0636L29.7075 17.0701C29.7558 17.0766 29.7558 17.0766 29.7558 17.0766L29.7557 17.0775L29.7553 17.0803L29.7539 17.0908C29.7526 17.1 29.7506 17.1135 29.748 17.1308C29.7429 17.1654 29.7351 17.2151 29.7249 17.2758C29.7044 17.3971 29.6738 17.5626 29.6332 17.7391C29.5926 17.9155 29.5419 18.1037 29.4812 18.2701C29.421 18.4352 29.349 18.5843 29.2635 18.6779L29.1915 18.6122C29.2636 18.5333 29.3303 18.3993 29.3896 18.2367C29.4484 18.0755 29.4981 17.8916 29.5381 17.7173C29.5782 17.5431 29.6085 17.3796 29.6288 17.2595C29.6389 17.1995 29.6465 17.1504 29.6516 17.1164C29.6542 17.0994 29.6561 17.0861 29.6573 17.0771L29.6588 17.067L29.6591 17.0644L29.6592 17.0636ZM30.1613 17.0851C30.1613 17.0851 30.1613 17.0851 30.21 17.0851C30.2588 17.0851 30.2588 17.0851 30.2588 17.0851L30.2588 17.1004C30.2588 17.1104 30.2589 17.1251 30.2589 17.144C30.2591 17.1817 30.2594 17.2358 30.2599 17.3015C30.2611 17.433 30.2635 17.6106 30.2681 17.7954C30.2728 17.9803 30.2798 18.172 30.2903 18.3317C30.2956 18.4116 30.3016 18.483 30.3087 18.5413C30.3158 18.6007 30.3236 18.6434 30.3314 18.6676L30.2386 18.6975C30.2277 18.6636 30.2191 18.6128 30.2119 18.553C30.2045 18.4922 30.1983 18.4188 30.193 18.3381C30.1824 18.1764 30.1754 17.9833 30.1707 17.7979C30.166 17.6124 30.1636 17.4342 30.1625 17.3024C30.1619 17.2365 30.1616 17.1822 30.1614 17.1444C30.1614 17.1254 30.1613 17.1106 30.1613 17.1005L30.1613 17.0851ZM30.4613 17.1551C30.4613 17.1551 30.4613 17.1551 30.51 17.1526L30.5587 17.15L30.5588 17.1508L30.5589 17.1531L30.5594 17.1626C30.5599 17.171 30.5607 17.1834 30.5618 17.1994C30.564 17.2313 30.5674 17.2774 30.5724 17.334C30.5824 17.4474 30.5987 17.6027 30.6239 17.7707C30.649 17.9388 30.6829 18.1188 30.7279 18.2818C30.7731 18.4457 30.8286 18.5885 30.8951 18.6849L30.8149 18.7403C30.739 18.6304 30.6801 18.475 30.6339 18.3078C30.5875 18.1396 30.5529 17.9554 30.5274 17.7851C30.5019 17.6146 30.4854 17.4573 30.4753 17.3426C30.4702 17.2852 30.4667 17.2385 30.4645 17.206C30.4634 17.1898 30.4626 17.1771 30.4621 17.1685L30.4615 17.1586L30.4614 17.156L30.4613 17.1551Z" fill="#C09300"/>
<path d="M29.4001 16.4701C29.3934 16.3831 29.3678 16.2987 29.3251 16.2226C29.1751 15.9976 28.9576 15.8176 28.7101 16.0201C28.7101 16.0201 28.7926 15.7576 28.9801 15.7501C29.1151 15.7426 29.4376 15.8551 29.7226 16.3351C29.7226 16.3351 29.5126 16.2901 29.4601 16.3351C29.3701 16.4101 29.4076 16.4701 29.4076 16.4701H29.4001Z" fill="#C09300"/>
<path fill-rule="evenodd" clip-rule="evenodd" d="M29.6999 16.3192C29.4194 15.8596 29.108 15.7542 28.9806 15.7612L28.9805 15.7612C28.8923 15.7648 28.8275 15.8284 28.7841 15.894C28.7625 15.9266 28.7466 15.959 28.7362 15.9833C28.7356 15.9847 28.735 15.986 28.7344 15.9874C28.7867 15.9509 28.8379 15.9304 28.8879 15.9234C28.9478 15.915 29.0051 15.926 29.0588 15.9507C29.1657 15.9998 29.259 16.1032 29.3344 16.2163L29.3349 16.217C29.3653 16.2712 29.3871 16.3296 29.3999 16.3901C29.4094 16.3705 29.4258 16.3489 29.4528 16.3264C29.4688 16.3127 29.495 16.3069 29.5223 16.3048C29.5503 16.3026 29.5822 16.3041 29.612 16.3069C29.6419 16.3098 29.6701 16.314 29.6908 16.3176C29.694 16.3181 29.697 16.3187 29.6999 16.3192ZM29.4171 16.4641L29.417 16.4639C29.4168 16.4636 29.4166 16.4631 29.4162 16.4624C29.4156 16.4611 29.4147 16.459 29.4138 16.4561C29.412 16.4505 29.4104 16.442 29.4112 16.4315C29.4128 16.4107 29.4241 16.3796 29.4672 16.3436L29.4673 16.3435C29.4775 16.3348 29.4972 16.3293 29.5241 16.3272C29.5502 16.3252 29.5806 16.3265 29.6099 16.3293C29.639 16.3321 29.6666 16.3363 29.687 16.3398C29.6971 16.3415 29.7055 16.3431 29.7112 16.3442C29.7141 16.3448 29.7164 16.3452 29.7179 16.3455L29.7196 16.3459L29.72 16.346L29.7201 16.346L29.7453 16.3514L29.7322 16.3293C29.446 15.8472 29.1202 15.731 28.9795 15.7388C28.8802 15.7428 28.81 15.8141 28.7653 15.8816C28.7428 15.9156 28.7263 15.9493 28.7155 15.9744C28.7101 15.987 28.706 15.9975 28.7034 16.0049C28.702 16.0085 28.701 16.0114 28.7003 16.0134L28.6996 16.0158L28.6994 16.0164L28.6993 16.0166C28.6993 16.0166 28.6993 16.0166 28.71 16.02L28.6993 16.0166L28.688 16.0526L28.7171 16.0287C28.7777 15.9791 28.8359 15.9535 28.891 15.9457C28.9461 15.938 28.999 15.948 29.0494 15.9712C29.1505 16.0176 29.2408 16.1166 29.3154 16.2284C29.3572 16.3029 29.3822 16.3857 29.3888 16.4709L29.3896 16.4812H29.4278L29.4171 16.4641C29.4171 16.4641 29.4171 16.4641 29.4171 16.4641Z" fill="#C09300"/>
<path d="M28.6801 15.6976C28.7026 15.6226 28.7326 15.5626 28.7776 15.5401C28.9276 15.4351 29.2576 15.4651 29.5951 15.5551C29.5951 15.5551 29.5651 15.4126 29.7451 15.4201C30.0601 15.4351 30.5401 15.5701 30.6901 15.7201C30.7381 15.7728 30.7762 15.8338 30.8026 15.9001C30.7276 15.7951 30.5176 15.8026 30.4651 15.8101C30.3901 15.8176 30.3376 15.8101 30.2326 15.8401C30.1801 15.8551 30.1051 15.8701 30.0601 15.9001C30.0301 15.9301 30.0001 16.0201 29.9551 16.0201C29.8801 16.0201 29.8801 16.0051 29.8576 15.9826C29.8351 15.9451 29.8201 15.9001 29.7901 15.9076C29.7151 15.9151 29.5801 15.8551 29.4151 15.7201C29.2426 15.5851 29.1751 15.5551 28.9651 15.5701C28.7401 15.5851 28.6801 15.7126 28.6801 15.7126V15.6976V15.6976Z" fill="#C09300"/>
<path fill-rule="evenodd" clip-rule="evenodd" d="M29.6061 15.5527L29.606 15.5525L29.6059 15.5515C29.6057 15.5506 29.6055 15.5493 29.6053 15.5475C29.6049 15.544 29.6044 15.5389 29.6044 15.5328C29.6044 15.5206 29.6062 15.5046 29.6129 15.4891C29.6195 15.4738 29.631 15.4588 29.6511 15.4478C29.6713 15.4367 29.701 15.4294 29.7446 15.4312C29.901 15.4387 30.0988 15.476 30.2762 15.5301C30.3648 15.5572 30.4482 15.5884 30.5186 15.6221C30.589 15.6558 30.6457 15.6916 30.6819 15.7278C30.7159 15.7651 30.7448 15.8066 30.768 15.8513C30.7275 15.8236 30.6758 15.809 30.6271 15.8017C30.5576 15.7912 30.4911 15.7949 30.4637 15.7988C30.4638 15.7988 30.4639 15.7988 30.464 15.7988L30.4651 15.81L30.4635 15.7988C30.4636 15.7988 30.4636 15.7988 30.4637 15.7988M29.8665 15.9755C29.8622 15.9682 29.8582 15.9607 29.8541 15.9531C29.8533 15.9516 29.8525 15.9501 29.8517 15.9486C29.8466 15.9392 29.8415 15.9298 29.8359 15.9217C29.8304 15.9137 29.824 15.9062 29.8161 15.9012C29.808 15.8961 29.7986 15.894 29.7882 15.8964C29.7539 15.8996 29.7039 15.8875 29.6412 15.857C29.5785 15.8266 29.5042 15.7784 29.4222 15.7113L29.4222 15.7113L29.422 15.7111C29.3358 15.6436 29.2745 15.6013 29.2078 15.5781C29.141 15.5549 29.0698 15.5512 28.9643 15.5588C28.8496 15.5664 28.7762 15.6028 28.7313 15.638C28.7203 15.6466 28.7111 15.6551 28.7034 15.663C28.7114 15.6412 28.7202 15.6216 28.7301 15.6047C28.7454 15.5786 28.7628 15.56 28.7826 15.55L28.7833 15.5497L28.784 15.5492C28.8559 15.4989 28.9727 15.48 29.1156 15.4856C29.2579 15.4912 29.4239 15.521 29.5922 15.5659L29.6099 15.5706L29.6061 15.5527L29.6061 15.5527L29.6061 15.5527M28.6913 15.6991C28.6951 15.6866 28.6991 15.6745 28.7034 15.663C28.6953 15.6713 28.6889 15.679 28.684 15.6856C28.6809 15.6896 28.6784 15.6933 28.6764 15.6964L28.6693 15.6943C28.6807 15.6563 28.6941 15.6216 28.7107 15.5934C28.7271 15.5654 28.747 15.543 28.7718 15.5303C28.7716 15.5305 28.7713 15.5306 28.7711 15.5308L28.7776 15.54L28.7725 15.5299C28.7723 15.53 28.772 15.5302 28.7718 15.5303C28.85 15.476 28.9729 15.4575 29.1165 15.4631C29.2565 15.4686 29.4183 15.4971 29.5821 15.5399C29.5823 15.544 29.5826 15.5475 29.583 15.5502C29.5832 15.5524 29.5835 15.5541 29.5837 15.5553L29.5839 15.5567L29.584 15.5571L29.584 15.5572L29.5841 15.5573L29.5841 15.5573C29.5841 15.5573 29.5841 15.5573 29.5951 15.555L29.598 15.5441C29.5927 15.5427 29.5874 15.5413 29.5821 15.5399C29.582 15.5377 29.5819 15.5353 29.5819 15.5328C29.5819 15.5186 29.5839 15.4994 29.5922 15.4802C29.6006 15.4608 29.6154 15.4417 29.6403 15.428C29.6651 15.4145 29.6991 15.4068 29.7455 15.4087L29.7456 15.4087V15.4087C29.9042 15.4163 30.1039 15.454 30.2827 15.5086C30.3722 15.5359 30.4566 15.5675 30.5283 15.6018C30.5998 15.636 30.6592 15.6732 30.698 15.712L30.6984 15.7124L30.6984 15.7124C30.7473 15.7661 30.7862 15.8283 30.813 15.8958L30.7934 15.9065C30.7587 15.8579 30.6915 15.8341 30.6237 15.8239C30.5565 15.8138 30.492 15.8175 30.4667 15.8211L30.4662 15.8212L30.4662 15.8212C30.444 15.8234 30.424 15.8243 30.4043 15.8253C30.3559 15.8275 30.3094 15.8297 30.2357 15.8508C30.2243 15.854 30.2124 15.8572 30.2002 15.8604C30.183 15.8649 30.165 15.8696 30.1468 15.8751C30.1165 15.8843 30.0882 15.895 30.0673 15.9087C30.061 15.9152 30.0544 15.9251 30.0469 15.9373C30.0442 15.9417 30.0414 15.9464 30.0385 15.9513C30.0334 15.9599 30.0281 15.9689 30.0227 15.9773C30.0141 15.9907 30.0046 16.0038 29.9939 16.0137C29.9832 16.0236 29.9703 16.0312 29.9551 16.0312C29.9173 16.0312 29.8961 16.0275 29.8813 16.0196C29.8738 16.0155 29.8684 16.0106 29.8636 16.0056C29.8613 16.0032 29.8595 16.0012 29.8578 15.9992C29.8553 15.9965 29.853 15.9938 29.8496 15.9904L29.8486 15.9895L29.8479 15.9883C29.843 15.9801 29.8385 15.9716 29.8342 15.9636C29.8334 15.9621 29.8326 15.9606 29.8318 15.9592C29.8268 15.9498 29.8221 15.9414 29.8174 15.9345C29.8125 15.9275 29.8082 15.9228 29.8041 15.9203C29.8005 15.918 29.7971 15.9173 29.7928 15.9184L29.792 15.9186L29.7912 15.9187C29.7506 15.9227 29.6958 15.9085 29.6314 15.8773C29.5667 15.8459 29.491 15.7966 29.408 15.7288C29.3218 15.6613 29.2632 15.6212 29.2004 15.5994C29.1379 15.5776 29.0704 15.5737 28.9659 15.5812L28.9658 15.5812C28.8555 15.5886 28.7864 15.6234 28.7451 15.6557C28.7244 15.6719 28.7106 15.6876 28.702 15.6991C28.6977 15.7048 28.6947 15.7095 28.6928 15.7127C28.6918 15.7143 28.6912 15.7155 28.6908 15.7163L28.6903 15.7171L28.6902 15.7173C28.6902 15.7173 28.6902 15.7173 28.6902 15.7173L28.6688 15.7125V15.6975H28.6757C28.6759 15.6971 28.6762 15.6968 28.6764 15.6964L28.6801 15.6975M28.9643 15.5588C28.9643 15.5588 28.9643 15.5588 28.9643 15.5588L28.9651 15.57L28.9643 15.5588C28.9643 15.5588 28.9643 15.5588 28.9643 15.5588ZM29.7882 15.8964C29.7879 15.8964 29.7876 15.8965 29.7873 15.8966L29.7901 15.9075L29.789 15.8963C29.7887 15.8963 29.7885 15.8963 29.7882 15.8964ZM29.8665 15.9755C29.8668 15.9759 29.867 15.9763 29.8672 15.9767L29.8576 15.9825L29.8655 15.9745C29.8659 15.9749 29.8662 15.9752 29.8665 15.9755Z" fill="#C09300"/>
<path d="M29.9101 15.8925C29.9598 15.8925 30.0001 15.8522 30.0001 15.8025C30.0001 15.7528 29.9598 15.7125 29.9101 15.7125C29.8604 15.7125 29.8201 15.7528 29.8201 15.8025C29.8201 15.8522 29.8604 15.8925 29.9101 15.8925Z" fill="white"/>
</g>
<defs>
<clipPath id="clip0_4_8323">
<rect width="60" height="45" fill="white"/>
</clipPath>
</defs>
</svg>
