<svg width="60" height="45" viewBox="0 0 60 45" fill="none" xmlns="http://www.w3.org/2000/svg">
<g clip-path="url(#clip0_4_7267)">
<path fill-rule="evenodd" clip-rule="evenodd" d="M-15.0544 0H75.1856V45.12H-15.0544V0Z" fill="#6797D6"/>
<path fill-rule="evenodd" clip-rule="evenodd" d="M30.048 10.8393L27.1927 12.7957L28.2855 9.63203L25.4214 7.67565H28.9552L30.048 4.51196L31.1407 7.68446H34.6657L31.8105 9.63203L32.9032 12.7957M30.048 34.3687L27.1927 32.4123L28.2855 35.5848L25.4214 37.5324H28.9552L30.048 40.6961L31.1407 37.5236L34.6657 37.5324L31.8105 35.576L32.9032 32.4123M16.3005 24.2696L14.1414 26.9662L14.2648 23.6175L10.9601 22.5864L14.3441 21.5553L14.4587 18.2066L16.4239 20.9208L19.8079 19.881L17.64 22.5864L19.614 25.2918M43.7779 24.2608L45.9457 26.9662L45.8224 23.6175L49.127 22.5864L45.743 21.5553L45.6285 18.2066L43.6633 20.9208L40.2793 19.881L42.4472 22.5864L40.4732 25.2918" fill="white"/>
</g>
<defs>
<clipPath id="clip0_4_7267">
<rect width="60" height="45" fill="white"/>
</clipPath>
</defs>
</svg>
