<svg width="60" height="45" viewBox="0 0 60 45" fill="none" xmlns="http://www.w3.org/2000/svg">
<g clip-path="url(#clip0_4_833)">
<path d="M0 0H60V45H0V0Z" fill="#002395"/>
<path d="M0 0H27.45V18.45H0V0Z" fill="white"/>
<path d="M0 0H9V18H0V0Z" fill="#002395"/>
<path d="M18 0H27V18H18V0Z" fill="#ED2939"/>
<path d="M39.9375 20.5875L41.3812 22.8938H45.5062V30.9375L42.4125 26.1L38.25 32.7375H40.275L42.4125 28.9125L46.8 36.7875L51.1875 28.9125L53.325 32.7375H55.35L51.1875 26.1L48.0938 30.9375V26.4938H49.95L51.3281 24.3H48.0938V22.8938H52.2188L53.6625 20.5875H39.9375V20.5875ZM44.775 30.4313H40.275V32.0063H44.775V30.4313ZM53.325 30.4313H48.825V32.0063H53.325V30.4313Z" fill="white"/>
<path d="M46.8 38.3625L48.1837 42.6375L44.55 39.9938H49.05L45.4162 42.6375L46.8 38.3625Z" fill="white"/>
<path d="M41.7375 34.5375L43.1212 38.8125L39.4875 36.1687H43.9875L40.3537 38.8125L41.7375 34.5375Z" fill="white"/>
<path d="M51.8625 34.5375L53.2462 38.8125L49.6125 36.1687H54.1125L50.4787 38.8125L51.8625 34.5375Z" fill="white"/>
<path d="M37.4625 23.175L38.8463 27.45L35.2125 24.8063H39.7125L36.0788 27.45L37.4625 23.175Z" fill="white"/>
<path d="M56.1375 23.175L57.5213 27.45L53.8875 24.8063H58.3875L54.7538 27.45L56.1375 23.175Z" fill="white"/>
</g>
<defs>
<clipPath id="clip0_4_833">
<rect width="60" height="45" fill="white"/>
</clipPath>
</defs>
</svg>
