<svg width="60" height="45" viewBox="0 0 60 45" fill="none" xmlns="http://www.w3.org/2000/svg">
<g clip-path="url(#clip0_4_6979)">
<path d="M0 0H60V45H0V0Z" fill="#DA000C"/>
<path d="M0 0H60V30.15H0V0Z" fill="white"/>
<path d="M19.5586 20.4434H30.8086V28.1777H19.5586V20.4434Z" fill="black"/>
<path d="M25.3945 27.0527H18.5391L17.0098 28.0547V29.1094H25.3945M22.5293 22.6055C23.5137 22.6055 24.3223 23.4316 24.3223 24.4512V27.0352H25.6055V17.1914H18.5215V27.0352H20.7363V24.4512C20.7363 23.4668 21.5273 22.6055 22.5293 22.6055V22.6055Z" fill="#DA000C"/>
<path fill-rule="evenodd" clip-rule="evenodd" d="M18.4336 17.1035H25.6934V27.123H25.4824V27.1406H18.5653L17.0977 28.1022V29.0215H25.4824V29.1973H16.9219V28.0072L18.4336 27.0168V17.1035ZM20.8242 26.9648V24.4512C20.8242 23.5114 21.5797 22.6934 22.5293 22.6934C23.4629 22.6934 24.2344 23.478 24.2344 24.4512V26.9648H20.8242ZM24.4102 26.9473H25.5176V17.2793H18.6094V26.9473H20.6484V24.4512C20.6484 23.4222 21.475 22.5176 22.5293 22.5176C23.5644 22.5176 24.4102 23.3853 24.4102 24.4512V26.9473Z" fill="black"/>
<path d="M20.9473 10.5469H24.2168V16.5234H20.9473V10.5469Z" fill="black"/>
<path d="M24.1992 15.5918H21.3516V14.5723H19.2598V15.5918H17.8535V14.5723H16.9922V16.4004H24.1992M17.8359 16.4004H23.9883V17.1914H17.8359V16.4004ZM26.6602 7.55859V14.5898H27.7148V12.8848C27.7148 12.252 28.1543 11.7246 28.7871 11.6895H28.8574C29.1744 11.6895 29.4785 11.8154 29.7026 12.0396C29.9268 12.2637 30.0527 12.5678 30.0527 12.8848V14.5898H31.0547V8.36719L26.6602 7.55859ZM26.2559 6.71484V7.55859H31.4062V6.71484H26.2559ZM25.6055 5.11523V6.71484H31.7578V5.11523H30.8262V5.94141H29.666V5.11523H27.9082V5.94141H26.7656V5.11523H25.6055ZM16.9922 28.0547H25.4297ZM30.8789 27.5625H25.1836L23.4609 28.3887V29.6191H30.8789" fill="#DA000C"/>
<path fill-rule="evenodd" clip-rule="evenodd" d="M25.5176 5.02734H26.8535V5.85352H27.8203V5.02734H29.7539V5.85352H30.7383V5.02734H31.8457V6.80273H31.4941V7.64648H27.6235L31.1426 8.29399V14.6777H29.9648V12.8848C29.9648 12.5911 29.8482 12.3094 29.6405 12.1017C29.4328 11.894 29.1511 11.7773 28.8574 11.7773H28.7896C28.2105 11.8108 27.8027 12.2933 27.8027 12.8848V14.6777H26.5723V7.64648H26.168V6.80273H25.5176V5.02734ZM31.6699 6.62695V5.20312H30.9141V6.0293H29.5781V5.20312H27.9961V6.0293H26.6777V5.20312H25.6934V6.62695H31.6699ZM26.3437 6.80273V7.4707H26.5723V7.45306L26.6682 7.4707H31.3184V6.80273H26.3437ZM26.748 7.66413V14.502H27.627V12.8848C27.627 12.2115 28.0969 11.6398 28.7822 11.6017L28.7847 11.6016H28.8574C29.1977 11.6016 29.5241 11.7368 29.7648 11.9774C30.0054 12.2181 30.1406 12.5444 30.1406 12.8848V14.502H30.9668V8.44038L26.748 7.66413ZM16.9043 14.4844H17.9414V15.5039H19.1719V14.4844H21.4395V15.5039H24.2871V15.6797H21.2637V14.6602H19.3477V15.6797H17.7656V14.6602H17.0801V16.3125H24.2871V16.4883H24.0762V17.2793H17.748V16.4883H16.9043V14.4844ZM17.9238 16.4883V17.1035H23.9004V16.4883H17.9238ZM25.1636 27.4746H30.9668V27.6504H25.2036L24.5438 27.9668H25.5176V28.1426H24.1773L23.5488 28.444V29.5312H30.9668V29.707H23.373V28.3333L23.7708 28.1426H16.9043V27.9668H24.1373L25.1636 27.4746Z" fill="black"/>
<path fill-rule="evenodd" clip-rule="evenodd" d="M31.0547 28.4766H23.4609V28.3008H31.0547V28.4766Z" fill="black"/>
<path d="M33.041 26.3672C32.5664 26.543 32.1621 26.7891 31.7226 27.0352C31.1757 27.3475 30.6528 27.7001 30.1582 28.0898C29.9824 28.2129 29.8066 28.3359 29.6835 28.5117C29.5078 28.6523 29.332 28.8633 29.3671 29.127C29.3671 29.2324 29.5078 28.9863 29.6132 28.9688C29.7801 28.8794 29.974 28.8544 30.1582 28.8984C30.3867 28.6523 30.6855 28.4941 30.9316 28.3008C31.6481 27.7823 32.4134 27.3348 33.2167 26.9648L33.041 26.3672Z" fill="#F8D80E"/>
<path fill-rule="evenodd" clip-rule="evenodd" d="M33.0872 26.2751L33.3014 27.0033L33.2462 27.0288C32.4474 27.3966 31.6864 27.8415 30.974 28.357C30.8878 28.4246 30.7942 28.4888 30.7016 28.5524C30.6602 28.5808 30.6191 28.609 30.5788 28.6374C30.446 28.731 30.3189 28.8287 30.2097 28.9463L30.1818 28.9764L30.1418 28.9669C29.9745 28.9268 29.7982 28.9496 29.6465 29.0308L29.6363 29.0363L29.6248 29.0382C29.6187 29.0392 29.6026 29.0465 29.576 29.0693C29.5526 29.0892 29.5292 29.1137 29.5055 29.1385C29.5042 29.1398 29.5028 29.1412 29.5015 29.1426C29.4895 29.1551 29.4772 29.168 29.4656 29.1789C29.455 29.189 29.441 29.2015 29.4258 29.2102C29.4169 29.2153 29.371 29.2403 29.3288 29.2055C29.311 29.1909 29.3039 29.1724 29.3008 29.1608C29.2981 29.1507 29.2972 29.1408 29.2969 29.1321C29.2596 28.8361 29.4545 28.6071 29.6318 28.4632C29.7617 28.2816 29.9432 28.1546 30.1132 28.0356L30.1162 28.0334C30.6132 27.642 31.1385 27.2879 31.6878 26.9742L31.6883 26.9739C31.755 26.9365 31.8211 26.899 31.8869 26.8617C32.2519 26.6547 32.6089 26.4523 33.0166 26.3013L33.0872 26.2751ZM31.7573 27.0964C31.2135 27.407 30.6936 27.7575 30.2017 28.1451L30.2001 28.1464L30.1985 28.1475C30.0209 28.2718 29.8559 28.3882 29.7412 28.5521L29.7354 28.5604L29.7275 28.5667C29.5848 28.6808 29.4574 28.831 29.4361 29.0079C29.4514 28.9925 29.4679 28.9766 29.4847 28.9623C29.5113 28.9395 29.5476 28.9127 29.5889 28.9022C29.7568 28.8148 29.949 28.7866 30.1344 28.8215C30.2469 28.7062 30.3729 28.6104 30.4978 28.5224C30.5413 28.4917 30.5843 28.4622 30.6266 28.4333C30.7177 28.3708 30.8054 28.3106 30.8882 28.2455L30.8893 28.2447L30.8904 28.2439C31.5942 27.7345 32.3449 27.2935 33.1322 26.9266L32.995 26.46C32.6279 26.6033 32.3015 26.7884 31.9582 26.983C31.892 27.0205 31.8251 27.0584 31.7573 27.0964ZM29.4375 29.1289C29.4375 29.1289 29.4375 29.1288 29.4375 29.1287Z" fill="black"/>
<path d="M30.7734 27.668V28.3535ZM31.1953 27.3691V28.0547ZM31.6172 27.1055V27.7734ZM32.0566 26.8418V27.5449Z" fill="#F8D80E"/>
<path fill-rule="evenodd" clip-rule="evenodd" d="M32.0566 26.7539C32.1052 26.7539 32.1445 26.7933 32.1445 26.8418V27.5449C32.1445 27.5935 32.1052 27.6328 32.0566 27.6328C32.0081 27.6328 31.9688 27.5935 31.9688 27.5449V26.8418C31.9688 26.7933 32.0081 26.7539 32.0566 26.7539ZM31.6172 27.0176C31.6657 27.0176 31.7051 27.0569 31.7051 27.1055V27.7734C31.7051 27.822 31.6657 27.8613 31.6172 27.8613C31.5687 27.8613 31.5293 27.822 31.5293 27.7734V27.1055C31.5293 27.0569 31.5687 27.0176 31.6172 27.0176ZM31.1953 27.2812C31.2439 27.2812 31.2832 27.3206 31.2832 27.3691V28.0547C31.2832 28.1032 31.2439 28.1426 31.1953 28.1426C31.1468 28.1426 31.1074 28.1032 31.1074 28.0547V27.3691C31.1074 27.3206 31.1468 27.2812 31.1953 27.2812ZM30.7734 27.5801C30.822 27.5801 30.8613 27.6194 30.8613 27.668V28.3535C30.8613 28.4021 30.822 28.4414 30.7734 28.4414C30.7249 28.4414 30.6855 28.4021 30.6855 28.3535V27.668C30.6855 27.6194 30.7249 27.5801 30.7734 27.5801Z" fill="black"/>
<path d="M26.9941 26.4023L26.7832 26.9824C27.7546 27.355 28.6853 27.8262 29.5605 28.3887C29.8594 28.5996 30.1758 28.793 30.4043 29.0742C30.457 29.2148 30.3164 29.3379 30.1758 29.2852C30.0527 29.25 29.9121 29.1973 29.7891 29.2852C29.5957 29.373 29.4199 29.6719 29.7012 29.7598C30.123 30.041 30.7734 29.918 30.9668 29.4434C31.0723 29.1973 31.0898 28.8809 30.8789 28.6699C30.5273 28.2656 30.0352 27.9668 29.5781 27.668C28.7574 27.1678 27.8924 26.7441 26.9941 26.4023V26.4023Z" fill="#F8D80E"/>
<path fill-rule="evenodd" clip-rule="evenodd" d="M27.0191 26.3367C27.9214 26.68 28.7903 27.1055 29.6147 27.608L29.6156 27.6086L29.6166 27.6092C29.6639 27.6401 29.7118 27.6712 29.7601 27.7025C30.1725 27.9699 30.6085 28.2526 30.9304 28.622C31.1687 28.8622 31.1418 29.213 31.0316 29.4705C30.9246 29.7327 30.6925 29.8946 30.4354 29.9536C30.1817 30.0118 29.8974 29.9715 29.6704 29.8237C29.5923 29.7973 29.5352 29.753 29.5056 29.6914C29.4753 29.6281 29.4802 29.5596 29.5006 29.4998C29.5396 29.3852 29.6435 29.2764 29.7538 29.224C29.8315 29.1709 29.9138 29.1615 29.9894 29.1691C30.0515 29.1753 30.1139 29.1937 30.1661 29.2091C30.1762 29.2121 30.1858 29.215 30.1951 29.2176L30.1978 29.2184L30.2004 29.2194C30.2455 29.2363 30.2882 29.2246 30.3153 29.2001C30.3395 29.1783 30.3519 29.1461 30.3416 29.1087C30.1592 28.8879 29.921 28.7236 29.6734 28.5528C29.6229 28.518 29.5721 28.4829 29.5212 28.447C28.6503 27.8876 27.7244 27.4188 26.758 27.0481L26.6935 27.0234L26.928 26.3784L26.9941 26.4024L27.0191 26.3367ZM27.0357 26.4936L26.8728 26.9417C27.8254 27.3121 28.7386 27.777 29.5985 28.3296L29.5998 28.3304L29.6011 28.3313C29.6494 28.3654 29.6988 28.3994 29.7485 28.4336C30 28.6069 30.2614 28.787 30.4588 29.0299L30.4661 29.0388L30.4701 29.0496C30.5073 29.1487 30.4758 29.2446 30.4097 29.3044C30.3452 29.3628 30.2485 29.3864 30.1539 29.3521C30.1433 29.349 30.1329 29.346 30.1226 29.343C30.0705 29.3277 30.0231 29.3138 29.9754 29.309C29.921 29.3036 29.8736 29.3112 29.8299 29.3424L29.8243 29.3464L29.8181 29.3492C29.7373 29.3859 29.6598 29.4686 29.6337 29.5452C29.6211 29.5821 29.6227 29.6103 29.6324 29.6305C29.6417 29.6498 29.6646 29.6747 29.7221 29.6927L29.7317 29.6957L29.7401 29.7013C29.9337 29.8303 30.1817 29.8675 30.4039 29.8165C30.6257 29.7657 30.8152 29.629 30.9017 29.4169L30.9021 29.4157C31.0024 29.1818 31.0107 28.9012 30.8292 28.7197L30.8274 28.718L30.8258 28.7161C30.5177 28.3618 30.0985 28.0898 29.6828 27.82C29.6353 27.7892 29.5878 27.7584 29.5406 27.7275C28.7441 27.2422 27.9058 26.8292 27.0357 26.4936Z" fill="black"/>
<path d="M29.6484 27.7734L29.5957 28.3711ZM30.1406 28.0723L30 28.6523ZM30.668 28.4766L30.3516 28.9336ZM30.8262 29.5664L30.3691 29.3203ZM30.9668 29.0742L30.4395 29.127ZM30.2988 29.8301L30.2637 29.373ZM30.0879 29.3203L29.666 29.6367ZM28.0137 26.877V27.4219ZM29.1211 27.4746V28.0898ZM28.5586 27.1758V27.7559Z" fill="#F8D80E"/>
<path fill-rule="evenodd" clip-rule="evenodd" d="M28.0137 26.7891C28.0622 26.7891 28.1016 26.8284 28.1016 26.877V27.4219C28.1016 27.4704 28.0622 27.5098 28.0137 27.5098C27.9651 27.5098 27.9258 27.4704 27.9258 27.4219V26.877C27.9258 26.8284 27.9651 26.7891 28.0137 26.7891ZM28.5586 27.0879C28.6071 27.0879 28.6465 27.1272 28.6465 27.1758V27.7559C28.6465 27.8044 28.6071 27.8438 28.5586 27.8438C28.5101 27.8438 28.4707 27.8044 28.4707 27.7559V27.1758C28.4707 27.1272 28.5101 27.0879 28.5586 27.0879ZM29.1211 27.3867C29.1696 27.3867 29.209 27.4261 29.209 27.4746V28.0898C29.209 28.1384 29.1696 28.1777 29.1211 28.1777C29.0726 28.1777 29.0332 28.1384 29.0332 28.0898V27.4746C29.0332 27.4261 29.0726 27.3867 29.1211 27.3867ZM29.6562 27.6859C29.7045 27.6902 29.7403 27.7328 29.736 27.7812L29.6833 28.3788C29.679 28.4272 29.6363 28.4629 29.588 28.4586C29.5396 28.4544 29.5039 28.4117 29.5082 28.3634L29.5609 27.7657C29.5652 27.7174 29.6078 27.6816 29.6562 27.6859ZM30.1613 27.9868C30.2085 27.9983 30.2375 28.0458 30.226 28.093L30.0854 28.6731C30.074 28.7202 30.0265 28.7492 29.9793 28.7378C29.9321 28.7263 29.9031 28.6788 29.9146 28.6316L30.0552 28.0516C30.0666 28.0044 30.1142 27.9754 30.1613 27.9868ZM30.718 28.4043C30.7579 28.4319 30.7679 28.4867 30.7402 28.5266L30.4238 28.9836C30.3962 29.0235 30.3414 29.0335 30.3015 29.0059C30.2616 28.9782 30.2517 28.9235 30.2793 28.8836L30.5957 28.4265C30.6233 28.3866 30.6781 28.3767 30.718 28.4043ZM31.0543 29.0655C31.0591 29.1138 31.0238 29.1568 30.9755 29.1617L30.4482 29.2144C30.3999 29.2192 30.3568 29.184 30.352 29.1357C30.3472 29.0874 30.3824 29.0443 30.4307 29.0395L30.9581 28.9868C31.0064 28.9819 31.0494 29.0172 31.0543 29.0655ZM30.2918 29.2786C30.3148 29.2359 30.3681 29.2199 30.4108 29.2429L30.8678 29.489C30.9106 29.512 30.9266 29.5653 30.9036 29.6081C30.8805 29.6508 30.8272 29.6668 30.7845 29.6438L30.3549 29.4124L30.3865 29.8233C30.3902 29.8717 30.354 29.914 30.3056 29.9177C30.2572 29.9214 30.2149 29.8852 30.2112 29.8368L30.176 29.3798C30.1723 29.3314 30.2085 29.2891 30.2569 29.2854C30.2674 29.2846 30.2777 29.2857 30.2873 29.2884C30.2885 29.2851 30.29 29.2818 30.2918 29.2786ZM30.1582 29.2676C30.1873 29.3064 30.1795 29.3615 30.1406 29.3906L29.7188 29.707C29.6799 29.7362 29.6248 29.7283 29.5957 29.6895C29.5666 29.6506 29.5745 29.5955 29.6133 29.5664L30.0352 29.25C30.074 29.2209 30.1291 29.2287 30.1582 29.2676Z" fill="black"/>
<path d="M26.4492 40.0078V41.4141H27.3281V40.7109H28.541V41.4141H29.4902V40.0078H26.4492ZM26.4492 41.9414V43.3477H29.4727V41.9414H28.5234V42.6445H27.3105V41.9414H26.4492Z" fill="#F8D80E"/>
<path fill-rule="evenodd" clip-rule="evenodd" d="M26.3613 39.9199H29.5781V41.502H28.4531V40.7988H27.416V41.502H26.3613V39.9199ZM26.5371 40.0957V41.3262H27.2402V40.623H28.6289V41.3262H29.4023V40.0957H26.5371ZM26.3613 41.8535H27.3984V42.5566H28.4355V41.8535H29.5605V43.4355H26.3613V41.8535ZM26.5371 42.0293V43.2598H29.3848V42.0293H28.6113V42.7324H27.2227V42.0293H26.5371Z" fill="black"/>
<path d="M29.4727 34.0488H30.3516V44.2441H29.4727V34.0488Z" fill="#F8D80E"/>
<path fill-rule="evenodd" clip-rule="evenodd" d="M29.3848 33.9609H30.4395V44.332H29.3848V33.9609ZM29.5605 34.1367V44.1562H30.2637V34.1367H29.5605Z" fill="black"/>
<path d="M29.4727 34.9277H30.3516V43.7168H29.4727V34.9277ZM29.9297 31.5352L31.793 32.625L29.9297 33.7148L28.0488 32.625L29.9297 31.5352ZM27.416 32.2383H26.9414V33.0117H27.416L29.9297 34.4707L32.4258 33.0117H32.918V32.2383H32.4258L29.9297 30.7793L27.416 32.2383Z" fill="#F8D80E"/>
<path fill-rule="evenodd" clip-rule="evenodd" d="M29.9298 30.6776L32.4496 32.1504H33.0059V33.0996H32.4496L29.9298 34.5724L27.3924 33.0996H26.8535V32.1504H27.3924L29.9298 30.6776ZM29.9295 30.881L27.4397 32.3262H27.0293V32.9239H27.4397L29.9295 34.369L32.402 32.9239H32.8301V32.3262H32.402L29.9295 30.881ZM29.9299 31.4335L31.9671 32.625L29.9299 33.8166L27.8735 32.625L29.9299 31.4335ZM28.2241 32.625L29.9295 33.6132L31.6189 32.625L29.9295 31.6369L28.2241 32.625ZM29.3848 34.8399H30.4395V43.8047H29.3848V34.8399ZM29.5605 35.0157V43.6289H30.2637V35.0157H29.5605Z" fill="black"/>
<path d="M29.8769 28.8809C29.6724 28.9224 29.4893 29.0355 29.3604 29.1997C29.2316 29.364 29.1654 29.5688 29.1738 29.7773V31.7461C29.19 31.9552 29.2803 32.1516 29.4286 32.2999C29.5769 32.4482 29.7733 32.5385 29.9824 32.5547C30.1563 32.5677 30.3301 32.5277 30.4808 32.4398C30.6314 32.3519 30.7519 32.2203 30.8261 32.0625L30.5273 31.8867C30.4858 31.9897 30.4119 32.0763 30.3167 32.1334C30.2216 32.1905 30.1103 32.215 30 32.2031C29.7187 32.2031 29.4902 31.9219 29.5254 31.6582V29.6895C29.5387 29.5605 29.6006 29.4415 29.6986 29.3566C29.7965 29.2717 29.9232 29.2273 30.0527 29.2324C30.1582 29.1973 30.3164 29.3555 30.3867 29.2324C30.4922 29.0742 30.3164 28.9688 30.2109 28.8809H29.8769V28.8809ZM30.8965 29.5664C30.8106 29.6868 30.6957 29.7835 30.5625 29.8477V31.166L30.914 31.3594V29.5664H30.8965Z" fill="#F8D80E"/>
<path fill-rule="evenodd" clip-rule="evenodd" d="M29.8769 28.793H30.2427L30.2672 28.8133C30.2791 28.8233 30.2921 28.8335 30.3067 28.8451L30.3075 28.8457C30.3221 28.8573 30.3381 28.8699 30.354 28.8831C30.3852 28.9092 30.4197 28.9404 30.4476 28.9767C30.4756 29.0132 30.5006 29.0592 30.506 29.1145C30.5115 29.1706 30.496 29.226 30.4614 29.2788C30.4303 29.3314 30.3837 29.3605 30.3297 29.3667C30.2831 29.3721 30.2377 29.3592 30.206 29.3491C30.1901 29.344 30.1773 29.3394 30.1658 29.3354C30.1486 29.3294 30.1344 29.3244 30.1175 29.32C30.0918 29.3133 30.0825 29.3152 30.0805 29.3158L30.0653 29.3209L30.0492 29.3202C29.942 29.316 29.8372 29.3527 29.7561 29.423C29.6761 29.4923 29.6252 29.5891 29.6133 29.6942V31.664L29.6125 31.6698C29.5987 31.7731 29.6365 31.8851 29.7109 31.9726C29.7851 32.0597 29.8894 32.1152 30 32.1152H30.0047L30.0094 32.1157C30.1007 32.1256 30.1927 32.1053 30.2715 32.058C30.3503 32.0108 30.4115 31.9391 30.4458 31.8539L30.4839 31.7592L30.9398 32.0274L30.9057 32.0999C30.8238 32.2738 30.6911 32.4188 30.5251 32.5157C30.359 32.6125 30.1675 32.6567 29.9758 32.6423L29.9756 32.6423C29.7456 32.6245 29.5296 32.5251 29.3665 32.362C29.2034 32.1989 29.1039 31.9829 29.0862 31.7529L29.0859 31.7495V29.7791C29.0772 29.5502 29.1499 29.3257 29.2913 29.1455C29.433 28.9648 29.6344 28.8405 29.8594 28.7947L29.8769 28.8809V28.793ZM29.886 28.9688C29.7053 29.0075 29.5438 29.1084 29.4296 29.254C29.3136 29.4018 29.2541 29.5861 29.2616 29.7738L29.2617 29.7756V31.7426C29.2769 31.9296 29.3581 32.105 29.4908 32.2377C29.6242 32.3711 29.8009 32.4525 29.989 32.467C30.1452 32.4787 30.3012 32.4428 30.4365 32.3638C30.5487 32.2984 30.6422 32.206 30.7089 32.0955L30.5633 32.0098C30.5133 32.0909 30.4444 32.1593 30.3619 32.2088C30.2517 32.2749 30.1231 32.3037 29.9952 32.291C29.8265 32.2894 29.6777 32.2048 29.5771 32.0865C29.477 31.969 29.4184 31.811 29.4375 31.6527V29.6849L29.4379 29.6804C29.4535 29.5292 29.5262 29.3897 29.641 29.2901C29.7523 29.1937 29.8952 29.1418 30.0422 29.1442C30.0869 29.134 30.1297 29.1416 30.1615 29.1498C30.1846 29.1558 30.2123 29.1654 30.2345 29.1731C30.2443 29.1765 30.253 29.1795 30.2598 29.1817C30.2875 29.1906 30.3015 29.1925 30.3082 29.1922C30.3088 29.1914 30.3095 29.1903 30.3104 29.1888L30.3119 29.1862L30.3136 29.1837C30.3306 29.1581 30.3321 29.1418 30.3311 29.1317C30.3299 29.12 30.3241 29.1045 30.3082 29.0839C30.2922 29.063 30.2695 29.0415 30.2414 29.0181C30.2276 29.0066 30.2134 28.9954 30.1986 28.9837L30.1969 28.9824C30.1913 28.9779 30.1855 28.9734 30.1797 28.9688H29.886ZM30.8512 29.4785H31.0019V31.508L30.4746 31.218V29.7924L30.5243 29.7685C30.6442 29.7107 30.7476 29.6237 30.8249 29.5153L30.8512 29.4785ZM30.8261 29.7759C30.7725 29.824 30.7136 29.866 30.6504 29.9011V31.114L30.8261 31.2107V29.7759Z" fill="black"/>
<path d="M27.3281 6.75H32.4785V16.1016H27.3281V6.75Z" fill="black"/>
<path d="M26.9766 6.75V14.5723H28.6113V12.252C28.6113 11.7246 28.9629 10.9688 30 10.9688C31.0371 10.9688 31.4062 11.7246 31.4062 12.252V14.5898H33.0234V6.75H26.9766ZM29.7539 7.62891H30.2461V10.3008H29.7539V7.62891ZM28.2949 8.15625H28.8223V10.1074H28.2949V8.15625ZM31.1953 8.15625H31.7051V10.1074H31.1777L31.1953 8.15625ZM26.4141 5.625V6.73242H33.5859V5.625H26.4141ZM25.7461 4.32422V5.625H34.2715V4.32422H33.1992V5.02734H31.9688V4.32422H30.5977V5.02734H29.4023V4.32422H28.0137V5.02734H26.8359V4.32422H25.7461ZM24.1641 17.1914V18H35.8535V17.1914H24.1641Z" fill="#DA000C"/>
<path fill-rule="evenodd" clip-rule="evenodd" d="M25.6582 4.23633H26.9238V4.93945H27.9258V4.23633H29.4902V4.93945H30.5098V4.23633H32.0566V4.93945H33.1113V4.23633H34.3594V5.71289H33.6738V6.82031H33.1113V14.6777H31.3184V12.252C31.3184 12.0068 31.2321 11.7073 31.0258 11.4703C30.8217 11.2359 30.495 11.0566 30 11.0566C29.5051 11.0566 29.1831 11.2358 28.9836 11.4697C28.7817 11.7062 28.6992 12.0058 28.6992 12.252V14.6602H26.8887V6.82031H26.3262V5.71289H25.6582V4.23633ZM34.1836 5.53711V4.41211H33.2871V5.11523H31.8809V4.41211H30.6855V5.11523H29.3145V4.41211H28.1016V5.11523H26.748V4.41211H25.834V5.53711H34.1836ZM26.502 5.71289V6.64453H33.498V5.71289H26.502ZM27.0645 6.83789V14.4844H28.5234V12.252C28.5234 11.9708 28.6167 11.6288 28.8499 11.3555C29.0854 11.0796 29.4578 10.8809 30 10.8809C30.5421 10.8809 30.9185 11.0795 31.1583 11.3549C31.3959 11.6277 31.4941 11.9698 31.4941 12.252V14.502H32.9355V6.83789H27.0645ZM29.666 7.54102H30.334V10.3887H29.666V7.54102ZM29.8418 7.7168V10.2129H30.1582V7.7168H29.8418ZM28.207 8.06836H28.9102V10.1953H28.207V8.06836ZM28.3828 8.24414V10.0195H28.7344V8.24414H28.3828ZM31.1082 8.06836H31.793V10.1953H31.0891L31.1082 8.06836ZM31.2824 8.24414L31.2664 10.0195H31.6172V8.24414H31.2824ZM24.0762 17.1035H35.9414V18.0879H24.0762V17.1035ZM24.252 17.2793V17.9121H35.7656V17.2793H24.252Z" fill="black"/>
<path d="M23.6719 14.5723V17.209H36.3281V14.5723H35.1328V15.5918H33.5156V14.5723H31.3711V15.5918H28.5938V14.5723H26.4492V15.5918H24.8672V14.5723H23.6719Z" fill="#DA000C"/>
<path fill-rule="evenodd" clip-rule="evenodd" d="M23.584 14.4844H24.9551V15.5039H26.3613V14.4844H28.6816V15.5039H31.2832V14.4844H33.6035V15.5039H35.0449V14.4844H36.416V17.2969H23.584V14.4844ZM23.7598 14.6602V17.1211H36.2402V14.6602H35.2207V15.6797H33.4277V14.6602H31.459V15.6797H28.5059V14.6602H26.5371V15.6797H24.7793V14.6602H23.7598Z" fill="black"/>
<path d="M25.2012 18V27.5625H27.4512V23.9766C27.4512 22.3066 28.5762 21.5156 30 21.5156C31.3711 21.5156 32.5488 22.3066 32.5488 23.9766V27.5625H34.7988V18H25.2012Z" fill="#DA000C"/>
<path fill-rule="evenodd" clip-rule="evenodd" d="M25.1133 18C25.1133 17.9515 25.1526 17.9121 25.2012 17.9121H34.7988C34.8474 17.9121 34.8867 17.9515 34.8867 18V27.5625C34.8867 27.611 34.8474 27.6504 34.7988 27.6504H32.5488C32.5003 27.6504 32.4609 27.611 32.4609 27.5625V23.9766C32.4609 23.1639 32.1753 22.574 31.7308 22.1861C31.2845 21.7966 30.6695 21.6035 30 21.6035C29.3035 21.6035 28.6891 21.797 28.2499 22.1857C27.8124 22.5729 27.5391 23.1626 27.5391 23.9766V27.5625C27.5391 27.611 27.4997 27.6504 27.4512 27.6504H25.2012C25.1526 27.6504 25.1133 27.611 25.1133 27.5625V18ZM25.2891 18.0879V27.4746H27.3633V23.9766C27.3633 23.1206 27.6524 22.4798 28.1334 22.0541C28.6127 21.6298 29.2727 21.4277 30 21.4277C30.7016 21.4277 31.361 21.6301 31.8464 22.0537C32.3335 22.4788 32.6367 23.1193 32.6367 23.9766V27.4746H34.7109V18.0879H25.2891Z" fill="black"/>
</g>
<defs>
<clipPath id="clip0_4_6979">
<rect width="60" height="45" fill="white"/>
</clipPath>
</defs>
</svg>
