<svg width="60" height="45" viewBox="0 0 60 45" fill="none" xmlns="http://www.w3.org/2000/svg">
<g clip-path="url(#clip0_4_6976)">
<path d="M0 0H60V45H0V0Z" fill="white"/>
<path d="M0 22.5H60V45H0V22.5ZM7.5 22.5C7.5 26.4782 9.08035 30.2936 11.8934 33.1066C14.7064 35.9196 18.5218 37.5 22.5 37.5C26.4782 37.5 30.2936 35.9196 33.1066 33.1066C35.9196 30.2936 37.5 26.4782 37.5 22.5C37.5 18.5218 35.9196 14.7064 33.1066 11.8934C30.2936 9.08035 26.4782 7.5 22.5 7.5C18.5218 7.5 14.7064 9.08035 11.8934 11.8934C9.08035 14.7064 7.5 18.5218 7.5 22.5" fill="#D00C33"/>
</g>
<defs>
<clipPath id="clip0_4_6976">
<rect width="60" height="45" fill="white"/>
</clipPath>
</defs>
</svg>
