<svg width="60" height="45" viewBox="0 0 60 45" fill="none" xmlns="http://www.w3.org/2000/svg">
<g clip-path="url(#clip0_4_6434)">
<path d="M0 0H60V45H0V0Z" fill="#00008B"/>
<path d="M3.51562 0L14.9531 8.48438L26.3438 0H30V2.90625L18.75 11.2969L30 19.6406V22.5H26.25L15 14.1094L3.79688 22.5H0V19.6875L11.2031 11.3438L0 3V0H3.51562Z" fill="white"/>
<path d="M19.875 13.1719L30 20.625V22.5L17.2969 13.1719H19.875ZM11.25 14.1094L11.5312 15.75L2.53125 22.5H0L11.25 14.1094ZM30 0V0.140625L18.3281 8.95312L18.4219 6.89062L27.6562 0H30ZM0 0L11.2031 8.25H8.39062L0 1.96875V0Z" fill="#FF0000"/>
<path d="M11.2969 0V22.5H18.7969V0H11.2969ZM0 7.5V15H30V7.5H0Z" fill="white"/>
<path d="M0 9.04688V13.5469H30V9.04688H0ZM12.7969 0V22.5H17.2969V0H12.7969Z" fill="#FF0000"/>
<path d="M49.4062 37.1906L47.4844 37.4344L47.6906 39.3562L46.3031 38.0062L44.925 39.3656L45.1125 37.4437L43.1906 37.2187L44.8125 36.1687L43.7906 34.5281L45.6281 35.1375L46.275 33.3094L46.9406 35.1281L48.7687 34.5L47.7656 36.15L49.3969 37.1906H49.4062ZM49.0594 26.2031L49.3125 24.9844L48.3937 24.1406L49.6312 24L50.1469 22.8656L50.6625 24L51.9 24.1406L50.9812 24.9844L51.2344 26.2031L50.1469 25.5844L49.0594 26.2031V26.2031ZM39.3 20.5781L37.3969 20.7843L37.5656 22.6875L36.2156 21.3281L34.8281 22.65L35.0531 20.7469L33.1594 20.4937L34.7812 19.4812L33.7969 17.8406L35.6062 18.4781L36.2812 16.6875L36.9094 18.4969L38.7281 17.9062L37.7062 19.5281L39.3094 20.5781H39.3ZM58.4062 17.5031L56.4469 17.7562L56.6625 19.7156L55.2469 18.3375L53.8406 19.725L54.0375 17.7562L52.0781 17.5312L53.7375 16.4531L52.6969 14.775L54.5719 15.4031L55.2281 13.5469L55.9031 15.4031L57.7687 14.7562L56.7375 16.4437L58.4062 17.5031ZM49.3969 9.67498L47.4562 9.8906L47.6344 11.8406L46.2562 10.4531L44.8406 11.8031L45.0656 9.86248L43.125 9.59998L44.7844 8.56873L43.7812 6.8906L45.6281 7.53748L46.3125 5.70935L46.95 7.55623L48.8062 6.94685L47.7656 8.59685L49.3969 9.67498V9.67498ZM21.9375 36.1594L17.6437 36.6656L18.075 40.9687L15 37.9312L11.9062 40.95L12.3656 36.6469L8.07187 36.1031L11.7187 33.7781L9.46874 30.0844L13.5562 31.4906L15.0375 27.4219L16.4906 31.5L20.5875 30.1219L18.3094 33.7969L21.9469 36.15L21.9375 36.1594Z" fill="white"/>
</g>
<defs>
<clipPath id="clip0_4_6434">
<rect width="60" height="45" fill="white"/>
</clipPath>
</defs>
</svg>
