<svg width="60" height="45" viewBox="0 0 60 45" fill="none" xmlns="http://www.w3.org/2000/svg">
<g clip-path="url(#clip0_4_5441)">
<path d="M0 15H60V30H0V15Z" fill="white"/>
<path d="M0 0H60V15H0V0Z" fill="#CE1126"/>
<path d="M0 30H60V45H0V30Z" fill="black"/>
<path d="M36.6485 19.7452C36.5629 19.7041 36.4851 19.6485 36.4186 19.5809C36.3693 19.4988 36.4021 19.4988 36.6156 19.5481C36.9934 19.663 37.2397 19.6138 37.4861 19.4167L37.6996 19.236L37.9459 19.351C38.0937 19.4331 38.2416 19.4824 38.2744 19.466C38.3894 19.4331 38.6193 19.1375 38.6029 19.039C38.6029 18.924 38.7014 18.9568 38.7671 19.0882C38.8656 19.351 38.7178 19.663 38.4386 19.7287C38.3237 19.7616 38.2087 19.7452 38.0116 19.6795C37.7817 19.5973 37.7324 19.5973 37.6175 19.6795C37.4798 19.7835 37.3149 19.8451 37.1428 19.8567C36.9707 19.8684 36.7989 19.8296 36.6485 19.7452V19.7452ZM37.601 18.8747C37.4898 18.6739 37.4332 18.4474 37.4368 18.2178C37.4532 18.1192 37.4861 18.0864 37.5682 18.1193C37.7324 18.1685 37.7653 18.2835 37.7324 18.612C37.7324 18.9076 37.6832 18.9897 37.601 18.8747ZM26.4989 18.5627C26.4825 18.7762 26.893 19.3182 27.0737 19.4167C26.9423 19.466 26.7945 19.4495 26.6795 19.4988C26.0226 20.1557 23.6577 22.455 23.2306 23.0134C24.5117 23.0462 25.9241 22.997 27.123 22.9477C27.123 22.0773 27.9441 22.028 28.5025 21.716C28.7817 22.1594 29.4879 22.1265 29.5865 22.7999V25.6904H18.665C18.6237 25.9096 18.5368 26.1176 18.41 26.3011C18.2832 26.4846 18.1193 26.6394 17.9288 26.7555C17.7384 26.8716 17.5257 26.9464 17.3046 26.9751C17.0834 27.0038 16.8587 26.9858 16.6449 26.9221C16.9734 26.5937 17.5318 26.4623 17.7288 25.986C17.8931 24.9349 17.4004 24.2944 17.0719 23.6868C17.485 23.5543 17.8735 23.3545 18.2215 23.0955C17.8438 24.2451 19.2398 24.1302 20.258 24.0973C20.2909 23.7032 20.2745 23.2433 19.9788 23.1776C20.3566 23.0298 20.4223 22.9806 21.0628 22.455V24.0316L28.6339 24.0152C28.6339 23.5225 28.7653 22.7178 28.3711 22.7178C28.0098 22.7178 28.3711 23.736 28.0755 23.736H22.2124V22.7506C22.4588 22.4879 22.4259 22.5043 24.1175 20.8127C24.2817 20.6484 25.4806 19.5645 26.5153 18.5627H26.4989ZM41.1321 18.5134C41.5426 18.7433 41.8711 19.039 42.3638 19.1703C42.3145 19.3838 42.1175 19.466 42.0682 19.6795V24.1138C42.6266 24.2287 42.758 23.9003 43.0207 23.736C43.0864 24.4422 43.5463 25.132 43.5134 25.7068H41.1321V18.5298V18.5134ZM37.9459 20.8948C37.9459 20.8948 38.8164 20.1557 38.8164 20.1229V23.9824H39.4405L39.424 19.663C39.6704 19.4003 40.1795 19.039 40.2945 18.7762V25.674H34.8091C34.727 24.2451 34.7105 22.767 36.3857 23.0791V22.5043C36.3364 22.4057 36.2379 22.5207 36.2215 22.3893C36.4843 22.1265 36.5664 22.0608 37.289 21.4368L37.3054 23.9824H37.9459V20.8948V20.8948ZM35.8766 23.9495C35.9916 24.1138 36.4021 24.1138 36.3693 23.8181C36.32 23.5718 35.7945 23.6539 35.8766 23.9495Z" fill="#007A3D"/>
<path d="M19.9789 26.84C20.1603 26.84 20.3073 26.693 20.3073 26.5116C20.3073 26.3302 20.1603 26.1831 19.9789 26.1831C19.7974 26.1831 19.6504 26.3302 19.6504 26.5116C19.6504 26.693 19.7974 26.84 19.9789 26.84Z" fill="#007A3D"/>
<path d="M30.3256 18.5298C30.7361 18.7433 31.0646 19.0553 31.5737 19.1867C31.508 19.3838 31.3274 19.4659 31.2781 19.6794V24.1137C31.8365 24.2287 31.9515 23.9166 32.2142 23.736C32.2964 24.4422 32.7398 25.1484 32.7234 25.7068H30.3256V18.5298Z" fill="#007A3D"/>
</g>
<defs>
<clipPath id="clip0_4_5441">
<rect width="60" height="45" fill="white"/>
</clipPath>
</defs>
</svg>
