<svg width="60" height="45" viewBox="0 0 60 45" fill="none" xmlns="http://www.w3.org/2000/svg">
<g clip-path="url(#clip0_4_3808)">
<path fill-rule="evenodd" clip-rule="evenodd" d="M0 0H60V45H0V0Z" fill="#00ABC2"/>
<path fill-rule="evenodd" clip-rule="evenodd" d="M5.64382 43.7812C5.9532 44.0812 5.85007 44.5781 6.7032 44.5125C7.99695 44.5125 8.03445 43.725 8.03445 43.1719C8.03445 42.6187 6.09382 41.85 6.00007 41.0344C5.90632 40.2187 6.45007 40.0031 6.90007 40.0031C7.3407 40.0031 7.65007 40.2562 7.65007 40.4812C7.65007 40.7062 7.44382 40.7812 7.12507 40.7812C6.80632 40.7812 7.2657 40.6219 6.99382 40.5C6.72195 40.3781 6.54382 40.6875 6.54382 40.875C6.54382 41.0812 7.21882 41.1375 7.66882 40.9969C7.76257 41.4375 7.80007 41.4656 7.17195 42.2156C7.62195 41.925 7.65945 41.8594 8.15632 42.0281C7.65945 41.5969 8.03445 40.7344 8.04382 40.5187C8.0532 40.3031 7.95007 40.0406 7.76257 39.9094C7.39695 39.5812 6.61882 39.5625 6.15007 39.7781C5.4657 40.0781 5.4282 40.9781 5.60632 41.2781L7.50007 43.1906C7.63132 43.4156 7.68757 44.0531 6.88132 44.0812C6.03757 44.1469 5.73757 42.9937 5.58757 42.6094C5.3907 43.0312 5.1657 44.1844 4.31257 44.1187C3.50632 44.0906 3.35632 43.4625 3.48757 43.2281L5.4282 41.2594C5.6157 40.9594 5.5782 40.0594 4.89382 39.7594C4.42507 39.5437 3.64695 39.5719 3.2907 39.8906C3.08445 40.0219 2.97195 40.275 2.9907 40.5C3.00945 40.725 3.37507 41.5781 2.88757 42C3.37507 41.8406 3.42195 41.9062 3.87195 42.1875C3.24382 41.4469 3.2907 41.4187 3.37507 40.9687C3.82507 41.1187 4.50007 41.0625 4.50007 40.8656C4.50007 40.6687 4.31257 40.3406 4.0407 40.4719C3.7782 40.6031 4.2282 40.7625 3.90945 40.7625C3.60007 40.7625 3.37507 40.6969 3.37507 40.4812C3.37507 40.2656 3.68445 39.9844 4.13445 39.9844C4.58445 39.9844 5.11882 40.2094 5.02507 41.025C4.93132 41.8406 2.96257 42.7219 2.96257 43.275C2.96257 43.8375 3.09382 44.5031 4.38757 44.5031C5.23132 44.5687 5.33445 44.0719 5.64382 43.7719V43.7812Z" fill="#FFEC2D"/>
<path fill-rule="evenodd" clip-rule="evenodd" d="M5.54067 32.1843C5.85005 31.8843 6.10317 31.0031 6.94692 31.0593C8.24067 31.0593 8.72817 31.7812 8.72817 32.3343C8.72817 32.8875 6.10317 37.3968 6.00942 38.2125C5.91567 39.0281 6.45942 39.2531 6.90005 39.2531C7.35005 39.2531 7.65942 39 7.65942 38.7656C7.65942 38.5312 7.43442 38.4843 7.12505 38.4843C6.81567 38.4843 7.2563 38.6437 6.9938 38.7656C6.7313 38.8875 6.5438 38.5781 6.5438 38.3812C6.5438 38.1843 7.2188 38.1187 7.6688 38.2687C7.75317 37.8281 7.79067 37.8 7.17192 37.05C7.62192 37.3312 7.65942 37.4062 8.1563 37.2375C7.65942 37.6687 8.02505 38.5218 8.0438 38.7375C8.06255 38.9531 7.95005 39.225 7.75317 39.3562C7.39692 39.6843 6.60942 39.6937 6.14067 39.4875C5.46567 39.1781 5.42817 38.2875 5.6063 37.9875L8.1563 32.4937C8.29692 32.2687 7.94067 31.5187 7.13442 31.4906C6.29067 31.425 6.00005 32.3156 5.85005 32.7L7.00317 32.6062C7.00317 32.6062 7.05005 32.7937 7.00317 32.9062C6.61628 32.9345 6.2313 32.9846 5.85005 33.0562L5.80317 33.6375H6.36567L6.32817 33.9C6.32817 33.9 5.85005 33.8625 5.80317 33.9C5.7563 33.9281 5.70942 34.4812 5.70942 34.4812C5.70942 34.4812 5.61567 34.5187 5.52192 34.5187C5.42817 34.5187 5.33442 34.4812 5.33442 34.4812C5.33442 34.4812 5.29692 33.9281 5.25005 33.9C5.20317 33.8625 4.72505 33.9 4.72505 33.9L4.67817 33.6375H5.25005L5.20317 33.0562C5.20317 33.0562 4.64067 32.9437 4.05005 32.9062C4.01255 32.7937 4.05005 32.6156 4.05005 32.6156L5.20317 32.7C5.05317 32.3156 4.76255 31.425 3.9188 31.4812C3.11255 31.5187 2.7563 32.2687 2.88755 32.4937L5.43755 37.9875C5.61567 38.2781 5.57817 39.1781 4.90317 39.4875C4.43442 39.6937 3.64692 39.675 3.29067 39.3562C3.0938 39.225 2.9813 38.9625 3.00005 38.7468C3.0188 38.5312 3.37505 37.6593 2.88755 37.2468C3.38442 37.4062 3.4313 37.3406 3.87192 37.05C3.25317 37.8 3.29067 37.8281 3.38442 38.2687C3.82505 38.1187 4.50005 38.175 4.50005 38.3812C4.50005 38.5687 4.31255 38.8968 4.05005 38.7656C3.78755 38.6343 4.23755 38.4843 3.9188 38.4843C3.60942 38.4843 3.38442 38.5406 3.38442 38.7656C3.38442 38.9906 3.6938 39.2531 4.13442 39.2531C4.57505 39.2531 5.1188 39.0281 5.03442 38.2218C4.94067 37.4062 2.31567 32.8781 2.31567 32.3343C2.31567 31.7718 2.80317 31.0687 4.09692 31.0687C4.94067 31.0031 5.25005 31.8843 5.55005 32.1843H5.54067Z" fill="#FFEC2D"/>
<path fill-rule="evenodd" clip-rule="evenodd" d="M5.54067 29.9437C5.85005 30.2437 6.10317 31.1249 6.94692 31.0687C8.24067 31.0687 8.72817 30.3468 8.72817 29.7937C8.72817 29.2405 6.10317 24.7312 6.00942 23.9155C5.91567 23.0999 6.45942 22.8749 6.90005 22.8749C7.35005 22.8749 7.65942 23.128 7.65942 23.3624C7.65942 23.5968 7.43442 23.6437 7.12505 23.6437C6.81567 23.6437 7.2563 23.4937 6.9938 23.3624C6.7313 23.2312 6.5438 23.5499 6.5438 23.7468C6.5438 23.9437 7.2188 24.0093 7.6688 23.8593C7.75317 24.2999 7.79067 24.328 7.17192 25.078C7.62192 24.7968 7.65942 24.7218 8.1563 24.8905C7.65942 24.4593 8.02505 23.6062 8.0438 23.3905C8.06255 23.1749 7.95005 22.903 7.75317 22.7718C7.39692 22.453 6.60942 22.4343 6.14067 22.6405C5.46567 22.9499 5.42817 23.8405 5.6063 24.1405L8.1563 29.6249C8.29692 29.8499 7.94067 30.5999 7.13442 30.628C6.29067 30.6937 6.00005 29.803 5.85005 29.4187L7.00317 29.5124C7.00317 29.5124 7.05005 29.3249 7.00317 29.2124C6.61628 29.1841 6.2313 29.1341 5.85005 29.0624L5.80317 28.4812H6.36567L6.32817 28.2187C6.32817 28.2187 5.85005 28.2562 5.80317 28.2187C5.7563 28.1905 5.70942 27.6374 5.70942 27.6374C5.70942 27.6374 5.61567 27.5999 5.52192 27.5999C5.42817 27.5999 5.33442 27.6374 5.33442 27.6374C5.33442 27.6374 5.29692 28.1905 5.25005 28.2187C5.20317 28.2562 4.72505 28.2187 4.72505 28.2187L4.67817 28.4812H5.25005L5.20317 29.0624C5.20317 29.0624 4.64067 29.1749 4.05005 29.2124C4.01255 29.3249 4.05005 29.503 4.05005 29.503L5.20317 29.4187C5.05317 29.803 4.76255 30.6937 3.9188 30.6374C3.11255 30.5999 2.7563 29.8499 2.88755 29.6249L5.43755 24.1405C5.61567 23.8405 5.57817 22.9499 4.90317 22.6405C4.43442 22.4343 3.64692 22.453 3.29067 22.7718C3.0938 22.903 2.9813 23.1655 3.00005 23.3812C3.0188 23.5968 3.37505 24.4593 2.88755 24.8812C3.38442 24.7218 3.4313 24.7874 3.87192 25.078C3.25317 24.328 3.29067 24.2999 3.38442 23.8593C3.82505 24.0093 4.50005 23.953 4.50005 23.7468C4.50005 23.5593 4.31255 23.2312 4.05005 23.3624C3.78755 23.4937 4.23755 23.6437 3.9188 23.6437C3.60942 23.6437 3.38442 23.5874 3.38442 23.3624C3.38442 23.1374 3.6938 22.8749 4.13442 22.8749C4.57505 22.8749 5.1188 23.0999 5.03442 23.9062C4.94067 24.7218 2.31567 29.2499 2.31567 29.7937C2.31567 30.3562 2.80317 31.0593 4.09692 31.0593C4.94067 31.1249 5.25005 30.2437 5.55005 29.9437H5.54067Z" fill="#FFEC2D"/>
<path fill-rule="evenodd" clip-rule="evenodd" d="M5.54067 15.0562C5.85005 14.7562 6.10317 13.8749 6.94692 13.9312C8.24067 13.9312 8.72817 14.653 8.72817 15.2062C8.72817 15.7593 6.10317 20.2687 6.00942 21.0937C5.91567 21.8999 6.45942 22.1249 6.90005 22.1249C7.35005 22.1249 7.65942 21.8718 7.65942 21.6468C7.65942 21.4218 7.43442 21.3468 7.12505 21.3468C6.81567 21.3468 7.2563 21.5155 6.9938 21.6468C6.7313 21.778 6.5438 21.4499 6.5438 21.253C6.5438 21.0655 7.2188 20.9905 7.6688 21.1405C7.75317 20.6999 7.79067 20.6718 7.17192 19.9218C7.62192 20.2124 7.65942 20.278 8.1563 20.1093C7.65942 20.5405 8.02505 21.403 8.0438 21.6093C8.06255 21.8155 7.95005 22.0968 7.75317 22.228C7.39692 22.5562 6.60942 22.5655 6.14067 22.3593C5.46567 22.0499 5.42817 21.1593 5.6063 20.8593L8.1563 15.3749C8.29692 15.1499 7.94067 14.3999 7.13442 14.3718C6.29067 14.3062 6.00005 15.1968 5.85005 15.5812L7.00317 15.4874C7.00317 15.4874 7.05005 15.6749 7.00317 15.7874C6.40317 15.8249 5.85005 15.9374 5.85005 15.9374L5.80317 16.5187H6.36567L6.32817 16.7812C6.32817 16.7812 5.85005 16.753 5.80317 16.7812C5.7563 16.8093 5.70942 17.3718 5.70942 17.3718C5.70942 17.3718 5.61567 17.3999 5.52192 17.3999C5.42817 17.3999 5.33442 17.3718 5.33442 17.3718C5.33442 17.3718 5.29692 16.8093 5.25005 16.7812C5.20317 16.753 4.72505 16.7812 4.72505 16.7812L4.67817 16.5187H5.25005L5.20317 15.9374C5.20317 15.9374 4.64067 15.8249 4.05005 15.7874C4.01255 15.6749 4.05005 15.4968 4.05005 15.4968L5.20317 15.5812C5.05317 15.1968 4.76255 14.3062 3.9188 14.3624C3.11255 14.3999 2.7563 15.1499 2.88755 15.3749L5.43755 20.8593C5.61567 21.1593 5.57817 22.0499 4.90317 22.3593C4.43442 22.5655 3.64692 22.5468 3.29067 22.228C3.0938 22.0968 2.9813 21.8343 3.00005 21.6187C3.0188 21.403 3.37505 20.5405 2.88755 20.1187C3.38442 20.278 3.4313 20.2124 3.87192 19.9218C3.25317 20.6718 3.29067 20.6999 3.38442 21.1405C3.82505 20.9905 4.50005 21.0562 4.50005 21.253C4.50005 21.4405 4.31255 21.7687 4.05005 21.6374C3.78755 21.5155 4.23755 21.3562 3.9188 21.3562C3.60942 21.3562 3.38442 21.4124 3.38442 21.6374C3.38442 21.8624 3.6938 22.1249 4.13442 22.1249C4.57505 22.1249 5.1188 21.8999 5.03442 21.0937C4.94067 20.278 2.31567 15.7593 2.31567 15.2062C2.31567 14.653 2.80317 13.9405 4.09692 13.9405C4.94067 13.8749 5.25005 14.7562 5.55005 15.0655L5.54067 15.0562Z" fill="#FFEC2D"/>
<path fill-rule="evenodd" clip-rule="evenodd" d="M5.54067 12.8156C5.85005 13.1156 6.10317 14.0062 6.94692 13.9406C8.24067 13.9406 8.72817 13.2187 8.72817 12.6656C8.72817 12.1125 6.10317 7.60312 6.00942 6.78749C5.91567 5.97187 6.45942 5.74687 6.90005 5.74687C7.35005 5.74687 7.65942 6.00937 7.65942 6.23437C7.65942 6.45937 7.43442 6.52499 7.12505 6.52499C6.81567 6.52499 7.2563 6.36562 6.9938 6.23437C6.7313 6.10312 6.5438 6.42187 6.5438 6.61874C6.5438 6.81562 7.2188 6.88124 7.6688 6.73124C7.75317 7.17187 7.79067 7.19999 7.17192 7.94999C7.62192 7.66874 7.65942 7.59374 8.1563 7.76249C7.65942 7.34062 8.02505 6.47812 8.0438 6.26249C8.06255 6.04687 7.95005 5.77499 7.75317 5.64374C7.39692 5.32499 6.60942 5.30624 6.14067 5.52187C5.46567 5.82187 5.42817 6.72187 5.6063 7.01249L8.1563 12.5062C8.29692 12.7312 7.94067 13.4812 7.13442 13.5187C6.29067 13.575 6.00005 12.6937 5.85005 12.3L7.00317 12.3937C7.00317 12.3937 7.05005 12.2062 7.00317 12.0937C6.61649 12.0683 6.23152 12.0213 5.85005 11.9531L5.80317 11.3625H6.36567L6.32817 11.1C6.32817 11.1 5.85005 11.1375 5.80317 11.1C5.7563 11.0719 5.70942 10.5187 5.70942 10.5187C5.70942 10.5187 5.61567 10.4812 5.52192 10.4812C5.42817 10.4812 5.33442 10.5187 5.33442 10.5187C5.33442 10.5187 5.29692 11.0719 5.25005 11.1C5.20317 11.1375 4.72505 11.1 4.72505 11.1L4.67817 11.3625H5.25005L5.20317 11.9531C5.20317 11.9531 4.64067 12.0562 4.05005 12.0937C4.01255 12.2156 4.05005 12.3937 4.05005 12.3937L5.20317 12.3C5.05317 12.6937 4.76255 13.575 3.9188 13.5187C3.11255 13.4812 2.7563 12.7312 2.88755 12.5062L5.43755 7.01249C5.61567 6.72187 5.57817 5.82187 4.90317 5.51249C4.43442 5.30624 3.64692 5.32499 3.29067 5.64374C3.0938 5.77499 2.9813 6.03749 3.00005 6.25312C3.0188 6.46874 3.37505 7.34062 2.88755 7.75312C3.38442 7.59374 3.4313 7.65937 3.87192 7.94999C3.25317 7.19999 3.29067 7.17187 3.38442 6.73124C3.83442 6.88124 4.50005 6.82499 4.50005 6.61874C4.50005 6.43124 4.31255 6.10312 4.05005 6.23437C3.78755 6.36562 4.23755 6.52499 3.9188 6.52499C3.60942 6.52499 3.38442 6.45937 3.38442 6.23437C3.38442 6.00937 3.6938 5.74687 4.13442 5.74687C4.57505 5.74687 5.12817 5.97187 5.03442 6.77812C4.94067 7.59374 2.31567 12.1219 2.31567 12.6656C2.31567 13.2281 2.80317 13.9406 4.09692 13.9406C4.94067 14.0062 5.25005 13.1156 5.55005 12.8156H5.54067Z" fill="#FFEC2D"/>
<path fill-rule="evenodd" clip-rule="evenodd" d="M5.64382 1.21872C5.9532 0.91872 5.85007 0.421845 6.7032 0.48747C7.99695 0.48747 8.03445 1.27497 8.03445 1.82809C8.03445 2.38122 6.09382 3.14997 6.00007 3.96559C5.90632 4.78122 6.45007 4.99684 6.90007 4.99684C7.3407 4.99684 7.65007 4.74372 7.65007 4.51872C7.65007 4.29372 7.44382 4.21872 7.12507 4.21872C6.80632 4.21872 7.2657 4.37809 6.99382 4.49997C6.72195 4.62184 6.54382 4.31247 6.54382 4.12497C6.54382 3.91872 7.21882 3.8531 7.66882 4.0031C7.76257 3.56247 7.80007 3.53435 7.17195 2.78435C7.62195 3.07497 7.65945 3.1406 8.15632 2.97185C7.65945 3.4031 8.03445 4.26559 8.04382 4.48122C8.0532 4.69684 7.95007 4.95934 7.76257 5.09059C7.38757 5.43747 6.60945 5.43747 6.1407 5.23122C5.45632 4.93122 5.41882 4.03122 5.59695 3.73122L7.50007 1.80934C7.63132 1.58434 7.68757 0.946845 6.88132 0.91872C6.03757 0.853095 5.73757 2.00622 5.58757 2.39059C5.3907 1.96872 5.1657 0.80622 4.31257 0.871845C3.50632 0.89997 3.35632 1.52809 3.48757 1.76247L5.4282 3.73122C5.6157 4.03122 5.5782 4.93122 4.89382 5.23122C4.42507 5.44684 3.64695 5.4281 3.2907 5.09997C3.08445 4.96872 2.97195 4.7156 2.9907 4.4906C3.00945 4.2656 3.37507 3.41247 2.88757 2.99059C3.37507 3.14997 3.42195 3.08434 3.86257 2.80309C3.24382 3.54372 3.2907 3.57185 3.37507 4.02185C3.82507 3.87185 4.50007 3.92809 4.50007 4.12497C4.50007 4.32184 4.31257 4.64997 4.0407 4.51872C3.7782 4.38747 4.2282 4.22809 3.90945 4.22809C3.60007 4.22809 3.37507 4.29372 3.37507 4.50934C3.37507 4.72497 3.68445 5.00622 4.13445 5.00622C4.58445 5.00622 5.11882 4.78122 5.02507 3.96559C4.93132 3.14997 2.96257 2.26872 2.96257 1.71559C2.96257 1.15309 3.09382 0.48747 4.38757 0.48747C5.23132 0.421845 5.33445 0.91872 5.64382 1.21872V1.21872Z" fill="#FFEC2D"/>
<path d="M41.3923 19.3042C41.3923 14.8473 37.58 11.2344 32.8772 11.2344C28.1745 11.2344 24.3622 14.8473 24.3622 19.3042C24.3622 23.761 28.1745 27.374 32.8772 27.374C37.58 27.374 41.3923 23.761 41.3923 19.3042Z" fill="#FFEC2D"/>
<path fill-rule="evenodd" clip-rule="evenodd" d="M32.477 6.42151C32.397 6.42151 32.0167 9.1031 31.8766 9.70345C31.7366 11.0543 33.6777 11.0042 33.3575 9.65342L32.477 6.4115V6.42151ZM33.1574 32.4169C33.2274 32.4169 33.8078 29.7654 33.9979 29.175C34.228 27.8442 32.2869 27.7742 32.497 29.135L33.1574 32.4169V32.4169ZM19.5894 19.2491C19.5894 19.3192 22.381 19.8795 23.0014 20.0596C24.4022 20.2897 24.5023 18.4586 23.0614 18.6588L19.5894 19.2591V19.2491ZM46.7755 19.5693C46.7755 19.4993 43.9538 19.039 43.3234 18.8789C41.9126 18.7088 41.9026 20.5399 43.3234 20.2897L46.7755 19.5693ZM22.4511 10.7441C22.401 10.7941 24.2421 12.8753 24.6123 13.3856C25.5729 14.3862 26.8437 12.9854 25.5729 12.305L22.4511 10.7541V10.7441ZM43.5736 27.8542C43.6236 27.8042 41.6024 25.8831 41.1822 25.4128C40.1315 24.4922 39.0009 25.9831 40.3217 26.5635L43.5736 27.8642V27.8542ZM26.6636 7.84235C26.6035 7.87237 27.464 10.4539 27.6041 11.0643C28.0844 12.335 29.8254 11.5045 28.9249 10.4139L26.6736 7.84235H26.6636ZM38.9809 31.0961C39.0509 31.0661 38.3805 28.4346 38.2904 27.8242C37.9002 26.5234 36.1092 27.2238 36.9196 28.3845L38.9909 31.0861L38.9809 31.0961ZM42.0127 9.64342C41.9526 9.59339 39.7313 11.3044 39.191 11.6446C38.1203 12.5451 39.5712 13.7659 40.3116 12.5752L42.0127 9.64342ZM23.7018 29.0249C23.7518 29.0749 26.1032 27.524 26.6636 27.2138C27.7942 26.3934 26.4434 25.0726 25.6129 26.2132L23.7118 29.0249H23.7018ZM20.1997 14.6064C20.1697 14.6664 22.6011 16.0772 23.1315 16.4475C24.3822 17.0978 25.1126 15.3968 23.6818 15.1267L20.1997 14.6064V14.6064ZM45.5848 24.4522C45.6148 24.3922 43.2834 22.8212 42.7831 22.421C41.5824 21.6806 40.7319 23.3315 42.1427 23.6918L45.5848 24.4522V24.4522ZM37.52 7.15194C37.45 7.13193 36.0591 9.49333 35.6889 10.0036C35.6896 10.1666 35.7413 10.3252 35.8367 10.4573C35.9321 10.5894 36.0665 10.6884 36.221 10.7402C36.3755 10.7921 36.5423 10.7943 36.6981 10.7465C36.8539 10.6988 36.9909 10.6034 37.0897 10.4739L37.52 7.15194ZM28.1244 31.5964C28.1945 31.6265 29.7554 29.3551 30.1556 28.8648C30.8861 27.7041 29.115 26.9637 28.7848 28.3045L28.1244 31.5964V31.5964ZM20.3698 24.6623C20.3998 24.7224 23.1715 24.062 23.8219 23.9619C25.1827 23.5817 24.4222 21.9007 23.2215 22.6812L20.3698 24.6623ZM45.5948 14.3862C45.5748 14.3262 42.7631 14.7965 42.1127 14.8565C40.7119 15.1467 41.3623 16.8777 42.613 16.1773L45.5948 14.3862V14.3862Z" fill="#FFEC2D"/>
<path fill-rule="evenodd" clip-rule="evenodd" d="M35.2386 6.59155C35.1685 6.58154 34.228 9.13306 33.9478 9.69339C33.5376 10.9942 35.4487 11.3144 35.4187 9.93353L35.2486 6.58154L35.2386 6.59155ZM30.3857 32.1967C30.4557 32.2168 31.5864 29.7253 31.9066 29.1749C32.4069 27.9142 30.5258 27.4739 30.4557 28.8448L30.3757 32.1967H30.3857ZM29.4151 6.8417C29.3451 6.86171 29.6052 9.56331 29.6052 10.1837C29.7954 11.5145 31.6665 11.0542 31.0461 9.81346L29.4151 6.8417V6.8417ZM36.2192 32.0467C36.2892 32.0366 36.2192 29.325 36.2692 28.7047C36.1791 27.3539 34.268 27.6941 34.8083 28.9748L36.2092 32.0467H36.2192ZM24.5923 9.08303C24.5322 9.12305 25.863 11.5145 26.1132 12.0848C26.8336 13.2555 28.3845 12.1549 27.2939 11.2243L24.5923 9.08303ZM41.082 29.8854C41.1421 29.8453 39.9814 27.3639 39.7813 26.7835C39.1509 25.5728 37.5299 26.5734 38.5405 27.564L41.082 29.8854ZM21.0702 12.445C21.0302 12.5051 23.1814 14.2861 23.6317 14.7464C24.7424 15.5869 25.773 14.026 24.4122 13.5357L21.0702 12.445ZM44.5041 26.4233C44.5441 26.3633 42.5329 24.4421 42.1127 23.9619C41.072 23.0513 39.9314 24.5422 41.2522 25.1225L44.5041 26.4233ZM19.5293 16.6375C19.5092 16.7076 22.1608 17.7182 22.7412 18.0083C24.082 18.4586 24.5122 16.6675 23.0513 16.6275L19.5293 16.6375V16.6375ZM46.2851 22.4209C46.3152 22.3609 43.7436 21.1802 43.1833 20.85C41.8825 20.3097 41.3122 22.0707 42.763 22.2108L46.2851 22.4209ZM19.4392 21.7906C19.4492 21.8506 22.3109 21.8106 22.9613 21.8606C24.3821 21.7906 24.0419 19.9795 22.6811 20.4698L19.4392 21.7906ZM46.4753 17.2879C46.4753 17.2179 43.6136 17.0678 42.9732 16.9777C41.5423 16.9577 41.7524 18.7888 43.1433 18.3785L46.4753 17.2779V17.2879ZM21.8907 27.1337C21.9307 27.1938 24.4922 25.973 25.0926 25.7429C26.3333 25.0925 25.1926 23.6016 24.202 24.6122L21.8907 27.1337ZM44.1339 11.8947C44.0938 11.8347 41.4623 12.8853 40.8319 13.0754C39.5411 13.6457 40.5717 15.2067 41.6324 14.2661L44.1339 11.8947V11.8947ZM26.0531 30.6758C26.1132 30.7059 27.9443 28.6246 28.4045 28.1844C29.275 27.1137 27.6041 26.1832 27.1138 27.4839L26.0531 30.6758ZM40.0314 8.28255C39.9814 8.24253 38.0002 10.1937 37.5099 10.6039C36.5694 11.6145 38.1703 12.6551 38.7507 11.3944L40.0214 8.28255H40.0314Z" fill="#FFEC2D"/>
<path fill-rule="evenodd" clip-rule="evenodd" d="M19.8577 24.6717C20.0106 25.1877 20.0324 28.0775 23.1114 30.864C26.1686 33.63 31.4095 34.2492 31.4095 34.2492C31.4095 34.2492 31.4313 34.6414 31.0601 34.662C30.6889 34.7033 28.8982 34.3524 28.0029 34.0841C27.1294 33.8364 26.3433 33.3823 26.256 33.4029C26.1468 33.4442 25.9721 33.7332 25.71 33.6919C25.448 33.6506 24.1814 32.4121 23.6137 32.0819C22.4781 31.1541 21.4727 30.0927 20.622 28.9238C20.0106 27.9949 19.8577 27.3757 19.6612 27.3757C19.4647 27.3757 18.744 27.8298 18.744 27.8298C18.744 27.8298 18.0889 26.9009 17.5212 25.4147C16.9316 23.9286 16.9971 23.0616 17.1281 22.9997C17.281 22.9378 17.281 24.0937 17.7177 25.1464C18.1544 26.2198 18.7659 26.55 18.7659 26.55C18.7659 26.55 18.3728 25.9927 18.0671 24.6097C17.7614 23.2268 17.6304 21.8851 17.8487 21.4723C18.0671 21.0594 18.2636 20.9356 18.2855 20.9562C18.3291 20.9975 17.9142 21.5961 18.1981 23.1855C18.482 24.7749 19.2463 26.1166 19.421 26.0546C19.5957 25.9927 19.3118 25.6624 19.2026 24.7336C19.0934 23.8047 19.3118 23.2268 19.552 23.1442C19.6612 23.0616 19.8359 24.1763 19.8577 24.6717V24.6717ZM17.7177 27.3137C17.1281 26.7977 16.211 25.0019 16.0144 25.0845C15.7961 25.1877 17.4993 27.7678 17.543 27.9743C17.5867 28.222 17.9579 28.9238 17.674 28.8206C17.3902 28.7173 15.3593 26.6945 15.5995 27.0867C15.8397 27.4789 17.3683 29.254 17.281 29.3572C17.1936 29.4604 16.0144 28.3664 15.9708 28.5109C15.9489 28.6348 17.1281 29.7081 17.1063 29.832C17.0844 29.9558 16.342 29.1508 16.342 29.3159C16.342 29.4811 17.1063 30.2861 17.1063 30.4099C17.1063 30.5338 16.4512 29.832 16.6695 30.2035C16.8661 30.6163 17.4338 30.9672 17.412 31.0911C17.3902 31.2149 16.9316 30.926 16.9316 30.9879C16.9316 31.0498 17.7832 31.3388 17.9798 31.5658C18.1981 31.7929 19.5957 33.3203 20.6439 34.0841C21.692 34.8478 24.7055 36.1895 24.9239 36.1895C25.1204 36.1895 25.4262 35.7767 25.3606 35.6115C25.2951 35.4464 22.3471 34.4969 21.5392 33.7951C20.7094 33.0933 18.7004 31.4007 18.5257 31.3181C18.3728 31.2149 17.9142 31.2562 17.9142 31.153C17.9142 31.0498 18.5038 31.2149 18.4602 31.153C18.4383 31.0911 17.6522 30.7608 17.674 30.6989C17.7177 30.637 18.22 30.8228 18.22 30.7608C18.22 30.6989 17.3028 30.2242 17.3465 30.1209C17.3683 30.0177 18.0234 30.4099 18.0234 30.3274C18.0234 30.2861 17.1499 29.7081 17.1718 29.6049C17.1936 29.5017 17.8487 30.059 17.8269 29.9352C17.8051 29.8113 17.3028 29.1095 17.3028 29.027C17.3028 28.9238 18.0889 29.7288 18.1763 29.5636C18.22 29.4192 17.8924 28.0775 17.9142 28.0568C17.9361 28.0362 18.5038 28.3458 18.5912 28.16C18.7004 27.9536 18.1981 27.6853 17.7177 27.3137V27.3137ZM27.7845 37.4692C27.3696 37.5312 27.1731 37.3867 27.4133 37.0564C27.7409 37.0564 28.6144 36.7881 28.9201 36.6642C29.2258 36.5404 29.5533 36.3752 29.8154 36.1482C30.0774 35.8799 30.2521 36.2927 30.0993 36.5197C29.9901 36.6642 29.4878 36.9326 29.1166 37.0771C28.5707 37.2422 28.0903 37.4899 27.7845 37.4692ZM30.5142 36.4165C30.2303 36.1276 30.4705 35.9211 30.8854 35.6941C31.4968 35.3845 31.3221 34.951 32.1083 34.6001C32.4577 34.3937 37.3491 32.536 38.9432 31.5452C40.5373 30.5544 45.0139 27.355 46.2149 25.1464C47.3941 22.9584 46.8264 22.7933 47.0011 22.7107C47.1539 22.6075 47.3286 23.0204 47.3068 23.5158C47.2631 23.9905 46.87 25.4354 47.0011 25.5799C47.1321 25.7244 48.7917 24.4446 49.4905 22.8965C50.1893 21.3484 50.7134 19.7384 51.0409 19.7384C51.3903 19.7384 50.4731 22.3805 49.8836 23.4125C49.3158 24.4446 48.6388 24.9606 48.7917 25.1877C48.9664 25.3941 50.6697 24.0524 51.2593 23.0616C51.827 22.0502 52.373 21.1627 52.4821 21.3484C52.3084 22.5576 51.8041 23.703 51.0191 24.6717C50.1019 25.6624 49.0101 26.3849 49.1848 26.5294C49.3376 26.6945 50.5823 26.8596 51.8707 26.034C53.1809 25.1877 53.312 23.9699 53.4648 24.0318C53.6395 24.0937 53.312 25.7657 52.0672 26.7977C50.8225 27.8298 49.1848 27.933 49.2284 28.16C49.3158 28.3664 52.7879 27.2105 52.7224 27.4789C52.6568 27.7266 48.2239 29.3779 48.1803 29.543C48.1803 29.6668 48.9446 29.7081 50.1456 29.4398C51.3248 29.1921 52.4603 28.3045 52.6132 28.5109C52.6568 28.7999 51.7615 29.5017 50.4076 29.832C49.0319 30.1622 48.355 30.5957 48.3113 30.6989C48.2894 30.8021 50.757 30.4099 50.757 30.5338C50.757 30.6576 47.5252 31.2562 47.5033 31.4214C47.4597 31.5658 50.5605 30.8228 50.5168 31.0085C50.4295 31.153 46.3023 32.3089 46.346 32.3708C46.3678 32.4534 49.7962 31.669 49.7307 31.7929C49.6433 31.9374 43.9657 33.4442 43.9221 33.5474C43.8784 33.63 48.9446 32.4741 48.9009 32.5773C48.8572 32.6805 46.2805 33.2791 46.2805 33.341C46.2805 33.4029 48.355 33.0314 48.3113 33.1346C48.2894 33.2171 43.0704 34.4763 42.9612 34.662C42.852 34.8684 45.669 34.146 45.6253 34.5175C45.5817 34.8891 39.5765 36.7881 39.5547 36.4372C39.511 36.0863 43.2014 35.1987 43.1796 35.0955C43.1359 34.9923 41.0614 35.3019 41.0177 35.1161C40.9959 34.9097 42.3935 34.4969 42.2843 34.4143C42.1751 34.3111 41.1269 34.7033 41.2143 34.4763C41.3235 34.2492 43.3106 33.3823 43.2669 33.3203C43.2451 33.2584 42.5463 33.5268 42.6118 33.3203C42.6992 33.0933 46.9137 31.9374 46.8482 31.7929C46.7827 31.669 44.9047 32.0819 44.73 32.1232C44.6645 31.9993 47.3505 31.0498 47.3068 30.8847C47.2194 30.7402 45.8655 31.442 45.7782 31.2562C45.7345 31.0498 48.1584 30.1622 48.0056 30.0177C47.8527 29.8733 46.7609 30.3893 46.608 30.2448C46.4551 30.1003 48.9009 28.5109 48.5297 28.4696C48.1584 28.449 47.6999 28.965 47.6562 28.6348C47.6999 28.222 49.556 27.5408 49.1411 27.2105C48.486 27.0248 46.2805 27.355 45.3633 27.8711C44.4461 28.3871 41.389 31.2562 40.6465 31.7103C39.9041 32.1438 37.371 33.1552 36.8906 33.3616C36.1481 33.6093 36.0171 33.9809 35.2528 34.3524C33.8771 34.7033 33.8989 35.0955 33.2438 35.3225C33.0036 35.3845 30.536 36.4991 30.5142 36.4165V36.4165ZM27.0639 37.8614C26.649 38.0678 26.2778 38.5632 26.518 38.7696C26.649 39.0173 27.0639 38.2123 27.3915 38.2536L29.1384 38.3362C30.0774 38.3981 30.536 38.1504 31.0601 38.1917C31.5842 38.233 32.7415 37.9233 33.2875 37.9233C33.8334 37.9233 33.9426 37.9853 33.9862 37.7582C34.0518 37.5518 32.283 37.6963 31.4968 37.6756C30.7107 37.6344 29.728 37.8201 29.1384 37.8201C28.5925 37.7995 27.6535 37.6344 27.0639 37.8614V37.8614Z" fill="#FFEC2D"/>
<path d="M29.6843 37.6137C29.6843 37.4427 29.5181 37.3041 29.3131 37.3041C29.1081 37.3041 28.9419 37.4427 28.9419 37.6137C28.9419 37.7847 29.1081 37.9233 29.3131 37.9233C29.5181 37.9233 29.6843 37.7847 29.6843 37.6137Z" fill="#FFEC2D"/>
<path fill-rule="evenodd" clip-rule="evenodd" d="M38.3973 37.0151C38.7686 36.9532 39.7731 37.2834 40.4718 37.4279C41.7384 37.9027 44.0968 37.6756 44.0968 37.9027C44.0968 38.1297 43.9439 38.3981 43.398 38.4393C42.8521 38.4806 41.4763 38.2329 41.52 38.2329C41.5637 38.2329 42.6119 38.7077 42.3061 38.8315C42.0004 38.9554 41.1051 38.5632 40.9523 38.6664C40.7994 38.7696 41.7821 38.9554 41.6074 39.0173C41.4763 39.0792 40.7994 38.9347 40.581 38.9554C40.3627 38.9967 40.7557 39.2237 40.4937 39.3063C40.2316 39.4095 39.7949 39.1824 39.6202 39.2443C39.4237 39.3063 40.0133 39.6572 39.7512 39.6985C39.4892 39.7397 38.8777 39.5333 38.5284 39.492C38.179 39.492 38.8559 39.8223 38.6375 39.8636C38.4192 39.8842 37.8077 39.5952 37.6549 39.5952C37.502 39.5952 37.6549 40.0081 37.4365 40.0081C37.2181 40.0081 36.9561 39.6572 36.8251 39.6572C36.694 39.6572 36.8251 40.07 36.6067 40.07C36.3883 40.07 36.301 39.6365 36.1263 39.6572C35.9079 39.6985 36.1263 40.2145 35.8206 40.1732C35.5367 40.1526 35.493 39.6365 35.2528 39.6572C35.0344 39.6985 35.2965 40.1732 35.0781 40.1732C34.8597 40.1732 34.8161 39.6985 34.5977 39.6572C34.3793 39.6365 34.4667 40.1113 34.3357 40.1113C34.2046 40.1113 34.0736 39.6572 33.9863 39.6572C33.9208 39.6572 33.9863 40.1113 33.7242 40.07C33.4622 40.0287 33.4622 39.5746 33.3967 39.5952C33.3093 39.6365 33.3093 39.9668 33.1346 39.9668C32.9599 39.9668 32.9381 39.6365 32.8726 39.6778C32.7852 39.6985 32.5232 40.1113 32.3485 40.0494C32.152 39.9874 32.3922 39.6572 32.3048 39.6572C32.2175 39.6572 31.9991 39.8842 31.8681 39.8636C31.7371 39.8429 31.8681 39.5746 31.8244 39.5746C31.7807 39.5746 31.4532 39.7397 31.3003 39.7397C31.1475 39.7397 30.7326 39.9461 30.6234 39.7604C30.5142 39.554 30.9073 39.554 30.9946 39.3682C31.0601 39.1824 30.7762 38.6251 31.082 38.4393C31.3658 38.2329 32.3048 38.7077 33.7024 38.3774C36.2355 37.7375 38.2008 36.9945 38.3973 37.0151V37.0151Z" fill="#FFEC2D"/>
</g>
<defs>
<clipPath id="clip0_4_3808">
<rect width="60" height="45" fill="white"/>
</clipPath>
</defs>
</svg>
