<svg width="60" height="45" viewBox="0 0 60 45" fill="none" xmlns="http://www.w3.org/2000/svg">
<g clip-path="url(#clip0_4_5694)">
<path fill-rule="evenodd" clip-rule="evenodd" d="M-6.84668 0H66.6123V26.9385H-6.84668V0Z" fill="#E73E2D"/>
<path fill-rule="evenodd" clip-rule="evenodd" d="M25.5498 24.7939C23.8447 23.458 20.6631 23.915 20.1357 20.2852C22.5703 22.1748 22.1309 20.1797 25.7607 21.9814L25.5498 24.7939Z" fill="#FEC74A"/>
<path fill-rule="evenodd" clip-rule="evenodd" d="M20.0352 20.1125L20.1815 20.2262C20.7867 20.6958 21.2073 20.9194 21.5526 21.0225C21.8967 21.1252 22.1716 21.1104 22.4957 21.0917L22.501 21.0914C22.8249 21.0727 23.1928 21.0515 23.7067 21.1486C24.2225 21.2461 24.8822 21.462 25.7939 21.9146L25.839 21.9369L25.6138 24.939L25.5037 24.8528C25.0872 24.5264 24.578 24.3077 24.0328 24.1064C23.8918 24.0543 23.7482 24.0034 23.6033 23.952C23.1915 23.8058 22.7696 23.6561 22.3693 23.4674C21.826 23.2113 21.315 22.8804 20.9065 22.3804C20.4976 21.88 20.1953 21.2147 20.0618 20.2959L20.0352 20.1125ZM20.2392 20.4579C20.3811 21.2587 20.66 21.8426 21.0222 22.2859C21.4119 22.7629 21.9018 23.0818 22.433 23.3322C22.826 23.5175 23.2375 23.6635 23.6473 23.809C23.7936 23.8609 23.9396 23.9127 24.0846 23.9662C24.5865 24.1516 25.0721 24.3563 25.4855 24.6525L25.6825 22.0261C24.8027 21.5931 24.1694 21.3881 23.679 21.2954C23.1831 21.2017 22.8301 21.2221 22.5081 21.2406L22.5043 21.2409C22.1802 21.2595 21.8816 21.2766 21.5099 21.1656C21.1703 21.0643 20.7744 20.8577 20.2392 20.4579Z" fill="#D8AA3F"/>
<path fill-rule="evenodd" clip-rule="evenodd" d="M26.0068 23.1504C24.7852 21.3574 21.6123 20.8125 22.2275 17.2002C23.9766 19.7402 24.1611 17.7012 27.0791 20.5313L26.0068 23.1504Z" fill="#FEC74A"/>
<path fill-rule="evenodd" clip-rule="evenodd" d="M22.1848 17.0063L22.2891 17.1578C22.7238 17.7891 23.0571 18.1296 23.3552 18.3325C23.6521 18.5346 23.9187 18.6038 24.2335 18.6846L24.2365 18.6853C24.5516 18.7662 24.9096 18.858 25.3716 19.1083C25.8341 19.359 26.3982 19.7668 27.1311 20.4776L27.1674 20.5128L26.0233 23.3073L25.9451 23.1924C25.6466 22.7544 25.2271 22.39 24.7684 22.0311C24.6509 21.9391 24.5307 21.8475 24.4094 21.755C24.0601 21.4886 23.7023 21.2157 23.3773 20.9121C22.938 20.5016 22.5526 20.0299 22.3171 19.429C22.0815 18.8274 21.9982 18.1021 22.1539 17.1876L22.1848 17.0063ZM22.273 17.395C22.1614 18.2003 22.2474 18.8414 22.4563 19.3745C22.6808 19.9477 23.0497 20.4016 23.4793 20.8029C23.7983 21.101 24.1474 21.3672 24.495 21.6323C24.6175 21.7257 24.7397 21.819 24.8604 21.9134C25.2831 22.2441 25.6844 22.5881 25.989 22.9968L26.9908 20.5498C26.2825 19.8673 25.7403 19.478 25.3004 19.2397C24.8546 18.9982 24.5111 18.9101 24.1979 18.8297L24.1953 18.829C23.881 18.7484 23.5915 18.6741 23.2711 18.456C22.9778 18.2564 22.6627 17.9392 22.273 17.395Z" fill="#D8AA3F"/>
<path fill-rule="evenodd" clip-rule="evenodd" d="M26.5605 21.9727C26.1211 19.8545 23.3965 18.1406 25.3476 15.0293C25.9805 18.0527 26.9297 16.2422 28.5469 19.9687L26.5605 21.9727Z" fill="#FEC74A"/>
<path fill-rule="evenodd" clip-rule="evenodd" d="M25.3828 14.8326L25.4208 15.014C25.5781 15.7656 25.7536 16.2092 25.9498 16.512C26.1451 16.8135 26.3639 16.9802 26.6231 17.1757L26.6297 17.1807C26.8882 17.3757 27.1822 17.5974 27.5117 18.0029C27.8434 18.4111 28.2092 19.0031 28.6154 19.939L28.6355 19.9854L26.5157 22.1241L26.4874 21.9879C26.38 21.4704 26.1324 20.9747 25.8462 20.4685C25.773 20.339 25.6972 20.2087 25.6207 20.0773C25.4 19.698 25.1737 19.3092 24.9896 18.9044C24.7407 18.3572 24.5651 17.7737 24.5775 17.1275C24.5899 16.4807 24.7905 15.7772 25.2844 14.9896L25.3828 14.8326ZM26.6029 21.8238L28.4581 19.9522C28.0639 19.0518 27.7112 18.4854 27.3957 18.0971C27.0777 17.7058 26.7956 17.493 26.5386 17.2991L26.5331 17.295C26.2738 17.0994 26.0355 16.919 25.8244 16.5932C25.6315 16.2956 25.4638 15.8809 25.3146 15.228C24.9036 15.9311 24.7379 16.5574 24.7269 17.1304C24.7151 17.7468 24.8823 18.3075 25.1256 18.8425C25.3063 19.2399 25.5271 19.6192 25.7467 19.9967C25.824 20.1294 25.9011 20.2619 25.9763 20.3949C26.2398 20.8611 26.4785 21.3312 26.6029 21.8238Z" fill="#D8AA3F"/>
<path fill-rule="evenodd" clip-rule="evenodd" d="M27.835 20.8828C28.0723 18.7295 26.0068 16.2598 28.8105 13.9043C28.4941 16.9717 29.9531 15.5479 30.3486 19.582L27.835 20.8828V20.8828Z" fill="#FEC74A"/>
<path fill-rule="evenodd" clip-rule="evenodd" d="M28.9038 13.7284L28.8849 13.912C28.8062 14.6744 28.8388 15.1502 28.9338 15.4985C29.0285 15.8455 29.1864 16.0718 29.3737 16.3376L29.3776 16.3432C29.5646 16.6085 29.777 16.91 29.9666 17.3972C30.1572 17.887 30.3236 18.5615 30.423 19.5748L30.4279 19.6251L27.8693 20.9492L27.835 20.8828L27.7607 20.8746C27.8187 20.3486 27.7363 19.8002 27.62 19.2302C27.5899 19.0823 27.5574 18.9328 27.5246 18.782C27.4319 18.3549 27.3368 17.9175 27.2861 17.4779C27.2173 16.8808 27.2288 16.2719 27.438 15.6614C27.6474 15.0503 28.0527 14.4434 28.7625 13.8471L28.9038 13.7284ZM27.9213 20.754L30.2693 19.539C30.1703 18.5633 30.0086 17.9172 29.8273 17.4514C29.6444 16.9812 29.4405 16.6918 29.2546 16.428L29.2516 16.4237C29.0642 16.1578 28.892 15.9127 28.7897 15.5379C28.6962 15.1953 28.6623 14.7493 28.7187 14.0827C28.1135 14.6242 27.7648 15.1685 27.5793 15.7098C27.3798 16.2922 27.3672 16.8769 27.4346 17.4608C27.4843 17.8924 27.577 18.3191 27.6693 18.744C27.7024 18.8963 27.7355 19.0483 27.7664 19.2003C27.8735 19.7253 27.9553 20.2464 27.9213 20.754Z" fill="#D8AA3F"/>
<path fill-rule="evenodd" clip-rule="evenodd" d="M28.9775 20.0127C30.0674 18.1406 29.1973 15.0469 32.7217 14.0449C31.1748 16.708 33.0908 16.0049 31.7988 19.8457L28.9775 20.0127V20.0127Z" fill="#FEC74A"/>
<path fill-rule="evenodd" clip-rule="evenodd" d="M32.8792 13.9225L32.7863 14.0825C32.4018 14.7444 32.2364 15.1906 32.1804 15.5463C32.1245 15.9006 32.1759 16.1708 32.238 16.4894L32.2393 16.496C32.3012 16.8141 32.3717 17.1755 32.3452 17.6973C32.3185 18.2217 32.1941 18.9048 31.8696 19.8695L31.8536 19.9173L28.9819 20.0873L28.9775 20.0127L28.913 19.9751C29.1792 19.5177 29.3273 18.983 29.4538 18.4151C29.486 18.2706 29.5168 18.1236 29.5479 17.9755C29.6383 17.5452 29.7308 17.1043 29.8654 16.6799C30.0471 16.1072 30.3073 15.5568 30.7485 15.0858C31.1902 14.6143 31.8091 14.2267 32.7012 13.9731L32.8792 13.9225ZM29.1086 19.9301L31.744 19.7741C32.0535 18.8438 32.1706 18.1884 32.1959 17.6897C32.2215 17.1862 32.1539 16.8393 32.0923 16.5231L32.0913 16.518C32.0293 16.1993 31.9724 15.9059 32.0328 15.523C32.0879 15.1733 32.2398 14.7537 32.5644 14.1703C31.7902 14.4167 31.2488 14.7703 30.8576 15.1879C30.4367 15.6372 30.1855 16.1651 30.0078 16.7251C29.8757 17.1417 29.7854 17.5718 29.6955 18.0001C29.6641 18.1497 29.6327 18.2991 29.5996 18.4476C29.4831 18.9705 29.3457 19.48 29.1086 19.9301Z" fill="#D8AA3F"/>
<path fill-rule="evenodd" clip-rule="evenodd" d="M30.6211 20.2412C32.2559 18.8174 32.4141 15.6006 36.0703 15.7676C33.7588 17.8067 35.8066 17.7452 33.3457 20.9883L30.6211 20.2412Z" fill="#FEC74A"/>
<path fill-rule="evenodd" clip-rule="evenodd" d="M30.7718 20.2051L33.3166 20.9029C33.9095 20.1162 34.2312 19.5299 34.4151 19.0637C34.6015 18.5911 34.6477 18.2389 34.6898 17.918L34.6901 17.9153C34.7323 17.5935 34.7712 17.2972 34.9491 16.9532C35.1119 16.6384 35.3886 16.288 35.8817 15.8366C35.0702 15.825 34.4451 15.9891 33.9418 16.2616C33.4004 16.5549 32.9946 16.9766 32.648 17.4519C32.3919 17.8032 32.1705 18.18 31.9501 18.5552C31.8711 18.6896 31.7923 18.8239 31.712 18.9567C31.4345 19.4156 31.1411 19.8546 30.7718 20.2051ZM33.8707 16.1303C34.4388 15.8225 35.1481 15.6507 36.0737 15.693L36.2583 15.7014L36.1197 15.8236C35.5452 16.3304 35.2473 16.7018 35.0818 17.0218C34.9169 17.3407 34.8804 17.6136 34.8381 17.9361L34.8377 17.9389C34.7954 18.2618 34.7472 18.6288 34.5541 19.1185C34.3607 19.6087 34.0233 20.2189 33.4052 21.0335L33.3747 21.0737L30.4669 20.2764L30.572 20.1849C30.9714 19.8371 31.2828 19.3776 31.5841 18.8794C31.6622 18.7502 31.7398 18.6182 31.818 18.485C32.0395 18.1079 32.2664 17.7216 32.5273 17.3639C32.8816 16.8779 33.3031 16.4377 33.8707 16.1303Z" fill="#D8AA3F"/>
<path fill-rule="evenodd" clip-rule="evenodd" d="M32.0801 21.0849C34.0576 20.1972 35.1475 17.1738 38.5928 18.4042C35.7803 19.6787 37.7578 20.2236 34.4619 22.5966L32.0801 21.0849V21.0849Z" fill="#FEC74A"/>
<path fill-rule="evenodd" clip-rule="evenodd" d="M32.0801 21.0849L32.04 21.148L34.4645 22.6868L34.5056 22.6573C35.3334 22.0612 35.8333 21.5777 36.1608 21.1662C36.4874 20.7557 36.6402 20.4194 36.7749 20.1232L36.7766 20.1194C36.9112 19.8232 37.0262 19.5725 37.2777 19.3155C37.5301 19.0574 37.9246 18.789 38.6236 18.4723L38.7919 18.396L38.6179 18.3339C37.7457 18.0224 37.0178 17.9786 36.385 18.1059C35.7529 18.2331 35.2216 18.53 34.7412 18.8905C34.3863 19.1568 34.0557 19.4606 33.733 19.7571C33.6205 19.8606 33.5089 19.9631 33.3976 20.0629C32.9643 20.4512 32.5326 20.7999 32.0495 21.0168L32.0801 21.0849ZM33.4973 20.1742C33.0982 20.5319 32.6896 20.8663 32.2343 21.0943L34.4592 22.5064C35.2547 21.9296 35.7325 21.4644 36.0438 21.0731C36.359 20.6771 36.5057 20.3544 36.6395 20.06L36.6406 20.0575C36.7752 19.7615 36.8992 19.4887 37.1709 19.211C37.4192 18.9572 37.7873 18.7026 38.3922 18.415C37.6201 18.1661 36.9749 18.1396 36.4145 18.2524C35.8115 18.3737 35.3007 18.6575 34.8308 19.01C34.4824 19.2714 34.16 19.5678 33.8388 19.8629C33.7252 19.9673 33.6117 20.0716 33.4973 20.1742Z" fill="#D8AA3F"/>
<path fill-rule="evenodd" clip-rule="evenodd" d="M33.3018 22.4121C35.4463 22.1132 37.3447 19.5117 40.3066 21.6738C37.2568 22.1044 38.9883 23.1767 35.165 24.5302L33.3018 22.4033V22.4121Z" fill="#FEC74A"/>
<path fill-rule="evenodd" clip-rule="evenodd" d="M33.279 22.4907L35.1422 24.6176L35.19 24.6007C36.1502 24.2607 36.7654 23.9371 37.1955 23.6346C37.6237 23.3333 37.8656 23.0546 38.0785 22.8093L38.0823 22.8049C38.2954 22.5594 38.477 22.3519 38.7907 22.1767C39.1056 22.0008 39.5591 21.8548 40.3171 21.7478L40.4994 21.722L40.3507 21.6134C39.6009 21.0661 38.9142 20.8174 38.2707 20.7606C37.6278 20.7038 37.0342 20.839 36.4714 21.0501C36.0542 21.2066 35.65 21.4066 35.2556 21.6017C35.12 21.6688 34.9856 21.7353 34.8522 21.7992C34.3429 22.0434 33.8457 22.2523 33.338 22.3312L33.2271 22.2046V22.4979L33.279 22.4907ZM34.9168 21.934C34.4354 22.1648 33.9517 22.371 33.4535 22.4631L35.1878 24.4428C36.1117 24.1123 36.7005 23.8001 37.1095 23.5124C37.5228 23.2216 37.755 22.9541 37.9666 22.7102L37.9695 22.707C38.1826 22.4614 38.379 22.2355 38.7178 22.0462C39.0276 21.8732 39.4519 21.7331 40.1118 21.6275C39.4401 21.1685 38.8277 20.9598 38.2576 20.9094C37.6444 20.8552 37.0741 20.9836 36.5239 21.19C36.1144 21.3436 35.72 21.5387 35.3274 21.7329C35.1905 21.8006 35.0538 21.8682 34.9168 21.934Z" fill="#D8AA3F"/>
<path fill-rule="evenodd" clip-rule="evenodd" d="M40.9482 22.8164L31.0957 23.0361L31.5088 25.6904L40.9482 22.8164Z" fill="#FEC74A"/>
<path fill-rule="evenodd" clip-rule="evenodd" d="M40.9466 22.7417L40.97 22.8879L31.4482 25.7869L31.0088 22.9633L40.9466 22.7417ZM31.1826 23.1089L31.5694 25.5939L40.4066 22.9032L31.1826 23.1089Z" fill="#D8AA3F"/>
<path fill-rule="evenodd" clip-rule="evenodd" d="M39.498 19.1953L30.375 22.7021L31.8955 25.6289L39.498 19.1953V19.1953Z" fill="#FEC74A"/>
<path fill-rule="evenodd" clip-rule="evenodd" d="M39.4712 19.1256L39.4981 19.1953L39.5463 19.2524L31.8724 25.7464L30.2702 22.6624L39.4712 19.1256ZM39.1129 19.4234L30.4798 22.7419L31.9187 25.5115L39.1129 19.4234Z" fill="#D8AA3F"/>
<path fill-rule="evenodd" clip-rule="evenodd" d="M32.2559 24.6709L36.9756 16.0928L29.7334 22.834L32.2559 24.6709Z" fill="#FEC74A"/>
<path fill-rule="evenodd" clip-rule="evenodd" d="M36.9247 16.0381L37.041 16.1288L32.2804 24.7812L29.6162 22.841L36.9247 16.0381ZM29.8506 22.8269L32.2313 24.5606L36.6857 16.4647L29.8506 22.8269Z" fill="#D8AA3F"/>
<path fill-rule="evenodd" clip-rule="evenodd" d="M32.1592 23.959L33.6709 14.3438L28.9424 22.8867L32.1592 23.959Z" fill="#FEC74A"/>
<path fill-rule="evenodd" clip-rule="evenodd" d="M33.6055 14.3076L33.7447 14.3554L32.2193 24.0578L28.8335 22.9292L33.6055 14.3076ZM29.0513 22.8443L32.0991 23.8603L33.5314 14.7501L29.0513 22.8443Z" fill="#D8AA3F"/>
<path fill-rule="evenodd" clip-rule="evenodd" d="M31.5879 23.1768L30.0059 13.4912L28.248 23.2207L31.5879 23.1768Z" fill="#FEC74A"/>
<path fill-rule="evenodd" clip-rule="evenodd" d="M29.9323 13.4779L30.0796 13.4791L31.6756 23.2503L28.1584 23.2966L29.9323 13.4779ZM28.3377 23.1448L31.5002 23.1032L30.0021 13.9319L28.3377 23.1448Z" fill="#D8AA3F"/>
<path fill-rule="evenodd" clip-rule="evenodd" d="M30.7705 22.3506L26.1738 14.2646L27.9316 24.0908L30.7705 22.3506Z" fill="#FEC74A"/>
<path fill-rule="evenodd" clip-rule="evenodd" d="M26.1003 14.2779L26.2388 14.2278L30.8712 22.3766L27.8774 24.2118L26.1003 14.2779ZM26.324 14.6801L27.9859 23.97L30.6698 22.3247L26.324 14.6801Z" fill="#D8AA3F"/>
<path fill-rule="evenodd" clip-rule="evenodd" d="M30.0586 22.2891L22.9307 16.2686L27.9932 24.8818L30.0586 22.2891V22.2891Z" fill="#FEC74A"/>
<path fill-rule="evenodd" clip-rule="evenodd" d="M22.8663 16.3064L22.9789 16.2114L30.1068 22.2319L30.0586 22.289L30.117 22.3356L27.9839 25.0134L22.8663 16.3064ZM29.9549 22.2992L23.2169 16.608L28.0025 24.7502L29.9549 22.2992Z" fill="#D8AA3F"/>
<path fill-rule="evenodd" clip-rule="evenodd" d="M20.4258 19.2393L28.0723 25.5586L29.25 22.2539L20.4258 19.2393Z" fill="#FEC74A"/>
<path fill-rule="evenodd" clip-rule="evenodd" d="M20.3782 19.2969L20.4499 19.1686L29.3458 22.2077L28.1069 25.6841L20.3782 19.2969ZM20.7885 19.4421L28.0377 25.4331L29.1542 22.3001L20.7885 19.4421Z" fill="#D8AA3F"/>
<path fill-rule="evenodd" clip-rule="evenodd" d="M27.9932 22.9307L19.002 22.7988L27.958 25.7871L27.9932 22.9307V22.9307Z" fill="#FEC74A"/>
<path fill-rule="evenodd" clip-rule="evenodd" d="M18.9783 22.8697L19.003 22.7241L27.9943 22.856L27.9932 22.9307L28.0679 22.9316L28.0314 25.8904L18.9783 22.8697ZM27.9175 23.0043L19.4831 22.8806L27.8846 25.6838L27.9175 23.0043Z" fill="#D8AA3F"/>
<path fill-rule="evenodd" clip-rule="evenodd" d="M35.2881 24.5391C35.3174 25.2655 35.1997 25.9904 34.9419 26.6701C34.6842 27.3499 34.2917 27.9706 33.7881 28.4949C33.2845 29.0193 32.6802 29.4365 32.0113 29.7214C31.3425 30.0064 30.623 30.1533 29.896 30.1533C29.169 30.1533 28.4495 30.0064 27.7807 29.7214C27.1118 29.4365 26.5075 29.0193 26.0039 28.4949C25.5003 27.9706 25.1078 27.3499 24.8501 26.6701C24.5923 25.9904 24.4746 25.2655 24.5039 24.5391C24.5601 23.1467 25.1528 21.83 26.1579 20.8647C27.1629 19.8994 28.5025 19.3604 29.896 19.3604C31.2895 19.3604 32.629 19.8994 33.6341 20.8647C34.6392 21.83 35.2319 23.1467 35.2881 24.5391V24.5391Z" fill="#FEC74A"/>
<path fill-rule="evenodd" clip-rule="evenodd" d="M29.896 19.4351C28.5218 19.4351 27.2008 19.9667 26.2096 20.9186C25.2185 21.8705 24.634 23.169 24.5786 24.5421C24.5496 25.2585 24.6657 25.9733 24.9199 26.6437C25.1741 27.314 25.5611 27.9261 26.0578 28.4432C26.5544 28.9603 27.1504 29.3717 27.8099 29.6527C28.4695 29.9337 29.1791 30.0786 29.896 30.0786C30.6129 30.0786 31.3225 29.9337 31.9821 29.6527C32.6416 29.3717 33.2376 28.9603 33.7342 28.4432C34.2309 27.9261 34.6179 27.314 34.8721 26.6437C35.1263 25.9733 35.2424 25.2585 35.2134 24.5421C35.158 23.169 34.5735 21.8705 33.5824 20.9186C32.5912 19.9667 31.2702 19.4351 29.896 19.4351ZM26.1061 20.8108C27.1251 19.8322 28.4832 19.2856 29.896 19.2856C31.3088 19.2856 32.6669 19.8322 33.6859 20.8108C34.7048 21.7895 35.3057 23.1244 35.3627 24.5361C35.3925 25.2726 35.2731 26.0074 35.0118 26.6966C34.7504 27.3858 34.3526 28.0151 33.842 28.5467C33.3314 29.0783 32.7187 29.5013 32.0406 29.7902C31.3625 30.0791 30.6331 30.228 29.896 30.228C29.1589 30.228 28.4295 30.0791 27.7514 29.7902C27.0733 29.5013 26.4606 29.0783 25.95 28.5467C25.4394 28.0151 25.0416 27.3858 24.7802 26.6966C24.5189 26.0074 24.3995 25.2726 24.4293 24.5361C24.4863 23.1244 25.0872 21.7895 26.1061 20.8108Z" fill="#D8AA3F"/>
<path fill-rule="evenodd" clip-rule="evenodd" d="M-6.91699 26.666H66.9023V45H-6.92578L-6.91699 26.666Z" fill="#005989"/>
<path fill-rule="evenodd" clip-rule="evenodd" d="M-6.96094 39.9023C-5.58984 40.5352 -3.62109 42.126 -1.51172 42.126C2.00391 42.0996 2.0918 39.7178 5.66016 39.832C9.2373 39.9199 8.58691 42.4336 13.4121 42.4248C17.4023 42.4072 18.6855 39.375 22.1309 39.7354C24.6797 39.6035 25.7168 42.6094 29.6279 42.6533C33.6885 42.7412 35.1738 39.375 37.7139 39.6563C40.4385 39.6563 41.3174 42.3633 45.123 42.3809C49.9746 42.4072 50.8271 39.5684 53.8506 39.7441C56.0127 39.7002 57.7178 41.8271 60.8818 41.8799C63.3955 41.9238 65.5137 40.0166 66.9463 39.3311L67.0078 36.0967C65.5137 36.6504 63.2812 38.4785 61.0576 38.4961C57.8408 38.6191 55.8633 36.3867 53.6309 36.4131C50.959 36.4395 49.8955 39.1641 45.3691 39.1641C41.2207 39.1641 40.2715 36.4131 37.5996 36.4131C34.9893 36.4307 34.1895 39.4014 29.6631 39.3486C25.9717 39.3047 24.5391 36.5098 21.9287 36.5361C19.1602 36.5361 16.3037 39.252 13.2275 39.1201C9.00879 38.9443 8.08594 36.5361 5.31738 36.5361C3.25195 36.5361 1.01074 38.7861 -1.47656 38.8213C-3.95508 38.8652 -6.74121 36.5801 -6.99609 36.5361L-6.96094 39.9023V39.9023ZM-6.96094 33.4863C-5.58984 34.1279 -3.62109 35.7188 -1.51172 35.7188C2.00391 35.6924 2.0918 33.3105 5.66016 33.416C9.2373 33.5039 8.58691 36.0264 13.4121 36.0088C17.4023 36.0088 18.6855 32.9678 22.1309 33.3281C24.6797 33.1963 25.7168 36.2021 29.6279 36.2373C33.6885 36.3252 35.1738 32.9678 37.7139 33.249C40.4385 33.249 41.3174 35.9561 45.123 35.9736C49.9746 36 50.8271 33.1611 53.8506 33.3369C56.0127 33.293 57.7178 35.4199 60.8818 35.4727C63.3955 35.5166 65.5137 33.6094 66.9463 32.9238L67.0078 29.6895C65.5137 30.2432 63.2812 32.0625 61.0576 32.0889C57.8408 32.2031 55.8633 29.9795 53.6309 30.0059C50.959 30.0322 49.8955 32.7568 45.3691 32.7568C41.2207 32.7568 40.2715 30.0059 37.5996 30.0059C34.9893 30.0234 34.1895 32.9941 29.6631 32.9414C25.9717 32.8975 24.5391 30.1025 21.9287 30.1289C19.1602 30.1289 16.3037 32.8359 13.2275 32.7041C9.00879 32.5283 8.08594 30.1201 5.31738 30.1201C3.25195 30.1201 1.01074 32.3789 -1.47656 32.4141C-3.95508 32.4492 -6.74121 30.1729 -6.99609 30.1289L-6.96094 33.4951V33.4863Z" fill="white"/>
<path fill-rule="evenodd" clip-rule="evenodd" d="M-6.96094 27.1582C-5.58984 27.791 -3.62109 29.373 -1.52051 29.373C1.99512 29.3555 2.08301 26.9648 5.65137 27.0791C9.21973 27.167 8.56934 29.6807 13.3945 29.6719C17.376 29.6631 18.668 26.6221 22.0957 26.9912C24.6445 26.8594 25.6816 29.8652 29.5928 29.9004C33.6445 29.9883 35.1299 26.6221 37.6787 26.9033C40.3857 26.9033 41.2822 29.6104 45.0791 29.6279C49.9131 29.6543 50.7656 26.8154 53.7979 26.9912C55.9512 26.9473 57.6562 29.0742 60.8115 29.127C63.334 29.1709 65.4434 27.2637 66.876 26.5781L66.9375 23.3438C65.4434 23.9062 63.2197 25.7256 60.9873 25.7432C57.7881 25.8662 55.8018 23.6426 53.5693 23.6602C50.9062 23.6865 49.8428 26.4111 45.3076 26.4111C41.1768 26.4111 40.2275 23.6602 37.5557 23.6602C34.9453 23.6865 34.1455 26.6484 29.6367 26.5957C25.9453 26.5518 24.5127 23.7656 21.9023 23.7832C19.1338 23.7832 16.2773 26.499 13.2188 26.3672C8.99121 26.1914 8.07715 23.7832 5.30859 23.7832C3.24316 23.7832 1.01074 26.0332 -1.47656 26.0684C-3.95508 26.1123 -6.73242 23.8359 -6.99609 23.7832L-6.96094 27.1494V27.1582Z" fill="white"/>
<path fill-rule="evenodd" clip-rule="evenodd" d="M19.6172 6.67969C24.9785 6.31055 24.0117 5.85352 26.165 5.50195C28.8896 5.87988 29.1973 7.52344 30.7178 8.53418C30.7178 8.53418 30.1465 10.4678 28.2832 10.1953C28.0283 9.42187 29.1797 9.17578 25.8662 7.1543C23.9326 7.04004 20.4785 7.49707 19.626 6.67969H19.6172ZM36.2549 9.65918L32.3877 9.81738V10.7754C34.998 10.8633 35.4639 10.5117 36.2549 9.65918Z" fill="#FFC84B"/>
<path fill-rule="evenodd" clip-rule="evenodd" d="M26.1641 5.422L26.1759 5.42364C27.557 5.61521 28.3299 6.12942 28.9478 6.72379C29.1514 6.91967 29.3398 7.126 29.5261 7.33013C29.6192 7.43212 29.7118 7.53356 29.8056 7.63287C30.0891 7.93317 30.3887 8.22048 30.7616 8.46834L30.8102 8.50065L30.7936 8.55663L30.7178 8.53422C30.7936 8.55663 30.7936 8.55667 30.7936 8.55672L30.7936 8.55685L30.7934 8.55726L30.793 8.55858L30.7916 8.56329C30.7903 8.56733 30.7885 8.57314 30.786 8.58059C30.7811 8.5955 30.7738 8.61701 30.7638 8.64409C30.7439 8.69823 30.7135 8.77477 30.6711 8.86555C30.5864 9.04685 30.4533 9.28636 30.2599 9.5177C29.8715 9.98218 29.2375 10.4148 28.2718 10.2736L28.2234 10.2665L28.2081 10.2201C28.1414 10.0179 28.1629 9.84732 28.1825 9.69247C28.1835 9.68441 28.1845 9.67639 28.1855 9.6684C28.2055 9.50717 28.2195 9.35741 28.1479 9.17128C28.0752 8.98262 27.911 8.74822 27.5536 8.43285C27.1989 8.11995 26.659 7.73148 25.8419 7.23216C25.2562 7.19889 24.5369 7.2171 23.7904 7.236C23.3089 7.24819 22.8161 7.26066 22.3405 7.2598C21.7335 7.2587 21.1566 7.23564 20.6766 7.1608C20.2004 7.08658 19.8032 6.95921 19.5712 6.73682L19.6149 6.69131L19.6117 6.60081C22.2909 6.41634 23.3826 6.21024 24.0719 6.00835C24.2858 5.94568 24.4637 5.88228 24.6403 5.81933C25.0277 5.68122 25.409 5.54527 26.1523 5.42392L26.1641 5.422ZM19.843 6.74316C20.0474 6.86343 20.3397 6.94818 20.7009 7.00449C21.1688 7.07742 21.7361 7.1005 22.3408 7.1016C22.8058 7.10244 23.2941 7.09015 23.7742 7.07807C24.5358 7.05891 25.2767 7.04026 25.8709 7.07537L25.8906 7.07653L25.9074 7.08681C26.7376 7.59326 27.2913 7.99043 27.6582 8.31423C28.0248 8.63772 28.2099 8.8922 28.2955 9.11444C28.382 9.33919 28.3631 9.52232 28.3425 9.68793C28.3417 9.694 28.341 9.70003 28.3402 9.70604C28.3223 9.84916 28.3064 9.97657 28.3446 10.1239C29.2139 10.2335 29.7822 9.8423 30.1385 9.41621C30.3208 9.19821 30.447 8.97135 30.5277 8.79861C30.568 8.71237 30.5968 8.63999 30.6153 8.58945C30.6184 8.58108 30.6212 8.57331 30.6238 8.56619C30.2597 8.31666 29.965 8.03217 29.6906 7.74147C29.5929 7.63803 29.4984 7.53452 29.4045 7.43158C29.2203 7.22984 29.0382 7.0303 28.8381 6.8378C28.2426 6.26492 27.502 5.76962 26.166 5.58199C25.4446 5.70052 25.0847 5.82901 24.7055 5.9644C24.5267 6.02823 24.3436 6.0936 24.1163 6.16018C23.43 6.36122 22.3661 6.56244 19.843 6.74316ZM36.4434 9.57234L36.3129 9.71302C35.9157 10.1411 35.5902 10.4548 35.0289 10.6449C34.4728 10.8333 33.6913 10.8985 32.385 10.8545L32.3086 10.8519V9.74149L36.4434 9.57234ZM32.4668 9.89335V10.6988C33.7242 10.7376 34.4615 10.6701 34.9782 10.4951C35.4402 10.3385 35.7307 10.0946 36.0645 9.74617L32.4668 9.89335Z" fill="#D8AA3F"/>
<path fill-rule="evenodd" clip-rule="evenodd" d="M22.957 9.49213C23.6338 9.14936 23.9678 9.28998 24.5566 9.2724C24.9521 10.0019 25.3301 10.0634 26.209 10.1513C26.5979 10.7277 27.1192 11.2024 27.7294 11.5358C28.3396 11.8691 29.0207 12.0514 29.7158 12.0673C32.3437 11.997 33.1787 10.1601 34.9453 9.95795H36.8086C36.501 9.43061 36.2549 9.12299 35.5781 9.08783C34.1895 9.01752 32.3965 9.05268 30.832 9.40424L28.626 9.95795C27.9756 9.64154 26.4023 7.9892 25.3916 8.02436C24.8027 8.18256 24.8027 8.38471 24.5127 8.61322C23.9414 8.85932 23.3701 8.73627 22.957 9.49213V9.49213Z" fill="#FFC84B"/>
<path fill-rule="evenodd" clip-rule="evenodd" d="M28.6347 9.87873L30.8138 9.33178L30.8157 9.33135C32.3895 8.97769 34.19 8.94274 35.5819 9.01322L35.582 9.01323C35.9323 9.03142 36.179 9.1209 36.3784 9.27992C36.5749 9.43663 36.7192 9.65642 36.8731 9.92031C36.8866 9.94341 36.8867 9.97196 36.8734 9.99516C36.8601 10.0184 36.8353 10.0327 36.8086 10.0327H34.9496C34.2071 10.1188 33.6348 10.5 32.9993 10.9232C32.8995 10.9896 32.7981 11.0571 32.6943 11.1247C31.9315 11.6211 31.0519 12.1063 29.7178 12.142C29.7166 12.142 29.7153 12.142 29.7141 12.142C29.0071 12.1258 28.3142 11.9404 27.6936 11.6013C27.0832 11.2679 26.5602 10.7953 26.1668 10.2222C25.7478 10.1799 25.4304 10.1408 25.1701 10.0202C24.9069 9.89833 24.7084 9.69679 24.5131 9.34817C24.3742 9.35064 24.2512 9.34538 24.1356 9.34044C23.7694 9.32479 23.4774 9.3123 22.9908 9.55878L22.957 9.49213L22.8915 9.4563C23.1079 9.06039 23.3695 8.891 23.6505 8.79112C23.7677 8.74947 23.8888 8.71977 24.0077 8.69062C24.0281 8.68561 24.0484 8.68061 24.0687 8.67558C24.2054 8.64161 24.3402 8.60521 24.4741 8.54847C24.5385 8.49692 24.5878 8.44659 24.635 8.39608C24.6438 8.38663 24.6526 8.37706 24.6615 8.36741C24.7014 8.3243 24.7427 8.2796 24.7901 8.23689C24.9105 8.12858 25.0689 8.03369 25.3722 7.95221C25.3777 7.95073 25.3833 7.94989 25.389 7.94969C25.6608 7.94024 25.9624 8.04382 26.2662 8.20078C26.5714 8.35848 26.887 8.57445 27.1886 8.79943C27.3966 8.95456 27.5998 9.11544 27.789 9.26521C27.8739 9.33238 27.956 9.39733 28.0343 9.45851C28.2774 9.64827 28.4826 9.79967 28.6347 9.87873ZM23.1567 9.32026C23.5537 9.16474 23.843 9.17726 24.1607 9.191C24.2849 9.19638 24.4134 9.20194 24.5544 9.19773C24.5826 9.19689 24.6089 9.212 24.6223 9.2368C24.8154 9.59285 24.9985 9.77608 25.2329 9.88467C25.4731 9.99592 25.7738 10.0327 26.2164 10.077C26.2385 10.0792 26.2585 10.0911 26.2709 10.1095C26.6531 10.676 27.1655 11.1426 27.7652 11.4702C28.3644 11.7976 29.0332 11.9767 29.7157 11.9926C31.0085 11.9576 31.8599 11.4894 32.6128 10.9995C32.7141 10.9335 32.8139 10.867 32.913 10.8009C33.5477 10.3775 34.1537 9.97333 34.9368 9.88373C34.9396 9.8834 34.9425 9.88324 34.9453 9.88324H36.6772C36.5504 9.6751 36.4324 9.51412 36.2852 9.39673C36.1154 9.26131 35.9008 9.17941 35.5743 9.16244C34.1892 9.09231 32.4042 9.12765 30.8493 9.47692L28.6442 10.0304C28.6271 10.0347 28.6091 10.0328 28.5933 10.0251C28.4223 9.94196 28.1958 9.77409 27.9424 9.57629C27.8625 9.51389 27.7795 9.44825 27.6942 9.38069C27.5058 9.23156 27.3055 9.07303 27.0993 8.9192C26.7999 8.69595 26.492 8.48564 26.1976 8.33352C25.9054 8.18251 25.6343 8.09306 25.4026 8.09877C25.1228 8.1749 24.9885 8.25939 24.8901 8.34795C24.8482 8.38563 24.8125 8.42423 24.773 8.46694C24.7637 8.47706 24.7541 8.48741 24.7442 8.49803C24.6932 8.55266 24.6358 8.61132 24.5589 8.6719C24.5538 8.67593 24.5482 8.67926 24.5423 8.68183C24.3935 8.74592 24.2457 8.78556 24.1047 8.82058C24.0836 8.82583 24.0627 8.83096 24.042 8.83605C23.9228 8.8653 23.81 8.893 23.7006 8.93191C23.5048 9.00146 23.3214 9.10633 23.1567 9.32026Z" fill="#D8AA3F"/>
<path fill-rule="evenodd" clip-rule="evenodd" d="M25.6201 8.70121C25.6274 8.74169 25.6256 8.78327 25.6151 8.82302C25.6045 8.86277 25.5853 8.89971 25.5589 8.93125C25.5325 8.96279 25.4995 8.98815 25.4623 9.00556C25.425 9.02296 25.3844 9.03198 25.3433 9.03198C25.3021 9.03198 25.2615 9.02296 25.2242 9.00556C25.187 8.98815 25.154 8.96279 25.1276 8.93125C25.1012 8.89971 25.082 8.86277 25.0715 8.82302C25.0609 8.78327 25.0592 8.74169 25.0664 8.70121C25.078 8.63624 25.1121 8.57742 25.1627 8.53506C25.2134 8.4927 25.2773 8.46948 25.3433 8.46948C25.4093 8.46948 25.4732 8.4927 25.5238 8.53506C25.5744 8.57742 25.6085 8.63624 25.6201 8.70121V8.70121Z" fill="#FFC84B"/>
<path fill-rule="evenodd" clip-rule="evenodd" d="M25.3433 8.54419C25.2948 8.54419 25.2479 8.56124 25.2107 8.59235C25.1735 8.62346 25.1485 8.66665 25.1399 8.71436C25.1346 8.7441 25.1359 8.77463 25.1437 8.80382C25.1514 8.83301 25.1655 8.86014 25.1849 8.8833C25.2043 8.90646 25.2285 8.92509 25.2559 8.93787C25.2832 8.95065 25.3131 8.95728 25.3433 8.95728C25.3735 8.95728 25.4033 8.95065 25.4307 8.93787C25.458 8.92509 25.4823 8.90646 25.5016 8.8833C25.521 8.86014 25.5351 8.83301 25.5429 8.80382C25.5506 8.77463 25.5519 8.74409 25.5466 8.71436C25.538 8.66665 25.513 8.62346 25.4758 8.59235C25.4387 8.56124 25.3917 8.54419 25.3433 8.54419ZM25.1148 8.47777C25.1789 8.42415 25.2597 8.39478 25.3433 8.39478C25.4268 8.39478 25.5077 8.42415 25.5717 8.47777C25.6358 8.53139 25.6789 8.60582 25.6937 8.68805C25.7028 8.73929 25.7006 8.79192 25.6873 8.84222C25.6739 8.89253 25.6496 8.93928 25.6162 8.9792C25.5828 9.01912 25.5411 9.05122 25.4939 9.07325C25.4467 9.09527 25.3953 9.10669 25.3433 9.10669C25.2912 9.10669 25.2398 9.09527 25.1926 9.07325C25.1455 9.05122 25.1037 9.01912 25.0703 8.9792C25.0369 8.93928 25.0126 8.89253 24.9993 8.84222C24.9859 8.79192 24.9837 8.73929 24.9929 8.68805C25.0076 8.60582 25.0507 8.53139 25.1148 8.47777Z" fill="#D8AA3F"/>
<path fill-rule="evenodd" clip-rule="evenodd" d="M27.4219 9.47461C31.3682 4.71973 34.8135 5.2998 39.3135 4.97461C39.4629 5.52832 39.4014 6.35449 37.2656 7.08398C34.3301 7.52344 29.083 10.6172 29.0566 10.6172C28.0811 10.5645 27.3955 9.54492 27.4219 9.47461V9.47461Z" fill="#FFC84B"/>
<path fill-rule="evenodd" clip-rule="evenodd" d="M39.3729 4.89099L39.3899 4.95398C39.4684 5.24513 39.4928 5.61701 39.2107 6.00952C38.9328 6.39627 38.3649 6.79209 37.2912 7.15882L37.2844 7.16113L37.2773 7.16219C35.8232 7.37988 33.7877 8.25768 32.1051 9.08632C31.2655 9.49985 30.5165 9.89972 29.9756 10.1963C29.7053 10.3445 29.4869 10.4669 29.3354 10.5523C29.3046 10.5696 29.2765 10.5855 29.2513 10.5997C29.2145 10.6204 29.1838 10.6378 29.1596 10.6513C29.1393 10.6627 29.1233 10.6716 29.112 10.6778C29.1064 10.6808 29.1014 10.6834 29.0975 10.6855C29.0956 10.6864 29.0931 10.6877 29.0905 10.6888C29.0893 10.6894 29.0869 10.6904 29.0839 10.6915C29.0824 10.692 29.0788 10.6931 29.0766 10.6937C29.0731 10.6945 29.0632 10.696 29.0566 10.6963H29.0545L29.0524 10.6962C28.5385 10.6684 28.1064 10.3869 27.8096 10.1103C27.6606 9.97147 27.5434 9.83176 27.4646 9.72129C27.4253 9.66621 27.3947 9.61723 27.3744 9.57833C27.3644 9.55912 27.3558 9.54045 27.3502 9.52362C27.3474 9.51529 27.3446 9.50535 27.3431 9.49477C27.3419 9.48606 27.3401 9.46734 27.3478 9.44682L27.4219 9.47459L27.361 9.42407C29.3438 7.03505 31.2057 5.98133 33.1405 5.48682C34.5334 5.13081 35.966 5.06518 37.4992 4.99495C38.0862 4.96806 38.6879 4.94049 39.3078 4.89569L39.3729 4.89099ZM27.5089 9.49367C27.5106 9.49712 27.5125 9.50093 27.5147 9.50509C27.5306 9.53561 27.5569 9.57823 27.5934 9.62944C27.6662 9.73156 27.7765 9.86321 27.9175 9.9946C28.1965 10.2546 28.5871 10.5055 29.0399 10.5369C29.05 10.5313 29.0641 10.5235 29.0822 10.5133C29.1062 10.4999 29.1367 10.4827 29.1733 10.462C29.1986 10.4478 29.2267 10.4319 29.2577 10.4145C29.4096 10.3289 29.6285 10.2062 29.8996 10.0575C30.4417 9.76027 31.1929 9.35924 32.0352 8.9444C33.714 8.11763 35.7659 7.23035 37.2468 7.0068C38.3044 6.64473 38.8333 6.2636 39.0823 5.9172C39.3082 5.60269 39.3094 5.30798 39.2528 5.05822C38.6461 5.101 38.0603 5.12783 37.4909 5.15392C35.9643 5.22386 34.5557 5.28839 33.1796 5.6401C31.2886 6.12341 29.4626 7.15008 27.5089 9.49367Z" fill="#D8AA3F"/>
<path fill-rule="evenodd" clip-rule="evenodd" d="M35.4552 6.36849C35.4571 6.32485 35.4941 6.29107 35.5378 6.29305L38.4469 6.42489C38.4906 6.42687 38.5244 6.46385 38.5224 6.50749C38.5204 6.55113 38.4834 6.58491 38.4398 6.58293L35.5306 6.45109C35.487 6.44911 35.4532 6.41213 35.4552 6.36849ZM35.1389 6.84893C35.1426 6.80539 35.1808 6.77303 35.2243 6.77664L37.3425 6.95242C37.386 6.95603 37.4184 6.99426 37.4148 7.03779C37.4112 7.08133 37.3729 7.1137 37.3294 7.11008L35.2112 6.9343C35.1677 6.93069 35.1353 6.89247 35.1389 6.84893Z" fill="#D9A43E"/>
</g>
<defs>
<clipPath id="clip0_4_5694">
<rect width="60" height="45" fill="white"/>
</clipPath>
</defs>
</svg>
