<svg width="60" height="45" viewBox="0 0 60 45" fill="none" xmlns="http://www.w3.org/2000/svg">
<g clip-path="url(#clip0_4_6161)">
<path fill-rule="evenodd" clip-rule="evenodd" d="M-3.75 33.75H63.75V45H-3.75V33.75ZM-3.75 0H63.75V11.25H-3.75V0Z" fill="#EE161F"/>
<path fill-rule="evenodd" clip-rule="evenodd" d="M-3.75 11.25H63.75V33.75H-3.75V11.25Z" fill="white"/>
<path d="M29.6572 11.4258C28.9717 12.7881 28.5146 12.7881 27.3721 13.7109C26.915 14.1592 26.2295 14.3877 27.1436 14.8535C26.2207 15.3018 25.7637 15.5303 25.3066 16.4443L25.5352 16.6729C25.5352 16.6729 26.4141 16.251 26.4492 16.4443C26.6074 16.6289 25.3066 17.3232 25.1396 17.4375L24.1729 18.0527C23.0215 18.958 22.3271 18.7295 21.6504 20.1006L23.9355 19.8721C24.3926 21.4717 22.793 21.7002 21.6504 22.3857L19.8135 23.5283C20.2793 25.1279 21.6504 24.2139 22.793 23.7568L23.0215 23.9854V24.4424L20.7363 25.585C20.7363 25.585 18.0293 27.1318 17.9854 27.1846C17.9678 27.2725 17.9854 27.6416 17.9854 27.6416C18.8994 27.8701 20.2705 28.0986 21.1934 27.6416C22.3359 27.1846 22.5645 26.7275 23.9355 26.7275C22.6159 27.7572 21.031 28.3912 19.3652 28.5557V29.4697C20.7363 29.4697 21.6504 29.4697 22.793 29.2412L25.7637 28.3271C26.4492 28.3271 27.1436 29.0127 26.9063 29.6982C26.2295 32.2119 23.4785 31.7549 22.5645 33.8115L26.2207 32.4316C27.1348 31.9746 28.0488 31.5264 29.1914 31.7549C30.5625 32.2119 30.5625 33.126 32.3906 33.583L31.9336 32.4404C32.3906 32.6689 32.8477 32.6689 33.3135 32.8975C34.4561 33.3545 34.6846 33.8115 36.0557 33.583C34.9131 32.2119 34.6846 32.4404 33.7705 31.5264C32.8564 30.1553 32.3906 28.0986 33.7705 27.8701L35.3701 28.3271C36.9697 28.5557 36.9697 28.0986 39.2549 29.0127C40.6348 29.4697 41.0918 30.1553 42.6826 29.6982C42.0059 28.0986 39.4922 26.9561 37.8838 26.499C39.7207 25.3564 39.2549 26.9561 41.7773 26.2705V25.8135C39.958 24.4336 39.2637 23.291 36.75 23.291L40.6436 22.834V22.377C40.6436 22.377 36.8027 21.375 36.7148 21.3311C36.7412 21.2168 36.8379 21.041 37.0928 20.9355C37.8223 21.4102 40.0195 21.3574 40.1514 21.3486C40.0811 20.7861 39.0352 20.3203 38.1299 19.8633C38.1299 19.8633 34.2012 17.4463 34.1836 17.2354C34.2627 16.6201 35.792 17.332 37.4355 17.8066C36.9785 16.8926 36.0645 16.4355 35.1504 16.207L36.5215 15.9785C35.6074 13.9219 33.3223 14.1504 31.9512 13.2363C31.0283 12.5508 31.0283 12.0938 29.6572 11.417V11.4258Z" fill="#00A850"/>
<path fill-rule="evenodd" clip-rule="evenodd" d="M27.1875 26.6308C27.3545 26.0947 27.5742 25.6113 26.5547 25.1455C25.5352 24.6797 27.0645 27 27.1875 26.6396V26.6308ZM28.3916 25.5498C28.1895 25.5761 28.0752 26.3232 28.4883 26.5342C28.9453 26.6045 28.5762 25.5586 28.3916 25.5498ZM29.5781 25.4619C29.3672 25.5322 29.3584 26.5869 30.1055 26.3935C30.8613 26.209 30.1055 25.3828 29.5781 25.4707V25.4619ZM30.9668 22.7636C31.125 22.5 30.958 21.4453 30.3164 21.8847C29.666 22.333 30.7559 22.834 30.9668 22.7636ZM29.5605 21.8847C29.7627 21.8056 29.7803 21.1552 29.209 21.331C28.6553 21.498 29.4111 22.0166 29.5605 21.8847ZM28.2949 22.1396C28.2949 22.1396 27.8994 21.5947 27.5918 21.709C27.2139 22.0781 28.3213 22.1484 28.2949 22.1396ZM23.9355 23.8799C24.1025 23.8974 25.3418 23.6777 25.7725 23.1943C26.2031 22.7109 23.5664 23.3965 23.5664 23.4052C23.5664 23.414 23.8125 23.8359 23.9355 23.8799V23.8799ZM36.3369 20.8037C36.3984 20.6894 35.6777 20.1797 35.2471 20.3818C35.1328 20.7597 36.3369 20.8828 36.3369 20.8037ZM33.8936 19.5732C34.0342 19.3799 33.5859 18.5801 32.6895 19.0283C31.793 19.4677 33.6299 19.8896 33.8936 19.582V19.5732ZM31.0723 19.1074C31.0723 19.1074 31.292 18.3867 31.8281 18.5273C32.4434 18.9931 31.0986 19.1338 31.0723 19.1074ZM30.5449 18.5625C30.457 18.3603 29.9033 18.4746 29.2617 18.9052C28.6113 19.3183 30.7383 19.0283 30.5449 18.5537V18.5625ZM32.1885 16.6201C32.1885 16.6201 32.7598 16.3564 32.9355 16.6201C33.1729 16.998 32.1797 16.6201 32.1885 16.6201ZM31.7051 16.3652C31.5908 16.1367 30.958 16.1103 30.9756 16.4531C30.8701 16.7168 31.8018 16.664 31.7051 16.3652ZM30.1934 16.3652C30.1318 16.2334 29.2266 16.3652 28.9629 16.9101C29.4023 17.1211 30.3955 16.708 30.1934 16.3652ZM28.2598 16.9189C28.2598 16.9189 27.082 17.6484 27.0029 18.1758C27.0381 18.6328 28.4795 17.3496 28.4795 17.3496C28.4795 17.3496 28.6025 16.8398 28.2686 16.9189H28.2598ZM26.9502 16.2597C26.9854 16.1103 27.5391 15.7676 27.583 15.7939C27.627 15.9433 27.1348 16.3476 26.9502 16.2597ZM27.3281 19.0371C27.3545 18.8174 25.9219 18.8349 26.458 19.4941C26.915 20.0478 27.4248 19.1338 27.3281 19.0371ZM26.0098 19.9775C25.9395 19.8369 25.834 19.4502 25.6406 19.415C25.4736 19.415 24.6123 19.5908 24.542 19.7314C24.5068 19.8457 24.9023 20.5576 25.0342 20.5752C25.1924 20.6367 25.9922 20.0478 26.0186 19.9775H26.0098ZM33.7793 24.8291C33.8232 24.6709 35.2998 24.1699 35.8008 24.6533C36.3984 25.4707 33.7441 25.0927 33.7793 24.8291ZM37.8223 25.7871C38.1475 25.2422 36.8291 24.5918 36.2754 25.2158C36.4687 25.9629 37.5586 26.2353 37.8223 25.7871Z" fill="white"/>
<path fill-rule="evenodd" clip-rule="evenodd" d="M27.5846 15.6521C27.5994 15.6528 27.6268 15.6562 27.6554 15.6733C27.6856 15.6915 27.708 15.7204 27.7179 15.7542C27.7356 15.8145 27.7224 15.8712 27.7074 15.9106C27.6916 15.9519 27.6675 15.9911 27.6414 16.0261C27.5891 16.0964 27.516 16.167 27.4383 16.2271C27.3607 16.2871 27.2716 16.342 27.1843 16.376C27.1052 16.4069 26.9913 16.4351 26.8897 16.3867C26.83 16.3582 26.7981 16.292 26.8133 16.2275C26.8247 16.179 26.8522 16.1379 26.8752 16.1088C26.9001 16.0771 26.9307 16.0459 26.9627 16.0165C27.0269 15.9577 27.1067 15.8975 27.1841 15.8447C27.2618 15.7918 27.3408 15.7438 27.4052 15.71C27.4369 15.6934 27.4684 15.6784 27.4961 15.6683C27.5095 15.6633 27.5269 15.6577 27.5455 15.6545C27.5549 15.6529 27.5686 15.6512 27.5846 15.6521ZM31.5914 16.1033C31.6829 16.1389 31.7804 16.2013 31.8309 16.3023C31.834 16.3086 31.8367 16.3152 31.8389 16.3219C31.8626 16.3952 31.8555 16.4687 31.8208 16.5326C31.7886 16.592 31.7379 16.6339 31.6889 16.663C31.5918 16.7207 31.4644 16.7504 31.3489 16.7602C31.2339 16.77 31.1065 16.7619 31.0079 16.7238C30.9592 16.7049 30.9009 16.6723 30.863 16.6143C30.8259 16.5577 30.8187 16.4933 30.8347 16.4322C30.8368 16.3088 30.896 16.2117 30.984 16.1484C31.072 16.0851 31.1827 16.059 31.2845 16.0544C31.388 16.0498 31.4969 16.0665 31.5914 16.1033ZM31.1482 16.3768C31.1255 16.3931 31.1143 16.4114 31.116 16.4459C31.1163 16.4519 31.1163 16.4579 31.1158 16.4638C31.1604 16.4791 31.2369 16.4874 31.3252 16.48C31.4173 16.4722 31.4981 16.4492 31.5452 16.4212C31.5533 16.4164 31.5593 16.4121 31.5636 16.4086C31.5496 16.3955 31.5263 16.3797 31.4894 16.3654C31.4337 16.3437 31.3641 16.3324 31.2972 16.3354C31.2288 16.3385 31.1774 16.3558 31.1482 16.3768ZM30.3171 16.2983C30.2795 16.2265 30.2058 16.2017 30.1684 16.1922C30.1202 16.1799 30.0647 16.1762 30.0089 16.1775C29.8958 16.1802 29.7554 16.2042 29.6115 16.2498C29.3288 16.3394 28.9927 16.5257 28.8363 16.8489C28.82 16.8825 28.8178 16.9213 28.8301 16.9565C28.8425 16.9918 28.8683 17.0207 28.902 17.0369C29.044 17.105 29.2173 17.1178 29.3823 17.1022C29.5496 17.0863 29.7229 17.0397 29.8744 16.9745C30.0236 16.9102 30.1641 16.8224 30.255 16.716C30.3011 16.6622 30.3397 16.5974 30.3545 16.5231C30.3696 16.447 30.3578 16.3695 30.3171 16.2983ZM29.189 16.824C29.2394 16.8284 29.2954 16.8279 29.3557 16.8222C29.4918 16.8092 29.6366 16.7706 29.7631 16.7162C29.8918 16.6607 29.9892 16.5942 30.0413 16.5332C30.0668 16.5034 30.076 16.4813 30.0786 16.4683C30.0791 16.4659 30.0794 16.4636 30.0795 16.4612C30.0642 16.4593 30.043 16.458 30.0156 16.4587C29.9334 16.4607 29.8194 16.479 29.6964 16.5179C29.5053 16.5785 29.316 16.6809 29.189 16.824ZM30.1067 16.4672C30.1065 16.4673 30.1052 16.4669 30.103 16.4658C30.1057 16.4667 30.1068 16.4672 30.1067 16.4672ZM32.7666 16.37C32.8701 16.3863 32.9802 16.4336 33.0526 16.5421C33.0533 16.5432 33.054 16.5442 33.0546 16.5453C33.0887 16.5995 33.1234 16.6732 33.1098 16.7524C33.0929 16.8509 33.0161 16.897 32.9578 16.9143C32.903 16.9306 32.8422 16.9305 32.79 16.9264C32.735 16.922 32.6757 16.9118 32.6179 16.8992C32.502 16.8741 32.3806 16.8369 32.2902 16.8066C32.2447 16.7913 32.2061 16.7775 32.1789 16.7674C32.1653 16.7624 32.1541 16.7581 32.1461 16.7549C32.1423 16.7534 32.1381 16.7517 32.1343 16.7501C32.1333 16.7496 32.1286 16.7476 32.1234 16.7449C32.1219 16.7441 32.1191 16.7426 32.1158 16.7406C32.1137 16.7393 32.1054 16.7343 32.0963 16.7264C32.091 16.7216 32.078 16.7072 32.0708 16.6972C32.0598 16.677 32.0479 16.6149 32.0552 16.5749C32.0706 16.5453 32.1056 16.512 32.1308 16.495C32.1296 16.4924 32.1296 16.4924 32.1296 16.4924L32.1299 16.4922L32.1305 16.492L32.1322 16.4912C32.1337 16.4905 32.1356 16.4897 32.1381 16.4886C32.1431 16.4864 32.1501 16.4833 32.159 16.4796C32.1767 16.4722 32.2017 16.4621 32.2322 16.4509C32.2926 16.4288 32.3768 16.4017 32.4685 16.3833C32.5587 16.3653 32.6651 16.3539 32.7666 16.37ZM28.6162 17.3825C28.6162 17.3825 28.6162 17.3826 28.4795 17.3496C28.573 17.4546 28.573 17.4546 28.573 17.4546L28.5718 17.4557L28.5685 17.4586C28.5657 17.4611 28.5615 17.4648 28.5561 17.4695C28.5453 17.479 28.5296 17.4928 28.5096 17.5101C28.4695 17.5448 28.4124 17.5937 28.3438 17.6509C28.2068 17.7651 28.0228 17.9135 27.8368 18.048C27.6537 18.1804 27.4582 18.3071 27.3007 18.37C27.2265 18.3997 27.1342 18.4266 27.0486 18.4093C27.0004 18.3996 26.9517 18.3751 26.9152 18.3293C26.8802 18.2853 26.8664 18.2338 26.8627 18.1865C26.8619 18.176 26.8623 18.1654 26.8639 18.1549C26.8897 17.9829 26.9997 17.8134 27.1257 17.6657C27.2549 17.5141 27.4167 17.3675 27.5721 17.2406C27.7282 17.1133 27.8812 17.0033 27.9949 16.9252C28.0519 16.8861 28.0993 16.8549 28.1325 16.8333C28.1491 16.8225 28.1623 16.8141 28.1713 16.8084C28.1758 16.8056 28.1793 16.8033 28.1818 16.8018L28.1846 16.8001L28.1856 16.7994C28.1856 16.7994 28.1857 16.7994 28.2598 16.9189L28.1857 16.7994C28.2059 16.7868 28.229 16.7797 28.2526 16.7785C28.3637 16.7562 28.468 16.777 28.5435 16.8551C28.6124 16.9264 28.6328 17.022 28.6393 17.0915C28.6462 17.1653 28.6399 17.2384 28.6328 17.2901C28.6293 17.3166 28.6253 17.339 28.6221 17.355C28.6205 17.363 28.6191 17.3695 28.6181 17.3742C28.6176 17.3765 28.6172 17.3784 28.6168 17.3798L28.6164 17.3816L28.6163 17.3822L28.6162 17.3824L28.6162 17.3825ZM28.3093 17.0539C28.3026 17.0582 28.2947 17.0634 28.2855 17.0693C28.254 17.0897 28.2088 17.1196 28.1541 17.1571C28.0445 17.2323 27.8982 17.3376 27.7499 17.4585C27.601 17.58 27.4536 17.7146 27.3397 17.8481C27.2525 17.9504 27.1932 18.0428 27.1629 18.1211C27.1726 18.1179 27.1837 18.1139 27.1962 18.1089C27.3189 18.0598 27.4904 17.9514 27.672 17.8201C27.8507 17.6909 28.0292 17.5471 28.1637 17.4349C28.2307 17.379 28.2865 17.3313 28.3254 17.2975C28.3349 17.2894 28.3433 17.282 28.3507 17.2756C28.3518 17.2685 28.353 17.2607 28.3542 17.2523C28.3598 17.2109 28.3633 17.1614 28.3593 17.1177C28.3553 17.075 28.3458 17.0568 28.3423 17.0518C28.3389 17.0512 28.3288 17.0501 28.3093 17.0539ZM28.4795 17.3496L28.573 17.4546C28.5944 17.4356 28.6095 17.4103 28.6162 17.3825L28.4795 17.3496ZM30.6433 18.4532C30.5877 18.378 30.5003 18.3432 30.4181 18.3311C30.3185 18.3163 30.2009 18.3293 30.077 18.3601C29.8275 18.4222 29.5143 18.5666 29.1848 18.7875C29.1401 18.816 29.1012 18.8452 29.071 18.8758C29.0432 18.9039 29.0076 18.9483 28.9989 19.008C28.9881 19.0824 29.0234 19.1419 29.0679 19.1772C29.1055 19.2069 29.1499 19.2209 29.1843 19.2286C29.2558 19.2446 29.3471 19.2465 29.441 19.2411C29.5375 19.2355 29.6465 19.2215 29.7579 19.2006C29.9785 19.1591 30.2215 19.0877 30.4013 18.9907C30.4901 18.9428 30.5759 18.882 30.6322 18.8049C30.6931 18.7215 30.7214 18.6141 30.6752 18.5006C30.6677 18.4823 30.6567 18.4663 30.6433 18.4532ZM30.4157 18.6204C30.4109 18.6174 30.3997 18.6127 30.377 18.6093C30.3281 18.6021 30.2507 18.6067 30.1449 18.633C29.9572 18.6797 29.7097 18.7872 29.436 18.9596C29.516 18.9544 29.6088 18.9424 29.7059 18.9242C29.9117 18.8854 30.1234 18.8211 30.2677 18.7432C30.341 18.7036 30.3846 18.6671 30.4051 18.6391C30.4111 18.6307 30.4143 18.6248 30.4157 18.6204ZM29.2661 19.0791C29.266 19.0791 29.2664 19.0787 29.2671 19.0778C29.2665 19.0787 29.2661 19.0791 29.2661 19.0791ZM31.0723 19.1074L30.9378 19.0664C30.9226 19.1161 30.9361 19.1701 30.9728 19.2068C30.9977 19.2317 31.0252 19.2404 31.0319 19.2425L31.0321 19.2426C31.0429 19.246 31.0522 19.2476 31.0577 19.2485C31.0691 19.2502 31.08 19.2507 31.088 19.2509C31.1049 19.2514 31.1249 19.2508 31.1458 19.2495C31.1884 19.247 31.2445 19.2414 31.3074 19.2327C31.4325 19.2152 31.5935 19.184 31.7364 19.1349C31.8078 19.1105 31.8791 19.08 31.9404 19.042C32 19.005 32.062 18.9536 32.0985 18.8821C32.1389 18.8031 32.1404 18.7144 32.1013 18.6287C32.0655 18.5502 31.9987 18.4801 31.913 18.4152C31.8983 18.4041 31.8816 18.396 31.8638 18.3913C31.5155 18.2999 31.2742 18.4969 31.1366 18.6802C31.0673 18.7727 31.0181 18.8685 30.9864 18.94C30.9704 18.976 30.9586 19.0067 30.9506 19.0287C30.9466 19.0397 30.9435 19.0486 30.9414 19.055C30.9403 19.0582 30.9395 19.0608 30.9389 19.0627L30.9382 19.0651L30.9379 19.0659L30.9378 19.0663C30.9378 19.0663 30.9378 19.0664 31.0723 19.1074ZM31.3616 18.849C31.3367 18.8823 31.3147 18.9168 31.2958 18.9502C31.4056 18.9336 31.5347 18.9068 31.6452 18.8689C31.7051 18.8484 31.755 18.826 31.7922 18.803C31.831 18.7789 31.8446 18.761 31.848 18.7542C31.8482 18.754 31.8483 18.7538 31.8483 18.7536C31.8481 18.7523 31.8473 18.7496 31.8454 18.7454C31.8381 18.7294 31.8173 18.6994 31.7659 18.6572C31.5917 18.6231 31.4629 18.714 31.3616 18.849ZM34.0288 19.6205C34.0233 19.6398 34.0136 19.658 34.0003 19.6735C33.9383 19.7459 33.8454 19.7821 33.761 19.8016C33.6726 19.822 33.5705 19.8294 33.4658 19.8277C33.2564 19.8243 33.0164 19.7843 32.8135 19.7192C32.7119 19.6866 32.6154 19.6464 32.535 19.5986C32.4576 19.5525 32.3804 19.4907 32.3376 19.4084C32.2885 19.3141 32.2929 19.2082 32.3557 19.1133C32.4111 19.0295 32.5068 18.9613 32.6271 18.9023C33.1205 18.6557 33.5165 18.7454 33.7692 18.9511C33.8913 19.0505 33.977 19.1748 34.0222 19.2934C34.0448 19.3527 34.0587 19.4145 34.0596 19.4739C34.0602 19.5203 34.0528 19.5724 34.0288 19.6205ZM33.5917 19.1692C33.4314 19.0388 33.1551 18.9527 32.7523 19.1541L32.7514 19.1546C32.6477 19.2054 32.6049 19.2463 32.5903 19.2685C32.5847 19.2768 32.5851 19.277 32.5861 19.2776C32.5864 19.2778 32.5868 19.278 32.587 19.2785C32.5945 19.2928 32.6194 19.3215 32.6789 19.3569C32.7355 19.3906 32.8109 19.423 32.8994 19.4514C33.0766 19.5082 33.2892 19.5435 33.4704 19.5465C33.561 19.5479 33.6387 19.5412 33.6977 19.5275C33.7367 19.5185 33.7601 19.5082 33.7731 19.5006C33.7744 19.4985 33.7757 19.4964 33.7771 19.4944C33.7776 19.4922 33.7785 19.487 33.7783 19.4779C33.7781 19.4583 33.7731 19.4294 33.7594 19.3935C33.7321 19.3218 33.6761 19.2379 33.5917 19.1692ZM27.4666 18.9977C27.4523 18.9141 27.3833 18.8646 27.3432 18.8429C27.2874 18.8127 27.2177 18.7947 27.1494 18.7841C27.0104 18.7626 26.8337 18.7653 26.6735 18.7983C26.5218 18.8295 26.3441 18.8964 26.2532 19.0376C26.204 19.1142 26.1856 19.205 26.2045 19.3029C26.2226 19.3965 26.2732 19.4898 26.3489 19.5828L26.3496 19.5836C26.4858 19.7487 26.6452 19.8241 26.8122 19.81C26.9693 19.7968 27.1021 19.7064 27.1998 19.6093C27.2992 19.5105 27.3775 19.39 27.4252 19.2855C27.4488 19.2336 27.4676 19.1799 27.4759 19.1305C27.48 19.106 27.4826 19.077 27.4789 19.047C27.4772 19.0333 27.4737 19.016 27.4666 18.9977ZM26.5668 19.405C26.5087 19.3334 26.4869 19.2821 26.4806 19.2496C26.4751 19.2211 26.4805 19.2041 26.4897 19.1898C26.5159 19.1492 26.5942 19.1018 26.7303 19.0737C26.858 19.0474 27.0009 19.0457 27.1064 19.0621C27.1477 19.0685 27.1771 19.0767 27.1956 19.084C27.1962 19.0858 27.1968 19.0875 27.1975 19.0893C27.1939 19.1067 27.1852 19.1339 27.1693 19.1688C27.1343 19.2455 27.0747 19.3371 27.0016 19.4097C26.9268 19.484 26.8526 19.5244 26.7885 19.5298C26.7345 19.5343 26.6589 19.5164 26.5668 19.405ZM27.2153 19.0938C27.2153 19.0938 27.2148 19.0935 27.214 19.0929C27.2149 19.0935 27.2153 19.0938 27.2153 19.0938ZM25.3838 19.3062C25.4883 19.2877 25.5849 19.2744 25.6406 19.2744C25.6491 19.2744 25.6575 19.2751 25.6658 19.2767C25.7574 19.2933 25.8264 19.3492 25.8756 19.4051C25.9252 19.4615 25.9651 19.5297 25.9971 19.5938C26.0295 19.6587 26.0572 19.7259 26.0801 19.7827C26.0831 19.7902 26.086 19.7975 26.0888 19.8045C26.1008 19.8342 26.1108 19.8591 26.1196 19.8797C26.1249 19.8852 26.1297 19.8911 26.1341 19.8974C26.1604 19.9353 26.1664 19.9837 26.1502 20.0269C26.1384 20.0584 26.1171 20.0821 26.1098 20.0901L26.1094 20.0906C26.0979 20.1033 26.0843 20.1166 26.0704 20.1294C26.0421 20.1554 26.0051 20.1864 25.9631 20.2195C25.8787 20.2862 25.7682 20.3667 25.6537 20.4429C25.5398 20.5186 25.4183 20.5925 25.3127 20.644C25.2603 20.6696 25.2073 20.6919 25.1586 20.7055C25.1209 20.716 25.0592 20.7295 24.9983 20.7114C24.9437 20.6987 24.9017 20.6633 24.8788 20.6423C24.8472 20.6134 24.8156 20.5768 24.7856 20.5382C24.7252 20.4603 24.6608 20.36 24.6033 20.2592C24.5457 20.1583 24.4925 20.0526 24.4555 19.9625C24.4371 19.9178 24.4213 19.8737 24.4113 19.8343C24.4063 19.8146 24.402 19.7932 24.4002 19.7717C24.3985 19.7521 24.3978 19.722 24.4076 19.6901C24.4099 19.6827 24.4127 19.6755 24.4162 19.6685C24.4442 19.6125 24.4963 19.5771 24.5305 19.5567C24.5705 19.5328 24.6187 19.5111 24.6689 19.4916C24.7699 19.4523 24.8957 19.4155 25.0208 19.3841C25.1466 19.3525 25.2754 19.3254 25.3838 19.3062ZM25.9028 19.8995C25.9029 19.8994 25.9023 19.9002 25.9009 19.9018C25.902 19.9003 25.9027 19.8995 25.9028 19.8995ZM25.8453 19.9527C25.8394 19.9382 25.8335 19.9235 25.8277 19.9089C25.8248 19.9018 25.822 19.8948 25.8192 19.8878C25.7965 19.8314 25.7725 19.7734 25.7456 19.7196C25.7183 19.665 25.6911 19.6212 25.6644 19.5908C25.6458 19.5697 25.6321 19.5604 25.6237 19.5563C25.5883 19.5587 25.5221 19.5673 25.433 19.5831C25.3308 19.6013 25.2085 19.6269 25.0893 19.6569C24.9694 19.687 24.8563 19.7205 24.7708 19.7537C24.7376 19.7666 24.711 19.7785 24.6909 19.7891C24.6968 19.8074 24.7049 19.8296 24.7156 19.8555C24.7469 19.9316 24.7942 20.0263 24.8476 20.1199C24.9011 20.2136 24.9581 20.3017 25.0078 20.3658C25.0329 20.3981 25.0535 20.421 25.0687 20.4348C25.0697 20.4358 25.0707 20.4366 25.0716 20.4374C25.0746 20.4368 25.0784 20.4359 25.083 20.4346C25.1084 20.4275 25.1441 20.4133 25.1893 20.3913C25.279 20.3475 25.3888 20.2813 25.4979 20.2087C25.6065 20.1365 25.7107 20.0605 25.7887 19.9989C25.8101 19.982 25.8291 19.9665 25.8453 19.9527ZM25.0616 20.4391C25.0616 20.4391 25.0618 20.439 25.062 20.439ZM25.081 20.4448C25.081 20.4448 25.0806 20.4446 25.0797 20.4439C25.0805 20.4444 25.081 20.4448 25.081 20.4448ZM24.6804 19.7474C24.6803 19.7464 24.6804 19.7466 24.6804 19.7477C24.6804 19.7476 24.6804 19.7475 24.6804 19.7474ZM36.4706 20.8488C36.4999 20.7709 36.4623 20.6994 36.4461 20.6722C36.4217 20.6315 36.3862 20.5926 36.3486 20.5579C36.272 20.487 36.1632 20.412 36.0409 20.3491C35.9184 20.286 35.7759 20.2318 35.6308 20.2077C35.4864 20.1836 35.3293 20.1879 35.1873 20.2545C35.1512 20.2715 35.124 20.3029 35.1125 20.3411C35.0866 20.4266 35.0986 20.5092 35.1383 20.5803C35.1754 20.6467 35.2332 20.6973 35.2921 20.7359C35.4093 20.8127 35.5678 20.8656 35.7166 20.901C35.8681 20.9369 36.0233 20.9579 36.1426 20.9647C36.2014 20.968 36.2566 20.9682 36.3002 20.9636C36.3206 20.9615 36.3477 20.9574 36.3735 20.9475C36.3861 20.9427 36.4077 20.9332 36.4282 20.9144C36.4438 20.9002 36.4612 20.8782 36.4706 20.8488ZM35.4165 20.4789C35.4246 20.4857 35.4345 20.493 35.4462 20.5007C35.5227 20.5508 35.6438 20.5946 35.7816 20.6273C35.8695 20.6482 35.9587 20.6633 36.0387 20.673C36.0008 20.6479 35.9582 20.6228 35.9122 20.5991C35.8084 20.5457 35.6939 20.5033 35.5846 20.4851C35.5235 20.4749 35.4671 20.4728 35.4165 20.4789ZM36.2072 20.8215C36.2071 20.8214 36.2063 20.8201 36.2053 20.8176C36.2069 20.8203 36.2074 20.8216 36.2072 20.8215ZM29.6325 22.0066C29.728 21.9596 29.7808 21.8629 29.8057 21.7812C29.8341 21.688 29.8388 21.5775 29.8103 21.4747C29.7813 21.3702 29.7149 21.2654 29.5959 21.2063C29.4781 21.1478 29.3326 21.1459 29.168 21.1965C29.0092 21.2445 28.8795 21.3389 28.869 21.4972C28.86 21.6321 28.9472 21.7473 29.0233 21.821C29.1059 21.901 29.2129 21.9688 29.3133 22.0082C29.3634 22.0279 29.4183 22.0431 29.472 22.0461C29.517 22.0486 29.5785 22.0433 29.6325 22.0066ZM29.4708 21.4582C29.4377 21.4418 29.3713 21.4282 29.2503 21.4654L29.2496 21.4657C29.1926 21.4828 29.1659 21.5008 29.1549 21.511C29.1519 21.5138 29.1503 21.5158 29.1496 21.5168C29.1501 21.5247 29.1596 21.5615 29.2189 21.6189C29.2747 21.6729 29.3501 21.7205 29.4161 21.7464C29.4484 21.7591 29.4723 21.7642 29.4865 21.7652C29.4935 21.7609 29.5008 21.7572 29.5084 21.7541C29.5079 21.7543 29.5076 21.7544 29.5076 21.7544C29.5073 21.7539 29.5234 21.7429 29.5367 21.6991C29.5506 21.6536 29.5525 21.5976 29.5393 21.5499C29.5265 21.5039 29.5029 21.4741 29.4708 21.4582ZM29.4947 21.7652C29.4947 21.7652 29.4943 21.7653 29.4934 21.7653C29.4942 21.7652 29.4947 21.7652 29.4947 21.7652ZM28.4039 22.0505C28.4036 22.05 28.4033 22.0496 28.4029 22.0492C28.3995 22.0446 28.3946 22.0381 28.3883 22.0301C28.3758 22.014 28.3579 21.9916 28.3355 21.9652C28.2909 21.9128 28.2272 21.843 28.1521 21.7763C28.0779 21.7104 27.987 21.6424 27.8876 21.5991C27.7881 21.5558 27.666 21.5314 27.5428 21.5771C27.5244 21.584 27.5076 21.5946 27.4935 21.6084C27.4355 21.6651 27.3883 21.7325 27.3757 21.8117C27.362 21.8978 27.393 21.9711 27.4394 22.025C27.4825 22.0751 27.5401 22.1106 27.5945 22.1366C27.6503 22.1634 27.7126 22.1846 27.774 22.2015C27.8968 22.2355 28.0287 22.2561 28.1265 22.2676C28.1759 22.2734 28.2179 22.2771 28.2474 22.2791C28.2619 22.2801 28.2748 22.2807 28.2846 22.2809C28.2879 22.281 28.2969 22.2811 28.3063 22.2803C28.3089 22.2801 28.3148 22.2795 28.322 22.2781C28.3255 22.2774 28.3319 22.276 28.3395 22.2735C28.3452 22.2716 28.3616 22.2659 28.3792 22.2528C28.3958 22.2405 28.4374 22.2026 28.436 22.1368C28.4351 22.0966 28.4182 22.0679 28.4039 22.0505ZM27.6671 21.8346C27.6631 21.8397 27.6603 21.8439 27.6582 21.8472C27.6678 21.8559 27.6857 21.8685 27.7158 21.8829C27.7519 21.9001 27.7973 21.9162 27.849 21.9305C27.8721 21.9369 27.8958 21.9428 27.9198 21.9482C27.8711 21.9093 27.8219 21.8773 27.7752 21.857C27.7299 21.8372 27.6948 21.8316 27.6671 21.8346ZM31.1627 22.4495C31.1664 22.5868 31.1479 22.7352 31.0874 22.836C31.0701 22.8648 31.0431 22.8864 31.0113 22.8971C30.9515 22.917 30.8835 22.912 30.8293 22.9033C30.7698 22.8937 30.7037 22.8755 30.6368 22.8512C30.5036 22.803 30.354 22.7262 30.2312 22.6288C30.113 22.5351 29.9956 22.4029 29.9745 22.239C29.9513 22.0586 30.0494 21.898 30.2366 21.7689L30.2369 21.7687C30.4209 21.6427 30.6014 21.6046 30.763 21.669C30.9165 21.7301 31.0132 21.8689 31.0711 22.0058C31.1302 22.1456 31.1589 22.3062 31.1627 22.4495ZM30.3961 22.0006C30.2582 22.0957 30.2487 22.1658 30.2535 22.2031C30.2604 22.257 30.3067 22.3298 30.406 22.4085C30.5008 22.4836 30.6225 22.5469 30.7326 22.5868C30.785 22.6058 30.8317 22.6183 30.8688 22.6248C30.8776 22.5832 30.8834 22.5265 30.8816 22.457C30.8785 22.3422 30.8551 22.2172 30.812 22.1153C30.7677 22.0104 30.7122 21.9515 30.6589 21.9302C30.6137 21.9122 30.5328 21.907 30.3961 22.0006ZM25.9565 23.1447C25.9448 23.2026 25.9104 23.2509 25.8775 23.2879C25.7527 23.4279 25.5765 23.5419 25.3894 23.634C25.2007 23.7269 24.9922 23.8018 24.7948 23.8599C24.5972 23.918 24.408 23.9601 24.2567 23.9866C24.1811 23.9999 24.114 24.0095 24.0593 24.0151C24.0083 24.0204 23.9577 24.0236 23.9208 24.0197L23.9355 23.8799L23.8882 24.0123C23.8494 23.9984 23.8169 23.9745 23.7932 23.9543C23.7678 23.9327 23.7432 23.9072 23.7204 23.8813C23.6747 23.8294 23.6288 23.7672 23.5889 23.7089C23.5486 23.6502 23.5125 23.5929 23.4863 23.5495C23.4733 23.5278 23.4624 23.5091 23.4545 23.495C23.4506 23.4881 23.447 23.4814 23.444 23.4756C23.4426 23.4729 23.4406 23.4688 23.4386 23.4643C23.4377 23.4622 23.4359 23.4581 23.434 23.4528C23.4331 23.4502 23.4315 23.4456 23.4301 23.4398C23.4291 23.4358 23.4258 23.4226 23.4258 23.4052C23.4297 23.3724 23.4505 23.3256 23.4619 23.3111C23.4691 23.3037 23.4819 23.2928 23.4871 23.2891C23.4964 23.2827 23.5045 23.2788 23.5069 23.2777C23.5132 23.2748 23.5185 23.2728 23.5202 23.2722C23.5248 23.2705 23.5293 23.2691 23.5324 23.2682C23.5392 23.2661 23.548 23.2635 23.5579 23.2607C23.5783 23.255 23.6072 23.2472 23.6433 23.2378C23.7155 23.2189 23.8177 23.1931 23.9387 23.1639C24.1805 23.1056 24.4993 23.0336 24.8053 22.9769C25.1078 22.9209 25.4097 22.8776 25.6121 22.8815C25.6636 22.8825 25.7135 22.8865 25.7579 22.8959C25.7991 22.9047 25.8523 22.9213 25.8948 22.9592C25.9472 23.0059 25.9708 23.0737 25.9565 23.1447ZM23.9751 23.7398C23.9895 23.7391 24.0079 23.7377 24.0302 23.7354C24.0769 23.7305 24.1374 23.722 24.2082 23.7096C24.3497 23.6848 24.5285 23.645 24.7154 23.59C24.9026 23.535 25.0951 23.4654 25.2651 23.3817C25.4014 23.3146 25.5178 23.241 25.6053 23.1627C25.4344 23.1596 25.1586 23.1976 24.8565 23.2535C24.5572 23.3089 24.2437 23.3797 24.0046 23.4373C23.9196 23.4578 23.8442 23.4766 23.7824 23.4923C23.7945 23.511 23.8074 23.5303 23.8208 23.5498C23.8577 23.6036 23.8964 23.6556 23.9315 23.6955C23.9489 23.7152 23.9635 23.7299 23.9751 23.7398ZM33.8967 24.9015C33.8967 24.9015 33.8971 24.9009 33.8983 24.8998C33.8973 24.901 33.8967 24.9016 33.8967 24.9015ZM34.0113 24.8341C34.0363 24.8223 34.0645 24.81 34.096 24.7973C34.2396 24.7392 34.4352 24.6793 34.6454 24.6386C34.8561 24.5979 35.0751 24.5777 35.2674 24.5947C35.4561 24.6114 35.6018 24.6623 35.6945 24.7464C35.7518 24.8281 35.7489 24.8664 35.7469 24.8752C35.7455 24.8815 35.7369 24.9058 35.6735 24.9349C35.5422 24.9951 35.2974 25.0186 35.0071 25.0061C34.7239 24.9938 34.4237 24.9487 34.1991 24.8915C34.1247 24.8726 34.0615 24.853 34.0113 24.8341ZM35.2921 24.3145C35.5166 24.3344 35.7401 24.3993 35.8984 24.5521C35.9042 24.5577 35.9095 24.5638 35.9143 24.5703C35.9989 24.686 36.0497 24.8119 36.0212 24.9375C35.992 25.066 35.8916 25.1442 35.7908 25.1905C35.5935 25.281 35.289 25.2998 34.9949 25.2871C34.6936 25.274 34.3742 25.2263 34.1297 25.1641C34.0084 25.1332 33.8989 25.0971 33.8178 25.0566C33.778 25.0367 33.7367 25.0118 33.7042 24.9799C33.6735 24.9497 33.6292 24.8911 33.6399 24.8105C33.6408 24.8041 33.6421 24.7977 33.6438 24.7914C33.6573 24.7427 33.6898 24.7094 33.7087 24.6921C33.7311 24.6715 33.7577 24.6529 33.7848 24.6363C33.8393 24.6029 33.9103 24.569 33.9905 24.5365C34.1518 24.4713 34.3649 24.4064 34.5919 24.3625C34.8184 24.3187 35.0653 24.2944 35.2921 24.3145ZM37.9121 25.3014C38.0215 25.463 38.0586 25.6652 37.9432 25.8589C37.8507 26.0157 37.6912 26.0996 37.5216 26.1303C37.3522 26.1611 37.1616 26.1419 36.9796 26.0836C36.6184 25.968 36.2514 25.6843 36.1393 25.251C36.1275 25.2057 36.1391 25.1575 36.1702 25.1225C36.5051 24.7451 37.0494 24.7699 37.4336 24.9337C37.6294 25.0172 37.8061 25.1448 37.9121 25.3014ZM36.4351 25.2554C36.6605 25.0616 37.0172 25.0619 37.3233 25.1924C37.4856 25.2617 37.6121 25.3599 37.6792 25.459C37.7427 25.553 37.7485 25.6363 37.7015 25.715L37.7011 25.7158C37.6617 25.7827 37.5862 25.8328 37.4714 25.8536C37.3563 25.8745 37.2129 25.863 37.0653 25.8157C36.7916 25.7281 36.5376 25.5303 36.4351 25.2554ZM26.4192 24.9514C26.4784 24.9629 26.5432 24.9856 26.6131 25.0176C27.1391 25.2579 27.3885 25.5222 27.4537 25.8329C27.4852 25.983 27.4702 26.1301 27.4398 26.2683C27.4161 26.3759 27.3809 26.4865 27.3474 26.5916C27.3406 26.613 27.3338 26.6342 27.3273 26.655C27.3262 26.6652 27.3239 26.6753 27.3206 26.6851C27.3007 26.7434 27.2531 26.8025 27.1717 26.8159C27.1073 26.8265 27.0507 26.8022 27.016 26.7833C26.9424 26.7433 26.8634 26.669 26.7892 26.5872C26.636 26.4183 26.4594 26.1677 26.3203 25.9223C26.2505 25.7993 26.1886 25.6747 26.1435 25.56C26.0996 25.4482 26.0668 25.3338 26.0655 25.2349C26.0649 25.1848 26.0721 25.1281 26.0994 25.076C26.1289 25.0197 26.1774 24.9777 26.2404 24.9571C26.2988 24.9379 26.3608 24.9401 26.4192 24.9514ZM27.0855 26.487C27.0606 26.4646 27.0311 26.4352 26.9975 26.3982C26.8612 26.2479 26.6962 26.0151 26.565 25.7837C26.4996 25.6683 26.4442 25.5561 26.4053 25.4571C26.3653 25.3552 26.3474 25.2788 26.3468 25.2313C26.3467 25.2289 26.3467 25.2267 26.3468 25.2247C26.3519 25.2252 26.3582 25.2261 26.3657 25.2275C26.396 25.2334 26.4387 25.2471 26.4962 25.2734C26.9898 25.4989 27.1403 25.7092 27.1784 25.8907C27.1986 25.9867 27.191 26.0901 27.1651 26.2079C27.1453 26.2979 27.1168 26.3885 27.0855 26.487ZM27.1581 26.5398C27.1581 26.5399 27.1575 26.5397 27.1563 26.5392C27.1574 26.5395 27.158 26.5398 27.1581 26.5398ZM29.6113 25.3252C29.586 25.3191 29.5591 25.32 29.5337 25.3285C29.4582 25.3536 29.4122 25.4142 29.3858 25.4633C29.3576 25.5155 29.3392 25.5772 29.328 25.6397C29.3057 25.765 29.3088 25.9179 29.3465 26.0621C29.3839 26.2056 29.4598 26.3553 29.596 26.4535C29.7369 26.5551 29.9211 26.5863 30.1398 26.5299C30.3539 26.4774 30.5062 26.367 30.552 26.1953C30.5951 26.0336 30.5277 25.8712 30.4364 25.7467C30.3422 25.6183 30.2043 25.5037 30.0532 25.4266C29.9196 25.3584 29.7644 25.314 29.6113 25.3252ZM29.6288 25.606C29.6203 25.6247 29.6114 25.6523 29.6049 25.6889C29.5896 25.7751 29.5914 25.887 29.6186 25.9911C29.646 26.0959 29.6948 26.178 29.7605 26.2254C29.8212 26.2691 29.9158 26.2974 30.0702 26.2574L30.0721 26.2569C30.2354 26.2171 30.2717 26.155 30.2802 26.1229C30.2915 26.0805 30.2787 26.0073 30.2096 25.9131C30.1434 25.8229 30.0407 25.7359 29.9254 25.6771C29.8203 25.6235 29.7163 25.5989 29.6288 25.606ZM29.6411 25.5848C29.6411 25.5849 29.6409 25.5851 29.6404 25.5856C29.6409 25.585 29.6411 25.5848 29.6411 25.5848ZM28.3734 25.4103C28.3817 25.4093 28.39 25.4089 28.3983 25.4093C28.4805 25.4132 28.5398 25.4682 28.5711 25.5025C28.6086 25.5433 28.6426 25.5953 28.6724 25.65C28.7323 25.7601 28.7858 25.9016 28.8176 26.0402C28.8483 26.1739 28.8642 26.3279 28.8265 26.4521C28.8067 26.5172 28.7689 26.5847 28.7002 26.6299C28.6305 26.6757 28.5487 26.6857 28.4669 26.6731C28.4521 26.6709 28.4377 26.6662 28.4243 26.6594C28.1477 26.5182 28.0662 26.21 28.0686 25.9713C28.0699 25.8481 28.0928 25.727 28.1339 25.6301C28.1544 25.5818 28.1817 25.5342 28.2177 25.4954C28.2535 25.4567 28.3054 25.4192 28.3734 25.4103ZM28.3954 25.7341C28.4047 25.7483 28.4148 25.7651 28.4253 25.7844C28.4722 25.8707 28.517 25.9879 28.5435 26.1031C28.571 26.2231 28.5733 26.318 28.5574 26.3704C28.5521 26.3877 28.547 26.3936 28.5456 26.3949C28.544 26.3956 28.5396 26.3969 28.531 26.3969C28.4087 26.321 28.348 26.1581 28.3498 25.9742C28.3508 25.8809 28.3685 25.7972 28.3928 25.74C28.3936 25.738 28.3945 25.736 28.3954 25.7341ZM28.3512 25.6806C28.3512 25.6806 28.3518 25.6809 28.353 25.6819C28.3518 25.6812 28.3512 25.6807 28.3512 25.6806Z" fill="white"/>
</g>
<defs>
<clipPath id="clip0_4_6161">
<rect width="60" height="45" fill="white"/>
</clipPath>
</defs>
</svg>
