<svg width="60" height="45" viewBox="0 0 60 45" fill="none" xmlns="http://www.w3.org/2000/svg">
<g clip-path="url(#clip0_4_2729)">
<path d="M0 0H60V45H0V0Z" fill="white"/>
<path d="M0 31.5H60V45H0V31.5Z" fill="#009543"/>
<path d="M0 0H60V13.5H0V0Z" fill="#00209F"/>
<path d="M29.9625 14.3437C29.7094 14.3437 29.4563 14.625 29.4563 14.625L29.4844 17.6625L28.5188 18.6656H29.2969V20.4L24.7031 26.5875L24.0281 26.3437L22.8375 28.875C22.8375 28.875 25.7719 30.7125 30.0281 30.6562C34.6969 30.6093 37.2375 28.7906 37.2375 28.7906L36.0188 26.2968L35.4094 26.5593L30.7594 20.4093V18.6187H31.5281L30.4781 17.625V14.6062C30.4781 14.6062 30.225 14.325 29.9625 14.3343V14.3437Z" fill="black"/>
<path fill-rule="evenodd" clip-rule="evenodd" d="M30.5338 14.5561C30.5339 14.5561 30.5339 14.5561 30.4781 14.6063L30.5338 14.5561L30.5531 14.5775V17.5927L31.7165 18.6938H30.8344V20.3842L35.4337 26.4672L36.0547 26.1997L37.3327 28.8147L37.2812 28.8516L37.2375 28.7906C37.2812 28.8516 37.2811 28.8516 37.2811 28.8517L37.2809 28.8518L37.2805 28.8521L37.2789 28.8532C37.2775 28.8542 37.2755 28.8556 37.2729 28.8574C37.2677 28.8611 37.26 28.8664 37.2498 28.8732C37.2295 28.887 37.1993 28.9069 37.1594 28.9322C37.0795 28.9828 36.9607 29.0549 36.8037 29.1413C36.4898 29.3141 36.0231 29.5444 35.4101 29.776C34.1841 30.2393 32.3731 30.7077 30.029 30.7313C27.89 30.7595 26.0834 30.3119 24.8115 29.8574C24.1754 29.63 23.6728 29.4008 23.3289 29.2283C23.1569 29.142 23.0245 29.0698 22.935 29.0191C22.8902 28.9938 22.8561 28.9738 22.8331 28.96C22.8216 28.9532 22.8128 28.9479 22.8069 28.9443L22.8002 28.9401L22.7984 28.939L22.7978 28.9386C22.7977 28.9386 22.7977 28.9386 22.8375 28.875L22.7978 28.9386L22.7413 28.9033L23.9893 26.25L24.6762 26.498L29.2219 20.3752V18.7406H28.3425L29.4091 17.6326L29.381 14.5965L29.4005 14.5748L29.4563 14.625C29.4005 14.5748 29.4005 14.5749 29.4005 14.5748L29.4007 14.5747L29.4009 14.5744L29.4016 14.5736L29.4042 14.5708C29.4064 14.5684 29.4096 14.5651 29.4136 14.5609C29.4217 14.5525 29.4333 14.5408 29.448 14.5268C29.4773 14.4988 29.5193 14.4616 29.5698 14.4241C29.6516 14.3635 29.7645 14.2961 29.8875 14.2752V14.262L29.9598 14.2594C30.1165 14.2538 30.2625 14.334 30.3626 14.4059C30.4139 14.4429 30.4563 14.48 30.4859 14.5079C30.5007 14.5218 30.5125 14.5336 30.5206 14.542C30.5247 14.5462 30.5279 14.5496 30.5301 14.552L30.5327 14.5548L30.5335 14.5557L30.5337 14.5559L30.5338 14.5561ZM29.5315 14.6549L29.5597 17.6925L28.6951 18.5906H29.3719V20.4248L24.7301 26.677L24.0669 26.4375L22.9342 28.8456C22.954 28.8572 22.979 28.8717 23.0089 28.8886C23.0964 28.9381 23.2265 29.0091 23.3961 29.0942C23.7354 29.2644 24.2324 29.4911 24.862 29.7161C26.1213 30.1662 27.9099 30.6092 30.0271 30.5813L30.0274 30.5813C32.352 30.5579 34.1456 30.0935 35.3571 29.6357C35.9629 29.4068 36.4231 29.1795 36.7314 29.0098C36.8856 28.925 37.0017 28.8546 37.0791 28.8055C37.1039 28.7898 37.1248 28.7762 37.1416 28.7651L35.9828 26.3941L35.385 26.6515L30.6844 20.4345V18.5438H31.3398L30.4031 17.6573V14.6365C30.3975 14.6309 30.3908 14.6244 30.383 14.6171C30.357 14.5925 30.3197 14.5599 30.2749 14.5277C30.2036 14.4764 30.1205 14.4313 30.0375 14.4153V14.4188H29.9625C29.8609 14.4188 29.7508 14.4767 29.6591 14.5447C29.6147 14.5775 29.5775 14.6106 29.5515 14.6354C29.5438 14.6427 29.5371 14.6493 29.5315 14.6549ZM30.029 30.7313C30.0289 30.7313 30.029 30.7313 30.029 30.7313L30.0281 30.6563L30.0291 30.7313C30.0291 30.7313 30.029 30.7313 30.029 30.7313Z" fill="black"/>
<path fill-rule="evenodd" clip-rule="evenodd" d="M29.9194 15.2906C29.3424 15.2991 28.8634 15.4807 28.5077 15.8249C28.1498 16.1713 27.8817 16.7164 27.7948 17.5148C27.7145 18.2812 27.9343 19.2493 28.1949 20.0589C28.323 20.457 28.4567 20.8041 28.5584 21.0515C28.5852 21.1167 28.6097 21.1748 28.6312 21.225H31.3246C31.3478 21.1723 31.3744 21.1107 31.4036 21.0413C31.5092 20.7896 31.6476 20.4368 31.7784 20.0326C32.0447 19.2092 32.2598 18.2306 32.1506 17.4621L32.1505 17.4616C32.0345 16.6362 31.7927 16.1056 31.4518 15.7796C31.1179 15.4605 30.635 15.2865 29.9194 15.2906ZM31.5656 21.6V21.975H28.1496L28.0482 21.7598L28.3875 21.6C28.0482 21.7598 28.0482 21.7597 28.0482 21.7596L28.0478 21.7589L28.047 21.7571L28.0441 21.751C28.0417 21.7457 28.0382 21.7382 28.0337 21.7284C28.0248 21.709 28.012 21.6807 27.9959 21.6444C27.9637 21.5719 27.9184 21.4672 27.8647 21.3366C27.7575 21.0757 27.6165 20.7098 27.4809 20.2887C27.2142 19.4602 26.9513 18.3662 27.0489 17.4358L27.049 17.4351L27.0491 17.4345C27.1497 16.5082 27.4722 15.7833 27.9861 15.286C28.5019 14.7868 29.1755 14.5511 29.9103 14.5406L29.9118 14.5406L29.9134 14.5406C30.7532 14.5356 31.4511 14.7413 31.9701 15.2375C32.4822 15.7271 32.7654 16.448 32.8932 17.3569C33.0277 18.304 32.7646 19.4205 32.492 20.2635C32.3532 20.6925 32.2068 21.0656 32.0951 21.3316C32.0391 21.4648 31.9917 21.5716 31.958 21.6457C31.9411 21.6827 31.9277 21.7116 31.9183 21.7315C31.9166 21.7353 31.9149 21.7387 31.9134 21.7418C31.911 21.747 31.909 21.7512 31.9074 21.7545L31.9044 21.7608L31.9035 21.7627L31.9031 21.7634C31.9031 21.7635 31.9031 21.7636 31.5656 21.6Z" fill="black"/>
<path d="M24.4219 27.3844C24.3656 27.45 23.9812 28.2187 23.9812 28.2187L24.6375 28.0781L24.4219 27.3844ZM24.7969 28.3687L24.1031 28.5937L24.9375 28.9219L24.7969 28.3687ZM25.1062 27.4031L25.4531 28.425L26.2969 28.1812L26.0812 27.6937L25.1062 27.4031V27.4031ZM25.65 28.7906L25.7625 29.2031L26.8875 29.4844L26.4375 28.5281L25.65 28.7906ZM26.8875 27.9187L27.2906 28.875L28.1344 28.5469L27.8531 28.125L26.8875 27.9187ZM27.45 29.2219L27.5812 29.5781L28.8937 29.7656L28.3406 28.9031L27.4406 29.2219H27.45ZM28.7062 28.1906L29.1937 29.0437L30.4125 28.5937L30.2812 28.2656L28.7062 28.2V28.1906ZM29.4187 29.3531L29.6719 29.8031L31.1906 29.7562L30.6281 28.9125L29.4094 29.3531H29.4187ZM31.0219 28.2281L31.4344 28.9406L32.4094 28.4719L32.1469 28.0969L31.0219 28.2281V28.2281ZM32.6156 28.7719L31.65 29.25L31.9031 29.6719L33.1969 29.4656L32.6156 28.7719V28.7719ZM32.925 28.0219L33.4219 28.65L34.2375 28.0031L33.9562 27.7219L32.925 28.0219ZM34.4156 28.35L33.6375 28.9406L33.8437 29.3062L34.9125 29.025L34.4156 28.35V28.35ZM35.4844 27.1312L35.6719 27.4031L35.1375 28.2L34.5844 27.4875L35.4844 27.1312V27.1312ZM35.85 27.8156L36.1781 28.4719L35.5219 28.6969L35.4656 28.3875L35.8406 27.825L35.85 27.8156Z" fill="white"/>
</g>
<defs>
<clipPath id="clip0_4_2729">
<rect width="60" height="45" fill="white"/>
</clipPath>
</defs>
</svg>
