<svg width="60" height="45" viewBox="0 0 60 45" fill="none" xmlns="http://www.w3.org/2000/svg">
<g clip-path="url(#clip0_4_3697)">
<path d="M0 0H60V22.5H0V0Z" fill="#002B7F"/>
<path d="M0 22.5H60V45H0V22.5Z" fill="#CE1126"/>
<path d="M16.23 9.17254L16.0875 13.86H11.3325C10.7475 12.72 10.2675 11.76 10.2675 10.4475C10.2675 9.35254 11.13 8.48254 12.3675 8.48254C13.68 8.48254 15.1275 8.92504 16.23 9.17254V9.17254Z" fill="#FFD83D"/>
<path d="M10.8375 9.39V12.09ZM11.2125 9.1125V12.7125ZM11.6025 8.925V13.215ZM11.9775 8.83501V12.2025ZM12.36 8.82V12.2175ZM12.7425 8.6925V12.2175ZM13.125 8.6925V12.2175ZM13.5075 8.73V12.255ZM13.89 8.7675V12.285ZM14.2725 8.98501V12.51ZM14.6475 9.02251V12.99ZM15.0375 9.02251V12.5475ZM15.4125 9.02251V12.5475Z" fill="#FFD83D"/>
<path fill-rule="evenodd" clip-rule="evenodd" d="M12.7425 8.63623C12.7736 8.63623 12.7988 8.66141 12.7988 8.69248V12.2175C12.7988 12.2485 12.7736 12.2737 12.7425 12.2737C12.7115 12.2737 12.6863 12.2485 12.6863 12.2175V8.69248C12.6863 8.66141 12.7115 8.63623 12.7425 8.63623ZM13.125 8.63623C13.1561 8.63623 13.1813 8.66141 13.1813 8.69248V12.2175C13.1813 12.2485 13.1561 12.2737 13.125 12.2737C13.094 12.2737 13.0688 12.2485 13.0688 12.2175V8.69248C13.0688 8.66141 13.094 8.63623 13.125 8.63623ZM13.5075 8.67373C13.5386 8.67373 13.5638 8.69891 13.5638 8.72998V12.255C13.5638 12.286 13.5386 12.3112 13.5075 12.3112C13.4765 12.3112 13.4513 12.286 13.4513 12.255V8.72998C13.4513 8.69891 13.4765 8.67373 13.5075 8.67373ZM13.89 8.71123C13.9211 8.71123 13.9463 8.73641 13.9463 8.76748V12.285C13.9463 12.316 13.9211 12.3412 13.89 12.3412C13.859 12.3412 13.8338 12.316 13.8338 12.285V8.76748C13.8338 8.73641 13.859 8.71123 13.89 8.71123ZM12.36 8.76373C12.3911 8.76373 12.4163 8.78891 12.4163 8.81998V12.2175C12.4163 12.2485 12.3911 12.2737 12.36 12.2737C12.329 12.2737 12.3038 12.2485 12.3038 12.2175V8.81998C12.3038 8.78891 12.329 8.76373 12.36 8.76373ZM11.9775 8.77873C12.0086 8.77873 12.0338 8.80391 12.0338 8.83498V12.2025C12.0338 12.2335 12.0086 12.2587 11.9775 12.2587C11.9465 12.2587 11.9213 12.2335 11.9213 12.2025V8.83498C11.9213 8.80391 11.9465 8.77873 11.9775 8.77873ZM11.6025 8.86873C11.6336 8.86873 11.6588 8.89391 11.6588 8.92498V13.215C11.6588 13.246 11.6336 13.2712 11.6025 13.2712C11.5715 13.2712 11.5463 13.246 11.5463 13.215V8.92498C11.5463 8.89391 11.5715 8.86873 11.6025 8.86873ZM14.2725 8.92873C14.3036 8.92873 14.3288 8.95391 14.3288 8.98498V12.51C14.3288 12.541 14.3036 12.5662 14.2725 12.5662C14.2415 12.5662 14.2163 12.541 14.2163 12.51V8.98498C14.2163 8.95391 14.2415 8.92873 14.2725 8.92873ZM14.6475 8.96623C14.6786 8.96623 14.7038 8.99141 14.7038 9.02248V12.99C14.7038 13.021 14.6786 13.0462 14.6475 13.0462C14.6165 13.0462 14.5913 13.021 14.5913 12.99V9.02248C14.5913 8.99141 14.6165 8.96623 14.6475 8.96623ZM15.0375 8.96623C15.0686 8.96623 15.0938 8.99141 15.0938 9.02248V12.5475C15.0938 12.5785 15.0686 12.6037 15.0375 12.6037C15.0065 12.6037 14.9813 12.5785 14.9813 12.5475V9.02248C14.9813 8.99141 15.0065 8.96623 15.0375 8.96623ZM15.4125 8.96623C15.4436 8.96623 15.4688 8.99141 15.4688 9.02248V12.5475C15.4688 12.5785 15.4436 12.6037 15.4125 12.6037C15.3815 12.6037 15.3563 12.5785 15.3563 12.5475V9.02248C15.3563 8.99141 15.3815 8.96623 15.4125 8.96623ZM11.2125 9.05623C11.2436 9.05623 11.2688 9.08141 11.2688 9.11248V12.7125C11.2688 12.7435 11.2436 12.7687 11.2125 12.7687C11.1815 12.7687 11.1563 12.7435 11.1563 12.7125V9.11248C11.1563 9.08141 11.1815 9.05623 11.2125 9.05623ZM10.8375 9.33373C10.8686 9.33373 10.8938 9.35891 10.8938 9.38998V12.09C10.8938 12.121 10.8686 12.1462 10.8375 12.1462C10.8065 12.1462 10.7813 12.121 10.7813 12.09V9.38998C10.7813 9.35891 10.8065 9.33373 10.8375 9.33373Z" fill="black"/>
<path d="M13.23 8.84998C14.04 8.97748 15.81 9.80998 15.6075 10.9275C15.3225 12.5175 14.3925 11.88 13.1625 11.655L12.2325 11.9625C11.895 12.3 11.4075 12.615 11.0775 12.2025H10.5225V14.3625H16.6275V9.14998L13.23 8.84998Z" fill="black"/>
<path fill-rule="evenodd" clip-rule="evenodd" d="M13.1742 8.8431C13.1779 8.81301 13.2048 8.79126 13.235 8.79392L16.6325 9.09392C16.6615 9.09649 16.6838 9.12081 16.6838 9.14995V14.3625C16.6838 14.3935 16.6586 14.4187 16.6275 14.4187H10.5225C10.4915 14.4187 10.4663 14.3935 10.4663 14.3625V12.2025C10.4663 12.1714 10.4915 12.1462 10.5225 12.1462H11.0775C11.0946 12.1462 11.1108 12.154 11.1215 12.1673C11.1972 12.262 11.2791 12.3118 11.3628 12.3317C11.4472 12.3518 11.5386 12.3427 11.6342 12.3104C11.8271 12.2452 12.026 12.0895 12.1928 11.9227C12.199 11.9165 12.2065 11.9118 12.2149 11.909L13.1449 11.6015C13.1538 11.5986 13.1634 11.5979 13.1726 11.5996C13.4114 11.6433 13.6395 11.7025 13.8517 11.7576C13.915 11.774 13.9768 11.7901 14.0371 11.8052C14.302 11.8719 14.5356 11.921 14.7379 11.9156C14.9374 11.9103 15.1029 11.8521 15.2367 11.7056C15.3728 11.5567 15.4817 11.3105 15.5522 10.9175L15.5522 10.9174C15.6471 10.3934 15.281 9.92474 14.7662 9.5635C14.2544 9.20445 13.6174 8.96788 13.2213 8.90552C13.1913 8.90081 13.1705 8.8732 13.1742 8.8431ZM13.8424 8.9605C14.1661 9.07991 14.5207 9.25387 14.8308 9.47141C15.3528 9.83766 15.7704 10.344 15.6629 10.9374C15.5908 11.3394 15.4766 11.6098 15.3198 11.7815C15.1606 11.9556 14.9633 12.0221 14.7409 12.0281C14.5213 12.0339 14.274 11.9808 14.0097 11.9143C13.9478 11.8988 13.8848 11.8824 13.8209 11.8658C13.6136 11.812 13.3956 11.7555 13.1665 11.7129L12.2628 12.0117C12.0937 12.1792 11.8839 12.3448 11.6702 12.417C11.5605 12.4541 11.4471 12.4674 11.3367 12.4412C11.2328 12.4164 11.1362 12.3575 11.0511 12.2587H10.5788V14.3062H16.5713V9.20146L13.8424 8.9605Z" fill="black"/>
<path d="M15.96 8.84254C16.163 8.84254 16.3275 8.67801 16.3275 8.47504C16.3275 8.27208 16.163 8.10754 15.96 8.10754C15.7571 8.10754 15.5925 8.27208 15.5925 8.47504C15.5925 8.67801 15.7571 8.84254 15.96 8.84254Z" fill="#FFD83D"/>
<path fill-rule="evenodd" clip-rule="evenodd" d="M15.96 8.18247C15.7985 8.18247 15.6675 8.31343 15.6675 8.47497C15.6675 8.63651 15.7985 8.76747 15.96 8.76747C16.1216 8.76747 16.2525 8.63651 16.2525 8.47497C16.2525 8.31343 16.1216 8.18247 15.96 8.18247ZM15.5175 8.47497C15.5175 8.23058 15.7156 8.03247 15.96 8.03247C16.2044 8.03247 16.4025 8.23058 16.4025 8.47497C16.4025 8.71936 16.2044 8.91747 15.96 8.91747C15.7156 8.91747 15.5175 8.71936 15.5175 8.47497Z" fill="black"/>
<path d="M15.1275 8.64003C15.3305 8.64003 15.495 8.47549 15.495 8.27253C15.495 8.06956 15.3305 7.90503 15.1275 7.90503C14.9245 7.90503 14.76 8.06956 14.76 8.27253C14.76 8.47549 14.9245 8.64003 15.1275 8.64003Z" fill="#FFD83D"/>
<path fill-rule="evenodd" clip-rule="evenodd" d="M15.1275 7.98008C14.966 7.98008 14.835 8.11103 14.835 8.27258C14.835 8.43412 14.966 8.56508 15.1275 8.56508C15.2891 8.56508 15.42 8.43412 15.42 8.27258C15.42 8.11104 15.2891 7.98008 15.1275 7.98008ZM14.685 8.27258C14.685 8.02819 14.8831 7.83008 15.1275 7.83008C15.3719 7.83008 15.57 8.02819 15.57 8.27258C15.57 8.51696 15.3719 8.71508 15.1275 8.71508C14.8831 8.71508 14.685 8.51696 14.685 8.27258Z" fill="black"/>
<path d="M14.28 8.43007C14.483 8.43007 14.6475 8.26553 14.6475 8.06257C14.6475 7.8596 14.483 7.69507 14.28 7.69507C14.0771 7.69507 13.9125 7.8596 13.9125 8.06257C13.9125 8.26553 14.0771 8.43007 14.28 8.43007Z" fill="#FFD83D"/>
<path fill-rule="evenodd" clip-rule="evenodd" d="M14.28 7.77C14.1185 7.77 13.9875 7.90095 13.9875 8.0625C13.9875 8.22404 14.1185 8.355 14.28 8.355C14.4416 8.355 14.5725 8.22404 14.5725 8.0625C14.5725 7.90095 14.4416 7.77 14.28 7.77ZM13.8375 8.0625C13.8375 7.81811 14.0356 7.62 14.28 7.62C14.5244 7.62 14.7225 7.81811 14.7225 8.0625C14.7225 8.30688 14.5244 8.505 14.28 8.505C14.0356 8.505 13.8375 8.30688 13.8375 8.0625Z" fill="black"/>
<path d="M13.4325 8.28749C13.6355 8.28749 13.8 8.12296 13.8 7.91999C13.8 7.71703 13.6355 7.55249 13.4325 7.55249C13.2296 7.55249 13.065 7.71703 13.065 7.91999C13.065 8.12296 13.2296 8.28749 13.4325 8.28749Z" fill="#FFD83D"/>
<path fill-rule="evenodd" clip-rule="evenodd" d="M13.4325 7.62754C13.271 7.62754 13.14 7.7585 13.14 7.92004C13.14 8.08158 13.271 8.21254 13.4325 8.21254C13.5941 8.21254 13.725 8.08158 13.725 7.92004C13.725 7.7585 13.5941 7.62754 13.4325 7.62754ZM12.99 7.92004C12.99 7.67565 13.1881 7.47754 13.4325 7.47754C13.6769 7.47754 13.875 7.67565 13.875 7.92004C13.875 8.16443 13.6769 8.36254 13.4325 8.36254C13.1881 8.36254 12.99 8.16443 12.99 7.92004Z" fill="black"/>
<path d="M12.585 8.20497C12.788 8.20497 12.9525 8.04044 12.9525 7.83747C12.9525 7.63451 12.788 7.46997 12.585 7.46997C12.3821 7.46997 12.2175 7.63451 12.2175 7.83747C12.2175 8.04044 12.3821 8.20497 12.585 8.20497Z" fill="#FFD83D"/>
<path fill-rule="evenodd" clip-rule="evenodd" d="M12.585 7.54502C12.4235 7.54502 12.2925 7.67598 12.2925 7.83752C12.2925 7.99906 12.4235 8.13002 12.585 8.13002C12.7466 8.13002 12.8775 7.99906 12.8775 7.83752C12.8775 7.67598 12.7466 7.54502 12.585 7.54502ZM12.1425 7.83752C12.1425 7.59313 12.3406 7.39502 12.585 7.39502C12.8294 7.39502 13.0275 7.59313 13.0275 7.83752C13.0275 8.08191 12.8294 8.28002 12.585 8.28002C12.3406 8.28002 12.1425 8.08191 12.1425 7.83752Z" fill="black"/>
<path d="M11.76 8.25001C11.963 8.25001 12.1275 8.08548 12.1275 7.88251C12.1275 7.67955 11.963 7.51501 11.76 7.51501C11.5571 7.51501 11.3925 7.67955 11.3925 7.88251C11.3925 8.08548 11.5571 8.25001 11.76 8.25001Z" fill="#FFD83D"/>
<path fill-rule="evenodd" clip-rule="evenodd" d="M11.76 7.59006C11.5985 7.59006 11.4675 7.72102 11.4675 7.88256C11.4675 8.04411 11.5985 8.17506 11.76 8.17506C11.9216 8.17506 12.0525 8.04411 12.0525 7.88256C12.0525 7.72102 11.9216 7.59006 11.76 7.59006ZM11.3175 7.88256C11.3175 7.63818 11.5157 7.44006 11.76 7.44006C12.0044 7.44006 12.2025 7.63818 12.2025 7.88256C12.2025 8.12695 12.0044 8.32506 11.76 8.32506C11.5157 8.32506 11.3175 8.12695 11.3175 7.88256Z" fill="black"/>
<path d="M10.965 8.52003C11.168 8.52003 11.3325 8.3555 11.3325 8.15253C11.3325 7.94957 11.168 7.78503 10.965 7.78503C10.7621 7.78503 10.5975 7.94957 10.5975 8.15253C10.5975 8.3555 10.7621 8.52003 10.965 8.52003Z" fill="#FFD83D"/>
<path fill-rule="evenodd" clip-rule="evenodd" d="M10.965 7.85996C10.8035 7.85996 10.6725 7.99092 10.6725 8.15246C10.6725 8.314 10.8035 8.44496 10.965 8.44496C11.1266 8.44496 11.2575 8.314 11.2575 8.15246C11.2575 7.99092 11.1266 7.85996 10.965 7.85996ZM10.5225 8.15246C10.5225 7.90807 10.7206 7.70996 10.965 7.70996C11.2094 7.70996 11.4075 7.90807 11.4075 8.15246C11.4075 8.39685 11.2094 8.59496 10.965 8.59496C10.7206 8.59496 10.5225 8.39685 10.5225 8.15246Z" fill="black"/>
<path d="M10.2975 9.01503C10.5005 9.01503 10.665 8.85049 10.665 8.64753C10.665 8.44456 10.5005 8.28003 10.2975 8.28003C10.0946 8.28003 9.93002 8.44456 9.93002 8.64753C9.93002 8.85049 10.0946 9.01503 10.2975 9.01503Z" fill="#FFD83D"/>
<path fill-rule="evenodd" clip-rule="evenodd" d="M10.2975 8.35508C10.136 8.35508 10.005 8.48604 10.005 8.64758C10.005 8.80912 10.136 8.94008 10.2975 8.94008C10.4591 8.94008 10.59 8.80912 10.59 8.64758C10.59 8.48603 10.4591 8.35508 10.2975 8.35508ZM9.85501 8.64758C9.85501 8.40319 10.0531 8.20508 10.2975 8.20508C10.5419 8.20508 10.74 8.40319 10.74 8.64758C10.74 8.89196 10.5419 9.09008 10.2975 9.09008C10.0531 9.09008 9.85501 8.89196 9.85501 8.64758Z" fill="black"/>
<path d="M9.82502 9.69752C10.028 9.69752 10.1925 9.53299 10.1925 9.33002C10.1925 9.12706 10.028 8.96252 9.82502 8.96252C9.62205 8.96252 9.45752 9.12706 9.45752 9.33002C9.45752 9.53299 9.62205 9.69752 9.82502 9.69752Z" fill="#FFD83D"/>
<path fill-rule="evenodd" clip-rule="evenodd" d="M9.82504 9.03757C9.66349 9.03757 9.53254 9.16853 9.53254 9.33007C9.53254 9.49162 9.66349 9.62257 9.82504 9.62257C9.98658 9.62257 10.1175 9.49162 10.1175 9.33007C10.1175 9.16853 9.98658 9.03757 9.82504 9.03757ZM9.38254 9.33007C9.38254 9.08569 9.58065 8.88757 9.82504 8.88757C10.0694 8.88757 10.2675 9.08569 10.2675 9.33007C10.2675 9.57446 10.0694 9.77257 9.82504 9.77257C9.58065 9.77257 9.38254 9.57446 9.38254 9.33007Z" fill="black"/>
<path d="M9.59254 10.5075C9.7955 10.5075 9.96004 10.3429 9.96004 10.14C9.96004 9.937 9.7955 9.77246 9.59254 9.77246C9.38957 9.77246 9.22504 9.937 9.22504 10.14C9.22504 10.3429 9.38957 10.5075 9.59254 10.5075Z" fill="#FFD83D"/>
<path fill-rule="evenodd" clip-rule="evenodd" d="M9.59252 9.84751C9.43098 9.84751 9.30002 9.97847 9.30002 10.14C9.30002 10.3016 9.43098 10.4325 9.59252 10.4325C9.75407 10.4325 9.88502 10.3016 9.88502 10.14C9.88502 9.97847 9.75407 9.84751 9.59252 9.84751ZM9.15002 10.14C9.15002 9.89562 9.34814 9.69751 9.59252 9.69751C9.83691 9.69751 10.035 9.89562 10.035 10.14C10.035 10.3844 9.83691 10.5825 9.59252 10.5825C9.34814 10.5825 9.15002 10.3844 9.15002 10.14Z" fill="black"/>
<path d="M9.60001 11.34C9.80298 11.34 9.96751 11.1754 9.96751 10.9725C9.96751 10.7695 9.80298 10.605 9.60001 10.605C9.39705 10.605 9.23251 10.7695 9.23251 10.9725C9.23251 11.1754 9.39705 11.34 9.60001 11.34Z" fill="#FFD83D"/>
<path fill-rule="evenodd" clip-rule="evenodd" d="M9.60003 10.68C9.43849 10.68 9.30753 10.811 9.30753 10.9725C9.30753 11.1341 9.43849 11.265 9.60003 11.265C9.76158 11.265 9.89253 11.1341 9.89253 10.9725C9.89253 10.811 9.76157 10.68 9.60003 10.68ZM9.15753 10.9725C9.15753 10.7281 9.35565 10.53 9.60003 10.53C9.84442 10.53 10.0425 10.7281 10.0425 10.9725C10.0425 11.2169 9.84442 11.415 9.60003 11.415C9.35565 11.415 9.15753 11.2169 9.15753 10.9725Z" fill="black"/>
<path d="M9.76502 12.1575C9.96799 12.1575 10.1325 11.9929 10.1325 11.79C10.1325 11.587 9.96799 11.4225 9.76502 11.4225C9.56206 11.4225 9.39752 11.587 9.39752 11.79C9.39752 11.9929 9.56206 12.1575 9.76502 12.1575Z" fill="#FFD83D"/>
<path fill-rule="evenodd" clip-rule="evenodd" d="M9.76501 11.4975C9.60347 11.4975 9.47251 11.6285 9.47251 11.79C9.47251 11.9516 9.60347 12.0825 9.76501 12.0825C9.92655 12.0825 10.0575 11.9516 10.0575 11.79C10.0575 11.6285 9.92655 11.4975 9.76501 11.4975ZM9.32251 11.79C9.32251 11.5456 9.52062 11.3475 9.76501 11.3475C10.0094 11.3475 10.2075 11.5456 10.2075 11.79C10.2075 12.0344 10.0094 12.2325 9.76501 12.2325C9.52062 12.2325 9.32251 12.0344 9.32251 11.79Z" fill="black"/>
<path d="M16.125 8.96246L16.0875 9.44996C15.165 9.29996 13.86 8.78996 12.6375 8.78996C11.5125 8.78996 10.6425 9.23996 10.6425 10.38C10.6425 11.4975 11.115 12.5175 11.745 13.5525L11.0925 13.8525C10.5075 12.7275 10.02 11.7525 10.02 10.4475C10.02 9.35246 10.8825 8.27246 12.3675 8.27246C13.68 8.27246 15.0225 8.72246 16.125 8.96246V8.96246Z" fill="#FFD83D"/>
<path fill-rule="evenodd" clip-rule="evenodd" d="M12.3675 8.34751C10.9249 8.34751 10.095 9.39294 10.095 10.4475C10.095 11.708 10.5559 12.656 11.1261 13.7545L11.6374 13.5195C11.0271 12.5056 10.5675 11.4925 10.5675 10.38C10.5675 9.78813 10.7949 9.36681 11.1747 9.09641C11.5504 8.82886 12.0669 8.71501 12.6375 8.71501C13.2582 8.71501 13.8973 8.84437 14.493 8.99093C14.6769 9.0362 14.8562 9.08294 15.0295 9.12812C15.3884 9.22169 15.7218 9.30861 16.0191 9.36217L16.0453 9.02173C15.7874 8.96424 15.5172 8.89625 15.2391 8.82617L15.2301 8.82391C14.9313 8.74863 14.6231 8.67099 14.3087 8.6007C13.6733 8.45867 13.0157 8.34751 12.3675 8.34751ZM16.125 8.96251L16.141 8.88923C15.8668 8.82953 15.5773 8.75672 15.2757 8.68072L15.2659 8.67824C14.9677 8.60311 14.6578 8.52505 14.3414 8.45432C13.7018 8.31134 13.0318 8.19751 12.3675 8.19751C10.8401 8.19751 9.94504 9.31208 9.94504 10.4475C9.94504 11.7729 10.4413 12.7627 11.026 13.8871C11.0445 13.9226 11.0875 13.9374 11.1239 13.9207L11.7764 13.6207C11.7958 13.6117 11.8105 13.5949 11.8168 13.5744C11.823 13.554 11.8202 13.5318 11.8091 13.5135C11.1809 12.4815 10.7175 11.4762 10.7175 10.38C10.7175 9.83189 10.9252 9.45821 11.2617 9.2186C11.6022 8.97616 12.0832 8.86501 12.6375 8.86501C13.2394 8.86501 13.864 8.99064 14.4571 9.13659C14.6355 9.18047 14.8115 9.22636 14.9833 9.27113C15.3787 9.37421 15.7512 9.47131 16.0755 9.52404C16.0962 9.52741 16.1174 9.52194 16.1339 9.50896C16.1504 9.49599 16.1607 9.47669 16.1623 9.45576L16.1998 8.96826L16.125 8.96251Z" fill="black"/>
<path d="M16.65 3.98248L16.26 4.70998L16.65 5.42998L17.0325 4.70998L16.65 3.97498V3.98248ZM16.65 5.81248L16.26 6.53248L16.65 7.25998L17.025 6.52498L16.6425 5.80498L16.65 5.81248ZM15.27 5.62498L15.8775 6.00748L16.485 5.62498L15.885 5.23498L15.27 5.62498ZM16.8075 5.62498L17.415 6.00748L18.03 5.62498L17.415 5.23498L16.815 5.62498H16.8075Z" fill="#FFD83D"/>
<path fill-rule="evenodd" clip-rule="evenodd" d="M16.6322 3.90218C16.6658 3.89397 16.7006 3.90975 16.7165 3.94041L17.099 4.67541C17.1104 4.69731 17.1103 4.72342 17.0987 4.74522L16.7162 5.46522C16.7033 5.48962 16.6779 5.50492 16.6503 5.50503C16.6227 5.50514 16.5972 5.49005 16.5841 5.46575L16.1941 4.74575C16.182 4.72357 16.182 4.69683 16.1939 4.6746L16.5763 3.96137C16.5815 3.93277 16.6031 3.90929 16.6322 3.90218ZM16.651 4.13941L16.3452 4.70985L16.6494 5.27138L16.9478 4.70967L16.651 4.13941ZM15.8448 5.17169C15.8696 5.15598 15.9013 5.15616 15.9259 5.17215L16.5259 5.56215C16.5473 5.57609 16.5602 5.6 16.56 5.62557C16.5598 5.65115 16.5466 5.67487 16.525 5.6885L15.9175 6.071C15.893 6.08638 15.862 6.08638 15.8375 6.071L15.23 5.6885C15.2083 5.67479 15.195 5.65088 15.195 5.62515C15.195 5.59943 15.2081 5.57547 15.2298 5.56169L15.8448 5.17169ZM17.3741 5.17215C17.3987 5.15616 17.4304 5.15598 17.4552 5.17169L18.0702 5.56169C18.092 5.57551 18.1051 5.59956 18.105 5.62536C18.1049 5.65116 18.0915 5.67509 18.0696 5.68872L17.4546 6.07122C17.4302 6.08638 17.3993 6.0863 17.375 6.071L16.7675 5.6885C16.7393 5.6707 16.7262 5.63634 16.7354 5.60424C16.743 5.57812 16.7638 5.55862 16.7894 5.55226L17.3741 5.17215ZM16.9505 5.62642L17.4153 5.91906L17.889 5.62441L17.4155 5.32416L16.9505 5.62642ZM15.4104 5.6248L15.8775 5.9189L16.3458 5.62403L15.8845 5.32416L15.4104 5.6248ZM16.5979 5.74474C16.6278 5.72265 16.6693 5.72574 16.6955 5.752L16.703 5.7595C16.7137 5.77021 16.7207 5.78355 16.7235 5.79766L17.0912 6.48984C17.1027 6.51146 17.1029 6.53732 17.0918 6.55912L16.7168 7.29412C16.7041 7.31898 16.6787 7.33474 16.6508 7.33503C16.6229 7.33531 16.5971 7.32007 16.5839 7.29547L16.1939 6.56797C16.182 6.54573 16.182 6.51899 16.1941 6.49681L16.5675 5.80732C16.5668 5.78341 16.5776 5.75978 16.5979 5.74474ZM16.6476 5.97446L16.3452 6.53272L16.6484 7.09823L16.9405 6.52573L16.6476 5.97446Z" fill="black"/>
<path d="M16.65 5.92509C16.8116 5.92509 16.9425 5.79413 16.9425 5.63259C16.9425 5.47104 16.8116 5.34009 16.65 5.34009C16.4885 5.34009 16.3575 5.47104 16.3575 5.63259C16.3575 5.79413 16.4885 5.92509 16.65 5.92509Z" fill="#FFD83D"/>
<path fill-rule="evenodd" clip-rule="evenodd" d="M16.65 5.41501C16.5299 5.41501 16.4325 5.51239 16.4325 5.63251C16.4325 5.75264 16.5299 5.85001 16.65 5.85001C16.7701 5.85001 16.8675 5.75264 16.8675 5.63251C16.8675 5.51239 16.7701 5.41501 16.65 5.41501ZM16.2825 5.63251C16.2825 5.42955 16.447 5.26501 16.65 5.26501C16.853 5.26501 17.0175 5.42955 17.0175 5.63251C17.0175 5.83548 16.853 6.00001 16.65 6.00001C16.447 6.00001 16.2825 5.83548 16.2825 5.63251Z" fill="black"/>
<path d="M16.65 8.28752C17.0849 8.28752 17.4375 7.93495 17.4375 7.50002C17.4375 7.0651 17.0849 6.71252 16.65 6.71252C16.2151 6.71252 15.8625 7.0651 15.8625 7.50002C15.8625 7.93495 16.2151 8.28752 16.65 8.28752Z" fill="#FFD83D"/>
<path fill-rule="evenodd" clip-rule="evenodd" d="M16.65 6.78757C16.2565 6.78757 15.9375 7.10657 15.9375 7.50007C15.9375 7.89358 16.2565 8.21257 16.65 8.21257C17.0435 8.21257 17.3625 7.89358 17.3625 7.50007C17.3625 7.10657 17.0435 6.78757 16.65 6.78757ZM15.7875 7.50007C15.7875 7.02373 16.1737 6.63757 16.65 6.63757C17.1264 6.63757 17.5125 7.02373 17.5125 7.50007C17.5125 7.97642 17.1264 8.36257 16.65 8.36257C16.1737 8.36257 15.7875 7.97642 15.7875 7.50007Z" fill="black"/>
<path fill-rule="evenodd" clip-rule="evenodd" d="M16.4475 6.68628C16.4786 6.68628 16.5038 6.71146 16.5038 6.74253V7.23753C16.5038 7.26754 16.4802 7.29227 16.4502 7.29371C16.2664 7.30256 16.0833 7.32236 15.9019 7.35299C15.8713 7.35817 15.8422 7.33753 15.8371 7.30689C15.8319 7.27626 15.8525 7.24724 15.8832 7.24206C16.0514 7.21366 16.221 7.19435 16.3913 7.18423V6.74253C16.3913 6.71146 16.4165 6.68628 16.4475 6.68628ZM16.845 6.68628C16.8761 6.68628 16.9013 6.71146 16.9013 6.74253V7.18409C17.0741 7.19393 17.2462 7.21328 17.4169 7.24206C17.4475 7.24723 17.4682 7.27625 17.463 7.30688C17.4578 7.33751 17.4288 7.35816 17.3982 7.353C17.2143 7.322 17.0287 7.3022 16.8425 7.29372C16.8124 7.29235 16.7888 7.2676 16.7888 7.23753V6.74253C16.7888 6.71146 16.814 6.68628 16.845 6.68628ZM16.6498 7.57128L16.65 7.57128C16.9082 7.57128 17.1667 7.59406 17.4104 7.63974C17.4409 7.64547 17.461 7.67486 17.4553 7.7054C17.4496 7.73593 17.4202 7.75604 17.3897 7.75032C17.1534 7.70601 16.9019 7.68379 16.6502 7.68378C16.3969 7.68493 16.1442 7.70723 15.8946 7.75045C15.864 7.75576 15.8349 7.73524 15.8296 7.70463C15.8243 7.67402 15.8448 7.64491 15.8754 7.6396C16.1312 7.59531 16.3902 7.57245 16.6498 7.57128Z" fill="black"/>
<path d="M15.885 8.82751C15.81 10.1025 15.66 11.415 15.1575 12.36L15.9675 12.03C16.2525 10.9575 16.3125 9.57002 16.395 8.91002L15.885 8.82751V8.82751ZM17.415 8.82751L16.8975 8.91002C16.9875 9.57002 17.0475 10.9575 17.325 12.03L18.135 12.36C17.64 11.415 17.49 10.11 17.415 8.82751V8.82751Z" fill="#FFD83D"/>
<path fill-rule="evenodd" clip-rule="evenodd" d="M16.8857 8.83592L17.4032 8.75342L17.415 8.82748L17.4899 8.8231C17.5649 10.1064 17.7148 11.3962 18.2015 12.3252C18.2161 12.3531 18.2117 12.3871 18.1905 12.4104C18.1694 12.4337 18.1359 12.4413 18.1067 12.4294L17.2967 12.0994C17.2748 12.0905 17.2583 12.0717 17.2524 12.0488C17.1123 11.5071 17.0274 10.8877 16.9664 10.3234C16.9398 10.0777 16.9179 9.8438 16.8979 9.63074C16.8716 9.35089 16.8487 9.10706 16.8232 8.92012C16.8177 8.87973 16.8455 8.84234 16.8857 8.83592ZM17.3451 8.91458L16.9813 8.97258C17.0034 9.15096 17.0244 9.37367 17.0477 9.62232C17.0678 9.83542 17.0896 10.0676 17.1155 10.3072C17.175 10.857 17.2565 11.4526 17.3883 11.9748L17.9809 12.2162C17.5572 11.2955 17.417 10.0924 17.3451 8.91458ZM15.897 8.75345L16.407 8.83595C16.4468 8.84239 16.4744 8.87923 16.4694 8.91929C16.4486 9.08583 16.4291 9.30175 16.4067 9.54897C16.3419 10.2662 16.2532 11.2469 16.04 12.0492C16.034 12.072 16.0176 12.0906 15.9958 12.0994L15.1858 12.4294C15.1566 12.4414 15.123 12.4337 15.1019 12.4102C15.0807 12.3868 15.0765 12.3526 15.0913 12.3248C15.5852 11.396 15.7351 10.099 15.8101 8.82308L15.885 8.82748L15.897 8.75345ZM15.9549 8.91476C15.883 10.0856 15.7427 11.2942 15.3132 12.2156L15.9045 11.9747C16.1072 11.1931 16.1921 10.2545 16.2559 9.54937C16.2757 9.33075 16.2934 9.13459 16.312 8.97253L15.9549 8.91476Z" fill="black"/>
<path d="M16.65 11.6025C15.675 11.6025 14.9625 12.0525 14.925 13.2225C14.685 12.8025 13.6875 11.4975 12.75 11.67C12.195 11.775 11.7 12.5475 11.79 13.425C11.325 12.105 9.98252 11.8875 8.99252 12.675C9.87002 13.3875 10.26 15.51 10.995 16.425H22.2975C23.0325 15.51 23.4225 13.3875 24.3 12.675C23.3175 11.8875 21.9675 12.105 21.51 13.425C21.585 12.5475 21.0975 11.775 20.535 11.67C19.605 11.4975 18.6075 12.8025 18.3675 13.2225C18.33 12.06 17.6175 11.6025 16.6425 11.6025H16.65Z" fill="#FFD83D"/>
<path fill-rule="evenodd" clip-rule="evenodd" d="M16.6411 11.5276C16.6416 11.5276 16.6421 11.5276 16.6425 11.5276H16.65M16.6514 11.5276C17.1458 11.529 17.5842 11.646 17.9052 11.9196C18.1867 12.1595 18.3696 12.5126 18.4257 12.9914C18.5849 12.7596 18.8385 12.4427 19.1423 12.1685C19.5405 11.809 20.0465 11.5032 20.5487 11.5963L20.5488 11.5964C20.8584 11.6542 21.1368 11.8925 21.3265 12.2203C21.4648 12.4594 21.5589 12.7504 21.5852 13.0656C21.8438 12.5845 22.2423 12.2916 22.6911 12.1867C23.2339 12.0599 23.8402 12.2104 24.3469 12.6166C24.3646 12.6307 24.3749 12.6522 24.375 12.6749C24.3751 12.6975 24.3649 12.719 24.3473 12.7333C24.139 12.9025 23.9557 13.1589 23.7861 13.4689C23.6169 13.7784 23.4642 14.1356 23.3148 14.5024C23.2795 14.589 23.2444 14.6761 23.2094 14.7631C23.0963 15.0439 22.9833 15.3244 22.8654 15.5843C22.711 15.9247 22.5457 16.2358 22.356 16.4721C22.3417 16.4898 22.3202 16.5001 22.2975 16.5001H10.995C10.9723 16.5001 10.9508 16.4898 10.9365 16.4721C10.7468 16.2358 10.5815 15.9247 10.4271 15.5843C10.3093 15.3244 10.1962 15.0439 10.0832 14.7631C10.0481 14.676 10.013 14.589 9.97774 14.5024C9.82829 14.1356 9.67567 13.7784 9.50644 13.4689C9.33686 13.1589 9.15355 12.9025 8.94524 12.7333C8.92759 12.719 8.9174 12.6974 8.91751 12.6747C8.91763 12.652 8.92804 12.6305 8.94582 12.6164C9.45613 12.2105 10.0623 12.0599 10.6052 12.1867C11.0524 12.2912 11.4495 12.5823 11.7103 13.0602C11.7338 12.747 11.8264 12.4581 11.9631 12.2205C12.1518 11.8927 12.4302 11.6543 12.7361 11.5964L12.7364 11.5963C13.2422 11.5033 13.75 11.8088 14.1493 12.1684C14.4537 12.4426 14.7075 12.7594 14.8667 12.9912C14.9227 12.5095 15.1056 12.156 15.3874 11.9167C15.7085 11.644 16.147 11.529 16.6411 11.5276M16.6462 11.6776C16.1707 11.6782 15.7701 11.7885 15.4845 12.031C15.1999 12.2727 15.0182 12.6554 15 13.225C14.9989 13.2585 14.9757 13.2873 14.9431 13.2954C14.9105 13.3035 14.8765 13.2889 14.8599 13.2598C14.7435 13.0561 14.439 12.6312 14.0489 12.2799C13.6551 11.9252 13.1955 11.6645 12.7638 11.7438C12.5147 11.791 12.2681 11.9913 12.0931 12.2953C11.919 12.5978 11.8212 12.9945 11.8646 13.4174C11.8685 13.4552 11.8435 13.49 11.8064 13.4983C11.7693 13.5066 11.7319 13.4858 11.7193 13.45C11.4944 12.8117 11.0612 12.4474 10.5711 12.3328C10.1034 12.2235 9.57437 12.3395 9.11127 12.6787C9.31087 12.8624 9.48294 13.1134 9.63804 13.397C9.8117 13.7145 9.96704 14.0786 10.1167 14.4459C10.1524 14.5337 10.1879 14.6216 10.2232 14.7092C10.336 14.9893 10.4473 15.2656 10.5637 15.5224C10.7103 15.8455 10.8625 16.132 11.0314 16.3501H22.2611C22.43 16.132 22.5822 15.8455 22.7288 15.5224C22.8452 15.2656 22.9565 14.9893 23.0694 14.7092C23.1046 14.6216 23.1401 14.5337 23.1759 14.4459C23.3255 14.0786 23.4808 13.7145 23.6545 13.397C23.8096 13.1132 23.9818 12.8623 24.1815 12.6785C23.7218 12.3395 23.1929 12.2235 22.7252 12.3328C22.235 12.4474 21.802 12.8117 21.5809 13.4496C21.5685 13.4854 21.5314 13.5063 21.4944 13.4984C21.4574 13.4906 21.4321 13.4564 21.4353 13.4187C21.4715 12.9952 21.3717 12.598 21.1967 12.2955C21.0207 11.9914 20.7741 11.791 20.5213 11.7438C20.0935 11.6645 19.6358 11.925 19.2428 12.2798C18.8536 12.6312 18.549 13.0561 18.4326 13.2598C18.416 13.2889 18.382 13.3035 18.3494 13.2954C18.3169 13.2873 18.2936 13.2585 18.2925 13.225C18.2743 12.6593 18.0927 12.2765 17.8079 12.0337C17.5222 11.7902 17.1215 11.6782 16.6462 11.6776Z" fill="black"/>
<path d="M22.2825 16.425C22.2825 16.845 19.7625 17.3025 16.65 17.3025C13.5375 17.3025 11.01 16.8525 11.01 16.425C11.01 16.0125 13.5375 15.7875 16.65 15.7875C19.755 15.7875 22.2825 16.0125 22.2825 16.425Z" fill="black"/>
<path fill-rule="evenodd" clip-rule="evenodd" d="M11.1539 16.3272C11.0823 16.3706 11.0663 16.4047 11.0663 16.425C11.0663 16.4496 11.0854 16.4887 11.1572 16.5395C11.2263 16.5884 11.3317 16.639 11.4725 16.6895C11.7534 16.7901 12.1628 16.8858 12.6719 16.9685C13.6892 17.1339 15.0961 17.2462 16.65 17.2462C18.2038 17.2462 19.6089 17.132 20.6244 16.9657C21.1325 16.8825 21.5409 16.7866 21.8212 16.6863C21.9617 16.636 22.0668 16.5857 22.1358 16.5372C22.2076 16.4868 22.2263 16.4483 22.2263 16.425C22.2263 16.4047 22.2102 16.3706 22.1387 16.3272C22.07 16.2856 21.965 16.2446 21.8241 16.2055C21.5431 16.1277 21.1338 16.0613 20.6247 16.0075C19.6075 15.8999 18.2015 15.8437 16.65 15.8437C15.0948 15.8437 13.6869 15.8999 12.6687 16.0075C12.1592 16.0613 11.7497 16.1277 11.4686 16.2055C11.3276 16.2446 11.2225 16.2856 11.1539 16.3272ZM12.6569 15.8956C13.6806 15.7875 15.0928 15.7312 16.65 15.7312C18.2035 15.7312 19.6138 15.7875 20.6366 15.8956C21.1475 15.9496 21.5641 16.0168 21.8541 16.0971C21.9987 16.1372 22.1153 16.1814 22.197 16.231C22.2758 16.2789 22.3388 16.3421 22.3388 16.425C22.3388 16.5066 22.2787 16.5743 22.2005 16.6293C22.1195 16.6862 22.0035 16.7405 21.8591 16.7922C21.5696 16.8958 21.1535 16.993 20.6425 17.0767C19.6199 17.2442 18.2087 17.3587 16.65 17.3587C15.0914 17.3587 13.6783 17.2461 12.6538 17.0795C12.1419 16.9963 11.7249 16.8994 11.4346 16.7954C11.2898 16.7435 11.1734 16.6888 11.0922 16.6313C11.0136 16.5757 10.9538 16.5072 10.9538 16.425C10.9538 16.3421 11.0167 16.2789 11.0955 16.231C11.1773 16.1814 11.2939 16.1372 11.4386 16.0971C11.7287 16.0168 12.1455 15.9496 12.6569 15.8956Z" fill="black"/>
<path d="M16.65 8.8425C16.795 8.8425 16.9125 8.72498 16.9125 8.58C16.9125 8.43503 16.795 8.3175 16.65 8.3175C16.505 8.3175 16.3875 8.43503 16.3875 8.58C16.3875 8.72498 16.505 8.8425 16.65 8.8425Z" fill="#FFD83D"/>
<path fill-rule="evenodd" clip-rule="evenodd" d="M16.65 8.37373C16.5361 8.37373 16.4438 8.46607 16.4438 8.57998C16.4438 8.69389 16.5361 8.78623 16.65 8.78623C16.7639 8.78623 16.8563 8.69389 16.8563 8.57998C16.8563 8.46607 16.7639 8.37373 16.65 8.37373ZM16.3313 8.57998C16.3313 8.40394 16.474 8.26123 16.65 8.26123C16.8261 8.26123 16.9688 8.40394 16.9688 8.57998C16.9688 8.75602 16.8261 8.89873 16.65 8.89873C16.474 8.89873 16.3313 8.75602 16.3313 8.57998Z" fill="black"/>
<path d="M16.65 9.42744C16.8033 9.42744 16.9275 9.3032 16.9275 9.14994C16.9275 8.99668 16.8033 8.87244 16.65 8.87244C16.4967 8.87244 16.3725 8.99668 16.3725 9.14994C16.3725 9.3032 16.4967 9.42744 16.65 9.42744Z" fill="#FFD83D"/>
<path fill-rule="evenodd" clip-rule="evenodd" d="M16.65 8.92878C16.5278 8.92878 16.4288 9.02784 16.4288 9.15003C16.4288 9.27223 16.5278 9.37128 16.65 9.37128C16.7722 9.37128 16.8713 9.27223 16.8713 9.15003C16.8713 9.02784 16.7722 8.92878 16.65 8.92878ZM16.3163 9.15003C16.3163 8.96571 16.4657 8.81628 16.65 8.81628C16.8343 8.81628 16.9838 8.96571 16.9838 9.15003C16.9838 9.33436 16.8343 9.48378 16.65 9.48378C16.4657 9.48378 16.3163 9.33436 16.3163 9.15003Z" fill="black"/>
<path d="M16.65 10.0725C16.8198 10.0725 16.9575 9.93485 16.9575 9.76502C16.9575 9.59519 16.8198 9.45752 16.65 9.45752C16.4802 9.45752 16.3425 9.59519 16.3425 9.76502C16.3425 9.93485 16.4802 10.0725 16.65 10.0725Z" fill="#FFD83D"/>
<path fill-rule="evenodd" clip-rule="evenodd" d="M16.65 9.51375C16.5112 9.51375 16.3988 9.62623 16.3988 9.76499C16.3988 9.90376 16.5112 10.0162 16.65 10.0162C16.7888 10.0162 16.9013 9.90376 16.9013 9.76499C16.9013 9.62623 16.7888 9.51375 16.65 9.51375ZM16.2863 9.76499C16.2863 9.5641 16.4491 9.40125 16.65 9.40125C16.8509 9.40125 17.0138 9.5641 17.0138 9.76499C17.0138 9.96589 16.8509 10.1287 16.65 10.1287C16.4491 10.1287 16.2863 9.96589 16.2863 9.76499Z" fill="black"/>
<path d="M16.65 10.8C16.8447 10.8 17.0025 10.6422 17.0025 10.4475C17.0025 10.2528 16.8447 10.095 16.65 10.095C16.4553 10.095 16.2975 10.2528 16.2975 10.4475C16.2975 10.6422 16.4553 10.8 16.65 10.8Z" fill="#FFD83D"/>
<path fill-rule="evenodd" clip-rule="evenodd" d="M16.65 10.1512C16.4864 10.1512 16.3537 10.2838 16.3537 10.4474C16.3537 10.6111 16.4864 10.7437 16.65 10.7437C16.8136 10.7437 16.9462 10.6111 16.9462 10.4474C16.9462 10.2838 16.8136 10.1512 16.65 10.1512ZM16.2412 10.4474C16.2412 10.2217 16.4242 10.0387 16.65 10.0387C16.8757 10.0387 17.0587 10.2217 17.0587 10.4474C17.0587 10.6732 16.8757 10.8562 16.65 10.8562C16.4242 10.8562 16.2412 10.6732 16.2412 10.4474Z" fill="black"/>
<path d="M16.65 11.5875C16.8613 11.5875 17.0325 11.4163 17.0325 11.205C17.0325 10.9938 16.8613 10.8225 16.65 10.8225C16.4388 10.8225 16.2675 10.9938 16.2675 11.205C16.2675 11.4163 16.4388 11.5875 16.65 11.5875Z" fill="#FFD83D"/>
<path fill-rule="evenodd" clip-rule="evenodd" d="M16.65 10.8787C16.4698 10.8787 16.3237 11.0248 16.3237 11.205C16.3237 11.3852 16.4698 11.5312 16.65 11.5312C16.8302 11.5312 16.9762 11.3852 16.9762 11.205C16.9762 11.0248 16.8302 10.8787 16.65 10.8787ZM16.2112 11.205C16.2112 10.9627 16.4077 10.7662 16.65 10.7662C16.8923 10.7662 17.0887 10.9627 17.0887 11.205C17.0887 11.4473 16.8923 11.6437 16.65 11.6437C16.4077 11.6437 16.2112 11.4473 16.2112 11.205Z" fill="black"/>
<path d="M16.5 11.9399C16.455 11.9399 16.4175 11.9774 16.425 12.0449L16.47 12.3674C16.485 12.4799 16.545 12.4424 16.5675 12.3674C16.5825 12.2774 16.575 12.2174 16.5825 12.0599C16.5825 11.9774 16.5375 11.9399 16.4925 11.9399H16.5ZM16.8 11.9399C16.755 11.9399 16.7175 11.9774 16.7175 12.0599C16.7175 12.2174 16.7175 12.2774 16.7325 12.3599C16.7475 12.4499 16.8075 12.4799 16.83 12.3599L16.8675 12.0449C16.8825 11.9699 16.8375 11.9399 16.8 11.9399ZM16.2225 11.9849C16.2026 11.9849 16.1835 11.9928 16.1695 12.0069C16.1554 12.021 16.1475 12.0401 16.1475 12.0599C16.1475 12.1349 16.17 12.2324 16.1775 12.3449C16.1925 12.4574 16.275 12.4199 16.2825 12.3449C16.2825 12.2849 16.2975 12.1799 16.2825 12.0524C16.2825 12.0074 16.2675 11.9849 16.2375 11.9774C16.2325 11.9768 16.2275 11.9768 16.2225 11.9774V11.9849ZM17.055 11.9849C17.0325 11.9849 17.01 12.0074 17.0025 12.0599C16.9985 12.1552 17.0035 12.2506 17.0175 12.3449C17.0175 12.4199 17.1075 12.4574 17.115 12.3449C17.115 12.2324 17.145 12.1424 17.145 12.0674C17.145 12.0224 17.1075 11.9924 17.07 11.9849C17.065 11.9843 17.06 11.9843 17.055 11.9849V11.9849ZM15.9 12.1124C15.8625 12.1199 15.825 12.1649 15.84 12.2099C15.8625 12.3074 15.885 12.4124 15.885 12.5099C15.885 12.5924 15.9525 12.5624 15.96 12.5099C15.9659 12.4101 15.9684 12.31 15.9675 12.2099C15.9675 12.1349 15.93 12.1049 15.8925 12.1124H15.9ZM17.37 12.1124C17.3475 12.1199 17.325 12.1499 17.325 12.2099L17.34 12.5099C17.34 12.5624 17.415 12.5924 17.415 12.5099C17.415 12.4124 17.43 12.3074 17.4525 12.2099C17.4675 12.1649 17.43 12.1199 17.4 12.1124C17.3926 12.1105 17.3849 12.1105 17.3775 12.1124H17.37ZM12.945 12.1274C12.9 12.1274 12.87 12.1799 12.9 12.2399C12.945 12.3449 12.9975 12.4049 13.0425 12.5099C13.08 12.6074 13.1475 12.5474 13.125 12.4799L13.02 12.2024C12.9975 12.1499 12.9675 12.1274 12.945 12.1274ZM20.355 12.1274C20.325 12.1274 20.3025 12.1499 20.28 12.2024C20.2125 12.3449 20.19 12.4124 20.1675 12.4799C20.1525 12.5549 20.2125 12.6074 20.2575 12.5099L20.3925 12.2399C20.4225 12.1799 20.3925 12.1274 20.355 12.1274ZM13.245 12.1274C13.2075 12.1424 13.1925 12.1799 13.2075 12.2249C13.2525 12.3149 13.305 12.4124 13.3425 12.5099C13.3725 12.5924 13.4475 12.5699 13.4175 12.4949L13.3425 12.2174C13.3125 12.1424 13.2675 12.1199 13.245 12.1274V12.1274ZM20.0325 12.1274C20.0025 12.1349 19.9725 12.1649 19.9575 12.2174C19.905 12.3674 19.8975 12.4124 19.875 12.4949C19.845 12.5699 19.92 12.5924 19.95 12.5099L20.085 12.2249C20.1 12.1799 20.085 12.1424 20.055 12.1274C20.0476 12.1255 20.0399 12.1255 20.0325 12.1274V12.1274ZM13.62 12.2024C13.575 12.2099 13.545 12.2699 13.575 12.3449C13.605 12.4349 13.65 12.5174 13.695 12.6224C13.74 12.7274 13.8075 12.7049 13.7925 12.6374C13.77 12.5699 13.755 12.4649 13.7025 12.2999C13.68 12.2249 13.65 12.1949 13.62 12.2024V12.2024ZM19.68 12.2024C19.65 12.2024 19.6125 12.2249 19.59 12.2999C19.545 12.4649 19.515 12.5699 19.5075 12.6374C19.485 12.7124 19.56 12.7274 19.5975 12.6224C19.6425 12.5174 19.6875 12.4349 19.7175 12.3449C19.7475 12.2699 19.7175 12.2099 19.68 12.2024V12.2024ZM12.69 12.2549C12.645 12.2549 12.615 12.3299 12.6375 12.3824C12.675 12.4574 12.705 12.4874 12.7425 12.5774C12.7875 12.6674 12.8325 12.5999 12.8175 12.5399C12.795 12.4799 12.7725 12.4124 12.7575 12.3299C12.7425 12.2699 12.7125 12.2549 12.6825 12.2549H12.69ZM20.61 12.2549C20.58 12.2549 20.5575 12.2699 20.535 12.3299L20.4825 12.5399C20.4675 12.5999 20.5125 12.6674 20.5575 12.5774C20.595 12.4874 20.6175 12.4649 20.6625 12.3824C20.685 12.3299 20.6475 12.2624 20.61 12.2549V12.2549ZM15.585 12.4649C15.5325 12.4649 15.4875 12.5249 15.51 12.5774C15.525 12.6674 15.57 12.7424 15.5925 12.8549C15.6225 12.9524 15.69 12.9074 15.6825 12.8399C15.6771 12.7392 15.6645 12.6389 15.645 12.5399C15.63 12.4874 15.6075 12.4649 15.5775 12.4649H15.585ZM17.715 12.4649C17.6925 12.4649 17.6625 12.4874 17.655 12.5399C17.633 12.6388 17.6179 12.739 17.61 12.8399C17.61 12.9074 17.6775 12.9524 17.7 12.8549L17.79 12.5774C17.805 12.5249 17.76 12.4649 17.715 12.4649V12.4649ZM16.65 12.5549C16.59 12.5549 16.5825 12.6299 16.5825 12.6824C16.5779 12.8532 16.526 13.0194 16.4325 13.1624C16.3575 13.2524 16.26 13.2299 16.17 13.1774C16.0828 13.1299 15.9999 13.0747 15.9225 13.0124C15.8175 12.9374 15.7425 12.9824 15.8625 13.1549C16.2075 13.6499 16.5825 14.0699 16.5825 14.8799C16.5825 14.9774 16.605 15.0074 16.65 15.0074C16.695 15.0074 16.71 14.9774 16.71 14.8724C16.71 14.0699 17.085 13.6499 17.43 13.1474C17.55 12.9824 17.475 12.9374 17.3775 13.0124C17.3004 13.0751 17.2175 13.1304 17.13 13.1774C17.0325 13.2299 16.935 13.2524 16.8675 13.1624C16.774 13.0194 16.7221 12.8532 16.7175 12.6824C16.71 12.6299 16.7025 12.5549 16.6425 12.5549H16.65ZM14.0025 12.4349C13.9975 12.4341 13.9925 12.4341 13.9875 12.4349C13.965 12.4424 13.9575 12.4649 13.965 12.5099L14.0475 12.8024C14.07 12.8774 14.1525 12.8549 14.1375 12.7649L14.0925 12.5324C14.0775 12.4724 14.0325 12.4349 14.0025 12.4349ZM19.2975 12.4349C19.26 12.4349 19.2225 12.4724 19.2075 12.5324C19.1775 12.6374 19.1775 12.6674 19.1625 12.7574C19.14 12.8549 19.23 12.8699 19.245 12.8024L19.335 12.5024C19.335 12.4649 19.3275 12.4424 19.305 12.4349C19.3 12.4341 19.295 12.4341 19.29 12.4349H19.2975ZM12.4275 12.4649C12.3825 12.4649 12.3525 12.5249 12.3975 12.5999C12.4425 12.6899 12.525 12.7949 12.5625 12.8624C12.6 12.9224 12.6675 12.8774 12.6225 12.8024C12.5775 12.7274 12.5625 12.6299 12.5025 12.5174C12.4976 12.5016 12.4875 12.4879 12.4739 12.4784C12.4604 12.4689 12.444 12.4642 12.4275 12.4649ZM20.865 12.4649C20.8425 12.4649 20.8125 12.4799 20.79 12.5174C20.7375 12.6299 20.715 12.7199 20.6775 12.8024C20.6325 12.8774 20.6925 12.9224 20.73 12.8624C20.7675 12.7949 20.85 12.6899 20.895 12.5999C20.94 12.5249 20.91 12.4649 20.865 12.4649ZM10.05 12.7124C10.005 12.7124 9.99 12.8024 10.035 12.8624C10.0932 12.9361 10.1586 13.004 10.23 13.0649C10.29 13.1249 10.305 13.0499 10.275 12.9899L10.14 12.7874C10.1025 12.7349 10.0725 12.7124 10.05 12.7124ZM23.2425 12.7124C23.22 12.7124 23.19 12.7349 23.16 12.7874L23.0175 12.9899C22.9875 13.0499 23.0025 13.1249 23.07 13.0649C23.1415 13.004 23.2068 12.9362 23.265 12.8624C23.31 12.8024 23.295 12.7124 23.2425 12.7124ZM10.4325 12.7874C10.3875 12.7874 10.3575 12.8174 10.395 12.8849L10.5375 13.1699C10.575 13.2449 10.6875 13.2674 10.6425 13.1549L10.545 12.8699C10.5225 12.8174 10.47 12.7949 10.4325 12.7949V12.7874ZM22.8675 12.7874C22.8225 12.7874 22.77 12.8174 22.7475 12.8699L22.6575 13.1549C22.6125 13.2674 22.725 13.2449 22.7625 13.1699C22.8 13.0949 22.86 12.9824 22.8975 12.8849C22.935 12.8174 22.905 12.7874 22.8675 12.7874V12.7874ZM9.6975 12.8174C9.6375 12.8174 9.6375 12.8699 9.69 12.9074C9.7575 12.9599 9.84 13.0124 9.915 13.0799C10.0125 13.1549 10.0425 13.0799 9.99 13.0199C9.945 12.9599 9.9 12.8999 9.7725 12.8324C9.7425 12.8174 9.72 12.8174 9.6975 12.8174ZM23.595 12.8174C23.58 12.8174 23.55 12.8174 23.52 12.8324C23.4 12.8999 23.3475 12.9599 23.295 13.0199C23.25 13.0874 23.2875 13.1549 23.3775 13.0799C23.4525 13.0124 23.5425 12.9599 23.6025 12.9074C23.6625 12.8699 23.655 12.8174 23.6025 12.8174H23.595ZM15.375 12.8699C15.3375 12.8699 15.315 12.9074 15.3225 12.9599L15.3975 13.2299C15.4125 13.3124 15.51 13.3124 15.495 13.2299C15.48 13.1549 15.4725 13.0574 15.4425 12.9374C15.435 12.8924 15.4125 12.8699 15.3825 12.8624C15.38 12.8622 15.3775 12.8622 15.375 12.8624V12.8699ZM17.91 12.8699C17.8875 12.8699 17.865 12.8924 17.85 12.9449C17.82 13.0574 17.8125 13.1549 17.7975 13.2374C17.7825 13.3124 17.88 13.3124 17.895 13.2299L17.97 12.9599C17.985 12.9074 17.955 12.8699 17.925 12.8699C17.92 12.8691 17.915 12.8691 17.91 12.8699V12.8699ZM13.11 12.7199C13.0875 12.7199 13.0725 12.7724 13.095 12.8474C13.1746 13.0636 13.2152 13.2921 13.215 13.5224C13.1925 13.6124 13.14 13.6199 13.0725 13.5974C12.9989 13.5611 12.9287 13.5185 12.8625 13.4699C12.8025 13.4324 12.735 13.4774 12.825 13.5524C13.275 13.9274 13.5975 14.3549 13.725 14.8724C13.74 14.9774 13.8075 14.9924 13.7925 14.8724C13.6875 14.2199 13.665 13.6799 13.8225 13.3499C13.8825 13.2224 13.8225 13.1024 13.7325 13.3049C13.665 13.4399 13.5675 13.4924 13.485 13.3799C13.3677 13.1969 13.2673 13.0036 13.185 12.8024C13.17 12.7499 13.1475 12.7274 13.125 12.7199C13.1225 12.7195 13.12 12.7195 13.1175 12.7199H13.11ZM20.1675 12.7199C20.145 12.7199 20.1225 12.7499 20.1075 12.7949C20.055 12.9449 19.89 13.2599 19.8075 13.3799C19.725 13.4999 19.6275 13.4399 19.5675 13.3049C19.47 13.1024 19.4175 13.2224 19.47 13.3499C19.6275 13.6799 19.605 14.2199 19.5075 14.8724C19.485 14.9924 19.5525 14.9774 19.5825 14.8724C19.7212 14.3457 20.0329 13.8808 20.4675 13.5524C20.5575 13.4774 20.49 13.4324 20.43 13.4774C20.3635 13.5211 20.2932 13.5587 20.22 13.5899C20.145 13.6199 20.1 13.6124 20.0775 13.5149C20.0625 13.4249 20.0925 13.2224 20.205 12.8399C20.22 12.7799 20.205 12.7274 20.1825 12.7199C20.1777 12.7182 20.1724 12.7182 20.1675 12.7199V12.7199ZM10.83 12.8999C10.7925 12.8999 10.755 12.9299 10.7775 12.9899C10.8075 13.0949 10.8675 13.1999 10.89 13.2599C10.9125 13.3274 10.98 13.2974 10.965 13.2074L10.9275 12.9749C10.9275 12.9299 10.875 12.8999 10.83 12.8999ZM22.4625 12.8999C22.4175 12.8999 22.3725 12.9299 22.365 12.9749L22.335 13.2074C22.32 13.2974 22.3875 13.3274 22.41 13.2599C22.425 13.1999 22.485 13.0949 22.515 12.9899C22.5375 12.9299 22.5075 12.8999 22.4625 12.8999ZM12.24 12.7724C12.195 12.7649 12.1875 12.8849 12.225 12.9374L12.435 13.1699C12.495 13.2449 12.5325 13.1774 12.495 13.1174L12.3 12.8324C12.2775 12.7949 12.255 12.7724 12.24 12.7724V12.7724ZM21.0525 12.7724C21.0375 12.7724 21.015 12.7949 20.9925 12.8324L20.7975 13.1174C20.76 13.1774 20.7975 13.2449 20.865 13.1699L21.0675 12.9374C21.105 12.8849 21.105 12.7649 21.0525 12.7724V12.7724ZM11.1525 13.0724C11.1225 13.0724 11.1 13.0874 11.115 13.1474C11.13 13.2374 11.1525 13.2974 11.175 13.3799C11.1975 13.4549 11.25 13.4474 11.25 13.3724L11.2275 13.1324C11.2242 13.1145 11.2151 13.0981 11.2015 13.0859C11.188 13.0737 11.1707 13.0663 11.1525 13.0649V13.0724ZM22.14 13.0724C22.1225 13.0721 22.1053 13.0779 22.0916 13.0889C22.0779 13.0998 22.0685 13.1152 22.065 13.1324L22.0425 13.3724C22.0425 13.4474 22.1025 13.4624 22.1175 13.3799L22.185 13.1549C22.2 13.0874 22.17 13.0649 22.14 13.0649V13.0724ZM12.135 13.1774C12.09 13.1774 12.0525 13.2299 12.105 13.2974C12.1875 13.4099 12.285 13.4849 12.3225 13.5224C12.3525 13.5674 12.435 13.5524 12.3825 13.4699L12.21 13.2074C12.195 13.1774 12.165 13.1699 12.135 13.1774ZM21.135 13.1774C21.12 13.1774 21.0975 13.1849 21.09 13.2074L20.91 13.4699C20.8575 13.5524 20.94 13.5674 20.9775 13.5299C21.0075 13.4849 21.105 13.4099 21.195 13.2974C21.2475 13.2224 21.2025 13.1774 21.1575 13.1774C21.1525 13.1769 21.1475 13.1769 21.1425 13.1774H21.135ZM10.5825 13.4849C10.5525 13.4849 10.5375 13.5149 10.5825 13.5824C10.6983 13.7229 10.7827 13.8866 10.83 14.0624C10.8375 14.1674 10.7925 14.1674 10.7475 14.1674C10.605 14.1674 10.5375 14.0624 10.4175 14.0324C10.29 14.0099 10.2675 14.0699 10.3575 14.1374C10.7874 14.4093 11.1616 14.7606 11.46 15.1724C11.535 15.3149 11.6325 15.3599 11.58 15.2324C11.4343 14.94 11.372 14.613 11.4 14.2874C11.4375 14.0774 11.49 13.9424 11.4825 13.8224C11.4825 13.7099 11.4075 13.7174 11.385 13.8224L11.31 14.0324C11.28 14.0699 11.175 14.0924 11.085 13.9649C10.9575 13.8084 10.817 13.6629 10.665 13.5299C10.6425 13.5074 10.6125 13.4924 10.59 13.4849H10.5825ZM22.71 13.4849C22.6875 13.4849 22.6575 13.4999 22.6275 13.5299C22.4782 13.6633 22.3402 13.8088 22.215 13.9649C22.1175 14.0924 22.0125 14.0699 21.99 14.0399C21.9558 13.9709 21.9306 13.8979 21.915 13.8224C21.885 13.7174 21.8175 13.7099 21.81 13.8224C21.81 13.9424 21.855 14.0774 21.8925 14.2874C21.93 14.4974 21.8925 14.8274 21.72 15.2324C21.66 15.3599 21.765 15.3074 21.84 15.1724C22.1357 14.7608 22.5074 14.4095 22.935 14.1374C23.025 14.0699 23.01 14.0099 22.8825 14.0324C22.755 14.0624 22.6875 14.1674 22.5525 14.1674C22.5075 14.1674 22.455 14.1674 22.4625 14.0624C22.47 13.9649 22.5975 13.7324 22.71 13.5824C22.755 13.5074 22.7475 13.4849 22.71 13.4849V13.4849Z" fill="black"/>
<path d="M11.2575 15.9525L11.4075 16.41ZM11.5575 15.8625L11.6925 16.3275ZM11.8875 15.8025L11.9775 16.2825ZM12.1875 15.75L12.285 16.2225ZM12.57 15.7125L12.645 16.1925ZM12.9825 15.7125L13.065 16.185ZM13.3875 15.5775L13.4475 16.0575ZM13.7625 15.6L13.8225 16.08ZM14.13 15.555L14.19 16.035ZM14.49 15.51L14.5275 15.9975ZM14.8875 15.51L14.9175 15.9975ZM15.2475 15.4875L15.27 15.975ZM15.6375 15.465L15.66 15.945ZM16.0875 15.45L16.11 15.9375ZM22.035 15.9525L21.885 16.41ZM21.735 15.8625L21.6075 16.3275ZM21.4125 15.8025L21.3225 16.2825ZM21.1125 15.75L21.015 16.2225ZM20.715 15.7125L20.64 16.1925ZM20.31 15.7125L20.2275 16.1925ZM19.9125 15.5775L19.8525 16.0575ZM19.53 15.6L19.47 16.08ZM19.17 15.555L19.1025 16.035ZM18.8025 15.51L18.765 15.9975ZM18.405 15.51L18.375 15.9975ZM18.0525 15.4875L18.03 15.975ZM17.655 15.465L17.64 15.945ZM17.205 15.45L17.19 15.9375ZM16.65 15.4125V15.9525Z" fill="#FFD83D"/>
<path fill-rule="evenodd" clip-rule="evenodd" d="M16.65 15.3562C16.6811 15.3562 16.7062 15.3814 16.7062 15.4125V15.9525C16.7062 15.9835 16.6811 16.0087 16.65 16.0087C16.6189 16.0087 16.5937 15.9835 16.5937 15.9525V15.4125C16.5937 15.3814 16.6189 15.3562 16.65 15.3562ZM16.0849 15.3938C16.1159 15.3923 16.1423 15.4163 16.1437 15.4474L16.1662 15.9349C16.1676 15.9659 16.1436 15.9922 16.1126 15.9936C16.0816 15.9951 16.0552 15.9711 16.0538 15.94L16.0313 15.4525C16.0299 15.4215 16.0539 15.3952 16.0849 15.3938ZM17.2067 15.3937C17.2378 15.3947 17.2622 15.4206 17.2612 15.4517L17.2462 15.9392C17.2453 15.9702 17.2193 15.9946 17.1883 15.9937C17.1572 15.9927 17.1328 15.9668 17.1338 15.9357L17.1488 15.4482C17.1497 15.4172 17.1757 15.3928 17.2067 15.3937ZM15.6349 15.4088C15.6659 15.4073 15.6922 15.4313 15.6937 15.4623L15.7162 15.9423C15.7176 15.9733 15.6937 15.9997 15.6626 16.0011C15.6316 16.0026 15.6053 15.9786 15.6038 15.9476L15.5813 15.4676C15.5799 15.4366 15.6038 15.4102 15.6349 15.4088ZM17.6568 15.4087C17.6878 15.4097 17.7122 15.4357 17.7112 15.4667L17.6962 15.9467C17.6952 15.9778 17.6693 16.0021 17.6382 16.0012C17.6072 16.0002 17.5828 15.9742 17.5838 15.9432L17.5988 15.4632C17.5997 15.4321 17.6257 15.4078 17.6568 15.4087ZM15.2449 15.4313C15.2759 15.4298 15.3023 15.4538 15.3037 15.4849L15.3262 15.9724C15.3276 16.0034 15.3036 16.0297 15.2726 16.0311C15.2416 16.0326 15.2152 16.0086 15.2138 15.9775L15.1913 15.49C15.1899 15.459 15.2139 15.4327 15.2449 15.4313ZM18.0551 15.4313C18.0861 15.4327 18.1101 15.459 18.1087 15.49L18.0862 15.9775C18.0848 16.0086 18.0584 16.0326 18.0274 16.0311C17.9964 16.0297 17.9724 16.0034 17.9738 15.9724L17.9963 15.4849C17.9977 15.4538 18.0241 15.4298 18.0551 15.4313ZM14.4857 15.4539C14.5167 15.4515 14.5437 15.4747 14.5461 15.5056L14.5836 15.9931C14.586 16.0241 14.5628 16.0512 14.5318 16.0535C14.5008 16.0559 14.4738 16.0327 14.4714 16.0018L14.4339 15.5143C14.4315 15.4833 14.4547 15.4562 14.4857 15.4539ZM18.8068 15.4539C18.8378 15.4562 18.861 15.4833 18.8586 15.5143L18.8211 16.0018C18.8187 16.0327 18.7917 16.0559 18.7607 16.0535C18.7297 16.0512 18.7065 16.0241 18.7089 15.9931L18.7464 15.5056C18.7488 15.4747 18.7758 15.4515 18.8068 15.4539ZM14.884 15.4538C14.9151 15.4519 14.9417 15.4755 14.9436 15.5065L14.9736 15.994C14.9755 16.025 14.952 16.0517 14.921 16.0536C14.8899 16.0555 14.8633 16.0319 14.8614 16.0009L14.8314 15.5134C14.8294 15.4824 14.853 15.4557 14.884 15.4538ZM18.4085 15.4538C18.4395 15.4557 18.463 15.4824 18.4611 15.5134L18.4311 16.0009C18.4292 16.0319 18.4025 16.0555 18.3715 16.0536C18.3405 16.0517 18.3169 16.025 18.3189 15.994L18.3489 15.5065C18.3508 15.4755 18.3774 15.4519 18.4085 15.4538ZM19.1778 15.4992C19.2086 15.5036 19.23 15.532 19.2257 15.5628L19.1582 16.0428C19.1539 16.0735 19.1254 16.095 19.0947 16.0907C19.0639 16.0863 19.0425 16.0579 19.0468 16.0271L19.1143 15.5471C19.1186 15.5164 19.1471 15.4949 19.1778 15.4992ZM14.123 15.4991C14.1538 15.4953 14.182 15.5171 14.1858 15.548L14.2458 16.028C14.2497 16.0588 14.2278 16.0869 14.197 16.0908C14.1661 16.0946 14.138 16.0728 14.1342 16.0419L14.0742 15.5619C14.0703 15.5311 14.0922 15.503 14.123 15.4991ZM13.3805 15.5216C13.4113 15.5178 13.4395 15.5396 13.4433 15.5705L13.5033 16.0505C13.5072 16.0813 13.4853 16.1094 13.4545 16.1133C13.4236 16.1171 13.3955 16.0953 13.3917 16.0644L13.3317 15.5844C13.3278 15.5536 13.3497 15.5255 13.3805 15.5216ZM19.9195 15.5216C19.9503 15.5255 19.9722 15.5536 19.9683 15.5844L19.9083 16.0644C19.9045 16.0953 19.8763 16.1171 19.8455 16.1133C19.8147 16.1094 19.7928 16.0813 19.7967 16.0505L19.8567 15.5705C19.8605 15.5396 19.8886 15.5178 19.9195 15.5216ZM13.7555 15.5441C13.7863 15.5403 13.8145 15.5621 13.8183 15.593L13.8783 16.073C13.8822 16.1038 13.8603 16.1319 13.8295 16.1358C13.7986 16.1396 13.7705 16.1178 13.7667 16.0869L13.7067 15.6069C13.7028 15.5761 13.7247 15.548 13.7555 15.5441ZM19.537 15.5441C19.5678 15.548 19.5897 15.5761 19.5858 15.6069L19.5258 16.0869C19.522 16.1178 19.4938 16.1396 19.463 16.1358C19.4322 16.1319 19.4103 16.1038 19.4142 16.073L19.4742 15.593C19.478 15.5621 19.5061 15.5403 19.537 15.5441ZM12.9728 15.657C13.0034 15.6517 13.0326 15.6722 13.0379 15.7028L13.1204 16.1753C13.1258 16.2059 13.1053 16.235 13.0747 16.2404C13.0441 16.2457 13.0149 16.2252 13.0096 16.1946L12.9271 15.7221C12.9217 15.6915 12.9422 15.6624 12.9728 15.657ZM20.3195 15.657C20.3501 15.6623 20.3707 15.6914 20.3654 15.722L20.2829 16.202C20.2777 16.2326 20.2486 16.2532 20.218 16.2479C20.1874 16.2426 20.1668 16.2135 20.1721 16.1829L20.2546 15.7029C20.2598 15.6723 20.2889 15.6518 20.3195 15.657ZM12.5613 15.6569C12.592 15.6521 12.6208 15.6731 12.6256 15.7038L12.7006 16.1838C12.7054 16.2145 12.6844 16.2432 12.6537 16.248C12.623 16.2528 12.5942 16.2318 12.5894 16.2011L12.5144 15.7211C12.5096 15.6904 12.5306 15.6617 12.5613 15.6569ZM20.7237 15.6569C20.7544 15.6617 20.7754 15.6904 20.7706 15.7211L20.6956 16.2011C20.6908 16.2318 20.662 16.2528 20.6313 16.248C20.6006 16.2432 20.5796 16.2145 20.5844 16.1838L20.6594 15.7038C20.6642 15.6731 20.693 15.6521 20.7237 15.6569ZM12.1761 15.6949C12.2066 15.6886 12.2363 15.7082 12.2426 15.7386L12.3401 16.2111C12.3464 16.2415 12.3268 16.2713 12.2964 16.2775C12.2659 16.2838 12.2362 16.2642 12.2299 16.2338L12.1324 15.7613C12.1261 15.7309 12.1457 15.7011 12.1761 15.6949ZM21.1239 15.6949C21.1543 15.7011 21.1739 15.7309 21.1676 15.7613L21.0701 16.2338C21.0638 16.2642 21.0341 16.2838 21.0036 16.2775C20.9732 16.2713 20.9536 16.2415 20.9599 16.2111L21.0574 15.7386C21.0637 15.7082 21.0934 15.6886 21.1239 15.6949ZM11.8771 15.7472C11.9077 15.7414 11.9371 15.7616 11.9428 15.7921L12.0328 16.2721C12.0385 16.3026 12.0184 16.332 11.9879 16.3377C11.9573 16.3435 11.9279 16.3234 11.9222 16.2928L11.8322 15.8128C11.8265 15.7823 11.8466 15.7529 11.8771 15.7472ZM21.4229 15.7472C21.4534 15.7529 21.4735 15.7823 21.4678 15.8128L21.3778 16.2928C21.3721 16.3234 21.3427 16.3435 21.3121 16.3377C21.2816 16.332 21.2615 16.3026 21.2672 16.2721L21.3572 15.7921C21.3629 15.7616 21.3923 15.7414 21.4229 15.7472ZM11.5418 15.8084C11.5716 15.7998 11.6029 15.8169 11.6115 15.8468L11.7465 16.3118C11.7552 16.3416 11.738 16.3728 11.7082 16.3815C11.6783 16.3901 11.6471 16.373 11.6385 16.3431L11.5035 15.8781C11.4948 15.8483 11.512 15.8171 11.5418 15.8084ZM21.7499 15.8082C21.7798 15.8164 21.7975 15.8474 21.7892 15.8773L21.6617 16.3423C21.6535 16.3723 21.6226 16.3899 21.5926 16.3817C21.5627 16.3735 21.545 16.3425 21.5533 16.3126L21.6807 15.8476C21.689 15.8176 21.7199 15.8 21.7499 15.8082ZM11.24 15.899C11.2695 15.8893 11.3013 15.9054 11.3109 15.9349L11.4609 16.3924C11.4706 16.4219 11.4545 16.4537 11.425 16.4634C11.3955 16.4731 11.3637 16.457 11.354 16.4275L11.204 15.97C11.1944 15.9405 11.2105 15.9087 11.24 15.899ZM22.0525 15.899C22.082 15.9087 22.0981 15.9405 22.0884 15.97L21.9384 16.4275C21.9288 16.457 21.897 16.4731 21.8675 16.4634C21.838 16.4537 21.8219 16.4219 21.8315 16.3924L21.9815 15.9349C21.9912 15.9054 22.023 15.8893 22.0525 15.899Z" fill="black"/>
</g>
<defs>
<clipPath id="clip0_4_3697">
<rect width="60" height="45" fill="white"/>
</clipPath>
</defs>
</svg>
