<svg width="60" height="45" viewBox="0 0 60 45" fill="none" xmlns="http://www.w3.org/2000/svg">
<g clip-path="url(#clip0_4_1956)">
<path d="M0 0H60V45H0V0Z" fill="#00785E"/>
<path d="M27.6562 10.1906L31.4531 12.9562L30 8.48438L28.5469 12.9562L32.3531 10.1906H27.6562Z" fill="#FBD116"/>
<path d="M30 31.0875H20.3906C20.2695 30.9648 20.1507 30.8398 20.0344 30.7125H30C30.0387 30.7262 30.0721 30.7516 30.0957 30.7852C30.1192 30.8189 30.1316 30.859 30.1312 30.9C30.1312 30.975 30.0844 31.0594 30 31.0875ZM30 28.1531C30.1085 27.9324 30.1477 27.6841 30.1125 27.4406C30.0944 27.3166 30.0564 27.1963 30 27.0844C29.1362 27.9064 28.0931 28.5162 26.9531 28.8656C26.2389 29.0827 25.4965 29.1933 24.75 29.1938H18.8344C19.007 29.4499 19.1884 29.7 19.3781 29.9438H25.0969C26.9719 29.9438 28.6781 29.2688 30 28.1531V28.1531ZM19.725 25.8375C19.4333 25.9464 19.1266 26.0096 18.8156 26.025C19.5281 26.8349 20.4049 27.4838 21.3878 27.9283C22.3706 28.3729 23.4369 28.6029 24.5156 28.6031C25.5407 28.6034 26.5552 28.3958 27.4979 27.993C28.4405 27.5902 29.2917 27.0004 30 26.2594C30.2635 24.4334 30.4044 22.5918 30.4219 20.7469C30.4444 18.6236 30.3034 16.5017 30 14.4C29.3812 14.9625 28.2187 16.1531 27.675 17.9906C27.4711 18.6943 27.37 19.4237 27.375 20.1563C27.3747 21.6589 27.8218 23.1275 28.6594 24.375C27.6273 23.0482 27.0666 21.4154 27.0656 19.7344C27.0656 18.5719 27.3281 17.4656 27.7969 16.4813C27.4706 16.1354 27.2298 15.7181 27.0937 15.2625C26.4455 16.4058 26.1062 17.6982 26.1094 19.0125C26.1094 20.7 26.6625 22.2656 27.6 23.5219C26.7182 22.5953 25.6472 21.8695 24.4597 21.3938C23.2723 20.9182 21.9964 20.704 20.7187 20.7656C20.9778 21.0049 21.1935 21.2872 21.3562 21.6C22.5588 21.6015 23.7486 21.8464 24.8539 22.3201C25.9592 22.7938 26.9571 23.4865 27.7875 24.3563C26.1847 23.0126 24.1602 22.2758 22.0687 22.275C20.8878 22.2728 19.7183 22.5054 18.6281 22.9594C19.2128 24.5051 20.2845 25.8186 21.6815 26.7014C23.0785 27.5842 24.7248 27.9885 26.3719 27.8531C25.9312 27.9281 25.4812 27.975 25.0219 27.975C23.0482 27.9786 21.1511 27.2116 19.7344 25.8375H19.725ZM30 34.1625H25.0219C26.6063 34.7906 28.2956 35.112 30 35.1094C30.0772 34.965 30.119 34.8044 30.1219 34.6406C30.1205 34.4738 30.0787 34.3097 30 34.1625V34.1625ZM30 31.8656H21.225C21.4619 32.0678 21.7058 32.2617 21.9562 32.4469H30C30.0758 32.3689 30.1194 32.2651 30.1219 32.1563C30.1239 32.1019 30.114 32.0477 30.0929 31.9975C30.0719 31.9474 30.0402 31.9023 30 31.8656ZM30 33.0375H22.8094C23.2446 33.3131 23.6954 33.5636 24.1594 33.7875H30C30.0752 33.6701 30.1143 33.5332 30.1125 33.3938C30.1078 33.2671 30.0689 33.144 30 33.0375V33.0375Z" fill="white"/>
<path d="M18.7969 16.3875L21.1781 18.6L20.55 15.4125L19.1813 18.3562L22.0219 16.7812L18.7969 16.3875ZM22.2562 13.3875L25.5094 13.4437L22.9125 11.475L23.8594 14.5969L24.9187 11.5125L22.2562 13.3875Z" fill="#FBD116"/>
</g>
<defs>
<clipPath id="clip0_4_1956">
<rect width="60" height="45" fill="white"/>
</clipPath>
</defs>
</svg>
