<svg width="60" height="45" viewBox="0 0 60 45" fill="none" xmlns="http://www.w3.org/2000/svg">
<g clip-path="url(#clip0_4_192)">
<path fill-rule="evenodd" clip-rule="evenodd" d="M0 0H60V45H0V0Z" fill="#F41408"/>
<path fill-rule="evenodd" clip-rule="evenodd" d="M0 30H60V45H0V30Z" fill="#21873B"/>
<path fill-rule="evenodd" clip-rule="evenodd" d="M0 0H60V15H0V0Z" fill="black"/>
<path fill-rule="evenodd" clip-rule="evenodd" d="M20.6719 13.2188C22.7625 8.60625 28.5938 6.39375 33.6844 8.29688C34.8791 8.7019 35.978 9.34765 36.9133 10.1942C37.8485 11.0408 38.6002 12.0702 39.1219 13.2188H20.6719ZM18.2344 13.8187C16.58 13.7061 14.9373 13.4616 13.3219 13.0875C12.9375 12.9656 12.9188 12.75 12.9656 12.5906C13.0125 12.4313 13.2563 12.2531 13.5469 12.3094C14.0719 12.4406 16.2469 12.9656 18.2344 13.8187V13.8187ZM29.9156 5.76562C29.5219 3.79688 29.4281 1.64062 29.4656 1.26562C29.5031 0.9 29.7188 0.84375 29.9063 0.84375C30.0938 0.84375 30.3469 1.0125 30.3469 1.28437C30.3469 1.78125 30.3375 3.81563 29.9156 5.78438V5.76562ZM31.0031 5.8125C30.8477 4.3107 30.8382 2.79737 30.975 1.29375C31.05 0.928125 31.275 0.88125 31.4531 0.9C31.6406 0.909375 31.875 1.09688 31.8469 1.36875C31.8 1.86563 31.6031 3.89062 31.0031 5.8125ZM31.9781 5.93437C31.9594 3.9375 32.2594 1.78125 32.3625 1.43438C32.4656 1.06875 32.7 1.04062 32.8781 1.06875C33.0656 1.09687 33.2813 1.30313 33.2344 1.56563C33.1406 2.0625 32.7469 4.05937 31.9781 5.93437V5.93437ZM33.0094 6.14062C33.1781 4.15312 33.6938 2.03438 33.8344 1.6875C33.975 1.34062 34.2094 1.33125 34.3781 1.36875C34.5656 1.41563 34.7531 1.63125 34.6875 1.89375C34.5375 2.37188 33.9656 4.33125 33.0188 6.14062H33.0094ZM34.0313 6.44062C34.3969 4.47187 35.1094 2.4 35.2781 2.0625C35.4563 1.73438 35.6813 1.73438 35.8594 1.79063C36.0281 1.84688 36.2063 2.09062 36.1125 2.33437C35.5478 3.76481 34.8511 5.13951 34.0313 6.44062V6.44062ZM34.9781 6.79688C35.5219 4.85625 36.4313 2.85938 36.6375 2.53125C36.8438 2.2125 37.0688 2.24063 37.2375 2.31563C37.4063 2.38125 37.5563 2.63438 37.4344 2.87813C37.2 3.32813 36.2625 5.16563 34.9781 6.79688ZM35.9156 7.2375C36.4732 5.80428 37.1637 4.4264 37.9781 3.12187C38.2031 2.82187 38.4375 2.86875 38.5969 2.95312C38.6441 2.98107 38.6852 3.01814 38.7179 3.06217C38.7506 3.10619 38.7742 3.1563 38.7872 3.20954C38.8003 3.26279 38.8027 3.31811 38.7941 3.37228C38.7856 3.42644 38.7664 3.47836 38.7375 3.525C38.4563 3.95625 37.3406 5.71875 35.9156 7.2375ZM36.7969 7.75312C37.7063 5.93437 38.9813 4.09688 39.2438 3.81563C39.5063 3.53438 39.7313 3.6 39.8813 3.69375C39.926 3.72543 39.964 3.76571 39.993 3.81223C40.022 3.85875 40.0414 3.91059 40.0501 3.9647C40.0588 4.01882 40.0567 4.07413 40.0438 4.12741C40.0309 4.18069 40.0075 4.23086 39.975 4.275C39.6469 4.6875 38.3625 6.34687 36.7875 7.74375L36.7969 7.75312ZM37.6219 8.33438C38.7094 6.59063 40.1531 4.86563 40.4438 4.6125C40.725 4.35 40.95 4.425 41.0906 4.5375C41.1316 4.57319 41.165 4.6168 41.1887 4.66571C41.2125 4.71462 41.226 4.76783 41.2287 4.82213C41.2313 4.87642 41.2229 4.93069 41.204 4.98167C41.1851 5.03264 41.1561 5.07927 41.1188 5.11875C40.7625 5.50312 39.3281 7.05938 37.6219 8.33438ZM38.4 8.98125C39.3511 7.72738 40.4115 6.56031 41.5688 5.49375C41.8781 5.25937 42.0844 5.35312 42.2156 5.46562C42.2545 5.50526 42.2848 5.55249 42.3045 5.60436C42.3243 5.65623 42.3331 5.71163 42.3305 5.76708C42.3279 5.82253 42.3138 5.87683 42.2892 5.92659C42.2646 5.97635 42.23 6.02049 42.1875 6.05625C41.8031 6.4125 40.2188 7.84688 38.4 8.98125ZM39.1125 9.68438C40.175 8.50886 41.3423 7.43254 42.6 6.46875C42.9375 6.25313 43.1344 6.36563 43.2563 6.49688C43.3688 6.61875 43.3969 6.90938 43.1625 7.07812C41.888 8.05886 40.5332 8.93068 39.1125 9.68438V9.68438ZM39.7219 10.4156C40.894 9.32447 42.1581 8.33643 43.5 7.4625C43.8469 7.275 44.0344 7.40625 44.1375 7.54688C44.25 7.67812 44.2406 7.96875 44.0063 8.11875C43.5563 8.4 41.7281 9.58125 39.7219 10.4156V10.4156ZM40.275 11.1938C41.5428 10.2046 42.8913 9.32334 44.3063 8.55938C44.6813 8.4 44.8594 8.54062 44.9531 8.68125C45.0469 8.83125 45.0094 9.1125 44.7656 9.24375C43.3212 10.0152 41.8162 10.6673 40.2656 11.1938H40.275ZM40.7813 12.0938C42.1468 11.2139 43.583 10.4487 45.075 9.80625C45.4594 9.675 45.6188 9.83437 45.6938 9.98438C45.7781 10.1344 45.7219 10.4156 45.45 10.5281C44.9531 10.7344 42.9188 11.5969 40.7813 12.0938ZM41.175 12.9562C42.6193 12.1845 44.1243 11.5323 45.675 11.0063C46.0688 10.9125 46.2094 11.0813 46.275 11.2406C46.3313 11.3906 46.2469 11.6719 45.975 11.7563C45.4594 11.9344 43.35 12.6281 41.175 12.9562ZM41.4938 13.875C43.0046 13.2214 44.566 12.6916 46.1625 12.2906C46.5563 12.2344 46.6875 12.4031 46.7344 12.5719C46.7813 12.7313 46.6688 12.9937 46.3875 13.0687C45.8531 13.1906 43.6875 13.725 41.4938 13.875V13.875ZM28.8563 5.8125C28.4115 4.36379 28.107 2.8757 27.9469 1.36875C27.9469 1.00313 28.1625 0.91875 28.3406 0.9C28.5281 0.890625 28.8094 1.04062 28.8281 1.30312C28.875 1.8 29.0719 3.825 28.8656 5.8125H28.8563ZM27.825 5.93437C27.2386 4.53111 26.7896 3.07429 26.4844 1.58437C26.4469 1.20937 26.6531 1.11563 26.8313 1.0875C27.0188 1.05938 27.3 1.18125 27.3563 1.44375C27.6495 2.92314 27.8064 4.42631 27.825 5.93437V5.93437ZM26.7938 6.14062C26.0738 4.78694 25.4837 3.3681 25.0313 1.90312C24.9563 1.5375 25.1531 1.425 25.3313 1.37812C25.5094 1.34062 25.8 1.43438 25.8844 1.69688C26.025 2.175 26.6063 4.13438 26.7844 6.13125L26.7938 6.14062ZM25.8094 6.42188C24.9717 5.13187 24.2561 3.76659 23.6719 2.34375C23.5688 1.9875 23.7469 1.85625 23.9156 1.8C24.0938 1.74375 24.3938 1.81875 24.4969 2.0625C24.6844 2.53125 25.4531 4.44375 25.8094 6.4125V6.42188ZM24.8625 6.75C23.9016 5.53326 23.0543 4.23093 22.3313 2.85938C22.2 2.5125 22.3688 2.3625 22.5375 2.29688C22.7063 2.22187 23.0063 2.27812 23.1375 2.52187C23.3719 2.97187 24.3094 4.81875 24.8625 6.75ZM23.8969 7.21875C22.8188 6.08429 21.8461 4.85424 20.9906 3.54375C20.8313 3.21562 20.9813 3.05625 21.1406 2.97188C21.3 2.8875 21.6094 2.91562 21.7594 3.15C22.0406 3.58125 23.1656 5.33437 23.8969 7.21875ZM23.0156 7.725C21.8381 6.67576 20.7558 5.5244 19.7813 4.28438C19.5844 3.96563 19.7156 3.79688 19.875 3.69375C20.0156 3.6 20.3438 3.6 20.5031 3.825C20.8219 4.22812 22.1063 5.8875 23.0156 7.71563V7.725ZM22.2 8.2875C20.9255 7.33339 19.7367 6.26999 18.6469 5.10938C18.4219 4.80937 18.5438 4.64062 18.6844 4.52812C18.7835 4.46672 18.9005 4.44071 19.0162 4.45433C19.132 4.46795 19.2398 4.5204 19.3219 4.60312C19.6781 4.97812 21.1219 6.54375 22.2 8.2875ZM21.4031 8.94375C20.0419 8.09609 18.756 7.13318 17.5594 6.06562C17.2969 5.78437 17.4 5.59688 17.5313 5.475C17.6261 5.40509 17.742 5.36975 17.8597 5.37487C17.9774 5.37998 18.0897 5.42525 18.1781 5.50313C18.5719 5.85 20.1469 7.28438 21.4031 8.93438V8.94375ZM20.7094 9.6C19.274 8.86034 17.9036 8.00105 16.6125 7.03125C16.3313 6.76875 16.4156 6.58125 16.5375 6.45C16.65 6.31875 16.9594 6.25313 17.1844 6.42188C18.4496 7.38018 19.629 8.4467 20.7094 9.60938V9.6ZM20.0531 10.3687C18.55 9.74635 17.1013 9.00003 15.7219 8.1375C15.4125 7.90313 15.4781 7.69687 15.5813 7.56562C15.6844 7.425 15.9844 7.33125 16.2281 7.48125C16.6781 7.77188 18.5063 8.93437 20.0531 10.3687ZM19.4625 11.1938C17.3813 10.5375 15.2531 9.54375 14.925 9.32812C14.5875 9.12187 14.6438 8.91563 14.7281 8.76562C14.8125 8.61562 15.1031 8.50312 15.3656 8.63437C15.8344 8.8875 17.7844 9.9 19.4625 11.1938V11.1938ZM18.9656 12.0375C16.8281 11.5406 14.625 10.725 14.2688 10.5375C13.9219 10.35 13.9406 10.1437 14.025 9.99375C14.1 9.84375 14.3719 9.70312 14.6438 9.80625C15.1406 10.0219 17.175 10.875 18.9656 12.0375ZM18.5719 12.8812C16.9375 12.63 15.3261 12.2475 13.7531 11.7375C13.3781 11.5875 13.3969 11.3719 13.4531 11.2219C13.5188 11.0625 13.7813 10.9031 14.0531 10.9875C14.5781 11.1656 16.6781 11.8594 18.5719 12.8812Z" fill="#F31509"/>
<path fill-rule="evenodd" clip-rule="evenodd" d="M18.2344 13.8187C16.58 13.706 14.9373 13.4615 13.3219 13.0874C12.9375 12.9656 12.9188 12.7499 12.9656 12.5906C13.0125 12.4312 13.2563 12.2531 13.5469 12.3093C14.0719 12.4406 16.2469 12.9656 18.2344 13.8187V13.8187Z" fill="#F31509"/>
<path fill-rule="evenodd" clip-rule="evenodd" d="M12.1313 13.2656H47.8688V14.4469H12.1313V13.2656Z" fill="black"/>
</g>
<defs>
<clipPath id="clip0_4_192">
<rect width="60" height="45" fill="white"/>
</clipPath>
</defs>
</svg>
