<svg width="60" height="45" viewBox="0 0 60 45" fill="none" xmlns="http://www.w3.org/2000/svg">
<g clip-path="url(#clip0_4_5799)">
<path fill-rule="evenodd" clip-rule="evenodd" d="M0 0H59.9906V45H0V0Z" fill="#3B5AA3"/>
<path fill-rule="evenodd" clip-rule="evenodd" d="M0 43.7812L59.9906 0V8.15625L0 45V43.7812Z" fill="#E2AE57"/>
<path fill-rule="evenodd" clip-rule="evenodd" d="M2.1 45L60 16.8L59.9906 7.84692L0 45H2.1ZM16.4437 1.42505L15.8438 11.0625L13.3125 4.91255L14.2875 11.4563L10.3594 6.1688L12.9375 12.1969L7.78125 8.20317L11.7938 13.2282L5.97188 10.6407L11.0719 14.5032L4.725 13.6594L10.725 16.0407L1.3125 16.9032L10.7437 17.5313L4.77188 19.9875L11.0531 19.1438L5.9625 22.8938L11.8687 20.3063L7.8375 25.3688L12.9562 21.4969L10.425 27.3938L14.5125 22.2657L13.4062 28.65L15.9844 22.6782L16.5656 32.1188L17.475 22.7063L19.6969 28.7063L18.8531 22.2375L22.9219 27.375L20.2406 21.375L25.3594 25.5L21.2906 20.3532L27.375 22.8844L21.9938 18.9563L28.5469 20.0625L22.2656 17.6532L32.025 17.0438L22.275 16.1344L28.6969 13.9969L22.0406 14.8407L27.5344 10.9969L21.3469 13.4813L25.6219 8.29692L20.4094 12.3657L22.9125 6.14067L18.8719 11.4282L19.7438 4.82817L17.3344 11.0625L16.4344 1.42505H16.4437Z" fill="white"/>
</g>
<defs>
<clipPath id="clip0_4_5799">
<rect width="60" height="45" fill="white"/>
</clipPath>
</defs>
</svg>
