<svg width="60" height="45" viewBox="0 0 60 45" fill="none" xmlns="http://www.w3.org/2000/svg">
<g clip-path="url(#clip0_4_643)">
<path fill-rule="evenodd" clip-rule="evenodd" d="M0 0H19.9969V45H0V0Z" fill="#00319C"/>
<path fill-rule="evenodd" clip-rule="evenodd" d="M19.9969 0H40.0031V45H19.9969V0Z" fill="#FFDE00"/>
<path fill-rule="evenodd" clip-rule="evenodd" d="M40.0031 0H60V45H40.0031V0Z" fill="#DE2110"/>
<path fill-rule="evenodd" clip-rule="evenodd" d="M33.7875 30.0375L36.0562 33.3187C36.1875 33.5062 36.3094 33.6844 36.1219 33.8062C35.9344 33.9281 35.9906 34.4062 36.1219 34.5937C36.375 34.9594 36.6844 35.0156 36.8719 34.8937L38.5969 33.8062C38.7844 33.6937 38.85 33.3844 38.5969 33.0187C38.4562 32.8312 38.0344 32.5969 37.8469 32.7187C37.65 32.8406 37.5187 32.6531 37.3969 32.475L35.1187 29.1937" fill="#FF1900"/>
<path fill-rule="evenodd" clip-rule="evenodd" d="M35.1457 29.175L37.4239 32.4565C37.4858 32.5468 37.5459 32.6331 37.6133 32.683C37.6462 32.7075 37.6791 32.7218 37.7131 32.7244C37.7468 32.727 37.785 32.7184 37.8293 32.691C37.8849 32.655 37.955 32.647 38.0271 32.6553C38.0997 32.6635 38.1778 32.6886 38.2531 32.7229C38.4029 32.7912 38.5486 32.8997 38.6231 32.9991L38.6239 33.0001C38.8817 33.3725 38.8253 33.7072 38.6141 33.8342L36.8897 34.9213C36.8897 34.9213 36.8896 34.9214 36.8896 34.9214C36.681 35.0568 36.3533 34.9856 36.0949 34.6125C36.0246 34.5119 35.9767 34.3388 35.9696 34.1769C35.9659 34.0954 35.9725 34.0145 35.9928 33.9451C36.0131 33.876 36.0481 33.8151 36.104 33.7788C36.1463 33.7512 36.1683 33.7225 36.1782 33.6942C36.1882 33.6656 36.1875 33.6333 36.177 33.596C36.1554 33.5193 36.0961 33.4329 36.0294 33.3376L36.0292 33.3374L33.7605 30.0562L33.8145 30.0189L36.0831 33.2999C36.0831 33.3 36.0831 33.2999 36.0831 33.2999C36.1477 33.3921 36.2149 33.4885 36.2402 33.5782C36.2531 33.6241 36.2559 33.6709 36.2401 33.7159C36.2243 33.7611 36.1911 33.8004 36.1397 33.8338C36.1019 33.8584 36.0736 33.9029 36.0558 33.9636C36.0381 34.024 36.0317 34.0972 36.0351 34.1739C36.042 34.3284 36.0879 34.488 36.1487 34.5749L36.1488 34.5751C36.3967 34.9331 36.6875 34.9744 36.854 34.8663L36.8544 34.866L38.58 33.7781C38.7434 33.6801 38.8181 33.3963 38.5702 33.038C38.504 32.9499 38.3687 32.8477 38.2258 32.7826C38.1546 32.7501 38.0833 32.7277 38.0197 32.7205C37.9557 32.7132 37.9028 32.7215 37.8647 32.7463L37.8641 32.7467C37.8101 32.7801 37.7582 32.7937 37.7081 32.7899C37.6584 32.786 37.6139 32.7652 37.5742 32.7357C37.4963 32.6779 37.4299 32.5814 37.3699 32.4937C37.3698 32.4936 37.3698 32.4936 37.3698 32.4935L35.0918 29.2125L35.1457 29.175Z" fill="black"/>
<path fill-rule="evenodd" clip-rule="evenodd" d="M34.678 27.7246C35.6927 28.8772 36.0457 30.1987 35.4673 30.6636C34.889 31.1285 33.5869 30.57 32.5722 29.4174C31.5575 28.2648 31.2094 26.9394 31.7878 26.4745C32.3661 26.0095 33.6641 26.5634 34.6829 27.7207L34.678 27.7246Z" fill="#A77B3B"/>
<path fill-rule="evenodd" clip-rule="evenodd" d="M31.6608 27.6696C31.7988 28.1896 32.1327 28.7988 32.6337 29.368C33.1349 29.9372 33.7047 30.3569 34.216 30.5767C34.7332 30.7991 35.163 30.8071 35.4152 30.6044C35.6673 30.4017 35.7327 29.9957 35.5919 29.4707C35.4528 28.9517 35.1176 28.3434 34.6165 27.7741L34.5643 27.7149L34.5688 27.7112C34.0787 27.1697 33.5307 26.7713 33.0376 26.5597C32.5211 26.3379 32.0923 26.331 31.84 26.5338C31.5877 26.7366 31.5213 27.1437 31.6608 27.6696ZM34.7913 27.7348L34.7967 27.7305L34.7445 27.6712C34.2289 27.0856 33.6403 26.6496 33.1028 26.4188C32.571 26.1906 32.0617 26.1531 31.7356 26.4152C31.4095 26.6773 31.3608 27.1654 31.5044 27.7066C31.6496 28.2537 31.997 28.8835 32.5106 29.4669C33.0242 30.0503 33.6128 30.4862 34.1508 30.7175C34.6829 30.9463 35.1933 30.9851 35.5195 30.7229C35.8457 30.4607 35.893 29.9735 35.7482 29.4334C35.6068 28.9058 35.2766 28.3011 34.7913 27.7348Z" fill="black"/>
<path fill-rule="evenodd" clip-rule="evenodd" d="M24.5625 28.6969L22.5469 32.1375C22.4344 32.325 22.3219 32.5125 22.125 32.4188C21.9281 32.3063 21.5063 32.5781 21.3938 32.775C21.1688 33.15 21.2531 33.45 21.4594 33.5625L23.2594 34.5188C23.4469 34.6219 23.7656 34.5375 23.9906 34.1625C24.0938 33.9563 24.1219 33.4781 23.925 33.375C23.7281 33.2719 23.8313 33.075 23.9531 32.8875L25.9594 29.4469" fill="#FF1900"/>
<path fill-rule="evenodd" clip-rule="evenodd" d="M22.5187 32.1206L24.5342 28.6803L24.5908 28.7135L22.5752 32.1541L22.575 32.1544L22.5731 32.1575C22.5183 32.2489 22.4599 32.3463 22.3892 32.4083C22.3528 32.4402 22.3115 32.4643 22.264 32.473C22.2162 32.4818 22.1653 32.4743 22.1109 32.4484L22.1098 32.4479L22.1087 32.4472C22.0688 32.4245 22.0144 32.4195 21.9494 32.4315C21.8849 32.4435 21.8135 32.4715 21.7434 32.5097C21.6023 32.5866 21.4744 32.7001 21.4222 32.7913L21.4219 32.7919C21.3122 32.9747 21.2799 33.136 21.2973 33.2627C21.3147 33.3889 21.3816 33.4826 21.4749 33.5336C21.475 33.5336 21.475 33.5337 21.4751 33.5337L23.2752 34.49C23.4405 34.5809 23.7415 34.5131 23.9618 34.1467C24.01 34.0495 24.0421 33.8848 24.0375 33.7311C24.0352 33.6542 24.0238 33.5822 24.0021 33.5241C23.9802 33.4657 23.9492 33.4247 23.9098 33.4041C23.8556 33.3757 23.819 33.3392 23.7992 33.2951C23.7796 33.2514 23.7782 33.204 23.7873 33.1567C23.805 33.0642 23.8647 32.9633 23.9252 32.8703L25.931 29.4304L25.9877 29.4634L23.9811 32.9047L23.9806 32.9054C23.9193 32.9997 23.8668 33.0907 23.8517 33.1691C23.8444 33.2074 23.8465 33.2402 23.8591 33.2683C23.8716 33.296 23.896 33.3228 23.9402 33.3459C23.9992 33.3769 24.0385 33.4343 24.0635 33.501C24.0886 33.568 24.1007 33.6477 24.1031 33.7291C24.1079 33.8912 24.0746 34.068 24.02 34.1772L24.0194 34.1783L24.0187 34.1794C23.7892 34.562 23.4533 34.6627 23.2438 34.5476C23.2437 34.5476 23.2436 34.5475 23.2435 34.5475L21.444 33.5915L21.4436 33.5913C21.3308 33.5298 21.2524 33.4173 21.2323 33.2717C21.2123 33.1266 21.2503 32.9505 21.3654 32.7584C21.4259 32.6529 21.565 32.5321 21.712 32.4521C21.7861 32.4117 21.8641 32.3806 21.9375 32.367C22.0101 32.3536 22.0818 32.3568 22.1401 32.3896C22.1837 32.4102 22.2203 32.4143 22.2522 32.4085C22.2847 32.4025 22.3155 32.3856 22.3459 32.3589C22.408 32.3045 22.4615 32.2159 22.5186 32.1208C22.5187 32.1207 22.5187 32.1207 22.5187 32.1206Z" fill="black"/>
<path fill-rule="evenodd" clip-rule="evenodd" d="M31.05 26.3063H29.2125C29.1563 26.3625 28.6313 29.6438 28.0688 30.9C27.3844 32.4282 25.3313 33.7782 25.3313 33.7782C25.3313 33.7782 26.5594 34.1532 26.925 34.3969C27.0188 34.3688 28.9875 33.9563 29.2125 31.5563C29.4375 33.9563 27.8438 35.0532 27.8438 35.0532C27.8438 35.0532 30.1313 35.7094 30.1313 37.2375C30.1313 35.7094 32.4188 35.0532 32.4188 35.0532C32.4188 35.0532 31.275 33.9563 31.0406 31.5563C31.5094 33.9563 33.2438 34.3688 33.3375 34.3969C33.7031 34.1532 34.9313 33.7782 34.9313 33.7782C34.9313 33.7782 32.8781 32.4282 32.1938 30.9C31.6313 29.6438 31.1063 26.3625 31.05 26.3063V26.3063ZM23.2688 15.3657L26.7 16.4625C27.8344 16.4625 28.9875 15.3657 28.9875 14.2688C29.025 11.8313 28.0688 10.9875 27.8438 10.9875L28.2938 10.5563L27.6094 9.90003C27.6094 9.90003 27.8438 8.76566 30.1313 8.80316C32.4188 8.85003 32.4188 9.90003 32.4188 10.9875C32.4188 12.075 31.275 12.0844 31.275 14.2688C31.275 15.3657 32.4188 16.4625 33.5625 16.4625L36.9938 15.3657V26.3063H23.2594V15.3657H23.2688Z" fill="#A77B3B"/>
<path fill-rule="evenodd" clip-rule="evenodd" d="M27.6997 9.87617L28.4089 10.5563L27.9922 10.9556C27.9945 10.957 27.9969 10.9583 27.9993 10.9597C28.0536 10.9915 28.1143 11.0383 28.1782 11.1003C28.3061 11.2244 28.4505 11.4135 28.5851 11.6779C28.8545 12.2071 29.086 13.0405 29.0672 14.2694C29.067 14.8449 28.7653 15.4127 28.3242 15.8345C27.8828 16.2567 27.292 16.5422 26.7 16.5422H26.6876L23.3391 15.4718V26.2266H36.9141V15.4748L33.5749 16.5422H33.5625C32.9659 16.5422 32.3751 16.2568 31.9347 15.8345C31.4945 15.4123 31.1953 14.8443 31.1953 14.2688C31.1953 13.1587 31.4872 12.5946 31.7814 12.1713C31.8334 12.0966 31.8843 12.0274 31.933 11.9612C32.1607 11.6517 32.3391 11.4093 32.3391 10.9875C32.3391 10.4368 32.3363 9.93079 32.0678 9.5511C31.8039 9.1781 31.2648 8.90609 30.1298 8.8828C28.9993 8.8643 28.3888 9.13538 28.0626 9.39944C27.8991 9.53179 27.8049 9.66409 27.7517 9.76152C27.7256 9.80937 27.7093 9.84896 27.6997 9.87617ZM30.992 26.3859H29.2705C29.2644 26.4108 29.257 26.4439 29.2482 26.4849C29.2275 26.5817 29.2003 26.7188 29.1673 26.8865C29.1609 26.9193 29.1542 26.9533 29.1473 26.9884C29.0839 27.3111 29.0026 27.7251 28.9084 28.1696C28.7002 29.1524 28.4268 30.2953 28.1415 30.9326C27.7921 31.7127 27.0971 32.4414 26.4961 32.9719C26.1946 33.238 25.9147 33.4559 25.7102 33.6074C25.6318 33.6654 25.5645 33.7136 25.5112 33.7512C25.5246 33.7554 25.5386 33.7599 25.5533 33.7647C25.6746 33.8038 25.8403 33.8585 26.0175 33.9209C26.1946 33.9833 26.3839 34.0536 26.5524 34.1238C26.7029 34.1866 26.8408 34.2509 26.9385 34.3109C27.0717 34.276 27.5146 34.1516 27.9711 33.8027C28.4872 33.4083 29.0229 32.7246 29.1332 31.5488H29.2918C29.4062 32.769 29.0581 33.6608 28.6795 34.2479C28.4904 34.541 28.2941 34.7578 28.1445 34.9017C28.0937 34.9506 28.0482 34.9911 28.0102 35.0233C28.0693 35.0438 28.1443 35.0711 28.2307 35.1055C28.448 35.1921 28.7384 35.3238 29.0295 35.5046C29.481 35.7849 29.9487 36.1926 30.1312 36.743C30.3138 36.1926 30.7815 35.7849 31.233 35.5046C31.524 35.3238 31.8145 35.1921 32.0318 35.1055C32.1296 35.0666 32.2128 35.0367 32.275 35.0156C32.2467 34.9833 32.2126 34.9427 32.1739 34.8937C32.0605 34.7502 31.9077 34.5344 31.7477 34.243C31.4278 33.6602 31.0796 32.7756 30.9613 31.564L31.1188 31.541C31.3495 32.7219 31.8899 33.4087 32.3797 33.804C32.8087 34.1502 33.2017 34.2753 33.3247 34.3105C33.4224 34.2506 33.5599 34.1864 33.7101 34.1238C33.8786 34.0536 34.0679 33.9833 34.245 33.9209C34.4222 33.8585 34.5879 33.8038 34.7092 33.7647C34.7239 33.7599 34.7379 33.7554 34.7513 33.7512C34.698 33.7136 34.6307 33.6654 34.5523 33.6074C34.3478 33.4559 34.0679 33.238 33.7664 32.9719C33.1654 32.4414 32.4704 31.7127 32.121 30.9326C31.8357 30.2953 31.5623 29.1524 31.3541 28.1696C31.2599 27.7251 31.1785 27.3111 31.1152 26.9883C31.1083 26.9533 31.1016 26.9193 31.0952 26.8865C31.0622 26.7188 31.035 26.5817 31.0143 26.4849C31.0055 26.4439 30.9981 26.4108 30.992 26.3859ZM32.4739 34.9957L32.5739 35.0915L32.4405 35.1298L32.4394 35.1301L32.4349 35.1314C32.4309 35.1326 32.4247 35.1345 32.4166 35.137C32.4004 35.142 32.3764 35.1496 32.3457 35.1599C32.2844 35.1804 32.1965 35.2115 32.0908 35.2536C31.8792 35.3378 31.5978 35.4656 31.317 35.64C30.7508 35.9916 30.2109 36.5169 30.2109 37.2375H30.0516C30.0516 36.5169 29.5117 35.9916 28.9455 35.64C28.6647 35.4656 28.3833 35.3378 28.1717 35.2536C28.066 35.2115 27.9781 35.1804 27.9168 35.1599C27.8861 35.1496 27.8621 35.142 27.8459 35.137C27.8378 35.1345 27.8316 35.1326 27.8276 35.1314L27.8231 35.1301L27.822 35.1298L27.8218 35.1297L27.6595 35.0832L27.7985 34.9875L27.7986 34.9875L27.7992 34.9871L27.802 34.9851C27.8046 34.9832 27.8087 34.9802 27.8141 34.9762C27.8249 34.9682 27.8411 34.9559 27.8619 34.9392C27.9033 34.9059 27.9629 34.8552 28.034 34.7868C28.1763 34.65 28.3643 34.4426 28.5455 34.1615C28.8217 33.7333 29.0828 33.1333 29.1421 32.3491C28.913 33.112 28.4866 33.6093 28.0679 33.9293C27.5638 34.3146 27.0728 34.4409 26.9662 34.4684C26.9574 34.4706 26.9512 34.4722 26.9479 34.4732L26.912 34.484L26.8808 34.4632C26.7963 34.4068 26.6571 34.3401 26.4911 34.2709C26.3264 34.2023 26.1402 34.1331 25.9645 34.0713C25.789 34.0095 25.6248 33.9552 25.5044 33.9164C25.4442 33.897 25.395 33.8814 25.3609 33.8708C25.3439 33.8654 25.3306 33.8613 25.3216 33.8585L25.3114 33.8554L25.3088 33.8546L25.3082 33.8544L25.308 33.8544L25.1457 33.8048L25.2875 33.7115L25.2877 33.7114L25.2888 33.7107L25.293 33.7079C25.2968 33.7054 25.3024 33.7016 25.3099 33.6965C25.3248 33.6865 25.3469 33.6714 25.3754 33.6517C25.4322 33.6122 25.5145 33.554 25.6153 33.4793C25.8171 33.3299 26.0933 33.1148 26.3906 32.8524C26.9873 32.3258 27.661 31.6155 27.996 30.8674C28.2732 30.2484 28.5436 29.1226 28.7525 28.1366C28.8465 27.6933 28.9276 27.2804 28.9909 26.9576C28.9978 26.9226 29.0045 26.8886 29.011 26.8557C29.0439 26.6883 29.0713 26.5499 29.0923 26.4516C29.0975 26.4275 29.1023 26.4055 29.1068 26.3859H23.1797V15.2859H23.2812L26.7123 16.3828C27.2507 16.3788 27.7985 16.1168 28.2141 15.7194C28.633 15.3187 28.9078 14.7899 28.9078 14.2688V14.2675C28.9264 13.0592 28.6986 12.2522 28.443 11.7502C28.3152 11.499 28.1807 11.3248 28.0671 11.2146C28.0103 11.1594 27.9597 11.1212 27.9188 11.0973C27.8756 11.0721 27.8509 11.0672 27.8437 11.0672H27.6454L28.1786 10.5562L27.5224 9.92703L27.5313 9.88388L27.6094 9.90001C27.5313 9.88388 27.5314 9.8838 27.5314 9.88372L27.5314 9.88353L27.5315 9.88308L27.5318 9.88186C27.532 9.88092 27.5323 9.87969 27.5326 9.87821C27.5333 9.87524 27.5343 9.87122 27.5357 9.86621C27.5385 9.85619 27.5426 9.84223 27.5487 9.82491C27.5609 9.79027 27.5807 9.74214 27.6118 9.68517C27.6741 9.57107 27.7813 9.42213 27.9624 9.27557C28.3252 8.98183 28.9756 8.70449 30.1326 8.72345L30.1329 8.72346C31.2852 8.74707 31.8898 9.02349 32.1979 9.45907C32.4985 9.88412 32.4985 10.4406 32.4984 10.9731V10.9875C32.4984 11.4656 32.2851 11.7541 32.0541 12.0665C32.007 12.1302 31.9592 12.1948 31.9123 12.2623C31.6347 12.6617 31.3547 13.1944 31.3547 14.2688C31.3547 14.7901 31.6274 15.3189 32.045 15.7194C32.4593 16.1168 33.0071 16.3789 33.5502 16.3828L37.0734 15.2565V26.3859H31.1557C31.1602 26.4055 31.165 26.4275 31.1702 26.4516C31.1912 26.5499 31.2186 26.6883 31.2515 26.8557C31.258 26.8886 31.2647 26.9226 31.2716 26.9577C31.335 27.2805 31.416 27.6933 31.51 28.1366C31.7189 29.1226 31.9893 30.2484 32.2665 30.8674C32.6015 31.6155 33.2752 32.3258 33.8719 32.8524C34.1692 33.1148 34.4454 33.3299 34.6472 33.4793C34.748 33.554 34.8303 33.6122 34.8871 33.6517C34.9156 33.6714 34.9377 33.6865 34.9526 33.6965C34.9601 33.7016 34.9657 33.7054 34.9695 33.7079L34.9737 33.7107L34.9748 33.7114L34.975 33.7115L35.1168 33.8048L34.9545 33.8543L34.9543 33.8544L34.9537 33.8546L34.9511 33.8554L34.9409 33.8585C34.9319 33.8613 34.9186 33.8654 34.9016 33.8708C34.8675 33.8814 34.8183 33.897 34.7581 33.9164C34.6377 33.9552 34.4735 34.0095 34.298 34.0713C34.1223 34.1331 33.9361 34.2023 33.7714 34.2709C33.6054 34.3401 33.4662 34.4068 33.3817 34.4632L33.3505 34.484L33.3146 34.4732C33.3118 34.4724 33.3076 34.4712 33.3019 34.4696C33.2116 34.4445 32.7663 34.3208 32.2796 33.928C31.9408 33.6546 31.5836 33.2523 31.3103 32.6655C31.468 33.2984 31.6842 33.7962 31.8874 34.1663C32.0427 34.4492 32.1905 34.6577 32.2989 34.7948C32.3531 34.8634 32.3974 34.9142 32.4279 34.9475C32.4432 34.9642 32.455 34.9765 32.4628 34.9845C32.4667 34.9885 32.4696 34.9914 32.4715 34.9933L32.4735 34.9952L32.4739 34.9957ZM27.6873 9.91652C27.6873 9.91659 27.6873 9.91658 27.6873 9.91652Z" fill="black"/>
<path fill-rule="evenodd" clip-rule="evenodd" d="M28.9845 15.7836L29.2146 16.4469L29.6728 15.7889L29.8943 16.4754L30.1275 15.7863L30.4663 16.4816L30.8159 15.7867L31.043 16.4413L31.2665 15.8013L31.2789 15.8056L31.0429 16.4811L30.8136 15.8202L30.4661 16.511L30.1297 15.8207L29.894 16.5172L29.6684 15.8181L29.2107 16.4755L28.9844 15.8234L28.7547 16.4811L28.5203 15.8056L28.5327 15.8013L28.7547 16.4413L28.9845 15.7836Z" fill="black"/>
<path fill-rule="evenodd" clip-rule="evenodd" d="M28.9798 15.8072L29.4384 13.3998L29.4509 13.4021L28.9922 15.8095L28.9798 15.8072ZM30.8078 15.8089L30.5818 13.4016L30.5943 13.4004L30.8204 15.8078L30.8078 15.8089ZM31.2665 15.8089L31.0404 13.4016L31.053 13.4004L31.2791 15.8078L31.2665 15.8089ZM29.6644 15.8083V13.401H29.6771V15.8083H29.6644ZM30.1231 15.8083V13.401H30.1357V15.8083H30.1231Z" fill="black"/>
<path fill-rule="evenodd" clip-rule="evenodd" d="M20.9683 8.80847C18.6815 9.90105 18.6815 12.0924 18.6815 13.185C18.7591 14.1788 18.6815 35.0551 18.6815 35.0551C18.6815 35.0551 18.8301 33.8206 19.8249 32.87L20.9619 31.7774L22.1053 30.6848C22.945 29.9564 23.2487 28.4935 23.2487 27.4009V12.0924C23.2487 12.0924 23.2487 10.9936 20.9619 8.80847H20.9683Z" fill="#A77B3B"/>
<path fill-rule="evenodd" clip-rule="evenodd" d="M20.9815 8.78783L20.9683 8.72949H20.765L20.8279 8.78961C18.6026 9.92009 18.6026 12.1057 18.6026 13.1804V13.188L18.6028 13.1911C18.6219 13.4356 18.6317 14.9219 18.6353 17.0215C18.6389 19.1183 18.6365 21.8209 18.6317 24.4925C18.6268 27.1642 18.6196 29.8047 18.6135 31.7774C18.6105 32.7637 18.6077 33.5831 18.6058 34.1558C18.6048 34.4422 18.604 34.667 18.6035 34.8201L18.6026 35.0546C18.6026 35.0547 18.6026 35.0548 18.6815 35.0551L18.6026 35.0548L18.7594 35.0645C18.7599 35.0646 18.7599 35.0646 18.7599 35.0646L18.76 35.0641L18.7602 35.0618C18.7605 35.0598 18.761 35.0565 18.7616 35.0522C18.7628 35.0435 18.7648 35.0305 18.7677 35.0133C18.7735 34.979 18.7829 34.9285 18.7973 34.8647C18.8261 34.7371 18.8748 34.5567 18.954 34.3469C19.1126 33.927 19.3929 33.3919 19.8795 32.927L19.8796 32.9268L21.0164 31.8344L21.0166 31.8343L22.1584 30.7431C22.593 30.3655 22.8844 29.8027 23.0674 29.2024C23.2509 28.6005 23.3276 27.9537 23.3276 27.4008V12.0923H23.2486C23.3276 12.0923 23.3276 12.0923 23.3276 12.0922L23.3276 12.092L23.3276 12.0915L23.3276 12.0903C23.3275 12.0893 23.3275 12.0881 23.3275 12.0866C23.3274 12.0836 23.3272 12.0795 23.3269 12.0743C23.3262 12.0641 23.3249 12.0495 23.3224 12.0307C23.3175 11.993 23.308 11.9383 23.2893 11.8666C23.2519 11.7232 23.1782 11.512 23.0328 11.2333C22.742 10.676 22.1644 9.84832 21.0164 8.75136L20.9815 8.78783ZM20.9491 8.90551C18.7657 9.98239 18.7605 12.0945 18.7605 13.1819C18.78 13.4433 18.7896 14.9356 18.7932 17.0213C18.7968 19.1183 18.7944 21.8212 18.7895 24.4928C18.7847 27.1645 18.7774 29.8052 18.7714 31.7779C18.7683 32.7642 18.7656 33.5836 18.7636 34.1564C18.7633 34.248 18.763 34.3332 18.7628 34.4119C18.7762 34.3728 18.7907 34.3325 18.8063 34.2911C18.9707 33.8561 19.2621 33.2986 19.7703 32.8129C19.7703 32.8129 19.7704 32.8129 19.7704 32.8129" fill="black"/>
<path fill-rule="evenodd" clip-rule="evenodd" d="M22.1123 11.9825L20.9683 13.0757L19.8249 11.9831L18.627 13.1278L18.736 13.242L19.8249 12.2015L20.9683 13.2941L22.1111 12.2021C22.1413 12.2315 22.1826 12.2719 22.2316 12.3196C22.3369 12.4221 22.4774 12.5587 22.6188 12.6954C22.7602 12.832 22.9026 12.9688 23.0113 13.0716C23.0656 13.1229 23.1119 13.166 23.1456 13.1965C23.1623 13.2116 23.1766 13.2242 23.1875 13.2333C23.1927 13.2377 23.1983 13.2421 23.2034 13.2458C23.2058 13.2476 23.2097 13.2502 23.2142 13.2528C23.2164 13.2541 23.2203 13.2561 23.2252 13.2581C23.2286 13.2594 23.2399 13.2638 23.2551 13.2638V13.106C23.2698 13.106 23.2806 13.1102 23.2833 13.1113C23.2876 13.113 23.2906 13.1147 23.2919 13.1154C23.2946 13.1169 23.2961 13.118 23.2956 13.1177C23.295 13.1173 23.2928 13.1156 23.2885 13.112C23.2802 13.105 23.2678 13.0942 23.2515 13.0794C23.2191 13.0501 23.1738 13.0079 23.1197 12.9568C23.0117 12.8547 22.8698 12.7184 22.7285 12.5819C22.5873 12.4454 22.4469 12.3089 22.3418 12.2065C22.2892 12.1553 22.2455 12.1126 22.2149 12.0828L22.1669 12.0359C22.1669 12.0359 22.1669 12.0359 22.1117 12.0923L22.1669 12.0359L22.1123 11.9825Z" fill="black"/>
<path fill-rule="evenodd" clip-rule="evenodd" d="M22.1123 15.4768L20.9683 14.3836L19.8249 15.4762L18.627 14.3315L18.736 14.2174L19.8249 15.2579L20.9683 14.1653L22.1111 15.2573C22.1413 15.2278 22.1826 15.1875 22.2316 15.1398C22.3369 15.0373 22.4774 14.9006 22.6188 14.764C22.7602 14.6274 22.9026 14.4905 23.0113 14.3878C23.0656 14.3365 23.1119 14.2933 23.1456 14.2629C23.1623 14.2477 23.1766 14.2351 23.1875 14.2261C23.1927 14.2217 23.1983 14.2172 23.2034 14.2135C23.2058 14.2118 23.2097 14.2091 23.2142 14.2065C23.2164 14.2053 23.2203 14.2032 23.2252 14.2013C23.2286 14.1999 23.2399 14.1955 23.2551 14.1955V14.3534C23.2698 14.3534 23.2806 14.3491 23.2833 14.348C23.2876 14.3464 23.2906 14.3447 23.2919 14.3439C23.2946 14.3424 23.2961 14.3413 23.2956 14.3416C23.295 14.3421 23.2928 14.3438 23.2885 14.3474C23.2802 14.3543 23.2678 14.3652 23.2515 14.3799C23.2191 14.4092 23.1738 14.4514 23.1197 14.5025C23.0117 14.6047 22.8698 14.741 22.7285 14.8775C22.5873 15.014 22.4469 15.1505 22.3418 15.2529C22.2892 15.3041 22.2455 15.3467 22.2149 15.3766L22.1669 15.4234C22.1669 15.4234 22.1669 15.4235 22.1117 15.367L22.1669 15.4234L22.1123 15.4768Z" fill="black"/>
<path fill-rule="evenodd" clip-rule="evenodd" d="M22.1123 16.3513L20.9683 17.4445L19.8249 16.3519L18.627 17.4966L18.736 17.6107L19.8249 16.5703L20.9683 17.6629L22.1111 16.5708C22.1413 16.6003 22.1826 16.6406 22.2316 16.6884C22.3369 16.7908 22.4774 16.9275 22.6188 17.0641C22.7602 17.2008 22.9026 17.3376 23.0113 17.4403C23.0656 17.4916 23.1119 17.5348 23.1456 17.5653C23.1623 17.5804 23.1766 17.593 23.1875 17.6021C23.1927 17.6064 23.1983 17.6109 23.2034 17.6146C23.2058 17.6164 23.2097 17.619 23.2142 17.6216C23.2164 17.6229 23.2203 17.6249 23.2252 17.6269C23.2286 17.6282 23.2399 17.6326 23.2551 17.6326V17.4747C23.2698 17.4747 23.2806 17.479 23.2833 17.4801C23.2876 17.4818 23.2906 17.4834 23.2919 17.4842C23.2946 17.4857 23.2961 17.4868 23.2956 17.4865C23.295 17.486 23.2928 17.4844 23.2885 17.4808C23.2802 17.4738 23.2678 17.4629 23.2515 17.4482C23.2191 17.4189 23.1738 17.3767 23.1197 17.3256C23.0117 17.2235 22.8698 17.0872 22.7285 16.9506C22.5873 16.8142 22.4469 16.6777 22.3418 16.5753C22.2892 16.5241 22.2455 16.4814 22.2149 16.4516L22.1669 16.4047C22.1669 16.4047 22.1669 16.4047 22.1117 16.4611L22.1669 16.4047L22.1123 16.3513Z" fill="black"/>
<path fill-rule="evenodd" clip-rule="evenodd" d="M22.2205 30.6855L22.2075 12.0894L21.9901 12.0895L22.003 30.6856L22.2205 30.6855Z" fill="black"/>
<path fill-rule="evenodd" clip-rule="evenodd" d="M21.0897 31.7334L21.0768 13.1825L20.8708 13.1826L20.8837 31.7335L21.0897 31.7334Z" fill="black"/>
<path fill-rule="evenodd" clip-rule="evenodd" d="M19.952 32.8756L19.939 12.0944L19.721 12.0945L19.7339 32.8757L19.952 32.8756Z" fill="black"/>
<path fill-rule="evenodd" clip-rule="evenodd" d="M39.2848 8.80847C41.5716 9.90105 41.5716 12.0924 41.5716 13.185C41.494 14.1788 41.5716 35.0551 41.5716 35.0551C41.5716 35.0551 41.423 33.8206 40.4282 32.87L39.2912 31.7774L38.1478 30.6848C37.3081 29.9564 37.0045 28.4935 37.0045 27.4009V12.0924C37.0045 12.0924 37.0045 10.9936 39.2912 8.80847H39.2848Z" fill="#A77B3B"/>
<path fill-rule="evenodd" clip-rule="evenodd" d="M39.2716 8.78783L39.2848 8.72949H39.4881L39.4252 8.78961C41.6505 9.92009 41.6505 12.1057 41.6505 13.1804V13.188L41.6503 13.1911C41.6312 13.4356 41.6214 14.9219 41.6178 17.0215C41.6142 19.1183 41.6166 21.8209 41.6214 24.4925C41.6263 27.1642 41.6336 29.8047 41.6396 31.7774C41.6426 32.7637 41.6454 33.5831 41.6473 34.1558C41.6483 34.4422 41.6491 34.667 41.6497 34.8201L41.6505 35.0546C41.6505 35.0547 41.6505 35.0548 41.5716 35.0551L41.6505 35.0548L41.4937 35.0645C41.4932 35.0646 41.4932 35.0646 41.4932 35.0646L41.4932 35.0641L41.4929 35.0618C41.4926 35.0598 41.4922 35.0565 41.4915 35.0522C41.4903 35.0435 41.4883 35.0305 41.4854 35.0133C41.4796 34.979 41.4702 34.9285 41.4558 34.8647C41.427 34.7371 41.3784 34.5567 41.2991 34.3469C41.1405 33.927 40.8602 33.3919 40.3737 32.927L40.3735 32.9268L39.2367 31.8344L39.2366 31.8343L38.0947 30.7431C37.6601 30.3655 37.3687 29.8027 37.1857 29.2024C37.0023 28.6005 36.9255 27.9537 36.9255 27.4008V12.0923H37.0045C36.9255 12.0923 36.9255 12.0923 36.9255 12.0922L36.9255 12.092L36.9255 12.0915L36.9256 12.0903C36.9256 12.0893 36.9256 12.0881 36.9256 12.0866C36.9257 12.0836 36.9259 12.0795 36.9263 12.0743C36.9269 12.0641 36.9282 12.0495 36.9307 12.0307C36.9356 11.993 36.9451 11.9383 36.9638 11.8666C37.0012 11.7232 37.0749 11.512 37.2203 11.2333C37.5111 10.676 38.0887 9.84832 39.2367 8.75136L39.2716 8.78783ZM39.304 8.90551C41.4874 9.98239 41.4926 12.0945 41.4926 13.1819C41.4731 13.4433 41.4636 14.9356 41.4599 17.0213C41.4563 19.1183 41.4587 21.8212 41.4636 24.4928C41.4684 27.1645 41.4757 29.8052 41.4817 31.7779C41.4848 32.7642 41.4875 33.5836 41.4895 34.1564C41.4898 34.248 41.4901 34.3332 41.4904 34.4119C41.4769 34.3728 41.4624 34.3325 41.4468 34.2911C41.2824 33.8561 40.991 33.2986 40.4828 32.8129C40.4828 32.8129 40.4828 32.8129 40.4827 32.8129" fill="black"/>
<path fill-rule="evenodd" clip-rule="evenodd" d="M38.1408 11.9825L39.2848 13.0757L40.4282 11.9831L41.6261 13.1278L41.5171 13.242L40.4282 12.2015L39.2848 13.2941L38.142 12.2021C38.1118 12.2315 38.0705 12.2719 38.0215 12.3196C37.9163 12.4221 37.7757 12.5587 37.6343 12.6954C37.4929 12.832 37.3505 12.9688 37.2418 13.0716C37.1875 13.1229 37.1412 13.166 37.1075 13.1965C37.0908 13.2116 37.0765 13.2242 37.0657 13.2333C37.0604 13.2377 37.0548 13.2421 37.0497 13.2458C37.0473 13.2476 37.0434 13.2502 37.0389 13.2528C37.0367 13.2541 37.0328 13.2561 37.0279 13.2581C37.0245 13.2594 37.0132 13.2638 36.998 13.2638V13.106C36.9833 13.106 36.9725 13.1102 36.9698 13.1113C36.9655 13.113 36.9625 13.1147 36.9612 13.1154C36.9585 13.1169 36.957 13.118 36.9575 13.1177C36.9581 13.1173 36.9603 13.1156 36.9646 13.112C36.973 13.105 36.9853 13.0942 37.0016 13.0794C37.034 13.0501 37.0793 13.0079 37.1334 12.9568C37.2414 12.8547 37.3833 12.7184 37.5246 12.5819C37.6658 12.4454 37.8062 12.3089 37.9113 12.2065C37.9639 12.1553 38.0076 12.1126 38.0382 12.0828L38.0862 12.0359C38.0862 12.0359 38.0862 12.0359 38.1414 12.0923L38.0862 12.0359L38.1408 11.9825Z" fill="black"/>
<path fill-rule="evenodd" clip-rule="evenodd" d="M38.1408 15.4768L39.2848 14.3836L40.4282 15.4762L41.6261 14.3315L41.5171 14.2174L40.4282 15.2579L39.2848 14.1653L38.142 15.2573C38.1118 15.2278 38.0705 15.1875 38.0215 15.1398C37.9163 15.0373 37.7757 14.9006 37.6343 14.764C37.4929 14.6274 37.3505 14.4905 37.2418 14.3878C37.1875 14.3365 37.1412 14.2933 37.1075 14.2629C37.0908 14.2477 37.0765 14.2351 37.0657 14.2261C37.0604 14.2217 37.0548 14.2172 37.0497 14.2135C37.0473 14.2118 37.0434 14.2091 37.0389 14.2065C37.0367 14.2053 37.0328 14.2032 37.0279 14.2013C37.0245 14.1999 37.0132 14.1955 36.998 14.1955V14.3534C36.9833 14.3534 36.9725 14.3491 36.9698 14.348C36.9655 14.3464 36.9625 14.3447 36.9612 14.3439C36.9585 14.3424 36.957 14.3413 36.9575 14.3416C36.9581 14.3421 36.9603 14.3438 36.9646 14.3474C36.973 14.3543 36.9853 14.3652 37.0016 14.3799C37.034 14.4092 37.0793 14.4514 37.1334 14.5025C37.2414 14.6047 37.3833 14.741 37.5246 14.8775C37.6658 15.014 37.8062 15.1505 37.9113 15.2529C37.9639 15.3041 38.0076 15.3467 38.0382 15.3766L38.0862 15.4234C38.0862 15.4234 38.0862 15.4235 38.1414 15.367L38.0862 15.4234L38.1408 15.4768Z" fill="black"/>
<path fill-rule="evenodd" clip-rule="evenodd" d="M38.1408 16.3513L39.2848 17.4445L40.4282 16.3519L41.6261 17.4966L41.5171 17.6107L40.4282 16.5703L39.2848 17.6629L38.142 16.5708C38.1118 16.6003 38.0705 16.6406 38.0215 16.6884C37.9163 16.7908 37.7757 16.9275 37.6343 17.0641C37.4929 17.2008 37.3505 17.3376 37.2418 17.4403C37.1875 17.4916 37.1412 17.5348 37.1075 17.5653C37.0908 17.5804 37.0765 17.593 37.0657 17.6021C37.0604 17.6064 37.0548 17.6109 37.0497 17.6146C37.0473 17.6164 37.0434 17.619 37.0389 17.6216C37.0367 17.6229 37.0328 17.6249 37.0279 17.6269C37.0245 17.6282 37.0132 17.6326 36.998 17.6326V17.4747C36.9833 17.4747 36.9725 17.479 36.9698 17.4801C36.9655 17.4818 36.9625 17.4834 36.9612 17.4842C36.9585 17.4857 36.957 17.4868 36.9575 17.4865C36.9581 17.486 36.9603 17.4844 36.9646 17.4808C36.973 17.4738 36.9853 17.4629 37.0016 17.4482C37.034 17.4189 37.0793 17.3767 37.1334 17.3256C37.2414 17.2235 37.3833 17.0872 37.5246 16.9506C37.6658 16.8142 37.8062 16.6777 37.9113 16.5753C37.9639 16.5241 38.0076 16.4814 38.0382 16.4516L38.0862 16.4047C38.0862 16.4047 38.0862 16.4047 38.1414 16.4611L38.0862 16.4047L38.1408 16.3513Z" fill="black"/>
<path fill-rule="evenodd" clip-rule="evenodd" d="M38.0327 30.6855L38.0456 12.0894L38.263 12.0895L38.2501 30.6856L38.0327 30.6855Z" fill="black"/>
<path fill-rule="evenodd" clip-rule="evenodd" d="M39.1728 31.7334L39.1857 13.1825L39.3917 13.1826L39.3788 31.7335L39.1728 31.7334Z" fill="black"/>
<path fill-rule="evenodd" clip-rule="evenodd" d="M40.3105 32.8756L40.3234 12.0944L40.5414 12.0945L40.5285 32.8757L40.3105 32.8756Z" fill="black"/>
<path fill-rule="evenodd" clip-rule="evenodd" d="M27.1195 28.394C26.5133 29.7843 25.4464 30.6903 24.7487 30.4126C24.0511 30.1348 23.973 28.773 24.5793 27.3827C25.1855 25.9924 26.2583 25.0888 26.956 25.3666C27.6537 25.6443 27.7342 27.0004 27.1255 28.3964L27.1195 28.394Z" fill="#A77B3B"/>
<path fill-rule="evenodd" clip-rule="evenodd" d="M25.7848 25.8076C25.3649 26.1631 24.9518 26.7257 24.6526 27.4119C24.3533 28.0982 24.2246 28.7741 24.2548 29.3088C24.2852 29.849 24.4746 30.2185 24.7803 30.3402C25.0859 30.4619 25.4938 30.3302 25.9167 29.9705C26.3352 29.6144 26.7469 29.0512 27.0461 28.3649L27.0777 28.2925L27.0831 28.2946C27.3615 27.6307 27.4802 26.9834 27.4509 26.4683C27.4201 25.9289 27.2302 25.5607 26.9244 25.439C26.6187 25.3172 26.2092 25.4484 25.7848 25.8076ZM27.1608 28.4954L27.1672 28.498L27.1988 28.4256C27.507 27.7188 27.6424 27.0187 27.6103 26.4561C27.5786 25.8989 27.3794 25.4502 26.9876 25.2942C26.5957 25.1382 26.1199 25.3199 25.6818 25.6906C25.2394 26.0651 24.8129 26.6494 24.5059 27.3535C24.1989 28.0575 24.0635 28.7576 24.0953 29.3209C24.1267 29.8786 24.3251 30.3289 24.7172 30.4849C25.1092 30.641 25.5835 30.4586 26.02 30.0872C26.4458 29.725 26.8566 29.1672 27.1608 28.4954Z" fill="black"/>
<path fill-rule="evenodd" clip-rule="evenodd" d="M23.2594 16.4625H36.9938V23.025H23.2594V16.4625Z" fill="#FF0000"/>
<path fill-rule="evenodd" clip-rule="evenodd" d="M23.2594 23.025H36.9938V26.3063C36.9938 28.4906 33.5625 28.4907 30.1312 30.675C26.6906 28.5 23.25 28.5 23.25 26.3063V23.025H23.2594Z" fill="#564DFF"/>
<path fill-rule="evenodd" clip-rule="evenodd" d="M23.1995 16.3995H37.0594V26.3144C37.0594 26.8807 36.8358 27.3067 36.4491 27.6587C36.0653 28.0079 35.5205 28.2847 34.8763 28.5585C34.5708 28.6883 34.2422 28.8179 33.8959 28.9544C32.7761 29.3958 31.4713 29.9102 30.1634 30.7442L30.1294 30.7659L30.0954 30.7442C28.7902 29.9104 27.4864 29.3961 26.3665 28.9543C26.0199 28.8176 25.6909 28.6879 25.385 28.5577C24.7403 28.2835 24.1949 28.0062 23.8107 27.6561C23.4234 27.3032 23.1995 26.876 23.1995 26.3083V16.3995ZM23.3258 16.5258V26.3083C23.3258 26.8362 23.5314 27.2308 23.8957 27.5627C24.263 27.8974 24.7911 28.1679 25.4344 28.4415C25.7355 28.5696 26.0613 28.698 26.4057 28.8339C27.5174 29.2723 28.8241 29.7877 30.1295 30.6161C31.4375 29.7875 32.7451 29.2721 33.8567 28.8339C34.2008 28.6983 34.5261 28.5701 34.8269 28.4423C35.4698 28.169 35.9973 27.8991 36.3641 27.5653C36.7279 27.2342 36.9331 26.8408 36.9331 26.3144V16.5258H23.3258Z" fill="#FFFF00"/>
<path fill-rule="evenodd" clip-rule="evenodd" d="M27.6085 16.8995C27.6085 16.8995 25.3204 18.5082 25.3204 20.0473C25.3204 21.5864 27.7215 22.1023 27.7215 22.1023C27.7215 22.1023 26.9211 22.1023 26.9211 24.1544C26.9211 25.1834 29.3223 24.6703 29.3223 25.1834C29.3223 25.6964 29.2906 26.9369 29.3223 27.7514C29.3223 28.2644 27.7215 27.7514 27.7215 28.2644C27.7215 28.5195 28.9244 29.8035 30.1272 29.8035C31.33 29.8035 32.5283 28.5195 32.5283 28.2644C32.5283 27.7514 30.9276 28.2644 30.9276 27.7514V25.1834C30.9276 24.6703 33.3287 25.1834 33.3287 24.1544C33.3287 22.1023 32.5283 22.1023 32.5283 22.1023C32.5283 22.1023 34.934 21.5893 34.934 20.0473C34.934 18.5053 32.6414 16.8995 32.6414 16.8995C32.6414 16.8995 33.9301 19.0212 33.9301 20.0473C33.9301 20.5603 33.3287 21.5893 31.728 21.5893C31.728 21.5893 31.321 21.0733 30.9276 21.5893C30.9276 21.5893 30.4663 21.0733 30.1272 21.5893C30.0096 21.7632 29.8016 21.0733 29.3223 21.5893C29.1233 21.7255 28.9605 21.0733 28.5219 21.5893C27.7215 21.5893 26.1208 21.0733 26.1208 20.0473C26.1208 19.0212 27.6085 16.8995 27.6085 16.8995V16.8995Z" fill="#FFFF00"/>
<path fill-rule="evenodd" clip-rule="evenodd" d="M32.6027 16.923L32.6673 16.8624L32.6414 16.8995L32.6027 16.923ZM32.6998 22.1059C32.7595 22.0896 32.8335 22.0681 32.918 22.0411C33.1452 21.9684 33.4486 21.8551 33.7525 21.6929C34.357 21.3702 34.9792 20.8449 34.9792 20.0472C34.9792 19.6508 34.832 19.2533 34.6148 18.882C34.3975 18.5105 34.1083 18.1623 33.8202 17.8637C33.532 17.5649 33.244 17.3148 33.0281 17.1394C32.9201 17.0516 32.8301 16.9825 32.767 16.9353C32.7354 16.9117 32.7106 16.8935 32.6936 16.8812C32.6851 16.8751 32.6786 16.8704 32.6742 16.8673L32.6691 16.8637L32.6678 16.8628L32.6675 16.8625L32.6673 16.8624C32.6673 16.8624 32.6673 16.8624 32.6414 16.8995C32.6027 16.923 32.6027 16.923 32.6027 16.923L32.6027 16.9231L32.6036 16.9245L32.6063 16.929C32.6087 16.933 32.6123 16.9389 32.617 16.9468C32.6264 16.9625 32.6402 16.9857 32.6577 17.0156C32.6928 17.0754 32.743 17.162 32.8033 17.2692C32.9238 17.4836 33.0845 17.7801 33.2451 18.1085C33.4058 18.4369 33.566 18.7966 33.6861 19.1376C33.8064 19.4794 33.8849 19.7986 33.8849 20.0472C33.8849 20.5295 33.3126 21.535 31.7488 21.5439C31.7471 21.542 31.7452 21.5399 31.7432 21.5376C31.7305 21.5237 31.712 21.5045 31.6886 21.4832C31.6422 21.4409 31.5748 21.389 31.493 21.3541C31.4109 21.319 31.3128 21.3004 31.2072 21.3277C31.1127 21.3522 31.0168 21.4123 30.924 21.5215C30.9117 21.51 30.8966 21.4964 30.8791 21.4818C30.8285 21.4399 30.7563 21.3885 30.6717 21.3539C30.5869 21.3192 30.487 21.3003 30.3837 21.3278C30.2797 21.3555 30.1789 21.4282 30.0895 21.5641C30.0852 21.5704 30.0824 21.5724 30.0817 21.5728C30.0816 21.5728 30.0816 21.5728 30.0815 21.5728C30.0776 21.5726 30.067 21.5691 30.0461 21.5536C30.0299 21.5417 30.0124 21.5264 29.9916 21.5083C29.9869 21.5041 29.982 21.4999 29.9769 21.4954C29.9503 21.4724 29.9198 21.4467 29.8858 21.4236C29.8178 21.3772 29.7321 21.3387 29.6283 21.3511C29.5261 21.3633 29.4153 21.4237 29.2929 21.5543C29.279 21.5628 29.2673 21.5643 29.2557 21.5625C29.241 21.5602 29.2232 21.5521 29.2003 21.5367C29.1784 21.5218 29.1555 21.5027 29.1291 21.4807L29.1262 21.4783C29.0994 21.4559 29.0695 21.4312 29.0373 21.4094C28.9725 21.3655 28.8929 21.3298 28.7964 21.3461C28.7053 21.3615 28.6086 21.4219 28.5013 21.5438C28.1085 21.5395 27.5273 21.4124 27.0418 21.1628C26.5459 20.9077 26.166 20.5339 26.166 20.0472C26.166 19.7998 26.2562 19.4814 26.3951 19.1396C26.5336 18.7988 26.7185 18.4393 26.904 18.1108C27.0894 17.7825 27.2748 17.4861 27.4139 17.2717C27.4835 17.1645 27.5414 17.0779 27.582 17.0181C27.6022 16.9882 27.6182 16.965 27.629 16.9493C27.6344 16.9414 27.6385 16.9355 27.6413 16.9315L27.6445 16.927L27.6454 16.9256C27.6454 16.9255 27.6455 16.9255 27.6084 16.8995C27.5824 16.8625 27.5824 16.8625 27.5824 16.8625L27.5823 16.8626L27.5819 16.8628L27.5806 16.8637L27.5756 16.8673C27.5712 16.8705 27.5646 16.8752 27.5562 16.8813C27.5392 16.8936 27.5144 16.9118 27.4829 16.9354C27.42 16.9827 27.3301 17.052 27.2223 17.1398C27.0069 17.3155 26.7194 17.5659 26.4318 17.8648C26.1443 18.1636 25.8557 18.5119 25.6388 18.8833C25.422 19.2544 25.2751 19.6515 25.2751 20.0472C25.2751 20.8434 25.8961 21.3688 26.4996 21.6918C26.8028 21.8541 27.1057 21.9677 27.3325 22.0407C27.4168 22.0678 27.4907 22.0893 27.5504 22.1057C27.4729 22.1439 27.3787 22.2116 27.2856 22.3309C27.0766 22.5988 26.8759 23.1237 26.8759 24.1544C26.8759 24.2925 26.9164 24.4068 26.9884 24.5005C27.0598 24.5935 27.1604 24.6638 27.2772 24.7181C27.5098 24.8262 27.8166 24.8751 28.1168 24.9073C28.2225 24.9187 28.327 24.9279 28.4278 24.9369C28.6172 24.9537 28.7934 24.9694 28.9391 24.9954C29.0505 25.0152 29.1381 25.0402 29.1968 25.0734C29.2542 25.1058 29.277 25.1414 29.277 25.1833C29.277 25.3264 29.2745 25.5269 29.2716 25.7594C29.2642 26.3567 29.2542 27.1651 29.277 27.7522C29.2768 27.802 29.2581 27.8372 29.2247 27.8647C29.189 27.8941 29.1347 27.9162 29.0627 27.9316C28.9183 27.9624 28.7237 27.9626 28.5219 27.9626H28.5179C28.3208 27.9626 28.1169 27.9626 27.9622 27.9957C27.8841 28.0124 27.8134 28.0384 27.7615 28.0812C27.7075 28.1256 27.6762 28.1864 27.6762 28.2644C27.6762 28.2883 27.6831 28.3143 27.6931 28.3401C27.7034 28.3665 27.7181 28.3957 27.7366 28.4268C27.7735 28.4891 27.8268 28.5623 27.8936 28.6416C28.0273 28.8004 28.2176 28.987 28.4454 29.1652C28.8997 29.5207 29.511 29.8487 30.1272 29.8487C30.7434 29.8487 31.3535 29.5206 31.8067 29.1652C32.034 28.987 32.2236 28.8004 32.3569 28.6416C32.4235 28.5622 32.4767 28.4891 32.5134 28.4267C32.5318 28.3956 32.5465 28.3664 32.5568 28.3401C32.5668 28.3142 32.5736 28.2883 32.5736 28.2644C32.5736 28.1864 32.5423 28.1256 32.4883 28.0812C32.4364 28.0384 32.3657 28.0124 32.2876 27.9957C32.1329 27.9626 31.929 27.9626 31.7318 27.9626H31.7279C31.5261 27.9626 31.3315 27.9624 31.1871 27.9316C31.1151 27.9162 31.0608 27.8941 31.0251 27.8647C30.9915 27.8371 30.9728 27.8017 30.9728 27.7514V25.1833C30.9728 25.1414 30.9956 25.1058 31.053 25.0734C31.1117 25.0402 31.1993 25.0152 31.3107 24.9954C31.4564 24.9694 31.6326 24.9537 31.822 24.9369C31.9228 24.9279 32.0273 24.9187 32.133 24.9073C32.4332 24.8751 32.74 24.8262 32.9726 24.7181C33.0894 24.6638 33.19 24.5935 33.2614 24.5005C33.3334 24.4068 33.3739 24.2925 33.3739 24.1544C33.3739 23.1237 33.1732 22.5988 32.9642 22.3309C32.8712 22.2118 32.7771 22.1441 32.6998 22.1059ZM32.5282 22.1469L32.5189 22.058L32.5192 22.0579L32.5204 22.0577L32.5253 22.0566C32.5297 22.0556 32.5363 22.0541 32.545 22.052C32.5623 22.048 32.5878 22.0418 32.6203 22.0334C32.6854 22.0165 32.7785 21.9907 32.8904 21.9549C33.1143 21.8832 33.4123 21.7719 33.7098 21.6131C34.3081 21.2937 34.8887 20.7916 34.8887 20.0472C34.8887 19.6727 34.7494 19.2912 34.5367 18.9277C34.3242 18.5645 34.0402 18.2221 33.7551 17.9265C33.4701 17.6311 33.185 17.3835 32.971 17.2096C32.9041 17.1553 32.8442 17.1082 32.7935 17.0691C32.8196 17.1143 32.8494 17.1666 32.8822 17.2249C33.0033 17.4403 33.1648 17.7384 33.3264 18.0687C33.4879 18.3989 33.6498 18.762 33.7714 19.1075C33.8927 19.452 33.9754 19.7829 33.9754 20.0472C33.9754 20.5889 33.3499 21.6345 31.7279 21.6345H31.706L31.6924 21.6173L31.6923 21.6171L31.6917 21.6163C31.691 21.6156 31.69 21.6143 31.6886 21.6127C31.6859 21.6094 31.6817 21.6046 31.6762 21.5985C31.6651 21.5863 31.6487 21.5692 31.6277 21.5501C31.5856 21.5118 31.5267 21.4669 31.4575 21.4374C31.3887 21.4079 31.3113 21.3943 31.2299 21.4154C31.1486 21.4364 31.0574 21.4936 30.9635 21.6167L30.9303 21.6602L30.8938 21.6194L30.8937 21.6192L30.8929 21.6184C30.8922 21.6176 30.891 21.6163 30.8894 21.6147C30.8863 21.6114 30.8815 21.6064 30.8753 21.6003C30.8628 21.5879 30.8444 21.5707 30.8213 21.5515C30.7747 21.5128 30.7105 21.4675 30.6374 21.4376C30.5644 21.4078 30.4854 21.3944 30.4069 21.4153C30.3291 21.436 30.2451 21.4922 30.165 21.6141L30.1647 21.6146C30.1436 21.6457 30.1136 21.6657 30.0754 21.6631C30.0436 21.661 30.0149 21.6431 29.9923 21.6264C29.9729 21.6121 29.9519 21.5937 29.931 21.5755C29.9265 21.5716 29.922 21.5677 29.9175 21.5638C29.8914 21.5411 29.8643 21.5184 29.8349 21.4984C29.7763 21.4585 29.7127 21.4322 29.6391 21.441C29.5648 21.4498 29.4711 21.4955 29.3554 21.62L29.352 21.6237L29.3478 21.6266C29.3137 21.6499 29.2778 21.6575 29.2418 21.6519C29.2078 21.6466 29.1768 21.6301 29.1496 21.6116C29.1237 21.5941 29.0976 21.5723 29.0726 21.5514L29.0682 21.5478C29.0411 21.5252 29.0145 21.5032 28.9866 21.4843C28.9309 21.4466 28.8752 21.4246 28.8115 21.4353C28.7465 21.4463 28.6628 21.4933 28.5563 21.6185L28.5428 21.6345H28.5219C28.1143 21.6345 27.5069 21.5037 27.0005 21.2432C26.4959 20.9838 26.0755 20.5866 26.0755 20.0472C26.0755 19.7817 26.1712 19.45 26.3113 19.1055C26.4517 18.7598 26.6387 18.3966 26.8252 18.0663C27.0117 17.736 27.1982 17.4379 27.338 17.2224C27.3673 17.1773 27.3946 17.1357 27.4194 17.0983C27.3775 17.131 27.3305 17.1684 27.2795 17.21C27.066 17.384 26.7814 17.632 26.497 17.9276C26.2125 18.2233 25.929 18.5658 25.7169 18.9289C25.5047 19.2923 25.3656 19.6734 25.3656 20.0472C25.3656 20.7901 25.9451 21.2923 26.5423 21.612C26.8393 21.771 27.1367 21.8826 27.3602 21.9545C27.4718 21.9904 27.5648 22.0163 27.6297 22.0333C27.6622 22.0417 27.6877 22.048 27.7049 22.052C27.7136 22.0541 27.7201 22.0556 27.7245 22.0566L27.7295 22.0577L27.7307 22.0579L27.7309 22.058L27.7216 22.1469C27.7216 22.1475 27.7216 22.1475 27.7216 22.1475L27.7211 22.1475C27.7202 22.1476 27.7186 22.1476 27.7164 22.1478C27.7119 22.1482 27.7047 22.149 27.6952 22.1508C27.6764 22.1542 27.6484 22.1613 27.6142 22.1759C27.5462 22.205 27.4523 22.2644 27.357 22.3866C27.1658 22.6317 26.9664 23.1329 26.9664 24.1544C26.9664 24.2734 27.0008 24.3682 27.0602 24.4454C27.12 24.5233 27.2071 24.5857 27.3154 24.636C27.533 24.7372 27.8265 24.7851 28.1265 24.8173C28.2277 24.8282 28.33 24.8373 28.4299 24.8462C28.6222 24.8633 28.8056 24.8796 28.955 24.9063C29.0688 24.9265 29.1688 24.9536 29.2413 24.9946C29.3153 25.0364 29.3675 25.097 29.3675 25.1833C29.3675 25.3283 29.365 25.5303 29.3621 25.764C29.3547 26.3612 29.3448 27.165 29.3675 27.7496L29.3675 27.7505V27.7514C29.3675 27.8293 29.3362 27.8901 29.2823 27.9346C29.2304 27.9773 29.1596 28.0034 29.0816 28.0201C28.9268 28.0531 28.7229 28.0531 28.5258 28.0531H28.5219C28.32 28.0531 28.1254 28.0534 27.9811 28.0842C27.909 28.0996 27.8547 28.1216 27.8191 28.151C27.7855 28.1787 27.7667 28.2141 27.7667 28.2644C27.7667 28.2723 27.7693 28.2863 27.7775 28.3073C27.7854 28.3277 27.7977 28.3523 27.8145 28.3807C27.848 28.4374 27.8981 28.5064 27.9628 28.5833C28.0922 28.737 28.2779 28.9193 28.5011 29.0939C28.9489 29.4443 29.5405 29.7582 30.1272 29.7582C30.7138 29.7582 31.3042 29.4443 31.7509 29.094C31.9736 28.9193 32.1586 28.7371 32.2876 28.5834C32.3522 28.5065 32.402 28.4375 32.4355 28.3808C32.4522 28.3524 32.4644 28.3278 32.4724 28.3074C32.4805 28.2864 32.4831 28.2724 32.4831 28.2644C32.4831 28.2141 32.4643 28.1787 32.4307 28.151C32.3951 28.1216 32.3408 28.0996 32.2687 28.0842C32.1244 28.0534 31.9298 28.0531 31.7279 28.0531H31.724C31.5268 28.0531 31.323 28.0531 31.1682 28.0201C31.0902 28.0034 31.0194 27.9773 30.9675 27.9346C30.9136 27.8901 30.8823 27.8293 30.8823 27.7514V25.1833C30.8823 25.097 30.9345 25.0364 31.0085 24.9946C31.081 24.9536 31.181 24.9265 31.2948 24.9063C31.4442 24.8796 31.6276 24.8633 31.8199 24.8462C31.9198 24.8373 32.0221 24.8282 32.1233 24.8173C32.4233 24.7851 32.7168 24.7372 32.9344 24.636C33.0427 24.5857 33.1298 24.5233 33.1896 24.4454C33.249 24.3682 33.2834 24.2734 33.2834 24.1544C33.2834 23.1329 33.084 22.6317 32.8928 22.3866C32.7975 22.2644 32.7036 22.205 32.6356 22.1759C32.6014 22.1613 32.5734 22.1542 32.5545 22.1508C32.5451 22.149 32.5379 22.1482 32.5334 22.1478C32.5325 22.1478 32.5317 22.1477 32.5309 22.1476C32.53 22.1476 32.5292 22.1475 32.5287 22.1475L32.5283 22.1475L32.5282 22.1475C32.5282 22.1475 32.5282 22.1475 32.5282 22.1469Z" fill="black"/>
<path fill-rule="evenodd" clip-rule="evenodd" d="M27.6555 26.0882C27.4927 26.1925 27.8635 27.8649 27.972 27.9374C28.1348 28.0389 29.098 28.0389 29.2562 27.9374C29.3693 27.8649 29.2562 26.294 29.098 26.1925C28.9352 26.0882 27.7685 26.0186 27.6509 26.0882H27.6555Z" fill="#FFFF00"/>
<path fill-rule="evenodd" clip-rule="evenodd" d="M29.0047 26.1113C29.0527 26.1231 29.0952 26.137 29.1224 26.1544C29.1417 26.1668 29.1559 26.1867 29.1666 26.206C29.1779 26.2264 29.1882 26.2512 29.1977 26.279C29.2167 26.3347 29.2341 26.407 29.2498 26.4892C29.2813 26.6541 29.3069 26.8639 29.324 27.0721C29.341 27.2803 29.3496 27.4882 29.3467 27.6492C29.3453 27.7295 29.341 27.7995 29.3332 27.8524C29.3293 27.8787 29.3243 27.9024 29.3176 27.9217C29.3119 27.9383 29.3016 27.962 29.2807 27.9755C29.2539 27.9926 29.2151 28.005 29.1723 28.0148C29.1283 28.0248 29.0752 28.033 29.0167 28.0394C28.8995 28.0523 28.7574 28.0587 28.6158 28.0587C28.4742 28.0587 28.3319 28.0523 28.2142 28.0394C28.1553 28.033 28.1019 28.0248 28.0575 28.0148C28.0142 28.0051 27.9752 27.9927 27.9481 27.9758L27.9475 27.9754L27.9469 27.975C27.9371 27.9685 27.9298 27.9599 27.9246 27.9527C27.919 27.9451 27.9138 27.9363 27.9088 27.927C27.8989 27.9085 27.8887 27.8848 27.8783 27.8575C27.8574 27.8028 27.8342 27.7297 27.8103 27.6448C27.7624 27.4748 27.7107 27.2545 27.6676 27.0334C27.6245 26.8125 27.5896 26.5895 27.5759 26.4145C27.569 26.3272 27.5672 26.25 27.5728 26.1904C27.5747 26.17 27.5776 26.1508 27.5817 26.1334H27.4856L27.6279 26.0492C27.6416 26.0411 27.6588 26.0361 27.6751 26.0325C27.6924 26.0287 27.7128 26.0257 27.7355 26.0234C27.7809 26.0186 27.8383 26.016 27.9032 26.0152C28.0331 26.0135 28.1963 26.019 28.3605 26.03C28.5247 26.0409 28.6907 26.0573 28.8264 26.0776C28.8942 26.0878 28.9551 26.099 29.0047 26.1113ZM27.6843 26.1234L27.6807 26.1258C27.6803 26.1262 27.6774 26.1297 27.6738 26.1401C27.6692 26.1533 27.6654 26.1727 27.6629 26.1988C27.6581 26.2509 27.6594 26.322 27.6661 26.4074C27.6795 26.5775 27.7136 26.7967 27.7564 27.016C27.7992 27.2352 27.8503 27.4531 27.8974 27.6203C27.921 27.704 27.9433 27.7742 27.9628 27.8252C27.9726 27.8508 27.9813 27.8706 27.9887 27.8846C27.9924 27.8915 27.9954 27.8963 27.9976 27.8992C27.998 27.8998 27.9983 27.9002 27.9986 27.9005C28.0128 27.9086 28.0387 27.9178 28.0774 27.9265C28.1174 27.9355 28.1672 27.9432 28.224 27.9494C28.3376 27.9619 28.4765 27.9682 28.6158 27.9682C28.7551 27.9682 28.8937 27.9619 29.0067 27.9495C29.0633 27.9432 29.1127 27.9355 29.1523 27.9265C29.1896 27.918 29.2145 27.9092 29.2283 27.9014C29.2291 27.8999 29.2304 27.897 29.232 27.8922C29.2361 27.8805 29.2401 27.8629 29.2436 27.8391C29.2506 27.7919 29.2548 27.7264 29.2562 27.6476C29.259 27.4905 29.2506 27.2858 29.2337 27.0795C29.2169 26.8732 29.1916 26.6668 29.1609 26.5062C29.1455 26.4258 29.1291 26.3582 29.112 26.3082C29.1035 26.2832 29.0952 26.2639 29.0875 26.25C29.0837 26.2431 29.0803 26.2382 29.0776 26.2348C29.075 26.2316 29.0735 26.2306 29.0735 26.2306C29.0735 26.2306 29.0735 26.2306 29.0735 26.2306C29.06 26.2219 29.0305 26.2108 28.9831 26.1991C28.9372 26.1878 28.8793 26.1771 28.813 26.1671C28.6805 26.1473 28.517 26.1311 28.3545 26.1203C28.192 26.1094 28.0313 26.1041 27.9043 26.1057C27.8408 26.1065 27.7865 26.109 27.7449 26.1134C27.7241 26.1156 27.7073 26.1181 27.6944 26.1209C27.6905 26.1218 27.6872 26.1226 27.6843 26.1234Z" fill="black"/>
<path fill-rule="evenodd" clip-rule="evenodd" d="M32.6071 26.0882C32.7698 26.1925 32.3991 27.8649 32.2905 27.9374C32.1277 28.0389 31.1646 28.0389 31.0063 27.9374C30.8932 27.8649 31.0063 26.294 31.1646 26.1925C31.3274 26.0882 32.494 26.0186 32.6116 26.0882H32.6071Z" fill="#FFFF00"/>
<path fill-rule="evenodd" clip-rule="evenodd" d="M31.2578 26.1113C31.2098 26.1231 31.1673 26.137 31.1401 26.1544C31.1208 26.1668 31.1066 26.1867 31.0959 26.206C31.0846 26.2264 31.0743 26.2512 31.0648 26.279C31.0458 26.3347 31.0284 26.407 31.0127 26.4892C30.9812 26.6541 30.9556 26.8639 30.9386 27.0721C30.9215 27.2803 30.9129 27.4882 30.9158 27.6492C30.9172 27.7295 30.9215 27.7995 30.9294 27.8524C30.9333 27.8787 30.9383 27.9024 30.9449 27.9217C30.9506 27.9383 30.9609 27.962 30.9819 27.9755C31.0086 27.9926 31.0474 28.005 31.0902 28.0148C31.1342 28.0248 31.1873 28.033 31.2459 28.0394C31.363 28.0523 31.5051 28.0587 31.6467 28.0587C31.7883 28.0587 31.9306 28.0523 32.0484 28.0394C32.1072 28.033 32.1606 28.0248 32.205 28.0148C32.2483 28.0051 32.2873 27.9927 32.3144 27.9758L32.315 27.9754L32.3156 27.975C32.3254 27.9685 32.3327 27.9599 32.3379 27.9527C32.3435 27.9451 32.3488 27.9363 32.3537 27.927C32.3636 27.9085 32.3738 27.8848 32.3842 27.8575C32.4051 27.8028 32.4283 27.7297 32.4522 27.6448C32.5001 27.4748 32.5518 27.2545 32.5949 27.0334C32.638 26.8125 32.6729 26.5895 32.6866 26.4145C32.6935 26.3272 32.6953 26.25 32.6897 26.1904C32.6878 26.17 32.6849 26.1508 32.6808 26.1334H32.7769L32.6346 26.0492C32.6209 26.0411 32.6037 26.0361 32.5874 26.0325C32.5701 26.0287 32.5497 26.0257 32.527 26.0234C32.4816 26.0186 32.4242 26.016 32.3593 26.0152C32.2294 26.0135 32.0662 26.019 31.902 26.03C31.7378 26.0409 31.5718 26.0573 31.4361 26.0776C31.3683 26.0878 31.3074 26.099 31.2578 26.1113ZM32.5782 26.1234L32.5819 26.1258C32.5822 26.1262 32.5851 26.1297 32.5887 26.1401C32.5933 26.1533 32.5971 26.1727 32.5996 26.1988C32.6044 26.2509 32.6031 26.322 32.5964 26.4074C32.583 26.5775 32.5489 26.7967 32.5061 27.016C32.4633 27.2352 32.4122 27.4531 32.3651 27.6203C32.3415 27.704 32.3192 27.7742 32.2997 27.8252C32.2899 27.8508 32.2812 27.8706 32.2738 27.8846C32.2701 27.8915 32.2671 27.8963 32.2649 27.8992C32.2645 27.8998 32.2642 27.9002 32.2639 27.9005C32.2497 27.9086 32.2238 27.9178 32.1851 27.9265C32.1451 27.9355 32.0953 27.9432 32.0385 27.9494C31.9249 27.9619 31.786 27.9682 31.6467 27.9682C31.5074 27.9682 31.3688 27.9619 31.2558 27.9495C31.1992 27.9432 31.1498 27.9355 31.1103 27.9265C31.0729 27.918 31.048 27.9092 31.0342 27.9014C31.0334 27.8999 31.0321 27.897 31.0305 27.8922C31.0264 27.8805 31.0224 27.8629 31.0189 27.8391C31.0119 27.7919 31.0077 27.7264 31.0063 27.6476C31.0035 27.4905 31.0119 27.2858 31.0288 27.0795C31.0456 26.8732 31.0709 26.6668 31.1016 26.5062C31.117 26.4258 31.1335 26.3582 31.1505 26.3082C31.159 26.2832 31.1673 26.2639 31.175 26.25C31.1788 26.2431 31.1822 26.2382 31.1849 26.2348C31.1875 26.2316 31.189 26.2306 31.189 26.2306C31.189 26.2306 31.189 26.2306 31.189 26.2306C31.2025 26.2219 31.232 26.2108 31.2795 26.1991C31.3253 26.1878 31.3832 26.1771 31.4495 26.1671C31.582 26.1473 31.7455 26.1311 31.908 26.1203C32.0706 26.1094 32.2312 26.1041 32.3582 26.1057C32.4217 26.1065 32.4761 26.109 32.5176 26.1134C32.5384 26.1156 32.5552 26.1181 32.5681 26.1209C32.572 26.1218 32.5753 26.1226 32.5782 26.1234Z" fill="black"/>
<path fill-rule="evenodd" clip-rule="evenodd" d="M29.3019 25.4783C29.3019 25.6316 29.2143 25.7787 29.0584 25.8871C28.9024 25.9955 28.6909 26.0564 28.4703 26.0564C28.2498 26.0564 28.0383 25.9955 27.8823 25.8871C27.7263 25.7787 27.6387 25.6316 27.6387 25.4783C27.6387 25.3249 27.7263 25.1779 27.8823 25.0695C28.0383 24.9611 28.2498 24.9001 28.4703 24.9001C28.6909 24.9001 28.9024 24.9611 29.0584 25.0695C29.2143 25.1779 29.3019 25.3249 29.3019 25.4783V25.4783Z" fill="#FFFF00"/>
<path fill-rule="evenodd" clip-rule="evenodd" d="M28.4704 24.9543C28.259 24.9543 28.0587 25.0128 27.9133 25.1139C27.7679 25.2149 27.6929 25.347 27.6929 25.4782C27.6929 25.6095 27.7679 25.7415 27.9133 25.8426C28.0587 25.9437 28.259 26.0022 28.4704 26.0022C28.6817 26.0022 28.882 25.9437 29.0275 25.8426C29.1728 25.7415 29.2478 25.6095 29.2478 25.4782C29.2478 25.347 29.1728 25.2149 29.0275 25.1139C28.882 25.0128 28.6817 24.9543 28.4704 24.9543ZM27.8514 25.025C28.0178 24.9093 28.2406 24.8459 28.4704 24.8459C28.7001 24.8459 28.9229 24.9093 29.0893 25.025C29.2559 25.1408 29.3561 25.3029 29.3561 25.4782C29.3561 25.6536 29.2559 25.8157 29.0893 25.9315C28.9229 26.0472 28.7001 26.1105 28.4704 26.1105C28.2406 26.1105 28.0178 26.0472 27.8514 25.9315C27.6848 25.8157 27.5846 25.6536 27.5846 25.4782C27.5846 25.3029 27.6848 25.1408 27.8514 25.025Z" fill="black"/>
<path fill-rule="evenodd" clip-rule="evenodd" d="M32.6117 25.4785C32.6117 25.6319 32.5241 25.7789 32.3681 25.8873C32.2122 25.9958 32.0007 26.0567 31.7801 26.0567C31.5595 26.0567 31.348 25.9958 31.1921 25.8873C31.0361 25.7789 30.9485 25.6319 30.9485 25.4785C30.9485 25.3252 31.0361 25.1781 31.1921 25.0697C31.348 24.9613 31.5595 24.9004 31.7801 24.9004C32.0007 24.9004 32.2122 24.9613 32.3681 25.0697C32.5241 25.1781 32.6117 25.3252 32.6117 25.4785V25.4785Z" fill="#FFFF00"/>
<path fill-rule="evenodd" clip-rule="evenodd" d="M31.7801 24.9545C31.5688 24.9545 31.3685 25.013 31.223 25.1142C31.0777 25.2152 31.0027 25.3472 31.0027 25.4785C31.0027 25.6098 31.0777 25.7418 31.223 25.8428C31.3685 25.944 31.5688 26.0025 31.7801 26.0025C31.9915 26.0025 32.1918 25.944 32.3373 25.8428C32.4826 25.7418 32.5576 25.6098 32.5576 25.4785C32.5576 25.3472 32.4826 25.2152 32.3373 25.1142C32.1918 25.013 31.9915 24.9545 31.7801 24.9545ZM31.1612 25.0252C31.3276 24.9095 31.5504 24.8462 31.7801 24.8462C32.0099 24.8462 32.2327 24.9095 32.3991 25.0252C32.5657 25.141 32.6659 25.3031 32.6659 25.4785C32.6659 25.6539 32.5657 25.816 32.3991 25.9318C32.2327 26.0475 32.0099 26.1108 31.7801 26.1108C31.5504 26.1108 31.3276 26.0475 31.1612 25.9318C30.9946 25.816 30.8943 25.6539 30.8943 25.4785C30.8943 25.3031 30.9946 25.141 31.1612 25.0252Z" fill="black"/>
<path fill-rule="evenodd" clip-rule="evenodd" d="M31.575 28.8281C31.575 28.9687 31.3875 29.0812 31.1719 29.0812C30.9469 29.0812 30.7688 28.9687 30.7688 28.8281C30.7688 28.6875 30.9563 28.575 31.1719 28.575C31.3875 28.575 31.575 28.6875 31.575 28.8281ZM29.4844 28.8281C29.4844 28.9687 29.3062 29.0812 29.0906 29.0812C28.8656 29.0812 28.6875 28.9687 28.6875 28.8281C28.6875 28.6875 28.8656 28.575 29.0906 28.575C29.3062 28.575 29.4844 28.6875 29.4844 28.8281Z" fill="black"/>
<path fill-rule="evenodd" clip-rule="evenodd" d="M30.13 20.6253L29.6384 20.005L28.8317 20.1074L28.9452 19.3365L28.296 18.8728L28.9452 18.4031L28.8317 17.6322L29.6384 17.7407L30.13 17.1204L30.6216 17.7407L31.422 17.6322L31.3148 18.4031L31.9577 18.8728L31.3148 19.3426L31.422 20.1074L30.6153 20.005L30.13 20.6253Z" fill="#FFFF00"/>
<path fill-rule="evenodd" clip-rule="evenodd" d="M30.13 17.0658L30.6362 17.7045L31.4617 17.5927L31.3512 18.3877L32.0151 18.8728L31.3512 19.3579L31.4617 20.1466L30.6301 20.041L30.1302 20.6801L29.6237 20.041L28.7917 20.1466L28.9086 19.3521L28.238 18.873L28.9086 18.3877L28.7916 17.5927L29.6238 17.7045L30.13 17.0658ZM30.13 17.1749L29.653 17.7768L28.8718 17.6718L28.9817 18.4185L28.3541 18.8726L28.9817 19.321L28.8717 20.0681L29.6531 19.969L30.1298 20.5705L30.6005 19.969L31.3823 20.0682L31.2785 19.3272L31.9003 18.8728L31.2785 18.4185L31.3823 17.6718L30.607 17.7768L30.13 17.1749Z" fill="black"/>
<path fill-rule="evenodd" clip-rule="evenodd" d="M33.5596 23.0243L34.9355 23.6848L36.3115 23.0243L34.9355 22.37L33.566 23.0243H33.5596Z" fill="#FFFF00"/>
<path fill-rule="evenodd" clip-rule="evenodd" d="M34.9355 22.3315L36.392 23.0242L34.9355 23.7233L33.5446 23.0556L33.5563 23.004L33.5511 22.993L34.9355 22.3315ZM33.6432 23.026L34.9355 23.6463L36.2309 23.0245L34.9356 22.4085L33.6432 23.026Z" fill="black"/>
<path fill-rule="evenodd" clip-rule="evenodd" d="M23.7158 23.0243L25.0918 23.6848L26.4677 23.0243L25.0918 22.37L23.7223 23.0243H23.7158Z" fill="#FFFF00"/>
<path fill-rule="evenodd" clip-rule="evenodd" d="M25.0917 22.3315L26.5483 23.0242L25.0918 23.7233L23.7008 23.0556L23.7126 23.004L23.7073 22.993L25.0917 22.3315ZM23.7995 23.026L25.0918 23.6463L26.3872 23.0245L25.0918 22.4085L23.7995 23.026Z" fill="black"/>
<path fill-rule="evenodd" clip-rule="evenodd" d="M35.6832 26.9384C35.262 26.6713 34.5524 26.8045 34.1546 27.0227C33.7569 27.241 33.3592 27.4592 33.3057 28.2503C32.8488 27.4902 33.2086 26.7873 33.8136 26.4553C34.1344 26.3046 34.5018 26.2711 34.8467 26.361C35.1916 26.451 35.4902 26.6582 35.6865 26.9438L35.6832 26.9384Z" fill="#FFFF00"/>
<path fill-rule="evenodd" clip-rule="evenodd" d="M33.2808 28.134C33.3203 27.7962 33.4281 27.5684 33.5737 27.3996C33.7335 27.2142 33.937 27.1025 34.1345 26.9942L34.1367 26.993C34.3399 26.8814 34.6215 26.7922 34.9058 26.7646C35.1325 26.7426 35.3644 26.7594 35.5609 26.8381C35.3742 26.6238 35.1223 26.4681 34.8381 26.394C34.5019 26.3063 34.1436 26.3388 33.8305 26.4856C33.5347 26.6482 33.3002 26.9007 33.1949 27.2037C33.0993 27.4791 33.1095 27.7984 33.2808 28.134ZM35.7074 26.9133C35.5062 26.6267 35.2037 26.4189 34.8553 26.3281C34.502 26.2359 34.1259 26.2703 33.7976 26.4246L33.7966 26.425L33.7957 26.4256C33.4869 26.595 33.2395 26.8597 33.1279 27.1808C33.0161 27.5028 33.0418 27.8787 33.2752 28.267L33.3334 28.3639L33.3409 28.2532C33.3672 27.8634 33.478 27.6182 33.6283 27.4439C33.7796 27.2685 33.9729 27.162 34.1725 27.0525C34.367 26.9458 34.6391 26.8593 34.9143 26.8326C35.19 26.8058 35.4633 26.8395 35.6642 26.9669L35.6739 26.9524L35.7169 26.9271L35.7093 26.9145L35.7074 26.9133Z" fill="black"/>
<path fill-rule="evenodd" clip-rule="evenodd" d="M26.2323 25.6497C26.2323 25.7651 26.1843 25.8758 26.0989 25.9574C26.0135 26.039 25.8977 26.0848 25.7769 26.0848C25.6561 26.0848 25.5403 26.039 25.4549 25.9574C25.3695 25.8758 25.3215 25.7651 25.3215 25.6497C25.3215 25.5342 25.3695 25.4236 25.4549 25.3419C25.5403 25.2603 25.6561 25.2145 25.7769 25.2145C25.8977 25.2145 26.0135 25.2603 26.0989 25.3419C26.1843 25.4236 26.2323 25.5342 26.2323 25.6497V25.6497Z" fill="#FFFF00"/>
<path fill-rule="evenodd" clip-rule="evenodd" d="M25.7769 25.2491C25.6648 25.2491 25.5576 25.2917 25.4789 25.367C25.4001 25.4422 25.3562 25.5439 25.3562 25.6496C25.3562 25.7553 25.4001 25.857 25.4789 25.9322C25.5576 26.0075 25.6648 26.05 25.7769 26.05C25.889 26.05 25.9961 26.0075 26.0749 25.9322C26.1537 25.857 26.1976 25.7553 26.1976 25.6496C26.1976 25.5439 26.1537 25.4422 26.0749 25.367C25.9961 25.2917 25.889 25.2491 25.7769 25.2491ZM25.4309 25.3168C25.5229 25.2288 25.6474 25.1797 25.7769 25.1797C25.9064 25.1797 26.0309 25.2288 26.1229 25.3168C26.215 25.4048 26.267 25.5244 26.267 25.6496C26.267 25.7747 26.215 25.8944 26.1229 25.9824C26.0309 26.0704 25.9064 26.1195 25.7769 26.1195C25.6474 26.1195 25.5229 26.0704 25.4309 25.9824C25.3388 25.8944 25.2867 25.7747 25.2867 25.6496C25.2867 25.5244 25.3388 25.4048 25.4309 25.3168Z" fill="black"/>
<path fill-rule="evenodd" clip-rule="evenodd" d="M25.7729 27.1777C25.7729 27.2932 25.7249 27.4038 25.6395 27.4855C25.5541 27.5671 25.4383 27.6129 25.3175 27.6129C25.1967 27.6129 25.0809 27.5671 24.9954 27.4855C24.91 27.4038 24.8621 27.2932 24.8621 27.1777C24.8621 27.0623 24.91 26.9516 24.9954 26.87C25.0809 26.7884 25.1967 26.7426 25.3175 26.7426C25.4383 26.7426 25.5541 26.7884 25.6395 26.87C25.7249 26.9516 25.7729 27.0623 25.7729 27.1777V27.1777Z" fill="#FFFF00"/>
<path fill-rule="evenodd" clip-rule="evenodd" d="M25.3175 26.7773C25.2054 26.7773 25.0982 26.8199 25.0194 26.8952C24.9407 26.9704 24.8968 27.0721 24.8968 27.1778C24.8968 27.2835 24.9407 27.3852 25.0194 27.4604C25.0982 27.5357 25.2054 27.5782 25.3175 27.5782C25.4296 27.5782 25.5367 27.5357 25.6155 27.4604C25.6942 27.3852 25.7382 27.2835 25.7382 27.1778C25.7382 27.0721 25.6942 26.9704 25.6155 26.8952C25.5367 26.8199 25.4296 26.7773 25.3175 26.7773ZM24.9715 26.845C25.0635 26.757 25.188 26.7079 25.3175 26.7079C25.447 26.7079 25.5715 26.757 25.6635 26.845C25.7556 26.933 25.8076 27.0526 25.8076 27.1778C25.8076 27.3029 25.7556 27.4226 25.6635 27.5106C25.5715 27.5986 25.447 27.6477 25.3175 27.6477C25.188 27.6477 25.0635 27.5986 24.9715 27.5106C24.8794 27.4226 24.8273 27.3029 24.8273 27.1778C24.8273 27.0526 24.8794 26.933 24.9715 26.845Z" fill="black"/>
<path fill-rule="evenodd" clip-rule="evenodd" d="M25.5479 26.3059C25.5479 26.4213 25.4999 26.532 25.4145 26.6136C25.3291 26.6952 25.2133 26.7411 25.0925 26.7411C24.9717 26.7411 24.8559 26.6952 24.7705 26.6136C24.6851 26.532 24.6371 26.4213 24.6371 26.3059C24.6371 26.1905 24.6851 26.0798 24.7705 25.9982C24.8559 25.9166 24.9717 25.8707 25.0925 25.8707C25.2133 25.8707 25.3291 25.9166 25.4145 25.9982C25.4999 26.0798 25.5479 26.1905 25.5479 26.3059V26.3059Z" fill="#FFFF00"/>
<path fill-rule="evenodd" clip-rule="evenodd" d="M25.0925 25.9054C24.9804 25.9054 24.8733 25.948 24.7945 26.0232C24.7157 26.0985 24.6718 26.2002 24.6718 26.3058C24.6718 26.4115 24.7157 26.5132 24.7945 26.5885C24.8733 26.6637 24.9804 26.7063 25.0925 26.7063C25.2046 26.7063 25.3118 26.6637 25.3905 26.5885C25.4693 26.5132 25.5132 26.4115 25.5132 26.3058C25.5132 26.2002 25.4693 26.0985 25.3905 26.0232C25.3118 25.948 25.2046 25.9054 25.0925 25.9054ZM24.7465 25.973C24.8385 25.8851 24.963 25.8359 25.0925 25.8359C25.222 25.8359 25.3465 25.8851 25.4385 25.973C25.5306 26.061 25.5827 26.1807 25.5827 26.3058C25.5827 26.431 25.5306 26.5507 25.4385 26.6387C25.3465 26.7266 25.222 26.7758 25.0925 26.7758C24.963 26.7758 24.8385 26.7266 24.7465 26.6387C24.6544 26.5507 24.6024 26.431 24.6024 26.3058C24.6024 26.1807 24.6544 26.061 24.7465 25.973Z" fill="black"/>
<path fill-rule="evenodd" clip-rule="evenodd" d="M26.6917 27.1777C26.6917 27.2932 26.6437 27.4038 26.5583 27.4855C26.4729 27.5671 26.357 27.6129 26.2362 27.6129C26.1155 27.6129 25.9996 27.5671 25.9142 27.4855C25.8288 27.4038 25.7808 27.2932 25.7808 27.1777C25.7808 27.0623 25.8288 26.9516 25.9142 26.87C25.9996 26.7884 26.1155 26.7426 26.2362 26.7426C26.357 26.7426 26.4729 26.7884 26.5583 26.87C26.6437 26.9516 26.6917 27.0623 26.6917 27.1777V27.1777Z" fill="#FFFF00"/>
<path fill-rule="evenodd" clip-rule="evenodd" d="M26.2362 26.7773C26.1242 26.7773 26.017 26.8199 25.9382 26.8952C25.8595 26.9704 25.8156 27.0721 25.8156 27.1778C25.8156 27.2835 25.8595 27.3852 25.9382 27.4604C26.017 27.5357 26.1242 27.5782 26.2362 27.5782C26.3483 27.5782 26.4555 27.5357 26.5343 27.4604C26.613 27.3852 26.6569 27.2835 26.6569 27.1778C26.6569 27.0721 26.613 26.9704 26.5343 26.8952C26.4555 26.8199 26.3483 26.7773 26.2362 26.7773ZM25.8902 26.845C25.9822 26.757 26.1067 26.7079 26.2362 26.7079C26.3657 26.7079 26.4902 26.757 26.5823 26.845C26.6743 26.933 26.7264 27.0526 26.7264 27.1778C26.7264 27.3029 26.6743 27.4226 26.5823 27.5106C26.4902 27.5986 26.3657 27.6477 26.2362 27.6477C26.1067 27.6477 25.9822 27.5986 25.8902 27.5106C25.7981 27.4226 25.7461 27.3029 25.7461 27.1778C25.7461 27.0526 25.7981 26.933 25.8902 26.845Z" fill="black"/>
<path fill-rule="evenodd" clip-rule="evenodd" d="M26.9167 26.3059C26.9167 26.4213 26.8687 26.532 26.7833 26.6136C26.6979 26.6952 26.5821 26.7411 26.4613 26.7411C26.3405 26.7411 26.2247 26.6952 26.1392 26.6136C26.0538 26.532 26.0059 26.4213 26.0059 26.3059C26.0059 26.1905 26.0538 26.0798 26.1392 25.9982C26.2247 25.9166 26.3405 25.8707 26.4613 25.8707C26.5821 25.8707 26.6979 25.9166 26.7833 25.9982C26.8687 26.0798 26.9167 26.1905 26.9167 26.3059V26.3059Z" fill="#FFFF00"/>
<path fill-rule="evenodd" clip-rule="evenodd" d="M26.4612 25.9054C26.3491 25.9054 26.242 25.948 26.1632 26.0232C26.0845 26.0985 26.0405 26.2002 26.0405 26.3058C26.0405 26.4115 26.0845 26.5132 26.1632 26.5885C26.242 26.6637 26.3491 26.7063 26.4612 26.7063C26.5733 26.7063 26.6805 26.6637 26.7593 26.5885C26.838 26.5132 26.8819 26.4115 26.8819 26.3058C26.8819 26.2002 26.838 26.0985 26.7593 26.0232C26.6805 25.948 26.5733 25.9054 26.4612 25.9054ZM26.1152 25.973C26.2072 25.8851 26.3317 25.8359 26.4612 25.8359C26.5907 25.8359 26.7152 25.8851 26.8072 25.973C26.8993 26.061 26.9514 26.1807 26.9514 26.3058C26.9514 26.431 26.8993 26.5507 26.8072 26.6387C26.7152 26.7266 26.5907 26.7758 26.4612 26.7758C26.3317 26.7758 26.2072 26.7266 26.1152 26.6387C26.0231 26.5507 25.9711 26.431 25.9711 26.3058C25.9711 26.1807 26.0231 26.061 26.1152 25.973Z" fill="black"/>
<path fill-rule="evenodd" clip-rule="evenodd" d="M26.2323 26.5215C26.2323 26.6369 26.1843 26.7476 26.0989 26.8292C26.0135 26.9108 25.8977 26.9567 25.7769 26.9567C25.6561 26.9567 25.5403 26.9108 25.4549 26.8292C25.3695 26.7476 25.3215 26.6369 25.3215 26.5215C25.3215 26.4061 25.3695 26.2954 25.4549 26.2138C25.5403 26.1322 25.6561 26.0863 25.7769 26.0863C25.8977 26.0863 26.0135 26.1322 26.0989 26.2138C26.1843 26.2954 26.2323 26.4061 26.2323 26.5215V26.5215Z" fill="#FFFF00"/>
<path fill-rule="evenodd" clip-rule="evenodd" d="M25.7769 26.1211C25.6648 26.1211 25.5576 26.1637 25.4789 26.2389C25.4001 26.3142 25.3562 26.4159 25.3562 26.5215C25.3562 26.6272 25.4001 26.7289 25.4789 26.8042C25.5576 26.8794 25.6648 26.922 25.7769 26.922C25.889 26.922 25.9961 26.8794 26.0749 26.8042C26.1537 26.7289 26.1976 26.6272 26.1976 26.5215C26.1976 26.4159 26.1537 26.3142 26.0749 26.2389C25.9961 26.1637 25.889 26.1211 25.7769 26.1211ZM25.4309 26.1887C25.5229 26.1008 25.6474 26.0516 25.7769 26.0516C25.9064 26.0516 26.0309 26.1008 26.1229 26.1887C26.215 26.2767 26.267 26.3964 26.267 26.5215C26.267 26.6467 26.215 26.7664 26.1229 26.8544C26.0309 26.9423 25.9064 26.9915 25.7769 26.9915C25.6474 26.9915 25.5229 26.9423 25.4309 26.8544C25.3388 26.7664 25.2867 26.6467 25.2867 26.5215C25.2867 26.3964 25.3388 26.2767 25.4309 26.1887Z" fill="black"/>
<path fill-rule="evenodd" clip-rule="evenodd" d="M27.9187 11.2875C26.7562 11.2875 26.6062 11.475 26.0812 11.6531C26.0812 11.1469 27.375 10.5563 28.5187 10.5563C28.5187 10.9219 28.2187 11.2875 27.9187 11.2875Z" fill="#DA4500"/>
<path fill-rule="evenodd" clip-rule="evenodd" d="M29.6719 10.1251C29.6719 10.3594 29.4656 10.5563 29.2125 10.5563C28.9594 10.5563 28.7531 10.3594 28.7531 10.1157C28.7531 9.87195 28.9594 9.68445 29.2125 9.68445C29.4656 9.68445 29.6719 9.87195 29.6719 10.1157V10.1251Z" fill="#CAC9C7"/>
<path fill-rule="evenodd" clip-rule="evenodd" d="M24.8646 8.59248V9.24679H26.008V12.5245H26.6992V9.24679H27.8426V8.59248H26.6992V7.71594H26.0015V8.59248H24.8582H24.8646Z" fill="#FFFF00"/>
<path fill-rule="evenodd" clip-rule="evenodd" d="M25.9668 7.68115H26.734V8.55769H27.8773V9.28146H26.734V12.5592H25.9733V9.28146H24.8299V8.59242H24.8582V8.55769H25.9668V7.68115ZM24.8994 8.62715H26.0363V7.75061H26.6645V8.62715H27.8079V9.212H26.6645V12.4897H26.0427V9.212H24.8994V8.62715Z" fill="black"/>
<path fill-rule="evenodd" clip-rule="evenodd" d="M28.5281 10.5562C27.5976 10.5031 26.6655 10.6271 25.7812 10.9219C25.7813 10.2469 26.5687 9.45935 27.9187 9.45935C28.2187 9.45935 28.5281 10.1906 28.5281 10.5562V10.5562Z" fill="#DA4500"/>
<path fill-rule="evenodd" clip-rule="evenodd" d="M16.6181 22.1707C16.2886 21.4606 16.2963 21.2339 16.8824 22.0465L23.9421 35.4305L23.7261 35.4915L16.6217 22.1735L16.6181 22.1707Z" fill="#008500"/>
<path fill-rule="evenodd" clip-rule="evenodd" d="M16.6267 22.1624C16.5452 21.9864 16.4846 21.8406 16.4486 21.7335C16.4305 21.6796 16.4187 21.636 16.4136 21.6035C16.411 21.5872 16.4102 21.5742 16.4108 21.5644C16.4114 21.5543 16.4135 21.5489 16.4156 21.5462C16.4173 21.5441 16.4197 21.5425 16.4248 21.5429C16.4303 21.5433 16.4383 21.5461 16.4493 21.5527C16.4711 21.5657 16.5011 21.5916 16.5399 21.6323C16.6171 21.7135 16.7269 21.8509 16.8731 22.0535L23.9248 35.4223L23.7312 35.4769L16.6301 22.1649L16.6267 22.1624ZM16.5551 21.6143C16.6337 21.6968 16.7445 21.8356 16.8911 22.0389L16.8916 22.0396L23.9595 35.4389L23.7209 35.5062L16.6134 22.1823L16.6094 22.1792L16.608 22.1762C16.5256 21.9985 16.464 21.8507 16.4273 21.7415C16.409 21.687 16.3967 21.6417 16.3912 21.6068C16.3884 21.5894 16.3873 21.5742 16.3881 21.5614C16.3889 21.5489 16.3917 21.5374 16.3981 21.5292C16.405 21.5203 16.4146 21.5168 16.4253 21.5176C16.4356 21.5184 16.447 21.5231 16.4593 21.5304C16.4841 21.5452 16.5159 21.5731 16.5551 21.6143Z" fill="black"/>
<path fill-rule="evenodd" clip-rule="evenodd" d="M21.4125 30.9749C21.4875 29.9811 19.6688 28.9124 19.5938 28.978C19.5282 29.053 19.7063 29.6343 20.0532 29.9249C19.3969 29.5874 18.7032 29.3811 18.6844 29.5218C18.6282 29.728 19.7157 30.1968 19.8094 30.3843C19.8094 30.5155 19.0032 30.4968 19.0219 30.628C19.0407 30.7593 21.3 31.903 21.4125 30.9749ZM19.5938 28.0874C19.6688 27.0937 17.85 26.0249 17.7844 26.0905C17.7094 26.1561 17.8875 26.7374 18.2344 27.0374C17.5782 26.6999 16.8844 26.4843 16.8657 26.6343C16.8188 26.8312 17.8969 27.3093 17.9907 27.4968C18 27.628 17.1938 27.6093 17.2032 27.7405C17.2219 27.8718 19.4813 29.0062 19.5938 28.0874ZM18.2063 25.4624C18.2813 24.4687 16.4625 23.3999 16.3875 23.4655C16.3219 23.5312 16.5 24.1124 16.8469 24.4124C16.1907 24.0749 15.4969 23.8593 15.4782 24.0093C15.4313 24.2062 16.5094 24.6843 16.6032 24.8718C16.6032 25.003 15.8063 24.9843 15.8157 25.1155C15.8344 25.2468 18.0938 26.3905 18.2063 25.4624ZM16.8375 22.6124C16.9032 21.628 15.0938 20.5499 15.0188 20.6155C14.9438 20.6905 15.1313 21.2718 15.4688 21.5718C14.8125 21.2249 14.1188 21.0187 14.1094 21.1687C14.0532 21.3655 15.1407 21.8436 15.225 22.0218C15.2344 22.153 14.4282 22.1437 14.4469 22.2749C14.4563 22.4062 16.7157 23.5405 16.8375 22.6124V22.6124Z" fill="#008F00"/>
<path fill-rule="evenodd" clip-rule="evenodd" d="M17.3063 22.4906C18.1876 21.9562 18.0094 19.9218 17.9157 19.9031C17.8126 19.8937 17.4282 20.3718 17.3813 20.8218C17.2782 20.1093 17.0438 19.4531 16.9125 19.5281C16.7157 19.6031 16.95 20.7187 16.8469 20.8968C16.7532 20.9906 16.2844 20.3531 16.1907 20.4468C16.0782 20.5406 16.4532 22.95 17.3157 22.4906H17.3063ZM18.5813 24.9843C19.5938 24.7593 20.1469 22.7906 20.0532 22.7437C19.9594 22.6968 19.4344 23.025 19.2375 23.4375C19.3875 22.7343 19.3969 22.0406 19.2375 22.0687C19.0219 22.0781 18.8626 23.2031 18.7032 23.3343C18.5813 23.3906 18.3563 22.65 18.2344 22.6968C18.1032 22.7531 17.6157 25.1437 18.5813 24.9843ZM20.1 27.5343C21.0282 27.0843 21.0375 25.0406 20.9438 25.0218C20.85 24.9937 20.4282 25.4437 20.3344 25.8843C20.2969 25.1625 20.1282 24.4968 19.9875 24.5625C19.7813 24.6187 19.9125 25.7437 19.8 25.9125C19.6875 25.9968 19.2844 25.3218 19.1719 25.4062C19.0594 25.4812 19.2094 27.9187 20.1094 27.5343H20.1ZM21.75 30.8718C22.7157 30.5062 22.9501 28.4812 22.8563 28.4437C22.7626 28.4156 22.2938 28.8187 22.1532 29.25C22.1907 28.5281 22.0969 27.8437 21.9469 27.9C21.7313 27.9375 21.7501 29.0718 21.6188 29.2312C21.4969 29.2968 21.1688 28.5937 21.0563 28.6687C20.9344 28.725 20.8219 31.1718 21.75 30.8718V30.8718Z" fill="#008F00"/>
<path fill-rule="evenodd" clip-rule="evenodd" d="M23.8767 34.3504C23.631 34.7708 22.8542 34.8089 22.1322 34.4237C21.4102 34.0385 21.0365 33.3867 21.2821 32.9663C21.5277 32.5459 22.3102 32.5109 23.0265 32.893C23.7429 33.2752 24.1223 33.9301 23.8767 34.3504Z" fill="#FF1900"/>
<path fill-rule="evenodd" clip-rule="evenodd" d="M21.9786 32.6629C21.6693 32.6762 21.427 32.7871 21.3127 32.9827C21.1984 33.1784 21.2254 33.433 21.3752 33.6911C21.5245 33.9485 21.7934 34.2037 22.1497 34.3938C22.5061 34.5839 22.8745 34.6687 23.1822 34.6551C23.4906 34.6415 23.7317 34.5299 23.846 34.3342C23.9603 34.1386 23.932 33.8833 23.7815 33.6247C23.6314 33.3669 23.3625 33.1117 23.009 32.9231C22.6555 32.7345 22.2871 32.6497 21.9786 32.6629ZM21.977 32.5946C22.3002 32.5808 22.6812 32.6695 23.0441 32.8631C23.4069 33.0567 23.6859 33.32 23.8432 33.5903C24.0001 33.8598 24.0387 34.1421 23.9073 34.3669C23.776 34.5916 23.5058 34.7092 23.184 34.7234C22.8613 34.7376 22.4803 34.6488 22.1147 34.4538C21.7491 34.2587 21.47 33.9954 21.3134 33.7255C21.1572 33.4562 21.1201 33.1747 21.2514 32.95C21.3828 32.7252 21.6545 32.6085 21.977 32.5946Z" fill="black"/>
<path fill-rule="evenodd" clip-rule="evenodd" d="M42.5173 20.2696L42.6388 19.9559L42.9662 20.059L43.0878 19.7453L43.4151 19.8484L43.2953 20.1577L43.632 20.2637L43.5088 20.5819L43.1721 20.4758L42.8691 21.2579L42.5417 21.1548L42.8447 20.3727L42.5173 20.2696V20.2696ZM41.8141 23.0326L42.1415 23.1357L38.6236 32.2156L38.2962 32.1125L41.8141 23.0326Z" fill="#FFFF00"/>
<path fill-rule="evenodd" clip-rule="evenodd" d="M43.0806 19.7304L43.431 19.8408L43.3112 20.15L43.6479 20.2561L43.5159 20.5967L43.1792 20.4906L42.8762 21.2727L42.5258 21.1624L42.8288 20.3803L42.5129 20.2808L42.5173 20.2696L42.5058 20.266L42.6317 19.941L42.9591 20.0441L43.0806 19.7304ZM42.5331 20.262L42.8605 20.3651L42.5575 21.1471L42.8619 21.243L43.1649 20.4609L43.5017 20.567L43.6162 20.2713L43.2795 20.1653L43.3993 19.856L43.0949 19.7601L42.9734 20.0738L42.646 19.9707L42.5331 20.262ZM41.807 23.0177L42.1574 23.1281L38.6307 32.2304L38.2804 32.1201L41.807 23.0177ZM41.8213 23.0474L38.3121 32.1049L38.6165 32.2007L42.1257 23.1433L41.8213 23.0474Z" fill="black"/>
<path fill-rule="evenodd" clip-rule="evenodd" d="M38.1878 31.9048L38.8519 32.114L37.8813 34.6192L37.2171 34.4101L38.1878 31.9048ZM42.0927 21.3654L43.0889 21.6791C43.7484 21.8867 42.2529 23.3492 42.2529 23.3492L41.5935 23.1416C41.5935 23.1416 41.4286 21.1562 42.0927 21.3654V21.3654ZM43.0083 21.386C42.957 21.5185 42.7709 21.5789 42.5885 21.5215C42.4061 21.464 42.2975 21.3109 42.3472 21.1827C42.3968 21.0546 42.5846 20.9898 42.767 21.0472C42.9494 21.1047 43.058 21.2579 43.0066 21.3904L43.0083 21.386Z" fill="#FFFF00"/>
<path fill-rule="evenodd" clip-rule="evenodd" d="M42.5107 21.0565C42.4375 21.0807 42.3818 21.1266 42.3587 21.1863C42.3356 21.2458 42.3489 21.3122 42.3911 21.3716C42.4333 21.4309 42.5038 21.4822 42.5928 21.5102C42.6819 21.5382 42.7712 21.5373 42.8442 21.5138C42.9162 21.4905 42.9715 21.4454 42.9959 21.3846C43.0188 21.3233 43.0056 21.2566 42.9642 21.1975C42.9222 21.1377 42.8516 21.0865 42.7626 21.0584C42.6737 21.0304 42.5839 21.0324 42.5107 21.0565ZM43.0198 21.3896C43.0448 21.3201 43.0289 21.2466 42.9848 21.1837C42.9397 21.1194 42.8647 21.0654 42.7713 21.036C42.6778 21.0065 42.5825 21.0083 42.5038 21.0342C42.4252 21.0601 42.3622 21.1106 42.3357 21.1791C42.3091 21.2477 42.3253 21.3219 42.3706 21.3856C42.3912 21.4146 42.418 21.4416 42.4498 21.4652L42.0971 21.3541C42.0113 21.3271 41.9374 21.3352 41.8747 21.3716C41.8125 21.4076 41.763 21.4705 41.7235 21.55C41.6445 21.7088 41.6027 21.9393 41.5818 22.1746C41.5609 22.4103 41.5607 22.6524 41.5658 22.8355C41.5684 22.9271 41.5722 23.0039 41.5754 23.0579C41.577 23.0849 41.5785 23.1062 41.5795 23.1207C41.5801 23.128 41.5805 23.1335 41.5808 23.1373L41.5811 23.1416L41.5812 23.143C41.5812 23.143 41.5812 23.1431 41.5935 23.1415L41.5812 23.1431L41.5818 23.1505L42.2559 23.3627L42.2615 23.3573L42.2529 23.3492C42.2615 23.3573 42.2615 23.3573 42.2615 23.3573L42.2626 23.3562L42.2658 23.353C42.2686 23.3502 42.2728 23.3461 42.2782 23.3407C42.289 23.3299 42.3048 23.3141 42.3246 23.2938C42.3643 23.2534 42.4202 23.1953 42.4853 23.125C42.6153 22.9845 42.782 22.7948 42.9281 22.5985C43.074 22.4025 43.2002 22.1987 43.2483 22.0302C43.2724 21.9459 43.2773 21.869 43.2539 21.806C43.2303 21.7424 43.1785 21.6947 43.0933 21.6678L42.7347 21.5549C42.7757 21.5541 42.815 21.5477 42.8509 21.5361C42.9279 21.5112 42.9898 21.4623 43.018 21.394L43.0198 21.3896ZM42.0884 21.3766C42.0082 21.3513 41.942 21.3595 41.8866 21.3916C41.8306 21.4241 41.784 21.482 41.7456 21.5593C41.6687 21.7139 41.6272 21.9406 41.6063 22.1754C41.5855 22.4099 41.5853 22.6511 41.5904 22.8337C41.5929 22.925 41.5968 23.0016 41.6 23.0554C41.6016 23.0823 41.603 23.1034 41.6041 23.1179C41.6045 23.124 41.6049 23.129 41.6051 23.1326L42.2499 23.3357C42.2527 23.333 42.2563 23.3293 42.2609 23.3248C42.2717 23.314 42.2874 23.2983 42.3071 23.2781C42.3467 23.2378 42.4024 23.1799 42.4673 23.1099C42.597 22.9697 42.763 22.7807 42.9083 22.5855C43.0539 22.3899 43.1778 22.1891 43.2247 22.025C43.2481 21.943 43.2518 21.8716 43.2307 21.8149C43.2099 21.7587 43.1642 21.7153 43.0846 21.6903L42.0884 21.3766ZM38.1806 31.8899L38.8677 32.1063L37.8884 34.634L37.2013 34.4176L38.1806 31.8899ZM38.836 32.1215L38.1949 31.9196L37.233 34.4024L37.8741 34.6043L38.836 32.1215Z" fill="black"/>
<path fill-rule="evenodd" clip-rule="evenodd" d="M38.7207 33.2061C38.9989 33.6075 38.6779 34.2846 37.9885 34.7208C37.2991 35.1571 36.5214 35.1754 36.2432 34.774C35.965 34.3726 36.2914 33.6921 36.9754 33.2593C37.6594 32.8264 38.4425 32.8047 38.7207 33.2061Z" fill="#FF1900"/>
<path fill-rule="evenodd" clip-rule="evenodd" d="M36.2807 34.0433C36.1511 34.3119 36.1431 34.5686 36.2726 34.7555C36.4022 34.9425 36.6515 35.0363 36.9601 35.0276C37.2679 35.0189 37.6285 34.9077 37.9687 34.6924C38.3089 34.4771 38.5568 34.2032 38.6853 33.9358C38.8141 33.6677 38.8209 33.4117 38.6914 33.2248C38.5618 33.0379 38.3113 32.9448 38.0019 32.954C37.6933 32.9631 37.3328 33.0743 36.9953 33.2879C36.6578 33.5015 36.4099 33.7754 36.2807 34.0433ZM36.2163 34.0138C36.3518 33.7329 36.6092 33.4501 36.9557 33.2308C37.3022 33.0115 37.6751 32.8954 37.9986 32.8859C38.3213 32.8763 38.6014 32.9731 38.7501 33.1876C38.8987 33.4021 38.8841 33.6853 38.7496 33.9652C38.6148 34.2457 38.3574 34.5285 38.0083 34.7495C37.6591 34.9705 37.2862 35.0866 36.9633 35.0957C36.6411 35.1048 36.3625 35.0071 36.2139 34.7927C36.0652 34.5781 36.0812 34.2939 36.2163 34.0138Z" fill="black"/>
</g>
<defs>
<clipPath id="clip0_4_643">
<rect width="60" height="45" fill="white"/>
</clipPath>
</defs>
</svg>
