<svg width="60" height="45" viewBox="0 0 60 45" fill="none" xmlns="http://www.w3.org/2000/svg">
<g clip-path="url(#clip0_4_5938)">
<path d="M60 0H0V45H60V0Z" fill="#C1272D"/>
<path fill-rule="evenodd" clip-rule="evenodd" d="M30 15.0435L31.6775 20.2078H37.0902L32.7096 23.3852L34.3798 28.5272L30 25.3505L25.6202 28.5272L27.2905 23.3852L22.9098 20.2078H28.3225L30 15.0435ZM27.9663 21.3047H26.2902L27.6467 22.2885L27.9663 21.3047ZM28.5801 22.9655L29.1195 21.3047H30.8805L31.42 22.9655L30 23.9955L28.5801 22.9655ZM28.2238 24.0622L27.7048 25.6603L29.0659 24.673L28.2238 24.0622ZM30.9341 24.673L32.2952 25.6603L31.7762 24.0622L30.9341 24.673ZM32.3533 22.2885L33.7098 21.3047H32.0338L32.3533 22.2885ZM30.5242 20.2078H29.4758L30 18.594L30.5242 20.2078Z" fill="#006233"/>
</g>
<defs>
<clipPath id="clip0_4_5938">
<rect width="60" height="45" fill="white"/>
</clipPath>
</defs>
</svg>
