<svg width="60" height="45" viewBox="0 0 60 45" fill="none" xmlns="http://www.w3.org/2000/svg">
<g clip-path="url(#clip0_4_1454)">
<path fill-rule="evenodd" clip-rule="evenodd" d="M0 0H67.5V14.0625H0V0Z" fill="#009A00"/>
<path fill-rule="evenodd" clip-rule="evenodd" d="M0 14.0625H67.5V15.4688H0V14.0625Z" fill="white"/>
<path fill-rule="evenodd" clip-rule="evenodd" d="M0 15.4688H67.5V29.5312H0V15.4688Z" fill="black"/>
<path fill-rule="evenodd" clip-rule="evenodd" d="M0 29.5312H67.5V30.9375H0V29.5312Z" fill="white"/>
<path fill-rule="evenodd" clip-rule="evenodd" d="M0 30.9375H67.5V45H0V30.9375Z" fill="#FFCA00"/>
<path fill-rule="evenodd" clip-rule="evenodd" d="M0 0V45L29.5312 22.5L0 0Z" fill="#FF0000"/>
<path fill-rule="evenodd" clip-rule="evenodd" d="M17.4463 29.2676L12.9463 25.9717L8.44629 29.2676L10.1953 23.9678L5.66895 20.707L11.25 20.7246L12.9463 15.416L14.6514 20.7334L20.2324 20.707L15.7061 23.9678L17.4463 29.2676Z" fill="#FFCA00"/>
<path fill-rule="evenodd" clip-rule="evenodd" d="M9.03516 25.5674H12.2871C12.5508 25.8574 13.1221 25.9805 13.6758 25.5674C14.6953 25.0049 16.6641 25.5674 16.6641 25.5674L17.0508 25.1543L16.1104 22.0605L15.7676 21.6914C15.7676 21.6914 15.0381 21.252 13.6582 21.4014C12.2783 21.5508 11.7949 21.3574 11.7949 21.3574C11.7949 21.3574 10.5908 21.498 10.248 21.6738L9.86133 22.0605L9.03516 25.5674V25.5674Z" fill="white"/>
<path fill-rule="evenodd" clip-rule="evenodd" d="M11.8129 21.3125C11.8129 21.3125 11.8129 21.3125 11.8129 21.3125C11.8129 21.3125 11.8128 21.3125 11.8127 21.3125C11.8053 21.3095 11.7973 21.3085 11.7893 21.3094L11.7949 21.3574C11.7893 21.3094 11.7893 21.3094 11.7893 21.3094L11.7858 21.3098L11.7755 21.3111C11.7666 21.3121 11.7534 21.3137 11.7365 21.3158C11.7028 21.32 11.6543 21.3262 11.595 21.3342C11.4764 21.3502 11.3147 21.3734 11.1421 21.402C10.9696 21.4307 10.7858 21.4649 10.6233 21.5032C10.462 21.5411 10.3174 21.5839 10.226 21.6308C10.2215 21.6331 10.2174 21.6361 10.2139 21.6396L9.82715 22.0264C9.82079 22.0327 9.81634 22.0407 9.81428 22.0495L8.98835 25.5553C8.98735 25.5591 8.98682 25.5632 8.98682 25.5674C8.98682 25.5941 9.00846 25.6157 9.03516 25.6157H12.2662C12.5538 25.914 13.1413 26.0247 13.702 25.6081C14.1974 25.3364 14.9292 25.3344 15.5468 25.4045C15.8545 25.4394 16.1308 25.4918 16.3302 25.5355C16.4298 25.5573 16.5101 25.577 16.5655 25.5911C16.5932 25.5982 16.6146 25.6039 16.629 25.6079C16.6329 25.6089 16.6362 25.6098 16.639 25.6106C16.6416 25.6113 16.6437 25.6119 16.6454 25.6124L16.6495 25.6135L16.6505 25.6138L16.6507 25.6138C16.6682 25.6188 16.687 25.6137 16.6994 25.6004L17.0861 25.1873C17.0979 25.1747 17.1021 25.1568 17.097 25.1402L16.1566 22.0465C16.1545 22.0395 16.1508 22.033 16.1458 22.0277L15.803 21.6585C15.7999 21.6552 15.7964 21.6523 15.7925 21.65L15.7676 21.6914C15.7925 21.65 15.7925 21.65 15.7925 21.65L15.7922 21.6498L15.7917 21.6495L15.7897 21.6484C15.7881 21.6474 15.7857 21.6461 15.7827 21.6443C15.7765 21.6409 15.7676 21.636 15.7558 21.6299C15.7322 21.6177 15.6973 21.6006 15.6512 21.5807C15.5591 21.5409 15.4224 21.4898 15.2424 21.4435C14.8822 21.351 14.349 21.2779 13.653 21.3533C12.9658 21.4277 12.5034 21.4166 12.214 21.3873C12.0693 21.3727 11.9678 21.3535 11.9031 21.3383C11.8708 21.3306 11.8476 21.324 11.8329 21.3193C11.8255 21.317 11.8202 21.3152 11.8169 21.314C11.8152 21.3134 11.8141 21.313 11.8134 21.3127L11.8129 21.3125ZM15.7371 21.7296C15.7366 21.7293 15.736 21.729 15.7354 21.7287C15.7302 21.7258 15.7222 21.7214 15.7113 21.7157C15.6896 21.7045 15.6568 21.6884 15.6129 21.6695C15.5251 21.6315 15.3931 21.5821 15.2183 21.5372C14.8688 21.4474 14.3473 21.3754 13.6634 21.4494C12.9707 21.5244 12.5015 21.5136 12.2042 21.4835C12.0556 21.4685 11.95 21.4487 11.8809 21.4323C11.8464 21.4242 11.821 21.4169 11.8039 21.4116C11.7981 21.4097 11.7932 21.4081 11.7893 21.4068L11.7871 21.407C11.7783 21.4081 11.7652 21.4097 11.7485 21.4118C11.715 21.4159 11.6668 21.4221 11.6079 21.43C11.49 21.4459 11.3293 21.4689 11.1579 21.4974C10.9865 21.5259 10.8051 21.5597 10.6454 21.5973C10.4889 21.6341 10.3574 21.6736 10.2767 21.7135L9.90523 22.085L9.09621 25.519H12.2871C12.3007 25.519 12.3137 25.5248 12.3229 25.5349C12.5679 25.8044 13.1107 25.9286 13.6469 25.5286C13.6486 25.5273 13.6505 25.5261 13.6524 25.5251C14.1766 25.2359 14.9372 25.238 15.5577 25.3084C15.8696 25.3438 16.1492 25.3969 16.3509 25.4411C16.4517 25.4632 16.5332 25.4831 16.5895 25.4975C16.6142 25.5038 16.6342 25.5091 16.6487 25.513L16.9964 25.1416L16.0673 22.0853L15.7371 21.7296Z" fill="black"/>
<path fill-rule="evenodd" clip-rule="evenodd" d="M12.3281 25.5827C12.5449 25.7341 12.7529 25.8018 12.9614 25.796C13.1702 25.7901 13.3849 25.7103 13.6146 25.5568C13.4611 25.3705 13.248 25.225 12.9978 25.1122C12.7988 25.2076 12.6458 25.3068 12.5343 25.3926C12.4617 25.4484 12.4069 25.4985 12.3684 25.5382C12.3515 25.5556 12.3382 25.5705 12.3281 25.5827ZM12.8802 25.0626C12.7113 25.1492 12.5773 25.2375 12.4753 25.316C12.3994 25.3744 12.341 25.4276 12.299 25.4709C12.258 25.5131 12.2302 25.5483 12.2181 25.571C12.2068 25.5922 12.2127 25.6184 12.232 25.6326C12.4758 25.8133 12.7169 25.8996 12.9641 25.8926C13.2107 25.8857 13.457 25.7862 13.7123 25.607C13.7231 25.5995 13.7303 25.5879 13.7323 25.5749C13.7344 25.562 13.731 25.5487 13.7231 25.5383C13.571 25.3369 13.3592 25.1807 13.1132 25.0597C13.138 25.049 13.1635 25.0383 13.1896 25.0278C13.7798 24.7895 14.6919 24.61 16.0072 24.7891C16.0336 24.7928 16.058 24.7742 16.0616 24.7478C16.0652 24.7213 16.0467 24.697 16.0202 24.6934C14.69 24.5122 13.7607 24.693 13.1534 24.9381C13.0985 24.9603 13.0462 24.983 12.9965 25.006C12.9006 24.9647 12.8004 24.9281 12.6974 24.8958C12.2761 24.7635 11.801 24.7003 11.3561 24.6743C10.9109 24.6484 10.4942 24.6597 10.1889 24.6775C10.0362 24.6864 9.91129 24.6969 9.82442 24.7052C9.78099 24.7094 9.74707 24.713 9.72396 24.7155C9.71241 24.7168 9.70356 24.7178 9.69757 24.7185L9.69075 24.7194L9.68899 24.7196L9.6884 24.7196C9.68837 24.7196 9.68834 24.7197 9.69434 24.7676L9.6884 24.7196C9.66191 24.723 9.64306 24.7471 9.64637 24.7736C9.64968 24.8001 9.67384 24.8189 9.70034 24.8156L9.69434 24.7676C9.70034 24.8156 9.70032 24.8156 9.70034 24.8156L9.70082 24.8155L9.70242 24.8153L9.70892 24.8145C9.71469 24.8139 9.72332 24.8129 9.73464 24.8116C9.75729 24.8091 9.79072 24.8055 9.83363 24.8014C9.91946 24.7932 10.0432 24.7828 10.1946 24.774C10.4974 24.7563 10.9101 24.7452 11.3505 24.7708C11.7911 24.7965 12.2575 24.859 12.6684 24.988C12.7411 25.0108 12.8118 25.0356 12.8802 25.0626Z" fill="black"/>
<path fill-rule="evenodd" clip-rule="evenodd" d="M12.9287 25.0836L12.9551 21.6735L13.0605 21.6743L13.0342 25.0844L12.9287 25.0836ZM16.2961 24.4446L15.716 21.7288L15.8191 21.7068L16.3992 24.4226L16.2961 24.4446Z" fill="black"/>
<path fill-rule="evenodd" clip-rule="evenodd" d="M10.2941 21.6267C10.3201 21.6328 10.3363 21.6587 10.3303 21.6847L10.0051 23.091C9.9991 23.117 9.97314 23.1332 9.94713 23.1272C9.92112 23.1212 9.90491 23.0952 9.91092 23.0692L10.2361 21.6629C10.2421 21.6369 10.2681 21.6207 10.2941 21.6267Z" fill="black"/>
<path fill-rule="evenodd" clip-rule="evenodd" d="M6.93457 25.9365L7.69043 26.833C7.77832 26.8857 7.86621 26.8857 7.94531 26.833L9.07031 25.4795L9.54492 24.8906C9.62402 24.8027 9.6416 24.7061 9.63281 24.627L10.5469 23.8096L10.7402 23.8271C10.6523 23.8096 10.5908 23.7656 10.6523 23.6689L10.8633 23.5107L11.0215 23.7129C11.0215 23.7129 10.793 24.0117 10.7666 24.0117H10.5205L10.0459 24.4424L10.2568 24.6182L10.5645 25.4795L10.9512 25.207L10.7051 24.3281L11.2412 23.7393L11.0391 23.4229L11.1797 23.2471C11.1797 23.2471 13.0518 24.4248 13.7812 24.1084C13.7988 24.1084 13.8252 23.2646 13.8252 23.2646C13.8252 23.2646 11.874 23.0625 11.8301 22.6758C11.7861 22.2891 12.2695 22.2363 12.2695 22.2363L12.0586 21.9551L12.1025 21.7969L12.4453 22.2187L13.21 21.5684L17.7363 26.7187C17.9824 26.6221 18.0352 26.5605 18.0527 26.3145L13.623 21.2256L13.957 20.8652C14.0273 20.7861 14.0449 20.7598 14.0449 20.6367L14.5723 20.1885C14.7103 20.2358 14.8282 20.3288 14.9062 20.4521L16.3477 19.248C16.3828 19.2832 16.4971 19.3184 16.5762 19.2832L18.9404 17.0068L16.3652 18.8262L16.2773 18.7646C16.2773 18.6855 16.3652 18.6768 16.2773 18.5361C16.1719 18.4131 16.0225 18.6504 16.0049 18.6504C15.9785 18.6504 15.627 18.5273 15.5479 18.3691L15.5303 18.7822L14.8711 19.3975L14.3701 19.3711L13.6494 20.0742L13.5615 20.3379L13.6758 20.5752C13.6758 20.5752 13.2891 20.9092 13.2891 20.8916C13.2891 20.8652 13.21 20.7861 13.2012 20.7773L13.5352 20.4785L13.5791 20.2764L13.4736 20.1006C13.4385 20.127 13.0166 20.5752 12.9902 20.5225L11.7598 19.1602L11.8301 18.9053L11.0654 18.0703C10.7842 17.9736 10.3359 17.9561 10.248 18.5713C10.1777 18.7119 9.59766 18.5889 9.59766 18.5889L9.28125 18.6592L7.48828 21.1816L8.48145 22.377L10.5205 19.8018L10.582 19.0723L11.0039 19.5469C11.1533 19.5645 11.2852 19.5732 11.417 19.5029L12.6211 20.8477L12.4189 21.0498L12.5947 21.2432L12.8057 21.1025L12.8848 21.2168C12.7881 21.2695 12.709 21.3486 12.6123 21.4014C12.4541 21.2959 12.2959 21.1641 12.3047 20.9619L11.6279 21.5244L11.6016 21.6299L9.58887 23.2998L9.41309 23.3262L9.36914 23.8535L10.6787 22.7637V22.6055L10.8105 22.7197L11.8301 21.9023C11.8301 21.9023 11.9004 21.9902 11.874 21.9902C11.8477 21.9902 10.9688 22.8076 10.9688 22.8076L10.9512 22.8955L10.793 23.0361L10.7051 22.9658L9.47461 24.0557H9.29883L8.62207 24.7324C8.44629 24.75 8.29687 24.7676 8.14746 24.8643L6.93457 25.9365V25.9365Z" fill="black"/>
<path fill-rule="evenodd" clip-rule="evenodd" d="M18.9777 16.976C18.9938 16.9955 18.9921 17.0241 18.9739 17.0417L16.6097 19.318C16.6056 19.3219 16.6009 19.3251 16.5958 19.3274C16.5437 19.3505 16.4841 19.3493 16.4357 19.3393C16.4056 19.3332 16.3753 19.3227 16.3502 19.3089L14.9372 20.4892C14.9265 20.4982 14.9125 20.5021 14.8987 20.4999C14.885 20.4978 14.8728 20.4898 14.8654 20.478C14.798 20.3716 14.6987 20.2897 14.582 20.2436L14.093 20.6593C14.092 20.7107 14.0869 20.75 14.072 20.7859C14.0552 20.8265 14.0276 20.8586 13.9931 20.8974L13.9925 20.8981L13.688 21.2266L18.0892 26.2827C18.0976 26.2924 18.1018 26.3051 18.1009 26.3179C18.092 26.4421 18.074 26.5321 18.0181 26.6027C17.963 26.6721 17.8768 26.7155 17.754 26.7637C17.735 26.7712 17.7134 26.766 17.7 26.7507L13.205 21.636L12.4766 22.2556C12.4667 22.264 12.4538 22.2681 12.4408 22.2669C12.4279 22.2657 12.416 22.2593 12.4078 22.2492L12.124 21.9L12.1115 21.9451L12.3082 22.2073C12.3186 22.2212 12.3208 22.2396 12.3138 22.2556C12.3069 22.2715 12.292 22.2825 12.2748 22.2844L12.274 22.2845C12.2733 22.2846 12.2721 22.2847 12.2706 22.2849C12.2675 22.2853 12.2628 22.286 12.2568 22.287C12.2447 22.2891 12.2272 22.2924 12.2062 22.2976C12.164 22.3079 12.1091 22.3254 12.056 22.3537C12.0029 22.382 11.9539 22.4201 11.9205 22.4706C11.8878 22.5202 11.8683 22.5846 11.8781 22.6703C11.8813 22.6986 11.9034 22.7335 11.9571 22.7732C12.0097 22.8121 12.085 22.8499 12.1778 22.8859C12.363 22.9577 12.6078 23.0186 12.8536 23.0678C13.0989 23.117 13.3431 23.1542 13.5261 23.1791C13.6176 23.1916 13.6937 23.2009 13.7469 23.2072C13.7735 23.2103 13.7943 23.2127 13.8085 23.2142C13.8156 23.215 13.8211 23.2156 13.8247 23.216L13.8288 23.2164L13.8301 23.2166C13.8301 23.2166 13.8301 23.2166 13.8252 23.2647C13.8735 23.2662 13.8735 23.2662 13.8735 23.2662L13.8735 23.2663L13.8735 23.2668L13.8723 23.3025C13.8716 23.3256 13.8705 23.3586 13.8691 23.3982C13.8663 23.4773 13.8625 23.5829 13.8581 23.6885C13.8537 23.7941 13.8487 23.9 13.8437 23.9796C13.8413 24.0193 13.8387 24.0531 13.8362 24.0772C13.835 24.089 13.8337 24.0997 13.8321 24.1078C13.8314 24.1116 13.8303 24.1169 13.8285 24.1221C13.8276 24.1244 13.8257 24.1296 13.8219 24.1352C13.8202 24.1376 13.8124 24.1488 13.7975 24.154C13.6004 24.2382 13.3347 24.2204 13.0558 24.1543C12.7734 24.0874 12.4678 23.9684 12.1868 23.8404C11.9056 23.7122 11.6475 23.5742 11.4598 23.4682C11.3659 23.4153 11.2896 23.3703 11.2366 23.3385C11.2185 23.3276 11.2031 23.3183 11.1907 23.3107L11.0984 23.426L11.2819 23.7132C11.2937 23.7316 11.2916 23.7557 11.2769 23.7718L10.7588 24.3409L10.9977 25.194C11.0032 25.2137 10.9957 25.2348 10.979 25.2465L10.5923 25.519C10.5799 25.5277 10.5642 25.5301 10.5498 25.5256C10.5354 25.521 10.524 25.51 10.5189 25.4958L10.2157 24.6469L10.0149 24.4795C10.0042 24.4706 9.99783 24.4574 9.99754 24.4434C9.99724 24.4294 10.003 24.416 10.0134 24.4066L10.488 23.9759C10.4969 23.9679 10.5085 23.9634 10.5205 23.9634H10.7523C10.7595 23.9567 10.7694 23.9463 10.7815 23.9328C10.8058 23.9057 10.8362 23.8691 10.8663 23.8319C10.8963 23.7949 10.9255 23.7578 10.9472 23.7299C10.9519 23.7238 10.9563 23.7182 10.9602 23.7131L10.8544 23.5778L10.6888 23.702C10.6794 23.7182 10.6765 23.7293 10.6759 23.736C10.6754 23.7424 10.6768 23.7459 10.6791 23.749C10.6864 23.7588 10.7077 23.7714 10.7497 23.7797C10.7749 23.7848 10.7917 23.8087 10.788 23.8341C10.7844 23.8595 10.7614 23.8776 10.7358 23.8753L10.5634 23.8596L9.6828 24.6471C9.68657 24.7324 9.66234 24.8319 9.58172 24.922L9.10746 25.5104L7.98246 26.8639C7.97947 26.8675 7.97598 26.8706 7.9721 26.8732C7.87597 26.9373 7.76785 26.9359 7.66553 26.8745C7.66096 26.8717 7.65688 26.8682 7.65344 26.8642L6.89758 25.9677L6.93454 25.9365L6.90252 25.9003L8.11541 24.828C8.11722 24.8264 8.11914 24.825 8.12117 24.8237C8.27625 24.7233 8.43142 24.7031 8.60005 24.6861L9.26462 24.0215C9.27368 24.0124 9.28598 24.0073 9.2988 24.0073H9.45625L10.673 22.9296C10.6906 22.914 10.7169 22.9134 10.7352 22.9281L10.7913 22.9729L10.9069 22.8701L10.9213 22.7981C10.9233 22.7882 10.9284 22.7791 10.9358 22.7722L10.9687 22.8076C10.9358 22.7722 10.9358 22.7722 10.9358 22.7722L10.9737 22.7371C10.9978 22.7147 11.0322 22.6828 11.0736 22.6444C11.1565 22.5678 11.2672 22.4655 11.3788 22.3633C11.4904 22.2611 11.6029 22.1587 11.6893 22.0818C11.7101 22.0633 11.7295 22.0462 11.747 22.0309L10.8408 22.7574C10.8225 22.772 10.7965 22.7715 10.7789 22.7563L10.727 22.7113V22.7637C10.727 22.778 10.7206 22.7916 10.7096 22.8008L9.40003 23.8907C9.38506 23.9031 9.36407 23.9054 9.34679 23.8964C9.32951 23.8874 9.31932 23.8689 9.32094 23.8495L9.36488 23.3222C9.36674 23.2998 9.38372 23.2817 9.40588 23.2784L9.56834 23.254L11.5585 21.6028L11.581 21.5127C11.5835 21.5027 11.5891 21.4938 11.597 21.4872L12.2738 20.9247C12.2885 20.9125 12.309 20.9101 12.3261 20.9186C12.3433 20.9271 12.3538 20.9449 12.353 20.964C12.3458 21.1275 12.4658 21.2422 12.6143 21.3444C12.6497 21.3227 12.6835 21.2974 12.7195 21.2704L12.7208 21.2695C12.7506 21.2471 12.782 21.2235 12.8156 21.2018L12.7929 21.1691L12.6215 21.2834C12.6016 21.2967 12.575 21.2934 12.5589 21.2757L12.3831 21.0823C12.3658 21.0632 12.3665 21.0339 12.3847 21.0156L12.5545 20.8458L11.4053 19.5623C11.2705 19.6219 11.136 19.6111 10.9982 19.5949C10.9865 19.5935 10.9756 19.5878 10.9677 19.579L10.6207 19.1886L10.5686 19.8058C10.5678 19.8153 10.5643 19.8243 10.5584 19.8318L8.51931 22.407C8.51027 22.4184 8.49655 22.4251 8.48198 22.4253C8.46742 22.4255 8.45355 22.4191 8.44423 22.4078L7.45107 21.2125C7.43706 21.1957 7.43615 21.1715 7.44885 21.1536L9.24182 18.6312C9.24875 18.6214 9.25905 18.6146 9.27073 18.612L9.58714 18.5417C9.59389 18.5402 9.60089 18.5401 9.60766 18.5416L9.60798 18.5416L9.60913 18.5419L9.61378 18.5428C9.61791 18.5437 9.62402 18.5449 9.63185 18.5464C9.64753 18.5494 9.67008 18.5536 9.69738 18.5582C9.7521 18.5674 9.82542 18.5782 9.90058 18.5847C9.97629 18.5911 10.0514 18.593 10.1106 18.5854C10.1402 18.5816 10.1635 18.5757 10.1802 18.5683C10.1918 18.5631 10.1982 18.558 10.2017 18.5541C10.2012 18.5575 10.2007 18.561 10.2002 18.5645L10.248 18.5713L10.2048 18.5497C10.2042 18.5509 10.2032 18.5524 10.2017 18.5541C10.249 18.2405 10.3903 18.0761 10.5669 18.0087C10.7405 17.9424 10.9359 17.9747 11.0811 18.0246C11.0887 18.0272 11.0956 18.0317 11.101 18.0377L11.8657 18.8726C11.8769 18.8849 11.8811 18.9021 11.8766 18.9181L11.8134 19.1474L11.7956 19.1278L11.7597 19.1602L11.8063 19.173L11.8134 19.1474L13.0078 20.4699C13.0028 20.4732 12.9985 20.4758 12.995 20.4776C12.9925 20.4788 12.9913 20.4792 12.9913 20.4793C12.9912 20.4793 12.9927 20.4788 12.9954 20.4785C12.9984 20.4783 13.0053 20.4782 13.0134 20.4818C13.0182 20.4839 13.0224 20.4868 13.0258 20.4903C13.029 20.4935 13.0315 20.497 13.0334 20.5008C13.0315 20.4969 13.029 20.4933 13.0261 20.4901L13.0078 20.4699C13.0167 20.464 13.0281 20.4557 13.0417 20.4447C13.0837 20.4112 13.1387 20.3606 13.1951 20.3063C13.2513 20.2523 13.3078 20.1958 13.3528 20.1509L13.3532 20.1505C13.3754 20.1282 13.3949 20.1087 13.41 20.094C13.4237 20.0804 13.437 20.0676 13.4446 20.0619C13.4555 20.0537 13.4695 20.0505 13.4829 20.0531C13.4963 20.0558 13.508 20.064 13.5151 20.0757L13.5683 20.1645L13.5343 20.2666L13.5318 20.2661L13.5278 20.2848L13.4632 20.1772C13.4684 20.1721 13.4733 20.1673 13.4777 20.1629C13.4851 20.1557 13.4911 20.1498 13.4957 20.1455C13.4999 20.1416 13.5019 20.1399 13.5025 20.1394C13.5026 20.1393 13.5027 20.1392 13.5026 20.1393L13.4736 20.1006L13.4322 20.1255L13.4632 20.1772C13.4511 20.1893 13.4369 20.2035 13.4211 20.2192L13.4209 20.2194C13.3761 20.2643 13.319 20.3214 13.2621 20.376C13.2054 20.4306 13.1477 20.4838 13.1021 20.5203C13.0797 20.5381 13.0578 20.554 13.0392 20.5636C13.0305 20.568 13.0178 20.5736 13.0038 20.5749C12.9962 20.5755 12.9855 20.5752 12.9742 20.5702C12.965 20.5661 12.9575 20.5598 12.9519 20.5522L12.9543 20.5549L12.9902 20.5225L12.947 20.5441C12.9484 20.5469 12.95 20.5496 12.9519 20.5522L11.7239 19.1926C11.7128 19.1803 11.7087 19.1632 11.7131 19.1473L11.7763 18.9182L11.7944 18.9379L11.83 18.9053L11.7834 18.8924L11.7763 18.9182L11.0382 18.1121C11.042 18.1134 11.0459 18.1147 11.0497 18.116L11.0654 18.0703L11.0297 18.103L11.0382 18.1121C10.9042 18.0679 10.7403 18.046 10.6014 18.099C10.4636 18.1516 10.338 18.2832 10.2959 18.5781C10.2951 18.5833 10.2936 18.5883 10.2913 18.5929C10.2757 18.6241 10.248 18.6439 10.2196 18.6566C10.1911 18.6693 10.1575 18.6769 10.1229 18.6813C10.0535 18.6902 9.97043 18.6877 9.89233 18.681C9.81367 18.6742 9.73758 18.663 9.68134 18.6536C9.65316 18.6488 9.62984 18.6445 9.61352 18.6413C9.60731 18.6401 9.60211 18.6391 9.59804 18.6383L9.60811 18.6361L9.59763 18.5889C9.58759 18.6362 9.5876 18.6362 9.58761 18.6362L9.58811 18.6363L9.58946 18.6365L9.59453 18.6376C9.59559 18.6378 9.59676 18.638 9.59804 18.6383M9.30985 18.7023L9.32062 18.6872L9.28122 18.6592L9.29171 18.7064L9.30985 18.7023ZM13.5269 20.2888L13.5278 20.2848L13.5281 20.2853L13.5269 20.2888ZM13.5141 20.3476C13.5124 20.3393 13.5129 20.3307 13.5156 20.3226L13.5269 20.2888L13.5141 20.3476ZM13.5817 20.4914L13.5179 20.3589C13.5162 20.3552 13.5149 20.3514 13.5141 20.3476L13.4912 20.4529L13.1689 20.7413C13.159 20.7502 13.1532 20.7627 13.1528 20.776C13.1525 20.7893 13.1576 20.8021 13.167 20.8115C13.1712 20.8158 13.1921 20.8367 13.2118 20.8595C13.2217 20.871 13.2304 20.8819 13.2364 20.8908C13.2388 20.8944 13.2404 20.8971 13.2412 20.8988C13.243 20.9105 13.2495 20.9251 13.2654 20.9342C13.2801 20.9425 13.2939 20.9406 13.2977 20.94C13.3066 20.9386 13.3136 20.9349 13.3156 20.9339L13.3158 20.9338C13.3216 20.9307 13.328 20.9264 13.3335 20.9226C13.3453 20.9143 13.3613 20.9019 13.3795 20.8874C13.4163 20.8581 13.4651 20.8177 13.5135 20.777C13.562 20.7362 13.6104 20.6949 13.6468 20.6638C13.6649 20.6483 13.6801 20.6353 13.6907 20.6262L13.7071 20.612L13.7073 20.6118L13.6758 20.5752L13.7073 20.6118C13.7239 20.5975 13.7288 20.5739 13.7193 20.5542L13.6152 20.3379L13.6203 20.3144L13.6915 20.1006L14.3887 19.4205L14.8685 19.4457C14.8816 19.4464 14.8945 19.4418 14.904 19.4328L15.5632 18.8176C15.5725 18.8089 15.578 18.797 15.5785 18.7843L15.5908 18.4951C15.6002 18.5031 15.6099 18.5109 15.6197 18.5183C15.6673 18.5545 15.7223 18.5862 15.7745 18.6123C15.8268 18.6385 15.8773 18.6595 15.9167 18.674C15.9363 18.6813 15.9535 18.6871 15.967 18.6911C15.9738 18.6931 15.9799 18.6948 15.9853 18.6961C15.9892 18.697 15.997 18.6987 16.0049 18.6987C16.0177 18.6987 16.027 18.6938 16.0304 18.692C16.0347 18.6896 16.0381 18.6869 16.0403 18.6852C16.0447 18.6815 16.0489 18.6773 16.0522 18.6738C16.0576 18.6683 16.0641 18.6609 16.0708 18.6534C16.0725 18.6514 16.0743 18.6494 16.0761 18.6474C16.0941 18.6272 16.1157 18.6037 16.1391 18.5843C16.1633 18.5641 16.1844 18.5525 16.2008 18.5497C16.212 18.5478 16.2237 18.5491 16.2384 18.5651C16.257 18.5955 16.2644 18.6157 16.2669 18.629C16.2692 18.6414 16.2677 18.6492 16.2649 18.6567C16.2633 18.6611 16.261 18.6659 16.2577 18.6721C16.257 18.6736 16.2561 18.6752 16.2551 18.677C16.2524 18.6821 16.249 18.6884 16.2462 18.6942C16.2375 18.7121 16.229 18.735 16.229 18.7647C16.229 18.7804 16.2367 18.7952 16.2496 18.8043L16.3375 18.8658C16.3542 18.8775 16.3764 18.8774 16.3931 18.8657L18.4477 17.4141L16.5494 19.2419C16.5231 19.2512 16.4892 19.2516 16.4551 19.2446C16.4167 19.2368 16.3899 19.2219 16.3818 19.2139C16.3641 19.1962 16.3358 19.1949 16.3166 19.211L14.9159 20.3811C14.8331 20.2709 14.719 20.1877 14.5879 20.1428C14.5718 20.1372 14.5539 20.1406 14.5409 20.1516L14.0136 20.5999C14.0028 20.6091 13.9966 20.6225 13.9966 20.6367C13.9966 20.697 13.992 20.7263 13.9826 20.749C13.9731 20.7721 13.9568 20.7927 13.9212 20.8327L13.9215 20.8324L13.957 20.8652L13.9209 20.8331L13.5876 21.1927C13.5708 21.2108 13.5703 21.2387 13.5866 21.2573L18.0029 26.3309C17.9938 26.44 17.9766 26.4993 17.9423 26.5426C17.9084 26.5854 17.8529 26.6189 17.75 26.6612L13.2462 21.5365C13.2288 21.5166 13.1987 21.5144 13.1786 21.5315L12.4516 22.1499L12.14 21.7664C12.1286 21.7524 12.1103 21.7459 12.0926 21.7496C12.0749 21.7532 12.0608 21.7665 12.0559 21.7839L12.012 21.9421C12.008 21.9566 12.0109 21.9721 12.0199 21.9841L12.1844 22.2034C12.1839 22.2035 12.1835 22.2036 12.1831 22.2037C12.136 22.2153 12.0729 22.2351 12.0105 22.2684C11.9483 22.3016 11.8848 22.3492 11.8398 22.4174C11.7943 22.4864 11.7698 22.5736 11.782 22.6812C11.7898 22.7496 11.8383 22.8057 11.8997 22.851C11.9622 22.8972 12.0465 22.9387 12.1428 22.976C12.3359 23.0509 12.5871 23.113 12.8346 23.1626C13.0826 23.2123 13.3289 23.2498 13.5131 23.2749C13.6052 23.2875 13.6819 23.2969 13.7356 23.3032C13.7508 23.305 13.7641 23.3065 13.7754 23.3078C13.7747 23.3302 13.7737 23.3599 13.7725 23.3948C13.7697 23.4738 13.7659 23.5792 13.7615 23.6845C13.7571 23.7899 13.7522 23.895 13.7473 23.9735C13.7448 24.0129 13.7424 24.0451 13.7401 24.0671C13.7399 24.0693 13.7396 24.0713 13.7394 24.0732C13.5734 24.1356 13.3418 24.1228 13.0781 24.0603C12.8044 23.9954 12.5052 23.8792 12.2269 23.7524C11.949 23.6257 11.6935 23.4891 11.5073 23.384C11.4143 23.3316 11.3387 23.287 11.2864 23.2556C11.2603 23.2399 11.2399 23.2275 11.2262 23.2191C11.2193 23.2148 11.2141 23.2116 11.2106 23.2094L11.2067 23.2069L11.2057 23.2063L11.2055 23.2062C11.2055 23.2062 11.2054 23.2062 11.1797 23.2471L11.2055 23.2062C11.1846 23.1931 11.1573 23.1977 11.1419 23.2169L11.0013 23.3927C10.9884 23.4088 10.9871 23.4314 10.9983 23.4489L11.1805 23.7341L10.6693 24.2956C10.6581 24.3079 10.654 24.3251 10.6585 24.3412L10.8954 25.1872L10.5886 25.4034L10.3023 24.6019C10.2994 24.5938 10.2944 24.5866 10.2878 24.581L10.1195 24.4408L10.5391 24.0601H10.7666C10.7777 24.0601 10.7863 24.0565 10.7901 24.0546C10.7948 24.0525 10.7987 24.05 10.8015 24.0479C10.8073 24.0439 10.813 24.039 10.818 24.0343C10.8284 24.0246 10.8406 24.0117 10.8535 23.9973C10.8795 23.9684 10.9111 23.9302 10.9415 23.8927C10.9719 23.855 11.0015 23.8174 11.0235 23.7893C11.0344 23.7752 11.0435 23.7635 11.0499 23.7552L11.0572 23.7457L11.0597 23.7425L11.0598 23.7423C11.0732 23.7248 11.0731 23.7004 11.0595 23.6831L10.9013 23.481C10.8851 23.4602 10.8553 23.4563 10.8342 23.4721L10.6233 23.6303C10.6186 23.6338 10.6147 23.6381 10.6115 23.643C10.5936 23.6712 10.5819 23.6996 10.5796 23.7279C10.5785 23.7406 10.5793 23.7527 10.5819 23.7642L10.5512 23.7614C10.5379 23.7602 10.5246 23.7646 10.5146 23.7735L9.60056 24.5909C9.58891 24.6013 9.58301 24.6168 9.58474 24.6323C9.59221 24.6996 9.57762 24.782 9.50896 24.8583C9.50837 24.8589 9.5078 24.8596 9.50725 24.8603L9.03311 25.4486L9.07028 25.4795L9.03264 25.4492L7.91283 26.7964C7.8542 26.833 7.79064 26.8343 7.72197 26.7955L7.00193 25.9415L8.17668 24.9029C8.31418 24.815 8.45185 24.798 8.62685 24.7805C8.63795 24.7794 8.64833 24.7745 8.65622 24.7666L9.31882 24.104H9.47458C9.48639 24.104 9.49779 24.0997 9.50663 24.0919L10.7066 23.029L10.7627 23.0739C10.7811 23.0886 10.8075 23.0879 10.8251 23.0723L10.9833 22.9316C10.9911 22.9247 10.9965 22.9153 10.9985 22.905L11.0131 22.8324L11.0394 22.8079C11.0635 22.7856 11.0979 22.7537 11.1393 22.7154C11.2221 22.6388 11.3327 22.5367 11.4441 22.4346C11.5556 22.3324 11.6677 22.2305 11.7536 22.1541C11.7965 22.1158 11.8326 22.0843 11.8587 22.0623C11.8717 22.0513 11.8818 22.0432 11.8887 22.0379C11.8898 22.0371 11.8907 22.0364 11.8915 22.0359C11.8959 22.0344 11.9007 22.0322 11.9053 22.029C11.9175 22.0206 11.9239 22.0087 11.9266 21.9982C11.9309 21.9811 11.9258 21.9659 11.9239 21.9605C11.9189 21.9464 11.9097 21.9312 11.9024 21.9199C11.8945 21.9077 11.8858 21.8958 11.8793 21.8871C11.876 21.8827 11.8732 21.879 11.8712 21.8764L11.8688 21.8734L11.8681 21.8725L11.8679 21.8723L11.8678 21.8722C11.8678 21.8722 11.8678 21.8722 11.8652 21.8742L11.8678 21.8722C11.8598 21.8622 11.8481 21.8557 11.8354 21.8543C11.8226 21.8529 11.8098 21.8566 11.7998 21.8646L10.8117 22.6568L10.7103 22.5689C10.696 22.5565 10.6758 22.5536 10.6586 22.5615C10.6414 22.5694 10.6303 22.5865 10.6303 22.6055V22.741L9.42686 23.7426L9.45805 23.3683L9.59601 23.3476C9.60472 23.3463 9.61292 23.3426 9.6197 23.337L11.6324 21.6671C11.6403 21.6605 11.6459 21.6516 11.6484 21.6416L11.671 21.5515L12.2641 21.0585C12.3005 21.2343 12.4523 21.3528 12.5855 21.4416C12.6004 21.4516 12.6196 21.4524 12.6354 21.4438C12.6868 21.4158 12.7331 21.381 12.7762 21.3487L12.7775 21.3478C12.8219 21.3144 12.8631 21.2837 12.9079 21.2592C12.9199 21.2527 12.9286 21.2413 12.9318 21.228C12.9349 21.2146 12.9323 21.2006 12.9245 21.1893L12.8454 21.075C12.8304 21.0533 12.8008 21.0477 12.7788 21.0623L12.6025 21.1799L12.4857 21.0514L12.6552 20.8818C12.6734 20.8637 12.6742 20.8345 12.6571 20.8154L11.453 19.4707C11.4381 19.4541 11.4139 19.4498 11.3942 19.4603C11.2817 19.5203 11.1686 19.5169 11.0277 19.501L10.6181 19.0402C10.6053 19.0257 10.5851 19.0203 10.5667 19.0264C10.5484 19.0325 10.5355 19.0489 10.5338 19.0682L10.4735 19.7832L8.48051 22.3002L7.54919 21.1793L7.52765 21.2096L7.48825 21.1816L7.52543 21.1508L7.54919 21.1793M8.48051 22.3002L8.44352 22.3469L8.48141 22.377L8.5186 22.3461L8.48051 22.3002ZM10.4735 19.7832L10.4723 19.7977L10.5205 19.8018L10.4826 19.7718L10.4735 19.7832ZM11.0277 19.501C11.0217 19.5003 11.0156 19.4996 11.0095 19.4989L11.0039 19.5469L11.04 19.5148L11.0277 19.501ZM12.4857 21.0514L12.4547 21.0173L12.4189 21.0498L12.4531 21.084L12.4857 21.0514ZM12.6025 21.1799L12.5679 21.2029L12.5947 21.2432L12.6305 21.2106L12.6025 21.1799ZM12.2641 21.0585L12.3356 20.9991L12.3047 20.9619L12.2564 20.9598C12.2549 20.9946 12.2577 21.0274 12.2641 21.0585ZM11.671 21.5515L11.6748 21.5361L11.6279 21.5244L11.6588 21.5616L11.671 21.5515ZM9.45805 23.3683L9.46123 23.3302L9.41306 23.3262L9.42023 23.374L9.45805 23.3683ZM9.42686 23.7426L9.33819 23.8164L9.36911 23.8535L9.41728 23.8575L9.42686 23.7426ZM10.6303 22.741V22.7637H10.6787L10.6478 22.7265L10.6303 22.741ZM10.8117 22.6568L10.7803 22.682L10.8105 22.7197L10.8422 22.6832L10.8117 22.6568ZM11.8915 22.0359C11.8933 22.0345 11.8945 22.0337 11.895 22.0334C11.8954 22.0331 11.8946 22.0337 11.893 22.0344C11.8922 22.0348 11.8904 22.0356 11.888 22.0364C11.886 22.0371 11.8808 22.0386 11.874 22.0386C11.8787 22.0386 11.8849 22.038 11.8915 22.0359ZM10.7066 23.029L10.7371 23.002L10.705 22.9658L10.6748 23.0036L10.7066 23.029ZM9.31882 24.104L9.33298 24.0898L9.2988 24.0557V24.104H9.31882ZM8.17668 24.9029L8.17945 24.9005L8.14743 24.8643L8.17369 24.9048C8.17469 24.9042 8.17569 24.9036 8.17668 24.9029ZM7.72197 26.7955C7.71974 26.7942 7.71751 26.7929 7.71527 26.7916L7.6904 26.833L7.72736 26.8018L7.72197 26.7955ZM7.91283 26.7964L7.90811 26.8021L7.94528 26.833L7.91847 26.7928C7.91659 26.794 7.91472 26.7952 7.91283 26.7964ZM10.5819 23.7642C10.5854 23.7796 10.592 23.7938 10.6014 23.8064C10.6315 23.8472 10.6848 23.8654 10.7307 23.8746L10.7402 23.8272L10.7446 23.779L10.5819 23.7642ZM10.5391 24.0601L10.553 24.0475L10.5205 24.0117V24.0601H10.5391ZM10.1195 24.4408L10.0768 24.4052L10.0459 24.4424L10.0784 24.4782L10.1195 24.4408ZM10.5886 25.4034L10.5366 25.44L10.5644 25.4795L10.6099 25.4632L10.5886 25.4034ZM10.8954 25.1872L10.9046 25.2201L10.9511 25.207L10.9233 25.1675L10.8954 25.1872ZM11.1805 23.7341L11.2004 23.7653L11.2412 23.7393L11.2054 23.7067L11.1805 23.7341ZM13.7614 24.0643C13.7495 24.0698 13.7434 24.0788 13.7422 24.0804C13.739 24.085 13.7376 24.089 13.7373 24.0898C13.737 24.0909 13.7368 24.0916 13.7368 24.0916C13.7368 24.0916 13.7369 24.0912 13.7371 24.09C13.7377 24.0866 13.7385 24.0811 13.7394 24.0732C13.7469 24.0704 13.7542 24.0674 13.7614 24.0643ZM13.7614 24.0643C13.7668 24.0618 13.7734 24.0601 13.7812 24.0601C13.7746 24.0601 13.7681 24.0614 13.762 24.0641C13.7618 24.0641 13.7616 24.0642 13.7614 24.0643ZM12.2695 22.2363L12.2308 22.2653L12.1844 22.2034C12.2075 22.1977 12.2269 22.194 12.2408 22.1917C12.2479 22.1905 12.2536 22.1897 12.2576 22.1891C12.2596 22.1888 12.2611 22.1886 12.2623 22.1885L12.2636 22.1883L12.264 22.1883L12.2642 22.1883C12.2642 22.1883 12.2643 22.1883 12.2695 22.2363ZM12.4516 22.1499L12.414 22.1819L12.4453 22.2188L12.4828 22.1883L12.4516 22.1499ZM17.75 26.6612C17.74 26.6653 17.7296 26.6695 17.7186 26.6738L17.7363 26.7188L17.7726 26.6868L17.75 26.6612ZM18.0029 26.3309L18.0162 26.3462L18.0527 26.3145L18.0045 26.311C18.004 26.3178 18.0035 26.3245 18.0029 26.3309ZM14.9159 20.3811L14.8752 20.4151L14.9062 20.4522L14.9471 20.4263C14.9372 20.4108 14.9268 20.3957 14.9159 20.3811ZM16.5494 19.2419L16.5426 19.2484L16.5761 19.2832L16.5565 19.239C16.5542 19.2401 16.5518 19.241 16.5494 19.2419ZM16.2384 18.5651C16.2391 18.5659 16.2399 18.5667 16.2406 18.5676L16.2773 18.5361L16.2363 18.5618C16.237 18.5629 16.2377 18.564 16.2384 18.5651ZM15.5908 18.4951L15.5961 18.3712L15.5478 18.3691L15.5046 18.3908C15.524 18.4297 15.5553 18.4645 15.5908 18.4951ZM14.3887 19.4205L14.4038 19.4057L14.3701 19.3711L14.3675 19.4194L14.3887 19.4205ZM13.6915 20.1006L13.6952 20.0895L13.6494 20.0742L13.6831 20.1088L13.6915 20.1006ZM13.6135 20.3346L13.6152 20.3379L13.5824 20.4888C13.5822 20.4896 13.582 20.4905 13.5817 20.4914L13.6161 20.5628C13.6071 20.5705 13.5962 20.5799 13.5839 20.5904C13.5477 20.6214 13.4995 20.6625 13.4513 20.703C13.403 20.7436 13.3551 20.7833 13.3194 20.8118C13.3147 20.8155 13.3103 20.819 13.3061 20.8222C13.2993 20.8133 13.292 20.8045 13.285 20.7963C13.2801 20.7907 13.2753 20.7853 13.2706 20.7801L13.5674 20.5145C13.5743 20.5083 13.5793 20.5003 13.5817 20.4914M13.3061 20.8222C13.2943 20.8314 13.2847 20.8387 13.2778 20.8435C13.2735 20.8465 13.2715 20.8478 13.2711 20.8481C13.271 20.8481 13.271 20.8481 13.2711 20.8481C13.2713 20.848 13.2721 20.8475 13.2735 20.847C13.2746 20.8465 13.2779 20.8452 13.2825 20.8445C13.2856 20.844 13.2989 20.842 13.3132 20.8501C13.3323 20.861 13.3374 20.8798 13.3374 20.8916C13.3374 20.8778 13.3326 20.866 13.3295 20.8592C13.3258 20.8513 13.3212 20.8437 13.3167 20.8369C13.3134 20.8321 13.3099 20.8271 13.3061 20.8222ZM13.2706 20.7801L13.2334 20.8134L13.2011 20.7773L13.2353 20.7432C13.2389 20.7467 13.2537 20.7615 13.2706 20.7801ZM13.6135 20.3346L13.6203 20.3144L13.6263 20.2866C13.6289 20.2746 13.6269 20.262 13.6205 20.2515L13.5683 20.1645L13.6035 20.0589C13.606 20.0516 13.6101 20.045 13.6156 20.0396L14.3363 19.3365C14.346 19.3271 14.3591 19.3221 14.3726 19.3228L14.8531 19.3481L14.8381 19.3621L14.8711 19.3975L14.8736 19.3492L14.8531 19.3481L15.4828 18.7604L15.4819 18.7802L15.5302 18.7822L15.4973 18.7469L15.4828 18.7604L15.4995 18.3671C15.5005 18.3451 15.5162 18.3265 15.5377 18.3219C15.5593 18.3173 15.5812 18.3278 15.5911 18.3475C15.606 18.3775 15.6361 18.4095 15.6781 18.4413C15.7194 18.4727 15.7688 18.5014 15.8177 18.5259C15.8665 18.5502 15.9137 18.5699 15.9502 18.5834C15.9666 18.5894 15.9805 18.5941 15.9912 18.5974C15.9878 18.6012 15.9849 18.6044 15.9823 18.607C15.9797 18.6098 15.9788 18.6106 15.979 18.6104C15.9791 18.6103 15.9807 18.609 15.9834 18.6075C15.9851 18.6065 15.9931 18.6021 16.0049 18.6021C16.0072 18.6021 16.0089 18.6023 16.0094 18.6024C16.0098 18.6024 16.0092 18.6024 16.0072 18.6019C16.0045 18.6013 16.0003 18.6001 15.9947 18.5985C15.9936 18.5981 15.9924 18.5978 15.9912 18.5974C15.9931 18.5952 15.9953 18.5928 15.9976 18.5901C15.9996 18.5879 16.0017 18.5856 16.0039 18.5831C16.0222 18.5626 16.0478 18.5344 16.0772 18.51C16.1057 18.4862 16.1428 18.4615 16.1846 18.4544C16.2311 18.4465 16.277 18.4615 16.314 18.5047C16.3156 18.5065 16.317 18.5085 16.3183 18.5105C16.3421 18.5485 16.3563 18.5812 16.3619 18.6111C16.3678 18.6424 16.3638 18.6681 16.3556 18.6903C16.3518 18.7006 16.3472 18.7098 16.3433 18.7172C16.3418 18.72 16.3405 18.7224 16.3393 18.7246C16.337 18.7289 16.3351 18.7324 16.3332 18.7365C16.3321 18.7386 16.3311 18.7407 16.3303 18.7427L16.305 18.725L16.2773 18.7647H16.3257C16.3257 18.7569 16.3272 18.7503 16.3303 18.7427L16.3651 18.7671L16.3373 18.7867L16.3652 18.8262L16.3929 18.7866L16.3651 18.7671L18.9125 16.9674C18.9332 16.9528 18.9616 16.9566 18.9777 16.976M13.6161 20.5628C13.6204 20.5591 13.6242 20.5558 13.6276 20.5529L13.6441 20.5387L13.6758 20.5752L13.6322 20.5962L13.6161 20.5628ZM13.2412 20.8988C13.2415 20.8992 13.2416 20.8995 13.2418 20.8998C13.2429 20.9024 13.2407 20.8988 13.2407 20.8916C13.2407 20.8938 13.2409 20.8962 13.2412 20.8988ZM13.4912 20.4529L13.4879 20.4682L13.5351 20.4785L13.5029 20.4425L13.4912 20.4529ZM13.8252 23.2647L13.8735 23.2662C13.8743 23.2408 13.8553 23.2192 13.8301 23.2166L13.8252 23.2647Z" fill="black"/>
</g>
<defs>
<clipPath id="clip0_4_1454">
<rect width="60" height="45" fill="white"/>
</clipPath>
</defs>
</svg>
