<svg width="60" height="45" viewBox="0 0 60 45" fill="none" xmlns="http://www.w3.org/2000/svg">
<g clip-path="url(#clip0_4_6126)">
<path fill-rule="evenodd" clip-rule="evenodd" d="M0 0H60V45H0V0Z" fill="white"/>
<path fill-rule="evenodd" clip-rule="evenodd" d="M-2.47498 0.01875L-2.39998 32.4187L48.0469 0L-2.47498 0.01875Z" fill="#3662A2"/>
<path fill-rule="evenodd" clip-rule="evenodd" d="M62.475 44.9625L62.3438 11.2781L11.4656 44.9812L62.4656 44.9625H62.475Z" fill="#38A100"/>
<path fill-rule="evenodd" clip-rule="evenodd" d="M-2.4375 34.8562L-2.4 45L8.61563 44.9906L62.3813 8.9437L62.3156 0.121826L51.4406 0.0280762L-2.4375 34.8468V34.8562Z" fill="#C70000"/>
<path fill-rule="evenodd" clip-rule="evenodd" d="M20.5875 16.125L18.5438 14.8875L17.3625 16.9594L16.2188 14.8781L14.1563 16.0875L14.2125 13.7062L11.8313 13.725L13.0688 11.6812L10.9969 10.5094L13.0781 9.35625L11.8781 7.29375L14.2594 7.35L14.25 4.95938L16.2844 6.19687L17.4656 4.125L18.6094 6.20625L20.6719 4.99687L20.6156 7.37812L22.9969 7.35938L21.7594 9.40313L23.8313 10.575L21.75 11.7281L22.95 13.7906L20.5688 13.7344L20.5875 16.125Z" fill="#FFE700"/>
<path fill-rule="evenodd" clip-rule="evenodd" d="M21.7875 10.5375C21.7875 12.9375 19.8282 14.8782 17.4188 14.8782C15.0094 14.8782 13.05 12.9375 13.05 10.5375C13.05 8.13755 15 6.2063 17.4188 6.2063C19.8375 6.2063 21.7875 8.14692 21.7875 10.5375V10.5375Z" fill="#3662A2"/>
<path fill-rule="evenodd" clip-rule="evenodd" d="M20.8406 10.5375C20.8406 11.445 20.4801 12.3154 19.8384 12.9571C19.1967 13.5988 18.3263 13.9593 17.4188 13.9593C16.5112 13.9593 15.6409 13.5988 14.9991 12.9571C14.3574 12.3154 13.9969 11.445 13.9969 10.5375C13.9969 9.62994 14.3574 8.75957 14.9991 8.11784C15.6409 7.47612 16.5112 7.1156 17.4188 7.1156C18.3263 7.1156 19.1967 7.47612 19.8384 8.11784C20.4801 8.75957 20.8406 9.62994 20.8406 10.5375V10.5375Z" fill="#FFE700"/>
</g>
<defs>
<clipPath id="clip0_4_6126">
<rect width="60" height="45" fill="white"/>
</clipPath>
</defs>
</svg>
