<svg width="60" height="45" viewBox="0 0 60 45" fill="none" xmlns="http://www.w3.org/2000/svg">
<g clip-path="url(#clip0_4_752)">
<path fill-rule="evenodd" clip-rule="evenodd" d="M-7.4953 0H82.5047V45H-7.4953V0Z" fill="#002170"/>
<path fill-rule="evenodd" clip-rule="evenodd" d="M-7.4953 20.5752H82.5047V24.4336H-7.4953V20.5752Z" fill="#FFB20D"/>
<path fill-rule="evenodd" clip-rule="evenodd" d="M19.03 38.4961L16.1296 35.5957L15.2068 39.5859L14.1521 35.6309L11.3484 38.6191L12.4119 34.6641L8.50073 35.8506L11.4011 32.9502L7.41089 32.0186L11.366 30.9639L8.37769 28.1689L12.3328 29.2236L11.1375 25.3125L14.0378 28.2129L14.9695 24.2227L16.0242 28.1777L18.8191 25.1895L17.7644 29.1445L21.6755 27.958L18.7751 30.8584L22.7654 31.7812L18.8103 32.8359L21.7986 35.6484L17.8435 34.5762L19.03 38.4961Z" fill="white"/>
</g>
<defs>
<clipPath id="clip0_4_752">
<rect width="60" height="45" fill="white"/>
</clipPath>
</defs>
</svg>
