<svg width="60" height="45" viewBox="0 0 60 45" fill="none" xmlns="http://www.w3.org/2000/svg">
<g clip-path="url(#clip0_4_5120)">
<path d="M0 0H60V45H0V0Z" fill="#D20000"/>
<path d="M0 0H9L30 21.6937L51 0H60L0 45H9L30 23.3063L51 45H60L0 0ZM60 18V27L0 18V27L60 18ZM26.25 0L30 19.2844L33.75 0H26.25ZM26.25 45L30 25.7156L33.75 45H26.25Z" fill="#FFE600"/>
<path d="M30 29.7281C33.992 29.7281 37.2281 26.492 37.2281 22.5C37.2281 18.508 33.992 15.2719 30 15.2719C26.008 15.2719 22.7719 18.508 22.7719 22.5C22.7719 26.492 26.008 29.7281 30 29.7281Z" fill="#FFE600"/>
<path fill-rule="evenodd" clip-rule="evenodd" d="M30 16.0735C26.4507 16.0735 23.5734 18.9507 23.5734 22.5C23.5734 26.0493 26.4507 28.9266 30 28.9266C33.5493 28.9266 36.4266 26.0493 36.4266 22.5C36.4266 18.9507 33.5493 16.0735 30 16.0735ZM21.9703 22.5C21.9703 18.0654 25.5653 14.4703 30 14.4703C34.4347 14.4703 38.0297 18.0654 38.0297 22.5C38.0297 26.9347 34.4347 30.5297 30 30.5297C25.5653 30.5297 21.9703 26.9347 21.9703 22.5Z" fill="#D20000"/>
</g>
<defs>
<clipPath id="clip0_4_5120">
<rect width="60" height="45" fill="white"/>
</clipPath>
</defs>
</svg>
