<svg width="60" height="45" viewBox="0 0 60 45" fill="none" xmlns="http://www.w3.org/2000/svg">
<g clip-path="url(#clip0_4_6066)">
<path fill-rule="evenodd" clip-rule="evenodd" d="M67.7662 44.9553H-7.13097V0.0345459H67.7662V44.9553Z" fill="white"/>
<path fill-rule="evenodd" clip-rule="evenodd" d="M-7.17493 -0.00939941H67.8102V44.9992H-7.17493V-0.00939941ZM-7.08702 0.0785081V44.9113H67.7223V0.0785081H-7.08702Z" fill="black"/>
<path fill-rule="evenodd" clip-rule="evenodd" d="M67.7662 36.8239H-7.13097V44.9553H67.7662V36.8239Z" fill="#3E5698"/>
<path fill-rule="evenodd" clip-rule="evenodd" d="M67.7662 34.9426H-7.13097V10.0472H67.7662V34.9426Z" fill="#C60000"/>
<path fill-rule="evenodd" clip-rule="evenodd" d="M67.7662 0.043335H-7.13097V8.16599H67.7662V0.043335Z" fill="#3E5698"/>
<path fill-rule="evenodd" clip-rule="evenodd" d="M28.4276 22.495C28.4276 28.0771 23.7685 32.6043 18.0018 32.6043C12.2351 32.6043 7.57596 28.0771 7.57596 22.495C7.57596 16.9129 12.2351 12.4032 18.0018 12.4032C23.7597 12.4032 28.4276 16.9216 28.4276 22.5038V22.495Z" fill="white"/>
<path fill-rule="evenodd" clip-rule="evenodd" d="M15.0041 23.7784L9.99341 20.2006L16.2348 20.183L18.2303 14.3459L20.0852 20.1566L26.3266 20.1215L21.2368 23.7433L23.1092 29.5539L18.0985 25.9761L12.9998 29.6067L15.0041 23.7784Z" fill="#C40000"/>
</g>
<defs>
<clipPath id="clip0_4_6066">
<rect width="60" height="45" fill="white"/>
</clipPath>
</defs>
</svg>
