<svg width="60" height="45" viewBox="0 0 60 45" fill="none" xmlns="http://www.w3.org/2000/svg">
<g clip-path="url(#clip0_4_761)">
<path d="M24 0H60V45H24V0Z" fill="#FF0000"/>
<path d="M0 0H24V45H0V0Z" fill="#006600"/>
<path fill-rule="evenodd" clip-rule="evenodd" d="M31.8281 28.7063C28.8 28.6126 14.9531 19.9688 14.8594 18.5813L15.6188 17.3157C16.9969 19.3125 31.1531 27.7219 32.55 27.4219L31.8281 28.7063Z" fill="#FFFF00"/>
<path fill-rule="evenodd" clip-rule="evenodd" d="M15.6178 17.2875C15.6274 17.2872 15.6365 17.2918 15.6419 17.2996C15.8116 17.5455 16.1805 17.893 16.7023 18.3136C17.2232 18.7334 17.8941 19.2241 18.6652 19.7562C20.2073 20.8202 22.1491 22.0489 24.0917 23.2059C26.0343 24.3629 27.9773 25.448 29.5216 26.225C30.2938 26.6135 30.9659 26.9248 31.4882 27.1294C31.7494 27.2318 31.9725 27.3073 32.1517 27.3525C32.3321 27.398 32.4637 27.4116 32.5441 27.3944C32.5549 27.392 32.5661 27.3963 32.5726 27.4052C32.5792 27.4141 32.5799 27.426 32.5745 27.4356L31.8526 28.72C31.8475 28.7291 31.8377 28.7347 31.8272 28.7343C31.4439 28.7225 30.8927 28.5757 30.2236 28.3275C29.5538 28.079 28.7633 27.7279 27.9001 27.305C26.1736 26.4593 24.1552 25.3262 22.2287 24.1529C20.3023 22.9796 18.4672 21.7656 17.1077 20.758C16.428 20.2543 15.8666 19.8017 15.472 19.4313C15.2747 19.2462 15.1184 19.081 15.0098 18.9397C14.9022 18.7998 14.8378 18.6789 14.8313 18.5831C14.8309 18.5774 14.8323 18.5717 14.8352 18.5668L15.5946 17.3011C15.5995 17.2929 15.6083 17.2878 15.6178 17.2875ZM15.6208 17.3669L14.8882 18.5879C14.8967 18.6649 14.9513 18.7713 15.0544 18.9054C15.1604 19.0433 15.3142 19.2061 15.5105 19.3903C15.9028 19.7585 16.4622 20.2096 17.1412 20.7128C18.499 21.7191 20.3325 22.9321 22.258 24.1049C24.1835 25.2776 26.2004 26.4098 27.9248 27.2545C28.7871 27.6769 29.5758 28.0272 30.2432 28.2748C30.9014 28.5189 31.4389 28.6622 31.812 28.6775L32.4981 27.4569C32.407 27.4623 32.2851 27.4441 32.1379 27.407C31.9555 27.361 31.73 27.2846 31.4677 27.1818C30.943 26.9762 30.2692 26.6641 29.4963 26.2752C27.9504 25.4975 26.0063 24.4117 24.0629 23.2542C22.1196 22.0968 20.1767 20.8674 18.6332 19.8025C17.8615 19.27 17.1894 18.7784 16.667 18.3574C16.1692 17.9562 15.805 17.6172 15.6208 17.3669Z" fill="black"/>
<path fill-rule="evenodd" clip-rule="evenodd" d="M15.4593 17.1375C15.1875 17.8687 19.0781 20.2687 23.7468 23.1187C28.425 25.9593 32.4562 27.7125 32.7468 27.4687L32.8875 27.2062C32.8312 27.3 32.7 27.3281 32.4843 27.2624C31.2187 26.8968 27.9281 25.3875 23.85 22.9125C19.7625 20.4375 16.2187 18.1593 15.6656 17.1937C15.6225 17.1032 15.6031 17.0032 15.6093 16.9031H15.5906L15.4781 17.1093L15.4593 17.1375V17.1375ZM31.8937 28.7437C31.8468 28.8375 31.7437 28.8375 31.5656 28.8187C30.4406 28.6968 27.0093 27.0281 22.95 24.6C18.225 21.7687 14.325 19.2 14.7562 18.525L14.8687 18.3187L14.8875 18.3281C14.5125 19.4718 22.5843 24.0843 23.0625 24.3843C27.7312 27.2718 31.6687 28.9687 32.0156 28.5281L31.8937 28.7437V28.7437Z" fill="#FFFF00"/>
<path fill-rule="evenodd" clip-rule="evenodd" d="M15.5659 16.8897C15.5709 16.8806 15.5803 16.875 15.5906 16.875H15.6094C15.6171 16.875 15.6245 16.8782 15.6299 16.8839C15.6352 16.8895 15.6379 16.8971 15.6374 16.9049C15.6315 16.9998 15.6498 17.0947 15.6906 17.1807C15.8263 17.417 16.1474 17.7372 16.6208 18.1249C17.0938 18.5122 17.7155 18.9643 18.4483 19.4639C19.9136 20.463 21.8209 21.651 23.8646 22.8884L23.8646 22.8885C27.9422 25.3632 31.2302 26.8709 32.4922 27.2355L32.4926 27.2356C32.5982 27.2678 32.6803 27.276 32.7413 27.2664C32.8013 27.2569 32.8402 27.2304 32.8634 27.1918C32.8712 27.1787 32.8881 27.1743 32.9014 27.1818C32.9146 27.1893 32.9195 27.2061 32.9123 27.2195L32.7717 27.482C32.77 27.4852 32.7677 27.488 32.7649 27.4903C32.7386 27.5124 32.6968 27.5195 32.6492 27.5194C32.5999 27.5192 32.5374 27.5111 32.4629 27.4959C32.3139 27.4653 32.1129 27.4053 31.8665 27.3179C31.3734 27.143 30.6951 26.8575 29.8802 26.4759C28.2504 25.7125 26.0721 24.5636 23.7323 23.1428L23.7322 23.1428C21.398 21.7179 19.2575 20.4049 17.7344 19.3568C16.9731 18.8328 16.3649 18.3742 15.9639 18.0004C15.7635 17.8136 15.6135 17.6468 15.5222 17.5026C15.4316 17.3597 15.3942 17.2321 15.433 17.1277L15.4594 17.1375L15.436 17.1219L15.454 17.0948L15.5659 16.8897ZM15.4847 17.1503C15.4572 17.2284 15.4824 17.3348 15.5697 17.4725C15.6573 17.6107 15.8032 17.7736 16.0022 17.9592C16.4001 18.3301 17.0054 18.7868 17.7663 19.3104C19.2878 20.3575 21.4269 21.6696 23.7615 23.0947C26.0997 24.5145 28.2762 25.6625 29.9041 26.4249C30.7181 26.8062 31.3946 27.0908 31.8853 27.2649C32.1307 27.3519 32.3289 27.411 32.4742 27.4408C32.547 27.4557 32.6054 27.463 32.6494 27.4631C32.6901 27.4633 32.7134 27.4571 32.7251 27.4499L32.8003 27.3095C32.7847 27.3149 32.7679 27.3191 32.7501 27.3219C32.6775 27.3334 32.5862 27.3229 32.4764 27.2895C31.207 26.9227 27.9139 25.4117 23.8354 22.9366C21.7916 21.699 19.8832 20.5104 18.4166 19.5103C17.6833 19.0103 17.0599 18.5572 16.5852 18.1684C16.1114 17.7804 15.7824 17.4541 15.6412 17.2077C15.6409 17.2071 15.6405 17.2065 15.6402 17.2058C15.6062 17.1344 15.5863 17.0574 15.5813 16.9789L15.5028 17.1228C15.5024 17.1236 15.502 17.1243 15.5015 17.125L15.4847 17.1503ZM14.8441 18.3053C14.8513 18.292 14.8678 18.2868 14.8813 18.2936L14.9001 18.303C14.9125 18.3092 14.9186 18.3236 14.9142 18.3369C14.8936 18.3997 14.9011 18.4775 14.9384 18.5709C14.9756 18.6641 15.0416 18.7701 15.1336 18.887C15.3176 19.121 15.6023 19.3947 15.9575 19.6932C16.6677 20.2901 17.6553 20.9825 18.6705 21.6491C20.286 22.71 21.9671 23.7029 22.7087 24.1409C22.8995 24.2536 23.0281 24.3296 23.0774 24.3605C25.4109 25.8037 27.5614 26.9492 29.1714 27.6787C29.9765 28.0435 30.6457 28.3039 31.1347 28.4456C31.3794 28.5165 31.5776 28.5573 31.7247 28.5669C31.7982 28.5718 31.8576 28.5687 31.903 28.5585C31.9486 28.5482 31.9773 28.5313 31.9935 28.5107C32.0026 28.4992 32.0191 28.4966 32.0313 28.5048C32.0435 28.513 32.0473 28.5292 32.0401 28.542L31.9186 28.757C31.8903 28.813 31.8443 28.8406 31.7837 28.8511C31.7254 28.8613 31.6512 28.856 31.5627 28.8467L31.5626 28.8467C31.2774 28.8158 30.8491 28.6875 30.3055 28.4758C29.7612 28.2639 29.0992 27.9677 28.3458 27.5995C26.8391 26.8631 24.9657 25.8385 22.9356 24.6241L22.9355 24.6241C20.5729 23.2084 18.4159 21.858 16.9032 20.7768C16.147 20.2363 15.5507 19.7624 15.1702 19.3807C14.9801 19.19 14.8424 19.0209 14.7659 18.8769C14.6901 18.7343 14.6703 18.6082 14.732 18.5107L14.8441 18.3053ZM31.8937 28.7438L31.8693 28.7299L31.9386 28.6073C31.9311 28.6095 31.9233 28.6116 31.9154 28.6134C31.8627 28.6252 31.7974 28.6281 31.721 28.6231C31.568 28.613 31.3653 28.571 31.1191 28.4996C30.6263 28.3568 29.9543 28.0952 29.1481 27.7299C27.5355 26.9992 25.3829 25.8525 23.0477 24.4083L23.0475 24.4082C22.9994 24.378 22.8725 24.3031 22.684 24.1917C21.9449 23.7552 20.2575 22.7586 18.6396 21.6962C17.624 21.0292 16.6341 20.3353 15.9213 19.7363C15.5651 19.4369 15.2769 19.1602 15.0894 18.9218C14.9956 18.8026 14.9262 18.6919 14.8861 18.5918C14.8617 18.5305 14.8478 18.4722 14.8468 18.4178L14.7809 18.5385C14.7806 18.539 14.7803 18.5396 14.7799 18.5401C14.7345 18.6113 14.7424 18.7128 14.8155 18.8505C14.8882 18.9872 15.0213 19.1517 15.21 19.341C15.5871 19.7193 16.1803 20.191 16.9359 20.731C18.4466 21.8108 20.602 23.1603 22.9644 24.5759C24.9936 25.7896 26.8656 26.8134 28.3705 27.5489C29.1231 27.9167 29.7835 28.2123 30.3259 28.4234C30.8688 28.6348 31.2913 28.7607 31.5686 28.7908C31.6581 28.8002 31.7246 28.8043 31.7741 28.7957C31.8211 28.7875 31.8499 28.7685 31.8686 28.7312L31.8937 28.7438Z" fill="black"/>
<path fill-rule="evenodd" clip-rule="evenodd" d="M24.0188 19.425C27.0375 19.3969 30.7688 19.0125 32.925 18.15L32.4563 17.4C31.1906 18.1031 27.4406 18.5719 23.9906 18.6375C19.9219 18.6 17.0438 18.2156 15.6 17.25L15.1688 18.0563C17.8125 19.1813 20.5313 19.4156 24.0188 19.425" fill="#FFFF00"/>
<path fill-rule="evenodd" clip-rule="evenodd" d="M15.5932 17.2228C15.6009 17.2208 15.609 17.2223 15.6156 17.2267C16.3324 17.7061 17.4081 18.0428 18.8153 18.2641C20.2219 18.4852 21.9569 18.5907 23.9905 18.6094C25.7144 18.5766 27.5131 18.4431 29.0387 18.23C29.8015 18.1235 30.4958 17.9971 31.078 17.8535C31.6607 17.7098 32.1295 17.5494 32.4426 17.3755C32.4557 17.3682 32.4722 17.3724 32.4801 17.3851L32.9489 18.1351C32.9533 18.1422 32.9543 18.1509 32.9517 18.1588C32.9491 18.1667 32.9432 18.1731 32.9354 18.1762C30.7741 19.0407 27.0384 19.425 24.019 19.4532C24.0189 19.4532 24.0188 19.4532 24.0187 19.4532C24.0033 19.4531 23.9908 19.4407 23.9906 19.4253C23.9905 19.4098 24.003 19.3971 24.0185 19.3969C24.0185 19.3969 24.0186 19.3969 24.0187 19.3969C20.5446 19.3876 17.8375 19.1548 15.2081 18.0424L15.6102 17.2906C16.337 17.7676 17.4132 18.1005 18.8066 18.3196C20.2171 18.5414 21.9553 18.6469 23.9904 18.6657L23.9904 18.6657L23.9912 18.6657C25.7171 18.6328 27.5183 18.4992 29.0465 18.2857C29.8106 18.179 30.5068 18.0523 31.0915 17.9081C31.6616 17.7676 32.1272 17.61 32.4465 17.4375L32.8833 18.1364C30.7275 18.9881 27.0222 19.3689 24.0187 19.3969M15.5932 17.2228C15.5855 17.2247 15.5789 17.2298 15.5752 17.2368ZM15.5752 17.2368L15.1439 18.043ZM24.0187 19.4532C20.5303 19.4438 17.8069 19.2095 15.1577 18.0822C15.1505 18.0791 15.1448 18.0731 15.1422 18.0656C15.1396 18.0582 15.1402 18.05 15.1439 18.043" fill="black"/>
<path fill-rule="evenodd" clip-rule="evenodd" d="M33.0469 18.1688C32.9719 18.2906 31.5656 18.7688 29.5031 19.125C27.685 19.4005 25.8483 19.5353 24.0094 19.5281C22.2475 19.5348 20.4872 19.422 18.7406 19.1906C16.575 18.8531 15.4594 18.3844 15.0375 18.2156L15.1406 18.0094C16.3312 18.4781 17.4562 18.7594 18.7687 18.9656C20.5026 19.1998 22.2504 19.3157 24 19.3125C25.8294 19.3144 27.6563 19.1797 29.4656 18.9094C31.575 18.5625 32.7281 18.1219 32.8969 17.925L33.0469 18.1781V18.1688ZM32.6344 17.4094C32.4094 17.5969 31.2656 18 29.2594 18.3188C27.5269 18.5694 25.7786 18.6947 24.0281 18.6938C21.9656 18.6938 20.2687 18.5438 18.9844 18.3563C16.9406 18.0938 15.8531 17.6063 15.4594 17.475L15.5812 17.2688C15.8906 17.4281 16.9312 17.85 19.0031 18.1406C20.6687 18.3637 22.3477 18.4703 24.0281 18.4594C25.7661 18.4599 27.5019 18.3346 29.2219 18.0844C31.2375 17.8031 32.325 17.2969 32.4937 17.1656L32.6344 17.4094V17.4094ZM14.0906 23.0625C15.9469 24.0656 20.0812 24.5625 23.9906 24.6C27.5531 24.6094 32.1844 24.0563 33.9187 23.1375L33.8719 22.1344C33.3281 22.9781 28.3594 23.7938 23.9531 23.7656C19.5469 23.7281 15.45 23.0531 14.0812 22.1719V23.0625" fill="#FFFF00"/>
<path fill-rule="evenodd" clip-rule="evenodd" d="M32.4991 17.138C32.5071 17.1395 32.514 17.1445 32.5181 17.1515L32.6587 17.3953L32.6344 17.4093L32.6524 17.4309C32.5925 17.4808 32.4752 17.5425 32.3048 17.6118C32.1334 17.6814 31.9057 17.7596 31.6227 17.8418C31.0565 18.0062 30.2678 18.187 29.2638 18.3465L29.2634 18.3465C27.5296 18.5974 25.7799 18.7228 24.0281 18.7218L24.0281 18.6937V18.7218C24.0281 18.7218 24.0281 18.7218 24.0281 18.7218C21.9644 18.7218 20.2662 18.5717 18.9805 18.3841C18.9806 18.3841 18.9807 18.3841 18.9808 18.3841L18.9844 18.3562L18.9803 18.384C18.9804 18.384 18.9805 18.3841 18.9805 18.3841C17.2328 18.1596 16.1822 17.7705 15.6682 17.5801C15.5801 17.5475 15.5078 17.5208 15.4505 17.5016C15.4424 17.4989 15.436 17.4928 15.433 17.4848C15.43 17.4768 15.4308 17.468 15.4351 17.4606L15.557 17.2544C15.5646 17.2416 15.5809 17.2369 15.5941 17.2437C15.8999 17.4012 16.9372 17.8224 19.0069 18.1127C19.0069 18.1127 19.0069 18.1127 19.0068 18.1127L19.0031 18.1406L19.007 18.1127C19.007 18.1127 19.0069 18.1127 19.0069 18.1127C20.6711 18.3356 22.3489 18.442 24.0279 18.4312L24.0281 18.4312C25.7648 18.4317 27.4992 18.3065 29.2178 18.0565L29.218 18.0565C30.2242 17.9161 30.9983 17.7196 31.5416 17.542C31.8133 17.4532 32.0271 17.3691 32.1833 17.2993C32.3402 17.2291 32.4371 17.174 32.4765 17.1434C32.4829 17.1384 32.4911 17.1364 32.4991 17.138ZM32.5977 17.4021L32.4848 17.2064C32.4316 17.2416 32.3383 17.2915 32.2062 17.3506C32.048 17.4214 31.8324 17.5061 31.5591 17.5954C31.0126 17.7741 30.2352 17.9713 29.2258 18.1122C27.5046 18.3626 25.7675 18.488 24.0282 18.4875C22.3465 18.4983 20.6662 18.3917 18.9994 18.1685L18.9992 18.1684C16.9748 17.8845 15.9318 17.475 15.592 17.3057L15.5012 17.4595C15.553 17.4775 15.615 17.5005 15.6875 17.5273C16.202 17.7178 17.2469 18.1047 18.9879 18.3283L18.9884 18.3284L18.9884 18.3284C20.2714 18.5157 21.9669 18.6656 24.0281 18.6656H24.0281C25.7772 18.6665 27.5241 18.5413 29.2551 18.2909C30.2572 18.1317 31.0435 17.9515 31.607 17.7878C31.8888 17.7059 32.1146 17.6283 32.2836 17.5596C32.4357 17.4979 32.5398 17.4442 32.5977 17.4021ZM32.8993 17.8969C32.9083 17.8977 32.9164 17.9028 32.921 17.9106L33.0589 18.1433C33.0686 18.1479 33.075 18.1577 33.075 18.1687V18.1781C33.075 18.1907 33.0665 18.2019 33.0543 18.2052C33.0529 18.2056 33.0516 18.2058 33.0503 18.206C33.045 18.2104 33.0393 18.2147 33.0333 18.2188C33.017 18.23 32.9959 18.2422 32.9705 18.2552C32.9196 18.2813 32.8494 18.3117 32.7617 18.3457C32.5861 18.4136 32.338 18.4962 32.0281 18.5859C31.4083 18.7656 30.5401 18.9744 29.5079 19.1527L29.5073 19.1528C27.6878 19.4285 25.8497 19.5634 24.0093 19.5562C22.2463 19.5628 20.4847 19.45 18.7369 19.2185L18.7363 19.2184L18.7363 19.2184C16.6475 18.8928 15.5336 18.4452 15.0766 18.2616C15.0591 18.2545 15.0426 18.2479 15.027 18.2417C15.0197 18.2388 15.014 18.2329 15.0112 18.2256C15.0084 18.2182 15.0088 18.21 15.0123 18.203L15.1154 17.9967C15.122 17.9837 15.1373 17.9778 15.1509 17.9832C16.3392 18.451 17.462 18.7318 18.7728 18.9377C20.5053 19.1717 22.2517 19.2875 23.9999 19.2843H24C25.8279 19.2862 27.6534 19.1516 29.4612 18.8815C30.5148 18.7083 31.3291 18.5117 31.9006 18.334C32.1864 18.2452 32.4112 18.1612 32.5746 18.0874C32.6563 18.0505 32.7223 18.0163 32.7728 17.9855C32.8238 17.9545 32.8573 17.9279 32.8755 17.9066C32.8814 17.8998 32.8903 17.8961 32.8993 17.8969ZM33.008 18.1677L32.891 17.9703C32.8681 17.9904 32.8382 18.0116 32.8021 18.0336C32.749 18.0659 32.6808 18.1012 32.5977 18.1387C32.4316 18.2137 32.2045 18.2985 31.9173 18.3877C31.3428 18.5663 30.5258 18.7635 29.4702 18.9371L29.4698 18.9371C27.6591 19.2076 25.8308 19.3425 24 19.3406C22.2491 19.3437 20.5001 19.2277 18.765 18.9934L18.7644 18.9934L18.7644 18.9934C17.459 18.7882 16.3383 18.5089 15.1543 18.0449L15.0763 18.2008C15.0832 18.2036 15.0903 18.2065 15.0976 18.2094C15.5527 18.3923 16.6622 18.8382 18.7446 19.1627C20.4899 19.3939 22.2488 19.5066 24.0092 19.5H24.0095C25.8468 19.5071 27.682 19.3725 29.4986 19.0972C30.5288 18.9192 31.3948 18.7109 32.0125 18.5319C32.3214 18.4424 32.5678 18.3603 32.7414 18.2932C32.8283 18.2596 32.8964 18.2299 32.9448 18.2051C32.9691 18.1927 32.9879 18.1818 33.0014 18.1725C33.0038 18.1708 33.006 18.1692 33.008 18.1677ZM33.8792 22.1072C33.891 22.1103 33.8994 22.1208 33.8999 22.133L33.9468 23.1361C33.9473 23.147 33.9415 23.1572 33.9319 23.1623C33.0599 23.6242 31.4641 23.9926 29.6441 24.2446C27.8228 24.4967 25.7731 24.6328 23.9905 24.6281L23.9903 24.6281C22.0347 24.6093 20.0224 24.4757 18.2666 24.2211C16.5156 23.9673 15.0165 23.5929 14.0834 23.0905C14.0827 23.0905 14.0819 23.0906 14.0812 23.0906C14.0657 23.0906 14.0531 23.078 14.0531 23.0625V22.1718C14.0531 22.1615 14.0587 22.1521 14.0678 22.1471C14.0768 22.1422 14.0878 22.1426 14.0965 22.1482C14.7754 22.5853 16.1366 22.9738 17.8826 23.2573C19.6271 23.5407 21.7514 23.7187 23.9533 23.7375C26.1548 23.7515 28.497 23.5548 30.3564 23.2492C31.2861 23.0963 32.0944 22.9164 32.7037 22.7223C33.0085 22.6253 33.2627 22.5249 33.4572 22.4229C33.6526 22.3205 33.7843 22.2183 33.8482 22.1191C33.8548 22.1088 33.8673 22.104 33.8792 22.1072ZM14.1094 23.0406C15.0333 23.5382 16.5244 23.9118 18.2747 24.1655C20.0275 24.4196 22.0371 24.5531 23.9908 24.5718M14.1094 23.0406V22.2228Z" fill="black"/>
<path fill-rule="evenodd" clip-rule="evenodd" d="M34.0125 22.9219V23.1563C33.75 23.475 32.1187 23.9438 30.075 24.2813C28.0446 24.5731 25.995 24.711 23.9437 24.6938C21.9987 24.7103 20.0554 24.5756 18.1312 24.2906C16.6955 24.1247 15.2926 23.7456 13.9688 23.1656V22.8938C14.8781 23.4938 17.3344 23.9438 18.1594 24.075C19.6406 24.3 21.5437 24.4688 23.9437 24.4688C26.4656 24.4688 28.4812 24.2906 30.0375 24.0563C31.5094 23.8406 33.6 23.2875 34.0125 22.9219V22.9219ZM34.0125 22.0781V22.3125C33.75 22.6219 32.1187 23.0906 30.075 23.4281C28.0448 23.7231 25.9952 23.8642 23.9437 23.85C21.9989 23.8615 20.0559 23.7267 18.1312 23.4469C16.6955 23.281 15.2926 22.9018 13.9688 22.3219V22.0406C14.8781 22.65 17.3437 23.0906 18.1594 23.2219C20.0745 23.5024 22.0082 23.6372 23.9437 23.625C26.4656 23.625 28.4906 23.4375 30.0375 23.2031C31.5094 22.9969 33.6 22.4438 34.0125 22.0781V22.0781ZM23.9813 28.5281C19.7063 28.5094 16.0406 27.3656 15.2625 27.1781L15.825 28.0594C18.4546 28.9907 21.2295 29.4447 24.0188 29.4C27.2719 29.3063 30.1125 29.0531 32.1094 28.0781L32.6906 27.1594C31.3313 27.8063 26.6906 28.5281 23.9719 28.5281" fill="#FFFF00"/>
<path fill-rule="evenodd" clip-rule="evenodd" d="M13.9555 22.0158C13.9647 22.0109 13.9758 22.0114 13.9844 22.0172C14.4344 22.3187 15.2734 22.5803 16.1059 22.7832C16.9367 22.9856 17.7561 23.1284 18.1636 23.194C20.0773 23.4743 22.0095 23.609 23.9436 23.5968L23.9437 23.5968C26.4642 23.5968 28.4878 23.4094 30.0333 23.1753L30.0336 23.1752C30.7682 23.0723 31.6576 22.8827 32.4148 22.6732C32.7933 22.5685 33.1384 22.4589 33.4143 22.3528C33.6914 22.2463 33.8949 22.1447 33.9938 22.057L34.0125 22.0781H34.0406V22.3125C34.0406 22.3191 34.0382 22.3256 34.0339 22.3306C33.9981 22.3729 33.9407 22.416 33.8659 22.4597C33.7908 22.5036 33.6963 22.5491 33.5848 22.5958C33.3616 22.6891 33.068 22.7876 32.7194 22.8868C32.022 23.0852 31.1022 23.2869 30.0796 23.4558L30.079 23.4559C28.0475 23.7511 25.9965 23.8922 23.9437 23.8781C21.9976 23.8895 20.0535 23.7547 18.1276 23.4747C16.6892 23.3085 15.2837 22.9286 13.9575 22.3476C13.9472 22.3431 13.9406 22.333 13.9406 22.3218V22.0406C13.9406 22.0302 13.9463 22.0207 13.9555 22.0158ZM33.9844 22.1365C33.8678 22.2213 33.6755 22.3127 33.4344 22.4054C33.1563 22.5123 32.8094 22.6224 32.4298 22.7274C31.6706 22.9375 30.7788 23.1276 30.0415 23.2309C28.4933 23.4655 26.467 23.6531 23.9438 23.6531C23.9438 23.6531 23.9438 23.6531 23.9437 23.6531V23.625L23.9439 23.6531C23.9439 23.6531 23.9439 23.6531 23.9438 23.6531C22.0069 23.6653 20.0718 23.5304 18.1553 23.2497L18.1549 23.2496L18.1549 23.2496C17.7467 23.1839 16.9256 23.0408 16.0925 22.8378C15.2867 22.6415 14.465 22.388 13.9969 22.0924V22.0406H13.9687L13.9531 22.0639C13.9673 22.0735 13.9819 22.083 13.9969 22.0924V22.3034C13.9912 22.301 13.9856 22.2985 13.98 22.2961L13.9687 22.3218H13.9969V22.3034C15.3132 22.8781 16.7076 23.254 18.1345 23.4189L18.1353 23.419L18.1353 23.419C20.0586 23.6986 22.0001 23.8333 23.9436 23.8218L23.9439 23.8218C25.9939 23.836 28.042 23.695 30.0707 23.4003C30.0706 23.4003 30.0705 23.4003 30.0704 23.4003L30.075 23.4281L30.0709 23.4002C30.0709 23.4003 30.0708 23.4003 30.0707 23.4003C31.0917 23.2317 32.0092 23.0303 32.704 22.8327C33.0515 22.7338 33.3427 22.636 33.5631 22.5439C33.6733 22.4978 33.7653 22.4533 33.8376 22.4111C33.9051 22.3716 33.9539 22.335 33.9844 22.3018V22.3125H34.0125L33.991 22.2943C33.9889 22.2968 33.9867 22.2993 33.9844 22.3018V22.1365ZM13.9554 22.8689C13.9645 22.864 13.9756 22.8645 13.9842 22.8702C14.4343 23.1672 15.2711 23.4288 16.1024 23.6328C16.9322 23.8364 17.7516 23.9816 18.1637 24.0472C19.6434 24.2719 21.5451 24.4406 23.9437 24.4406C26.4643 24.4406 28.4785 24.2625 30.0333 24.0284L30.0334 24.0284C30.7681 23.9207 31.6575 23.7288 32.4147 23.5182C32.7933 23.4128 33.1384 23.303 33.4142 23.1968C33.6914 23.0901 33.8949 22.9884 33.9938 22.9008L34.0125 22.9218H34.0406V23.1562C34.0406 23.1627 34.0383 23.169 34.0342 23.1741C33.9984 23.2176 33.941 23.2617 33.8662 23.3064C33.791 23.3512 33.6965 23.3976 33.5849 23.4449C33.3617 23.5395 33.0681 23.6389 32.7194 23.7387C32.0221 23.9383 31.1022 24.1401 30.0796 24.3089L30.079 24.309C28.0472 24.6011 25.9963 24.7391 23.9437 24.7218C21.9975 24.7384 20.0529 24.6035 18.1276 24.3185C16.6892 24.1522 15.2837 23.7723 13.9575 23.1913C13.9472 23.1869 13.9406 23.1767 13.9406 23.1656V22.8937C13.9406 22.8834 13.9463 22.8738 13.9554 22.8689ZM33.9844 22.9802C33.8678 23.0651 33.6755 23.1564 33.4345 23.2492C33.1563 23.3563 32.8094 23.4667 32.4298 23.5724C31.6706 23.7836 30.7788 23.976 30.0416 24.084C28.4839 24.3186 26.4669 24.4968 23.9437 24.4968C21.5424 24.4968 19.6379 24.328 18.1551 24.1028L18.1549 24.1027C17.742 24.037 16.9208 23.8916 16.089 23.6874C15.2842 23.4899 14.4647 23.2364 13.9969 22.9451V23.1472C15.3132 23.7218 16.7076 24.0977 18.1345 24.2626L18.1354 24.2627L18.1354 24.2628C20.058 24.5475 21.9999 24.6821 23.9435 24.6656H23.944C25.9937 24.6828 28.0418 24.545 30.0707 24.2534C31.0917 24.0848 32.0092 23.8835 32.704 23.6846C33.0514 23.5852 33.3426 23.4865 33.5629 23.3931C33.6731 23.3464 33.7651 23.3012 33.8373 23.2581C33.905 23.2177 33.9539 23.18 33.9844 23.1458V22.9802ZM32.7117 27.1407C32.72 27.15 32.7211 27.1638 32.7144 27.1744L32.1331 28.0931C32.1303 28.0975 32.1264 28.1011 32.1217 28.1033C30.1186 29.0814 27.272 29.3343 24.0195 29.4281L24.0192 29.4281C21.2265 29.4728 18.4484 29.0183 15.8156 28.0858C15.8097 28.0837 15.8047 28.0797 15.8013 28.0745L15.2388 27.1932C15.2326 27.1835 15.2329 27.1711 15.2396 27.1617C15.2463 27.1524 15.2579 27.148 15.2691 27.1507C15.3644 27.1737 15.5027 27.2109 15.68 27.2586C16.9529 27.6011 20.232 28.4834 23.9806 28.4999C25.3372 28.4992 27.1712 28.3191 28.8367 28.0585C30.507 27.7971 32.003 27.4554 32.6785 27.1339C32.6898 27.1285 32.7033 27.1313 32.7117 27.1407ZM23.9701 28.5561C23.9707 28.5562 23.9713 28.5562 23.9719 28.5562C23.9748 28.5562 23.9778 28.5562 23.9807 28.5562M23.9701 28.5561C20.2175 28.538 16.9353 27.6547 15.665 27.3128C15.5269 27.2757 15.4127 27.2449 15.3241 27.2224L15.8435 28.036C18.4672 28.9641 21.2355 29.4164 24.0181 29.3718C27.2679 29.2782 30.0996 29.0254 32.0899 28.0563L32.6164 27.224C31.8978 27.5375 30.4479 27.8633 28.8454 28.1141C27.1786 28.3749 25.342 28.5553 23.9816 28.5562" fill="black"/>
<path fill-rule="evenodd" clip-rule="evenodd" d="M32.3344 27.8719C32.249 27.9983 32.1615 28.1234 32.0719 28.2469C31.1344 28.5844 29.6344 28.9406 29.0156 29.0344C27.3553 29.3437 25.6702 29.5006 23.9813 29.5031C20.1938 29.4469 17.0906 28.7062 15.6375 28.0687L15.5156 27.8719L15.5344 27.8344L15.7313 27.9187C18.3994 28.8017 21.1896 29.2604 24 29.2781C25.7625 29.2781 27.5156 29.0812 28.9313 28.8281C31.1063 28.3875 31.9875 28.0594 32.2594 27.9094L32.325 27.8719H32.3344ZM32.8313 27.0469C32.7695 27.1567 32.707 27.266 32.6438 27.375C32.1375 27.5625 30.7687 27.9562 28.7719 28.2375C27.4594 28.4156 26.6437 28.5937 24.0281 28.6406C21.0381 28.6106 18.0664 28.1689 15.1969 27.3281L15.0938 27.0937C18.0092 27.8995 21.0134 28.3404 24.0375 28.4062C26.4281 28.3594 27.45 28.1812 28.7531 28.0031C31.0781 27.6469 32.25 27.2531 32.5969 27.15C32.5971 27.1437 32.5971 27.1375 32.5969 27.1312L32.8406 27.0375L32.8313 27.0469Z" fill="#FFFF00"/>
<path fill-rule="evenodd" clip-rule="evenodd" d="M32.8642 27.0222C32.8714 27.0333 32.8699 27.048 32.8605 27.0574L32.8539 27.0641C32.7927 27.1728 32.7307 27.2812 32.6681 27.3892C32.6648 27.3948 32.6596 27.3991 32.6535 27.4014C32.145 27.5898 30.7742 27.9839 28.7758 28.2654L28.7756 28.2654C28.5724 28.293 28.3811 28.3206 28.1931 28.3477C27.1671 28.4956 26.2408 28.6291 24.0286 28.6688L24.0278 28.6688C21.0352 28.6387 18.061 28.1967 15.189 27.3551C15.181 27.3528 15.1745 27.3471 15.1711 27.3395L15.068 27.1051C15.0636 27.0952 15.0654 27.0836 15.0725 27.0754C15.0796 27.0672 15.0908 27.0638 15.1012 27.0667C18.0143 27.8718 21.016 28.3123 24.0375 28.3781C26.1662 28.3364 27.2083 28.1905 28.3322 28.0332C28.4692 28.014 28.6075 27.9947 28.7491 27.9753C30.8685 27.6506 32.0284 27.2947 32.4786 27.1566C32.5127 27.1461 32.5427 27.1369 32.5688 27.1291C32.5697 27.1184 32.5766 27.1089 32.5868 27.105L32.8305 27.0113C32.8429 27.0065 32.857 27.0111 32.8642 27.0222ZM32.7725 27.0939L32.625 27.1506C32.625 27.1507 32.625 27.1509 32.625 27.151C32.6246 27.1631 32.6165 27.1735 32.6049 27.177C32.5745 27.186 32.5378 27.1973 32.4946 27.2105C32.0436 27.3489 30.8807 27.7056 28.7574 28.031L28.7569 28.031C28.6153 28.0504 28.477 28.0697 28.34 28.0889C27.2152 28.2464 26.1705 28.3926 24.038 28.4344L24.0369 28.4344L24.0369 28.4344C21.0302 28.3689 18.0432 27.933 15.1433 27.1366L15.2173 27.3048C18.0804 28.1425 21.045 28.5825 24.028 28.6125C26.2364 28.5729 27.1599 28.4398 28.1851 28.292C28.3732 28.2649 28.5646 28.2373 28.768 28.2097C30.751 27.9304 32.1131 27.5402 32.6245 27.3521C32.6743 27.2663 32.7236 27.1802 32.7725 27.0939ZM15.5092 27.8218C15.5159 27.8085 15.5318 27.8027 15.5454 27.8086L15.7412 27.8925C18.4062 28.7742 21.1931 29.2323 24.0001 29.25C25.7605 29.25 27.5118 29.0534 28.926 28.8005C31.1004 28.36 31.9777 28.0326 32.2456 27.8849C32.2457 27.8848 32.2457 27.8848 32.2458 27.8848L32.311 27.8475C32.3153 27.8451 32.3201 27.8438 32.325 27.8438H32.3344C32.3448 27.8438 32.3543 27.8495 32.3592 27.8587C32.3641 27.8679 32.3635 27.879 32.3577 27.8876C32.2721 28.0144 32.1844 28.1397 32.0946 28.2634C32.0913 28.268 32.0867 28.2715 32.0814 28.2734C31.1423 28.6114 29.6411 28.968 29.0203 29.0621C27.3584 29.3718 25.6717 29.5288 23.9813 29.5313L23.9808 29.5313C20.1906 29.475 17.0836 28.7339 15.6262 28.0945C15.621 28.0922 15.6166 28.0884 15.6136 28.0836L15.4917 27.8867C15.4866 27.8784 15.4861 27.868 15.4905 27.8593L15.5092 27.8218ZM15.5481 27.8709L15.6568 28.0465C17.109 28.6813 20.2037 29.4189 23.9814 29.475C25.6685 29.4726 27.3519 29.3158 29.0105 29.0068L29.0114 29.0066L29.0114 29.0066C29.6266 28.9134 31.118 28.5594 32.0542 28.2234C32.1204 28.132 32.1855 28.0397 32.2495 27.9466C31.9486 28.104 31.0535 28.4269 28.9368 28.8557L28.9362 28.8558C27.5192 29.1092 25.7644 29.3063 24 29.3063L23.9998 29.3063C21.1865 29.2885 18.3934 28.8293 15.7224 27.9455C15.7216 27.9452 15.7209 27.9449 15.7202 27.9446L15.5481 27.8709Z" fill="black"/>
<path fill-rule="evenodd" clip-rule="evenodd" d="M32.8875 22.275C32.8969 25.0875 31.4531 27.6187 30.3 28.725C28.5969 30.386 26.3225 31.332 23.9438 31.3687C21.1031 31.4156 18.4313 29.5687 17.7094 28.7531C16.0945 27.0406 15.1753 24.7879 15.1313 22.4344C15.3 19.3594 16.5094 17.2219 18.2531 15.75C19.947 14.3555 22.0779 13.6021 24.2719 13.6219C25.5526 13.684 26.8063 14.0129 27.9525 14.5876C29.0987 15.1624 30.1122 15.9702 30.9281 16.9594C32.1 18.3844 32.6156 19.9312 32.8875 22.275V22.275ZM23.9625 12.6563C26.5851 12.6562 29.1015 13.6929 30.963 15.5403C32.8245 17.3878 33.8802 19.8962 33.9 22.5187C33.9 23.8201 33.6437 25.1086 33.1457 26.3109C32.6477 27.5132 31.9178 28.6056 30.9976 29.5257C30.0774 30.4459 28.985 31.1758 27.7828 31.6738C26.5805 32.1718 25.2919 32.4281 23.9906 32.4281C22.6893 32.4281 21.4007 32.1718 20.1985 31.6738C18.9962 31.1758 17.9038 30.4459 16.9836 29.5257C16.0635 28.6056 15.3336 27.5132 14.8356 26.3109C14.3376 25.1086 14.0813 23.8201 14.0813 22.5187C14.0719 17.0812 18.5156 12.6563 23.9625 12.6563" fill="#FFFF00"/>
<path fill-rule="evenodd" clip-rule="evenodd" d="M30.9432 15.5603C29.0869 13.7181 26.5777 12.6843 23.9625 12.6844C18.5311 12.6844 14.1 17.0969 14.1094 22.5188L14.1094 22.5188C14.1094 23.8164 14.365 25.1013 14.8615 26.3002C15.3581 27.499 16.086 28.5883 17.0035 29.5059C17.9211 30.4235 19.0104 31.1513 20.2092 31.6479C21.4081 32.1445 22.693 32.4 23.9906 32.4C25.2882 32.4 26.5732 32.1445 27.772 31.6479C28.9709 31.1513 30.0602 30.4235 30.9777 29.5059C31.8953 28.5883 32.6231 27.499 33.1197 26.3002C33.6163 25.1013 33.8719 23.8164 33.8719 22.5188C33.8521 19.9037 32.7994 17.4025 30.9432 15.5603ZM23.9625 12.6282C26.5926 12.6281 29.116 13.6677 30.9828 15.5204C32.8496 17.3731 33.9083 19.8886 33.9281 22.5186L33.9281 22.5188C33.9281 23.8238 33.6711 25.116 33.1717 26.3217C32.6723 27.5274 31.9403 28.6229 31.0175 29.5457C30.0947 30.4685 28.9992 31.2004 27.7935 31.6999C26.5879 32.1993 25.2956 32.4563 23.9906 32.4563C22.6856 32.4563 21.3934 32.1993 20.1877 31.6999C18.982 31.2004 17.8865 30.4685 16.9637 29.5457C16.041 28.6229 15.309 27.5274 14.8096 26.3217C14.3102 25.116 14.0531 23.8238 14.0531 22.5188C14.0437 17.0657 18.5002 12.6282 23.9625 12.6282ZM24.2711 13.65C22.084 13.6305 19.9598 14.3816 18.2711 15.7716C16.5337 17.2382 15.3279 19.3681 15.1594 22.4349C15.2036 24.7811 16.1199 27.0266 17.7298 28.7339L17.7304 28.7345L17.7304 28.7345C18.0883 29.1389 18.9335 29.8026 20.0446 30.3593C21.1554 30.9158 22.5289 31.364 23.9433 31.3407H23.9433C26.3148 31.3041 28.5824 30.3609 30.2804 28.7049L30.2805 28.7048C31.4285 27.6034 32.8682 25.0801 32.8594 22.2767C32.5878 19.9369 32.0733 18.3963 30.9064 16.9773C30.093 15.9912 29.0826 15.1858 27.9399 14.6128C26.7973 14.0399 25.5477 13.712 24.2711 13.65ZM32.8875 22.275L32.9154 22.2718C32.6432 19.9251 32.1264 18.3723 30.9498 16.9416L30.9498 16.9415C30.1314 15.9493 29.1148 15.139 27.9651 14.5626C26.8154 13.9861 25.5579 13.6561 24.2732 13.5938L24.2732 13.5938L24.2721 13.5938C22.0715 13.574 19.9343 14.3297 18.2352 15.7283L18.235 15.7286C16.4851 17.2056 15.2723 19.3504 15.1032 22.4329C15.1031 22.4336 15.1031 22.4343 15.1031 22.435C15.1473 24.7953 16.0691 27.0545 17.6886 28.7721C18.0527 29.1834 18.9043 29.8508 20.0194 30.4096C21.1352 30.9686 22.5179 31.4205 23.9442 31.3969C26.33 31.3601 28.6112 30.4113 30.3195 28.7453C30.3195 28.7453 30.3195 28.7453 30.3195 28.7453L30.3 28.725L30.3196 28.7452C30.3196 28.7452 30.3195 28.7453 30.3195 28.7453" fill="black"/>
<path fill-rule="evenodd" clip-rule="evenodd" d="M23.9906 12.6094C29.4469 12.6094 33.8906 17.0531 33.8906 22.5094C33.8906 27.9656 29.4469 32.4094 24 32.4094C18.5531 32.4094 14.1 27.9656 14.1 22.5094C14.1 17.0531 18.5437 12.6094 24 12.6094H23.9906ZM14.3062 22.5C14.3062 27.825 18.6844 32.1844 23.9906 32.1844C29.2969 32.1844 33.675 27.825 33.675 22.5C33.675 17.175 29.2969 12.8156 23.9906 12.8156C18.6844 12.8156 14.3062 17.175 14.3062 22.5Z" fill="#FFFF00"/>
<path fill-rule="evenodd" clip-rule="evenodd" d="M23.9953 12.6375C18.5567 12.6401 14.1281 17.0703 14.1281 22.5094C14.1281 27.9501 18.5686 32.3813 24 32.3813C29.4313 32.3813 33.8625 27.9502 33.8625 22.5094C33.8625 17.0703 29.4339 12.6401 23.9953 12.6375ZM24.0005 12.5813C29.4677 12.5867 33.9187 17.0409 33.9187 22.5094C33.9187 27.9812 29.4624 32.4375 24 32.4375C18.5376 32.4375 14.0718 27.9812 14.0718 22.5094C14.0718 17.0409 18.5228 12.5867 23.9901 12.5813C23.9902 12.5813 23.9904 12.5813 23.9906 12.5813H24C24.0001 12.5813 24.0003 12.5813 24.0005 12.5813ZM14.2781 22.5C14.2781 17.1595 18.6688 12.7875 23.9906 12.7875C29.3123 12.7875 33.7031 17.1595 33.7031 22.5C33.7031 27.8406 29.3123 32.2125 23.9906 32.2125C18.6688 32.2125 14.2781 27.8406 14.2781 22.5ZM23.9906 12.8438C18.6998 12.8438 14.3343 17.1906 14.3343 22.5C14.3343 27.8095 18.6998 32.1563 23.9906 32.1563C29.2813 32.1563 33.6468 27.8095 33.6468 22.5C33.6468 17.1906 29.2813 12.8438 23.9906 12.8438Z" fill="black"/>
<path fill-rule="evenodd" clip-rule="evenodd" d="M24 13.4343C26.4021 13.4417 28.7037 14.3993 30.4022 16.0978C32.1007 17.7963 33.0582 20.0979 33.0656 22.5C33.0582 24.9029 32.101 27.2054 30.4028 28.9055C28.7045 30.6055 26.4029 31.5651 24 31.5749C19.0313 31.5749 14.9344 27.4875 14.9344 22.5C14.9443 20.0986 15.9026 17.7985 17.6006 16.1005C19.2986 14.4025 21.5987 13.4442 24 13.4343V13.4343ZM15.15 22.5C15.15 27.375 19.1438 31.35 24 31.35C28.8563 31.35 32.85 27.3656 32.85 22.5C32.85 17.625 28.8563 13.65 24 13.65C21.6559 13.6598 19.4106 14.5954 17.753 16.253C16.0955 17.9105 15.1599 20.1558 15.15 22.5V22.5Z" fill="#FFFF00"/>
<path fill-rule="evenodd" clip-rule="evenodd" d="M30.3823 16.1177C28.689 14.4245 26.3946 13.4699 24 13.4625C21.6062 13.4724 19.3132 14.4277 17.6204 16.1204C15.9277 17.8132 14.9724 20.1062 14.9625 22.5001C14.9625 27.472 19.0467 31.5468 23.9999 31.5469C26.3954 31.537 28.6898 30.5804 30.3829 28.8856C32.0758 27.1909 33.0301 24.8955 33.0375 22.5C33.0301 20.1054 32.0755 17.811 30.3823 16.1177ZM24 13.4344L24.0001 13.4062C26.4096 13.4137 28.7183 14.3742 30.4221 16.0779C32.1258 17.7817 33.0863 20.0904 33.0938 22.4999V22.5001C33.0863 24.9105 32.1262 27.2201 30.4226 28.9254C28.7191 30.6307 26.4105 31.5932 24.0001 31.6031H24C19.0157 31.6031 14.9062 27.503 14.9062 22.5L14.9063 22.4999C14.9162 20.0912 15.8774 17.7839 17.5807 16.0807C19.2839 14.3774 21.5912 13.4162 23.9999 13.4063L24 13.4344ZM24 13.6219C28.8717 13.6219 32.8781 17.6094 32.8781 22.5C32.8781 27.3812 28.8718 31.3781 24 31.3781C19.1283 31.3781 15.1219 27.3906 15.1219 22.5H15.15L15.1219 22.4999C15.1318 20.1483 16.0703 17.8959 17.7331 16.2331C19.3959 14.5703 21.6483 13.6318 23.9999 13.6219L24 13.6219ZM15.1781 22.5001C15.1782 27.3595 19.1593 31.3219 24 31.3219C28.8407 31.3219 32.8219 27.3501 32.8219 22.5C32.8219 17.6406 28.8408 13.6782 24.0001 13.6781C21.6634 13.688 19.4252 14.6206 17.7729 16.2729C16.1206 17.9252 15.188 20.1634 15.1781 22.5001Z" fill="black"/>
<path fill-rule="evenodd" clip-rule="evenodd" d="M24.4031 12.5625H23.55V32.4656H24.3937L24.4031 12.5625Z" fill="#FFFF00"/>
<path fill-rule="evenodd" clip-rule="evenodd" d="M23.5219 12.5625C23.5219 12.547 23.5344 12.5344 23.55 12.5344H24.4031C24.4106 12.5344 24.4177 12.5374 24.423 12.5427C24.4283 12.5479 24.4312 12.5551 24.4312 12.5626L24.4219 32.4657C24.4218 32.4812 24.4093 32.4938 24.3937 32.4938H23.55C23.5344 32.4938 23.5219 32.4812 23.5219 32.4657V12.5625ZM23.5781 12.5907V32.4375H24.3656L24.375 12.5907H23.5781Z" fill="black"/>
<path fill-rule="evenodd" clip-rule="evenodd" d="M24.3094 12.45H24.525V32.5781H24.3188V12.45H24.3094ZM23.4656 12.45H23.6906V32.5781H23.475V12.45H23.4656Z" fill="#FFFF00"/>
<path fill-rule="evenodd" clip-rule="evenodd" d="M23.4375 12.45C23.4375 12.4345 23.4501 12.4219 23.4656 12.4219H23.6906C23.7062 12.4219 23.7187 12.4345 23.7187 12.45V32.5781C23.7187 32.5937 23.7062 32.6063 23.6906 32.6063H23.475C23.4595 32.6063 23.4469 32.5937 23.4469 32.5781V12.471C23.4411 12.4658 23.4375 12.4583 23.4375 12.45ZM23.5031 12.4781V32.55H23.6625V12.4781H23.5031ZM24.2812 12.45C24.2812 12.4345 24.2938 12.4219 24.3094 12.4219H24.525C24.5405 12.4219 24.5531 12.4345 24.5531 12.45V32.5781C24.5531 32.5937 24.5405 32.6063 24.525 32.6063H24.3187C24.3032 32.6063 24.2906 32.5937 24.2906 32.5781V12.471C24.2849 12.4658 24.2812 12.4583 24.2812 12.45ZM24.3469 12.4781V32.55H24.4969V12.4781H24.3469Z" fill="black"/>
<path fill-rule="evenodd" clip-rule="evenodd" d="M33.9 22.8937V22.1625L33.3 21.6L29.8969 20.7L25.0031 20.2031L19.0969 20.5031L14.8969 21.4969L14.0531 22.125V22.8656L16.2 21.9L21.3 21.1031H26.2031L29.8031 21.4969L32.2969 22.0969L33.9 22.8937Z" fill="#FFFF00"/>
<path fill-rule="evenodd" clip-rule="evenodd" d="M25.0017 20.1751C25.0031 20.175 25.0045 20.175 25.0059 20.1752L29.8997 20.6721C29.9011 20.6722 29.9026 20.6725 29.904 20.6729L33.3072 21.5729C33.3117 21.574 33.3158 21.5763 33.3192 21.5795L33.9192 22.142C33.9249 22.1473 33.9281 22.1548 33.9281 22.1625V22.8938C33.9281 22.9035 33.9231 22.9126 33.9148 22.9177C33.9065 22.9228 33.8962 22.9233 33.8874 22.919L32.2872 22.1235L29.7982 21.5247L26.2016 21.1313H21.3021L16.208 21.9273L14.0646 22.8913C14.0559 22.8952 14.0458 22.8945 14.0378 22.8893C14.0298 22.8841 14.025 22.8752 14.025 22.8657V22.125C14.025 22.1162 14.0292 22.1078 14.0363 22.1025L14.88 21.4744C14.8831 21.4721 14.8866 21.4704 14.8904 21.4696L19.0904 20.4758C19.092 20.4754 19.0937 20.4752 19.0954 20.4751L25.0017 20.1751ZM19.1008 20.5311L14.909 21.523L14.0812 22.1392V22.8222L16.1884 21.8744C16.1907 21.8734 16.1931 21.8726 16.1956 21.8723L21.2956 21.0754C21.2971 21.0752 21.2985 21.075 21.3 21.075H26.2031C26.2035 21.075 26.2039 21.0751 26.2043 21.0751C26.2049 21.0751 26.2055 21.0751 26.2061 21.0752L29.8061 21.469C29.8073 21.4691 29.8085 21.4693 29.8097 21.4696L32.3034 22.0696C32.3055 22.0701 32.3075 22.0708 32.3094 22.0717L33.8718 22.8484V22.1747L33.2859 21.6254L29.8918 20.7278L25.0024 20.2314L19.1008 20.5311Z" fill="black"/>
<path fill-rule="evenodd" clip-rule="evenodd" d="M24 20.9812C26.3344 20.9812 28.5937 21.1969 30.4031 21.5437C32.2594 21.9187 33.5625 22.3875 34.0125 22.9031V23.1656C33.4687 22.5094 31.7156 22.0406 30.3562 21.7594C28.575 21.4219 26.325 21.1969 23.9906 21.1969C21.5437 21.1969 19.2563 21.4406 17.4938 21.7781C16.0875 22.0594 14.2031 22.6219 13.9688 23.1656V22.8937C14.0906 22.5187 15.4969 21.9562 17.4656 21.5531C19.2375 21.2062 21.525 20.9812 23.9906 20.9812H24ZM24 20.1281C26.1469 20.1238 28.2899 20.3121 30.4031 20.6906C32.2594 21.0656 33.5625 21.5344 34.0125 22.0594V22.3125C33.4687 21.6656 31.7156 21.1875 30.3562 20.9156C28.575 20.5687 26.325 20.3531 23.9906 20.3531C21.8148 20.3462 19.6431 20.5408 17.5031 20.9344C16.1437 21.1875 14.1844 21.7687 13.9688 22.3125V22.05C14.1 21.675 15.525 21.0844 17.4656 20.7094C19.2469 20.3625 21.525 20.1281 24 20.1281V20.1281ZM23.9437 15.7969C27.6281 15.7781 30.8438 16.3125 32.3156 17.0625L32.85 18C31.575 17.3062 28.1062 16.5937 23.9531 16.6875C20.5688 16.7156 16.95 17.0625 15.1406 18.0375L15.7781 16.9687C17.2688 16.1906 20.775 15.7969 23.9437 15.7969" fill="#FFFF00"/>
<path fill-rule="evenodd" clip-rule="evenodd" d="M28.955 16.1692C27.5082 15.9445 25.7847 15.8157 23.9439 15.825C23.9438 15.825 23.9438 15.825 23.9437 15.825M28.955 16.1692C30.3975 16.3933 31.5629 16.7124 32.2954 17.0838ZM32.2954 17.0838L32.7779 17.9304C32.1191 17.5962 30.9657 17.2631 29.4854 17.0207C27.938 16.7673 26.0309 16.6125 23.9527 16.6594C22.2598 16.6735 20.5078 16.7673 18.9524 16.9796C17.4474 17.185 16.1238 17.5018 15.2159 17.9663L15.7982 16.9901C16.5397 16.6052 17.7814 16.314 19.2354 16.1189C20.6929 15.9234 22.3603 15.825 23.9436 15.825M23.9437 15.7688C22.3583 15.7688 20.6883 15.8673 19.2279 16.0632C17.7685 16.2589 16.5151 16.5524 15.7651 16.9439C15.7605 16.9463 15.7566 16.9499 15.754 16.9544L15.1165 18.0231C15.11 18.034 15.1115 18.0478 15.1203 18.057C15.129 18.0661 15.1428 18.0683 15.154 18.0623C16.054 17.5773 17.4069 17.2473 18.96 17.0353C20.5124 16.8234 22.2619 16.7297 23.9533 16.7157L23.9537 16.7157C26.0286 16.6688 27.9323 16.8234 29.4763 17.0762C31.0211 17.3292 32.2033 17.6802 32.8365 18.0247C32.8476 18.0308 32.8613 18.0287 32.8701 18.0197C32.8789 18.0108 32.8806 17.997 32.8744 17.9861L32.34 17.0486C32.3373 17.0438 32.3333 17.04 32.3284 17.0375C31.5885 16.6605 30.4131 16.3388 28.9637 16.1137C27.5136 15.8884 25.7871 15.7594 23.9437 15.7688ZM30.3978 20.7183C28.2863 20.3401 26.1452 20.152 24 20.1563L24 20.1282V20.1563C21.5266 20.1563 19.2503 20.3905 17.471 20.737L17.4709 20.737C16.5019 20.9243 15.6622 21.1653 15.0489 21.4059C14.7422 21.5263 14.4929 21.6462 14.3125 21.7589C14.2223 21.8153 14.15 21.8695 14.0965 21.9205C14.0446 21.97 14.012 22.0151 13.9969 22.055V22.2062C14.0265 22.1657 14.064 22.1258 14.1081 22.0866C14.1868 22.0164 14.2881 21.9471 14.4068 21.879C14.6441 21.7429 14.9534 21.6107 15.2976 21.488C15.986 21.2425 16.8171 21.0335 17.498 20.9068L17.498 20.9068C19.6397 20.5129 21.8132 20.3181 23.9907 20.325C26.3266 20.325 28.5784 20.5408 30.3616 20.8881L30.3618 20.8881C31.0421 21.0242 31.8216 21.2119 32.4994 21.4469C32.8384 21.5644 33.1524 21.6938 33.4162 21.8348C33.6501 21.9598 33.8459 22.0946 33.9844 22.2392V22.0699C33.7622 21.8159 33.3324 21.5722 32.7253 21.3451C32.1132 21.1162 31.325 20.9056 30.3978 20.7183ZM23.9999 20.1C26.1485 20.0957 28.2931 20.2841 30.4081 20.663L30.4087 20.6631C31.3376 20.8508 32.129 21.062 32.745 21.2924C33.3598 21.5224 33.8039 21.7729 34.0338 22.0411C34.0382 22.0462 34.0406 22.0527 34.0406 22.0594V22.3125C34.0406 22.3244 34.0332 22.3349 34.0221 22.339C34.011 22.343 33.9986 22.3397 33.991 22.3306C33.8583 22.1729 33.6504 22.0237 33.3897 21.8844C33.1294 21.7453 32.8183 21.6169 32.481 21.5001C31.8065 21.2663 31.0298 21.0791 30.3508 20.9433C28.5715 20.5968 26.3234 20.3813 23.9906 20.3813H23.9905C21.8165 20.3744 19.6464 20.5688 17.5082 20.9621C16.8297 21.0884 16.0015 21.2967 15.3165 21.541C14.9739 21.6632 14.668 21.7941 14.4348 21.9278C14.3182 21.9947 14.2204 22.0619 14.1455 22.1286C14.0703 22.1955 14.0196 22.2606 13.9949 22.3229C13.9899 22.3355 13.9767 22.3427 13.9635 22.3402C13.9502 22.3376 13.9406 22.326 13.9406 22.3125V22.05C13.9406 22.0469 13.9411 22.0437 13.9422 22.0407C13.9607 21.9879 14.0008 21.934 14.0577 21.8798C14.1148 21.8253 14.1905 21.7689 14.2827 21.7112C14.4671 21.596 14.7199 21.4746 15.0284 21.3535C15.6456 21.1114 16.4887 20.8695 17.4603 20.6818C19.2434 20.3346 21.5233 20.1 23.9999 20.1ZM23.9906 21.0094C21.5266 21.0094 19.241 21.2343 17.4712 21.5807C16.4879 21.7821 15.6458 22.0231 15.0348 22.2602C14.7292 22.3789 14.4822 22.4962 14.3045 22.6067C14.2157 22.6619 14.1448 22.7151 14.0928 22.7653C14.0422 22.8141 14.0108 22.8587 13.9969 22.8984V23.0625C14.0802 22.9498 14.2239 22.8401 14.4066 22.7347C14.6402 22.5999 14.9434 22.4692 15.2822 22.347C15.9601 22.1027 16.7842 21.8914 17.4882 21.7506L17.4884 21.7505C19.2527 21.4127 21.542 21.1688 23.9906 21.1688C26.3266 21.1688 28.5784 21.3939 30.3615 21.7318L30.3619 21.7319C31.0421 21.8726 31.8216 22.0604 32.4994 22.2953C32.8384 22.4128 33.1524 22.5423 33.4163 22.6839C33.6501 22.8094 33.8459 22.9451 33.9844 23.0916V22.9138C33.7622 22.6644 33.3323 22.423 32.7253 22.1971C32.1132 21.9693 31.3249 21.7587 30.3977 21.5714C28.5903 21.2249 26.3327 21.0094 24 21.0094H23.9906ZM17.4602 21.5256C19.2341 21.1783 21.5234 20.9532 23.9906 20.9532H24C26.3359 20.9532 28.5971 21.1689 30.4084 21.5162L30.4087 21.5162C31.3376 21.7039 32.129 21.9152 32.745 22.1444C33.3597 22.3732 33.8038 22.6212 34.0337 22.8847C34.0381 22.8898 34.0406 22.8964 34.0406 22.9032V23.1657C34.0406 23.1775 34.0332 23.1881 34.022 23.1921C34.0109 23.1961 33.9984 23.1927 33.9908 23.1836C33.8582 23.0236 33.6503 22.8733 33.3897 22.7334C33.1294 22.5937 32.8183 22.4654 32.481 22.3485C31.8066 22.1147 31.0299 21.9275 30.3508 21.787C28.5714 21.4499 26.3232 21.225 23.9906 21.225C21.5455 21.225 19.2598 21.4686 17.4991 21.8058C16.797 21.9462 15.9758 22.1568 15.3013 22.3999C14.964 22.5215 14.6643 22.651 14.4347 22.7834C14.2036 22.9167 14.0492 23.0499 13.9946 23.1768C13.9893 23.1891 13.9761 23.1959 13.9631 23.1932C13.95 23.1905 13.9406 23.179 13.9406 23.1657V22.8938C13.9406 22.8908 13.9411 22.8879 13.942 22.8851C13.9592 22.832 13.9981 22.7784 14.0537 22.7248C14.1096 22.6709 14.1839 22.6154 14.2748 22.5589C14.4566 22.4459 14.7071 22.3271 15.0144 22.2078C15.6292 21.9692 16.4745 21.7274 17.46 21.5256L17.4602 21.5256Z" fill="black"/>
<path fill-rule="evenodd" clip-rule="evenodd" d="M24 16.5657C25.9237 16.5332 27.8466 16.6681 29.7469 16.9688C31.2469 17.2501 32.6813 17.6626 32.8875 17.8876L33.0469 18.1688C32.55 17.8501 31.3031 17.4844 29.7094 17.1844C28.1156 16.8844 26.0813 16.7813 23.9906 16.7907C21.6188 16.7813 19.7719 16.9032 18.1969 17.1844C17.1112 17.3366 16.057 17.6626 15.075 18.1501L15.2344 17.8594C15.7969 17.5782 16.6688 17.2313 18.15 16.9594C19.7906 16.6594 21.6563 16.5751 24 16.5657V16.5657ZM24 15.7219C26.0063 15.7032 27.9938 15.8157 29.5406 16.0969C30.5428 16.2457 31.5127 16.5627 32.4094 17.0344L32.6438 17.4094C32.25 16.9688 30.7688 16.5469 29.4469 16.3219C27.9094 16.0501 26.0063 15.9469 24 15.9282C22.1324 15.9115 20.2667 16.0495 18.4219 16.3407C17.4573 16.4751 16.5204 16.7631 15.6469 17.1938L15.8531 16.8844C16.3969 16.6032 17.2781 16.3407 18.3844 16.1251C20.2414 15.8301 22.1199 15.6921 24 15.7126V15.7219ZM28.9125 26.6251C27.2876 26.3437 25.6395 26.2182 23.9906 26.2501C17.85 26.3251 15.8719 27.5157 15.6281 27.8719L15.1594 27.1219C16.7344 25.9969 20.0719 25.3594 24.0281 25.4157C26.0813 25.4532 27.8531 25.5938 29.3344 25.8844L28.9125 26.6344" fill="#FFFF00"/>
<path fill-rule="evenodd" clip-rule="evenodd" d="M18.3893 16.1527C17.2884 16.3673 16.4131 16.6279 15.8725 16.906L15.7277 17.1232C16.5771 16.7163 17.4845 16.4429 18.4177 16.3128C20.264 16.0214 22.1312 15.8833 24.0003 15.9L24.0003 15.9C26.007 15.9187 27.9119 16.0219 29.4517 16.2941C30.1136 16.4068 30.8157 16.5688 31.402 16.758C31.6951 16.8526 31.9599 16.9541 32.1764 17.0599C32.3088 17.1247 32.4242 17.1914 32.5171 17.2598L32.3896 17.0557C31.4976 16.5874 30.5331 16.2726 29.5365 16.1247L29.5356 16.1245L29.5356 16.1245C27.9911 15.8437 26.0056 15.7312 24.0003 15.75C23.9928 15.7501 23.9855 15.7471 23.9802 15.7418C23.9797 15.7414 23.9793 15.7409 23.9788 15.7404C22.1074 15.7212 20.2377 15.8591 18.3893 16.1527ZM24.0208 15.6935C24.0157 15.688 24.0084 15.6844 24.0003 15.6844C22.1186 15.6639 20.2385 15.802 18.38 16.0972L18.38 16.0972L18.379 16.0974C17.272 16.3131 16.3876 16.5763 15.8402 16.8594C15.836 16.8616 15.8324 16.8648 15.8297 16.8688L15.6235 17.1781C15.6164 17.1887 15.6173 17.2027 15.6257 17.2123C15.6341 17.2218 15.6479 17.2246 15.6593 17.219C16.5301 16.7896 17.4641 16.5025 18.4258 16.3685L18.4258 16.3685L18.4263 16.3684C20.2695 16.0775 22.1337 15.9396 23.9997 15.9562C26.0055 15.975 27.9068 16.0781 29.442 16.3496L29.4422 16.3496C30.1021 16.4619 30.8015 16.6234 31.3847 16.8115C31.6763 16.9056 31.9384 17.0062 32.1517 17.1105C32.3656 17.215 32.528 17.3221 32.6228 17.4281C32.6325 17.439 32.649 17.4406 32.6606 17.4319C32.6723 17.4231 32.6753 17.4068 32.6676 17.3945L32.4332 17.0195C32.4306 17.0152 32.4269 17.0118 32.4225 17.0095C31.5231 16.5363 30.5504 16.2184 29.5452 16.0691C28.0014 15.7885 26.0206 15.6758 24.0208 15.6935ZM29.7421 16.9965C27.8435 16.696 25.9224 16.5613 24.0005 16.5937L24 16.5656L24.0001 16.5937C21.6567 16.6031 19.7931 16.6875 18.1551 16.987C16.6832 17.2572 15.8151 17.6013 15.2548 17.8806L15.1424 18.0856C16.1042 17.6186 17.1333 17.3051 18.1924 17.1566C19.7696 16.875 21.6181 16.7531 23.9906 16.7625C26.0818 16.7531 28.1182 16.8562 29.7146 17.1567C30.5121 17.3068 31.2232 17.4735 31.7974 17.6425C32.3063 17.7924 32.7096 17.9447 32.97 18.0901L32.8647 17.9042C32.8417 17.8802 32.8009 17.8517 32.7415 17.8197C32.6809 17.787 32.6032 17.7518 32.5103 17.7147C32.3245 17.6404 32.08 17.5593 31.7945 17.4762C31.2237 17.3101 30.4912 17.1369 29.7421 16.9965ZM23.9997 16.5375C21.6557 16.5469 19.7881 16.6312 18.1449 16.9317L18.1449 16.9317C16.6612 17.204 15.7868 17.5517 15.2218 17.8342C15.2167 17.8368 15.2125 17.8408 15.2097 17.8458L15.0503 18.1365C15.0444 18.1472 15.0462 18.1606 15.0547 18.1695C15.0632 18.1783 15.0765 18.1806 15.0875 18.1752C16.0668 17.6891 17.118 17.364 18.2008 17.2122L18.2008 17.2122L18.2018 17.212C19.7745 16.9312 21.6195 16.8094 23.9905 16.8187H23.9908C26.0807 16.8094 28.113 16.9125 29.7042 17.212C30.5004 17.3619 31.2096 17.5281 31.7815 17.6965C32.3542 17.8651 32.7868 18.0353 33.0317 18.1924C33.0426 18.1994 33.0568 18.198 33.0662 18.1892C33.0756 18.1803 33.0777 18.1661 33.0713 18.1549L32.912 17.8736C32.9109 17.8718 32.9097 17.87 32.9082 17.8685C32.8792 17.8368 32.8308 17.8039 32.7682 17.7702C32.705 17.7361 32.6252 17.7 32.5311 17.6624C32.3431 17.5873 32.0966 17.5055 31.8102 17.4222C31.2373 17.2555 30.5028 17.0819 29.7521 16.9411L29.7521 16.9411L29.7513 16.941C27.8494 16.64 25.925 16.505 23.9997 16.5375ZM15.1973 27.1294L15.6306 27.8227C15.7103 27.7288 15.8796 27.599 16.1612 27.4537C16.479 27.2897 16.9429 27.1045 17.5907 26.9283C18.8861 26.576 20.9183 26.2594 23.9902 26.2219C23.9903 26.2219 23.9903 26.2219 23.9903 26.2219L23.9906 26.25L23.9901 26.2219C23.9901 26.2219 23.9902 26.2219 23.9902 26.2219C25.6358 26.19 27.2806 26.3149 28.9025 26.5947L28.888 26.6206C28.8827 26.6299 28.8834 26.641 28.8887 26.6494C27.2717 26.3707 25.6318 26.2464 23.9912 26.2781L23.991 26.2781C20.9223 26.3156 18.8951 26.6318 17.6054 26.9826C16.9606 27.158 16.5005 27.3419 16.187 27.5037C15.8722 27.6661 15.7081 27.8047 15.6513 27.8877C15.646 27.8956 15.637 27.9002 15.6275 27.9C15.6181 27.8998 15.6093 27.8948 15.6043 27.8868L15.1355 27.1368C15.1276 27.1242 15.1309 27.1076 15.143 27.099C15.9353 26.533 17.1681 26.0914 18.6955 25.7981C20.2235 25.5047 22.0489 25.3593 24.0285 25.3875L24.0286 25.3875C26.0826 25.425 27.8563 25.5657 29.3398 25.8568C29.3486 25.8585 29.3561 25.8644 29.3599 25.8726C29.3637 25.8808 29.3633 25.8903 29.3589 25.8981L28.937 26.6481C28.9294 26.6617 28.9122 26.6665 28.8987 26.6589C28.8945 26.6565 28.8912 26.6532 28.8887 26.6494M29.2908 25.9045L28.9025 26.5947ZM29.2908 25.9045C29.3035 25.907 29.3163 25.9095 29.329 25.912L29.3344 25.8844L29.3099 25.8706L29.2908 25.9045ZM29.2908 25.9045C27.8196 25.6194 26.0624 25.4809 24.0277 25.4437L24.0281 25.4156L24.0276 25.4437C24.0276 25.4437 24.0277 25.4437 24.0277 25.4437C22.0511 25.4156 20.2296 25.5608 18.7061 25.8534C17.1958 26.1434 15.9808 26.5777 15.1973 27.1294" fill="black"/>
<path fill-rule="evenodd" clip-rule="evenodd" d="M23.9625 26.1468C25.6687 26.1749 27.3375 26.2406 28.9594 26.5406L28.8469 26.7468C27.3469 26.4656 25.7344 26.3718 23.9719 26.3718C21.6937 26.3531 19.4062 26.5687 17.4094 27.1406C16.7812 27.3187 15.7406 27.7218 15.6281 28.0593L15.5156 27.8718C15.5531 27.6656 16.1719 27.2531 17.3531 26.9343C19.6406 26.2781 21.7781 26.1562 23.9625 26.1468ZM24.0375 25.2843C25.8384 25.2825 27.636 25.4393 29.4094 25.7531L29.2875 25.9687C27.5558 25.651 25.798 25.4972 24.0375 25.5093C21.7687 25.5093 19.3594 25.6781 17.1656 26.3156C16.4625 26.5218 15.2344 26.9718 15.1969 27.3187L15.0844 27.1124C15.1031 26.7937 16.1625 26.3718 17.1187 26.0999C19.3219 25.4531 21.7406 25.2937 24.0375 25.2843V25.2843Z" fill="#FFFF00"/>
<path fill-rule="evenodd" clip-rule="evenodd" d="M29.3653 25.7739C27.6062 25.4651 25.8235 25.3107 24.0375 25.3125C21.7415 25.3219 19.3259 25.4812 17.1266 26.127L17.1264 26.127C16.6491 26.2628 16.1467 26.4357 15.7618 26.6142C15.5692 26.7035 15.4072 26.7936 15.2926 26.8805C15.2354 26.9239 15.1908 26.9659 15.1602 27.0057C15.132 27.0426 15.1168 27.0762 15.1131 27.1065L15.1893 27.2461C15.202 27.2191 15.2199 27.1925 15.2418 27.1664C15.2824 27.1181 15.3382 27.0697 15.405 27.0218C15.5386 26.9261 15.7195 26.83 15.92 26.7388C16.3212 26.5565 16.8054 26.392 17.1577 26.2886L17.1577 26.2886C19.3552 25.65 21.7676 25.4812 24.0374 25.4812C25.793 25.4692 27.5458 25.6219 29.2728 25.9375L29.3653 25.7739ZM24.0375 25.2844L24.0374 25.2562C25.84 25.2544 27.6392 25.4114 29.4142 25.7254C29.4232 25.727 29.4309 25.7329 29.4348 25.7411C29.4387 25.7494 29.4383 25.759 29.4338 25.767L29.3119 25.9826C29.306 25.993 29.2942 25.9986 29.2824 25.9964C27.5524 25.6791 25.7964 25.5254 24.0377 25.5375L24.0375 25.5375C21.7698 25.5375 19.3635 25.7062 17.1735 26.3426C16.8227 26.4455 16.3412 26.6091 15.9432 26.79C15.7441 26.8806 15.567 26.9749 15.4378 27.0675C15.3732 27.1139 15.3214 27.1591 15.2849 27.2026C15.2482 27.2463 15.2287 27.2861 15.2248 27.3218C15.2235 27.334 15.2144 27.3439 15.2023 27.3463C15.1903 27.3487 15.178 27.343 15.1721 27.3322L15.0596 27.126C15.0571 27.1213 15.056 27.1161 15.0563 27.1108C15.0591 27.0634 15.081 27.0167 15.1156 26.9715C15.1503 26.9262 15.199 26.8808 15.2587 26.8356C15.3779 26.7453 15.544 26.6532 15.7381 26.5631C16.1266 26.383 16.632 26.2091 17.1109 26.073C19.3178 25.425 21.7396 25.2656 24.0373 25.2562L24.0375 25.2844ZM23.9629 26.1187V26.1187C25.6694 26.1469 27.3401 26.2125 28.9645 26.513C28.9733 26.5146 28.9809 26.5204 28.9847 26.5285C28.9886 26.5367 28.9883 26.5462 28.984 26.5541L28.8715 26.7603C28.8657 26.771 28.8536 26.7768 28.8417 26.7745C27.344 26.4937 25.7335 26.4 23.9718 26.4L23.9716 26.4C21.6952 26.3813 19.4105 26.5968 17.4171 27.1677L17.417 27.1677C17.1041 27.2564 16.6884 27.4012 16.3373 27.5657C16.1617 27.6479 16.0031 27.7347 15.8819 27.8214C15.7594 27.9089 15.6799 27.993 15.6548 28.0683C15.6513 28.0787 15.6421 28.0861 15.6312 28.0873C15.6202 28.0885 15.6096 28.0833 15.604 28.0738L15.4915 27.8863C15.488 27.8805 15.4867 27.8735 15.4879 27.8668C15.4991 27.8054 15.5512 27.7356 15.6337 27.6622C15.7175 27.5877 15.8372 27.5057 15.9919 27.4207C16.3013 27.2506 16.7534 27.0671 17.3455 26.9073C19.6366 26.25 21.7771 26.1281 23.9623 26.1187L23.9629 26.1187ZM23.9623 26.175C21.779 26.1844 19.6446 26.3062 17.3608 26.9614L17.3604 26.9615L17.3604 26.9615C16.7714 27.1205 16.3236 27.3025 16.019 27.4699C15.8666 27.5537 15.7508 27.6334 15.6711 27.7042C15.5963 27.7707 15.557 27.8262 15.5455 27.8671L15.6247 27.999C15.6677 27.923 15.7481 27.8478 15.8492 27.7756C15.9743 27.6862 16.1363 27.5977 16.3134 27.5148C16.6678 27.3487 17.0865 27.2029 17.4016 27.1136C19.4019 26.5407 21.6922 26.325 23.972 26.3437C25.7274 26.3437 27.3353 26.4367 28.8319 26.7155L28.916 26.5613C27.3087 26.2677 25.6549 26.2029 23.9623 26.175Z" fill="black"/>
<path fill-rule="evenodd" clip-rule="evenodd" d="M32.7563 27.2343L32.025 28.3874L29.8969 26.5031L24.4031 22.8L18.1969 19.3968L14.9813 18.3L15.6656 17.025L15.9 16.9031L17.8969 17.4L24.4969 20.8031L28.3031 23.2031L31.5 25.5L32.8031 27L32.7563 27.2343Z" fill="#FFFF00"/>
<path fill-rule="evenodd" clip-rule="evenodd" d="M15.887 16.8782C15.8931 16.875 15.9001 16.8742 15.9068 16.8758L17.9037 17.3727C17.9058 17.3732 17.9078 17.374 17.9098 17.375L24.5098 20.7781C24.5105 20.7785 24.5112 20.7789 24.5119 20.7793L28.3181 23.1793C28.3186 23.1796 28.3191 23.18 28.3195 23.1803L31.5164 25.4772C31.5182 25.4784 31.5198 25.4799 31.5212 25.4816L32.8244 26.9816C32.8301 26.9881 32.8324 26.997 32.8307 27.0055L32.7838 27.2399C32.7832 27.2433 32.7819 27.2465 32.78 27.2494L32.0488 28.4026C32.0443 28.4095 32.0371 28.4142 32.0289 28.4153C32.0208 28.4165 32.0125 28.414 32.0064 28.4086L29.8796 26.5254L24.3885 22.824L18.1855 19.4227L14.9722 18.3266C14.9644 18.324 14.9581 18.318 14.9551 18.3103C14.9521 18.3026 14.9526 18.294 14.9565 18.2867L15.6408 17.0117C15.6435 17.0067 15.6476 17.0027 15.6526 17L15.887 16.8782ZM15.9035 16.933L15.6863 17.0459L15.0217 18.2841L18.206 19.3703C18.2075 19.3708 18.209 19.3714 18.2104 19.3722L24.4166 22.7753C24.4174 22.7758 24.4181 22.7762 24.4188 22.7767L29.9126 26.4798C29.9136 26.4805 29.9146 26.4813 29.9155 26.4821L32.0189 28.3446L32.7297 27.2237L32.7728 27.008L31.4809 25.5209L28.2874 23.2265L24.4829 20.8276L17.8869 17.4265L15.9035 16.933Z" fill="black"/>
<path fill-rule="evenodd" clip-rule="evenodd" d="M14.8688 18.3281C15.4313 17.9531 19.575 19.7906 23.925 22.4156C28.2469 25.0406 32.3906 28.0031 32.0156 28.5563L31.8938 28.7531L31.8375 28.8C31.8469 28.7906 31.9125 28.7063 31.8375 28.5094C31.65 27.9 28.7063 25.5563 23.8406 22.6125C19.0875 19.7906 15.1313 18.0844 14.7469 18.5719L14.8688 18.3281V18.3281ZM32.9063 27.225C33.2625 26.5125 29.4188 23.6156 24.6469 20.7938C19.7719 18.0281 16.2469 16.3969 15.6 16.8844L15.4688 17.1563C15.4688 17.1656 15.4688 17.1375 15.5063 17.1094C15.6188 17.0156 15.8156 17.0156 15.9 17.0156C17.0063 17.0344 20.1656 18.4875 24.6 21.0281C26.55 22.1531 32.8125 26.1844 32.7844 27.3094C32.7844 27.4031 32.7938 27.4219 32.7563 27.4781L32.9156 27.2344L32.9063 27.225Z" fill="#FFFF00"/>
<path fill-rule="evenodd" clip-rule="evenodd" d="M18.5492 17.5934C20.122 18.2865 22.223 19.3863 24.6608 20.7692L24.6612 20.7695C27.0478 22.1808 29.2027 23.6111 30.7168 24.7781C31.4737 25.3614 32.0713 25.8796 32.4577 26.2972C32.6508 26.5059 32.7923 26.6906 32.8743 26.8467C32.9508 26.9923 32.9791 27.1199 32.9395 27.2194C32.9452 27.2286 32.9453 27.2404 32.9392 27.2497L32.7833 27.488C32.7822 27.4899 32.7809 27.4918 32.7797 27.4937C32.7711 27.5066 32.7537 27.5101 32.7408 27.5015C32.7278 27.493 32.7242 27.4756 32.7327 27.4627L32.7328 27.4625C32.734 27.4608 32.7351 27.4591 32.7361 27.4575C32.7504 27.4351 32.7547 27.4215 32.7564 27.405C32.7574 27.3951 32.7574 27.3836 32.7571 27.3678C32.7569 27.3524 32.7563 27.3331 32.7563 27.3093L32.7563 27.3086C32.7579 27.2446 32.737 27.1676 32.6933 27.0781C32.6496 26.9889 32.5841 26.889 32.4986 26.7799C32.3277 26.5616 32.0791 26.3087 31.7728 26.0323C31.1604 25.4797 30.3203 24.8359 29.4176 24.1916C27.6125 22.9031 25.5602 21.6145 24.586 21.0524C22.3692 19.7824 20.4716 18.7844 18.9902 18.1017C18.2495 17.7603 17.6132 17.4979 17.0934 17.3198C16.573 17.1414 16.1717 17.0484 15.8998 17.0437C15.8575 17.0437 15.7893 17.0438 15.7181 17.0551C15.6462 17.0665 15.5748 17.0888 15.5243 17.1309C15.5239 17.1312 15.5235 17.1315 15.5231 17.1318C15.5082 17.143 15.5015 17.1536 15.4986 17.1594C15.4971 17.1623 15.4965 17.1643 15.496 17.1656C15.496 17.1658 15.4956 17.167 15.4952 17.168C15.4951 17.1683 15.4942 17.1707 15.4926 17.1732C15.492 17.1741 15.4889 17.1789 15.483 17.1824C15.4793 17.1845 15.4732 17.1868 15.4656 17.186C15.4579 17.1851 15.4523 17.1813 15.4489 17.1779C15.4436 17.1726 15.442 17.1666 15.4417 17.1656C15.4417 17.1655 15.4417 17.1655 15.4417 17.1655C15.4412 17.1635 15.441 17.162 15.4409 17.1613C15.4407 17.1599 15.4407 17.1587 15.4407 17.1584C15.4406 17.1575 15.4406 17.1566 15.4406 17.1562C15.4406 17.152 15.4416 17.1478 15.4434 17.144L15.5747 16.8721C15.5766 16.8681 15.5795 16.8646 15.5831 16.8619C15.6715 16.7953 15.805 16.7674 15.9751 16.7708C16.1459 16.7742 16.3581 16.8093 16.6079 16.8733C17.1077 17.0015 17.763 17.2468 18.5492 17.5934ZM32.8128 27.3402L32.8806 27.2365C32.8772 27.2289 32.8772 27.2201 32.8811 27.2124C32.9192 27.1362 32.9039 27.0241 32.8245 26.8729C32.7458 26.7231 32.6082 26.5426 32.4164 26.3354C32.0332 25.9213 31.4384 25.4053 30.6824 24.8226C29.1708 23.6576 27.018 22.2286 24.6328 20.818C22.1957 19.4354 20.0967 18.3368 18.5266 17.6448C17.7413 17.2988 17.0893 17.0548 16.5939 16.9278C16.3462 16.8643 16.1387 16.8303 15.9739 16.827C15.8124 16.8238 15.696 16.8502 15.6223 16.9028L15.5531 17.0461C15.6026 17.0217 15.6577 17.0077 15.7093 16.9995C15.7853 16.9874 15.8574 16.9874 15.8996 16.9874H15.9005C16.1817 16.9922 16.59 17.0878 17.1116 17.2666C17.6339 17.4455 18.272 17.7087 19.0137 18.0506C20.4972 18.7343 22.3964 19.7331 24.614 21.0037C25.5898 21.5666 27.6437 22.8562 29.4503 24.1458C30.3536 24.7906 31.1957 25.4358 31.8105 25.9906C32.1178 26.2679 32.3691 26.5233 32.5429 26.7452C32.6298 26.8562 32.6978 26.9594 32.7438 27.0534C32.7895 27.1469 32.8143 27.2332 32.8125 27.3097C32.8125 27.3209 32.8126 27.3309 32.8128 27.3402ZM14.8904 18.3476L14.8196 18.4892C14.8302 18.4853 14.8413 18.4817 14.8529 18.4787C14.9078 18.4641 14.9753 18.4588 15.054 18.4616C15.2114 18.4673 15.4185 18.5056 15.6689 18.5735C16.1701 18.7096 16.8507 18.966 17.6668 19.3254C19.2994 20.0443 21.4777 21.1769 23.855 22.5883L23.8552 22.5884C26.2886 24.0606 28.2418 25.383 29.6103 26.4138C30.2945 26.9292 30.8329 27.3719 31.2123 27.7242C31.4019 27.9003 31.5522 28.0542 31.6611 28.1836C31.769 28.3117 31.8387 28.4183 31.8641 28.5002C31.8936 28.5778 31.9024 28.6398 31.901 28.688L31.9923 28.5404C32.0102 28.514 32.0163 28.4784 32.0065 28.4306C31.9966 28.3824 31.971 28.3241 31.929 28.256C31.8449 28.1198 31.6988 27.9503 31.4977 27.7526C31.0958 27.3574 30.4792 26.8541 29.7149 26.2854C28.1865 25.1482 26.0709 23.7518 23.9104 22.4396C21.7362 21.1276 19.6138 20.0126 17.965 19.2725C17.1406 18.9024 16.4352 18.6264 15.9013 18.4663C15.6343 18.3863 15.4111 18.3355 15.2379 18.3163C15.1513 18.3067 15.0779 18.3051 15.0183 18.3113C14.9623 18.3172 14.9201 18.3297 14.8904 18.3476ZM14.8688 18.3281L14.8532 18.3047C14.8936 18.2777 14.9478 18.2621 15.0124 18.2554C15.0774 18.2486 15.155 18.2505 15.2441 18.2604C15.4221 18.2802 15.6489 18.332 15.9175 18.4125C16.4547 18.5735 17.1626 18.8506 17.9881 19.2212C19.6393 19.9623 21.7637 21.0785 23.9395 22.3915C26.1009 23.7043 28.2182 25.1017 29.7484 26.2403C30.5134 26.8094 31.1325 27.3146 31.5372 27.7125C31.7393 27.9112 31.8892 28.0845 31.9768 28.2264C32.0206 28.2974 32.0499 28.362 32.0616 28.4193C32.0734 28.4767 32.0679 28.5288 32.0393 28.5715L31.9177 28.7679C31.9161 28.7704 31.9141 28.7727 31.9118 28.7747L31.8555 28.8216C31.844 28.8312 31.8269 28.83 31.8167 28.8189C31.8066 28.8078 31.807 28.7907 31.8176 28.7801C31.8178 28.7798 31.8219 28.7753 31.827 28.7655C31.832 28.7556 31.8378 28.7407 31.8414 28.7201C31.8486 28.6791 31.8472 28.6139 31.8112 28.5193C31.811 28.5188 31.8108 28.5182 31.8106 28.5176C31.789 28.4472 31.7257 28.3476 31.6181 28.2198C31.5112 28.0929 31.3627 27.9407 31.174 27.7654C30.7966 27.4149 30.2598 26.9735 29.5764 26.4587C28.2098 25.4294 26.2583 24.1081 23.8262 22.6366C21.4503 21.2261 19.2741 20.0946 17.6441 19.3769C16.829 19.0179 16.1514 18.7628 15.6542 18.6278C15.4054 18.5603 15.2031 18.5232 15.052 18.5178C14.9765 18.5151 14.915 18.5204 14.8673 18.533C14.8197 18.5457 14.788 18.5651 14.769 18.5892C14.76 18.6006 14.744 18.6033 14.7318 18.5956C14.7196 18.5878 14.7153 18.5721 14.7217 18.5592L14.8436 18.3155L14.8688 18.3281Z" fill="black"/>
<path d="M18.0601 23.6031C18.0615 24.3794 18.217 25.1476 18.5174 25.8634C18.8178 26.5792 19.2571 27.2283 19.8101 27.7731C20.3563 28.3277 21.0068 28.7688 21.7242 29.0708C22.4416 29.3729 23.2117 29.53 23.9901 29.5331C25.5654 29.533 27.0762 28.9071 28.1901 27.7931C28.7411 27.2453 29.1784 26.594 29.477 25.8767C29.7756 25.1594 29.9296 24.3901 29.9301 23.6131V15.6931L18.0601 15.6731V23.6031V23.6031Z" fill="white"/>
<path fill-rule="evenodd" clip-rule="evenodd" d="M18.0251 15.6381L29.9651 15.6582V23.6131C29.9646 24.3947 29.8097 25.1686 29.5094 25.8902C29.209 26.6117 28.7691 27.2669 28.2148 27.8179C28.2148 27.818 28.2148 27.8179 28.2148 27.8179M19.7853 27.7979C20.3347 28.3557 20.9891 28.7993 21.7106 29.1031C22.4323 29.407 23.207 29.565 23.99 29.5682H23.9901C25.5747 29.568 27.0944 28.9385 28.2148 27.8179M19.7853 27.7979C19.2292 27.2499 18.7873 26.597 18.4851 25.877C18.1829 25.1569 18.0266 24.3841 18.0251 23.6032L18.0251 15.6381M18.0951 23.6031C18.0966 24.3747 18.2511 25.1384 18.5497 25.8499C18.8483 26.5614 19.285 27.2066 19.8347 27.7482L19.835 27.7486C20.378 28.2999 21.0247 28.7383 21.7378 29.0386C22.451 29.3389 23.2165 29.4951 23.9902 29.4982C25.5563 29.498 27.0581 28.8758 28.1654 27.7684L28.1654 27.7683C28.7132 27.2237 29.1479 26.5763 29.4447 25.8633C29.7416 25.1502 29.8946 24.3855 29.8951 23.6131V15.7281L18.0951 15.7082V23.6031Z" fill="black"/>
<path d="M18.2801 23.6131C18.2822 24.3578 18.4317 25.0946 18.7201 25.7811C19.0084 26.4677 19.4299 27.0903 19.9601 27.6131C21.0248 28.6834 22.4705 29.2876 23.9801 29.2931C25.4871 29.294 26.9328 28.697 28.0001 27.6331C28.5285 27.1095 28.9481 26.4865 29.2347 25.8C29.5214 25.1135 29.6693 24.3771 29.6701 23.6331V15.9331H18.3001V23.6131M27.4001 18.2431V23.1331L27.3901 23.6431C27.3935 24.0899 27.3067 24.5327 27.1348 24.9451C26.963 25.3575 26.7097 25.731 26.3901 26.0431C25.7542 26.6813 24.891 27.0409 23.9901 27.0431C23.0501 27.0431 22.2201 26.6431 21.6001 26.0231C20.962 25.3872 20.6023 24.524 20.6001 23.6231V18.2231L27.4001 18.2431Z" fill="#FF0000"/>
<path fill-rule="evenodd" clip-rule="evenodd" d="M18.2751 15.9081H29.6951V23.6331C29.6943 24.3803 29.5457 25.12 29.2578 25.8096C28.9699 26.4991 28.5485 27.1249 28.0177 27.6508C26.9457 28.7193 25.4936 29.319 23.9801 29.3181C22.4639 29.3125 21.0117 28.7057 19.9424 27.6308C19.4099 27.1057 18.9866 26.4803 18.697 25.7908C18.4074 25.1012 18.2572 24.3611 18.2551 23.6132L18.2801 23.6131H18.2751V15.9081ZM18.3051 23.6131C18.3072 24.3544 18.4561 25.088 18.7431 25.7714C19.0302 26.4549 19.4498 27.0748 19.9776 27.5953L19.9778 27.5955C21.0378 28.661 22.4772 29.2626 23.9802 29.2681C25.4805 29.2689 26.9198 28.6746 27.9824 27.6154C28.5085 27.0941 28.9263 26.4738 29.2116 25.7903C29.497 25.1069 29.6443 24.3737 29.6451 23.6331V15.9581H18.3251V23.6131H18.3051ZM20.5751 18.198L27.4251 18.2182V23.1331L27.4251 23.1336L27.4151 23.6429C27.4151 23.643 27.4151 23.6431 27.4151 23.6432C27.4184 24.0932 27.331 24.5393 27.1579 24.9547C26.9848 25.3701 26.7296 25.7464 26.4077 26.0609C25.7671 26.7036 24.8976 27.0659 23.9901 27.0681C23.0427 27.0681 22.2065 26.6649 21.5824 26.0408C20.9396 25.4002 20.5773 24.5307 20.5751 23.6232V18.198ZM20.6251 18.2482V23.623C20.6273 24.5173 20.9843 25.3742 21.6177 26.0054C22.2336 26.6213 23.0575 27.0181 23.99 27.0181C24.8843 27.0159 25.7411 26.6589 26.3724 26.0255L26.3726 26.0252C26.6898 25.7154 26.9412 25.3447 27.1117 24.9355C27.2823 24.5262 27.3684 24.0867 27.3651 23.6433L27.3651 23.6426L27.3751 23.1331V18.268L20.6251 18.2482Z" fill="black"/>
<path d="M19.0201 17.9432C19.0301 17.3932 19.4201 17.2632 19.4201 17.2632C19.4301 17.2632 19.8501 17.4032 19.8501 17.9532H19.0201" fill="#FFFF00"/>
<path d="M18.6801 17.2732L18.6101 17.9032H19.0301C19.0301 17.3832 19.4301 17.3032 19.4301 17.3032C19.4401 17.3032 19.8301 17.4132 19.8401 17.9032H20.2601L20.1801 17.2632H18.6801V17.2732ZM18.5801 17.9132H20.2801C20.3101 17.9132 20.3401 17.9432 20.3401 17.9832C20.3401 18.0332 20.3101 18.0632 20.2801 18.0632H18.5801C18.5501 18.0632 18.5201 18.0332 18.5201 17.9832C18.5201 17.9432 18.5501 17.9132 18.5901 17.9132H18.5801Z" fill="#FFFF00"/>
<path fill-rule="evenodd" clip-rule="evenodd" d="M18.6551 17.2382H20.2021L20.2834 17.8882C20.3281 17.8903 20.3651 17.9331 20.3651 17.9832C20.3651 18.042 20.3283 18.0882 20.2801 18.0882H18.5801C18.5318 18.0882 18.4951 18.042 18.4951 17.9832C18.4951 17.9327 18.5312 17.8934 18.5801 17.8886V17.8882H18.5866L18.6551 17.2718V17.2382ZM18.7035 17.2882L18.638 17.8782H19.0054C19.0116 17.6259 19.1117 17.476 19.2139 17.3891C19.2662 17.3446 19.3186 17.3171 19.3579 17.3007C19.3705 17.2955 19.3818 17.2913 19.3914 17.2882H18.7035ZM19.4301 17.3032C19.4287 17.2965 19.4278 17.2917 19.4271 17.2882L19.4301 17.3032ZM19.4666 17.2882C19.4779 17.2923 19.4918 17.298 19.5076 17.3054C19.5474 17.3242 19.5995 17.3545 19.6517 17.4007C19.753 17.4907 19.8531 17.6399 19.8642 17.8782H20.2317L20.158 17.2882H19.4666ZM19.8146 17.8882C19.806 17.6599 19.7116 17.5208 19.6185 17.4381C19.5706 17.3956 19.5227 17.3678 19.4863 17.3506C19.4681 17.342 19.4529 17.3362 19.4421 17.3325C19.437 17.3308 19.433 17.3296 19.4302 17.3288C19.4277 17.3294 19.4242 17.3303 19.4199 17.3316C19.4097 17.3346 19.395 17.3394 19.3772 17.3469C19.3415 17.3617 19.2939 17.3867 19.2463 17.4272C19.1537 17.5059 19.0589 17.6449 19.0552 17.8882H19.8146ZM18.5901 17.9382C18.5639 17.9382 18.5451 17.957 18.5451 17.9832C18.5451 18.0243 18.5683 18.0382 18.5801 18.0382H20.2801C20.2918 18.0382 20.3151 18.0243 20.3151 17.9832C20.3151 17.9544 20.2938 17.9382 20.2801 17.9382H18.5901Z" fill="black"/>
<path d="M19.2001 17.9032C19.2001 17.5732 19.4301 17.4832 19.4301 17.4832C19.4301 17.4832 19.6601 17.5832 19.6601 17.9032H19.2001ZM18.6201 17.0032H20.2501C20.2801 17.0032 20.3101 17.0432 20.3101 17.0832C20.3101 17.1132 20.2801 17.1432 20.2501 17.1432H18.6201C18.5901 17.1432 18.5601 17.1132 18.5601 17.0732C18.5601 17.0432 18.5901 17.0132 18.6201 17.0132V17.0032ZM19.2401 18.0532H20.2001C20.2301 18.0532 20.2601 18.0832 20.2601 18.1232C20.2601 18.1632 20.2301 18.1932 20.2001 18.1932H18.6501C18.6101 18.1932 18.5901 18.1632 18.5901 18.1232C18.5901 18.0832 18.6101 18.0532 18.6501 18.0532H19.2401ZM19.7401 16.9932H19.8601V17.0732H19.9501V16.9932H20.0801V17.0832H20.1701V16.9832H20.2901V17.1832C20.2901 17.2232 20.2701 17.2432 20.2401 17.2432H19.8001C19.7701 17.2432 19.7401 17.2232 19.7401 17.1932V16.9932ZM20.2001 17.2632L20.2301 17.9032H19.8001L19.8301 17.2532H20.2001" fill="#FFFF00"/>
<path fill-rule="evenodd" clip-rule="evenodd" d="M20.145 16.9581H20.315V17.0184C20.3271 17.0366 20.335 17.0596 20.335 17.0831C20.335 17.103 20.3267 17.1213 20.315 17.1354V17.1831C20.315 17.207 20.3091 17.2286 20.2951 17.2446C20.2808 17.261 20.2609 17.2681 20.24 17.2681H20.2253L20.2562 17.9281H19.7739L19.8043 17.2681H19.8C19.7798 17.2681 19.7593 17.2615 19.7434 17.2491C19.7273 17.2366 19.715 17.2172 19.715 17.1931V17.1681H18.62C18.5738 17.1681 18.535 17.1244 18.535 17.0731C18.535 17.05 18.5463 17.029 18.5611 17.0142C18.5703 17.005 18.582 16.9971 18.595 16.9925V16.9781H19.715V16.9681H19.885V16.9781H19.925V16.9681H20.105V16.9781H20.145V16.9581ZM20.145 17.0281H20.105V17.0581H20.145V17.0281ZM20.055 17.0281V17.1081H20.195V17.0281H20.25C20.2531 17.0281 20.2587 17.03 20.265 17.036V17.1134C20.2598 17.1166 20.2545 17.1181 20.25 17.1181H19.765V17.0281H19.835V17.0981H19.975V17.0281H20.055ZM19.925 17.0281H19.885V17.0481H19.925V17.0281ZM19.715 17.0281H18.645V17.0381H18.62C18.6132 17.0381 18.6042 17.0418 18.5965 17.0496C18.5887 17.0573 18.585 17.0663 18.585 17.0731C18.585 17.1019 18.6063 17.1181 18.62 17.1181H19.715V17.0281ZM19.765 17.1681V17.1931C19.765 17.199 19.7678 17.2047 19.7741 17.2096C19.7808 17.2148 19.7903 17.2181 19.8 17.2181H20.24C20.2492 17.2181 20.2543 17.2153 20.2575 17.2117C20.261 17.2076 20.265 17.1992 20.265 17.1831V17.1666C20.2602 17.1676 20.2552 17.1681 20.25 17.1681H19.765ZM19.8539 17.2781L19.8262 17.8781H20.2038L20.1757 17.2781H19.8539ZM19.44 17.4602L19.43 17.4831L19.4209 17.4599L19.4305 17.4561L19.44 17.4602ZM19.4296 17.5109C19.4241 17.5137 19.4165 17.5178 19.4074 17.5235C19.3875 17.5361 19.3606 17.5562 19.3336 17.5861C19.2829 17.6423 19.2309 17.7341 19.2255 17.8781H19.6345C19.629 17.7389 19.5772 17.6472 19.5263 17.5897C19.4992 17.5591 19.4722 17.538 19.4521 17.5246C19.4429 17.5184 19.4352 17.5139 19.4296 17.5109ZM19.4209 17.4599C19.4209 17.4598 19.4209 17.4599 19.43 17.4831C19.44 17.4602 19.44 17.4602 19.44 17.4602L19.4402 17.4603L19.4404 17.4604L19.4411 17.4607C19.4417 17.461 19.4425 17.4613 19.4435 17.4618C19.4454 17.4628 19.4482 17.4641 19.4517 17.466C19.4586 17.4697 19.4683 17.4753 19.4798 17.483C19.5029 17.4983 19.5333 17.5222 19.5638 17.5566C19.6249 17.6257 19.685 17.7365 19.685 17.9031V17.9281H19.175V17.9031C19.175 17.7317 19.235 17.6208 19.2965 17.5526C19.327 17.5188 19.3576 17.4958 19.3808 17.4812C19.3923 17.4739 19.4021 17.4687 19.4091 17.4652C19.4126 17.4635 19.4154 17.4622 19.4174 17.4613C19.4184 17.4609 19.4192 17.4606 19.4198 17.4603L19.4205 17.46L19.4208 17.4599L19.4209 17.4599ZM18.6246 18.0888C18.6191 18.0956 18.615 18.1069 18.615 18.1231C18.615 18.1393 18.6191 18.1507 18.6246 18.1575C18.6294 18.1636 18.6369 18.1681 18.65 18.1681H20.2C20.2138 18.1681 20.235 18.1519 20.235 18.1231C20.235 18.0944 20.2138 18.0781 20.2 18.0781H18.65C18.6369 18.0781 18.6294 18.0827 18.6246 18.0888ZM18.5855 18.0575C18.6007 18.0386 18.6231 18.0281 18.65 18.0281H20.2C20.2463 18.0281 20.285 18.0719 20.285 18.1231C20.285 18.1744 20.2463 18.2181 20.2 18.2181H18.65C18.6231 18.2181 18.6007 18.2077 18.5855 18.1888C18.571 18.1706 18.565 18.1469 18.565 18.1231C18.565 18.0993 18.571 18.0757 18.5855 18.0575Z" fill="black"/>
<path d="M19.1001 16.6632V17.0032H18.7001V16.6632H19.1001Z" fill="#FFFF00"/>
<path fill-rule="evenodd" clip-rule="evenodd" d="M18.675 16.6382H19.1251V17.0282H18.675V16.6382ZM18.725 16.6882V16.9782H19.0751V16.6882H18.725Z" fill="black"/>
<path d="M18.6301 16.4032H18.7501V16.5032H18.8401V16.4032H18.9601V16.5032H19.0501V16.4032H19.1701V16.6032C19.1701 16.6432 19.1501 16.6632 19.1201 16.6632H18.6901C18.6742 16.6632 18.6589 16.6569 18.6476 16.6456C18.6364 16.6344 18.6301 16.6191 18.6301 16.6032V16.4032V16.4032Z" fill="#FFFF00"/>
<path fill-rule="evenodd" clip-rule="evenodd" d="M18.655 16.4282V16.6032C18.655 16.6125 18.6587 16.6214 18.6653 16.6279C18.6719 16.6345 18.6808 16.6382 18.69 16.6382H19.12C19.1292 16.6382 19.1343 16.6353 19.1375 16.6317C19.141 16.6277 19.145 16.6193 19.145 16.6032V16.4282H19.075V16.5282H18.935V16.4282H18.865V16.5282H18.725V16.4282H18.655ZM18.63 16.4032V16.3782H18.775V16.4782H18.815V16.3782H18.985V16.4782H19.025V16.3782H19.195V16.6032C19.195 16.6271 19.1891 16.6487 19.1751 16.6646C19.1608 16.681 19.1409 16.6882 19.12 16.6882H18.69C18.6675 16.6882 18.6459 16.6792 18.6299 16.6633C18.614 16.6473 18.605 16.6257 18.605 16.6032V16.4032H18.63Z" fill="black"/>
<path d="M19.3901 16.5632C19.3901 16.5032 19.4801 16.5032 19.4801 16.5632V16.7232H19.3901V16.5632Z" fill="black"/>
<path d="M18.86 16.7832C18.86 16.7232 18.94 16.7232 18.94 16.7832V16.9032H18.86V16.7832Z" fill="black"/>
<path d="M23.2601 22.7431C23.2583 22.9542 23.337 23.158 23.4801 23.3131C23.5469 23.3878 23.6285 23.4477 23.7198 23.489C23.811 23.5303 23.9099 23.5522 24.0101 23.5531C24.2201 23.5531 24.4101 23.4531 24.5401 23.3131C24.6832 23.158 24.7619 22.9542 24.7601 22.7431V21.6631H23.2601V22.7431Z" fill="#003399"/>
<path d="M23.6101 22.2231C23.6929 22.2231 23.7601 22.1559 23.7601 22.0731C23.7601 21.9903 23.6929 21.9231 23.6101 21.9231C23.5272 21.9231 23.4601 21.9903 23.4601 22.0731C23.4601 22.1559 23.5272 22.2231 23.6101 22.2231Z" fill="white"/>
<path d="M24.4401 22.2231C24.5229 22.2231 24.5901 22.1559 24.5901 22.0731C24.5901 21.9903 24.5229 21.9231 24.4401 21.9231C24.3573 21.9231 24.2901 21.9903 24.2901 22.0731C24.2901 22.1559 24.3573 22.2231 24.4401 22.2231Z" fill="white"/>
<path d="M24.0201 22.6231C24.103 22.6231 24.1701 22.556 24.1701 22.4731C24.1701 22.3903 24.103 22.3231 24.0201 22.3231C23.9373 22.3231 23.8701 22.3903 23.8701 22.4731C23.8701 22.556 23.9373 22.6231 24.0201 22.6231Z" fill="white"/>
<path d="M23.6101 23.043C23.6929 23.043 23.7601 22.9759 23.7601 22.893C23.7601 22.8102 23.6929 22.743 23.6101 22.743C23.5272 22.743 23.4601 22.8102 23.4601 22.893C23.4601 22.9759 23.5272 23.043 23.6101 23.043Z" fill="white"/>
<path d="M24.4401 23.043C24.5229 23.043 24.5901 22.9759 24.5901 22.893C24.5901 22.8102 24.5229 22.743 24.4401 22.743C24.3573 22.743 24.2901 22.8102 24.2901 22.893C24.2901 22.9759 24.3573 23.043 24.4401 23.043Z" fill="white"/>
</g>
<defs>
<clipPath id="clip0_4_761">
<rect width="60" height="45" fill="white"/>
</clipPath>
</defs>
</svg>
