<svg width="60" height="45" viewBox="0 0 60 45" fill="none" xmlns="http://www.w3.org/2000/svg">
<g clip-path="url(#clip0_4_3)">
<path fill-rule="evenodd" clip-rule="evenodd" d="M-9.66563 0H69.675V45H-9.66563V0Z" fill="#4AADD6"/>
<path fill-rule="evenodd" clip-rule="evenodd" d="M38.0531 21.7594C38.0993 23.3884 37.804 25.0097 37.1847 26.5275C36.5655 28.0454 35.6347 29.4291 34.4475 30.5969C33.2603 31.7647 31.8407 32.6929 30.2725 33.3267C28.7043 33.9605 27.0194 34.2871 25.3172 34.2871C23.615 34.2871 21.93 33.9605 20.3618 33.3267C18.7937 32.6929 17.374 31.7647 16.1868 30.5969C14.9996 29.4291 14.0689 28.0454 13.4496 26.5275C12.8304 25.0097 12.5351 23.3884 12.5812 21.7594C12.5351 20.1304 12.8304 18.5091 13.4496 16.9912C14.0689 15.4733 14.9996 14.0896 16.1868 12.9218C17.374 11.754 18.7937 10.8258 20.3618 10.192C21.93 9.55823 23.615 9.23169 25.3172 9.23169C27.0194 9.23169 28.7043 9.55823 30.2725 10.192C31.8407 10.8258 33.2603 11.754 34.4475 12.9218C35.6347 14.0896 36.5655 15.4733 37.1847 16.9912C37.804 18.5091 38.0993 20.1304 38.0531 21.7594V21.7594Z" fill="#FFDE00"/>
</g>
<defs>
<clipPath id="clip0_4_3">
<rect width="60" height="45" fill="white"/>
</clipPath>
</defs>
</svg>
