<svg width="60" height="45" viewBox="0 0 60 45" fill="none" xmlns="http://www.w3.org/2000/svg">
<g clip-path="url(#clip0_4_3773)">
<path d="M0 0H60V45H0V0Z" fill="#20603D"/>
<path d="M0 0H60V33.75H0V0Z" fill="#FAD201"/>
<path d="M0 0H60V22.5H0V0Z" fill="#00A1DE"/>
<path d="M55.1625 11.7562L50.1375 12.05L54.9125 13.6375L49.9875 12.6187L54.1938 15.3812L49.6938 13.1187L53.0313 16.8875L49.275 13.5437L51.5375 18.0438L48.7688 13.8375L49.7813 18.7563L48.2 13.9875L47.9063 19.0125L47.8438 11.6937L55.1625 11.7562Z" fill="#E5BE01"/>
<path d="M47.9063 13.8999C49.0902 13.8999 50.05 12.9402 50.05 11.7562C50.05 10.5722 49.0902 9.61243 47.9063 9.61243C46.7223 9.61243 45.7625 10.5722 45.7625 11.7562C45.7625 12.9402 46.7223 13.8999 47.9063 13.8999Z" fill="#E5BE01"/>
<path fill-rule="evenodd" clip-rule="evenodd" d="M47.9063 9.71873C46.781 9.71873 45.8688 10.631 45.8688 11.7562C45.8688 12.8815 46.781 13.7937 47.9063 13.7937C49.0315 13.7937 49.9438 12.8815 49.9438 11.7562C49.9438 10.631 49.0315 9.71873 47.9063 9.71873ZM45.6562 11.7562C45.6562 10.5136 46.6636 9.50623 47.9063 9.50623C49.1489 9.50623 50.1563 10.5136 50.1563 11.7562C50.1563 12.9989 49.1489 14.0062 47.9063 14.0062C46.6636 14.0062 45.6562 12.9989 45.6562 11.7562Z" fill="#00A1DE"/>
</g>
<defs>
<clipPath id="clip0_4_3773">
<rect width="60" height="45" fill="white"/>
</clipPath>
</defs>
</svg>
