<svg width="60" height="45" viewBox="0 0 60 45" fill="none" xmlns="http://www.w3.org/2000/svg">
<g clip-path="url(#clip0_4_5928)">
<path fill-rule="evenodd" clip-rule="evenodd" d="M0 0H60V45H0V0Z" fill="#CE1126"/>
<path fill-rule="evenodd" clip-rule="evenodd" d="M0 0H30V22.5H0V0Z" fill="#002B7F"/>
<path fill-rule="evenodd" clip-rule="evenodd" d="M16.875 21.4969L14.9344 20.1844L13.0688 21.5062L13.6781 19.1719L11.8969 17.7469L14.1938 17.6062L14.9531 15.3937L15.7781 17.6437L18.0281 17.7094L16.2469 19.2375L16.875 21.4969ZM16.5375 5.97187L14.9813 4.96875L13.4813 5.94375L13.8938 4.06875L12.525 2.87812L14.3438 2.72812L15.0188 0.984375L15.7125 2.7375L17.5031 2.89687L16.125 4.15312L16.5375 5.97187ZM9.69376 11.55L8.19376 10.5187L6.62814 11.55L7.11564 9.73125L5.70001 8.53125L7.50001 8.4375L8.15626 6.65625L8.79376 8.42812L10.6313 8.53125L9.22501 9.70312L9.69376 11.55ZM23.4375 10.3125L21.9938 9.375L20.5875 10.3125L21 8.59687L19.6875 7.49062L21.4031 7.35L21.9938 5.7375L22.65 7.36875L24.3094 7.4625L23.025 8.61562L23.4375 10.3125ZM19.3969 14.3812L18.4313 13.7812L17.4656 14.4L17.7188 13.2469L16.8563 12.4687L17.9813 12.375L18.4125 11.2875L18.8719 12.375L19.9875 12.4687L19.1344 13.2469L19.3969 14.3812Z" fill="white"/>
</g>
<defs>
<clipPath id="clip0_4_5928">
<rect width="60" height="45" fill="white"/>
</clipPath>
</defs>
</svg>
