<svg width="60" height="45" viewBox="0 0 60 45" fill="none" xmlns="http://www.w3.org/2000/svg">
<g clip-path="url(#clip0_4_5670)">
<path fill-rule="evenodd" clip-rule="evenodd" d="M-3.75 0H63.75V45H-3.75V0Z" fill="#199D00"/>
<path fill-rule="evenodd" clip-rule="evenodd" d="M13.2568 12.7529C13.1865 13.8076 13.0811 15.6533 13.9863 15.8467C15.0674 15.9522 14.4697 14.0186 14.8652 13.667C14.9355 13.4912 15.0674 13.4912 15.0762 13.711V15.3545C15.0762 15.8818 15.4277 16.0401 15.6914 16.1455C15.9727 16.1279 16.166 16.1455 16.2715 16.4092L16.4121 19.2481C16.4121 19.2481 17.0625 19.4414 17.0977 17.6572C17.124 16.6026 16.8867 15.7324 17.0273 15.5303C17.0273 15.3281 17.291 15.3193 17.4668 15.416C17.748 15.6094 17.8711 15.8555 18.3105 15.7676C18.9785 15.5742 19.3828 15.249 19.3916 14.7393C19.3784 14.2383 19.2742 13.7439 19.084 13.2803C19.1191 13.1924 18.9609 12.9551 18.9961 12.8672C19.1104 13.0606 19.2949 13.043 19.3301 12.8672C19.2158 12.4981 19.04 12.1377 18.7588 11.9883C18.5215 11.7774 18.1699 11.8125 18.0557 12.252C17.9854 12.7529 18.2314 13.3418 18.5918 13.834C18.6709 14.0186 18.7764 14.335 18.7324 14.6162C18.5391 14.7305 18.3457 14.6777 18.1787 14.5108C18.1787 14.5108 17.6514 14.1152 17.6514 14.0186C17.792 13.1221 17.6777 13.0166 17.5986 12.7617C17.5459 12.419 17.3789 12.3047 17.2471 12.0762C17.1152 11.9356 16.9395 11.9356 16.8516 12.0762C16.6143 12.4805 16.7285 13.3506 16.8955 13.7461C17.0186 14.1065 17.2031 14.335 17.1152 14.335C17.0449 14.5371 16.8955 14.4844 16.7812 14.2471C16.6526 13.7477 16.5906 13.2335 16.5967 12.7178C16.5527 12.3135 16.5 11.4522 16.2275 11.2236C16.0693 11.0127 15.832 11.1182 15.7441 11.3115C15.7209 11.7042 15.7298 12.0981 15.7705 12.4893C15.9463 13.1397 16.0078 13.7197 16.0957 14.3789C16.1221 15.2666 15.5859 14.7656 15.6123 14.3174C15.7276 13.7539 15.7186 13.172 15.5859 12.6123C15.498 12.3838 15.4014 12.3311 15.1816 12.3662C15.0146 12.3662 14.584 12.832 14.4609 13.6231C14.4609 13.6231 14.3555 14.0274 14.3115 14.3877C14.25 14.792 13.9863 15.0908 13.793 14.335C13.6348 13.7813 13.5293 12.4365 13.2656 12.7529H13.2568Z" fill="white"/>
<path fill-rule="evenodd" clip-rule="evenodd" d="M16.2012 17.0684L13.3887 18.4219C13.415 17.7803 14.7158 16.6289 15.6123 16.6201C16.1836 16.6289 16.043 16.8398 16.1924 17.0684H16.2012Z" fill="white"/>
<path fill-rule="evenodd" clip-rule="evenodd" d="M15.7002 17.9472C14.2236 21.7705 19.1719 22.3066 19.7256 18.1054C19.7783 17.9297 19.9893 17.7627 20.0244 18.0439C19.9102 21.8496 16.1924 22.1045 15.5596 20.9092C15.4107 20.4979 15.3363 20.0633 15.3398 19.6259C15.252 18.8789 14.8565 19.1689 14.7949 19.9072C14.7334 20.3203 14.751 20.4345 14.751 20.8301C14.9443 23.8359 19.7344 22.5439 20.5166 20.0654C20.9297 18.6943 20.4463 17.6836 20.666 17.6836C21.1406 18.1933 21.8086 17.7539 21.958 17.5781C22.0195 17.4902 22.1777 17.4287 22.2832 17.5429C22.6523 17.8066 23.3027 17.6836 23.4434 17.2177C23.5225 16.7519 23.584 16.2773 23.6016 15.7939C23.2939 15.8818 23.0742 15.9433 23.0479 16.0752L22.9863 16.4795C22.96 16.6113 22.7051 16.6113 22.6875 16.4443C22.5732 15.917 22.0986 15.8554 21.8086 16.664C21.624 16.8222 21.2725 16.8574 21.2373 16.6201C21.2813 16.0752 21.0615 16.0049 20.6221 16.2597L20.2002 13.0781C20.376 13.0781 20.5518 13.2099 20.7188 12.999C20.543 12.4277 20.1475 11.2676 19.9277 11.1797C19.8311 11.0566 19.7432 11.1357 19.6025 11.1709C19.374 11.2412 19.1631 11.4345 19.2334 11.8213C19.4971 13.4736 19.6729 14.7304 19.9453 16.3916C19.9893 16.5761 19.8311 16.831 19.6201 16.8047C19.2686 16.5674 19.1807 16.084 18.5654 16.1015C18.126 16.1015 17.6338 16.5849 17.5723 17.042C17.4932 17.4111 17.4668 17.8066 17.5723 18.123C17.8799 18.4922 18.249 18.457 18.5742 18.3779C18.8379 18.2636 19.0576 18 19.1543 18.0615C19.2158 18.1406 19.1631 19.0195 17.8975 19.6875C17.1328 20.039 16.5176 20.1093 16.1924 19.4853C15.9902 19.0898 16.21 17.6045 15.7002 17.9472V17.9472Z" fill="white"/>
<path fill-rule="evenodd" clip-rule="evenodd" d="M22.002 14.0625C22.292 13.957 23.6982 12.3398 23.6982 12.3398L23.4873 12.164C23.4082 12.1025 23.417 12.0322 23.4873 11.9707C23.8389 11.7597 23.7246 11.3203 23.5488 11.1093C23.4295 11.0512 23.2982 11.0217 23.1655 11.0232C23.0327 11.0247 22.9021 11.0572 22.7842 11.1181C22.5381 11.3554 22.4853 11.7334 22.6787 11.9619C22.8633 12.0498 23.0478 12.2431 22.9248 12.3486C22.3447 12.9638 20.7715 14.0273 20.9561 14.0625C20.9912 14.1152 21.9668 14.1152 21.9932 14.0625H22.002ZM13.4766 19.7753C12.9492 20.6191 12.9053 21.8759 13.1953 22.2539C13.3535 22.4296 13.6084 22.5087 13.793 22.4472C14.1269 22.3066 14.2764 21.6298 14.1973 21.3925C14.083 21.2167 13.9951 21.1904 13.8809 21.331C13.6523 21.8056 13.5557 21.4804 13.5293 21.2167C13.5041 20.7702 13.5277 20.3222 13.5996 19.8808C13.6611 19.5117 13.5996 19.6171 13.4766 19.7753V19.7753ZM36.0732 18.4306C35.5635 17.3232 34.8516 16.2333 34.6318 15.8203C33.9469 14.7375 33.2198 13.682 32.4521 12.6562C31.9072 12.0058 33.3486 12.9287 32.2764 11.6279L31.4941 10.9687C31.3184 10.8457 30.8965 10.6171 30.8262 10.9863C30.791 11.3203 30.8086 11.496 30.8613 11.7685C30.9053 11.9443 31.1689 12.2519 31.3008 12.4277C33.1026 14.8143 34.6853 17.3588 36.0293 20.0302C36.2578 19.916 36.2051 18.6152 36.0732 18.4306V18.4306Z" fill="white"/>
<path fill-rule="evenodd" clip-rule="evenodd" d="M33.832 22.1045C33.7266 22.2187 34.0781 22.7021 34.5352 22.7021C35.291 22.6142 35.959 22.1924 36.5742 21.0674C36.8242 20.6931 36.9837 20.2658 37.04 19.8193C37.1145 17.6857 36.9434 15.5506 36.5303 13.456C36.5039 13.2803 36.5303 13.0693 36.5479 13.0166C36.6006 12.9551 36.7676 13.0166 36.8555 12.8672C36.9873 12.7353 36.5039 11.6367 36.2402 11.2236C36.1523 11.0303 36.1084 10.9072 35.9502 11.2412C35.7593 11.6097 35.6684 12.0219 35.6865 12.4365C36.0469 14.9414 36.1611 17.1299 36.3897 19.6347C36.416 19.8808 36.3809 20.2324 36.2139 20.373C35.5507 21.1114 34.739 21.7014 33.832 22.1045V22.1045ZM44.0713 22.0957C43.5264 22.4121 43.5264 22.7724 43.9658 22.7812C44.7217 22.6933 45.6182 22.6318 46.2334 21.7002C46.4507 21.2614 46.5763 20.7829 46.6025 20.2939C46.7132 18.1932 46.5745 16.0867 46.1895 14.0185C46.1719 13.8428 46.0928 13.4297 46.1191 13.3769C46.1719 13.2539 46.418 13.3857 46.5059 13.2451C46.6289 13.1133 45.8643 12.1289 45.5918 11.707C45.5039 11.5137 45.4688 11.3906 45.3018 11.7246C45.1247 12.0965 45.0694 12.5147 45.1436 12.9199C45.5479 15.6445 45.8467 17.6836 45.9082 20.0918C45.8731 20.3203 45.8643 20.4433 45.7588 20.7334C45.5215 21.0322 45.2578 21.4189 45.0117 21.6035C44.7656 21.7793 44.2383 21.9551 44.0713 22.0957V22.0957Z" fill="white"/>
<path fill-rule="evenodd" clip-rule="evenodd" d="M44.4756 19.6611C44.4756 19.0195 44.4844 18.4746 44.4668 17.9912C44.4611 17.5818 44.3714 17.178 44.2031 16.8047C44.0449 16.4443 44.1416 16.1543 44.0625 15.7676C43.9922 15.3809 44.0098 14.8008 43.9043 14.3526C43.8691 14.1768 43.7813 13.6055 43.8076 13.544C43.8516 13.4209 44.0186 13.544 44.1064 13.4033C44.2295 13.2715 43.667 11.8213 43.3857 11.4082C43.2891 11.2236 43.0957 11.2852 42.876 11.584C42.6563 11.7861 42.7354 12.2344 42.8232 12.6651C43.3594 15.5039 43.7725 18.0791 43.6846 20.7774C43.6494 21.0059 44.4756 20.0918 44.4756 19.6611V19.6611ZM40.459 16.1455C40.1162 16.1279 39.4043 15.4688 39.1934 15.0908C39.1588 14.9985 39.1441 14.8999 39.1502 14.8014C39.1562 14.703 39.1829 14.607 39.2285 14.5195C39.3604 14.4317 39.5537 14.3438 39.7031 14.4317C39.7031 14.4317 39.8525 14.6426 39.8262 14.669C40.002 14.7568 40.0898 14.7129 40.1074 14.6338C40.1162 14.502 40.0547 14.4229 40.0547 14.2822C40.1338 13.8779 40.582 13.8164 40.7578 14.0713C40.8809 14.2295 40.9336 14.5547 40.9424 14.7744C40.9424 14.8887 40.7666 14.7568 40.6523 14.7744C40.5557 14.8096 40.5293 14.9326 40.5205 15.0381C40.5029 15.3281 40.4678 15.794 40.459 16.1367V16.1455ZM34.1484 20.3643C34.2363 19.5029 34.1133 17.9649 34.1045 17.4551C34.0575 16.1441 33.949 14.836 33.7793 13.5352C33.6738 12.7969 34.0781 13.6143 34.0254 13.1836C33.8936 12.4541 33.4893 11.9531 33.0059 11.294C32.8564 11.0742 32.8564 11.0303 32.6191 11.3467C32.3555 11.9356 32.584 12.3486 32.6543 12.8145C32.9971 14.3262 33.1992 15.7149 33.2959 17.0947C33.3971 18.5282 33.4088 19.9665 33.3311 21.4014C33.5947 21.4102 33.999 20.9883 34.1484 20.3643Z" fill="white"/>
<path fill-rule="evenodd" clip-rule="evenodd" d="M45.6445 18.9843C45.0381 17.9648 44.1328 16.875 43.8867 16.4619C43.0717 15.3238 42.2157 14.2156 41.3203 13.1396C40.5732 12.3486 41.6719 13.0078 41.1797 12.3925C40.7666 11.9443 40.6523 11.7949 40.292 11.5224C40.1162 11.4082 40.0107 11.1884 39.9404 11.5664C39.9124 11.8937 39.9065 12.2226 39.9228 12.5507C39.9228 12.7002 40.0811 12.9902 40.2217 13.166C42.041 15.4072 44.0361 17.6924 45.6357 20.5664C45.8643 20.4521 45.7852 19.1601 45.6357 18.9843H45.6445Z" fill="white"/>
<path fill-rule="evenodd" clip-rule="evenodd" d="M18.2754 17.1123C18.2314 17.1914 18.1348 17.288 18.1699 17.3847C18.2314 17.4726 18.293 17.499 18.3984 17.499C18.4951 17.499 18.6357 17.5253 18.6621 17.4726C18.7148 17.4111 18.75 17.2968 18.7148 17.1826C18.6094 16.9189 18.3281 17.0244 18.2754 17.1123V17.1123Z" fill="#1BA400"/>
<path fill-rule="evenodd" clip-rule="evenodd" d="M38.6309 31.8604C39.4395 31.8955 39.9668 31.9043 40.6787 31.9834L41.5225 31.8955C42.4541 31.8076 42.4893 33.2227 42.4893 33.2227C42.4893 34.0576 42.1641 34.1016 41.751 34.1895C41.5137 34.2246 41.3994 34.0488 41.2676 33.8731C41.0688 33.9368 40.8571 33.9489 40.6523 33.9082C40.3096 33.8906 39.9756 33.8906 39.6416 33.8643C39.29 33.8379 39.0967 33.9082 38.7363 33.8731C38.666 33.9873 38.5605 34.1455 38.3496 34.1016C38.1738 34.0752 37.9541 33.5742 38.0156 33.1787C38.1475 32.8975 38.1035 32.9941 38.1035 32.8711C34.7988 32.7832 31.4678 32.6338 28.2334 32.6777C25.7021 32.6865 23.2061 32.792 20.7012 32.8975C19.3652 32.8799 18.3457 32.669 17.6426 31.6406C17.7129 31.6406 21.0527 31.8252 22.0283 31.7637C23.8301 31.7461 25.4824 31.5967 27.3193 31.544C30.9404 31.6055 34.5352 31.6055 38.1562 31.8604C37.8047 31.6231 37.8047 31.0693 38.332 30.9287C38.376 30.8936 38.4023 31.2012 38.4814 31.1924C38.9121 31.166 38.7187 31.7461 38.6309 31.8604V31.8604ZM24.0762 11.8916C23.5313 13.4561 24.3926 15.1787 24.9902 15.0117C25.4297 15.1875 25.6934 14.3613 25.8691 13.4648C26.001 13.21 26.0889 13.1836 26.1504 13.3154C26.1328 14.5107 26.2383 14.7832 26.5459 15.1436C27.2314 15.6709 27.8027 15.2139 27.8467 15.1699L28.374 14.6338C28.4971 14.502 28.6553 14.502 28.8223 14.6074C28.9893 14.7568 28.9629 15.0117 29.3145 15.1875C29.6133 15.3106 30.2373 15.2227 30.3867 14.9678C30.5801 14.625 30.6328 14.5107 30.7207 14.3877C30.8613 14.2031 31.0986 14.2822 31.0986 14.3438C31.0723 14.4492 30.9316 14.5459 31.0283 14.7393C31.2041 14.8623 31.2393 14.7832 31.3359 14.7568C31.6875 14.5811 31.9512 13.8252 31.9512 13.8252C31.96 13.544 31.8018 13.5615 31.6963 13.6318L31.4238 13.8164C31.248 13.8428 30.9229 13.957 30.7559 13.7022C30.5889 13.4033 30.5889 12.9727 30.4658 12.665C30.4658 12.6475 30.2373 12.1816 30.4482 12.1553C30.5537 12.1729 30.7734 12.2344 30.8086 12.0498C30.9141 11.8652 30.5801 11.3467 30.3428 11.083C30.1406 10.8633 29.8594 10.8369 29.5869 11.0654C29.3936 11.2412 29.4199 11.4346 29.3848 11.6191C29.3514 11.7514 29.35 11.8897 29.3805 12.0226C29.4111 12.1556 29.4728 12.2794 29.5605 12.3838C29.7539 12.7529 30.0967 13.2363 29.9824 13.9219C29.9824 13.9219 29.7803 14.2383 29.4287 14.1943C29.2793 14.168 29.042 14.1065 28.9189 13.1572C28.8223 12.4541 28.9365 11.4522 28.6377 10.9863C28.5234 10.6963 28.4443 10.4238 28.1807 10.9072C28.1104 11.1006 27.8027 11.3906 28.0225 11.9795C28.2304 12.5101 28.2911 13.0871 28.1982 13.6494C28.0664 13.8428 28.04 13.9043 27.873 14.0889C27.6445 14.3525 27.3896 14.2822 27.1963 14.1856C27.0205 14.0713 26.8799 14.0098 26.792 13.6143C26.8096 12.999 26.8447 11.9883 26.7305 11.7773C26.5635 11.4434 26.291 11.5664 26.1768 11.6719C25.6539 12.2527 25.3038 12.9681 25.166 13.7373C25.0078 14.2471 24.8408 14.0977 24.7266 13.8955C24.4453 13.6318 24.4189 11.5488 24.0762 11.8916V11.8916Z" fill="white"/>
<path fill-rule="evenodd" clip-rule="evenodd" d="M25.7285 15.3017C25.9834 15.1259 25.8691 15.0029 26.2383 15.372C26.7147 16.2151 26.9914 17.1562 27.0469 18.123C27.0293 18.3515 27.1875 18.4922 27.2666 18.4394C27.3018 17.9121 28.5937 17.1738 29.7803 17.0683C29.956 17.0244 29.8682 16.6816 29.8945 16.5058C29.8242 15.8466 30.2637 15.249 30.8789 15.205C31.7227 15.3281 32.0039 15.7763 32.0215 16.4531C31.9248 17.7714 30.5537 17.9912 29.7891 18.0966C29.6748 18.1406 29.6221 18.1933 29.7891 18.2548L33.0059 18.2724L33.1728 18.3603C33.1904 18.4482 33.1201 18.3779 32.9971 18.5888C32.8201 18.8997 32.7094 19.2438 32.6719 19.5996C31.7139 19.916 30.7207 20.039 29.7187 20.1709C29.3672 20.3466 29.1914 20.5839 29.2617 20.8476C29.3848 21.1377 30.1582 21.4365 30.1582 21.4453C30.3076 21.5332 30.4746 21.7529 30.1143 22.2011C28.5498 22.1308 27.3281 21.4629 26.9062 20.5224C26.7832 20.4257 26.6426 20.5224 26.5547 20.6455C25.9394 21.4365 25.3418 22.1396 24.2959 22.5263C23.6807 22.6845 23.0391 22.4297 22.7402 22.0254C22.5381 21.7881 22.5469 21.5332 22.4766 21.4804C22.1338 21.6298 19.2334 22.8603 19.6025 22.2802C20.3057 21.5332 21.5361 20.9707 22.6084 20.2324C22.6875 19.9775 22.8281 19.1338 23.25 18.8613C23.2764 18.8613 23.1885 19.3535 23.1973 19.5644C23.1973 19.7402 23.1797 19.8017 23.2148 19.7578C23.2939 19.7138 24.5947 18.6855 24.709 18.3691C24.832 18.1933 24.7353 17.7363 24.7353 17.7187C24.4893 17.0859 24.1465 17.0332 24.0234 16.7168C23.9092 16.3037 23.9619 15.8291 24.1992 15.6884C24.4102 15.5039 24.6562 15.5214 24.8935 15.7324C25.1572 15.9697 25.3857 16.4355 25.4561 16.7783C25.4121 16.9101 25.1045 16.6904 25.0166 16.7519C25.1858 16.9463 25.2983 17.1835 25.3418 17.4375C25.5176 18.1582 25.4648 18.4394 25.2891 18.9052C24.709 20.1269 23.9707 20.4873 23.3203 20.9443C23.3027 20.9443 23.2939 21.2519 23.5312 21.4189C23.6191 21.5068 23.9619 21.5507 24.3574 21.4189C25.2024 20.9497 25.8856 20.2358 26.3174 19.3711C26.3921 18.7131 26.32 18.0467 26.1064 17.4199C25.8516 16.831 25.5527 15.9961 25.5527 15.9785C25.5439 15.6093 25.5703 15.4863 25.7285 15.3017V15.3017ZM17.3086 11.9091C17.6777 12.0849 18.3809 12.0058 18.3457 11.4082L18.3281 11.1357C18.2578 10.9599 18.0469 11.0039 18.0029 11.1797C17.9853 11.2412 18.0293 11.3379 17.9766 11.3642C17.9414 11.3994 17.8271 11.3818 17.8271 11.2148C17.8271 11.1621 17.792 11.1093 17.7656 11.0742C17.748 11.0566 17.7305 11.0566 17.6865 11.0566C17.6338 11.0566 17.6338 11.0654 17.6074 11.1093C17.5986 11.1533 17.5811 11.1972 17.5811 11.25C17.5811 11.3115 17.5459 11.3291 17.5107 11.3379C17.458 11.3379 17.4668 11.3379 17.4228 11.3203C17.4053 11.2939 17.3789 11.2851 17.3789 11.2324L17.3525 11.0918C17.335 11.0654 17.2998 11.0478 17.2646 11.039C17.0625 11.039 17.0449 11.2763 17.0625 11.3642C17.0449 11.3818 17.0361 11.7949 17.3086 11.9091V11.9091Z" fill="white"/>
<path fill-rule="evenodd" clip-rule="evenodd" d="M28.1631 16.4971C28.5322 16.6729 29.4199 16.5762 29.2002 16.0049L29.1826 15.7237C29.1035 15.5479 28.9014 15.5918 28.8574 15.7764C28.8398 15.8291 28.8838 15.9258 28.8223 15.9522C28.7959 15.9874 28.6729 15.9698 28.6816 15.8116C28.6816 15.7588 28.6465 15.6973 28.6201 15.6622C28.5938 15.6534 28.585 15.6446 28.5322 15.6446C28.4883 15.6446 28.4883 15.6622 28.4619 15.7061C28.4443 15.75 28.4355 15.794 28.4355 15.8467C28.4268 15.8995 28.4004 15.917 28.3564 15.9346C28.3125 15.9346 28.3213 15.9346 28.2861 15.9083C28.2598 15.8819 28.2334 15.8731 28.2334 15.8291L28.207 15.6885C28.1895 15.6622 28.1543 15.6446 28.1191 15.6358C27.917 15.6358 27.8994 15.8643 27.9082 15.9522C27.8994 15.9698 27.8906 16.3916 28.1719 16.4971H28.1631ZM34.4912 14.5987C34.8604 14.7745 35.5547 14.6954 35.5283 14.1065L35.5107 13.8252C35.4316 13.6495 35.2295 13.6934 35.1855 13.8692C35.168 13.9307 35.2119 14.0274 35.1504 14.0625C35.124 14.0889 35.001 14.0713 35.0098 13.9043C35.0098 13.8516 34.9746 13.7989 34.9482 13.7637C34.9219 13.7461 34.9131 13.7461 34.8604 13.7461C34.8164 13.7461 34.8164 13.7637 34.79 13.8077L34.7637 13.9395C34.7549 14.001 34.7285 14.0274 34.6846 14.0274C34.6406 14.0274 34.6494 14.0274 34.6143 14.0098C34.5879 13.9834 34.5615 13.9747 34.5615 13.9307C34.5615 13.8868 34.5527 13.8165 34.5352 13.7813C34.5176 13.7549 34.4824 13.7461 34.4473 13.7374C34.2451 13.7374 34.2275 13.9659 34.2363 14.0538C34.2275 14.0713 34.2188 14.4844 34.5 14.5987H34.4912ZM37.7695 19.3711C37.1279 20.1006 37.4092 21.3047 37.5586 21.5684C37.7695 21.9903 37.9365 22.2627 38.3496 22.4737C38.7275 22.7461 39.0264 22.5791 39.1846 22.3858C39.5625 21.9903 39.5713 20.9795 39.7471 20.7862C39.8701 20.417 40.1865 20.4786 40.3359 20.6456C40.4757 20.844 40.6631 21.0042 40.8809 21.1114C41.2324 21.419 41.6543 21.4805 42.0762 21.1993C42.3574 21.0323 42.542 20.8301 42.709 20.417C42.8848 19.9249 42.7969 17.6397 42.7529 16.2862L42.3838 14.3965C42.3838 14.379 42.3398 13.5 42.2959 13.2979C42.2959 13.21 42.2695 13.1836 42.3574 13.1924C42.4541 13.2803 42.4629 13.2803 42.5332 13.3067C42.6211 13.3243 42.709 13.1573 42.6475 13.0166L41.7686 11.3819C41.6982 11.3116 41.6016 11.2413 41.4873 11.3995C41.4199 11.4605 41.3662 11.5351 41.3299 11.6185C41.2935 11.7018 41.2753 11.7919 41.2764 11.8829C41.3027 12.2696 41.3643 12.6651 41.3906 13.0518L41.7422 15.0381C41.8564 16.4444 41.8828 17.6045 41.9971 19.0196C41.9795 19.6172 41.7949 20.1358 41.6191 20.2149C41.6191 20.2149 41.3555 20.3643 41.1797 20.1973C41.0479 20.1446 40.5293 19.3272 40.5293 19.3272C40.2656 19.0899 40.0898 19.1514 39.9053 19.3272C39.3779 19.837 39.1494 20.7686 38.7891 21.419C38.7012 21.5684 38.4375 21.6827 38.1562 21.4102C37.4355 20.417 37.8574 19.0108 37.7695 19.3711V19.3711ZM34.6582 11.1358C34.9922 11.2676 35.2207 11.9444 35.1504 12.2784C35.0801 12.6739 34.9043 13.1133 34.7812 13.0606C34.6406 13.0079 34.8691 12.6563 34.7373 12.2872C34.667 12.0411 34.21 11.6016 34.2627 11.4786C34.1748 11.2061 34.4561 11.0831 34.6582 11.127V11.1358Z" fill="white"/>
<path fill-rule="evenodd" clip-rule="evenodd" d="M38.8418 19.7754C38.9033 18.9668 38.7891 18.4746 38.7715 18C38.7539 17.5254 38.2354 13.9043 38.1299 13.5527C37.998 12.8672 38.6309 13.4648 38.5605 13.0605C38.3408 12.5683 37.8047 11.8388 37.6377 11.4082C37.5322 11.2324 37.5762 11.0566 37.3477 11.3642C37.1509 11.9036 37.0817 12.4812 37.1455 13.0517C37.6904 15.8906 38.2441 18.2461 38.1562 20.9443C38.4199 20.9443 38.71 20.3554 38.8418 19.7754V19.7754ZM44.502 12.2783C44.8096 12.4277 44.9854 13.2714 44.9502 13.5088C44.8887 13.9482 44.7305 14.4228 44.6162 14.3613C44.4844 14.3086 44.6426 13.7109 44.5811 13.5263C44.5107 13.2627 44.0977 12.788 44.1416 12.6474C44.0537 12.3486 44.3174 12.2255 44.502 12.2783V12.2783ZM22.0283 18.2461C22.3184 18.3603 22.4941 18.9755 22.4678 19.1513C22.3975 19.4765 22.248 19.8281 22.1338 19.7754C22.0195 19.7402 22.1602 19.3007 22.1074 19.1601C22.0811 18.8349 21.6768 18.6591 21.6855 18.5185C21.6152 18.2548 21.8613 18.2109 22.0371 18.2461H22.0283Z" fill="white"/>
<path fill-rule="evenodd" clip-rule="evenodd" d="M29.0244 19.1777C29.3936 19.1953 29.5781 19.4941 29.2354 19.6172C28.8838 19.7314 28.5586 19.8281 28.5498 20.3203C28.6816 21.0234 28.374 20.7773 28.1982 20.6895C27.9873 20.5312 27.3896 20.1621 27.3018 19.3711C27.293 19.1865 27.4424 19.0195 27.6797 19.0195C28.0313 19.1162 28.5586 19.125 29.0244 19.1777V19.1777Z" fill="#1B9D00"/>
<path fill-rule="evenodd" clip-rule="evenodd" d="M14.3027 10.9335C14.7246 11.0566 14.751 11.6894 14.7246 11.874C14.6631 12.208 14.5137 12.5683 14.4082 12.5244C14.2852 12.4804 14.4082 12.0234 14.3467 11.8828C14.2852 11.6894 13.9248 11.3203 13.96 11.2148C13.8809 10.9951 14.1357 10.8896 14.3027 10.9335V10.9335ZM22.7314 13.8867C22.3975 14.0624 22.2744 14.5898 22.4766 14.9062C22.6699 15.1699 22.9687 15.0732 23.0039 15.0732C23.3291 15.1083 23.5225 14.4667 23.5225 14.4667C23.5225 14.4667 23.5312 14.291 23.1533 14.6337C22.9863 14.6601 22.9775 14.5986 22.9336 14.5107C22.8934 14.3434 22.9088 14.1675 22.9775 14.0097C23.0391 13.8515 22.916 13.7812 22.7314 13.8867ZM25.1924 10.6874C25.0166 10.8017 24.6914 11.1445 24.6826 11.5312C24.6738 11.7509 24.6299 11.7509 24.7705 11.8828C24.8848 12.041 24.9814 12.0322 25.1924 11.9179C25.2449 11.8848 25.29 11.8412 25.3248 11.7897C25.3596 11.7383 25.3834 11.6802 25.3945 11.6191C25.4473 11.373 25.1309 11.7421 25.0957 11.4609C25.0254 11.1972 25.2275 11.0917 25.4209 10.8456C25.4209 10.6699 25.4209 10.5556 25.1836 10.6874H25.1924ZM27.1611 11.039C27.0836 11.359 27.0366 11.6857 27.0205 12.0146C26.9678 12.2607 27.2842 12.3662 27.416 12.0497C27.627 11.4785 27.627 11.2324 27.6445 10.9951C27.583 10.6171 27.3281 10.6259 27.1611 11.039ZM39.6416 17.3935C39.6768 17.3496 41.3994 16.1279 41.3994 16.1279C41.5752 16.0663 41.5312 16.7607 41.4521 16.7519C40.9179 17.2668 40.3034 17.6913 39.6328 18.0087C39.5449 18.0703 39.4658 17.5429 39.6328 17.3935H39.6416ZM41.1973 17.3759C41.5049 17.5253 41.6279 18.413 41.5928 18.6503C41.5928 19.1249 41.3027 19.4941 41.1797 19.4413C41.0566 19.3798 41.1973 18.8525 41.1357 18.6679C41.0654 18.4042 40.8105 17.9208 40.8545 17.7802C40.7666 17.4814 41.0127 17.3232 41.2061 17.3759H41.1973ZM31.002 21.1904C31.1445 21.024 31.3103 20.8789 31.4941 20.7597C31.6699 20.6718 31.8281 20.83 31.8193 20.8212C31.8457 20.997 31.7139 21.1464 31.7578 21.3749C31.793 21.4628 31.8193 21.5683 31.9863 21.5331C32.2588 21.3134 32.5137 21.2958 32.7773 21.2871C32.9971 21.2958 33.0059 21.6562 32.8652 21.6562C32.3643 21.7617 32.1445 21.9023 31.7842 22.0341C31.6084 22.1396 31.4678 22.0078 31.4678 21.999C31.4678 21.9902 31.3711 21.9023 31.4326 21.6738C31.4502 21.498 31.3799 21.3925 31.2217 21.4101C31.1162 21.4804 31.0107 21.5156 30.958 21.3837C30.9316 21.2958 30.9228 21.2431 31.002 21.1904V21.1904ZM43.0078 21.665C43.0781 21.7529 43.1309 21.8408 42.999 21.999L42.6738 22.2802C42.6211 22.3681 42.5859 22.5263 42.7617 22.5703C43.0781 22.6581 43.8164 22.1747 43.8164 22.166C43.9394 22.0781 43.9043 21.9023 43.8867 21.9023C43.8164 21.8232 43.6582 21.8759 43.5527 21.8583C43.5 21.8583 43.333 21.8408 43.4121 21.6826C43.4711 21.6049 43.5185 21.519 43.5527 21.4277C43.5967 21.3222 43.5527 21.2519 43.3769 21.1904C43.1924 21.1552 43.1133 21.1728 42.9111 21.1904C42.8057 21.208 42.7705 21.2607 42.7441 21.3925C42.7529 21.5947 42.876 21.5859 43.0078 21.6562V21.665Z" fill="white"/>
<path fill-rule="evenodd" clip-rule="evenodd" d="M31.0635 16.6728C31.0195 16.7607 30.8613 16.7607 30.7119 16.6728C30.5625 16.5849 30.4746 16.4443 30.5273 16.3652C30.5801 16.2861 30.7295 16.2861 30.8789 16.3652C31.0283 16.4443 31.1074 16.5937 31.0635 16.6728ZM23.2412 11.9619C23.1533 11.9882 23.0303 11.9091 22.9775 11.7861C22.9248 11.663 22.9512 11.5576 23.0391 11.5312C23.127 11.5048 23.2412 11.5927 23.3027 11.707C23.3643 11.8212 23.3291 11.9443 23.2324 11.9707L23.2412 11.9619Z" fill="#259F00"/>
<path fill-rule="evenodd" clip-rule="evenodd" d="M38.7188 32.959C39.5449 32.9941 40.3184 32.959 41.1357 33.0029C41.2852 33.1348 41.1797 33.4424 41.083 33.4248L40.3975 33.3984C40.3887 33.1348 39.7207 33.1787 39.7383 33.4072C39.3779 33.4512 39.0527 33.3984 38.6836 33.3809C38.5781 33.249 38.5957 33.0117 38.7188 32.959V32.959Z" fill="#209000"/>
</g>
<defs>
<clipPath id="clip0_4_5670">
<rect width="60" height="45" fill="white"/>
</clipPath>
</defs>
</svg>
