<svg width="60" height="45" viewBox="0 0 60 45" fill="none" xmlns="http://www.w3.org/2000/svg">
<g clip-path="url(#clip0_4_5610)">
<path fill-rule="evenodd" clip-rule="evenodd" d="M0 44.5781L86.7832 0H0V44.5781Z" fill="#0000D6"/>
<path fill-rule="evenodd" clip-rule="evenodd" d="M90 0L2.39062 45H90V0Z" fill="#006000"/>
<path fill-rule="evenodd" clip-rule="evenodd" d="M90 0H85.1748L0 42.6621V45H4.8252L90 2.42578V0Z" fill="#FFCC00"/>
<path fill-rule="evenodd" clip-rule="evenodd" d="M6.27539 0.799805L7.3125 3.83203H10.6963L7.96289 5.68652L9.00879 8.70996L6.27539 6.85547L3.54199 8.71875L4.58789 5.69531L1.85449 3.82324H5.22949L6.27539 0.799805ZM23.0713 0.799805L24.1172 3.83203H27.501L24.7588 5.69531L25.8135 8.71875L23.0625 6.85547L20.3379 8.72754L21.3838 5.7041L18.6416 3.83203H22.0254L23.0713 0.799805ZM23.0713 13.5L24.1172 16.5322H27.501L24.7588 18.3955L25.8135 21.4189L23.0713 19.5469L20.3467 21.4189L21.3926 18.3955L18.6504 16.5234H22.0342L23.0713 13.5ZM14.7217 7.22461L15.7676 10.248H19.1426L16.418 12.1201L17.4551 15.1436L14.7305 13.2715L11.9883 15.1436L13.043 12.1201L10.3008 10.248H13.6846L14.7217 7.22461ZM6.27539 13.5L7.3125 16.5322H10.6963L7.96289 18.3955L9.00879 21.4189L6.27539 19.5469L3.54199 21.4189L4.59668 18.3955L1.8457 16.5234H5.2207L6.27539 13.5Z" fill="white"/>
</g>
<defs>
<clipPath id="clip0_4_5610">
<rect width="60" height="45" fill="white"/>
</clipPath>
</defs>
</svg>
