<svg width="60" height="45" viewBox="0 0 60 45" fill="none" xmlns="http://www.w3.org/2000/svg">
<g clip-path="url(#clip0_4_5548)">
<path d="M0 0H60V45H0V0Z" fill="#FFB700"/>
<path d="M2.50311 22.5L10.7531 2.50317H19.0031V42.4969H10.7531L2.50311 22.5Z" fill="#FF5B00"/>
<path d="M2.50311 2.50317H10.7531V42.4969H2.50311V2.50317Z" fill="#005641"/>
<path d="M21.4969 2.50317H57.75V42.4969H21.4969V2.50317Z" fill="#8D2029"/>
<path d="M54.3094 38.3063C54.3094 38.3063 54.6469 38.9906 55.0219 39.2813C55.5844 39.6938 56.7094 39.6563 57.2063 40.1531C57.7781 40.725 57.1594 41.4844 57.1594 41.5594L57.1969 41.9531C57.1969 41.9531 56.8031 41.9531 56.6344 41.9813C56.3906 42.0188 56.2969 42.225 55.8281 42.1969C54.675 42.1219 54.7219 41.0719 54.6563 40.1813C54.6 39.8438 54.4688 39.3938 54.3844 39.0563C54.3188 38.775 54.3094 38.3063 54.3094 38.3063Z" fill="#FFB700"/>
<path fill-rule="evenodd" clip-rule="evenodd" d="M54.3094 38.3063C54.2578 38.3073 54.2578 38.3073 54.2578 38.3073L54.2578 38.3088L54.2579 38.3129C54.258 38.3165 54.2582 38.3217 54.2584 38.3285C54.2587 38.342 54.2594 38.3616 54.2603 38.386C54.2623 38.4347 54.2655 38.5026 54.2708 38.5794C54.2814 38.7322 54.3003 38.9231 54.3341 39.068L54.3343 39.0688C54.3579 39.1632 54.3849 39.2655 54.4129 39.3713C54.4856 39.6468 54.5645 39.9457 54.605 40.1875C54.6106 40.2639 54.6154 40.342 54.6202 40.4209C54.6432 40.7955 54.6674 41.1895 54.786 41.5127C54.8586 41.7108 54.9678 41.886 55.1362 42.0164C55.3047 42.1468 55.5285 42.2291 55.8248 42.2484L55.825 42.2484C56.0688 42.263 56.218 42.2164 56.3375 42.1604C56.3668 42.1467 56.394 42.1325 56.4197 42.1191C56.4217 42.118 56.4238 42.1169 56.4259 42.1158C56.4495 42.1035 56.4715 42.0919 56.4938 42.0813C56.5416 42.0583 56.5881 42.0406 56.6422 42.0323L56.6428 42.0322C56.7232 42.0188 56.8605 42.0118 56.9804 42.0082C57.0398 42.0065 57.0939 42.0056 57.1333 42.0052C57.1529 42.005 57.1689 42.0048 57.1799 42.0048L57.1925 42.0047L57.1966 42.0047L57.2536 42.0047L57.2115 41.5627C57.2119 41.5616 57.2125 41.5603 57.2132 41.5586C57.2168 41.5507 57.2223 41.5399 57.2301 41.5256C57.2367 41.5135 57.2444 41.4998 57.2531 41.4843C57.2546 41.4816 57.2561 41.4788 57.2577 41.476C57.2682 41.4571 57.28 41.436 57.2925 41.413C57.3422 41.3211 57.4035 41.1979 57.4465 41.0578C57.5329 40.7769 57.5472 40.4212 57.2427 40.1167C57.1116 39.9856 56.9409 39.8915 56.7534 39.8174C56.5658 39.7432 56.3581 39.6877 56.1513 39.6356C56.1185 39.6273 56.0858 39.6192 56.0531 39.611C55.8786 39.5674 55.7067 39.5245 55.5465 39.4726C55.3566 39.4112 55.187 39.3383 55.0529 39.2401C54.8731 39.1006 54.6992 38.8636 54.5686 38.6572C54.5037 38.5547 54.4503 38.461 54.4132 38.3931C54.3947 38.3591 54.3802 38.3316 54.3704 38.3126C54.3655 38.3031 54.3618 38.2958 54.3593 38.2908L54.3565 38.2853L54.3558 38.2839L54.3556 38.2836L54.2578 38.3073L54.3094 38.3063ZM54.3708 38.5286C54.3717 38.5427 54.3727 38.5573 54.3737 38.5723C54.3842 38.724 54.4027 38.9079 54.4345 39.0442C54.4573 39.1353 54.4837 39.2354 54.5112 39.3398C54.5846 39.6177 54.6659 39.9256 54.7071 40.1728L54.7075 40.1752L54.7077 40.1775C54.7136 40.258 54.7186 40.3392 54.7236 40.4204C54.7467 40.7947 54.7699 41.1696 54.8828 41.4772C54.9507 41.6623 55.0502 41.8194 55.1993 41.9348C55.3483 42.0501 55.5511 42.1272 55.8313 42.1455C56.0563 42.1589 56.1883 42.1165 56.2937 42.067C56.3207 42.0544 56.3462 42.0412 56.3718 42.0277L56.3782 42.0244C56.4015 42.0122 56.4252 41.9998 56.4492 41.9883C56.502 41.9629 56.5586 41.9408 56.6262 41.9304C56.7146 41.9157 56.8584 41.9086 56.9774 41.9051C57.0375 41.9034 57.0924 41.9025 57.1321 41.9021C57.1349 41.902 57.1376 41.902 57.1402 41.902L57.1078 41.5619V41.5594C57.1078 41.5493 57.1102 41.5405 57.112 41.5349C57.1139 41.5287 57.1165 41.5224 57.1191 41.5165C57.1244 41.5048 57.1315 41.491 57.1395 41.4763C57.1464 41.4636 57.1545 41.4493 57.1631 41.4338C57.1646 41.4311 57.1662 41.4284 57.1677 41.4256C57.1782 41.4069 57.1897 41.3863 57.2018 41.3639C57.2502 41.2745 57.3078 41.1581 57.348 41.0275C57.4281 40.7669 57.4371 40.457 57.1698 40.1896C57.0525 40.0723 56.8962 39.9847 56.7155 39.9133C56.5348 39.8418 56.3329 39.7877 56.1261 39.7356C56.0938 39.7275 56.0614 39.7194 56.0289 39.7113C55.8545 39.6677 55.6787 39.6238 55.5147 39.5707C55.3202 39.5078 55.1385 39.4307 54.9914 39.3229L54.9908 39.3225L54.9903 39.3221C54.7953 39.1709 54.6132 38.9206 54.4814 38.7124C54.4394 38.646 54.4021 38.5832 54.3708 38.5286Z" fill="black"/>
<path d="M34.0781 31.8563L34.2937 31.7251L34.3875 31.8563C34.5094 32.0251 34.8562 32.0157 35.0812 31.8563L35.2594 31.7157L35.4094 31.8469C35.5969 32.0251 35.9531 32.0251 36.1875 31.8469C36.3469 31.7344 36.375 31.7251 36.4687 31.8188C36.5344 31.8751 36.7219 31.9313 36.8812 31.9594C37.1812 31.9969 37.1812 31.9969 37.35 31.7344C37.5 31.5188 37.5187 31.4344 37.4906 31.2188C37.4644 31.0541 37.4457 30.8883 37.4344 30.7219C37.4156 30.4782 37.425 30.4782 37.7719 30.3469C37.944 30.2941 38.1131 30.2315 38.2781 30.1594C38.4187 30.0751 38.8125 29.6157 38.8125 29.5219C38.8125 29.5032 38.6625 29.4657 38.475 29.4469C37.725 29.3532 37.6031 28.9594 38.0906 28.2282C38.8687 27.0094 39.3469 25.8376 39.3469 25.0969C39.3469 24.7594 39.375 24.6469 39.4125 24.7219C39.5906 25.0126 39.2719 26.2594 38.8031 27.1594L38.6156 27.5157L38.7937 27.4782C38.8875 27.4501 39.4875 27.1969 40.1062 26.9157C41.8125 26.1469 42.3937 25.9969 43.5 26.0438C44.4281 26.0813 44.8125 26.2594 45.4687 26.9438C45.8156 27.3188 46.1531 27.5719 46.7625 27.9563C48.0562 28.7626 48.1125 28.8376 48.1781 29.7938C48.2437 30.7594 48.2062 30.8157 47.475 30.9751C46.8469 31.1157 46.4531 31.4063 46.35 31.8188C46.2937 32.0251 46.4156 32.0344 46.725 31.8282L46.9594 31.6782L47.0625 31.8282C47.2031 32.0251 47.4844 32.0251 47.7187 31.8282L47.9062 31.6876L48.0937 31.8282C48.375 32.0626 48.75 32.0063 48.8625 31.7157C48.8812 31.6688 48.9375 31.6782 49.05 31.7813C49.2656 31.9688 49.8 32.0438 49.8562 31.8938C49.875 31.8376 49.8375 31.7063 49.7625 31.5938C49.4531 31.1251 49.35 30.9094 49.35 30.6563C49.35 30.3001 49.4437 30.1219 49.8562 29.8407C50.3437 29.4844 50.4937 29.0344 50.1187 29.0344C49.8937 29.0344 49.6594 28.8282 49.5094 28.5001C49.2094 27.8251 49.275 27.0751 49.725 25.8188C50.07 25.0797 50.2431 24.2719 50.2312 23.4563C50.2312 22.7626 50.2125 22.6501 50.0625 22.2657C49.9452 21.9984 49.8006 21.744 49.6312 21.5063L49.3687 21.1594L49.6969 20.8782C50.7094 20.0438 50.5031 18.6751 49.2844 18.1501C48.9094 17.9813 48.8156 17.9719 48.1594 17.9719C47.7844 17.9719 47.175 18.0282 46.8469 18.0938C46.4064 18.1635 45.9615 18.2011 45.5156 18.2063C44.8781 18.2063 44.7656 18.1876 44.5219 18.0563C44.2687 17.9251 44.2219 17.8594 44.175 17.5407C44.1705 17.5106 44.1587 17.4821 44.1408 17.4577C44.1228 17.4332 44.0992 17.4134 44.0719 17.4001C43.9781 17.3719 43.5844 17.7188 43.5281 17.8688C43.4906 17.9532 43.4719 17.9438 43.3875 17.8407C43.308 17.7385 43.2447 17.6247 43.2 17.5032C43.1062 17.1938 43.2281 16.9688 43.5937 16.7907L43.875 16.6594L43.7062 16.5563C43.3687 16.3407 42.7875 16.4907 42.5812 16.8376C42.5156 16.9313 42.45 17.0251 42.4312 17.0251C42.4125 17.0251 42.3 16.9313 42.1875 16.8094C41.7469 16.3782 41.8969 15.7407 42.4875 15.5532C42.7969 15.4501 43.0781 15.5251 43.1344 15.7407C43.2281 16.0501 43.4906 15.6376 43.4437 15.2532C43.4156 15.0001 43.4156 14.9907 43.5937 14.9907C43.8375 14.9907 44.3437 15.3094 44.5125 15.5532C44.7 15.8438 44.6812 16.3032 44.475 16.6407L44.3156 16.9032L44.5312 16.8657C44.8312 16.8001 45.1312 16.6126 45.2812 16.3782C45.3603 16.2289 45.4047 16.0637 45.4112 15.895C45.4177 15.7262 45.3861 15.5581 45.3187 15.4032C45.1781 15.1501 45.1969 15.1126 45.4031 15.1969C45.7406 15.3376 45.9281 15.4969 46.0594 15.7688C46.1906 16.0126 46.2 16.0688 46.1344 16.3313C46.0895 16.4911 46.0199 16.643 45.9281 16.7813C45.8156 16.9313 45.8062 16.9594 45.9 16.9594C46.0687 16.9594 46.4062 16.8001 46.5281 16.6782C46.5937 16.6032 46.6875 16.4438 46.7344 16.3032L46.8281 16.0688L46.9219 16.2563C47.0625 16.5094 47.3437 16.7438 47.6812 16.8938C48.0469 17.0438 48.1969 17.0532 48.0094 16.9126C47.8781 16.8188 47.6344 16.1157 47.7187 16.0501C48.1233 16.2766 48.4928 16.5609 48.8156 16.8938C49.35 17.3719 49.6875 17.5313 50.175 17.5313C50.8031 17.5313 51.1687 16.9876 50.8875 16.4719C50.7281 16.1719 50.3625 16.1251 50.1375 16.3782C50.0437 16.5001 50.0156 16.5938 50.0437 16.7251C50.0812 16.8751 50.0719 16.8938 49.9312 16.8938C49.7437 16.8938 49.3875 16.6594 48.75 16.1251C47.8626 15.3614 46.8426 14.7672 45.7406 14.3719C44.9941 14.1994 44.2232 14.1581 43.4625 14.2501C42.8625 14.3626 42.15 14.7094 41.7562 15.0751C41.0719 15.7313 41.0625 16.6032 41.7281 17.4001L41.9156 17.6251L41.7937 17.8313C41.7021 17.979 41.6566 18.1508 41.6633 18.3245C41.67 18.4983 41.7285 18.6661 41.8312 18.8063C41.925 18.9376 42.0187 19.0407 42.0469 19.0407C42.0656 19.0407 42.0844 18.9563 42.0937 18.8532C42.1125 18.6001 42.225 18.4313 42.4125 18.3657C42.5812 18.3001 42.6937 18.3376 43.4625 18.6469C44.2781 18.9657 45.6187 18.9844 47.0437 18.7032C47.6614 18.5605 48.3041 18.567 48.9187 18.7219C49.5937 19.0032 49.7437 19.7251 49.2562 20.2688C49.0406 20.5126 48.8437 20.6063 48.1594 20.7938C47.5635 20.9509 46.9441 20.9986 46.3312 20.9344C45.3187 20.9251 44.9531 20.9438 44.55 21.0282C44.0906 21.1219 43.8187 21.1313 42.5062 21.1032L40.9781 21.0657L41.1469 21.1969C41.2372 21.2772 41.3345 21.3493 41.4375 21.4126C41.5594 21.4782 41.55 21.4876 41.3812 21.5532C41.2875 21.5907 41.0625 21.6188 40.8844 21.6188H40.575L40.5375 21.8813C40.5122 22.005 40.5122 22.1326 40.5375 22.2563C40.575 22.3501 40.5562 22.3688 40.4625 22.3313C40.3969 22.3032 40.2187 22.2563 40.0594 22.2282C39.8986 22.1937 39.7416 22.1435 39.5906 22.0782C39.4125 21.9844 39.3937 21.9844 39.3281 22.1063C39.2719 22.2001 38.7469 22.5938 38.6719 22.5938C38.638 22.3506 38.5685 22.1137 38.4656 21.8907C38.3719 21.6938 38.2875 21.4688 38.2594 21.4032C38.2312 21.3001 38.2125 21.2907 38.1656 21.3751C38.1375 21.4219 38.1 21.5626 38.0719 21.6751C38.039 21.8269 37.9821 21.9725 37.9031 22.1063L37.7625 22.3126L37.6687 22.1344C37.575 21.9469 37.425 21.7407 37.3687 21.7407C37.35 21.7407 37.3219 21.7969 37.3031 21.8813C37.2562 22.0313 36.8906 22.4719 36.7969 22.4719C36.7687 22.4719 36.7406 22.3501 36.7406 22.1907C36.7406 22.0501 36.7125 21.9188 36.675 21.9188C36.6375 21.9188 36.6094 21.9657 36.6094 22.0126C36.6094 22.1251 36.3 22.4813 36.1875 22.4813C36.15 22.4813 36.075 22.5188 36.0281 22.5751C35.9156 22.6969 35.8219 22.6782 35.8687 22.5376C35.8819 22.4175 35.8691 22.296 35.8312 22.1813L35.7375 21.8813C35.7187 21.8344 35.6062 21.8532 35.3625 21.9282C34.9875 22.0501 34.8562 22.0219 35.0531 21.8719C35.1281 21.8157 35.2406 21.6188 35.2969 21.4407C35.3625 21.2532 35.4562 21.0938 35.5031 21.0751C35.5687 21.0563 35.5687 21.0751 35.4844 21.1876C35.4301 21.2589 35.3946 21.3427 35.3812 21.4313C35.3812 21.4782 35.3344 21.6001 35.2875 21.7032C35.2312 21.7969 35.1937 21.8907 35.2031 21.9001C35.2125 21.9094 35.3625 21.8532 35.5312 21.7782L35.8312 21.6282V21.7594C35.8312 21.8344 35.8687 22.0219 35.9156 22.1813L36 22.4626L36.2062 22.3688C36.4125 22.2751 36.6094 21.9376 36.6094 21.6657C36.6094 21.5344 36.6844 21.5532 36.7219 21.6938C36.7219 21.7313 36.7781 21.8907 36.8156 22.0407L36.9094 22.3032L37.05 22.1344C37.1344 22.0407 37.2281 21.8532 37.2656 21.7313C37.3406 21.5063 37.4531 21.4032 37.4531 21.5719C37.4531 21.6844 37.7719 22.1157 37.8281 22.0782C37.8656 22.0594 37.9219 21.9001 37.9687 21.7219C38.0625 21.3469 38.2031 21.1032 38.2969 21.1594C38.3344 21.1782 38.3437 21.2157 38.325 21.2532C38.3062 21.2719 38.3812 21.5157 38.4937 21.7782C38.5752 21.975 38.6565 22.1718 38.7375 22.3688C38.775 22.4626 38.8125 22.4626 39.0469 22.2469C39.1875 22.1157 39.3281 21.9751 39.3375 21.9282C39.3656 21.8532 39.3937 21.8626 39.525 21.9469C39.8014 22.093 40.1042 22.1822 40.4156 22.2094C40.4344 22.1907 40.4531 22.0219 40.4531 21.8344L40.4625 21.4876L40.65 21.5251C40.7437 21.5532 40.9594 21.5532 41.1187 21.5251L41.4 21.4876L41.1469 21.3001C41.0062 21.2063 40.8656 21.0844 40.8281 21.0282C40.8 20.9719 40.6687 20.9157 40.5281 20.9063C40.1437 20.8688 39.4594 20.4938 39.4594 20.3063C39.4594 20.2688 39.5531 20.3344 39.6656 20.4376C39.9281 20.6719 40.2844 20.8126 40.6031 20.8126H40.8281L40.6875 20.6251C40.5873 20.4797 40.523 20.3126 40.5 20.1376C40.4812 19.8563 40.4531 19.8188 40.1625 19.6219C39.994 19.5025 39.837 19.3676 39.6937 19.2188L39.5344 19.0407L39.45 19.2563C39.4031 19.3782 39.3562 19.4719 39.3281 19.4719C39.3094 19.4719 39.2156 19.3969 39.1406 19.3126C39.0879 19.2515 39.0243 19.2006 38.9531 19.1626C38.925 19.1626 38.8594 19.2751 38.7844 19.4157L38.6531 19.6688L38.5594 19.5282C38.476 19.4132 38.3818 19.3065 38.2781 19.2094C38.1656 19.1157 38.1187 19.0407 38.1562 19.0407C38.1937 19.0407 38.3156 19.1344 38.4375 19.2563L38.6437 19.4719L38.7375 19.3126C38.7916 19.2021 38.8081 19.077 38.7844 18.9563C38.7469 18.7876 38.7562 18.7782 38.8125 18.8907C38.8933 18.9965 38.9879 19.0911 39.0937 19.1719L39.3 19.3407L39.4406 19.0876C39.5812 18.8251 39.5812 18.8251 39.6375 18.9844C39.7312 19.1813 40.3406 19.6876 40.8562 19.9782C40.95 20.0251 40.9125 19.8751 40.7625 19.5094C40.7174 19.3893 40.6921 19.2627 40.6875 19.1344C40.6875 18.9657 40.6406 18.8907 40.425 18.7219C40.2909 18.6362 40.1788 18.5204 40.0974 18.3837C40.016 18.247 39.9677 18.0931 39.9562 17.9344C39.9281 17.7751 39.8719 17.6063 39.825 17.5501C39.7687 17.4563 39.75 17.5126 39.7687 17.7938C39.7875 17.9907 39.7594 18.2344 39.7125 18.3376L39.6375 18.5251L39.5812 18.3657C39.5437 18.2813 39.3937 18.1313 39.2531 18.0376C39.1125 17.9438 39.0094 17.8501 39.0281 17.8313C39.0469 17.8126 39.1969 17.8969 39.3562 18.0188C39.6094 18.2157 39.6562 18.2344 39.6937 18.1501C39.7312 18.0563 39.6937 17.6251 39.6187 17.3251C39.5812 17.1751 39.5812 17.1751 39.7687 17.3626C39.9 17.4938 39.975 17.6626 40.0406 17.9438C40.1156 18.3001 40.1531 18.3657 40.4812 18.6563C40.6781 18.8344 40.8562 18.9657 40.8656 18.9563C40.8844 18.9376 40.9031 18.4876 40.9219 17.9438C40.9594 16.9032 40.9219 16.6501 40.6687 16.3313L40.5375 16.1626L40.7437 15.9469C40.9748 15.7259 41.1292 15.4369 41.1844 15.1219L41.2219 14.8688L40.9969 15.0844C40.8094 15.2626 40.7156 15.3001 40.5 15.3001C40.2844 15.3001 40.2 15.2626 40.0594 15.1126C39.8403 14.9017 39.5733 14.7472 39.2812 14.6626C39.1687 14.6251 39.1312 14.6438 39.1312 14.7188C39.1312 14.7751 39.075 14.9251 39 15.0657L38.8687 15.3094L38.5875 15.0282C38.4094 14.8688 38.2125 14.7282 38.0531 14.6907C37.6687 14.5969 37.65 14.5969 37.65 14.8876C37.65 15.3282 37.4625 15.4126 37.125 15.1219C36.8625 14.8969 36.6562 14.8407 36.1594 14.9063L35.7844 14.9438L35.85 15.1126C35.9062 15.2532 35.8969 15.3188 35.775 15.4782C35.5781 15.7407 35.325 15.8532 34.9312 15.8532C34.7437 15.8532 34.5187 15.8907 34.425 15.9376C34.3312 15.9844 34.0875 16.0313 33.8906 16.0501C33.7031 16.0688 33.4875 16.1063 33.4219 16.1251C33.3281 16.1626 33.3281 16.1251 33.3562 15.9188C33.4031 15.6001 33.1687 15.3563 32.8219 15.3563C32.3625 15.3563 32.1562 15.7688 32.3344 16.3126C32.3708 16.4299 32.4021 16.5487 32.4281 16.6688C32.5512 16.9032 32.7165 17.113 32.9156 17.2876C33.1594 17.5313 33.3844 17.7844 33.4219 17.8501C33.4973 17.9478 33.5933 18.0278 33.7031 18.0844L33.9094 18.1969L33.8812 17.9719C33.8531 17.7282 33.9 17.6907 34.0312 17.8688C34.0781 17.9251 34.2 18.0282 34.2937 18.0844C34.4531 18.1782 34.4812 18.1782 34.4812 18.1032C34.4812 18.0469 34.5094 17.9251 34.5469 17.8313L34.6125 17.6626L34.7344 17.8969C34.8 18.0282 35.0156 18.3188 35.2125 18.5532C35.5969 18.9938 35.8406 19.4907 35.7187 19.6032C35.6625 19.6501 35.5312 19.6501 35.25 19.5938C35.0437 19.5563 34.7812 19.5282 34.6687 19.5469C34.4531 19.5751 34.4344 19.5469 34.575 19.3782C34.7156 19.1907 34.6875 19.1626 34.4062 19.1626C34.0781 19.1626 33.2625 19.0032 32.9437 18.8813C32.6437 18.7594 32.5687 18.7876 32.475 19.0782L32.3156 19.6032L32.2219 19.8844L32.5594 19.8563C32.7334 19.8381 32.9057 19.8068 33.075 19.7626C33.1414 19.7404 33.2113 19.7309 33.2812 19.7344C33.3 19.7438 33.2531 19.8563 33.1875 19.9876L33.0562 20.2126L33.2625 20.1751C33.375 20.1469 33.5437 20.0907 33.6375 20.0438C33.8062 19.9688 33.825 19.9688 33.9562 20.1844C34.1156 20.4376 34.2375 20.4282 34.2656 20.1563C34.2937 19.8751 34.3875 19.9126 34.5656 20.2876C34.7344 20.6438 34.9031 20.7751 34.9406 20.5688C34.95 20.4938 35.0344 20.3813 35.1375 20.3063C35.3437 20.1657 35.4937 20.2126 35.5781 20.4282C35.6719 20.6626 35.4656 20.8969 34.8844 21.2532C34.3461 21.5504 33.8829 21.9668 33.5303 22.4705C33.1777 22.9742 32.945 23.5519 32.85 24.1594C32.6719 25.2657 33.225 26.4094 34.3125 27.2438C34.8375 27.6376 35.6719 28.0501 35.6156 27.9001C35.3906 27.2157 35.4 25.9313 35.625 25.7157C35.6625 25.6782 35.6531 25.8094 35.5969 26.0063C35.4094 26.7469 35.5031 27.3282 35.9719 28.6969C36.3844 29.9344 36.3281 30.4688 35.7281 30.8157C35.5406 30.9282 35.4187 30.9469 34.9031 30.9376C34.3406 30.9376 34.275 30.9376 34.0969 31.0876C33.8815 31.3075 33.7405 31.5895 33.6937 31.8938C33.6937 32.0157 33.825 31.9969 34.0687 31.8563H34.0781Z" fill="#FFB700"/>
<path d="M43.1719 31.8282L43.4063 31.6782L43.5656 31.8282C43.7719 32.0251 44.025 32.0157 44.2219 31.8188C44.3156 31.7251 44.3906 31.6688 44.4 31.6782L44.4844 31.8282C44.5313 31.9126 44.6344 31.9501 44.8219 31.9688C45.0375 31.9782 45.1031 31.9688 45.1969 31.8376L45.2906 31.6782L45.525 31.8282C46.1625 32.2407 46.5 31.8095 46.2094 30.9563C46.0688 30.5251 46.1531 30.2813 46.6125 29.7376C46.8094 29.5032 46.9688 29.2501 46.9688 29.1751C46.9688 29.072 46.9313 29.0532 46.6688 29.0626C46.425 29.0626 46.35 29.0345 46.2188 28.8938C46.0031 28.6595 46.0219 28.3876 46.2563 28.0876L46.4438 27.8532L46.1063 27.6282C45.8369 27.4292 45.5858 27.2064 45.3563 26.9626C45.1516 26.7211 44.9014 26.5222 44.6199 26.3775C44.3384 26.2327 44.0311 26.1448 43.7156 26.1188L43.275 26.072V26.4095C43.275 26.8313 43.4813 27.2438 44.025 27.9376C44.6438 28.7251 44.6813 28.847 44.7094 29.8782L44.7375 30.7501L44.55 30.9188C44.3906 31.0688 44.325 31.097 43.8 31.1251C43.3031 31.1532 43.1906 31.1813 43.05 31.3126C42.8855 31.4326 42.7717 31.6098 42.7313 31.8094C42.7031 31.9501 42.7125 31.9782 42.8156 31.9782C42.8813 31.9782 43.0406 31.9126 43.1719 31.8282V31.8282ZM29.8406 29.5782C29.8973 29.4949 29.9298 29.3976 29.9344 29.297C29.9344 29.2032 29.9906 29.1657 30.2344 29.1282L30.525 29.0907L30.3375 28.9313C30.1031 28.7438 30.075 28.6032 30.2813 28.6032C30.4875 28.6032 30.825 28.397 30.8813 28.2376C30.9094 28.1626 30.8813 28.0688 30.8438 28.022C30.7313 27.8907 30.5156 27.9094 30.4781 28.0594C30.4313 28.2094 30.3656 28.2094 30.1969 28.0594C29.9625 27.8251 29.9531 27.347 30.1969 27.0657C30.3 26.9345 30.3 26.9344 30.1594 26.7938C30.0094 26.6438 29.8969 26.3626 29.9719 26.2876C29.9906 26.2688 30.1125 26.2876 30.2344 26.3345C30.4219 26.3907 30.4875 26.3907 30.5625 26.3345C30.7781 26.1563 30.5438 25.9313 30.1875 25.9876C30.0375 26.0063 29.9813 25.9876 29.9625 25.9126C29.9438 25.8563 29.8219 25.7813 29.6813 25.7438C29.4281 25.6782 29.4281 25.6782 29.4281 25.8563C29.4281 26.0438 29.3156 26.0813 29.1094 25.9595C28.9406 25.8657 28.7813 25.9407 28.7813 26.1188C28.7813 26.2876 28.9406 26.3626 29.25 26.3438C29.475 26.3345 29.4844 26.5032 29.2688 26.7469L29.1094 26.9344L29.2313 27.1126C29.4188 27.3751 29.4 27.8157 29.2031 28.0407L29.0438 28.2095L28.9406 28.0688C28.7906 27.8813 28.5938 27.8907 28.5375 28.097C28.5094 28.2282 28.5375 28.2844 28.7063 28.4344C28.8188 28.5282 28.9875 28.6032 29.0719 28.6032C29.2875 28.6032 29.2781 28.7813 29.0531 28.9501L28.8656 29.0907L29.1469 29.1282C29.2969 29.1563 29.4281 29.1938 29.4281 29.222C29.4281 29.3438 29.6156 29.7094 29.6719 29.7094C29.7094 29.7094 29.7844 29.6438 29.8406 29.5688V29.5782Z" fill="#FFB700"/>
<path d="M33.4219 28.0219C33.675 27.9281 34.2188 27.4594 34.2188 27.3563C34.2188 27.3188 34.0688 27.15 33.8813 26.9813C33.5063 26.6438 33.0844 26.0531 32.9719 25.7156C32.9156 25.5281 32.6438 25.2281 31.875 24.4781L30.8531 23.4938L30.5625 23.5688C30.3938 23.6063 30.1969 23.6438 30.1219 23.6438C29.9813 23.6438 29.9813 23.6438 30.1688 23.7938L30.3563 23.9438L30.6375 23.7938C30.8906 23.6438 30.9 23.6438 30.9281 23.7656C30.9469 23.8313 30.9094 23.9531 30.8344 24.0375C30.7688 24.1219 30.7313 24.225 30.7406 24.2531C30.7688 24.2813 30.7031 24.3469 30.6 24.4031C30.4125 24.4969 30.2719 24.8063 30.4219 24.8063C30.5625 24.8063 30.8625 24.4313 30.825 24.3094C30.8063 24.2438 30.825 24.1781 30.8438 24.1594C30.9656 24.0938 30.9563 24.3844 30.8438 24.5344C30.7688 24.6094 30.7313 24.7031 30.75 24.7406C30.7688 24.7688 30.7031 24.8344 30.6 24.8906C30.4125 24.9844 30.2719 25.2938 30.4219 25.2938C30.5719 25.2938 30.8625 24.9375 30.8344 24.8063C30.8156 24.7406 30.8156 24.6656 30.8438 24.6469C30.9281 24.6094 30.9656 24.8344 30.9 24.9469C30.8828 24.9785 30.8738 25.014 30.8738 25.05C30.8738 25.0861 30.8828 25.1215 30.9 25.1531C30.9656 25.275 30.9 25.5 30.7781 25.575C30.7313 25.6031 30.7594 25.6688 30.8906 25.7625C31.0781 25.8938 31.0781 25.9125 31.0781 26.5125C31.0781 27.0188 31.0969 27.15 31.1906 27.2344C31.2844 27.3281 31.3031 27.3281 31.3031 27.2344C31.3031 27.1406 31.4906 27.0094 31.6313 27.0094C31.6781 27.0094 31.95 27.2438 32.2406 27.525C32.5313 27.8063 32.8406 28.0594 32.925 28.0688L33.1313 28.1063C33.1594 28.1063 33.2906 28.0781 33.4219 28.0125V28.0219ZM30.3 25.575C30.3 25.4156 29.9625 25.2375 29.5594 25.2C29.2313 25.1531 29.2313 25.1625 29.2313 25.3219C29.2313 25.4531 29.2781 25.5094 29.5125 25.6031C29.8688 25.7625 30.3 25.7438 30.3 25.575Z" fill="#FFB700"/>
<path d="M30.6656 25.5563C30.8344 25.4063 30.9094 25.2375 30.8063 25.2375C30.6938 25.2375 30.3938 25.5 30.3938 25.6125C30.3938 25.7625 30.45 25.7531 30.675 25.5563H30.6656ZM30.3188 25.0781C30.3281 24.9844 30.2719 24.9281 30.1031 24.8438C29.7281 24.6844 29.2969 24.6 29.1938 24.6844C28.9969 24.8438 29.1281 25.05 29.4375 25.0875C29.5688 25.0969 29.7375 25.1344 29.8219 25.1719C30.0656 25.2656 30.2906 25.2188 30.3188 25.0781V25.0781ZM30.3188 24.5813C30.3375 24.4594 30.2531 24.4125 29.5688 24.1688C29.0531 23.9813 28.8281 24.075 28.9969 24.3844C29.0531 24.4875 29.1469 24.5344 29.3625 24.5719C29.5219 24.5906 29.7375 24.6375 29.8406 24.675C30.1219 24.7688 30.2906 24.7313 30.3094 24.5813H30.3188ZM30.6563 24.1219C30.7594 24.0188 30.8438 23.8969 30.8438 23.8406C30.8438 23.7 30.4406 23.9625 30.3844 24.15C30.3281 24.3656 30.4313 24.3563 30.6656 24.1219H30.6563ZM30.3188 24.0938C30.3375 23.9438 30.0938 23.8125 29.6063 23.7094C29.2406 23.625 29.0813 23.6719 29.1094 23.8406C29.1281 23.9344 29.25 24 29.5781 24.1031C30.1313 24.2719 30.2906 24.2719 30.3188 24.0938V24.0938ZM30.7875 23.4C31.425 23.1188 31.4719 22.4156 30.8813 22.2281C30.6375 22.1531 30.4875 22.2 30.3938 22.3594C30.3188 22.4906 30.3656 22.7156 30.4594 22.7156C30.4969 22.7156 30.525 22.7625 30.525 22.8094C30.525 23.0625 29.5688 23.1656 29.175 22.9688C29.0344 22.9031 28.9875 22.7156 29.0906 22.7156C29.1844 22.7156 29.2406 22.5281 29.1938 22.4063C29.1375 22.2188 28.95 22.1625 28.6969 22.2375C28.1063 22.3875 28.125 23.0813 28.725 23.3625C29.3888 23.6061 30.1153 23.6194 30.7875 23.4V23.4Z" fill="#FFB700"/>
<path d="M30.4031 22.8563C30.4406 22.8188 30.4219 22.7625 30.3656 22.725C30.2344 22.6219 30.2437 22.4625 30.3844 22.2844C30.4969 22.1531 30.5062 21.9469 30.5437 19.9313C30.6094 16.4531 30.8719 13.8375 31.2094 13.2C31.35 12.9563 31.3312 12.9563 30.975 13.2C30.5076 13.5257 30.1303 13.9643 29.8781 14.475C29.2969 15.5531 29.1 17.0063 29.1 20.1188C29.1 21.8813 29.1094 22.1156 29.2125 22.275C29.3062 22.4438 29.3062 22.5 29.25 22.6688C29.2031 22.7719 29.1844 22.8844 29.2031 22.9031C29.3344 23.025 30.2719 22.9969 30.4031 22.8563ZM35.6625 19.5375C35.6906 19.5094 35.6437 19.35 35.5687 19.2C35.4562 18.9563 35.4094 18.9188 35.25 18.9188C34.5003 18.8536 33.7693 18.6502 33.0937 18.3188C32.6156 18.1031 32.4375 18.0563 32.3906 18.1125C32.2406 18.2532 32.4844 18.5813 32.8594 18.7594C33.4112 18.9583 33.9892 19.0751 34.575 19.1063C34.8281 19.1063 34.8375 19.1063 34.6875 19.3219L34.5937 19.4719H34.875L35.3437 19.5281C35.625 19.5938 35.625 19.5938 35.6625 19.5375V19.5375Z" fill="#FFB700"/>
<path d="M38.625 21.1032C38.625 21.0094 38.3532 20.775 38.0907 20.6157C37.875 20.4938 37.8375 20.4844 37.8375 20.5875C37.8375 20.7375 37.7063 21.1219 37.65 21.1219C37.6219 21.1219 37.575 21.0469 37.5563 20.9625C37.5282 20.8688 37.425 20.6813 37.3219 20.5594L37.1344 20.325L37.0032 20.5407C36.8719 20.7469 36.6375 20.9438 36.5344 20.9438C36.5157 20.9438 36.5063 20.8313 36.5344 20.7094C36.5438 20.5594 36.5344 20.4469 36.4875 20.4282C36.45 20.4 36.4125 20.4094 36.4125 20.4469C36.4125 20.5219 36.0938 20.8782 36.0375 20.8782C36 20.8782 35.9625 20.7844 35.9438 20.6532L35.8688 20.2032C35.85 20.0907 35.8969 20.1657 35.9625 20.3907L36.1125 20.775L36.2625 20.5407C36.3304 20.4438 36.3812 20.336 36.4125 20.2219C36.4125 20.175 36.4407 20.1563 36.4782 20.175C36.5157 20.1938 36.5625 20.3532 36.5813 20.5219L36.6282 20.8407L36.7969 20.6532C36.8852 20.5591 36.9667 20.4589 37.0407 20.3532C37.1063 20.2407 37.1157 20.2407 37.2563 20.3532C37.3313 20.4282 37.4532 20.5875 37.5282 20.7188C37.6032 20.85 37.6688 20.9438 37.6782 20.9344L37.7344 20.6344L37.7719 20.3532C37.7813 20.3063 38.2782 20.6344 38.4657 20.7938C38.5782 20.8969 38.6907 20.9719 38.7094 20.9532C38.7282 20.9344 38.7469 20.7844 38.7469 20.6063C38.7469 20.3438 38.7188 20.2688 38.5594 20.1282C38.3719 19.9594 38.3719 19.9594 38.2969 20.0813C38.2032 20.2407 38.1 20.2407 38.1 20.0813C38.1 19.9688 37.7438 19.5282 37.6594 19.5282C37.6313 19.5282 37.5563 19.6219 37.4907 19.7438C37.425 19.8657 37.35 19.9594 37.3313 19.9594C37.2375 19.9594 36.7407 19.3969 36.7407 19.3032C36.7407 19.2282 36.7782 19.2469 36.8625 19.3782C36.9463 19.5013 37.0438 19.6145 37.1532 19.7157C37.3407 19.8844 37.4157 19.8469 37.4907 19.5188C37.5188 19.425 37.5563 19.35 37.5844 19.35C37.6594 19.35 38.0907 19.8094 38.1469 19.9594L38.2125 20.1094L38.2594 19.9407C38.3157 19.7344 38.3813 19.7344 38.475 19.9219C38.5125 19.9969 38.7 20.1657 38.8875 20.2782L39.2344 20.5032L39.3 20.2782C39.3375 20.1563 39.3938 20.0907 39.4125 20.1282C39.45 20.175 39.3563 20.55 39.2907 20.625C39.2907 20.6344 39.1688 20.5688 39.0469 20.4844L38.8125 20.3157V20.6157C38.8125 20.775 38.7938 20.9719 38.775 21.0469C38.7282 21.1969 38.6157 21.2344 38.6157 21.1032H38.625ZM36.8907 18.7219C36.4782 18.3844 36.4219 18.3094 36.4219 18.1407L36.4313 17.9719L36.4594 18.1313C36.4782 18.225 36.5907 18.375 36.7219 18.4875L36.9657 18.675L37.1063 18.5063C37.1907 18.4125 37.2563 18.3 37.2563 18.2625C37.2563 18.15 37.275 18.1594 37.5563 18.4032C37.8 18.6188 37.8094 18.6188 37.8375 18.4782C37.8657 18.4032 37.8563 18.2532 37.8375 18.15C37.7438 17.8688 37.7625 17.8313 37.8844 18L38.1094 18.2625C38.2032 18.3657 38.2125 18.3657 38.25 18.2344C38.2782 18.15 38.2969 18.0094 38.2969 17.9157V17.7375L38.5125 17.9907C38.7282 18.2344 38.7469 18.2438 38.8032 18.1219C38.85 18.0563 38.8782 17.8969 38.8782 17.775C38.8782 17.6063 38.8969 17.5688 38.9344 17.625C39.0094 17.7375 38.9625 18.0188 38.8313 18.2625L38.7375 18.45L38.6157 18.2532C38.4563 18.0094 38.4 18.0094 38.3063 18.2719C38.2125 18.525 38.1469 18.5438 38.0532 18.3469C37.9969 18.225 37.9782 18.2438 37.9407 18.5063L37.8938 18.7875L37.6125 18.5719L37.3313 18.3563L37.1907 18.4969C37.125 18.5813 37.0688 18.6844 37.0688 18.7219C37.0688 18.8157 36.9938 18.8157 36.8907 18.7219V18.7219ZM40.5469 17.4469C40.4063 17.3157 40.3032 17.1844 40.3219 17.1657C40.35 17.1375 40.3688 17.1282 40.3782 17.1469C40.4689 17.2436 40.5627 17.3374 40.6594 17.4282C40.9782 17.7657 40.9125 17.775 40.5563 17.4469H40.5469ZM35.6719 16.9407C35.5407 16.7532 35.55 16.6407 35.7188 16.4344C35.8313 16.2938 35.8875 16.275 36.0938 16.3032C36.2344 16.3125 36.525 16.4344 36.7407 16.5657C37.0523 16.7518 37.4089 16.8491 37.7719 16.8469L37.6125 16.5844C37.4063 16.275 37.4063 16.2375 37.65 16.425C37.8938 16.6219 38.1844 16.6782 38.8407 16.6594L39.1594 16.65L38.9719 16.4625C38.7188 16.2094 38.7938 16.1813 39.0844 16.4344C39.3469 16.6688 39.3375 16.6875 38.7657 16.7438C38.5272 16.7679 38.2864 16.752 38.0532 16.6969C37.7344 16.6032 37.7157 16.6125 37.7813 16.7157C37.8188 16.7813 37.875 16.8282 37.9032 16.8282C37.9407 16.8282 37.9688 16.8657 37.9688 16.9032C37.9688 17.025 37.275 16.9125 36.9375 16.7532C36.1875 16.3688 36.0938 16.3313 35.9063 16.3875C35.8563 16.4068 35.8107 16.4357 35.7721 16.4727C35.7335 16.5098 35.7026 16.5541 35.6813 16.6032C35.5594 16.9125 36 17.1563 36.1782 16.8844C36.2344 16.8 36.225 16.7532 36.1313 16.65C36 16.5188 36.0188 16.5 36.1875 16.5563C36.3094 16.6032 36.3188 16.8938 36.2063 17.0063C36.0844 17.1282 35.7844 17.1 35.6719 16.9407Z" fill="black"/>
<path d="M38.6625 16.1813C38.5687 16.0875 38.6437 16.0688 39.0656 16.0594C39.5906 16.05 39.9094 15.9657 40.2844 15.7219C40.5844 15.5344 40.6687 15.5719 40.3781 15.7688C40.125 15.9563 39.7219 16.0875 39.3187 16.125L38.8406 16.1907C38.7656 16.2094 38.6812 16.2 38.6531 16.1813H38.6625Z" fill="black"/>
</g>
<defs>
<clipPath id="clip0_4_5548">
<rect width="60" height="45" fill="white"/>
</clipPath>
</defs>
</svg>
