<svg width="60" height="45" viewBox="0 0 60 45" fill="none" xmlns="http://www.w3.org/2000/svg">
<g clip-path="url(#clip0_4_5745)">
<path d="M0 0H60V45H0V0Z" fill="#006600"/>
<path d="M0 0H60V32.1469H0V0Z" fill="white"/>
<path d="M0 0H60V12.8531H0V0Z" fill="#CC0000"/>
<path d="M28.2 21.9C28.2883 21.7502 28.4227 21.633 28.5831 21.5658C28.7435 21.4986 28.9213 21.4852 29.09 21.5273C29.2587 21.5695 29.4093 21.6651 29.5192 21.7998C29.6291 21.9346 29.6926 22.1012 29.7 22.275V25.5H30.3V22.2843C30.3075 22.1106 30.3709 21.9439 30.4808 21.8092C30.5907 21.6745 30.7413 21.5789 30.91 21.5367C31.0787 21.4945 31.2565 21.508 31.4169 21.5752C31.5773 21.6423 31.7117 21.7596 31.8 21.9093C31.893 21.625 31.9172 21.3227 31.8708 21.0272C31.8245 20.7316 31.7087 20.4513 31.5331 20.2091C31.3575 19.967 31.127 19.7698 30.8605 19.6339C30.594 19.498 30.2992 19.4271 30 19.4271C29.7009 19.4271 29.406 19.498 29.1395 19.6339C28.873 19.7698 28.6425 19.967 28.4669 20.2091C28.2913 20.4513 28.1756 20.7316 28.1292 21.0272C28.0828 21.3227 28.1071 21.625 28.2 21.9093" fill="#F8C300"/>
<path d="M28.6313 21.0657C28.8945 21.0112 29.1681 21.0408 29.4137 21.1501C29.6592 21.2594 29.8643 21.443 30 21.675C30.1357 21.443 30.3408 21.2594 30.5863 21.1501C30.8319 21.0408 31.1055 21.0112 31.3688 21.0657C31.3294 20.7303 31.1683 20.421 30.916 20.1965C30.6637 19.972 30.3377 19.848 30 19.848C29.6623 19.848 29.3363 19.972 29.084 20.1965C28.8317 20.421 28.6706 20.7303 28.6313 21.0657" fill="white"/>
<path d="M29.7 24.2156C29.6602 24.6725 29.4922 25.1089 29.2155 25.4746C28.9387 25.8403 28.5644 26.1206 28.1356 26.2831C27.7067 26.4457 27.2407 26.4839 26.791 26.3935C26.3414 26.303 25.9264 26.0875 25.5938 25.7718C25.4527 26.1319 25.231 26.4548 24.9457 26.7158C24.6604 26.9769 24.3191 27.1691 23.948 27.2777C23.5769 27.3863 23.1858 27.4085 22.8048 27.3425C22.4238 27.2764 22.0629 27.124 21.75 26.8968C21.9844 29.2406 25.5 28.7625 25.7625 26.4843C26.8594 28.425 29.2875 27.8625 30 25.4906L29.7 24.2156Z" fill="#F8C300"/>
<path d="M27.3562 28.3688C26.8594 29.4281 25.8844 29.6063 25.0312 28.7531C25.0312 28.7531 25.3688 28.5094 25.7438 28.4438C25.6688 28.1531 25.8094 27.7406 26.0156 27.525C26.2886 27.7041 26.4908 27.9726 26.5875 28.2844C27.1031 28.2188 27.3562 28.3781 27.3562 28.3781V28.3688Z" fill="#F8C300"/>
<path fill-rule="evenodd" clip-rule="evenodd" d="M36.0873 31.2255C32.1152 30.0432 27.8848 30.0432 23.9127 31.2255L23.6185 30.2371C27.7826 28.9976 32.2174 28.9976 36.3815 30.2371L36.0873 31.2255Z" fill="#F8C300"/>
<path d="M30.9705 16.767L28.4297 14.921H31.5703L29.0295 16.767L30 13.7802L30.9705 16.767Z" fill="#F8C300"/>
</g>
<defs>
<clipPath id="clip0_4_5745">
<rect width="60" height="45" fill="white"/>
</clipPath>
</defs>
</svg>
