<svg width="60" height="45" viewBox="0 0 60 45" fill="none" xmlns="http://www.w3.org/2000/svg">
<g clip-path="url(#clip0_4_1481)">
<path fill-rule="evenodd" clip-rule="evenodd" d="M-3.75 0H63.75V45H-3.75V0Z" fill="#E70013"/>
<path fill-rule="evenodd" clip-rule="evenodd" d="M41.4082 22.4824C41.4082 25.4917 40.2128 28.3778 38.0848 30.5057C35.9569 32.6337 33.0709 33.8291 30.0615 33.8291C27.0522 33.8291 24.1661 32.6337 22.0382 30.5057C19.9103 28.3778 18.7148 25.4917 18.7148 22.4824C18.7148 19.4731 19.9103 16.587 22.0382 14.4591C24.1661 12.3312 27.0522 11.1357 30.0615 11.1357C33.0709 11.1357 35.9569 12.3312 38.0848 14.4591C40.2128 16.587 41.4082 19.4731 41.4082 22.4824V22.4824Z" fill="white"/>
<path fill-rule="evenodd" clip-rule="evenodd" d="M30.0615 30.0059C28.1095 29.9392 26.2598 29.1168 24.9025 27.7124C23.5452 26.3079 22.7866 24.4312 22.7866 22.478C22.7866 20.5249 23.5452 18.6481 24.9025 17.2437C26.2598 15.8392 28.1095 15.0169 30.0615 14.9502C31.0986 14.9502 32.2852 15.1963 33.085 15.7852C27.583 15.9873 26.1856 20.6631 26.1856 22.5439C26.1856 24.4248 27.0732 28.6172 33.085 29.2412C32.3994 29.6807 31.0986 30.0059 30.0615 30.0059Z" fill="#E70013"/>
<path fill-rule="evenodd" clip-rule="evenodd" d="M36.6885 25.6465L33.2695 24.3984L31.0107 27.2461L31.1426 23.6162L27.7324 22.3418L31.2305 21.3398L31.3799 17.71L33.4189 20.7246L36.917 19.7578L34.6758 22.6143L36.6885 25.6465Z" fill="#E70013"/>
</g>
<defs>
<clipPath id="clip0_4_1481">
<rect width="60" height="45" fill="white"/>
</clipPath>
</defs>
</svg>
