<svg width="60" height="45" viewBox="0 0 60 45" fill="none" xmlns="http://www.w3.org/2000/svg">
<g clip-path="url(#clip0_4_403)">
<path fill-rule="evenodd" clip-rule="evenodd" d="M-3.75 0H63.75V45H-3.75V0Z" fill="#00843D"/>
<path fill-rule="evenodd" clip-rule="evenodd" d="M19.3916 12.085C21.8438 13.2627 24.7617 12.085 25.8164 10.4502C26.9063 8.9209 27.0381 6.36328 25.166 4.0166C28.0664 6.4248 28.7168 9.1582 27.2666 11.4082C25.333 13.9834 21.0615 13.9043 19.3916 12.085V12.085Z" fill="white"/>
<path fill-rule="evenodd" clip-rule="evenodd" d="M23.7422 6.09961L24.2344 6.1084L23.8477 6.41602L23.9971 6.9082L23.584 6.61816L23.1885 6.9082L23.3203 6.4248L22.9248 6.11719L23.417 6.1084L23.584 5.625L23.7422 6.09961ZM21.3076 9.1582H21.7998L21.4131 9.47461L21.5625 9.95801L21.1494 9.66797L20.7451 9.9668L20.8857 9.47461L20.4902 9.17578L20.9824 9.1582L21.1406 8.6748L21.3076 9.1582ZM21.4658 6.75H21.9668L21.5713 7.06641L21.7207 7.5498L21.3164 7.25977L20.9121 7.55859L21.0527 7.06641L20.6572 6.75879L21.1494 6.75L21.3076 6.2666L21.4658 6.75ZM21.4658 4.33301H21.9668L21.5625 4.6582L21.7119 5.1416L21.3076 4.86035L20.9033 5.15039L21.0439 4.66699L20.6484 4.35937L21.1406 4.35059L21.2988 3.86719L21.4658 4.33301ZM18.7676 7.3916H19.2598L18.8643 7.70801L19.0137 8.19141L18.6094 7.90137L18.2051 8.2002L18.3457 7.70801L17.9502 7.40918L18.4424 7.3916L18.6006 6.9082L18.7676 7.3916Z" fill="white"/>
<path fill-rule="evenodd" clip-rule="evenodd" d="M0.424805 0H14.8916V45H0.424805V0Z" fill="#CA3745"/>
<path fill-rule="evenodd" clip-rule="evenodd" d="M0.424805 11.7334V11.4082L1.02246 10.6084L0.908203 10.4414L1.25977 9.9668L1.14551 9.7998L0.908203 10.125L0.785156 9.9668L1.62891 8.8418L1.75195 9L1.62891 9.1582L1.875 9.49219L2.47266 8.68359L1.86621 7.90137L1.62891 8.2002L1.75195 8.36719L1.62891 8.52539L0.785156 7.40039L0.908203 7.24219L1.14551 7.55859L1.26855 7.40039L0.908203 6.91699L1.02246 6.75879L0.424805 5.9502V5.625L1.26855 6.75L1.14551 6.9082L1.50586 7.3916L1.26855 7.7168L1.50586 8.0332L1.875 7.55859L2.72754 8.70117L1.875 9.80859L1.52344 9.3252L1.27734 9.65039L1.51465 9.97559L1.16309 10.4502L1.27734 10.6172L0.433594 11.7422L0.424805 11.7334Z" fill="#FAAE29"/>
<path fill-rule="evenodd" clip-rule="evenodd" d="M0.424805 7.7168L0.547852 8.0332V8.52539H0.908203L1.1543 8.68359L0.908203 8.85059H0.556641V9.32519L0.433594 9.65039V7.7168H0.424805Z" fill="#FAAE29"/>
<path fill-rule="evenodd" clip-rule="evenodd" d="M0.424805 19.4502V19.125L1.02246 18.3252L0.908203 18.1582L1.25977 17.6748L1.14551 17.5166L0.908203 17.8418L0.785156 17.6748L1.62891 16.5498L1.75195 16.7168L1.62891 16.875L1.875 17.2002L2.47266 16.3916L1.86621 15.6094L1.62891 15.9082L1.75195 16.0752L1.62891 16.2334L0.785156 15.1084L0.908203 14.9414L1.14551 15.2578L1.26855 15.0996L0.908203 14.6162L1.02246 14.458L0.424805 13.6494V13.333L1.26855 14.458L1.14551 14.6162L1.50586 15.0996L1.26855 15.416L1.50586 15.7412L1.86621 15.2578L2.71875 16.4004L1.86621 17.5078L1.51465 17.0244L1.26855 17.3496L1.50586 17.666L1.1543 18.1494L1.26855 18.3164L0.424805 19.4414V19.4502Z" fill="#FAAE29"/>
<path fill-rule="evenodd" clip-rule="evenodd" d="M0.424805 15.4248L0.547852 15.75V16.2334H0.908203L1.1543 16.3916L0.908203 16.5498H0.556641V17.0332L0.433594 17.3584V15.4248H0.424805Z" fill="#FAAE29"/>
<path fill-rule="evenodd" clip-rule="evenodd" d="M0.424805 27.1582V26.8418L1.02246 26.0332L0.908203 25.875L1.25977 25.3916L1.14551 25.2334L0.908203 25.5498L0.785156 25.3916L1.62891 24.2666L1.75195 24.4248L1.62891 24.5918L1.875 24.917L2.47266 24.1084L1.86621 23.3174L1.62891 23.625L1.75195 23.7832L1.62891 23.9414L0.785156 22.8164L0.908203 22.6582L1.14551 22.9834L1.26855 22.8164L0.908203 22.3418L1.02246 22.1748L0.424805 21.375V21.0498L1.26855 22.1748L1.14551 22.3418L1.50586 22.8164L1.26855 23.1416L1.50586 23.4668L1.875 22.9834L2.71875 24.126L1.86621 25.2334L1.51465 24.75L1.26855 25.0664L1.50586 25.3916L1.1543 25.875L1.26855 26.0332L0.424805 27.1582V27.1582Z" fill="#FAAE29"/>
<path fill-rule="evenodd" clip-rule="evenodd" d="M0.424805 23.1416L0.556641 23.4668V23.9502H0.908203L1.1543 24.1084L0.908203 24.2578H0.556641V24.7412L0.433594 25.0664V23.1328L0.424805 23.1416Z" fill="#FAAE29"/>
<path fill-rule="evenodd" clip-rule="evenodd" d="M0.424805 34.3916V34.0664L1.02246 33.2666L0.908203 33.1084L1.25977 32.625L1.14551 32.4668L0.908203 32.7832L0.785156 32.625L1.62891 31.5L1.75195 31.6582L1.62891 31.8164L1.875 32.1416L2.47266 31.3418L1.86621 30.5508L1.62891 30.8584L1.75195 31.0166L1.62891 31.1748L0.785156 30.0498L0.908203 29.8916L1.14551 30.2168L1.26855 30.0498L0.908203 29.5664L1.02246 29.4082L0.424805 28.6084V28.2832L1.26855 29.4082L1.14551 29.5664L1.50586 30.0498L1.26855 30.375L1.50586 30.6914L1.875 30.2168L2.71875 31.3594L1.86621 32.4668L1.51465 31.9834L1.26855 32.2998L1.50586 32.625L1.1543 33.1084L1.26855 33.2666L0.424805 34.3916V34.3916Z" fill="#FAAE29"/>
<path fill-rule="evenodd" clip-rule="evenodd" d="M0.424805 30.375L0.547852 30.6914V31.1748H0.908203L1.1543 31.3418L0.908203 31.5H0.556641V31.9834L0.433594 32.2998V30.3662L0.424805 30.375Z" fill="#FAAE29"/>
<path fill-rule="evenodd" clip-rule="evenodd" d="M14.8916 11.7334V11.4082L14.2939 10.6084L14.417 10.4414L14.0566 9.9668L14.1709 9.7998L14.417 10.125L14.54 9.9668L13.6963 8.8418L13.5732 9L13.6963 9.1582L13.4414 9.4834L12.8525 8.6748L13.4502 7.89258L13.6963 8.19141L13.5732 8.3584L13.6875 8.5166L14.5312 7.3916L14.417 7.2334L14.1709 7.5498L14.0566 7.3916L14.4082 6.9082L14.2939 6.75L14.8916 5.94141V5.625L14.0566 6.75L14.1709 6.9082L13.8193 7.3916L14.0566 7.7168L13.8105 8.0332L13.4502 7.5498L12.5977 8.69238L13.4502 9.7998L13.8105 9.31641L14.0566 9.6416L13.8105 9.9668L14.1709 10.4414L14.0566 10.6084L14.8916 11.7334Z" fill="#FAAE29"/>
<path fill-rule="evenodd" clip-rule="evenodd" d="M14.8916 7.7168L14.7686 8.0332V8.52539H14.417L14.1709 8.68359L14.4082 8.85059H14.7686V9.32519L14.8916 9.65039V7.7168V7.7168Z" fill="#FAAE29"/>
<path fill-rule="evenodd" clip-rule="evenodd" d="M14.9355 19.4502V19.125L14.3379 18.3252L14.4521 18.1582L14.1006 17.6748L14.2148 17.5166L14.4521 17.8418L14.5752 17.6748L13.7314 16.5498L13.6084 16.7168L13.7314 16.875L13.4854 17.2002L12.8877 16.3916L13.4941 15.6094L13.7314 15.9082L13.6084 16.0664L13.7314 16.2334L14.5752 15.1084L14.4521 14.9414L14.2148 15.2666L14.0918 15.1084L14.4521 14.625L14.3379 14.4668L14.9355 13.6582V13.3418L14.0918 14.4668L14.2148 14.625L13.8545 15.1084L14.0918 15.4248L13.8545 15.75L13.4941 15.2666L12.6416 16.4092L13.4941 17.5166L13.8457 17.0332L14.0918 17.3584L13.8545 17.6748L14.2061 18.1582L14.0918 18.3164L14.9355 19.4414V19.4502Z" fill="#FAAE29"/>
<path fill-rule="evenodd" clip-rule="evenodd" d="M14.9355 15.4248L14.8125 15.75V16.2334H14.4434L14.1973 16.3916L14.4434 16.5498H14.7949V17.0332L14.9268 17.3584V15.4248H14.9355Z" fill="#FAAE29"/>
<path fill-rule="evenodd" clip-rule="evenodd" d="M14.8916 27.1582V26.8418L14.2939 26.0332L14.417 25.875L14.0566 25.3916L14.1709 25.2334L14.417 25.5498L14.54 25.3916L13.6963 24.2666L13.5732 24.4248L13.6963 24.5918L13.4414 24.917L12.8525 24.1084L13.4502 23.3174L13.6963 23.625L13.5732 23.7832L13.6875 23.9414L14.5312 22.8164L14.417 22.6582L14.1709 22.9834L14.0566 22.8164L14.4082 22.3418L14.2939 22.1748L14.8916 21.375V21.0498L14.0566 22.1748L14.1709 22.3418L13.8193 22.8164L14.0566 23.1416L13.8105 23.4668L13.4502 22.9834L12.5977 24.126L13.4502 25.2334L13.8105 24.75L14.0566 25.0664L13.8105 25.3916L14.1709 25.875L14.0566 26.0332L14.8828 27.1582H14.8916Z" fill="#FAAE29"/>
<path fill-rule="evenodd" clip-rule="evenodd" d="M14.8916 23.1416L14.7686 23.4668V23.9502H14.417L14.1709 24.1084L14.4082 24.2666H14.7686V24.75L14.8916 25.0752V23.1416V23.1416Z" fill="#FAAE29"/>
<path fill-rule="evenodd" clip-rule="evenodd" d="M14.8916 34.3916V34.0664L14.2939 33.2666L14.417 33.1084L14.0566 32.625L14.1709 32.4668L14.417 32.7832L14.54 32.625L13.6963 31.5L13.5732 31.6582L13.6963 31.8164L13.4414 32.1416L12.8525 31.3418L13.4502 30.5508L13.6963 30.8584L13.5732 31.0166L13.6875 31.1748L14.5312 30.0586L14.417 29.9004L14.1709 30.2256L14.0566 30.0586L14.4082 29.5752L14.2939 29.417L14.8916 28.6172V28.292L14.0566 29.417L14.1709 29.5752L13.8193 30.0586L14.0566 30.3838L13.8105 30.7002L13.4502 30.2256L12.5977 31.3682L13.4502 32.4756L13.8105 31.9922L14.0566 32.3086L13.8105 32.6338L14.1709 33.1172L14.0566 33.2754L14.8916 34.4004V34.3916Z" fill="#FAAE29"/>
<path fill-rule="evenodd" clip-rule="evenodd" d="M14.8916 30.375L14.7686 30.6914V31.1748H14.417L14.1709 31.3418L14.4082 31.5H14.7686V31.9834L14.8916 32.2998V30.3662V30.375Z" fill="#FAAE29"/>
<path fill-rule="evenodd" clip-rule="evenodd" d="M0.424805 3.0498V2.7334L1.02246 1.9248L0.908203 1.7666L1.25977 1.2832L1.14551 1.125L0.908203 1.4502L0.785156 1.2832L1.62891 0.158203L1.75195 0.325195L1.62891 0.483398L1.875 0.808594L2.47266 0H2.71875L1.875 1.125L1.50586 0.641602L1.26855 0.966797L1.50586 1.2832L1.1543 1.7666L1.25977 1.93359L0.424805 3.05859V3.0498ZM0.424805 0H1.1543L0.908203 0.158203H0.55664V0.641602L0.416016 0.966797V0H0.424805ZM14.8916 3.0498V2.7334L14.2939 1.9248L14.417 1.7666L14.0566 1.2832L14.1709 1.125L14.417 1.4502L14.5312 1.2832L13.6875 0.158203L13.5732 0.325195L13.6875 0.483398L13.4414 0.808594L12.8438 0H12.5977L13.4502 1.125L13.8105 0.641602L14.0566 0.966797L13.8105 1.2832L14.1709 1.7666L14.0566 1.9248L14.8916 3.0498V3.0498ZM14.8916 0H14.1709L14.4082 0.158203H14.7686V0.641602L14.8916 0.966797V0ZM6.4541 44.3584C6.4541 44.3584 6.98144 43.4443 8.28223 43.1719C9.5918 42.8906 9.82031 43.7783 10.5674 43.7783C11.3145 43.7783 12.501 43.1631 12.501 43.1631C12.501 43.1631 11.3145 44.332 10.3916 44.3057C9.48633 44.2793 9.17871 43.6904 8.23828 43.7783C7.30664 43.8662 6.4541 44.3848 6.4541 44.3584V44.3584Z" fill="#FAAE29"/>
<path fill-rule="evenodd" clip-rule="evenodd" d="M8.97656 44.3584C8.97656 44.3584 8.45801 43.4443 7.15723 43.1719C5.83887 42.8906 5.61914 43.7783 4.87207 43.7783C4.125 43.7783 2.93848 43.1631 2.93848 43.1631C2.93848 43.1631 4.125 44.332 5.03906 44.3057C5.95313 44.2793 6.26953 43.6904 7.19238 43.7783C8.13281 43.8662 8.97656 44.3848 8.97656 44.3584Z" fill="#FAAE29"/>
<path fill-rule="evenodd" clip-rule="evenodd" d="M4.70506 42.8467C4.5908 42.6094 4.30076 41.5547 4.45018 41.4229C4.68748 41.335 5.30272 42.416 5.24119 43.374C4.8369 43.5938 3.48338 43.2862 3.49217 43.0049C3.58885 42.6094 4.36229 42.7412 4.70506 42.8467Z" fill="#FAAE29"/>
<path fill-rule="evenodd" clip-rule="evenodd" d="M3.87891 41.9238C3.8086 41.6601 3.68555 40.5527 3.86133 40.4648C4.09863 40.4472 4.5293 41.6689 4.32715 42.5917C3.89649 42.6972 2.61328 42.0205 2.67481 41.748C2.83301 41.3964 3.55371 41.7304 3.87891 41.9238V41.9238Z" fill="#FAAE29"/>
<path fill-rule="evenodd" clip-rule="evenodd" d="M3.21096 40.9043C3.15822 40.623 3.14065 39.498 3.31643 39.4453C3.55373 39.4629 3.87893 40.7461 3.59768 41.6338C3.15822 41.6689 1.94533 40.79 2.03322 40.5352C2.20901 40.2012 2.91213 40.6494 3.21096 40.9043V40.9043Z" fill="#FAAE29"/>
<path fill-rule="evenodd" clip-rule="evenodd" d="M2.68362 39.8145C2.66605 39.5244 2.77151 38.4082 2.95609 38.3906C3.19339 38.4521 3.36038 39.7881 2.97366 40.6055C2.543 40.5527 1.44437 39.4365 1.56741 39.1992C1.77835 38.9092 2.41995 39.498 2.68362 39.8145Z" fill="#FAAE29"/>
<path fill-rule="evenodd" clip-rule="evenodd" d="M2.31446 38.6631C2.33204 38.3731 2.56055 37.3008 2.74512 37.3096C2.96485 37.4239 2.99122 38.7686 2.5254 39.5069C2.10352 39.3663 1.12793 38.0567 1.26856 37.837C1.52344 37.5909 2.08594 38.3028 2.32325 38.6631H2.31446Z" fill="#FAAE29"/>
<path fill-rule="evenodd" clip-rule="evenodd" d="M2.41991 37.3535C2.39355 38.4961 2.18261 38.5137 1.80468 37.6699C1.6289 37.3447 1.61132 36.0264 1.76073 35.9736C1.98046 35.9736 2.41112 36.9141 2.41991 37.3535Z" fill="#FAAE29"/>
<path fill-rule="evenodd" clip-rule="evenodd" d="M10.6641 42.9786C10.7783 42.7325 11.0684 41.6778 10.9189 41.546C10.6816 41.4581 10.0752 42.5303 10.1279 43.4971C10.5322 43.7169 11.8945 43.4092 11.877 43.128C11.7803 42.7325 11.0156 42.8643 10.6641 42.9698V42.9786Z" fill="#FAAE29"/>
<path fill-rule="evenodd" clip-rule="evenodd" d="M11.4903 42.0468C11.5694 41.7831 11.6836 40.6757 11.5166 40.5878C11.2793 40.5703 10.8399 41.7831 11.0508 42.7148C11.4727 42.8203 12.7647 42.1435 12.6944 41.871C12.5449 41.5107 11.8155 41.8535 11.4903 42.0468V42.0468Z" fill="#FAAE29"/>
<path fill-rule="evenodd" clip-rule="evenodd" d="M12.1582 41.0273C12.2109 40.7461 12.2285 39.6211 12.0527 39.5684C11.8154 39.5859 11.4902 40.8604 11.7803 41.748C12.2197 41.7832 13.4326 40.9131 13.3447 40.6494C13.1514 40.3154 12.4658 40.7725 12.1582 41.0273V41.0273Z" fill="#FAAE29"/>
<path fill-rule="evenodd" clip-rule="evenodd" d="M12.6855 39.9287C12.7031 39.6475 12.5976 38.5312 12.4131 38.5137C12.1758 38.5752 12.0088 39.9111 12.3955 40.7285C12.835 40.6758 13.9248 39.5596 13.8105 39.3223C13.5908 39.0234 12.958 39.6211 12.6855 39.9287V39.9287Z" fill="#FAAE29"/>
<path fill-rule="evenodd" clip-rule="evenodd" d="M13.0547 38.7773C13.0459 38.4961 12.8086 37.415 12.6328 37.4326C12.4043 37.5381 12.378 38.8916 12.8526 39.6299C13.2744 39.4892 14.2412 38.1797 14.1006 37.9599C13.8457 37.7138 13.2832 38.4258 13.0459 38.7773H13.0547Z" fill="#FAAE29"/>
<path fill-rule="evenodd" clip-rule="evenodd" d="M12.9492 37.4766C12.9844 38.6191 13.1865 38.6279 13.5645 37.7842C13.7402 37.4678 13.7578 36.1406 13.6084 36.0967C13.3887 36.0967 12.958 37.0371 12.9492 37.4766Z" fill="#FAAE29"/>
<path fill-rule="evenodd" clip-rule="evenodd" d="M12.6496 28.9087H11.9302V29.3912H11.237V29.8738H8.46408L7.99321 30.3702L8.22864 30.6184H9.39274L9.61509 30.3702H8.46408L8.68643 30.122H10.3083L9.61509 30.8528H8.00629L7.5485 30.6184L7.07763 30.8528H5.45575L4.76253 30.122H6.38441L6.61984 30.3702H5.45575L5.69119 30.6184H6.85528L7.07763 30.3702L6.61984 29.8738H4.06931V29.3912H3.37608V28.9087H2.68286V26.7025H3.37608V26.22H4.06931V25.7236H6.61984L7.07763 25.241L6.85528 24.9928H5.69119L5.45575 25.241H6.61984L6.38441 25.4754H4.76253L5.45575 24.7446H7.09071L7.56158 24.9928L8.01937 24.7446H9.64125L10.3345 25.4754H8.71259L8.49024 25.241H9.64125L9.40582 24.9928H8.2548L8.00629 25.241L8.47716 25.7236H11.2501V26.22H11.9433V26.7025H12.6496V28.9087V28.9087Z" fill="#CA3745"/>
<path fill-rule="evenodd" clip-rule="evenodd" d="M5.45287 24.7379H7.09237L7.56154 24.9852L8.01767 24.7379H9.64414L10.3501 25.4821H8.70971L8.47461 25.2343H9.62563L9.40293 24.9995H8.25758L8.01573 25.2411L8.47999 25.7169H11.2568V26.2132H11.95V26.6958H12.6563V28.9087H12.6496V28.9154H11.9369V29.398H11.2437V29.8805H8.46697L8.00247 30.3702L8.23153 30.6117H9.38974L9.60006 30.3769H8.44905L8.68343 30.1153H10.3239L9.61798 30.8595H8.00467L7.54846 30.6259L7.07921 30.8595H5.45287L4.74691 30.1153H6.3873L6.63547 30.3769H5.47138L5.69407 30.6117H6.85228L7.06856 30.3703L6.6169 29.8805H4.06259V29.398H3.36937V28.9154H2.67615V26.6958H3.36937V26.2132H4.06259V25.7169H6.61696L7.0685 25.2409L6.85228 24.9995H5.69407L5.47138 25.2343H6.63611L6.38718 25.4821H4.74691L5.45287 24.7379ZM12.6429 28.9019V26.7093H11.9366V26.2267H11.2433V25.7303H8.47433L7.99685 25.2409L8.25203 24.9861H9.4087L9.65688 25.2477H8.50586L8.71548 25.4687H10.3188L9.63836 24.7513H8.02107L7.56163 25.0004L7.08905 24.7513H5.45864L4.77816 25.4687H6.38164L6.60358 25.2477H5.44013L5.6883 24.9861H6.85828L7.08677 25.2411L6.62273 25.7303H4.07602V26.2267H3.3828V26.7093H2.68958V28.9019H3.3828V29.3845H4.07602V29.8671H6.62279L7.08671 30.3701L6.85828 30.6251H5.6883L5.44013 30.3635H6.60422L6.38152 30.1287H4.77816L5.45864 30.8461H7.07605L7.54854 30.6109L8.00791 30.8461H9.61221L10.2927 30.1287H8.68943L8.47911 30.3635H9.63012L9.39574 30.6251H8.22576L7.98396 30.3702L8.46119 29.8671H11.2303V29.3845H11.9235V28.9019H12.6429Z" fill="black"/>
<path fill-rule="evenodd" clip-rule="evenodd" d="M2.91516 26.9594V28.6692H3.60838V29.1517H4.30159V29.6343H6.6232L7.55184 30.372L8.47395 29.6412H11.0245V29.1586L11.7177 29.1517V28.6692H12.424V26.9525H11.7242V26.4699H11.031V25.9736H8.48049L7.55839 25.2428L6.62974 25.9736H4.30813V26.4699H3.61491V26.9525H2.9217L2.91516 26.9594Z" fill="#00843D"/>
<path fill-rule="evenodd" clip-rule="evenodd" d="M7.55849 25.1829L8.49686 25.9265H11.078V26.4229H11.7712V26.9055H12.471V28.7161H11.7647V29.1982L11.0715 29.2051V29.6882H8.49032L7.55182 30.4319L6.60681 29.6813H4.25459V29.1987H3.56138V28.7161H2.86816V26.9406L2.90151 26.9055H3.56792V26.4229H4.26113V25.9265H6.61347L7.55849 25.1829ZM7.55829 25.3026L6.64602 26.0205H4.35513V26.5169H3.66192V26.9995H2.96217V28.6221H3.65538V29.1047H4.34859V29.5873H6.6396L7.55188 30.3119L8.45759 29.5942H10.9775V29.1121L11.6707 29.1052V28.6221H12.377V26.9995H11.6772V26.5169H10.984V26.0205H8.46413L7.55829 25.3026Z" fill="#FAAE29"/>
<path fill-rule="evenodd" clip-rule="evenodd" d="M6.15629 26.2129L4.76782 27.436V26.2129H6.15629ZM8.93321 26.2129L10.3305 27.436V26.2129H8.93321V26.2129ZM6.15629 29.3931L4.76782 28.1699V29.3931H6.15629ZM8.93321 29.3931L10.3305 28.1699V29.3931H8.93321V29.3931ZM9.39896 26.9468L8.93321 27.436H9.86471L9.39896 26.9468V26.9468ZM5.69054 26.9468L5.23357 27.436H6.15629L5.69054 26.9468ZM5.69054 28.6592L5.23357 28.1699H6.15629L5.69054 28.6592ZM9.39896 28.6592L8.93321 28.1699H9.86471L9.39896 28.6592V28.6592Z" fill="#CA3745"/>
<path fill-rule="evenodd" clip-rule="evenodd" d="M7.54473 29.8823L7.07898 29.3931H8.01048L7.54473 29.8823V29.8823ZM7.54473 27.436L7.07898 26.9468H8.01048L7.54473 27.436V27.436ZM7.54473 25.7236L7.07898 26.224H8.01048L7.54473 25.7236V25.7236ZM7.54473 28.1699L7.07898 28.6592H8.01048L7.54473 28.1699V28.1699Z" fill="#FAAE29"/>
<path fill-rule="evenodd" clip-rule="evenodd" d="M8.93823 27.442H9.87342V27.6833H8.94477L8.93823 27.442Z" fill="#FAAE29"/>
<path fill-rule="evenodd" clip-rule="evenodd" d="M8.93481 27.4386H9.8768V27.6866H8.94153L8.93481 27.4386ZM8.94171 27.4453L8.94807 27.6799H9.87009V27.4453H8.94171Z" fill="black"/>
<path fill-rule="evenodd" clip-rule="evenodd" d="M5.46564 27.6833H5.92342V27.9315H5.46564V27.6833ZM9.17367 27.6833H9.63146V27.9315H9.17367V27.6833Z" fill="#CC0000"/>
<path fill-rule="evenodd" clip-rule="evenodd" d="M5.46228 27.6799H5.92678V27.9348H5.46228V27.6799ZM5.46899 27.6866V27.9281H5.92006V27.6866H5.46899ZM9.17032 27.6799H9.63482V27.9348H9.17032V27.6799ZM9.17703 27.6866V27.9281H9.6281V27.6866H9.17703Z" fill="black"/>
<path fill-rule="evenodd" clip-rule="evenodd" d="M7.08752 26.2218H8.00963V26.4631H7.08752V26.2218ZM7.08752 26.7044H8.00963V26.9526H7.08752V26.7044Z" fill="#990000"/>
<path fill-rule="evenodd" clip-rule="evenodd" d="M7.08417 26.2184H8.01299V26.4664H7.08417V26.2184ZM7.09088 26.2251V26.4597H8.00627V26.2251H7.09088ZM7.08417 26.701H8.01299V26.9559H7.08417V26.701ZM7.09088 26.7077V26.9492H8.00627V26.7077H7.09088Z" fill="black"/>
<path fill-rule="evenodd" clip-rule="evenodd" d="M6.85205 26.463H8.24502V26.7112H6.85205V26.463ZM7.08748 28.6691H8.00959V28.9035H7.08748V28.6691ZM7.08748 29.1517H8.00959V29.393H7.08748V29.1517ZM6.85205 28.9104H8.24502V29.1517H6.85205V28.9104Z" fill="#990000"/>
<path fill-rule="evenodd" clip-rule="evenodd" d="M6.84869 26.4597H8.24838V26.7146H6.84869V26.4597ZM6.85541 26.4664V26.7079H8.24166V26.4664H6.85541ZM7.08413 28.6658H8.01295V28.9069H7.08413V28.6658ZM7.09084 28.6725V28.9002H8.00623V28.6725H7.09084ZM6.84869 28.9071H8.24838V29.1551H8.01295V29.3964H7.08413V29.1551H6.84869V28.9071ZM8.24166 29.1484V28.9138H6.85541V29.1484H8.24166ZM7.09084 29.1551V29.3897H8.00623V29.1551H7.09084Z" fill="black"/>
<path fill-rule="evenodd" clip-rule="evenodd" d="M8.93827 27.9315H9.87346V28.1728H8.94481L8.93827 27.9315ZM5.23023 27.442H6.15888V27.6833H5.23023V27.442ZM5.23023 27.9246H6.15888V28.1728H5.23023V27.9246ZM5.00134 27.6833H5.45913V27.9315H5.00134V27.6833ZM5.92999 27.6833H6.38777V27.9315H5.92999V27.6833ZM8.70938 27.6833H9.16717V27.9315H8.70938V27.6833ZM9.63803 27.6833H10.0958V27.9315H9.63803V27.6833Z" fill="#FAAE29"/>
<path fill-rule="evenodd" clip-rule="evenodd" d="M5.22688 27.4386H6.16224V27.6799H6.39113V27.9348H6.16224V28.1761H5.22688V27.9348H4.99799V27.6799H5.22688V27.4386ZM5.23359 27.6799H6.15552V27.4453H5.23359V27.6799ZM5.92663 27.6866H5.46248V27.9212H5.92663V27.6866ZM5.92663 27.9279H5.46248V27.9348H5.23359V28.1694H6.15552V27.9348H5.92663V27.9279ZM6.16224 27.9281V27.9212H5.93335V27.6866H6.38441V27.9281H6.16224ZM6.15552 27.9281H5.93335V27.9279H6.15552V27.9281ZM5.23359 27.9281H5.45577V27.9279H5.23359V27.9281ZM5.45577 27.9212V27.6866H5.0047V27.9281H5.22688V27.9212H5.45577ZM8.70603 27.6799H9.17052V27.9281H9.63467V27.6799H10.0992V27.9348H9.87682V28.1761H8.94155L8.93501 27.9348H8.70603V27.6799ZM9.16381 27.9281V27.6866H8.71274V27.9281H9.16381ZM8.94172 27.9348L8.94808 28.1694H9.8701V27.9348H8.94172ZM10.0925 27.9281V27.6866H9.64138V27.9281H10.0925Z" fill="black"/>
<path d="M6.97982 29.0815C7.01233 29.0815 7.03868 29.0537 7.03868 29.0194C7.03868 28.9852 7.01233 28.9574 6.97982 28.9574C6.94731 28.9574 6.92096 28.9852 6.92096 29.0194C6.92096 29.0537 6.94731 29.0815 6.97982 29.0815Z" fill="white"/>
<path d="M7.55099 29.0815C7.58349 29.0815 7.60984 29.0537 7.60984 29.0194C7.60984 28.9852 7.58349 28.9574 7.55099 28.9574C7.51848 28.9574 7.49213 28.9852 7.49213 29.0194C7.49213 29.0537 7.51848 29.0815 7.55099 29.0815Z" fill="white"/>
<path d="M8.131 29.0815C8.16351 29.0815 8.18986 29.0537 8.18986 29.0194C8.18986 28.9852 8.16351 28.9574 8.131 28.9574C8.0985 28.9574 8.07214 28.9852 8.07214 29.0194C8.07214 29.0537 8.0985 29.0815 8.131 29.0815Z" fill="white"/>
<path d="M7.20827 28.848C7.24078 28.848 7.26713 28.8202 7.26713 28.7859C7.26713 28.7517 7.24078 28.7239 7.20827 28.7239C7.17577 28.7239 7.14941 28.7517 7.14941 28.7859C7.14941 28.8202 7.17577 28.848 7.20827 28.848Z" fill="white"/>
<path d="M7.8937 28.848C7.9262 28.848 7.95256 28.8202 7.95256 28.7859C7.95256 28.7517 7.9262 28.7239 7.8937 28.7239C7.86119 28.7239 7.83484 28.7517 7.83484 28.7859C7.83484 28.8202 7.86119 28.848 7.8937 28.848Z" fill="white"/>
<path d="M7.19948 29.3261C7.23199 29.3261 7.25834 29.2983 7.25834 29.2641C7.25834 29.2298 7.23199 29.202 7.19948 29.202C7.16698 29.202 7.14062 29.2298 7.14062 29.2641C7.14062 29.2983 7.16698 29.3261 7.19948 29.3261Z" fill="white"/>
<path d="M7.8937 29.3372C7.9262 29.3372 7.95256 29.3095 7.95256 29.2752C7.95256 29.2409 7.9262 29.2131 7.8937 29.2131C7.86119 29.2131 7.83484 29.2409 7.83484 29.2752C7.83484 29.3095 7.86119 29.3372 7.8937 29.3372Z" fill="white"/>
<path d="M8.81643 27.8583C8.84893 27.8583 8.87529 27.8306 8.87529 27.7963C8.87529 27.762 8.84893 27.7343 8.81643 27.7343C8.78392 27.7343 8.75757 27.762 8.75757 27.7963C8.75757 27.8306 8.78392 27.8583 8.81643 27.8583Z" fill="white"/>
<path d="M9.39644 27.8583C9.42895 27.8583 9.4553 27.8306 9.4553 27.7963C9.4553 27.762 9.42895 27.7343 9.39644 27.7343C9.36394 27.7343 9.33759 27.762 9.33759 27.7963C9.33759 27.8306 9.36394 27.8583 9.39644 27.8583Z" fill="white"/>
<path d="M9.9764 27.8583C10.0089 27.8583 10.0353 27.8306 10.0353 27.7963C10.0353 27.762 10.0089 27.7343 9.9764 27.7343C9.94389 27.7343 9.91754 27.762 9.91754 27.7963C9.91754 27.8306 9.94389 27.8583 9.9764 27.8583Z" fill="white"/>
<path d="M9.05373 27.6137C9.08624 27.6137 9.11259 27.5859 9.11259 27.5517C9.11259 27.5174 9.08624 27.4896 9.05373 27.4896C9.02123 27.4896 8.99487 27.5174 8.99487 27.5517C8.99487 27.5859 9.02123 27.6137 9.05373 27.6137Z" fill="white"/>
<path d="M9.73916 27.6137C9.77166 27.6137 9.79801 27.5859 9.79801 27.5517C9.79801 27.5174 9.77166 27.4896 9.73916 27.4896C9.70665 27.4896 9.6803 27.5174 9.6803 27.5517C9.6803 27.5859 9.70665 27.6137 9.73916 27.6137Z" fill="white"/>
<path d="M9.04494 28.0919C9.07745 28.0919 9.1038 28.0641 9.1038 28.0298C9.1038 27.9956 9.07745 27.9678 9.04494 27.9678C9.01244 27.9678 8.98608 27.9956 8.98608 28.0298C8.98608 28.0641 9.01244 28.0919 9.04494 28.0919Z" fill="white"/>
<path d="M9.73916 28.103C9.77166 28.103 9.79801 28.0752 9.79801 28.0409C9.79801 28.0067 9.77166 27.9789 9.73916 27.9789C9.70665 27.9789 9.6803 28.0067 9.6803 28.0409C9.6803 28.0752 9.70665 28.103 9.73916 28.103Z" fill="white"/>
<path d="M6.97103 26.6463C7.00354 26.6463 7.02989 26.6185 7.02989 26.5843C7.02989 26.55 7.00354 26.5222 6.97103 26.5222C6.93852 26.5222 6.91217 26.55 6.91217 26.5843C6.91217 26.6185 6.93852 26.6463 6.97103 26.6463Z" fill="white"/>
<path d="M7.55099 26.6463C7.58349 26.6463 7.60984 26.6185 7.60984 26.5843C7.60984 26.55 7.58349 26.5222 7.55099 26.5222C7.51848 26.5222 7.49213 26.55 7.49213 26.5843C7.49213 26.6185 7.51848 26.6463 7.55099 26.6463Z" fill="white"/>
<path d="M8.131 26.6352C8.16351 26.6352 8.18986 26.6074 8.18986 26.5732C8.18986 26.5389 8.16351 26.5111 8.131 26.5111C8.0985 26.5111 8.07214 26.5389 8.07214 26.5732C8.07214 26.6074 8.0985 26.6352 8.131 26.6352Z" fill="white"/>
<path d="M7.19948 26.4017C7.23199 26.4017 7.25834 26.3739 7.25834 26.3396C7.25834 26.3054 7.23199 26.2776 7.19948 26.2776C7.16698 26.2776 7.14062 26.3054 7.14062 26.3396C7.14062 26.3739 7.16698 26.4017 7.19948 26.4017Z" fill="white"/>
<path d="M7.8937 26.4017C7.9262 26.4017 7.95256 26.3739 7.95256 26.3396C7.95256 26.3054 7.9262 26.2776 7.8937 26.2776C7.86119 26.2776 7.83484 26.3054 7.83484 26.3396C7.83484 26.3739 7.86119 26.4017 7.8937 26.4017Z" fill="white"/>
<path d="M7.19948 26.8798C7.23199 26.8798 7.25834 26.8521 7.25834 26.8178C7.25834 26.7835 7.23199 26.7557 7.19948 26.7557C7.16698 26.7557 7.14062 26.7835 7.14062 26.8178C7.14062 26.8521 7.16698 26.8798 7.19948 26.8798Z" fill="white"/>
<path d="M7.8937 26.8909C7.9262 26.8909 7.95256 26.8632 7.95256 26.8289C7.95256 26.7946 7.9262 26.7668 7.8937 26.7668C7.86119 26.7668 7.83484 26.7946 7.83484 26.8289C7.83484 26.8632 7.86119 26.8909 7.8937 26.8909Z" fill="white"/>
<path d="M5.11678 27.8806C5.14929 27.8806 5.17564 27.8528 5.17564 27.8185C5.17564 27.7843 5.14929 27.7565 5.11678 27.7565C5.08428 27.7565 5.05792 27.7843 5.05792 27.8185C5.05792 27.8528 5.08428 27.8806 5.11678 27.8806Z" fill="white"/>
<path d="M5.6968 27.8806C5.72931 27.8806 5.75566 27.8528 5.75566 27.8185C5.75566 27.7843 5.72931 27.7565 5.6968 27.7565C5.66429 27.7565 5.63794 27.7843 5.63794 27.8185C5.63794 27.8528 5.66429 27.8806 5.6968 27.8806Z" fill="white"/>
<path d="M6.27675 27.8695C6.30926 27.8695 6.33561 27.8417 6.33561 27.8074C6.33561 27.7731 6.30926 27.7454 6.27675 27.7454C6.24425 27.7454 6.2179 27.7731 6.2179 27.8074C6.2179 27.8417 6.24425 27.8695 6.27675 27.8695Z" fill="white"/>
<path d="M5.35409 27.6359C5.38659 27.6359 5.41294 27.6082 5.41294 27.5739C5.41294 27.5396 5.38659 27.5118 5.35409 27.5118C5.32158 27.5118 5.29523 27.5396 5.29523 27.5739C5.29523 27.6082 5.32158 27.6359 5.35409 27.6359Z" fill="white"/>
<path d="M6.03951 27.6359C6.07202 27.6359 6.09837 27.6082 6.09837 27.5739C6.09837 27.5396 6.07202 27.5118 6.03951 27.5118C6.007 27.5118 5.98065 27.5396 5.98065 27.5739C5.98065 27.6082 6.007 27.6359 6.03951 27.6359Z" fill="white"/>
<path d="M5.3453 28.1141C5.3778 28.1141 5.40415 28.0863 5.40415 28.052C5.40415 28.0178 5.3778 27.99 5.3453 27.99C5.31279 27.99 5.28644 28.0178 5.28644 28.052C5.28644 28.0863 5.31279 28.1141 5.3453 28.1141Z" fill="white"/>
<path d="M6.03951 28.1252C6.07202 28.1252 6.09837 28.0974 6.09837 28.0631C6.09837 28.0289 6.07202 28.0011 6.03951 28.0011C6.007 28.0011 5.98065 28.0289 5.98065 28.0631C5.98065 28.0974 6.007 28.1252 6.03951 28.1252Z" fill="white"/>
<path fill-rule="evenodd" clip-rule="evenodd" d="M8.45801 22.4824L8.85352 22.2891L9.25781 22.4824H8.45801ZM7.2627 22.4824L7.6582 22.2891L8.0625 22.4824H7.2627ZM6.06738 22.4824L6.46289 22.2891L6.86719 22.4824H6.06738ZM8.45801 18.1758L8.85352 18.3691L9.25781 18.1846H8.45801V18.1758ZM7.2627 18.1758L7.6582 18.3691L8.0625 18.1846H7.2627V18.1758ZM6.06738 18.1758L6.46289 18.3691L6.86719 18.1846H6.06738V18.1758Z" fill="white"/>
<path fill-rule="evenodd" clip-rule="evenodd" d="M8.12402 23.0361L7.6582 23.4141L7.19238 23.0361L6.72656 23.4141L6.26074 23.0361V23.2295L6.57715 23.4053L6.41894 23.5986V23.7832H6.57715L6.72656 23.6074L6.88477 23.7832H7.04297V23.6074L6.88477 23.4141L7.19238 23.2295L7.50879 23.4053L7.35059 23.5986V23.7832H7.50879L7.6582 23.6074L7.81641 23.7832H7.96582V23.6074L7.81641 23.4141L8.12402 23.2295L8.43164 23.4053L8.28223 23.5986V23.7832H8.43164L8.58984 23.6074L8.74805 23.7832H8.89746V23.6074L8.74805 23.4141L9.05566 23.2295V23.0273L8.58984 23.4053L8.12402 23.0273V23.0361ZM8.12402 17.6221L7.6582 17.2441L7.19238 17.6221L6.72656 17.2441L6.26074 17.6221V17.4375L6.57715 17.2441L6.41894 17.0684V16.875H6.57715L6.72656 17.0596L6.88477 16.875H7.04297V17.0596L6.88477 17.2529L7.19238 17.4287L7.50879 17.2529L7.35059 17.0596V16.875H7.50879L7.6582 17.0596L7.81641 16.875H7.96582V17.0596L7.81641 17.2529L8.12402 17.4287L8.43164 17.2529L8.28223 17.0596V16.875H8.43164L8.58984 17.0596L8.74805 16.875H8.89746V17.0596L8.74805 17.2529L9.05566 17.4287V17.6221L8.58984 17.2441L8.12402 17.6221V17.6221ZM11.6396 20.7334L12.1494 20.3291L11.6484 19.9248L12.1494 19.5205L11.6484 19.1162H11.8945L12.1494 19.3799L12.3955 19.248H12.6416V19.3887L12.3955 19.5205L12.6416 19.6523V19.793H12.3955L12.1494 19.6523L11.8945 19.9248L12.1494 20.1885L12.3955 20.0654H12.6416V20.1973L12.3955 20.3291L12.6416 20.4609V20.6016H12.3955L12.1494 20.4609L11.8945 20.7334L12.1494 20.9971L12.3955 20.8652H12.6416V21.0059L12.3955 21.1377L12.6416 21.2783V21.4102H12.3955L12.1494 21.2783L11.8945 21.542H11.6484L12.1494 21.1377L11.6484 20.7334H11.6396ZM3.67676 20.7334L3.17578 20.3291L3.67676 19.9248L3.17578 19.5205L3.67676 19.1162H3.42187L3.17578 19.3799L2.92969 19.248H2.66602V19.3887L2.92969 19.5117L2.6748 19.6436V19.7842H2.92969L3.17578 19.6436L3.42187 19.916L3.17578 20.1797L2.92969 20.0566H2.66602V20.1885L2.9209 20.3203L2.66602 20.4521V20.5928H2.92969L3.17578 20.4521L3.42187 20.7246L3.17578 20.9971L2.92969 20.8652H2.66602V20.9971L2.9209 21.1289L2.66602 21.2695V21.4014H2.92969L3.17578 21.2695L3.42187 21.5332H3.67676L3.17578 21.1289L3.67676 20.7246V20.7334Z" fill="#00843D"/>
<path fill-rule="evenodd" clip-rule="evenodd" d="M11.8381 22.1109H12.0405V22.2902H11.8381V22.1109ZM11.6356 22.2902H11.8381V22.4799H11.6468L11.6356 22.2902ZM10.6458 23.2284H10.8482V23.4182H10.6458V23.2284ZM10.8482 23.0387H11.0394V23.2284H10.8482V23.0387ZM4.268 23.0387H4.47047V23.2284H4.25675L4.268 23.0387ZM3.26691 22.1109H3.46938V22.2902H3.26691V22.1109ZM3.46938 22.2902H3.67184V22.4799H3.46938V22.2902ZM3.46938 18.1786H3.67184V18.3684H3.46938V18.1786ZM3.26691 18.3684H3.46938V18.5581H3.26691V18.3684ZM4.47047 17.2509H4.66169V17.4406H4.48172L4.47047 17.2509ZM4.268 17.4406H4.47047V17.6304H4.25675L4.268 17.4406ZM10.6458 17.2509H10.8482V17.4406H10.6458V17.2509ZM10.8482 17.4406H11.0394V17.6304H10.8482V17.4406ZM11.6356 18.1786H11.8381V18.3684H11.6468L11.6356 18.1786ZM11.8381 18.3789H12.0405V18.5581H11.8381V18.3789ZM4.48172 23.2284H4.67294V23.4182H4.48172V23.2284Z" fill="#00843D"/>
<path fill-rule="evenodd" clip-rule="evenodd" d="M4.45311 17.2345H4.678V17.4569H4.48678V17.6467H4.2394L4.25258 17.4243H4.46436L4.45311 17.2345ZM4.49709 17.4243H4.64533V17.2672H4.48778L4.49709 17.4243ZM4.45411 17.4569H4.28337L4.27406 17.614H4.45411V17.4569ZM10.6294 17.2345H10.8645V17.4243H11.0558V17.6467H10.8319V17.4569H10.6294V17.2345ZM10.8645 17.4569V17.614H11.0231V17.4569H10.8645ZM10.8319 17.4243V17.2672H10.6621V17.4243H10.8319ZM3.45302 18.1622H3.68816V18.3847H3.48569V18.5744H3.25055V18.352H3.45302V18.1622ZM3.45302 18.3847H3.28322V18.5418H3.45302V18.3847ZM3.48569 18.352H3.65549V18.1949H3.48569V18.352ZM11.6182 18.1622H11.8544V18.3625H12.0568V18.5744H11.8217V18.3847H11.6314L11.6182 18.1622ZM11.8544 18.3952V18.5418H12.0242V18.3952H11.8544ZM11.8217 18.352V18.1949H11.6529L11.6622 18.352H11.8217ZM3.25055 22.0946H3.48569V22.2738H3.68816V22.4962H3.45302V22.3065H3.25055V22.0946ZM3.48569 22.3065V22.4636H3.65549V22.3065H3.48569ZM3.45302 22.2738V22.1272H3.28322V22.2738H3.45302ZM11.8217 22.0946H12.0568V22.3065H11.8544V22.4962H11.6314L11.6182 22.2738H11.8217V22.0946ZM11.8217 22.3065H11.6529L11.6622 22.4636H11.8217V22.3065ZM11.8544 22.2738H12.0242V22.1272H11.8544V22.2738ZM4.25258 23.0223H4.48678V23.2121H4.68925V23.4345H4.46536V23.2448H4.2394L4.25258 23.0223ZM4.49803 23.2448V23.4018H4.65658V23.2448H4.49803ZM4.45411 23.2121V23.055H4.28337L4.27406 23.2121H4.45411ZM10.8319 23.0223H11.0558V23.2448H10.8645V23.4345H10.6294V23.2121H10.8319V23.0223ZM10.8319 23.2448H10.6621V23.4018H10.8319V23.2448ZM10.8645 23.2121H11.0231V23.055H10.8645V23.2121Z" fill="black"/>
<path fill-rule="evenodd" clip-rule="evenodd" d="M7.05176 20.3291H6.46289V19.96H6.8584V19.6172H7.24512V19.3008H7.64063V19.6963C7.31543 19.6963 7.05176 19.96 7.05176 20.3291V20.3291Z" fill="white"/>
<path fill-rule="evenodd" clip-rule="evenodd" d="M8.22949 20.3291H8.81836V19.96H8.42285V19.6172H8.02734V19.3008H7.64062V19.6963C7.96582 19.6963 8.22949 19.96 8.22949 20.3291V20.3291Z" fill="#FAAE29"/>
<path fill-rule="evenodd" clip-rule="evenodd" d="M8.22949 20.3291H8.81836V20.6982H8.42285V21.041H8.02734V21.3574H7.64062V20.9619C7.96582 20.9619 8.22949 20.6982 8.22949 20.3291V20.3291Z" fill="white"/>
<path fill-rule="evenodd" clip-rule="evenodd" d="M7.05176 20.3291H6.46289V20.6982H6.8584V21.041H7.24512V21.3574H7.64063V20.9619C7.31543 20.9619 7.05176 20.6982 7.05176 20.3291V20.3291Z" fill="#FAAE29"/>
<path fill-rule="evenodd" clip-rule="evenodd" d="M8.22949 20.3291H7.64062V19.6963C7.96582 19.6963 8.22949 19.9863 8.22949 20.3291Z" fill="#00843D"/>
<path fill-rule="evenodd" clip-rule="evenodd" d="M8.22949 20.3291H7.64062V20.9619C7.96582 20.9619 8.22949 20.6807 8.22949 20.3291Z" fill="#CA3745"/>
<path fill-rule="evenodd" clip-rule="evenodd" d="M7.05176 20.3291H7.64063V20.9619C7.31543 20.9619 7.05176 20.6807 7.05176 20.3291V20.3291Z" fill="#00843D"/>
<path fill-rule="evenodd" clip-rule="evenodd" d="M7.05176 20.3291H7.64063V19.6963C7.31543 19.6963 7.05176 19.9863 7.05176 20.3291V20.3291Z" fill="#CA3745"/>
<path fill-rule="evenodd" clip-rule="evenodd" d="M8.25586 22.667L7.6582 22.2891L7.06055 22.667L6.46289 22.2891L5.86523 22.667V22.4824L6.26074 22.2891L6.06738 22.1045V21.9199H6.26074L6.46289 22.1045L6.66504 21.9199H6.86719V22.1045L6.66504 22.2891L7.06055 22.4824L7.46484 22.2891L7.2627 22.1045V21.9199H7.46484L7.6582 22.1045L7.86035 21.9199H8.0625V22.1045L7.86035 22.2891L8.25586 22.4824L8.66016 22.2891L8.45801 22.1045V21.9199H8.66016L8.85351 22.1045L9.05566 21.9199H9.25781V22.1045L9.05566 22.2891L9.45117 22.4824V22.6582L8.85351 22.2891L8.25586 22.667V22.667ZM8.25586 18L7.6582 18.3691L7.06055 18L6.46289 18.3691L5.86523 18V18.1758L6.26074 18.3691L6.06738 18.5537V18.7471H6.26074L6.46289 18.5537L6.66504 18.7471H6.86719V18.5449L6.66504 18.3691L7.06055 18.1758L7.46484 18.3604L7.2627 18.5449V18.7383H7.46484L7.6582 18.5449L7.86035 18.7383H8.0625V18.5449L7.86035 18.3691L8.25586 18.1758L8.66016 18.3604L8.45801 18.5449V18.7383H8.66016L8.85351 18.5449L9.05566 18.7383H9.25781V18.5449L9.05566 18.3691L9.45117 18.1758V17.9912L8.85351 18.3604L8.25586 17.9912V18ZM10.4531 20.7949L10.1543 20.3291L10.4531 19.8633L10.1543 19.3975L10.4531 18.9316H10.3037L10.1543 19.2393L10.0049 19.0811H9.85547V19.2393L10.0049 19.3975L9.85547 19.5557V19.7051H10.0049L10.1543 19.5557L10.3037 19.8633L10.1543 20.1709L10.0049 20.0215H9.85547V20.1709L10.0049 20.3291L9.85547 20.4873V20.6455H10.0049L10.1543 20.4873L10.3037 20.7949L10.1543 21.1113L10.0049 20.9531H9.85547V21.1113L10.0049 21.2607L9.85547 21.4189V21.5771H10.0049L10.1543 21.4189L10.3037 21.7354H10.4531L10.1543 21.2607L10.4531 20.7949V20.7949Z" fill="#00843D"/>
<path fill-rule="evenodd" clip-rule="evenodd" d="M5.86876 18.189L5.08138 18.927V21.7313L5.86876 22.4798H9.4682L10.2556 21.7419V18.9376L9.45695 18.189H5.86876ZM5.66629 17.6198L3.67535 19.4963V21.1831L5.67754 23.0386H9.65942L11.6504 21.1726V19.4858L9.65942 17.6198H5.67754H5.66629Z" fill="#00843D"/>
<path fill-rule="evenodd" clip-rule="evenodd" d="M5.65764 17.598H9.66802L11.6721 19.4764V21.1821L9.66802 23.0604H5.66899L3.65356 21.1927V19.487L5.65764 17.598ZM5.67493 17.6416L3.69712 19.5058V21.1737L5.68607 23.0169H9.6508L11.6286 21.1632V19.4953L9.6508 17.6416H5.67493ZM5.86014 18.1673H9.46555L10.2773 18.9282V21.7513L9.4768 22.5017H5.86005L5.05959 21.7407V18.9176L5.86014 18.1673ZM5.87736 18.2109L5.10315 18.9365V21.722L5.87745 22.4581H9.45958L10.2338 21.7325V18.947L9.44833 18.2109H5.87736Z" fill="black"/>
<path fill-rule="evenodd" clip-rule="evenodd" d="M6.6968 22.6626L7.01175 23.0421L7.3357 22.6626H6.68781H6.6968Z" fill="#FAAE29"/>
<path fill-rule="evenodd" clip-rule="evenodd" d="M7.36157 22.6506L7.01162 23.0606L6.6912 22.6745H6.6878V22.6704L6.68762 22.6702L6.6878 22.67V22.6506H7.36157ZM6.7222 22.6745H7.30984L7.01188 23.0236L6.7222 22.6745Z" fill="black"/>
<path fill-rule="evenodd" clip-rule="evenodd" d="M6.6968 17.9956L7.01175 17.6161L7.3357 17.9956H6.68781H6.6968Z" fill="#FAAE29"/>
<path fill-rule="evenodd" clip-rule="evenodd" d="M7.36157 18.0076L7.01162 17.5976L6.6912 17.9837H6.6878V17.9878L6.68762 17.988L6.6878 17.9882V18.0076H7.36157ZM6.7222 17.9837H7.30984L7.01188 17.6346L6.7222 17.9837Z" fill="black"/>
<path fill-rule="evenodd" clip-rule="evenodd" d="M7.98001 17.9956L8.29496 17.6161L8.61891 17.9956H7.97101H7.98001Z" fill="#FAAE29"/>
<path fill-rule="evenodd" clip-rule="evenodd" d="M8.64477 18.0076L8.29483 17.5976L7.9744 17.9837H7.97101V17.9878L7.97083 17.988L7.97101 17.9882V18.0076H8.64477ZM8.00541 17.9837H8.59304L8.29508 17.6346L8.00541 17.9837Z" fill="black"/>
<path fill-rule="evenodd" clip-rule="evenodd" d="M7.98001 22.6626L8.29496 23.0421L8.61891 22.6626H7.97101H7.98001Z" fill="#FAAE29"/>
<path fill-rule="evenodd" clip-rule="evenodd" d="M8.64477 22.6506L8.29483 23.0606L7.9744 22.6745H7.97101V22.6704L7.97083 22.6702L7.97101 22.67V22.6506H8.64477ZM8.00541 22.6745H8.59304L8.29508 23.0236L8.00541 22.6745Z" fill="black"/>
<path fill-rule="evenodd" clip-rule="evenodd" d="M6.06399 17.9956L6.37894 17.6161L6.70289 17.9956H6.05499H6.06399Z" fill="#CA3745"/>
<path fill-rule="evenodd" clip-rule="evenodd" d="M6.72876 18.0076L6.37881 17.5976L6.05839 17.9837H6.05499V17.9878L6.05481 17.988L6.05499 17.9882V18.0076H6.72876ZM6.08939 17.9837H6.67702L6.37907 17.6346L6.08939 17.9837Z" fill="black"/>
<path fill-rule="evenodd" clip-rule="evenodd" d="M7.33841 17.9956L7.65336 17.6161L7.97731 17.9956H7.32941H7.33841Z" fill="#CA3745"/>
<path fill-rule="evenodd" clip-rule="evenodd" d="M8.00317 18.0076L7.65323 17.5976L7.3328 17.9837H7.3294V17.9878L7.32922 17.988L7.3294 17.9882V18.0076H8.00317ZM7.3638 17.9837H7.95144L7.65348 17.6346L7.3638 17.9837Z" fill="black"/>
<path fill-rule="evenodd" clip-rule="evenodd" d="M8.61282 17.9956L8.92777 17.6161L9.25172 17.9956H8.60382H8.61282Z" fill="#CA3745"/>
<path fill-rule="evenodd" clip-rule="evenodd" d="M9.27758 18.0076L8.92764 17.5976L8.60722 17.9837H8.60382V17.9878L8.60364 17.988L8.60382 17.9882V18.0076H9.27758ZM8.63822 17.9837H9.22585L8.9279 17.6346L8.63822 17.9837Z" fill="black"/>
<path fill-rule="evenodd" clip-rule="evenodd" d="M5.27655 22.1048L5.86705 22.6582H5.27655V22.1048Z" fill="#CA3745"/>
<path fill-rule="evenodd" clip-rule="evenodd" d="M5.25201 22.6826H5.92898L5.25201 22.0481V22.6826ZM5.30101 22.6336V22.1612L5.80505 22.6336H5.30101Z" fill="black"/>
<path fill-rule="evenodd" clip-rule="evenodd" d="M4.86328 20.7949L5.1709 20.3291L4.86328 19.8633L5.16211 19.3975L4.86328 18.9316H5.0127L5.16211 19.2393L5.31152 19.0811H5.46094V19.2393L5.31152 19.3975L5.46094 19.5557V19.7051H5.31152L5.16211 19.5557L5.0127 19.8633L5.16211 20.1709L5.31152 20.0215H5.46094V20.1709L5.31152 20.3291L5.46094 20.4873V20.6455H5.31152L5.16211 20.4873L5.0127 20.7949L5.16211 21.1113L5.31152 20.9531H5.46094V21.1113L5.31152 21.2607L5.46094 21.4189V21.5771H5.31152L5.16211 21.4189L5.0127 21.7354H4.86328L5.16211 21.2607L4.86328 20.7949Z" fill="#00843D"/>
<path fill-rule="evenodd" clip-rule="evenodd" d="M10.6447 19.8249H11.4433L11.6457 19.9957L11.4433 20.1665H10.6559V19.8154L10.6447 19.8249Z" fill="#CA3745"/>
<path fill-rule="evenodd" clip-rule="evenodd" d="M10.6404 19.8404H10.6022L10.6714 19.7821V19.8094H11.4489L11.6698 19.9957L11.4489 20.182H10.6404V19.8404ZM10.6714 19.8404H11.4376L11.6217 19.9957L11.4376 20.151H10.6714V19.8404Z" fill="black"/>
<path fill-rule="evenodd" clip-rule="evenodd" d="M5.27145 18.5581L4.86651 18.9376V21.7314L5.27145 22.1109H4.67529V18.5581H5.27145Z" fill="#CA3745"/>
<path fill-rule="evenodd" clip-rule="evenodd" d="M4.6535 18.5363H5.32653L4.88828 18.947V21.7219L5.32653 22.1326H4.6535V18.5363ZM4.69706 18.5798V22.0891H5.21635L4.84472 21.7408V18.9281L5.21635 18.5798H4.69706Z" fill="black"/>
<path fill-rule="evenodd" clip-rule="evenodd" d="M6.06399 22.6626L6.37894 23.0421L6.70289 22.6626H6.05499H6.06399Z" fill="#CA3745"/>
<path fill-rule="evenodd" clip-rule="evenodd" d="M6.72876 22.6506L6.37881 23.0606L6.05839 22.6745H6.05499V22.6704L6.05481 22.6702L6.05499 22.67V22.6506H6.72876ZM6.08939 22.6745H6.67702L6.37907 23.0236L6.08939 22.6745Z" fill="black"/>
<path fill-rule="evenodd" clip-rule="evenodd" d="M7.33841 22.6626L7.65336 23.0421L7.97731 22.6626H7.32941H7.33841Z" fill="#CA3745"/>
<path fill-rule="evenodd" clip-rule="evenodd" d="M8.00317 22.6506L7.65323 23.0606L7.3328 22.6745H7.3294V22.6704L7.32922 22.6702L7.3294 22.67V22.6506H8.00317ZM7.3638 22.6745H7.95144L7.65348 23.0236L7.3638 22.6745Z" fill="black"/>
<path fill-rule="evenodd" clip-rule="evenodd" d="M8.61282 22.6626L8.92777 23.0421L9.25172 22.6626H8.60382H8.61282Z" fill="#CA3745"/>
<path fill-rule="evenodd" clip-rule="evenodd" d="M9.27758 22.6506L8.92764 23.0606L8.60722 22.6745H8.60382V22.6704L8.60364 22.6702L8.60382 22.67V22.6506H9.27758ZM8.63822 22.6745H9.22585L8.9279 23.0236L8.63822 22.6745Z" fill="black"/>
<path fill-rule="evenodd" clip-rule="evenodd" d="M10.045 18.5581L10.4499 18.9376V21.7314L10.045 22.1109H10.6411V18.5581H10.045Z" fill="#CA3745"/>
<path fill-rule="evenodd" clip-rule="evenodd" d="M10.6629 18.5363H9.98988L10.4281 18.947V21.7219L9.98988 22.1326H10.6629V18.5363ZM10.6193 18.5798V22.0891H10.1001L10.4717 21.7408V18.9281L10.1001 18.5798H10.6193Z" fill="black"/>
<path fill-rule="evenodd" clip-rule="evenodd" d="M10.0486 22.1048L9.45814 22.6582H10.0486V22.1048Z" fill="#CA3745"/>
<path fill-rule="evenodd" clip-rule="evenodd" d="M10.0732 22.6826H9.39621L10.0732 22.0481V22.6826ZM10.0242 22.6336V22.1612L9.52015 22.6336H10.0242Z" fill="black"/>
<path fill-rule="evenodd" clip-rule="evenodd" d="M10.0486 18.5534L9.45814 18H10.0486V18.5534Z" fill="#CA3745"/>
<path fill-rule="evenodd" clip-rule="evenodd" d="M10.0732 17.9756H9.39621L10.0732 18.6101V17.9756ZM10.0242 18.0246V18.497L9.52015 18.0246H10.0242Z" fill="black"/>
<path fill-rule="evenodd" clip-rule="evenodd" d="M5.27655 18.5534L5.86705 18H5.27655V18.5534Z" fill="#CA3745"/>
<path fill-rule="evenodd" clip-rule="evenodd" d="M5.25201 17.9756H5.92898L5.25201 18.6101V17.9756ZM5.30101 18.0246V18.497L5.80505 18.0246H5.30101Z" fill="black"/>
<path fill-rule="evenodd" clip-rule="evenodd" d="M5.86875 18.189L5.08137 18.927V21.7313L5.86875 22.4798H9.46819L10.2556 21.7418V18.9375L9.45694 18.189H5.86875ZM5.86875 17.9993L4.87891 18.927V21.7313L5.86875 22.6696H9.46819L10.458 21.7313V18.927L9.45694 17.9993H5.86875Z" fill="#00843D"/>
<path fill-rule="evenodd" clip-rule="evenodd" d="M5.86013 17.9775H9.46547L10.4798 18.9175V21.7407L9.47686 22.6914H5.86006L4.85712 21.7407V18.9176L5.86013 17.9775ZM5.87735 18.0211L4.90068 18.9365V21.722L5.87742 22.6479H9.4595L10.4362 21.722V18.9366L9.44839 18.0211H5.87735ZM5.86013 18.1673H9.46554L10.2773 18.9282V21.7513L9.47679 22.5017H5.86004L5.05959 21.7407V18.9176L5.86013 18.1673ZM5.87735 18.2109L5.10314 18.9365V21.722L5.87744 22.4581H9.45957L10.2338 21.7325V18.947L9.44832 18.2109H5.87735Z" fill="black"/>
<path fill-rule="evenodd" clip-rule="evenodd" d="M10.6447 20.1599H11.4433L11.6457 20.3307L11.4433 20.5015H10.6559V20.1504L10.6447 20.1599Z" fill="#FAAE29"/>
<path fill-rule="evenodd" clip-rule="evenodd" d="M10.6404 20.1753H10.6022L10.6714 20.1169V20.1443H11.4489L11.6698 20.3306L11.4489 20.5169H10.6404V20.1753ZM10.6714 20.1753H11.4376L11.6217 20.3306L11.4376 20.4859H10.6714V20.1753Z" fill="black"/>
<path fill-rule="evenodd" clip-rule="evenodd" d="M10.6447 20.4929H11.4433L11.6457 20.6637L11.4433 20.8345H10.6559V20.4834L10.6447 20.4929Z" fill="#CA3745"/>
<path fill-rule="evenodd" clip-rule="evenodd" d="M10.6404 20.5084H10.6022L10.6714 20.4501V20.4774H11.4489L11.6698 20.6637L11.4489 20.85H10.6404V20.5084ZM10.6714 20.5084H11.4376L11.6217 20.6637L11.4376 20.819H10.6714V20.5084Z" fill="black"/>
<path fill-rule="evenodd" clip-rule="evenodd" d="M10.6447 20.8278H11.4433L11.6457 20.9987L11.4433 21.1695H10.6559V20.8184L10.6447 20.8278Z" fill="#FAAE29"/>
<path fill-rule="evenodd" clip-rule="evenodd" d="M10.6404 20.8432H10.6022L10.6714 20.7849V20.8123H11.4489L11.6698 20.9986L11.4489 21.1849H10.6404V20.8432ZM10.6714 20.8432H11.4376L11.6217 20.9986L11.4376 21.1539H10.6714V20.8432Z" fill="black"/>
<path fill-rule="evenodd" clip-rule="evenodd" d="M10.6447 19.4831H11.4433L11.6457 19.6539L11.4433 19.8247H10.6559V19.4736L10.6447 19.4831Z" fill="#FAAE29"/>
<path fill-rule="evenodd" clip-rule="evenodd" d="M10.6404 19.4985H10.6022L10.6714 19.4402V19.4675H11.4489L11.6698 19.6538L11.4489 19.8401H10.6404V19.4985ZM10.6714 19.4985H11.4376L11.6217 19.6538L11.4376 19.8091H10.6714V19.4985Z" fill="black"/>
<path fill-rule="evenodd" clip-rule="evenodd" d="M4.67175 19.8249H3.87313L3.67066 19.9957L3.87313 20.1665H4.6605V19.8154L4.67175 19.8249Z" fill="#CA3745"/>
<path fill-rule="evenodd" clip-rule="evenodd" d="M4.67602 19.8404H4.71417L4.64503 19.7821V19.8094H3.86748L3.64664 19.9957L3.86748 20.182H4.67602V19.8404ZM4.64503 19.8404H3.87881L3.69471 19.9957L3.87881 20.151H4.64503V19.8404Z" fill="black"/>
<path fill-rule="evenodd" clip-rule="evenodd" d="M4.67175 20.1599H3.87313L3.67066 20.3307L3.87313 20.5015H4.6605V20.1504L4.67175 20.1599Z" fill="#FAAE29"/>
<path fill-rule="evenodd" clip-rule="evenodd" d="M4.67602 20.1753H4.71417L4.64503 20.1169V20.1443H3.86748L3.64665 20.3306L3.86748 20.5169H4.67602V20.1753ZM4.64503 20.1753H3.87881L3.69471 20.3306L3.87881 20.4859H4.64503V20.1753Z" fill="black"/>
<path fill-rule="evenodd" clip-rule="evenodd" d="M4.67175 20.4929H3.87313L3.67066 20.6637L3.87313 20.8345H4.6605V20.4834L4.67175 20.4929Z" fill="#CA3745"/>
<path fill-rule="evenodd" clip-rule="evenodd" d="M4.67602 20.5084H4.71417L4.64503 20.4501V20.4774H3.86748L3.64664 20.6637L3.86748 20.85H4.67602V20.5084ZM4.64503 20.5084H3.87881L3.69471 20.6637L3.87881 20.819H4.64503V20.5084Z" fill="black"/>
<path fill-rule="evenodd" clip-rule="evenodd" d="M4.67175 20.8278H3.87313L3.67066 20.9987L3.87313 21.1695H4.6605V20.8184L4.67175 20.8278Z" fill="#FAAE29"/>
<path fill-rule="evenodd" clip-rule="evenodd" d="M4.67602 20.8432H4.71417L4.64503 20.7849V20.8123H3.86748L3.64665 20.9986L3.86748 21.1849H4.67602V20.8432ZM4.64503 20.8432H3.87881L3.69471 20.9986L3.87881 21.1539H4.64503V20.8432Z" fill="black"/>
<path fill-rule="evenodd" clip-rule="evenodd" d="M4.67175 19.4831H3.87313L3.67066 19.6539L3.87313 19.8247H4.6605V19.4736L4.67175 19.4831Z" fill="#FAAE29"/>
<path fill-rule="evenodd" clip-rule="evenodd" d="M4.67602 19.4985H4.71417L4.64503 19.4402V19.4675H3.86748L3.64665 19.6538L3.86748 19.8401H4.67602V19.4985ZM4.64503 19.4985H3.87881L3.69471 19.6538L3.87881 19.8091H4.64503V19.4985Z" fill="black"/>
<path fill-rule="evenodd" clip-rule="evenodd" d="M3.46936 18.3789V22.2796H4.47045V23.2179H10.8482V22.2796H11.8381V18.3789H10.8482V17.4512H4.47045V18.3789H3.46936ZM3.67183 18.5581V22.1109H4.66167V23.0387H10.6457V22.1109H11.6468V18.5581H10.6457V17.6409H4.66167V18.5687H3.67183V18.5581Z" fill="#970000"/>
<path fill-rule="evenodd" clip-rule="evenodd" d="M4.4541 17.4348H10.8645V18.3626H11.8544V22.2959H10.8645V23.2342H4.4541V22.2959H3.453V18.3626H4.4541V17.4348ZM4.48677 17.4675V18.3952H3.48567V22.2633H4.48677V23.2016H10.8318V22.2633H11.8217V18.3952H10.8318V17.4675H4.48677ZM4.64532 17.6246H10.6621V18.5418H11.6631V22.1273H10.6621V23.055H4.64532V22.1273H3.65547V18.5581H3.67181V18.5523H4.64532V17.6246ZM3.68814 18.585V22.0946H4.67799V23.0223H10.6294V22.0946H11.6305V18.5744H10.6294V17.6572H4.67799V18.585H3.68814Z" fill="black"/>
<path fill-rule="evenodd" clip-rule="evenodd" d="M12.6376 3.7799L12.0414 3.06009V2.52277L11.4452 1.98544H10.2529L9.25184 1.44812H6.06858L5.06749 1.98544H3.87517L3.27902 2.52277V3.06009L2.68286 3.76976V5.21952L3.27902 5.9292V6.47666L3.87517 7.01398H5.06749L6.06858 7.55131H9.25184L10.2529 7.01398H11.4452L12.0526 6.47666V5.93934L12.6488 5.21952V3.76976L12.6376 3.7799Z" fill="#CA3745"/>
<path fill-rule="evenodd" clip-rule="evenodd" d="M6.06452 1.43213H9.25583L10.2569 1.96945H11.4514L12.0574 2.51567V3.05435L12.6392 3.75685L12.6648 3.73379V5.22532L12.0686 5.94513V6.4839L11.4513 7.03003H10.2569L9.25583 7.56735H6.06452L5.06343 7.03003H3.86899L3.26297 6.48381V5.93506L2.66681 5.22539V3.76396L3.26297 3.05428V2.51567L3.86899 1.96945H5.06343L6.06452 1.43213ZM12.6328 3.79928L12.0253 3.06589V2.52992L11.4391 2.00149H10.2489L9.24777 1.46417H6.07258L5.07148 2.00149H3.88129L3.295 2.52992V3.06595L2.69885 3.77563V5.21372L3.295 5.92339V6.46956L3.88129 6.99799H5.07148L6.07258 7.53532H9.24777L10.2489 6.99799H11.4391L12.0366 6.46947V5.93359L12.6328 5.21378V3.79928Z" fill="black"/>
<path fill-rule="evenodd" clip-rule="evenodd" d="M2.87695 4.5V5.03613L3.47461 5.75684V6.29297L4.07227 6.83789H5.26758L6.26953 7.36523H7.6582V4.50879H2.87695V4.5Z" fill="#FAAE29"/>
<path fill-rule="evenodd" clip-rule="evenodd" d="M5.97949 5.75684L5.25 6.22266H4.81055L4.95996 6.37207L4.66992 6.67969L4.81934 6.83789L5.25879 6.67969L5.39941 6.83789L5.46094 6.4248L6.26953 5.93262L5.97949 5.75684V5.75684Z" fill="#CA3745"/>
<path fill-rule="evenodd" clip-rule="evenodd" d="M5.17969 5.39648L4.4502 5.8623H4.01953L4.16016 6.01172L3.87891 6.31934L4.01953 6.47754L4.45898 6.31934L4.59961 6.47754L4.66992 6.06445L5.46973 5.58105L5.17969 5.40527V5.39648ZM4.78418 4.67578L4.05469 5.1416H3.61523L3.76465 5.2998L3.47461 5.60742L3.62402 5.75684L4.06348 5.59863L4.2041 5.75684L4.26562 5.34375L5.07422 4.86035L4.78418 4.68457V4.67578Z" fill="#CA3745"/>
<path fill-rule="evenodd" clip-rule="evenodd" d="M12.4395 4.5V3.96387L11.8418 3.24316V2.70703L11.2441 2.16211H10.0488L9.05566 1.62598H7.6582V4.5H12.4395V4.5Z" fill="#FAAE29"/>
<path fill-rule="evenodd" clip-rule="evenodd" d="M7.6582 7.37402H7.28906L6.86719 7.01367H6.18164L5.8125 6.83789L5.99707 6.66211L6.36621 6.83789H6.73535L7.10449 6.29297L7.6582 6.46875V6.83789H7.10449L7.6582 7.36523V7.37402Z" fill="#CA3745"/>
<path fill-rule="evenodd" clip-rule="evenodd" d="M2.87695 4.5V3.96387L3.47461 3.24316V2.70703L4.07227 2.16211H5.26758L6.26953 1.62598H7.6582V4.5H2.87695V4.5Z" fill="white"/>
<path fill-rule="evenodd" clip-rule="evenodd" d="M7.6582 1.62598H7.28906L6.86719 1.97754H6.18164L5.8125 2.16211L5.99707 2.33789L6.36621 2.16211H6.73535L7.10449 2.70703L7.6582 2.53125V2.16211H7.10449L7.6582 1.62598Z" fill="#CA3745"/>
<path fill-rule="evenodd" clip-rule="evenodd" d="M7.6582 1.62598H8.02734L8.45801 1.97754H9.13477L9.50391 2.16211L9.32812 2.33789L8.9502 2.16211H8.58105L8.21191 2.70703L7.6582 2.53125V2.16211H8.21191L7.6582 1.62598V1.62598Z" fill="#CA3745"/>
<path fill-rule="evenodd" clip-rule="evenodd" d="M12.4395 4.5V5.03613L11.8418 5.75684V6.29297L11.2441 6.83789H10.0488L9.05566 7.36523H7.6582V4.50879H12.4395V4.5Z" fill="white"/>
<path fill-rule="evenodd" clip-rule="evenodd" d="M7.6582 7.37402H8.02734L8.45801 7.01367H9.13477L9.50391 6.83789L9.32812 6.66211L8.95019 6.83789H8.58105L8.21191 6.29297L7.6582 6.46875V6.83789H8.21191L7.6582 7.36523V7.37402ZM5.17969 3.59473L4.4502 3.1377H4.01953L4.16016 2.98828L3.87891 2.68066L4.01953 2.52246L4.45898 2.68066L4.59961 2.52246L4.66992 2.93555L5.46973 3.41895L5.17969 3.59473V3.59473ZM9.3457 3.24316L10.0664 2.77734H10.5059L10.3564 2.62793L10.6465 2.32031L10.5059 2.16211L10.0664 2.32031L9.92578 2.16211L9.85547 2.5752L9.05566 3.06738L9.3457 3.24316V3.24316Z" fill="#CA3745"/>
<path fill-rule="evenodd" clip-rule="evenodd" d="M5.97949 3.24316L5.25 2.77734H4.81055L4.95996 2.62793L4.66992 2.32031L4.81934 2.16211L5.25879 2.32031L5.39941 2.16211L5.46094 2.5752L6.26953 3.05859L5.97949 3.23437V3.24316ZM4.77539 4.32422L4.0459 3.8584H3.60645L3.75586 3.7002L3.46582 3.39258L3.63281 3.25195L4.07227 3.41016L4.21289 3.25195L4.27441 3.66504L5.08301 4.14844L4.79297 4.32422H4.77539Z" fill="#CA3745"/>
<path fill-rule="evenodd" clip-rule="evenodd" d="M3.2373 4.5H3.41309L3.59766 4.67578L3.78223 4.5H7.6582V7.01367H7.48242L7.6582 7.18945V7.38281L7.10449 6.84668V6.6709H7.28906V6.84668H7.47363V6.6709L5.97949 5.87988H4.71387V5.08887L4.16016 4.69336H3.79102L3.60645 4.86914L3.78223 5.04492H3.60645L3.2373 4.51758V4.5Z" fill="white"/>
<path fill-rule="evenodd" clip-rule="evenodd" d="M3.2373 4.5H3.41309L3.59766 4.32422L3.78223 4.5H7.6582V1.98633H7.48242L7.6582 1.81055V1.62598L7.10449 2.16211V2.33789H7.28906V2.16211H7.47363V2.33789L5.97949 3.1377H4.71387V3.91992L4.16016 4.32422H3.79102L3.60645 4.14844L3.78223 3.96387H3.60645L3.2373 4.5Z" fill="#FAAE29"/>
<path fill-rule="evenodd" clip-rule="evenodd" d="M4.07227 4.5H7.6582V6.65332L6.06738 5.75684H4.87207V5.03613L4.08105 4.5H4.07227Z" fill="#00843D"/>
<path fill-rule="evenodd" clip-rule="evenodd" d="M10.1367 3.60352L10.8662 3.1377H11.3057L11.1563 2.98828L11.4463 2.68066L11.3057 2.52246L10.8662 2.68066L10.7256 2.52246L10.6553 2.93555L9.85547 3.41895L10.1367 3.59473V3.60352ZM10.541 4.32422L11.2705 3.8584H11.7012L11.5518 3.7002L11.8418 3.39258L11.7012 3.24316L11.2617 3.40137L11.1211 3.24316L11.0508 3.65625L10.251 4.13965L10.541 4.31543V4.32422Z" fill="#CA3745"/>
<path fill-rule="evenodd" clip-rule="evenodd" d="M12.0879 4.5H11.9033L11.7187 4.32422L11.5342 4.5H7.6582V1.98633H7.84277L7.6582 1.81055V1.62598L8.21191 2.16211V2.33789H8.02734V2.16211H7.84277V2.33789L9.33691 3.1377H10.6025V3.91992L11.165 4.32422H11.5342L11.71 4.14844L11.5342 3.96387H11.71L12.0879 4.5V4.5Z" fill="white"/>
<path fill-rule="evenodd" clip-rule="evenodd" d="M11.2441 4.5H7.6582V2.34668L9.25781 3.24316H10.4531V3.96387L11.2529 4.5H11.2441Z" fill="#00843D"/>
<path fill-rule="evenodd" clip-rule="evenodd" d="M9.3457 5.75684L10.0664 6.22266H10.5059L10.3564 6.37207L10.6465 6.67969L10.5059 6.83789L10.0664 6.67969L9.92578 6.83789L9.85547 6.4248L9.05566 5.93262L9.3457 5.75684V5.75684Z" fill="#CA3745"/>
<path fill-rule="evenodd" clip-rule="evenodd" d="M10.1367 5.39648L10.8662 5.8623H11.3057L11.1563 6.01172L11.4463 6.31934L11.3057 6.47754L10.8662 6.31934L10.7256 6.47754L10.6553 6.06445L9.85547 5.58105L10.1367 5.40527V5.39648ZM10.541 4.67578L11.2705 5.1416H11.7012L11.5518 5.29102L11.8418 5.59863L11.7012 5.75684L11.2617 5.59863L11.1211 5.75684L11.0508 5.34375L10.251 4.86035L10.541 4.68457V4.67578Z" fill="#CA3745"/>
<path fill-rule="evenodd" clip-rule="evenodd" d="M12.0879 4.5H11.9033L11.7187 4.67578L11.5342 4.5H7.6582V7.01367H7.84277L7.6582 7.18945V7.38281L8.21191 6.84668V6.6709H8.02734V6.84668H7.84277V6.6709L9.33691 5.87988H10.6025V5.08887L11.165 4.69336H11.5342L11.71 4.86914L11.5342 5.04492H11.71L12.0879 4.51758V4.5Z" fill="#FAAE29"/>
<path fill-rule="evenodd" clip-rule="evenodd" d="M11.2441 4.5H7.6582V6.65332L9.25781 5.75684H10.4531V5.03613L11.2529 4.5H11.2441ZM4.07227 4.5H7.6582V2.34668L6.06738 3.24316H4.87207V3.96387L4.08105 4.5H4.07227Z" fill="#CA3745"/>
<path fill-rule="evenodd" clip-rule="evenodd" d="M8.05371 4.5L9.05566 3.96387H9.65332L9.45117 3.78809L9.85547 3.41895L9.65332 3.24316L9.05566 3.41895L8.85351 3.24316L8.76562 3.72656L7.6582 4.28906L8.05371 4.5V4.5ZM7.2627 4.5L6.26953 5.03613H5.67187L5.86523 5.21191L5.46973 5.58105L5.67187 5.75684L6.26953 5.58105L6.46289 5.75684L6.55078 5.27344L7.6582 4.71094L7.2627 4.5Z" fill="#CA3745"/>
<path fill-rule="evenodd" clip-rule="evenodd" d="M7.2627 4.5L6.26953 3.96387H5.67187L5.87402 3.78809L5.47852 3.41895L5.68066 3.24316L6.27832 3.41895L6.47168 3.24316L6.55957 3.72656L7.66699 4.28906L7.27148 4.5H7.2627ZM8.05371 4.5L9.05566 5.03613H9.65332L9.45117 5.21191L9.85547 5.58105L9.65332 5.75684L9.05566 5.58105L8.85351 5.75684L8.76562 5.27344L7.6582 4.71094L8.05371 4.5V4.5Z" fill="#00843D"/>
<path fill-rule="evenodd" clip-rule="evenodd" d="M6.46289 4.5L7.6582 3.60352L8.85352 4.5L7.6582 5.39648L6.46289 4.5V4.5Z" fill="white"/>
<path fill-rule="evenodd" clip-rule="evenodd" d="M3.78223 4.86035L3.9668 5.03613L3.79102 5.21191H3.59766L3.04395 4.5H3.22852L3.59766 5.03613H3.78223L3.60644 4.86035L3.78223 4.68457H4.16016V4.86035H3.79102H3.78223Z" fill="#CA3745"/>
<path fill-rule="evenodd" clip-rule="evenodd" d="M3.78223 4.13965L3.9668 3.96387L3.79102 3.78809H3.59766L3.04395 4.5H3.22852L3.59766 3.96387H3.78223L3.60644 4.13965L3.78223 4.31543H4.16016V4.13965H3.79102H3.78223ZM11.5342 4.86035L11.3584 5.03613L11.5342 5.21191H11.7188L12.2725 4.5H12.0967L11.7188 5.03613H11.543L11.7188 4.86035L11.543 4.68457H11.165V4.86035H11.5342V4.86035Z" fill="#CA3745"/>
<path fill-rule="evenodd" clip-rule="evenodd" d="M11.543 4.13965L11.3496 3.96387L11.5342 3.78809H11.7188L12.2725 4.5H12.0967L11.7188 3.96387H11.543L11.7188 4.13965L11.543 4.31543H11.165V4.13965H11.5342H11.543ZM7.47363 3.78809H7.84277V5.2207H7.47363V3.78809Z" fill="#CA3745"/>
<path fill-rule="evenodd" clip-rule="evenodd" d="M6.91992 4.13965H8.39648V4.86035H6.91992V4.13965Z" fill="#CA3745"/>
<path fill-rule="evenodd" clip-rule="evenodd" d="M5.97202 31.798L2.66003 33.6238V36.5992L6.00327 38.425H9.31525L12.6272 36.5992V33.6238L9.31525 31.8318H6.00327L5.97202 31.798Z" fill="#00843D"/>
<path fill-rule="evenodd" clip-rule="evenodd" d="M5.97533 31.7776L6.01039 31.8155H9.31938L12.6435 33.6141V36.6088L9.31945 38.4413H5.99913L2.6438 36.6088V33.6142L5.97533 31.7776ZM2.6763 33.6334V36.5896L6.00743 38.4088H9.31108L12.611 36.5896V33.6335L9.31115 31.848H5.99617L5.96874 31.8183L2.6763 33.6334Z" fill="black"/>
<path fill-rule="evenodd" clip-rule="evenodd" d="M3.91406 34.8311H4.10742V34.4531H4.51172V34.8223H4.71387V33.9609H4.51172V34.3301H4.11621V33.9609H3.91406V34.8223V34.8311ZM9.00293 37.6963H9.20508V37.3271H9.60059V37.6963H9.80273V36.8262H9.60938V37.1953H9.20508V36.8262H9.01172V37.6875L9.00293 37.6963ZM5.78613 33.3896H5.98828V33.0293H6.39258V33.3984H6.58594V32.5371H6.39258V32.9062H5.98828V32.5371H5.78613V33.3984V33.3896ZM8.73047 33.3896H8.93262V33.0293H9.33691V33.3984H9.53906V32.5371H9.33691V32.9062H8.93262V32.5371H8.73047V33.3984V33.3896ZM10.6113 34.8311H10.8047V34.4531H11.209V34.8223H11.4111V33.9609H11.209V34.3301H10.8047V33.9609H10.6113V34.8223V34.8311ZM10.6113 36.2637H10.8047V35.8945H11.209V36.2637H11.4111V35.4023H11.209V35.7715H10.8047V35.4023H10.6113V36.2637Z" fill="#CC0000"/>
<path fill-rule="evenodd" clip-rule="evenodd" d="M7.6582 38.2676V35.1123H12.4834V36.5449L9.25781 38.2676H7.64941H7.6582ZM7.6582 31.9658V35.1123H2.8418V33.6797L6.0498 31.9658H7.6582Z" fill="#FAAE29"/>
<path fill-rule="evenodd" clip-rule="evenodd" d="M7.6582 31.9658V35.1123H12.4834V33.6797L9.25781 31.9658H7.64941H7.6582ZM7.6582 38.2676V35.1123H2.8418V36.5449L6.0498 38.2676H7.6582V38.2676Z" fill="white"/>
<path fill-rule="evenodd" clip-rule="evenodd" d="M10.2344 33.8308H12.1666L10.2344 32.9737V33.8308ZM12.4841 33.6853V35.1165H9.43618V33.9764H8.79212L7.98479 33.5478V32.5452L8.47463 32.1085H7.83058V33.5478H7.6673V31.9711H9.2729L12.4841 33.6853V33.6853Z" fill="#FAAE29"/>
<path fill-rule="evenodd" clip-rule="evenodd" d="M7.66302 31.9668H9.27398L12.4861 33.6815L12.4841 33.6853H12.4884V35.1208H9.43191V33.9807H8.79107L7.98052 33.5504V32.5433L8.4634 32.1128H7.83487V33.5521H7.66302V31.9668ZM12.4798 33.6879L9.27184 31.9754H7.67159V33.5436H7.82631V32.1043H8.48588L7.98908 32.5471V33.5453L8.7932 33.9721H9.44047V35.1122H12.4798V33.6879ZM10.2302 32.9672L12.1684 33.8269L12.1666 33.8351H10.2302V32.9672ZM10.2387 32.9803V33.8266H12.1464L10.2387 32.9803Z" fill="black"/>
<path fill-rule="evenodd" clip-rule="evenodd" d="M6.0498 34.1104V36.123H6.5332L7.6582 36.7031L8.7832 36.123H9.2666V34.1191H8.7832L7.6582 33.5479L6.5332 34.1191H6.0498V34.1104Z" fill="#CA3745"/>
<path fill-rule="evenodd" clip-rule="evenodd" d="M5.09075 36.4026H3.15859L5.09075 37.2597V36.4026ZM2.84109 36.5481V35.1169H5.88902V36.257H6.53307L7.34041 36.6856V37.6882L6.85056 38.1249H7.49462V36.6856H7.6579V38.2623H6.0523L2.84109 36.5481V36.5481Z" fill="#FAAE29"/>
<path fill-rule="evenodd" clip-rule="evenodd" d="M7.66217 38.2666H6.05122L2.83907 36.5519L2.84108 36.5481H2.8368V35.1126H5.89329V36.2527H6.53413L7.34468 36.683V37.6901L6.86179 38.1206H7.49032V36.6813H7.66217V38.2666ZM2.84537 36.5455L6.05336 38.258H7.65361V36.6898H7.49889V38.1291H6.83931L7.33611 37.6863V36.6881L6.53199 36.2613H5.88472V35.1212H2.84537V36.5455ZM5.09502 37.2662L3.15684 36.4065L3.15858 36.3983H5.09502V37.2662ZM5.08646 37.2531V36.4068H3.17879L5.08646 37.2531Z" fill="black"/>
<path fill-rule="evenodd" clip-rule="evenodd" d="M5.09075 33.8308H3.15859L5.09075 32.9737V33.8308ZM2.84109 33.6853V35.1165H5.88902V33.9764H6.53307L7.34041 33.5478V32.5452L6.85056 32.1085H7.49462V33.5478H7.6579V31.9711H6.0523L2.84109 33.6853V33.6853Z" fill="white"/>
<path fill-rule="evenodd" clip-rule="evenodd" d="M7.66217 31.9668H6.05122L2.83907 33.6815L2.84108 33.6853H2.8368V35.1208H5.89329V33.9807H6.53413L7.34468 33.5504V32.5433L6.86179 32.1128H7.49032V33.5521H7.66217V31.9668ZM2.84537 33.6879L6.05336 31.9754H7.65361V33.5436H7.49889V32.1043H6.83931L7.33611 32.5471V33.5453L6.53199 33.9721H5.88472V35.1122H2.84537V33.6879ZM5.09502 32.9672L3.15684 33.8269L3.15858 33.8351H5.09502V32.9672ZM5.08646 32.9803V33.8266H3.17879L5.08646 32.9803Z" fill="black"/>
<path fill-rule="evenodd" clip-rule="evenodd" d="M10.2344 36.4026H12.1666L10.2344 37.2597V36.4026ZM12.4841 36.5481V35.1169H9.43618V36.257H8.79212L7.98479 36.6856V37.6882L8.47463 38.1249H7.83058V36.6856H7.6673V38.2623H9.2729L12.4841 36.5481V36.5481Z" fill="white"/>
<path fill-rule="evenodd" clip-rule="evenodd" d="M7.66302 38.2666H9.27398L12.4861 36.5519L12.4841 36.5481H12.4884V35.1126H9.43191V36.2527H8.79107L7.98052 36.683V37.6901L8.4634 38.1206H7.83487V36.6813H7.66302V38.2666ZM12.4798 36.5455L9.27184 38.258H7.67159V36.6898H7.82631V38.1291H8.48588L7.98908 37.6863V36.6881L8.7932 36.2613H9.44047V35.1212H12.4798V36.5455ZM10.2302 37.2662L12.1684 36.4065L12.1666 36.3983H10.2302V37.2662ZM10.2387 37.2531V36.4068H12.1464L10.2387 37.2531Z" fill="black"/>
<path fill-rule="evenodd" clip-rule="evenodd" d="M3.80859 36.2637H4.00195V35.8242H4.40625V36.2637H4.6084V35.2617H4.40625V35.6924H4.00195V35.2529H3.80859V36.2637ZM5.7334 37.6963H5.93555V37.2568H6.33105V37.6963H6.5332V36.6943H6.33105V37.125H5.93555V36.6855H5.7334V37.7051V37.6963ZM3.7998 33.9697H4.00195V34.4004H4.40625V33.9609H4.6084V34.9805H4.40625V34.541H4.00195V34.9717H3.80859V33.9697H3.7998ZM5.7334 32.5371H5.93555V32.9678H6.33105V32.5283H6.5332V33.5391H6.33105V33.1084H5.93555V33.5479H5.7334V32.5371ZM8.7832 37.6963H8.98535V37.2568H9.38965V37.6963H9.5918V36.6943H9.38965V37.125H8.98535V36.6855H8.7832V37.7051V37.6963ZM10.7168 34.9717H10.9189V34.541H11.3145V34.9805H11.5166V33.9697H11.3145V34.4004H10.9277V33.9609H10.7256V34.9805L10.7168 34.9717Z" fill="#CA3745"/>
<path fill-rule="evenodd" clip-rule="evenodd" d="M8.7832 37.6963H8.98535V37.2568H9.38965V37.6963H9.5918V36.6943H9.38965V37.125H8.98535V36.6855H8.7832V37.7051V37.6963Z" fill="#CA3745"/>
<path fill-rule="evenodd" clip-rule="evenodd" d="M8.7832 37.6963H8.98535V37.2568H9.38965V37.6963H9.5918V36.6943H9.38965V37.125H8.98535V36.6855H8.7832V37.7051V37.6963ZM10.7168 36.2637H10.9189V35.8242H11.3145V36.2637H11.5166V35.2617H11.3145V35.6836H10.9277V35.2529H10.7256V36.2637H10.7168ZM8.7832 33.5391H8.98535V33.1084H9.38965V33.5479H9.5918V32.5371H9.38965V32.9678H8.98535V32.5283H8.7832V33.5391Z" fill="#CA3745"/>
<path fill-rule="evenodd" clip-rule="evenodd" d="M7.8252 35.1123L8.4668 34.585H8.7832V34.8486H8.4668V34.9805H8.9502V34.4619H8.4668V34.0664H7.8252V34.4619H7.9834V34.1982H8.29981V34.4619L7.6582 34.9893L7.0166 34.4619V34.1982H7.3418V34.4619H7.5V34.0664H6.8584V34.4619H6.375V34.9893H6.8584V34.8574H6.5332V34.5938H6.8584L7.5 35.1211L6.8584 35.6396H6.5332V35.376H6.8584V35.2441H6.375V35.7715H6.8584V36.1582H7.5V35.7715H7.3418V36.0352H7.0166V35.7715L7.6582 35.2441L8.29981 35.7715V36.0352H7.9834V35.7715H7.8252V36.1582H8.4668V35.7715H8.9502V35.2441H8.4668V35.376H8.7832V35.6396H8.4668L7.8252 35.1123Z" fill="white"/>
<path fill-rule="evenodd" clip-rule="evenodd" d="M3.15592 12.9121L3.46434 12.592H5.33301L6.72997 11.1853H8.59864L9.9956 12.6004H11.8643L12.1727 12.9121L11.8643 13.2237H9.98653L8.58957 14.6388H6.7209L5.33301 13.2237H3.45527L3.14685 12.9121H3.15592Z" fill="#CA3745"/>
<path fill-rule="evenodd" clip-rule="evenodd" d="M3.31439 12.9378L3.4833 12.7846H5.40891L6.85312 11.2991H8.45779L9.91044 12.7923H11.836L11.9965 12.9454L11.836 13.0909H9.91044L8.61825 14.431H6.69265L5.40891 13.0909H3.47486L3.31439 12.9378V12.9378Z" fill="#CA3745"/>
<path fill-rule="evenodd" clip-rule="evenodd" d="M6.84805 11.287H8.46291L9.91556 12.7802H11.8409L12.0142 12.9456L11.8407 13.1029H9.91559L8.62341 14.443H6.68753L5.40379 13.1029H3.47005L3.30609 12.9465L3.31442 12.9377L3.30632 12.9288L3.47868 12.7725H5.40384L6.84805 11.287ZM3.33213 12.938L3.47972 13.0788H5.41409L6.69783 14.4189H8.61316L9.90534 13.0788H11.8314L11.9788 12.9452L11.8312 12.8043H9.90537L8.45272 11.3111H6.85824L5.41403 12.7967H3.48799L3.33213 12.938Z" fill="black"/>
<path fill-rule="evenodd" clip-rule="evenodd" d="M8.44442 13.0722L9.06126 13.6955L8.75284 14.0072L8.58956 13.8555H8.44442V14.0072L8.59863 14.1672H8.91612L9.22454 13.8555V13.5355L8.59863 12.9121L9.22454 12.2804V11.9687L8.91612 11.6571H8.59863L8.44442 11.8087V11.9687H8.59863L8.76191 11.8087L9.07033 12.1288L8.44442 12.7521L7.82758 12.1288L8.44442 11.497V11.337H8.29021L7.67337 11.9687L7.04746 11.337H6.89325V11.497L7.51009 12.1288L6.89325 12.7521L6.26733 12.1288L6.58483 11.8087L6.73904 11.9687H6.89325V11.8087L6.73904 11.6571H6.42154L6.11312 11.9687V12.2804L6.73904 12.9121L6.11312 13.5355V13.8555L6.42154 14.1672H6.73904L6.89325 14.0072V13.8555H6.72089L6.56668 14.0072L6.24919 13.6955L6.8751 13.0722L7.49194 13.6955L6.8751 14.3272V14.4789H7.02931L7.65523 13.8555L8.27207 14.4789H8.42628V14.3272L7.80944 13.6955L8.42628 13.0722H8.44442ZM7.6643 12.2804L7.03838 12.9121L7.6643 13.5355L8.28114 12.9121L7.6643 12.2804ZM6.72996 14.6389V15.9024L6.88417 15.7339L7.03838 15.9024L7.1926 15.7339L7.34681 15.9024L7.51009 15.7339L7.6643 15.9024L7.81851 15.7339L7.97272 15.9024L8.12693 15.7339L8.28114 15.9024L8.43535 15.7339L8.59863 15.9024V14.6389H6.72089H6.72996ZM8.59863 11.1854V9.92188L8.43535 10.0903L8.28114 9.92188L8.12693 10.0903L7.97272 9.92188L7.81851 10.0903L7.6643 9.92188L7.50102 10.0903L7.34681 9.92188L7.1926 10.0903L7.03838 9.92188L6.88417 10.0903L6.72996 9.92188V11.1854H8.59863V11.1854ZM11.2293 12.6005V11.337L11.0841 11.5054L10.9299 11.337L10.7757 11.5054L10.6124 11.337L10.4582 11.5054L10.304 11.337L10.1498 11.5054L9.99559 11.337V12.6005H11.2383H11.2293ZM5.333 12.6005V11.337L5.16972 11.5054L5.01551 11.337L4.8613 11.5054L4.70709 11.337L4.55288 11.5054L4.39867 11.337L4.23539 11.5054L4.08118 11.337V12.6005H5.32393H5.333ZM11.2383 13.2238V14.4873L11.0841 14.3188L10.9299 14.4873L10.7757 14.3188L10.6124 14.4873L10.4582 14.3188L10.304 14.4873L10.1498 14.3188L9.99559 14.4873V13.2238H11.2383V13.2238ZM5.32393 13.2238V14.4873L5.16972 14.3188L5.01551 14.4873L4.8613 14.3188L4.70709 14.4873L4.55288 14.3188L4.39867 14.4873L4.23539 14.3188L4.08118 14.4873V13.2238H5.32393V13.2238Z" fill="#FAAE29"/>
<path fill-rule="evenodd" clip-rule="evenodd" d="M8.58958 14.6389V15.4222L8.75286 15.2622L8.90707 15.4307L9.06128 15.2622L9.21549 15.4307L9.3697 15.2622L9.52391 15.4307L9.68719 15.2622L9.8414 15.4307L9.99561 15.2622V13.2238L8.58958 14.6389V14.6389ZM6.72998 14.6389V15.4222L6.5667 15.2622L6.41249 15.4307L6.25828 15.2622L6.10407 15.4307L5.94986 15.2622L5.79565 15.4307L5.64144 15.2622L5.48723 15.4307L5.32395 15.2622V13.2238L6.72998 14.6389V14.6389ZM6.72998 11.1853V10.402L6.5667 10.5536L6.41249 10.402L6.25828 10.5536L6.10407 10.402L5.94986 10.5536L5.79565 10.402L5.64144 10.5536L5.48723 10.402L5.32395 10.5536V12.6004L6.72998 11.1853V11.1853ZM8.58958 11.1853V10.402L8.75286 10.5536L8.90707 10.402L9.06128 10.5536L9.21549 10.402L9.3697 10.5536L9.52391 10.402L9.67812 10.5536L9.8414 10.402L9.99561 10.5536V12.6004L8.58958 11.1853V11.1853ZM4.08119 14.1672L3.92698 14.0071L3.77277 14.1756L3.61856 14.0071L3.46435 14.1756L3.31014 14.0071L3.14686 14.1756L2.99265 14.0071L2.83844 14.1756V11.6486L2.99265 11.8171L3.14686 11.6486L3.31014 11.8171L3.46435 11.6486L3.61856 11.8171L3.77277 11.6486L3.92698 11.8171L4.08119 11.6486V12.6004H3.46435L3.14686 12.9121L3.46435 13.2238H4.08119V14.1672V14.1672ZM11.2384 14.1672L11.3926 14.0071L11.5468 14.1756L11.701 14.0071L11.8643 14.1756L12.0185 14.0071L12.1727 14.1756L12.3269 14.0071L12.4811 14.1756V11.6486L12.3269 11.8171L12.1727 11.6486L12.0185 11.8171L11.8643 11.6486L11.701 11.8171L11.5468 11.6486L11.3926 11.8171L11.2384 11.6486V12.6004H11.8643L12.1727 12.9121L11.8643 13.2238H11.2384V14.1672V14.1672Z" fill="#00843D"/>
<path fill-rule="evenodd" clip-rule="evenodd" d="M5.95896 14.7399C5.95896 14.7399 5.83197 14.8578 5.83197 14.9252C5.83197 14.9842 5.96804 15.1105 6.03153 15.1105C6.1041 15.1105 6.22203 14.9842 6.22203 14.9252C6.22203 14.8662 6.09503 14.7399 6.09503 14.7399V14.4872C6.09503 14.4872 6.36717 14.9168 6.36717 14.7315C6.36717 14.5967 6.09503 14.3693 6.09503 14.3693H5.95896C5.95896 14.3693 5.68683 14.6388 5.68683 14.7315C5.68683 14.9168 5.95896 14.4872 5.95896 14.4872V14.7399V14.7399Z" fill="white"/>
<path fill-rule="evenodd" clip-rule="evenodd" d="M7.58266 15.22C7.58266 15.22 7.42845 15.3885 7.42845 15.4727C7.42845 15.5569 7.59173 15.7422 7.6643 15.7422C7.75501 15.7422 7.89108 15.5654 7.89108 15.4811C7.89108 15.3969 7.73687 15.22 7.73687 15.22V14.8662C7.73687 14.8662 8.00901 15.439 8.00901 15.1779C8.00901 15.0094 7.73687 14.6978 7.73687 14.6978H7.58266C7.58266 14.6978 7.26517 15.0852 7.31053 15.1779C7.31053 15.439 7.58266 14.8662 7.58266 14.8662V15.22V15.22Z" fill="#CA3745"/>
<path d="M5.94714 13.0626C6.11683 13.0626 6.25439 12.9911 6.25439 12.903C6.25439 12.8149 6.11683 12.7434 5.94714 12.7434C5.77745 12.7434 5.63989 12.8149 5.63989 12.903C5.63989 12.9911 5.77745 13.0626 5.94714 13.0626Z" fill="#00843D"/>
<path d="M7.66162 13.0626C7.83131 13.0626 7.96887 12.9911 7.96887 12.903C7.96887 12.8149 7.83131 12.7434 7.66162 12.7434C7.49193 12.7434 7.35437 12.8149 7.35437 12.903C7.35437 12.9911 7.49193 13.0626 7.66162 13.0626Z" fill="#00843D"/>
<path d="M9.367 13.0626C9.53669 13.0626 9.67425 12.9911 9.67425 12.903C9.67425 12.8149 9.53669 12.7434 9.367 12.7434C9.19731 12.7434 9.05975 12.8149 9.05975 12.903C9.05975 12.9911 9.19731 13.0626 9.367 13.0626Z" fill="#00843D"/>
<path fill-rule="evenodd" clip-rule="evenodd" d="M5.93172 11.1011C5.93172 11.1011 5.80472 10.9747 5.80472 10.9158C5.80472 10.8568 5.94079 10.722 5.99522 10.722C6.06779 10.722 6.18571 10.8484 6.18571 10.9074C6.18571 10.9747 6.05872 11.1011 6.05872 11.1011V11.3538C6.05872 11.3538 6.33992 10.9158 6.33992 11.1011C6.33992 11.2359 6.06779 11.4717 6.06779 11.4717H5.93172C5.93172 11.4717 5.65051 11.2022 5.65051 11.1095C5.65051 10.9242 5.92265 11.3454 5.92265 11.3454V11.0927L5.93172 11.1011Z" fill="white"/>
<path fill-rule="evenodd" clip-rule="evenodd" d="M7.54638 10.6126C7.54638 10.6126 7.39217 10.4441 7.39217 10.3599C7.39217 10.2756 7.56453 10.0988 7.62802 10.0988C7.71874 10.0988 7.86388 10.2672 7.86388 10.3515C7.86388 10.4357 7.70967 10.621 7.70967 10.621V10.9579C7.70967 10.9579 7.9818 10.3936 7.9818 10.6547C7.9818 10.8232 7.70967 11.1432 7.70967 11.1432H7.53731C7.53731 11.1432 7.21982 10.7473 7.26518 10.6547C7.26518 10.402 7.53731 10.9664 7.53731 10.9664V10.6126H7.54638Z" fill="#CA3745"/>
<path fill-rule="evenodd" clip-rule="evenodd" d="M9.26991 14.7399C9.26991 14.7399 9.14291 14.8579 9.14291 14.9253C9.14291 14.9842 9.27898 15.1106 9.34248 15.1106C9.41505 15.1106 9.53297 14.9842 9.53297 14.9253C9.53297 14.8663 9.40597 14.7399 9.40597 14.7399V14.4872C9.40597 14.4872 9.67811 14.9168 9.67811 14.7315C9.67811 14.5967 9.40597 14.3693 9.40597 14.3693H9.26084C9.26084 14.3693 8.9887 14.6389 8.9887 14.7315C8.9887 14.9168 9.26084 14.4872 9.26084 14.4872V14.7399H9.26991ZM9.24269 11.1011C9.24269 11.1011 9.1157 10.9747 9.1157 10.9074C9.1157 10.8568 9.25176 10.722 9.30619 10.722C9.37876 10.722 9.49669 10.8484 9.49669 10.9074C9.49669 10.9747 9.36969 11.1011 9.36969 11.1011V11.3538C9.36969 11.3538 9.6509 10.9158 9.6509 11.1011C9.6509 11.2359 9.37876 11.4717 9.37876 11.4717H9.24269C9.24269 11.4717 8.96149 11.2022 8.96149 11.1095C8.96149 10.9242 9.23362 11.3454 9.23362 11.3454V11.0927L9.24269 11.1011Z" fill="white"/>
<path fill-rule="evenodd" clip-rule="evenodd" d="M4.60732 13.8639C4.60732 13.8639 4.43497 13.9818 4.43497 14.0323C4.43497 14.0913 4.61639 14.2177 4.69803 14.2092C4.78874 14.2092 4.95202 14.0997 4.95202 14.0408C4.95202 13.9818 4.77967 13.8639 4.77967 13.8639V13.628C4.77967 13.628 5.08809 14.0071 5.08809 13.8386C5.08809 13.7207 4.77967 13.5101 4.77967 13.5101H4.60732C4.60732 13.5101 4.25354 13.7796 4.30797 13.8386C4.30797 14.0071 4.60732 13.628 4.60732 13.628V13.8639V13.8639ZM4.57103 12.0866C4.57103 12.0866 4.39868 11.9686 4.39868 11.9097C4.39868 11.8507 4.5801 11.7328 4.66175 11.7412C4.75246 11.7412 4.91574 11.8507 4.91574 11.9097C4.91574 11.9686 4.74339 12.0781 4.74339 12.0781V12.314C4.74339 12.314 5.05181 11.9349 5.05181 12.1118C5.05181 12.2213 4.74339 12.4319 4.74339 12.4319H4.57103C4.57103 12.4319 4.21726 12.1708 4.27168 12.1118C4.27168 11.9434 4.57103 12.314 4.57103 12.314V12.0866V12.0866ZM10.5852 13.8218C10.5852 13.8218 10.4038 13.9397 10.4038 13.9986C10.4038 14.0576 10.5943 14.1755 10.6759 14.1755C10.7667 14.1755 10.9299 14.0576 10.9299 14.0071C10.9299 13.9397 10.7485 13.8218 10.7485 13.8218V13.5943C10.7485 13.5943 11.0569 13.9734 11.0569 13.7965C11.0569 13.687 10.7576 13.4764 10.7576 13.4764H10.5762C10.5762 13.4764 10.2315 13.7375 10.2768 13.7965C10.2768 13.9734 10.5852 13.5943 10.5852 13.5943V13.8302V13.8218ZM10.5489 12.0529C10.5489 12.0529 10.3675 11.9349 10.3675 11.876C10.3675 11.817 10.558 11.6991 10.6397 11.6991C10.7304 11.6991 10.8937 11.817 10.8937 11.8676C10.8937 11.9349 10.7122 12.0445 10.7122 12.0445V12.2803C10.7122 12.2803 11.0206 11.9013 11.0206 12.0697C11.0206 12.1876 10.7213 12.3982 10.7213 12.3982H10.5399C10.5399 12.3982 10.1952 12.1371 10.2405 12.0781C10.2405 11.9013 10.5489 12.2803 10.5489 12.2803V12.0445V12.0529Z" fill="#CA3745"/>
<path fill-rule="evenodd" clip-rule="evenodd" d="M3.33734 13.847C3.28292 13.7375 3.30106 13.687 3.30106 13.628C3.30106 13.5691 3.45527 13.4596 3.5097 13.4596C3.58227 13.4596 3.70019 13.5775 3.70019 13.6449C3.70019 13.7038 3.70019 13.7544 3.67298 13.8639L3.60041 13.687C3.50063 13.9397 3.49155 13.9397 3.43713 13.6786L3.34642 13.847H3.33734ZM3.33734 12.036C3.29199 12.1455 3.30106 12.1961 3.30106 12.255C3.30106 12.314 3.45527 12.4235 3.51877 12.4235C3.59134 12.4235 3.70926 12.3056 3.70926 12.2382C3.70926 12.1792 3.70926 12.1287 3.68205 12.0192L3.60041 12.1961C3.5097 11.9434 3.50063 11.9434 3.43713 12.2045L3.34642 12.036H3.33734ZM11.7282 13.8218C11.6738 13.7123 11.6828 13.6617 11.6828 13.6028C11.6828 13.5438 11.8461 13.4343 11.9005 13.4343C11.9731 13.4343 12.091 13.5607 12.091 13.6196C12.091 13.6786 12.091 13.7375 12.0638 13.8386L11.9822 13.6617C11.8915 13.9144 11.8824 13.9229 11.8189 13.6617L11.7282 13.8218ZM11.7282 12.0192C11.6738 12.1203 11.6919 12.1708 11.6919 12.2382C11.6919 12.2887 11.8461 12.4067 11.9005 12.4067C11.9731 12.4067 12.1001 12.2803 12.1001 12.2214C12.1001 12.154 12.1001 12.1034 12.0729 11.9939L11.9822 12.1792C11.8915 11.9181 11.8915 11.9097 11.828 12.1792L11.7373 12.0108L11.7282 12.0192Z" fill="white"/>
<path fill-rule="evenodd" clip-rule="evenodd" d="M6.7028 15.9359V15.4811H5.25141V14.5882H3.9633V14.2934H2.83848V11.598H3.9633V11.3032H5.25141V10.4103H6.7028V9.96387H8.62589V10.4103H10.0773V11.3032H11.3563V11.6064H12.4902V14.2934H11.3654V14.5882H10.0864V15.4811H8.63497V15.9275H6.71187L6.7028 15.9359ZM6.53952 16.0791V15.6327H5.08813V14.7398H3.80909V14.4366H2.68427V11.4548H3.80909V11.16H5.08813V10.2587H6.53952V9.81226H8.78918V10.2587H10.2406V11.16H11.5196V11.4548H12.6444V14.4366H11.5196V14.7398H10.2315V15.6327H8.78011V16.0791H6.53952V16.0791Z" fill="#CA3745"/>
<path fill-rule="evenodd" clip-rule="evenodd" d="M6.53513 9.80786H8.79352V10.2543H10.2449V11.1556H11.524V11.4504H12.6488V14.4409H11.524V14.7442H10.2358V15.637H8.78445V16.0834H6.5395V16.0791H6.53513V15.637H5.08374V14.7442H3.8047V14.4409H2.67987V11.4504H3.8047V11.1556H5.08374V10.2543H6.53513V9.80786ZM6.54387 16.0747H8.77571V15.6283H10.2271V14.7354H11.5152V14.4322H12.64V11.4591H11.5152V11.1643H10.2362V10.263H8.78478V9.8166H6.54387V10.263H5.09248V11.1643H3.81344V11.4591H2.68861V14.4322H3.81344V14.7354H5.09248V15.6283H6.54387V16.0747ZM6.69841 9.95948H8.63024V10.4059H10.0816V11.2988H11.3607V11.602H12.4946V14.2977H11.3697V14.5925H10.0907V15.4854H8.63931V15.9318H6.71357L6.69841 15.9459V15.4854H5.24702V14.5925H3.95891V14.2977H2.83408V11.5936H3.95891V11.2988H5.24702V10.4059H6.69841V9.95948ZM6.70715 9.96822V10.4146H5.25576V11.3075H3.96765V11.6023H2.84282V14.289H3.96765V14.5838H5.25576V15.4767H6.70715V15.9259L6.71013 15.9231H8.63057V15.4767H10.082V14.5838H11.361V14.289H12.4858V11.6107H11.3519V11.3075H10.0729V10.4146H8.6215V9.96822H6.70715Z" fill="black"/>
</g>
<defs>
<clipPath id="clip0_4_403">
<rect width="60" height="45" fill="white"/>
</clipPath>
</defs>
</svg>
