<svg width="60" height="45" viewBox="0 0 60 45" fill="none" xmlns="http://www.w3.org/2000/svg">
<g clip-path="url(#clip0_4_1645)">
<path fill-rule="evenodd" clip-rule="evenodd" d="M0 0H85.5V3.46289H0V0ZM0 6.92578H85.5V10.3887H0V6.92578ZM0 13.8428H85.5V17.3145H0V13.8428ZM0 20.7686H85.5V24.2314H0V20.7686ZM0 27.6943H85.5V31.1572H0V27.6943ZM0 34.6113H85.5V38.0742H0V34.6113ZM0 41.5371H85.5V45H0V41.5371Z" fill="#BD3D44"/>
<path fill-rule="evenodd" clip-rule="evenodd" d="M0 3.46289H85.5V6.92578H0V3.46289ZM0 10.3887H85.5V13.8428H0V10.3887ZM0 17.3057H85.5V20.7686H0V17.3057ZM0 24.2314H85.5V27.6943H0V24.2314ZM0 31.1572H85.5V34.6201H0V31.1572ZM0 38.0742H85.5V41.5371H0V38.0742Z" fill="white"/>
<path fill-rule="evenodd" clip-rule="evenodd" d="M0 0H34.1982V24.2314H0V0Z" fill="#192F5D"/>
<path fill-rule="evenodd" clip-rule="evenodd" d="M2.84766 1.03711L3.16406 1.99512H4.16602L3.35742 2.58398L3.66504 3.55078L2.84766 2.95312L2.03906 3.54199L2.34668 2.58398L1.5293 1.99512H2.54883L2.84766 1.03711ZM8.55176 1.03711L8.85938 1.99512H9.87012L9.05273 2.58398L9.36035 3.55078L8.55176 2.95312L7.73438 3.54199L8.04199 2.58398L7.2334 1.99512H8.23535L8.55176 1.03711ZM14.2471 1.03711L14.5635 1.99512H15.5566L14.748 2.58398L15.0557 3.55078L14.2383 2.95312L13.4297 3.54199L13.7373 2.58398L12.9199 1.99512H13.9307L14.2471 1.03711ZM19.9512 1.03711L20.2588 1.99512H21.2695L20.4521 2.58398L20.7686 3.55078L19.9512 2.95312L19.1338 3.54199L19.4502 2.58398L18.6328 1.99512H19.6348L19.9512 1.03711ZM25.6465 1.03711L25.9629 1.99512H26.9648L26.1563 2.58398L26.4639 3.55078L25.6465 2.95312L24.8379 3.54199L25.1455 2.58398L24.3369 1.99512H25.3389L25.6465 1.03711ZM31.3506 1.03711L31.6582 1.99512H32.6689L31.8516 2.58398L32.168 3.55078L31.3506 2.95312L30.5332 3.54199L30.8496 2.58398L30.0322 1.99512H31.043L31.3506 1.03711ZM5.7041 3.46289L6.01172 4.4209H7.02246L6.20508 5.00977L6.50391 5.96777L5.71289 5.37891L4.89551 5.96777L5.18555 5.00977L4.39453 4.4209H5.39648L5.7041 3.46289ZM11.3994 3.46289L11.7158 4.4209H12.7178L11.9004 5.00977L12.2168 5.96777L11.3994 5.37891L10.582 5.96777L10.8984 5.00977L10.0811 4.4209H11.0918L11.3994 3.46289ZM17.1035 3.46289L17.4111 4.4209H18.4219L17.6045 5.00977L17.9121 5.96777L17.1035 5.37891L16.2861 5.96777L16.5938 5.00977L15.7852 4.4209H16.7871L17.1035 3.46289ZM22.7988 3.46289L23.1152 4.4209H24.1172L23.2998 5.00977L23.6162 5.96777L22.7988 5.37891L21.9902 5.96777L22.2979 5.00977L21.4805 4.4209H22.5L22.7988 3.46289ZM28.5029 3.46289L28.8105 4.4209H29.8213L29.0039 5.00977L29.3115 5.96777L28.5029 5.37891L27.6855 5.96777L27.9932 5.00977L27.1846 4.4209H28.1865L28.5029 3.46289ZM2.84766 5.87988L3.16406 6.85547H4.16602L3.35742 7.44434L3.66504 8.40234L2.84766 7.80469L2.03906 8.40234L2.34668 7.43555L1.5293 6.84668H2.54883L2.84766 5.87988ZM8.55176 5.87988L8.85938 6.84668H9.87012L9.05273 7.43555L9.36035 8.39355L8.55176 7.7959L7.73438 8.39355L8.04199 7.42676L7.2334 6.83789H8.23535L8.55176 5.87988ZM14.2471 5.87988L14.5635 6.84668H15.5566L14.748 7.43555L15.0557 8.39355L14.2383 7.7959L13.4297 8.39355L13.7373 7.42676L12.9199 6.83789H13.9307L14.2471 5.87988ZM19.9512 5.87988L20.2588 6.84668H21.2695L20.4521 7.43555L20.7686 8.39355L19.9512 7.7959L19.1338 8.39355L19.4502 7.42676L18.6328 6.83789H19.6348L19.9512 5.87988ZM25.6465 5.87988L25.9629 6.84668H26.9648L26.1563 7.43555L26.4639 8.39355L25.6465 7.7959L24.8379 8.39355L25.1455 7.42676L24.3369 6.83789H25.3389L25.6465 5.87988ZM31.3506 5.87988L31.6582 6.84668H32.6689L31.8516 7.43555L32.168 8.39355L31.3506 7.7959L30.5332 8.39355L30.8496 7.42676L30.0322 6.83789H31.043L31.3506 5.87988ZM5.7041 8.30566L6.01172 9.26367H7.02246L6.20508 9.85254L6.5127 10.8193L5.7041 10.2217L4.88672 10.8105L5.19434 9.85254L4.38574 9.26367H5.3877L5.7041 8.30566ZM11.3994 8.30566L11.7158 9.26367H12.7178L11.9004 9.85254L12.2168 10.8193L11.3994 10.2217L10.582 10.8105L10.8984 9.85254L10.0811 9.26367H11.0918L11.3994 8.30566ZM17.1035 8.30566L17.4111 9.26367H18.4219L17.6045 9.85254L17.9121 10.8193L17.1035 10.2217L16.2861 10.8105L16.5938 9.85254L15.7852 9.26367H16.7871L17.1035 8.30566ZM22.7988 8.30566L23.1152 9.26367H24.1172L23.3086 9.85254L23.6162 10.8193L22.7988 10.2217L21.9902 10.8105L22.2979 9.85254L21.4805 9.26367H22.5L22.7988 8.30566ZM28.5029 8.30566L28.8105 9.26367H29.8213L29.0039 9.85254L29.3115 10.8193L28.5029 10.2217L27.6855 10.8105L27.9932 9.85254L27.1846 9.26367H28.1865L28.5029 8.30566ZM2.84766 10.7314L3.16406 11.6895H4.16602L3.35742 12.2783L3.66504 13.2451L2.84766 12.6475L2.03906 13.2363L2.34668 12.2783L1.5293 11.6895H2.54883L2.84766 10.7314ZM8.55176 10.7314L8.85938 11.6895H9.87012L9.05273 12.2783L9.36035 13.2363L8.55176 12.6475L7.73438 13.2363L8.04199 12.2783L7.2334 11.6895H8.23535L8.55176 10.7314ZM14.2471 10.7314L14.5635 11.6895H15.5566L14.748 12.2783L15.0557 13.2451L14.2383 12.6475L13.4297 13.2363L13.7373 12.2783L12.9199 11.6895H13.9307L14.2471 10.7314ZM19.9512 10.7314L20.2588 11.6895H21.2695L20.4521 12.2783L20.7686 13.2451L19.9512 12.6475L19.1338 13.2363L19.4502 12.2783L18.6328 11.6895H19.6348L19.9512 10.7314ZM25.6465 10.7314L25.9629 11.6895H26.9648L26.1563 12.2783L26.4639 13.2451L25.6465 12.6475L24.8379 13.2363L25.1455 12.2783L24.3369 11.6895H25.3389L25.6465 10.7314ZM31.3506 10.7314L31.6582 11.6895H32.6689L31.8516 12.2783L32.168 13.2451L31.3506 12.6475L30.5332 13.2363L30.8496 12.2783L30.0322 11.6895H31.043L31.3506 10.7314ZM5.7041 13.1572L6.01172 14.1152H7.02246L6.20508 14.7041L6.5127 15.6621L5.7041 15.0645L4.88672 15.6621L5.19434 14.6953L4.38574 14.1064H5.3877L5.7041 13.1572ZM11.3994 13.1572L11.7158 14.1152H12.7178L11.9004 14.7041L12.2168 15.6621L11.3994 15.0645L10.582 15.6621L10.8984 14.6953L10.0811 14.1064H11.0918L11.3994 13.1572ZM17.1035 13.1572L17.4111 14.1152H18.4219L17.6045 14.7041L17.9121 15.6621L17.1035 15.0645L16.2861 15.6621L16.5938 14.6953L15.7852 14.1064H16.7871L17.1035 13.1572ZM22.7988 13.1572L23.1152 14.1152H24.1172L23.3086 14.7041L23.6162 15.6621L22.7988 15.0645L21.9902 15.6621L22.2979 14.6953L21.4805 14.1064H22.5L22.7988 13.1572ZM28.5029 13.1572L28.8105 14.1152H29.8213L29.0039 14.7041L29.3115 15.6621L28.5029 15.0645L27.6855 15.6621L27.9932 14.6953L27.1846 14.1064H28.1865L28.5029 13.1572ZM2.84766 15.5742L3.16406 16.541H4.16602L3.35742 17.1299L3.66504 18.0791L2.84766 17.4902L2.03906 18.0791L2.34668 17.1211L1.5293 16.5322H2.54883L2.84766 15.5742ZM8.55176 15.5742L8.85938 16.541H9.87012L9.05273 17.1299L9.36914 18.0791L8.55176 17.4902L7.73438 18.0791L8.05078 17.1211L7.2334 16.5322H8.23535L8.55176 15.5742ZM14.2471 15.5742L14.5635 16.541H15.5566L14.748 17.1299L15.0557 18.0791L14.2383 17.4902L13.4297 18.0791L13.7373 17.1211L12.9199 16.5322H13.9307L14.2471 15.5742ZM19.9512 15.5742L20.2588 16.541H21.2695L20.4521 17.1299L20.7686 18.0791L19.9512 17.4902L19.1338 18.0791L19.4502 17.1211L18.6328 16.5322H19.6348L19.9512 15.5742ZM25.6465 15.5742L25.9629 16.541H26.9648L26.1563 17.1299L26.4639 18.0791L25.6465 17.4902L24.8379 18.0791L25.1455 17.1211L24.3369 16.5322H25.3389L25.6465 15.5742ZM31.3506 15.5742L31.6582 16.541H32.6689L31.8516 17.1299L32.168 18.0791L31.3506 17.4902L30.5332 18.0791L30.8496 17.1211L30.0322 16.5322H31.043L31.3506 15.5742ZM5.7041 18L6.01172 18.958H7.02246L6.20508 19.5469L6.5127 20.5137L5.7041 19.916L4.88672 20.5049L5.19434 19.5469L4.38574 18.958H5.3877L5.7041 18ZM11.3994 18L11.7158 18.958H12.7178L11.9004 19.5469L12.2168 20.5137L11.3994 19.916L10.582 20.5049L10.8984 19.5469L10.0811 18.958H11.0918L11.3994 18ZM17.1035 18L17.4111 18.958H18.4219L17.6045 19.5469L17.9121 20.5137L17.1035 19.916L16.2861 20.5049L16.5938 19.5469L15.7852 18.958H16.7871L17.1035 18ZM22.7988 18L23.1152 18.958H24.1172L23.3086 19.5469L23.6162 20.5137L22.7988 19.916L21.9902 20.5049L22.2979 19.5469L21.4805 18.958H22.5L22.7988 18ZM28.5029 18L28.8105 18.958H29.8213L29.0039 19.5469L29.3115 20.5137L28.5029 19.916L27.6855 20.5049L27.9932 19.5469L27.1846 18.958H28.1865L28.5029 18ZM2.84766 20.4258L3.16406 21.3838H4.16602L3.35742 21.9727L3.66504 22.9307L2.84766 22.3418L2.03906 22.9307L2.34668 21.9639L1.5293 21.375H2.54883L2.84766 20.4258ZM8.55176 20.4258L8.85938 21.3838H9.87012L9.05273 21.9727L9.36914 22.9307L8.55176 22.3418L7.73438 22.9307L8.05078 21.9639L7.2334 21.375H8.23535L8.55176 20.4258ZM14.2471 20.4258L14.5635 21.3838H15.5566L14.7656 21.9727L15.0732 22.9307L14.2559 22.3418L13.4473 22.9307L13.7549 21.9639L12.9375 21.375H13.9482L14.2471 20.4258ZM19.9512 20.4258L20.2588 21.3838H21.2695L20.4521 21.9727L20.7686 22.9307L19.9512 22.3418L19.1338 22.9307L19.4502 21.9639L18.6328 21.375H19.6348L19.9512 20.4258ZM25.6465 20.4258L25.9629 21.3838H26.9648L26.1563 21.9727L26.4639 22.9307L25.6465 22.3418L24.8379 22.9307L25.1455 21.9639L24.3369 21.375H25.3389L25.6465 20.4258ZM31.3506 20.4258L31.6582 21.3838H32.6689L31.8516 21.9727L32.168 22.9307L31.3506 22.3418L30.5332 22.9307L30.8496 21.9639L30.0322 21.375H31.043L31.3506 20.4258Z" fill="white"/>
</g>
<defs>
<clipPath id="clip0_4_1645">
<rect width="60" height="45" fill="white"/>
</clipPath>
</defs>
</svg>
