<svg width="60" height="45" viewBox="0 0 60 45" fill="none" xmlns="http://www.w3.org/2000/svg">
<g clip-path="url(#clip0_4_5225)">
<path d="M0 0H60V45H0V0Z" fill="#009543"/>
<path d="M0 0H60V22.5H0V0Z" fill="#D21034"/>
<path d="M0 0L28 18.4738H59.9999V26.5264H28L0 45.0002" fill="black"/>
<path fill-rule="evenodd" clip-rule="evenodd" d="M-2.40717 3.6484L2.40713 -3.64844L29.312 14.1028H64.3708V30.8974H29.312L2.40713 48.6486L-2.40717 41.3517L26.1656 22.5001L-2.40717 3.6484Z" fill="#FDCE12"/>
<path fill-rule="evenodd" clip-rule="evenodd" d="M-1.31299 1.98998L1.31299 -1.99011L28.7156 16.0895H59.9999V20.8578H27.2843L-1.31299 1.98998ZM27.2843 24.1422H59.9999V28.9105H28.7156L1.31299 46.9901L-1.31299 43.0101L27.2843 24.1422Z" fill="black"/>
<path d="M8.06492 26.8106V29.3685C10.2912 29.3685 14.6681 27.6632 14.6681 22.159C14.6681 16.6548 9.99756 15.6316 8.60493 15.6316C7.20282 15.6316 2.89227 16.6358 2.89227 21.1263C2.89227 25.6358 7.12703 26.0527 7.96071 26.0527C8.7944 26.0527 11.9207 25.2948 11.5607 21.9221C11.4674 22.7453 11.0735 23.505 10.4547 24.0557C9.83579 24.6064 9.03544 24.9093 8.20703 24.9064C5.93334 24.9064 4.51228 23.22 4.51228 21.5527C4.51228 19.8853 5.89544 17.6495 8.29229 17.6495C10.6891 17.6495 12.4418 19.7811 12.4418 21.9221C12.4418 24.0727 10.7555 26.8011 8.06492 26.8011V26.8106Z" fill="#FDCE12"/>
<path d="M6.10388 23.4663L6.23651 23.5611C6.23651 23.5611 7.29757 21.1453 10.1302 19.4305C9.77021 19.62 7.87547 20.5674 6.10388 23.4663V23.4663Z" fill="#FDCE12"/>
<path fill-rule="evenodd" clip-rule="evenodd" d="M10.0866 19.4106C10.096 19.4057 10.1046 19.4011 10.1125 19.397L10.1498 19.4629C8.73846 20.3173 7.76845 21.3463 7.15132 22.1617C6.84278 22.5693 6.62253 22.9235 6.47951 23.1755C6.408 23.3015 6.35581 23.4019 6.32155 23.4708C6.30442 23.5052 6.29178 23.5317 6.28344 23.5495C6.27927 23.5585 6.27618 23.5652 6.27415 23.5697L6.27189 23.5747L6.27135 23.5759L6.27122 23.5762L6.25244 23.619L6.08184 23.4971L6.10387 23.4663L6.07153 23.4465C7.80924 20.603 9.66632 19.6306 10.0866 19.4106ZM6.15463 23.456L6.22129 23.5036C6.22946 23.4864 6.24023 23.4641 6.2537 23.437C6.28853 23.367 6.34137 23.2654 6.41359 23.1381C6.55804 22.8836 6.78009 22.5266 7.09089 22.1159C7.13889 22.0525 7.189 21.9878 7.24128 21.922C6.88367 22.3586 6.51672 22.8665 6.15463 23.456Z" fill="#FDCE12"/>
<path d="M6.37859 23.0495C6.37859 23.0495 6.05649 22.3863 6.3407 22.0831C6.62491 21.7895 6.50175 22.8695 6.50175 22.8695L6.62491 22.6895C6.62491 22.6895 6.43544 21.8747 6.64386 21.7042C6.86175 21.5242 6.75754 22.4905 6.75754 22.4905L6.89018 22.32C6.89018 22.32 6.74807 21.5242 6.95649 21.3726C7.17439 21.221 7.04175 22.1305 7.04175 22.1305L7.19333 21.941C7.19333 21.941 7.07965 21.1831 7.33544 21.0031C7.59123 20.8231 7.36386 21.7231 7.36386 21.7231L7.53439 21.5337C7.53439 21.5337 7.4586 20.8421 7.67649 20.681C7.89439 20.5295 7.71439 21.3442 7.71439 21.3442L7.86597 21.1737C7.86597 21.1737 7.8186 20.5295 8.02702 20.3779C8.24492 20.2263 8.04597 20.9937 8.04597 20.9937L8.20702 20.8421C8.20702 20.8421 8.16913 20.1884 8.43439 20.0652C8.69966 19.9421 8.38702 20.6716 8.38702 20.6716L8.5765 20.52C8.5765 20.52 8.62387 19.7621 8.85123 19.6958C9.0786 19.62 8.7565 20.3589 8.7565 20.3589L8.91755 20.2263C8.91755 20.2263 9.00281 19.5821 9.24913 19.5063C9.50492 19.421 9.09755 20.0937 9.09755 20.0937L9.2586 19.9705C9.2586 19.9705 9.43861 19.3263 9.67545 19.2505C9.90282 19.1842 9.42913 19.8663 9.42913 19.8663L9.59018 19.7526C9.59018 19.7526 9.84598 19.1652 10.0639 19.1273C10.2628 19.0895 9.81755 19.6105 9.81755 19.6105L10.0165 19.4968C10.0165 19.4968 10.3481 18.8905 10.4712 19.0705C10.5849 19.26 9.99756 19.5347 9.99756 19.5347L9.80808 19.6484C9.80808 19.6484 10.5186 19.3073 10.6039 19.4779C10.6891 19.6484 9.62808 19.7621 9.62808 19.7621L9.45755 19.8758C9.45755 19.8758 10.1681 19.6863 10.0828 19.8663C9.98808 20.0463 9.28703 20.0084 9.28703 20.0084L9.12597 20.1221C9.12597 20.1221 9.8365 19.9516 9.74176 20.1221C9.64703 20.2737 8.95545 20.2642 8.95545 20.2642L8.78492 20.4063C8.78492 20.4063 9.4765 20.2168 9.37229 20.4347C9.27755 20.6431 8.48176 20.6337 8.48176 20.6337L8.29229 20.8231C8.29229 20.8231 9.02176 20.5674 8.95545 20.7663C8.8986 20.9558 8.06492 21.0505 8.06492 21.0505L7.87544 21.24C7.87544 21.24 8.66176 20.9842 8.42492 21.221C8.19755 21.4674 7.61965 21.5242 7.61965 21.5242L7.40176 21.8084C7.40176 21.8084 8.1786 21.3347 8.06492 21.6C7.96071 21.8653 7.19333 22.0453 7.19333 22.0453L7.04175 22.2347C7.04175 22.2347 7.74281 21.8274 7.66702 22.0453C7.6007 22.2821 6.85228 22.5189 6.85228 22.5189L6.72912 22.6895C6.72912 22.6895 7.55334 22.1968 7.48702 22.4526C7.41123 22.6989 6.62491 22.8789 6.62491 22.8789L6.53017 23.04C6.53017 23.04 7.28807 22.5947 7.28807 22.8126C7.30702 23.021 6.39754 23.2295 6.39754 23.2295L6.37859 23.0495V23.0495Z" fill="#FDCE12"/>
</g>
<defs>
<clipPath id="clip0_4_5225">
<rect width="60" height="45" fill="white"/>
</clipPath>
</defs>
</svg>
