<svg width="60" height="45" viewBox="0 0 60 45" fill="none" xmlns="http://www.w3.org/2000/svg">
<g clip-path="url(#clip0_4_19447)">
<path d="M-0.215622 -0.00939941H92.0951V44.9805H-0.215622V-0.00939941Z" fill="#006400"/>
<path d="M-0.215622 6.41772H92.0951V38.5533H-0.215622V6.41772Z" fill="#FFD200"/>
<path d="M-0.215622 12.8448H92.0951V32.1262H-0.215622V12.8448Z" fill="#D40000"/>
<path d="M-0.215622 19.272H92.0951V25.6991H-0.215622V19.272Z" fill="black"/>
<path d="M-0.215622 -0.00939941V44.9805L30.5546 22.4855L-0.215622 -0.00939941Z" fill="black"/>
<path fill-rule="evenodd" clip-rule="evenodd" d="M-1.3006 -2.14661L32.393 22.4855L-1.3006 47.1176V-2.14661ZM0.86935 2.12774V42.8433L28.7162 22.4855L0.86935 2.12774Z" fill="black"/>
<path d="M-0.215622 -0.00939941V44.9805L30.5546 22.4855L-0.215622 -0.00939941Z" fill="white"/>
<path d="M11.4881 11.1737L17.5872 29.4589L1.63058 18.1578H21.3565L5.38895 29.4589L11.4881 11.1737Z" fill="#D40000"/>
<path d="M8.88358 27.1666L9.96054 26.9738L11.9496 26.8988L12.6859 26.9631L14.3343 27.2309L14.4552 27.0702V25.9133L14.653 24.9171L14.9827 23.9102L15.3453 23.1068L15.8069 22.2713L16.5542 22.4534H16.752L16.774 22.3141L15.1915 20.9965L13.5431 19.7647L11.1584 18.0293L10.9386 17.9758L10.6858 16.1548L10.499 15.6085L10.2463 15.3942L9.77372 15.2443L9.24623 15.2657L9.00447 15.3942L8.49896 15.5013L8.23521 15.5442L8.05938 15.7477L8.0374 16.0048L8.77369 16.0262L8.96051 16.1012L8.93853 16.1762L8.52093 16.2298L8.32313 16.294L8.5539 16.4654L8.79567 16.5511L9.10337 16.6582L9.16931 16.8725L9.19129 19.6361L9.02645 20.0646L8.9715 20.868L9.21327 21.8321L8.59786 22.5176L8.2462 23.1282L8.18026 23.5031L7.99344 23.878L7.97147 24.1137L8.09235 24.3708L8.56489 25.8919L8.80666 27.1452L8.88358 27.1666Z" fill="#FFCC00"/>
<path d="M9.45502 15.2014C9.25721 15.2014 9.1693 15.2228 8.98248 15.3193C8.82768 15.4056 8.65489 15.4569 8.47697 15.4692C8.20223 15.4692 7.98245 15.662 7.98245 15.9084V16.0691L8.37806 16.0584C9.54294 16.0905 8.48796 16.1976 8.40004 16.2083C8.11432 16.2619 8.46598 16.4868 8.80665 16.6047C9.1693 16.7118 9.14732 16.6475 9.14732 18.2115C9.14732 19.4862 9.14732 19.6683 9.03743 19.9575C8.89457 20.386 8.89457 21.0287 9.03743 21.4572C9.10336 21.6285 9.14732 21.7785 9.14732 21.8107C9.14732 21.8321 8.97149 22.0356 8.76269 22.2713C8.37806 22.6997 8.14729 23.1389 8.14729 23.4496C8.13358 23.5495 8.09593 23.6449 8.03739 23.7281C7.89453 23.9102 7.89453 24.2208 8.02641 24.3387C8.16927 24.4672 8.7517 26.6738 8.76269 27.0916C8.76269 27.2416 8.78467 27.2416 9.67481 27.0702C10.4001 26.9309 12.1035 26.8988 12.9716 27.0059C13.3672 27.0595 13.8288 27.1452 13.9936 27.1773C14.5211 27.3166 14.4991 27.338 14.4991 26.7167C14.5032 25.7378 14.6932 24.7681 15.0596 23.8566C15.2696 23.3372 15.5232 22.8357 15.8179 22.357C15.8179 22.357 16.0157 22.3784 16.2574 22.4427C16.708 22.5498 16.8399 22.5391 16.8399 22.3355C16.8399 22.2284 16.3673 21.8428 14.0486 20.086C13.1134 19.3399 12.1493 18.6288 11.1584 17.9544C11.0924 17.9544 11.0265 17.9222 11.0155 17.8794L10.8507 16.8618C10.7737 16.3369 10.6639 15.8227 10.6199 15.7156C10.466 15.3942 10.1693 15.2336 9.67481 15.2014C9.60157 15.1991 9.52827 15.1991 9.45502 15.2014V15.2014ZM9.46601 15.3085H9.6858C10.4111 15.3514 10.543 15.5442 10.7408 16.8082C10.7942 17.1426 10.8381 17.4784 10.8727 17.8151C10.8727 17.9008 10.7737 18.0079 10.521 18.1686C10.1051 18.4531 9.73479 18.796 9.42206 19.1862L9.27919 19.3791L9.24623 18.9292V17.6652C9.27919 16.7332 9.24623 16.6475 8.93852 16.5404C8.68577 16.4547 8.35609 16.369 8.444 16.3155C8.5539 16.2512 8.66379 16.294 8.92753 16.2191C9.03743 16.1976 9.02644 16.2083 9.00446 16.1226C8.98248 15.9834 8.82863 15.9084 8.42202 15.9298C8.09234 15.9513 8.05937 15.9405 8.08135 15.8548C8.12531 15.6835 8.30114 15.5763 8.57587 15.5442C8.74407 15.5252 8.90764 15.4781 9.05941 15.4049C9.18208 15.3331 9.32289 15.296 9.46601 15.2978V15.3085ZM11.1034 18.0722H11.1474C11.3342 18.1043 16.73 22.2177 16.73 22.3355C16.73 22.3784 16.686 22.4105 16.6201 22.4105C16.5761 22.4105 15.2025 22.0356 13.576 21.575C10.9825 20.8252 10.6089 20.718 10.499 20.5788C10.4226 20.4846 10.3801 20.3686 10.3781 20.2485C10.3761 20.1285 10.4147 20.0111 10.488 19.9146C10.5408 19.8522 10.5783 19.779 10.5979 19.7004C10.5979 19.5719 10.3232 19.8932 10.2682 20.0753C10.2133 20.2896 10.3232 20.6538 10.488 20.7716C10.554 20.8252 11.0485 20.9858 11.587 21.1465C12.5101 21.4036 12.576 21.4357 12.62 21.5857C12.7299 21.9392 12.3452 22.357 11.7958 22.4748C11.5897 22.5229 11.3955 22.6102 11.2243 22.7319C10.6542 23.1922 10.0172 23.5676 9.33414 23.8459C9.29018 23.878 9.23524 24.0494 9.20227 24.2101C9.13633 24.5636 9.11435 24.6172 9.00446 24.6172C8.94951 24.6172 8.93852 24.585 8.98248 24.4672C9.05941 24.253 9.04842 23.9959 8.97149 23.9959C8.91654 23.9959 8.89457 24.0709 8.89457 24.1887C8.89457 24.2958 8.8616 24.4243 8.81764 24.4565C8.76269 24.5208 8.7517 24.4779 8.77368 24.2101C8.79566 24.028 8.78467 23.8888 8.76269 23.8888C8.70775 23.8888 8.60884 24.1566 8.57587 24.3922C8.5539 24.5315 8.5539 24.5315 8.50994 24.3601C8.47697 24.2315 8.48796 24.1458 8.58686 23.9852C8.64931 23.8688 8.68671 23.7412 8.69676 23.6102C8.69676 23.471 8.80665 23.3317 9.32315 22.8283C9.65283 22.4962 10.0594 22.0784 10.2023 21.8963C10.4551 21.5964 10.466 21.575 10.4551 21.2643C10.4551 21.093 10.4331 20.9323 10.4111 20.9109C10.3452 20.8466 10.2572 21.1894 10.3012 21.3715C10.3232 21.5429 10.3012 21.5964 9.93856 22.0142C9.67764 22.3053 9.40259 22.5842 9.11435 22.8497C8.68577 23.2353 8.53192 23.4496 8.53192 23.6424C8.53192 23.7067 8.48796 23.8566 8.42202 23.9959C8.35609 24.1351 8.33411 24.2744 8.35609 24.3065C8.37806 24.3387 8.35609 24.3387 8.32312 24.3065C8.26817 24.253 8.26817 24.1673 8.31213 23.9852C8.33729 23.8945 8.34474 23.8 8.33411 23.7067C8.27916 23.5995 8.20224 23.7281 8.16927 23.9959C8.14729 24.1458 8.11432 24.2637 8.08135 24.2422C8.00443 24.1994 8.02641 23.9209 8.12531 23.7709C8.18026 23.6959 8.2352 23.5245 8.26817 23.3853C8.3451 22.989 8.52093 22.6676 8.90555 22.2391C9.02874 22.1084 9.14607 21.9726 9.25721 21.8321L9.14732 21.4786C8.99993 21.0009 8.99232 20.4927 9.12534 20.0111C9.2682 19.604 9.55393 19.197 10.0045 18.7578C10.4441 18.34 10.8727 18.0829 11.1034 18.0722V18.0722ZM12.7518 21.5214C12.7657 21.5204 12.7798 21.5213 12.7931 21.5241C12.8064 21.5269 12.8186 21.5315 12.829 21.5375C12.8394 21.5436 12.8477 21.551 12.8533 21.5593C12.8589 21.5676 12.8618 21.5766 12.8617 21.5857C12.855 21.5983 12.8424 21.6092 12.8256 21.617C12.8089 21.6247 12.7889 21.6288 12.7683 21.6288C12.7478 21.6288 12.7278 21.6247 12.711 21.617C12.6943 21.6092 12.6817 21.5983 12.6749 21.5857C12.6743 21.5709 12.6817 21.5564 12.6957 21.5446C12.7097 21.5329 12.7296 21.5247 12.7518 21.5214V21.5214ZM13.0266 21.5536C13.0405 21.5526 13.0545 21.5535 13.0678 21.5562C13.0811 21.559 13.0933 21.5636 13.1037 21.5697C13.1141 21.5757 13.1224 21.5832 13.128 21.5915C13.1337 21.5998 13.1366 21.6088 13.1365 21.6178C13.1297 21.6304 13.1171 21.6414 13.1004 21.6491C13.0836 21.6568 13.0636 21.661 13.0431 21.661C13.0225 21.661 13.0025 21.6568 12.9858 21.6491C12.969 21.6414 12.9564 21.6304 12.9496 21.6178C12.9491 21.603 12.9564 21.5885 12.9704 21.5768C12.9845 21.5651 13.0043 21.5569 13.0266 21.5536V21.5536ZM13.3123 21.6071C13.3262 21.6061 13.3402 21.607 13.3535 21.6098C13.3668 21.6126 13.3791 21.6172 13.3894 21.6232C13.3998 21.6293 13.4081 21.6367 13.4138 21.645C13.4194 21.6533 13.4223 21.6623 13.4222 21.6714C13.4154 21.684 13.4028 21.6949 13.3861 21.7027C13.3693 21.7104 13.3493 21.7145 13.3288 21.7145C13.3082 21.7145 13.2882 21.7104 13.2715 21.7027C13.2547 21.6949 13.2421 21.684 13.2354 21.6714C13.2348 21.6566 13.2421 21.6421 13.2562 21.6303C13.2702 21.6186 13.29 21.6104 13.3123 21.6071V21.6071ZM13.576 21.6607C13.5899 21.6597 13.604 21.6606 13.6173 21.6634C13.6306 21.6661 13.6428 21.6707 13.6532 21.6768C13.6636 21.6829 13.6719 21.6903 13.6775 21.6986C13.6831 21.7069 13.686 21.7159 13.6859 21.725C13.6792 21.7376 13.6666 21.7485 13.6498 21.7562C13.6331 21.7639 13.6131 21.7681 13.5925 21.7681C13.572 21.7681 13.552 21.7639 13.5352 21.7562C13.5185 21.7485 13.5059 21.7376 13.4991 21.725C13.4985 21.7101 13.5059 21.6956 13.5199 21.6839C13.5339 21.6722 13.5538 21.664 13.576 21.6607ZM12.8837 21.725C12.8976 21.7239 12.9116 21.7249 12.9249 21.7276C12.9382 21.7304 12.9505 21.735 12.9609 21.7411C12.9712 21.7471 12.9795 21.7546 12.9852 21.7629C12.9908 21.7712 12.9937 21.7802 12.9936 21.7892C12.9869 21.8018 12.9742 21.8128 12.9575 21.8205C12.9408 21.8282 12.9207 21.8324 12.9002 21.8324C12.8797 21.8324 12.8596 21.8282 12.8429 21.8205C12.8262 21.8128 12.8135 21.8018 12.8068 21.7892C12.8062 21.7744 12.8136 21.7599 12.8276 21.7482C12.8416 21.7364 12.8614 21.7282 12.8837 21.725ZM13.1475 21.7678C13.1613 21.7668 13.1754 21.7677 13.1887 21.7705C13.202 21.7733 13.2142 21.7778 13.2246 21.7839C13.235 21.79 13.2433 21.7974 13.2489 21.8057C13.2546 21.814 13.2574 21.823 13.2573 21.8321C13.2506 21.8447 13.238 21.8556 13.2212 21.8633C13.2045 21.8711 13.1845 21.8752 13.1639 21.8752C13.1434 21.8752 13.1234 21.8711 13.1066 21.8633C13.0899 21.8556 13.0773 21.8447 13.0705 21.8321C13.07 21.8172 13.0773 21.8027 13.0913 21.791C13.1054 21.7793 13.1252 21.7711 13.1475 21.7678V21.7678ZM13.7189 21.7892C13.7328 21.7882 13.7468 21.7891 13.7601 21.7919C13.7734 21.7947 13.7857 21.7993 13.7961 21.8053C13.8064 21.8114 13.8147 21.8188 13.8204 21.8271C13.826 21.8354 13.8289 21.8444 13.8288 21.8535C13.822 21.8661 13.8094 21.877 13.7927 21.8848C13.7759 21.8925 13.7559 21.8966 13.7354 21.8966C13.7148 21.8966 13.6948 21.8925 13.6781 21.8848C13.6613 21.877 13.6487 21.8661 13.642 21.8535C13.6414 21.8387 13.6488 21.8242 13.6628 21.8124C13.6768 21.8007 13.6966 21.7925 13.7189 21.7892ZM13.4222 21.7892C13.4361 21.7882 13.4501 21.7891 13.4634 21.7919C13.4767 21.7947 13.489 21.7993 13.4993 21.8053C13.5097 21.8114 13.518 21.8188 13.5237 21.8271C13.5293 21.8354 13.5322 21.8444 13.5321 21.8535C13.5253 21.8661 13.5127 21.877 13.496 21.8848C13.4792 21.8925 13.4592 21.8966 13.4387 21.8966C13.4181 21.8966 13.3981 21.8925 13.3814 21.8848C13.3646 21.877 13.352 21.8661 13.3453 21.8535C13.3447 21.8387 13.352 21.8242 13.3661 21.8124C13.3801 21.8007 13.3999 21.7925 13.4222 21.7892V21.7892ZM13.9717 21.8535C13.9826 21.8535 14.3783 21.9392 14.8508 22.0677L15.719 22.3141L15.5541 22.6033C15.462 22.7582 15.3741 22.9153 15.2904 23.0747C15.1805 23.2889 15.1585 23.2889 14.631 23.1711C14.0596 23.0425 13.1584 22.9247 12.2353 22.8497L11.3562 22.7747L11.6859 22.6569C11.8849 22.5822 12.0794 22.4964 12.2683 22.3998C12.4881 22.282 12.576 22.2605 12.9167 22.2927C13.4112 22.3248 13.7409 22.2284 13.8728 22.0356L13.9826 21.8535H13.9717ZM13.0046 21.9178C13.0185 21.9168 13.0325 21.9177 13.0458 21.9204C13.0591 21.9232 13.0714 21.9278 13.0817 21.9339C13.0921 21.9399 13.1004 21.9474 13.1061 21.9557C13.1117 21.964 13.1146 21.973 13.1145 21.982C13.1077 21.9946 13.0951 22.0056 13.0784 22.0133C13.0616 22.021 13.0416 22.0252 13.0211 22.0252C13.0005 22.0252 12.9805 22.021 12.9638 22.0133C12.947 22.0056 12.9344 21.9946 12.9277 21.982C12.9271 21.9672 12.9344 21.9527 12.9485 21.941C12.9625 21.9293 12.9823 21.9211 13.0046 21.9178V21.9178ZM13.62 21.9178C13.6339 21.9168 13.6479 21.9177 13.6612 21.9204C13.6745 21.9232 13.6868 21.9278 13.6972 21.9339C13.7075 21.9399 13.7158 21.9474 13.7215 21.9557C13.7271 21.964 13.73 21.973 13.7299 21.982C13.7216 21.9925 13.709 22.0013 13.6935 22.0075C13.6779 22.0136 13.6601 22.0169 13.642 22.0169C13.6238 22.0169 13.606 22.0136 13.5905 22.0075C13.575 22.0013 13.5624 21.9925 13.5541 21.982C13.5535 21.9672 13.5608 21.9527 13.5749 21.941C13.5889 21.9293 13.6087 21.9211 13.631 21.9178H13.62ZM12.7408 21.9178C12.7547 21.9168 12.7688 21.9177 12.7821 21.9204C12.7954 21.9232 12.8076 21.9278 12.818 21.9339C12.8284 21.9399 12.8367 21.9474 12.8423 21.9557C12.848 21.964 12.8508 21.973 12.8507 21.982C12.844 21.9946 12.8314 22.0056 12.8146 22.0133C12.7979 22.021 12.7779 22.0252 12.7573 22.0252C12.7368 22.0252 12.7168 22.021 12.7 22.0133C12.6833 22.0056 12.6707 21.9946 12.6639 21.982C12.6668 21.9691 12.6757 21.957 12.6895 21.9474C12.7032 21.9379 12.7212 21.9313 12.7408 21.9285V21.9178ZM13.3233 21.9392C13.3487 21.9371 13.3744 21.9416 13.3949 21.9516C13.4154 21.9615 13.4291 21.9763 13.4332 21.9928C13.4264 22.0054 13.4138 22.0163 13.3971 22.024C13.3803 22.0317 13.3603 22.0359 13.3398 22.0359C13.3192 22.0359 13.2992 22.0317 13.2825 22.024C13.2657 22.0163 13.2531 22.0054 13.2464 21.9928C13.2493 21.9798 13.2582 21.9677 13.2719 21.9582C13.2857 21.9486 13.3036 21.942 13.3233 21.9392ZM12.598 22.057C12.6119 22.056 12.6259 22.0569 12.6392 22.0597C12.6525 22.0625 12.6648 22.0671 12.6751 22.0731C12.6855 22.0792 12.6938 22.0866 12.6994 22.0949C12.7051 22.1032 12.708 22.1122 12.7079 22.1213C12.7011 22.1339 12.6885 22.1448 12.6718 22.1526C12.655 22.1603 12.635 22.1644 12.6145 22.1644C12.5939 22.1644 12.5739 22.1603 12.5572 22.1526C12.5404 22.1448 12.5278 22.1339 12.5211 22.1213C12.5205 22.1065 12.5278 22.0919 12.5419 22.0802C12.5559 22.0685 12.5757 22.0603 12.598 22.057V22.057ZM12.8727 22.057C12.8881 22.0557 12.9037 22.0568 12.9184 22.0602C12.933 22.0636 12.9462 22.0692 12.9568 22.0765C12.9675 22.0838 12.9755 22.0926 12.9799 22.1022C12.9844 22.1119 12.9853 22.1221 12.9826 22.132C12.9759 22.1446 12.9632 22.1555 12.9465 22.1633C12.9298 22.171 12.9097 22.1752 12.8892 22.1752C12.8687 22.1752 12.8486 22.171 12.8319 22.1633C12.8152 22.1555 12.8025 22.1446 12.7958 22.132C12.7952 22.1172 12.8026 22.1027 12.8166 22.0909C12.8306 22.0792 12.8504 22.071 12.8727 22.0677V22.057ZM13.1584 22.0784C13.1839 22.0764 13.2095 22.0808 13.23 22.0908C13.2505 22.1008 13.2643 22.1156 13.2683 22.132C13.2616 22.1446 13.249 22.1555 13.2322 22.1633C13.2155 22.171 13.1955 22.1752 13.1749 22.1752C13.1544 22.1752 13.1344 22.171 13.1176 22.1633C13.1009 22.1555 13.0883 22.1446 13.0815 22.132C13.0844 22.119 13.0933 22.107 13.1071 22.0974C13.1208 22.0878 13.1388 22.0812 13.1584 22.0784ZM13.4661 22.0784C13.48 22.0774 13.4941 22.0784 13.5074 22.0811C13.5207 22.0839 13.5329 22.0885 13.5433 22.0945C13.5537 22.1006 13.562 22.1081 13.5676 22.1164C13.5733 22.1247 13.5761 22.1336 13.576 22.1427C13.5693 22.1553 13.5567 22.1662 13.5399 22.174C13.5232 22.1817 13.5032 22.1859 13.4826 22.1859C13.4621 22.1859 13.4421 22.1817 13.4253 22.174C13.4086 22.1662 13.396 22.1553 13.3892 22.1427C13.3887 22.1279 13.396 22.1134 13.41 22.1017C13.424 22.0899 13.4439 22.0817 13.4661 22.0784V22.0784ZM11.2353 22.9461C12.5326 22.9796 13.8238 23.1303 15.0926 23.396C15.1036 23.4067 15.0266 23.6638 14.9058 23.9744L14.686 24.6172C14.675 24.6707 14.5981 24.6707 14.4112 24.6493C13.4991 24.51 10.8617 24.5208 9.85064 24.6707C9.2682 24.7564 9.19128 24.7457 9.23524 24.6279L9.34513 24.253L9.41107 23.9637L10.0045 23.6638C10.4 23.4671 10.7754 23.2339 11.1254 22.9675H11.2243L11.2353 22.9461ZM8.26817 24.4672C8.30114 24.4672 8.36708 24.4993 8.444 24.5529C8.5539 24.6172 8.68577 24.6707 8.74071 24.6707C9.02644 24.6707 9.18029 25.0671 9.42206 26.3846L9.50997 26.8559C9.53195 26.9631 9.50997 26.9845 9.25721 27.038C8.94951 27.1023 8.87259 27.113 8.87259 27.0702C8.87259 26.9631 8.56488 25.6027 8.43301 25.1206C8.36737 24.9083 8.30873 24.6939 8.25718 24.4779C8.25885 24.477 8.26075 24.4765 8.26268 24.4765C8.26461 24.4765 8.2665 24.477 8.26817 24.4779V24.4672ZM11.4111 24.6814H11.7298L11.6199 24.7886C11.4331 25.0028 11.3452 25.0135 11.2133 24.8742C11.167 24.8276 11.1298 24.7732 11.1034 24.7136C11.1034 24.6921 11.2463 24.6707 11.4111 24.6707V24.6814ZM12.0815 24.6814H12.6749L12.543 24.81C12.3892 24.9814 12.3782 24.9814 12.2134 24.81L12.0815 24.6707V24.6814ZM12.9826 24.6814H13.1255C13.2024 24.6814 13.3453 24.6814 13.4332 24.7029L13.598 24.735L13.4442 24.8742C13.3563 24.9492 13.2793 25.0135 13.2683 25.0028L13.1145 24.8314L12.9826 24.6707V24.6814ZM13.9167 24.7136L14.0486 24.7457C14.1255 24.7671 14.2903 24.7778 14.4112 24.7886H14.631L14.4662 24.9278C14.4065 24.9821 14.34 25.0289 14.2684 25.0671C14.2574 25.0671 14.1585 24.9814 14.0816 24.885L13.9167 24.7136V24.7136ZM10.5979 24.7243H10.6199C10.6309 24.7457 10.5869 24.8314 10.51 24.9064L10.4001 25.0563L10.2353 24.9278L10.0704 24.7886L10.3342 24.7564L10.5979 24.7243V24.7243ZM10.8507 24.7457L11.0265 24.8957L11.2023 25.0563L10.8727 25.0778L10.543 25.0885L10.6968 24.9278L10.8507 24.7457ZM12.8288 24.7457C12.8617 24.7457 12.8837 24.7564 12.9167 24.7778C12.9741 24.8306 13.0224 24.8921 13.0595 24.9599C13.1035 25.0456 13.0925 25.0671 12.9496 25.0671L12.6749 25.0135L12.543 24.9814L12.6859 24.8421C12.7518 24.7778 12.7958 24.735 12.8398 24.735L12.8288 24.7457ZM11.9166 24.7457C11.9716 24.7457 12.0265 24.7778 12.0925 24.885C12.1694 25.0028 12.1694 25.0028 11.8727 25.0028H11.576L11.7298 24.8635C11.8067 24.7886 11.8727 24.7564 11.9166 24.7564V24.7457ZM13.7848 24.7671L13.9167 24.8957C14.0706 25.0349 14.0925 25.1206 13.9826 25.1099L13.6749 25.0778L13.4332 25.0563L13.609 24.9171L13.7848 24.7671V24.7671ZM9.91658 24.8421C9.93856 24.8421 10.0265 24.8957 10.0924 24.9707L10.2243 25.1099L9.94955 25.1528L9.56492 25.2063C9.48799 25.2277 9.50997 25.1742 9.67481 25.0349C9.7847 24.9278 9.8946 24.8421 9.91658 24.8421ZM9.50997 24.8421H9.55393C9.64184 24.8635 9.64184 24.885 9.48799 25.0349L9.32315 25.1956L9.2682 25.0563C9.22425 24.9492 9.23524 24.9171 9.33414 24.8742C9.39045 24.8539 9.44991 24.843 9.50997 24.8421V24.8421ZM14.5651 25.0349C14.5871 25.0349 14.5871 25.0563 14.5651 25.0992C14.5431 25.1849 14.4442 25.2063 14.4442 25.1206C14.4442 25.0992 14.4772 25.0671 14.5211 25.0456H14.5541L14.5651 25.0349ZM12.2134 25.2063C13.0595 25.2063 13.9167 25.2277 14.1255 25.2492C14.4662 25.292 14.4991 25.3027 14.4991 25.4313C14.4991 25.5812 14.4552 25.5919 13.9936 25.517C13.8618 25.4848 13.3013 25.442 12.7628 25.3991C11.7177 25.3375 10.669 25.3734 9.63085 25.5062C9.42206 25.5277 9.36711 25.5062 9.36711 25.442C9.36711 25.3027 10.488 25.2063 12.2134 25.2063V25.2063ZM11.0815 25.517H11.6749L11.543 25.6562C11.3782 25.8276 11.3672 25.8276 11.2133 25.6562L11.0815 25.517ZM11.8507 25.517L12.0046 25.6669L12.1584 25.8383L11.8397 25.849H11.521L11.6859 25.6776L11.8397 25.517H11.8507ZM12.0815 25.517H12.6749L12.543 25.6562C12.3892 25.8276 12.3782 25.8276 12.2134 25.6562L12.0815 25.517ZM10.6748 25.517C10.6968 25.517 10.6748 25.5705 10.5979 25.6776C10.521 25.774 10.4441 25.849 10.4331 25.849C10.4111 25.849 10.3342 25.7848 10.2682 25.7098L10.1364 25.5705H10.3342C10.4347 25.571 10.5348 25.5566 10.6309 25.5277C10.6454 25.5248 10.6603 25.5248 10.6748 25.5277V25.517ZM10.8946 25.5705L11.0375 25.6991L11.2023 25.8383L10.9166 25.8597L10.5979 25.8812L10.7518 25.7205L10.8946 25.5705V25.5705ZM12.8068 25.5705L12.9606 25.7419C13.1365 25.924 13.1255 25.9347 12.7299 25.8597L12.543 25.8276L12.6749 25.6991L12.8068 25.5705V25.5705ZM13.0266 25.5705H13.2903C13.576 25.5705 13.609 25.6134 13.4442 25.7633C13.3123 25.8705 13.3123 25.8705 13.1584 25.7098L13.0266 25.5705V25.5705ZM9.66382 25.6241C9.79569 25.6241 9.7847 25.6348 9.61986 25.7955C9.49898 25.9133 9.48799 25.9133 9.44403 25.8276C9.41107 25.7205 9.50997 25.6348 9.66382 25.6241ZM13.9277 25.6455C13.9717 25.6455 14.0596 25.6455 14.1475 25.6669L14.4002 25.7098L14.2574 25.8383L14.1255 25.9669L14.0046 25.8169L13.8947 25.6455H13.9277V25.6455ZM9.97152 25.6991C10.0045 25.6991 10.0375 25.7205 10.0924 25.774C10.2023 25.8812 10.2023 25.8812 10.1144 25.924C10.0292 25.9513 9.94028 25.9658 9.85064 25.9669H9.67481L9.81767 25.8169C9.8946 25.7419 9.92757 25.7098 9.96053 25.6991H9.97152ZM13.7189 25.7312C13.7629 25.7312 13.7958 25.7526 13.8508 25.8383L13.9497 25.9669H13.7189C13.565 25.9669 13.4991 25.9454 13.4991 25.9026C13.5211 25.8597 13.576 25.7955 13.642 25.7633L13.7189 25.7312V25.7312ZM14.4222 25.8705C14.4442 25.8705 14.4442 25.8919 14.4442 25.924C14.4442 26.0311 14.3453 26.1061 14.3013 26.0311C14.2903 25.999 14.3123 25.9454 14.3563 25.9133L14.4222 25.8705V25.8705ZM11.576 25.999C12.532 25.999 13.587 26.0633 14.2134 26.1704L14.3893 26.2025V26.6738C14.3893 27.0273 14.3673 27.1452 14.3123 27.1452L13.7629 27.038C12.4921 26.828 11.1975 26.792 9.91658 26.9309L9.66382 26.9631L9.59789 26.5667C9.57057 26.4326 9.55586 26.2964 9.55393 26.1597C9.55393 26.1597 9.80668 26.1061 10.1034 26.074C10.466 26.0204 11.0045 25.999 11.576 25.999V25.999Z" fill="black"/>
<path d="M13.4991 23.321C13.1694 23.321 12.9387 23.546 12.9387 23.8781C12.9387 24.3922 13.5321 24.6493 13.8837 24.2851C14.2354 23.9209 13.9936 23.321 13.4991 23.321V23.321ZM13.4991 23.4496C13.5568 23.4496 13.614 23.4607 13.6673 23.4822C13.7207 23.5037 13.7691 23.5353 13.8099 23.5751C13.8508 23.6149 13.8831 23.6621 13.9052 23.7141C13.9273 23.7661 13.9387 23.8218 13.9387 23.8781C13.9387 24.1994 13.576 24.4137 13.2793 24.2744C12.9826 24.1137 13.0046 23.621 13.3233 23.4924C13.3751 23.4685 13.431 23.454 13.4881 23.4496H13.4991Z" fill="black"/>
<path d="M9.45502 15.555C9.40914 15.5577 9.36585 15.5778 9.33341 15.6113C9.30097 15.6449 9.28167 15.6897 9.27919 15.7371C9.27919 15.7897 9.29945 15.8402 9.33552 15.8774C9.37158 15.9146 9.4205 15.9355 9.4715 15.9355C9.52251 15.9355 9.57142 15.9146 9.60749 15.8774C9.64356 15.8402 9.66382 15.7897 9.66382 15.7371C9.66258 15.7106 9.65607 15.6847 9.64471 15.661C9.63336 15.6373 9.61739 15.6162 9.5978 15.5991C9.57821 15.582 9.55543 15.5693 9.53086 15.5617C9.5063 15.5541 9.48048 15.5518 9.45502 15.555V15.555ZM9.46601 15.6192C9.50098 15.6192 9.53453 15.6316 9.55926 15.6537C9.58399 15.6758 9.59788 15.7058 9.59788 15.7371C9.59788 15.7683 9.58399 15.7983 9.55926 15.8204C9.53453 15.8425 9.50098 15.8549 9.46601 15.8549C9.43103 15.8549 9.39749 15.8425 9.37276 15.8204C9.34803 15.7983 9.33414 15.7683 9.33414 15.7371C9.33414 15.7216 9.33755 15.7063 9.34418 15.692C9.3508 15.6777 9.36052 15.6647 9.37276 15.6537C9.38501 15.6428 9.39954 15.6341 9.41554 15.6282C9.43154 15.6223 9.44869 15.6192 9.46601 15.6192Z" fill="black"/>
</g>
<defs>
<clipPath id="clip0_4_19447">
<rect width="60" height="45" fill="white"/>
</clipPath>
</defs>
</svg>
