<svg width="40" height="40" viewBox="0 0 40 40" fill="none" xmlns="http://www.w3.org/2000/svg">
<path d="M4 4C4 1.79086 5.79086 0 8 0H24L36 12V36C36 38.2091 34.2091 40 32 40H8C5.79086 40 4 38.2091 4 36V4Z" fill="url(#paint0_linear_6726_48806)"/>
<path d="M24 0L36 12H28C25.7909 12 24 10.2091 24 8V0Z" fill="#CDD5DF"/>
<path d="M11.8542 32V25.52H13.2402V32H11.8542Z" fill="#4B5565"/>
<path d="M14.1394 32V25.52H16.2994L18.0994 31.766H17.3164L19.1164 25.52H21.2854V32H19.9174V25.907H20.1514L18.3964 32H16.9654L15.2284 25.961H15.4534V32H14.1394Z" fill="#4B5565"/>
<path d="M25.3854 32.09C24.6834 32.09 24.0804 31.952 23.5764 31.676C23.0724 31.4 22.6824 31.013 22.4064 30.515C22.1364 30.017 22.0014 29.435 22.0014 28.769C22.0014 28.109 22.1394 27.53 22.4154 27.032C22.6914 26.528 23.0724 26.135 23.5584 25.853C24.0504 25.571 24.6204 25.43 25.2684 25.43C25.8024 25.43 26.2794 25.526 26.6994 25.718C27.1254 25.91 27.4674 26.174 27.7254 26.51C27.9894 26.84 28.1454 27.224 28.1934 27.662H26.8074C26.7474 27.308 26.5794 27.032 26.3034 26.834C26.0334 26.63 25.6944 26.528 25.2864 26.528C24.9084 26.528 24.5784 26.618 24.2964 26.798C24.0144 26.972 23.7954 27.224 23.6394 27.554C23.4834 27.884 23.4054 28.28 23.4054 28.742C23.4054 29.222 23.4834 29.633 23.6394 29.975C23.7954 30.311 24.0234 30.569 24.3234 30.749C24.6294 30.923 25.0044 31.01 25.4484 31.01C25.8084 31.01 26.1144 30.965 26.3664 30.875C26.6184 30.785 26.8104 30.659 26.9424 30.497L28.2564 31.019C27.9084 31.367 27.5034 31.634 27.0414 31.82C26.5854 32 26.0334 32.09 25.3854 32.09ZM26.8704 31.019V29.237L27.1494 29.516H25.4394V28.454H28.2564V31.019H26.8704Z" fill="#4B5565"/>
<defs>
<linearGradient id="paint0_linear_6726_48806" x1="20" y1="0" x2="20" y2="40" gradientUnits="userSpaceOnUse">
<stop stop-color="#F9FAFB"/>
<stop offset="1" stop-color="#EDF0F3"/>
</linearGradient>
</defs>
</svg>
