<svg width="40" height="40" viewBox="0 0 40 40" fill="none" xmlns="http://www.w3.org/2000/svg">
<path d="M4 4C4 1.79086 5.79086 0 8 0H24L36 12V36C36 38.2091 34.2091 40 32 40H8C5.79086 40 4 38.2091 4 36V4Z" fill="#0F6AF5"/>
<path opacity="0.3" d="M24 0L36 12H28C25.7909 12 24 10.2091 24 8V0Z" fill="white"/>
<path d="M10.1978 32.09C9.96979 32.09 9.75079 32.072 9.54079 32.036C9.33079 32.006 9.17779 31.967 9.08179 31.919V30.857C9.18979 30.899 9.31879 30.935 9.46879 30.965C9.61879 30.995 9.77179 31.01 9.92779 31.01C10.2638 31.01 10.5068 30.956 10.6568 30.848C10.8128 30.734 10.8908 30.53 10.8908 30.236V25.52H12.2768V30.299C12.2768 30.899 12.0998 31.349 11.7458 31.649C11.3918 31.943 10.8758 32.09 10.1978 32.09Z" fill="white"/>
<path d="M13.1596 32V25.52H16.2376C16.7176 25.52 17.1286 25.604 17.4706 25.772C17.8186 25.94 18.0856 26.174 18.2716 26.474C18.4636 26.774 18.5596 27.125 18.5596 27.527C18.5596 27.929 18.4636 28.283 18.2716 28.589C18.0796 28.895 17.8096 29.135 17.4616 29.309C17.1196 29.477 16.7116 29.561 16.2376 29.561H14.2576V28.499H16.1656C16.4836 28.499 16.7296 28.412 16.9036 28.238C17.0836 28.058 17.1736 27.824 17.1736 27.536C17.1736 27.248 17.0836 27.017 16.9036 26.843C16.7296 26.669 16.4836 26.582 16.1656 26.582H14.5456V32H13.1596Z" fill="white"/>
<path d="M19.2064 32V25.52H20.5924V32H19.2064ZM19.8544 32V30.938H24.0304V32H19.8544ZM19.8544 29.21V28.166H23.7154V29.21H19.8544ZM19.8544 26.582V25.52H23.9224V26.582H19.8544Z" fill="white"/>
<path d="M27.7981 32.09C27.0961 32.09 26.4931 31.952 25.9891 31.676C25.4851 31.4 25.0951 31.013 24.8191 30.515C24.5491 30.017 24.4141 29.435 24.4141 28.769C24.4141 28.109 24.5521 27.53 24.8281 27.032C25.1041 26.528 25.4851 26.135 25.9711 25.853C26.4631 25.571 27.0331 25.43 27.6811 25.43C28.2151 25.43 28.6921 25.526 29.1121 25.718C29.5381 25.91 29.8801 26.174 30.1381 26.51C30.4021 26.84 30.5581 27.224 30.6061 27.662H29.2201C29.1601 27.308 28.9921 27.032 28.7161 26.834C28.4461 26.63 28.1071 26.528 27.6991 26.528C27.3211 26.528 26.9911 26.618 26.7091 26.798C26.4271 26.972 26.2081 27.224 26.0521 27.554C25.8961 27.884 25.8181 28.28 25.8181 28.742C25.8181 29.222 25.8961 29.633 26.0521 29.975C26.2081 30.311 26.4361 30.569 26.7361 30.749C27.0421 30.923 27.4171 31.01 27.8611 31.01C28.2211 31.01 28.5271 30.965 28.7791 30.875C29.0311 30.785 29.2231 30.659 29.3551 30.497L30.6691 31.019C30.3211 31.367 29.9161 31.634 29.4541 31.82C28.9981 32 28.4461 32.09 27.7981 32.09ZM29.2831 31.019V29.237L29.5621 29.516H27.8521V28.454H30.6691V31.019H29.2831Z" fill="white"/>
</svg>
