<svg width="40" height="40" viewBox="0 0 40 40" fill="none" xmlns="http://www.w3.org/2000/svg">
<path d="M4 4C4 1.79086 5.79086 0 8 0H24L36 12V36C36 38.2091 34.2091 40 32 40H8C5.79086 40 4 38.2091 4 36V4Z" fill="#0F6AF5"/>
<path opacity="0.3" d="M24 0L36 12H28C25.7909 12 24 10.2091 24 8V0Z" fill="white"/>
<path d="M12.9092 32.09C12.6812 32.09 12.4622 32.072 12.2522 32.036C12.0422 32.006 11.8892 31.967 11.7932 31.919V30.857C11.9012 30.899 12.0302 30.935 12.1802 30.965C12.3302 30.995 12.4832 31.01 12.6392 31.01C12.9752 31.01 13.2182 30.956 13.3682 30.848C13.5242 30.734 13.6022 30.53 13.6022 30.236V25.52H14.9882V30.299C14.9882 30.899 14.8112 31.349 14.4572 31.649C14.1032 31.943 13.5872 32.09 12.9092 32.09Z" fill="white"/>
<path d="M15.871 32V25.52H18.949C19.429 25.52 19.84 25.604 20.182 25.772C20.53 25.94 20.797 26.174 20.983 26.474C21.175 26.774 21.271 27.125 21.271 27.527C21.271 27.929 21.175 28.283 20.983 28.589C20.791 28.895 20.521 29.135 20.173 29.309C19.831 29.477 19.423 29.561 18.949 29.561H16.969V28.499H18.877C19.195 28.499 19.441 28.412 19.615 28.238C19.795 28.058 19.885 27.824 19.885 27.536C19.885 27.248 19.795 27.017 19.615 26.843C19.441 26.669 19.195 26.582 18.877 26.582H17.257V32H15.871Z" fill="white"/>
<path d="M25.0867 32.09C24.3847 32.09 23.7817 31.952 23.2777 31.676C22.7737 31.4 22.3837 31.013 22.1077 30.515C21.8377 30.017 21.7027 29.435 21.7027 28.769C21.7027 28.109 21.8407 27.53 22.1167 27.032C22.3927 26.528 22.7737 26.135 23.2597 25.853C23.7517 25.571 24.3217 25.43 24.9697 25.43C25.5037 25.43 25.9807 25.526 26.4007 25.718C26.8267 25.91 27.1687 26.174 27.4267 26.51C27.6907 26.84 27.8467 27.224 27.8947 27.662H26.5087C26.4487 27.308 26.2807 27.032 26.0047 26.834C25.7347 26.63 25.3957 26.528 24.9877 26.528C24.6097 26.528 24.2797 26.618 23.9977 26.798C23.7157 26.972 23.4967 27.224 23.3407 27.554C23.1847 27.884 23.1067 28.28 23.1067 28.742C23.1067 29.222 23.1847 29.633 23.3407 29.975C23.4967 30.311 23.7247 30.569 24.0247 30.749C24.3307 30.923 24.7057 31.01 25.1497 31.01C25.5097 31.01 25.8157 30.965 26.0677 30.875C26.3197 30.785 26.5117 30.659 26.6437 30.497L27.9577 31.019C27.6097 31.367 27.2047 31.634 26.7427 31.82C26.2867 32 25.7347 32.09 25.0867 32.09ZM26.5717 31.019V29.237L26.8507 29.516H25.1407V28.454H27.9577V31.019H26.5717Z" fill="white"/>
</svg>
