<svg width="40" height="40" viewBox="0 0 40 40" fill="none" xmlns="http://www.w3.org/2000/svg">
<path d="M4 4C4 1.79086 5.79086 0 8 0H24L36 12V36C36 38.2091 34.2091 40 32 40H8C5.79086 40 4 38.2091 4 36V4Z" fill="url(#paint0_linear_6726_48854)"/>
<path d="M24 0L36 12H28C25.7909 12 24 10.2091 24 8V0Z" fill="#CDD5DF"/>
<path d="M10.7556 32V25.52H13.8336C14.3136 25.52 14.7246 25.604 15.0666 25.772C15.4146 25.94 15.6816 26.174 15.8676 26.474C16.0596 26.774 16.1556 27.125 16.1556 27.527C16.1556 27.929 16.0596 28.283 15.8676 28.589C15.6756 28.895 15.4056 29.135 15.0576 29.309C14.7156 29.477 14.3076 29.561 13.8336 29.561H11.8536V28.499H13.7616C14.0796 28.499 14.3256 28.412 14.4996 28.238C14.6796 28.058 14.7696 27.824 14.7696 27.536C14.7696 27.248 14.6796 27.017 14.4996 26.843C14.3256 26.669 14.0796 26.582 13.7616 26.582H12.1416V32H10.7556Z" fill="#4B5565"/>
<path d="M16.8025 32V25.52H18.5935L21.4735 31.244L21.0325 31.352V25.52H22.3825V32H20.5915L17.7115 26.276L18.1525 26.168V32H16.8025Z" fill="#4B5565"/>
<path d="M26.484 32.09C25.782 32.09 25.179 31.952 24.675 31.676C24.171 31.4 23.781 31.013 23.505 30.515C23.235 30.017 23.1 29.435 23.1 28.769C23.1 28.109 23.238 27.53 23.514 27.032C23.79 26.528 24.171 26.135 24.657 25.853C25.149 25.571 25.719 25.43 26.367 25.43C26.901 25.43 27.378 25.526 27.798 25.718C28.224 25.91 28.566 26.174 28.824 26.51C29.088 26.84 29.244 27.224 29.292 27.662H27.906C27.846 27.308 27.678 27.032 27.402 26.834C27.132 26.63 26.793 26.528 26.385 26.528C26.007 26.528 25.677 26.618 25.395 26.798C25.113 26.972 24.894 27.224 24.738 27.554C24.582 27.884 24.504 28.28 24.504 28.742C24.504 29.222 24.582 29.633 24.738 29.975C24.894 30.311 25.122 30.569 25.422 30.749C25.728 30.923 26.103 31.01 26.547 31.01C26.907 31.01 27.213 30.965 27.465 30.875C27.717 30.785 27.909 30.659 28.041 30.497L29.355 31.019C29.007 31.367 28.602 31.634 28.14 31.82C27.684 32 27.132 32.09 26.484 32.09ZM27.969 31.019V29.237L28.248 29.516H26.538V28.454H29.355V31.019H27.969Z" fill="#4B5565"/>
<defs>
<linearGradient id="paint0_linear_6726_48854" x1="20" y1="0" x2="20" y2="40" gradientUnits="userSpaceOnUse">
<stop stop-color="#F9FAFB"/>
<stop offset="1" stop-color="#EDF0F3"/>
</linearGradient>
</defs>
</svg>
