<svg width="40" height="40" viewBox="0 0 40 40" fill="none" xmlns="http://www.w3.org/2000/svg">
<path d="M7.75 4C7.75 2.20508 9.20508 0.75 11 0.75H27C27.1212 0.75 27.2375 0.798159 27.3232 0.883885L38.1161 11.6768C38.2018 11.7625 38.25 11.8788 38.25 12V36C38.25 37.7949 36.7949 39.25 35 39.25H11C9.20507 39.25 7.75 37.7949 7.75 36V4Z" fill="white" stroke="#CDD5DF" stroke-width="1.5"/>
<path d="M27 0.5V8C27 10.2091 28.7909 12 31 12H38.5" stroke="#CDD5DF" stroke-width="1.5"/>
<rect x="0.666992" y="18" width="28.666" height="16" rx="2" fill="#0F6AF5"/>
<path d="M4.66699 29.6V22.4H8.08699C8.62033 22.4 9.07699 22.4933 9.45699 22.68C9.84366 22.8667 10.1403 23.1267 10.347 23.46C10.5603 23.7933 10.667 24.1833 10.667 24.63C10.667 25.0767 10.5603 25.47 10.347 25.81C10.1337 26.15 9.83366 26.4167 9.44699 26.61C9.06699 26.7967 8.61366 26.89 8.08699 26.89H5.88699V25.71H8.00699C8.36033 25.71 8.63366 25.6133 8.82699 25.42C9.02699 25.22 9.12699 24.96 9.12699 24.64C9.12699 24.32 9.02699 24.0633 8.82699 23.87C8.63366 23.6767 8.36033 23.58 8.00699 23.58H6.20699V29.6H4.66699Z" fill="white"/>
<path d="M11.3857 29.6V22.4H13.3757L16.5757 28.76L16.0857 28.88V22.4H17.5857V29.6H15.5957L12.3957 23.24L12.8857 23.12V29.6H11.3857Z" fill="white"/>
<path d="M22.143 29.7C21.363 29.7 20.693 29.5467 20.133 29.24C19.573 28.9333 19.1397 28.5033 18.833 27.95C18.533 27.3967 18.383 26.75 18.383 26.01C18.383 25.2767 18.5363 24.6333 18.843 24.08C19.1497 23.52 19.573 23.0833 20.113 22.77C20.6597 22.4567 21.293 22.3 22.013 22.3C22.6063 22.3 23.1363 22.4067 23.603 22.62C24.0763 22.8333 24.4563 23.1267 24.743 23.5C25.0363 23.8667 25.2097 24.2933 25.263 24.78H23.723C23.6563 24.3867 23.4697 24.08 23.163 23.86C22.863 23.6333 22.4863 23.52 22.033 23.52C21.613 23.52 21.2463 23.62 20.933 23.82C20.6197 24.0133 20.3763 24.2933 20.203 24.66C20.0297 25.0267 19.943 25.4667 19.943 25.98C19.943 26.5133 20.0297 26.97 20.203 27.35C20.3763 27.7233 20.6297 28.01 20.963 28.21C21.303 28.4033 21.7197 28.5 22.213 28.5C22.613 28.5 22.953 28.45 23.233 28.35C23.513 28.25 23.7263 28.11 23.873 27.93L25.333 28.51C24.9463 28.8967 24.4963 29.1933 23.983 29.4C23.4763 29.6 22.863 29.7 22.143 29.7ZM23.793 28.51V26.53L24.103 26.84H22.203V25.66H25.333V28.51H23.793Z" fill="white"/>
</svg>
