<svg width="40" height="40" viewBox="0 0 40 40" fill="none" xmlns="http://www.w3.org/2000/svg">
<path d="M4 4C4 1.79086 5.79086 0 8 0H24L36 12V36C36 38.2091 34.2091 40 32 40H8C5.79086 40 4 38.2091 4 36V4Z" fill="#0F6AF5"/>
<path opacity="0.3" d="M24 0L36 12H28C25.7909 12 24 10.2091 24 8V0Z" fill="white"/>
<path d="M13.7889 32.081C12.9489 32.081 12.2769 31.895 11.7729 31.523C11.2689 31.145 10.9749 30.614 10.8909 29.93H12.2229C12.2649 30.278 12.4329 30.554 12.7269 30.758C13.0209 30.956 13.3959 31.055 13.8519 31.055C14.2239 31.055 14.5089 30.989 14.7069 30.857C14.9109 30.725 15.0129 30.548 15.0129 30.326C15.0129 30.116 14.9529 29.948 14.8329 29.822C14.7129 29.69 14.5059 29.585 14.2119 29.507L13.0059 29.174C12.3879 29 11.9349 28.763 11.6469 28.463C11.3649 28.157 11.2239 27.776 11.2239 27.32C11.2239 26.93 11.3229 26.594 11.5209 26.312C11.7249 26.024 12.0099 25.805 12.3759 25.655C12.7419 25.499 13.1709 25.421 13.6629 25.421C14.4189 25.421 15.0219 25.601 15.4719 25.961C15.9219 26.315 16.1769 26.786 16.2369 27.374H14.9049C14.8449 27.056 14.6979 26.822 14.4639 26.672C14.2359 26.522 13.9419 26.447 13.5819 26.447C13.2699 26.447 13.0209 26.507 12.8349 26.627C12.6489 26.747 12.5559 26.909 12.5559 27.113C12.5559 27.269 12.6069 27.413 12.7089 27.545C12.8109 27.671 13.0239 27.779 13.3479 27.869L14.5539 28.202C15.1899 28.376 15.6459 28.616 15.9219 28.922C16.2039 29.222 16.3449 29.603 16.3449 30.065C16.3449 30.713 16.1199 31.211 15.6699 31.559C15.2199 31.907 14.5929 32.081 13.7889 32.081Z" fill="white"/>
<path d="M18.8027 32L16.4807 25.52H17.9207L19.6937 30.92H19.5227L21.3047 25.52H22.6727L20.3507 32H18.8027Z" fill="white"/>
<path d="M26.115 32.09C25.413 32.09 24.81 31.952 24.306 31.676C23.802 31.4 23.412 31.013 23.136 30.515C22.866 30.017 22.731 29.435 22.731 28.769C22.731 28.109 22.869 27.53 23.145 27.032C23.421 26.528 23.802 26.135 24.288 25.853C24.78 25.571 25.35 25.43 25.998 25.43C26.532 25.43 27.009 25.526 27.429 25.718C27.855 25.91 28.197 26.174 28.455 26.51C28.719 26.84 28.875 27.224 28.923 27.662H27.537C27.477 27.308 27.309 27.032 27.033 26.834C26.763 26.63 26.424 26.528 26.016 26.528C25.638 26.528 25.308 26.618 25.026 26.798C24.744 26.972 24.525 27.224 24.369 27.554C24.213 27.884 24.135 28.28 24.135 28.742C24.135 29.222 24.213 29.633 24.369 29.975C24.525 30.311 24.753 30.569 25.053 30.749C25.359 30.923 25.734 31.01 26.178 31.01C26.538 31.01 26.844 30.965 27.096 30.875C27.348 30.785 27.54 30.659 27.672 30.497L28.986 31.019C28.638 31.367 28.233 31.634 27.771 31.82C27.315 32 26.763 32.09 26.115 32.09ZM27.6 31.019V29.237L27.879 29.516H26.169V28.454H28.986V31.019H27.6Z" fill="white"/>
</svg>
