<svg width="40" height="40" viewBox="0 0 40 40" fill="none" xmlns="http://www.w3.org/2000/svg">
<path d="M4 4C4 1.79086 5.79086 0 8 0H24L36 12V36C36 38.2091 34.2091 40 32 40H8C5.79086 40 4 38.2091 4 36V4Z" fill="url(#paint0_linear_6726_48886)"/>
<path d="M24 0L36 12H28C25.7909 12 24 10.2091 24 8V0Z" fill="#CDD5DF"/>
<path d="M12.8565 32V26.582H10.7415V25.52H16.3575V26.582H14.2425V32H12.8565Z" fill="#4B5565"/>
<path d="M17.0223 32V25.52H18.4083V32H17.0223Z" fill="#4B5565"/>
<path d="M19.3075 32V25.52H20.6935V32H19.3075ZM19.9555 29.489V28.427H23.6725V29.489H19.9555ZM19.9555 26.582V25.52H23.8795V26.582H19.9555Z" fill="#4B5565"/>
<path d="M24.6161 32V25.52H26.0021V32H24.6161ZM25.2641 29.489V28.427H28.9811V29.489H25.2641ZM25.2641 26.582V25.52H29.1881V26.582H25.2641Z" fill="#4B5565"/>
<defs>
<linearGradient id="paint0_linear_6726_48886" x1="20" y1="0" x2="20" y2="40" gradientUnits="userSpaceOnUse">
<stop stop-color="#F9FAFB"/>
<stop offset="1" stop-color="#EDF0F3"/>
</linearGradient>
</defs>
</svg>
