<svg width="40" height="40" viewBox="0 0 40 40" fill="none" xmlns="http://www.w3.org/2000/svg">
<path d="M7.75 4C7.75 2.20508 9.20508 0.75 11 0.75H27C27.1212 0.75 27.2375 0.798159 27.3232 0.883885L38.1161 11.6768C38.2018 11.7625 38.25 11.8788 38.25 12V36C38.25 37.7949 36.7949 39.25 35 39.25H11C9.20507 39.25 7.75 37.7949 7.75 36V4Z" fill="white" stroke="#CDD5DF" stroke-width="1.5"/>
<path d="M27 0.5V8C27 10.2091 28.7909 12 31 12H38.5" stroke="#CDD5DF" stroke-width="1.5"/>
<rect x="0.751953" y="18" width="28.4963" height="16" rx="2" fill="#0F6AF5"/>
<path d="M7.10195 29.6V23.58H4.75195V22.4H10.992V23.58H8.64195V29.6H7.10195Z" fill="white"/>
<path d="M11.7307 29.6V22.4H13.2707V29.6H11.7307Z" fill="white"/>
<path d="M14.2698 29.6V22.4H15.8098V29.6H14.2698ZM14.9898 26.81V25.63H19.1198V26.81H14.9898ZM14.9898 23.58V22.4H19.3498V23.58H14.9898Z" fill="white"/>
<path d="M20.1682 29.6V22.4H21.7082V29.6H20.1682ZM20.8882 26.81V25.63H25.0182V26.81H20.8882ZM20.8882 23.58V22.4H25.2482V23.58H20.8882Z" fill="white"/>
</svg>
