<svg width="40" height="40" viewBox="0 0 40 40" fill="none" xmlns="http://www.w3.org/2000/svg">
<path d="M4.75 4C4.75 2.20508 6.20508 0.75 8 0.75H24C24.1212 0.75 24.2375 0.798159 24.3232 0.883885L35.1161 11.6768C35.2018 11.7625 35.25 11.8788 35.25 12V36C35.25 37.7949 33.7949 39.25 32 39.25H8C6.20507 39.25 4.75 37.7949 4.75 36V4Z" fill="white" stroke="#CDD5DF" stroke-width="1.5"/>
<path d="M24 0.5V8C24 10.2091 25.7909 12 28 12H35.5" stroke="#CDD5DF" stroke-width="1.5"/>
<path d="M16.8501 28.5V19.7666C16.8501 19.4054 16.8501 19.2249 16.9158 19.0784C16.9737 18.9493 17.067 18.8392 17.1848 18.7609C17.3185 18.672 17.4966 18.6423 17.8528 18.5829L24.4528 17.4829C24.9335 17.4028 25.1739 17.3627 25.3612 17.4323C25.5256 17.4934 25.6634 17.6101 25.7507 17.7622C25.8501 17.9355 25.8501 18.1792 25.8501 18.6666V27M16.8501 28.5C16.8501 29.7427 15.8427 30.75 14.6001 30.75C13.3575 30.75 12.3501 29.7427 12.3501 28.5C12.3501 27.2574 13.3575 26.25 14.6001 26.25C15.8427 26.25 16.8501 27.2574 16.8501 28.5ZM25.8501 27C25.8501 28.2427 24.8427 29.25 23.6001 29.25C22.3575 29.25 21.3501 28.2427 21.3501 27C21.3501 25.7574 22.3575 24.75 23.6001 24.75C24.8427 24.75 25.8501 25.7574 25.8501 27Z" stroke="#DD2590" stroke-width="1.5" stroke-linecap="round" stroke-linejoin="round"/>
</svg>
