<svg width="40" height="40" viewBox="0 0 40 40" fill="none" xmlns="http://www.w3.org/2000/svg">
<path d="M7.75 4C7.75 2.20508 9.20508 0.75 11 0.75H27C27.1212 0.75 27.2375 0.798159 27.3232 0.883885L38.1161 11.6768C38.2018 11.7625 38.25 11.8788 38.25 12V36C38.25 37.7949 36.7949 39.25 35 39.25H11C9.20507 39.25 7.75 37.7949 7.75 36V4Z" fill="white" stroke="#CDD5DF" stroke-width="1.5"/>
<path d="M27 0.5V8C27 10.2091 28.7909 12 31 12H38.5" stroke="#CDD5DF" stroke-width="1.5"/>
<rect x="0.734619" y="18" width="28.5309" height="16" rx="2" fill="#0E9384"/>
<path d="M8.34462 29.705C7.82462 29.705 7.34462 29.615 6.90462 29.435C6.46462 29.2483 6.08129 28.9883 5.75462 28.655C5.43462 28.3217 5.18462 27.9283 5.00462 27.475C4.82462 27.015 4.73462 26.515 4.73462 25.975C4.73462 25.435 4.82129 24.9417 4.99462 24.495C5.17462 24.0483 5.42462 23.6617 5.74462 23.335C6.07129 23.0017 6.45462 22.7483 6.89462 22.575C7.33462 22.395 7.81795 22.305 8.34462 22.305C8.93795 22.305 9.47129 22.4217 9.94462 22.655C10.4246 22.8817 10.8146 23.205 11.1146 23.625C11.4213 24.0383 11.608 24.525 11.6746 25.085H10.1746C10.088 24.5717 9.87795 24.185 9.54462 23.925C9.21129 23.6583 8.81462 23.525 8.35462 23.525C7.94795 23.525 7.58795 23.6217 7.27462 23.815C6.96795 24.0083 6.72795 24.2883 6.55462 24.655C6.38129 25.015 6.29462 25.4517 6.29462 25.965C6.29462 26.485 6.38129 26.935 6.55462 27.315C6.73462 27.6883 6.98129 27.9783 7.29462 28.185C7.60795 28.385 7.96795 28.485 8.37462 28.485C8.80795 28.485 9.19129 28.355 9.52462 28.095C9.85795 27.835 10.0746 27.4483 10.1746 26.935H11.6946C11.608 27.495 11.4113 27.985 11.1046 28.405C10.798 28.8183 10.408 29.1383 9.93462 29.365C9.46129 29.5917 8.93129 29.705 8.34462 29.705Z" fill="white"/>
<path d="M15.3946 29.695C14.4613 29.695 13.7146 29.4883 13.1546 29.075C12.5946 28.655 12.268 28.065 12.1746 27.305H13.6546C13.7013 27.6917 13.888 27.9983 14.2146 28.225C14.5413 28.445 14.958 28.555 15.4646 28.555C15.878 28.555 16.1946 28.4817 16.4146 28.335C16.6413 28.1883 16.7546 27.9917 16.7546 27.745C16.7546 27.5117 16.688 27.325 16.5546 27.185C16.4213 27.0383 16.1913 26.9217 15.8646 26.835L14.5246 26.465C13.838 26.2717 13.3346 26.0083 13.0146 25.675C12.7013 25.335 12.5446 24.9117 12.5446 24.405C12.5446 23.9717 12.6546 23.5983 12.8746 23.285C13.1013 22.965 13.418 22.7217 13.8246 22.555C14.2313 22.3817 14.708 22.295 15.2546 22.295C16.0946 22.295 16.7646 22.495 17.2646 22.895C17.7646 23.2883 18.048 23.8117 18.1146 24.465H16.6346C16.568 24.1117 16.4046 23.8517 16.1446 23.685C15.8913 23.5183 15.5646 23.435 15.1646 23.435C14.818 23.435 14.5413 23.5017 14.3346 23.635C14.128 23.7683 14.0246 23.9483 14.0246 24.175C14.0246 24.3483 14.0813 24.5083 14.1946 24.655C14.308 24.795 14.5446 24.915 14.9046 25.015L16.2446 25.385C16.9513 25.5783 17.458 25.845 17.7646 26.185C18.078 26.5183 18.2346 26.9417 18.2346 27.455C18.2346 28.175 17.9846 28.7283 17.4846 29.115C16.9846 29.5017 16.288 29.695 15.3946 29.695Z" fill="white"/>
<path d="M20.9656 29.605L18.3856 22.405H19.9856L21.9556 28.405H21.7656L23.7456 22.405H25.2656L22.6856 29.605H20.9656Z" fill="white"/>
</svg>
