<svg width="40" height="40" viewBox="0 0 40 40" fill="none" xmlns="http://www.w3.org/2000/svg">
<path d="M4 4C4 1.79086 5.79086 0 8 0H24L36 12V36C36 38.2091 34.2091 40 32 40H8C5.79086 40 4 38.2091 4 36V4Z" fill="url(#paint0_linear_6726_49140)"/>
<path d="M24 0L36 12H28C25.7909 12 24 10.2091 24 8V0Z" fill="#CDD5DF"/>
<path d="M10.8853 32V30.92H12.5233C12.9913 30.92 13.3873 30.827 13.7113 30.641C14.0413 30.449 14.2903 30.188 14.4583 29.858C14.6323 29.528 14.7193 29.15 14.7193 28.724C14.7193 28.304 14.6353 27.935 14.4673 27.617C14.2993 27.299 14.0503 27.05 13.7203 26.87C13.3963 26.69 12.9973 26.6 12.5233 26.6H10.9123V25.52H12.5233C13.2493 25.52 13.8823 25.652 14.4223 25.916C14.9623 26.174 15.3793 26.546 15.6733 27.032C15.9733 27.512 16.1233 28.082 16.1233 28.742C16.1233 29.402 15.9733 29.978 15.6733 30.47C15.3733 30.956 14.9533 31.334 14.4133 31.604C13.8793 31.868 13.2523 32 12.5323 32H10.8853ZM10.0393 32V25.52H11.4253V32H10.0393Z" fill="#4B5565"/>
<path d="M20.027 32.09C19.547 32.09 19.103 32.009 18.695 31.847C18.293 31.685 17.942 31.457 17.642 31.163C17.348 30.863 17.117 30.509 16.949 30.101C16.787 29.687 16.706 29.231 16.706 28.733C16.706 28.073 16.847 27.497 17.129 27.005C17.411 26.507 17.801 26.12 18.299 25.844C18.803 25.568 19.376 25.43 20.018 25.43C20.672 25.43 21.248 25.568 21.746 25.844C22.244 26.12 22.634 26.507 22.916 27.005C23.204 27.503 23.348 28.082 23.348 28.742C23.348 29.234 23.264 29.687 23.096 30.101C22.934 30.509 22.703 30.863 22.403 31.163C22.109 31.457 21.758 31.685 21.35 31.847C20.948 32.009 20.507 32.09 20.027 32.09ZM20.018 30.992C20.396 30.992 20.729 30.896 21.017 30.704C21.305 30.512 21.53 30.248 21.692 29.912C21.86 29.57 21.944 29.174 21.944 28.724C21.944 28.28 21.863 27.893 21.701 27.563C21.539 27.233 21.314 26.978 21.026 26.798C20.738 26.618 20.402 26.528 20.018 26.528C19.64 26.528 19.307 26.618 19.019 26.798C18.731 26.978 18.506 27.233 18.344 27.563C18.188 27.887 18.11 28.274 18.11 28.724C18.11 29.18 18.191 29.579 18.353 29.921C18.515 30.257 18.74 30.521 19.028 30.713C19.316 30.899 19.646 30.992 20.018 30.992Z" fill="#4B5565"/>
<path d="M27.1796 32.09C26.7116 32.09 26.2796 32.009 25.8836 31.847C25.4876 31.679 25.1426 31.445 24.8486 31.145C24.5606 30.845 24.3356 30.491 24.1736 30.083C24.0116 29.669 23.9306 29.219 23.9306 28.733C23.9306 28.247 24.0086 27.803 24.1646 27.401C24.3266 26.999 24.5516 26.651 24.8396 26.357C25.1336 26.057 25.4786 25.829 25.8746 25.673C26.2706 25.511 26.7056 25.43 27.1796 25.43C27.7136 25.43 28.1936 25.535 28.6196 25.745C29.0516 25.949 29.4026 26.24 29.6726 26.618C29.9486 26.99 30.1166 27.428 30.1766 27.932H28.8266C28.7486 27.47 28.5596 27.122 28.2596 26.888C27.9596 26.648 27.6026 26.528 27.1886 26.528C26.8226 26.528 26.4986 26.615 26.2166 26.789C25.9406 26.963 25.7246 27.215 25.5686 27.545C25.4126 27.869 25.3346 28.262 25.3346 28.724C25.3346 29.192 25.4126 29.597 25.5686 29.939C25.7306 30.275 25.9526 30.536 26.2346 30.722C26.5166 30.902 26.8406 30.992 27.2066 30.992C27.5966 30.992 27.9416 30.875 28.2416 30.641C28.5416 30.407 28.7366 30.059 28.8266 29.597H30.1946C30.1166 30.101 29.9396 30.542 29.6636 30.92C29.3876 31.292 29.0366 31.58 28.6106 31.784C28.1846 31.988 27.7076 32.09 27.1796 32.09Z" fill="#4B5565"/>
<defs>
<linearGradient id="paint0_linear_6726_49140" x1="20" y1="0" x2="20" y2="40" gradientUnits="userSpaceOnUse">
<stop stop-color="#F9FAFB"/>
<stop offset="1" stop-color="#EDF0F3"/>
</linearGradient>
</defs>
</svg>
