<svg width="40" height="40" viewBox="0 0 40 40" fill="none" xmlns="http://www.w3.org/2000/svg">
<path d="M4 4C4 1.79086 5.79086 0 8 0H24L36 12V36C36 38.2091 34.2091 40 32 40H8C5.79086 40 4 38.2091 4 36V4Z" fill="url(#paint0_linear_6726_49124)"/>
<path d="M24 0L36 12H28C25.7909 12 24 10.2091 24 8V0Z" fill="#CDD5DF"/>
<path d="M11.3708 32V25.52H14.4488C14.9288 25.52 15.3398 25.604 15.6818 25.772C16.0299 25.94 16.2969 26.174 16.4829 26.474C16.6748 26.774 16.7708 27.125 16.7708 27.527C16.7708 27.929 16.6748 28.283 16.4829 28.589C16.2909 28.895 16.0208 29.135 15.6728 29.309C15.3308 29.477 14.9228 29.561 14.4488 29.561H12.4688V28.499H14.3768C14.6948 28.499 14.9408 28.412 15.1148 28.238C15.2948 28.058 15.3849 27.824 15.3849 27.536C15.3849 27.248 15.2948 27.017 15.1148 26.843C14.9408 26.669 14.6948 26.582 14.3768 26.582H12.7568V32H11.3708Z" fill="#4B5565"/>
<path d="M18.2637 32V30.92H19.9017C20.3697 30.92 20.7657 30.827 21.0897 30.641C21.4197 30.449 21.6687 30.188 21.8367 29.858C22.0107 29.528 22.0977 29.15 22.0977 28.724C22.0977 28.304 22.0137 27.935 21.8457 27.617C21.6777 27.299 21.4287 27.05 21.0987 26.87C20.7747 26.69 20.3757 26.6 19.9017 26.6H18.2907V25.52H19.9017C20.6277 25.52 21.2607 25.652 21.8007 25.916C22.3407 26.174 22.7577 26.546 23.0517 27.032C23.3517 27.512 23.5017 28.082 23.5017 28.742C23.5017 29.402 23.3517 29.978 23.0517 30.47C22.7517 30.956 22.3317 31.334 21.7917 31.604C21.2577 31.868 20.6307 32 19.9107 32H18.2637ZM17.4177 32V25.52H18.8037V32H17.4177Z" fill="#4B5565"/>
<path d="M24.2205 32V25.52H25.6065V32H24.2205ZM24.8685 29.489V28.427H28.5855V29.489H24.8685ZM24.8685 26.582V25.52H28.7925V26.582H24.8685Z" fill="#4B5565"/>
<defs>
<linearGradient id="paint0_linear_6726_49124" x1="20" y1="0" x2="20" y2="40" gradientUnits="userSpaceOnUse">
<stop stop-color="#F9FAFB"/>
<stop offset="1" stop-color="#EDF0F3"/>
</linearGradient>
</defs>
</svg>
