<svg width="40" height="40" viewBox="0 0 40 40" fill="none" xmlns="http://www.w3.org/2000/svg">
<path d="M7.75 4C7.75 2.20508 9.20508 0.75 11 0.75H27C27.1212 0.75 27.2375 0.798159 27.3232 0.883885L38.1161 11.6768C38.2018 11.7625 38.25 11.8788 38.25 12V36C38.25 37.7949 36.7949 39.25 35 39.25H11C9.20507 39.25 7.75 37.7949 7.75 36V4Z" fill="white" stroke="#CDD5DF" stroke-width="1.5"/>
<path d="M27 0.5V8C27 10.2091 28.7909 12 31 12H38.5" stroke="#CDD5DF" stroke-width="1.5"/>
<rect x="0.320557" y="18" width="27.3589" height="16" rx="2" fill="#EC3D27"/>
<path d="M4.32056 29.6V22.4H7.74056C8.27389 22.4 8.73056 22.4933 9.11056 22.68C9.49722 22.8667 9.79389 23.1267 10.0006 23.46C10.2139 23.7933 10.3206 24.1833 10.3206 24.63C10.3206 25.0767 10.2139 25.47 10.0006 25.81C9.78722 26.15 9.48722 26.4167 9.10056 26.61C8.72056 26.7967 8.26722 26.89 7.74056 26.89H5.54056V25.71H7.66056C8.01389 25.71 8.28722 25.6133 8.48056 25.42C8.68056 25.22 8.78056 24.96 8.78056 24.64C8.78056 24.32 8.68056 24.0633 8.48056 23.87C8.28722 23.6767 8.01389 23.58 7.66056 23.58H5.86056V29.6H4.32056Z" fill="white"/>
<path d="M11.0393 29.6V22.4H14.4593C14.9926 22.4 15.4493 22.4933 15.8293 22.68C16.216 22.8667 16.5126 23.1267 16.7193 23.46C16.9326 23.7933 17.0393 24.1833 17.0393 24.63C17.0393 25.0767 16.9326 25.47 16.7193 25.81C16.506 26.15 16.206 26.4167 15.8193 26.61C15.4393 26.7967 14.986 26.89 14.4593 26.89H12.2593V25.71H14.3793C14.7326 25.71 15.006 25.6133 15.1993 25.42C15.3993 25.22 15.4993 24.96 15.4993 24.64C15.4993 24.32 15.3993 24.0633 15.1993 23.87C15.006 23.6767 14.7326 23.58 14.3793 23.58H12.5793V29.6H11.0393Z" fill="white"/>
<path d="M19.7895 29.6V23.58H17.4395V22.4H23.6795V23.58H21.3295V29.6H19.7895Z" fill="white"/>
</svg>
