<svg width="40" height="40" viewBox="0 0 40 40" fill="none" xmlns="http://www.w3.org/2000/svg">
<path d="M7.75 4C7.75 2.20508 9.20508 0.75 11 0.75H27C27.1212 0.75 27.2375 0.798159 27.3232 0.883885L38.1161 11.6768C38.2018 11.7625 38.25 11.8788 38.25 12V36C38.25 37.7949 36.7949 39.25 35 39.25H11C9.20507 39.25 7.75 37.7949 7.75 36V4Z" fill="white" stroke="#CDD5DF" stroke-width="1.5"/>
<path d="M27 0.5V8C27 10.2091 28.7909 12 31 12H38.5" stroke="#CDD5DF" stroke-width="1.5"/>
<rect x="1" y="18" width="28.0681" height="16" rx="2" fill="#4B5565"/>
<path d="M7.35 29.6V23.58H5V22.4H11.24V23.58H8.89V29.6H7.35Z" fill="white"/>
<path d="M16.5899 29.6L14.5999 26.45L11.8199 22.4H13.6199L15.4899 25.37L18.3899 29.6H16.5899ZM14.8199 25.36L16.7599 22.4H18.3899L15.3299 26.65L14.8199 25.36ZM15.1699 26.69L13.2599 29.6H11.6299L14.6599 25.4L15.1699 26.69Z" fill="white"/>
<path d="M21.1781 29.6V23.58H18.8281V22.4H25.0681V23.58H22.7181V29.6H21.1781Z" fill="white"/>
</svg>
