<svg width="40" height="40" viewBox="0 0 40 40" fill="none" xmlns="http://www.w3.org/2000/svg">
<path d="M4 4C4 1.79086 5.79086 0 8 0H24L36 12V36C36 38.2091 34.2091 40 32 40H8C5.79086 40 4 38.2091 4 36V4Z" fill="url(#paint0_linear_6726_49204)"/>
<path d="M24 0L36 12H28C25.7909 12 24 10.2091 24 8V0Z" fill="#CDD5DF"/>
<path d="M15.9955 32L14.2045 29.165L11.7025 25.52H13.3225L15.0055 28.193L17.6155 32H15.9955ZM14.4025 28.184L16.1485 25.52H17.6155L14.8615 29.345L14.4025 28.184ZM14.7175 29.381L12.9985 32H11.5315L14.2585 28.22L14.7175 29.381Z" fill="#4B5565"/>
<path d="M18.2439 32V25.52H19.6299V32H18.2439ZM18.8919 32V30.938H22.7439V32H18.8919Z" fill="#4B5565"/>
<path d="M25.8913 32.081C25.0513 32.081 24.3793 31.895 23.8753 31.523C23.3713 31.145 23.0773 30.614 22.9933 29.93H24.3253C24.3673 30.278 24.5353 30.554 24.8293 30.758C25.1233 30.956 25.4983 31.055 25.9543 31.055C26.3263 31.055 26.6113 30.989 26.8093 30.857C27.0133 30.725 27.1153 30.548 27.1153 30.326C27.1153 30.116 27.0553 29.948 26.9353 29.822C26.8153 29.69 26.6083 29.585 26.3143 29.507L25.1083 29.174C24.4903 29 24.0373 28.763 23.7493 28.463C23.4673 28.157 23.3263 27.776 23.3263 27.32C23.3263 26.93 23.4253 26.594 23.6233 26.312C23.8273 26.024 24.1123 25.805 24.4783 25.655C24.8443 25.499 25.2733 25.421 25.7653 25.421C26.5213 25.421 27.1243 25.601 27.5743 25.961C28.0243 26.315 28.2793 26.786 28.3393 27.374H27.0073C26.9473 27.056 26.8003 26.822 26.5663 26.672C26.3383 26.522 26.0443 26.447 25.6843 26.447C25.3723 26.447 25.1233 26.507 24.9373 26.627C24.7513 26.747 24.6583 26.909 24.6583 27.113C24.6583 27.269 24.7093 27.413 24.8113 27.545C24.9133 27.671 25.1263 27.779 25.4503 27.869L26.6563 28.202C27.2923 28.376 27.7483 28.616 28.0243 28.922C28.3063 29.222 28.4473 29.603 28.4473 30.065C28.4473 30.713 28.2223 31.211 27.7723 31.559C27.3223 31.907 26.6953 32.081 25.8913 32.081Z" fill="#4B5565"/>
<defs>
<linearGradient id="paint0_linear_6726_49204" x1="20" y1="0" x2="20" y2="40" gradientUnits="userSpaceOnUse">
<stop stop-color="#F9FAFB"/>
<stop offset="1" stop-color="#EDF0F3"/>
</linearGradient>
</defs>
</svg>
