<svg width="40" height="40" viewBox="0 0 40 40" fill="none" xmlns="http://www.w3.org/2000/svg">
<path d="M7.75 4C7.75 2.20508 9.20508 0.75 11 0.75H27C27.1212 0.75 27.2375 0.798159 27.3232 0.883885L38.1161 11.6768C38.2018 11.7625 38.25 11.8788 38.25 12V36C38.25 37.7949 36.7949 39.25 35 39.25H11C9.20507 39.25 7.75 37.7949 7.75 36V4Z" fill="white" stroke="#CDD5DF" stroke-width="1.5"/>
<path d="M27 0.5V8C27 10.2091 28.7909 12 31 12H38.5" stroke="#CDD5DF" stroke-width="1.5"/>
<rect x="0.602295" y="18" width="26.7953" height="16" rx="2" fill="#0E9384"/>
<path d="M9.5623 29.61L7.57229 26.46L4.79229 22.41H6.5923L8.4623 25.38L11.3623 29.61H9.5623ZM7.79229 25.37L9.7323 22.41H11.3623L8.30229 26.66L7.79229 25.37ZM8.1423 26.7L6.2323 29.61H4.60229L7.6323 25.41L8.1423 26.7Z" fill="white"/>
<path d="M12.0605 29.61V22.41H13.6005V29.61H12.0605ZM12.7805 29.61V28.43H17.0605V29.61H12.7805Z" fill="white"/>
<path d="M20.5576 29.7C19.6243 29.7 18.8776 29.4933 18.3176 29.08C17.7576 28.66 17.4309 28.07 17.3376 27.31H18.8176C18.8643 27.6967 19.0509 28.0033 19.3776 28.23C19.7043 28.45 20.1209 28.56 20.6276 28.56C21.0409 28.56 21.3576 28.4867 21.5776 28.34C21.8043 28.1933 21.9176 27.9967 21.9176 27.75C21.9176 27.5167 21.8509 27.33 21.7176 27.19C21.5843 27.0433 21.3543 26.9267 21.0276 26.84L19.6876 26.47C19.0009 26.2767 18.4976 26.0133 18.1776 25.68C17.8643 25.34 17.7076 24.9167 17.7076 24.41C17.7076 23.9767 17.8176 23.6033 18.0376 23.29C18.2643 22.97 18.5809 22.7267 18.9876 22.56C19.3943 22.3867 19.8709 22.3 20.4176 22.3C21.2576 22.3 21.9276 22.5 22.4276 22.9C22.9276 23.2933 23.2109 23.8167 23.2776 24.47H21.7976C21.7309 24.1167 21.5676 23.8567 21.3076 23.69C21.0543 23.5233 20.7276 23.44 20.3276 23.44C19.9809 23.44 19.7043 23.5067 19.4976 23.64C19.2909 23.7733 19.1876 23.9533 19.1876 24.18C19.1876 24.3533 19.2443 24.5133 19.3576 24.66C19.4709 24.8 19.7076 24.92 20.0676 25.02L21.4076 25.39C22.1143 25.5833 22.6209 25.85 22.9276 26.19C23.2409 26.5233 23.3976 26.9467 23.3976 27.46C23.3976 28.18 23.1476 28.7333 22.6476 29.12C22.1476 29.5067 21.4509 29.7 20.5576 29.7Z" fill="white"/>
</svg>
