<svg width="40" height="40" viewBox="0 0 40 40" fill="none" xmlns="http://www.w3.org/2000/svg">
<path d="M4 4C4 1.79086 5.79086 0 8 0H24L36 12V36C36 38.2091 34.2091 40 32 40H8C5.79086 40 4 38.2091 4 36V4Z" fill="#0E9384"/>
<path opacity="0.3" d="M24 0L36 12H28C25.7909 12 24 10.2091 24 8V0Z" fill="white"/>
<path d="M12.9193 32L11.1283 29.165L8.62632 25.52H10.2463L11.9293 28.193L14.5393 32H12.9193ZM11.3263 28.184L13.0723 25.52H14.5393L11.7853 29.345L11.3263 28.184ZM11.6413 29.381L9.92232 32H8.45532L11.1823 28.22L11.6413 29.381Z" fill="white"/>
<path d="M15.1677 32V25.52H16.5537V32H15.1677ZM15.8157 32V30.938H19.6677V32H15.8157Z" fill="white"/>
<path d="M22.8151 32.081C21.9751 32.081 21.3031 31.895 20.7991 31.523C20.2951 31.145 20.0011 30.614 19.9171 29.93H21.2491C21.2911 30.278 21.4591 30.554 21.7531 30.758C22.0471 30.956 22.4221 31.055 22.8781 31.055C23.2501 31.055 23.5351 30.989 23.7331 30.857C23.9371 30.725 24.0391 30.548 24.0391 30.326C24.0391 30.116 23.9791 29.948 23.8591 29.822C23.7391 29.69 23.5321 29.585 23.2381 29.507L22.0321 29.174C21.4141 29 20.9611 28.763 20.6731 28.463C20.3911 28.157 20.2501 27.776 20.2501 27.32C20.2501 26.93 20.3491 26.594 20.5471 26.312C20.7511 26.024 21.0361 25.805 21.4021 25.655C21.7681 25.499 22.1971 25.421 22.6891 25.421C23.4451 25.421 24.0481 25.601 24.4981 25.961C24.9481 26.315 25.2031 26.786 25.2631 27.374H23.9311C23.8711 27.056 23.7241 26.822 23.4901 26.672C23.2621 26.522 22.9681 26.447 22.6081 26.447C22.2961 26.447 22.0471 26.507 21.8611 26.627C21.6751 26.747 21.5821 26.909 21.5821 27.113C21.5821 27.269 21.6331 27.413 21.7351 27.545C21.8371 27.671 22.0501 27.779 22.3741 27.869L23.5801 28.202C24.2161 28.376 24.6721 28.616 24.9481 28.922C25.2301 29.222 25.3711 29.603 25.3711 30.065C25.3711 30.713 25.1461 31.211 24.6961 31.559C24.2461 31.907 23.6191 32.081 22.8151 32.081Z" fill="white"/>
<path d="M29.9262 32L28.1352 29.165L25.6332 25.52H27.2532L28.9362 28.193L31.5462 32H29.9262ZM28.3332 28.184L30.0792 25.52H31.5462L28.7922 29.345L28.3332 28.184ZM28.6482 29.381L26.9292 32H25.4622L28.1892 28.22L28.6482 29.381Z" fill="white"/>
</svg>
