<svg xmlns="http://www.w3.org/2000/svg" viewBox="0 0 474.24 387.21"><defs><style>.cls-1{fill:#21387c;}.cls-2{fill:#e70d10;}</style></defs><g id="Layer_2" data-name="Layer 2"><g id="Layer_1-2" data-name="Layer 1"><g id="Layer_2-2" data-name="Layer 2"><g id="Layer_1-2-2" data-name="Layer 1-2"><path class="cls-1" d="M20.75,151.5c.86,29.56,0,40.61,0,67.61,4.5,15.75,4.82,49.4,3.67,66.23-.21,3.39-6.85,9.27-11.14,9s-11.42-6.42-11.46-10c0-18-.64-31.55.58-49.68.33-4.43,3.6-13.48,3.6-18,.18-18.82.69-37.67,0-56.45-.36-8.51-1.51-16.08-6-27.94,14.42-8.36,31.54-18.67,48.94-28.65,58.12-33.19,116.4-66.17,174.5-99.91,9.15-5.33,15.74-4.69,24.61.47,58.64,34.1,117.71,67.59,176.6,101.43,16.11,9.27,31.93,19,49.59,29.64-5.48,3.6-9.3,6.56-13.44,8.94-39.14,22.49-78.36,44.59-117.17,67.26a18,18,0,0,1-20.94,0C282.25,188,241.46,165.13,200.87,142c-2.63-1.52-5-3.61-9.55-6.67,14.78-8.47,27.9-16.58,41.7-23.4,2.81-1.4,8.47,1.41,12.15,3.61,26.23,14.78,52.44,29.63,78.28,45.06a16.83,16.83,0,0,0,19.75,0c13.19-8.15,26.88-15.47,43.24-24.84l-152-86.51L85,135.75,280,248.18c-15.5,8.9-28.51,16.73-41.92,23.68A12.59,12.59,0,0,1,233,272a12.8,12.8,0,0,1-4.75-1.92Q156.2,229,84.43,187.6C64.39,176,44.14,164.73,20.75,151.5Z"/><path class="cls-2" d="M66.88,199.55c15.71,8.83,28.83,15.36,41,23.65,3.61,2.49,5.52,10.31,4.83,15.21-3,21,5,33.27,24.26,42.86,32.44,16.26,63.32,35.76,95.15,53.42a14.68,14.68,0,0,0,12.07,0c36.94-20.54,73.7-41.34,110.07-62.79,4.54-2.67,10.12-10.13,9.33-14.17-7.21-36,19.43-44.15,45.19-56.12.51,6.23,1.27,11.32,1.27,16.36,0,21.05.36,42.14-.69,63.12a21,21,0,0,1-2.46,8.33,20.7,20.7,0,0,1-5.65,6.59Q324,341.51,246,385.48a19.08,19.08,0,0,1-15.89,0q-77-43.25-153.25-87.59c-4.1-2.38-9.4-7.21-9.51-11.28C66.48,258.74,66.88,231,66.88,199.55Z"/></g></g></g></g></svg>