<svg width="155" height="48" viewBox="0 0 155 48" fill="none" xmlns="http://www.w3.org/2000/svg">
<path d="M2.55704 18.7803C2.66302 22.4447 2.55704 23.8145 2.55704 27.1615C3.11158 29.1139 3.15102 33.2852 3.0093 35.3715C2.98342 35.7918 2.16517 36.5207 1.63651 36.4872C1.10785 36.4537 0.22921 35.6914 0.22428 35.2476C0.22428 33.0162 0.145413 31.3366 0.295754 29.0891C0.336421 28.54 0.739386 27.4181 0.739386 26.8578C0.761568 24.5248 0.824416 22.1881 0.739386 19.8601C0.695023 18.8051 0.553307 17.8667 0 16.3965C1.77699 15.3602 3.88671 14.0822 6.03093 12.845C13.1931 8.73068 20.375 4.64238 27.5347 0.45987C28.6623 -0.200853 29.4744 -0.121517 30.5675 0.518132C37.7937 4.74527 45.073 8.89679 52.3301 13.0917C54.3153 14.2408 56.2648 15.447 58.4411 16.766C57.7658 17.2122 57.295 17.5791 56.7849 17.8742C51.9616 20.6621 47.1285 23.4017 42.3459 26.2119C41.9695 26.4827 41.5184 26.6282 41.0557 26.6282C40.5929 26.6282 40.1418 26.4827 39.7654 26.2119C34.782 23.305 29.7554 20.47 24.7534 17.6027C24.4293 17.4143 24.1373 17.1552 23.5766 16.7759C25.3979 15.7259 27.0147 14.7206 28.7153 13.8751C29.0616 13.7016 29.7591 14.0499 30.2126 14.3226C33.4449 16.1548 36.6748 17.9957 39.8591 19.9084C40.213 20.1664 40.6389 20.3053 41.076 20.3053C41.5131 20.3053 41.939 20.1664 42.2929 19.9084C43.9183 18.8981 45.6053 17.9907 47.6214 16.8292L28.8903 6.10514L10.4746 16.8279L34.5047 30.7651C32.5946 31.8684 30.9914 32.839 29.3388 33.7005C29.1335 33.7491 28.9205 33.755 28.7128 33.7179C28.5038 33.679 28.3047 33.5981 28.1275 33.4799C22.2083 30.0849 16.3006 26.6768 10.4044 23.2554C7.93485 21.8174 5.43942 20.4204 2.55704 18.7803Z" fill="#21387C"/>
<path d="M8.24166 24.7368C10.1776 25.8314 11.7944 26.6409 13.2941 27.6685C13.739 27.9772 13.9744 28.9466 13.8893 29.554C13.5196 32.1572 14.5055 33.6783 16.8789 34.8671C20.8765 36.8827 24.6819 39.3 28.6044 41.4892C28.8381 41.5952 29.0916 41.6501 29.3481 41.6501C29.6045 41.6501 29.858 41.5952 30.0918 41.4892C34.6439 38.943 39.1739 36.3645 43.6558 33.7055C44.2153 33.3746 44.9029 32.4498 44.8055 31.949C43.917 27.4863 47.1999 26.476 50.3744 24.9922C50.4372 25.7645 50.5309 26.3954 50.5309 27.0202C50.5309 29.6296 50.5752 32.244 50.4458 34.8448C50.4174 35.2064 50.3142 35.5582 50.1427 35.8774C49.9706 36.1961 49.7333 36.4745 49.4464 36.6943C43.1 40.4545 36.7228 44.1515 30.3148 47.7852C30.0076 47.9268 29.6736 48.0001 29.3357 48.0001C28.9978 48.0001 28.6639 47.9268 28.3567 47.7852C22.0308 44.211 15.7357 40.5917 9.4715 36.9273C8.96626 36.6323 8.31313 36.0336 8.29958 35.529C8.19237 32.0742 8.24166 28.6355 8.24166 24.7368Z" fill="#E70D10"/>
<path d="M73.2769 26.7102C72.1945 26.7257 71.1201 26.5208 70.1185 26.1077C69.2395 25.7433 68.4769 25.1429 67.9139 24.3722C67.3628 23.5909 67.0697 22.6551 67.0759 21.6971H70.6693C70.717 22.3872 70.9564 22.9334 71.3878 23.3359C71.8347 23.7376 72.4418 23.9384 73.2091 23.9384C73.992 23.9384 74.6082 23.7537 75.0576 23.3843C75.2735 23.2031 75.4459 22.9752 75.5619 22.7176C75.678 22.4601 75.7348 22.1794 75.728 21.8967C75.7445 21.4424 75.5809 21 75.2732 20.667C74.9504 20.3347 74.5569 20.0804 74.1223 19.9232C73.5131 19.6753 72.8891 19.4658 72.2541 19.296C71.3463 19.0358 70.4557 18.7187 69.5874 18.3464C68.9034 18.0143 68.3049 17.5277 67.8387 16.9246C67.3589 16.2824 67.1194 15.4308 67.1203 14.3697C67.0979 13.4465 67.3558 12.5384 67.8596 11.7665C68.3746 11.0105 69.0993 10.4238 69.9435 10.0793C70.9116 9.66266 71.9566 9.45732 73.0095 9.47686C74.7347 9.47686 76.1313 9.90247 77.1993 10.7537C78.2846 11.5892 78.8818 12.7623 78.9911 14.273H75.3127C75.3018 13.9957 75.2299 13.7243 75.102 13.4784C74.9741 13.2325 74.7935 13.0182 74.5733 12.8511C74.1231 12.4652 73.5233 12.2722 72.7741 12.2722C72.1169 12.2722 71.5899 12.4408 71.193 12.778C70.8102 13.1152 70.6184 13.6052 70.6176 14.2482C70.6064 14.6684 70.7616 15.0759 71.0489 15.3812C71.3723 15.6837 71.745 15.9282 72.1506 16.1039C72.5975 16.2816 73.2206 16.4882 74.02 16.7237C74.9283 16.9804 75.8171 17.3027 76.6793 17.6882C77.3772 18.0192 77.9852 18.5151 78.4514 19.1336C78.9443 19.7765 79.1907 20.6203 79.1907 21.6649C79.1959 22.5493 78.9561 23.4177 78.4982 24.1727C78.0063 24.9722 77.3009 25.6166 76.4624 26.0321C75.5686 26.4842 74.5067 26.7102 73.2769 26.7102Z" fill="#0E0E0E"/>
<path d="M85.4558 12.4433V16.658H91.085V19.3381H85.4558V23.8008H91.8071V26.549H82.1014V9.69629H91.8071V12.4433H85.4558Z" fill="#0E0E0E"/>
<path d="M109.873 9.71973L103.74 26.5415H99.673L93.5323 9.71973H97.1258L101.725 23.0953L106.3 9.71973H109.873Z" fill="#0E0E0E"/>
<path d="M115.237 9.71973V26.5415H111.894V9.71973H115.237Z" fill="#0E0E0E"/>
<path d="M136.786 9.71973V26.5415H133.432V15.6005L128.953 26.5415H126.414L121.909 15.6005V26.5415H118.548V9.71973H122.368L127.687 22.2276L133.006 9.71973H136.786Z" fill="#0E0E0E"/>
<path d="M150.35 23.3359H143.696L142.594 26.5416H139.072L145.085 9.69629H148.986L155 26.5416H151.451L150.35 23.3359ZM149.44 20.6373L147.021 13.5999L144.602 20.6373H149.44Z" fill="#0E0E0E"/>
<path d="M72.3107 34.1021V39.5143C72.3107 40.2754 72.494 40.8398 72.8604 41.2076C73.2268 41.5754 73.7431 41.7597 74.4094 41.7605C75.06 41.7605 75.5686 41.5762 75.935 41.2076C76.3014 40.839 76.4883 40.2746 76.4957 39.5143V34.1021H77.6048V39.5019C77.6048 40.2134 77.4626 40.8151 77.1784 41.3068C76.9081 41.7754 76.5041 42.1515 76.0188 42.3865C75.5123 42.6293 74.9568 42.751 74.3958 42.7423C73.8314 42.7499 73.2726 42.6282 72.7618 42.3865C72.2815 42.1488 71.8822 41.773 71.6145 41.3068C71.3385 40.8159 71.2004 40.2142 71.2004 39.5019V34.1021H72.3107Z" fill="#0E0E0E"/>
<path d="M87.8638 42.6569H86.7547L82.29 35.8452V42.6569H81.181V34.0898H82.29L86.7547 40.8892V34.0898H87.8638V42.6569Z" fill="#0E0E0E"/>
<path d="M92.5625 34.1021V42.6555H91.4534V34.1021H92.5625Z" fill="#0E0E0E"/>
<path d="M103.19 34.1021L99.986 42.6555H98.7081L95.5041 34.1021H96.6871L99.3588 41.4778L102.03 34.1021H103.19Z" fill="#0E0E0E"/>
<path d="M107.225 35.0109V37.8707H110.324V38.7905H107.225V41.7359H110.69V42.6569H106.114V34.0898H110.69V35.0109H107.225Z" fill="#0E0E0E"/>
<path d="M118.554 42.6568L116.53 39.1586H115.188V42.6568H114.079V34.1034H116.823C117.382 34.0855 117.937 34.1993 118.445 34.4356C118.86 34.6269 119.208 34.9386 119.445 35.3306C119.69 35.7735 119.802 36.2777 119.77 36.7831C119.738 37.2886 119.562 37.7741 119.263 38.1818C118.929 38.6313 118.425 38.9301 117.75 39.078L119.885 42.6618L118.554 42.6568ZM115.188 38.2623H116.823C117.424 38.2623 117.876 38.1152 118.179 37.821C118.331 37.6619 118.449 37.4732 118.527 37.2665C118.605 37.0598 118.639 36.8393 118.63 36.6186C118.63 36.112 118.479 35.719 118.179 35.4397C117.878 35.1604 117.426 35.0215 116.823 35.0232H115.188V38.2623Z" fill="#0E0E0E"/>
<path d="M125.905 42.7424C125.386 42.7511 124.87 42.6507 124.392 42.4474C123.98 42.2649 123.622 41.9773 123.354 41.6131C123.101 41.25 122.964 40.8172 122.964 40.3735H124.148C124.184 40.762 124.359 41.124 124.641 41.3925C124.934 41.6627 125.357 41.7978 125.91 41.7978C126.438 41.7978 126.853 41.6668 127.153 41.4049C127.303 41.279 127.422 41.121 127.503 40.9424C127.583 40.7639 127.622 40.5695 127.618 40.3735C127.63 40.0835 127.534 39.7993 127.349 39.5764C127.166 39.3686 126.936 39.2083 126.678 39.1091C126.322 38.9756 125.96 38.861 125.592 38.7657C125.13 38.6516 124.677 38.5041 124.237 38.3244C123.897 38.1705 123.6 37.9341 123.374 37.6364C123.139 37.3174 123.021 36.8922 123.02 36.3608C123.013 35.9214 123.136 35.4897 123.374 35.1212C123.618 34.7551 123.96 34.4658 124.36 34.2869C124.826 34.0825 125.33 33.9819 125.839 33.9919C126.636 33.9919 127.287 34.1923 127.791 34.5931C128.038 34.7828 128.243 35.023 128.392 35.298C128.54 35.5729 128.629 35.8764 128.653 36.1885H127.433C127.384 35.8462 127.203 35.5373 126.928 35.3294C126.627 35.0766 126.229 34.9497 125.733 34.9489C125.322 34.9318 124.919 35.0638 124.598 35.3208C124.451 35.4423 124.335 35.5966 124.259 35.7715C124.183 35.9463 124.149 36.1367 124.159 36.3273C124.147 36.6043 124.239 36.8756 124.415 37.0885C124.595 37.2857 124.816 37.4406 125.062 37.5422C125.322 37.6401 125.678 37.7554 126.148 37.8856C126.611 38.007 127.064 38.1632 127.503 38.3529C127.851 38.5052 128.154 38.7462 128.381 39.0521C128.627 39.3636 128.751 39.7892 128.751 40.3289C128.751 40.7444 128.637 41.1519 128.422 41.5065C128.185 41.8906 127.847 42.2009 127.446 42.4028C126.968 42.6417 126.439 42.7584 125.905 42.7424Z" fill="#0E0E0E"/>
<path d="M133.187 34.1021V42.6555H132.078V34.1021H133.187Z" fill="#0E0E0E"/>
<path d="M142.02 34.1021V35.0107H139.702V42.6567H138.593V35.0107H136.263V34.1021H142.02Z" fill="#0E0E0E"/>
<path d="M151.049 34.1021L148.279 39.4325V42.6555H147.17V39.4325L144.389 34.1021H145.621L147.716 38.4346L149.811 34.1021H151.049Z" fill="#0E0E0E"/>
</svg>
