<svg xmlns="http://www.w3.org/2000/svg" viewBox="0 0 1257.8 387.21"><defs><style>.cls-1{fill:#21387c;}.cls-2{fill:#e70d10;}.cls-3{fill:#0e0e0e;}</style></defs><g id="Layer_2" data-name="Layer 2"><g id="Layer_1-2" data-name="Layer 1"><g id="Layer_2-2" data-name="Layer 2"><g id="Layer_1-2-2" data-name="Layer 1-2"><g id="Layer_2-2-2" data-name="Layer 2-2"><g id="Layer_1-2-2-2" data-name="Layer 1-2-2"><path class="cls-1" d="M20.75,151.5c.86,29.56,0,40.61,0,67.61,4.5,15.75,4.82,49.4,3.67,66.23-.21,3.39-6.85,9.27-11.14,9s-11.42-6.42-11.46-10c0-18-.64-31.55.58-49.68.33-4.43,3.6-13.48,3.6-18,.18-18.82.69-37.67,0-56.45-.36-8.51-1.51-16.08-6-27.94,14.42-8.36,31.54-18.67,48.94-28.65,58.12-33.19,116.4-66.17,174.5-99.91,9.15-5.33,15.74-4.69,24.61.47,58.64,34.1,117.71,67.59,176.6,101.43,16.11,9.27,31.93,19,49.59,29.64-5.48,3.6-9.3,6.56-13.44,8.94-39.14,22.49-78.36,44.59-117.17,67.26a18,18,0,0,1-20.94,0C282.25,188,241.46,165.13,200.87,142c-2.63-1.52-5-3.61-9.55-6.67,14.78-8.47,27.9-16.58,41.7-23.4,2.81-1.4,8.47,1.41,12.15,3.61,26.23,14.78,52.44,29.63,78.28,45.06a16.83,16.83,0,0,0,19.75,0c13.19-8.15,26.88-15.47,43.24-24.84l-152-86.51L85,135.75,280,248.18c-15.5,8.9-28.51,16.73-41.92,23.68A12.6,12.6,0,0,1,233,272a12.8,12.8,0,0,1-4.75-1.92Q156.2,229,84.43,187.6C64.39,176,44.14,164.73,20.75,151.5Z"/><path class="cls-2" d="M66.88,199.55c15.71,8.83,28.83,15.36,41,23.65,3.61,2.49,5.52,10.31,4.83,15.21-3,21,5,33.27,24.26,42.86,32.44,16.26,63.32,35.76,95.15,53.42a14.68,14.68,0,0,0,12.07,0c36.94-20.54,73.7-41.34,110.07-62.79,4.54-2.67,10.12-10.13,9.33-14.17-7.21-36,19.43-44.15,45.19-56.12.51,6.23,1.27,11.32,1.27,16.36,0,21.05.36,42.14-.69,63.12a21,21,0,0,1-2.46,8.33,20.7,20.7,0,0,1-5.65,6.59Q324,341.51,246,385.48a19.08,19.08,0,0,1-15.89,0q-77-43.25-153.25-87.59c-4.1-2.38-9.4-7.21-9.51-11.28C66.48,258.74,66.88,231,66.88,199.55Z"/><path class="cls-3" d="M594.63,215.47A65.09,65.09,0,0,1,569,210.61a42.12,42.12,0,0,1-17.89-14,36.88,36.88,0,0,1-6.8-21.58h29.16q.59,8.35,5.83,13.22,5.44,4.86,14.78,4.86,9.52,0,15-4.47a15.15,15.15,0,0,0,5.44-12,13.83,13.83,0,0,0-3.69-9.92,24.79,24.79,0,0,0-9.34-6,128.34,128.34,0,0,0-15.16-5.06A184.07,184.07,0,0,1,564.69,148a39.94,39.94,0,0,1-14.19-11.47q-5.84-7.77-5.83-20.61a36.64,36.64,0,0,1,6-21,37.66,37.66,0,0,1,16.91-13.61,60.42,60.42,0,0,1,24.88-4.86q21,0,34,10.3Q639.67,96.86,641,115.14H611.15a15.11,15.11,0,0,0-6-11.47Q599.67,99,590.55,99q-8,0-12.83,4.08-4.66,4.08-4.67,11.86a12.8,12.8,0,0,0,3.5,9.14,31.34,31.34,0,0,0,8.94,5.83q5.44,2.15,15.17,5a159.11,159.11,0,0,1,21.58,7.78,38.82,38.82,0,0,1,14.38,11.66q6,7.78,6,20.42A38.4,38.4,0,0,1,637,195a40.45,40.45,0,0,1-16.52,15Q609.61,215.48,594.63,215.47Z"/><path class="cls-3" d="M693.46,100.38v34h45.68V156H693.46v36H745v22.17H666.24V78.22H745v22.16Z"/><path class="cls-3" d="M891.6,78.41l-49.77,135.7h-33L759,78.41h29.16l37.32,107.9,37.13-107.9Z"/><path class="cls-3" d="M935.13,78.41v135.7H908V78.41Z"/><path class="cls-3" d="M1110,78.41v135.7h-27.22V125.85l-36.35,88.26h-20.6l-36.56-88.26v88.26H962V78.41h31l43.16,100.9,43.16-100.9Z"/><path class="cls-3" d="M1220.07,188.25h-54l-8.94,25.86h-28.58l48.79-135.89H1209l48.8,135.89H1229Zm-7.39-21.77-19.63-56.77-19.63,56.77Z"/><path class="cls-3" d="M586.79,275.1v43.66q0,9.21,4.46,13.66t12.57,4.46q7.92,0,12.38-4.46t4.55-13.66V275.1h9v43.56q0,8.61-3.46,14.56a21.82,21.82,0,0,1-9.41,8.71,29.55,29.55,0,0,1-13.17,2.87,30.23,30.23,0,0,1-13.26-2.87,21.93,21.93,0,0,1-9.31-8.71q-3.36-5.94-3.36-14.56V275.1Z"/><path class="cls-3" d="M713,344.11h-9l-36.23-54.95v54.95h-9V275h9L704,329.85V275h9Z"/><path class="cls-3" d="M751.13,275.1v69h-9v-69Z"/><path class="cls-3" d="M837.37,275.1l-26,69H801l-26-69h9.6l21.68,59.5L828,275.1Z"/><path class="cls-3" d="M870.11,282.43V305.5h25.15v7.42H870.11v23.76h28.12v7.43H861.1V275h37.13v7.43Z"/><path class="cls-3" d="M962.05,344.11l-16.43-28.22H934.73v28.22h-9v-69H948a29.12,29.12,0,0,1,13.16,2.68,18.56,18.56,0,0,1,8.12,7.22,21.32,21.32,0,0,1-1.48,23q-4.06,5.44-12.28,7.23l17.33,28.91Zm-27.32-35.45H948q7.32,0,11-3.56a13.13,13.13,0,0,0,3.66-9.7q0-6.13-3.66-9.51t-11-3.36H934.73Z"/><path class="cls-3" d="M1021.7,344.8a30.27,30.27,0,0,1-12.28-2.38,21,21,0,0,1-8.42-6.73,17.46,17.46,0,0,1-3.17-10h9.61a13,13,0,0,0,4,8.22q3.57,3.27,10.3,3.27,6.43,0,10.09-3.17a10.54,10.54,0,0,0,3.77-8.32,9.42,9.42,0,0,0-2.18-6.43,13.94,13.94,0,0,0-5.45-3.77,88.15,88.15,0,0,0-8.81-2.77,80.16,80.16,0,0,1-11-3.56,18.24,18.24,0,0,1-7-5.55q-2.86-3.86-2.87-10.29a17.79,17.79,0,0,1,2.87-10,18.83,18.83,0,0,1,8-6.73,28.63,28.63,0,0,1,12-2.38q9.71,0,15.84,4.85a17.9,17.9,0,0,1,7,12.87h-9.9A10.57,10.57,0,0,0,1030,285q-3.66-3.06-9.7-3.07a13.89,13.89,0,0,0-9.21,3,9.83,9.83,0,0,0-3.56,8.12,9,9,0,0,0,2.08,6.14,14.69,14.69,0,0,0,5.25,3.66c2.11.79,5,1.72,8.81,2.77a77.57,77.57,0,0,1,11,3.77,17.7,17.7,0,0,1,7.12,5.64q3,3.77,3,10.3a18.2,18.2,0,0,1-2.67,9.5,19.64,19.64,0,0,1-7.92,7.23A26.28,26.28,0,0,1,1021.7,344.8Z"/><path class="cls-3" d="M1080.79,275.1v69h-9v-69Z"/><path class="cls-3" d="M1152.47,275.1v7.33h-18.81v61.68h-9V282.43h-18.91V275.1Z"/><path class="cls-3" d="M1225.74,275.1l-22.48,43v26h-9v-26l-22.57-43h10l17,34.95,17-34.95Z"/></g></g></g></g></g></g></svg>