<svg width="40" height="40" viewBox="0 0 40 40" fill="none" xmlns="http://www.w3.org/2000/svg">
<path d="M4 4C4 1.79086 5.79086 0 8 0H24L36 12V36C36 38.2091 34.2091 40 32 40H8C5.79086 40 4 38.2091 4 36V4Z" fill="url(#paint0_linear_6726_49188)"/>
<path d="M24 0L36 12H28C25.7909 12 24 10.2091 24 8V0Z" fill="#CDD5DF"/>
<path d="M14.0356 32.09C13.5676 32.09 13.1356 32.009 12.7396 31.847C12.3436 31.679 11.9986 31.445 11.7046 31.145C11.4166 30.845 11.1916 30.491 11.0296 30.083C10.8676 29.669 10.7866 29.219 10.7866 28.733C10.7866 28.247 10.8646 27.803 11.0206 27.401C11.1826 26.999 11.4076 26.651 11.6956 26.357C11.9896 26.057 12.3346 25.829 12.7306 25.673C13.1266 25.511 13.5616 25.43 14.0356 25.43C14.5696 25.43 15.0496 25.535 15.4756 25.745C15.9076 25.949 16.2586 26.24 16.5286 26.618C16.8046 26.99 16.9726 27.428 17.0326 27.932H15.6826C15.6046 27.47 15.4156 27.122 15.1156 26.888C14.8156 26.648 14.4586 26.528 14.0446 26.528C13.6786 26.528 13.3546 26.615 13.0726 26.789C12.7966 26.963 12.5806 27.215 12.4246 27.545C12.2686 27.869 12.1906 28.262 12.1906 28.724C12.1906 29.192 12.2686 29.597 12.4246 29.939C12.5866 30.275 12.8086 30.536 13.0906 30.722C13.3726 30.902 13.6966 30.992 14.0626 30.992C14.4526 30.992 14.7976 30.875 15.0976 30.641C15.3976 30.407 15.5926 30.059 15.6826 29.597H17.0506C16.9726 30.101 16.7956 30.542 16.5196 30.92C16.2436 31.292 15.8926 31.58 15.4666 31.784C15.0406 31.988 14.5636 32.09 14.0356 32.09Z" fill="#4B5565"/>
<path d="M20.3806 32.081C19.5406 32.081 18.8686 31.895 18.3646 31.523C17.8606 31.145 17.5666 30.614 17.4826 29.93H18.8146C18.8566 30.278 19.0246 30.554 19.3186 30.758C19.6126 30.956 19.9876 31.055 20.4436 31.055C20.8156 31.055 21.1006 30.989 21.2986 30.857C21.5026 30.725 21.6046 30.548 21.6046 30.326C21.6046 30.116 21.5446 29.948 21.4246 29.822C21.3046 29.69 21.0976 29.585 20.8036 29.507L19.5976 29.174C18.9796 29 18.5266 28.763 18.2386 28.463C17.9566 28.157 17.8156 27.776 17.8156 27.32C17.8156 26.93 17.9146 26.594 18.1126 26.312C18.3166 26.024 18.6016 25.805 18.9676 25.655C19.3336 25.499 19.7626 25.421 20.2546 25.421C21.0106 25.421 21.6136 25.601 22.0636 25.961C22.5136 26.315 22.7686 26.786 22.8286 27.374H21.4966C21.4366 27.056 21.2896 26.822 21.0556 26.672C20.8276 26.522 20.5336 26.447 20.1736 26.447C19.8616 26.447 19.6126 26.507 19.4266 26.627C19.2406 26.747 19.1476 26.909 19.1476 27.113C19.1476 27.269 19.1986 27.413 19.3006 27.545C19.4026 27.671 19.6156 27.779 19.9396 27.869L21.1456 28.202C21.7816 28.376 22.2376 28.616 22.5136 28.922C22.7956 29.222 22.9366 29.603 22.9366 30.065C22.9366 30.713 22.7116 31.211 22.2616 31.559C21.8116 31.907 21.1846 32.081 20.3806 32.081Z" fill="#4B5565"/>
<path d="M25.3945 32L23.0725 25.52H24.5125L26.2855 30.92H26.1145L27.8965 25.52H29.2645L26.9425 32H25.3945Z" fill="#4B5565"/>
<defs>
<linearGradient id="paint0_linear_6726_49188" x1="20" y1="0" x2="20" y2="40" gradientUnits="userSpaceOnUse">
<stop stop-color="#F9FAFB"/>
<stop offset="1" stop-color="#EDF0F3"/>
</linearGradient>
</defs>
</svg>
