<svg width="40" height="40" viewBox="0 0 40 40" fill="none" xmlns="http://www.w3.org/2000/svg">
<path d="M7.75 4C7.75 2.20508 9.20508 0.75 11 0.75H27C27.1212 0.75 27.2375 0.798159 27.3232 0.883885L38.1161 11.6768C38.2018 11.7625 38.25 11.8788 38.25 12V36C38.25 37.7949 36.7949 39.25 35 39.25H11C9.20507 39.25 7.75 37.7949 7.75 36V4Z" fill="white" stroke="#CDD5DF" stroke-width="1.5"/>
<path d="M27 0.5V8C27 10.2091 28.7909 12 31 12H38.5" stroke="#CDD5DF" stroke-width="1.5"/>
<rect x="0.302734" y="18" width="30.3948" height="16" rx="2" fill="#0F6AF5"/>
<path d="M5.24273 29.6V28.4H7.06273C7.58273 28.4 8.02273 28.2967 8.38273 28.09C8.7494 27.8767 9.02607 27.5867 9.21273 27.22C9.40607 26.8533 9.50273 26.4333 9.50273 25.96C9.50273 25.4933 9.4094 25.0833 9.22273 24.73C9.03607 24.3767 8.7594 24.1 8.39273 23.9C8.03273 23.7 7.5894 23.6 7.06273 23.6H5.27273V22.4H7.06273C7.8694 22.4 8.57273 22.5467 9.17273 22.84C9.77273 23.1267 10.2361 23.54 10.5627 24.08C10.8961 24.6133 11.0627 25.2467 11.0627 25.98C11.0627 26.7133 10.8961 27.3533 10.5627 27.9C10.2294 28.44 9.76273 28.86 9.16273 29.16C8.5694 29.4533 7.87273 29.6 7.07273 29.6H5.24273ZM4.30273 29.6V22.4H5.84273V29.6H4.30273Z" fill="white"/>
<path d="M15.4002 29.7C14.8668 29.7 14.3735 29.61 13.9202 29.43C13.4735 29.25 13.0835 28.9967 12.7502 28.67C12.4235 28.3367 12.1668 27.9433 11.9802 27.49C11.8002 27.03 11.7102 26.5233 11.7102 25.97C11.7102 25.2367 11.8668 24.5967 12.1802 24.05C12.4935 23.4967 12.9268 23.0667 13.4802 22.76C14.0402 22.4533 14.6768 22.3 15.3902 22.3C16.1168 22.3 16.7568 22.4533 17.3102 22.76C17.8635 23.0667 18.2968 23.4967 18.6102 24.05C18.9302 24.6033 19.0902 25.2467 19.0902 25.98C19.0902 26.5267 18.9968 27.03 18.8102 27.49C18.6302 27.9433 18.3735 28.3367 18.0402 28.67C17.7135 28.9967 17.3235 29.25 16.8702 29.43C16.4235 29.61 15.9335 29.7 15.4002 29.7ZM15.3902 28.48C15.8102 28.48 16.1802 28.3733 16.5002 28.16C16.8202 27.9467 17.0702 27.6533 17.2502 27.28C17.4368 26.9 17.5302 26.46 17.5302 25.96C17.5302 25.4667 17.4402 25.0367 17.2602 24.67C17.0802 24.3033 16.8302 24.02 16.5102 23.82C16.1902 23.62 15.8168 23.52 15.3902 23.52C14.9702 23.52 14.6002 23.62 14.2802 23.82C13.9602 24.02 13.7102 24.3033 13.5302 24.67C13.3568 25.03 13.2702 25.46 13.2702 25.96C13.2702 26.4667 13.3602 26.91 13.5402 27.29C13.7202 27.6633 13.9702 27.9567 14.2902 28.17C14.6102 28.3767 14.9768 28.48 15.3902 28.48Z" fill="white"/>
<path d="M23.3475 29.7C22.8275 29.7 22.3475 29.61 21.9075 29.43C21.4675 29.2433 21.0842 28.9833 20.7575 28.65C20.4375 28.3167 20.1875 27.9233 20.0075 27.47C19.8275 27.01 19.7375 26.51 19.7375 25.97C19.7375 25.43 19.8242 24.9367 19.9975 24.49C20.1775 24.0433 20.4275 23.6567 20.7475 23.33C21.0742 22.9967 21.4575 22.7433 21.8975 22.57C22.3375 22.39 22.8208 22.3 23.3475 22.3C23.9408 22.3 24.4742 22.4167 24.9475 22.65C25.4275 22.8767 25.8175 23.2 26.1175 23.62C26.4242 24.0333 26.6108 24.52 26.6775 25.08H25.1775C25.0908 24.5667 24.8808 24.18 24.5475 23.92C24.2142 23.6533 23.8175 23.52 23.3575 23.52C22.9508 23.52 22.5908 23.6167 22.2775 23.81C21.9708 24.0033 21.7308 24.2833 21.5575 24.65C21.3842 25.01 21.2975 25.4467 21.2975 25.96C21.2975 26.48 21.3842 26.93 21.5575 27.31C21.7375 27.6833 21.9842 27.9733 22.2975 28.18C22.6108 28.38 22.9708 28.48 23.3775 28.48C23.8108 28.48 24.1942 28.35 24.5275 28.09C24.8608 27.83 25.0775 27.4433 25.1775 26.93H26.6975C26.6108 27.49 26.4142 27.98 26.1075 28.4C25.8008 28.8133 25.4108 29.1333 24.9375 29.36C24.4642 29.5867 23.9342 29.7 23.3475 29.7Z" fill="white"/>
</svg>
