<svg width="40" height="40" viewBox="0 0 40 40" fill="none" xmlns="http://www.w3.org/2000/svg">
<path d="M4 4C4 1.79086 5.79086 0 8 0H24L36 12V36C36 38.2091 34.2091 40 32 40H8C5.79086 40 4 38.2091 4 36V4Z" fill="#0F6AF5"/>
<path opacity="0.3" d="M24 0L36 12H28C25.7909 12 24 10.2091 24 8V0Z" fill="white"/>
<path d="M7.92779 32V30.92H9.56579C10.0338 30.92 10.4298 30.827 10.7538 30.641C11.0838 30.449 11.3328 30.188 11.5008 29.858C11.6748 29.528 11.7618 29.15 11.7618 28.724C11.7618 28.304 11.6778 27.935 11.5098 27.617C11.3418 27.299 11.0928 27.05 10.7628 26.87C10.4388 26.69 10.0398 26.6 9.56579 26.6H7.95479V25.52H9.56579C10.2918 25.52 10.9248 25.652 11.4648 25.916C12.0048 26.174 12.4218 26.546 12.7158 27.032C13.0158 27.512 13.1658 28.082 13.1658 28.742C13.1658 29.402 13.0158 29.978 12.7158 30.47C12.4158 30.956 11.9958 31.334 11.4558 31.604C10.9218 31.868 10.2948 32 9.57479 32H7.92779ZM7.08179 32V25.52H8.46779V32H7.08179Z" fill="white"/>
<path d="M17.0695 32.09C16.5895 32.09 16.1455 32.009 15.7375 31.847C15.3355 31.685 14.9845 31.457 14.6845 31.163C14.3905 30.863 14.1595 30.509 13.9915 30.101C13.8295 29.687 13.7485 29.231 13.7485 28.733C13.7485 28.073 13.8895 27.497 14.1715 27.005C14.4535 26.507 14.8435 26.12 15.3415 25.844C15.8455 25.568 16.4185 25.43 17.0605 25.43C17.7145 25.43 18.2905 25.568 18.7885 25.844C19.2865 26.12 19.6765 26.507 19.9585 27.005C20.2465 27.503 20.3905 28.082 20.3905 28.742C20.3905 29.234 20.3065 29.687 20.1385 30.101C19.9765 30.509 19.7455 30.863 19.4455 31.163C19.1515 31.457 18.8005 31.685 18.3925 31.847C17.9905 32.009 17.5495 32.09 17.0695 32.09ZM17.0605 30.992C17.4385 30.992 17.7715 30.896 18.0595 30.704C18.3475 30.512 18.5725 30.248 18.7345 29.912C18.9025 29.57 18.9865 29.174 18.9865 28.724C18.9865 28.28 18.9055 27.893 18.7435 27.563C18.5815 27.233 18.3565 26.978 18.0685 26.798C17.7805 26.618 17.4445 26.528 17.0605 26.528C16.6825 26.528 16.3495 26.618 16.0615 26.798C15.7735 26.978 15.5485 27.233 15.3865 27.563C15.2305 27.887 15.1525 28.274 15.1525 28.724C15.1525 29.18 15.2335 29.579 15.3955 29.921C15.5575 30.257 15.7825 30.521 16.0705 30.713C16.3585 30.899 16.6885 30.992 17.0605 30.992Z" fill="white"/>
<path d="M24.2221 32.09C23.7541 32.09 23.3221 32.009 22.9261 31.847C22.5301 31.679 22.1851 31.445 21.8911 31.145C21.6031 30.845 21.3781 30.491 21.2161 30.083C21.0541 29.669 20.9731 29.219 20.9731 28.733C20.9731 28.247 21.0511 27.803 21.2071 27.401C21.3691 26.999 21.5941 26.651 21.8821 26.357C22.1761 26.057 22.5211 25.829 22.9171 25.673C23.3131 25.511 23.7481 25.43 24.2221 25.43C24.7561 25.43 25.2361 25.535 25.6621 25.745C26.0941 25.949 26.4451 26.24 26.7151 26.618C26.9911 26.99 27.1591 27.428 27.2191 27.932H25.8691C25.7911 27.47 25.6021 27.122 25.3021 26.888C25.0021 26.648 24.6451 26.528 24.2311 26.528C23.8651 26.528 23.5411 26.615 23.2591 26.789C22.9831 26.963 22.7671 27.215 22.6111 27.545C22.4551 27.869 22.3771 28.262 22.3771 28.724C22.3771 29.192 22.4551 29.597 22.6111 29.939C22.7731 30.275 22.9951 30.536 23.2771 30.722C23.5591 30.902 23.8831 30.992 24.2491 30.992C24.6391 30.992 24.9841 30.875 25.2841 30.641C25.5841 30.407 25.7791 30.059 25.8691 29.597H27.2371C27.1591 30.101 26.9821 30.542 26.7061 30.92C26.4301 31.292 26.0791 31.58 25.6531 31.784C25.2271 31.988 24.7501 32.09 24.2221 32.09Z" fill="white"/>
<path d="M31.5697 32L29.7787 29.165L27.2767 25.52H28.8967L30.5797 28.193L33.1897 32H31.5697ZM29.9767 28.184L31.7227 25.52H33.1897L30.4357 29.345L29.9767 28.184ZM30.2917 29.381L28.5727 32H27.1057L29.8327 28.22L30.2917 29.381Z" fill="white"/>
</svg>
