<svg width="40" height="40" viewBox="0 0 40 40" fill="none" xmlns="http://www.w3.org/2000/svg">
<path d="M7.75 4C7.75 2.20508 9.20508 0.75 11 0.75H27C27.1212 0.75 27.2375 0.798159 27.3232 0.883885L38.1161 11.6768C38.2018 11.7625 38.25 11.8788 38.25 12V36C38.25 37.7949 36.7949 39.25 35 39.25H11C9.20507 39.25 7.75 37.7949 7.75 36V4Z" fill="white" stroke="#CDD5DF" stroke-width="1.5"/>
<path d="M27 0.5V8C27 10.2091 28.7909 12 31 12H38.5" stroke="#CDD5DF" stroke-width="1.5"/>
<rect x="0.495605" y="18" width="37.0088" height="16" rx="2" fill="#0F6AF5"/>
<path d="M5.43561 29.6V28.4H7.25561C7.77561 28.4 8.21561 28.2967 8.57561 28.09C8.94227 27.8767 9.21894 27.5867 9.40561 27.22C9.59894 26.8533 9.69561 26.4333 9.69561 25.96C9.69561 25.4933 9.60227 25.0833 9.41561 24.73C9.22894 24.3767 8.95227 24.1 8.58561 23.9C8.22561 23.7 7.78227 23.6 7.25561 23.6H5.46561V22.4H7.25561C8.06227 22.4 8.76561 22.5467 9.36561 22.84C9.96561 23.1267 10.4289 23.54 10.7556 24.08C11.0889 24.6133 11.2556 25.2467 11.2556 25.98C11.2556 26.7133 11.0889 27.3533 10.7556 27.9C10.4223 28.44 9.95561 28.86 9.35561 29.16C8.76227 29.4533 8.06561 29.6 7.26561 29.6H5.43561ZM4.49561 29.6V22.4H6.03561V29.6H4.49561Z" fill="white"/>
<path d="M15.593 29.7C15.0597 29.7 14.5664 29.61 14.113 29.43C13.6664 29.25 13.2764 28.9967 12.943 28.67C12.6164 28.3367 12.3597 27.9433 12.173 27.49C11.993 27.03 11.903 26.5233 11.903 25.97C11.903 25.2367 12.0597 24.5967 12.373 24.05C12.6864 23.4967 13.1197 23.0667 13.673 22.76C14.233 22.4533 14.8697 22.3 15.583 22.3C16.3097 22.3 16.9497 22.4533 17.503 22.76C18.0564 23.0667 18.4897 23.4967 18.803 24.05C19.123 24.6033 19.283 25.2467 19.283 25.98C19.283 26.5267 19.1897 27.03 19.003 27.49C18.823 27.9433 18.5664 28.3367 18.233 28.67C17.9064 28.9967 17.5164 29.25 17.063 29.43C16.6164 29.61 16.1264 29.7 15.593 29.7ZM15.583 28.48C16.003 28.48 16.373 28.3733 16.693 28.16C17.013 27.9467 17.263 27.6533 17.443 27.28C17.6297 26.9 17.723 26.46 17.723 25.96C17.723 25.4667 17.633 25.0367 17.453 24.67C17.273 24.3033 17.023 24.02 16.703 23.82C16.383 23.62 16.0097 23.52 15.583 23.52C15.163 23.52 14.793 23.62 14.473 23.82C14.153 24.02 13.903 24.3033 13.723 24.67C13.5497 25.03 13.463 25.46 13.463 25.96C13.463 26.4667 13.553 26.91 13.733 27.29C13.913 27.6633 14.163 27.9567 14.483 28.17C14.803 28.3767 15.1697 28.48 15.583 28.48Z" fill="white"/>
<path d="M23.5404 29.7C23.0204 29.7 22.5404 29.61 22.1004 29.43C21.6604 29.2433 21.277 28.9833 20.9504 28.65C20.6304 28.3167 20.3804 27.9233 20.2004 27.47C20.0204 27.01 19.9304 26.51 19.9304 25.97C19.9304 25.43 20.017 24.9367 20.1904 24.49C20.3704 24.0433 20.6204 23.6567 20.9404 23.33C21.267 22.9967 21.6504 22.7433 22.0904 22.57C22.5304 22.39 23.0137 22.3 23.5404 22.3C24.1337 22.3 24.667 22.4167 25.1404 22.65C25.6204 22.8767 26.0104 23.2 26.3104 23.62C26.617 24.0333 26.8037 24.52 26.8704 25.08H25.3704C25.2837 24.5667 25.0737 24.18 24.7404 23.92C24.407 23.6533 24.0104 23.52 23.5504 23.52C23.1437 23.52 22.7837 23.6167 22.4704 23.81C22.1637 24.0033 21.9237 24.2833 21.7504 24.65C21.577 25.01 21.4904 25.4467 21.4904 25.96C21.4904 26.48 21.577 26.93 21.7504 27.31C21.9304 27.6833 22.177 27.9733 22.4904 28.18C22.8037 28.38 23.1637 28.48 23.5704 28.48C24.0037 28.48 24.387 28.35 24.7204 28.09C25.0537 27.83 25.2704 27.4433 25.3704 26.93H26.8904C26.8037 27.49 26.607 27.98 26.3004 28.4C25.9937 28.8133 25.6037 29.1333 25.1304 29.36C24.657 29.5867 24.127 29.7 23.5404 29.7Z" fill="white"/>
<path d="M31.7044 29.6L29.7144 26.45L26.9344 22.4H28.7344L30.6044 25.37L33.5044 29.6H31.7044ZM29.9344 25.36L31.8744 22.4H33.5044L30.4444 26.65L29.9344 25.36ZM30.2844 26.69L28.3744 29.6H26.7444L29.7744 25.4L30.2844 26.69Z" fill="white"/>
</svg>
