<svg width="40" height="40" viewBox="0 0 40 40" fill="none" xmlns="http://www.w3.org/2000/svg">
<path d="M7.75 4C7.75 2.20508 9.20508 0.75 11 0.75H27C27.1212 0.75 27.2375 0.798159 27.3232 0.883885L38.1161 11.6768C38.2018 11.7625 38.25 11.8788 38.25 12V36C38.25 37.7949 36.7949 39.25 35 39.25H11C9.20507 39.25 7.75 37.7949 7.75 36V4Z" fill="white" stroke="#CDD5DF" stroke-width="1.5"/>
<path d="M27 0.5V8C27 10.2091 28.7909 12 31 12H38.5" stroke="#CDD5DF" stroke-width="1.5"/>
<rect x="0.321289" y="18" width="27.3573" height="16" rx="2" fill="#EC3D27"/>
<path d="M4.32129 29.6V22.4H7.74129C8.27462 22.4 8.73129 22.4933 9.11129 22.68C9.49796 22.8667 9.79462 23.1267 10.0013 23.46C10.2146 23.7933 10.3213 24.1833 10.3213 24.63C10.3213 25.0767 10.2146 25.47 10.0013 25.81C9.78796 26.15 9.48796 26.4167 9.10129 26.61C8.72129 26.7967 8.26796 26.89 7.74129 26.89H5.54129V25.71H7.66129C8.01462 25.71 8.28796 25.6133 8.48129 25.42C8.68129 25.22 8.78129 24.96 8.78129 24.64C8.78129 24.32 8.68129 24.0633 8.48129 23.87C8.28796 23.6767 8.01462 23.58 7.66129 23.58H5.86129V29.6H4.32129Z" fill="white"/>
<path d="M11.98 29.6V28.4H13.8C14.32 28.4 14.76 28.2967 15.12 28.09C15.4867 27.8767 15.7634 27.5867 15.95 27.22C16.1434 26.8533 16.24 26.4333 16.24 25.96C16.24 25.4933 16.1467 25.0833 15.96 24.73C15.7734 24.3767 15.4967 24.1 15.13 23.9C14.77 23.7 14.3267 23.6 13.8 23.6H12.01V22.4H13.8C14.6067 22.4 15.31 22.5467 15.91 22.84C16.51 23.1267 16.9734 23.54 17.3 24.08C17.6334 24.6133 17.8 25.2467 17.8 25.98C17.8 26.7133 17.6334 27.3533 17.3 27.9C16.9667 28.44 16.5 28.86 15.9 29.16C15.3067 29.4533 14.61 29.6 13.81 29.6H11.98ZM11.04 29.6V22.4H12.58V29.6H11.04Z" fill="white"/>
<path d="M18.5986 29.6V22.4H20.1386V29.6H18.5986ZM19.3186 26.81V25.63H23.4486V26.81H19.3186ZM19.3186 23.58V22.4H23.6786V23.58H19.3186Z" fill="white"/>
</svg>
