<svg width="40" height="40" viewBox="0 0 40 40" fill="none" xmlns="http://www.w3.org/2000/svg">
<path d="M4 4C4 1.79086 5.79086 0 8 0H24L36 12V36C36 38.2091 34.2091 40 32 40H8C5.79086 40 4 38.2091 4 36V4Z" fill="#EC3D27"/>
<path opacity="0.3" d="M24 0L36 12H28C25.7909 12 24 10.2091 24 8V0Z" fill="white"/>
<path d="M11.406 32V25.52H14.484C14.964 25.52 15.375 25.604 15.717 25.772C16.065 25.94 16.332 26.174 16.518 26.474C16.71 26.774 16.806 27.125 16.806 27.527C16.806 27.929 16.71 28.283 16.518 28.589C16.326 28.895 16.056 29.135 15.708 29.309C15.366 29.477 14.958 29.561 14.484 29.561H12.504V28.499H14.412C14.73 28.499 14.976 28.412 15.15 28.238C15.33 28.058 15.42 27.824 15.42 27.536C15.42 27.248 15.33 27.017 15.15 26.843C14.976 26.669 14.73 26.582 14.412 26.582H12.792V32H11.406Z" fill="white"/>
<path d="M17.4529 32V25.52H20.5309C21.0109 25.52 21.4219 25.604 21.7639 25.772C22.1119 25.94 22.3789 26.174 22.5649 26.474C22.7569 26.774 22.8529 27.125 22.8529 27.527C22.8529 27.929 22.7569 28.283 22.5649 28.589C22.3729 28.895 22.1029 29.135 21.7549 29.309C21.4129 29.477 21.0049 29.561 20.5309 29.561H18.5509V28.499H20.4589C20.7769 28.499 21.0229 28.412 21.1969 28.238C21.3769 28.058 21.4669 27.824 21.4669 27.536C21.4669 27.248 21.3769 27.017 21.1969 26.843C21.0229 26.669 20.7769 26.582 20.4589 26.582H18.8389V32H17.4529Z" fill="white"/>
<path d="M25.328 32V26.582H23.213V25.52H28.829V26.582H26.714V32H25.328Z" fill="white"/>
</svg>
