<svg width="40" height="40" viewBox="0 0 40 40" fill="none" xmlns="http://www.w3.org/2000/svg">
<path d="M4 4C4 1.79086 5.79086 0 8 0H24L36 12V36C36 38.2091 34.2091 40 32 40H8C5.79086 40 4 38.2091 4 36V4Z" fill="url(#paint0_linear_6726_49252)"/>
<path d="M24 0L36 12H28C25.7909 12 24 10.2091 24 8V0Z" fill="#CDD5DF"/>
<path d="M8.20679 32V25.52H11.2848C11.7648 25.52 12.1758 25.604 12.5178 25.772C12.8658 25.94 13.1328 26.174 13.3188 26.474C13.5108 26.774 13.6068 27.125 13.6068 27.527C13.6068 27.929 13.5108 28.283 13.3188 28.589C13.1268 28.895 12.8568 29.135 12.5088 29.309C12.1668 29.477 11.7588 29.561 11.2848 29.561H9.30479V28.499H11.2128C11.5308 28.499 11.7768 28.412 11.9508 28.238C12.1308 28.058 12.2208 27.824 12.2208 27.536C12.2208 27.248 12.1308 27.017 11.9508 26.843C11.7768 26.669 11.5308 26.582 11.2128 26.582H9.59279V32H8.20679Z" fill="#4B5565"/>
<path d="M14.2537 32V25.52H17.3317C17.8117 25.52 18.2227 25.604 18.5647 25.772C18.9127 25.94 19.1797 26.174 19.3657 26.474C19.5577 26.774 19.6537 27.125 19.6537 27.527C19.6537 27.929 19.5577 28.283 19.3657 28.589C19.1737 28.895 18.9037 29.135 18.5557 29.309C18.2137 29.477 17.8057 29.561 17.3317 29.561H15.3517V28.499H17.2597C17.5777 28.499 17.8237 28.412 17.9977 28.238C18.1777 28.058 18.2677 27.824 18.2677 27.536C18.2677 27.248 18.1777 27.017 17.9977 26.843C17.8237 26.669 17.5777 26.582 17.2597 26.582H15.6397V32H14.2537Z" fill="#4B5565"/>
<path d="M22.1288 32V26.582H20.0138V25.52H25.6298V26.582H23.5148V32H22.1288Z" fill="#4B5565"/>
<path d="M30.4447 32L28.6537 29.165L26.1517 25.52H27.7717L29.4547 28.193L32.0647 32H30.4447ZM28.8517 28.184L30.5977 25.52H32.0647L29.3107 29.345L28.8517 28.184ZM29.1667 29.381L27.4477 32H25.9807L28.7077 28.22L29.1667 29.381Z" fill="#4B5565"/>
<defs>
<linearGradient id="paint0_linear_6726_49252" x1="20" y1="0" x2="20" y2="40" gradientUnits="userSpaceOnUse">
<stop stop-color="#F9FAFB"/>
<stop offset="1" stop-color="#EDF0F3"/>
</linearGradient>
</defs>
</svg>
