<svg width="40" height="40" viewBox="0 0 40 40" fill="none" xmlns="http://www.w3.org/2000/svg">
<path d="M7.75 4C7.75 2.20508 9.20508 0.75 11 0.75H27C27.1212 0.75 27.2375 0.798159 27.3232 0.883885L38.1161 11.6768C38.2018 11.7625 38.25 11.8788 38.25 12V36C38.25 37.7949 36.7949 39.25 35 39.25H11C9.20507 39.25 7.75 37.7949 7.75 36V4Z" fill="white" stroke="#CDD5DF" stroke-width="1.5"/>
<path d="M27 0.5V8C27 10.2091 28.7909 12 31 12H38.5" stroke="#CDD5DF" stroke-width="1.5"/>
<rect x="0.245605" y="18" width="34.5088" height="16" rx="2" fill="#EC3D27"/>
<path d="M4.24561 29.6V22.4H7.66561C8.19894 22.4 8.65561 22.4933 9.03561 22.68C9.42227 22.8667 9.71894 23.1267 9.92561 23.46C10.1389 23.7933 10.2456 24.1833 10.2456 24.63C10.2456 25.0767 10.1389 25.47 9.92561 25.81C9.71227 26.15 9.41227 26.4167 9.02561 26.61C8.64561 26.7967 8.19227 26.89 7.66561 26.89H5.46561V25.71H7.58561C7.93894 25.71 8.21227 25.6133 8.40561 25.42C8.60561 25.22 8.70561 24.96 8.70561 24.64C8.70561 24.32 8.60561 24.0633 8.40561 23.87C8.21227 23.6767 7.93894 23.58 7.58561 23.58H5.78561V29.6H4.24561Z" fill="white"/>
<path d="M10.9644 29.6V22.4H14.3844C14.9177 22.4 15.3744 22.4933 15.7544 22.68C16.141 22.8667 16.4377 23.1267 16.6444 23.46C16.8577 23.7933 16.9644 24.1833 16.9644 24.63C16.9644 25.0767 16.8577 25.47 16.6444 25.81C16.431 26.15 16.131 26.4167 15.7444 26.61C15.3644 26.7967 14.911 26.89 14.3844 26.89H12.1844V25.71H14.3044C14.6577 25.71 14.931 25.6133 15.1244 25.42C15.3244 25.22 15.4244 24.96 15.4244 24.64C15.4244 24.32 15.3244 24.0633 15.1244 23.87C14.931 23.6767 14.6577 23.58 14.3044 23.58H12.5044V29.6H10.9644Z" fill="white"/>
<path d="M19.7145 29.6V23.58H17.3645V22.4H23.6045V23.58H21.2545V29.6H19.7145Z" fill="white"/>
<path d="M28.9544 29.6L26.9644 26.45L24.1844 22.4H25.9844L27.8544 25.37L30.7544 29.6H28.9544ZM27.1844 25.36L29.1244 22.4H30.7544L27.6944 26.65L27.1844 25.36ZM27.5344 26.69L25.6244 29.6H23.9944L27.0244 25.4L27.5344 26.69Z" fill="white"/>
</svg>
