<svg width="40" height="40" viewBox="0 0 40 40" fill="none" xmlns="http://www.w3.org/2000/svg">
<path d="M7.75 4C7.75 2.20508 9.20508 0.75 11 0.75H27C27.1212 0.75 27.2375 0.798159 27.3232 0.883885L38.1161 11.6768C38.2018 11.7625 38.25 11.8788 38.25 12V36C38.25 37.7949 36.7949 39.25 35 39.25H11C9.20507 39.25 7.75 37.7949 7.75 36V4Z" fill="white" stroke="#CDD5DF" stroke-width="1.5"/>
<path d="M27 0.5V8C27 10.2091 28.7909 12 31 12H38.5" stroke="#CDD5DF" stroke-width="1.5"/>
<rect x="0.671875" y="18" width="33.6565" height="16" rx="2" fill="#0E9384"/>
<path d="M9.63188 29.61L7.64188 26.46L4.86187 22.41H6.66188L8.53188 25.38L11.4319 29.61H9.63188ZM7.86188 25.37L9.80188 22.41H11.4319L8.37188 26.66L7.86188 25.37ZM8.21188 26.7L6.30188 29.61H4.67188L7.70188 25.41L8.21188 26.7Z" fill="white"/>
<path d="M12.1301 29.61V22.41H13.6701V29.61H12.1301ZM12.8501 29.61V28.43H17.1301V29.61H12.8501Z" fill="white"/>
<path d="M20.6272 29.7C19.6939 29.7 18.9472 29.4933 18.3872 29.08C17.8272 28.66 17.5005 28.07 17.4072 27.31H18.8872C18.9339 27.6967 19.1205 28.0033 19.4472 28.23C19.7739 28.45 20.1905 28.56 20.6972 28.56C21.1105 28.56 21.4272 28.4867 21.6472 28.34C21.8739 28.1933 21.9872 27.9967 21.9872 27.75C21.9872 27.5167 21.9205 27.33 21.7872 27.19C21.6539 27.0433 21.4239 26.9267 21.0972 26.84L19.7572 26.47C19.0705 26.2767 18.5672 26.0133 18.2472 25.68C17.9339 25.34 17.7772 24.9167 17.7772 24.41C17.7772 23.9767 17.8872 23.6033 18.1072 23.29C18.3339 22.97 18.6505 22.7267 19.0572 22.56C19.4639 22.3867 19.9405 22.3 20.4872 22.3C21.3272 22.3 21.9972 22.5 22.4972 22.9C22.9972 23.2933 23.2805 23.8167 23.3472 24.47H21.8672C21.8005 24.1167 21.6372 23.8567 21.3772 23.69C21.1239 23.5233 20.7972 23.44 20.3972 23.44C20.0505 23.44 19.7739 23.5067 19.5672 23.64C19.3605 23.7733 19.2572 23.9533 19.2572 24.18C19.2572 24.3533 19.3139 24.5133 19.4272 24.66C19.5405 24.8 19.7772 24.92 20.1372 25.02L21.4772 25.39C22.1839 25.5833 22.6905 25.85 22.9972 26.19C23.3105 26.5233 23.4672 26.9467 23.4672 27.46C23.4672 28.18 23.2172 28.7333 22.7172 29.12C22.2172 29.5067 21.5205 29.7 20.6272 29.7Z" fill="white"/>
<path d="M28.5284 29.61L26.5384 26.46L23.7584 22.41H25.5584L27.4284 25.38L30.3284 29.61H28.5284ZM26.7584 25.37L28.6984 22.41H30.3284L27.2684 26.66L26.7584 25.37ZM27.1084 26.7L25.1984 29.61H23.5684L26.5984 25.41L27.1084 26.7Z" fill="white"/>
</svg>
