<svg width="112" height="112" viewBox="0 0 112 112" fill="none" xmlns="http://www.w3.org/2000/svg">
<g clip-path="url(#clip0_6700_50600)">
<rect x="2" y="2" width="108" height="108" rx="8" fill="white"/>
<path d="M77.6801 59.5726C71.0845 59.6037 66.2504 54.6956 66.2001 47.9148C66.1512 41.2481 71.0475 36.1933 77.5586 36.1904C84.1912 36.1904 89.0416 41.0452 89.0756 47.7296C89.1112 54.6081 84.3704 59.5415 77.6801 59.5726ZM71.5082 48.017C71.4267 48.9504 71.6341 50.0081 72.0475 51.017C72.8845 53.0556 74.3408 54.4022 76.5541 54.7681C78.806 55.14 80.8282 54.58 82.2238 52.7207C84.2045 50.0807 84.326 47.1178 82.9512 44.217C81.1023 40.3207 75.7453 39.7726 72.9986 43.0985C71.8682 44.4659 71.4638 46.0941 71.5082 48.0156V48.017Z" fill="#FFBC25"/>
<path d="M37.0637 56.2615C36.0548 57.6867 34.8281 58.6318 33.2859 59.1133C30.8252 59.8748 28.397 59.8274 26.1333 58.4822C23.7496 57.0615 22.6726 54.9059 22.9526 52.1341C23.2326 49.3622 24.9274 47.7059 27.4444 46.8007C29.2844 46.1385 31.2459 46.0733 33.1526 45.737C33.8681 45.6096 34.5926 45.537 35.3096 45.417C37.0711 45.1207 37.0755 43.6659 36.4518 42.2733C36.1927 41.7014 35.7255 41.2495 35.1452 41.0096C33.4578 40.2926 31.7778 40.2244 30.1274 41.1563C29.1496 41.7148 28.5881 42.5785 28.3096 43.6467C28.1037 44.4333 28.0503 44.463 27.2607 44.2807C26.1866 44.0348 25.1111 43.78 24.0385 43.5578C23.4785 43.4407 23.3363 43.1681 23.4681 42.6141C24.1126 39.9148 25.7911 38.0733 28.2948 37.0452C31.3703 35.7815 34.517 35.8407 37.5703 37.1326C40.3289 38.3 41.7392 40.54 41.9229 43.4807C42.1289 46.7844 41.96 50.097 42.0015 53.4067C42.0133 54.3548 41.9348 55.303 42.0741 56.2481C42.1911 57.0452 42.5185 57.7178 43.1585 58.2215C43.317 58.3459 43.4992 58.457 43.4059 58.7C43.3126 58.943 43.0948 58.9148 42.8992 58.9163C41.9066 58.9163 40.9126 58.9474 39.9215 58.9163C38.6074 58.8748 37.6192 58.0837 37.2444 56.8422C37.2015 56.6911 37.154 56.5489 37.0637 56.2615ZM36.8148 50.1963C36.8148 49.8763 36.797 49.6763 36.8148 49.4793C36.8755 48.937 36.7466 48.7296 36.1259 48.8778C35.3585 49.0615 34.5511 49.0659 33.7748 49.2215C32.4829 49.4807 31.1333 49.46 29.8948 49.9815C28.7363 50.4704 28.0459 51.5548 28.117 52.7444C28.1483 53.3343 28.366 53.8989 28.7387 54.3571C29.1114 54.8153 29.62 55.1434 30.1911 55.2941C30.958 55.5124 31.7636 55.5592 32.5507 55.4312C33.3377 55.3032 34.087 55.0035 34.7452 54.5533C36.3378 53.5104 36.754 51.8659 36.8148 50.1963Z" fill="#FFBC25"/>
<path d="M57.0177 40.7607C57.0177 36.1504 57.0177 31.5395 57.0177 26.9281C57.0177 26.06 57.0622 26.017 57.9066 26.0155C59.3634 26.0155 60.8197 26.0155 62.2755 26.0155C63.1155 26.0155 63.1733 26.0837 63.1733 27.0022V51.7548C63.1733 52.5933 63.16 53.4318 63.1733 54.2733C63.2059 56.0141 64.0237 57.2911 65.5215 58.1459C65.7318 58.2659 66.0178 58.3237 65.9659 58.6393C65.8948 59.0126 65.5644 58.9178 65.317 58.9193C64.0815 58.9281 62.8459 58.9356 61.6133 58.9193C58.9066 58.8881 57.0414 57.0333 57.0326 54.3267C57.0074 49.8067 57.0177 45.2837 57.0177 40.7607Z" fill="#FFBC25"/>
<path d="M45.3096 40.7163V27.02C45.3096 26.0615 45.354 26.017 46.3214 26.017C48.3273 26.017 50.3348 26.017 52.3422 26.017C52.6533 26.017 53.0444 25.8955 53.2133 26.3015C53.3822 26.7074 53.0414 26.9133 52.8459 27.1578C51.4429 28.9118 50.0236 30.6555 48.6133 32.4037C48.477 32.5741 48.3022 32.7444 48.2444 32.943C48.1214 33.3607 48.3644 33.5696 48.7629 33.5844C49.2473 33.6037 49.7333 33.5844 50.2192 33.5963C51.1762 33.6096 51.4785 33.8926 51.4873 34.8718C51.5022 36.2393 51.4873 37.6067 51.4873 38.9741C51.4873 43.936 51.4873 48.898 51.4873 53.86C51.4873 55.7578 52.2014 57.2348 53.911 58.1563C54.1081 58.2644 54.3377 58.3578 54.2918 58.6304C54.234 58.9622 53.9451 58.9148 53.7081 58.9148C52.3629 58.9148 51.0177 58.9489 49.6725 58.9148C47.2059 58.8393 45.3318 56.9044 45.3229 54.4126C45.3066 49.8467 45.3229 45.2822 45.3229 40.7178L45.3096 40.7163Z" fill="#FFBC25"/>
<path d="M22 85.6378V61.4896H25.197V71.8778H25.3896C25.6244 71.4617 25.8924 71.0654 26.1911 70.6926C26.5896 70.2019 27.0848 69.7985 27.6459 69.5074C28.2652 69.1696 29.0849 69.0007 30.1052 69.0007C31.3632 68.98 32.5995 69.3293 33.6607 70.0052C34.7007 70.6748 35.5185 71.6407 36.1141 72.903C36.7096 74.1652 37.0059 75.6832 37.003 77.457C37.003 79.2348 36.7067 80.7548 36.1141 82.017C35.5215 83.2792 34.7086 84.2531 33.6756 84.9385C32.624 85.624 31.3914 85.9795 30.1363 85.9592C29.1388 85.9592 28.3244 85.7918 27.6933 85.457C27.1234 85.1717 26.6189 84.7712 26.2119 84.2807C25.9052 83.9048 25.6297 83.5044 25.3881 83.0837H25.1215V85.6378H22ZM25.1333 77.4274C25.1129 78.4615 25.2831 79.4905 25.6356 80.4629C25.9207 81.2641 26.4241 81.9697 27.0889 82.5C27.7608 83.0013 28.5829 83.2598 29.4207 83.2333C30.3748 83.2333 31.1728 82.978 31.8148 82.4674C32.4825 81.9232 32.9874 81.2056 33.2741 80.3933C33.9337 78.489 33.9379 76.4188 33.2859 74.5118C33.0027 73.708 32.4985 73.0004 31.8311 72.4704C31.1862 71.9706 30.3827 71.7212 29.4207 71.7222C28.4933 71.7222 27.7106 71.9607 27.0726 72.4378C26.4088 72.9524 25.9065 73.6464 25.6252 74.4378C25.2796 75.3958 25.1129 76.4091 25.1333 77.4274Z" fill="#282828"/>
<path d="M44.6667 86.0022C43.6971 86.0155 42.7363 85.8163 41.8519 85.4185C41.0401 85.0545 40.3485 84.4673 39.8578 83.7252C39.3699 82.9835 39.126 82.0743 39.126 80.9978C39.126 80.0723 39.3042 79.3099 39.6608 78.7104C40.0097 78.1187 40.5071 77.6284 41.1038 77.2881C41.7387 76.9271 42.423 76.6606 43.1349 76.497C43.8894 76.3178 44.6536 76.1822 45.4238 76.0911C46.4114 75.9765 47.2094 75.8817 47.8178 75.8067C48.4262 75.7316 48.8707 75.6086 49.1512 75.4378C49.2897 75.3496 49.4016 75.2254 49.4749 75.0784C49.5483 74.9315 49.5802 74.7674 49.5675 74.6037V74.5296C49.5675 73.5963 49.3057 72.8728 48.7823 72.3592C48.2588 71.8457 47.4796 71.5889 46.4445 71.5889C45.367 71.5889 44.5205 71.8259 43.9052 72.3C43.3456 72.7021 42.9041 73.2469 42.6267 73.8778L39.6297 73.1933C39.9394 72.267 40.478 71.4338 41.1956 70.7711C41.8823 70.1559 42.6939 69.6965 43.5749 69.4244C44.4925 69.1401 45.4483 68.9977 46.4089 69.0022C47.1118 69.0068 47.8122 69.0838 48.4993 69.2318C49.2355 69.3842 49.9381 69.6683 50.5734 70.0704C51.2424 70.5046 51.7891 71.1029 52.1615 71.8081C52.5754 72.5607 52.7818 73.5355 52.7808 74.7326V85.6378H49.6519V83.3933H49.523C49.2841 83.8495 48.9695 84.2617 48.5926 84.6126C48.1301 85.0426 47.5895 85.38 47 85.6067C46.255 85.8876 45.4627 86.0219 44.6667 86.0022ZM45.3615 83.4363C46.15 83.4581 46.9308 83.2776 47.6297 82.9119C48.2273 82.5942 48.7268 82.1193 49.0741 81.5385C49.4006 80.9863 49.5721 80.3563 49.5704 79.7148V77.5978C49.378 77.7516 49.153 77.8595 48.9126 77.9133C48.5492 78.0181 48.1796 78.1002 47.806 78.1593C47.3926 78.2274 46.9912 78.2881 46.5986 78.3415L45.6149 78.4748C45.039 78.5437 44.4726 78.6764 43.926 78.8704C43.4583 79.0278 43.0386 79.3021 42.7067 79.6674C42.3905 80.0531 42.2289 80.5426 42.2534 81.0407C42.2534 81.8309 42.5452 82.4279 43.1289 82.8318C43.7126 83.2358 44.4578 83.4373 45.3645 83.4363H45.3615Z" fill="#282828"/>
<path d="M59.5335 75.8867V85.6378H56.3364V69.2155H59.4046V71.8822H59.6075C59.9774 71.0219 60.5966 70.2922 61.3853 69.7874C62.1942 69.26 63.2154 68.9963 64.449 68.9963C65.475 68.9757 66.4888 69.2201 67.3927 69.7059C68.241 70.1814 68.9235 70.9052 69.3483 71.78C69.8115 72.7005 70.0431 73.8363 70.0431 75.1874V85.6333H66.8461V75.577C66.8461 74.3918 66.5364 73.46 65.9172 72.7815C65.2979 72.103 64.4461 71.7662 63.3616 71.7711C62.6732 71.7576 61.9931 71.9235 61.3883 72.2526C60.8084 72.5787 60.3366 73.0674 60.0312 73.6585C59.6824 74.3482 59.5113 75.1141 59.5335 75.8867Z" fill="#282828"/>
<path d="M83.9983 85.6378H87.9227L80.825 76.2644L87.4724 69.2155H83.6457L77.102 76.1652H76.8235V61.2244H73.6279V85.6378H76.8235V79.8111L78.4116 78.2229L83.9983 85.6378Z" fill="#282828"/>
</g>
<rect x="1" y="1" width="110" height="110" rx="9" stroke="black" stroke-opacity="0.1" stroke-width="2"/>
<defs>
<clipPath id="clip0_6700_50600">
<rect x="2" y="2" width="108" height="108" rx="8" fill="white"/>
</clipPath>
</defs>
</svg>
