<svg width="112" height="112" viewBox="0 0 112 112" fill="none" xmlns="http://www.w3.org/2000/svg">
<g clip-path="url(#clip0_6700_50721)">
<rect x="2" y="2" width="108" height="108" rx="8" fill="white"/>
<path fill-rule="evenodd" clip-rule="evenodd" d="M97 55.9971C97 33.3537 78.6409 14.9995 56.0024 14.9995C33.3562 14.9995 15 33.3537 15 55.9971C15 78.6375 33.3562 96.9976 56.0024 96.9976C78.6409 96.9976 97 78.6375 97 55.9971ZM45.7766 89.4987C49.0291 89.4987 51.4559 89.18 51.6308 84.7569H59.6358C59.8106 89.18 62.2685 89.3238 65.4394 89.3238V91.567H45.7766V89.4987ZM66.545 52.423C70.8312 53.7801 80.8909 58.3675 80.8909 67.8579C80.8909 77.2182 72.0679 82.7935 61.5953 82.7935H31.1091L31.1402 80.3648C36.6709 80.3648 38.3088 79.6362 38.3088 73.9889V38.2694C38.3088 31.983 35.8276 31.5895 31.1295 31.5895V29.3299C32.0097 29.3095 43.0846 29.324 51.6308 29.3299C51.4559 24.9018 49.0291 24.5803 45.7766 24.5803V22.5159H65.4394V24.7581C62.2685 24.7581 59.8106 24.9018 59.6358 29.3299H61.5953C66.0175 29.3299 76.8767 30.8522 76.8971 39.7927C76.9126 46.0666 72.675 50.0574 66.545 52.423ZM72.4584 69.3598C72.4584 61.9348 67.36 56.9919 61.1581 53.9968C57.1128 54.876 52.3642 55.3909 47.9226 55.4288L49.0388 52.6591C50.0472 52.626 50.8108 52.5639 51.6307 52.5153V33.9425H59.6358V51.3145C66.3439 49.3346 69.1524 45.3535 69.1524 40.7312C69.1524 34.8071 64.6603 31.9781 59.6154 31.9781L46.3294 31.983V74.1531C46.3294 78.6171 49.0136 79.5526 51.6307 79.5993V57.6651C54.6317 57.5602 57.856 57.1337 59.6358 56.7199V79.5993C66.033 79.5934 72.4584 75.6958 72.4584 69.3598Z" fill="#004F91"/>
</g>
<rect x="1" y="1" width="110" height="110" rx="9" stroke="black" stroke-opacity="0.1" stroke-width="2"/>
<defs>
<clipPath id="clip0_6700_50721">
<rect x="2" y="2" width="108" height="108" rx="8" fill="white"/>
</clipPath>
</defs>
</svg>
