<svg width="112" height="112" viewBox="0 0 112 112" fill="none" xmlns="http://www.w3.org/2000/svg">
<g clip-path="url(#clip0_6700_50266)">
<rect x="2" y="2" width="108" height="108" rx="8" fill="white"/>
<path fill-rule="evenodd" clip-rule="evenodd" d="M46.22 45.06C45.84 46.65 45.46 48.41 45.07 50C40.86 50.75 36.43 52.84 31.9 55.41C35.46 50.91 40.89 47.94 46.22 45.06ZM30.11 56.59C25.48 61.66 22.54 68.19 20.53 75.52C18.35 74.1 16.18 72.68 14 71.25C17.87 65.43 22.95 60.36 30.11 56.58V56.59Z" fill="#ED1C24"/>
<path fill-rule="evenodd" clip-rule="evenodd" d="M45.1499 37C46.0599 37.51 46.9799 38.02 47.8899 38.53C44.2299 40.58 40.5999 42.96 37.1799 46.87C38.6199 43.62 41.3899 40.33 45.1599 37H45.1499ZM32.8499 38.38C33.5299 38.47 34.2099 38.55 34.8899 38.63C33.6799 40.72 32.6599 42.94 32.0599 45.44C31.6399 43.3 32.1799 40.86 32.8499 38.38ZM33.6199 43.5C34.0599 43.52 34.4999 43.55 34.9299 43.57C33.9299 45.23 33.1099 46.98 32.4299 48.79C32.5799 47.13 32.9599 45.38 33.6199 43.5ZM34.4999 46.37C35.1799 46.78 35.8599 47.18 36.5399 47.59C34.7299 49.71 33.0399 51.92 31.6399 54.29C32.2299 51.72 33.3499 49.04 34.4999 46.37ZM29.7399 47.06C30.3999 46.93 31.0599 46.81 31.7099 46.68C31.1599 49.13 30.9599 51.58 31.0499 54.03C30.1299 51.96 29.8699 49.54 29.7299 47.06H29.7399ZM28.9999 49.17C29.1999 50.89 29.4899 52.61 30.0099 54.33C29.1699 53.17 28.4399 51.71 27.7599 50.11C28.1699 49.8 28.5899 49.49 28.9999 49.17ZM25.1099 51.84C25.6399 51.66 26.1599 51.48 26.6899 51.3C27.5099 52.43 28.3099 53.59 29.0899 54.79C27.8599 53.72 26.5099 52.76 25.1099 51.83V51.84ZM22.3099 47.95C22.7199 47.73 23.1299 47.51 23.5399 47.29C24.5199 48.22 25.4299 49.36 26.2599 50.73C25.0099 49.69 23.6999 48.76 22.3099 47.95ZM15.7099 52.31C16.1799 51.79 16.6399 51.26 17.1099 50.74C18.8999 51.33 20.6399 51.99 22.3399 52.7C20.1499 52.48 17.9299 52.35 15.6999 52.31H15.7099ZM21.9099 54.88C22.4299 54.3 22.9499 53.72 23.4799 53.13C25.3699 53.82 27.1999 54.63 28.9799 55.59C26.6199 55.22 24.2699 55.02 21.9099 54.88ZM18.5599 56.85C18.7999 56.31 19.0399 55.77 19.2699 55.23C21.1199 55.21 22.8799 55.48 24.5199 56.11C22.5299 56.17 20.5499 56.45 18.5599 56.86V56.85ZM14.8799 59.29C14.9899 58.76 15.1499 58.24 15.3699 57.72C16.7899 57.53 18.2099 57.45 19.6299 57.61C17.8799 58.03 16.3399 58.63 14.8899 59.28L14.8799 59.29ZM18.2799 61.89C18.7899 60.62 19.3199 59.34 19.8299 58.07C23.1199 56.79 26.3099 56.33 29.4499 56.33C25.4499 57.66 21.7899 59.63 18.2799 61.89ZM16.8699 65.62V63.69C18.3899 62.66 19.8799 62.01 21.3499 61.56C19.5699 62.68 18.0999 64.06 16.8699 65.62Z" fill="#FED860"/>
<path fill-rule="evenodd" clip-rule="evenodd" d="M69.5401 65.41V63.29L68.6201 63.66C68.1501 63.85 67.8201 64.04 67.6301 64.24C67.4301 64.44 67.3401 64.68 67.3401 64.97C67.3401 65.26 67.4301 65.51 67.6201 65.69C67.8001 65.88 68.0401 65.97 68.3401 65.97C68.7801 65.97 69.1801 65.79 69.5501 65.42L69.5401 65.41ZM70.8901 62.52V65.56C70.8901 65.81 70.9701 65.93 71.1301 65.93C71.2301 65.93 71.3701 65.88 71.5501 65.78C72.1701 65.46 71.6901 66.56 71.1601 66.83C70.9801 66.92 70.7701 66.94 70.5701 66.94C69.9801 66.94 69.6301 66.7 69.5301 66.22C68.9401 66.69 68.3201 66.92 67.6601 66.92C67.1801 66.92 66.7801 66.76 66.4501 66.43C66.1301 66.1 65.9601 65.68 65.9601 65.19C65.9601 64.74 66.1201 64.33 66.4301 63.98C66.7501 63.62 67.1901 63.34 67.7701 63.14L69.5301 62.52V62.14C69.5301 61.28 69.1101 60.85 68.2801 60.85C67.5301 60.85 66.8001 61.25 66.0901 62.04V60.49C66.6301 59.84 67.3901 59.52 68.3901 59.52C69.1401 59.52 69.7401 59.72 70.2001 60.13C70.3501 60.26 70.4901 60.43 70.6101 60.65C70.7301 60.86 70.8101 61.08 70.8401 61.29C70.8801 61.51 70.8901 61.91 70.8901 62.52ZM85.8201 59.66V60.57C86.4301 59.87 87.1201 59.52 87.9001 59.52C88.3301 59.52 88.7301 59.63 89.1001 59.86C89.4701 60.09 89.7501 60.41 89.9401 60.81C90.1401 61.21 90.2301 61.85 90.2301 62.72V66.81C89.2501 66.95 89.0801 66.42 88.8701 65.92V62.73C88.8701 62 88.7601 61.48 88.5501 61.16C88.3401 60.84 87.9701 60.69 87.4701 60.69C86.8301 60.69 86.2801 61.02 85.8301 61.69V66.8H84.4401V59.64H85.8301L85.8201 59.66ZM93.5901 67.34C93.1201 67.34 92.7401 67.44 92.4401 67.64C92.1401 67.84 91.9901 68.1 91.9901 68.41C91.9901 69.14 92.6501 69.51 93.9501 69.51C94.5701 69.51 95.0401 69.42 95.3801 69.23C95.7201 69.05 95.8901 68.79 95.8901 68.46C95.8901 68.13 95.6801 67.86 95.2501 67.65C94.8201 67.44 94.2701 67.34 93.5901 67.34ZM93.9201 61.11C93.5401 61.11 93.2201 61.24 92.9601 61.5C92.6901 61.76 92.5601 62.07 92.5601 62.43C92.5601 62.79 92.6901 63.1 92.9501 63.34C93.2101 63.58 93.5401 63.7 93.9401 63.7C94.3401 63.7 94.6601 63.58 94.9301 63.33C95.1901 63.08 95.3201 62.78 95.3201 62.42C95.3201 62.06 95.1901 61.74 94.9201 61.49C94.6501 61.24 94.3201 61.12 93.9201 61.12V61.11ZM91.3001 62.35C91.3001 61.59 91.5701 60.99 92.1201 60.55C92.6701 60.11 93.4201 59.89 94.3701 59.89H97.9101C97.7301 60.33 97.5201 60.76 96.9301 60.99H95.8501C96.1301 61.27 96.3201 61.53 96.4201 61.76C96.5301 61.99 96.5801 62.26 96.5801 62.55C96.5801 62.92 96.4801 63.28 96.2701 63.64C96.0601 64 95.7901 64.27 95.4601 64.47C95.1301 64.66 94.5901 64.81 93.8401 64.93C93.3101 65.01 93.0501 65.19 93.0501 65.48C93.0501 65.64 93.1501 65.78 93.3401 65.89C93.5401 66 93.8901 66.1 94.4101 66.21C95.2701 66.4 95.8201 66.55 96.0701 66.66C96.3201 66.77 96.5401 66.93 96.7401 67.12C97.0801 67.46 97.2501 67.89 97.2501 68.4C97.2501 69.08 96.9501 69.61 96.3601 70.02C95.7701 70.42 94.9701 70.62 93.9801 70.62C92.9901 70.62 92.1701 70.42 91.5701 70.01C90.9701 69.61 90.6701 69.06 90.6701 68.38C90.6701 67.42 91.2601 66.8 92.4401 66.52C91.9701 66.22 91.7301 65.92 91.7301 65.62C91.7301 65.39 91.8301 65.19 92.0301 65C92.2301 64.81 92.5001 64.68 92.8501 64.59C91.8101 64.12 91.3001 63.37 91.3001 62.34V62.35ZM78.4201 62.66H81.9401C81.9101 62.1 81.7401 61.66 81.4501 61.36C81.1601 61.05 80.7601 60.9 80.2601 60.9C79.7601 60.9 79.3501 61.05 79.0401 61.36C78.7201 61.66 78.5101 62.1 78.4201 62.66ZM83.3201 63.5H78.3901C78.4301 64.18 78.6501 64.72 79.0701 65.12C79.4801 65.53 80.0201 65.73 80.6701 65.73C81.5801 65.73 82.4301 65.44 83.2001 64.86V66.24C82.7701 66.53 82.3501 66.74 81.9301 66.86C81.5101 66.98 81.0201 67.04 80.4501 67.04C79.6801 67.04 79.0501 66.88 78.5801 66.55C78.1001 66.22 77.7201 65.79 77.4301 65.24C77.1401 64.69 77.0001 64.05 77.0001 63.33C77.0001 62.24 77.3001 61.36 77.9101 60.68C78.5201 60 79.3001 59.66 80.2701 59.66C81.2401 59.66 81.9401 59.99 82.4901 60.65C83.0501 61.31 83.3201 62.2 83.3201 63.31V63.49V63.5ZM71.7501 60.9L74.2301 58.31V59.78H76.4401C76.3401 60.19 76.1601 60.6 75.4401 61.05H74.2301V64.53C74.2301 65.35 74.5501 65.75 75.1801 65.75C75.6501 65.75 76.1501 65.58 76.6801 65.24V66.55C76.1701 66.85 75.6201 67.01 75.0201 67.01C74.4201 67.01 73.9201 66.82 73.5201 66.44C73.4001 66.33 73.2901 66.2 73.2101 66.06C73.1301 65.92 73.0601 65.73 73.0001 65.5C72.9501 65.27 72.9201 64.84 72.9201 64.19V61.04H71.7601V60.9H71.7501ZM65.0501 56.05V66.78C65.0501 67.78 64.9501 68.52 64.7501 69C64.5501 69.48 64.2201 69.86 63.7701 70.15C63.3201 70.44 62.7801 70.58 62.1501 70.58C62.0501 70.58 61.8901 70.56 61.6501 70.53L61.3701 69.08H61.7601C62.2001 69.08 62.5401 69.03 62.7701 68.92C63.0001 68.81 63.1901 68.62 63.3201 68.35C63.4601 68.08 63.5201 67.49 63.5201 66.6V57.77C63.5601 56.75 64.1801 56.27 65.0601 56.04L65.0501 56.05ZM53.9901 55.94V66.81H52.6001V57.27C52.6901 56.76 53.1601 56.32 53.9901 55.95V55.94ZM57.1301 59.65H58.7001L55.8001 63.11C56.9401 64.33 58.1101 65.59 59.2501 66.81C58.4501 66.96 57.5201 66.75 56.5901 65.94L54.0501 63.16L57.1301 59.65ZM46.9701 59.65V60.56C47.5801 59.86 48.2701 59.51 49.0501 59.51C49.4801 59.51 49.8801 59.62 50.2501 59.85C50.6201 60.08 50.9001 60.4 51.0901 60.8C51.2801 61.2 51.3801 61.84 51.3801 62.71V66.8C50.4001 66.94 50.2301 66.41 50.0201 65.91V62.72C50.0201 61.99 49.9101 61.47 49.7001 61.15C49.4901 60.83 49.1301 60.68 48.6201 60.68C47.9801 60.68 47.4301 61.01 46.9801 61.68V66.79H45.5901V59.63H46.9801L46.9701 59.65ZM42.4701 65.39V63.27L41.5501 63.64C41.0901 63.83 40.7501 64.02 40.5601 64.22C40.3601 64.42 40.2701 64.66 40.2701 64.95C40.2701 65.24 40.3601 65.49 40.5501 65.67C40.7401 65.86 40.9701 65.95 41.2601 65.95C41.7001 65.95 42.1001 65.77 42.4701 65.4V65.39ZM43.8201 62.5V65.54C43.8201 65.79 43.9001 65.91 44.0601 65.91C44.1701 65.91 44.3001 65.86 44.4801 65.76C45.1001 65.44 44.6201 66.54 44.0901 66.81C43.9101 66.9 43.7001 66.92 43.5001 66.92C42.9101 66.92 42.5601 66.68 42.4601 66.2C41.8801 66.67 41.2601 66.9 40.6001 66.9C40.1201 66.9 39.7101 66.74 39.3901 66.41C39.0701 66.08 38.9101 65.66 38.9101 65.17C38.9101 64.72 39.0701 64.31 39.3801 63.96C39.7001 63.6 40.1401 63.32 40.7201 63.12L42.4801 62.5V62.12C42.4801 61.26 42.0601 60.83 41.2301 60.83C40.4801 60.83 39.7501 61.23 39.0401 62.02V60.47C39.5701 59.82 40.3401 59.5 41.3401 59.5C42.0901 59.5 42.6901 59.7 43.1401 60.11C43.2901 60.24 43.4301 60.41 43.5501 60.63C43.6701 60.84 43.7501 61.06 43.7801 61.27C43.8101 61.49 43.8301 61.89 43.8301 62.5H43.8201ZM33.9601 62H32.5801V65.42H34.0401C34.8501 65.42 35.4001 65.36 35.6801 65.22C35.9701 65.09 36.2001 64.88 36.3801 64.6C36.5501 64.32 36.6401 64.03 36.6401 63.71C36.6401 63.39 36.5501 63.08 36.3601 62.8C36.1701 62.53 35.9101 62.33 35.5701 62.19C35.2301 62.06 34.6901 61.99 33.9601 61.99V62ZM33.8501 57.38H32.5801V60.63H33.5601C34.3501 60.63 34.9101 60.47 35.2401 60.16C35.5801 59.84 35.7401 59.44 35.7401 58.94C35.7401 57.9 35.1101 57.39 33.8501 57.39V57.38ZM34.6001 66.8H31.1001V56.01H33.8101C34.6601 56.01 35.3301 56.13 35.8101 56.36C36.2901 56.6 36.6501 56.93 36.9101 57.35C37.1601 57.77 37.2901 58.26 37.2901 58.81C37.2901 59.87 36.7701 60.63 35.7201 61.09C36.4701 61.24 37.0701 61.57 37.5201 62.07C37.9701 62.57 38.1901 63.16 38.1901 63.86C38.1901 64.41 38.0501 64.9 37.7801 65.33C37.5101 65.76 37.1101 66.11 36.5901 66.39C36.0601 66.66 35.4101 66.8 34.6201 66.8H34.6001Z" fill="#2E3092"/>
</g>
<rect x="1" y="1" width="110" height="110" rx="9" stroke="black" stroke-opacity="0.1" stroke-width="2"/>
<defs>
<clipPath id="clip0_6700_50266">
<rect x="2" y="2" width="108" height="108" rx="8" fill="white"/>
</clipPath>
</defs>
</svg>
