<svg width="112" height="112" viewBox="0 0 112 112" fill="none" xmlns="http://www.w3.org/2000/svg">
<g clip-path="url(#clip0_6700_50798)">
<rect x="2" y="2" width="108" height="108" rx="8" fill="white"/>
<path d="M86.2009 51.1863C89.2075 47.6739 91.2118 43.4154 92.0027 38.8592C92.0027 38.7888 91.897 38.6735 91.8137 38.6095C91.7305 38.5455 91.6857 38.5519 91.6601 38.6095C87.5745 49.7295 80.8731 55.259 71.4501 59.1012C71.0627 57.5547 70.7265 55.9922 70.4672 54.4169C74.0852 53.4244 77.6072 51.9803 80.4633 49.8959C83.5658 47.6194 86.1497 44.7058 88.042 41.3535C89.8062 38.2669 91.0933 34.9338 91.8618 31.463C92.0379 30.6402 91.9546 30.3456 91.6761 30.1311L91.548 30.035C91.4327 29.9486 91.3463 30.035 91.3143 30.1919C91.1093 31.0372 90.85 31.8665 90.5362 32.6765C86.7997 42.711 80.8443 48.7465 70.0445 51.2471C69.878 49.4797 69.8364 47.7027 69.9165 45.9289C77.5016 44.328 83.918 39.0546 87.4112 32.1834C88.9961 28.9752 90.1872 25.5845 90.9557 22.0881C91.0517 21.7519 90.9236 21.3933 90.6355 21.198C90.5618 21.1435 90.4786 21.1115 90.3889 21.0987C90.2096 21.0091 90.0047 20.9867 89.8126 21.0379C86.3162 21.8063 82.9223 22.9974 79.7141 24.5855C72.8717 28.0595 67.6304 34.4343 65.991 41.9714C64.2172 42.0483 62.4434 42.0034 60.676 41.8337C63.1798 31.1172 69.2089 25.1842 79.205 21.4701C80.015 21.1563 80.8475 20.8938 81.6928 20.6889C81.8337 20.6569 81.9329 20.5736 81.8465 20.4551L81.7504 20.3303C81.5359 20.0517 81.2413 19.9653 80.4184 20.1446C76.9477 20.9098 73.6146 22.1969 70.5312 23.9644C67.1757 25.8534 64.262 28.4373 61.9855 31.5431C59.9236 34.3639 58.4892 37.8411 57.503 41.4143C55.9309 41.155 54.378 40.8188 52.8347 40.4281C56.6769 31.0724 62.2161 24.419 73.2848 20.3431C73.3584 20.3175 73.3456 20.2534 73.2848 20.1894C73.2239 20.1254 73.1055 19.9909 73.035 20.0005C68.4724 20.7881 64.2108 22.7957 60.6952 25.8054C56.3663 29.4491 52.8315 34.0565 50.0556 39.6661C48.6788 39.2595 47.3084 38.8176 45.9508 38.3502C41.8461 36.9382 31.2833 32.0906 27.2041 28.591C25.9234 27.4896 25.3055 27.3423 24.6235 27.8226C24.2585 28.1299 23.9287 28.4757 23.6405 28.8567C22.0268 31.146 20.8005 33.6819 20.0064 36.3682C19.9456 36.5988 20.3266 36.8197 20.7108 36.65C22.6159 35.8015 30.835 39.3811 33.2172 40.3193C34.7572 40.9244 36.3229 41.4783 37.8918 42.0002C41.1673 43.0953 44.4684 44.091 47.8175 44.8819C47.619 45.4102 47.4269 45.9417 47.2411 46.4828C46.6776 48.1349 46.2038 49.8127 45.8099 51.4905C37.911 50.3218 31.1968 48.2886 26.8359 46.4604C23.7654 45.2021 21.8443 44.8915 20.5187 45.5831C20.2978 45.7016 20.0673 46.0858 20.1761 46.6877C20.5219 48.6152 21.1367 50.4819 22.0076 52.2333C22.7408 53.7157 23.1506 53.2355 23.8518 53.0722C24.838 52.848 26.0131 53.1522 26.9704 53.3411C28.8307 53.7029 30.6717 54.1704 32.5256 54.5738C36.5951 55.4351 40.7254 55.989 44.8782 56.2324C44.5292 58.4736 44.2987 60.6541 44.1578 62.7417C43.6263 62.7193 43.1012 62.6936 42.5889 62.6616C36.5343 62.3158 29.6984 60.6317 27.4667 60.0489C27.2458 59.9913 27.2586 60.6253 27.4123 60.795C28.3984 61.9092 30.3227 63.9103 30.7582 64.3938C31.8244 65.6265 33.214 66.5422 34.7668 67.0353C36.7392 67.6757 38.83 67.7942 40.8823 67.8678C41.8429 67.903 42.8931 67.919 43.9817 67.9158C43.9817 69.0461 43.9817 70.1251 44.0297 71.1177C44.1034 73.1732 44.225 75.28 44.8622 77.2331C45.3521 78.786 46.2614 80.1724 47.4909 81.2418C47.9744 81.6773 49.9755 83.6016 51.0897 84.5877C51.2594 84.7414 51.8966 84.7574 51.8358 84.5333C51.253 82.292 49.5689 75.4657 49.2231 69.4143C49.1911 68.8668 49.1622 68.3064 49.1398 67.7397C51.2242 67.6053 53.4143 67.3779 55.6459 67.0321C55.8861 71.2169 56.4464 75.3761 57.3141 79.4744C57.7143 81.3283 58.1818 83.1693 58.5436 85.0328C58.7325 85.9933 59.0399 87.162 58.8125 88.1514C58.6493 88.8526 58.1722 89.2592 59.6514 89.9956C61.4028 90.8633 63.2727 91.4813 65.197 91.8271C65.7989 91.9327 66.1831 91.7054 66.3016 91.4813C67.0028 90.1461 66.6922 88.2314 65.4275 85.1737C63.5993 80.7968 61.5533 74.0537 60.3846 66.1196C62.1168 65.7194 63.8266 65.2327 65.5076 64.6596C66.007 64.4867 66.5001 64.3106 66.99 64.1281C67.7808 67.49 68.783 70.8135 69.8716 74.1082C70.3935 75.6803 70.9475 77.2427 71.5558 78.7828C72.4907 81.165 76.0704 89.3873 75.2251 91.2892C75.0522 91.6734 75.2731 92.0544 75.5069 91.9936C78.1932 91.2027 80.729 89.9732 83.0151 88.3595C83.3961 88.0713 83.7419 87.7447 84.0493 87.3797C84.5296 86.6945 84.3695 86.083 83.2809 84.7991C79.7813 80.7167 74.9305 70.1539 73.5217 66.0492C73.0479 64.6756 72.606 63.286 72.193 61.8868C77.8922 59.1172 82.5285 55.56 86.2009 51.1863ZM78.5742 27.5376C81.4558 25.2963 84.8049 23.6954 88.2597 22.5619L89.9471 22.0304C89.7806 22.5652 89.6109 23.0967 89.4412 23.6314C88.2981 27.0861 86.7164 30.4384 84.4656 33.3169C80.8475 37.9467 75.8591 40.4602 70.448 41.4623C71.4726 36.0897 73.9764 31.1364 78.5742 27.5376ZM65.3571 46.5436C65.2418 48.1445 65.2194 49.7455 65.2578 51.3688C65.2578 51.5865 65.2578 51.801 65.2834 52.0092C63.3847 52.2141 61.4412 52.3293 59.4945 52.3902C59.5458 50.4339 59.6738 48.4935 59.8852 46.5949L60.6344 46.6237C62.2065 46.6749 63.7882 46.6557 65.3571 46.5436ZM51.0705 45.5831C52.8315 45.9033 54.5925 46.1882 56.392 46.3707C56.027 48.4743 55.79 50.5331 55.6491 52.3966C53.949 52.3485 52.252 52.2493 50.5839 52.0764C50.3053 52.0508 50.0331 52.0188 49.761 51.9899C50.0652 49.8287 50.5006 47.6899 51.0705 45.5831ZM49.0342 62.8729C49.0342 60.7886 49.1142 58.6273 49.2807 56.4437C51.3459 56.4949 53.4079 56.4885 55.4634 56.4437C55.4186 58.5025 55.4122 60.5676 55.4634 62.6328C53.2766 62.7865 51.1186 62.8729 49.0342 62.8729ZM59.8884 62.1653C59.8627 61.922 59.8371 61.6819 59.8115 61.4353C59.6482 59.732 59.549 58.003 59.4913 56.2676C61.3644 56.1299 63.4072 55.8962 65.5108 55.5376C65.6933 57.3274 65.9622 59.1044 66.2952 60.8686C64.1884 61.4289 62.0496 61.858 59.8884 62.1525V62.1653Z" fill="url(#paint0_linear_6700_50798)"/>
</g>
<rect x="1" y="1" width="110" height="110" rx="9" stroke="black" stroke-opacity="0.1" stroke-width="2"/>
<defs>
<linearGradient id="paint0_linear_6700_50798" x1="39.0765" y1="72.8595" x2="90.6964" y2="21.2396" gradientUnits="userSpaceOnUse">
<stop stop-color="#1751A4"/>
<stop offset="0.52" stop-color="#307F75"/>
<stop offset="1" stop-color="#49AB48"/>
</linearGradient>
<clipPath id="clip0_6700_50798">
<rect x="2" y="2" width="108" height="108" rx="8" fill="white"/>
</clipPath>
</defs>
</svg>
