<svg width="112" height="112" viewBox="0 0 112 112" fill="none" xmlns="http://www.w3.org/2000/svg">
<g clip-path="url(#clip0_6700_50419)">
<rect x="2" y="2" width="108" height="108" rx="8" fill="white"/>
<path d="M41.636 41H20.6167C18.0681 41 16 43.118 16 45.7341V66.5446C16 69.1366 18.0272 71.2414 20.5476 71.2787L41.621 71.2793C44.1697 71.2793 46.2426 69.1607 46.2426 66.5446L46.2528 45.7341C46.2528 43.118 44.1841 41 41.636 41ZM23.1149 68.8533L21.9678 68.8671C20.5789 68.8671 19.4576 67.7236 19.4576 66.3184L19.4492 66.1157V46.898L19.4576 45.8622C19.5135 44.5027 20.5452 43.4043 21.8986 43.4043H24.2283C26.3439 43.4043 28.0547 45.242 28.0547 47.4063C28.0547 48.4812 27.6336 49.4515 26.9527 50.1607L21.0077 56.1905L26.5821 61.8689C27.298 62.6112 27.7311 63.5851 27.7311 64.6492C27.7311 66.9705 25.6684 68.8533 23.1149 68.8533ZM40.2525 68.8358L29.8587 68.8328C29.8587 68.8328 31.0605 66.233 31.0605 64.6263C31.0605 62.6671 30.4055 60.9137 29.3799 59.7563L25.8266 56.1315L29.4502 52.3864C30.5348 51.3674 31.2506 49.5646 31.2506 47.514C31.2506 45.8892 30.8019 44.4498 30.0752 43.4043H32.595C34.7088 43.4043 36.4214 45.242 36.4214 47.4063C36.4214 48.4812 36.0021 49.4515 35.323 50.1607L29.4881 56.1291L41.603 68.484C41.2168 68.7258 40.7343 68.8358 40.2525 68.8358ZM42.788 64.977L34.1049 56.1273L38.2398 51.9262C39.0825 50.8705 39.6191 49.2855 39.6191 47.514C39.6191 45.8796 39.1619 44.4023 38.4323 43.3574L40.2808 43.4152C41.6673 43.4152 42.7952 44.5551 42.7952 45.9644L42.788 64.977Z" fill="#00529C"/>
<path d="M64.8832 54.7179C65.0522 54.5489 65.2519 54.3311 65.4823 54.0646C65.7121 53.7982 65.9299 53.4836 66.1356 53.1202C66.3413 52.7569 66.517 52.3521 66.6619 51.9039C66.8075 51.4564 66.8803 50.9782 66.8803 50.4699C66.8803 49.478 66.7106 48.5522 66.372 47.6926C66.0327 46.8336 65.5124 46.0829 64.8104 45.4411C64.1084 44.8005 63.2314 44.2976 62.1781 43.9343C61.1254 43.5715 59.8965 43.3899 58.4931 43.3899H58.4546H54.4196H53.3693H49.2344V48.018V64.0404V68.8051H59.4008C60.877 68.8051 62.1655 68.6054 63.2675 68.206C64.3683 67.8066 65.2826 67.2562 66.0087 66.5542C66.7347 65.8522 67.2731 65.0354 67.6244 64.1036C67.9751 63.1718 68.1507 62.1733 68.1507 61.108C68.1507 59.6799 67.8241 58.4095 67.1708 57.2955C66.517 56.1826 65.7542 55.323 64.8832 54.7179ZM60.388 48.0469C60.7302 48.1775 61.016 48.3471 61.2391 48.5606C61.8172 49.1152 62.1065 49.7781 62.1065 50.5493C62.1065 51.2489 61.9856 51.8269 61.745 52.2847C61.5038 52.7431 61.2626 53.0926 61.022 53.3332H53.9546V47.7468H58.3476C59.1711 47.7468 59.849 47.8484 60.388 48.0469ZM59.6547 57.7316C60.9341 57.7316 61.8822 58.063 62.4993 58.7247C63.0798 59.3761 63.3721 60.1449 63.3721 61.0346C63.3721 61.9513 63.0407 62.7339 62.3778 63.3848C61.7143 64.0356 60.6244 64.3616 59.1055 64.3616H58.5382H53.9546V57.7316H59.6547Z" fill="#00529C"/>
<path d="M85.3872 57.8585C86.1493 57.3382 86.7851 56.733 87.2934 56.0431C87.8017 55.3531 88.1765 54.591 88.4189 53.756C88.6607 52.9205 88.7822 52.0676 88.7822 51.1959C88.7822 50.0584 88.594 49.0118 88.2192 48.0553C87.8432 47.0995 87.2808 46.2766 86.5307 45.5867C85.78 44.8967 84.8422 44.3583 83.7167 43.9709C82.5913 43.5842 81.2902 43.3899 79.814 43.3899H79.6811H69.902H69.8105V68.8051H74.6222V59.3653H77.305L83.9405 68.8051H89.5805L82.7188 59.0387C83.7348 58.7728 84.6244 58.3794 85.3872 57.8585ZM79.8501 47.7468C80.1527 47.7468 80.4384 47.7666 80.7103 47.8009C81.5681 47.9302 82.2689 48.2364 82.809 48.723C83.5441 49.3865 83.9116 50.1998 83.9116 51.1635C83.9116 51.6465 83.8328 52.1163 83.6764 52.574C83.5194 53.0324 83.2728 53.436 82.9353 53.7849C82.5973 54.135 82.1636 54.4177 81.6336 54.6349C81.1031 54.852 80.4643 54.9603 79.7172 54.9603H74.6222V47.7468H79.8501Z" fill="#00529C"/>
<path d="M91.2796 43.3899V43.3971C91.2309 43.3959 91.1834 43.3899 91.1347 43.3899H91.0938V43.3917V52.7076V59.3828V68.8051H95.9998V43.3899H91.2796Z" fill="#00529C"/>
</g>
<rect x="1" y="1" width="110" height="110" rx="9" stroke="black" stroke-opacity="0.1" stroke-width="2"/>
<defs>
<clipPath id="clip0_6700_50419">
<rect x="2" y="2" width="108" height="108" rx="8" fill="white"/>
</clipPath>
</defs>
</svg>
