<svg width="112" height="112" viewBox="0 0 112 112" fill="none" xmlns="http://www.w3.org/2000/svg">
<g clip-path="url(#clip0_6700_50273)">
<rect x="2" y="2" width="108" height="108" rx="8" fill="white"/>
<path d="M51.2641 47.264H53.9831C54.9248 47.264 55.6232 47.4564 55.6232 48.4921C55.6232 49.5549 54.5628 49.8652 53.7221 49.8652H50.7318L51.2641 47.264ZM43.3936 60.3377H53.261C57.0242 60.3377 60.3458 58.696 60.3458 54.5505C60.3458 52.9639 59.3372 51.4425 57.7429 51.1043V51.0585H57.7667C59.8415 50.5068 60.9239 49.082 60.9239 46.9156C60.9239 44.4297 59.5271 43.1304 55.7918 43.1304H46.9601L43.3936 60.3377ZM50.08 53.0715H52.9931C54.1035 53.0715 55.0477 53.2639 55.0477 54.5454C55.0477 55.9405 53.7475 56.2753 52.8033 56.2753H49.4037L50.08 53.0715Z" fill="#0069AB"/>
<path d="M64.8641 60.3376H70.1615L72.8144 47.5376H77.5853L78.5049 43.1303H63.6572L62.7427 47.5376H67.5137L64.8641 60.3376Z" fill="#0069AB"/>
<path d="M76.8125 60.3376H81.8479L83.8473 50.6982H83.8948L87.0503 60.3376H92.2561L95.8735 43.1303H90.833L88.9065 52.529H88.8607L85.6315 43.1303H80.3748L76.8125 60.3376Z" fill="#0069AB"/>
<path d="M41.4316 72.2063C41.5901 71.6207 41.5249 71.624 41.9165 70.0442C42.1978 68.4872 43.9125 66.1021 46.9358 65.8572C47.9664 65.7343 87.5429 64.0527 95.9999 63.4602L95.7465 64.9232C87.7785 65.953 51.7279 70.84 41.4316 72.2063Z" fill="#E31C24"/>
<path d="M24.1279 60.3401V63.4651L26.8376 61.9004L29.5481 63.4651V60.3401L26.8376 58.7729L24.1279 60.3401Z" fill="#A68561"/>
<path d="M34.9654 60.34V57.2065L26.8364 52.5135L18.7124 57.2065V60.34L26.8364 55.6419L34.9654 60.34Z" fill="#A68561"/>
<path d="M16 46.2576L26.8379 40L37.6775 46.2576V58.7728L34.9669 60.34V47.8248L26.8379 43.1292L18.7114 47.8248V60.34L16 58.7728V46.2576Z" fill="#0069AB"/>
<path d="M26.8365 46.2576L32.2559 49.3877V61.9012L29.5479 63.4633V50.9498L26.8365 49.3877L24.1285 50.9498V63.4633L21.4214 61.9012V49.3877L26.8365 46.2576Z" fill="#0069AB"/>
</g>
<rect x="1" y="1" width="110" height="110" rx="9" stroke="black" stroke-opacity="0.1" stroke-width="2"/>
<defs>
<clipPath id="clip0_6700_50273">
<rect x="2" y="2" width="108" height="108" rx="8" fill="white"/>
</clipPath>
</defs>
</svg>
