<svg width="112" height="112" viewBox="0 0 112 112" fill="none" xmlns="http://www.w3.org/2000/svg">
<g clip-path="url(#clip0_6700_50550)">
<rect x="2" y="2.00002" width="108" height="108" rx="8" fill="white"/>
<path d="M88.5662 34.4916C87.4954 33.8669 85.8703 34.67 84.9451 36.281C84.0199 37.892 84.1373 39.6955 85.2081 40.3154C86.279 40.9354 87.8993 40.137 88.8292 38.5307C89.7592 36.9244 89.6371 35.1115 88.5662 34.4916Z" fill="#F58220"/>
<path d="M85.8143 53.4662V46.5996C85.8143 44.7209 85.5982 43.6736 85.0205 42.7108C84.1751 41.2172 82.7145 40.5174 80.662 40.5174C78.3137 40.5174 76.6417 41.3628 75.3313 43.2321V41.0763H68.9062V42.0767H69.0847C70.9634 42.1096 71.1982 42.3209 71.1982 44.8947V53.4662C71.1982 56.162 71.0198 56.3452 69.0237 56.3781H68.9062V57.4677H77.6655V56.3781H77.4918C75.5286 56.3452 75.3501 56.1949 75.3501 53.4662V47.2806C75.3765 46.1998 75.6547 45.14 76.1626 44.1855C76.9094 42.8986 77.9661 42.2364 79.192 42.2364C80.9297 42.2364 81.7329 43.4435 81.7329 46.7828V53.4662C81.7329 56.1339 81.5215 56.3452 79.5912 56.3781H79.4127V57.4677H88.1626V56.3781H87.9841C85.9881 56.3452 85.8096 56.162 85.8096 53.4662" fill="#F58220"/>
<path d="M31.9104 40.663C30.9447 40.6343 29.9891 40.8663 29.144 41.3346V42.8705C29.6721 42.2968 30.4079 41.9586 31.1871 41.9311C33.1409 41.9311 34.9867 44.317 34.9867 49.3096C34.9867 54.3022 33.0845 56.6552 31.0368 56.6552C27.7115 56.6552 27.6505 53.4661 27.519 52.6771C27.519 52.6771 27.4955 34.2802 27.519 33.8904H21V34.9519H21.1785C23.1652 34.9519 23.3342 35.4215 23.3342 38.047V51.4513C23.3483 56.6693 28.7871 57.7589 30.863 57.7589C35.508 57.7589 39.3875 54.3726 39.3875 48.8352C39.3875 43.7346 36.2125 40.6818 31.9292 40.6818" fill="#F58220"/>
<path d="M61.6498 40.8931C59.9486 40.83 58.3054 41.5168 57.1551 42.7718V41.0857H50.6455V42.3914C52.2799 42.4196 52.8529 42.6121 52.9328 44.2701V63.8693C52.8623 65.4896 52.4913 65.6023 50.8146 65.6493H50.6455V66.7202H59.4612V65.6587H59.2921C57.9817 65.6117 57.4134 65.5366 57.1598 64.926V47.0787C57.6013 43.946 58.8553 42.227 60.6823 42.227C62.6408 42.227 63.8103 44.5753 63.8103 49.4505C63.8103 54.4853 62.5844 56.7679 60.316 56.7679C59.8333 56.7622 59.3617 56.6224 58.9539 56.364V57.6744C59.622 57.8749 60.3187 57.9638 61.0158 57.9374C63.0271 57.9907 64.9569 57.1412 66.276 55.6219C67.4925 54.1284 68.1923 51.7143 68.1923 48.9949C68.1923 43.8708 65.8439 40.8744 61.6498 40.8744" fill="#F58220"/>
<path d="M46.4323 48.6051C46.4346 48.566 46.4346 48.5268 46.4323 48.4877V42.382H49.4898V41.0857H46.4417V36.2857H44.6898V36.436C44.5442 37.564 44.1634 38.6488 43.572 39.6203C42.9051 40.6583 41.7873 41.0857 40.5051 41.1468H39.8569V42.3961H42.0644V47.8254V48.0039C42.0644 52.9213 41.9141 54.429 42.8393 55.6125C43.6143 56.5988 45.1313 57.9374 48.4237 57.9374C49.1219 57.9537 49.8182 57.8569 50.4855 57.6509V56.3358C50.0775 56.5937 49.6061 56.7335 49.1235 56.7397C46.3806 56.7397 46.4276 55.1992 46.4323 48.6192" fill="#F58220"/>
<path fill-rule="evenodd" clip-rule="evenodd" d="M65.9328 29.809C66.0884 29.5585 66.2834 29.3349 66.5105 29.1468C66.7489 28.9587 67.0194 28.8155 67.309 28.7241C67.6277 28.6145 67.9629 28.5605 68.3 28.5644C68.6567 28.5593 69.0114 28.6182 69.3473 28.7382C69.6692 28.8535 69.9601 29.0415 70.1974 29.2877C70.446 29.522 70.6359 29.8117 70.7516 30.1331C70.8947 30.4945 70.9634 30.8811 70.9536 31.2697V35.863C70.9511 35.9554 70.8768 36.0296 70.7845 36.0321H70.5168C70.4226 36.0321 70.3456 35.9572 70.343 35.863V31.2838C70.3531 30.9551 70.2972 30.6277 70.1786 30.3209C70.0845 30.0732 69.9332 29.8512 69.7371 29.6728C69.5545 29.4951 69.3324 29.3631 69.089 29.2877C68.8353 29.1996 68.5685 29.1551 68.3 29.1562C67.9451 29.1489 67.5937 29.2279 67.2761 29.3863C66.9949 29.533 66.7495 29.7398 66.5575 29.9922C66.3473 30.2494 66.1879 30.5443 66.0878 30.8611C65.9831 31.2067 65.9309 31.5661 65.9328 31.9272V35.863C65.9304 35.9554 65.8561 36.0296 65.7638 36.0321H65.4913C65.399 36.0296 65.3247 35.9554 65.3223 35.863V28.8979C65.3247 28.8055 65.399 28.7312 65.4913 28.7288H65.7638C65.8561 28.7312 65.9304 28.8055 65.9328 28.8979" fill="#7D6B56"/>
<path fill-rule="evenodd" clip-rule="evenodd" d="M51.2513 34.6982V35.863C51.2488 35.9554 51.1745 36.0296 51.0822 36.0321H50.8098C50.7175 36.0296 50.6432 35.9554 50.6407 35.863V26.1879C50.6368 26.1402 50.6528 26.093 50.6847 26.0575C50.7167 26.0219 50.762 26.0011 50.8098 26H51.0822C51.1763 26.0025 51.2513 26.0796 51.2513 26.1738V30.0297C51.4315 29.7052 51.6742 29.4195 51.9652 29.189C52.5185 28.7599 53.2051 28.5388 53.9049 28.5644C54.3755 28.5546 54.841 28.6645 55.2575 28.8838C55.6421 29.0978 55.973 29.3966 56.2251 29.7573C56.4966 30.1229 56.6988 30.5352 56.8215 30.9738C56.9636 31.4428 57.0348 31.9303 57.0329 32.4204C57.0375 32.929 56.9663 33.4356 56.8215 33.9233C56.6958 34.352 56.4937 34.7545 56.2251 35.1115C55.6635 35.8046 54.8156 36.2026 53.9237 36.1918C53.2289 36.2178 52.5472 35.9983 51.9981 35.5718C51.6969 35.331 51.4449 35.0344 51.256 34.6982H51.2513ZM51.4391 33.6368C51.5483 34.0041 51.7216 34.3491 51.9511 34.656C52.1797 34.9414 52.4663 35.1751 52.7918 35.3417C53.1385 35.5151 53.522 35.6021 53.9096 35.5953C54.2914 35.6038 54.6692 35.5166 55.0086 35.3417C55.3191 35.1801 55.5864 34.9466 55.7883 34.6607C56.0085 34.3489 56.1679 33.9983 56.2579 33.6274C56.3762 33.228 56.4347 32.8134 56.4317 32.3969C56.4301 32.0048 56.3764 31.6147 56.272 31.2368C56.181 30.8647 56.0218 30.5128 55.8024 30.1988C55.5994 29.8957 55.3294 29.6434 55.0133 29.4614C54.6705 29.2613 54.2782 29.162 53.8814 29.175C53.1618 29.1559 52.4712 29.459 51.9981 30.0016C51.4634 30.6805 51.202 31.535 51.2654 32.3969C51.2629 32.8171 51.3247 33.2352 51.4485 33.6368" fill="#7D6B56"/>
<path fill-rule="evenodd" clip-rule="evenodd" d="M63.0962 34.9237L63.0211 35.027C62.8437 35.2578 62.6295 35.4578 62.387 35.6188C62.1243 35.801 61.8319 35.9361 61.5228 36.018C61.1831 36.128 60.8278 36.1819 60.4708 36.1777C59.8342 36.2069 59.2046 36.0343 58.6719 35.6845C58.196 35.3156 57.9325 34.7358 57.9674 34.1346C57.9572 33.7589 58.0344 33.3859 58.1929 33.045C58.3356 32.7726 58.5459 32.5414 58.8034 32.3734C59.0557 32.204 59.3404 32.0888 59.6395 32.0352C59.9316 31.97 60.2284 31.9276 60.5271 31.9084L61.7624 31.8427C62.0334 31.8251 62.3022 31.7826 62.5655 31.7158C62.7233 31.6756 62.8646 31.5869 62.9694 31.4622C63.064 31.309 63.1083 31.13 63.0962 30.9503C63.0969 30.7425 63.0796 30.5351 63.0445 30.3303C62.964 29.9037 62.6694 29.5487 62.2649 29.391C61.9371 29.2588 61.5848 29.198 61.2316 29.2125C60.6553 29.1755 60.086 29.3547 59.6348 29.7151C59.2412 30.0781 59.0166 30.5886 59.0148 31.1241C59.0014 31.2106 58.9286 31.2756 58.841 31.279H58.5733C58.5268 31.2804 58.4819 31.2625 58.449 31.2296C58.4161 31.1967 58.3982 31.1517 58.3995 31.1053C58.4173 30.773 58.4903 30.446 58.6156 30.1378C58.7345 29.8188 58.9202 29.5289 59.1604 29.2877C59.4152 29.058 59.7118 28.8794 60.034 28.7616C60.42 28.6335 60.8249 28.5716 61.2316 28.5785C61.5367 28.5744 61.8411 28.6075 62.1381 28.6771C62.4283 28.7378 62.7012 28.863 62.9365 29.0434C63.169 29.22 63.3572 29.4484 63.486 29.7104C63.6339 30.0313 63.7093 30.3809 63.7068 30.7342V35.863C63.7043 35.9553 63.63 36.0296 63.5377 36.0321H63.27C63.1776 36.0296 63.1034 35.9553 63.1009 35.863L63.0962 34.9237ZM63.1009 32.1057C63.0297 32.1463 62.956 32.1824 62.8802 32.2137C62.656 32.2831 62.4267 32.3349 62.1944 32.3687C61.9237 32.4084 61.6508 32.4319 61.3772 32.4391C61.0954 32.4391 60.8277 32.4391 60.5553 32.4767C60.2934 32.4959 60.0329 32.532 59.7757 32.5847C59.5545 32.6205 59.3442 32.7056 59.1604 32.8336C58.9781 32.9459 58.8328 33.1092 58.7424 33.3033C58.6155 33.568 58.5574 33.8603 58.5733 34.1534C58.5738 34.3367 58.6023 34.5189 58.6579 34.6935C58.7212 34.8731 58.8277 35.0343 58.9678 35.1632C59.1358 35.3075 59.3283 35.4204 59.5361 35.4967C59.8282 35.5855 60.1327 35.6268 60.4379 35.6188C60.8313 35.6228 61.2213 35.5461 61.5839 35.3933C61.8937 35.2636 62.1747 35.0736 62.4105 34.8344C62.6357 34.603 62.8087 34.3259 62.9177 34.0219C63.0345 33.7224 63.095 33.404 63.0962 33.0826L63.1009 32.1057Z" fill="#7D6B56"/>
<path d="M78.2993 35.9053L75.1384 31.5233L77.576 28.973C77.576 28.973 77.6699 28.8791 77.6605 28.8321C77.6513 28.7969 77.6215 28.7709 77.5854 28.7663H77.0594C76.9561 28.7684 76.8587 28.8146 76.7917 28.8932L73.1799 32.4955V26.1691C73.1752 26.0777 73.1022 26.0047 73.0108 26H72.6774C72.585 26.0025 72.5108 26.0767 72.5083 26.1691V35.863C72.5108 35.9546 72.5858 36.0274 72.6774 36.0274H73.0108C73.1024 36.0274 73.1774 35.9546 73.1799 35.863V33.3926L74.6171 31.9836L77.3928 35.9147C77.4384 35.9939 77.528 36.0368 77.6183 36.0227H78.2054C78.2444 36.0216 78.2808 36.0025 78.304 35.971C78.3185 35.9481 78.3185 35.9188 78.304 35.8959" fill="#7D6B56"/>
<path d="M47.1133 75.0709H23.5078V84.7742H47.1133V75.0709Z" fill="#004B35"/>
<path d="M31.1494 81.9186C31.0696 81.881 31.0508 81.8528 31.0508 81.7401C31.0508 81.4489 31.0743 81.1342 31.079 81.0497C31.0837 80.9652 31.079 80.9088 31.1353 80.9088C31.1917 80.9088 31.187 80.9605 31.187 81.0027C31.1908 81.0936 31.2066 81.1836 31.234 81.2704C31.307 81.5961 31.6053 81.8208 31.9385 81.8012C32.1064 81.8141 32.2723 81.7576 32.3974 81.6449C32.5226 81.5321 32.596 81.3731 32.6007 81.2047C32.5955 80.862 32.4192 80.5447 32.131 80.3593L31.9056 80.1714C31.4747 79.8992 31.2018 79.4356 31.1729 78.9268C31.1789 78.6386 31.3062 78.3662 31.5234 78.1767C31.7407 77.9871 32.0278 77.898 32.3142 77.9311C32.5369 77.9289 32.7586 77.9606 32.9717 78.025C33.014 78.025 33.0375 78.025 33.0375 78.0861C33.0375 78.1472 33.0375 78.3068 33.0375 78.7154C33.0375 78.8329 33.0375 78.8751 32.9764 78.8751C32.9154 78.8751 32.9295 78.8423 32.9295 78.7765C32.9202 78.6526 32.8762 78.5338 32.8026 78.4336C32.6795 78.2598 32.4751 78.1621 32.2625 78.1753C32.1106 78.1591 31.9591 78.209 31.8467 78.3125C31.7343 78.4159 31.6719 78.5627 31.6754 78.7154C31.6754 78.9597 31.7882 79.1428 32.1968 79.4763L32.3377 79.5843C32.9388 80.054 33.1455 80.425 33.1455 80.9229C33.1601 81.2958 32.9829 81.6502 32.6758 81.8622C32.441 82.0131 32.1657 82.0885 31.8868 82.0783C31.6319 82.0836 31.3793 82.0289 31.1494 81.9186Z" fill="white"/>
<path d="M34.4934 78.072C34.4934 77.9781 34.5403 77.9311 34.5779 77.9311C34.6155 77.9311 34.6483 77.9593 34.7141 78.0955L36.062 81.0168L37.41 78.0579C37.4429 77.9734 37.471 77.9311 37.5133 77.9311C37.5556 77.9311 37.5885 77.9875 37.6025 78.0955L38.0722 81.3127C38.1145 81.6462 38.1662 81.7824 38.3164 81.8435C38.4146 81.8774 38.5178 81.8949 38.6217 81.8951C38.664 81.8951 38.7016 81.8951 38.7016 81.9327C38.7016 81.9703 38.6405 81.989 38.5701 81.989C38.4996 81.989 37.7669 81.989 37.5697 81.9609C37.457 81.9609 37.4288 81.9374 37.4288 81.9092C37.4288 81.881 37.4288 81.8669 37.4804 81.8481C37.5321 81.8294 37.5227 81.7683 37.5039 81.6227L37.208 79.3354L36.1325 81.6838C36.0151 81.928 35.9916 81.975 35.9446 81.975C35.8977 81.975 35.8507 81.8716 35.7708 81.7119C35.6534 81.4724 35.2636 80.6693 35.2072 80.519C35.1509 80.3687 34.8644 79.791 34.6906 79.3965L34.4323 81.4442C34.4279 81.5272 34.4279 81.6102 34.4323 81.6932C34.4317 81.7771 34.4945 81.848 34.5779 81.8575C34.6469 81.8759 34.7179 81.8853 34.7892 81.8857C34.8268 81.8857 34.8597 81.8857 34.8597 81.9233C34.8597 81.9609 34.8174 81.9797 34.747 81.9797C34.5356 81.9797 34.3149 81.9797 34.2256 81.9797C34.1364 81.9797 33.8922 81.9797 33.7325 81.9797C33.6855 81.9797 33.6479 81.9797 33.6479 81.9233C33.6479 81.8669 33.6761 81.8857 33.7231 81.8857C33.7746 81.8912 33.8266 81.8912 33.8781 81.8857C34.0143 81.8528 34.0519 81.6462 34.0753 81.4677L34.4934 78.072Z" fill="white"/>
<path d="M39.3498 79.5421C39.3498 78.7483 39.3498 78.6027 39.3498 78.4289C39.3498 78.2552 39.3028 78.1706 39.1384 78.1284C39.0744 78.1224 39.0099 78.1224 38.9459 78.1284C38.8895 78.1284 38.8613 78.1284 38.8613 78.0814C38.8613 78.0344 38.8942 78.0344 38.9694 78.0344C39.2324 78.0344 39.5423 78.0344 39.641 78.0344C39.8852 78.0344 40.0778 78.0344 40.2468 78.0344C41.1392 78.0344 41.2942 78.5417 41.2942 78.8235C41.2899 79.1987 41.1045 79.5486 40.7964 79.7628C41.279 79.9179 41.6215 80.3474 41.6652 80.8524C41.6585 81.185 41.511 81.4992 41.2593 81.7168C41.0077 81.9344 40.6756 82.035 40.3455 81.9937H40.0026H39.6269C39.5752 81.9937 39.4672 81.9937 39.3451 81.9937H39.0069C38.9412 81.9937 38.9083 81.9937 38.9083 81.9421C38.9083 81.8904 38.9083 81.8998 38.9881 81.8998C39.046 81.9036 39.1041 81.9036 39.1619 81.8998C39.2652 81.8998 39.2887 81.7589 39.3075 81.6086C39.3263 81.4583 39.3075 80.9745 39.3075 80.4908L39.3498 79.5421ZM39.9463 79.636C39.9463 79.6736 39.9463 79.6877 39.9791 79.6923C40.0556 79.7002 40.1328 79.7002 40.2093 79.6923C40.3374 79.7084 40.4665 79.6711 40.5662 79.589C40.7138 79.4423 40.7879 79.2373 40.7682 79.0301C40.7682 78.6826 40.5756 78.2176 40.1529 78.2176C40.0982 78.2123 40.0432 78.2123 39.9885 78.2176C39.951 78.2176 39.9463 78.2505 39.9463 78.3068V79.636ZM40.5991 80.054C40.4781 79.973 40.3361 79.929 40.1905 79.9272H39.9744C39.9744 79.9272 39.9463 79.9272 39.9463 79.9648V81.2094C39.9463 81.5569 39.9463 81.6462 40.1153 81.7166C40.2302 81.7623 40.3535 81.7831 40.477 81.7777C40.6499 81.7804 40.8155 81.708 40.9309 81.5791C41.0462 81.4502 41.1 81.2776 41.0782 81.106C41.0976 80.6946 40.9197 80.2986 40.5991 80.0399V80.054Z" fill="white"/>
<path d="M42.8912 81.4818C42.0855 80.653 42.069 79.3388 42.8536 78.49C43.2747 78.0947 43.8413 77.8922 44.4176 77.9311C44.6567 77.9303 44.8955 77.9491 45.1315 77.9875C45.3193 77.9875 45.479 78.0579 45.6011 78.0767C45.6575 78.0767 45.681 78.1049 45.681 78.1378C45.681 78.1706 45.681 78.2411 45.6528 78.429C45.6246 78.6168 45.6528 78.8986 45.6528 78.9926C45.6528 79.0865 45.6528 79.1147 45.5918 79.1147C45.5307 79.1147 45.5448 79.0724 45.5448 79.002C45.5331 78.8287 45.4655 78.6639 45.3522 78.5323C45.0719 78.2981 44.7115 78.1819 44.3471 78.2082C44.003 78.184 43.6638 78.301 43.4078 78.5323C43.0705 78.9042 42.9008 79.3983 42.9381 79.899C42.895 80.3551 43.0353 80.8095 43.3278 81.162C43.6204 81.5145 44.0412 81.736 44.4974 81.7777C44.9389 81.7777 45.2066 81.726 45.3992 81.4818C45.4815 81.3805 45.5393 81.2615 45.5683 81.1342C45.5683 81.0544 45.5683 81.0309 45.634 81.0309C45.6998 81.0309 45.6763 81.0685 45.6763 81.1108C45.6546 81.3445 45.6185 81.5766 45.5683 81.8059C45.5617 81.8786 45.5115 81.94 45.4415 81.9609C45.1545 82.0511 44.8544 82.0923 44.5538 82.083C43.943 82.1029 43.3479 81.8877 42.8912 81.4818Z" fill="white"/>
<path d="M25.0439 79.6924V82.6231L26.2369 82.1205V79.171L25.0439 79.6924Z" fill="#BFD730"/>
<path d="M27.749 77.2595V80.1949L28.942 79.6877V76.7382L27.749 77.2595Z" fill="#BFD730"/>
<path d="M26.415 79.0959V82.0313L27.608 80.2888V77.3393L26.415 79.0959Z" fill="#BFD730"/>
<path d="M49.9034 81.6885C49.9034 82.0454 50.0208 82.3742 50.5891 82.8438L50.8239 83.0364C51.2936 83.4121 51.4016 83.6047 51.4016 83.9382C51.4008 84.1189 51.325 84.2913 51.1924 84.4141C51.0598 84.537 50.8821 84.5993 50.7018 84.5863C50.3689 84.6252 50.0583 84.4128 49.9738 84.0885C49.9675 84.0276 49.9675 83.9662 49.9738 83.9053C49.9738 83.8771 49.9738 83.8114 49.8987 83.8114C49.8235 83.8114 49.8235 83.8912 49.8188 83.9288V83.9898C49.8188 84.0978 49.8188 84.2716 49.8188 84.4595C49.8188 84.6474 49.8188 84.6427 49.9175 84.6943C50.142 84.7937 50.3859 84.8419 50.6314 84.8352C50.9152 84.8443 51.1952 84.7673 51.4345 84.6145C51.7228 84.4075 51.8968 84.0769 51.9042 83.7221C51.9042 83.3182 51.7774 82.9847 51.1339 82.4775L50.9883 82.3601C50.5187 81.9562 50.3684 81.7918 50.3684 81.5241C50.3651 81.367 50.4288 81.2158 50.5434 81.1084C50.6581 81.0009 50.8129 80.9471 50.9695 80.9605C51.3969 80.9605 51.5425 81.1389 51.5801 81.2141C51.6162 81.291 51.6384 81.3737 51.6459 81.4583C51.6459 81.4959 51.6459 81.5616 51.7257 81.5616C51.8055 81.5616 51.8008 81.4583 51.8008 81.402C51.8008 81.1296 51.8008 80.9652 51.8008 80.8947V80.8524C51.8008 80.8055 51.768 80.782 51.7116 80.782C51.6527 80.7798 51.5944 80.7703 51.5378 80.7538C51.3835 80.72 51.2261 80.7027 51.0682 80.7022C50.7894 80.6674 50.509 80.7531 50.2974 80.9378C50.0858 81.1225 49.9629 81.3888 49.9597 81.6697" fill="#004B35"/>
<path d="M56.2249 80.829C56.2249 80.829 54.8535 83.9851 54.8488 83.9992C54.8441 84.0133 53.4398 80.8243 53.4398 80.8243C53.4398 80.8243 53.3928 80.7256 53.3364 80.7256C53.2801 80.7256 53.2472 80.8102 53.2425 80.8478L52.8668 84.2388C52.8668 84.4172 52.8339 84.591 52.7118 84.6145C52.665 84.6204 52.6177 84.6204 52.5709 84.6145C52.5239 84.6145 52.4863 84.6427 52.4863 84.6756C52.4863 84.7084 52.4863 84.7601 52.6037 84.7601H52.8996H53.1016H53.4538C53.4961 84.7601 53.576 84.7601 53.576 84.6756C53.5711 84.6385 53.5381 84.6117 53.5008 84.6145C53.4433 84.624 53.3846 84.624 53.327 84.6145C53.2689 84.6008 53.2292 84.5472 53.2331 84.4877C53.2331 84.4031 53.2331 84.3092 53.2331 84.2294C53.2331 84.2294 53.4116 81.9468 53.4163 81.9468C53.421 81.9468 54.5763 84.5346 54.5763 84.5346C54.675 84.7319 54.6938 84.7742 54.7501 84.7742C54.8065 84.7742 54.83 84.7319 54.9051 84.5534L56.0699 81.8951L56.2906 84.4501C56.288 84.4751 56.288 84.5003 56.2906 84.5253C56.2906 84.5675 56.2906 84.6192 56.2906 84.6192C56.261 84.6296 56.2419 84.6583 56.2437 84.6896C56.2437 84.7554 56.3141 84.7695 56.4081 84.7742C56.5959 84.7742 57.1079 84.7742 57.2159 84.7742C57.3239 84.7742 57.3521 84.7084 57.3521 84.6896C57.3521 84.6709 57.3521 84.6286 57.2769 84.6286C57.1751 84.6302 57.0737 84.616 56.9763 84.5863C56.7932 84.5206 56.7603 84.2388 56.7462 84.0697L56.4221 80.89C56.4221 80.8196 56.4221 80.7209 56.3235 80.7209C56.2249 80.7209 56.2343 80.7867 56.2202 80.8243" fill="#004B35"/>
<path d="M58.7142 81.0121C58.7142 81.0121 58.7142 81.0121 58.7424 81.0121C58.8236 81.0033 58.9055 81.0033 58.9866 81.0121C59.4563 81.0121 59.6582 81.4818 59.6582 81.8763C59.6588 82.0603 59.5938 82.2384 59.4751 82.3789C59.3764 82.4916 59.3154 82.5057 59.0054 82.5057C58.9023 82.5148 58.7986 82.5148 58.6954 82.5057V81.0967L58.7142 81.0121ZM58.6485 80.8336H58.3854C58.2727 80.8336 58.0379 80.8336 57.8594 80.8336C57.8312 80.8336 57.7373 80.8336 57.7373 80.9135C57.7373 80.9343 57.7458 80.9541 57.7609 80.9684C57.7761 80.9826 57.7964 80.9899 57.8171 80.9886C57.8733 80.9813 57.9301 80.9813 57.9862 80.9886C58.1318 81.0168 58.1741 81.0732 58.1835 81.247C58.1929 81.4207 58.1835 81.5616 58.1835 82.3789V83.3182C58.1835 83.7878 58.1835 84.2575 58.1835 84.4548C58.1835 84.652 58.1365 84.6943 58.0614 84.7084C58.0114 84.7135 57.9611 84.7135 57.9111 84.7084C57.8547 84.7084 57.8312 84.7413 57.8312 84.7742C57.8312 84.807 57.9205 84.8587 57.9534 84.8587C58.0661 84.8587 58.2258 84.8587 58.3432 84.8587H58.4653H58.6672H59.1651C59.5057 84.8953 59.8463 84.7895 60.106 84.5662C60.3658 84.3429 60.5216 84.0221 60.5365 83.6798C60.5192 83.1549 60.1669 82.7004 59.6629 82.5526C59.97 82.3406 60.1472 81.9862 60.1326 81.6133C60.1326 81.3033 59.9025 80.7867 59.043 80.7867H58.6672L58.6485 80.8336ZM58.8692 84.5158C58.733 84.4501 58.733 84.3984 58.7142 84.1636V82.7123C58.844 82.7047 58.9742 82.7047 59.104 82.7123C59.2481 82.7158 59.3888 82.7562 59.5126 82.8297C59.8233 83.0727 59.998 83.4502 59.9823 83.8442C59.9916 84.0334 59.9212 84.2178 59.7882 84.3526C59.6552 84.4874 59.4718 84.5602 59.2825 84.5534C59.1226 84.5582 58.9633 84.5327 58.8128 84.4783" fill="#004B35"/>
<path d="M61.7763 81.3221C61.4388 81.7295 61.2588 82.2445 61.269 82.7734C61.2566 83.3528 61.4864 83.9111 61.9031 84.3139C62.3512 84.7021 62.9376 84.8919 63.5281 84.8399C63.8256 84.838 64.1207 84.7873 64.4017 84.6896C64.4802 84.6665 64.5362 84.5974 64.5426 84.5159C64.584 84.2921 64.6138 84.0664 64.6319 83.8395C64.6319 83.7362 64.5802 83.7268 64.5567 83.7268C64.5332 83.7268 64.4863 83.7973 64.4722 83.8348C64.4515 83.9852 64.3986 84.1294 64.3172 84.2575C64.1037 84.4605 63.8114 84.5585 63.5187 84.5252C63.0486 84.5388 62.5958 84.3467 62.2788 83.9992C61.9645 83.645 61.7864 83.1905 61.7763 82.717C61.7197 82.2372 61.8585 81.7548 62.1614 81.3785C62.4445 81.1043 62.8294 80.9612 63.2228 80.984C63.5567 80.9629 63.8878 81.0556 64.1622 81.247C64.29 81.38 64.3636 81.5558 64.3688 81.7401C64.3688 81.8012 64.3688 81.8857 64.444 81.881C64.5191 81.8763 64.5191 81.7965 64.5191 81.7354V81.2047C64.5191 81.092 64.5191 81.0262 64.5191 80.9793V80.9135C64.5191 80.8571 64.4863 80.8243 64.4205 80.8196C64.2629 80.8107 64.106 80.7918 63.9508 80.7632C63.7178 80.7277 63.482 80.7136 63.2463 80.7209C62.6903 80.7003 62.1525 80.9213 61.7716 81.3268" fill="#004B35"/>
<path d="M71.3529 82.501C71.3247 82.2145 71.2495 82.2145 71.1462 82.2239C71.0429 82.2333 70.9349 82.2708 70.8926 82.2708C70.8769 82.2722 70.8613 82.2668 70.8497 82.2561C70.8381 82.2454 70.8315 82.2303 70.8315 82.2145C70.8315 82.1675 70.8315 82.1534 71.1087 82.083C71.2824 82.0407 71.7145 81.8857 71.7427 81.8857C71.7529 81.8798 71.7654 81.8798 71.7756 81.8857V82.144C71.7756 82.4587 71.7756 82.4822 71.8225 82.4822C71.8695 82.4822 71.8648 82.4822 71.9494 82.3648C72.15 82.0912 72.4537 81.9114 72.7901 81.8669C72.8829 81.8585 72.9748 81.8911 73.0416 81.9561C73.1084 82.0211 73.1435 82.1121 73.1376 82.2051C73.1403 82.3719 73.0085 82.51 72.8417 82.5151C72.7488 82.5179 72.6613 82.4715 72.6116 82.393C72.57 82.3373 72.507 82.3015 72.4378 82.2943C72.2236 82.3408 72.0411 82.4802 71.94 82.6748C71.7991 82.9284 71.7615 83.0693 71.7615 83.9429C71.7615 84.0039 71.7615 84.2951 71.7615 84.3844C71.7615 84.4736 71.7944 84.5628 71.9212 84.5863C72.048 84.6098 72.0668 84.5863 72.156 84.6145C72.1874 84.6149 72.214 84.6374 72.2198 84.6683C72.2255 84.6991 72.2086 84.7297 72.1795 84.7413C72.102 84.7574 72.0221 84.7574 71.9447 84.7413H71.475C71.3294 84.7413 71.057 84.7413 71.0053 84.7413C70.9537 84.7413 70.8879 84.7413 70.8738 84.6709C70.8597 84.6004 70.949 84.591 71.01 84.591C71.0711 84.591 71.2026 84.591 71.2542 84.5159C71.3059 84.3551 71.3297 84.1868 71.3247 84.018C71.3247 83.6329 71.3247 82.7687 71.3247 82.4681" fill="#004B35"/>
<path d="M74.7391 81.8904C75.3654 81.8003 75.9819 82.1084 76.2858 82.6635C76.5897 83.2186 76.5171 83.904 76.1036 84.3831C75.6902 84.8622 75.0228 85.0343 74.4293 84.8149C73.8357 84.5956 73.4406 84.0308 73.4381 83.398C73.4017 83.0236 73.5202 82.6506 73.7659 82.3658C74.0117 82.081 74.3634 81.9092 74.7391 81.8904ZM74.9739 84.7366C75.5809 84.7366 76.0119 84.1025 76.0119 83.398C76.0119 82.6935 75.6052 82.0501 74.9739 82.0501C74.3426 82.0501 73.936 82.5996 73.936 83.398C73.936 84.0931 74.3244 84.7366 74.9739 84.7366Z" fill="#004B35"/>
<path d="M80.4554 85.5209C80.4845 85.661 80.6082 85.7612 80.7513 85.7605C80.8593 85.7605 80.8969 85.7605 80.8969 85.8309C80.8969 85.9014 80.7842 85.9108 80.7043 85.9061C80.4507 85.9061 80.0985 85.9061 79.6758 85.9061C79.5818 85.9061 79.5677 85.8497 79.5724 85.8262C79.5736 85.8066 79.5828 85.7884 79.598 85.7759C79.6131 85.7634 79.6328 85.7578 79.6523 85.7605C79.721 85.7678 79.7902 85.7678 79.8589 85.7605C79.9105 85.7483 79.9528 85.7114 79.9716 85.6618C80.026 85.2147 80.0418 84.7637 80.0186 84.3139C80.0186 84.3139 80.0186 83.2431 80.0186 82.9049C80.0186 82.3883 80.0186 82.2239 79.8167 82.2239C79.7321 82.2239 79.6335 82.2568 79.5912 82.2568C79.5637 82.2545 79.5418 82.2327 79.5396 82.2051C79.5396 82.1628 79.5396 82.1487 79.6758 82.1159C79.8871 82.0736 80.3709 81.8857 80.3897 81.8857C80.4084 81.8857 80.4319 81.9374 80.4319 82.0548C80.4319 82.1722 80.4319 82.2004 80.4789 82.1816C80.5259 82.1628 80.6714 82.0736 80.6855 82.0642C80.8736 81.9528 81.087 81.8914 81.3055 81.8857C81.9161 81.8857 82.475 82.4211 82.475 83.337C82.475 84.1166 82.0382 84.8916 81.3008 84.8916C81.105 84.889 80.9111 84.8525 80.7278 84.7836C80.6582 84.7436 80.5841 84.712 80.5071 84.6896C80.4319 84.6896 80.4366 84.6896 80.4319 85.1593C80.4319 85.2344 80.4319 85.4505 80.4319 85.5115L80.4554 85.5209ZM80.5587 82.3554C80.4131 82.4963 80.4084 82.5996 80.4084 83.4544C80.4084 84.3092 80.4084 84.3374 80.554 84.4548C80.7163 84.576 80.9154 84.6373 81.1176 84.6286C81.7752 84.6286 81.963 83.9053 81.963 83.3886C81.963 82.6888 81.6671 82.1299 81.127 82.1299C80.9173 82.1374 80.7165 82.217 80.5587 82.3554Z" fill="#004B35"/>
<path d="M70.2351 82.764H69.8453H69.7091H69.2676C69.2395 82.764 69.1549 82.764 69.1549 82.8438C69.1574 82.8835 69.1903 82.9144 69.2301 82.9143C69.269 82.9094 69.3085 82.9094 69.3475 82.9143C69.5072 82.9613 69.5353 82.9988 69.5353 83.4121V84.2904C69.5397 84.3541 69.5067 84.4145 69.4508 84.4454C69.2878 84.5154 69.1115 84.5491 68.9342 84.544C68.4672 84.5474 68.021 84.3508 67.7083 84.0039C67.3941 83.6024 67.2282 83.1047 67.2387 82.5949C67.2102 82.1194 67.3802 81.6534 67.7083 81.308C67.9849 81.0727 68.3416 80.9533 68.704 80.9746C69.1082 80.9308 69.5096 81.0785 69.789 81.3738C69.8418 81.4764 69.8752 81.5878 69.8876 81.7026C69.8876 81.7448 69.8876 81.8153 69.9533 81.8153C70.0191 81.8153 70.0379 81.726 70.0379 81.6697C70.0269 81.4538 70.0269 81.2374 70.0379 81.0215C70.0398 80.9918 70.0398 80.962 70.0379 80.9323C70.0379 80.9323 70.0379 80.8618 69.9439 80.8525C69.8174 80.8467 69.6916 80.8294 69.5682 80.8008C69.3261 80.746 69.079 80.7161 68.8308 80.7116C68.3793 80.6882 67.9316 80.8046 67.5487 81.045C67.0085 81.4533 66.7045 82.1017 66.7361 82.7781C66.7246 83.334 66.9321 83.8721 67.3138 84.2763C67.7492 84.664 68.3189 84.8662 68.9013 84.8399C69.2586 84.8454 69.6118 84.7632 69.9299 84.6004C70.0097 84.5534 70.0097 84.5206 70.0097 84.2904V83.7221C70.0097 83.5061 70.0097 83.3511 70.0097 83.1867C70.0097 83.0223 70.0567 82.9472 70.1553 82.9237H70.268C70.3103 82.9237 70.3432 82.8955 70.3432 82.8579C70.3432 82.8204 70.2774 82.7781 70.2304 82.7781" fill="#004B35"/>
<path d="M79.2953 84.6333C79.215 84.6298 79.1365 84.609 79.0651 84.5722C78.9524 84.5112 78.9336 84.3703 78.9336 83.9945C78.9336 83.8207 78.9336 83.2806 78.9336 83.1256C78.9336 82.9706 78.9336 81.9796 78.9336 81.9374C78.9278 81.9099 78.9052 81.8891 78.8773 81.8857C78.8773 81.8857 78.572 81.975 78.4733 81.9937C78.0929 82.0877 78.0365 82.083 78.0365 82.1581C78.0365 82.2333 78.0365 82.2098 78.107 82.2051H78.309C78.5297 82.2051 78.5297 82.3883 78.5297 82.9753C78.5422 83.3949 78.5155 83.8147 78.4499 84.2294C78.2839 84.4765 78.014 84.634 77.7172 84.6567C77.4909 84.6634 77.2853 84.5257 77.2052 84.3139C77.1442 84.1004 77.1235 83.8774 77.1442 83.6564C77.1442 83.4873 77.1442 81.9609 77.1442 81.9562C77.142 81.9286 77.1201 81.9067 77.0925 81.9045C77.0925 81.9045 76.7403 82.0125 76.5524 82.0595C76.3645 82.1065 76.3223 82.1205 76.3223 82.1675C76.3223 82.2145 76.3223 82.2239 76.3974 82.2145H76.5571C76.6178 82.2066 76.6767 82.2389 76.7027 82.2943C76.7273 82.5785 76.7367 82.8639 76.7309 83.1491C76.7309 83.2806 76.7309 83.8865 76.7309 84.0086C76.7731 84.8634 77.3978 84.9198 77.5669 84.9198C77.8292 84.9043 78.081 84.8111 78.2902 84.6521C78.3184 84.6521 78.4358 84.5158 78.4686 84.5158C78.5015 84.5158 78.5156 84.5487 78.5203 84.6567C78.5161 84.6769 78.5161 84.6977 78.5203 84.7178C78.5211 84.7443 78.5336 84.7691 78.5545 84.7854C78.5754 84.8017 78.6024 84.8079 78.6283 84.8023C78.7223 84.8023 78.8256 84.8023 78.9101 84.8023H79.2812C79.3657 84.8023 79.3939 84.7601 79.3986 84.7272C79.4033 84.6943 79.3986 84.6614 79.2906 84.6521" fill="#004B35"/>
<path d="M67.6381 75.1131C67.6381 75.1131 66.2714 78.2693 66.262 78.2834L64.853 75.1084C64.853 75.0615 64.806 75.0098 64.745 75.0098C64.6839 75.0098 64.6604 75.0943 64.6557 75.1366L64.3082 78.5276C64.3082 78.7061 64.2753 78.8752 64.1485 78.9033C64.1033 78.9094 64.0575 78.9094 64.0123 78.9033C63.9653 78.9033 63.9277 78.9315 63.9277 78.9644C63.9277 78.9973 63.9277 79.0489 64.0452 79.0489H64.341H64.543H64.8952C64.9375 79.0489 65.0174 79.0489 65.0174 78.9644C65.0174 78.8799 64.9845 78.9033 64.9375 78.9033C64.8814 78.9104 64.8246 78.9104 64.7684 78.9033C64.7104 78.8897 64.6706 78.8361 64.6745 78.7765C64.6745 78.692 64.6745 78.5981 64.6745 78.5182L64.853 76.2356L66.0178 78.8235C66.1117 79.0208 66.1352 79.063 66.1915 79.063C66.2479 79.063 66.2714 79.0208 66.3465 78.8423L67.4972 76.1793L67.718 78.7249C67.7154 78.753 67.7154 78.7813 67.718 78.8094C67.718 78.847 67.718 78.8986 67.718 78.8986C67.6893 78.9102 67.6707 78.9382 67.671 78.9691C67.671 79.0348 67.7414 79.0489 67.8354 79.0583C68.0232 79.0583 68.5352 79.0583 68.6432 79.0583C68.7512 79.0583 68.7794 78.9973 68.7794 78.9738C68.7794 78.9503 68.7794 78.9127 68.7043 78.9127C68.6025 78.9144 68.501 78.9001 68.4037 78.8705C68.2205 78.8047 68.1876 78.5229 68.1735 78.3538L67.8495 75.1789C67.8495 75.1037 67.8495 75.0051 67.7508 75.0051C67.6522 75.0051 67.6616 75.0709 67.6475 75.1084" fill="#004B35"/>
<path d="M70.1554 75.3151C70.1554 75.3151 70.1554 75.3151 70.1836 75.2916C70.2663 75.2826 70.3498 75.2826 70.4325 75.2916C70.9022 75.2916 71.0994 75.7613 71.0994 76.1511C71.1008 76.3352 71.0357 76.5136 70.9162 76.6536C70.8176 76.7663 70.7566 76.7757 70.4466 76.7757C70.345 76.7835 70.2429 76.7835 70.1413 76.7757V75.3667L70.1554 75.3151ZM70.0943 75.1037H69.8454H69.3194C69.2912 75.1037 69.1973 75.1037 69.1973 75.1789C69.1972 75.1996 69.2058 75.2195 69.2209 75.2337C69.236 75.248 69.2564 75.2553 69.2771 75.254H69.4462C69.5918 75.2869 69.6294 75.3433 69.6434 75.517C69.6575 75.6908 69.6434 75.8317 69.6434 76.6442V77.5836C69.6434 78.0532 69.6434 78.4947 69.6153 78.7108C69.5871 78.9268 69.5683 78.9503 69.4979 78.9644C69.4479 78.9695 69.3975 78.9695 69.3476 78.9644C69.2912 78.9644 69.2677 78.9973 69.2677 79.0301C69.2677 79.063 69.357 79.1147 69.3851 79.1147H69.7796H69.8971H70.1037C70.2775 79.1147 70.517 79.1147 70.5734 79.1147C70.914 79.1513 71.2546 79.0455 71.5143 78.8222C71.7741 78.5989 71.9299 78.278 71.9448 77.9358C71.9255 77.4127 71.5736 76.9605 71.0712 76.8133C71.379 76.6019 71.5564 76.247 71.5409 75.874C71.5409 75.5687 71.3108 75.0521 70.4513 75.0521L70.0943 75.1037ZM70.301 78.8235C70.1601 78.7577 70.1601 78.7108 70.146 78.4712V78.4478C70.146 78.3726 70.146 77.7151 70.146 77.3206V77.0247C70.362 77.0247 70.4935 77.0247 70.5405 77.0247C70.6903 77.035 70.8347 77.0853 70.9585 77.1703C71.2679 77.4142 71.4424 77.791 71.4282 78.1847C71.4376 78.3735 71.3671 78.5575 71.2339 78.6916C71.1007 78.8256 70.9172 78.8974 70.7284 78.8892C70.5851 78.8761 70.4452 78.838 70.3151 78.7765L70.301 78.8235Z" fill="#004B35"/>
<path d="M59.5128 75.1131C59.5128 75.1131 58.1461 78.2693 58.1414 78.2834C58.1367 78.2975 56.7324 75.1084 56.7324 75.1084C56.7324 75.1084 56.6854 75.0098 56.6244 75.0098C56.5633 75.0098 56.5398 75.0943 56.5351 75.1366L56.1876 78.5276C56.1876 78.7061 56.1547 78.8751 56.0279 78.9033C55.9827 78.9094 55.9369 78.9094 55.8917 78.9033C55.8447 78.9033 55.8071 78.9315 55.8071 78.9644C55.8071 78.9973 55.8071 79.0489 55.9245 79.0489H56.2204H56.4224H56.7746C56.8169 79.0489 56.8968 79.0489 56.8968 78.9644C56.8919 78.9273 56.8589 78.9005 56.8216 78.9033C56.7639 78.9108 56.7055 78.9108 56.6478 78.9033C56.589 78.8899 56.5477 78.8369 56.5492 78.7765C56.5445 78.6905 56.5445 78.6042 56.5492 78.5182L56.7277 76.2356L57.8925 78.8235C57.9911 79.0208 58.0099 79.063 58.0662 79.063C58.1226 79.063 58.1461 79.0207 58.2212 78.8423L59.3813 76.1887L59.602 78.7343C59.602 78.7671 59.602 78.7906 59.602 78.8188C59.602 78.847 59.602 78.908 59.602 78.908C59.5734 78.9196 59.5547 78.9476 59.5551 78.9785C59.5551 79.0442 59.6302 79.0583 59.7242 79.0677C59.9073 79.0677 60.424 79.0677 60.5273 79.0677C60.6306 79.0677 60.6635 79.0067 60.6635 78.9832C60.6635 78.9597 60.6635 78.9221 60.5883 78.9221C60.4866 78.9236 60.3852 78.9093 60.2878 78.8798C60.1046 78.8141 60.0717 78.5323 60.0576 78.3632L59.7335 75.1883C59.7335 75.1131 59.7335 75.0145 59.6349 75.0145C59.5363 75.0145 59.5457 75.0802 59.5316 75.1178" fill="#004B35"/>
<path d="M53.6887 78.9456C53.6232 78.9443 53.5583 78.9332 53.4961 78.9127C53.3787 78.8798 53.2425 78.7906 53.0687 78.3585C52.848 77.7996 52.3736 76.5644 52.0918 75.827C51.9697 75.5217 51.8899 75.3057 51.8664 75.2493C51.8053 75.0896 51.7771 75.0427 51.7255 75.0427C51.6738 75.0427 51.6456 75.0896 51.5799 75.2634L50.4104 78.4712C50.3118 78.7436 50.2132 78.9033 50.0018 78.9409H49.8562C49.8092 78.9409 49.7764 78.9409 49.7764 79.002C49.7764 79.063 49.8703 79.0771 49.9079 79.0771C50.0723 79.0771 50.2507 79.0771 50.3775 79.0771H50.6265H50.8989C50.9881 79.0771 51.0069 79.0348 51.0069 79.002C51.0069 78.9691 51.0069 78.9409 50.9224 78.9409H50.8707C50.8096 78.9409 50.7063 78.908 50.7063 78.8188C50.7126 78.7047 50.7364 78.5922 50.7768 78.4853L51.0586 77.6164H52.2327L52.7024 78.847C52.7117 78.8728 52.7117 78.901 52.7024 78.9268C52.6854 78.9268 52.6691 78.9338 52.6575 78.9463C52.6459 78.9588 52.64 78.9756 52.6413 78.9926C52.6413 79.0489 52.7024 79.0536 52.801 79.0583H52.8292C53.0593 79.0583 53.3458 79.0583 53.637 79.0583C53.7498 79.0583 53.7732 79.0161 53.7732 78.9832C53.7732 78.9503 53.7498 78.9456 53.6887 78.9456ZM51.1572 77.3487L51.6269 75.9397C51.6264 75.9319 51.6264 75.9241 51.6269 75.9162C51.6294 75.9239 51.6294 75.9321 51.6269 75.9397L52.1388 77.3487H51.1572Z" fill="#004B35"/>
<path d="M74.9227 78.3163C74.8616 78.3163 74.8522 78.382 74.8476 78.4196C74.81 78.6215 74.7536 78.7202 74.6362 78.7718C74.4832 78.8128 74.3248 78.8302 74.1665 78.8235C73.664 78.8235 73.617 78.7577 73.6029 78.4337C73.6029 78.3538 73.6029 78.0204 73.6029 77.7761V77.0904C73.6922 77.0904 74.2041 77.0904 74.3403 77.1186C74.4765 77.1468 74.5611 77.2031 74.5845 77.2736C74.593 77.3281 74.593 77.3835 74.5845 77.438C74.5845 77.4849 74.5845 77.5178 74.6503 77.5178C74.716 77.5178 74.7207 77.4286 74.7207 77.3863C74.7207 77.344 74.7207 77.1609 74.7207 77.0575C74.7271 76.9818 74.7381 76.9065 74.7536 76.8321C74.7536 76.7992 74.7536 76.7804 74.7536 76.7663C74.7536 76.7523 74.7066 76.6912 74.6926 76.6912C74.6785 76.6912 74.6362 76.7194 74.5986 76.757C74.5611 76.7992 74.5 76.8086 74.3732 76.818H73.5607V75.3526H74.2605C74.547 75.3526 74.5751 75.4419 74.6033 75.5076C74.6227 75.5635 74.6322 75.6223 74.6315 75.6814C74.6315 75.766 74.6785 75.78 74.7067 75.78C74.7348 75.78 74.763 75.7519 74.7724 75.6955C74.7766 75.6157 74.7766 75.5358 74.7724 75.456C74.7742 75.4216 74.7742 75.3871 74.7724 75.3526C74.7724 75.2728 74.7724 75.2164 74.8053 75.1742C74.8069 75.1523 74.8069 75.1303 74.8053 75.1084C74.8053 75.038 74.7677 75.0286 74.7536 75.0286C74.7368 75.0232 74.7188 75.0232 74.702 75.0286H74.6738C74.6035 75.035 74.5327 75.035 74.4624 75.0286C74.3403 75.0286 73.4573 75.0286 73.1849 75.0286H72.7153C72.6824 75.0286 72.6025 75.0286 72.6025 75.1037C72.6037 75.1212 72.6119 75.1374 72.6251 75.1489C72.6383 75.1604 72.6555 75.1661 72.673 75.1648C72.7292 75.1597 72.7858 75.1597 72.8421 75.1648C72.983 75.1977 73.0299 75.254 73.0346 75.4325C73.0393 75.611 73.0346 75.7378 73.0346 76.5456V77.4521C73.0346 77.9217 73.0346 78.3538 73.0112 78.5652C72.9877 78.7765 72.9595 78.8094 72.8843 78.8235C72.8344 78.8289 72.784 78.8289 72.734 78.8235C72.6824 78.8235 72.6636 78.8517 72.6636 78.8845C72.6636 78.9174 72.7481 78.955 72.7763 78.955H73.2836H73.6875H73.7955H74.5564C74.7583 78.955 74.8241 78.955 74.8663 78.8C74.8996 78.6324 74.9231 78.4631 74.9368 78.2928C75.0119 78.3867 75.0119 78.3163 74.9227 78.3163Z" fill="#004B35"/>
<path d="M63.3356 78.3021C63.2792 78.3021 63.2698 78.3632 63.2604 78.4055C63.2229 78.6074 63.1665 78.7014 63.0491 78.7577C62.8961 78.7989 62.7377 78.8163 62.5794 78.8094C62.0722 78.8094 62.0252 78.7436 62.0111 78.4149C62.0111 78.3397 62.0111 78.0063 62.0111 77.762V77.0763C62.0957 77.0763 62.6076 77.0763 62.7485 77.0763C62.8894 77.0763 62.9645 77.1655 62.988 77.236C62.9965 77.2905 62.9965 77.3459 62.988 77.4004C62.9851 77.4202 62.9914 77.4403 63.0051 77.455C63.0188 77.4696 63.0385 77.4772 63.0585 77.4755C63.1242 77.4755 63.1242 77.391 63.1242 77.344C63.1242 77.2971 63.1242 77.128 63.1242 77.02C63.131 76.9443 63.142 76.869 63.1571 76.7945C63.1571 76.7616 63.1571 76.7429 63.1571 76.7288C63.1571 76.7147 63.1101 76.6536 63.1007 76.6536C63.0913 76.6536 63.0397 76.6818 63.0068 76.7194C62.9692 76.7616 62.9082 76.771 62.7861 76.7804C62.6639 76.7898 62.3164 76.7804 61.9688 76.7804V75.362C62.0393 75.362 62.5841 75.362 62.6733 75.362C62.9551 75.362 62.9833 75.4513 63.0115 75.517C63.0312 75.5728 63.0408 75.6317 63.0397 75.6908C63.0397 75.7753 63.0866 75.7894 63.1148 75.7894C63.143 75.7894 63.1712 75.7613 63.1806 75.7049C63.1849 75.6267 63.1849 75.5483 63.1806 75.4701C63.1769 75.4341 63.1769 75.3979 63.1806 75.362C63.1861 75.3035 63.1955 75.2455 63.2088 75.1883C63.2119 75.1649 63.2119 75.1412 63.2088 75.1178C63.2088 75.0474 63.1712 75.038 63.1524 75.038C63.1355 75.0334 63.1177 75.0334 63.1007 75.038H63.0726C63.0007 75.0444 62.9284 75.0444 62.8565 75.038H61.6542H61.1845C61.1563 75.038 61.0718 75.038 61.0718 75.1131C61.073 75.1306 61.0811 75.1468 61.0943 75.1583C61.1075 75.1697 61.1248 75.1755 61.1422 75.1742C61.1985 75.1691 61.2551 75.1691 61.3113 75.1742C61.4569 75.207 61.4992 75.2634 61.5086 75.4372C61.518 75.611 61.5086 75.7472 61.5086 76.5503V77.4567C61.5086 77.9264 61.5086 78.3632 61.5086 78.5746C61.5086 78.7859 61.4616 78.8141 61.3818 78.8329C61.3334 78.8383 61.2845 78.8383 61.2362 78.8329C61.218 78.8302 61.1995 78.8353 61.1852 78.8469C61.1709 78.8585 61.1621 78.8756 61.161 78.8939C61.161 78.9691 61.2456 78.9691 61.2784 78.9691H61.781H62.1849H62.2929H63.0538C63.2557 78.9691 63.3215 78.9691 63.3638 78.8141C63.406 78.6591 63.4342 78.3444 63.4342 78.3068C63.4342 78.2693 63.4013 78.3021 63.3356 78.3021Z" fill="#004B35"/>
<path d="M86.434 78.6027C86.434 78.7624 86.387 78.847 86.3119 78.8611H86.1663C86.1481 78.8584 86.1296 78.8635 86.1153 78.8751C86.101 78.8867 86.0923 78.9037 86.0911 78.9221C86.0911 78.9973 86.1757 78.9973 86.2039 78.9973H86.6219H86.7534C86.8661 78.9973 87.1103 78.9973 87.3264 78.9973C87.425 78.9973 87.4438 78.9503 87.4438 78.9221C87.4427 78.9037 87.4339 78.8867 87.4196 78.8751C87.4053 78.8635 87.3869 78.8584 87.3686 78.8611H87.1385C87.0164 78.8611 86.9835 78.7577 86.9647 78.6027C86.9459 78.4477 86.9412 77.9734 86.9412 77.4896C86.9412 77.4896 86.9412 77.0763 86.9412 77.02C87.1338 77.02 87.6035 77.02 87.7162 77.02C87.821 77.024 87.9142 77.088 87.9557 77.1843C87.9707 77.2367 87.9817 77.29 87.9886 77.344C87.9886 77.391 87.9886 77.4239 88.0544 77.4239C88.1201 77.4239 88.1248 77.3393 88.1248 77.2924C88.1248 77.2454 88.1248 77.0481 88.1248 76.9495C88.1312 76.8738 88.1422 76.7985 88.1577 76.7241C88.1577 76.6912 88.1577 76.6724 88.1577 76.6583C88.1577 76.6442 88.1201 76.5832 88.0966 76.5832C88.0732 76.5832 88.045 76.6113 88.0262 76.6348C87.9886 76.6912 87.9322 76.7006 87.8101 76.7147H86.9178V75.2728C86.9178 75.2446 86.9178 75.2446 86.9178 75.2446H87.7115C87.838 75.2369 87.9598 75.2934 88.0356 75.3949C88.0601 75.4531 88.0744 75.515 88.0778 75.5781C88.0778 75.6626 88.1295 75.672 88.1436 75.672C88.1577 75.672 88.2047 75.672 88.2187 75.5875C88.2328 75.5029 88.2187 75.4372 88.2187 75.3526C88.2205 75.3166 88.2205 75.2806 88.2187 75.2446C88.2263 75.1845 88.2372 75.1249 88.2516 75.0661C88.2533 75.0443 88.2533 75.0223 88.2516 75.0004C88.2516 74.9487 88.2234 74.9205 88.1906 74.9205C88.1736 74.9167 88.1559 74.9167 88.1389 74.9205H88.106C88.053 74.927 87.9994 74.927 87.9463 74.9205H87.89C87.796 74.9205 87.115 74.9205 86.7863 74.9205H86.0395C86.0066 74.9205 85.9268 74.9205 85.9268 74.991C85.9267 75.0093 85.9343 75.0268 85.9476 75.0392C85.961 75.0517 85.979 75.0581 85.9972 75.0567C86.0535 75.0519 86.11 75.0519 86.1663 75.0567C86.3119 75.0896 86.3495 75.1413 86.3636 75.3245C86.3776 75.5076 86.3636 75.6297 86.3636 76.4329V77.344C86.4622 77.9922 86.4622 78.4102 86.434 78.6027Z" fill="#004B35"/>
<path d="M79.126 78.8939C79.0604 78.9005 78.9943 78.9005 78.9287 78.8939C78.6997 78.8544 78.4955 78.7261 78.3604 78.537C78.1303 78.2552 77.5056 77.2407 77.5056 77.2407C77.9079 76.9787 78.1405 76.5225 78.1162 76.0431C78.1093 75.7565 77.975 75.4879 77.7499 75.3104C77.4595 75.1337 77.1214 75.0516 76.7824 75.0755H76.3456H76.1013C75.9933 75.0755 75.7632 75.0755 75.5847 75.0755C75.5565 75.0755 75.4673 75.0755 75.4673 75.1554C75.4684 75.175 75.4777 75.1932 75.4928 75.2057C75.508 75.2182 75.5277 75.2238 75.5471 75.2211C75.6018 75.2163 75.6568 75.2163 75.7115 75.2211C75.8524 75.2493 75.8947 75.3057 75.9088 75.4795C75.9229 75.6532 75.9088 75.7941 75.9088 76.5973V77.5084C75.9088 77.9781 75.9088 78.4102 75.8853 78.6262C75.8618 78.8423 75.8383 78.8611 75.7585 78.8752C75.7109 78.8881 75.6621 78.8959 75.6129 78.8986C75.5565 78.8986 75.5377 78.9315 75.5377 78.9644C75.5377 78.9973 75.6223 79.0442 75.6552 79.0442C75.7867 79.0442 76.0356 79.0442 76.1248 79.0442H76.2047C76.3221 79.0442 76.5616 79.0442 76.7824 79.0442C76.8904 79.0442 76.8998 78.9879 76.8998 78.9644C76.9 78.9452 76.8918 78.9269 76.8773 78.9142C76.8629 78.9016 76.8436 78.8959 76.8246 78.8986C76.7474 78.8964 76.6705 78.8886 76.5945 78.8752C76.4677 78.8752 76.4395 78.7765 76.4254 78.6262C76.4113 78.4759 76.3972 77.9922 76.3972 77.5084V77.3769H77.036C77.036 77.3769 77.0595 77.3769 77.0735 77.3769C77.0876 77.3769 77.5855 78.227 77.5855 78.227C77.7215 78.495 77.9157 78.7293 78.1538 78.9127C78.3078 78.9997 78.4853 79.0358 78.661 79.0161H79.0274C79.0931 79.0161 79.1871 79.016 79.1964 78.9362C79.2058 78.8564 79.1636 78.8705 79.1213 78.8705L79.126 78.8939ZM76.3972 75.3292C76.3922 75.3204 76.3922 75.3097 76.3972 75.301C76.5064 75.2753 76.6186 75.2642 76.7307 75.2681C77.2708 75.2681 77.5902 75.6438 77.5902 76.2685C77.6174 76.557 77.5058 76.8412 77.2896 77.0341C77.18 77.1022 77.0521 77.135 76.9233 77.128C76.7444 77.135 76.5659 77.1079 76.3972 77.0481C76.3922 77.0378 76.3922 77.0256 76.3972 77.0153V75.3292Z" fill="#004B35"/>
<path d="M83.3248 74.9581C82.7744 74.9466 82.2431 75.1591 81.8525 75.547C81.462 75.9349 81.2458 76.4649 81.2535 77.0152C81.2254 77.5673 81.4308 78.1058 81.8194 78.499C82.2081 78.8921 82.7442 79.1036 83.2966 79.0818C83.8661 79.0941 84.4153 78.8697 84.8132 78.462C85.2111 78.0543 85.4221 77.4998 85.396 76.9307C85.4133 76.3863 85.1981 75.8603 84.8042 75.4841C84.394 75.1302 83.8663 74.9426 83.3248 74.9581ZM83.2919 75.207C84.0293 75.207 84.8277 75.7894 84.8277 77.0857C84.8277 78.7389 83.6676 78.8235 83.4187 78.8235C82.4794 78.8235 81.803 78.0203 81.803 76.879C81.8171 75.8411 82.3807 75.207 83.2919 75.207Z" fill="#004B35"/>
</g>
<rect x="1" y="1" width="110" height="110" rx="9" stroke="black" stroke-opacity="0.1" stroke-width="2"/>
<defs>
<clipPath id="clip0_6700_50550">
<rect x="2" y="2" width="108" height="108" rx="8" fill="white"/>
</clipPath>
</defs>
</svg>
