<svg width="112" height="112" viewBox="0 0 112 112" fill="none" xmlns="http://www.w3.org/2000/svg">
<g clip-path="url(#clip0_6700_50016)">
<rect x="2" y="2" width="108" height="108" rx="8" fill="white"/>
<path d="M33.1279 26H78.6458C78.6458 41.1717 78.6458 56.3434 78.643 71.5151C63.4713 71.5179 48.2996 71.5151 33.1279 71.5179V26ZM39.1906 34.5444C42.7328 39.2876 46.3274 43.9895 49.8862 48.719C46.3577 53.4677 42.7411 58.1504 39.2071 62.8963C47.286 62.9294 55.3621 62.8963 63.441 62.9129C67.077 58.2082 70.5807 53.4016 74.2414 48.7135L74.1725 48.7162C70.6055 43.9868 67.0219 39.2684 63.4603 34.5389C55.3704 34.5444 47.2805 34.5306 39.1906 34.5444Z" fill="#790008"/>
<path d="M39.1904 34.5444C47.2804 34.5307 55.3703 34.5444 63.4602 34.5389C67.0217 39.2684 70.6053 43.9868 74.1724 48.7163C66.077 48.7328 57.9815 48.7245 49.8861 48.719C46.3273 43.9896 42.7327 39.2877 39.1904 34.5444Z" fill="white"/>
<path d="M49.8862 48.7191C57.9816 48.7246 66.077 48.7328 74.1725 48.7163L74.2413 48.7136C70.5806 53.4017 67.0769 58.2083 63.441 62.9129C55.3621 62.8964 47.2859 62.9295 39.207 62.8964C42.741 58.1504 46.3577 53.4678 49.8862 48.7191Z" fill="#ED3024"/>
<path d="M25.8842 79.5179C26.5794 78.6511 27.6483 78.0944 28.7589 78.0315C29.8108 77.9502 30.8812 78.3197 31.6717 79.0156C31.315 79.3752 30.9575 79.7327 30.5979 80.0895C29.9896 79.5964 29.1446 79.4021 28.3873 79.6183C27.5423 79.8401 26.8641 80.5621 26.6754 81.4127C26.4451 82.3361 26.7779 83.3853 27.5374 83.9702C28.4049 84.6803 29.7508 84.6442 30.6035 83.9271C30.961 84.2853 31.3263 84.6372 31.6746 85.0052C30.9688 85.6185 30.051 85.9873 29.1142 85.9986C27.9337 86.0311 26.751 85.5118 25.9803 84.6167C25.4412 84.0027 25.0979 83.2185 25.0209 82.4047C24.9128 81.3788 25.2286 80.3156 25.8842 79.5179Z" fill="#790008"/>
<path d="M33.0903 78.2435C33.6025 78.2435 34.114 78.2442 34.6262 78.2428C34.6276 80.7572 34.6262 83.2709 34.6269 85.7853C34.1147 85.7853 33.6025 85.786 33.0903 85.7846C33.091 83.2709 33.0903 80.7572 33.0903 78.2435Z" fill="#790008"/>
<path d="M36.4636 78.2259C36.9617 78.2245 37.4598 78.2287 37.9586 78.2238C38.8466 79.8211 39.7121 81.4326 40.6114 83.0243C41.4832 81.422 42.3678 79.8275 43.2396 78.2252C43.7419 78.2266 44.2442 78.2252 44.7472 78.2259C44.7444 80.741 44.7522 83.2554 44.743 85.7705C44.2315 85.7627 43.7207 85.7719 43.2092 85.7655C43.2127 84.2769 43.2092 82.7891 43.2113 81.3012C42.3303 82.8053 41.491 84.3349 40.5945 85.8291C39.7382 84.3151 38.8586 82.8145 37.9988 81.3026C38.0017 82.7912 37.9995 84.2791 38.0003 85.7676C37.488 85.7676 36.9766 85.7669 36.4643 85.7683C36.4622 83.2539 36.4643 80.7403 36.4636 78.2259Z" fill="#790008"/>
<path d="M46.4966 78.2428C47.5337 78.2442 48.5701 78.2428 49.6072 78.2435C50.0869 78.2527 50.5794 78.3537 50.9891 78.6144C51.9789 79.2192 52.2064 80.7897 51.3798 81.6219C51.2738 81.735 51.1481 81.8282 51.023 81.9187C51.4943 82.1666 51.856 82.6266 51.9436 83.1564C52.0715 83.8714 51.9083 84.6923 51.3537 85.1968C50.9114 85.6199 50.2826 85.7725 49.6864 85.7803C48.6231 85.7916 47.5591 85.7824 46.4959 85.7853C46.4966 83.2709 46.4945 80.7572 46.4966 78.2428ZM48.0325 79.6212C48.0318 80.1687 48.0325 80.7162 48.0325 81.2637C48.4846 81.2623 48.9375 81.2659 49.3903 81.263C49.6539 81.2581 49.9386 81.203 50.1315 81.0087C50.4056 80.7176 50.4126 80.2266 50.1689 79.9143C49.9817 79.689 49.6722 79.619 49.3918 79.6204C48.9382 79.6212 48.4853 79.6212 48.0325 79.6212ZM48.0325 82.6421C48.0325 83.2242 48.0318 83.8071 48.0325 84.3899C48.532 84.3907 49.0315 84.3892 49.5309 84.3914C49.7648 84.3984 50.0106 84.3327 50.1859 84.1709C50.5349 83.8346 50.5412 83.208 50.1851 82.8745C49.993 82.6923 49.7175 82.6449 49.4624 82.6414C48.9855 82.6407 48.5087 82.6414 48.0325 82.6421Z" fill="#790008"/>
<path d="M55.1322 78.2266C55.3886 78.2294 55.6451 78.2174 55.9015 78.2301C56.0188 78.3212 56.0845 78.4639 56.1785 78.5784C57.5858 80.5007 58.9818 82.4316 60.3969 84.3483C60.3955 82.3072 60.3969 80.2669 60.3962 78.2258C60.6611 78.2258 60.9261 78.2258 61.191 78.2258C61.191 80.7339 61.191 83.2419 61.191 85.7499C60.9232 85.7499 60.6555 85.7492 60.3884 85.7514C58.902 83.7068 57.4162 81.6615 55.9277 79.6183C55.9277 81.6622 55.9277 83.7061 55.9277 85.7492C55.6606 85.7485 55.3936 85.7549 55.1279 85.7436C55.1399 83.2384 55.13 80.7325 55.1322 78.2266Z" fill="#790008"/>
<path d="M63.1692 78.2259C63.4341 78.2259 63.6984 78.2259 63.964 78.2259C63.964 80.7339 63.9633 83.2412 63.964 85.7486C63.6991 85.7507 63.4341 85.7493 63.1699 85.75C63.1678 83.242 63.1699 80.7339 63.1692 78.2259Z" fill="#790008"/>
<path d="M65.1875 85.8009C66.1038 83.2921 67.0208 80.7834 67.9435 78.2775C68.3109 78.281 68.6776 78.2782 69.0449 78.2789C69.9189 80.7693 70.7914 83.2611 71.6681 85.75C71.3558 85.7493 71.0436 85.7507 70.732 85.7493C70.4996 85.0831 70.2636 84.4176 70.0241 83.7535C68.9863 83.7542 67.9492 83.7542 66.912 83.7542C66.6803 84.4359 66.4578 85.1219 66.2253 85.8037C65.8792 85.8009 65.533 85.8051 65.1875 85.8009ZM67.23 82.852C68.0558 82.8555 68.8824 82.8527 69.7083 82.8534C69.2943 81.6467 68.886 80.4379 68.479 79.2291C68.0643 80.4372 67.6411 81.6425 67.23 82.852Z" fill="#790008"/>
<path d="M73.4322 79.5102C74.0596 78.8645 74.8989 78.4003 75.8039 78.317C76.9194 78.2046 78.03 78.6186 78.9322 79.2538C78.7563 79.482 78.5712 79.7024 78.3967 79.9313C78.0964 79.5039 77.5645 79.3442 77.0848 79.2149C76.2504 78.9853 75.3037 79.1096 74.5993 79.6275C73.9628 80.1079 73.5375 80.8377 73.3686 81.6113C73.2733 82.4111 73.3524 83.2843 73.8271 83.9611C73.9903 84.2168 74.2503 84.3814 74.4729 84.58C74.9448 84.965 75.5637 85.1395 76.167 85.1339C76.9095 85.1409 77.6443 84.9509 78.3232 84.6591C78.3225 83.8862 78.3246 83.1133 78.3225 82.3404C77.734 82.3411 77.1455 82.3411 76.557 82.3404C76.557 82.1058 76.557 81.8713 76.5563 81.6367C77.3921 81.6318 78.2278 81.6367 79.0643 81.6339C79.0657 82.8293 79.0643 84.024 79.065 85.2193C78.2674 85.6644 77.3532 85.8509 76.4532 85.9407C75.5001 85.9604 74.5047 85.716 73.7628 85.0936C73.038 84.498 72.6148 83.5916 72.4905 82.6732C72.3951 81.5555 72.6791 80.3651 73.4322 79.5102Z" fill="#790008"/>
<path d="M80.3394 85.793C81.2599 83.2899 82.1762 80.7854 83.0897 78.2795C83.4571 78.2774 83.8245 78.2816 84.1925 78.2759C85.0368 80.6533 85.862 83.0377 86.7034 85.4164C86.743 85.5231 86.7649 85.6347 86.774 85.7492C86.478 85.7506 86.1834 85.7492 85.8888 85.7506C85.6493 85.0865 85.4162 84.4196 85.1802 83.7548C84.1389 83.7533 83.0975 83.7526 82.0568 83.7555C81.8336 84.4386 81.6018 85.119 81.3772 85.8015C81.031 85.7993 80.6848 85.8128 80.3394 85.793ZM83.6273 79.2339C83.2176 80.4427 82.7902 81.6452 82.3839 82.8554C83.207 82.8512 84.0308 82.854 84.8538 82.854C84.4532 81.6445 84.0378 80.4399 83.6273 79.2339Z" fill="#790008"/>
</g>
<rect x="1" y="1" width="110" height="110" rx="9" stroke="black" stroke-opacity="0.1" stroke-width="2"/>
<defs>
<clipPath id="clip0_6700_50016">
<rect x="2" y="2" width="108" height="108" rx="8" fill="white"/>
</clipPath>
</defs>
</svg>
