<svg width="112" height="112" viewBox="0 0 112 112" fill="none" xmlns="http://www.w3.org/2000/svg">
<g clip-path="url(#clip0_6700_49962)">
<rect x="2" y="2" width="108" height="108" rx="8" fill="white"/>
<path d="M17.915 58.8531H18.7797C19.2733 58.8531 19.672 58.8925 20.1117 59.4001C20.4228 59.751 20.7647 60.5265 20.7647 61.7809C20.7647 62.2313 20.768 62.6771 20.6827 63.1353C20.5457 63.858 20.2122 65.0164 18.3047 65.0164C17.7943 65.0164 17.915 65.0032 17.915 65.0032V58.854V58.8531ZM18.896 66.0856C21.4633 66.0856 22.6127 64.9401 22.6127 61.8113C22.6127 60.9841 22.3696 59.5977 21.5992 58.7521C20.8023 57.8839 19.7719 57.7756 18.9016 57.7756H16.04V66.0856H18.896Z" fill="#046148"/>
<path d="M26.9985 63.9331C26.9985 64.2083 26.9906 64.5778 26.6986 64.8422C26.4537 65.0578 26.109 65.0742 25.9776 65.0742C25.6519 65.0742 25.3588 64.9557 25.2352 64.5531C25.2044 64.4262 25.192 64.2982 25.192 64.1757C25.192 63.5687 25.5946 63.3133 26.0421 63.2043C26.2767 63.15 26.4346 63.1397 26.9984 63.0927V63.9333L26.9985 63.9331ZM26.9985 62.3435L26.063 62.4355C25.055 62.5511 24.6692 62.6432 24.238 62.9297C23.5417 63.4031 23.5327 64.0954 23.5327 64.3228C23.5327 64.8905 23.705 65.3179 23.9398 65.5638C24.2492 65.9243 24.7394 66.0563 25.2128 66.0563C26.3735 66.0563 26.9271 65.529 26.9271 65.529L26.9351 65.9041H28.5001V61.9728C28.5001 61.5304 28.5106 60.9082 28.0031 60.468C27.7375 60.2405 27.505 60.1355 27.1457 60.0844C26.7885 60.0203 26.6644 59.9945 26.3163 59.9945C25.2606 59.9945 24.4644 60.1802 24.0106 60.9878C23.8159 61.3376 23.8259 61.6886 23.8259 61.957H25.2606C25.2738 61.723 25.2844 61.3988 25.4672 61.1737C25.5599 61.0457 25.7766 60.8631 26.1781 60.8631C26.309 60.8631 26.6891 60.8631 26.8829 61.1799C26.9908 61.3669 26.9997 61.61 26.9997 61.8857V62.3433L26.9985 62.3435Z" fill="#046148"/>
<path d="M39.4576 63.9331C39.4576 64.2083 39.4497 64.5778 39.1555 64.8422C38.9169 65.0578 38.5709 65.0742 38.4311 65.0742C38.1077 65.0742 37.819 64.9557 37.6938 64.5531C37.6624 64.4262 37.6534 64.2982 37.6534 64.1757C37.6534 63.5687 38.0538 63.3133 38.5036 63.2043C38.7382 63.15 38.8944 63.1397 39.4576 63.0927V63.9333L39.4576 63.9331ZM39.4576 62.3435L38.526 62.4355C37.5119 62.5511 37.1317 62.6432 36.6977 62.9297C36.0053 63.4031 35.9946 64.0954 35.9946 64.3228C35.9946 64.8905 36.1619 65.3179 36.3944 65.5638C36.7083 65.9243 37.2013 66.0563 37.6725 66.0563C38.836 66.0563 39.3885 65.529 39.3885 65.529L39.3964 65.9041H40.9558V61.9728C40.9558 61.5304 40.969 60.9082 40.4645 60.468C40.1989 60.2405 39.9619 60.1355 39.607 60.0844C39.2482 60.0203 39.1258 59.9945 38.7754 59.9945C37.7203 59.9945 36.9257 60.1802 36.4692 60.9878C36.2771 61.3376 36.2895 61.6886 36.2895 61.957H37.7203C37.7335 61.723 37.744 61.3988 37.9274 61.1737C38.019 61.0457 38.2357 60.8631 38.6377 60.8631C38.7686 60.8631 39.1482 60.8631 39.3469 61.1799C39.4496 61.3669 39.4586 61.61 39.4586 61.8857V62.3433L39.4576 62.3435Z" fill="#046148"/>
<path d="M63.0337 65.904H61.4008V62.3855C61.4008 62.1604 61.4008 61.9727 61.3823 61.7813C61.3665 61.5971 61.3137 60.9996 60.6018 60.9996C60.4132 60.9996 60.2531 61.0463 60.1509 61.0896C59.6697 61.3102 59.6573 61.7011 59.6456 62.0116V65.9041H58.0093V60.1462H59.6456V60.801C60.0566 60.4332 60.4283 60.0306 61.3464 60.0306C62.1174 60.0306 62.4992 60.3293 62.657 60.514C63.0203 60.9223 63.0203 61.4518 63.0343 61.8645V65.9041L63.0337 65.904Z" fill="#046148"/>
<path d="M34.7929 65.904H33.1611V62.3855C33.1611 62.1604 33.1611 61.9727 33.1342 61.7813C33.1236 61.5971 33.0679 60.9996 32.352 60.9996C32.1694 60.9996 32.0094 61.0463 31.9072 61.0896C31.4249 61.3102 31.4108 61.7011 31.3974 62.0116V65.9041H29.7622V60.1462H31.3974V60.801C31.8163 60.4332 32.1835 60.0306 33.1005 60.0306C33.876 60.0306 34.251 60.3293 34.4133 60.514C34.78 60.9223 34.78 61.4518 34.7929 61.8645V65.9041L34.7929 65.904Z" fill="#046148"/>
<path d="M42.1553 60.1434H43.7899V60.8133C44.1038 60.5331 44.6574 60.0255 45.639 60.0255C46.7621 60.0255 47.0743 60.6959 47.1506 60.9172C47.8194 60.2703 48.2591 60.0255 48.8998 60.0255C49.2137 60.0255 49.4287 60.0767 49.6365 60.1524C50.517 60.4904 50.5361 61.2732 50.5523 61.7808V65.9002H48.8891V62.1481C48.8812 61.7404 48.868 61.5096 48.7622 61.3288C48.7411 61.2821 48.5786 60.9953 48.1653 60.9953C48.0254 60.9953 47.7587 61.029 47.6335 61.0979C47.1759 61.3164 47.1585 61.6965 47.1506 62.0048V65.9001H45.5301V62.1721C45.5301 61.7291 45.5353 60.9952 44.7973 60.9952C44.6305 60.9952 44.3402 61.0424 44.197 61.1215C43.7899 61.3725 43.7787 61.7404 43.7899 62.2525V65.9002H42.1553V60.1434V60.1434Z" fill="#046148"/>
<path d="M55.3799 62.9006C55.3799 63.2274 55.3667 63.5413 55.3326 63.858C55.2983 64.1758 55.2427 64.8149 54.7532 65.0833C54.6122 65.1505 54.464 65.1859 54.3118 65.1859C53.3847 65.1859 53.301 64.2133 53.2819 63.8579C53.2608 63.5929 53.2442 63.3334 53.2442 63.0757C53.2442 62.8453 53.26 62.5254 53.2935 62.148C53.3268 61.8431 53.3946 61.2597 53.8663 60.984C54.0275 60.9025 54.1825 60.869 54.3627 60.869C55.2426 60.869 55.3224 61.7921 55.3431 62.1481C55.3669 62.4004 55.3796 62.6541 55.3796 62.9006L55.3799 62.9006ZM57.0467 62.9298C57.0467 62.4188 57.0467 61.4626 56.4785 60.8134C55.7928 59.9947 54.8113 59.9947 54.4637 59.9947C54.0605 59.9947 53.1334 60.0106 52.4057 60.6708C51.5825 61.4047 51.5825 62.5766 51.5825 63.1696C51.5825 64.2949 51.8364 65.4848 53.2598 65.9003C53.6742 66.0267 53.8943 66.0491 54.3115 66.0491C54.7018 66.0491 55.6777 66.0491 56.4027 65.2434C57.0467 64.5302 57.0467 63.4611 57.0467 62.9299" fill="#046148"/>
<path d="M28.686 51.9102H43.8113L30.3965 47.7957L28.686 48.7146L22.8809 50.2126L28.686 51.9102Z" fill="#EF9826"/>
<path d="M16.04 46.0399V51.9102H28.6879V48.7145L16.04 46.0399Z" fill="#EB712D"/>
<path d="M43.8175 51.9102L28.686 46.0401L28.6884 48.7146L43.8176 51.9102H43.8175Z" fill="#FEC02B"/>
<path d="M95.96 62.945V51.9065H75.5879L71.3535 54.9592L75.5879 58.6376L95.96 62.945Z" fill="#EF9826"/>
<path d="M75.5877 58.6376L70.0499 53.8632L43.8193 51.9144L75.5877 62.9518V58.6376Z" fill="#FEC02B"/>
<path d="M43.8125 51.9064V51.9117L75.5876 58.636V51.9078H43.8125V51.9064Z" fill="#EB712D"/>
</g>
<rect x="1" y="1" width="110" height="110" rx="9" stroke="black" stroke-opacity="0.1" stroke-width="2"/>
<defs>
<clipPath id="clip0_6700_49962">
<rect x="2" y="2" width="108" height="108" rx="8" fill="white"/>
</clipPath>
</defs>
</svg>
