<svg width="112" height="112" viewBox="0 0 112 112" fill="none" xmlns="http://www.w3.org/2000/svg">
<g clip-path="url(#clip0_6700_50043)">
<rect x="2" y="2" width="108" height="108" rx="8" fill="white"/>
<path fill-rule="evenodd" clip-rule="evenodd" d="M30.5164 63.2379C30.5561 63.4193 30.8793 63.6517 31.055 63.9579C30.8849 63.8502 30.7205 63.6914 30.5561 63.5497C29.8191 62.9374 24.3596 58.3339 23.9627 58.0902C22.2052 56.996 21.2698 58.0448 20.1473 58.9462C19.6257 59.3601 14.2399 63.9069 14.1095 63.9465C14.1662 63.8955 14.2286 63.7991 14.3079 63.7084C14.9939 62.9431 15.9634 61.7412 16.6493 60.9248L18.3445 58.9179C18.6223 58.5664 18.9171 58.2602 19.1949 57.9144C19.6257 57.3815 20.4931 56.5708 20.4818 55.5106C20.4704 54.3995 19.62 53.7021 19.1778 53.1239C18.9114 52.7724 18.6109 52.4606 18.3275 52.1147L15.7819 49.1043C15.4928 48.7698 15.2263 48.4127 14.9372 48.0952C14.7898 47.9308 14.6481 47.7437 14.512 47.5906C14.4156 47.4829 14.1662 47.1541 14.0755 47.1087C14.3079 47.1541 17.6868 50.0738 18.1234 50.4253L20.1473 52.1147C20.6972 52.5513 21.4796 53.413 22.5511 53.4357C23.5149 53.4527 24.3142 52.744 24.9945 52.1487L27.0128 50.4593C27.7045 49.9094 28.3451 49.3311 29.0367 48.7698L31.055 47.0974C30.936 47.3242 30.4711 47.8061 30.284 48.0442C30.0289 48.3787 29.7454 48.6791 29.4733 49.008C28.929 49.6486 28.3961 50.2892 27.8519 50.9355C27.5684 51.27 27.3133 51.5535 27.0412 51.8936C26.7634 52.2338 26.5026 52.5116 26.2248 52.8517C25.6692 53.5434 25.0342 54.1217 24.7848 54.955C24.3596 56.361 25.6012 57.4269 26.4232 58.4473L28.056 60.3636C28.192 60.528 28.3054 60.6754 28.4585 60.8454L30.3747 63.1245C30.4484 63.1982 30.4371 63.1869 30.5164 63.2379ZM36.1007 47.0464C36.078 46.6835 35.8115 46.3377 35.6245 46.1053C35.0632 45.4136 34.0881 45.0281 33.1697 45.3286C32.9712 45.3909 32.8238 45.4703 32.6311 45.5157C33.2037 44.4385 32.9712 43.452 32.1378 42.6243C31.1854 41.6776 30.1026 41.9837 29.1388 42.4656C28.3281 42.8738 27.1262 43.384 26.2475 43.6051C24.7791 43.9736 24.1725 44.0246 22.5908 44.0246C19.9886 44.0246 18.3615 43.6221 16.0484 42.4656C14.9032 41.893 14.0868 41.7456 13.0437 42.6187C12.301 43.2423 12.0459 44.2684 12.3974 45.1869C12.4484 45.3172 12.5221 45.408 12.5561 45.5554C12.1252 45.3286 11.564 45.1358 10.9063 45.2776C10.4074 45.3796 9.91989 45.6858 9.61942 46.0089C9.05249 46.6269 8.83706 47.4659 9.13186 48.288C9.56273 49.4785 10.0446 49.8867 10.6059 51.8596C11.1785 53.8835 11.1841 56.9733 10.6229 59.1333C10.4641 59.7399 10.0616 60.7717 9.80084 61.3387C9.43233 62.1324 9.00147 62.722 9.00713 63.6064C9.0128 64.865 10.3281 66.0442 11.7908 65.7834C12.1366 65.721 12.3123 65.5963 12.5958 65.4999C11.9835 66.3617 12.1876 67.7166 13.021 68.4196C14.5971 69.7519 15.6175 68.6917 17.409 67.9774C17.8739 67.7903 18.4012 67.5862 18.9057 67.4615C20.3967 67.0873 20.958 67.0306 22.5511 67.0306C24.5467 67.0306 25.8563 67.2064 27.6875 67.9434L29.1104 68.5784C29.8078 68.9242 30.6185 69.2813 31.4915 68.8732C32.7785 68.2665 33.3114 66.8265 32.6311 65.5396C33.181 65.67 34.0824 66.2369 35.2163 65.3469C35.8342 64.8593 36.3445 63.9522 36.163 63.2265C36.1063 63.0111 36.1744 63.1358 36.0553 63.0451C36.1404 62.824 35.8569 62.3195 35.7605 62.1324C34.9271 60.4656 34.5019 59.3487 34.2241 57.4212C34.1221 56.6955 34.1618 55.7487 34.1618 54.9437C34.1618 52.6987 34.7627 50.9242 35.7208 49.008C35.8682 48.7188 36.0043 48.4467 36.0893 48.1292C36.1404 47.9535 36.2651 47.1428 36.1007 47.0464Z" fill="#EB1B23"/>
<path fill-rule="evenodd" clip-rule="evenodd" d="M71.4148 54.904L72.9851 55.0627C76.8743 55.6013 79.1137 57.5629 79.1137 61.5541C79.1137 62.3875 78.9549 63.3059 78.7168 63.8955C77.3959 67.1497 74.1814 66.6224 71.4148 66.6281C70.8592 66.6281 70.3262 66.5941 69.9464 66.4013C69.4815 66.1689 69.5155 65.7947 69.5155 65.1371C69.5155 64.5758 69.5155 64.0089 69.5155 63.4476C69.5155 62.8694 69.5552 62.3988 69.5552 61.7922C69.5552 61.2309 69.5609 60.664 69.5552 60.1027C69.5552 59.7739 69.6006 59.6208 69.6006 59.2977C69.5892 57.3645 69.6799 55.3916 69.6799 53.4527L69.7196 50.9525C69.7196 50.6747 69.7593 50.4763 69.7593 50.1475C69.7593 48.9966 69.8047 47.9648 69.799 46.8026C69.799 46.4794 69.8444 46.3264 69.8387 45.9975C69.8387 45.7197 69.8387 45.4306 69.8387 45.1528C69.8444 44.5065 70.1278 44.3875 70.7685 44.3875C72.0837 44.3875 73.7222 44.2854 74.8787 44.7503C76.5001 45.3966 77.2655 46.5588 77.5546 48.322C77.7587 49.5919 77.685 50.7144 77.0954 51.8426C76.8233 52.3698 76.3981 52.8517 75.9275 53.2146C74.9581 53.9516 73.7845 54.3768 72.5656 54.5638C71.6075 54.7112 71.4204 54.5525 71.4148 54.904ZM63.3927 43.6618C63.3927 43.8149 63.5628 43.7922 63.7102 43.8205C64.7703 44.053 65.0028 45.0111 65.0028 46.0769C65.0028 47.9988 65.0028 49.9207 65.0028 51.8426C65.0028 55.4142 64.9404 59.0086 64.9631 62.6029C64.9631 62.892 64.9177 63.0054 64.9234 63.2832C64.9291 64.7175 65.1955 66.6168 63.7272 67.127C63.5061 67.2064 63.3757 67.2234 63.1489 67.2744V67.5579H77.3788C78.32 67.5579 79.3348 67.3254 80.0321 67.0646C80.9902 66.7131 81.3077 66.4353 82.022 65.8684C82.4755 65.5112 83.0651 64.5475 83.2862 63.9919C83.9496 62.3591 83.9722 60.3635 83.1955 58.7591C82.2828 56.8542 80.7804 55.8508 78.9096 55.1024C78.6885 55.0174 77.9231 54.7509 77.6623 54.7453V54.6602C77.7984 54.6319 77.9288 54.5468 78.0875 54.4845C78.8869 54.1557 80.0604 53.2883 80.6727 52.676C80.8031 52.5512 80.8428 52.4832 80.9562 52.3585L81.4948 51.6442C81.7839 51.1566 81.92 50.9015 82.0787 50.3345C82.5379 48.7245 82.1184 46.6098 81.0355 45.4419C80.2815 44.6256 79.3064 44.1097 78.2122 43.8375C77.4129 43.6448 76.5341 43.5031 75.5647 43.5031H63.3927V43.6618Z" fill="#222222"/>
<path fill-rule="evenodd" clip-rule="evenodd" d="M49.4404 66.6678C48.5333 66.6678 46.7871 66.7301 46.3166 66.0442C45.9481 65.4999 46.1919 63.3342 46.0785 62.5746C45.9764 61.9169 46.0955 50.7768 46.0955 49.2631C46.0955 48.6281 46.1238 45.7254 46.2032 45.1812C46.3223 44.3591 46.5207 44.4271 47.5071 44.4271C51.8158 44.4271 54.7582 45.3909 56.6857 49.2347C57.3887 50.6464 57.6949 52.0297 57.9556 53.566C58.1597 54.7793 58.1881 55.8451 58.1881 57.081C58.1881 59.5018 57.4057 62.1494 55.9941 64.0316C55.3591 64.882 54.5257 65.67 53.4089 66.0385C52.241 66.424 50.9711 66.6678 49.4404 66.6678ZM39.9273 43.7808C40.5963 43.8375 41.2426 44.3138 41.441 45.0054C41.5317 45.3059 41.5827 46.4964 41.5771 46.9273C41.5771 47.1994 41.6224 47.2958 41.6224 47.5679C41.6167 48.4977 41.6621 49.3197 41.6621 50.2722C41.6621 50.7484 41.7018 51.0999 41.7018 51.5988L41.5997 64.2697C41.5487 64.6042 41.5657 65.069 41.5374 65.4149C41.5147 65.7437 41.492 66.2142 41.3389 66.4297C41.1859 66.6508 40.9308 66.8322 40.6756 66.9739C40.4886 67.076 40.0067 67.2517 39.7686 67.2744V67.5579H52.7059C53.5676 67.5579 54.4577 67.3594 55.121 67.1497C55.4498 67.042 55.8353 66.9116 56.1471 66.7642C56.493 66.5941 56.7934 66.4637 57.1109 66.2766C57.5701 65.9931 57.9443 65.772 58.3582 65.4319C59.7188 64.3094 60.7619 63.1075 61.55 61.5257C62.1226 60.3749 62.5704 58.9859 62.7575 57.6933C62.8086 57.3361 62.8823 56.8372 62.9049 56.4347C62.9163 56.2079 62.8879 55.9415 62.9106 55.7147C62.9503 55.4029 62.8653 53.9799 62.8312 53.7305C62.5308 51.338 61.8675 49.5352 60.3878 47.67C59.3673 46.3774 57.8196 45.2549 56.3342 44.5859C55.6596 44.2854 55.019 44.0473 54.2139 43.8489C53.4939 43.6675 52.5698 43.5031 51.6967 43.5031H39.9273V43.7808Z" fill="#222222"/>
<path fill-rule="evenodd" clip-rule="evenodd" d="M84.5957 50.1078C84.5957 51.3663 85.0549 52.5626 85.7239 53.4526C86.3589 54.2974 87.2036 55.023 88.156 55.4936C89.3466 56.0889 90.18 56.3497 91.4442 56.7238C92.7935 57.1207 94.9592 57.5005 95.9626 58.2092C96.2064 58.3793 96.5579 58.6967 96.728 58.9349C97.4083 59.8873 97.4933 60.5506 97.4933 61.7525C97.4933 62.4782 97.2155 63.4079 96.9718 63.8898C96.66 64.5078 96.3198 65.001 95.7982 65.4149C95.3674 65.755 95.4524 65.6813 95.0045 65.9534C94.0011 66.56 92.5327 66.7075 91.2855 66.7075C89.2445 66.7075 87.8839 66.1349 86.5346 65.1314C85.6048 64.4454 85.4064 63.9522 85.1173 62.7219C84.9415 62.7163 84.9926 62.6936 84.8338 62.6823C84.8338 63.476 84.8622 64.3093 84.8395 65.0974L84.7941 66.2652C84.7941 66.6394 84.7148 67.3538 84.9189 67.3538C85.3837 67.3538 85.0492 66.7925 85.8826 66.7925L87.3113 67.1383C88.2297 67.3651 89.3296 67.5522 90.299 67.6939C92.2719 67.9774 94.9422 67.8753 96.7337 67.3197C100.419 66.1802 102.171 63.9238 102.171 60.1027C102.171 56.5027 99.8518 54.4221 96.6316 53.5093C95.1406 53.0898 93.3661 52.8404 91.8637 52.2337C90.8149 51.8142 89.8058 51.253 89.4146 50.1248C88.791 48.3333 89.4656 46.332 90.9623 45.2719C93.5362 43.4577 99.1431 44.121 100.294 47.5169C100.413 47.8741 100.311 47.8911 100.679 47.8911C100.679 47.1087 100.64 46.4171 100.64 45.6744C100.64 45.3172 100.657 44.9034 100.64 44.5462C100.628 44.3534 100.594 44.2741 100.6 44.0246C100.6 43.8942 100.645 43.5427 100.521 43.5427C100.283 43.5427 100.26 43.7128 100.062 43.8092C99.4946 44.104 98.7292 43.8432 98.2247 43.7411C97.6294 43.6221 96.3822 43.4067 95.7642 43.3783C95.0442 43.35 94.6474 43.2593 93.7856 43.2593C93.5135 43.2593 93.3491 43.2366 93.1393 43.2196L91.8127 43.2989C91.1891 43.3273 90.0382 43.5597 89.4373 43.7468C87.9576 44.2174 86.9031 44.841 86.013 45.9295C85.1286 47.0067 84.5957 48.6281 84.5957 50.1078Z" fill="#222222"/>
<path fill-rule="evenodd" clip-rule="evenodd" d="M30.5166 63.2379C30.4373 63.1868 30.4486 63.1982 30.3749 63.1245L28.4587 60.8454C28.3056 60.6753 28.1922 60.5279 28.0562 60.3635L26.4234 58.4473C25.6014 57.4268 24.3598 56.361 24.785 54.955C25.0344 54.1216 25.6694 53.5434 26.225 52.8517C26.5028 52.5116 26.7636 52.2338 27.0414 51.8936C27.3135 51.5534 27.5686 51.27 27.8521 50.9355C28.3963 50.2892 28.9292 49.6486 29.4735 49.0079C29.7456 48.6791 30.0291 48.3786 30.2842 48.0442C30.4713 47.806 30.9362 47.3242 31.0552 47.0974L29.0369 48.7698C28.3453 49.3311 27.7047 49.9094 27.013 50.4593L24.9947 52.1487C24.3144 52.744 23.5151 53.4527 22.5513 53.4357C21.4798 53.413 20.6974 52.5512 20.1475 52.1147L18.1236 50.4253C17.687 50.0738 14.3081 47.1541 14.0757 47.1087C14.1664 47.1541 14.4158 47.4829 14.5122 47.5906C14.6483 47.7437 14.79 47.9308 14.9374 48.0952C15.2265 48.4127 15.493 48.7698 15.7821 49.1043L18.3277 52.1147C18.6111 52.4605 18.9116 52.7723 19.178 53.1238C19.6203 53.7021 20.4706 54.3994 20.482 55.5106C20.4933 56.5708 19.6259 57.3815 19.1951 57.9144C18.9173 58.2602 18.6225 58.5664 18.3447 58.9179L16.6495 60.9248C15.9636 61.7412 14.9941 62.9431 14.3081 63.7084C14.2288 63.7991 14.1664 63.8955 14.1097 63.9465C14.2401 63.9068 19.6259 59.3601 20.1475 58.9462C21.27 58.0448 22.2054 56.996 23.9629 58.0901C24.3598 58.3339 29.8193 62.9374 30.5563 63.5497C30.7207 63.6914 30.8851 63.8501 31.0552 63.9579C30.8795 63.6517 30.5563 63.4193 30.5166 63.2379Z" fill="#FEFEFE"/>
</g>
<rect x="1" y="1" width="110" height="110" rx="9" stroke="black" stroke-opacity="0.1" stroke-width="2"/>
<defs>
<clipPath id="clip0_6700_50043">
<rect x="2" y="2" width="108" height="108" rx="8" fill="white"/>
</clipPath>
</defs>
</svg>
