<svg width="112" height="112" viewBox="0 0 112 112" fill="none" xmlns="http://www.w3.org/2000/svg">
<g clip-path="url(#clip0_6700_50343)">
<rect x="2" y="2" width="108" height="108" rx="8" fill="white"/>
<path d="M29.7009 43.0542C28.5932 42.8267 27.441 43.36 26.8579 44.3693C26.7202 44.6084 26.6209 44.8655 26.5582 45.13C26.301 44.1006 25.492 43.2658 24.4644 43.0542C23.3567 42.8267 22.2035 43.36 21.6203 44.3693C21.4826 44.6084 21.3834 44.8655 21.3206 45.13C21.0625 44.1016 20.2545 43.2658 19.2268 43.0542C18.1192 42.8267 16.966 43.36 16.3828 44.3693C15.7976 45.3829 15.8907 46.7118 16.6116 47.6248C17.3315 48.5368 18.5515 48.8913 19.6176 48.4903C20.4671 48.1708 21.1009 47.4153 21.3216 46.5224C21.4168 46.9202 21.592 47.2989 21.8491 47.6248C22.569 48.5368 23.789 48.8913 24.8552 48.4903C25.7047 48.1708 26.3385 47.4153 26.5592 46.5224C26.6544 46.9202 26.8295 47.2989 27.0867 47.6248C27.8065 48.5368 29.0266 48.8913 30.0927 48.4903C31.1548 48.0903 31.8828 47.008 31.8828 45.8283C31.8817 44.4963 30.9533 43.3124 29.7009 43.0542Z" fill="#FDAF27"/>
<path d="M21.0594 56.7879C21.3348 58.0184 22.0364 59.1663 23.2645 59.5176C24.4309 59.8509 25.7309 59.3102 26.3313 58.2067C26.6917 57.5444 26.6462 56.7953 26.6432 56.0621C26.6411 55.568 26.6381 55.075 26.6391 54.5809C26.6391 54.0371 26.6391 53.4932 26.6421 52.9505C26.6452 52.2543 26.626 51.5783 26.958 50.9466C27.4167 50.0727 28.3289 49.5352 29.2817 49.5744C30.2435 49.6146 31.1203 50.2452 31.503 51.1688C31.7572 51.7824 31.7136 52.4479 31.7157 53.1007C31.7177 53.6393 31.7177 54.1789 31.7177 54.7174C31.7177 55.8812 31.7875 57.0947 31.5709 58.2405C31.0697 60.893 29.311 63.2016 26.9277 64.2648C24.5443 65.3282 21.7215 65.0435 19.5731 63.5306C18.514 62.7847 17.6413 61.7532 17.0662 60.5608C16.4982 59.3811 16.1539 57.9073 16.3716 56.5869C16.5346 55.6029 17.2788 54.7988 18.2153 54.5978C19.1883 54.3894 20.2069 54.8592 20.7141 55.751C20.8984 56.0737 20.9784 56.425 21.0594 56.7879Z" fill="#FDAF27"/>
<path d="M95.9997 56.6061C95.9997 60.2097 93.1738 63.0866 89.6059 63.0866C86.0623 63.0866 83.2842 60.2341 83.2842 56.6061C83.2842 52.9782 86.0623 50.1502 89.6293 50.1502C93.175 50.1502 95.9997 53.0026 95.9997 56.6061ZM86.5655 56.6305C86.5655 58.5825 87.8584 59.9833 89.6302 59.9833C91.3788 59.9833 92.6949 58.5571 92.6949 56.6305C92.6949 54.6785 91.3779 53.2279 89.6302 53.2279C87.8584 53.2279 86.5655 54.6541 86.5655 56.6305Z" fill="#222222"/>
<path d="M44.8545 59.0412C45.4559 59.402 46.0341 59.7712 46.7551 59.7268C47.4455 59.6845 48.0763 59.3068 48.4692 58.7132C48.8347 58.162 48.8264 57.5325 48.8264 56.8945C48.8264 55.8174 48.8264 48.442 48.8264 47.9056C48.8264 47.5343 48.8073 47.1671 48.9439 46.8127C49.3499 45.7621 50.6651 45.4235 51.4914 46.1589C51.9337 46.5524 52.0594 47.0931 52.0594 47.6697C52.0594 48.8303 52.0916 56.8649 52.0512 57.6616C51.9783 59.0994 51.3527 60.4917 50.3695 61.4958C49.351 62.5369 47.9547 63.1092 46.5344 63.1083C45.1704 63.1072 43.7297 62.5601 42.8367 61.4471C42.4783 60.9996 42.2698 60.4706 42.4105 59.8844C42.5462 59.3195 42.9825 58.8677 43.5262 58.7344C44.0203 58.6159 44.4354 58.7894 44.8545 59.0412Z" fill="#222222"/>
<path d="M67.255 60.0796L67.2571 60.0786C66.761 59.7644 66.4543 59.2057 66.4451 58.5995V51.8399C66.4451 50.9067 65.7212 50.1513 64.8282 50.1513C64.0101 50.1513 63.3369 50.7861 63.2284 51.6103C62.4125 50.6909 61.1773 50.1513 59.6949 50.1513C56.367 50.1513 53.9482 52.8788 53.9482 56.6316C53.9482 60.3854 56.367 63.1119 59.6949 63.1119C59.7101 63.1119 59.7253 63.1109 59.7405 63.1109C59.7558 63.1109 59.771 63.1119 59.7862 63.1119C61.3828 63.1119 62.7679 62.4835 63.7783 61.4159C64.2947 62.2549 65.1278 62.8696 66.1242 63.0579C66.2214 63.0759 66.3187 63.0854 66.4138 63.0854C66.4198 63.0854 66.4258 63.0845 66.4309 63.0834C66.438 63.0834 66.4462 63.0845 66.4532 63.0845C67.3098 63.0845 68.0033 62.3596 68.0033 61.4646C68.0043 60.8763 67.7036 60.3632 67.255 60.0796ZM60.2943 60.0342C58.4983 60.0342 57.2296 58.608 57.2296 56.6316C57.2296 54.6542 58.5225 53.2036 60.2943 53.2036C62.0663 53.2036 63.2873 54.6044 63.2873 56.6316C63.2873 58.6577 62.0895 60.0342 60.2943 60.0342Z" fill="#222222"/>
<path d="M81.5213 51.8515C81.5213 50.876 80.851 50.1502 79.9408 50.1502C79.1026 50.1502 78.4322 50.8008 78.3603 51.7012C77.5464 50.7257 76.2767 50.1502 74.7447 50.1502C71.4168 50.1502 68.998 52.8777 68.998 56.6305C68.998 60.3833 71.4168 63.1107 74.7447 63.1107C76.2393 63.1107 77.4745 62.5702 78.2885 61.6116V62.0136C78.2773 64.0334 77.0775 65.3876 75.2956 65.3876C74.5323 65.3876 73.8458 65.1338 73.3111 64.6545C73.1118 64.4756 72.9355 64.2661 72.7867 64.0323C72.2927 63.2557 71.2892 63.0451 70.5461 63.5615C69.8029 64.0778 69.6015 65.1263 70.0956 65.9029C70.4084 66.3939 70.782 66.8361 71.2062 67.2169C72.3352 68.2305 73.7495 68.7658 75.2967 68.7658C78.8635 68.7658 81.4616 65.977 81.5193 62.1162L81.5223 61.3852C81.5223 61.3852 81.5223 61.3852 81.5223 61.3841V51.8515H81.5213ZM75.3443 60.0341C73.5481 60.0341 72.2795 58.6079 72.2795 56.6315C72.2795 54.6552 73.5725 53.2036 75.3443 53.2036C77.1161 53.2036 78.3371 54.6044 78.3371 56.6315C78.3371 58.6576 77.1393 60.0341 75.3443 60.0341Z" fill="#222222"/>
</g>
<rect x="1" y="1" width="110" height="110" rx="9" stroke="black" stroke-opacity="0.1" stroke-width="2"/>
<defs>
<clipPath id="clip0_6700_50343">
<rect x="2" y="2" width="108" height="108" rx="8" fill="white"/>
</clipPath>
</defs>
</svg>
