<svg width="112" height="112" viewBox="0 0 112 112" fill="none" xmlns="http://www.w3.org/2000/svg">
<g clip-path="url(#clip0_6700_50317)">
<rect x="2" y="2" width="108" height="108" rx="8" fill="white"/>
<path d="M32.1573 56.0053L32.0138 55.914C31.5307 55.4319 30.8561 55.2218 29.9535 55.2761C29.2053 55.319 28.6075 55.6178 28.1546 55.8931V55.8753C28.1546 55.6371 28.1808 55.3847 28.2045 55.1368C28.2326 54.8854 28.2598 54.6293 28.2598 54.3865C28.2598 54.1388 28.23 53.9055 28.1467 53.704C28.124 53.6522 28.0775 53.6216 28.0179 53.6216C27.7753 53.6271 27.2994 53.7927 27.1863 53.895L27.1225 54.0318C27.1188 54.2964 27.0593 55.0481 26.9997 55.14C27.0034 55.1368 26.9681 55.2322 26.9681 55.2322C26.8664 56.3022 26.8657 57.2442 26.9595 58.053C26.9699 58.1336 27.125 58.2555 27.245 58.301C27.3755 58.3474 27.7901 58.2369 28.0267 58.1468C28.0248 58.1468 28.1151 58.1336 28.1151 58.1336C28.1922 58.1239 28.2379 58.0607 28.2326 57.9757L28.2379 57.7436C28.4104 57.046 29.1071 56.2137 29.928 56.0874C30.3916 56.0139 30.7595 56.1313 31.0481 56.4484C31.0873 56.5055 31.1725 57.0084 30.8666 57.5841C30.6395 58.0127 30.1831 58.3727 29.5821 58.5981C29.0133 58.8145 28.3902 58.9004 27.6193 58.8739C27.5875 58.8514 26.8954 58.385 26.8954 58.385C26.2856 57.9548 25.5239 57.4211 24.8346 57.1602C24.7144 57.1128 24.4964 56.9322 24.3664 56.8252L24.2947 56.7667C23.8977 56.4475 23.1423 55.9447 22.5343 55.5398C22.5343 55.5398 22.2617 55.3548 22.2074 55.319C22.2074 55.297 22.209 55.2515 22.209 55.2515C22.226 55.2341 22.6053 55.0042 22.6053 55.0042C23.1423 54.6906 23.3886 54.5374 23.4376 54.4575C23.429 54.4701 23.5123 54.4164 23.5123 54.4164C23.5165 54.4146 24.837 53.6673 24.837 53.6673C26.1075 52.969 27.5492 52.1741 28.3055 51.389L28.3429 51.2731L28.3587 51.1645C28.4088 50.9974 28.4104 50.8683 28.3703 50.7192C28.3587 50.6775 28.3194 50.6285 28.2686 50.6178C27.6771 50.5602 26.9154 50.914 26.2224 51.564C26.0622 51.7131 25.9332 51.7832 25.7939 51.8612L25.6887 51.9183C24.9219 52.3538 23.1985 53.4238 22.2987 54.0002C22.3565 53.0294 22.5378 51.6492 22.756 50.4987L22.7332 50.362C22.7288 50.3569 22.6385 50.1883 22.6385 50.1883L22.5684 50.0632L22.5501 50.0572C22.3678 49.9675 22.2213 50.0035 22.1136 50.03L21.9333 50.0975L21.6948 50.1851C21.6456 50.1955 21.6134 50.2236 21.5941 50.2707C21.1639 51.3117 20.8036 53.024 20.7196 54.3937C19.859 53.8458 19.0625 53.4516 18.6727 53.2608L18.663 53.2552L18.614 53.2466C18.4754 53.2283 18.3036 53.1241 18.1372 53.024C18.1214 53.0152 17.8112 52.8121 17.8112 52.8121L17.3119 52.4922C17.316 52.494 17.1786 52.4622 17.1786 52.4622C16.9639 52.5001 16.5518 52.7761 16.4311 52.9653C16.4137 52.991 16.4083 53.017 16.4083 53.0461C16.4083 53.0855 16.4179 53.1259 16.4311 53.1642L16.4522 53.2659L16.4759 53.3284C16.7143 53.5719 17.3205 53.9828 17.9129 54.3015L18.6008 54.6662L19.6522 55.241C19.6531 55.248 19.8353 55.3847 19.8353 55.3847L19.9572 55.4548C19.9572 55.4548 19.9695 55.4637 19.98 55.4706C19.6995 55.6563 18.0652 56.7472 18.0652 56.7472L17.0586 57.4158C16.963 57.4799 16.566 57.6596 16.4782 57.6937C16.2593 57.7831 16.0938 57.917 16.0262 58.066L16 58.122L16.0262 58.1624L16.1042 58.2202L16.2068 58.2905L16.3164 58.3658C16.3206 58.3676 16.4225 58.3815 16.4225 58.3815C16.5992 58.3878 16.8596 58.2852 17.353 58.0712C17.7996 57.8724 19.023 57.1354 19.5472 56.822L19.7696 56.6869C19.8609 56.6957 19.9642 56.617 20.0526 56.5504C20.1587 56.4652 20.3874 56.3259 20.5257 56.2646C20.5311 56.2618 20.61 56.2191 20.6827 56.1768V56.2381C20.7038 57.8367 20.7983 58.9977 20.9726 59.894L20.9754 59.9095L20.9928 59.9441C21.0778 60.072 21.1769 60.4495 21.2647 60.7852L21.4627 61.451C21.4678 61.4589 21.5186 61.5167 21.5186 61.5167C21.6326 61.5896 21.9769 61.7247 22.2109 61.6973L22.2678 61.691L22.3047 61.6107C22.3233 61.5088 22.3309 61.4125 22.3309 61.3029C22.3309 61.1813 22.3233 61.0471 22.3117 60.8825L22.2959 60.6424C22.2213 59.5242 22.1487 57.9128 22.1487 56.8426V56.7551C22.3388 56.8751 23.1669 57.3984 23.1669 57.3984C24.5804 58.3149 26.7139 59.6978 28.0011 60.0639C28.0668 60.0823 28.1388 60.0674 28.1878 60.0203C28.1887 60.0184 28.387 59.8958 28.387 59.8958L28.4237 59.8784C28.4973 59.8422 28.5462 59.7187 28.5551 59.5838C29.6417 59.5295 31.1565 59.1105 31.9672 58.0923C32.282 57.6962 32.422 57.2117 32.422 56.7974C32.422 56.4591 32.3291 56.1654 32.1573 56.0053Z" fill="#FCAF16"/>
<path d="M66.8853 59.4979V58.9266C66.5689 59.3602 65.9417 59.6214 65.287 59.6214C63.8071 59.6214 63.021 58.7144 63.021 56.9515V53.5324H64.2679V56.9069C64.2679 58.1099 64.7517 58.541 65.5753 58.541C66.4113 58.541 66.8853 57.9854 66.8853 57.0197V53.5324H68.1304V59.4979H66.8853Z" fill="#776C61"/>
<path d="M84.6454 54.497C84.0539 54.497 83.5351 54.8731 83.2075 55.2612V57.7698C83.4845 58.1203 84.0681 58.5535 84.6954 58.5535C85.5919 58.5535 86.0764 57.917 86.0764 56.6555C86.0764 55.156 85.5682 54.497 84.6454 54.497ZM84.8163 59.6328C84.1758 59.6328 83.5704 59.3138 83.2189 58.9505V61.012L81.9834 61.614V53.5445H83.2189V54.1135C83.6806 53.7146 84.2127 53.4191 84.876 53.4191C86.2447 53.4191 87.3226 54.3507 87.3226 56.6237C87.3226 58.6671 86.1396 59.6328 84.8163 59.6328Z" fill="#776C61"/>
<path d="M46.0374 58.6899H48.5374C50.0909 58.6899 50.5046 58.0854 50.5046 57.3142C50.5046 56.4014 49.8711 55.893 48.4724 55.893H46.0374V58.6899ZM46.0374 54.9886H48.6179C49.5776 54.9886 50.2838 54.6259 50.2838 53.7795C50.2838 53.0399 49.9358 52.5466 48.4724 52.5466H46.0374V54.9886ZM44.771 51.6424H48.6811C50.5406 51.6424 51.5121 52.2555 51.5121 53.6084C51.5121 54.5681 50.8419 55.2321 49.95 55.4083V55.4426C51.2303 55.5949 51.8339 56.4325 51.8339 57.3792C51.8339 58.569 50.9647 59.5944 48.8064 59.5944H44.771V51.6424Z" fill="#776C61"/>
<path d="M36.168 51.6423H37.4394V55.1997L41.7128 51.6423H43.512L38.9948 55.2341L43.8869 59.5945H42.0898L37.4394 55.3314V59.5945H36.168V51.6423Z" fill="#776C61"/>
<path d="M58.8011 58.5786H56.7937V56.0473H58.7452C60.1522 56.0473 60.6773 56.4029 60.6773 57.3058C60.6773 58.1099 60.0944 58.5786 58.8011 58.5786ZM56.7937 52.6526H58.7452C59.4769 52.6526 59.9087 52.7445 60.1522 52.9523C60.3932 53.1222 60.451 53.4201 60.451 53.7776C60.451 54.6224 59.8518 54.9963 58.8965 54.9963H56.7937V52.6526ZM61.6719 56.1961C61.4432 55.8395 61.0708 55.5609 60.6028 55.4084C61.2575 55.1096 61.6719 54.4524 61.6719 53.6086C61.6719 52.2582 60.8271 51.6385 58.9511 51.6385H55.4048V59.5945H59.0825C60.1522 59.5945 60.8833 59.3296 61.351 58.9364C61.8007 58.5394 62.0092 57.9785 62.0092 57.3791C62.0092 56.9487 61.8961 56.5536 61.6719 56.1961Z" fill="#776C61"/>
<path d="M94.7513 59.5945V56.2209C94.7513 55.0149 94.2659 54.5847 93.4429 54.5847C92.6081 54.5847 92.1375 55.141 92.1375 56.1069V59.5945H90.8916V53.6288H92.1375V54.1982C92.454 53.769 93.0812 53.506 93.7357 53.506C95.2133 53.506 95.9998 54.4164 95.9998 56.1752V59.5945H94.7513Z" fill="#776C61"/>
<path d="M88.3379 53.6095H89.5873V59.5945H88.3379V53.6095Z" fill="#776C61"/>
<path d="M88.3379 51.645H89.5857V52.8206H88.3379V51.645Z" fill="#776C61"/>
<path d="M78.0892 54.5339C77.1437 54.5339 76.5638 55.3165 76.5638 56.4977C76.5638 57.8042 77.204 58.5181 78.1479 58.5181C79.0951 58.5181 79.7122 57.6217 79.7122 56.5309C79.7122 55.3165 79.0951 54.5339 78.0892 54.5339ZM78.1034 59.6328C76.5022 59.6328 75.3027 58.3957 75.3027 56.5309C75.3027 54.5776 76.5373 53.4192 78.1349 53.4192C79.7612 53.4192 80.972 54.6347 80.972 56.4977C80.972 58.4735 79.7365 59.6328 78.1034 59.6328Z" fill="#776C61"/>
<path d="M72.2289 56.2961L75.245 53.5403H73.5951L70.7033 56.1735V51.6422H69.4346V59.5945H70.7033V56.3713L73.7553 59.5945H75.4721L72.2289 56.2961Z" fill="#776C61"/>
</g>
<rect x="1" y="1" width="110" height="110" rx="9" stroke="black" stroke-opacity="0.1" stroke-width="2"/>
<defs>
<clipPath id="clip0_6700_50317">
<rect x="2" y="2" width="108" height="108" rx="8" fill="white"/>
</clipPath>
</defs>
</svg>
