<svg width="112" height="112" viewBox="0 0 112 112" fill="none" xmlns="http://www.w3.org/2000/svg">
<g clip-path="url(#clip0_6700_50765)">
<rect x="2" y="2" width="108" height="108" rx="8" fill="white"/>
<g clip-path="url(#clip1_6700_50765)">
<path fill-rule="evenodd" clip-rule="evenodd" d="M51.04 56.992C49.44 59.68 48.128 62.016 46.528 64.704C44.96 67.392 43.52 69.76 41.952 72.448C41.536 73.152 41.12 73.408 40.288 73.408C37.12 73.408 34.432 73.408 31.264 73.408C28.128 73.408 25.344 73.376 22.176 73.376C21.376 73.376 20.928 73.12 20.512 72.416C18.944 69.696 17.6 67.424 16 64.704C14.432 62.016 13.088 59.616 11.52 56.928C11.104 56.192 11.104 55.712 11.52 55.008C13.088 52.32 14.432 49.984 16 47.296C17.568 44.608 19.008 42.24 20.576 39.552C20.992 38.848 21.44 38.592 22.272 38.592C25.408 38.592 28.096 38.592 31.264 38.592C34.432 38.592 37.184 38.624 40.352 38.624C41.184 38.624 41.6 38.88 42.016 39.584C43.616 42.304 44.96 44.576 46.528 47.296C48.128 49.984 49.472 52.384 51.04 55.072C51.456 55.808 51.456 56.288 51.04 56.992Z" fill="white"/>
<path fill-rule="evenodd" clip-rule="evenodd" d="M29.632 50.656H28.928V55.776H29.856C31.136 55.776 32.096 55.552 32.8 55.104C33.472 54.656 33.792 54.016 33.792 53.184C33.792 52.32 33.472 51.68 32.8 51.264C32.128 50.88 31.072 50.656 29.632 50.656ZM51.04 56.992C50.464 57.984 49.92 58.912 49.376 59.808C49.312 58.784 48.96 57.888 48.288 57.12C47.552 56.288 46.112 55.36 44 54.368L41.44 53.184C40.608 52.8 40.576 52.192 40.608 51.744C40.672 51.168 41.6 50.592 42.368 50.624C44.32 50.72 44.96 51.264 46.592 52.128L47.968 49.76C48.992 51.52 49.952 53.216 51.04 55.072C51.456 55.808 51.456 56.288 51.04 56.992ZM46.4 64.928C44.896 67.52 43.488 69.824 41.952 72.448C41.536 73.152 41.12 73.408 40.288 73.408C37.12 73.408 34.432 73.408 31.264 73.408C28.128 73.408 25.344 73.376 22.176 73.376C21.376 73.376 20.928 73.12 20.512 72.416C19.168 70.112 17.984 68.096 16.704 65.888H23.04L24.128 63.904V65.888H28.8V59.808C28.928 59.808 29.056 59.84 29.184 59.84C29.312 59.84 29.92 59.84 30.208 59.84C31.36 59.84 32.832 59.84 33.76 59.616C35.744 59.168 37.216 57.856 38.016 56.096C40 58.304 43.2 58.976 43.968 59.424C44.736 59.904 44.672 60.576 44.48 60.864C44.256 61.216 43.52 61.376 43.232 61.376C41.504 61.536 39.136 60.416 38.176 59.456C37.184 60.928 36.064 62.528 35.68 63.328C36.672 64.256 38.112 65.28 41.504 65.664C43.456 65.888 45.088 65.632 46.4 64.928ZM13.152 59.776C12.608 58.848 12.064 57.888 11.52 56.928C11.104 56.192 11.104 55.712 11.52 55.008C13.088 52.32 14.432 49.984 16 47.296C17.568 44.608 19.008 42.24 20.576 39.552C20.992 38.848 21.44 38.592 22.272 38.592C25.408 38.592 28.096 38.592 31.264 38.592C34.432 38.592 37.184 38.624 40.352 38.624C41.184 38.624 41.6 38.88 42.016 39.584C43.616 42.304 44.96 44.576 46.528 47.296L46.592 47.36C45.824 47.136 45.088 46.912 44.672 46.848C43.776 46.688 42.944 46.624 42.176 46.624C41.504 46.624 40.864 46.656 40.256 46.752L38.272 50.368C37.888 49.536 37.216 48.704 36.128 47.904C33.856 46.336 31.936 46.56 28.64 46.72L24.128 54.912V61.6H17.92V46.112L13.152 54.784V59.776Z" fill="#DC7902"/>
<path d="M89.4082 65.024L91.7122 60H92.7042L95.0082 64.992H93.8882L93.4722 63.968H90.9762L90.4962 65.024H89.4082ZM93.1202 63.072L92.2562 61.12L91.4242 63.072H93.1202Z" fill="#333333"/>
<path d="M77.5679 65.024L79.8399 60H80.8319L83.1359 64.992H82.0159L81.6319 63.968H79.1039L78.6559 65.024H77.5679ZM81.2799 63.072L80.4159 61.12L79.5839 63.072H81.2799Z" fill="#333333"/>
<path d="M76.8961 61.632C76.8961 61.856 76.8641 62.08 76.8001 62.304C76.7361 62.496 76.6401 62.688 76.5121 62.816C76.4481 62.912 76.3521 62.976 76.2881 63.072C76.1921 63.136 76.0961 63.2 76.0001 63.264C75.8721 63.296 75.7761 63.36 75.6481 63.36C75.5201 63.392 75.3921 63.424 75.2321 63.424H73.8561V64.992H72.7681V60L75.2321 60.064C75.4881 60.064 75.7121 60.096 75.9041 60.128C76.0641 60.192 76.2241 60.288 76.3841 60.384C76.5441 60.512 76.6721 60.672 76.7681 60.896C76.8321 61.088 76.8961 61.344 76.8961 61.632ZM75.9361 61.504C75.9361 61.376 75.9041 61.248 75.8721 61.152C75.8081 61.056 75.7441 60.992 75.6481 60.96C75.5521 60.896 75.4561 60.864 75.3601 60.864C75.2641 60.832 74.1441 60.832 73.9841 60.832H73.8561V62.56H73.9201C74.0161 62.56 74.1121 62.56 74.2081 62.56C74.3041 62.56 75.3601 62.56 75.4241 62.56C75.4881 62.528 75.5521 62.528 75.6161 62.496C75.6801 62.432 75.7121 62.4 75.7761 62.368C75.8401 62.304 75.8721 62.208 75.9041 62.112C75.9361 62.016 75.9361 61.664 75.9361 61.504Z" fill="#333333"/>
<path d="M79.52 58.24L81.824 53.216H82.816L85.12 58.208H84L83.584 57.216H81.088L80.608 58.24H79.52ZM83.232 56.32L82.368 54.368L81.536 56.32H83.232Z" fill="#333333"/>
<path d="M61.984 54.752C61.984 54.976 61.952 55.2 61.888 55.392C61.824 55.616 61.728 55.776 61.6 55.936C61.536 56.032 61.472 56.096 61.376 56.16C61.28 56.256 61.184 56.32 61.088 56.352C60.992 56.416 60.864 56.448 60.736 56.48C60.608 56.512 60.48 56.512 60.32 56.512L58.944 56.48V58.112H57.856V53.12L60.352 53.152C60.576 53.184 60.8 53.184 60.992 53.248C61.152 53.28 61.344 53.376 61.472 53.504C61.632 53.632 61.76 53.792 61.856 53.984C61.952 54.208 61.984 54.464 61.984 54.752ZM61.056 54.656C61.056 54.496 61.024 54.368 60.96 54.272C60.896 54.176 60.832 54.112 60.736 54.08C60.64 54.016 60.544 53.984 60.448 53.984C60.352 53.984 59.264 53.984 59.104 53.984H58.944V55.712H59.008C59.104 55.712 59.2 55.68 59.296 55.68C59.392 55.68 60.448 55.68 60.512 55.68C60.576 55.648 60.64 55.648 60.704 55.616C60.768 55.584 60.832 55.52 60.864 55.488C60.928 55.424 60.992 55.328 60.992 55.232C61.024 55.136 61.056 54.784 61.056 54.656Z" fill="#333333"/>
<path d="M91.6162 51.424L93.9202 46.4H94.9122L97.2162 51.392H96.0962L95.7122 50.368H93.1842L92.7042 51.424H91.6162ZM95.3282 49.472L94.4642 47.552L93.6322 49.472H95.3282Z" fill="#333333"/>
<path d="M79.7759 51.424L82.0799 46.4H83.0399L85.3439 51.392H84.2559L83.8399 50.368H81.3119L80.8639 51.424H79.7759ZM83.4879 49.472L82.6239 47.552L81.7919 49.472H83.4879Z" fill="#333333"/>
<path d="M79.04 49.856C79.04 50.112 79.008 50.336 78.912 50.528C78.848 50.688 78.752 50.848 78.592 50.976C78.432 51.136 78.272 51.232 78.08 51.296C77.888 51.36 77.216 51.392 76.928 51.392H74.752V46.4H76.704C77.024 46.4 77.696 46.4 77.856 46.432C78.016 46.464 78.176 46.528 78.304 46.624C78.464 46.72 78.56 46.848 78.656 47.008C78.72 47.168 78.752 47.36 78.752 47.552C78.752 47.808 78.72 48.032 78.592 48.224C78.496 48.384 78.368 48.544 78.176 48.64C78.432 48.704 78.656 48.864 78.816 49.056C78.976 49.248 79.04 49.536 79.04 49.856ZM77.76 47.808C77.76 47.712 77.728 47.648 77.696 47.552C77.664 47.488 77.6 47.424 77.536 47.36C77.472 47.328 77.376 47.328 77.28 47.328C77.184 47.296 76.064 47.296 75.872 47.296H75.776V48.384H75.904C76.096 48.384 77.216 48.352 77.28 48.352C77.376 48.352 77.44 48.32 77.504 48.288C77.6 48.256 77.664 48.192 77.696 48.096C77.728 48 77.76 47.904 77.76 47.808ZM78.016 49.856C78.016 49.696 77.984 49.568 77.952 49.472C77.888 49.376 77.792 49.312 77.696 49.28C77.632 49.248 77.536 49.248 77.44 49.216C77.312 49.216 76.16 49.216 75.968 49.216H75.776V50.464H75.84C76.128 50.464 77.312 50.464 77.408 50.464C77.504 50.464 77.632 50.432 77.728 50.368C77.824 50.336 77.92 50.272 77.952 50.176C77.984 50.08 78.016 49.952 78.016 49.856Z" fill="#333333"/>
<path d="M59.6162 65.248C58.7842 65.248 58.0802 64.864 57.4722 64.256L58.3682 63.616C59.1042 64.48 60.8322 64.448 60.8322 63.744C60.8322 63.008 59.5522 63.072 58.8802 62.816C58.4642 62.688 58.1122 62.592 57.9202 62.336C57.7602 62.08 57.6642 61.792 57.6642 61.408C57.6642 60.928 57.8882 60.512 58.3042 60.224C58.7522 59.904 59.2322 59.808 59.8722 59.808C60.6722 59.808 61.5042 60.224 61.9202 60.704L61.1842 61.312C61.1202 61.312 60.7682 60.768 60.0002 60.736C59.5842 60.672 58.8162 60.8 58.8162 61.248C58.8162 62.112 60.8962 61.76 61.6962 62.72C61.8562 62.944 61.9842 63.136 61.9842 63.488C61.9842 64 61.7922 64.448 61.3442 64.768C60.9282 65.088 60.3522 65.216 59.6162 65.248Z" fill="#333333"/>
<path d="M93.856 58.24H92.896V53.248H93.824L93.856 58.24Z" fill="#333333"/>
<path d="M78.432 56.64C78.432 56.864 78.4 57.056 78.336 57.248C78.272 57.44 78.176 57.6 78.048 57.76C77.888 57.888 77.76 58.048 77.536 58.112C77.28 58.272 76.672 58.336 76.416 58.368C75.52 58.4 74.528 58.048 74.144 57.088V56.096C74.304 56.096 74.912 56.064 74.944 56.064C74.944 56.96 75.232 57.44 76.448 57.408C76.864 57.376 77.504 57.152 77.536 56.512C77.536 56.352 77.536 56.192 77.536 56.032V54.048L76.192 54.016V53.12H78.432V56.64Z" fill="#333333"/>
<path d="M72.7999 58.112H72.0319L69.5679 54.624V58.112H68.5439V53.12H69.5679L71.8719 56.224V53.12H72.7999V58.112Z" fill="#333333"/>
<path d="M90.752 50.88C90.112 51.328 89.376 51.488 88.64 51.488C87.2 51.488 86.272 50.272 86.272 48.928C86.272 47.552 87.2 46.304 88.672 46.304C89.76 46.304 90.208 46.528 90.784 47.168L90.304 47.936C90.112 47.712 89.888 47.584 89.696 47.456C88.512 46.656 86.976 47.648 87.104 48.96C87.232 50.112 87.872 50.592 88.928 50.592C89.28 50.592 89.6 50.528 89.888 50.272V49.568H88.736V48.64L90.848 48.608L90.752 50.88Z" fill="#333333"/>
<path d="M73.216 51.392H72.224V48L70.688 49.888H70.368L68.832 47.776V51.392H68V46.4H68.992L70.496 48.512L72.288 46.4H73.216V51.392Z" fill="#333333"/>
<path d="M62.7842 51.392V46.4H66.4322V47.36H63.7122V48.224H66.3042V49.184H63.7122V50.432H66.4322V51.392H62.7842Z" fill="#333333"/>
<path d="M61.504 51.424L57.856 51.392V46.4H58.816V50.56L61.504 50.592V51.424Z" fill="#333333"/>
<path d="M63.3921 58.24V53.248H67.0401V54.208H64.3201V55.072H66.9121V56.032H64.3201V57.28H67.0401V58.24H63.3921Z" fill="#333333"/>
<path d="M91.5842 58.24H90.5922V54.848L89.0562 56.736H88.7362L87.2002 54.592V58.208L86.3682 58.24V53.248H87.3602L88.8322 55.36L90.6562 53.248H91.5842V58.24Z" fill="#333333"/>
<path d="M99.7118 58.24H98.9438L96.4478 54.752V58.24H95.4238V53.248H96.4478L98.7518 56.352V53.248H99.7118V58.24Z" fill="#333333"/>
<path d="M64.1919 64.928H63.2319V59.936H64.1599L64.1919 64.928Z" fill="#333333"/>
<path d="M71.1362 64.992H70.1442L70.1122 61.6L68.6082 63.52H68.2562L66.7202 61.376V64.992H65.8882V60H66.8802L68.3842 62.144L70.1762 60H71.1362V64.992Z" fill="#333333"/>
<path d="M88.4479 65.088H87.6799L85.2159 61.6V65.088H84.1919V60.096H85.2159L87.5199 63.2V60.096H88.4479V65.088Z" fill="#333333"/>
<path d="M100.448 64.992H99.6802L97.1842 61.504V64.992H96.1602V60H97.1842L99.5202 63.104V60H100.448V64.992Z" fill="#333333"/>
<path fill-rule="evenodd" clip-rule="evenodd" d="M57.792 43.264H100.8V43.808H57.792V43.264Z" fill="#333333"/>
<path fill-rule="evenodd" clip-rule="evenodd" d="M57.792 68.192H100.8V68.736H57.792V68.192Z" fill="#333333"/>
</g>
</g>
<rect x="1" y="1" width="110" height="110" rx="9" stroke="black" stroke-opacity="0.1" stroke-width="2"/>
<defs>
<clipPath id="clip0_6700_50765">
<rect x="2" y="2" width="108" height="108" rx="8" fill="white"/>
</clipPath>
<clipPath id="clip1_6700_50765">
<rect width="96" height="96" fill="white" transform="translate(8 8)"/>
</clipPath>
</defs>
</svg>
