<svg width="112" height="112" viewBox="0 0 112 112" fill="none" xmlns="http://www.w3.org/2000/svg">
<g clip-path="url(#clip0_6700_50703)">
<rect x="2" y="2" width="108" height="108" rx="8" fill="white"/>
<path fill-rule="evenodd" clip-rule="evenodd" d="M29.2871 61.1355L30.432 59.9906L31.5947 61.1533L30.4498 62.2982L29.2871 61.1355ZM32.3834 61.1355L33.5284 59.9906L34.6924 61.1533L33.5474 62.2982L32.3834 61.1355ZM21.6124 52.8667L22.7751 51.7027L23.9569 52.8845L22.7942 54.0498L21.6124 52.8692V52.8667ZM28.3025 47.1116C26.3332 48.5313 25.4198 49.4701 25.0916 51.2371C24.5408 54.1986 25.7786 56.4528 25.9122 56.8815H23.574C24.425 57.4031 25.2596 58.6854 25.8053 58.7134C26.3803 58.7439 26.6958 58.735 26.6958 58.735C27.4463 60.2094 27.3509 62.0553 26.996 62.9686C26.6029 63.9863 25.6526 65.1249 23.4582 64.4379C21.2956 63.7586 18.843 62.0362 18.3939 59.5275C18.2209 58.5582 18.3939 57.2174 18.6751 56.6017C19.0923 55.7023 19.9154 54.7634 20.7588 53.5867C19.105 54.9212 16.8267 57.4031 16.1792 59.8316C15.4324 62.6582 17.0467 64.6656 18.5389 65.9123C20.0311 67.159 22.6364 67.72 23.9162 67.3117C25.2354 66.8982 25.5572 66.3792 26.304 65.5129C27.2212 64.4443 27.917 63.3172 28.1142 62.4878C28.4704 60.9879 28.1625 58.7134 28.1625 58.7134C28.1625 58.7134 31.4955 58.8406 33.05 58.7439C34.1428 58.6752 36.3105 57.6143 36.4771 55.3868C36.6463 53.1351 34.27 51.4661 32.3949 50.6532C33.5118 51.8592 33.7395 53.2343 33.3566 54.2508C32.9279 55.3957 31.8568 56.2862 30.6241 56.6373C29.7147 56.8851 28.765 56.9491 27.8305 56.8256C27.0672 55.6565 26.6411 50.3606 28.3025 47.1116ZM29.3036 46.7427C32.2295 47.2515 36.411 49.5236 37.921 52.7942C39.5646 56.3561 38.024 60.0453 35.5625 62.5539C33.8095 64.3425 31.5299 64.99 30.2565 65.2661C29.3812 65.4518 28.8571 65.2203 28.3737 65.378C27.2288 65.747 26.4541 67.1412 25.3931 68.0126C28.2783 68.1106 32.76 68.4235 36.266 65.9314C40.6383 62.8223 40.2312 56.7912 39.4921 54.2419C38.753 51.6925 36.5827 46.5124 31.4446 44C30.834 45.1704 30.3341 45.9082 29.3036 46.7427Z" fill="#6FBD62"/>
<path fill-rule="evenodd" clip-rule="evenodd" d="M54.1213 53.7152H54.7726V53.1771C54.5322 53.2789 54.1086 53.2954 54.1086 52.9227V49.7424C54.1193 49.3555 54.0704 48.9694 53.9636 48.5975C53.8867 48.3389 53.7483 48.1027 53.5603 47.9092C53.1354 47.4971 52.624 47.4576 52.0808 47.4309C51.4246 47.3975 50.7688 47.5028 50.1561 47.74L50.1472 48.357C50.8252 48.0721 51.9638 47.7973 52.6813 48.1026C52.8799 48.1783 53.0523 48.3101 53.1774 48.482C53.3026 48.6538 53.375 48.8584 53.386 49.0707C53.4051 49.3595 53.4064 49.6457 53.4064 49.9345C51.7335 49.6024 49.5696 49.7729 49.59 51.9393C49.5907 52.297 49.6964 52.6466 49.8941 52.9446C50.0918 53.2427 50.3726 53.4762 50.7018 53.616C51.6521 53.9976 52.9293 53.831 53.5005 52.9138V53.0855C53.5025 53.2518 53.5695 53.4107 53.6872 53.5281C53.8049 53.6456 53.9639 53.7123 54.1302 53.7139L54.1213 53.7152ZM53.3517 51.7332C53.3326 52.3159 53.1685 53.2865 51.7132 53.2865C51.5245 53.2917 51.3368 53.2585 51.1614 53.1888C50.986 53.1191 50.8267 53.0144 50.6931 52.881C50.5596 52.7477 50.4546 52.5886 50.3845 52.4133C50.3145 52.2381 50.2809 52.0504 50.2858 51.8617C50.2858 50.0082 52.2513 50.2576 53.372 50.4624L53.3517 51.7332Z" fill="#420655"/>
<path fill-rule="evenodd" clip-rule="evenodd" d="M56.8144 47.5416H55.5283V48.0708H56.1809V53.7254H56.8246V49.605C56.8144 48.6929 57.9695 47.9054 58.8702 47.9652C59.2187 47.9881 59.7111 48.1827 59.9413 48.488C60.1716 48.7934 60.2275 49.3111 60.2275 49.7067V53.7254H60.9348V49.6482C60.9348 48.2336 60.2581 47.4856 58.804 47.4309C57.9632 47.4029 57.1376 47.7299 56.8144 48.4143V47.5416Z" fill="#420655"/>
<path fill-rule="evenodd" clip-rule="evenodd" d="M67.6482 53.172C66.8671 53.2152 67.0478 53.3615 65.3024 50.1723L67.2106 47.5505H66.4244L64.6791 49.9917H63.6232C63.6232 48.349 63.6232 46.7066 63.6232 45.0648H62.2607V45.8166H62.8968V53.7254H63.6283V50.5222L64.6943 50.5412C66.7297 53.976 66.3137 53.7216 67.6495 53.6707L67.6482 53.172Z" fill="#420655"/>
<path fill-rule="evenodd" clip-rule="evenodd" d="M42.4458 45.6639V46.2211H43.1811V53.7267H45.8525C46.5217 53.7267 47.1463 53.6134 47.6895 53.1326C48.1704 52.7064 48.3485 52.1047 48.3485 51.4305C48.3485 50.4662 47.8142 49.7258 46.8626 49.4676C47.1932 49.3005 47.4688 49.0418 47.6565 48.7224C47.8441 48.403 47.936 48.0364 47.921 47.6663C47.921 46.4234 46.9033 45.6652 45.705 45.6652L42.4458 45.6639ZM43.9456 49.2717V46.2262H45.6312C46.827 46.2809 47.1107 46.9221 47.1107 47.7617C47.1196 48.703 46.6705 49.2742 45.6999 49.2742L43.9456 49.2717ZM43.9456 53.1262V49.8772H45.7063C46.9491 49.8772 47.5203 50.2589 47.5203 51.4292C47.5203 52.6619 46.7952 53.1262 45.8475 53.1262H43.9456Z" fill="#420655"/>
<path fill-rule="evenodd" clip-rule="evenodd" d="M56.5208 65.1376C56.1735 65.6465 55.4293 65.8309 54.7704 65.8309C53.2756 65.8309 52.5874 64.9646 52.5874 63.5487V59.5963H53.8226V63.4928C53.8226 64.1352 53.9142 64.9519 55.0197 64.9519C55.6558 64.9519 56.2804 64.8247 56.4839 63.807V59.5963H57.6861V64.471C57.7026 64.9583 57.8197 65.0626 58.4227 64.8094V65.5104C58.1072 65.78 56.8414 66.0281 56.5208 65.1376Z" fill="#420655"/>
<path fill-rule="evenodd" clip-rule="evenodd" d="M83.1056 58.0162H82.3843V57.0723H84.328V64.5499C84.328 65.0091 84.6321 65.0854 85.1002 64.8145V65.5307C84.5456 65.9759 83.1119 65.9123 83.1056 64.8361V58.0162Z" fill="#420655"/>
<path fill-rule="evenodd" clip-rule="evenodd" d="M93.1032 60.5083H92.1377V59.6255H93.1032V58.0989L94.3308 57.66V59.628H95.7302V60.5109H94.3308V63.9965C94.327 64.1457 94.3385 64.2949 94.3652 64.4417C94.5255 65.1707 95.5393 65.0027 95.9999 64.658V65.4989C95.0954 66.0319 93.3755 66.0611 93.1452 64.7127C93.1153 64.4594 93.1012 64.2045 93.1032 63.9494V60.5083Z" fill="#420655"/>
<path fill-rule="evenodd" clip-rule="evenodd" d="M64.1788 64.5473C64.1788 65.1147 64.6877 64.9633 64.9586 64.7661V65.5459C64.3073 65.9276 63.4741 65.9021 63.0059 65.2572C62.4462 66.0306 60.0279 66.1655 59.472 64.7636C58.7087 62.8236 60.0724 61.0566 63.0047 61.9077C63.039 59.5988 60.767 60.3391 59.8154 60.8823L59.8434 59.9486C60.781 59.2935 62.6421 59.3265 63.5733 60.0758C63.7949 60.2609 63.9642 60.5008 64.0643 60.7717C64.1979 61.1062 64.1788 61.4955 64.1788 61.853V64.546V64.5473ZM63.0059 63.784V62.7104C60.4311 62.0247 60.2225 63.6657 60.7225 64.5321C61.2466 65.4467 63.0237 64.9824 63.0059 63.7904V63.784Z" fill="#420655"/>
<path fill-rule="evenodd" clip-rule="evenodd" d="M67.0778 60.3188C67.3475 59.8557 68.0739 59.4817 68.7316 59.4817C69.6221 59.4817 70.5647 59.7362 70.8827 60.4816C71.1054 59.7807 72.0696 59.3952 72.852 59.4538C74.3124 59.5632 74.9128 60.3684 74.9128 61.7105V65.7215H73.6407V61.7665C73.6585 59.7832 71.0965 60.3023 71.1041 61.6978V65.7215H69.9134V61.7665C69.9134 59.8456 67.4162 60.2399 67.3946 61.6062V65.7215H66.1326V60.5058H65.3579V59.5937L66.8463 59.5797L67.0778 60.3188Z" fill="#420655"/>
<path fill-rule="evenodd" clip-rule="evenodd" d="M49.7799 60.1038L47.4914 65.677H46.695L44.2538 60.0885V65.6948H43.1382V57.7695H44.4485L47.1199 63.9965L49.6655 57.7695H50.902V65.6948H49.7799V60.1038Z" fill="#420655"/>
<path fill-rule="evenodd" clip-rule="evenodd" d="M81.1717 64.5473C81.1717 65.1147 81.6805 64.9633 81.9528 64.7661V65.5459C81.3014 65.9276 80.4669 65.9021 79.9988 65.2572C79.439 66.0306 77.0207 66.1655 76.4661 64.7636C75.7028 62.8236 77.0665 61.0566 79.9988 61.9077C80.0331 59.5988 77.7598 60.3391 76.8083 60.8823L76.8376 59.9486C77.7751 59.2935 79.6362 59.3265 80.5674 60.0758C80.7883 60.2615 80.9575 60.5013 81.0585 60.7717C81.1857 61.1062 81.1717 61.4955 81.1717 61.853V64.546V64.5473ZM79.9988 63.784V62.7104C77.4253 62.0247 77.2154 63.6657 77.7166 64.5321C78.2394 65.4467 80.0179 64.9824 79.9988 63.7904V63.784Z" fill="#420655"/>
<path fill-rule="evenodd" clip-rule="evenodd" d="M90.9177 64.5473C90.9177 65.1147 91.4266 64.9633 91.6988 64.7661V65.5459C91.0475 65.9276 90.213 65.9021 89.7448 65.2572C89.1851 66.0306 86.7668 66.1655 86.2122 64.7636C85.4489 62.8236 86.8126 61.0566 89.7448 61.9077C89.7792 59.5988 87.5059 60.3391 86.5544 60.8823L86.5836 59.9486C87.5212 59.2935 89.3823 59.3265 90.3135 60.0758C90.5344 60.2615 90.7036 60.5013 90.8045 60.7717C90.9317 61.1062 90.9177 61.4955 90.9177 61.853V64.546V64.5473ZM89.7448 63.784V62.7104C87.1714 62.0247 86.9615 63.6657 87.4627 64.5321C87.9855 65.4467 89.7639 64.9824 89.7448 63.7904V63.784Z" fill="#420655"/>
</g>
<rect x="1" y="1" width="110" height="110" rx="9" stroke="black" stroke-opacity="0.1" stroke-width="2"/>
<defs>
<clipPath id="clip0_6700_50703">
<rect x="2" y="2" width="108" height="108" rx="8" fill="white"/>
</clipPath>
</defs>
</svg>
