<svg width="112" height="112" viewBox="0 0 112 112" fill="none" xmlns="http://www.w3.org/2000/svg">
<g clip-path="url(#clip0_6700_50295)">
<rect x="2" y="2" width="108" height="108" rx="8" fill="white"/>
<path d="M45.0821 46.7734L34.658 42.7902C35.258 40.2965 36.2881 37.9713 37.6559 35.8866L46.9758 41.6793C45.9532 43.1544 45.2818 44.8926 45.0821 46.7734ZM57.527 51.5271L46.3045 47.2375C46.6272 45.5062 47.3536 43.9066 48.3898 42.5524L57.527 48.2397V51.5271ZM57.527 47.8056L48.8396 42.0054C49.9289 40.7619 51.2926 39.7733 52.8364 39.1182L57.527 43.9114V47.8056ZM35.2763 55.1712C34.4867 52.9065 34.0532 50.4746 34.0532 47.9381C34.0532 46.5261 34.1864 45.1487 34.4399 43.8163L45.0284 47.5372L45.0236 47.9326C45.0236 50.5364 45.9307 52.9303 47.4487 54.8125C46.668 53.1267 46.1244 51.2397 46.1244 49.2304C46.1244 48.7963 46.1502 48.3682 46.2019 47.9469L57.527 51.924V55.1712H35.2763ZM36.0829 57.1642C35.8899 56.7497 35.7105 56.3243 35.5433 55.901H42.0814L43.2916 57.1778H53.0749L50.9298 59.4412H38.8851C38.5059 58.2093 37.4092 57.2763 36.0829 57.1642ZM60.9727 57.7058C61.752 57.3035 62.4737 56.8149 63.1273 56.253C63.5561 55.8949 63.9549 55.5062 64.3205 55.0714C65.9649 53.1477 66.959 50.6587 66.959 47.9326C66.959 41.8763 62.0469 36.9649 55.9906 36.9649C54.7213 36.9649 53.4982 37.179 52.3676 37.5751L44.7131 29.1175C48.0073 27.1374 51.8647 26 55.9906 26C68.1046 26 77.9233 35.8186 77.9233 47.9381C77.9233 60.0527 68.1046 69.868 55.9906 69.868C49.9635 69.868 44.5065 67.4415 40.5417 63.5079H67.4462L39.2459 62.1075L69.0464 61.9186L37.8604 60.2946L49.8392 60.1091C49.8392 60.1091 56.1238 60.3001 60.9727 57.7058ZM47.4351 41.0657L38.2987 34.9652C39.7847 32.9396 41.6071 31.1831 43.6864 29.7739L51.6133 37.8748C49.9737 38.5882 48.5427 39.6924 47.4351 41.0657Z" fill="#D10A10"/>
<path d="M29.1671 86C26.3665 86 25 84.3861 25 81.7558C25 79.0264 27.0228 77.3009 29.4885 77.3009C31.8734 77.3009 33.6553 78.5792 33.6553 81.5198C33.6553 84.274 31.6724 86 29.1671 86ZM29.3268 79.0634C28.2426 79.0634 27.2113 79.844 27.2113 81.5951C27.2113 83.2075 27.8547 84.2259 29.2879 84.2259C30.2789 84.2259 31.4441 83.5439 31.4441 81.6448C31.4441 79.9566 30.7078 79.0634 29.3268 79.0634Z" fill="#D10A10"/>
<path d="M38.7351 85.9499C35.3978 85.9499 34.5005 83.8535 34.5005 81.9547C34.5005 79.2364 36.095 77.4007 39.0827 77.4007C39.7126 77.4007 40.3679 77.4749 40.9327 77.6118L40.6904 79.3609C40.1808 79.2242 39.6058 79.1383 39.0428 79.1383C37.5826 79.1383 36.7915 80.1181 36.7915 81.6317C36.7915 83.2818 37.5156 84.1882 39.1505 84.1882C39.6197 84.1882 40.3017 84.0764 40.7305 83.8908L40.9728 85.6153C40.3157 85.827 39.5121 85.9499 38.7351 85.9499Z" fill="#D10A10"/>
<path d="M45.2057 85.8641C44.6707 85.8641 43.665 85.837 42.3521 85.837V77.4748C43.1823 77.4381 44.5367 77.4127 45.6485 77.4127C47.6173 77.4127 48.7832 78.1201 48.7832 79.5225C48.7832 80.3041 48.2472 81.012 47.47 81.3337V81.3715C48.3952 81.5951 48.9302 82.3883 48.9302 83.2204C48.9302 84.5605 47.8724 85.8641 45.2057 85.8641ZM45.3131 78.9633C44.9922 78.9633 44.6966 78.9759 44.4427 78.9881V80.8251C44.6166 80.8375 44.8177 80.8375 45.0587 80.8375C46.0768 80.8375 46.5724 80.4532 46.5724 79.8199C46.5724 79.2855 46.1847 78.9633 45.3131 78.9633ZM45.1394 82.2646C45.0315 82.2646 44.6027 82.2646 44.4427 82.277V84.2507C44.6166 84.274 44.9249 84.288 45.246 84.288C46.1713 84.288 46.6936 83.8907 46.6936 83.2447C46.6936 82.599 46.1169 82.2646 45.1394 82.2646Z" fill="#D10A10"/>
<path d="M54.0768 85.9499C50.7413 85.9499 49.8438 83.8535 49.8438 81.9547C49.8438 79.2364 51.4378 77.4007 54.4254 77.4007C55.0551 77.4007 55.7117 77.4749 56.2736 77.6118L56.0337 79.3609C55.5244 79.2242 54.948 79.1383 54.3861 79.1383C52.9244 79.1383 52.1347 80.1181 52.1347 81.6317C52.1347 83.2818 52.8576 84.1882 54.4917 84.1882C54.962 84.1882 55.6452 84.0764 56.0733 83.8908L56.315 85.6153C55.6584 85.827 54.8543 85.9499 54.0768 85.9499Z" fill="#D10A10"/>
<path d="M65.4673 85.8369L63.3368 82.2278C62.9499 81.5829 62.6401 80.9364 62.3994 80.3913C62.4395 81.0117 62.4665 81.8557 62.4665 82.6497V85.8369H60.4565V77.4621H63.1373L65.1195 80.7759C65.5207 81.4713 65.8962 82.1898 66.2184 82.8363C66.1519 82.1152 66.125 81.0117 66.125 80.2169V77.4621H68.1344V85.8369H65.4673Z" fill="#D10A10"/>
<path d="M69.7168 77.4623H71.8062V85.8369H69.7168V77.4623Z" fill="#D10A10"/>
<path d="M75.1832 85.986C74.553 85.986 73.9093 85.9259 73.3343 85.8001L73.4414 84.0133C73.9513 84.1883 74.6881 84.3249 75.3442 84.3249C76.1058 84.3249 76.6574 84.0265 76.6574 83.4315C76.6574 82.0039 73.0537 82.7374 73.0537 79.9324C73.0537 78.3555 74.3798 77.3128 76.6437 77.3128C77.1263 77.3128 77.7286 77.3624 78.2912 77.4623L78.1704 79.1381C77.6618 79.0007 77.0999 78.914 76.5624 78.914C75.6928 78.914 75.2911 79.2616 75.2911 79.7331C75.2911 81.036 78.8943 80.5401 78.8943 83.1577C78.8943 84.7843 77.4879 85.986 75.1832 85.986Z" fill="#D10A10"/>
<path d="M82.7138 83.0716C82.607 83.0716 82.4201 83.0716 82.2327 83.0587V85.837H80.1426V77.4624C80.9182 77.4254 81.7762 77.4008 82.7138 77.4008C85.0193 77.4008 86.2784 78.3675 86.2784 80.0932C86.2784 81.7191 85.0193 83.0716 82.7138 83.0716ZM82.6745 78.9759C82.528 78.9759 82.3802 78.9759 82.2327 78.9879V81.4455C82.3663 81.4579 82.4871 81.4714 82.593 81.4714C83.4641 81.4579 84.122 80.9985 84.122 80.1802C84.122 79.4729 83.7053 78.9759 82.6745 78.9759Z" fill="#D10A10"/>
</g>
<rect x="1" y="1" width="110" height="110" rx="9" stroke="black" stroke-opacity="0.1" stroke-width="2"/>
<defs>
<clipPath id="clip0_6700_50295">
<rect x="2" y="2" width="108" height="108" rx="8" fill="white"/>
</clipPath>
</defs>
</svg>
