<svg width="112" height="112" viewBox="0 0 112 112" fill="none" xmlns="http://www.w3.org/2000/svg">
<g clip-path="url(#clip0_6700_50730)">
<rect x="2" y="2" width="108" height="108" rx="8" fill="white"/>
<g clip-path="url(#clip1_6700_50730)">
<path d="M35.1599 50.96V65.8C35.0799 67.03 34.7299 68.39 33.2999 68.39C32.6499 68.39 32.3599 68.24 32.2199 67.98C33.3999 66.22 34.0999 64.06 34.0999 61.71C34.0999 60.32 33.8499 58.99 33.3999 57.77C33.3199 57.56 33.2399 57.36 33.1499 57.16C31.5899 53.57 28.2599 51.08 24.3799 51.08C19.0199 51.08 14.6699 55.83 14.6699 61.7C14.6699 67.57 19.0199 72.32 24.3799 72.32C26.0399 72.32 27.6099 71.86 28.9799 71.06C30.1099 71.87 31.4699 72.35 32.9399 72.35C36.2099 72.35 38.9499 70 39.7099 66.84V50.96H35.1299H35.1599ZM26.6199 68.12C25.9399 68.51 25.1899 68.74 24.3999 68.74C21.3799 68.74 18.9399 65.57 18.9399 61.66C18.9399 57.75 21.3899 54.58 24.3999 54.58C26.6299 54.58 28.5399 56.31 29.3899 58.78C29.6899 59.66 29.8599 60.63 29.8599 61.66C29.8599 64.54 28.5299 67.02 26.6199 68.12Z" fill="url(#paint0_radial_6700_50730)"/>
<path d="M41.0601 59.08V65.53L43.8601 62.93L50.2301 72.4H56.5401L47.5701 58.88L55.2901 50.66H48.2701L41.0601 59.08Z" fill="url(#paint1_radial_6700_50730)"/>
<path d="M55.53 50.86C54.31 50.98 52.86 51 51.15 50.82C51.05 50.82 50.96 50.82 50.87 50.8C43.89 48.75 41.72 45.81 37.29 42.41C32.56 38.77 21.22 36.31 11 44.38C11 44.38 14.5 46.4 16.1 49.82C16.13 49.88 16.16 49.94 16.19 50C17.77 53.53 18.02 56.57 18.02 56.57C18.02 56.57 23.82 49.94 30.99 49.68C37.04 49.46 44.06 51.81 49.63 52.43C50.66 52.54 51.64 52.6 52.56 52.57C58.41 52.36 60.65 49 60.65 49C60.65 49 59.21 50.49 55.55 50.86H55.53Z" fill="#313132"/>
<path d="M33.0698 45.15C41.6398 47.43 43.8898 50.41 50.8598 50.36C50.9798 50.36 51.0798 50.35 51.1898 50.35C51.0898 50.35 50.9998 50.35 50.9098 50.33C43.9598 48.39 41.8098 45.61 37.3998 42.39C32.6998 38.95 21.9198 36.52 11.7598 44.16C11.7598 44.16 14.7398 46.17 16.3298 49.4C16.6198 49.07 16.8998 48.77 17.1898 48.48C22.7498 42.73 28.0698 43.82 33.0798 45.15H33.0698Z" fill="url(#paint2_linear_6700_50730)"/>
<path d="M55.5396 50.39C54.3296 50.51 52.8796 50.52 51.1796 50.35C51.0596 50.35 50.9596 50.36 50.8496 50.36C43.8896 50.41 40.0796 46.56 33.5996 44.47C28.6696 42.88 22.7296 42.72 17.1696 48.47C16.8796 48.76 16.5996 49.06 16.3096 49.39C16.3396 49.45 16.3696 49.5 16.3996 49.56C17.9696 52.9 18.2196 55.78 18.2196 55.78C18.2196 55.78 23.9896 49.51 31.1196 49.25C37.1396 49.04 44.1196 51.27 49.6596 51.85C50.6796 51.96 51.6596 52.02 52.5696 51.98C58.3896 51.78 60.7096 48.74 60.7096 48.74C60.7096 48.74 59.1796 50.01 55.5396 50.37V50.39Z" fill="url(#paint3_linear_6700_50730)"/>
<path d="M61.8699 50.68H60.9199V72.13H61.8699V50.68Z" fill="#660812"/>
<path d="M70.13 53.84C70.13 54.16 70.07 54.47 69.95 54.75C69.83 55.04 69.65 55.29 69.42 55.52C69.19 55.75 68.92 55.92 68.63 56.04C68.34 56.16 68.03 56.22 67.7 56.22C67.37 56.22 67.06 56.16 66.77 56.04C66.47 55.92 66.21 55.75 65.98 55.52C65.75 55.29 65.57 55.04 65.45 54.75C65.33 54.46 65.27 54.16 65.27 53.83C65.27 53.5 65.33 53.2 65.45 52.91C65.57 52.62 65.74 52.37 65.98 52.14C66.21 51.91 66.47 51.74 66.77 51.62C67.06 51.5 67.38 51.44 67.7 51.44C68.02 51.44 68.34 51.5 68.63 51.62C68.92 51.74 69.18 51.91 69.42 52.14C69.65 52.37 69.83 52.63 69.95 52.92C70.07 53.21 70.13 53.51 70.13 53.83V53.84ZM69.36 53.84C69.36 53.61 69.32 53.39 69.24 53.18C69.16 52.97 69.04 52.79 68.88 52.63C68.73 52.47 68.55 52.35 68.35 52.26C68.15 52.17 67.94 52.13 67.71 52.13C67.48 52.13 67.27 52.17 67.07 52.26C66.87 52.35 66.69 52.47 66.53 52.63C66.37 52.79 66.25 52.97 66.17 53.18C66.09 53.39 66.05 53.61 66.05 53.84C66.05 54.07 66.09 54.29 66.17 54.49C66.25 54.7 66.37 54.88 66.53 55.04C66.69 55.2 66.87 55.32 67.07 55.41C67.27 55.49 67.48 55.54 67.71 55.54C67.94 55.54 68.14 55.5 68.34 55.41C68.54 55.32 68.72 55.2 68.88 55.04C69.04 54.88 69.16 54.69 69.24 54.49C69.32 54.28 69.36 54.07 69.36 53.84Z" fill="#313132"/>
<path d="M72.22 52.18V56.09H71.48V52.18H70.27V51.55H73.42V52.18H72.22Z" fill="#313132"/>
<path d="M78.4201 53.84C78.4201 54.16 78.3601 54.47 78.2401 54.75C78.1201 55.04 77.9401 55.29 77.7101 55.52C77.4801 55.75 77.2101 55.92 76.9201 56.04C76.6301 56.16 76.3201 56.22 75.9901 56.22C75.6601 56.22 75.3501 56.16 75.0601 56.04C74.7601 55.92 74.5001 55.75 74.2701 55.52C74.0401 55.29 73.8601 55.04 73.7401 54.75C73.6201 54.46 73.5601 54.16 73.5601 53.83C73.5601 53.5 73.6201 53.2 73.7401 52.91C73.8601 52.62 74.0401 52.37 74.2701 52.14C74.5001 51.91 74.7601 51.74 75.0601 51.62C75.3501 51.5 75.6701 51.44 75.9901 51.44C76.3101 51.44 76.6301 51.5 76.9201 51.62C77.2101 51.74 77.4701 51.91 77.7101 52.14C77.9401 52.37 78.1201 52.63 78.2401 52.92C78.3601 53.21 78.4201 53.51 78.4201 53.83V53.84ZM77.6501 53.84C77.6501 53.61 77.6101 53.39 77.5301 53.18C77.4501 52.97 77.3301 52.79 77.1701 52.63C77.0201 52.47 76.8401 52.35 76.6401 52.26C76.4401 52.17 76.2301 52.13 76.0001 52.13C75.7701 52.13 75.5601 52.17 75.3601 52.26C75.1601 52.35 74.9801 52.47 74.8201 52.63C74.6601 52.79 74.5401 52.97 74.4601 53.18C74.3801 53.39 74.3401 53.61 74.3401 53.84C74.3401 54.07 74.3801 54.29 74.4601 54.49C74.5401 54.7 74.6601 54.88 74.8201 55.04C74.9801 55.2 75.1601 55.32 75.3601 55.41C75.5601 55.49 75.7701 55.54 76.0001 55.54C76.2301 55.54 76.4301 55.5 76.6301 55.41C76.8301 55.32 77.0101 55.2 77.1701 55.04C77.3301 54.88 77.4501 54.69 77.5301 54.49C77.6101 54.28 77.6501 54.07 77.6501 53.84Z" fill="#313132"/>
<path d="M79.96 54.06V56.09H79.27V51.55H80.3C80.6 51.55 80.84 51.57 81 51.61C81.17 51.65 81.31 51.71 81.43 51.8C81.57 51.91 81.68 52.05 81.76 52.23C81.84 52.4 81.88 52.59 81.88 52.8C81.88 53.16 81.79 53.45 81.62 53.65C81.44 53.86 81.18 53.98 80.84 54.02L82.4 56.09H81.56L80.05 54.06H79.97H79.96ZM80.01 53.49H80.14C80.53 53.49 80.79 53.44 80.92 53.35C81.05 53.26 81.11 53.1 81.11 52.87C81.11 52.62 81.04 52.44 80.91 52.34C80.77 52.24 80.52 52.19 80.14 52.19H80.01V53.49Z" fill="#313132"/>
<path d="M82.8301 56.1V51.56H83.5701V56.1H82.8301Z" fill="#313132"/>
<path d="M86.0999 52.18V56.09H85.3599V52.18H84.1499V51.55H87.2899V52.18H86.0899H86.0999Z" fill="#313132"/>
<path d="M90.4 56.1L89.88 54.93H88.08L87.55 56.1H86.77L88.97 51.38L91.17 56.1H90.39H90.4ZM88.36 54.32H89.63L89.17 53.28C89.14 53.21 89.12 53.14 89.09 53.05C89.06 52.96 89.03 52.87 89 52.76C88.98 52.86 88.95 52.95 88.92 53.04C88.89 53.13 88.86 53.2 88.83 53.28L88.37 54.32H88.36Z" fill="#313132"/>
<path d="M91.3498 55.19L91.9398 54.92C91.9998 55.12 92.0998 55.28 92.2498 55.38C92.3998 55.49 92.5898 55.54 92.8198 55.54C93.0498 55.54 93.2098 55.48 93.3398 55.36C93.4698 55.24 93.5298 55.07 93.5298 54.87C93.5298 54.6 93.3099 54.37 92.8699 54.16C92.8099 54.13 92.7599 54.11 92.7299 54.09C92.2299 53.85 91.8999 53.63 91.7299 53.43C91.5599 53.23 91.4799 52.99 91.4799 52.71C91.4799 52.34 91.5998 52.04 91.8498 51.81C92.0998 51.58 92.4298 51.47 92.8398 51.47C93.1798 51.47 93.4598 51.53 93.6798 51.66C93.9098 51.79 94.0598 51.97 94.1498 52.22L93.5698 52.52C93.4798 52.38 93.3798 52.27 93.2698 52.21C93.1598 52.14 93.0398 52.11 92.8998 52.11C92.6998 52.11 92.5398 52.16 92.4298 52.27C92.3098 52.37 92.2598 52.51 92.2598 52.68C92.2598 52.95 92.5198 53.21 93.0298 53.44C93.0698 53.46 93.0999 53.47 93.1199 53.48C93.5699 53.69 93.8798 53.89 94.0398 54.09C94.2098 54.29 94.2898 54.53 94.2898 54.83C94.2898 55.26 94.1498 55.6 93.8798 55.85C93.6098 56.1 93.2398 56.23 92.7798 56.23C92.3898 56.23 92.0798 56.14 91.8298 55.96C91.5798 55.78 91.4198 55.53 91.3398 55.2L91.3498 55.19Z" fill="#313132"/>
<path d="M65.44 62.89C65.52 62.98 65.59 63.05 65.66 63.09C65.73 63.13 65.8 63.15 65.88 63.15C66.02 63.15 66.13 63.1 66.18 63.01C66.24 62.91 66.27 62.74 66.27 62.48V59.18H67V62.72C67 63.1 66.92 63.39 66.75 63.57C66.58 63.75 66.32 63.84 65.96 63.84C65.76 63.84 65.58 63.8 65.42 63.72C65.26 63.64 65.11 63.52 64.96 63.36L65.43 62.89H65.44Z" fill="#313132"/>
<path d="M70.9801 63.72L70.4601 62.55H68.6601L68.1301 63.72H67.3501L69.5501 59L71.7501 63.72H70.9701H70.9801ZM68.9401 61.94H70.2101L69.7501 60.9C69.7201 60.83 69.6901 60.76 69.6701 60.67C69.6401 60.58 69.6101 60.49 69.5801 60.38C69.5601 60.48 69.5301 60.57 69.5001 60.66C69.4701 60.75 69.4401 60.83 69.4101 60.9L68.9501 61.94H68.9401Z" fill="#313132"/>
<path d="M71.9302 62.81L72.5202 62.54C72.5802 62.74 72.6802 62.9 72.8302 63C72.9802 63.11 73.1702 63.16 73.4002 63.16C73.6202 63.16 73.7902 63.1 73.9202 62.98C74.0502 62.86 74.1202 62.69 74.1202 62.49C74.1202 62.22 73.9002 61.99 73.4602 61.78C73.4002 61.75 73.3502 61.73 73.3202 61.71C72.8202 61.47 72.4902 61.25 72.3202 61.05C72.1502 60.85 72.0702 60.61 72.0702 60.32C72.0702 59.95 72.1902 59.65 72.4502 59.42C72.7002 59.19 73.0302 59.08 73.4402 59.08C73.7702 59.08 74.0502 59.14 74.2802 59.27C74.5002 59.4 74.6602 59.58 74.7502 59.83L74.1702 60.13C74.0802 59.99 73.9802 59.88 73.8702 59.82C73.7602 59.75 73.6402 59.72 73.5002 59.72C73.3002 59.72 73.1402 59.77 73.0302 59.88C72.9102 59.98 72.8602 60.12 72.8602 60.3C72.8602 60.57 73.1202 60.83 73.6302 61.06C73.6702 61.08 73.7002 61.09 73.7202 61.1C74.1702 61.31 74.4802 61.51 74.6502 61.71C74.8202 61.91 74.9002 62.15 74.9002 62.45C74.9002 62.88 74.7702 63.22 74.4902 63.47C74.2202 63.72 73.8502 63.85 73.3902 63.85C73.0002 63.85 72.6902 63.76 72.4402 63.58C72.1902 63.4 72.0302 63.15 71.9602 62.82L71.9302 62.81Z" fill="#313132"/>
<path d="M78.6698 63.72L78.1598 62.55H76.3598L75.8298 63.72H75.0498L77.2498 59L79.4498 63.72H78.6698ZM76.6298 61.94H77.8998L77.4298 60.9C77.3998 60.83 77.3798 60.76 77.3498 60.67C77.3198 60.58 77.2898 60.49 77.2598 60.38C77.2298 60.48 77.2098 60.57 77.1798 60.66C77.1498 60.75 77.1298 60.83 77.0998 60.9L76.6298 61.94Z" fill="#313132"/>
<path d="M65.48 71.34V66.8H66.22V68.68L67.85 66.8H68.75L66.95 68.82L68.96 71.34H68.01L66.22 69.02V71.34H65.48Z" fill="#313132"/>
<path d="M69.4199 71.34V66.8H71.9599V67.43H70.1699V68.57H71.9599V69.22H70.1699V70.69H71.9599V71.35H69.4199V71.34Z" fill="#313132"/>
<path d="M72.7798 66.8H73.5098V69.56C73.5098 69.97 73.6098 70.28 73.7898 70.48C73.9798 70.69 74.2598 70.79 74.6398 70.79C75.0198 70.79 75.2998 70.69 75.4898 70.48C75.6798 70.27 75.7698 69.97 75.7698 69.56V66.8H76.5098V69.63C76.5098 70.24 76.3498 70.7 76.0498 71.01C75.7398 71.32 75.2698 71.47 74.6498 71.47C74.0298 71.47 73.5598 71.32 73.2498 71.01C72.9398 70.71 72.7898 70.25 72.7898 69.63V66.8H72.7798Z" fill="#313132"/>
<path d="M80.41 71.34L79.9 70.17H78.1L77.57 71.34H76.79L78.99 66.62L81.19 71.34H80.41ZM78.37 69.56H79.64L79.17 68.52C79.14 68.45 79.12 68.38 79.09 68.29C79.06 68.2 79.03 68.11 79 68C78.97 68.1 78.95 68.19 78.92 68.28C78.89 68.37 78.87 68.45 78.84 68.52L78.37 69.56Z" fill="#313132"/>
<path d="M81.6201 71.34V66.62L84.5001 69.4C84.5801 69.48 84.6601 69.56 84.7401 69.65C84.8201 69.74 84.9101 69.84 85.0001 69.95V66.8H85.6801V71.52L82.7401 68.69C82.6601 68.61 82.5901 68.53 82.5101 68.45C82.4401 68.36 82.3701 68.28 82.3001 68.18V71.34H81.6201Z" fill="#313132"/>
<path d="M89.2398 69.02H91.0398C91.0398 69.02 91.0398 69.1 91.0398 69.15C91.0398 69.3 91.0398 69.4 91.0398 69.45C91.0398 70.09 90.8598 70.58 90.4898 70.94C90.1198 71.29 89.6098 71.47 88.9398 71.47C88.5698 71.47 88.2298 71.42 87.9398 71.31C87.6498 71.2 87.3898 71.04 87.1698 70.81C86.9598 70.59 86.7898 70.33 86.6798 70.04C86.5598 69.74 86.5098 69.43 86.5098 69.09C86.5098 68.75 86.5698 68.43 86.6798 68.14C86.7998 67.85 86.9698 67.59 87.1998 67.37C87.4198 67.15 87.6798 66.99 87.9798 66.87C88.2798 66.76 88.5998 66.7 88.9398 66.7C89.2998 66.7 89.6198 66.77 89.8998 66.9C90.1798 67.03 90.4298 67.23 90.6498 67.5L90.1098 67.91C89.9598 67.73 89.7798 67.6 89.5898 67.51C89.3998 67.42 89.1798 67.38 88.9398 67.38C88.4498 67.38 88.0498 67.54 87.7298 67.85C87.4198 68.17 87.2698 68.58 87.2698 69.08C87.2698 69.58 87.4198 70.01 87.7298 70.33C88.0398 70.65 88.4498 70.81 88.9398 70.81C89.3598 70.81 89.6898 70.71 89.9398 70.52C90.1798 70.32 90.2998 70.06 90.2998 69.72V69.65H89.2098V69.03L89.2398 69.02Z" fill="#313132"/>
<path d="M94.8302 71.34L94.3102 70.17H92.5102L91.9802 71.34H91.2002L93.4002 66.62L95.6002 71.34H94.8202H94.8302ZM92.7902 69.56H94.0602L93.6002 68.52C93.5702 68.45 93.5402 68.38 93.5202 68.29C93.4902 68.2 93.4602 68.11 93.4302 68C93.4102 68.1 93.3802 68.19 93.3502 68.28C93.3202 68.37 93.2902 68.45 93.2602 68.52L92.8002 69.56H92.7902Z" fill="#313132"/>
<path d="M96.0298 71.34V66.62L98.9198 69.4C98.9998 69.48 99.0798 69.56 99.1598 69.65C99.2398 69.74 99.3198 69.84 99.4098 69.95V66.8H100.09V71.52L97.1498 68.69C97.0698 68.61 96.9998 68.53 96.9198 68.45C96.8498 68.36 96.7798 68.28 96.7098 68.18V71.34H96.0298Z" fill="#313132"/>
</g>
</g>
<rect x="1" y="1" width="110" height="110" rx="9" stroke="black" stroke-opacity="0.1" stroke-width="2"/>
<defs>
<radialGradient id="paint0_radial_6700_50730" cx="0" cy="0" r="1" gradientUnits="userSpaceOnUse" gradientTransform="translate(37.0499 60.53) scale(17.32)">
<stop stop-color="#C40015"/>
<stop offset="0.14" stop-color="#AC0114"/>
<stop offset="0.37" stop-color="#8E0413"/>
<stop offset="0.59" stop-color="#770612"/>
<stop offset="0.81" stop-color="#6A0712"/>
<stop offset="1" stop-color="#660812"/>
</radialGradient>
<radialGradient id="paint1_radial_6700_50730" cx="0" cy="0" r="1" gradientUnits="userSpaceOnUse" gradientTransform="translate(37.0501 60.53) scale(17.32)">
<stop stop-color="#C40015"/>
<stop offset="0.14" stop-color="#AC0114"/>
<stop offset="0.37" stop-color="#8E0413"/>
<stop offset="0.59" stop-color="#770612"/>
<stop offset="0.81" stop-color="#6A0712"/>
<stop offset="1" stop-color="#660812"/>
</radialGradient>
<linearGradient id="paint2_linear_6700_50730" x1="47.2598" y1="48.92" x2="8.95977" y2="41.77" gradientUnits="userSpaceOnUse">
<stop stop-color="#E77D62"/>
<stop offset="0.02" stop-color="#D76854"/>
<stop offset="0.04" stop-color="#C24B41"/>
<stop offset="0.07" stop-color="#B13532"/>
<stop offset="0.1" stop-color="#A62628"/>
<stop offset="0.14" stop-color="#9F1C21"/>
<stop offset="0.19" stop-color="#9D1A20"/>
<stop offset="0.22" stop-color="#A01E23"/>
<stop offset="0.26" stop-color="#AA2B2B"/>
<stop offset="0.3" stop-color="#BA423A"/>
<stop offset="0.34" stop-color="#D1604F"/>
<stop offset="0.38" stop-color="#E77D62"/>
<stop offset="0.43" stop-color="#D76753"/>
<stop offset="0.52" stop-color="#C24B41"/>
<stop offset="0.61" stop-color="#B13532"/>
<stop offset="0.71" stop-color="#A52628"/>
<stop offset="0.83" stop-color="#9F1C21"/>
<stop offset="1" stop-color="#9D1A20"/>
</linearGradient>
<linearGradient id="paint3_linear_6700_50730" x1="-1.12043" y1="50.58" x2="51.8896" y2="48.55" gradientUnits="userSpaceOnUse">
<stop stop-color="#7F8083"/>
<stop offset="0.15" stop-color="#818285"/>
<stop offset="0.26" stop-color="#8B8B8E"/>
<stop offset="0.35" stop-color="#9A9B9D"/>
<stop offset="0.44" stop-color="#B0B1B3"/>
<stop offset="0.52" stop-color="#CCCDCE"/>
<stop offset="0.59" stop-color="#EFEFEF"/>
<stop offset="0.62" stop-color="white"/>
<stop offset="0.64" stop-color="#F1F2F2"/>
<stop offset="0.69" stop-color="#D3D4D5"/>
<stop offset="0.73" stop-color="#BCBEC0"/>
<stop offset="0.77" stop-color="#AFB1B4"/>
<stop offset="0.81" stop-color="#ABADB0"/>
<stop offset="0.87" stop-color="#ADAFB2"/>
<stop offset="0.9" stop-color="#B7B8BB"/>
<stop offset="0.94" stop-color="#C6C8CA"/>
<stop offset="0.97" stop-color="#DCDDDE"/>
<stop offset="1" stop-color="white"/>
</linearGradient>
<clipPath id="clip0_6700_50730">
<rect x="2" y="2" width="108" height="108" rx="8" fill="white"/>
</clipPath>
<clipPath id="clip1_6700_50730">
<rect width="89.09" height="33.4" fill="white" transform="translate(11 39)"/>
</clipPath>
</defs>
</svg>
