<svg width="112" height="112" viewBox="0 0 112 112" fill="none" xmlns="http://www.w3.org/2000/svg">
<g clip-path="url(#clip0_6700_50353)">
<rect x="2" y="2" width="108" height="108" rx="8" fill="white"/>
<path fill-rule="evenodd" clip-rule="evenodd" d="M67.6182 76.6448C67.6265 76.4924 67.6353 76.2482 67.6432 75.9134V69.493L67.6224 68.8701C67.6173 68.7376 67.6108 68.6475 67.6044 68.6004C67.5974 68.5506 67.5868 68.5076 67.572 68.4679C67.524 68.3095 67.4174 68.1978 67.2571 68.1308C67.1094 68.0685 66.8909 68.0385 66.6074 68.0362V67.8178H70.2738C70.8067 67.8187 71.2883 67.8533 71.7182 67.9226C72.1477 67.9914 72.4935 68.0865 72.7581 68.2075C73.5246 68.5709 73.9033 69.1827 73.8991 70.0532C73.9079 71.2971 73.0897 72.0918 71.3959 72.2964L71.1119 72.3421C71.4929 72.356 72.0082 72.483 72.2479 72.5384C72.4857 72.5933 72.7189 72.6806 72.9474 72.7997C73.8465 73.2513 74.2893 73.9735 74.2806 74.9723C74.2852 76.1854 73.6937 76.9741 72.4931 77.3467C72.2308 77.4215 71.902 77.4806 71.5044 77.5236C71.1055 77.5665 70.6723 77.5887 70.2055 77.5896H66.6074V77.3707C67.0309 77.3656 67.3222 77.301 67.4511 77.1491C67.5051 77.0974 67.5434 77.0406 67.5688 76.9755C67.5947 76.9094 67.6099 76.7968 67.6182 76.6448ZM68.7477 68.1179V72.1925H70.1782C71.842 72.1828 72.7036 71.4915 72.7129 70.1076C72.7244 68.7644 71.8161 68.1087 70.0554 68.1179H68.7477ZM72.9992 74.8633C72.9899 73.9135 72.6464 73.2421 71.9616 72.8667C71.7538 72.7605 71.4897 72.6787 71.1724 72.621C70.8556 72.5638 70.5061 72.5347 70.1238 72.5333H68.7477V77.289H70.1238C71.1207 77.2936 71.8494 77.1075 72.2982 76.7173C72.5259 76.5303 72.6986 76.2763 72.8186 75.9577C72.9382 75.6391 72.9978 75.2734 72.9992 74.8633Z" fill="#3A3A3A"/>
<path d="M79.5281 77.3107C79.4538 77.1634 79.4016 76.9884 79.3789 76.541L79.3725 76.4085L79.2843 76.5077C79.1795 76.6264 79.0765 76.7289 78.9758 76.8162C78.8747 76.9044 78.7574 76.9944 78.6258 77.0859C78.3363 77.2983 78.0574 77.4479 77.79 77.5352C77.5227 77.622 77.2211 77.6644 76.8854 77.6617C76.3008 77.664 75.852 77.5255 75.5311 77.2526C75.3514 77.0909 75.2106 76.8882 75.1076 76.6421C75.0047 76.3964 74.952 76.1323 74.9497 75.8488C74.9566 74.8034 75.5985 74.1287 76.9113 73.83C77.2585 73.7496 77.6256 73.6836 78.0117 73.6319C78.3991 73.5801 78.8378 73.5377 79.3286 73.5044L79.3789 72.5924C79.3799 72.2807 79.3646 72.0282 79.3342 71.8356C79.3037 71.6407 79.2533 71.4708 79.1827 71.3272C78.9878 70.9476 78.5907 70.7657 78.0167 70.7657C77.096 70.7611 76.5968 71.1993 76.5451 72.0711C76.5396 72.2096 76.5266 72.3071 76.5086 72.3662C76.4911 72.4216 76.4611 72.4627 76.4186 72.4927C76.3271 72.5541 76.1812 72.5897 75.9716 72.592C75.5204 72.5989 75.3514 72.4645 75.3588 72.2387C75.3616 72.0023 75.4401 71.7737 75.5976 71.5535C75.755 71.3323 75.9744 71.1402 76.2579 70.9763C76.7677 70.6937 77.4206 70.5496 78.2213 70.5473C79.0973 70.5496 79.6846 70.7482 80.0056 71.1273C80.1353 71.287 80.2318 71.4842 80.2946 71.7229C80.357 71.9617 80.3888 72.2641 80.3884 72.6321L80.387 72.7102L80.3801 73.0667L80.3611 74.0082L80.3473 75.303L80.3339 75.9301C80.3348 76.2251 80.3473 76.45 80.3676 76.7017C80.3879 76.9469 80.4756 77.2202 80.6719 77.2927C80.8764 77.3685 81.0732 77.3985 81.4476 77.4008C81.7229 77.3952 81.9348 77.3638 82.0784 77.3029C82.2423 77.2332 82.343 77.0854 82.3864 76.8758C82.4289 76.6712 82.4474 76.36 82.4427 75.943V72.2886C82.452 71.7913 82.3943 71.4413 82.2525 71.2584C82.114 71.0797 81.8563 71.0026 81.5021 71.0063V70.8123L83.4517 70.6701V72.223L83.5533 72.042C83.8419 71.5281 84.1693 71.1647 84.5336 70.9462C84.8979 70.7278 85.3546 70.6198 85.9046 70.6253C86.7311 70.6142 87.307 70.8913 87.6441 71.445C87.7673 71.6301 87.8574 71.8536 87.911 72.115C87.9645 72.3768 87.9913 72.7116 87.9899 73.1193V75.943C87.9848 76.3641 88.0024 76.6777 88.043 76.8813C88.0846 77.0909 88.1843 77.2382 88.3487 77.3061C88.4845 77.362 88.8012 77.3925 89.0714 77.3999C89.3244 77.392 89.5202 77.3611 89.6541 77.3024C89.8139 77.2327 89.9104 77.0845 89.9515 76.8748C89.9912 76.6712 90.0083 76.3595 90.0032 75.943V69.3038C90.0083 68.9233 89.9926 68.6411 89.9543 68.4592C89.9145 68.2694 89.8167 68.1387 89.6564 68.0824C89.5174 68.0334 89.3092 68.0104 89.0358 68.0094V67.815L91.0634 67.7116C91.038 68.1618 91.0186 68.6222 91.0057 69.0927C90.9918 69.584 90.9854 70.013 90.9854 70.3801V74.8403L93.2194 72.3925C93.5352 72.0425 93.7079 71.7483 93.7102 71.5128C93.7264 71.185 93.3953 71.0368 92.8518 71.0095V70.816H95.7549V71.0127C95.5804 71.0331 95.4285 71.0649 95.2996 71.1093C95.1593 71.1568 95.0152 71.2261 94.8684 71.3147C94.7192 71.4048 94.5945 71.4874 94.4934 71.5627C94.3904 71.6398 94.269 71.7493 94.1291 71.8915C93.9892 72.0332 93.7869 72.2484 93.5209 72.5375L92.7835 73.3313L94.7137 76.3674C94.9339 76.7271 95.1366 76.9815 95.3227 77.126C95.5005 77.2636 95.7272 77.3523 96.0001 77.3943V77.5929H94.2348C94.1863 77.4941 94.1198 77.3661 94.0349 77.2091L93.7541 76.6971L93.5394 76.3115L92.1107 73.9833L90.9882 75.2393L90.9854 75.943C90.9803 76.3595 90.9974 76.6712 91.0376 76.8753C91.0791 77.0849 91.177 77.2332 91.3391 77.3029C91.4809 77.3634 91.6919 77.3952 91.9662 77.4008V77.5929H85.9997V77.4003C86.4038 77.3892 86.6813 77.3232 86.7926 77.1759C86.8374 77.1186 86.8711 77.0535 86.8946 76.9806C86.9186 76.9072 86.9329 76.8125 86.9399 76.6971C86.9477 76.6056 86.956 76.474 86.9653 76.3009C86.975 76.1272 86.98 76.0076 86.981 75.9439V73.2015C86.9833 72.525 86.9108 72.0245 86.7575 71.7063C86.5252 71.2058 86.105 70.955 85.5093 70.9527C84.8453 70.9504 84.3157 71.2667 83.9232 71.8915C83.7754 72.1274 83.6609 72.3962 83.5782 72.6959C83.4951 72.9965 83.4531 73.292 83.4517 73.5829V75.943C83.4466 76.3641 83.4642 76.6777 83.5048 76.8813C83.5464 77.0909 83.6456 77.2382 83.81 77.3061C83.9536 77.3652 84.1674 77.3957 84.4463 77.4008V77.5929L81.5118 77.5924C81.2514 77.6012 80.7559 77.6146 80.5103 77.6113C80.2526 77.6077 80.1284 77.5804 79.8934 77.5629C79.6846 77.5019 79.5969 77.4474 79.5281 77.3107ZM76.0681 75.8082C76.0732 76.2524 76.1812 76.6135 76.3969 76.8859C76.613 77.1597 76.9057 77.3001 77.2668 77.307C77.6316 77.302 77.9766 77.2068 78.2993 77.0221C78.6212 76.8374 78.8747 76.5913 79.0585 76.2852C79.1707 76.0898 79.2524 75.8386 79.3037 75.5343C79.3545 75.2314 79.3799 74.8546 79.3789 74.4044V73.7048C78.7256 73.7612 78.2582 73.8226 77.9184 73.8946C77.5762 73.9671 77.2742 74.0705 77.011 74.2058C76.3863 74.5161 76.0727 75.0541 76.0681 75.8082Z" fill="#3A3A3A"/>
<path fill-rule="evenodd" clip-rule="evenodd" d="M18.6579 73.476V75.9072C18.6528 76.2973 18.675 76.5869 18.7249 76.7757C18.7752 76.9651 18.8833 77.0897 19.05 77.1507C19.2166 77.2121 19.4725 77.2463 19.8174 77.2532V77.5926H16V77.2532C16.3255 77.2463 16.5661 77.2121 16.7222 77.1507C16.8783 77.0897 16.9794 76.9651 17.0256 76.7757C17.0718 76.5869 17.0921 76.2973 17.087 75.9072V69.5163C17.0921 69.1262 17.0718 68.8362 17.0274 68.6468C16.9826 68.4575 16.8857 68.3315 16.7365 68.2687C16.5869 68.2054 16.3579 68.1685 16.048 68.1569V67.8171H19.6849C20.9109 67.812 21.8085 68.0285 22.3793 68.4658C22.9495 68.9036 23.2312 69.5935 23.2248 70.5355C23.2285 71.8598 22.7131 72.7265 21.6783 73.1361C21.4082 73.2419 21.0637 73.3245 20.6453 73.3845C20.227 73.4441 19.762 73.4746 19.2499 73.476H18.6579ZM18.6579 73.0969H19.2864C20.0414 73.0945 20.5969 72.9158 20.9533 72.5612C21.1473 72.3557 21.2941 72.087 21.3943 71.754C21.4945 71.4216 21.5449 71.0415 21.5453 70.614C21.5412 69.0042 20.8365 68.1985 19.4309 68.1962H18.6579V73.0969Z" fill="#3A3A3A"/>
<path fill-rule="evenodd" clip-rule="evenodd" d="M29.3712 73.8864H24.929C24.9341 74.3602 24.9618 74.7577 25.0126 75.0787C25.0629 75.3991 25.1442 75.6924 25.2559 75.9579C25.6249 76.8177 26.1947 77.2471 26.9659 77.2471C27.4027 77.2448 27.7989 77.1164 28.154 76.8615C28.5095 76.6066 28.8046 76.2405 29.0406 75.7621L29.355 75.9708C29.0456 76.5863 28.6679 77.0384 28.2219 77.327C27.7758 77.6156 27.2314 77.7583 26.5886 77.7555C25.5773 77.7426 24.6478 77.4194 24.0651 76.7867C23.4828 76.1537 23.1859 75.2865 23.1743 74.1861C23.1859 73.0774 23.4731 72.2005 24.0355 71.5545C24.5975 70.9089 25.4956 70.5788 26.463 70.5645C27.1067 70.5663 27.7278 70.7127 28.1688 71.0041C28.6097 71.2959 28.9348 71.7226 29.1449 72.2841C29.2133 72.4706 29.265 72.684 29.3005 72.9241C29.3356 73.1642 29.3592 73.4851 29.3712 73.8864ZM24.9415 73.5087H27.7204C27.7093 73.1069 27.6876 72.7832 27.6557 72.538C27.6243 72.2928 27.5745 72.0735 27.5066 71.8805C27.272 71.1962 26.9114 70.8577 26.4256 70.8642C25.8807 70.8688 25.4739 71.2506 25.2056 72.0107C25.1373 72.2074 25.0823 72.4231 25.0408 72.6572C24.9992 72.8913 24.966 73.1753 24.9415 73.5087Z" fill="#3A3A3A"/>
<path d="M29.6552 70.7509L32.1192 70.5805C32.1321 70.8261 32.1423 71.033 32.1487 71.1997C32.1552 71.3669 32.1584 71.5146 32.1584 71.6421V72.0355C32.6936 71.057 33.3401 70.5629 34.0983 70.5542C34.4257 70.5606 34.6917 70.6562 34.8962 70.8409C35.1003 71.0256 35.2061 71.2625 35.2121 71.5507C35.2075 71.7903 35.1188 71.9824 34.9466 72.1269C34.7748 72.2719 34.549 72.3463 34.2687 72.35C33.9321 72.3606 33.727 72.2211 33.6527 71.9307C33.6042 71.7511 33.5539 71.6287 33.5017 71.5636C33.45 71.4985 33.3733 71.468 33.2727 71.4717H33.2463C32.9887 71.4939 32.7439 71.6989 32.5126 72.0877C32.4078 72.2821 32.3288 72.4963 32.2762 72.7318C32.224 72.9669 32.1977 73.237 32.1977 73.5427V75.9674C32.1926 76.3544 32.2115 76.6398 32.254 76.8231C32.2965 77.0064 32.393 77.1265 32.5435 77.1832C32.6936 77.2396 32.9282 77.2714 33.2463 77.2779V77.5928H29.603V77.2779C29.8999 77.2793 30.1197 77.2507 30.2629 77.1916C30.406 77.1329 30.4988 77.0101 30.5418 76.8231C30.5843 76.6356 30.6032 76.3507 30.5991 75.9674V72.3366C30.6111 71.7963 30.557 71.4454 30.4365 71.2833C30.3165 71.1212 30.0556 71.0487 29.6552 71.0653V70.7509Z" fill="#3A3A3A"/>
<path d="M38.1388 70.5809L38.1522 71.8785C38.6828 71.0048 39.4428 70.5634 40.4324 70.5546C41.4395 70.5482 42.0597 71.0067 42.2933 71.9311C42.5782 71.4551 42.9033 71.106 43.2681 70.8839C43.6334 70.6622 44.0596 70.5523 44.5476 70.5546C45.3188 70.5592 45.8868 70.8123 46.2516 71.3147C46.3942 71.5049 46.4954 71.7377 46.5563 72.0129C46.6168 72.2881 46.6464 72.645 46.6445 73.0842V75.9674C46.6404 76.3507 46.6593 76.6356 46.7018 76.8226C46.7447 77.0101 46.8375 77.1329 46.9807 77.1916C47.1238 77.2507 47.3436 77.2793 47.641 77.2779V77.5928H44.0891V77.2779C44.3731 77.2793 44.5837 77.2507 44.7213 77.1916C44.8589 77.1329 44.9485 77.0101 44.99 76.8226C45.0316 76.6356 45.05 76.3507 45.0459 75.9674V73.0971C45.0487 72.4086 44.9642 71.9118 44.7919 71.6065C44.6192 71.3013 44.3417 71.1517 43.958 71.1577C43.4971 71.1489 43.1083 71.389 42.7916 71.8785C42.5187 72.2872 42.3829 72.7282 42.3852 73.2024V75.9674C42.381 76.3507 42.3995 76.6356 42.4415 76.8226C42.4831 77.0101 42.5741 77.1329 42.7135 77.1916C42.853 77.2507 43.0668 77.2793 43.3549 77.2779V77.5928H39.8427V77.2779C40.1267 77.2793 40.3377 77.2507 40.4749 77.1916C40.6125 77.1329 40.7021 77.0101 40.7436 76.8226C40.7852 76.6356 40.8037 76.3507 40.7995 75.9674V73.0842C40.806 71.7866 40.4523 71.1443 39.7379 71.1577C39.2932 71.1734 38.9206 71.3844 38.6204 71.7898C38.3203 72.1957 38.1642 72.7014 38.1522 73.3072V75.9674C38.1481 76.3548 38.1665 76.6421 38.2081 76.8286C38.2492 77.0156 38.3388 77.1375 38.4764 77.1948C38.614 77.2521 38.8245 77.2798 39.1085 77.2779V77.5928H35.5566V77.2779C35.854 77.2798 36.0738 77.2521 36.217 77.1948C36.3601 77.1375 36.4534 77.0156 36.4959 76.8286C36.5384 76.6421 36.5573 76.3548 36.5531 75.9674V72.3241C36.5665 71.7908 36.5134 71.4454 36.3924 71.287C36.2719 71.1291 36.0022 71.0552 35.5834 71.0658V70.7513L38.1388 70.5809Z" fill="#3A3A3A"/>
<path d="M56.959 71.1807V75.5582C56.9586 75.8431 56.9692 76.0791 56.99 76.2656C57.0112 76.4522 57.0444 76.6096 57.0902 76.7375C57.1456 76.8839 57.231 77.0007 57.3474 77.088C57.4633 77.1753 57.5916 77.2205 57.732 77.2224C58.0118 77.2182 58.3175 77.0829 58.6495 76.816L58.8329 77.1439C58.3069 77.5849 57.708 77.8033 57.0375 77.7991C56.3144 77.7881 55.8208 77.5479 55.5566 77.0783C55.5049 76.9744 55.4643 76.8558 55.4357 76.7228C55.407 76.5898 55.3872 76.4102 55.3761 76.1843C55.365 75.9581 55.3595 75.6529 55.3599 75.2696V71.1807H54.6128V70.7877C54.8982 70.7766 55.1401 70.7166 55.3387 70.6072C55.5372 70.4977 55.7104 70.3264 55.8582 70.0928C55.9741 69.915 56.0697 69.7169 56.1449 69.4999C56.2197 69.2824 56.2858 69.0127 56.343 68.6904L56.9983 68.6248C56.9895 68.7984 56.9821 68.9744 56.9766 69.1526C56.9706 69.3308 56.9664 69.5456 56.9636 69.7968C56.9604 70.0475 56.959 70.3694 56.959 70.7609H58.5447V71.1807H56.959Z" fill="#3A3A3A"/>
<path fill-rule="evenodd" clip-rule="evenodd" d="M54.6064 77.3152V77.5922C54.2227 77.6176 54.068 77.6172 53.6649 77.6176C53.3449 77.6181 53.0138 77.6125 52.7391 77.5091C52.5691 77.4454 52.474 77.3909 52.3475 77.257C52.2588 77.1166 52.2025 77.1092 52.1739 76.7181C51.8359 77.0834 51.4835 77.3521 51.1178 77.5239C50.7516 77.6961 50.3564 77.7811 49.9329 77.7797C49.304 77.7728 48.8122 77.5992 48.4571 77.2584C48.1016 76.9176 47.921 76.4494 47.9146 75.8528C47.9122 74.7279 48.6118 74.0288 50.0119 73.7559C50.6431 73.6335 51.3593 73.5509 52.1609 73.507V72.6551C52.1679 71.9726 52.0954 71.4993 51.9448 71.2365C51.7943 70.9733 51.5256 70.8477 51.1386 70.8597C50.7281 70.8509 50.4353 70.9992 50.2608 71.3053C50.1971 71.4101 50.1509 71.5311 50.1213 71.6673C50.0922 71.8036 50.0687 71.9929 50.0511 72.2358C50.0405 72.469 49.9726 72.6347 49.848 72.7336C49.7228 72.8324 49.5238 72.8804 49.2514 72.8781C48.6441 72.8735 48.3385 72.6726 48.3338 72.275C48.3361 72.0432 48.4077 71.822 48.549 71.6115C48.6899 71.4009 48.8893 71.2157 49.147 71.056C49.6928 70.7198 50.409 70.554 51.2961 70.5582C52.1983 70.554 52.8448 70.7327 53.2359 71.0957C53.4119 71.2614 53.5412 71.4734 53.6238 71.7311C53.7069 71.9887 53.7476 72.3184 53.7471 72.7206L53.7337 73.8607L53.7208 75.0008C53.7097 75.3744 53.7055 75.6103 53.7074 75.7087C53.7028 76.1811 53.718 76.5265 53.7522 76.744C53.7863 76.9619 53.8242 77.0575 53.9674 77.1757C54.2176 77.3189 54.4319 77.3147 54.6064 77.3152ZM52.1609 74.8175V73.8085C51.2226 73.8723 50.5572 74.0459 50.1643 74.3294C49.7713 74.6129 49.5806 75.0553 49.5921 75.6565C49.5963 76.128 49.6933 76.502 49.8821 76.7786C50.0715 77.0552 50.3287 77.1965 50.6537 77.203C50.9206 77.2002 51.1668 77.1235 51.3926 76.9716C51.6184 76.8206 51.7961 76.6091 51.925 76.3381C52.0095 76.1718 52.07 75.9696 52.1069 75.7299C52.1439 75.4903 52.1619 75.1864 52.1609 74.8175Z" fill="#3A3A3A"/>
<path fill-rule="evenodd" clip-rule="evenodd" d="M65.8911 77.3152V77.5922C65.5074 77.6176 65.3527 77.6181 64.9496 77.6185C64.6296 77.619 64.2985 77.6135 64.0237 77.51C63.8538 77.4463 63.7587 77.3918 63.6322 77.2579C63.5435 77.1175 63.4872 77.1101 63.4585 76.719C63.1205 77.0843 62.7682 77.353 62.402 77.5248C62.0363 77.697 61.641 77.782 61.2176 77.7806C60.5887 77.7737 60.0969 77.6001 59.7418 77.2593C59.3862 76.9185 59.2057 76.4503 59.1992 75.8537C59.1969 74.7288 59.896 74.0297 61.2966 73.7568C61.9278 73.6344 62.644 73.5518 63.4456 73.5079V72.656C63.4525 71.9735 63.38 71.5002 63.2295 71.2374C63.0785 70.9742 62.8098 70.8486 62.4233 70.8606C62.0128 70.8519 61.72 71.0001 61.5454 71.3062C61.4817 71.4111 61.4351 71.532 61.406 71.6683C61.3769 71.8045 61.3534 71.9938 61.3358 72.2367C61.3252 72.4699 61.2573 72.6357 61.1326 72.7349C61.0075 72.8333 60.8085 72.8813 60.536 72.879C59.9288 72.8744 59.6231 72.6735 59.6185 72.2759C59.6208 72.0441 59.6924 71.8229 59.8337 71.6124C59.9745 71.4018 60.174 71.2167 60.4312 71.0569C60.9775 70.7207 61.6937 70.5549 62.5807 70.5591C63.483 70.5549 64.1295 70.7336 64.5206 71.0966C64.6965 71.2624 64.8258 71.4743 64.9085 71.732C64.9916 71.9896 65.0322 72.3193 65.0318 72.7215L65.0184 73.8616L65.0054 75.0017C64.9944 75.3753 64.9902 75.6113 64.9921 75.7096C64.9874 76.182 65.0027 76.5274 65.0368 76.7453C65.071 76.9628 65.1089 77.0584 65.252 77.1766C65.5023 77.3198 65.7166 77.3147 65.8911 77.3152ZM63.4456 74.8184V73.8095C62.5073 73.8732 61.8414 74.0468 61.4489 74.3303C61.056 74.6138 60.8653 75.0562 60.8768 75.6574C60.881 76.1289 60.9779 76.5029 61.1668 76.7795C61.3561 77.0561 61.6133 77.1974 61.9384 77.2039C62.2053 77.2011 62.4514 77.1245 62.6772 76.9725C62.903 76.8211 63.0803 76.6101 63.2096 76.3385C63.2941 76.1732 63.3546 75.9705 63.3916 75.7309C63.4285 75.4917 63.4465 75.1874 63.4456 74.8184Z" fill="#3A3A3A"/>
<path d="M42.3931 44.808L42.3613 45.4281L54.2589 59.3848L54.686 59.4546L54.7399 59.4279L54.9487 59.041L49.8749 42.0579L49.0138 41.4776L42.3931 44.808Z" fill="#0097B9"/>
<path d="M61.4861 41.1412L69.1789 44.6782L69.1931 45.676L56.5683 64.7995L55.992 64.9515L55.9069 64.9124L55.7271 64.4813L60.8155 41.5139L61.4861 41.1412Z" fill="#80B13A"/>
<path d="M49.7349 35.6999L50.0412 35.1099L59.8903 35.0033L60.5268 35.6642L55.8081 51.4294L55.5092 51.603L55.4995 51.6024L55.1762 51.3846L49.7349 35.6999Z" fill="#D81936"/>
<path fill-rule="evenodd" clip-rule="evenodd" d="M45.9115 46.1063L54.7099 59.4918L54.2419 59.4152L42.3291 45.4221L45.9115 46.1063Z" fill="#005874"/>
<path d="M49.0261 41.4626L49.8844 42.0452L47.2188 45.5895L45.981 45.0484L49.0261 41.4626Z" fill="#2FB8E7"/>
<path d="M45.9806 45.048L45.9114 46.1065L42.3296 45.4224L42.367 44.8069L45.9806 45.048Z" fill="#007592"/>
<path d="M47.2188 45.59L49.8901 42.0399L55.0279 59.0373L54.7664 59.4769L47.2188 45.59Z" fill="#007592"/>
<path d="M69.2195 45.6736L56.605 64.8385L55.96 65.0262L64.0681 46.1121L69.2195 45.6736Z" fill="#6E9123"/>
<path d="M62.6151 45.3132L55.8872 64.9671L55.6978 64.4849L60.8061 41.4943L62.6151 45.3132Z" fill="#3F7937"/>
<path d="M69.1988 44.6778L69.2192 45.6734L64.0678 46.1124L63.7773 44.7481L69.1988 44.6778Z" fill="#A5C550"/>
<path d="M63.7777 44.7481L62.6148 45.312L60.8052 41.4925L61.47 41.1175L63.7777 44.7481Z" fill="#5D8B27"/>
<path d="M54.2603 36.7603L53.5506 37.5988L49.7017 35.6819L50.0125 35.0988L54.2603 36.7603Z" fill="#AF2C35"/>
<path d="M49.7012 35.6819L53.5507 37.5987L55.5022 51.6349L55.1607 51.4023L49.7012 35.6819Z" fill="#762624"/>
<path d="M55.4023 37.6008L60.5442 35.6573L55.8323 51.4508L55.509 51.6346L55.4023 37.6008Z" fill="#B22B37"/>
<path d="M54.2607 36.7603L55.4021 37.601L60.5445 35.6575L59.9006 35L54.2607 36.7603Z" fill="#DC505E"/>
</g>
<rect x="1" y="1" width="110" height="110" rx="9" stroke="black" stroke-opacity="0.1" stroke-width="2"/>
<defs>
<clipPath id="clip0_6700_50353">
<rect x="2" y="2" width="108" height="108" rx="8" fill="white"/>
</clipPath>
</defs>
</svg>
