<svg width="112" height="112" viewBox="0 0 112 112" fill="none" xmlns="http://www.w3.org/2000/svg">
<g clip-path="url(#clip0_6700_50850)">
<rect x="2" y="2" width="108" height="108" rx="8" fill="white"/>
<g clip-path="url(#clip1_6700_50850)">
<path fill-rule="evenodd" clip-rule="evenodd" d="M17.6901 29H94.3099C95.2394 29 96 29.7606 96 30.6901V80.9108C96 81.8403 95.2394 82.5998 94.3099 82.5998H17.6901C16.7616 82.5998 16 81.8392 16 80.9108V30.6901C16 29.7606 16.7606 29 17.6901 29Z" fill="#22508E"/>
<path fill-rule="evenodd" clip-rule="evenodd" d="M55.0685 72.0524L52.2275 70.5868L55.0695 69.1212L57.965 67.6284V69.2429H58.1748C63.1433 69.2314 71.5055 68.4529 78.7232 66.2971C84.4942 64.5734 91.3836 61.3727 91.436 55.909C91.4549 53.9452 90.2065 52.19 87.7243 50.694C85.6125 49.4205 82.5272 48.2885 78.5543 47.3307C74.7975 46.4253 69.6623 45.4297 57.9325 44.2684C58.6836 44.2516 59.4473 44.2432 60.2195 44.2432C71.9209 44.2432 86.3375 46.1819 91.7067 51.6214C93.1796 53.1132 93.9139 54.8159 93.8898 56.6812C93.8111 62.7585 86.7455 66.4219 80.8319 68.4246C73.1715 71.0201 64.3675 71.9412 59.1567 71.9412H59.1546C58.8221 71.9412 58.4937 71.938 58.179 71.9307L57.9639 71.9254V73.5441L55.0674 72.0513L55.0685 72.0524Z" fill="#F58220"/>
<path d="M61.854 44.4656C67.6869 44.5537 73.4233 45.1129 78.1651 46.0634C81.1928 46.6697 83.8375 47.4335 86.0259 48.3346C88.421 49.3208 90.282 50.4758 91.5588 51.7693C92.9908 53.2202 93.7052 54.8725 93.6811 56.679C93.6034 62.6336 86.6144 66.2456 80.7658 68.2274C73.1285 70.8144 64.3529 71.7324 59.1578 71.7324C58.8253 71.7324 58.4979 71.7292 58.1853 71.7219L57.7562 71.7124V72.1415V73.2011L55.165 71.8666L52.685 70.5878L55.165 69.309L57.7552 67.9735V69.4537H58.1759C63.158 69.4412 71.5443 68.6606 78.783 66.4985C82.6006 65.3581 85.6252 63.9733 87.7716 62.3819C90.3188 60.4935 91.6228 58.3167 91.6448 55.9122C91.6647 53.8686 90.3817 52.0526 87.8314 50.5146C85.7007 49.2295 82.5954 48.0902 78.6026 47.1271C75.2843 46.3267 70.8929 45.458 61.8529 44.4656M60.2184 44.0334C58.3007 44.0334 56.4732 44.0848 54.7978 44.1792C69.3685 45.5262 91.3017 47.8699 91.2241 55.9069C91.1318 65.6005 68.8325 69.0079 58.1727 69.032V67.2842L54.9709 68.9345L51.7681 70.5868L54.9709 72.2391L58.1738 73.8893V72.1415C58.4906 72.1488 58.8169 72.152 59.1557 72.152C70.6914 72.152 93.9517 67.9011 94.0986 56.6843C94.2255 46.9519 74.6297 44.0334 60.2184 44.0334Z" fill="white"/>
<path fill-rule="evenodd" clip-rule="evenodd" d="M52.7555 67.2202C41.054 67.2202 26.6375 65.2815 21.2672 59.842C19.7943 58.3502 19.0599 56.6476 19.0841 54.7823C19.1628 48.705 26.2283 45.0416 32.142 43.0378C39.8035 40.4424 48.6063 39.5213 53.8171 39.5213C54.1508 39.5213 54.4802 39.5244 54.7949 39.5318L55.01 39.537V37.9183L57.9065 39.4111L60.7474 40.8767L57.9054 42.3423L55.01 43.8351V42.2206H54.8001C49.8317 42.2321 41.4694 43.0105 34.2517 45.1664C28.4807 46.89 21.5914 50.0908 21.5389 55.5544C21.52 57.5183 22.7685 59.2734 25.2506 60.7694C27.3624 62.043 30.4477 63.175 34.4206 64.1328C38.1774 65.0382 43.3127 66.0337 55.0425 67.1951C54.2913 67.2118 53.5276 67.2202 52.7555 67.2202Z" fill="#F58220"/>
<path d="M55.2199 38.2623L57.8112 39.5968L60.2912 40.8756L57.8112 42.1544L55.221 43.4899V42.0097H54.8003C49.8182 42.0223 41.4318 42.8028 34.1931 44.9649C30.3755 46.1053 27.351 47.4901 25.2046 49.0816C22.6574 50.9699 21.3534 53.1468 21.3314 55.5513C21.3114 57.5949 22.5945 59.4108 25.1448 60.9488C27.2755 62.2339 30.3808 63.3732 34.3736 64.3363C37.6918 65.1367 42.0833 66.0054 51.1233 66.9978C45.2914 66.9097 39.555 66.3495 34.8142 65.4011C31.7865 64.7947 29.1418 64.031 26.9524 63.1298C24.5573 62.1437 22.6962 60.9887 21.4195 59.6951C19.9875 58.2443 19.2731 56.5919 19.2972 54.7854C19.3748 48.8308 26.3638 45.2188 32.2125 43.2371C39.8498 40.6501 48.6254 39.7321 53.8205 39.7321C54.153 39.7321 54.4803 39.7353 54.793 39.7426L55.222 39.752V39.323V38.2634M54.8024 37.5752V39.323C54.4856 39.3156 54.1593 39.3125 53.8205 39.3125C42.2847 39.3125 19.0244 43.5634 18.8776 54.7802C18.7506 64.5125 38.3475 67.4311 52.7577 67.4311C54.6755 67.4311 56.503 67.3797 58.1773 67.2853C43.6066 65.9382 21.6734 63.5946 21.751 55.5575C21.8433 45.864 44.1427 42.4566 54.8024 42.4325V44.1802L58.0042 42.53L61.2071 40.8777L58.0042 39.2254L54.8013 37.5752H54.8024Z" fill="white"/>
<path fill-rule="evenodd" clip-rule="evenodd" d="M28.9866 50.3447H33.9172C34.8446 50.3447 35.5496 50.4506 36.0312 50.6573C36.5106 50.8671 36.882 51.1776 37.1474 51.5889C37.4117 52.0012 37.5576 52.5058 37.5827 53.1027C37.6153 53.878 37.4222 54.5662 37.0058 55.1705C36.5914 55.7747 36.0532 56.2111 35.3954 56.4724C34.7387 56.7346 33.8176 56.8679 32.6321 56.8679H31.1435L30.4616 60.6823H27.0762L28.3938 53.5549L27.6144 53.558L28.9855 50.3447H28.9866ZM31.5316 54.8222H32.6646C33.1923 54.8222 33.6183 54.6753 33.9445 54.3794C34.2708 54.0836 34.425 53.729 34.4082 53.3209C34.382 52.702 34.0148 52.3914 33.3098 52.3914H31.9901L31.5327 54.8222H31.5316Z" fill="white"/>
<path fill-rule="evenodd" clip-rule="evenodd" d="M48.5865 60.6823H44.8738L42.5396 56.7294L41.7759 60.6823H38.8164L40.1928 53.5528L39.3032 53.5507L40.8128 50.3447H45.8516C46.9615 50.3447 47.7703 50.6237 48.2781 51.1829C48.7859 51.741 48.9516 52.4754 48.7754 53.3902C48.661 53.985 48.4459 54.5127 48.1302 54.9701C47.8154 55.4243 46.63 56.358 45.797 56.4356L48.5855 60.6823H48.5865ZM42.9666 54.5169H44.2339C44.6053 54.5169 44.92 54.434 45.1791 54.2682C45.4361 54.1004 45.5966 53.8549 45.6585 53.5318C45.7865 52.873 45.4718 52.5425 44.7144 52.5425H43.3495L42.9676 54.5169H42.9666Z" fill="white"/>
<path fill-rule="evenodd" clip-rule="evenodd" d="M55.6885 50.3447L53.8463 60.6823H50.7012L51.9779 53.516H51.1984L52.5423 50.3447H55.6885Z" fill="white"/>
<path fill-rule="evenodd" clip-rule="evenodd" d="M56.2197 60.6823L59.368 52.7964H58.4532L60.3468 50.3447H63.7836L64.9827 55.7076L68.6682 50.3447H71.978L71.977 60.6823H68.7919L68.7773 54.6847L64.6995 60.7526L63.3325 60.6823L61.6792 54.6847L59.4121 60.6823H56.2197Z" fill="white"/>
<path fill-rule="evenodd" clip-rule="evenodd" d="M85.5163 60.6823H81.9505L81.7889 58.9902H77.9514L77.0366 60.6823H73.1172L78.1895 52.7964H77.1897L79.7652 50.3447H83.6447L85.5163 60.6823ZM81.556 56.7976L81.1972 53.0303H81.1637L79.141 56.7976H81.555H81.556Z" fill="white"/>
</g>
</g>
<rect x="1" y="1" width="110" height="110" rx="9" stroke="black" stroke-opacity="0.1" stroke-width="2"/>
<defs>
<clipPath id="clip0_6700_50850">
<rect x="2" y="2" width="108" height="108" rx="8" fill="white"/>
</clipPath>
<clipPath id="clip1_6700_50850">
<rect width="80" height="53.5998" fill="white" transform="translate(16 29)"/>
</clipPath>
</defs>
</svg>
