<svg width="112" height="112" viewBox="0 0 112 112" fill="none" xmlns="http://www.w3.org/2000/svg">
<g clip-path="url(#clip0_6700_50621)">
<rect x="2" y="2" width="108" height="108" rx="8" fill="white"/>
<path fill-rule="evenodd" clip-rule="evenodd" d="M27.7598 43C21.2814 43 16.0293 48.2521 16.0293 54.7175C16.0252 57.189 16.807 59.5978 18.2617 61.5959C18.7664 61.355 19.2884 61.1522 19.8233 60.9892C18.4553 59.273 17.6423 57.0921 17.6423 54.7305C17.6423 49.1686 22.1719 44.639 27.7338 44.639C33.2957 44.639 37.8252 49.1683 37.8252 54.7302C37.8252 58.2921 35.9671 61.4406 33.1538 63.2343C33.4249 63.2343 33.696 63.2343 33.9798 63.2216C34.896 63.1698 35.7607 62.7568 36.4963 62.4216C38.3544 60.3435 39.49 57.7368 39.49 54.7171C39.49 48.2524 34.2379 43 27.7598 43Z" fill="#EA5F00"/>
<path fill-rule="evenodd" clip-rule="evenodd" d="M35.1928 66.3841C34.5347 66.6035 33.8896 66.7324 33.2703 66.7454C30.6506 66.8486 28.7665 66.0616 26.9598 65.2873C25.3465 64.6032 23.8366 63.9581 21.9785 64.0613C20.2233 64.2032 18.9976 65.1841 18.9458 65.2225C18.5846 65.5067 18.5331 66.0356 18.8169 66.3971C19.1008 66.7584 19.6427 66.8229 20.0042 66.539C20.0169 66.539 20.8944 65.8422 22.1074 65.7517C23.5271 65.6873 24.8306 66.2162 26.3144 66.8616C28.0049 67.5841 29.889 68.3844 32.4055 68.4616C32.7154 68.4746 33.0249 68.4616 33.3477 68.4489C34.135 68.4232 34.9477 68.2679 35.7608 67.9971C35.971 67.9226 36.1439 67.769 36.2427 67.569C36.3415 67.369 36.3585 67.1383 36.29 66.926C36.122 66.4616 35.6319 66.2292 35.1928 66.3841Z" fill="#2673DD"/>
<path fill-rule="evenodd" clip-rule="evenodd" d="M37.8897 62.6016C37.0897 63.1565 35.4767 64.0984 33.6313 64.1632C31.2827 64.2663 29.7468 63.5822 28.1081 62.8854C26.3916 62.1371 24.611 61.3629 21.9395 61.479C19.4617 61.5692 17.3586 62.9889 16.3259 63.8146C16.2362 63.8861 16.1616 63.9748 16.1064 64.0754C16.0513 64.176 16.0167 64.2865 16.0047 64.4006C15.9927 64.5147 16.0036 64.6301 16.0366 64.7399C16.0696 64.8498 16.1241 64.952 16.197 65.0406C16.2685 65.1303 16.3571 65.2049 16.4577 65.2601C16.5583 65.3152 16.6689 65.3498 16.783 65.3618C16.8971 65.3738 17.0125 65.3629 17.1223 65.3299C17.2322 65.2969 17.3344 65.2424 17.423 65.1695C18.2875 64.4727 20.0294 63.2857 22.004 63.2083C24.2881 63.1178 25.7979 63.7759 27.3983 64.4727C28.9729 65.1568 30.5856 65.8664 32.9087 65.9051C33.1668 65.9051 33.4249 65.9051 33.696 65.8924C35.9798 65.8019 37.9157 64.6794 38.8833 64.021C39.2833 63.7502 39.3738 63.2083 39.1027 62.8083C38.8319 62.421 38.277 62.3178 37.89 62.6019L37.8897 62.6016Z" fill="#2673DD"/>
<path fill-rule="evenodd" clip-rule="evenodd" d="M28.4176 62.0219L28.4433 62.0346C29.463 62.4476 30.4437 62.8476 31.5922 63.067C34.7795 61.6089 36.9992 58.3956 36.9992 54.6661C37.0119 49.5816 32.857 45.4394 27.7726 45.4394C22.6878 45.4394 18.5195 49.5816 18.5195 54.6661C18.5166 56.8987 19.329 59.0555 20.804 60.7315C21.0878 60.6797 21.3716 60.654 21.6684 60.6283C24.6107 60.4603 26.6367 61.2864 28.4176 62.0219ZM29.0757 55.8019C28.9083 55.6341 28.7113 55.4985 28.4948 55.4019C28.263 55.2854 28.0046 55.1953 27.7338 55.1048C27.4703 55.0202 27.2118 54.9211 26.9592 54.808C26.4173 54.6016 25.9656 54.2918 25.5916 53.853C25.217 53.4273 25.0494 52.8854 25.0494 52.2273C25.0624 51.8013 25.1529 51.4273 25.3075 51.1045C25.4754 50.7819 25.6948 50.5108 25.9786 50.3045C26.2627 50.0981 26.5722 49.9299 26.9208 49.827C27.2813 49.7224 27.655 49.6702 28.0303 49.6721H28.0564C28.65 49.6848 29.1789 49.801 29.6176 50.0076C30.0544 50.2257 30.4693 50.485 30.8567 50.7819L29.9405 52.0981C29.6824 51.9045 29.3983 51.7496 29.1145 51.6207C28.8176 51.4915 28.4564 51.4143 28.0306 51.3883C27.7078 51.3626 27.411 51.427 27.1659 51.5819C26.9078 51.7238 26.7786 51.9432 26.7786 52.227C26.7786 52.3949 26.8173 52.5499 26.9078 52.6788C26.9983 52.808 27.1272 52.9242 27.2821 53.0143C27.437 53.1175 27.6046 53.1822 27.7722 53.2597C27.9402 53.3242 28.1208 53.3886 28.2757 53.4534C28.6113 53.5692 28.9468 53.7111 29.2821 53.8788C29.6071 54.043 29.9105 54.2468 30.1856 54.4854C30.4567 54.7178 30.663 55.0016 30.8306 55.3242C30.9856 55.647 31.063 56.0213 31.0503 56.46C31.0373 56.8857 30.9468 57.2727 30.7922 57.5956C30.6243 57.9311 30.3922 58.2019 30.1081 58.4343C29.8113 58.6667 29.4757 58.8343 29.0887 58.9505C28.7014 59.0667 28.2757 59.1184 27.824 59.1054C27.3983 59.0927 27.0113 59.041 26.6627 58.9245C26.3141 58.8086 25.9916 58.6794 25.7075 58.5245C25.4524 58.3881 25.2105 58.2284 24.9849 58.0473C24.7786 57.9051 24.6367 57.7762 24.5462 57.6727L25.4884 56.3438C25.8095 56.6497 26.1804 56.8985 26.5853 57.0794C27.011 57.2857 27.4497 57.3889 27.9014 57.3889C28.2887 57.4019 28.6113 57.3115 28.8951 57.1438C29.1789 56.9762 29.3078 56.7181 29.3211 56.3953C29.3211 56.1502 29.2437 55.9565 29.0757 55.8016V55.8019ZM48.4973 54.6264C48.2262 54.3813 47.9294 54.1876 47.5938 54.007C47.2586 53.8394 46.923 53.6845 46.5748 53.5683C46.4065 53.5038 46.2389 53.4391 46.0583 53.3746C45.8811 53.314 45.7121 53.2316 45.5551 53.1296C45.4002 53.0391 45.284 52.9232 45.1805 52.794C45.0878 52.6617 45.0383 52.5038 45.0389 52.3422C45.0516 52.0584 45.1808 51.8391 45.4262 51.6972C45.684 51.5553 45.9681 51.4908 46.3033 51.5162C46.7294 51.5422 47.1033 51.6197 47.4005 51.7486C47.6973 51.8908 47.9811 52.0454 48.2392 52.2391L49.1684 50.9229C48.7811 50.613 48.3554 50.3549 47.9167 50.1356C47.478 49.9162 46.9484 49.813 46.3551 49.8H46.3294C45.9421 49.7873 45.5678 49.8388 45.2065 49.9549C44.8453 50.0711 44.5354 50.2261 44.2516 50.4324C43.9678 50.6388 43.7484 50.9099 43.5805 51.2324C43.4129 51.5553 43.3224 51.9422 43.3097 52.3683C43.2967 53.0264 43.4773 53.5683 43.8516 53.994C44.2216 54.4205 44.6916 54.7486 45.2195 54.9489C45.4646 55.0524 45.7227 55.1553 46.0068 55.233C46.2776 55.3232 46.5357 55.4267 46.7681 55.5426C47.0002 55.6588 47.1938 55.788 47.3491 55.9556C47.5037 56.1235 47.5938 56.3169 47.5808 56.5619C47.5681 56.8848 47.4262 57.1429 47.1554 57.3105C46.8843 57.4784 46.5487 57.5686 46.1618 57.5559C45.7024 57.5422 45.2503 57.4369 44.8322 57.2461C44.4065 57.0397 44.0322 56.7943 43.7224 56.5105L42.7675 57.8397C42.858 57.9302 43.0129 58.0721 43.2065 58.2397C43.4321 58.4209 43.674 58.5807 43.9291 58.7172C44.2129 58.8721 44.5354 59.0013 44.884 59.1172C45.2453 59.2334 45.6326 59.2851 46.0586 59.2981C46.51 59.3108 46.9357 59.2594 47.323 59.1432C47.7103 59.027 48.0586 58.8591 48.3554 58.627C48.6486 58.399 48.8868 58.1079 49.0522 57.7753C49.2199 57.4397 49.3103 57.0524 49.3233 56.6267C49.336 56.188 49.2586 55.8007 49.091 55.4781C48.9748 55.1426 48.7684 54.8588 48.4973 54.6264ZM71.8935 54.2791C71.971 54.2016 72.0614 54.0981 72.1389 54.008C72.2291 53.9048 72.3065 53.7889 72.371 53.6337C72.4484 53.4791 72.5002 53.3111 72.5519 53.1048C72.5906 52.8984 72.6164 52.653 72.6164 52.3562C72.6162 52.0695 72.5637 51.7853 72.4614 51.5175C72.3611 51.2477 72.2125 50.9984 72.0227 50.7819C71.8291 50.5626 71.6097 50.3689 71.3386 50.214C71.0573 50.0521 70.7452 49.951 70.4224 49.9172C70.203 49.8915 69.9579 49.8657 69.6999 49.8657C69.4287 49.8527 69.1579 49.8527 68.8481 49.8527L66.3446 49.8654V59.3118H69.803C70.1256 59.3118 70.371 59.3118 70.5773 59.2991C70.9259 59.2603 71.2484 59.1829 71.5583 59.0537C71.8548 58.9248 72.1389 58.7442 72.3583 58.5118C72.5906 58.2794 72.7713 57.9956 72.9132 57.6857C73.0507 57.341 73.1207 56.9731 73.1195 56.6019C73.1195 55.9696 72.9906 55.4664 72.7452 55.0921C72.5002 54.7048 72.2164 54.434 71.8935 54.2791ZM67.9189 51.4788H68.7319C69.003 51.4788 69.2481 51.4788 69.4548 51.4915C69.6611 51.5045 69.8548 51.5175 69.9967 51.5302C70.3192 51.5689 70.5773 51.6724 70.771 51.84C70.9773 51.9949 71.0805 52.2273 71.0678 52.5111C71.0805 52.8724 70.9646 53.1435 70.771 53.2984C70.5643 53.453 70.3062 53.5565 69.9837 53.5949C69.8287 53.621 69.6481 53.6337 69.4418 53.6337H67.9062V51.4788H67.9189ZM71.171 57.2343C70.9386 57.4534 70.5643 57.5826 70.0481 57.6086C69.8935 57.6213 69.6999 57.634 69.4418 57.6213H67.9062V55.1822H68.6932C68.9386 55.1822 69.1706 55.1822 69.39 55.1695C69.6094 55.1569 69.803 55.1569 69.9579 55.1695C70.4611 55.1953 70.8354 55.3115 71.1065 55.5178C71.3773 55.7242 71.5195 56.0083 71.5195 56.3826C71.5322 56.7308 71.416 57.0149 71.171 57.2343ZM57.0792 54.2273C56.8986 53.7372 56.6405 53.3111 56.3049 52.9756C55.9824 52.6273 55.5951 52.3692 55.1564 52.1883C54.7186 52.007 54.2492 51.915 53.7754 51.9175C53.1821 51.9175 52.6529 52.0207 52.2011 52.2013C51.7367 52.3949 51.3494 52.6657 51.0399 53.0013C50.73 53.3369 50.4976 53.7242 50.33 54.1629C50.1751 54.6016 50.0976 55.0791 50.0976 55.5822C50.0976 56.1372 50.2008 56.6407 50.3945 57.1051C50.5832 57.5444 50.8549 57.9432 51.1945 58.2797C51.5302 58.6045 51.9243 58.8628 52.356 59.041C52.7948 59.2086 53.2592 59.2991 53.7497 59.2991C54.2014 59.2991 54.6014 59.2603 54.937 59.1829C55.2455 59.1252 55.5478 59.0388 55.8402 58.9248C56.0881 58.8126 56.3256 58.6787 56.55 58.5248C56.7567 58.3829 56.95 58.2407 57.1437 58.0988L56.3049 56.9245C56.1887 57.0149 56.0726 57.1054 55.9306 57.2083C55.7757 57.3115 55.5821 57.4019 55.3757 57.4924C55.1694 57.5696 54.937 57.6343 54.6659 57.6861C54.4078 57.7245 54.111 57.7505 53.7884 57.7375C53.6064 57.7225 53.4254 57.6967 53.2465 57.66C53.0554 57.6094 52.8727 57.5312 52.7043 57.4276C52.5347 57.3077 52.3789 57.1693 52.2399 57.0149C52.0979 56.847 51.9948 56.6403 51.93 56.3953L51.9173 56.3308H57.2986L57.3116 55.9181C57.3373 55.2727 57.2599 54.7178 57.0792 54.2273ZM51.8656 54.9115L51.8786 54.8597C51.9043 54.6534 51.9687 54.5499 52.0335 54.408L52.0722 54.3305C52.1824 54.1457 52.3269 53.9836 52.498 53.853C52.6666 53.7247 52.86 53.6325 53.0659 53.5822C53.2853 53.5175 53.5046 53.4788 53.724 53.4788C54.2402 53.4918 54.6659 53.6337 54.9757 53.9178C55.1306 54.0467 55.2595 54.1759 55.3627 54.3178C55.4662 54.4597 55.5306 54.6273 55.5564 54.8467L55.5694 54.9115H51.8656ZM63.4411 52.64L63.3379 52.5499C63.1186 52.3562 62.8345 52.2013 62.5119 52.0981C62.2021 51.9819 61.8281 51.9172 61.4021 51.9172C60.9246 51.9172 60.4729 52.0076 60.0602 52.1886C59.6521 52.3556 59.2863 52.6112 58.9891 52.9369C58.6792 53.2594 58.4468 53.6597 58.2662 54.1242C58.0986 54.5759 58.0081 55.0921 58.0081 55.6597C58.0081 56.1632 58.0986 56.6407 58.2662 57.0794C58.4468 57.5181 58.6792 57.8921 58.9891 58.228C59.2975 58.5508 59.66 58.8172 60.0602 59.0153C60.4729 59.1956 60.9116 59.2861 61.4021 59.2861C61.8281 59.2861 62.2021 59.2343 62.5119 59.1181C62.8345 59.0022 63.1186 58.8343 63.3379 58.628L63.4411 58.5248V59.273H65.1059V52.1238H63.4411V52.64ZM63.2862 56.5115C63.183 56.7569 63.0411 56.9762 62.8732 57.1438C62.7056 57.3118 62.5119 57.4276 62.2926 57.5181C62.0728 57.5953 61.8416 57.6345 61.6087 57.6343C61.0795 57.6343 60.6408 57.4534 60.2795 57.1051C59.9179 56.7308 59.7503 56.2407 59.7503 55.634C59.7503 55.0403 59.931 54.5499 60.2795 54.1629C60.6408 53.7756 61.0795 53.5819 61.6087 53.5819C61.8538 53.5819 62.0862 53.6337 62.2926 53.7242C62.5249 53.8143 62.7183 53.9432 62.8732 54.1242C63.0411 54.2918 63.183 54.5115 63.2862 54.7822C63.3894 55.0403 63.4411 55.3242 63.4411 55.6597C63.4411 55.9696 63.3894 56.2534 63.2862 56.5115ZM79.043 52.64L78.9398 52.5499C78.7205 52.3562 78.4367 52.2013 78.1138 52.0981C77.8043 51.9819 77.43 51.9172 77.0043 51.9172C76.5268 51.9172 76.0751 52.0076 75.6621 52.1886C75.254 52.3556 74.8882 52.6112 74.591 52.9369C74.2811 53.2594 74.0491 53.6597 73.8684 54.1242C73.7005 54.5759 73.6103 55.0921 73.6103 55.6597C73.6103 56.1632 73.7005 56.6407 73.8684 57.0794C74.0491 57.5181 74.2811 57.8921 74.591 58.228C74.8995 58.5507 75.2619 58.8172 75.6621 59.0153C76.0751 59.1956 76.5138 59.2861 77.0043 59.2861C77.43 59.2861 77.8043 59.2343 78.1138 59.1181C78.4367 59.0022 78.7205 58.8343 78.9398 58.628L79.043 58.5248V59.273H80.7078V52.1626H79.043V52.64ZM78.8881 56.5115C78.7849 56.7569 78.643 56.9762 78.4754 57.1438C78.3075 57.3118 78.1138 57.4276 77.8945 57.5181C77.6747 57.5953 77.4435 57.6346 77.2106 57.6343C76.6814 57.6343 76.2427 57.4534 75.8814 57.1051C75.5202 56.7308 75.3522 56.2407 75.3522 55.634C75.3522 55.0403 75.5329 54.5499 75.8814 54.1629C76.2427 53.7756 76.6814 53.5819 77.2106 53.5819C77.4557 53.5819 77.6751 53.6337 77.8945 53.7242C78.1268 53.8143 78.3205 53.9432 78.4754 54.1242C78.643 54.2918 78.7849 54.5115 78.8881 54.7822C78.9916 55.0403 79.043 55.3242 79.043 55.6597C79.043 55.9696 78.9916 56.2534 78.8881 56.5115ZM92.864 55.2473L95.8967 51.9308H93.7027L91.1992 54.6537V49.7499H89.5218V59.2991H91.1992V57.1315L91.7541 56.5118L93.9221 59.2991H95.9998L92.864 55.2473ZM88.0246 53.5822C87.8697 53.1435 87.5732 52.7565 87.1471 52.434C86.7214 52.1111 86.1792 51.9435 85.5341 51.9435C85.1986 51.9435 84.85 51.9949 84.5018 52.0984C84.1967 52.1898 83.912 52.3387 83.663 52.5372V52.1626H81.9722V59.2991H83.663V55.4794C83.6757 55.2213 83.7018 54.9762 83.7275 54.7438C83.7662 54.4988 83.8306 54.2921 83.9338 54.1115C84.037 53.9308 84.1919 53.7889 84.3856 53.6727C84.5792 53.5565 84.8243 53.4918 85.1211 53.4791C85.4954 53.4664 85.7922 53.5696 86.0246 53.7632C86.2567 53.9696 86.4116 54.2276 86.4891 54.5632C86.5278 54.7181 86.5535 54.9245 86.5795 55.1826C86.5922 55.4276 86.6052 55.7889 86.6052 56.2667V59.2991H88.27V55.854C88.2721 55.4493 88.2592 55.0447 88.2313 54.641C88.2073 54.2809 88.1379 53.9252 88.0246 53.5826V53.5822Z" fill="#EA5F00"/>
</g>
<rect x="1" y="1" width="110" height="110" rx="9" stroke="black" stroke-opacity="0.1" stroke-width="2"/>
<defs>
<clipPath id="clip0_6700_50621">
<rect x="2" y="2" width="108" height="108" rx="8" fill="white"/>
</clipPath>
</defs>
</svg>
