<svg width="112" height="112" viewBox="0 0 112 112" fill="none" xmlns="http://www.w3.org/2000/svg">
<g clip-path="url(#clip0_6700_50665)">
<rect x="2" y="2" width="108" height="108" rx="8" fill="white"/>
<path d="M16 48.6325C16 47.7314 16.7304 47 17.6325 47H32.2913C33.1924 47 33.9238 47.7314 33.9238 48.6325V63.2923C33.9238 64.1934 33.1924 64.9248 32.2913 64.9248H17.6325C16.7304 64.9248 16 64.1934 16 63.2923V48.6325Z" fill="#ED1D24"/>
<path d="M30.1697 56.1281C30.0708 59.5537 27.2617 62.3011 23.8104 62.3011C20.3602 62.3011 17.551 59.5537 17.4521 56.1281H17.7669C17.7945 58.8118 19.9787 60.9794 22.6694 60.9794C25.3606 60.9794 27.5443 58.8118 27.5714 56.1281H30.1697Z" fill="white"/>
<path d="M33.1227 56.1281C33.0344 60.5598 29.4145 64.1249 24.9612 64.1249C20.508 64.1249 16.8881 60.5598 16.8008 56.1281H17.1341C17.24 59.7294 20.1933 62.6159 23.8202 62.6159C27.4466 62.6159 30.3999 59.7294 30.5058 56.1281H33.1227Z" fill="white"/>
<path d="M27.2402 56.1281C27.2207 58.6381 25.18 60.6656 22.6655 60.6656C20.1515 60.6656 18.1104 58.6381 18.0903 56.1281H18.4287C18.4267 56.1652 18.4267 56.2034 18.4267 56.241C18.4267 58.0467 19.8905 59.5106 21.6957 59.5106C23.5019 59.5106 24.9657 58.0467 24.9657 56.241C24.9657 56.2034 24.9657 56.1652 24.9637 56.1281H27.2402Z" fill="white"/>
<path d="M22.6826 55.7968C22.7022 53.2868 24.7433 51.2592 27.2573 51.2592C29.7723 51.2592 31.8124 53.2868 31.8325 55.7968H31.4952C31.4962 55.7596 31.4972 55.7215 31.4972 55.6838C31.4972 53.8781 30.0334 52.4143 28.2272 52.4143C26.421 52.4143 24.9572 53.8781 24.9572 55.6838C24.9572 55.7215 24.9582 55.7596 24.9592 55.7968H22.6826Z" fill="white"/>
<path d="M16.8013 55.7968C16.8886 51.3651 20.5095 47.7999 24.9617 47.7999C29.4149 47.7999 33.0348 51.3651 33.1232 55.7968H32.7889C32.6829 52.1954 29.7307 49.3089 26.1028 49.3089C22.4763 49.3089 19.5241 52.1954 19.4182 55.7968H16.8013Z" fill="white"/>
<path d="M19.7544 55.7968C19.8533 52.3711 22.6625 49.6237 26.1127 49.6237C29.5629 49.6237 32.3721 52.3711 32.471 55.7968H32.1562C32.1296 53.1131 29.9454 50.9455 27.2537 50.9455C24.5635 50.9455 22.3793 53.1131 22.3527 55.7968H19.7544Z" fill="white"/>
<path fill-rule="evenodd" clip-rule="evenodd" d="M88.7158 62.6038L90.7865 62.2881C90.8739 62.6902 91.0531 62.9959 91.3217 63.2067C91.5917 63.4115 91.9682 63.5145 92.4532 63.5145C92.9868 63.5145 93.3879 63.4166 93.6575 63.2208C93.8377 63.0842 93.929 62.9 93.929 62.6706C93.929 62.5135 93.8798 62.3845 93.7819 62.281C93.679 62.1832 93.4496 62.0928 93.0917 62.0095C91.4266 61.642 90.3729 61.3067 89.9266 61.0035C89.3102 60.5823 89.002 59.998 89.002 59.2485C89.002 58.5733 89.269 58.0055 89.8021 57.5447C90.3358 57.0849 91.163 56.8555 92.2835 56.8545C93.3512 56.8545 94.1439 57.0292 94.6634 57.376C95.182 57.7239 95.5389 58.238 95.7347 58.9182L93.7895 59.2781C93.7061 58.9744 93.5465 58.742 93.3121 58.5798C93.0817 58.4192 92.7514 58.3379 92.3211 58.3379C91.778 58.3379 91.3884 58.4142 91.153 58.5653C90.9964 58.6732 90.9181 58.8133 90.9181 58.9839C90.9181 59.131 90.9863 59.2555 91.1239 59.3584C91.3101 59.496 91.9512 59.6887 93.0475 59.9387C94.1484 60.1882 94.9175 60.4949 95.3537 60.8569C95.7839 61.2243 95.9988 61.7354 95.9998 62.391C95.9998 63.1058 95.7006 63.7208 95.1037 64.2343C94.5063 64.7479 93.6228 65.0049 92.4532 65.0049C91.3904 65.0049 90.5481 64.79 89.9266 64.3588C89.3102 63.9286 88.9061 63.3433 88.7158 62.6038Z" fill="#414042"/>
<path fill-rule="evenodd" clip-rule="evenodd" d="M69.0586 57.0309H70.9597V58.0956C71.6404 57.2683 72.4501 56.8552 73.3903 56.8542C73.8893 56.8542 74.3226 56.9576 74.6905 57.1634C75.057 57.3692 75.3582 57.68 75.5936 58.0956C75.9355 57.68 76.3054 57.3692 76.7025 57.1634C77.0986 56.9576 77.5218 56.8542 77.9721 56.8542C78.5444 56.8542 79.0298 56.9721 79.4259 57.2076C79.822 57.438 80.1181 57.7779 80.3144 58.2281C80.4565 58.5605 80.5273 59.0996 80.5273 59.8431V64.8294H78.464V60.3722C78.464 59.5986 78.3928 59.0996 78.2512 58.8742C78.0604 58.58 77.7673 58.434 77.3702 58.434C77.0805 58.434 76.809 58.5223 76.5554 58.6975C76.3004 58.8742 76.1172 59.1337 76.0043 59.4761C75.8913 59.8145 75.8356 60.3496 75.8356 61.084V64.8294H73.7719V60.5554C73.7719 59.7969 73.7352 59.3074 73.6619 59.0871C73.5881 58.8662 73.4737 58.7025 73.3165 58.5946C73.1649 58.4877 72.9571 58.434 72.6931 58.434C72.3743 58.434 72.0882 58.5193 71.8341 58.691C71.5791 58.8612 71.3949 59.1097 71.2835 59.4319C71.1755 59.7557 71.1213 60.2909 71.1213 61.0398V64.8294H69.0586V57.0309Z" fill="#414042"/>
<path fill-rule="evenodd" clip-rule="evenodd" d="M65.861 64.8295H63.7983V57.031H65.715V58.1399C66.0423 57.6163 66.3364 57.2709 66.5955 57.1042C66.86 56.9376 67.1582 56.8553 67.4915 56.8542C67.9614 56.8542 68.4142 56.9848 68.8494 57.2438L68.2114 59.043C67.863 58.8181 67.5407 58.7056 67.2415 58.7056C66.9534 58.7056 66.7079 58.7859 66.5081 58.9476C66.3073 59.1047 66.1482 59.3908 66.0307 59.8065C65.9178 60.2221 65.861 61.0941 65.861 62.4204V64.8295Z" fill="#414042"/>
<path fill-rule="evenodd" clip-rule="evenodd" d="M55.1605 64.8295H53.0978V60.8486C53.0978 60.0078 53.0536 59.4641 52.9653 59.2192C52.8769 58.9692 52.7328 58.7759 52.532 58.6388C52.3358 58.5023 52.0983 58.434 51.8202 58.434C51.4623 58.434 51.1415 58.5309 50.8584 58.7272C50.5737 58.923 50.378 59.182 50.27 59.5058C50.1681 59.8291 50.1159 60.4265 50.1159 61.2969V64.8295H48.0532V57.031H49.9688V58.176C50.6495 57.2955 51.5065 56.8542 52.5386 56.8542C52.9949 56.8542 53.4105 56.9376 53.788 57.1042C54.1645 57.2664 54.4477 57.4742 54.6389 57.7287C54.8352 57.9827 54.9692 58.2719 55.043 58.5947C55.1213 58.9185 55.1605 59.3808 55.1605 59.9832V64.8295Z" fill="#414042"/>
<path fill-rule="evenodd" clip-rule="evenodd" d="M44.6421 57.031H46.7048V64.8295H44.6421V57.031Z" fill="#414042"/>
<path fill-rule="evenodd" clip-rule="evenodd" d="M44.6421 54.0651H46.7048V55.9742H44.6421V54.0651Z" fill="#414042"/>
<path fill-rule="evenodd" clip-rule="evenodd" d="M36.3032 62.6038L38.374 62.2881C38.4623 62.6902 38.6405 62.9959 38.9101 63.2067C39.1792 63.4115 39.5562 63.5145 40.0406 63.5145C40.5742 63.5145 40.9763 63.4166 41.2449 63.2208C41.4261 63.0842 41.5165 62.9 41.5165 62.6706C41.5165 62.5135 41.4673 62.3845 41.3704 62.281C41.2675 62.1832 41.0371 62.0928 40.6801 62.0095C39.015 61.642 37.9603 61.3067 37.515 61.0035C36.8986 60.5823 36.5894 59.998 36.5894 59.2485C36.5894 58.5733 36.8564 58.0055 37.3905 57.5447C37.9242 57.0849 38.7505 56.8555 39.8719 56.8545C40.9387 56.8545 41.7318 57.0292 42.2509 57.376C42.7694 57.7239 43.1274 58.238 43.3232 58.9182L41.3769 59.2781C41.2936 58.9744 41.1349 58.742 40.8995 58.5798C40.6691 58.4192 40.3398 58.3379 39.9086 58.3379C39.3654 58.3379 38.9759 58.4142 38.7414 58.5653C38.5848 58.6732 38.5065 58.8133 38.5065 58.9839C38.5065 59.131 38.5748 59.2555 38.7123 59.3584C38.8975 59.496 39.5386 59.6887 40.636 59.9387C41.7368 60.1882 42.5054 60.4949 42.9411 60.8569C43.3713 61.2243 43.5872 61.7354 43.5872 62.391C43.5872 63.1058 43.288 63.7208 42.6921 64.2343C42.0938 64.7479 41.2102 65.0049 40.0406 65.0049C38.9789 65.0049 38.1365 64.79 37.515 64.3588C36.8986 63.9286 36.4945 63.3433 36.3032 62.6038Z" fill="#414042"/>
<path fill-rule="evenodd" clip-rule="evenodd" d="M86.1343 61.4959C86.1333 61.9898 86.1067 62.3252 86.053 62.5019C85.9747 62.7704 85.8106 62.9978 85.5616 63.1841C85.2237 63.4296 84.8688 63.552 84.4968 63.552C84.1635 63.552 83.8889 63.4461 83.6746 63.2353C83.4587 63.0254 83.3508 62.7755 83.3508 62.4863C83.3508 62.1931 83.4863 61.9507 83.7549 61.7594C83.9311 61.6419 84.3056 61.5225 84.8784 61.4C85.4511 61.277 85.8698 61.1721 86.1343 61.0842V61.4959ZM88.2347 63.786C88.1709 63.4587 88.1383 62.9517 88.1383 62.2664L88.1609 59.8573C88.1599 58.9623 88.068 58.3478 87.8813 58.015C87.7001 57.6772 87.3843 57.4006 86.9345 57.1847C86.4842 56.9653 85.798 56.8544 84.8784 56.8544C83.8653 56.8554 83.1018 57.0356 82.5883 57.3986C82.0732 57.7605 81.7113 58.3182 81.5009 59.0722L83.3734 59.4106C83.5009 59.0476 83.6665 58.7956 83.8724 58.6536C84.0782 58.5065 84.3648 58.4337 84.7313 58.4337C85.2754 58.4337 85.6439 58.519 85.8402 58.6907C86.0365 58.8574 86.1343 59.139 86.1343 59.5351V59.7409C85.7619 59.8965 85.0942 60.0662 84.1294 60.2469C83.4145 60.3839 82.8664 60.5456 82.4848 60.7323C82.1078 60.9125 81.8147 61.1771 81.6038 61.5255C81.393 61.8673 81.2881 62.2589 81.2881 62.6997C81.2881 63.3658 81.5185 63.9155 81.9783 64.3517C82.4427 64.7875 83.0772 65.0048 83.8804 65.0048C84.3352 65.0048 84.7639 64.9195 85.1645 64.7483C85.5666 64.5776 85.9431 64.3196 86.295 63.9772C86.31 64.0164 86.3341 64.0972 86.3688 64.2197C86.4471 64.4893 86.5128 64.6921 86.5676 64.8296H88.6082C88.4275 64.4566 88.302 64.1098 88.2347 63.786Z" fill="#414042"/>
<path fill-rule="evenodd" clip-rule="evenodd" d="M60.8043 61.4959C60.8043 61.9898 60.7767 62.3252 60.724 62.5019C60.6446 62.7704 60.4805 62.9978 60.2315 63.1841C59.8937 63.4296 59.5387 63.552 59.1668 63.552C58.8334 63.552 58.5599 63.4461 58.3445 63.2353C58.1286 63.0254 58.0217 62.7755 58.0217 62.4863C58.0217 62.1931 58.1562 61.9507 58.4258 61.7594C58.601 61.6419 58.9755 61.5225 59.5483 61.4C60.1211 61.277 60.5397 61.1721 60.8043 61.0842V61.4959ZM62.9046 63.786C62.8409 63.4587 62.8082 62.9517 62.8082 62.2664L62.8308 59.8573C62.8308 58.9623 62.738 58.3478 62.5512 58.015C62.37 57.6772 62.0542 57.4006 61.6045 57.1847C61.1542 56.9653 60.4689 56.8544 59.5483 56.8544C58.5353 56.8554 57.7717 57.0356 57.2582 57.3986C56.7431 57.7605 56.3812 58.3182 56.1714 59.0722L58.0433 59.4106C58.1708 59.0476 58.3375 58.7956 58.5423 58.6536C58.7481 58.5065 59.0347 58.4337 59.4012 58.4337C59.9454 58.4337 60.3138 58.519 60.5101 58.6907C60.7064 58.8574 60.8043 59.139 60.8043 59.5351V59.7409C60.4318 59.8965 59.7641 60.0662 58.7993 60.2469C58.0855 60.3839 57.5363 60.5456 57.1548 60.7323C56.7778 60.9125 56.4846 61.1771 56.2738 61.5255C56.0629 61.8673 55.958 62.2589 55.958 62.6997C55.958 63.3658 56.1884 63.9155 56.6483 64.3517C57.1126 64.7875 57.7471 65.0048 58.5503 65.0048C59.0051 65.0048 59.4338 64.9195 59.8344 64.7483C60.2365 64.5776 60.613 64.3196 60.9659 63.9772C60.981 64.0164 61.0041 64.0972 61.0397 64.2197C61.117 64.4893 61.1838 64.6921 61.2375 64.8296H63.2791C63.0974 64.4566 62.9719 64.1098 62.9046 63.786Z" fill="#414042"/>
<path d="M36.7168 52.3499H37.7191V51.8554H37.734C37.9642 52.2825 38.4319 52.4548 38.9962 52.4548C39.761 52.4548 40.5851 51.8329 40.5851 50.4093C40.5851 48.9931 39.761 48.3712 38.9962 48.3712C38.521 48.3712 38.0458 48.551 37.786 48.9482H37.7711V47H36.7168V52.3499ZM39.5308 50.4168C39.5308 51.0611 39.2561 51.6531 38.6324 51.6531C38.0087 51.6531 37.734 51.0611 37.734 50.4168C37.734 49.7649 38.0087 49.1729 38.6324 49.1729C39.2561 49.1729 39.5308 49.7649 39.5308 50.4168Z" fill="#414042"/>
<path d="M43.3372 50.8513C43.3372 51.0836 43.3075 51.743 42.4833 51.743C42.1418 51.743 41.8374 51.6456 41.8374 51.2485C41.8374 50.8588 42.1344 50.7464 42.4611 50.679C42.7878 50.6191 43.159 50.6116 43.3372 50.4542V50.8513ZM41.9562 49.6675C41.9933 49.2479 42.2532 49.083 42.6541 49.083C43.0253 49.083 43.3372 49.1505 43.3372 49.6075C43.3372 50.0421 42.7358 50.0196 42.0898 50.117C41.4364 50.207 40.7831 50.4168 40.7831 51.2934C40.7831 52.0877 41.3622 52.4548 42.0898 52.4548C42.5576 52.4548 43.0476 52.3274 43.3817 51.9753C43.3892 52.1027 43.4189 52.23 43.456 52.3499H44.5252C44.4286 52.1926 44.3915 51.8404 44.3915 51.4882V49.4727C44.3915 48.5435 43.4708 48.3712 42.7061 48.3712C41.8448 48.3712 40.9613 48.6709 40.9019 49.6675H41.9562Z" fill="#414042"/>
<path d="M44.9005 52.3499H45.9548V50.3194C45.9548 49.5326 46.1998 49.2104 46.7715 49.2104C47.2616 49.2104 47.4472 49.5251 47.4472 50.162V52.3499H48.5015V49.9672C48.5015 49.0081 48.2194 48.3712 47.0982 48.3712C46.6527 48.3712 46.1924 48.581 45.9251 49.0156H45.9028V48.4761H44.9005V52.3499Z" fill="#414042"/>
<path d="M49.0889 52.3499H50.1432V51.0162L50.5515 50.6191L51.6059 52.3499H52.8829L51.2717 49.8998L52.7196 48.4761H51.4722L50.1432 49.8698V47H49.0889V52.3499Z" fill="#414042"/>
</g>
<rect x="1" y="1" width="110" height="110" rx="9" stroke="black" stroke-opacity="0.1" stroke-width="2"/>
<defs>
<clipPath id="clip0_6700_50665">
<rect x="2" y="2" width="108" height="108" rx="8" fill="white"/>
</clipPath>
</defs>
</svg>
