<svg width="112" height="112" viewBox="0 0 112 112" fill="none" xmlns="http://www.w3.org/2000/svg">
<g clip-path="url(#clip0_6700_50109)">
<rect x="2" y="2" width="108" height="108" rx="8" fill="white"/>
<path fill-rule="evenodd" clip-rule="evenodd" d="M32.7277 67.0003C32.7205 67.5648 33.4324 67.626 33.8638 67.626H34.0958C34.138 67.626 34.1721 67.6246 34.2229 67.6188C35.2409 67.5662 35.2333 67.1819 35.2333 67.0003C35.2301 66.9045 35.2301 66.8047 35.2333 66.6924V45.6297C35.2409 45.067 34.5254 45 34.0958 45H33.8638C33.4324 45 32.7205 45.067 32.7277 45.6297C32.7277 45.7493 32.7241 45.863 32.7241 45.9821V66.6452C32.7241 66.6564 32.7241 66.6726 32.7277 66.7036" fill="#E1091D"/>
<path fill-rule="evenodd" clip-rule="evenodd" d="M19.3643 67.0003C19.3567 67.5648 20.0695 67.626 20.4999 67.626H20.7315C20.7742 67.626 20.8087 67.6246 20.859 67.6188C21.877 67.5662 21.8694 67.1819 21.8694 67.0003C21.8672 66.9045 21.8672 66.8047 21.8694 66.6924V45.6297C21.877 45.067 21.1616 45 20.7315 45H20.4999C20.0695 45 19.3567 45.067 19.3643 45.6297C19.3643 45.7493 19.3594 45.863 19.3594 45.9821V66.6452C19.3594 66.6564 19.3594 66.6726 19.3643 66.7036" fill="#E1091D"/>
<path fill-rule="evenodd" clip-rule="evenodd" d="M23.8181 67.0003C23.8127 67.5648 24.5237 67.626 24.9551 67.626H25.1867C25.2293 67.626 25.2639 67.6246 25.3146 67.6188C26.3322 67.5662 26.325 67.1819 26.325 67.0003C26.3205 66.9045 26.3205 66.8047 26.325 66.6924V45.6297C26.3322 45.067 25.6167 45 25.1867 45H24.9551C24.5237 45 23.8127 45.067 23.8181 45.6297C23.8181 45.7493 23.8154 45.863 23.8154 45.9821V66.6452C23.8154 66.6564 23.8154 66.6726 23.8181 66.7036" fill="#E1091D"/>
<path fill-rule="evenodd" clip-rule="evenodd" d="M28.2735 67.0003C28.2668 67.5648 28.9782 67.626 29.4091 67.626H29.6412C29.6834 67.626 29.7179 67.6246 29.7678 67.6188C30.7867 67.5662 30.7777 67.1819 30.7777 67.0003C30.7759 66.9045 30.7759 66.8047 30.7777 66.6924V45.6297C30.7867 45.067 30.0703 45 29.6412 45H29.4091C28.9782 45 28.2668 45.067 28.2735 45.6297C28.2735 45.7493 28.2686 45.863 28.2686 45.9821V66.6452C28.2686 66.6564 28.2686 66.6726 28.2735 66.7036" fill="#E1091D"/>
<path fill-rule="evenodd" clip-rule="evenodd" d="M16.6239 55.0598C16.0601 55.0526 16 55.7655 16 56.1984V56.4312C16 56.4735 16.0013 56.5076 16.0054 56.5575C16.0579 57.5761 16.4417 57.5689 16.6239 57.5689C16.72 57.5662 16.8183 57.5662 16.9318 57.5689H37.9642C38.5266 57.5761 38.5926 56.8605 38.5926 56.4312V56.1984C38.5926 55.7655 38.5266 55.0526 37.9642 55.0598C37.8452 55.0598 37.7316 55.0558 37.6118 55.0558H16.9776C16.9664 55.0558 16.9529 55.0558 16.9202 55.0598" fill="#E1091D"/>
<path fill-rule="evenodd" clip-rule="evenodd" d="M69.7197 46.6582C63.7125 46.6582 61.0342 49.6208 61.0342 56.2638C61.0342 62.7522 63.8257 65.9283 69.5675 65.9683H69.8476C75.5997 65.9395 78.3971 62.7643 78.3971 56.2638C78.3971 49.6208 75.7209 46.6582 69.7197 46.6582ZM69.7358 63.1226H69.6918C66.2437 63.1226 64.8998 61.1888 64.8998 56.2323C64.8998 51.3288 66.1889 49.5066 69.6568 49.5066H69.7686C73.2374 49.5066 74.5274 51.3288 74.5274 56.2323C74.5274 61.1888 73.1835 63.1226 69.7358 63.1226Z" fill="#002469"/>
<path fill-rule="evenodd" clip-rule="evenodd" d="M45.5967 64.4983C46.8149 65.4404 48.4721 65.8422 51.1392 65.8422H51.308C53.9949 65.8422 55.657 65.4404 56.8654 64.4996C58.6186 63.1637 58.914 61.5928 58.914 58.5731L58.9171 47.7399C58.9189 47.5826 58.9225 47.3848 58.7475 47.2077C58.471 46.9268 57.8547 46.7852 56.9156 46.7852C55.9852 46.7852 55.3743 46.9268 55.0987 47.2059C54.9223 47.3844 54.9254 47.5826 54.9276 47.7417L54.9281 49.6939V59.0599C54.9285 60.945 54.9285 61.3374 54.0919 62.0283C53.3212 62.6549 52.1568 62.7367 51.229 62.7367C50.3017 62.7367 49.1382 62.6549 48.368 62.0283C47.534 61.3433 47.534 60.9572 47.5344 59.1017L47.5353 47.7417C47.5385 47.5826 47.5407 47.3848 47.3648 47.2059C47.0887 46.9268 46.476 46.7852 45.5424 46.7852C44.6065 46.7852 43.9934 46.9268 43.7182 47.2068C43.5414 47.3848 43.5445 47.5826 43.5463 47.7408L43.5472 47.7871V58.5731C43.5472 61.591 43.843 63.1624 45.5967 64.4983Z" fill="#002469"/>
<path fill-rule="evenodd" clip-rule="evenodd" d="M93.3974 47.9099C92.4054 47.1714 91.2213 46.9093 88.8733 46.9093H81.1502C80.7991 46.9093 80.5137 47.1943 80.5137 47.5444V65.0781C80.5137 65.4319 80.7991 65.7173 81.1502 65.7173H89.2521C91.4511 65.7173 92.9889 65.6467 94.2655 64.6826C95.6982 63.5701 95.9999 61.7479 95.9999 60.4151C95.9999 58.6549 95.4096 57.261 94.3386 56.4915C93.874 56.145 93.3246 55.9369 92.8017 55.753L92.4516 55.6298L92.7865 55.4694C94.3638 54.7151 94.9414 53.6665 94.9167 51.5993C94.9028 50.6324 94.6874 48.8655 93.3974 47.9099ZM84.4461 49.5384H88.7602C90.9941 49.5384 91.1714 50.672 91.1714 52.1549C91.1714 53.9272 90.3599 54.6823 88.4603 54.6823H84.4461V49.5384ZM88.6717 63.024H84.443V57.35H88.9783C91.4928 57.35 91.9982 58.4455 91.9982 60.2155C91.9982 62.5992 91.127 63.024 88.6717 63.024Z" fill="#002469"/>
</g>
<rect x="1" y="1" width="110" height="110" rx="9" stroke="black" stroke-opacity="0.1" stroke-width="2"/>
<defs>
<clipPath id="clip0_6700_50109">
<rect x="2" y="2" width="108" height="108" rx="8" fill="white"/>
</clipPath>
</defs>
</svg>
