<svg width="40" height="40" viewBox="0 0 40 40" fill="none" xmlns="http://www.w3.org/2000/svg">
<path d="M4 4C4 1.79086 5.79086 0 8 0H24L36 12V36C36 38.2091 34.2091 40 32 40H8C5.79086 40 4 38.2091 4 36V4Z" fill="url(#paint0_linear_6726_49492)"/>
<path d="M24 0L36 12H28C25.7909 12 24 10.2091 24 8V0Z" fill="#CDD5DF"/>
<path d="M14.2729 32.09C13.8049 32.09 13.3729 32.009 12.9769 31.847C12.5809 31.679 12.2359 31.445 11.9419 31.145C11.6539 30.845 11.4289 30.491 11.2669 30.083C11.1049 29.669 11.0239 29.219 11.0239 28.733C11.0239 28.247 11.1019 27.803 11.2579 27.401C11.4199 26.999 11.6449 26.651 11.9329 26.357C12.2269 26.057 12.5719 25.829 12.9679 25.673C13.3639 25.511 13.7989 25.43 14.2729 25.43C14.8069 25.43 15.2869 25.535 15.7129 25.745C16.1449 25.949 16.4959 26.24 16.7659 26.618C17.0419 26.99 17.2099 27.428 17.2699 27.932H15.9199C15.8419 27.47 15.6529 27.122 15.3529 26.888C15.0529 26.648 14.6959 26.528 14.2819 26.528C13.9159 26.528 13.5919 26.615 13.3099 26.789C13.0339 26.963 12.8179 27.215 12.6619 27.545C12.5059 27.869 12.4279 28.262 12.4279 28.724C12.4279 29.192 12.5059 29.597 12.6619 29.939C12.8239 30.275 13.0459 30.536 13.3279 30.722C13.6099 30.902 13.9339 30.992 14.2999 30.992C14.6899 30.992 15.0349 30.875 15.3349 30.641C15.6349 30.407 15.8299 30.059 15.9199 29.597H17.2879C17.2099 30.101 17.0329 30.542 16.7569 30.92C16.4809 31.292 16.1299 31.58 15.7039 31.784C15.2779 31.988 14.8009 32.09 14.2729 32.09Z" fill="#4B5565"/>
<path d="M20.6179 32.081C19.7779 32.081 19.1059 31.895 18.6019 31.523C18.0979 31.145 17.8039 30.614 17.7199 29.93H19.0519C19.0939 30.278 19.2619 30.554 19.5559 30.758C19.8499 30.956 20.2249 31.055 20.6809 31.055C21.0529 31.055 21.3379 30.989 21.5359 30.857C21.7399 30.725 21.8419 30.548 21.8419 30.326C21.8419 30.116 21.7819 29.948 21.6619 29.822C21.5419 29.69 21.3349 29.585 21.0409 29.507L19.8349 29.174C19.2169 29 18.7639 28.763 18.4759 28.463C18.1939 28.157 18.0529 27.776 18.0529 27.32C18.0529 26.93 18.1519 26.594 18.3499 26.312C18.5539 26.024 18.8389 25.805 19.2049 25.655C19.5709 25.499 19.9999 25.421 20.4919 25.421C21.2479 25.421 21.8509 25.601 22.3009 25.961C22.7509 26.315 23.0059 26.786 23.0659 27.374H21.7339C21.6739 27.056 21.5269 26.822 21.2929 26.672C21.0649 26.522 20.7709 26.447 20.4109 26.447C20.0989 26.447 19.8499 26.507 19.6639 26.627C19.4779 26.747 19.3849 26.909 19.3849 27.113C19.3849 27.269 19.4359 27.413 19.5379 27.545C19.6399 27.671 19.8529 27.779 20.1769 27.869L21.3829 28.202C22.0189 28.376 22.4749 28.616 22.7509 28.922C23.0329 29.222 23.1739 29.603 23.1739 30.065C23.1739 30.713 22.9489 31.211 22.4989 31.559C22.0489 31.907 21.4219 32.081 20.6179 32.081Z" fill="#4B5565"/>
<path d="M26.489 32.081C25.649 32.081 24.977 31.895 24.473 31.523C23.969 31.145 23.675 30.614 23.591 29.93H24.923C24.965 30.278 25.133 30.554 25.427 30.758C25.721 30.956 26.096 31.055 26.552 31.055C26.924 31.055 27.209 30.989 27.407 30.857C27.611 30.725 27.713 30.548 27.713 30.326C27.713 30.116 27.653 29.948 27.533 29.822C27.413 29.69 27.206 29.585 26.912 29.507L25.706 29.174C25.088 29 24.635 28.763 24.347 28.463C24.065 28.157 23.924 27.776 23.924 27.32C23.924 26.93 24.023 26.594 24.221 26.312C24.425 26.024 24.71 25.805 25.076 25.655C25.442 25.499 25.871 25.421 26.363 25.421C27.119 25.421 27.722 25.601 28.172 25.961C28.622 26.315 28.877 26.786 28.937 27.374H27.605C27.545 27.056 27.398 26.822 27.164 26.672C26.936 26.522 26.642 26.447 26.282 26.447C25.97 26.447 25.721 26.507 25.535 26.627C25.349 26.747 25.256 26.909 25.256 27.113C25.256 27.269 25.307 27.413 25.409 27.545C25.511 27.671 25.724 27.779 26.048 27.869L27.254 28.202C27.89 28.376 28.346 28.616 28.622 28.922C28.904 29.222 29.045 29.603 29.045 30.065C29.045 30.713 28.82 31.211 28.37 31.559C27.92 31.907 27.293 32.081 26.489 32.081Z" fill="#4B5565"/>
<defs>
<linearGradient id="paint0_linear_6726_49492" x1="20" y1="0" x2="20" y2="40" gradientUnits="userSpaceOnUse">
<stop stop-color="#F9FAFB"/>
<stop offset="1" stop-color="#EDF0F3"/>
</linearGradient>
</defs>
</svg>
