<svg width="40" height="40" viewBox="0 0 40 40" fill="none" xmlns="http://www.w3.org/2000/svg">
<path d="M7.75 4C7.75 2.20508 9.20508 0.75 11 0.75H27C27.1212 0.75 27.2375 0.798159 27.3232 0.883885L38.1161 11.6768C38.2018 11.7625 38.25 11.8788 38.25 12V36C38.25 37.7949 36.7949 39.25 35 39.25H11C9.20507 39.25 7.75 37.7949 7.75 36V4Z" fill="white" stroke="#CDD5DF" stroke-width="1.5"/>
<path d="M27 0.5V8C27 10.2091 28.7909 12 31 12H38.5" stroke="#CDD5DF" stroke-width="1.5"/>
<rect x="0.488281" y="18" width="28.0234" height="16" rx="2" fill="#3B549F"/>
<path d="M8.09828 29.705C7.57828 29.705 7.09828 29.615 6.65828 29.435C6.21828 29.2483 5.83495 28.9883 5.50828 28.655C5.18828 28.3216 4.93828 27.9283 4.75828 27.475C4.57828 27.015 4.48828 26.515 4.48828 25.975C4.48828 25.435 4.57495 24.9416 4.74828 24.495C4.92828 24.0483 5.17828 23.6616 5.49828 23.335C5.82495 23.0016 6.20828 22.7483 6.64828 22.575C7.08828 22.395 7.57161 22.305 8.09828 22.305C8.69162 22.305 9.22495 22.4216 9.69828 22.655C10.1783 22.8816 10.5683 23.205 10.8683 23.625C11.1749 24.0383 11.3616 24.525 11.4283 25.085H9.92828C9.84161 24.5716 9.63162 24.185 9.29828 23.925C8.96495 23.6583 8.56828 23.525 8.10828 23.525C7.70161 23.525 7.34161 23.6216 7.02828 23.815C6.72161 24.0083 6.48161 24.2883 6.30828 24.655C6.13495 25.015 6.04828 25.4516 6.04828 25.965C6.04828 26.485 6.13495 26.935 6.30828 27.315C6.48828 27.6883 6.73495 27.9783 7.04828 28.185C7.36161 28.385 7.72161 28.485 8.12828 28.485C8.56161 28.485 8.94495 28.355 9.27828 28.095C9.61161 27.835 9.82828 27.4483 9.92828 26.935H11.4483C11.3616 27.495 11.1649 27.985 10.8583 28.405C10.5516 28.8183 10.1616 29.1383 9.68828 29.365C9.21495 29.5916 8.68495 29.705 8.09828 29.705Z" fill="white"/>
<path d="M15.1483 29.695C14.2149 29.695 13.4683 29.4883 12.9083 29.075C12.3483 28.655 12.0216 28.065 11.9283 27.305H13.4083C13.4549 27.6916 13.6416 27.9983 13.9683 28.225C14.2949 28.445 14.7116 28.555 15.2183 28.555C15.6316 28.555 15.9483 28.4816 16.1683 28.335C16.3949 28.1883 16.5083 27.9916 16.5083 27.745C16.5083 27.5116 16.4416 27.325 16.3083 27.185C16.1749 27.0383 15.9449 26.9216 15.6183 26.835L14.2783 26.465C13.5916 26.2716 13.0883 26.0083 12.7683 25.675C12.4549 25.335 12.2983 24.9116 12.2983 24.405C12.2983 23.9716 12.4083 23.5983 12.6283 23.285C12.8549 22.965 13.1716 22.7216 13.5783 22.555C13.9849 22.3816 14.4616 22.295 15.0083 22.295C15.8483 22.295 16.5183 22.495 17.0183 22.895C17.5183 23.2883 17.8016 23.8116 17.8683 24.465H16.3883C16.3216 24.1116 16.1583 23.8516 15.8983 23.685C15.6449 23.5183 15.3183 23.435 14.9183 23.435C14.5716 23.435 14.2949 23.5016 14.0883 23.635C13.8816 23.7683 13.7783 23.9483 13.7783 24.175C13.7783 24.3483 13.8349 24.5083 13.9483 24.655C14.0616 24.795 14.2983 24.915 14.6583 25.015L15.9983 25.385C16.7049 25.5783 17.2116 25.845 17.5183 26.185C17.8316 26.5183 17.9883 26.9416 17.9883 27.455C17.9883 28.175 17.7383 28.7283 17.2383 29.115C16.7383 29.5016 16.0416 29.695 15.1483 29.695Z" fill="white"/>
<path d="M21.6717 29.695C20.7384 29.695 19.9917 29.4883 19.4317 29.075C18.8717 28.655 18.5451 28.065 18.4517 27.305H19.9317C19.9784 27.6916 20.1651 27.9983 20.4917 28.225C20.8184 28.445 21.2351 28.555 21.7417 28.555C22.1551 28.555 22.4717 28.4816 22.6917 28.335C22.9184 28.1883 23.0317 27.9916 23.0317 27.745C23.0317 27.5116 22.9651 27.325 22.8317 27.185C22.6984 27.0383 22.4684 26.9216 22.1417 26.835L20.8017 26.465C20.1151 26.2716 19.6117 26.0083 19.2917 25.675C18.9784 25.335 18.8217 24.9116 18.8217 24.405C18.8217 23.9716 18.9317 23.5983 19.1517 23.285C19.3784 22.965 19.6951 22.7216 20.1017 22.555C20.5084 22.3816 20.9851 22.295 21.5317 22.295C22.3717 22.295 23.0417 22.495 23.5417 22.895C24.0417 23.2883 24.3251 23.8116 24.3917 24.465H22.9117C22.8451 24.1116 22.6817 23.8516 22.4217 23.685C22.1684 23.5183 21.8417 23.435 21.4417 23.435C21.0951 23.435 20.8184 23.5016 20.6117 23.635C20.4051 23.7683 20.3017 23.9483 20.3017 24.175C20.3017 24.3483 20.3584 24.5083 20.4717 24.655C20.5851 24.795 20.8217 24.915 21.1817 25.015L22.5217 25.385C23.2284 25.5783 23.7351 25.845 24.0417 26.185C24.3551 26.5183 24.5117 26.9416 24.5117 27.455C24.5117 28.175 24.2617 28.7283 23.7617 29.115C23.2617 29.5016 22.5651 29.695 21.6717 29.695Z" fill="white"/>
</svg>
