<svg width="40" height="40" viewBox="0 0 40 40" fill="none" xmlns="http://www.w3.org/2000/svg">
<path d="M7.75 4C7.75 2.20508 9.20508 0.75 11 0.75H27C27.1212 0.75 27.2375 0.798159 27.3232 0.883885L38.1161 11.6768C38.2018 11.7625 38.25 11.8788 38.25 12V36C38.25 37.7949 36.7949 39.25 35 39.25H11C9.20507 39.25 7.75 37.7949 7.75 36V4Z" fill="white" stroke="#CDD5DF" stroke-width="1.5"/>
<path d="M27 0.5V8C27 10.2091 28.7909 12 31 12H38.5" stroke="#CDD5DF" stroke-width="1.5"/>
<rect x="0.87793" y="18" width="31.2441" height="16" rx="2" fill="#3B549F"/>
<path d="M5.81793 29.6V28.4H7.63793C8.15793 28.4 8.59793 28.2967 8.95793 28.09C9.3246 27.8767 9.60126 27.5867 9.78793 27.22C9.98126 26.8533 10.0779 26.4333 10.0779 25.96C10.0779 25.4933 9.9846 25.0833 9.79793 24.73C9.61126 24.3767 9.3346 24.1 8.96793 23.9C8.60793 23.7 8.1646 23.6 7.63793 23.6H5.84793V22.4H7.63793C8.4446 22.4 9.14793 22.5467 9.74793 22.84C10.3479 23.1267 10.8113 23.54 11.1379 24.08C11.4713 24.6133 11.6379 25.2467 11.6379 25.98C11.6379 26.7133 11.4713 27.3533 11.1379 27.9C10.8046 28.44 10.3379 28.86 9.73793 29.16C9.1446 29.4533 8.44793 29.6 7.64793 29.6H5.81793ZM4.87793 29.6V22.4H6.41793V29.6H4.87793Z" fill="white"/>
<path d="M12.4365 29.6V22.4H14.8365L16.8365 29.34H15.9665L17.9665 22.4H20.3765V29.6H18.8565V22.83H19.1165L17.1665 29.6H15.5765L13.6465 22.89H13.8965V29.6H12.4365Z" fill="white"/>
<path d="M24.9321 29.7C24.1521 29.7 23.4821 29.5467 22.9221 29.24C22.3621 28.9333 21.9287 28.5033 21.6221 27.95C21.3221 27.3967 21.1721 26.75 21.1721 26.01C21.1721 25.2767 21.3254 24.6333 21.6321 24.08C21.9387 23.52 22.3621 23.0833 22.9021 22.77C23.4487 22.4567 24.0821 22.3 24.8021 22.3C25.3954 22.3 25.9254 22.4067 26.3921 22.62C26.8654 22.8333 27.2454 23.1267 27.5321 23.5C27.8254 23.8667 27.9987 24.2933 28.0521 24.78H26.5121C26.4454 24.3867 26.2587 24.08 25.9521 23.86C25.6521 23.6333 25.2754 23.52 24.8221 23.52C24.4021 23.52 24.0354 23.62 23.7221 23.82C23.4087 24.0133 23.1654 24.2933 22.9921 24.66C22.8187 25.0267 22.7321 25.4667 22.7321 25.98C22.7321 26.5133 22.8187 26.97 22.9921 27.35C23.1654 27.7233 23.4187 28.01 23.7521 28.21C24.0921 28.4033 24.5087 28.5 25.0021 28.5C25.4021 28.5 25.7421 28.45 26.0221 28.35C26.3021 28.25 26.5154 28.11 26.6621 27.93L28.1221 28.51C27.7354 28.8967 27.2854 29.1933 26.7721 29.4C26.2654 29.6 25.6521 29.7 24.9321 29.7ZM26.5821 28.51V26.53L26.8921 26.84H24.9921V25.66H28.1221V28.51H26.5821Z" fill="white"/>
</svg>
