<svg width="40" height="40" viewBox="0 0 40 40" fill="none" xmlns="http://www.w3.org/2000/svg">
<path d="M4 4C4 1.79086 5.79086 0 8 0H24L36 12V36C36 38.2091 34.2091 40 32 40H8C5.79086 40 4 38.2091 4 36V4Z" fill="#3B549F"/>
<path opacity="0.3" d="M24 0L36 12H28C25.7909 12 24 10.2091 24 8V0Z" fill="white"/>
<path d="M11.6125 32V25.52H12.9985V32H11.6125ZM12.2605 32V30.938H16.4365V32H12.2605ZM12.2605 29.21V28.166H16.1215V29.21H12.2605ZM12.2605 26.582V25.52H16.3285V26.582H12.2605Z" fill="white"/>
<path d="M21.4052 32L19.6142 29.165L17.1122 25.52H18.7322L20.4152 28.193L23.0252 32H21.4052ZM19.8122 28.184L21.5582 25.52H23.0252L20.2712 29.345L19.8122 28.184ZM20.1272 29.381L18.4082 32H16.9412L19.6682 28.22L20.1272 29.381Z" fill="white"/>
<path d="M23.6536 32V25.52H25.0396V32H23.6536ZM24.3016 32V30.938H28.4776V32H24.3016ZM24.3016 29.21V28.166H28.1626V29.21H24.3016ZM24.3016 26.582V25.52H28.3696V26.582H24.3016Z" fill="white"/>
</svg>
