<svg width="40" height="40" viewBox="0 0 40 40" fill="none" xmlns="http://www.w3.org/2000/svg">
<path d="M7.75 4C7.75 2.20508 9.20508 0.75 11 0.75H27C27.1212 0.75 27.2375 0.798159 27.3232 0.883885L38.1161 11.6768C38.2018 11.7625 38.25 11.8788 38.25 12V36C38.25 37.7949 36.7949 39.25 35 39.25H11C9.20507 39.25 7.75 37.7949 7.75 36V4Z" fill="white" stroke="#CDD5DF" stroke-width="1.5"/>
<path d="M27 0.5V8C27 10.2091 28.7909 12 31 12H38.5" stroke="#CDD5DF" stroke-width="1.5"/>
<rect x="0.630615" y="18" width="26.7389" height="16" rx="2" fill="#3B549F"/>
<path d="M4.63062 29.6V22.4H6.17062V29.6H4.63062ZM5.35062 29.6V28.42H9.99062V29.6H5.35062ZM5.35062 26.5V25.34H9.64061V26.5H5.35062ZM5.35062 23.58V22.4H9.87062V23.58H5.35062Z" fill="white"/>
<path d="M15.5113 29.6L13.5213 26.45L10.7413 22.4H12.5413L14.4113 25.37L17.3113 29.6H15.5113ZM13.7413 25.36L15.6813 22.4H17.3113L14.2513 26.65L13.7413 25.36ZM14.0913 26.69L12.1813 29.6H10.5513L13.5813 25.4L14.0913 26.69Z" fill="white"/>
<path d="M18.0095 29.6V22.4H19.5495V29.6H18.0095ZM18.7295 29.6V28.42H23.3695V29.6H18.7295ZM18.7295 26.5V25.34H23.0195V26.5H18.7295ZM18.7295 23.58V22.4H23.2495V23.58H18.7295Z" fill="white"/>
</svg>
