<svg width="40" height="40" viewBox="0 0 40 40" fill="none" xmlns="http://www.w3.org/2000/svg">
<path d="M4 4C4 1.79086 5.79086 0 8 0H24L36 12V36C36 38.2091 34.2091 40 32 40H8C5.79086 40 4 38.2091 4 36V4Z" fill="#3B549F"/>
<path opacity="0.3" d="M24 0L36 12H28C25.7909 12 24 10.2091 24 8V0Z" fill="white"/>
<path d="M7.51245 32V25.52H8.89845V32H7.51245ZM11.7065 32V25.52H13.0925V32H11.7065ZM8.16045 28.094H12.3365V29.156H8.16045V28.094Z" fill="white"/>
<path d="M15.871 32V26.582H13.756V25.52H19.372V26.582H17.257V32H15.871Z" fill="white"/>
<path d="M20.0369 32V25.52H22.1969L23.9969 31.766H23.2139L25.0139 25.52H27.1829V32H25.8149V25.907H26.0489L24.2939 32H22.8629L21.1259 25.961H21.3509V32H20.0369Z" fill="white"/>
<path d="M28.0789 32V25.52H29.4649V32H28.0789ZM28.7269 32V30.938H32.5789V32H28.7269Z" fill="white"/>
</svg>
