<svg width="40" height="40" viewBox="0 0 40 40" fill="none" xmlns="http://www.w3.org/2000/svg">
<path d="M7.75 4C7.75 2.20508 9.20508 0.75 11 0.75H27C27.1212 0.75 27.2375 0.798159 27.3232 0.883885L38.1161 11.6768C38.2018 11.7625 38.25 11.8788 38.25 12V36C38.25 37.7949 36.7949 39.25 35 39.25H11C9.20507 39.25 7.75 37.7949 7.75 36V4Z" fill="white" stroke="#CDD5DF" stroke-width="1.5"/>
<path d="M27 0.5V8C27 10.2091 28.7909 12 31 12H38.5" stroke="#CDD5DF" stroke-width="1.5"/>
<rect x="0.574219" y="18" width="35.8516" height="16" rx="2" fill="#3B549F"/>
<path d="M4.57422 29.6V22.4H6.11422V29.6H4.57422ZM9.23422 29.6V22.4H10.7742V29.6H9.23422ZM5.29422 25.26H9.93422V26.44H5.29422V25.26Z" fill="white"/>
<path d="M13.8615 29.6V23.58H11.5115V22.4H17.7515V23.58H15.4015V29.6H13.8615Z" fill="white"/>
<path d="M18.4902 29.6V22.4H20.8902L22.8902 29.34H22.0202L24.0202 22.4H26.4302V29.6H24.9102V22.83H25.1702L23.2202 29.6H21.6302L19.7002 22.89H19.9502V29.6H18.4902Z" fill="white"/>
<path d="M27.4258 29.6V22.4H28.9658V29.6H27.4258ZM28.1458 29.6V28.42H32.4258V29.6H28.1458Z" fill="white"/>
</svg>
