<svg width="40" height="40" viewBox="0 0 40 40" fill="none" xmlns="http://www.w3.org/2000/svg">
<path d="M7.75 4C7.75 2.20508 9.20508 0.75 11 0.75H27C27.1212 0.75 27.2375 0.798159 27.3232 0.883885L38.1161 11.6768C38.2018 11.7625 38.25 11.8788 38.25 12V36C38.25 37.7949 36.7949 39.25 35 39.25H11C9.20507 39.25 7.75 37.7949 7.75 36V4Z" fill="white" stroke="#CDD5DF" stroke-width="1.5"/>
<path d="M27 0.5V8C27 10.2091 28.7909 12 31 12H38.5" stroke="#CDD5DF" stroke-width="1.5"/>
<rect x="1.96753" y="18" width="31.0649" height="16" rx="2" fill="#3B549F"/>
<path d="M7.20753 29.65C6.9542 29.65 6.71086 29.63 6.47753 29.59C6.2442 29.5566 6.0742 29.5133 5.96753 29.46V28.28C6.08753 28.3266 6.23086 28.3666 6.39753 28.4C6.5642 28.4333 6.7342 28.45 6.90753 28.45C7.28086 28.45 7.55086 28.39 7.71753 28.27C7.89086 28.1433 7.97753 27.9166 7.97753 27.59V22.35H9.51753V27.66C9.51753 28.3266 9.32086 28.8266 8.92753 29.16C8.5342 29.4866 7.96086 29.65 7.20753 29.65Z" fill="white"/>
<path d="M9.94542 29.55L12.5254 22.35H13.8454L11.4754 29.55H9.94542ZM15.2254 29.55L12.8654 22.35H14.2454L16.8254 29.55H15.2254ZM11.3054 26.76H15.3454V27.96H11.3054V26.76Z" fill="white"/>
<path d="M18.6289 29.55L16.0489 22.35H17.6489L19.6189 28.35H19.4289L21.4089 22.35H22.9289L20.3489 29.55H18.6289Z" fill="white"/>
<path d="M22.1525 29.55L24.7325 22.35H26.0525L23.6825 29.55H22.1525ZM27.4325 29.55L25.0725 22.35H26.4525L29.0325 29.55H27.4325ZM23.5125 26.76H27.5525V27.96H23.5125V26.76Z" fill="white"/>
</svg>
