<svg width="40" height="40" viewBox="0 0 40 40" fill="none" xmlns="http://www.w3.org/2000/svg">
<path d="M4 4C4 1.79086 5.79086 0 8 0H24L36 12V36C36 38.2091 34.2091 40 32 40H8C5.79086 40 4 38.2091 4 36V4Z" fill="url(#paint0_linear_6726_49572)"/>
<path d="M24 0L36 12H28C25.7909 12 24 10.2091 24 8V0Z" fill="#CDD5DF"/>
<path d="M9.60013 32.09C9.37213 32.09 9.15313 32.072 8.94313 32.036C8.73313 32.006 8.58013 31.967 8.48413 31.919V30.857C8.59213 30.899 8.72113 30.935 8.87113 30.965C9.02113 30.995 9.17413 31.01 9.33013 31.01C9.66613 31.01 9.90913 30.956 10.0591 30.848C10.2151 30.734 10.2931 30.53 10.2931 30.236V25.52H11.6791V30.299C11.6791 30.899 11.5021 31.349 11.1481 31.649C10.7941 31.943 10.2781 32.09 9.60013 32.09Z" fill="#4B5565"/>
<path d="M15.1907 32.081C14.3507 32.081 13.6787 31.895 13.1747 31.523C12.6707 31.145 12.3767 30.614 12.2927 29.93H13.6247C13.6667 30.278 13.8347 30.554 14.1287 30.758C14.4227 30.956 14.7977 31.055 15.2537 31.055C15.6257 31.055 15.9107 30.989 16.1087 30.857C16.3127 30.725 16.4147 30.548 16.4147 30.326C16.4147 30.116 16.3547 29.948 16.2347 29.822C16.1147 29.69 15.9077 29.585 15.6137 29.507L14.4077 29.174C13.7897 29 13.3367 28.763 13.0487 28.463C12.7667 28.157 12.6257 27.776 12.6257 27.32C12.6257 26.93 12.7247 26.594 12.9227 26.312C13.1267 26.024 13.4117 25.805 13.7777 25.655C14.1437 25.499 14.5727 25.421 15.0647 25.421C15.8207 25.421 16.4237 25.601 16.8737 25.961C17.3237 26.315 17.5787 26.786 17.6387 27.374H16.3067C16.2467 27.056 16.0997 26.822 15.8657 26.672C15.6377 26.522 15.3437 26.447 14.9837 26.447C14.6717 26.447 14.4227 26.507 14.2367 26.627C14.0507 26.747 13.9577 26.909 13.9577 27.113C13.9577 27.269 14.0087 27.413 14.1107 27.545C14.2127 27.671 14.4257 27.779 14.7497 27.869L15.9557 28.202C16.5917 28.376 17.0477 28.616 17.3237 28.922C17.6057 29.222 17.7467 29.603 17.7467 30.065C17.7467 30.713 17.5217 31.211 17.0717 31.559C16.6217 31.907 15.9947 32.081 15.1907 32.081Z" fill="#4B5565"/>
<path d="M21.5388 32.09C21.0588 32.09 20.6148 32.009 20.2068 31.847C19.8048 31.685 19.4538 31.457 19.1538 31.163C18.8598 30.863 18.6288 30.509 18.4608 30.101C18.2988 29.687 18.2178 29.231 18.2178 28.733C18.2178 28.073 18.3588 27.497 18.6408 27.005C18.9228 26.507 19.3128 26.12 19.8108 25.844C20.3148 25.568 20.8878 25.43 21.5298 25.43C22.1838 25.43 22.7598 25.568 23.2578 25.844C23.7558 26.12 24.1458 26.507 24.4278 27.005C24.7158 27.503 24.8598 28.082 24.8598 28.742C24.8598 29.234 24.7758 29.687 24.6078 30.101C24.4458 30.509 24.2148 30.863 23.9148 31.163C23.6208 31.457 23.2698 31.685 22.8618 31.847C22.4598 32.009 22.0188 32.09 21.5388 32.09ZM21.5298 30.992C21.9078 30.992 22.2408 30.896 22.5288 30.704C22.8168 30.512 23.0418 30.248 23.2038 29.912C23.3718 29.57 23.4558 29.174 23.4558 28.724C23.4558 28.28 23.3748 27.893 23.2128 27.563C23.0508 27.233 22.8258 26.978 22.5378 26.798C22.2498 26.618 21.9138 26.528 21.5298 26.528C21.1518 26.528 20.8188 26.618 20.5308 26.798C20.2428 26.978 20.0178 27.233 19.8558 27.563C19.6998 27.887 19.6218 28.274 19.6218 28.724C19.6218 29.18 19.7028 29.579 19.8648 29.921C20.0268 30.257 20.2518 30.521 20.5398 30.713C20.8278 30.899 21.1578 30.992 21.5298 30.992Z" fill="#4B5565"/>
<path d="M25.5785 32V25.52H27.3695L30.2495 31.244L29.8085 31.352V25.52H31.1585V32H29.3675L26.4875 26.276L26.9285 26.168V32H25.5785Z" fill="#4B5565"/>
<defs>
<linearGradient id="paint0_linear_6726_49572" x1="20" y1="0" x2="20" y2="40" gradientUnits="userSpaceOnUse">
<stop stop-color="#F9FAFB"/>
<stop offset="1" stop-color="#EDF0F3"/>
</linearGradient>
</defs>
</svg>
