<svg width="40" height="40" viewBox="0 0 40 40" fill="none" xmlns="http://www.w3.org/2000/svg">
<path d="M4 4C4 1.79086 5.79086 0 8 0H24L36 12V36C36 38.2091 34.2091 40 32 40H8C5.79086 40 4 38.2091 4 36V4Z" fill="url(#paint0_linear_6726_49524)"/>
<path d="M24 0L36 12H28C25.7909 12 24 10.2091 24 8V0Z" fill="#CDD5DF"/>
<path d="M13.8548 32.081C13.0148 32.081 12.3428 31.895 11.8388 31.523C11.3348 31.145 11.0408 30.614 10.9568 29.93H12.2888C12.3308 30.278 12.4988 30.554 12.7928 30.758C13.0868 30.956 13.4618 31.055 13.9178 31.055C14.2898 31.055 14.5748 30.989 14.7728 30.857C14.9768 30.725 15.0788 30.548 15.0788 30.326C15.0788 30.116 15.0188 29.948 14.8988 29.822C14.7788 29.69 14.5718 29.585 14.2778 29.507L13.0718 29.174C12.4538 29 12.0008 28.763 11.7128 28.463C11.4308 28.157 11.2898 27.776 11.2898 27.32C11.2898 26.93 11.3888 26.594 11.5868 26.312C11.7908 26.024 12.0758 25.805 12.4418 25.655C12.8078 25.499 13.2368 25.421 13.7288 25.421C14.4848 25.421 15.0878 25.601 15.5378 25.961C15.9878 26.315 16.2428 26.786 16.3028 27.374H14.9708C14.9108 27.056 14.7638 26.822 14.5298 26.672C14.3018 26.522 14.0078 26.447 13.6478 26.447C13.3358 26.447 13.0868 26.507 12.9008 26.627C12.7148 26.747 12.6218 26.909 12.6218 27.113C12.6218 27.269 12.6728 27.413 12.7748 27.545C12.8768 27.671 13.0898 27.779 13.4138 27.869L14.6198 28.202C15.2558 28.376 15.7118 28.616 15.9878 28.922C16.2698 29.222 16.4108 29.603 16.4108 30.065C16.4108 30.713 16.1858 31.211 15.7358 31.559C15.2858 31.907 14.6588 32.081 13.8548 32.081Z" fill="#4B5565"/>
<path d="M20.2029 32.09C19.5609 32.09 18.9879 31.949 18.4839 31.667C17.9859 31.385 17.5929 30.992 17.3049 30.488C17.0229 29.984 16.8819 29.399 16.8819 28.733C16.8819 28.073 17.0229 27.497 17.3049 27.005C17.5869 26.507 17.9769 26.12 18.4749 25.844C18.9789 25.568 19.5519 25.43 20.1939 25.43C20.8479 25.43 21.4239 25.568 21.9219 25.844C22.4199 26.12 22.8099 26.507 23.0919 27.005C23.3799 27.503 23.5239 28.082 23.5239 28.742C23.5239 29.162 23.4549 29.558 23.3169 29.93C23.1849 30.302 22.9689 30.623 22.6689 30.893C22.3749 31.163 21.9849 31.364 21.4989 31.496L20.2029 32.09ZM20.1939 31.046C20.5719 31.046 20.9049 30.953 21.1929 30.767C21.4809 30.581 21.7059 30.314 21.8679 29.966C22.0359 29.618 22.1199 29.204 22.1199 28.724C22.1199 28.28 22.0389 27.893 21.8769 27.563C21.7149 27.233 21.4899 26.978 21.2019 26.798C20.9139 26.618 20.5779 26.528 20.1939 26.528C19.8159 26.528 19.4829 26.618 19.1949 26.798C18.9069 26.978 18.6819 27.233 18.5199 27.563C18.3639 27.887 18.2859 28.274 18.2859 28.724C18.2859 29.21 18.3669 29.627 18.5289 29.975C18.6909 30.317 18.9159 30.581 19.2039 30.767C19.4919 30.953 19.8219 31.046 20.1939 31.046ZM20.2029 32.09V31.118L23.8569 30.938V32C23.4729 32 23.1279 32.003 22.8219 32.009C22.5219 32.021 22.2369 32.033 21.9669 32.045C21.6969 32.057 21.4209 32.066 21.1389 32.072C20.8569 32.084 20.5449 32.09 20.2029 32.09Z" fill="#4B5565"/>
<path d="M24.4007 32V25.52H25.7867V32H24.4007ZM25.0487 32V30.938H28.9007V32H25.0487Z" fill="#4B5565"/>
<defs>
<linearGradient id="paint0_linear_6726_49524" x1="20" y1="0" x2="20" y2="40" gradientUnits="userSpaceOnUse">
<stop stop-color="#F9FAFB"/>
<stop offset="1" stop-color="#EDF0F3"/>
</linearGradient>
</defs>
</svg>
