<svg width="32" height="32" viewBox="0 0 32 32" fill="none" xmlns="http://www.w3.org/2000/svg">
<path fill-rule="evenodd" clip-rule="evenodd" d="M15.0117 12.5602C14.9118 12.4947 14.8118 12.4291 14.7123 12.363C14.2928 12.6326 13.8744 12.9033 13.4561 13.1741C12.6692 13.6835 11.8823 14.1929 11.087 14.694C10.8001 13.8245 10.1816 13.1263 9.30937 12.8545C8.69394 12.6628 7.93068 12.6878 7.14144 12.7137C6.66554 12.7293 6.18018 12.7452 5.7121 12.7141V18.5695C6.1913 18.5473 6.66739 18.5608 7.12872 18.5739C7.62563 18.5881 8.10541 18.6017 8.55351 18.5695C9.93909 18.4699 10.7765 17.6265 11.1291 16.5054C11.7227 16.8938 12.3064 17.2923 12.8901 17.6909C13.503 18.1093 14.1159 18.5278 14.7403 18.9346C15.1416 18.6778 15.5455 18.4147 15.9499 18.1513C16.7253 17.6463 17.5027 17.14 18.2676 16.6738V18.5695H22.2289V16.7019C21.9946 16.6984 21.7548 16.7003 21.5151 16.7021C21.1247 16.7052 20.7343 16.7082 20.3672 16.688V12.7141H18.2676V14.7081C18.0078 14.8743 17.7487 15.0411 17.4896 15.2079C16.7967 15.6541 16.1038 16.1002 15.3982 16.5335C15.3429 16.4973 15.2853 16.4635 15.2277 16.4297C15.1263 16.3703 15.025 16.3108 14.9364 16.2386C15.3333 15.9812 15.7261 15.7196 16.1189 15.4581C16.6544 15.1016 17.1898 14.7451 17.7358 14.3991C17.3448 14.1033 16.9277 13.8337 16.504 13.5706C15.6324 14.1302 14.7573 14.6863 13.8823 15.2424C13.8091 15.2889 13.7358 15.3355 13.6626 15.382C13.5911 15.3272 13.5148 15.2773 13.4385 15.2275C13.3623 15.1777 13.286 15.1278 13.2147 15.0731C13.6056 14.8232 13.9943 14.571 14.383 14.3187C14.9293 13.9643 15.4755 13.6098 16.0281 13.2617C15.7033 13.0138 15.3575 12.787 15.0117 12.5602ZM7.71364 16.702V14.5957C7.71243 14.5758 7.7114 14.5559 7.72758 14.5536C8.33376 14.5146 8.7706 14.5774 9.02933 14.8765C9.41704 15.3248 9.32856 16.1661 8.88937 16.5054C8.62315 16.7112 8.28761 16.7077 7.85742 16.7032C7.81063 16.7027 7.76271 16.7022 7.71364 16.702Z" fill="#0083CA"/>
<path d="M24.8742 12.7141H22.7747C22.7584 12.7164 22.7595 12.7361 22.7605 12.756L22.7606 18.5696H26.7219V16.702H24.8742V12.7141Z" fill="#0083CA"/>
<path fill-rule="evenodd" clip-rule="evenodd" d="M16.4338 2H15.566C11.3728 2.23159 8.33189 3.85109 6.10396 6.08629C3.88624 8.31113 2.2278 11.3142 2.01675 15.5507C2.0191 15.567 2.01373 15.5757 2.00275 15.5788V16.4213C2.22316 20.674 3.8726 23.6461 6.1039 25.8997C8.33521 28.1533 11.3454 29.7607 15.566 29.9999H16.4198C20.7244 29.7875 23.5762 28.1177 25.8959 25.9138C28.1043 23.5936 29.7828 20.7419 29.9971 16.4213V15.5788C29.7767 11.3261 28.1273 8.35388 25.8959 6.10033C23.6646 3.84679 20.655 2.2388 16.4338 2ZM10.569 4.85053C11.2451 4.51516 11.9909 4.23144 12.8226 4.00803C13.6605 3.78291 14.5788 3.66134 15.5522 3.61484C17.5323 3.52026 19.381 3.9611 20.8012 4.55567C22.2649 5.16846 23.5069 6.0163 24.5384 7.01301C26.6231 9.0274 28.2027 11.6689 28.3876 15.5647C28.4853 17.6212 28.0334 19.3189 27.4358 20.7884C26.2541 23.6935 24.1222 25.7989 21.4169 27.1635C20.0366 27.8597 18.3706 28.2933 16.4479 28.3852C14.4435 28.4809 12.6635 28.0536 11.227 27.4444C8.32199 26.2124 6.22292 24.1854 4.84416 21.4343C4.146 20.041 3.70403 18.4065 3.61248 16.4634C3.46727 13.3812 4.46997 11.0308 5.62802 9.20359C6.8145 7.33167 8.51137 5.87129 10.569 4.85053Z" fill="#0083CA"/>
</svg>
