<svg width="159" height="173" viewBox="0 0 159 173" fill="none" xmlns="http://www.w3.org/2000/svg">
<g opacity="0.12">
<path d="M83.6813 162.449L83.6868 152.032L113.16 169.131L129.086 159.348L137.338 165.394L113.154 180.799L83.6813 162.449Z" fill="#99A1AE"/>
<path d="M158.968 148.737L150.126 143.524L150.137 121.856L112.804 99.5439L75.8409 121.817L75.8379 127.651L119.851 154.55L112.773 159.13L66.9914 130.98L66.999 116.396L112.81 87.6684L158.984 116.444L158.968 148.737Z" fill="#99A1AE"/>
<path d="M97.6534 130.162L88.4185 124.532L112.995 109.128L141.486 126.852L141.48 138.936L112.989 121.003L97.6534 130.162Z" fill="#99A1AE"/>
<path d="M112.984 130.587L105.906 135.375L150.705 162.9L150.703 167.9L112.953 190.381L75.8171 167.861L75.8281 146.61L66.9861 141.397L66.9696 173.065L112.947 201.632L158.562 173.113L158.57 158.737L112.984 130.587Z" fill="#99A1AE"/>
</g>
<g opacity="0.12">
<path d="M27.1646 72.3679V62.2888L55.6902 78.8185L71.094 69.3442L79.0812 75.19L55.6902 90.107L27.1646 72.3679Z" fill="#FFBD12"/>
<path d="M100 59.0633L91.4426 54.0238V33.0593L55.3101 11.4901L19.5579 33.0593V38.7036L62.1562 64.7076L55.3101 69.1423L11.0002 41.9289V27.8182L55.3101 0L100 27.8182V59.0633Z" fill="#EF233C"/>
<path d="M40.6668 41.1226L31.7288 35.6799L55.5001 20.7629L83.0749 37.8973V49.5891L55.5001 32.2531L40.6668 41.1226Z" fill="#3850A2"/>
<path d="M55.5002 41.5259L48.6541 46.1622L92.0131 72.771V77.6089L55.5002 99.3797L19.5579 77.6089V57.0476L11.0002 52.0081V82.6484L55.5002 110.265L99.6199 82.6484V68.7393L55.5002 41.5259Z" fill="#3850A2"/>
</g>
<g opacity="0.12">
<path d="M-18.2728 169.563L-18.2673 159.146L11.2063 176.246L27.132 166.462L35.384 172.508L11.2002 187.913L-18.2728 169.563Z" fill="#99A1AE"/>
<path d="M57.0136 155.851L48.1715 150.638L48.1828 128.97L10.8499 106.658L-26.1132 128.932L-26.1162 134.765L17.897 161.664L10.8188 166.244L-34.9627 138.094L-34.9551 123.51L10.856 94.7826L57.0304 123.558L57.0136 155.851Z" fill="#99A1AE"/>
<path d="M-4.30068 137.277L-13.5356 131.647L11.0412 116.242L39.5318 133.966L39.5255 146.05L11.035 128.118L-4.30068 137.277Z" fill="#99A1AE"/>
<path d="M11.0304 137.701L3.95206 142.489L48.7512 170.014L48.7486 175.014L10.9993 197.496L-26.137 174.975L-26.126 153.724L-34.968 148.511L-34.9845 180.179L10.9934 208.746L56.6079 180.227L56.6154 165.851L11.0304 137.701Z" fill="#99A1AE"/>
</g>
</svg>
