<svg width="60" height="68" viewBox="0 0 60 68" fill="none" xmlns="http://www.w3.org/2000/svg">
<g opacity="0.12">
<path d="M11.9997 53.6635L12.0035 46.1902L33.148 58.4574L44.5731 51.4384L50.4931 55.776L33.1437 66.8275L11.9997 53.6635Z" fill="#C0C3C9"/>
<path d="M66.0101 43.8272L59.6669 40.0873L59.6749 24.5431L32.8926 8.53653L6.37562 24.5154L6.37344 28.7003L37.9482 47.9976L32.8704 51.2832L0.0270362 31.0885L0.0324803 20.626L32.897 0.0170953L66.0221 20.6603L66.0101 43.8272Z" fill="#C0C3C9"/>
<path d="M22.0241 30.5022L15.3989 26.4632L33.0304 15.4119L53.4696 28.1271L53.4651 36.7962L33.0259 23.9314L22.0241 30.5022Z" fill="#C0C3C9"/>
<path d="M33.0213 30.8059L27.9434 34.2409L60.0819 53.9868L60.0801 57.574L32.999 73.702L6.35773 57.546L6.36566 42.3007L0.0224451 38.5608L0.0106237 61.2793L32.9948 81.773L65.7183 61.3135L65.7236 51.0005L33.0213 30.8059Z" fill="#C0C3C9"/>
</g>
</svg>
