<svg width="39" height="52" viewBox="0 0 39 52" fill="none" xmlns="http://www.w3.org/2000/svg">
<g opacity="0.1">
<path d="M9.00794 38.718L9.01074 33.3258L24.267 42.1769L32.5105 37.1125L36.7819 40.2422L24.2638 48.2161L9.00794 38.718Z" fill="#CDD5DF"/>
<path d="M47.9779 31.6215L43.4012 28.9231L43.407 17.7075L24.0829 6.15844L4.95032 17.6875L4.94875 20.7071L27.7307 34.6305L24.0669 37.0011L0.369676 22.4302L0.373604 14.8813L24.0861 0.0114801L47.9866 14.906L47.9779 31.6215Z" fill="#CDD5DF"/>
<path d="M16.2409 22.0072L11.4607 19.0929L24.1822 11.1192L38.9296 20.2935L38.9263 26.5484L24.179 17.2662L16.2409 22.0072Z" fill="#CDD5DF"/>
<path d="M24.1761 22.2263L20.5123 24.7047L43.701 38.9518L43.6997 41.54L24.16 53.1768L4.93776 41.5199L4.94349 30.52L0.366711 27.8216L0.358182 44.2135L24.157 59.0002L47.7677 44.2382L47.7716 36.7971L24.1761 22.2263Z" fill="#CDD5DF"/>
</g>
</svg>
