<svg width="32" height="32" viewBox="0 0 32 32" fill="none" xmlns="http://www.w3.org/2000/svg">
<path d="M16 2C8.27812 2 2 8.27813 2 16C2 23.7219 8.27812 30 16 30C23.7219 30 30 23.7219 30 16C30 8.27813 23.7219 2 16 2Z" fill="#222222"/>
<path d="M20.3991 14.6327C21.172 14.7516 21.707 15.1083 22.0042 15.5839C22.3015 16.0595 22.4798 16.8917 22.4798 17.9618C22.4798 20.1019 21.8259 21.8854 20.518 23.2527C19.2102 24.62 17.5456 25.3334 15.5244 25.3334C13.9453 25.3334 12.4824 24.7761 11.3036 23.7283C9.93237 22.4941 8.76336 19.9844 9.99575 18.259C10.293 17.8429 10.828 17.6051 11.482 17.4268C11.3631 17.1295 11.2442 16.8917 11.1847 16.6539C10.9694 16.008 11.1709 15.4788 11.6603 14.9894C12.0877 14.562 12.6571 14.2516 13.2654 14.4544C13.4437 14.5138 13.6221 14.5733 13.8599 14.7516C13.3248 12.9682 12.7898 11.482 12.4926 10.4714C12.1953 9.46074 12.0764 8.80681 12.0764 8.39068C12.0764 7.45837 12.6278 6.66669 13.6221 6.66669C14.7516 6.66669 15.1421 8.28042 16.5937 12.0547C16.8281 12.6641 17.0106 13.1465 17.1295 13.5032C17.2484 13.2654 17.3673 12.8493 17.5456 12.3737C18.7941 8.80681 19.5536 7.20483 20.6016 7.08594C21.015 7.03903 21.4692 7.14227 21.7665 7.43951C22.0042 7.73675 22.2459 8.15712 22.1826 8.62847C21.8828 10.8594 21.0722 12.8154 20.3991 14.6327ZM11.2442 19.8641C11.3631 19.983 11.5414 20.2208 11.7197 20.5181C12.2548 21.2909 12.7898 21.707 13.2654 21.707C13.9813 21.707 13.8736 20.9968 13.6221 20.5775C13.198 19.8708 12.6593 19.1986 12.0764 18.6157C11.5704 18.2362 11.137 18.2592 10.7091 18.7941C9.85781 19.8582 10.6071 21.5385 11.3631 22.4204C11.8981 23.0149 12.4926 23.5499 13.2654 23.9066C14.0382 24.2633 14.811 24.4416 15.7622 24.4416C17.4267 24.4416 18.7941 23.8472 19.9236 22.5987C21.0531 21.3503 21.5881 19.8047 21.5881 17.9024C21.5881 17.3079 21.5287 16.8917 21.4692 16.5351C21.2945 15.4867 19.8714 15.2464 19.0318 15.0489C18.0212 14.8111 16.9512 14.6922 15.8811 14.6922C15.3927 14.6922 15.0488 14.8824 15.0488 15.4055C15.0488 16 15.3461 16.4162 16 16.6539C16.6539 16.8917 17.724 17.0701 19.1507 17.0701C19.6051 17.0701 20.2969 17.1641 20.1019 17.6051C19.9442 17.9618 18.7691 18.1886 18.1996 18.6157C17.3125 19.2071 16.4756 20.3614 16.4756 21.4692C16.4756 22.1469 17.091 23.3337 16.8323 23.431C15.7977 23.82 15.6433 21.5013 15.6433 20.9937C15.3713 21.2657 15.0391 21.2344 14.7516 21.1125C14.7516 21.6353 14.9099 22.0243 14.4544 22.4799C13.6972 23.237 12.5527 22.6528 11.8981 22.0637C11.3631 21.5287 11.0325 21.0285 11.0325 20.4935C11.0325 20.268 11.0788 20.0295 11.2442 19.8641ZM15.5244 19.983C16.1849 19.3226 14.8411 17.2936 14.4544 16.7134C14.035 15.9795 13.2026 14.9927 12.3737 15.8217C11.8879 16.3074 12.1361 16.8724 12.3737 17.4268C12.6115 17.8429 12.8493 18.259 13.2059 18.7346C13.5754 19.2273 14.7491 20.7584 15.5244 19.983ZM16.3567 13.9788L14.9299 9.99577C14.5732 8.98516 14.3355 8.27178 14.0977 7.97454C13.6984 7.30906 12.8493 7.42301 12.8493 8.27178C12.8493 8.68792 13.0276 9.34185 13.3248 10.293C13.6221 11.2442 14.0977 12.5625 14.5937 14.1484C14.8286 13.6787 15.9531 13.9115 16.3567 13.9788ZM17.7834 17.8429C17.1285 17.8429 16.3726 17.7304 15.7622 17.4862C15.9844 18.0417 16.2384 18.5594 16.3567 19.1508C16.7513 18.6246 17.2623 18.2338 17.7834 17.8429ZM19.5074 14.3949C20.1019 12.8493 20.518 11.5414 20.8747 10.5308C21.172 9.52019 21.3503 8.92571 21.3503 8.68792C21.3503 7.70778 20.4495 7.79733 20.0425 8.50957C19.8047 8.92571 19.5074 9.52019 19.2102 10.4119L17.9023 14.0977L19.5074 14.3949Z" fill="white"/>
</svg>
