<svg width="40" height="40" viewBox="0 0 40 40" fill="none" xmlns="http://www.w3.org/2000/svg">
<path d="M4 4C4 1.79086 5.79086 0 8 0H24L36 12V36C36 38.2091 34.2091 40 32 40H8C5.79086 40 4 38.2091 4 36V4Z" fill="#875BF7"/>
<path opacity="0.3" d="M24 0L36 12H28C25.7909 12 24 10.2091 24 8V0Z" fill="white"/>
<g clip-path="url(#clip0_6726_49022)">
<path d="M20.0002 30.6667C23.6821 30.6667 26.6668 27.6819 26.6668 24C26.6668 20.3181 23.6821 17.3333 20.0002 17.3333C16.3183 17.3333 13.3335 20.3181 13.3335 24C13.3335 27.6819 16.3183 30.6667 20.0002 30.6667Z" stroke="white" stroke-width="1.5" stroke-linecap="round" stroke-linejoin="round"/>
<path d="M18.3335 21.9769C18.3335 21.6587 18.3335 21.4996 18.4 21.4108C18.4579 21.3334 18.5466 21.285 18.6431 21.2781C18.7538 21.2702 18.8876 21.3562 19.1552 21.5283L22.3023 23.5514C22.5346 23.7007 22.6507 23.7753 22.6908 23.8703C22.7258 23.9532 22.7258 24.0468 22.6908 24.1297C22.6507 24.2247 22.5346 24.2993 22.3023 24.4486L19.1552 26.4717C18.8876 26.6438 18.7538 26.7298 18.6431 26.7219C18.5466 26.7151 18.4579 26.6666 18.4 26.5892C18.3335 26.5004 18.3335 26.3413 18.3335 26.0231V21.9769Z" stroke="white" stroke-width="1.5" stroke-linecap="round" stroke-linejoin="round"/>
</g>
<defs>
<clipPath id="clip0_6726_49022">
<rect width="16" height="16" fill="white" transform="translate(12 16)"/>
</clipPath>
</defs>
</svg>
