<svg width="40" height="40" viewBox="0 0 40 40" fill="none" xmlns="http://www.w3.org/2000/svg">
<path d="M4 4C4 1.79086 5.79086 0 8 0H24L36 12V36C36 38.2091 34.2091 40 32 40H8C5.79086 40 4 38.2091 4 36V4Z" fill="url(#paint0_linear_6726_48998)"/>
<path d="M24 0L36 12H28C25.7909 12 24 10.2091 24 8V0Z" fill="#CDD5DF"/>
<g clip-path="url(#clip0_6726_48998)">
<path d="M13.3333 24H26.6666M13.3333 20.6667H16.6666M23.3333 20.6667H26.6666M13.3333 27.3333H16.6666M23.3333 27.3333H26.6666M16.6666 30.6667V17.3333M23.3333 30.6667V17.3333M16.5333 30.6667H23.4666C24.5867 30.6667 25.1467 30.6667 25.5746 30.4487C25.9509 30.2569 26.2569 29.951 26.4486 29.5747C26.6666 29.1468 26.6666 28.5868 26.6666 27.4667V20.5333C26.6666 19.4132 26.6666 18.8532 26.4486 18.4254C26.2569 18.049 25.9509 17.7431 25.5746 17.5513C25.1467 17.3333 24.5867 17.3333 23.4666 17.3333H16.5333C15.4131 17.3333 14.8531 17.3333 14.4253 17.5513C14.0489 17.7431 13.743 18.049 13.5512 18.4254C13.3333 18.8532 13.3333 19.4132 13.3333 20.5333V27.4667C13.3333 28.5868 13.3333 29.1468 13.5512 29.5747C13.743 29.951 14.0489 30.2569 14.4253 30.4487C14.8531 30.6667 15.4131 30.6667 16.5333 30.6667Z" stroke="#4B5565" stroke-width="1.5" stroke-linecap="round" stroke-linejoin="round"/>
</g>
<defs>
<linearGradient id="paint0_linear_6726_48998" x1="20" y1="0" x2="20" y2="40" gradientUnits="userSpaceOnUse">
<stop stop-color="#F9FAFB"/>
<stop offset="1" stop-color="#EDF0F3"/>
</linearGradient>
<clipPath id="clip0_6726_48998">
<rect width="16" height="16" fill="white" transform="translate(12 16)"/>
</clipPath>
</defs>
</svg>
