<svg width="60" height="45" viewBox="0 0 60 45" fill="none" xmlns="http://www.w3.org/2000/svg">
<g clip-path="url(#clip0_4_9172)">
<path d="M30 0H60V45H30V0Z" fill="white"/>
<path d="M0 0H30V45H0V0Z" fill="#006233"/>
<path d="M39.75 16.875C38.5117 14.7303 36.6004 13.0541 34.3124 12.1064C32.0244 11.1586 29.4876 10.9924 27.0955 11.6333C24.7034 12.2743 22.5896 13.6867 21.082 15.6514C19.5744 17.6162 18.7572 20.0235 18.7572 22.5C18.7572 24.9765 19.5744 27.3838 21.082 29.3486C22.5896 31.3133 24.7034 32.7257 27.0955 33.3667C29.4876 34.0076 32.0244 33.8414 34.3124 32.8936C36.6004 31.9459 38.5117 30.2697 39.75 28.125C38.5846 29.5806 36.9959 30.6383 35.2033 31.1519C33.4108 31.6655 31.503 31.6096 29.7436 30.9921C27.9842 30.3745 26.4601 29.2257 25.3818 27.7045C24.3035 26.1832 23.7244 24.3646 23.7244 22.5C23.7244 20.6354 24.3035 18.8168 25.3818 17.2955C26.4601 15.7743 27.9842 14.6255 29.7436 14.0079C31.503 13.3904 33.4108 13.3345 35.2033 13.8481C36.9959 14.3617 38.5846 15.4194 39.75 16.875M40.125 22.5L30 19.2L36.3 27.825V17.175L30 25.8L40.125 22.5Z" fill="#D21034"/>
</g>
<defs>
<clipPath id="clip0_4_9172">
<rect width="60" height="45" fill="white"/>
</clipPath>
</defs>
</svg>
