<svg width="60" height="45" viewBox="0 0 60 45" fill="none" xmlns="http://www.w3.org/2000/svg">
<g clip-path="url(#clip0_4_16591)">
<path fill-rule="evenodd" clip-rule="evenodd" d="M0 0H90.0096V29.8916H0V0Z" fill="#B20000"/>
<path fill-rule="evenodd" clip-rule="evenodd" d="M0 29.8916H90.0096V45H0V29.8916Z" fill="#429F00"/>
<path fill-rule="evenodd" clip-rule="evenodd" d="M0 0H9.96786V45H0V0Z" fill="white"/>
<path fill-rule="evenodd" clip-rule="evenodd" d="M0.474655 0.764648H0.949315V1.5293H0.474655V0.764648ZM1.89864 0.764648H3.32262V1.5293H1.89864V0.764648ZM2.3733 0H2.84796V0.764648H2.3733V0ZM4.7466 0H5.22126V0.764648H4.7466V0ZM6.64524 0.764648H8.06922V1.5293H6.64524V0.764648ZM7.1199 0H7.59456V0.764648H7.1199V0ZM1.42398 1.5293H2.3733V2.28516H1.42398V1.5293ZM2.84796 1.5293H3.79728V2.28516H2.84796V1.5293ZM6.17057 1.5293H7.1199V2.28516H6.17057V1.5293ZM7.59456 1.5293H8.54387V2.28516H7.59456V1.5293ZM0.949315 2.28516H1.89864V3.0498H0.949315V2.28516ZM3.32262 2.28516H4.27193V3.0498H3.32262V2.28516ZM5.69592 2.28516H6.64524V3.0498H5.69592V2.28516ZM8.06922 2.28516H9.01854V3.0498H8.06922V2.28516ZM9.01854 0.764648H9.4932V1.5293H9.01854V0.764648ZM0.474655 3.0498H1.42398V3.81445H0.474655V3.0498ZM3.79728 3.0498H4.7466V3.81445H3.79728V3.0498ZM8.54387 3.0498H9.4932V3.81445H8.54387V3.0498ZM0.949315 5.33496H1.89864V6.09961H0.949315V5.33496ZM1.42398 6.09961H2.3733V6.86426H1.42398V6.09961ZM3.32262 5.34375H4.27193V6.09961H3.32262V5.34375ZM2.84796 6.09961H3.79728V6.86426H2.84796V6.09961ZM1.89864 6.86426H3.32262V7.62891H1.89864V6.86426Z" fill="#B20000"/>
<path fill-rule="evenodd" clip-rule="evenodd" d="M2.3733 7.62891H2.84796V8.39356H2.3733V7.62891ZM5.69592 5.34375H6.64524V6.09961H5.69592V5.34375ZM6.17058 6.09961H7.1199V6.86426H6.17058V6.09961ZM8.06922 5.34375H9.01854V6.09961H8.06922V5.34375ZM7.59456 6.09961H8.54388V6.86426H7.59456V6.09961ZM6.64524 6.86426H8.06922V7.62891H6.64524V6.86426ZM7.1199 7.62891H7.59456V8.39356H7.1199V7.62891ZM4.7466 6.85547H5.22126V7.62012H4.7466V6.85547ZM0 6.85547H0.47466V7.62012H0V6.85547ZM9.4932 6.85547H9.96786V7.62012H9.4932V6.85547ZM2.3733 10.6699H2.84796V11.4346H2.3733V10.6699ZM1.89864 11.4434H3.32262V12.1992H1.89864V11.4434ZM1.42398 12.1992H3.79728V12.9639H1.42398V12.1992ZM7.1199 10.6787H7.59456V11.4434H7.1199V10.6787ZM6.64524 11.4434H8.06922V12.1992H6.64524V11.4434ZM6.17058 12.1992H8.54388V12.9639H6.17058V12.1992ZM6.64524 16.0137H9.01854V16.7783H6.64524V16.0137ZM5.69592 12.9639H9.01854V13.7285H5.69592V12.9639ZM0.94932 12.9639H4.27194V13.7285H0.94932V12.9639ZM1.42398 16.7783H2.84796V17.543H1.42398V16.7783ZM0.94932 16.0137H3.32262V16.7783H0.94932V16.0137ZM7.59456 14.502H9.96786V15.2666H7.59456V14.502ZM7.1199 16.7871H8.54388V17.5518H7.1199V16.7871Z" fill="#B20000"/>
<path fill-rule="evenodd" clip-rule="evenodd" d="M1.89864 17.543H2.3733V18.3076H1.89864V17.543ZM7.59456 17.543H8.06922V18.3076H7.59456V17.543ZM0 14.4932H2.3733V15.2578H0V14.4932ZM4.27194 16.0137H5.69592V16.7783H4.27194V16.0137ZM4.7466 16.7871H5.22126V17.5518H4.7466V16.7871ZM3.32262 14.502H6.64524V15.2666H3.32262V14.502ZM5.22126 3.0498H6.17058V3.81445H5.22126V3.0498ZM4.27194 3.81445H5.69592V4.5791H4.27194V3.81445ZM3.79728 4.5791H4.7466V5.33496H3.79728V4.5791ZM5.22126 4.5791H6.17058V5.33496H5.22126V4.5791ZM0 3.81445H0.94932V4.5791H0V3.81445ZM0.47466 4.5791H1.42398V5.33496H0.47466V4.5791ZM9.01854 3.81445H9.96786V4.57031H9.01854V3.81445ZM8.54388 4.57031H9.4932V5.32617H8.54388V4.57031ZM0 11.4258H0.47466V12.1904H0V11.4258ZM9.4932 11.4258H9.96786V12.1904H9.4932V11.4258ZM4.27194 17.5342H5.69592V18.2988H4.27194V17.5342ZM3.79728 18.2988H4.7466V19.0547H3.79728V18.2988ZM5.22126 18.2988H6.17058V19.0547H5.22126V18.2988ZM3.32262 19.0547H4.27194V19.8193H3.32262V19.0547ZM5.69592 19.0547H6.64524V19.8193H5.69592V19.0547ZM2.84796 19.8193H3.79728V20.584H2.84796V19.8193ZM6.17058 19.8193H7.1199V20.584H6.17058V19.8193ZM2.3733 20.5928H3.32262V21.3574H2.3733V20.5928ZM6.64524 20.5928H7.59456V21.3574H6.64524V20.5928ZM1.42398 21.3574H2.84796V22.1221H1.42398V21.3574ZM7.1199 21.3574H8.54388V22.1221H7.1199V21.3574ZM8.06922 20.5928H9.01854V21.3574H8.06922V20.5928ZM8.54388 19.8281H9.4932V20.5928H8.54388V19.8281ZM9.01854 19.0635H9.96786V19.8281H9.01854V19.0635ZM0.94932 20.5928H1.89864V21.3574H0.94932V20.5928ZM0.47466 19.8281H1.42398V20.5928H0.47466V19.8281ZM0 19.0723H0.94932V19.8369H0V19.0723ZM1.89864 22.1309H2.3733V22.8867H1.89864V22.1309ZM7.59456 22.1309H8.06922V22.8867H7.59456V22.1309ZM4.7466 19.8457H5.22126V20.6016H4.7466V19.8457ZM3.32262 22.1309H3.79728V22.8867H3.32262V22.1309ZM6.17058 22.1309H6.64524V22.8867H6.17058V22.1309ZM4.7466 22.1309H5.22126V22.8867H4.7466V22.1309ZM0 22.1309H0.47466V22.8867H0L0 22.1309ZM9.4932 22.1309H9.96786V22.8867H9.4932V22.1309ZM4.7466 11.4434H5.22126V12.1992H4.7466V11.4434ZM2.3733 3.81445H2.84796V4.5791H2.3733V3.81445ZM7.1199 3.81445H7.59456V4.5791H7.1199V3.81445ZM4.27194 9.14941H5.69592V9.91406H4.27194V9.14941ZM3.32262 9.91406H4.7466V10.6787H3.32262V9.91406ZM3.79728 10.6787H4.27194V11.4434H3.79728V10.6787ZM2.84796 9.14941H3.79728V9.91406H2.84796V9.14941ZM3.32262 8.39355H4.7466V9.14941H3.32262V8.39355ZM3.79728 7.62891H4.27194V8.39355H3.79728V7.62891ZM5.22126 8.39355H6.64524V9.14941H5.22126V8.39355ZM5.69592 7.62891H6.17058V8.39355H5.69592V7.62891ZM6.17058 9.14941H7.1199V9.91406H6.17058V9.14941ZM5.22126 9.91406H6.64524V10.6787H5.22126V9.91406ZM5.69592 10.6787H6.17058V11.4434H5.69592V10.6787ZM7.59456 9.14941H8.54388V9.91406H7.59456V9.14941ZM8.06922 8.39355H9.4932V9.14941H8.06922V8.39355ZM9.01854 9.14941H9.96786V9.91406H9.01854V9.14941ZM8.06922 9.91406H9.4932V10.6787H8.06922V9.91406ZM8.54388 10.6787H9.01854V11.4434H8.54388V10.6787ZM8.54388 7.62891H9.01854V8.39355H8.54388V7.62891ZM0 9.14062H0.94932V9.90527H0V9.14062ZM0.47466 8.38477H1.89864V9.14062H0.47466V8.38477ZM1.42398 9.14062H2.3733V9.90527H1.42398V9.14062ZM0.47466 9.90527H1.89864V10.6699H0.47466V9.90527Z" fill="#B20000"/>
<path fill-rule="evenodd" clip-rule="evenodd" d="M0.94932 10.6787H1.42398V11.4434H0.94932V10.6787ZM0.94932 7.62891H1.42398V8.39355H0.94932V7.62891ZM0.47466 13.7285H2.3733V14.4932H0.47466V13.7285ZM2.84796 13.7285H4.7466V14.4932H2.84796V13.7285ZM5.22126 13.7285H7.1199V14.4932H5.22126V13.7285ZM7.59456 13.7285H9.4932V14.4932H7.59456V13.7285ZM3.79728 15.2578H6.17058V16.0137H3.79728V15.2578ZM0.47466 15.2578H2.84796V16.0137H0.47466V15.2578ZM7.1199 15.2578H9.4932V16.0137H7.1199V15.2578ZM9.4932 18.3076H9.96786V19.0635H9.4932V18.3076ZM0 18.3076H0.47466V19.0635H0V18.3076ZM0.47466 44.2354H0.94932V43.4795H0.47466V44.2354ZM1.89864 44.2354H3.32262V43.4795H1.89864V44.2354ZM2.3733 45H2.84796V44.2354H2.3733V45ZM4.7466 45H5.22126V44.2354H4.7466V45ZM6.64524 44.2354H8.06922V43.4707H6.64524V44.2354ZM7.1199 45H7.59456V44.2354H7.1199V45ZM1.42398 43.4707H2.3733V42.7148H1.42398V43.4707ZM2.84796 43.4707H3.79728V42.7148H2.84796V43.4707ZM6.17058 43.4707H7.1199V42.7148H6.17058V43.4707ZM7.59456 43.4707H8.54388V42.7148H7.59456V43.4707ZM3.32262 42.7148H4.27194V41.9502H3.32262V42.7148ZM5.69592 42.7148H6.64524V41.9502H5.69592V42.7148ZM8.06922 42.7148H9.01854V41.9502H8.06922V42.7148ZM9.01854 44.2354H9.4932V43.4707H9.01854V44.2354ZM0.47466 41.9502H1.42398V41.1855H0.47466V41.9502ZM3.79728 41.9502H4.7466V41.1855H3.79728V41.9502ZM8.54388 41.9502H9.4932V41.1855H8.54388V41.9502ZM0.94932 39.665H1.89864V38.9004H0.94932V39.665ZM1.42398 38.9004H2.3733V38.1357H1.42398V38.9004ZM3.32262 39.665H4.27194V38.9004H3.32262V39.665ZM2.84796 38.9004H3.79728V38.1357H2.84796V38.9004ZM1.89864 38.1357H3.32262V37.3711H1.89864V38.1357ZM2.3733 37.3711H2.84796V36.6152H2.3733V37.3711ZM5.69592 39.6563H6.64524V38.9004H5.69592V39.6563ZM6.17058 38.9004H7.1199V38.1357H6.17058V38.9004ZM8.06922 39.665H9.01854V38.9004H8.06922V39.665ZM7.59456 38.9004H8.54388V38.1357H7.59456V38.9004ZM6.64524 38.1357H8.06922V37.3711H6.64524V38.1357ZM7.1199 37.3711H7.59456V36.6152H7.1199V37.3711ZM4.7466 38.1445H5.22126V37.3799H4.7466V38.1445ZM0 38.1445H0.47466V37.3799H0V38.1445ZM9.4932 38.1445H9.96786V37.3799H9.4932V38.1445ZM2.3733 34.3301H2.84796V33.5654H2.3733V34.3301ZM1.89864 33.5566H3.32262V32.8008H1.89864V33.5566ZM1.42398 32.8008H3.79728V32.0361H1.42398V32.8008ZM7.1199 34.3213H7.59456V33.5566H7.1199V34.3213Z" fill="#B20000"/>
<path fill-rule="evenodd" clip-rule="evenodd" d="M6.64524 33.5566H8.06922V32.8008H6.64524V33.5566ZM6.17058 32.8008H8.54388V32.0361H6.17058V32.8008ZM6.64524 28.9863H9.01854V28.2129H6.64524V28.9863ZM5.69592 32.0361H9.01854V31.2715H5.69592V32.0361ZM0.94932 32.0361H4.27194V31.2715H0.94932V32.0361ZM1.42398 28.2217H2.84796V27.457H1.42398V28.2217ZM0.94932 28.9863H3.32262V28.2129H0.94932V28.9863ZM7.59456 30.498H9.96786V29.7334H7.59456V30.498ZM7.1199 28.2129H8.54388V27.4482H7.1199V28.2129ZM0 30.498H2.3733V29.7334H0V30.498ZM4.27194 28.9775H5.69592V28.2129H4.27194V28.9775ZM4.7466 28.2129H5.22126V27.4482H4.7466V28.2129ZM3.32262 30.498H6.64524V29.7334H3.32262V30.498ZM5.22126 41.9414H6.17058V41.1768H5.22126V41.9414ZM4.27194 41.1768H5.69592V40.4297H4.27194V41.1768ZM3.79728 40.4121H4.7466V39.6475H3.79728V40.4121ZM5.22126 40.4121H6.17058V39.6475H5.22126V40.4121ZM0 41.1855H0.94932V40.4297H0V41.1855ZM0.47466 40.4209H1.42398V39.665H0.47466V40.4209ZM9.01854 41.1855H9.96786V40.4297H9.01854V41.1855ZM8.54388 40.4209H9.4932V39.665H8.54388V40.4209ZM0 33.5742H0.47466V32.8096H0V33.5742ZM9.4932 33.5742H9.96786V32.8096H9.4932V33.5742ZM3.79728 26.7012H4.7466V25.9453H3.79728V26.7012ZM5.22126 26.7012H6.17058V25.9453H5.22126V26.7012ZM3.32262 25.9453H4.27194V25.1807H3.32262V25.9453ZM5.69592 25.9453H6.64524V25.1807H5.69592V25.9453ZM2.84796 25.1807H3.79728V24.416H2.84796V25.1807ZM6.17058 25.1807H7.1199V24.416H6.17058V25.1807ZM2.3733 24.4072H3.32262V23.6426H2.3733V24.4072ZM6.64524 24.4072H7.59456V23.6426H6.64524V24.4072ZM1.42398 23.6426H2.84796V22.8779H1.42398V23.6426ZM7.1199 23.6426H8.54388V22.8779H7.1199V23.6426ZM8.06922 24.4072H9.01854V23.6426H8.06922V24.4072ZM8.54388 25.1719H9.4932V24.4072H8.54388V25.1719ZM9.01854 25.9365H9.96786V25.1719H9.01854V25.9365ZM0.94932 24.4072H1.89864V23.6426H0.94932V24.4072ZM0.47466 25.1719H1.42398V24.4072H0.47466V25.1719ZM0 25.9277H0.94932V25.1631H0V25.9277ZM1.89864 22.8691H2.3733V22.1133H1.89864V22.8691ZM4.7466 25.1543H5.22126V24.3984H4.7466V25.1543ZM4.7466 33.5479H5.22126V32.792H4.7466V33.5479ZM2.3733 41.1768H2.84796V40.4297H2.3733V41.1768ZM7.1199 41.1768H7.59456V40.4297H7.1199V41.1768ZM4.27194 35.8594H5.69592V35.0947H4.27194V35.8594ZM3.32262 35.0947H4.7466V34.3301H3.32262V35.0947ZM3.79728 34.3301H4.27194V33.5654H3.79728V34.3301ZM2.84796 35.8594H3.79728V35.0947H2.84796V35.8594ZM3.32262 36.6064H4.7466V35.8594H3.32262V36.6064ZM3.79728 37.3711H4.27194V36.6152H3.79728V37.3711ZM5.22126 36.6064H6.64524V35.8594H5.22126V36.6064ZM5.69592 37.3711H6.17058V36.6152H5.69592V37.3711ZM6.17058 35.8506H7.1199V35.0859H6.17058V35.8506ZM5.22126 35.0859H6.64524V34.3213H5.22126V35.0859ZM5.69592 34.3213H6.17058V33.5566H5.69592V34.3213ZM7.59456 35.8594H8.54388V35.0947H7.59456V35.8594ZM8.06922 36.6064H9.4932V35.8594H8.06922V36.6064ZM9.01854 35.8506H9.96786V35.0859H9.01854V35.8506ZM8.06922 35.0859H9.4932V34.3213H8.06922V35.0859ZM8.54388 34.3213H9.01854V33.5566H8.54388V34.3213ZM8.54388 37.3711H9.01854V36.6152H8.54388V37.3711ZM0 35.8594H0.94932V35.0947H0V35.8594ZM0.47466 36.6064H1.89864V35.8594H0.47466V36.6064Z" fill="#B20000"/>
<path fill-rule="evenodd" clip-rule="evenodd" d="M1.42398 35.8506H2.3733V35.0859H1.42398V35.8506ZM0.47466 35.0859H1.89864V34.3213H0.47466V35.0859ZM0.94932 34.3213H1.42398V33.5566H0.94932V34.3213ZM0.94932 37.3711H1.42398V36.6152H0.94932V37.3711ZM0.47466 31.2715H2.3733V30.5068H0.47466V31.2715ZM2.84796 31.2715H4.7466V30.5068H2.84796V31.2715ZM5.22126 31.2715H7.1199V30.5068H5.22126V31.2715ZM7.59456 31.2715H9.4932V30.5068H7.59456V31.2715ZM3.79728 29.7422H6.17058V28.9863H3.79728V29.7422ZM0.47466 29.7422H2.84796V28.9863H0.47466V29.7422ZM7.1199 29.7422H9.4932V28.9863H7.1199V29.7422ZM9.4932 26.7012H9.96786V25.9277H9.4932V26.7012ZM0 26.7012H0.47466V25.9277H0V26.7012ZM4.27194 22.8779H4.7466V23.6426H4.27194V22.8779ZM5.22126 22.8779H5.69592V23.6426H5.22126V22.8779ZM5.22126 21.3574H5.69592V22.1221H5.22126V21.3574ZM4.27194 21.3574H4.7466V22.1221H4.27194V21.3574ZM0.94932 41.9502H1.89864V42.7148H0.94932V41.9502ZM7.59456 27.457H8.06922V26.6924H7.59456V27.457ZM1.89864 27.457H2.3733V26.6924H1.89864V27.457ZM4.27194 26.6924H5.69592V27.457H4.27194V26.6924Z" fill="#B20000"/>
</g>
<defs>
<clipPath id="clip0_4_16591">
<rect width="60" height="45" fill="white"/>
</clipPath>
</defs>
</svg>
