<svg width="60" height="45" viewBox="0 0 60 45" fill="none" xmlns="http://www.w3.org/2000/svg">
<g clip-path="url(#clip0_4_17765)">
<path d="M0 0H60V45H0V0Z" fill="#F7E017"/>
<path d="M0 3.12183V23.1281L60 32.5031V21.8718L0 3.12183Z" fill="white"/>
<path d="M0 13.7532V23.1282L60 41.8782V32.5032L0 13.7532Z" fill="black"/>
<path d="M28.4815 35.6064C27.3844 35.4853 26.329 35.1178 25.3939 34.5314C25.2439 34.4314 25.1064 34.3439 25.0814 34.3439C25.0564 34.3439 25.0439 34.4627 25.0439 34.6002C25.0439 35.0002 24.8814 35.2002 24.4814 35.3064C24.0939 35.4064 23.5064 35.2064 23.0314 34.8064C22.581 34.4211 22.0553 34.1337 21.4877 33.9627C20.8964 33.8219 20.2741 33.9019 19.7377 34.1877C19.6846 34.225 19.6254 34.2525 19.5627 34.2689C19.4939 34.2689 19.5002 33.8377 19.5752 33.7064C19.6689 33.5189 19.8939 33.3439 20.1627 33.2502C20.3002 33.2002 20.4127 33.1377 20.4127 33.1064C20.4127 33.0814 20.3627 32.9814 20.3064 32.8814C20.1252 32.5627 20.2002 32.2564 20.5189 32.0127C20.8439 31.7627 21.3939 31.7252 21.8752 31.9064C21.9565 31.9411 22.04 31.9703 22.1252 31.9939C22.1877 31.9939 22.1502 31.9002 21.9752 31.6439C21.7752 31.3502 21.7314 31.2064 21.7564 30.8502C21.7736 30.6321 21.868 30.4273 22.0227 30.2727C22.1773 30.118 22.3821 30.0236 22.6002 30.0064C22.9627 29.9814 23.1877 30.1064 23.7252 30.6127C25.1688 32.0657 27.0649 32.9829 29.1002 33.2127C29.619 33.2752 30.6502 33.2439 31.2565 33.1502C33.177 32.8297 34.9577 31.9416 36.369 30.6002C36.769 30.2252 36.9565 30.1252 37.2877 30.1252C37.569 30.1252 37.769 30.2127 37.9752 30.4377C38.1627 30.6439 38.2253 30.8377 38.2003 31.1564C38.1878 31.3564 38.1565 31.4502 38.0377 31.6502C37.8627 31.9314 37.894 31.9627 38.2377 31.8252C38.7128 31.6377 39.294 31.7252 39.6065 32.0252C39.8815 32.2877 39.9065 32.5502 39.694 32.9002C39.6128 33.0314 39.5503 33.1502 39.5503 33.1752C39.5503 33.2127 39.6128 33.2252 39.894 33.2752C40.269 33.3377 40.4878 33.6127 40.4878 34.0377C40.4878 34.1627 40.469 34.2689 40.4503 34.2689C40.4315 34.2689 40.2878 34.2127 40.1378 34.1502C39.7003 33.9689 39.4503 33.9252 38.9378 33.9314C38.5503 33.9314 38.419 33.9502 38.1503 34.0377C37.7004 34.1941 37.2861 34.4385 36.9315 34.7564C36.5315 35.1127 36.2815 35.2252 35.894 35.2189C35.5315 35.2189 35.2877 35.1127 35.1565 34.9064C35.0877 34.7939 35.0752 34.7314 35.094 34.4814C35.1065 34.3189 35.1002 34.1877 35.094 34.1877C35.0752 34.1877 34.9377 34.2752 34.7815 34.3814C34.4247 34.6373 34.036 34.8453 33.6252 35.0002C31.9803 35.596 30.2199 35.8035 28.4815 35.6064Z" fill="#CF1126"/>
<path d="M29.144 32.8252C27.935 32.7141 26.7637 32.346 25.7085 31.7456C24.6533 31.1452 23.7384 30.3264 23.0252 29.3439C21.5002 27.2689 21.0252 24.5251 21.4877 22.0189C21.7377 20.8751 22.2377 19.7314 23.0815 18.9188C22.3859 20.3624 22.1944 21.9975 22.5377 23.5626C23.1002 26.6751 25.7252 29.3064 28.869 29.7627C30.119 30.1189 31.4003 29.7377 32.5878 29.3564C35.2128 28.4314 37.2128 25.9439 37.4503 23.1626C37.6565 21.6626 37.4315 20.0939 36.7503 18.7251C37.1378 18.9313 37.6253 19.7376 37.9128 20.2751C38.9128 22.2126 38.9565 24.5314 38.369 26.6001C37.569 29.2314 35.5565 31.5377 32.9003 32.3752C31.6884 32.7538 30.4173 32.9063 29.1503 32.8252H29.144Z" fill="#CF1126"/>
<path d="M17.0002 29.369C16.8439 29.344 16.6689 29.5002 16.7314 29.6627C16.8439 29.8252 17.0439 29.9127 17.2189 29.9877C17.68 30.1678 18.175 30.2446 18.6689 30.2127C19.0314 30.2128 19.391 30.1494 19.7315 30.0252C19.919 29.9627 20.1565 29.9002 20.2315 29.6877C20.3127 29.5565 20.169 29.419 20.0377 29.444C19.8502 29.4877 19.6627 29.569 19.4752 29.6252C19.0631 29.7419 18.6334 29.7842 18.2064 29.7502C17.8957 29.705 17.5928 29.6167 17.3064 29.4877C17.2064 29.444 17.1127 29.3815 17.0002 29.369V29.369Z" fill="#CF1126"/>
<path d="M17.1751 28.7189C17.0189 28.6939 16.8814 28.8814 16.9439 29.0314C17.0689 29.2064 17.2751 29.3002 17.4689 29.3814C17.8069 29.514 18.1686 29.5757 18.5314 29.5627H18.6252C18.9337 29.564 19.2396 29.5045 19.5252 29.3877C19.6939 29.3189 19.9064 29.2502 19.9814 29.0627C20.0377 28.9564 19.9939 28.8064 19.8564 28.7939C19.7439 28.7939 19.6377 28.8689 19.5252 28.9002C19.118 29.0683 18.6766 29.1369 18.2376 29.1002C17.9626 29.0689 17.7064 28.9689 17.4564 28.8502C17.3626 28.8064 17.2814 28.7377 17.1751 28.7252V28.7189Z" fill="#CF1126"/>
<path d="M17.3939 28.1003C17.2564 28.0815 17.1627 28.2378 17.1877 28.3565C17.2064 28.469 17.3002 28.544 17.3814 28.6065C17.7218 28.8423 18.1305 28.9587 18.544 28.9378H18.644C18.9038 28.9359 19.1601 28.8761 19.394 28.7628C19.5502 28.7003 19.7315 28.619 19.7877 28.4378C19.8127 28.3565 19.8252 28.2378 19.7315 28.1878C19.6315 28.1378 19.5377 28.219 19.4502 28.2503C19.1512 28.4074 18.8192 28.4909 18.4815 28.494C18.1916 28.4825 17.9096 28.3964 17.6627 28.244C17.5689 28.2003 17.4939 28.119 17.3939 28.1003V28.1003Z" fill="#CF1126"/>
<path d="M15.0939 18.9189C14.8939 19.1252 15.0502 19.5002 15.0314 19.7627C15.1439 20.5877 15.2752 21.419 15.5814 22.2002C15.9564 22.9502 16.7564 23.3565 17.2377 24.0252C17.4127 24.344 17.3502 24.7315 17.3877 25.0877C17.4127 26.044 17.4064 27.0065 17.3877 27.9627C17.8252 28.1877 18.2939 28.4002 18.7939 28.319C19.0877 28.2502 19.6377 28.2065 19.7002 27.9127L19.6377 22.944C19.4689 22.4377 18.9502 22.1752 18.5689 21.8502C18.2503 21.5356 17.9537 21.1994 17.6814 20.844C17.5189 20.5627 16.8752 20.469 17.1064 20.944C17.2439 21.3627 17.5877 21.669 17.6752 22.1065C17.6939 22.3502 17.9877 22.794 17.7377 22.9315C17.5837 22.6598 17.3503 22.4417 17.0689 22.3065C16.7939 22.1002 16.3377 22.0127 16.2377 21.6502C16.1476 21.1346 15.9086 20.6566 15.5502 20.2752C15.6439 19.8127 15.5502 19.2314 15.1502 18.9314L15.0939 18.9189V18.9189Z" fill="#CF1126"/>
<path d="M15.7126 19.0127C15.5251 19.0439 15.5376 19.2752 15.6189 19.4002C15.7115 19.6692 15.7352 19.9572 15.6876 20.2377C16.0304 20.6193 16.2598 21.089 16.3501 21.594C16.3501 21.7815 16.5501 21.844 16.6814 21.9377C16.9876 22.1315 17.3251 22.2752 17.6002 22.519C17.6564 22.5815 17.7002 22.644 17.6627 22.519C17.6189 22.3565 17.6002 22.1815 17.4751 22.0627C17.3001 21.8752 17.0876 21.7127 16.8376 21.6627C16.8189 21.4002 16.6939 21.1627 16.5814 20.9377C16.4564 20.719 16.3251 20.4877 16.1126 20.3502C16.1126 19.9689 16.1126 19.5689 15.9501 19.2127C15.9001 19.1252 15.8251 19.0189 15.7126 19.0127Z" fill="#CF1126"/>
<path d="M16.2314 19.1627C16.1064 19.2002 16.1314 19.3627 16.1689 19.4565C16.2235 19.7279 16.2445 20.005 16.2314 20.2815C16.4751 20.469 16.6189 20.744 16.7564 21.0065C16.8439 21.1815 16.9189 21.369 16.9501 21.5627C17.1439 21.6252 17.3127 21.7502 17.4627 21.8752C17.4002 21.7002 17.2752 21.5627 17.1814 21.394C17.0876 21.2252 16.9939 21.044 16.9501 20.8502C16.7626 20.6565 16.6626 20.3752 16.7001 20.1002C16.7126 19.8065 16.6189 19.5002 16.4189 19.2752C16.3689 19.2252 16.3064 19.169 16.2314 19.1627Z" fill="#CF1126"/>
<path d="M16.8252 19.2502C16.7502 19.2627 16.7127 19.3252 16.6752 19.3814C16.6564 19.4377 16.7252 19.4939 16.7377 19.5564C16.8193 19.7628 16.8494 19.9859 16.8252 20.2065C16.8189 20.3627 16.8752 20.519 16.9502 20.644C16.9642 20.5958 16.9927 20.5532 17.0319 20.5219C17.071 20.4906 17.1189 20.4721 17.1689 20.469C17.2002 20.469 17.2564 20.4815 17.2314 20.4252C17.2064 20.1252 17.1627 19.8252 17.0564 19.5502C17.0256 19.4419 16.965 19.3444 16.8814 19.2689C16.8689 19.2564 16.8439 19.2439 16.8189 19.2502H16.8252Z" fill="#CF1126"/>
<path d="M29.7315 29.7502C29.3093 29.7045 28.9091 29.539 28.5779 29.2732C28.2468 29.0074 27.9986 28.6524 27.8627 28.2501C27.8815 28.1126 28.0502 28.3251 28.1315 28.3439C28.2839 28.4347 28.4548 28.4903 28.6315 28.5064C28.8502 28.6001 28.9877 28.8189 29.2002 28.9376C29.3002 29.0126 29.6502 29.1626 29.5815 28.9189C29.5002 28.7939 29.444 28.6314 29.519 28.4814C29.6315 28.2251 29.8127 28.0001 30.0002 27.7814C30.1315 27.7376 30.2252 28.0064 30.319 28.0939C30.4502 28.3001 30.6127 28.5501 30.5315 28.8001C30.4565 28.8939 30.4065 29.1751 30.6127 29.0876C30.8627 28.9751 31.069 28.7876 31.2753 28.6126C31.4628 28.4876 31.694 28.4814 31.8815 28.3626C31.9753 28.3439 32.1565 28.1689 32.194 28.2626C32.0821 28.542 31.9259 28.8016 31.7315 29.0314C31.431 29.3882 31.0155 29.6291 30.5565 29.7126C30.2815 29.7626 30.0065 29.7752 29.7315 29.7502V29.7502Z" fill="#CF1126"/>
<path d="M30.719 28.7627C30.7377 28.5939 30.7002 28.4252 30.6127 28.2627C30.4815 28.0002 30.3002 27.7627 30.1127 27.5189C29.9377 27.4189 29.844 27.7502 29.7315 27.8439C29.5502 28.1127 29.3252 28.3877 29.3127 28.7189C29.2127 28.8752 29.0252 28.5939 28.9439 28.5002C28.7774 28.2861 28.6892 28.0214 28.6939 27.7502C28.6788 27.31 28.7555 26.8716 28.9189 26.4627C29.0439 26.1127 29.2377 25.7752 29.2189 25.4002C29.2314 25.1064 29.1752 24.7939 28.9439 24.6002C28.7189 24.4252 29.0877 24.3877 29.2002 24.4752C29.4002 24.4939 29.5065 24.8189 29.6877 24.7377C29.7565 24.5689 29.7752 24.3627 29.9252 24.2314C30.069 24.0314 30.219 24.3127 30.269 24.4502C30.3752 24.5627 30.269 24.8564 30.4315 24.8627C30.6315 24.7189 30.7752 24.4877 31.0315 24.4314C31.1377 24.3689 31.3127 24.4314 31.1752 24.5439C30.9877 24.7252 30.8252 24.9439 30.7877 25.2127C30.7315 25.5439 30.8127 25.8814 30.9565 26.1752C31.2377 26.7627 31.4565 27.4252 31.3127 28.0814C31.2502 28.3689 31.0502 28.6189 30.8127 28.7877C30.7815 28.8064 30.7315 28.8064 30.719 28.7627V28.7627Z" fill="#CF1126"/>
<path d="M30.419 24.3501C30.3348 24.181 30.2155 24.0318 30.069 23.9126C29.919 23.9126 29.8252 24.1001 29.7252 24.2001C29.6565 24.3314 29.569 24.5501 29.394 24.3814C29.1127 24.2189 29.069 23.8626 29.069 23.5689C29.0502 23.0939 29.244 22.6501 29.4127 22.2189C29.519 21.9501 29.494 21.6439 29.4252 21.3689C29.344 21.0564 29.0877 20.8314 28.894 20.5814C28.9065 20.4876 29.1565 20.5376 29.2502 20.5564C29.4627 20.6126 29.5877 20.7939 29.744 20.9314C29.8565 20.8939 29.8065 20.6689 29.8627 20.5626C29.8627 20.4126 30.0627 20.2189 30.144 20.4314C30.269 20.5689 30.144 20.8376 30.3002 20.9189C30.4502 20.8626 30.5252 20.7001 30.6627 20.6251C30.7345 20.5786 30.8171 20.5514 30.9024 20.5459C30.9878 20.5404 31.0731 20.5569 31.1502 20.5939C31.2065 20.7314 30.9877 20.8439 30.9252 20.9689C30.8003 21.1247 30.7137 21.3077 30.6725 21.5031C30.6312 21.6985 30.6365 21.9008 30.6877 22.0939C30.7752 22.4064 30.9252 22.6876 30.9815 23.0001C31.049 23.3565 31.0383 23.7233 30.9502 24.0751C30.894 24.2876 30.7127 24.4251 30.5252 24.5126C30.4752 24.4689 30.4502 24.4064 30.419 24.3501V24.3501Z" fill="#CF1126"/>
<path d="M29.4752 20.4314C29.2627 20.2752 29.194 20.1314 29.194 19.8377C29.194 19.6939 29.2252 19.6127 29.319 19.4752C29.469 19.2752 29.444 19.2127 29.2377 19.2689C28.9065 19.3627 28.7502 19.2814 28.7377 19.0002C28.7377 18.8627 28.7627 18.8064 28.944 18.5814C29.094 18.4064 29.1502 18.3127 29.119 18.2814C29.0877 18.2564 28.9127 18.4064 28.5565 18.7689C28.3331 19.0045 28.0951 19.2257 27.844 19.4314C27.2315 19.8439 26.644 19.9064 26.3752 19.5877C26.2377 19.4252 26.244 19.3377 26.4002 19.2377C26.4997 19.1705 26.5919 19.0929 26.6752 19.0064C26.9815 18.7267 27.3192 18.4835 27.6815 18.2814C27.9065 18.1689 27.9565 18.0939 27.8127 18.0939C27.6252 18.0939 27.0315 18.4814 26.5752 18.8939C26.444 19.0189 26.2502 19.1564 26.1502 19.2064C25.8721 19.3079 25.5712 19.3295 25.2815 19.2689C25.144 19.2252 24.8877 18.9877 24.8877 18.9002C24.8877 18.8814 24.9502 18.8314 25.0127 18.7877C25.1146 18.7301 25.2108 18.6632 25.3002 18.5877C25.6627 18.2752 26.3502 17.9439 26.894 17.8252C27.069 17.7939 27.0002 17.7002 26.8065 17.7127C26.2328 17.8222 25.6956 18.0736 25.244 18.4439C24.7252 18.8752 23.9439 18.8314 23.6939 18.3627C23.6502 18.2814 23.6189 18.2064 23.6314 18.1939C24.0742 18.0822 24.5021 17.9185 24.9065 17.7064C25.2547 17.5012 25.6385 17.3634 26.0377 17.3002C26.2127 17.2689 26.2252 17.1814 26.0565 17.1627C25.8315 17.1377 25.494 17.2502 24.9002 17.5377C24.1315 17.9189 23.9127 17.9877 23.5127 17.9627C23.1377 17.9377 22.9314 17.8439 22.6377 17.5627C22.4377 17.3752 22.1627 16.9064 22.2127 16.8502C22.5372 16.9184 22.8689 16.9457 23.2002 16.9314C23.7189 16.9314 23.8627 16.9189 24.1377 16.8377C24.6749 16.6674 25.1814 16.4121 25.6377 16.0814C26.281 15.5372 27.0951 15.2363 27.9377 15.2314C28.7127 15.2314 29.2002 15.4064 29.6377 15.8502C29.7877 16.0002 29.9127 16.0939 29.9315 16.0752C29.9502 16.0564 29.969 15.7939 29.9752 15.4939C29.9752 15.4939 30.2065 15.4689 30.2565 15.5377C30.2565 16.0189 30.2565 16.0627 30.3315 16.0627C30.3752 16.0627 30.4252 16.0127 30.4565 15.9377C30.519 15.7814 30.769 15.5627 31.0315 15.4252C31.594 15.1439 32.5752 15.1314 33.3627 15.4064C33.7392 15.5493 34.0913 15.7496 34.4065 16.0002C34.8663 16.3236 35.3719 16.5764 35.9065 16.7502C36.3315 16.8752 37.094 16.9064 37.4753 16.8127C37.5868 16.7869 37.6994 16.766 37.8128 16.7502C37.9565 16.7502 37.7128 17.2252 37.4253 17.5064C36.9003 18.0189 36.219 18.0127 35.2628 17.5002C34.6628 17.1752 33.9502 17.0002 33.9502 17.1752C33.9502 17.2127 33.9878 17.2377 34.044 17.2377C34.2503 17.2377 34.6503 17.3752 35.2128 17.6439C35.5662 17.8477 35.9537 17.9854 36.3565 18.0502C36.5003 18.0502 36.5065 18.1439 36.369 18.3439C36.2253 18.5564 35.9815 18.6564 35.6378 18.6564C35.3065 18.6564 35.119 18.5877 34.8253 18.3439C34.3253 17.9314 33.1002 17.4689 33.144 17.7189C33.1565 17.7627 33.2127 17.7939 33.344 17.8127C33.8719 17.9274 34.366 18.1627 34.7878 18.5002L35.1565 18.7689C35.2253 18.8064 35.2253 18.8189 35.169 18.9252C35.0815 19.1002 34.844 19.2314 34.594 19.2564C34.269 19.2939 33.9815 19.1939 33.6877 18.9439C33.0627 18.4252 32.4815 18.0502 32.294 18.0502C32.1377 18.0502 32.2065 18.1377 32.4815 18.2814C32.8372 18.4699 33.1688 18.7007 33.469 18.9689C33.594 19.0877 33.7377 19.2002 33.7815 19.2252C33.9002 19.2877 33.894 19.3752 33.769 19.5377C33.644 19.7002 33.4315 19.7752 33.1627 19.7439C32.6252 19.6877 32.2002 19.4314 31.5377 18.7439C31.3802 18.568 31.2088 18.405 31.0252 18.2564C30.9377 18.2564 30.994 18.3752 31.1627 18.5689C31.3752 18.8002 31.4127 18.9314 31.3315 19.1314C31.2627 19.2939 31.144 19.3377 30.9065 19.2689C30.6565 19.2064 30.619 19.2689 30.7815 19.4627C31.019 19.7689 30.9877 20.1314 30.6877 20.3877C30.6257 20.4475 30.5538 20.4961 30.4752 20.5314C30.4502 20.5314 30.3877 20.4689 30.3315 20.3814C30.144 20.0939 29.9752 20.0939 29.7877 20.3814C29.7482 20.4453 29.7065 20.5079 29.6627 20.5689C29.5995 20.5241 29.537 20.4783 29.4752 20.4314V20.4314Z" fill="#CF1126"/>
<path d="M30.419 14.5626L30.094 14.8126L29.8065 14.6001V16.3376H30.419V14.5626Z" fill="#CF1126"/>
<path d="M28.4315 12.7689C28.3746 13.4716 28.1837 14.1569 27.869 14.7877L28.5627 14.1439L29.044 14.7189L29.569 14.1314L30.1002 14.6314L30.6127 14.1127L31.144 14.7377L31.6065 14.2252L32.394 14.7877C32.1065 14.1627 31.7252 13.6252 31.769 12.7377C31.0127 13.3002 29.2065 13.4002 28.4315 12.7627V12.7689Z" fill="#CF1126"/>
<path d="M29.8127 12.3501C29.5315 12.3501 29.2377 12.3564 28.9752 12.4126C28.8014 12.4403 28.6353 12.5042 28.4877 12.6001C28.5065 13.1376 31.0502 13.3564 31.7315 12.6126C31.5782 12.5065 31.4031 12.436 31.219 12.4064C30.969 12.3564 30.6815 12.3564 30.4127 12.3439V12.7876H29.8127V12.3501V12.3501Z" fill="#CF1126"/>
<path d="M30.3065 9.62512H29.9127V12.7126H30.3127L30.3065 9.62512Z" fill="#CF1126"/>
<path d="M30.3065 9.7001L30.1565 11.1814L31.6752 11.9251L30.9065 10.8939L31.9565 10.5501L30.3065 9.7001ZM30.1377 9.31885C29.9065 9.31885 29.7377 9.40635 29.7377 9.50635C29.7377 9.60635 29.9065 9.69385 30.1377 9.69385C30.369 9.69385 30.5377 9.60635 30.5377 9.50635C30.5377 9.40635 30.369 9.31885 30.1377 9.31885Z" fill="#CF1126"/>
<path d="M29.4375 35.2406C29.6906 35.1562 29.8312 35.0062 29.9343 34.7156C29.9812 34.5656 30.0187 34.4156 30.0093 34.3781C29.9906 34.2843 29.8781 34.2843 29.7656 34.3875C29.6812 34.4531 29.6718 34.4906 29.6906 34.6312C29.7562 34.9781 29.625 35.0718 28.9687 35.1375C28.9031 35.1375 28.7062 35.1375 28.5468 35.1093C28.2281 35.0718 28.1156 35.1093 28.2281 35.2031C28.2887 35.2418 28.3552 35.2703 28.425 35.2875C28.6031 35.3343 29.25 35.3062 29.4375 35.2406V35.2406ZM30.8156 35.1843C30.8531 35.1468 30.975 35.0906 31.0968 35.0437C31.2562 34.9968 31.3406 34.95 31.4062 34.8375C31.6031 34.5562 31.5656 34.3031 31.2843 33.9656C31.125 33.7781 31.0593 33.7875 30.9375 33.9937C30.825 34.1625 30.8343 34.1812 30.9843 34.2187C31.0687 34.2375 31.1437 34.2937 31.1812 34.3687C31.35 34.6593 31.3031 34.8375 31.05 34.8375C30.825 34.8375 30.7687 34.875 30.7031 35.025L30.6468 35.2031C30.6468 35.2593 30.7406 35.25 30.8156 35.1843V35.1843ZM30.3656 34.8562C30.4031 34.7343 30.4218 34.5281 30.4125 34.1062C30.4226 33.9058 30.4132 33.7048 30.3843 33.5062C30.3468 33.4687 30.1687 33.5812 30.1406 33.6656C30.1312 33.7347 30.148 33.8049 30.1875 33.8625C30.2437 33.975 30.2531 34.0875 30.2343 34.5187C30.2062 35.0812 30.2437 35.175 30.3656 34.8562V34.8562Z" fill="#F7E017"/>
<path d="M29.3062 34.5937L29.3719 34.125C29.3812 33.9656 29.4187 33.7687 29.4375 33.6843C29.5031 33.4687 29.4375 33.4125 29.2687 33.5343L29.1469 33.6281L29.1656 33.9375C29.1937 34.2187 29.1469 34.7343 29.0812 34.9406C29.0625 34.9968 29.0906 34.9781 29.1656 34.8937C29.2219 34.8281 29.2875 34.6875 29.3062 34.5843V34.5937ZM28.3687 34.7437C28.5937 34.5562 28.5656 34.2187 28.6219 33.9562C28.6219 33.7781 28.7344 33.5718 28.6594 33.4125C28.4437 33.45 28.3125 33.6562 28.425 33.8531C28.425 34.0875 28.425 34.3406 28.3031 34.5468C28.2094 34.6875 27.8906 34.65 27.9094 34.4531C27.9844 34.1718 27.6375 34.3125 27.5062 34.3875C27.4031 34.4625 27.1781 34.4718 27.2625 34.2937C27.2062 34.0406 26.8969 34.2 26.7281 34.2C26.5687 34.2 26.7187 33.8718 26.4844 33.9187C26.0625 33.8906 25.5937 33.9281 25.2187 33.675C25.0031 33.5718 25.0312 33.3093 25.1531 33.1406C25.2844 32.9156 25.3219 32.625 25.5281 32.4468C25.7437 32.25 25.3406 32.3343 25.2469 32.4C25.0406 32.5125 25.2281 32.8031 25.0594 32.9625C24.9656 33.1312 24.8344 33.3562 24.6094 33.3281C24.2812 33.2625 24.0937 32.9531 23.8594 32.7656C23.6531 32.7187 23.7656 33.0843 23.8781 33.1593C24.086 33.3147 24.3214 33.4292 24.5719 33.4968C24.8156 33.45 24.825 33.7781 25.0406 33.825C25.4156 34.0125 25.8469 34.0593 26.2687 34.0875C26.4375 34.0968 26.3437 34.3968 26.5594 34.3312C26.6812 34.3687 26.9625 34.2843 26.9719 34.425C26.7844 34.65 27.15 34.6406 27.2812 34.6125C27.4594 34.575 27.675 34.5187 27.7219 34.7437C27.8625 34.9031 28.125 34.875 28.3031 34.7906L28.3687 34.7437V34.7437Z" fill="#F7E017"/>
<path d="M24.6375 32.85C24.7256 32.7267 24.801 32.5948 24.8625 32.4563C24.9102 32.3361 24.9732 32.2227 25.05 32.1188C25.1625 32.0063 25.0968 31.9312 24.9187 31.9688C24.825 31.9875 24.7875 32.025 24.7781 32.1094C24.7361 32.3394 24.6569 32.561 24.5437 32.7656C24.3843 33 24.3843 33.0094 24.45 33.0094C24.4781 33.0094 24.5625 32.9344 24.6375 32.85ZM22.2937 31.3781C22.1156 31.3781 22.1062 31.4906 22.275 31.5469C22.3687 31.575 22.4343 31.6406 22.4906 31.7625C22.65 32.0906 22.7531 32.1562 23.1937 32.1937L23.475 32.2125L23.4937 32.3906C23.4937 32.4844 23.5218 32.5594 23.5406 32.5594L23.7843 32.4656C23.9906 32.3531 24.1875 32.1094 24.1875 31.95C24.1875 31.8562 24.0187 31.7438 23.8687 31.7438C23.8031 31.7438 23.6812 31.8 23.5781 31.875C23.2593 32.1 22.9218 32.0625 22.7343 31.7625C22.5937 31.5187 22.4343 31.3875 22.2937 31.3875V31.3781ZM23.8218 31.9875C23.9062 31.9875 23.9156 32.0531 23.8781 32.175C23.8723 32.1915 23.8616 32.2059 23.8473 32.216C23.833 32.2262 23.8159 32.2316 23.7984 32.2316C23.7809 32.2316 23.7638 32.2262 23.7495 32.216C23.7352 32.2059 23.7245 32.1915 23.7187 32.175C23.6812 32.0813 23.7281 31.9875 23.8125 31.9875H23.8218ZM35.6812 31.6125C35.5593 31.6125 35.5312 31.6313 35.4562 31.7438C35.3343 31.9219 35.325 32.3063 35.4375 32.4375C35.5031 32.5219 35.5125 32.5219 35.6531 32.4563C35.8593 32.3719 35.8968 32.3812 35.8875 32.4844C35.8875 32.7656 35.4937 33.3 35.0812 33.5813C34.9966 33.6312 34.9206 33.6945 34.8562 33.7688C34.8281 33.8438 34.9781 33.8344 35.1656 33.7312C35.476 33.5532 35.7321 33.2939 35.9062 32.9812C36.0093 32.7656 36.0281 32.7 36.0468 32.325C36.0468 31.9687 36.0468 31.8563 35.9906 31.7438C35.9156 31.6125 35.8968 31.6031 35.7281 31.6031H35.6812V31.6125ZM35.6906 31.8469C35.7843 31.8469 35.7843 31.8656 35.8031 31.9969C35.8031 32.0906 35.7937 32.1563 35.7375 32.2125C35.6625 32.2781 35.6437 32.2781 35.5875 32.175C35.4937 32.025 35.55 31.8469 35.6906 31.8469V31.8469ZM33.7968 34.5188C34.1625 34.3313 34.3781 34.1344 34.5093 33.8438C34.5581 33.7505 34.5988 33.6532 34.6312 33.5531C34.6312 33.4969 34.4531 33.4125 34.35 33.4125C34.2468 33.4125 34.2187 33.3375 34.2562 33.1312C34.3031 32.9344 34.2562 32.6813 34.1625 32.6813C34.1343 32.6813 34.0687 32.7281 34.0406 32.7844C33.9843 32.8781 33.975 32.9156 34.0218 33.0375C34.0875 33.225 34.0312 33.375 33.8625 33.4969C33.7781 33.5531 33.7406 33.6187 33.7406 33.6844L33.75 33.7781L33.9468 33.6844L34.1343 33.5719L34.2375 33.6656C34.3031 33.7031 34.35 33.7781 34.35 33.825C34.35 34.05 33.7125 34.425 33.2812 34.4625C33.0468 34.4813 33 34.4625 32.925 34.3875C32.8593 34.3219 32.8406 34.2656 32.8593 34.2L32.9062 33.9563C32.9437 33.7594 32.8687 33.7875 32.7187 34.0125C32.6062 34.2 32.5687 34.3969 32.6343 34.5C32.6906 34.5938 33.0468 34.6688 33.3093 34.65C33.4687 34.65 33.6281 34.6031 33.7968 34.5188V34.5188ZM36.2343 33.1594C36.4593 32.925 36.5625 32.6438 36.5625 32.2219V31.8938L36.75 31.8C37.0031 31.6875 37.2375 31.4531 37.2375 31.3219C37.2375 31.1906 37.1718 31.1906 37.0687 31.3406C36.9843 31.4437 36.8812 31.5094 36.5062 31.6875C36.4125 31.725 36.4031 31.7531 36.375 32.1562C36.3562 32.625 36.2812 32.7938 36.0281 33.1125C35.8687 33.3 35.8593 33.3375 35.9718 33.3375C36.0187 33.3375 36.1406 33.2531 36.2343 33.15V33.1594ZM33.7312 32.8969C33.75 32.8312 33.6187 32.7844 33.5718 32.8406C33.5437 32.8594 33.5343 32.8969 33.5531 32.925C33.5906 32.9813 33.7031 32.9625 33.7312 32.8969V32.8969ZM37.1812 32.0062C37.2093 31.9312 37.0781 31.8844 37.0218 31.9406C37.0031 31.9688 36.9937 32.0063 37.0125 32.0344C37.05 32.0906 37.1625 32.0719 37.1812 32.0062ZM33.0281 29.5781C32.9343 29.625 32.8875 29.7187 32.8312 29.7937C32.7843 29.8219 32.8218 29.85 32.8406 29.8875C33 30.0469 33.0656 30.2812 33.1406 30.4969C33.2156 30.75 33.3093 31.0219 33.2343 31.2844C33.2062 31.3781 33.1218 31.4813 33.0093 31.4531C32.8218 31.4437 32.6343 31.3875 32.4468 31.3875C32.2687 31.3969 32.1375 31.5562 31.9687 31.5375C31.8562 31.5375 31.8562 31.3125 31.7625 31.3781C31.7062 31.5 31.7343 31.6313 31.725 31.7531C31.7437 31.7813 31.8 31.7625 31.8281 31.7719H32.175C32.1937 31.8844 32.1937 32.025 32.2687 32.1188C32.3906 32.1563 32.5312 32.1188 32.6437 32.0719C32.7562 32.0156 32.775 31.875 32.8125 31.7625C32.85 31.6406 33 31.6687 33.0937 31.6219C33.2065 31.5868 33.3045 31.5153 33.3723 31.4186C33.4402 31.3219 33.4741 31.2055 33.4687 31.0875C33.45 30.7219 33.3187 30.3938 33.2062 30.0563C33.1593 29.9063 33.1218 29.7469 33.0656 29.5969L33.0281 29.5781V29.5781ZM32.4656 31.6219C32.5875 31.6219 32.6437 31.7719 32.6156 31.875C32.5687 32.0156 32.3906 31.9313 32.3625 31.8281C32.2968 31.7344 32.3343 31.6125 32.4562 31.6219H32.4656Z" fill="#F7E017"/>
<path d="M27.75 30.45C27.6937 30.45 27.6281 30.4687 27.5625 30.5156C27.2344 30.75 27.1406 31.0218 27.375 31.1343C27.5344 31.2093 27.4969 31.3031 27.2344 31.4343C26.8594 31.6218 26.5312 31.5937 25.9031 31.3406C25.7531 31.275 25.7156 31.3031 25.7437 31.4343C25.7812 31.575 25.9125 31.65 26.2219 31.7156C26.5594 31.8093 26.9719 31.7812 27.2344 31.6687C27.3884 31.5901 27.5254 31.4817 27.6375 31.35L27.8437 31.1343L28.0781 31.1625C28.3687 31.2 28.3781 31.2 28.3781 31.3406C28.3781 31.4531 28.3781 31.4531 28.65 31.4812L29.0906 31.5C29.2125 31.5 29.2781 31.5281 29.3156 31.5843C29.3719 31.65 29.4 31.6593 29.8406 31.6218C30.2531 31.5843 30.3281 31.5843 30.5156 31.65C30.6469 31.6875 30.7969 31.7062 30.9 31.6968C31.2187 31.6593 31.65 31.4062 31.7156 31.2187C31.7156 31.1906 31.8375 31.1531 31.9687 31.125C32.2875 31.0593 32.2969 30.9937 32.0062 30.9562C31.8593 30.9368 31.7148 30.9022 31.575 30.8531C31.4704 30.8088 31.3598 30.7804 31.2469 30.7687C31.0875 30.7687 30.9375 30.8625 30.9375 30.975C30.9375 31.0406 30.9562 31.05 31.1531 31.0312C31.3219 31.0125 31.3781 31.0218 31.4719 31.0968C31.5375 31.1437 31.575 31.2 31.5656 31.2187C31.5187 31.2937 31.1437 31.4625 30.9844 31.4906C30.888 31.5066 30.7891 31.4901 30.7031 31.4437C30.5531 31.3687 30.3469 31.3593 30.3 31.425C30.2812 31.4531 30.2437 31.4343 30.1781 31.3781L30.0844 31.2843L29.8594 31.3781C29.6344 31.4718 29.55 31.4718 29.55 31.3593C29.55 31.3125 29.4844 31.3031 29.1562 31.3312C28.7906 31.35 28.7531 31.3406 28.6875 31.2656C28.6219 31.2 28.6219 31.1718 28.6687 31.1062C28.7062 31.0312 28.7062 31.0125 28.6687 30.9656C28.6312 30.9281 28.575 30.9281 28.4344 30.9656C28.0687 31.0593 27.9656 31.0125 27.9656 30.7312C27.9656 30.5531 27.8719 30.45 27.75 30.45V30.45ZM27.6562 30.7125C27.675 30.7125 27.6937 30.7218 27.7219 30.75C27.75 30.7781 27.7687 30.8437 27.75 30.8718C27.7219 30.9562 27.5625 30.9562 27.5344 30.8718C27.5156 30.825 27.5344 30.7781 27.5812 30.75L27.6562 30.7125Z" fill="#F7E017"/>
<path d="M27 30.975C27.225 30.8343 27.225 30.8437 27.2531 30.4593C27.2719 30.1781 27.2718 30.1593 27.1968 30.1593C27.0843 30.1593 27.0281 30.2812 27.0281 30.5062C27.0281 30.6562 27.0093 30.7218 26.9343 30.7875C26.7468 30.975 26.2968 30.8906 26.2312 30.6656C26.2125 30.5906 26.2406 30.5156 26.3343 30.3843C26.5312 30.1031 26.4937 30.0281 26.2406 30.2437C26.0812 30.3937 26.0531 30.3937 26.0812 30.2718C26.1094 30.15 26.0531 30.1031 25.9125 30.1406C25.8468 30.1593 25.8 30.1968 25.7906 30.2906C25.7718 30.3656 25.7343 30.4125 25.6687 30.4312C25.5562 30.4593 25.3687 30.3562 25.3687 30.2625C25.3687 30.1968 25.65 29.85 26.0156 29.475C26.1468 29.3343 26.2593 29.1937 26.2593 29.1843C26.2593 29.1656 26.1843 29.1468 26.1 29.1468C25.9687 29.1468 25.9312 29.1656 25.9312 29.2218C25.9312 29.2593 25.7531 29.5031 25.5281 29.7562C25.0593 30.2812 25.0218 30.3843 25.2468 30.525C25.3405 30.5827 25.4491 30.6117 25.559 30.6083C25.669 30.605 25.7756 30.5695 25.8656 30.5062L26.0156 30.4031V30.5906C26.0156 30.825 26.0625 30.9187 26.25 31.0125C26.3673 31.0727 26.4983 31.1009 26.63 31.0943C26.7617 31.0877 26.8893 31.0466 27 30.975V30.975ZM36.7875 27.7312C36.6187 27.8343 36.75 28.05 36.7875 28.2C36.7125 28.3875 36.4593 28.4437 36.2718 28.4812C36.0093 28.5281 35.8219 28.7437 35.7281 28.9781C35.6719 29.1281 35.5406 29.3531 35.4 29.1281C35.2781 29.0062 35.0531 28.9031 34.9125 29.0531C34.8 29.1562 34.7718 29.3062 34.725 29.4468C34.6593 29.3437 34.6312 29.1843 34.5 29.1468C34.275 29.175 34.3593 29.4562 34.4625 29.5687C34.5562 29.7093 34.65 29.8781 34.5562 30.0375C34.4625 30.225 34.1812 30.3562 34.0218 30.1968C33.8718 30.1125 33.975 29.8218 33.8156 29.8031C33.7406 29.8593 33.7406 30.1687 33.6187 30C33.525 29.8593 33.5812 29.6625 33.4687 29.5406C33.3468 29.5593 33.2437 29.775 33.2812 29.8875C33.45 30.1125 33.525 30.3937 33.5906 30.6656C33.6281 30.7781 33.5812 30.9937 33.6843 31.0406C33.75 30.8625 33.6843 30.6656 33.7406 30.4875C33.9093 30.4687 34.0875 30.5437 34.2562 30.5062C34.5093 30.4781 34.6968 30.2625 34.7812 30.0468C34.8093 29.8781 34.7812 29.7093 34.7718 29.5406C34.9593 29.5781 35.1656 29.5781 35.3531 29.6343C35.4469 29.775 35.325 29.9812 35.2968 30.1312C35.2031 30.45 34.95 30.675 34.7156 30.8812C34.6125 30.9468 34.6031 31.1062 34.7437 31.0218C35.0644 30.8695 35.3155 30.6016 35.4469 30.2718C35.55 30.0281 35.4656 29.7562 35.5406 29.5125C35.6344 29.325 35.8687 29.3625 36.0468 29.3625C36.225 29.3625 36.375 29.1468 36.3187 28.9687C36.2625 28.7625 36.4781 28.6687 36.6187 28.5937C36.8156 28.5 36.9656 28.3031 36.9469 28.0781C36.9469 27.9562 36.9468 27.7406 36.7875 27.7312V27.7312ZM36.1031 28.9031C36.3094 28.9593 36.0656 29.3531 35.9531 29.1C35.9156 29.0062 36 28.9031 36.1031 28.9031ZM35.1375 29.1843C35.4093 29.175 35.3062 29.5593 35.0812 29.3906C34.9594 29.325 34.9968 29.1843 35.1375 29.1843ZM25.3125 30.7125C25.3125 30.675 25.2937 30.6468 25.2562 30.6468C25.1906 30.6468 25.1437 30.7125 25.1718 30.7687C25.2093 30.8343 25.2937 30.7968 25.3125 30.7125ZM28.5 30.375C28.5 30.3093 28.4719 30.2906 28.425 30.3C28.3219 30.3187 28.3031 30.4593 28.4156 30.4593C28.4718 30.4593 28.5 30.4312 28.5 30.3656V30.375ZM24.5625 28.4625C24.4406 28.4343 24.3562 28.5468 24.3093 28.65C24.2156 28.8093 24.1031 28.9687 23.9343 29.0531C23.8125 29.0906 23.6812 29.0437 23.5687 28.9781C23.4468 28.9125 23.475 28.7625 23.4187 28.6593C23.325 28.5843 23.1656 28.6875 23.175 28.8C23.1656 28.95 23.2968 29.0343 23.4187 29.0906C23.5125 29.1562 23.6625 29.1843 23.7 29.3062C23.7 29.4093 23.7375 29.5312 23.8593 29.4937C24 29.4937 24.0468 29.6625 23.9812 29.7656C23.9186 29.8799 23.8955 30.0118 23.9156 30.1406C23.9812 30.2062 24.0468 30.0468 24.1031 30.0093L24.1968 29.8781C24.45 29.8875 24.6937 29.925 24.9468 29.9156C25.1343 29.9156 25.275 29.8031 25.3875 29.6718C25.5562 29.5031 25.6875 29.3062 25.8656 29.1656C25.9968 29.1281 25.9312 28.8843 25.7906 28.9593C25.6687 29.0062 25.6312 29.1468 25.5468 29.2312C25.4101 29.4114 25.2528 29.575 25.0781 29.7187C24.9375 29.775 24.7875 29.7468 24.6468 29.7187C24.5906 29.6718 24.7593 29.625 24.7875 29.5687C24.8625 29.4937 24.9562 29.4187 25.0031 29.3156C24.9562 29.2218 24.825 29.2218 24.7312 29.2218C24.5062 29.2406 24.3281 29.4375 24.0937 29.4562C23.9156 29.4562 24.0093 29.2687 24.0937 29.2031C24.2437 29.0156 24.4125 28.8468 24.5718 28.6687C24.6187 28.6125 24.7875 28.5562 24.6843 28.4812C24.6468 28.4625 24.6 28.4625 24.5625 28.4625V28.4625ZM24.675 29.4C24.7969 29.4656 24.6 29.5687 24.525 29.5593C24.4218 29.5875 24.4125 29.4843 24.5062 29.4656C24.5625 29.4281 24.6187 29.4 24.675 29.4ZM24.3187 29.6437C24.3843 29.6437 24.525 29.7093 24.3937 29.7468C24.3 29.8218 24.2062 29.6718 24.3187 29.6437Z" fill="#F7E017"/>
<path d="M27.1312 29.7937C27.1312 29.7 26.9812 29.7187 26.9625 29.8125C26.9437 29.8687 26.9625 29.8781 27.0375 29.8687C27.0937 29.8687 27.1312 29.8312 27.1312 29.7937ZM34.1344 29.175C34.1531 29.0906 34.0406 29.0343 33.975 29.1C33.9094 29.1562 33.975 29.2781 34.05 29.2593C34.0875 29.2593 34.125 29.2125 34.1437 29.175H34.1344ZM23.25 28.3218C23.3531 28.2281 23.3625 28.2187 23.3156 28.0125C23.2406 27.7218 23.25 27.6843 23.3625 27.6562C23.5031 27.6281 23.8594 27.8156 23.925 27.9656C24 28.0875 23.9906 28.0968 23.8875 28.1906C23.775 28.2937 23.775 28.4156 23.8875 28.4156C23.9812 28.4156 24.2344 28.1718 24.2344 28.0875C24.2344 27.9656 23.9531 27.675 23.7281 27.5718C23.5931 27.509 23.4458 27.4769 23.2969 27.4781C23.0062 27.4781 22.9687 27.5437 23.0437 27.8718C23.1375 28.2656 23.0156 28.3218 22.6969 28.0218C22.5834 27.922 22.4948 27.7973 22.4378 27.6574C22.3809 27.5174 22.3572 27.3662 22.3687 27.2156C22.3687 26.8406 22.5187 26.6437 22.8469 26.5968C23.0719 26.5687 23.0625 26.5125 22.8469 26.4843C22.5094 26.4281 22.2281 26.6531 22.125 27.0468C22.0031 27.4875 22.275 28.0218 22.7531 28.2937C23.0062 28.4343 23.1 28.4437 23.25 28.3218V28.3218ZM36.3 27.8343C36.3281 27.8156 36.3469 27.75 36.3469 27.7031C36.3469 27.6562 36.3937 27.5531 36.45 27.4781C36.5062 27.4031 36.5437 27.3281 36.5437 27.3093C36.5437 27.2343 36.4219 27.2343 36.3281 27.3093C36.225 27.3937 36.1406 27.4031 36.1406 27.3093L36.2531 27.225C36.4031 27.1593 36.4125 27.0843 36.2906 27.0281C36.1312 26.9531 35.9625 27.0843 35.9531 27.3093C35.9437 27.4593 35.9531 27.4781 36.0656 27.5437C36.1687 27.6093 36.1875 27.6375 36.1687 27.7312C36.1406 27.8812 36.2062 27.9375 36.3 27.8343V27.8343ZM37.5187 27.7031C37.6125 27.6093 37.6875 27.525 37.6875 27.4968C37.6875 27.4687 37.7719 27.3843 37.8656 27.3093C38.1281 27.1218 38.1937 26.9343 38.0719 26.625C38.025 26.5031 37.8844 26.3437 37.5562 26.0625C37.4067 25.9029 37.2365 25.7641 37.05 25.65C36.9656 25.65 36.9844 25.9687 37.0687 25.9968C37.2281 26.0531 37.3312 26.1187 37.575 26.3437C37.875 26.6062 38.0062 26.8593 37.9312 27C37.8656 27.1312 37.7719 27.0937 37.5094 26.8125C37.4242 26.7066 37.323 26.6149 37.2094 26.5406C37.1812 26.5406 37.1625 26.5968 37.1625 26.6718C37.1625 26.7656 37.2094 26.8593 37.35 27C37.5656 27.2437 37.5844 27.3843 37.4156 27.5156C37.3776 27.5542 37.3332 27.5859 37.2844 27.6093C37.07 27.2425 36.7829 26.9235 36.4406 26.6718C36.4125 26.6718 36.3937 26.7093 36.3937 26.8031C36.3937 26.925 36.4125 26.9625 36.5062 27.0093C36.7527 27.1985 36.9733 27.4191 37.1625 27.6656L37.3312 27.8531C37.4012 27.8094 37.4644 27.7557 37.5187 27.6937V27.7031ZM38.0812 26.1281C38.0344 26.0156 37.2937 25.2468 37.2094 25.2468C37.1719 25.2468 37.1625 25.2937 37.1719 25.4156C37.1719 25.5656 37.2 25.5843 37.3031 25.6125C37.4632 25.7061 37.6086 25.823 37.7344 25.9593C37.8362 26.0689 37.953 26.1636 38.0812 26.2406V26.1281V26.1281ZM33.6 34.8093C33.605 34.8233 33.606 34.8381 33.6029 34.8525C33.5999 34.8668 33.5928 34.8804 33.5824 34.8921C33.5719 34.9038 33.5583 34.9134 33.5426 34.9199C33.527 34.9264 33.5097 34.9299 33.4922 34.9299C33.4746 34.9299 33.4574 34.9264 33.4417 34.9199C33.426 34.9134 33.4124 34.9038 33.402 34.8921C33.3915 34.8804 33.3844 34.8668 33.3814 34.8525C33.3783 34.8381 33.3793 34.8233 33.3844 34.8093C33.3793 34.7953 33.3783 34.7806 33.3814 34.7662C33.3844 34.7518 33.3915 34.7382 33.402 34.7265C33.4124 34.7148 33.426 34.7053 33.4417 34.6988C33.4574 34.6922 33.4746 34.6888 33.4922 34.6888C33.5097 34.6888 33.527 34.6922 33.5426 34.6988C33.5583 34.7053 33.5719 34.7148 33.5824 34.7265C33.5928 34.7382 33.5999 34.7518 33.6029 34.7662C33.606 34.7806 33.605 34.7953 33.6 34.8093V34.8093ZM33.9937 34.6781C33.9937 34.6904 33.9908 34.7026 33.9852 34.714C33.9795 34.7253 33.9712 34.7357 33.9608 34.7444C33.9503 34.7531 33.9379 34.76 33.9243 34.7647C33.9106 34.7694 33.896 34.7718 33.8812 34.7718C33.8665 34.7718 33.8518 34.7694 33.8382 34.7647C33.8245 34.76 33.8121 34.7531 33.8017 34.7444C33.7912 34.7357 33.7829 34.7253 33.7773 34.714C33.7716 34.7026 33.7687 34.6904 33.7687 34.6781C33.7687 34.6658 33.7716 34.6536 33.7773 34.6422C33.7829 34.6308 33.7912 34.6205 33.8017 34.6118C33.8121 34.6031 33.8245 34.5962 33.8382 34.5915C33.8518 34.5868 33.8665 34.5843 33.8812 34.5843C33.896 34.5843 33.9106 34.5868 33.9243 34.5915C33.9379 34.5962 33.9503 34.6031 33.9608 34.6118C33.9712 34.6205 33.9795 34.6308 33.9852 34.6422C33.9908 34.6536 33.9937 34.6658 33.9937 34.6781V34.6781Z" fill="#F7E017"/>
</g>
<defs>
<clipPath id="clip0_4_17765">
<rect width="60" height="45" fill="white"/>
</clipPath>
</defs>
</svg>
