<svg width="60" height="45" viewBox="0 0 60 45" fill="none" xmlns="http://www.w3.org/2000/svg">
<g clip-path="url(#clip0_4_16404)">
<path d="M0 0H60V45H0V0Z" fill="#003399"/>
<path fill-rule="evenodd" clip-rule="evenodd" d="M30 21.8578C29.1379 21.8578 28.4391 22.5566 28.4391 23.4187C28.4391 24.2808 29.1379 24.9797 30 24.9797C30.8621 24.9797 31.561 24.2808 31.561 23.4187C31.561 22.5566 30.8621 21.8578 30 21.8578ZM25.861 23.4187C25.861 21.1328 27.7141 19.2797 30 19.2797C32.286 19.2797 34.1391 21.1328 34.1391 23.4187C34.1391 25.7047 32.286 27.5578 30 27.5578C27.7141 27.5578 25.861 25.7047 25.861 23.4187Z" fill="#FFCC00"/>
<path fill-rule="evenodd" clip-rule="evenodd" d="M30 16.4297C26.14 16.4297 23.0109 19.5588 23.0109 23.4188C23.0109 27.2787 26.14 30.4078 30 30.4078C33.8599 30.4078 36.989 27.2787 36.989 23.4188C36.989 19.5588 33.8599 16.4297 30 16.4297ZM20.4328 23.4188C20.4328 18.1349 24.7162 13.8516 30 13.8516C35.2838 13.8516 39.5672 18.1349 39.5672 23.4188C39.5672 28.7026 35.2838 32.9859 30 32.9859C24.7162 32.9859 20.4328 28.7026 20.4328 23.4188Z" fill="#FFCC00"/>
<path d="M37.9406 15.4781L45.8812 23.4188L37.9406 31.3594L30 23.4188L37.9406 15.4781Z" fill="#003399"/>
<path d="M16.4719 22.1344H22.0219V24.7125H16.4719V22.1344ZM40.7625 22.1344H49.0406V24.7125H40.7625V22.1344ZM34.0312 17.5688L37.6687 13.9313L39.4875 15.7594L35.8594 19.3875L34.0312 17.5688ZM28.7156 4.55627H31.2937V14.5969H28.7156V4.55627Z" fill="#FFCC00"/>
<path d="M21.1031 16.2469C21.8124 16.2469 22.3875 15.6718 22.3875 14.9625C22.3875 14.2531 21.8124 13.6781 21.1031 13.6781C20.3938 13.6781 19.8187 14.2531 19.8187 14.9625C19.8187 15.6718 20.3938 16.2469 21.1031 16.2469Z" fill="#FFCC00"/>
<path d="M13.5281 24.7031C14.2375 24.7031 14.8125 24.1281 14.8125 23.4188C14.8125 22.7094 14.2375 22.1344 13.5281 22.1344C12.8188 22.1344 12.2438 22.7094 12.2438 23.4188C12.2438 24.1281 12.8188 24.7031 13.5281 24.7031Z" fill="#FFCC00"/>
<path d="M30 37.0407C30.7094 37.0407 31.2844 36.4656 31.2844 35.7563C31.2844 35.047 30.7094 34.4719 30 34.4719C29.2907 34.4719 28.7156 35.047 28.7156 35.7563C28.7156 36.4656 29.2907 37.0407 30 37.0407Z" fill="#FFCC00"/>
<path d="M30 41.175C30.7094 41.175 31.2844 40.5999 31.2844 39.8906C31.2844 39.1812 30.7094 38.6062 30 38.6062C29.2907 38.6062 28.7156 39.1812 28.7156 39.8906C28.7156 40.5999 29.2907 41.175 30 41.175Z" fill="#FFCC00"/>
<path d="M38.2781 24.7031C38.9875 24.7031 39.5625 24.1281 39.5625 23.4188C39.5625 22.7094 38.9875 22.1344 38.2781 22.1344C37.5688 22.1344 36.9938 22.7094 36.9938 23.4188C36.9938 24.1281 37.5688 24.7031 38.2781 24.7031Z" fill="#FFCC00"/>
<path d="M19.5281 32.0156L21.3563 30.1969L23.175 32.0156L21.3563 33.8438L19.5281 32.0156ZM38.7188 33.9844L40.5469 32.1563L42.375 33.9844L40.5469 35.8031L38.7188 33.9844Z" fill="#FFCC00"/>
</g>
<defs>
<clipPath id="clip0_4_16404">
<rect width="60" height="45" fill="white"/>
</clipPath>
</defs>
</svg>
