<svg width="60" height="45" viewBox="0 0 60 45" fill="none" xmlns="http://www.w3.org/2000/svg">
<g clip-path="url(#clip0_4_3793)">
<path d="M0 0H60V45H0V0Z" fill="#000066"/>
<path fill-rule="evenodd" clip-rule="evenodd" d="M44.2125 19.9688L44.7 18.4031L43.3875 17.4094L45.0375 17.3906L45.6 15.8438L46.125 17.3906L47.7844 17.4375L46.4625 18.4219L46.9312 19.9875L45.5719 19.05M48.1125 20.2687L49.0875 18.9656L48.1781 17.5781L49.7437 18.1219L50.775 16.8563V18.5062L52.3125 19.1063L50.7375 19.575L50.6625 21.2156L49.7062 19.8656M40.4812 21.2719L40.4156 19.6312L38.8406 19.1437L40.4062 18.5625V16.9313L41.4281 18.1969L43.0031 17.6719L42.0844 19.05L43.05 20.3625L41.4562 19.9406M37.7437 23.775L37.05 22.2938L35.4187 22.4625L36.6187 21.3094L36 19.7812L37.425 20.55L38.6719 19.4437L38.3531 21.075L39.75 21.9094L38.1281 22.1437M36.4687 27.3562L35.2219 26.3156L33.8156 27.1781L34.4156 25.6125L33.2062 24.525L34.8281 24.5906L35.4844 23.0531L35.8875 24.6656L37.5 24.8063L36.1312 25.725M36.4312 31.3875L34.8844 30.9375L33.9375 32.2969L33.8719 30.6188L32.3344 30.1031L33.8437 29.5219V27.8344L34.8469 29.1562L36.3844 28.6312L35.4844 30.0375M38.25 34.8L36.6562 35.025L36.3281 36.6562L35.5969 35.1562L33.9937 35.3063L35.1375 34.1531L34.4719 32.6156L35.9062 33.4125L37.1062 32.3063L36.8437 33.9375M41.0625 37.5L39.6469 38.2688L39.8906 39.9187L38.7 38.7562L37.2375 39.4688L37.9219 37.9781L36.7687 36.7688L38.3906 37.0125L39.1406 35.5594L39.4594 37.1906M44.5031 38.0344L43.725 39.4688L44.8219 40.7063L43.1906 40.3969L42.3562 41.8031L42.1312 40.1813L40.5187 39.8063L42 39.1125L41.8406 37.4719L42.9844 38.6719M48.3656 37.4437L48.3187 39.075L49.8469 39.675L48.2531 40.1438L48.1406 41.7844L47.2031 40.4437L45.6094 40.8562L46.6219 39.5531L45.7406 38.175L47.2969 38.7094M52.4062 19.6688L53.5312 20.85L55.0219 20.1562L54.2437 21.6375L55.3218 22.8656L53.7281 22.6031L52.8843 24.0563L52.6875 22.4062L51.0937 22.0781L52.5656 21.3281M55.7719 23.2969L56.2875 24.8531L57.9281 24.8812L56.5969 25.8844L57.0375 27.4594L55.7156 26.5219L54.3469 27.4688L54.8531 25.8938L53.5594 24.9L55.2094 24.8625M57.0375 27.975L56.85 29.6062L58.3218 30.3281L56.7 30.6656L56.4468 32.2875L55.6312 30.8719L54 31.1438L55.125 29.925L54.3656 28.4719L55.8656 29.1469M56.1469 32.8781L55.4156 34.3406L56.5312 35.5312L54.9 35.2781L54.1125 36.7125L53.8312 35.0906L52.2 34.7812L53.6625 34.0312L53.4468 32.4L54.6281 33.5531M53.7094 37.2188L52.3312 38.0813L52.6875 39.7031L51.4219 38.625L50.0156 39.4313L50.6062 37.9031L49.3781 36.7688L51.0093 36.9094L51.6656 35.4094L52.0781 37.0219" fill="white"/>
<path d="M0 0H30V22.5H0V0Z" fill="#000066"/>
<path d="M3.51562 0L14.9531 8.48438L26.3438 0H30V2.90625L18.75 11.2969L30 19.6406V22.5H26.25L15 14.1094L3.79688 22.5H0V19.6875L11.2031 11.3438L0 3V0H3.51562Z" fill="white"/>
<path d="M19.875 13.1719L30 20.625V22.5L17.2969 13.1719H19.875ZM11.25 14.1094L11.5312 15.75L2.53125 22.5H0L11.25 14.1094ZM30 0V0.140625L18.3281 8.95312L18.4219 6.89062L27.6562 0H30ZM0 0L11.2031 8.25H8.39062L0 1.96875V0Z" fill="#C8102E"/>
<path d="M11.2969 0V22.5H18.7969V0H11.2969ZM0 7.5V15H30V7.5H0Z" fill="white"/>
<path d="M0 9.04688V13.5469H30V9.04688H0ZM12.7969 0V22.5H17.2969V0H12.7969Z" fill="#C8102E"/>
</g>
<defs>
<clipPath id="clip0_4_3793">
<rect width="60" height="45" fill="white"/>
</clipPath>
</defs>
</svg>
