<svg width="60" height="45" viewBox="0 0 60 45" fill="none" xmlns="http://www.w3.org/2000/svg">
<g clip-path="url(#clip0_4_6929)">
<path d="M0 0H60V45H0V0Z" fill="#E32118"/>
<path d="M0 0H60V30H0V0Z" fill="white"/>
<path d="M0 0H60V15H0V0Z" fill="#3E9A00"/>
<path d="M0 0V45L16.875 22.5L0 0Z" fill="#0073CE"/>
<path d="M26.4 17.9812H33.5812V25.5C33.5812 28.0312 30.2812 26.0812 30 27.4312C29.5125 26.0437 26.4187 28.05 26.4187 25.35L26.4 17.9812V17.9812Z" fill="white"/>
<path fill-rule="evenodd" clip-rule="evenodd" d="M26.447 18.0281L26.4656 25.35C26.4656 26.016 26.656 26.3796 26.9371 26.581C27.2219 26.7851 27.6106 26.8312 28.0271 26.8359C28.1626 26.8374 28.2989 26.8346 28.4347 26.8318C28.5074 26.8303 28.5799 26.8288 28.6521 26.828C28.8576 26.8256 29.0582 26.8288 29.2411 26.8539C29.424 26.879 29.5922 26.9264 29.7312 27.0146C29.8386 27.0826 29.9273 27.1741 29.9919 27.2957C30.0387 27.1799 30.1126 27.0917 30.208 27.0259C30.3338 26.9391 30.4941 26.8932 30.672 26.8694C30.8502 26.8456 31.0501 26.8436 31.2576 26.8474C31.3379 26.8489 31.4189 26.8513 31.5005 26.8537C31.6315 26.8575 31.7638 26.8613 31.8962 26.8617C32.3261 26.8628 32.7351 26.8265 33.0366 26.6399C33.3328 26.4565 33.5344 26.1215 33.5344 25.5V18.0281H26.447ZM26.4 17.9812V17.9343H33.6281V25.5C33.6281 26.144 33.4172 26.5145 33.0859 26.7196C32.7598 26.9215 32.3262 26.9566 31.896 26.9554C31.7628 26.9551 31.6277 26.9511 31.4956 26.9473C31.4142 26.9449 31.334 26.9426 31.2558 26.9412C31.0492 26.9373 30.8552 26.9395 30.6844 26.9623C30.5134 26.9852 30.3697 27.0282 30.2612 27.103C30.1544 27.1768 30.0787 27.2834 30.0459 27.4408L30.0116 27.6055L29.9558 27.4467C29.8983 27.2832 29.8034 27.1713 29.681 27.0937C29.5576 27.0155 29.4041 26.9709 29.2284 26.9468C29.0527 26.9227 28.8578 26.9194 28.6532 26.9217C28.5829 26.9225 28.5112 26.924 28.4388 26.9255C28.302 26.9283 28.1628 26.9312 28.026 26.9296C27.6082 26.9249 27.1929 26.8797 26.8825 26.6572C26.5682 26.432 26.3719 26.0339 26.3719 25.35L26.3531 17.9813L26.4 17.9812Z" fill="black"/>
<path d="M30.5062 26.2312C30.5062 26.2312 30.4125 26.325 30.2437 26.25C30.075 26.175 30.0562 21.4312 30.0562 21.4312C30.4312 21.0187 30.7312 20.8875 30.7312 20.8875L30.9562 21.075C30.1125 21.5062 30.1875 22.125 30.2625 23.1937C30.2812 23.5875 30.2812 24.0937 30.375 24.5812C30.5062 25.2 30.7687 25.725 30.7875 26.1187C30.8062 26.3625 30.5062 26.2312 30.5062 26.2312V26.2312Z" fill="#73452B"/>
<path fill-rule="evenodd" clip-rule="evenodd" d="M30.7328 20.8766L30.9732 21.0769L30.9605 21.0833C30.7504 21.1907 30.5981 21.3095 30.4886 21.4436C30.3792 21.5777 30.3124 21.7275 30.274 21.8974C30.2023 22.2148 30.2298 22.6013 30.2643 23.0857C30.2668 23.121 30.2693 23.1568 30.2719 23.1931L30.2719 23.1933C30.2755 23.2702 30.2785 23.3512 30.2815 23.4356C30.2942 23.7839 30.3089 24.1876 30.3842 24.5794C30.4428 24.8554 30.5275 25.1128 30.6051 25.3486C30.6143 25.3765 30.6234 25.4041 30.6324 25.4315C30.7166 25.689 30.7874 25.9198 30.7969 26.1182C30.8017 26.1808 30.7861 26.2217 30.7576 26.2463C30.7295 26.2705 30.6909 26.277 30.6536 26.2758C30.6161 26.2746 30.5783 26.2655 30.5501 26.2569C30.536 26.2526 30.5241 26.2483 30.5158 26.2452C30.5127 26.244 30.5102 26.243 30.5081 26.2422C30.508 26.2422 30.508 26.2423 30.5079 26.2423C30.5048 26.2449 30.5002 26.2485 30.4942 26.2525C30.4821 26.2605 30.4644 26.2703 30.4411 26.2777C30.3944 26.2924 30.3264 26.297 30.24 26.2586C30.2353 26.2565 30.2315 26.2528 30.2285 26.2487C30.2253 26.2446 30.2225 26.2394 30.2198 26.2334C30.2145 26.2215 30.2095 26.2054 30.2047 26.1857C30.1952 26.1463 30.1863 26.0911 30.178 26.0225C30.1613 25.8853 30.1467 25.6936 30.1339 25.466C30.1084 25.0105 30.0903 24.4104 30.0774 23.8127C30.0645 23.215 30.0569 22.6196 30.0525 22.1737C30.0503 21.9508 30.0489 21.7652 30.048 21.6353C30.0476 21.5704 30.0473 21.5194 30.0471 21.4846L30.0469 21.4313C30.0469 21.4313 30.0469 21.4313 30.0563 21.4312L30.0469 21.4313L30.0469 21.4276L30.0493 21.4249C30.2373 21.2181 30.4066 21.0817 30.5291 20.997C30.5903 20.9546 30.6398 20.9251 30.674 20.9062C30.6911 20.8968 30.7044 20.89 30.7135 20.8855C30.718 20.8833 30.7215 20.8817 30.7239 20.8806L30.7265 20.8793L30.7272 20.879L30.7274 20.8789C30.7274 20.8789 30.7275 20.8789 30.7313 20.8875L30.7274 20.8789L30.7328 20.8766ZM30.7298 20.8985C30.7277 20.8995 30.725 20.9007 30.7218 20.9024C30.713 20.9067 30.6999 20.9134 30.6831 20.9227C30.6493 20.9413 30.6004 20.9704 30.5397 21.0124C30.4189 21.096 30.2517 21.2307 30.0657 21.4349L30.0659 21.4845C30.0661 21.5193 30.0664 21.5702 30.0668 21.6352C30.0676 21.765 30.069 21.9506 30.0712 22.1735C30.0756 22.6194 30.0832 23.2147 30.0961 23.8123C30.109 24.4099 30.1272 25.0098 30.1526 25.4649C30.1654 25.6925 30.1799 25.8837 30.1966 26.0203C30.2049 26.0886 30.2137 26.143 30.223 26.1813C30.2276 26.2005 30.2323 26.2153 30.2369 26.2258C30.2393 26.231 30.2415 26.2348 30.2435 26.2375C30.2455 26.2402 30.2469 26.2412 30.2476 26.2414C30.3298 26.278 30.3931 26.2732 30.4355 26.2598C30.4568 26.2531 30.473 26.2441 30.4838 26.2369C30.4892 26.2333 30.4932 26.2302 30.4959 26.2279C30.4972 26.2268 30.4982 26.2259 30.4988 26.2254L30.4995 26.2247L30.4996 26.2246C30.4996 26.2246 30.4996 26.2246 30.5063 26.2312L30.51 26.2227L30.5102 26.2227L30.5108 26.223L30.5132 26.224C30.5153 26.2249 30.5185 26.2261 30.5225 26.2276C30.5305 26.2307 30.5419 26.2348 30.5556 26.239C30.583 26.2474 30.6191 26.2559 30.6542 26.257C30.6896 26.2582 30.7225 26.2518 30.7454 26.2321C30.7678 26.2127 30.7827 26.1786 30.7782 26.1195L30.7781 26.1192C30.7688 25.9238 30.699 25.6953 30.6145 25.4373C30.6056 25.41 30.5965 25.3824 30.5873 25.3544C30.5097 25.1187 30.4246 24.8603 30.3658 24.5832L30.3658 24.583C30.2902 24.1897 30.2754 23.784 30.2628 23.4356C30.2597 23.3515 30.2568 23.2708 30.2532 23.1943C30.2506 23.1576 30.248 23.1214 30.2455 23.0858C30.2111 22.6028 30.1833 22.2135 30.2557 21.8932C30.2947 21.721 30.3626 21.5684 30.4741 21.4318C30.5833 21.2979 30.7341 21.1797 30.9394 21.0731L30.7298 20.8985Z" fill="black"/>
<path d="M29.925 20.775H30.2625C29.9813 23.4938 30.225 25.1063 30.225 25.8938C30.225 26.1563 30.375 26.25 30.3563 26.25C30.0188 26.625 29.85 26.2313 29.85 26.2313L29.925 20.775Z" fill="#73452B"/>
<path fill-rule="evenodd" clip-rule="evenodd" d="M29.9158 20.7656H30.2729L30.2718 20.776C30.06 22.8236 30.1461 24.2426 30.2014 25.1554C30.2195 25.4544 30.2344 25.6991 30.2344 25.8938C30.2344 26.0231 30.2713 26.1104 30.3056 26.1653C30.3228 26.1928 30.3394 26.2123 30.3507 26.225C30.3519 26.2264 30.3531 26.2277 30.3542 26.229C30.3581 26.2334 30.3615 26.2371 30.3635 26.2398C30.3642 26.2408 30.3649 26.2418 30.3655 26.2429C30.3661 26.2439 30.367 26.2457 30.3672 26.248C30.3675 26.251 30.3665 26.2549 30.3629 26.2574C30.3624 26.2578 30.3619 26.258 30.3614 26.2583C30.2771 26.3515 30.2023 26.398 30.137 26.4144C30.071 26.4309 30.0157 26.4161 29.9717 26.3892C29.9279 26.3625 29.8954 26.3238 29.8739 26.2922C29.8631 26.2763 29.855 26.2621 29.8496 26.2518C29.8469 26.2467 29.8449 26.2425 29.8435 26.2396C29.8428 26.2381 29.8423 26.237 29.842 26.2362L29.8415 26.2353L29.8414 26.235L29.8414 26.235C29.8414 26.2349 29.8414 26.2349 29.85 26.2312L29.8414 26.235L29.8406 26.2331L29.9158 20.7656ZM29.8594 26.2293C29.8597 26.2299 29.86 26.2307 29.8605 26.2316C29.8617 26.2343 29.8636 26.2382 29.8662 26.2431C29.8714 26.2529 29.8791 26.2665 29.8894 26.2816C29.9101 26.3121 29.9408 26.3484 29.9815 26.3732C30.0218 26.3979 30.072 26.4113 30.1325 26.3962C30.1925 26.3812 30.2636 26.3379 30.3457 26.2477C30.3444 26.2461 30.3427 26.2443 30.3407 26.2421C30.3395 26.2407 30.3381 26.2392 30.3366 26.2375C30.3251 26.2244 30.3077 26.204 30.2897 26.1753C30.2537 26.1177 30.2156 26.0269 30.2156 25.8938C30.2156 25.7001 30.2008 25.4563 30.1828 25.158C30.1275 24.2469 30.0415 22.8283 30.2521 20.7844H29.9343L29.8594 26.2293Z" fill="black"/>
<path d="M29.4 26.2312C29.0813 26.3812 29.0437 26.0812 29.0625 26.0437C29.7562 24.6375 30.0562 21.5437 29.4187 21.2062L29.4563 20.9062C29.7 20.9813 29.925 21.3 29.925 21.3C30.0188 24.7687 29.925 26.1937 29.8688 26.25C29.5313 26.6062 29.4 26.1938 29.3812 26.1562" fill="#A36629"/>
<path fill-rule="evenodd" clip-rule="evenodd" d="M29.4483 20.894L29.459 20.8973C29.5832 20.9356 29.7018 21.0354 29.7888 21.1247C29.8324 21.1695 29.8683 21.212 29.8934 21.2432C29.9059 21.2588 29.9157 21.2716 29.9224 21.2806C29.9257 21.285 29.9283 21.2885 29.93 21.2909L29.932 21.2937L29.9325 21.2944L29.9326 21.2946L29.9343 21.2969L29.9344 21.2998C29.9813 23.0343 29.9813 24.2579 29.9625 25.0549C29.9531 25.4535 29.9391 25.7455 29.9238 25.9414C29.9162 26.0393 29.9083 26.1134 29.9004 26.1649C29.8965 26.1906 29.8926 26.2108 29.8888 26.2257C29.8868 26.2331 29.8848 26.2393 29.8828 26.2443C29.8809 26.249 29.8785 26.2535 29.8755 26.2566C29.7905 26.3463 29.7173 26.3888 29.6545 26.4002C29.5912 26.4116 29.5399 26.3911 29.4995 26.3581C29.4595 26.3253 29.43 26.2801 29.4096 26.2412C29.3993 26.2217 29.3912 26.2037 29.3851 26.1894C29.3825 26.1833 29.3803 26.178 29.3785 26.1736C29.376 26.1675 29.3741 26.163 29.3729 26.1605L29.3896 26.1521C29.3912 26.1552 29.3935 26.1607 29.3964 26.1677C29.3981 26.172 29.4002 26.1768 29.4024 26.182C29.4084 26.1961 29.4162 26.2136 29.4262 26.2325C29.4461 26.2704 29.4741 26.3131 29.5114 26.3436C29.5484 26.3738 29.5943 26.392 29.6512 26.3817C29.7085 26.3714 29.7783 26.3319 29.862 26.2436L29.8621 26.2434C29.8625 26.243 29.8638 26.2413 29.8655 26.2372C29.8671 26.2333 29.8688 26.2279 29.8706 26.2209C29.8743 26.207 29.878 26.1875 29.8819 26.1621C29.8896 26.1113 29.8975 26.0377 29.9051 25.9399C29.9203 25.7445 29.9344 25.4529 29.9438 25.0545C29.9625 24.2583 29.9625 23.0359 29.9157 21.3032L29.9148 21.3019C29.9132 21.2996 29.9106 21.2962 29.9074 21.2918C29.9008 21.283 29.8911 21.2704 29.8787 21.2549C29.854 21.224 29.8184 21.1821 29.7753 21.1378C29.6914 21.0517 29.5799 20.9578 29.4642 20.9187L29.4289 21.2011C29.5086 21.2457 29.5729 21.3319 29.6235 21.4497C29.6754 21.5704 29.7135 21.7253 29.7389 21.9055C29.7897 22.2659 29.7902 22.7289 29.7492 23.225C29.6671 24.217 29.4185 25.3433 29.0709 26.0479C29.0696 26.0506 29.0681 26.0576 29.0679 26.0689C29.0678 26.0797 29.0689 26.0933 29.0717 26.1083C29.0774 26.1383 29.0898 26.1731 29.1121 26.2021C29.1343 26.231 29.1663 26.2541 29.2116 26.2613C29.2572 26.2685 29.3174 26.2598 29.396 26.2228L29.404 26.2398C29.3232 26.2778 29.2592 26.2878 29.2087 26.2798C29.158 26.2718 29.122 26.2457 29.0973 26.2136C29.0727 26.1816 29.0593 26.1438 29.0533 26.1117C29.0503 26.0957 29.049 26.0808 29.0492 26.0686C29.0493 26.0569 29.0508 26.0463 29.0541 26.0396C29.4003 25.338 29.6485 24.2143 29.7305 23.2235C29.7715 22.7282 29.7709 22.2666 29.7203 21.9081C29.695 21.7288 29.6573 21.5757 29.6063 21.4571C29.5553 21.3383 29.4913 21.2553 29.4144 21.2146L29.4086 21.2115L29.4483 20.894Z" fill="black"/>
<path fill-rule="evenodd" clip-rule="evenodd" d="M29.442 25.8718C29.3995 25.9988 29.3769 26.101 29.3905 26.1733L29.372 26.1767C29.3575 26.099 29.3818 25.9926 29.4242 25.8659C29.4519 25.7832 29.4877 25.6909 29.5264 25.5911C29.5472 25.5374 29.5688 25.4816 29.5904 25.424C29.7146 25.0937 29.8405 24.7015 29.8219 24.3004L29.8406 24.2996C29.8595 24.7047 29.7323 25.1 29.608 25.4306C29.5862 25.4887 29.5645 25.5447 29.5436 25.5984C29.5051 25.6979 29.4695 25.7896 29.442 25.8718ZM30.4969 26.2304C30.5342 25.8384 30.4597 25.4274 30.2912 24.9594L30.3088 24.9531C30.4779 25.4226 30.5533 25.8365 30.5156 26.2321L30.4969 26.2304Z" fill="black"/>
<path d="M31.0313 19.5C31.1438 19.3688 31.1438 19.3688 31.35 19.3688C31.3875 19.0875 31.8563 19.0875 31.8938 19.4438C32.2688 19.3688 32.3438 19.5938 32.1938 19.8188C32.55 19.725 32.8688 19.8188 32.775 20.2313C33.4125 20.4 33.1688 20.85 32.8875 20.9438C32.85 21.225 32.5875 21.3188 32.2313 21.2063C31.7813 21.525 31.5188 21.4125 31.3125 21.0938C30.8063 21.1688 30.7688 21.0563 30.5438 20.775C30.15 20.9438 30.075 20.9438 29.7375 20.7375C29.7188 21 29.625 20.925 29.4563 20.9063C29.475 21.2438 29.3438 21.3938 29.0438 21.2813C29.2688 21.75 28.6875 21.9563 28.4063 21.5625C28.1438 21.5813 28.125 21.5063 27.9938 21.4125C27.8813 21.7875 27.4688 21.7313 27.3938 21.525C26.8688 21.45 26.925 21.1688 27.3563 21.15C27.3938 20.85 27.6563 20.9063 27.825 20.9438C27.8438 20.7563 27.9563 20.7938 28.05 20.8313C27.9938 20.7 28.0313 20.625 28.2 20.5875C27.9563 20.2688 28.1063 20.1563 28.35 20.0438C28.2188 19.7438 28.4438 19.7625 28.6125 19.7438C28.5938 19.425 28.6875 19.3688 29.025 19.3313C28.9875 19.2188 29.0438 19.125 29.2313 19.125C29.1188 18.8063 29.2688 18.7313 29.6063 18.7875C29.6625 18.3188 30.6563 18.5438 30.5813 19.1813C30.8625 19.2188 30.9563 19.275 31.0313 19.5V19.5Z" fill="#009A3B"/>
<path fill-rule="evenodd" clip-rule="evenodd" d="M29.796 18.5705C29.6989 18.6043 29.6291 18.6755 29.6155 18.7886L29.6144 18.7984L29.6047 18.7967C29.5207 18.7827 29.4488 18.777 29.3901 18.781C29.3313 18.7851 29.2865 18.7989 29.2558 18.823C29.2254 18.8469 29.2076 18.8817 29.2043 18.9305C29.2009 18.9797 29.2122 19.0428 29.2401 19.1219L29.2445 19.1344H29.2312C29.1387 19.1344 29.081 19.1576 29.0508 19.1921C29.0209 19.2263 29.0158 19.274 29.0339 19.3283L29.0376 19.3393L29.026 19.3406C28.9418 19.3499 28.8732 19.3604 28.818 19.3757C28.7628 19.391 28.7216 19.411 28.6915 19.4389C28.6316 19.4944 28.6125 19.584 28.6219 19.7432L28.6224 19.7521L28.6135 19.7531C28.5952 19.7551 28.5761 19.7567 28.5571 19.7583C28.5541 19.7586 28.5512 19.7588 28.5482 19.7591C28.5261 19.7609 28.5042 19.7629 28.483 19.7656C28.4405 19.7712 28.4022 19.7798 28.3734 19.7964C28.3452 19.8127 28.3261 19.8367 28.3212 19.8742C28.3163 19.9124 28.326 19.9656 28.3586 20.04L28.3623 20.0484L28.3539 20.0523C28.2931 20.0803 28.2387 20.1082 28.1948 20.139C28.151 20.1699 28.1185 20.2033 28.1007 20.2422C28.0655 20.3192 28.086 20.423 28.2074 20.5818L28.2164 20.5935L28.202 20.5967C28.1182 20.6153 28.0701 20.6427 28.0487 20.679C28.0276 20.7149 28.0308 20.7628 28.0586 20.8276L28.0675 20.8484L28.0465 20.84C28.0231 20.8306 27.999 20.8214 27.9757 20.8157C27.9523 20.8101 27.9305 20.808 27.9114 20.8123C27.8927 20.8164 27.876 20.8267 27.8627 20.847C27.8492 20.8675 27.8389 20.8986 27.8343 20.9447L27.8333 20.9552L27.823 20.9529C27.7381 20.9341 27.6324 20.9112 27.5433 20.9295C27.4991 20.9386 27.4595 20.9577 27.4286 20.9922C27.3976 21.0267 27.3747 21.0775 27.3655 21.1512L27.3646 21.159L27.3566 21.1594C27.2497 21.164 27.1668 21.1849 27.1107 21.2143C27.0543 21.2438 27.0268 21.2806 27.0258 21.3167C27.0247 21.3527 27.05 21.3929 27.1106 21.4294C27.1709 21.4657 27.2645 21.4971 27.3951 21.5157L27.4006 21.5165L27.4026 21.5218C27.4383 21.62 27.5555 21.6842 27.6792 21.6774C27.8017 21.6706 27.9296 21.5936 27.9848 21.4098L27.9885 21.3973L27.9992 21.4049C28.0259 21.4239 28.048 21.4423 28.0683 21.459C28.0731 21.4631 28.0779 21.467 28.0826 21.4709C28.1068 21.4907 28.1291 21.5078 28.1551 21.5214C28.2068 21.5484 28.2752 21.5625 28.4056 21.5531L28.4108 21.5528L28.4139 21.5571C28.5522 21.7507 28.7633 21.7958 28.9114 21.7366C28.9853 21.707 29.0435 21.6515 29.0697 21.5753C29.096 21.499 29.0907 21.4008 29.0353 21.2853L29.0252 21.2643L29.047 21.2725C29.1958 21.3283 29.299 21.3176 29.363 21.2558C29.4279 21.1931 29.4562 21.075 29.4469 20.9068L29.4463 20.8957L29.4573 20.8969C29.4877 20.9003 29.5159 20.9055 29.5413 20.9102C29.5515 20.9121 29.5611 20.9139 29.5703 20.9155C29.6032 20.921 29.6295 20.9236 29.6508 20.9182C29.6712 20.9132 29.6879 20.9006 29.7009 20.8732C29.7142 20.8452 29.7235 20.8021 29.7281 20.7368L29.7292 20.7215L29.7424 20.7295C29.9113 20.8327 30.0125 20.8829 30.1199 20.8875C30.2276 20.8921 30.3428 20.8509 30.54 20.7664L30.5466 20.7636L30.5511 20.7691C30.5697 20.7925 30.5871 20.8146 30.6035 20.8355C30.6366 20.8778 30.6659 20.9152 30.6946 20.9478C30.7373 20.9963 30.7781 21.0335 30.8271 21.0597C30.925 21.1121 31.0582 21.1219 31.3111 21.0845L31.3171 21.0836L31.3204 21.0887C31.4229 21.2472 31.5383 21.3524 31.6822 21.3799C31.8262 21.4073 32.0017 21.3574 32.2258 21.1986L32.2296 21.1959L32.2341 21.1973C32.4111 21.2532 32.5634 21.2574 32.6755 21.2139C32.7869 21.1707 32.8599 21.08 32.8782 20.9425L32.879 20.9367L32.8845 20.9349C33.0225 20.8889 33.1505 20.7555 33.1665 20.6146C33.1744 20.5446 33.1547 20.4723 33.0942 20.407C33.0334 20.3413 32.931 20.2822 32.7726 20.2403L32.7638 20.238L32.7659 20.2292C32.789 20.1272 32.7865 20.0458 32.7649 19.9826C32.7435 19.9196 32.7029 19.8739 32.6485 19.8433C32.5392 19.7818 32.3734 19.7812 32.1961 19.8278L32.1722 19.8341L32.1859 19.8136C32.2602 19.7022 32.2766 19.594 32.2327 19.5237C32.189 19.4539 32.082 19.4157 31.8956 19.4529L31.8855 19.455L31.8844 19.4447C31.8662 19.2716 31.7437 19.1856 31.6212 19.1765C31.4981 19.1674 31.3772 19.2356 31.3593 19.37L31.3582 19.3781H31.35C31.2983 19.3781 31.26 19.3781 31.2296 19.3802C31.1993 19.3822 31.1776 19.3862 31.159 19.3938C31.1217 19.4092 31.0952 19.4398 31.0384 19.5061L31.0312 19.5L31.0223 19.503C30.9851 19.3913 30.9438 19.3232 30.8783 19.278C30.8123 19.2325 30.7205 19.2093 30.58 19.1905L30.5709 19.1893L30.5719 19.1802C30.6087 18.8675 30.3837 18.655 30.1402 18.5785C30.0185 18.5402 29.8935 18.5364 29.796 18.5705ZM31.0348 19.4814C31.0838 19.4244 31.1123 19.3928 31.1519 19.3765C31.1732 19.3677 31.1972 19.3635 31.2284 19.3614C31.2579 19.3595 31.2944 19.3594 31.3419 19.3594C31.3652 19.2179 31.495 19.1484 31.6226 19.1578C31.7508 19.1673 31.8789 19.2563 31.9019 19.4326C32.0846 19.3982 32.1993 19.435 32.2486 19.5138C32.2955 19.5888 32.2795 19.6967 32.2143 19.8039C32.385 19.7626 32.547 19.7647 32.6577 19.827C32.7159 19.8597 32.7596 19.9089 32.7827 19.9766C32.805 20.0421 32.8077 20.1243 32.7861 20.2245C32.9416 20.2668 33.0451 20.3263 33.1079 20.3942C33.1722 20.4636 33.1936 20.5413 33.1851 20.6167C33.1684 20.7645 33.0372 20.9013 32.896 20.9508C32.8755 21.0914 32.7989 21.1862 32.6823 21.2314C32.5657 21.2766 32.4102 21.2719 32.2329 21.2166C32.0087 21.3745 31.8292 21.4269 31.6787 21.3983C31.5289 21.3697 31.4108 21.2614 31.3079 21.1039C31.0583 21.1404 30.9211 21.1312 30.8182 21.0762C30.7664 21.0485 30.724 21.0095 30.6806 20.9602C30.6515 20.9272 30.6217 20.8891 30.5883 20.8465C30.5733 20.8274 30.5576 20.8074 30.5409 20.7864C30.3483 20.8688 30.2305 20.911 30.1191 20.9062C30.0092 20.9016 29.9066 20.8512 29.7456 20.7534C29.7406 20.8113 29.7315 20.8525 29.7178 20.8813C29.7027 20.9131 29.6819 20.9298 29.6554 20.9364C29.6298 20.9428 29.5999 20.9395 29.5672 20.934C29.5575 20.9323 29.5475 20.9305 29.5372 20.9286C29.5152 20.9245 29.4916 20.9201 29.4662 20.9169C29.4738 21.0805 29.4456 21.2021 29.376 21.2692C29.3075 21.3354 29.2022 21.3458 29.0616 21.2976C29.1099 21.4079 29.1141 21.5041 29.0875 21.5814C29.0592 21.6634 28.9967 21.7227 28.9183 21.754C28.7628 21.8162 28.5447 21.7687 28.4017 21.5722C28.2729 21.5809 28.2018 21.5669 28.1464 21.538C28.1186 21.5235 28.0951 21.5054 28.0707 21.4854C28.0659 21.4814 28.061 21.4774 28.0561 21.4733C28.0387 21.4589 28.0203 21.4436 27.9988 21.4278C27.9394 21.61 27.8079 21.689 27.6802 21.6961C27.5529 21.7032 27.4284 21.6384 27.3869 21.5335C27.2578 21.5145 27.1633 21.483 27.1009 21.4454C27.0379 21.4075 27.0057 21.3621 27.007 21.3161C27.0083 21.2702 27.043 21.2285 27.102 21.1977C27.1599 21.1674 27.243 21.1464 27.348 21.141C27.3582 21.0687 27.3817 21.0165 27.4146 20.9797C27.4487 20.9415 27.4923 20.9208 27.5395 20.9111C27.6295 20.8927 27.7343 20.9141 27.8168 20.9323C27.8221 20.89 27.8324 20.8589 27.847 20.8366C27.863 20.8123 27.8839 20.7992 27.9073 20.794C27.9304 20.7888 27.9555 20.7915 27.9801 20.7975C27.9979 20.8019 28.0159 20.808 28.0332 20.8146C28.012 20.7571 28.0095 20.7087 28.0325 20.6695C28.0566 20.6285 28.1069 20.6005 28.1838 20.5817C28.069 20.4279 28.0448 20.3194 28.0837 20.2344C28.1034 20.1913 28.1388 20.1555 28.184 20.1237C28.2272 20.0933 28.28 20.066 28.3378 20.0391C28.3075 19.9676 28.2972 19.9133 28.3026 19.8717C28.3083 19.8278 28.3314 19.799 28.3641 19.7802C28.3962 19.7616 28.4376 19.7527 28.4806 19.7471C28.5022 19.7442 28.5245 19.7422 28.5466 19.7404C28.5496 19.7401 28.5526 19.7399 28.5556 19.7396C28.5715 19.7383 28.5873 19.737 28.6026 19.7354C28.5945 19.5811 28.6133 19.4857 28.6788 19.4252C28.7119 19.3945 28.7563 19.3734 28.813 19.3577C28.8672 19.3426 28.9333 19.3323 29.0127 19.3232C28.9974 19.269 29.0032 19.218 29.0367 19.1798C29.0704 19.1412 29.1303 19.1179 29.2181 19.1158C29.1929 19.0411 29.1821 18.9793 29.1856 18.9292C29.1892 18.8761 29.2089 18.836 29.2442 18.8083C29.2791 18.7808 29.3281 18.7665 29.3888 18.7623C29.4473 18.7583 29.5175 18.7637 29.5982 18.7767C29.6156 18.661 29.6898 18.5877 29.7898 18.5528C29.8921 18.5171 30.0213 18.5215 30.1458 18.5606C30.3921 18.638 30.6243 18.8534 30.5916 19.1732C30.7273 19.1918 30.8205 19.2154 30.8889 19.2626C30.956 19.3089 30.9983 19.377 31.0348 19.4814Z" fill="black"/>
<path fill-rule="evenodd" clip-rule="evenodd" d="M30.4899 19.2428C30.5262 19.2223 30.556 19.2021 30.5734 19.176L30.589 19.1864C30.5689 19.2166 30.5355 19.2386 30.4991 19.2591C30.4884 19.2652 30.4774 19.2711 30.4663 19.2771C30.4391 19.2918 30.4113 19.3068 30.385 19.3249C30.3482 19.3502 30.3156 19.3807 30.2943 19.4228C30.273 19.4648 30.2626 19.5191 30.2718 19.5926L30.2549 19.5992C30.2094 19.5355 30.1413 19.4948 30.0761 19.4858C30.0112 19.4769 29.9496 19.4992 29.9144 19.5609L29.8981 19.5516C29.9378 19.482 30.0076 19.4575 30.0786 19.4673C30.1402 19.4757 30.2032 19.51 30.2503 19.5634C30.2469 19.5021 30.2576 19.4537 30.2776 19.4143C30.3008 19.3685 30.3361 19.3357 30.3744 19.3094C30.4016 19.2907 30.4308 19.2749 30.4583 19.2601C30.4692 19.2542 30.4798 19.2485 30.4899 19.2428ZM29.0768 19.3583C29.0586 19.3537 29.0392 19.3488 29.0208 19.3396L29.0292 19.3228C29.0457 19.3311 29.0632 19.3355 29.0818 19.3402C29.083 19.3405 29.0843 19.3409 29.0856 19.3412C29.1052 19.3461 29.1258 19.3517 29.1447 19.363C29.18 19.3842 29.2069 19.4239 29.2187 19.5091C29.2526 19.4563 29.2885 19.4223 29.3245 19.4054C29.3661 19.3858 29.4071 19.3896 29.4426 19.4124C29.4776 19.4349 29.5068 19.4756 29.5271 19.5289C29.5475 19.5823 29.5594 19.649 29.5594 19.725H29.5406C29.5406 19.6509 29.529 19.5864 29.5096 19.5355C29.4901 19.4845 29.463 19.4478 29.4324 19.4282C29.4023 19.4088 29.3682 19.4055 29.3325 19.4223C29.2963 19.4394 29.2576 19.4774 29.2206 19.5421L29.2059 19.568L29.2032 19.5383C29.1939 19.4365 29.1664 19.398 29.135 19.3791C29.1188 19.3694 29.1007 19.3644 29.081 19.3594C29.0796 19.359 29.0782 19.3586 29.0768 19.3583ZM31.0033 19.6905C31.0172 19.6114 31.0219 19.5369 31.0219 19.5H31.0406C31.0406 19.538 31.0359 19.6136 31.0217 19.6938C31.0076 19.7737 30.9839 19.8597 30.9453 19.9177L30.9297 19.9073C30.9661 19.8527 30.9892 19.77 31.0033 19.6905ZM32.1853 19.8206C32.1853 19.8236 32.1869 19.8252 32.1871 19.8254L32.2004 19.8121C32.2017 19.8135 32.2039 19.8162 32.204 19.8201C32.2041 19.8244 32.2018 19.8274 32.2 19.8289C32.1983 19.8304 32.1963 19.8313 32.1949 19.8319C32.1933 19.8325 32.1915 19.833 32.1898 19.8334C32.1829 19.8351 32.1722 19.8363 32.1594 19.8374C32.151 19.8382 32.1414 19.839 32.1309 19.8398C32.1089 19.8415 32.0827 19.8436 32.0542 19.8468C31.9697 19.8562 31.8689 19.8748 31.8054 19.9201L31.7945 19.9048C31.8624 19.8564 31.9678 19.8375 32.0521 19.8282C32.0809 19.825 32.1077 19.8228 32.1299 19.8211C32.1403 19.8202 32.1497 19.8195 32.1577 19.8188C32.1707 19.8176 32.18 19.8165 32.1854 19.8152C32.1867 19.8149 32.1876 19.8146 32.1881 19.8144C32.1887 19.8142 32.1884 19.8142 32.1877 19.8147C32.187 19.8154 32.1852 19.8173 32.1853 19.8206ZM29.1754 20.0269C29.1106 20.047 29.0231 20.1151 28.9204 20.2738L28.9098 20.2902L28.9036 20.2717C28.89 20.231 28.8699 20.2033 28.8463 20.1843C28.8226 20.1653 28.7948 20.1547 28.7654 20.149C28.7359 20.1434 28.7051 20.1428 28.6755 20.1436C28.6633 20.144 28.651 20.1446 28.6392 20.1452C28.6229 20.1461 28.6073 20.1469 28.5937 20.1469V20.1281C28.6071 20.1281 28.6216 20.1273 28.6373 20.1265C28.6492 20.1259 28.6617 20.1253 28.6749 20.1249C28.705 20.124 28.7375 20.1246 28.769 20.1306C28.8005 20.1367 28.8313 20.1483 28.858 20.1697C28.881 20.1882 28.9005 20.2136 28.9148 20.2481C29.0141 20.0989 29.1011 20.0303 29.1699 20.009C29.2419 19.9866 29.2937 20.0164 29.3146 20.0583L29.2979 20.0667C29.2813 20.0336 29.2393 20.0071 29.1754 20.0269ZM29.9576 20.0916C29.8554 20.0289 29.7555 20.0071 29.6845 20.0338L29.678 20.0162C29.757 19.9866 29.8633 20.0117 29.9674 20.0756C30.0674 20.137 30.1672 20.2351 30.242 20.3596C30.279 20.2678 30.3249 20.2271 30.3765 20.2084C30.4035 20.1985 30.4314 20.1949 30.4592 20.1926C30.4665 20.192 30.4737 20.1914 30.4809 20.1909C30.5015 20.1894 30.5218 20.1879 30.5422 20.1845L30.5453 20.203C30.5239 20.2065 30.5024 20.2081 30.4816 20.2097C30.4746 20.2102 30.4676 20.2107 30.4607 20.2113C30.4334 20.2136 30.4075 20.217 30.3829 20.226C30.3347 20.2435 30.2894 20.2831 30.2526 20.3844L30.2456 20.4034L30.2356 20.3859C30.1614 20.2559 30.0593 20.154 29.9576 20.0916ZM31.5485 20.4147C31.4733 20.3623 31.3784 20.3352 31.2602 20.3897L31.2523 20.3727C31.3778 20.3148 31.4798 20.3439 31.5593 20.3993C31.6269 20.4465 31.6787 20.513 31.7154 20.5601C31.7187 20.5643 31.7218 20.5683 31.7249 20.5722C31.7791 20.5025 31.8298 20.4661 31.8812 20.4474C31.9343 20.4281 31.9873 20.4281 32.043 20.4281H32.0437V20.4469C31.9872 20.4469 31.9373 20.4469 31.8876 20.465C31.8381 20.483 31.788 20.5192 31.7325 20.5931L31.7252 20.6028L31.7177 20.5933C31.7122 20.5865 31.7065 20.5791 31.7003 20.5713C31.6635 20.524 31.6136 20.4601 31.5485 20.4147ZM30.5291 20.7181C30.5318 20.7388 30.5344 20.7586 30.5344 20.775H30.5156C30.5156 20.7599 30.5132 20.7416 30.5105 20.7209C30.51 20.7168 30.5095 20.7127 30.509 20.7085C30.5057 20.6829 30.5027 20.6547 30.5039 20.6269C30.5051 20.5991 30.5106 20.5711 30.5248 20.5462C30.539 20.5212 30.5617 20.4999 30.5963 20.4851L30.6037 20.5023C30.5726 20.5157 30.5532 20.5342 30.541 20.5555C30.5289 20.5769 30.5238 20.6017 30.5226 20.6277C30.5215 20.6538 30.5243 20.6807 30.5276 20.7061C30.5281 20.7101 30.5286 20.7141 30.5291 20.7181ZM28.3919 20.5476C28.3223 20.5453 28.2601 20.5594 28.2254 20.5941L28.2121 20.5808C28.2524 20.5405 28.3214 20.5265 28.3925 20.5289C28.4641 20.5313 28.5404 20.5503 28.5979 20.5791L28.5896 20.5959C28.5346 20.5684 28.4609 20.5499 28.3919 20.5476ZM29.3246 20.6011C29.2919 20.6339 29.2689 20.6917 29.2781 20.7739L29.2802 20.7928L29.2639 20.783C29.1736 20.7288 29.0485 20.7477 28.9955 20.836L28.9795 20.8264C29.0358 20.7325 29.1621 20.7108 29.2579 20.7584C29.2532 20.6807 29.2763 20.6229 29.3113 20.5879C29.3488 20.5504 29.3999 20.5395 29.4417 20.5603L29.4333 20.5771C29.4 20.5605 29.3574 20.5683 29.3246 20.6011ZM32.5592 20.9366C32.5584 20.897 32.5542 20.8406 32.5328 20.7901C32.5195 20.7584 32.4992 20.7287 32.4684 20.707C32.4376 20.6852 32.3969 20.6719 32.3437 20.6719V20.6906C32.3937 20.6906 32.4304 20.7031 32.4576 20.7223C32.4848 20.7415 32.5032 20.7681 32.5156 20.7974C32.5405 20.8563 32.5406 20.9248 32.5406 20.9625V20.9906L32.5575 20.9681C32.5847 20.9318 32.6138 20.9108 32.643 20.8998C32.6722 20.8887 32.7021 20.8876 32.7314 20.8921C32.7818 20.8998 32.829 20.9242 32.8655 20.943C32.8718 20.9463 32.8777 20.9493 32.8833 20.9521L32.8917 20.9353C32.8864 20.9327 32.8807 20.9298 32.8747 20.9266C32.8383 20.9078 32.788 20.8818 32.7342 20.8735C32.7026 20.8686 32.6692 20.8698 32.6363 20.8822C32.6096 20.8923 32.5836 20.9097 32.5592 20.9366ZM31.5019 20.8972C31.5394 20.8956 31.579 20.9069 31.6181 20.9362L31.6069 20.9512C31.571 20.9243 31.5356 20.9145 31.5027 20.9159C31.4697 20.9173 31.4386 20.9299 31.4117 20.949C31.3847 20.9682 31.3621 20.9935 31.3463 21.0198C31.3304 21.0461 31.3219 21.0725 31.3219 21.0937H31.3031C31.3031 21.068 31.3133 21.0382 31.3302 21.0101C31.3473 20.9818 31.3716 20.9545 31.4008 20.9337C31.4301 20.913 31.4646 20.8987 31.5019 20.8972ZM32.2167 21.0042C32.2312 21.0499 32.2406 21.1119 32.2406 21.2062H32.2219C32.2219 21.1131 32.2125 21.0531 32.1989 21.0098C32.1852 20.9667 32.1671 20.9395 32.1484 20.9114L32.164 20.901L32.1642 20.9012C32.1829 20.9293 32.2023 20.9584 32.2167 21.0042ZM28.5451 21.269C28.5324 21.1954 28.4849 21.1273 28.4142 21.1013C28.3392 21.0739 28.2418 21.0949 28.1371 21.1996L28.1504 21.2129C28.2519 21.1113 28.342 21.0948 28.4077 21.1189C28.4741 21.1433 28.5192 21.2101 28.5282 21.2824L28.5282 21.2824L28.5283 21.2831C28.5325 21.304 28.5284 21.3191 28.5193 21.3333C28.5112 21.3461 28.4992 21.358 28.4847 21.3724C28.4822 21.3749 28.4796 21.3774 28.477 21.3801C28.4411 21.4159 28.3976 21.4643 28.3783 21.5606L28.3967 21.5643C28.4149 21.4731 28.4557 21.4278 28.4902 21.3933C28.4927 21.3908 28.4952 21.3884 28.4976 21.386C28.5121 21.3717 28.5258 21.3581 28.5351 21.3434C28.5454 21.3273 28.5507 21.3097 28.548 21.2877C28.6004 21.2714 28.6523 21.2676 28.6955 21.2741C28.7411 21.2809 28.7755 21.2989 28.7922 21.3239L28.8078 21.3135C28.787 21.2823 28.7464 21.2628 28.6983 21.2555C28.6528 21.2487 28.5991 21.2526 28.5451 21.269Z" fill="black"/>
<path d="M29.7562 16.9219L29.3438 16.9407L29.1375 17.3157L28.9125 16.9594L28.5 16.9782L28.6875 16.6032L28.4625 16.2563L28.8938 16.2375L29.0813 15.8625L29.3063 16.2188L29.7188 16.2L29.5312 16.575L29.7562 16.9219ZM27.9938 17.0625L27.5813 17.1563L27.4688 17.5594L27.1687 17.2594L26.775 17.3532L26.8875 16.9594L26.6062 16.6594L27 16.5563L27.1125 16.1532L27.4125 16.4532L27.825 16.3594L27.6937 16.7625L27.9938 17.0625ZM26.2875 17.4094L25.9125 17.5969L25.8938 18.0094L25.5375 17.7844L25.1625 17.9719L25.2 17.55L24.8438 17.325L25.2188 17.1375L25.2562 16.7157L25.5938 16.95L25.9688 16.7625L25.95 17.175L26.2875 17.4094ZM30.3 16.9219L30.7125 16.9407L30.9 17.3157L31.125 16.9594L31.5375 16.9782L31.35 16.6032L31.575 16.2563L31.1625 16.2375L30.9563 15.8625L30.7312 16.2188L30.3187 16.2L30.5062 16.575L30.3 16.9219ZM32.0625 17.0625L32.4563 17.1563L32.5687 17.5594L32.8688 17.2594L33.2625 17.3532L33.15 16.9594L33.45 16.6594L33.0375 16.5563L32.925 16.1532L32.625 16.4532L32.2312 16.3594L32.3438 16.7625L32.0625 17.0625ZM33.75 17.4094L34.125 17.5969L34.1438 18.0094L34.5 17.7844L34.875 17.9719L34.8562 17.55L35.1937 17.325L34.8187 17.1375L34.8 16.7157L34.4437 16.95L34.0687 16.7625L34.1062 17.175L33.75 17.4094Z" fill="#FFD700"/>
<path fill-rule="evenodd" clip-rule="evenodd" d="M29.0779 15.7958L29.3238 16.1851L29.7731 16.1647L29.569 16.5729L29.8149 16.952L29.3636 16.9726L29.1395 17.3802L28.8949 16.993L28.4457 17.0134L28.6498 16.6052L28.4037 16.226L28.873 16.2055L29.0779 15.7958ZM30.9582 15.798L31.1824 16.2055L31.6337 16.2261L31.3877 16.6052L31.5918 17.0134L31.1426 16.993L30.8967 17.3823L30.6918 16.9725L30.2438 16.9522L30.4689 16.5736L30.2644 16.1647L30.7137 16.1851L30.9582 15.798ZM30.9543 15.927L30.7488 16.2524L30.3731 16.2353L30.5436 16.5764L30.3562 16.8916L30.7332 16.9087L30.9033 17.2489L31.1074 16.9257L31.4832 16.9428L31.3123 16.601L31.5163 16.2864L31.1426 16.2694L30.9543 15.927ZM29.0846 15.9292L29.2887 16.2524L29.6644 16.2353L29.4935 16.5771L29.6976 16.8917L29.3239 16.9087L29.1356 17.2511L28.9301 16.9257L28.5543 16.9428L28.7252 16.601L28.5213 16.2865L28.9145 16.2694L29.0846 15.9292ZM27.096 16.0902L27.4229 16.4171L27.8741 16.3146L27.7312 16.7535L28.059 17.0813L27.6076 17.1839L27.4853 17.6223L27.1585 17.2955L26.728 17.398L26.8508 16.9682L26.5446 16.6416L26.9735 16.5293L27.096 16.0902ZM32.9415 16.0902L33.064 16.529L33.5142 16.6416L33.1869 16.9689L33.3095 17.398L32.879 17.2955L32.5522 17.6223L32.4298 17.1837L31.9999 17.0813L32.3072 16.7535L32.1847 16.3145L32.6148 16.417L32.9415 16.0902ZM32.9085 16.216L32.6352 16.4893L32.2778 16.4042L32.3803 16.7715L32.1251 17.0437L32.4827 17.1288L32.5853 17.4965L32.8585 17.2232L33.2155 17.3082L33.1132 16.9498L33.3858 16.6771L33.011 16.5834L32.9085 16.216ZM27.129 16.216L27.0265 16.5832L26.6679 16.6771L26.9242 16.9505L26.822 17.3082L27.179 17.2232L27.4522 17.4965L27.5549 17.1286L27.9285 17.0437L27.6563 16.7715L27.7759 16.4042L27.4021 16.4891L27.129 16.216ZM25.2286 16.6564L25.5965 16.9119L26.0041 16.7081L25.9836 17.1584L26.3517 17.414L25.9444 17.6176L25.924 18.0673L25.5356 17.822L25.1246 18.0275L25.1655 17.567L24.777 17.3217L25.1877 17.1163L25.2286 16.6564ZM34.8302 16.6565L34.8507 17.1168L35.259 17.3209L34.8899 17.567L34.9103 18.0262L34.5019 17.822L34.1135 18.0673L34.0931 17.6176L33.6844 17.4133L34.0718 17.1584L34.0307 16.7068L34.4415 16.9122L34.8302 16.6565ZM34.7698 16.7748L34.446 16.9878L34.1068 16.8182L34.1407 17.1916L33.8156 17.4055L34.1569 17.5761L34.174 17.9515L34.4981 17.7467L34.8397 17.9176L34.8227 17.533L35.1285 17.3291L34.7868 17.1582L34.7698 16.7748ZM25.2839 16.7748L25.2498 17.1586L24.9105 17.3283L25.2345 17.5329L25.2004 17.9162L25.5394 17.7467L25.8635 17.9515L25.8806 17.5761L26.2233 17.4048L25.9164 17.1916L25.9334 16.8168L25.591 16.988L25.2839 16.7748Z" fill="black"/>
<path d="M34.2563 25.35L34.725 26.025L35.1563 25.3875L34.8563 24.8438L34.2563 25.35ZM31.275 27.3187L31.3125 27.9938C31.3125 27.9938 31.5 27.9938 31.6688 27.9375C31.8188 27.8812 31.95 27.7688 31.95 27.7688L31.9313 27.4125L31.275 27.3187ZM28.7625 27.3187L28.725 27.975C28.725 27.975 28.5563 27.975 28.3875 27.9375C28.2375 27.9 28.1063 27.8063 28.1063 27.8063L27.9188 27.3562L28.7625 27.3187ZM25.7438 25.35L25.2563 26.025L24.7313 25.1625L25.125 24.75L25.7438 25.35Z" fill="white"/>
<path fill-rule="evenodd" clip-rule="evenodd" d="M25.1241 24.7034L25.787 25.3461L25.2539 26.0842L24.6901 25.158L25.1241 24.7034ZM25.1259 24.7965L24.7724 25.1669L25.2586 25.9657L25.7005 25.3537L25.1259 24.7965ZM34.8657 24.7928L35.1947 25.3892L34.7253 26.083L34.2123 25.3441L34.8657 24.7928ZM34.3002 25.3558L34.7246 25.9669L35.1178 25.3857L34.8468 24.8946L34.3002 25.3558ZM31.24 27.2806L31.9626 27.3838L31.9836 27.7831L31.9713 27.7936L31.95 27.7687C31.9713 27.7936 31.9714 27.7936 31.9713 27.7936L31.9712 27.7937L31.9708 27.794L31.9696 27.7951C31.9685 27.796 31.9669 27.7973 31.9649 27.799C31.9608 27.8024 31.9549 27.8071 31.9473 27.813C31.9322 27.8248 31.9106 27.8411 31.8841 27.8591C31.8314 27.895 31.7587 27.9388 31.6803 27.9682L31.6791 27.9686C31.5916 27.9978 31.4999 28.0121 31.4307 28.0193C31.396 28.0229 31.3666 28.0247 31.3459 28.0256C31.3355 28.0261 31.3272 28.0263 31.3215 28.0264C31.3187 28.0265 31.3165 28.0265 31.315 28.0265L31.3132 28.0265L31.3127 28.0265H31.3126C31.3126 28.0265 31.3125 28.0265 31.3125 27.9937L31.3126 28.0265L31.2815 28.0265L31.24 27.2806ZM31.3435 27.96C31.3631 27.9592 31.391 27.9574 31.424 27.954C31.4905 27.9471 31.5767 27.9335 31.6578 27.9065C31.7292 27.8797 31.7968 27.8392 31.8471 27.8049C31.8722 27.7878 31.8928 27.7724 31.907 27.7613C31.9105 27.7585 31.9136 27.756 31.9164 27.7539L31.8999 27.4411L31.31 27.3568L31.3435 27.96ZM28.7973 27.2843L28.756 28.0078H28.725H28.7248L28.7244 28.0078L28.7228 28.0077L28.7169 28.0077C28.7118 28.0076 28.7044 28.0075 28.6949 28.0072C28.6761 28.0066 28.6493 28.0054 28.6171 28.003C28.5529 27.9982 28.4668 27.9887 28.3804 27.9695L28.3795 27.9693C28.3008 27.9496 28.2278 27.9154 28.1749 27.8866C28.1483 27.8721 28.1266 27.8588 28.1114 27.8491C28.1038 27.8442 28.0978 27.8402 28.0937 27.8374C28.0917 27.836 28.0901 27.8349 28.089 27.8342L28.0877 27.8333L28.0872 27.8329C28.0872 27.8329 28.0872 27.8329 28.1062 27.8062L28.0872 27.8329L28.0796 27.8275L27.8704 27.3255L28.7973 27.2843ZM28.1328 27.7846C28.1363 27.787 28.141 27.7901 28.1468 27.7938C28.1609 27.8028 28.1813 27.8153 28.2063 27.829C28.2565 27.8563 28.3239 27.8877 28.395 27.9055C28.4772 27.9237 28.5597 27.9329 28.6219 27.9375C28.6514 27.9397 28.6762 27.9409 28.694 27.9415L28.7277 27.3531L27.9671 27.3869L28.1328 27.7846Z" fill="black"/>
<path d="M28.0875 28.6687C28.0875 29.3062 31.95 29.3062 31.95 28.6687V27.7687C31.95 28.2374 28.0875 28.1437 28.0875 27.7687V28.6687Z" fill="white"/>
<path fill-rule="evenodd" clip-rule="evenodd" d="M31.8849 27.8254C31.9089 27.8043 31.9172 27.7854 31.9172 27.7687H31.9828V28.6687C31.9828 28.7669 31.9085 28.8451 31.8002 28.9064C31.6904 28.9685 31.5359 29.0192 31.3535 29.0593C30.9883 29.1397 30.5029 29.1796 30.0187 29.1796C29.5346 29.1796 29.0492 29.1397 28.684 29.0593C28.5016 29.0192 28.3471 28.9685 28.2373 28.9064C28.129 28.8451 28.0547 28.7669 28.0547 28.6687V27.7687H28.1203C28.1203 27.7768 28.1255 27.7906 28.1505 27.8094C28.175 27.8277 28.2129 27.8463 28.2645 27.8647C28.3671 27.9011 28.5155 27.9334 28.6959 27.9603C29.056 28.0143 29.5373 28.0464 30.0191 28.0523C30.5011 28.0581 30.9821 28.0376 31.3419 27.9867C31.5221 27.9612 31.67 27.9283 31.772 27.8881C31.8231 27.868 31.8607 27.8468 31.8849 27.8254ZM31.9172 27.8839C31.8859 27.9086 31.8445 27.9301 31.796 27.9492C31.6868 27.9921 31.533 28.0259 31.3511 28.0517C30.9867 28.1032 30.502 28.1238 30.0184 28.1179C29.5346 28.112 29.0502 28.0797 28.6862 28.0252C28.5044 27.998 28.3511 27.9651 28.2425 27.9265C28.1933 27.909 28.1516 27.8898 28.1203 27.8684V28.6687C28.1203 28.7298 28.1667 28.791 28.2696 28.8493C28.3711 28.9067 28.5183 28.9557 28.6981 28.9952C29.0571 29.0742 29.5373 29.114 30.0187 29.114C30.5002 29.114 30.9804 29.0742 31.3394 28.9952C31.5192 28.9557 31.6664 28.9067 31.7679 28.8493C31.8708 28.791 31.9172 28.7298 31.9172 28.6687V27.8839Z" fill="black"/>
<path d="M24.6375 26.5875C24.975 28.3125 28.0875 28.35 28.0875 28.35V27.7688C28.0125 27.5438 28.1438 27.4688 28.65 27.3938C28.8563 27.375 28.7625 27.075 28.7625 27.075C28.7625 27.075 27.4125 27.3187 26.4563 26.9437C25.1625 26.4187 24.975 25.4062 24.975 25.4062C24.975 25.4062 24.8813 26.1938 24.6375 26.5875V26.5875ZM35.3813 26.5875C35.0625 28.3125 31.95 28.35 31.95 28.35V27.7688C32.0063 27.5438 31.875 27.4688 31.3688 27.3938C31.1625 27.375 31.275 27.075 31.275 27.075C31.275 27.075 32.625 27.3187 33.5813 26.9437C34.8563 26.4187 35.0063 25.4062 35.0063 25.4062C35.0063 25.4062 35.1375 26.1938 35.3813 26.5875V26.5875Z" fill="white"/>
<path fill-rule="evenodd" clip-rule="evenodd" d="M25.2579 25.9601C25.4632 26.2737 25.8284 26.6534 26.4684 26.9132C26.9403 27.0982 27.5115 27.1311 27.967 27.1171C28.1943 27.1101 28.392 27.0914 28.5327 27.0745C28.6031 27.0661 28.6592 27.0581 28.6977 27.0522C28.7169 27.0493 28.7317 27.0468 28.7417 27.0452C28.7443 27.0447 28.7466 27.0444 28.7485 27.044C28.7503 27.0437 28.7518 27.0435 28.753 27.0433L28.7558 27.0428L28.7565 27.0426L28.7567 27.0426L28.7625 27.0749C28.7938 27.0651 28.7938 27.0651 28.7938 27.0651L28.794 27.0655L28.7942 27.0663L28.795 27.0692C28.7957 27.0716 28.7967 27.0751 28.7979 27.0795C28.8002 27.0883 28.8032 27.1008 28.8061 27.1158C28.812 27.1455 28.8177 27.1862 28.8164 27.2282C28.8152 27.2698 28.807 27.316 28.782 27.354C28.7561 27.3934 28.7143 27.4205 28.6539 27.4262C28.5282 27.4449 28.4267 27.4634 28.3462 27.484C28.2651 27.5048 28.2076 27.5272 28.1687 27.5524C28.1306 27.5771 28.1117 27.6035 28.1045 27.6334C28.0969 27.6646 28.1008 27.7046 28.1186 27.7583L28.1203 27.7633V28.3831L28.0871 28.3827L28.0875 28.3499C28.0871 28.3827 28.0872 28.3827 28.0871 28.3827L28.0869 28.3827L28.0865 28.3827L28.0847 28.3827L28.0779 28.3825C28.0719 28.3824 28.063 28.3822 28.0515 28.3819C28.0284 28.3811 27.9946 28.3799 27.9514 28.3777C27.8652 28.3733 27.7417 28.365 27.5926 28.3497C27.2944 28.3191 26.8928 28.2603 26.4804 28.1472C25.6592 27.9219 24.7781 27.4767 24.6053 26.5937L24.6375 26.5874L24.6096 26.5701C24.7283 26.3784 24.8118 26.0878 24.8656 25.8421C24.8924 25.7198 24.9116 25.6097 24.9241 25.5302C24.9304 25.4905 24.935 25.4584 24.938 25.4363C24.9395 25.4253 24.9406 25.4167 24.9414 25.4109L24.9422 25.4044L24.9424 25.4028L24.9424 25.4023L25.0072 25.4002C25.0073 25.4001 25.0073 25.4001 25.0073 25.4001L25.0074 25.4006L25.0077 25.4025C25.0081 25.4042 25.0087 25.4069 25.0095 25.4105C25.0111 25.4176 25.0136 25.4283 25.0173 25.4422C25.0247 25.4701 25.0368 25.5107 25.0553 25.5613C25.0924 25.6624 25.1552 25.8031 25.2579 25.9601ZM24.9856 25.5613C24.973 25.6397 24.9546 25.7427 24.9297 25.8561C24.8767 26.0981 24.7935 26.3918 24.6722 26.5935C24.8428 27.4274 25.6824 27.8602 26.4978 28.0839C26.9056 28.1957 27.3033 28.2541 27.5993 28.2844C27.7472 28.2996 27.8695 28.3078 27.9548 28.3121C27.9974 28.3143 28.0308 28.3156 28.0535 28.3163C28.0539 28.3163 28.0543 28.3163 28.0547 28.3163V27.7739C28.0363 27.717 28.0293 27.665 28.0407 27.6179C28.0528 27.5681 28.0843 27.5289 28.1329 27.4974C28.1807 27.4664 28.2463 27.4419 28.3299 27.4205C28.4138 27.3989 28.5183 27.38 28.6452 27.3612L28.6461 27.3611L28.647 27.361C28.6893 27.3571 28.7128 27.3398 28.7272 27.3179C28.7427 27.2944 28.7497 27.262 28.7508 27.2262C28.7519 27.1909 28.747 27.1554 28.7417 27.1284C28.7406 27.1225 28.7394 27.1171 28.7383 27.1122C28.7298 27.1136 28.7195 27.1152 28.7076 27.1171C28.6685 27.1231 28.6117 27.1312 28.5406 27.1397C28.3983 27.1568 28.1987 27.1756 27.969 27.1827C27.5105 27.1968 26.9286 27.1641 26.4443 26.9742L26.4439 26.974C25.7903 26.7088 25.4149 26.3198 25.203 25.996C25.0972 25.8342 25.0322 25.689 24.9937 25.5838C24.9909 25.5761 24.9882 25.5686 24.9856 25.5613ZM28.7625 27.0749L28.7938 27.0651L28.7852 27.0375L28.7567 27.0426L28.7625 27.0749ZM34.9739 25.4013L35.0386 25.4008L35.0387 25.4013L35.039 25.4029L35.0401 25.4095C35.0411 25.4152 35.0426 25.4238 35.0447 25.4349C35.0487 25.457 35.0547 25.4891 35.0628 25.5289C35.0788 25.6084 35.1027 25.7186 35.1341 25.8409C35.1973 26.0867 35.2901 26.3778 35.4092 26.5701L35.3813 26.5874L35.4135 26.5934C35.2503 27.4766 34.3736 27.9219 33.5548 28.1472C33.1435 28.2603 32.7426 28.3191 32.4447 28.3497C32.2957 28.365 32.1723 28.3733 32.0861 28.3777C32.043 28.3799 32.0091 28.3811 31.986 28.3819C31.9745 28.3822 31.9656 28.3824 31.9596 28.3825L31.9528 28.3827L31.9511 28.3827L31.9506 28.3827L31.9505 28.3827C31.9504 28.3827 31.9504 28.3827 31.95 28.3499L31.9505 28.3827L31.9172 28.3831V27.7646L31.9182 27.7607C31.9315 27.7073 31.9326 27.6671 31.9228 27.6354C31.9133 27.6046 31.8923 27.5776 31.8528 27.5526C31.8125 27.5272 31.7543 27.5048 31.673 27.484C31.5921 27.4634 31.4906 27.4449 31.3648 27.4262C31.3044 27.4205 31.2632 27.3932 31.239 27.3528C31.2159 27.3143 31.2105 27.2677 31.2118 27.2262C31.213 27.1842 31.2212 27.1436 31.2289 27.1139C31.2327 27.0989 31.2365 27.0865 31.2394 27.0777C31.2408 27.0733 31.242 27.0698 31.2429 27.0674L31.2439 27.0645L31.2442 27.0637L31.2442 27.0635L31.2443 27.0634C31.2443 27.0634 31.2443 27.0634 31.275 27.0749L31.2809 27.0426L31.281 27.0426L31.2817 27.0428L31.2846 27.0433C31.2871 27.0437 31.2908 27.0443 31.2958 27.0452C31.3058 27.0468 31.3206 27.0493 31.3399 27.0522C31.3783 27.0581 31.4344 27.0661 31.5048 27.0745C31.6456 27.0914 31.8432 27.1101 32.0706 27.1171C32.526 27.1311 33.0971 27.0982 33.569 26.9132C34.1994 26.6536 34.5504 26.2741 34.744 25.9608C34.8409 25.8039 34.8984 25.6633 34.9317 25.5623C34.9484 25.5118 34.959 25.4711 34.9654 25.4433C34.9685 25.4294 34.9707 25.4187 34.972 25.4116C34.9727 25.4081 34.9731 25.4054 34.9734 25.4037L34.9737 25.4018L34.9738 25.4014C34.9738 25.4014 34.9738 25.4013 34.9739 25.4013ZM35.0018 25.5586C34.9994 25.5664 34.9968 25.5745 34.9941 25.5828C34.9594 25.688 34.8998 25.8334 34.7998 25.9953C34.5996 26.3194 34.2382 26.7086 33.5938 26.974L33.5933 26.9742C33.1089 27.1641 32.5271 27.1968 32.0685 27.1827C31.8389 27.1756 31.6392 27.1568 31.497 27.1397C31.4259 27.1312 31.369 27.1231 31.3299 27.1171C31.3172 27.1151 31.3063 27.1134 31.2975 27.112C31.2959 27.1174 31.2942 27.1235 31.2924 27.1303C31.2854 27.1574 31.2784 27.1929 31.2773 27.2282C31.2763 27.2641 31.2815 27.2961 31.2952 27.319C31.3078 27.34 31.3296 27.3571 31.3717 27.361L31.3727 27.3611L31.3736 27.3612C31.5005 27.38 31.605 27.3989 31.6892 27.4204C31.7731 27.4419 31.8391 27.4663 31.8879 27.4972C31.9374 27.5284 31.9704 27.567 31.9855 27.616C31.9999 27.6629 31.9968 27.7151 31.9828 27.7726V28.3163C31.9832 28.3163 31.9836 28.3163 31.9841 28.3163C32.0067 28.3156 32.0401 28.3143 32.0827 28.3121C32.168 28.3078 32.2902 28.2996 32.438 28.2844C32.7336 28.2541 33.1307 28.1958 33.5374 28.0839C34.3505 27.8602 35.1853 27.4274 35.3467 26.5937C35.2253 26.3925 35.1328 26.0993 35.0706 25.8573C35.0409 25.742 35.0179 25.6374 35.0018 25.5586ZM31.275 27.0749L31.2809 27.0426L31.2539 27.0377L31.2443 27.0634L31.275 27.0749Z" fill="black"/>
<path d="M24.8812 25.9312C24.0187 25.4624 24.6937 24.9749 24.7687 23.5874C24.9 24.4312 25.8562 24.7874 25.7437 25.3312C25.35 25.3499 25.1625 24.7499 24.975 25.4062L24.8812 25.9312V25.9312ZM35.1375 25.9312C36 25.4437 35.2875 24.9749 35.2125 23.5874C35.0812 24.4312 34.1437 24.7874 34.2562 25.3312C34.6312 25.3499 34.8187 24.7499 35.0062 25.4062L35.1375 25.9124V25.9312Z" fill="white"/>
<path fill-rule="evenodd" clip-rule="evenodd" d="M24.736 23.5857L24.8012 23.5824C24.8651 23.9931 25.1297 24.2863 25.3718 24.5496C25.3753 24.5534 25.3788 24.5572 25.3823 24.561C25.4985 24.6873 25.6096 24.8081 25.6853 24.9308C25.7637 25.058 25.8063 25.1909 25.7759 25.3378L25.7707 25.3628L25.7453 25.364C25.6381 25.3691 25.5461 25.3319 25.4676 25.287C25.4284 25.2646 25.3919 25.2399 25.3585 25.2173L25.3582 25.2171C25.3245 25.1942 25.2944 25.1739 25.2662 25.1584C25.2379 25.1428 25.2141 25.1338 25.1935 25.1317C25.1741 25.1297 25.1564 25.1336 25.1381 25.1468C25.1188 25.1608 25.0975 25.1863 25.0749 25.2303C25.0526 25.2738 25.03 25.3335 25.007 25.4136L24.9136 25.937L24.8813 25.9312L24.8656 25.96C24.6467 25.8411 24.52 25.7181 24.4591 25.5752C24.3983 25.4327 24.4057 25.2764 24.4413 25.0975C24.4623 24.9916 24.4931 24.8773 24.5271 24.7512C24.6091 24.4471 24.7096 24.0743 24.736 23.5857ZM24.8571 25.88L24.943 25.3988L24.9435 25.3972C24.9672 25.314 24.9913 25.2494 25.0165 25.2003C25.0416 25.1515 25.0688 25.116 25.0996 25.0937C25.1314 25.0706 25.1654 25.0628 25.2002 25.0664C25.2336 25.0698 25.2664 25.0836 25.2978 25.1009C25.3287 25.1178 25.3609 25.1396 25.3934 25.1617L25.3953 25.163C25.429 25.1857 25.4635 25.2091 25.5002 25.23C25.5662 25.2678 25.6371 25.2965 25.7161 25.2987C25.7325 25.1836 25.6976 25.0758 25.6294 24.9652C25.5571 24.848 25.4498 24.7313 25.3315 24.6027C25.3288 24.5998 25.3262 24.5969 25.3235 24.594C25.1224 24.3753 24.8943 24.125 24.7855 23.7959C24.7454 24.1939 24.6591 24.5141 24.5886 24.7761C24.5553 24.8997 24.5255 25.0104 24.5056 25.1102C24.4709 25.2852 24.4665 25.4254 24.5194 25.5495C24.5688 25.6652 24.6703 25.7722 24.8571 25.88ZM34.6186 24.5498C34.856 24.2866 35.1162 23.9933 35.1801 23.5824L35.2453 23.5857C35.2724 24.087 35.3825 24.4645 35.4719 24.7708C35.5056 24.8862 35.5364 24.9915 35.5586 25.0896C35.5988 25.2672 35.6112 25.4229 35.5541 25.5666C35.4969 25.7105 35.3725 25.8361 35.1536 25.9598L35.1047 25.9874V25.9166L34.9747 25.4152C34.9747 25.4151 34.9746 25.4149 34.9746 25.4148C34.9515 25.3341 34.9288 25.274 34.9064 25.2303C34.8838 25.1863 34.8625 25.1607 34.8434 25.1468C34.8252 25.1335 34.8078 25.1297 34.7888 25.1316C34.7686 25.1338 34.7453 25.1427 34.7176 25.1583C34.69 25.1737 34.6606 25.1941 34.6277 25.2171L34.6262 25.2181C34.5942 25.2404 34.5593 25.2647 34.522 25.2868C34.4462 25.3316 34.3576 25.3691 34.2546 25.364L34.2293 25.3627L34.2241 25.3378C34.1938 25.1911 34.235 25.0583 34.3116 24.9311C34.3858 24.8079 34.4952 24.6866 34.6097 24.5598L34.6186 24.5498ZM35.1626 25.8786C35.3482 25.767 35.447 25.6584 35.4931 25.5423C35.5427 25.4176 35.534 25.278 35.4946 25.1041C35.4735 25.0112 35.4437 24.9091 35.4107 24.7958C35.3335 24.5313 35.2386 24.2061 35.196 23.7961C35.0885 24.1249 34.8646 24.3751 34.6673 24.5938L34.661 24.6009C34.5444 24.7301 34.4387 24.8473 34.3679 24.9649C34.3013 25.0755 34.2674 25.1834 34.2839 25.2986C34.358 25.2962 34.4251 25.2678 34.4886 25.2303C34.5237 25.2095 34.557 25.1863 34.5895 25.1637L34.5902 25.1632C34.6224 25.1407 34.6546 25.1183 34.6855 25.101C34.7164 25.0837 34.7488 25.0698 34.782 25.0664C34.8166 25.0628 34.8504 25.0706 34.882 25.0937C34.9127 25.1161 34.9397 25.1515 34.9648 25.2004C34.9899 25.2494 35.014 25.314 35.0378 25.3972L35.038 25.398L35.1626 25.8786Z" fill="black"/>
<path d="M25.4062 26.5687L25.5 26.6438L25.2937 26.8688C25.2 26.9625 25.1906 27.0187 25.2469 27.075C25.3125 27.1406 25.3687 27.1125 25.4344 27.0375L25.6687 26.7937L25.7437 26.8688L25.5187 27.1312C25.3969 27.2719 25.2844 27.2438 25.1812 27.15C25.1062 27.075 25.05 26.9625 25.1812 26.8219L25.4062 26.5687ZM25.7812 26.8875L25.875 26.9437L25.8562 27.3938L26.0625 27.075L26.1562 27.1312L25.8562 27.6188L25.7437 27.5625L25.7625 27.1125L25.5562 27.4313L25.4625 27.375L25.7812 26.8875ZM25.95 27.675L26.2125 27.15L26.3062 27.2063L26.0625 27.7125L25.95 27.675ZM26.3625 27.225L26.1562 27.7688L26.3625 27.8438C26.55 27.9094 26.6437 27.825 26.7 27.6656C26.7656 27.4969 26.7375 27.3844 26.55 27.3L26.3625 27.225V27.225ZM26.4375 27.3562C26.625 27.4219 26.6437 27.4969 26.5875 27.6375C26.5312 27.7594 26.4937 27.8063 26.3062 27.7125L26.4375 27.3562ZM26.9812 27.4313L26.6437 27.9375L26.775 27.975L26.85 27.8438L27.075 27.9L27.0937 28.0312L27.225 28.05L27.0937 27.45L26.9812 27.4313V27.4313ZM27.0187 27.5625L27.0562 27.7875L26.9062 27.7688L27.0187 27.5625V27.5625ZM27.3 27.4781L27.2812 28.0594H27.4969C27.7031 28.0687 27.7594 27.9656 27.7687 27.7781C27.7687 27.6094 27.7031 27.4969 27.4969 27.4969L27.3 27.4781ZM27.4125 27.5719C27.6187 27.5813 27.6469 27.6469 27.6469 27.7875C27.6375 27.9281 27.6094 27.9844 27.4031 27.9563V27.5813L27.4125 27.5719ZM29.2687 28.2937V28.8938H29.4V28.6687C29.4 28.6687 29.5125 28.6688 29.6062 28.65C29.6719 28.6313 29.7281 28.5844 29.7281 28.4625C29.7281 28.35 29.6625 28.2937 29.55 28.2937H29.2687ZM29.4 28.3875H29.5312C29.6344 28.3875 29.625 28.5563 29.5312 28.5563H29.4V28.3875ZM29.9437 28.2937L29.7 28.8938H29.8312L29.8875 28.7438H30.1312L30.1875 28.8938H30.3187L30.075 28.2937H29.9437ZM30 28.425L30.0937 28.65H29.925L30 28.425ZM30.3187 28.7812L30.6375 28.3875H30.3562V28.2937H30.8062V28.3875L30.4687 28.7812H30.8062V28.8938H30.3187V28.7812ZM32.2125 27.6188L32.325 27.6L32.3812 27.9375C32.4 28.0594 32.3437 28.1344 32.2594 28.1719C32.1656 28.2094 32.0344 28.1719 32.025 28.0125L32.1187 27.9938C32.1375 28.0875 32.175 28.0969 32.2125 28.0875C32.2594 28.0688 32.2781 28.0125 32.2687 27.9563L32.2125 27.6188ZM32.4 27.5813L32.5031 27.5625L32.5594 27.8438C32.5781 27.9656 32.6156 28.0125 32.7 28.0031C32.7937 27.9844 32.8031 27.9281 32.7844 27.8156L32.7187 27.525L32.8312 27.5062L32.9062 27.8156C32.9437 28.0031 32.85 28.0688 32.7187 28.0969C32.6156 28.1156 32.4937 28.0969 32.4562 27.9094L32.4 27.5813ZM32.9812 27.8438L33.075 27.8063C33.1219 27.8906 33.1875 27.8813 33.2437 27.8625C33.3187 27.825 33.3375 27.7594 33.2906 27.7312C33.2344 27.7031 33.1031 27.75 33.0375 27.7312C32.9531 27.6937 32.9156 27.6375 32.925 27.5719C32.925 27.4781 33 27.4406 33.0844 27.4125C33.1781 27.3844 33.2719 27.3937 33.3375 27.5062L33.225 27.5437C33.1875 27.4781 33.1312 27.4875 33.0937 27.5062C33.0562 27.525 33 27.5531 33.0375 27.6C33.0562 27.6469 33.1969 27.6188 33.2719 27.6188C33.3469 27.6188 33.4031 27.675 33.4125 27.7406C33.4312 27.8437 33.3937 27.9 33.2719 27.9469C33.1312 28.0031 33 27.9469 32.9812 27.8438V27.8438ZM33.4875 27.375L33.3375 27.45L33.3 27.3562L33.7125 27.1875L33.75 27.2625L33.6 27.3375L33.7687 27.75L33.675 27.8063L33.4875 27.375ZM33.7312 27.1687L33.825 27.1125L34.0875 27.6L33.9937 27.6562L33.7312 27.1687ZM34.3687 27.2063L34.4812 27.1687C34.4957 27.2042 34.5009 27.2428 34.4963 27.2808C34.4917 27.3189 34.4774 27.3551 34.4549 27.3861C34.4323 27.4171 34.4023 27.4418 34.3675 27.4579C34.3327 27.474 34.2944 27.481 34.2562 27.4781C33.975 27.4781 33.9375 27.1594 33.9844 27.0563C34.0594 26.8781 34.2656 26.8875 34.3594 26.9812L34.2656 27.0563C34.2094 26.9813 34.0781 27.0281 34.0781 27.0938C34.0657 27.1485 34.0718 27.2059 34.0956 27.2569C34.1193 27.3078 34.1594 27.3493 34.2094 27.375C34.3031 27.4125 34.4344 27.3 34.3687 27.2063ZM34.3125 26.8125L34.4062 26.7375L34.7437 27.1875L34.65 27.2625L34.3125 26.8125ZM34.6687 26.5312L34.575 26.6062L34.7812 27.1687L34.875 27.075L34.8187 26.9625L34.9875 26.8125L35.1 26.8688L35.1937 26.7937L34.6687 26.5312V26.5312ZM34.7062 26.6625L34.8937 26.7562L34.7812 26.8688L34.7062 26.6625Z" fill="black"/>
</g>
<defs>
<clipPath id="clip0_4_6929">
<rect width="60" height="45" fill="white"/>
</clipPath>
</defs>
</svg>
