<svg width="60" height="45" viewBox="0 0 60 45" fill="none" xmlns="http://www.w3.org/2000/svg">
<g clip-path="url(#clip0_4_4331)">
<path fill-rule="evenodd" clip-rule="evenodd" d="M0 0H60V45H0V0Z" fill="#BE0027"/>
<path fill-rule="evenodd" clip-rule="evenodd" d="M0 45L60 44.9719V22.5L0 45Z" fill="#B4D7F4"/>
<path fill-rule="evenodd" clip-rule="evenodd" d="M0 0L60 0.028125V22.5L0 0Z" fill="#239E46"/>
<path fill-rule="evenodd" clip-rule="evenodd" d="M17.4563 33.7875C16.4531 34.0687 15.8813 34.8469 15.8906 35.5781L20.8406 35.5594C20.8781 34.7719 20.2313 34.0406 19.2469 33.75C24.0844 33.6562 28.2844 31.8375 29.0531 30.675C28.3031 30.3469 27.4219 30.8719 26.8031 30.75C28.275 30.0656 32.7094 27.1969 31.9875 24.1219C31.425 25.8281 29.7375 27.2438 29.0063 27.6281C30.6656 25.1156 32.925 22.4906 30.9656 20.4656C31.0594 21.6375 30.2156 22.9312 29.8406 23.0344C30.8063 20.3719 31.7156 17.0344 29.6438 14.8406C29.9156 15.6375 29.8031 17.8781 29.4281 17.9813C29.3156 16.1719 29.0063 12.375 27.1031 12.4219C27.7031 12.9656 27.9656 14.4281 27.9844 15.9094C27.5976 14.8842 26.9076 14.0012 26.0063 13.3781C25.0656 11.751 23.7268 10.3897 22.1156 9.42188C22.2844 10.6125 22.425 11.55 24.0844 12.7875C23.2219 12.7312 22.3594 11.0906 21.4313 11.0438C20.6906 11.0063 20.1188 11.7094 18.9094 11.3062C19.0406 11.7 19.6031 11.8781 19.725 12.1688C19.4625 12.3563 18.8531 12.1406 18.3469 11.8875C19.05 12.825 20.1281 13.3875 21.0469 13.2C22.1438 12.9938 23.3156 13.1063 24.4406 13.7438C23.7466 13.889 23.0321 13.908 22.3313 13.8C22.9781 14.4562 23.4094 14.8969 24.5438 14.8875C25.5469 14.8875 26.0813 14.3438 26.3344 14.6813C26.9719 15.4313 27.3938 16.1813 27.9281 17.0625C26.7563 17.1844 27.1125 15.7406 25.8094 15C25.0688 16.5 26.6531 18.3 27.7125 19.05C27.6825 20.0747 27.9114 21.0904 28.3781 22.0031C28.7063 22.6125 29.1281 23.2406 28.9688 24.6188C28.3219 24.15 27.7031 22.575 27.9375 21.3281C27.1313 21.5437 26.8125 22.9594 27.1875 23.6719C27.4688 24.2062 27.6563 25.2469 27.3375 25.7063C27.0188 26.1375 26.9906 26.0813 26.9906 27.0188C27 27.5625 26.6906 28.2187 26.1938 28.6781C26.3392 28.1984 26.3745 27.6921 26.2969 27.1969C25.9031 27.8719 24.9 28.5656 24.5906 29.2969C24.2813 30.0187 24.2063 31.2844 22.7156 31.575C20.7844 31.95 20.1188 32.2875 18.8906 32.7937C18.75 31.8562 19.1625 29.8875 19.95 30.0094C20.7094 30.1406 23.0438 29.2031 22.2 27.2438C22.0406 27.8625 21.4969 28.4625 20.8969 28.4906C21.5438 27.6656 22.6781 26.8031 22.125 25.4156C21.7901 26.1145 21.2592 26.7008 20.5969 27.1031C21.3844 25.6031 20.6906 25.1344 19.7531 26.3906C19.3969 26.8687 19.1813 27.8344 18.9563 29.0625C18.5813 28.0687 18.6094 26.7562 18.1688 25.6875C17.7188 24.5344 18.7781 24.2344 19.275 24.3281C20.4938 24.6562 22.5469 24.6562 22.3969 22.6312C21.8625 23.3156 20.9438 23.5219 19.9406 23.2875C21.0656 22.4625 21.9469 20.9156 20.6906 20.1C20.6345 20.5784 20.4603 21.0353 20.1837 21.4297C19.9071 21.8241 19.5369 22.1436 19.1063 22.3594C18.9049 21.5986 18.8953 20.7998 19.0781 20.0344C18.5906 20.5594 18.2344 21.6281 17.9438 22.8656C17.9156 21.6469 18.15 20.775 18.3188 20.1188C18.5813 19.1719 19.2188 19.7906 20.1938 19.8563C21.15 19.9125 22.4438 19.3875 22.2 18.1031C21.8813 18.6188 21.2156 18.8156 20.5406 18.7594C21.3563 18.2625 22.7719 17.3906 21.9938 16.0406C21.6656 16.5469 21.5625 16.9781 20.6156 17.1375C20.8594 16.575 20.8969 15.7594 21.6469 15.45C20.3344 15.1781 19.5844 16.0406 19.1906 17.3906C19.0406 16.4531 18.8531 16.1156 18.8156 15.4219C19.5281 14.6437 19.6031 13.0969 18.0656 12.7594C17.9649 13.3039 18.0036 13.8651 18.1781 14.3906C17.4563 13.9594 16.4438 13.725 15.7594 14.325C16.2281 14.8219 16.9313 15.2625 18.0281 14.7188C17.7656 15.5625 17.0906 15.4219 16.1719 15.0938C16.7344 16.1531 17.4469 16.3406 18.2344 16.2188C18.6469 17.3063 18.6656 18.1312 17.4563 19.7062C17.5125 18.7312 17.4469 18 16.6688 17.2031C15.9938 16.5469 15.45 17.2313 16.5 18.6844C15.8625 18.2156 15.15 17.2781 14.9344 16.3312C14.7281 17.4937 14.9156 18.8719 15.5625 19.65C15.2531 19.9781 14.9063 19.6125 14.3906 18.8063C14.5781 21.375 15.675 21.8719 17.1469 21.3C17.1844 22.7062 17.1844 24.0094 17.2688 25.7063C16.4156 24.4688 15.3281 23.55 14.7281 23.325C14.5406 24.0094 15.2438 24.9188 15.6469 25.4156C15.0375 25.2844 13.725 24.2906 13.725 24.2906C13.5938 25.425 15.0656 26.4844 16.0219 26.9531C14.8969 26.9062 14.4 26.4844 13.6781 25.7906C13.6969 28.9594 17.1094 28.4062 17.7563 27.9187L18.0375 32.8406C17.0719 32.6719 17.1469 32.3719 16.3219 32.3063C14.025 32.2125 12.2063 29.55 11.6063 27.5906C11.4281 27.9094 11.5688 28.2469 11.4094 28.65C11.0344 27.6844 10.5656 26.4375 9.91876 25.8562C10.0875 26.4187 10.1063 26.9906 10.05 28.0406C9.82501 27.3656 9.62813 27.15 9.60938 26.3531C9.61876 25.7438 10.2 25.2938 10.1719 24.4313C10.1438 23.8031 9.57188 22.4344 9.48751 21.3844C9.20626 22.4719 9.03751 23.6156 8.60626 24.2906C8.82188 23.1281 8.75626 22.3219 9.11251 21.5438C9.52501 20.7281 9.87188 19.9875 9.60001 19.1625C9.33751 19.4812 9.42188 19.7719 8.75626 20.55C8.61563 19.7062 9.61876 18.3469 10.5938 17.8031C11.2781 17.4469 12.1406 16.1531 11.5781 15.2719C10.9313 15.7406 10.6406 16.3594 9.73126 17.4281C10.3875 14.8969 12.075 14.2219 14.0906 14.2125C14.5313 14.2125 15.4313 14.0531 15.6844 13.4625C15.1219 13.6781 14.4469 13.7063 13.8469 13.5938C14.2875 12.9469 15.1969 13.0312 16.0594 13.0312C16.725 13.0312 17.775 12.9375 18.1969 11.9813C17.2705 12.3426 16.2542 12.4049 15.2906 12.1594C16.575 11.5031 18.5719 11.4281 19.6031 10.5562C18.4313 9.68437 15.5063 10.7625 13.6594 12.0281C14.175 11.5594 14.9906 10.7156 15.4406 10.0406C14.4281 9.55312 11.8781 12.3844 10.9969 14.0719C10.1531 14.5406 9.82501 15.2906 9.49688 15.8063C9.93751 14.2969 9.98438 13.2 10.3594 11.9625C7.50001 12.9375 8.68126 18.2437 8.06251 19.5187C8.13751 18.1125 8.07188 16.3219 7.50001 15.3937C6.61876 16.0687 6.54376 20.0344 7.36876 23.3344C7.06876 22.4531 6.50626 21.6281 6.32813 20.55C5.01563 22.9312 7.09688 25.7531 8.83126 27.975C7.51876 27.2906 6.23438 25.8281 5.38126 24.6C5.61563 28.875 10.0688 29.7563 10.7625 30.8063C9.82501 30.3656 8.03438 29.5031 7.26563 30.4125C8.33361 30.6105 9.35854 30.9945 10.2938 31.5469C11.4563 32.9906 13.6406 33.6281 17.4563 33.7875V33.7875Z" fill="#F3E295"/>
</g>
<defs>
<clipPath id="clip0_4_4331">
<rect width="60" height="45" fill="white"/>
</clipPath>
</defs>
</svg>
