<svg width="60" height="45" viewBox="0 0 60 45" fill="none" xmlns="http://www.w3.org/2000/svg">
<g clip-path="url(#clip0_4_4453)">
<path d="M0 0H60V45H0V0Z" fill="white"/>
<path fill-rule="evenodd" clip-rule="evenodd" d="M-7.5 0V3L25.35 22.5L-7.35 42V45H-2.55L30.15 25.5L62.7 45H67.5V42L34.95 22.5L67.65 3V0H62.7L30 19.5L-2.55 0H-7.35H-7.5Z" fill="#DF112D"/>
<path d="M33.9 6.75008C34.95 10.6501 34.35 15.4501 30 18.1501C25.65 15.4501 25.05 10.6501 26.1 6.75008C27.15 5.85008 31.8 5.25008 33.9 6.75008Z" fill="#E8112D"/>
<path d="M30 6.00005C31.5 6.00005 32.7 6.30005 33.9 6.90005C34.116 5.60052 34.6293 4.36847 35.4 3.30005C34.65 3.30005 34.35 3.60005 34.35 4.05005C34.2 3.60005 33.45 3.60005 33.15 3.90005C34.05 4.35005 33.45 5.40005 32.7 5.25005C32.25 5.10005 32.1 4.80005 32.1 4.50005C32.2113 4.48124 32.3114 4.42133 32.3805 4.33218C32.4497 4.24303 32.4829 4.13115 32.4734 4.01871C32.464 3.90627 32.4127 3.80148 32.3296 3.72511C32.2465 3.64873 32.1378 3.60634 32.025 3.60634C31.9122 3.60634 31.8034 3.64873 31.7204 3.72511C31.6373 3.80148 31.586 3.90627 31.5766 4.01871C31.5671 4.13115 31.6003 4.24303 31.6694 4.33218C31.7386 4.42133 31.8387 4.48124 31.95 4.50005C31.6731 4.78267 31.2957 4.94441 30.9 4.95005C30.7277 4.8686 30.5809 4.7418 30.4752 4.58325C30.3695 4.42471 30.3089 4.24039 30.3 4.05005C30.3 3.30005 31.2 3.15005 31.35 3.30005C31.35 2.85005 30.45 2.25005 30.3 2.85005C30.4549 2.55878 30.5094 2.22458 30.4552 1.89918C30.401 1.57378 30.241 1.27534 30 1.05005C29.7913 1.26392 29.6513 1.53523 29.5979 1.82921C29.5444 2.12318 29.58 2.42642 29.7 2.70005C29.4 2.25005 28.65 2.70005 28.65 3.30005C28.8 3.15005 29.55 3.30005 29.55 4.05005C29.55 4.35005 29.55 4.80005 29.1 4.80005C28.9163 4.87206 28.714 4.8817 28.5243 4.82749C28.3346 4.77329 28.1679 4.65824 28.05 4.50005L28.35 4.35005C28.4358 4.30052 28.5028 4.22407 28.5407 4.13255C28.5787 4.04103 28.5853 3.93955 28.5597 3.84387C28.534 3.74818 28.4775 3.66363 28.3989 3.60333C28.3203 3.54302 28.2241 3.51034 28.125 3.51034C28.0259 3.51034 27.9296 3.54302 27.8511 3.60333C27.7725 3.66363 27.716 3.74818 27.6903 3.84387C27.6647 3.93955 27.6713 4.04103 27.7093 4.13255C27.7472 4.22407 27.8142 4.30052 27.9 4.35005C27.9 4.80005 27.6 5.10005 27.3 5.10005C27.1426 5.10005 26.9892 5.05052 26.8615 4.95848C26.7338 4.86644 26.6383 4.73655 26.5885 4.58722C26.5387 4.43789 26.5372 4.27668 26.5841 4.12642C26.631 3.97617 26.7241 3.8445 26.85 3.75005C26.55 3.45005 25.8 3.45005 25.65 4.05005C25.65 3.60005 25.35 3.30005 24.45 3.30005C25.2207 4.36847 25.734 5.60052 25.95 6.90005C27.1965 6.24687 28.5941 5.9363 30 6.00005V6.00005Z" fill="#F9DD16"/>
<path d="M33.45 9.89999H33.15H33.6C33.75 9.89999 33.9 9.74999 33.75 9.59999H34.05L33.75 9.29999H34.05L33.75 8.99999H33.9C33.8737 8.95439 33.8598 8.90265 33.8598 8.84999C33.8598 8.79733 33.8737 8.7456 33.9 8.69999H32.85L32.1 8.54999L33 8.09999C33 7.79999 32.55 7.34999 31.8 7.64999L30.15 7.49999L31.2 7.19999L32.4 7.04999H31.35C30.9 7.04999 29.85 6.89999 29.85 7.49999C29.85 8.09999 30.9 7.94999 31.95 7.79999L32.85 7.94999L31.95 8.24999C31.5058 8.14743 31.0441 8.14743 30.6 8.24999H29.55C29.25 8.24999 28.8 8.24999 28.5 7.94999C28.5 7.94999 27.9 8.24999 27.9 8.54999V8.99999C28.2 9.29999 27.9 9.14999 27.6 9.14999L26.85 8.99999C26.7 8.69999 26.55 8.54999 26.25 8.69999V8.99999H26.55C26.5044 8.97366 26.4526 8.9598 26.4 8.9598C26.3473 8.9598 26.2956 8.97366 26.25 8.99999V9.29999H26.7H26.4V9.44999H27C26.9204 9.44999 26.8441 9.4816 26.7879 9.53786C26.7316 9.59412 26.7 9.67043 26.7 9.74999C26.85 9.59999 27 9.74999 27.3 9.74999L27 9.89999C27.15 9.89999 28.05 10.05 28.05 9.74999V9.89999C28.05 9.89999 28.5 9.89999 28.5 9.59999V9.89999C28.5 9.89999 28.8 9.89999 28.95 9.59999V9.29999H29.7C30 8.99999 30.15 9.29999 30.3 9.14999H30.6C30.75 9.14999 30.9 9.14999 31.05 8.84999C31.35 8.99999 31.8 9.14999 32.7 8.99999C33.15 8.99999 33.45 9.14999 33.45 9.44999H32.7C32.7 9.44999 32.55 9.59999 32.7 9.74999C32.85 9.89999 32.7 9.74999 32.85 9.74999C32.85 9.74999 32.7 9.89999 32.85 10.05L33.3 9.89999H33.45ZM27.45 7.34999V7.49999L27.6 7.79999L27.75 7.34999H27.45Z" fill="#F9DD16"/>
<path d="M28.5 7.49998C28.65 7.34998 28.8 7.34998 28.8 7.49998L28.65 7.79998L28.5 7.34998V7.49998Z" fill="#F9DD16"/>
<path d="M28.05 7.19995C28.5 7.19995 28.65 7.49995 28.65 7.79995L28.35 8.39995L28.05 8.54995L27.75 8.39995C27.75 7.94995 27.45 8.09995 27.45 7.79995C27.45 7.49995 27.45 7.19995 28.05 7.19995V7.19995Z" fill="#F9DD16"/>
<path d="M26.85 8.39996H26.55C26.7 8.39996 26.7 8.69996 27.15 8.69996H26.85C27 8.69996 27.15 8.99996 27.6 8.99996C27.75 8.99996 27.6 8.99996 27.6 8.99996C27.6 9.14996 27.9 8.99996 28.05 9.29996C28.05 9.14996 27.75 8.84996 28.05 8.54996C27.45 8.54996 27.3 8.24996 27.15 8.09996C26.85 7.94996 26.85 7.64996 26.7 7.34996C26.7 7.34996 26.55 7.04996 26.4 7.19996V7.49996H26.25C26.4 7.49996 26.25 7.79996 26.55 7.94996C26.4 7.79996 26.25 7.64996 26.1 7.79996H26.25L26.85 8.39996V8.39996ZM30.75 9.89996H31.5L31.8 9.74996V9.44996C31.65 9.44996 31.5 9.29996 31.65 9.14996C31.2 8.54996 30.3 8.84996 30.3 9.14996L30.9 9.44996H31.05H30L30.15 9.59996L29.85 9.74996C29.85 10.05 30.15 9.74996 30.15 9.74996V9.89996C30.15 9.89996 30.15 10.05 30.3 9.89996C30.397 9.86564 30.5029 9.86564 30.6 9.89996H30.75Z" fill="#F9DD16"/>
<path d="M28.05 8.4001H28.2V8.1001H27.75V8.2501L28.05 8.4001V8.4001Z" fill="#FF0016"/>
<path d="M26.4 7.20009C26.4 7.05009 26.1 7.20009 26.1 7.20009H26.4ZM26.4 7.35009L25.95 7.50009H26.25L26.4 7.35009ZM26.4 7.80009H25.95H26.25H26.4ZM26.4 8.85009C26.25 8.85009 26.1 8.85009 26.1 9.15009C26.1 9.00009 26.25 9.15009 26.4 9.15009V8.85009ZM26.4 9.15009L26.1 9.45009L26.4 9.30009V9.00009V9.15009ZM26.4 9.30009C26.4 9.30009 26.25 9.45009 26.4 9.60009V9.15009V9.30009ZM30.15 9.75009C30 9.75009 29.85 9.75009 29.85 10.0501L30.15 9.90009V9.75009V9.75009ZM30.3 9.75009C30.15 9.75009 30 10.0501 30.15 10.2001L30.3 10.0501V9.90009V9.75009ZM30.3 9.45009C30 9.45009 29.85 9.45009 29.85 9.75009L30.15 9.60009L30.3 9.45009ZM32.7 9.75009C32.7 9.75009 32.4 9.90009 32.55 10.0501L32.7 9.90009V9.75009V9.75009ZM32.7 9.60009L32.4 9.75009H32.7V9.30009V9.60009ZM32.7 9.90009C32.7 9.90009 32.55 10.2001 32.7 10.2001H32.85V9.75009L32.7 9.90009ZM28.2 8.40009V9.00009C27.9 9.00009 27.9 9.00009 27.9 8.70009V8.40009H28.05H28.2Z" fill="#0051BA"/>
<path d="M32.85 13.0501H33.15C33.15 13.0501 33.3 13.0501 33.15 12.9001H33.45L33.3 12.6001H33.45L33.3 12.3001C33.2737 12.2545 33.2598 12.2028 33.2598 12.1501C33.2598 12.0974 33.2737 12.0457 33.3 12.0001H32.55L31.8 11.8501C32.25 12.0001 32.7 11.7001 32.7 11.4001C32.7 11.1001 32.25 10.8001 31.65 11.1001L30 10.9501L30.9 10.6501H32.1L31.05 10.5001C30.6 10.3501 29.7 10.5001 29.7 10.9501C29.7 11.4001 30.75 11.4001 31.65 11.2501H32.4L31.65 11.5501C31.2551 11.4601 30.8449 11.4601 30.45 11.5501L29.4 11.7001C29.25 11.7001 28.8 11.7001 28.5 11.4001L27.9 11.8501L28.05 12.4501C28.2 12.6001 28.05 12.4501 27.75 12.4501H27C27 12.1501 26.7 12.0001 26.55 12.1501V12.3001H26.85C26.8044 12.2738 26.7526 12.2599 26.7 12.2599C26.6473 12.2599 26.5956 12.2738 26.55 12.3001V12.6001H26.85H26.7C27 12.6001 27 12.9001 27.15 12.7501C27.1008 12.7374 27.0492 12.7374 27 12.7501C27 12.7501 27.3 13.0501 27.45 12.9001L27.3 13.2001C27.3 13.0501 28.2 13.2001 28.2 12.9001V13.2001C28.2 13.2001 28.5 13.2001 28.65 12.9001H28.95V12.6001H29.25L29.7 12.4501H30.45C30.6 12.4501 30.75 12.4501 30.9 12.1501C31.2 12.3001 31.5 12.4501 32.4 12.3001C32.7 12.3001 32.85 12.3001 32.85 12.6001V12.7501H32.25V13.0501C32.25 13.2001 32.4 13.0501 32.55 13.0501C32.4 13.0501 32.25 13.0501 32.4 13.2001H32.55L32.85 13.0501V13.0501ZM27.75 10.8001H27.45L27.6 11.2501L27.75 10.8001V10.8001Z" fill="#F9DD16"/>
<path d="M28.5 10.8H28.8L28.65 11.25L28.5 10.8Z" fill="#F9DD16"/>
<path d="M28.2 10.6501C28.65 10.6501 28.65 10.9501 28.65 11.2501C28.65 11.5501 28.5 11.2501 28.35 11.7001L28.05 11.8501H27.9C27.9 11.4001 27.6 11.4001 27.6 11.2501C27.6 11.1001 27.6 10.6501 28.2 10.6501V10.6501Z" fill="#F9DD16"/>
<path d="M27 11.7001H26.85C26.85 11.7001 26.85 12.0001 27.3 12.0001H27L27.6 12.3001C27.9 12.3001 27.6 12.3001 27.6 12.3001L28.2 12.6001C28.2 12.3001 27.9 12.1501 28.05 11.8501C27.6 11.8501 27.45 11.5501 27.3 11.4001C27 11.4001 27 11.1001 27 10.8001L26.7 10.6501C26.7 10.6501 26.55 10.6501 26.7 10.6501V10.9501H26.55L26.7 11.2501H26.4C26.7 11.2501 26.85 11.7001 27 11.7001V11.7001ZM30.6 13.0501H30.45H31.65V12.7501C31.5 12.7501 31.35 12.6001 31.5 12.3001C31.05 11.8501 30.3 12.1501 30.3 12.3001L30.9 12.6001C30.9 12.6001 31.2 12.6001 30.9 12.7501H30.6C30.3 12.7501 30.15 12.6001 30 12.7501V13.0501H30.15C30.15 13.0501 30.15 13.2001 30.3 13.0501C30.397 13.0158 30.5029 13.0158 30.6 13.0501V13.0501Z" fill="#F9DD16"/>
<path d="M28.2 11.85V11.7C28.2 11.7 28.35 11.55 28.2 11.4C28.35 11.55 28.2 11.55 28.2 11.4C28.2 11.55 27.9 11.55 27.9 11.4V11.7H28.2V11.85Z" fill="#FF0016"/>
<path d="M28.05 11.55L27.75 11.4ZM28.05 11.4H27.75ZM28.05 11.4L27.75 11.55ZM28.2 11.55L28.5 11.4ZM28.2 11.4H28.5ZM28.2 11.4L28.5 11.55Z" fill="black"/>
<path d="M26.7 10.5L26.4 10.65H26.7V10.5ZM26.7 10.8L26.25 10.95H26.55L26.7 10.8ZM26.55 11.25C26.55 11.1 26.25 11.25 26.25 11.25H26.55ZM26.55 12.15L26.25 12.3H26.7L26.55 12.15ZM26.55 12.45C26.55 12.45 26.25 12.45 26.55 12.75V12.45ZM26.85 12.45L26.55 12.9L26.85 12.75V12.6V12.45ZM29.85 12.9C29.85 12.9 29.7 12.9 29.85 13.2L30 13.05V12.9H29.85ZM30.15 13.05C30.15 13.05 29.85 13.2 30 13.35L30.15 13.2V13.05ZM30.15 12.6C30 12.6 29.7 12.75 29.85 12.9H30V12.75L30.15 12.6ZM32.25 13.05C32.25 13.05 32.1 13.05 32.25 13.2V12.9V13.05ZM32.25 12.75L32.1 12.9H32.4V12.75H32.25ZM32.4 13.2C32.4 13.2 32.25 13.2 32.4 13.35V13.2ZM28.2 11.7V12.3V12C28.2 11.85 28.2 11.7 28.05 11.85V11.7H28.2Z" fill="#0051BA"/>
<path d="M32.847 15.645C32.763 15.645 32.763 15.7575 32.742 15.7575C32.91 15.7575 32.994 15.69 33.036 15.6V15.735C33.162 15.69 33.204 15.5775 33.162 15.51L33.309 15.555C33.225 15.4875 33.288 15.33 33.141 15.24C33.183 15.24 33.267 15.285 33.309 15.3525C33.288 15.195 33.267 15.105 33.141 15.015H33.246C33.2186 14.9955 33.1964 14.9686 33.1816 14.937C33.1669 14.9054 33.1601 14.8703 33.162 14.835C33.162 14.745 33.12 14.745 33.036 14.7675L32.658 14.79C32.448 14.79 32.238 14.79 32.07 14.655C32.343 14.79 32.7 14.52 32.7 14.3175C32.7 14.0925 32.406 13.8675 31.86 14.0025C31.314 14.1375 30.642 14.0925 30.642 13.89C30.642 13.6875 31.125 13.665 31.377 13.71C31.629 13.755 31.797 13.7775 32.259 13.5975C32.154 13.6425 31.776 13.665 31.482 13.575C31.188 13.485 30.474 13.485 30.474 13.89C30.474 14.3175 31.23 14.2725 31.902 14.16C32.28 14.115 32.49 14.16 32.49 14.2725C32.49 14.4075 32.133 14.4525 31.86 14.43C31.5717 14.3884 31.2785 14.4114 30.999 14.4975C30.726 14.5875 30.537 14.4975 30.243 14.565C30.096 14.565 29.739 14.565 29.571 14.25C29.466 14.34 29.151 14.4975 29.088 14.6775C29.025 14.8125 29.088 14.97 29.172 15.1275C29.298 15.3075 29.109 15.285 28.962 15.285C28.794 15.285 28.542 15.285 28.416 15.105C28.29 14.97 28.143 14.8575 28.017 14.9475C27.954 15.015 28.017 15.0825 28.059 15.06L28.227 15.105C28.1933 15.0886 28.156 15.082 28.1192 15.086C28.0823 15.0899 28.047 15.1043 28.017 15.1275C27.954 15.1725 28.017 15.2625 28.08 15.24C28.122 15.2175 28.227 15.195 28.29 15.24C28.227 15.24 28.143 15.24 28.122 15.285C28.101 15.33 28.122 15.375 28.185 15.375C28.311 15.375 28.332 15.465 28.458 15.4425C28.4286 15.4443 28.4001 15.4533 28.3746 15.4689C28.349 15.4845 28.3273 15.5063 28.311 15.5325C28.437 15.465 28.542 15.6225 28.689 15.5775C28.647 15.6 28.542 15.6675 28.542 15.7125C28.626 15.6 29.214 15.8025 29.214 15.555L29.193 15.735C29.256 15.69 29.487 15.6675 29.571 15.51C29.571 15.555 29.571 15.6225 29.529 15.645C29.592 15.645 29.697 15.6 29.802 15.4425C29.844 15.375 29.844 15.33 29.844 15.285C29.949 15.285 30.012 15.2625 30.096 15.195C30.18 15.1275 30.264 15.2625 30.411 15.15C30.537 15.06 30.663 15.15 30.747 15.105C30.81 15.06 30.915 15.105 30.999 15.06C31.083 15.015 31.209 15.0825 31.335 14.97C31.545 15.06 31.818 15.195 32.427 15.0825C32.763 15.015 32.889 15.15 32.889 15.3075C32.889 15.4425 32.805 15.4425 32.763 15.4425C32.553 15.465 32.49 15.375 32.406 15.3975C32.364 15.42 32.322 15.51 32.406 15.555C32.343 15.5775 32.343 15.645 32.385 15.6675C32.427 15.69 32.49 15.6675 32.553 15.645C32.469 15.6675 32.406 15.735 32.448 15.8025C32.469 15.8475 32.532 15.87 32.595 15.8025C32.658 15.7125 32.763 15.645 32.847 15.645V15.645ZM28.941 13.845C28.773 13.7775 28.731 13.7775 28.752 13.935C28.752 14.0025 28.815 14.0925 28.857 14.1375C28.857 14.07 28.878 13.9125 28.941 13.8675V13.845Z" fill="#F9DD16"/>
<path fill-rule="evenodd" clip-rule="evenodd" d="M30.8658 13.5362C31.0828 13.4965 31.3365 13.5191 31.4852 13.5647C31.6308 13.6092 31.7977 13.6261 31.9414 13.6261C32.0132 13.6261 32.079 13.6219 32.1332 13.6149C32.1805 13.6088 32.2184 13.6007 32.2438 13.5918C32.2475 13.5903 32.2513 13.5889 32.255 13.5874L32.2633 13.6075C32.2596 13.6091 32.2557 13.6106 32.2514 13.6121C32.0262 13.6992 31.8706 13.7378 31.7402 13.749C31.6074 13.7604 31.5012 13.7433 31.3751 13.7207C31.2502 13.6984 31.0677 13.6929 30.9168 13.718C30.8412 13.7305 30.7746 13.7506 30.727 13.7795C30.6797 13.8082 30.6529 13.8446 30.6529 13.89C30.6529 13.9336 30.689 13.9718 30.7598 14.002C30.8298 14.032 30.9295 14.0522 31.0471 14.062C31.2822 14.0816 31.5855 14.0592 31.8574 13.992C32.1321 13.9241 32.3448 13.9464 32.4894 14.0152C32.634 14.0841 32.7109 14.1999 32.7109 14.3175C32.7109 14.3712 32.6873 14.4283 32.6487 14.4811C32.6101 14.534 32.5558 14.5835 32.4931 14.6221C32.3911 14.6849 32.265 14.72 32.1455 14.6932C32.2968 14.7788 32.4754 14.7792 32.6577 14.7792L33.0342 14.7568C33.0549 14.7512 33.0736 14.747 33.0899 14.7451C33.1064 14.7433 33.1216 14.7438 33.1345 14.749C33.1623 14.7602 33.1729 14.7894 33.1729 14.835V14.8356C33.1711 14.8691 33.1775 14.9025 33.1915 14.9324C33.2055 14.9624 33.2265 14.9878 33.2523 15.0062L33.28 15.0259H33.1733C33.2222 15.0656 33.2533 15.1065 33.2743 15.1541C33.2986 15.2091 33.3093 15.2724 33.3198 15.3511L33.2998 15.3583C33.2798 15.3263 33.2497 15.2992 33.2192 15.2802C33.2093 15.274 33.1995 15.2688 33.1902 15.2645C33.2332 15.3067 33.2488 15.3568 33.2592 15.4036C33.2613 15.413 33.2631 15.422 33.2649 15.4308C33.269 15.4507 33.2728 15.4693 33.2783 15.4867C33.2862 15.5113 33.2971 15.5315 33.3158 15.5466L33.3058 15.5654L33.1823 15.5276C33.208 15.6026 33.1566 15.7035 33.0396 15.7453L33.0251 15.7505V15.642C33.0046 15.6732 32.9775 15.7006 32.9418 15.7219C32.8925 15.7512 32.8274 15.7684 32.742 15.7684V15.7467C32.7405 15.7467 32.7397 15.7472 32.7394 15.7474C32.7396 15.7473 32.7398 15.747 32.7402 15.7464C32.7416 15.7445 32.7433 15.7411 32.7454 15.7359C32.7466 15.7329 32.7479 15.7292 32.7494 15.7252C32.7526 15.7167 32.7565 15.7064 32.761 15.6967C32.7651 15.6879 32.7702 15.6787 32.7765 15.6702C32.7574 15.6774 32.738 15.6872 32.7189 15.6992C32.6755 15.7266 32.6345 15.765 32.6039 15.8088L32.6035 15.8094L32.6029 15.81C32.5698 15.8455 32.5351 15.8588 32.5046 15.8555C32.4744 15.8523 32.4504 15.833 32.4384 15.8077C32.427 15.7892 32.4225 15.7702 32.424 15.7517C32.4255 15.7332 32.4331 15.7158 32.4445 15.7004C32.4486 15.695 32.4532 15.6897 32.4582 15.6848C32.4302 15.6896 32.4028 15.6894 32.3799 15.6771C32.3547 15.6636 32.3422 15.6367 32.3453 15.61C32.3479 15.5883 32.3605 15.5675 32.3836 15.5536C32.3703 15.5435 32.3609 15.5319 32.3548 15.5193C32.3465 15.5018 32.3451 15.4833 32.348 15.466C32.3538 15.4321 32.3767 15.4009 32.4009 15.388L32.402 15.3874L32.4032 15.387C32.4265 15.3808 32.4481 15.3825 32.4702 15.3877C32.4854 15.3912 32.5014 15.3966 32.5185 15.4024C32.5257 15.4048 32.533 15.4073 32.5406 15.4097C32.5921 15.4263 32.6588 15.4428 32.7618 15.4317L32.763 15.4316C32.7844 15.4316 32.8127 15.4314 32.8359 15.4165C32.858 15.4023 32.8781 15.3727 32.8781 15.3075C32.8781 15.2318 32.848 15.1626 32.7783 15.1199C32.7081 15.077 32.5958 15.0597 32.4291 15.0932L32.429 15.0932C32.1234 15.1497 31.9015 15.1441 31.7294 15.1129C31.5723 15.0844 31.457 15.0346 31.3584 14.992C31.3512 14.9888 31.344 14.9858 31.337 14.9827C31.2732 15.0373 31.2093 15.0484 31.1518 15.0512C31.1384 15.0519 31.1253 15.0521 31.1128 15.0523L31.1092 15.0523C31.0955 15.0525 31.0824 15.0528 31.07 15.0537C31.045 15.0554 31.0231 15.0594 31.0041 15.0696C30.9597 15.0934 30.9101 15.0934 30.8662 15.0934H30.8651C30.8195 15.0934 30.7814 15.0938 30.7533 15.1139L30.7527 15.1143L30.7521 15.1146C30.7287 15.1272 30.7029 15.13 30.6765 15.1293C30.6586 15.1288 30.6395 15.1266 30.6203 15.1244C30.6114 15.1234 30.6025 15.1223 30.5937 15.1215C30.5368 15.1159 30.4771 15.1162 30.4174 15.1588C30.3794 15.1878 30.345 15.2013 30.3131 15.2058C30.2813 15.2103 30.2529 15.2058 30.2275 15.2C30.2205 15.1984 30.2138 15.1968 30.2074 15.1952C30.19 15.191 30.1745 15.1872 30.1593 15.1862C30.1395 15.1849 30.1213 15.1886 30.1028 15.2035C30.0602 15.2377 30.0224 15.261 29.9815 15.2756C29.9434 15.2892 29.9032 15.2951 29.8548 15.2958C29.8547 15.315 29.854 15.3352 29.8494 15.3576C29.8438 15.3842 29.8328 15.4136 29.8112 15.4483L29.811 15.4486C29.7049 15.6078 29.597 15.6559 29.529 15.6559L29.5239 15.6355C29.5406 15.6265 29.5501 15.608 29.5551 15.5838C29.5575 15.5724 29.5587 15.5604 29.5594 15.5486C29.5132 15.6104 29.4439 15.6481 29.3782 15.6748C29.3474 15.6873 29.317 15.6976 29.2899 15.7067C29.2832 15.709 29.2766 15.7112 29.2703 15.7133C29.2381 15.7244 29.2135 15.7337 29.1993 15.7439L29.1794 15.7581L29.1932 15.6392C29.1755 15.6575 29.1515 15.6701 29.124 15.6786C29.0656 15.6968 28.9878 15.6981 28.9091 15.6953C28.8795 15.6942 28.8498 15.6926 28.8207 15.691C28.7717 15.6883 28.7244 15.6857 28.6825 15.6861C28.6494 15.6865 28.6204 15.6888 28.5975 15.6942C28.5743 15.6997 28.5589 15.708 28.5507 15.719L28.5311 15.7453V15.7125C28.5311 15.6974 28.5397 15.6823 28.5506 15.6688C28.5618 15.6549 28.5769 15.641 28.5929 15.6281C28.607 15.6168 28.6221 15.6061 28.6364 15.5966C28.5843 15.5972 28.5374 15.5774 28.4942 15.5593C28.4921 15.5584 28.49 15.5575 28.4879 15.5566C28.427 15.5311 28.374 15.5111 28.3161 15.5421L28.2803 15.5613L28.3018 15.5268C28.3189 15.4992 28.3419 15.4762 28.3689 15.4597C28.3728 15.4572 28.3768 15.455 28.3809 15.4529C28.3797 15.4526 28.3785 15.4523 28.3773 15.4521C28.3543 15.4464 28.3349 15.4367 28.3164 15.4268C28.3138 15.4254 28.3112 15.424 28.3086 15.4226C28.2744 15.4042 28.2407 15.3859 28.185 15.3859C28.1509 15.3859 28.1258 15.3736 28.1128 15.3527C28.0998 15.3319 28.1005 15.3053 28.1121 15.2804C28.1251 15.2527 28.1564 15.2407 28.1883 15.235C28.2049 15.232 28.2227 15.2306 28.2403 15.2299C28.2205 15.2251 28.1991 15.2241 28.1779 15.2256C28.1398 15.2283 28.1046 15.2392 28.0851 15.2496L28.0844 15.25L28.0836 15.2503C28.0461 15.2637 28.0097 15.2433 27.992 15.2148C27.983 15.2004 27.9783 15.1831 27.9806 15.1658C27.983 15.1483 27.9926 15.1317 28.0105 15.1188C28.0347 15.1001 28.0621 15.0869 28.091 15.0799L28.06 15.0716C28.0333 15.083 28.0035 15.0676 27.9892 15.043C27.9734 15.0158 27.9747 14.9769 28.009 14.9401L28.0098 14.9393L28.0107 14.9387C28.078 14.8906 28.1508 14.8973 28.2213 14.9322C28.2914 14.9668 28.3607 15.0299 28.4239 15.0976L28.4245 15.0982L28.4249 15.0988C28.4858 15.1858 28.5774 15.2298 28.6756 15.2519C28.774 15.2741 28.8778 15.2742 28.962 15.2742C28.977 15.2742 28.9922 15.2744 29.0073 15.2746C29.03 15.275 29.0525 15.2753 29.0743 15.2749C29.1106 15.2742 29.1427 15.2714 29.1659 15.2635C29.1888 15.2557 29.2005 15.2442 29.2022 15.227C29.2041 15.208 29.1944 15.1785 29.1631 15.1338L29.1623 15.1327C29.1202 15.0538 29.083 14.974 29.0643 14.8967C29.0456 14.8194 29.0453 14.7437 29.0779 14.6734C29.0944 14.6266 29.127 14.5818 29.1675 14.5399C29.2081 14.4978 29.2572 14.458 29.3073 14.4213C29.3523 14.3883 29.3983 14.3576 29.4399 14.3299C29.4447 14.3267 29.4494 14.3236 29.4541 14.3205C29.4995 14.2901 29.5383 14.2638 29.5639 14.2418L29.5742 14.233L29.5806 14.2449C29.7447 14.5527 30.0932 14.5542 30.2418 14.5542C30.3802 14.5226 30.4956 14.5255 30.6062 14.5283C30.6139 14.5285 30.6215 14.5287 30.6291 14.5289C30.7471 14.5317 30.861 14.5316 30.9956 14.4872L30.9958 14.4872C31.2768 14.4006 31.5715 14.3774 31.8612 14.4192C31.9969 14.4304 32.1531 14.4248 32.2752 14.3997C32.3363 14.3872 32.3881 14.3699 32.4243 14.348C32.4606 14.326 32.4791 14.3007 32.4791 14.2725C32.4791 14.2484 32.4681 14.2275 32.4447 14.2099C32.421 14.1919 32.3847 14.1776 32.3356 14.1679C32.2376 14.1485 32.092 14.1484 31.9035 14.1708C31.5675 14.2271 31.2094 14.2666 30.9349 14.2384C30.7977 14.2242 30.6801 14.193 30.5966 14.1375C30.5124 14.0814 30.4631 14.0008 30.4631 13.89C30.4631 13.785 30.5096 13.7061 30.5835 13.6487C30.6569 13.5917 30.7573 13.5561 30.8658 13.5362ZM28.1515 15.0961L28.2242 15.1155L28.2318 15.0953C28.2075 15.0835 28.1815 15.0765 28.1551 15.0745L28.0577 15.0484L28.0539 15.0505C28.0396 15.0581 28.0192 15.0513 28.008 15.0321C27.9977 15.0144 27.9963 14.9862 28.0242 14.9558C28.0827 14.9145 28.1461 14.9192 28.2117 14.9517C28.2779 14.9844 28.3449 15.0448 28.4075 15.1119C28.4726 15.2045 28.5698 15.2504 28.6708 15.2731C28.7718 15.2959 28.8778 15.2959 28.9615 15.2959H28.962C28.9763 15.2959 28.9912 15.2961 29.0063 15.2964C29.0293 15.2967 29.0527 15.297 29.0747 15.2966C29.1113 15.2959 29.1462 15.2931 29.1728 15.2841C29.1998 15.275 29.2209 15.2584 29.2238 15.2292C29.2265 15.2019 29.2127 15.1669 29.1813 15.1219C29.1395 15.0435 29.1034 14.9659 29.0854 14.8916C29.0674 14.8171 29.0677 14.7467 29.0978 14.6821L29.0983 14.6811C29.1133 14.6382 29.1436 14.5959 29.1831 14.555C29.2225 14.5142 29.2705 14.4752 29.3202 14.4388C29.3647 14.4062 29.4103 14.3758 29.452 14.348C29.4568 14.3448 29.4615 14.3416 29.4661 14.3385C29.5058 14.312 29.5415 14.2879 29.5678 14.2668C29.7413 14.5759 30.0972 14.5759 30.2421 14.5759H30.2442L30.2454 14.5756C30.3816 14.5444 30.4949 14.5472 30.606 14.55C30.6135 14.5502 30.6211 14.5504 30.6286 14.5506C30.7469 14.5534 30.864 14.5535 31.0023 14.5079C31.2803 14.4223 31.5718 14.3994 31.8584 14.4408L31.8591 14.4409C31.9964 14.4522 32.1549 14.4466 32.2796 14.421C32.3418 14.4082 32.3963 14.3903 32.4356 14.3666C32.4747 14.3429 32.5009 14.3118 32.5009 14.2725C32.5009 14.2404 32.4856 14.2135 32.4578 14.1925C32.4304 14.1718 32.3905 14.1566 32.3398 14.1466C32.2384 14.1266 32.0901 14.1267 31.9007 14.1493L31.9002 14.1493C31.5643 14.2056 31.2086 14.2447 30.9371 14.2167C30.8013 14.2027 30.6879 14.1721 30.6086 14.1194C30.5301 14.0671 30.4849 13.993 30.4849 13.89C30.4849 13.7925 30.5276 13.7196 30.5968 13.6659C30.6664 13.6118 30.763 13.5771 30.8697 13.5576C31.0832 13.5186 31.3335 13.5409 31.4788 13.5854C31.6271 13.6308 31.7963 13.6478 31.9414 13.6478C32.0049 13.6478 32.0641 13.6445 32.1149 13.639C31.9579 13.6928 31.8399 13.7186 31.7383 13.7273C31.6086 13.7385 31.5048 13.7218 31.3789 13.6993C31.2518 13.6766 31.0668 13.671 30.9132 13.6965C30.8365 13.7093 30.7667 13.73 30.7158 13.7609C30.6647 13.7919 30.6311 13.8342 30.6311 13.89C30.6311 13.9477 30.679 13.9911 30.7512 14.022C30.8243 14.0533 30.9267 14.0738 31.0453 14.0837C31.2828 14.1035 31.5885 14.0809 31.8626 14.0131C32.1339 13.946 32.3412 13.9687 32.4801 14.0349C32.6189 14.101 32.6891 14.2102 32.6891 14.3175C32.6891 14.3651 32.6681 14.4177 32.6312 14.4683C32.5943 14.5187 32.5423 14.5663 32.4817 14.6036C32.3602 14.6784 32.2068 14.7106 32.0748 14.6453L32.0632 14.6635C32.2342 14.8009 32.4476 14.8009 32.6562 14.8009H32.658L33.0377 14.7783L33.0388 14.778C33.0597 14.7724 33.0774 14.7684 33.0923 14.7667C33.1073 14.7651 33.1184 14.7659 33.1264 14.7692C33.1406 14.7749 33.1511 14.7906 33.1511 14.8348C33.1492 14.8717 33.1563 14.9085 33.1718 14.9416C33.1828 14.9653 33.1979 14.9865 33.2161 15.0042H33.1071L33.1347 15.0239C33.1964 15.0679 33.2317 15.1115 33.2544 15.1629C33.2732 15.2053 33.2835 15.2536 33.2925 15.3129C33.2739 15.2925 33.2523 15.2752 33.2308 15.2618C33.1985 15.2416 33.165 15.2292 33.141 15.2292H33.1024L33.1353 15.2493C33.2051 15.292 33.2251 15.3503 33.238 15.4083C33.2399 15.4168 33.2416 15.4253 33.2434 15.4338C33.2475 15.4543 33.2517 15.4748 33.2576 15.4933C33.2621 15.5075 33.2678 15.521 33.2756 15.5335L33.1374 15.4912L33.1528 15.5158C33.1881 15.5726 33.1574 15.6725 33.0469 15.7192V15.6L33.0261 15.5954C33.0059 15.6388 32.9758 15.6764 32.9307 15.7032C32.8897 15.7276 32.8358 15.7435 32.7646 15.7462C32.7649 15.7455 32.7652 15.7448 32.7655 15.744C32.7671 15.74 32.7687 15.7359 32.7703 15.7316C32.7733 15.7235 32.7765 15.7149 32.7807 15.7059C32.7933 15.679 32.8115 15.6559 32.847 15.6559V15.6342C32.8023 15.6342 32.753 15.6521 32.7073 15.6809C32.6617 15.7096 32.6188 15.7497 32.5865 15.7957C32.5569 15.8272 32.5287 15.8363 32.5069 15.8339C32.4848 15.8316 32.4669 15.8174 32.4578 15.7979L32.4572 15.7968C32.4479 15.7817 32.4446 15.7672 32.4457 15.7535C32.4468 15.7397 32.4524 15.7262 32.462 15.7134C32.4759 15.6948 32.4978 15.6784 32.5242 15.6667C32.5349 15.6631 32.5456 15.6592 32.5562 15.6555L32.5566 15.6553L32.5502 15.6345C32.5385 15.6377 32.5271 15.6417 32.5163 15.6464C32.4964 15.6531 32.4771 15.659 32.459 15.6625C32.431 15.668 32.4078 15.6674 32.3901 15.658C32.3733 15.649 32.3648 15.6309 32.3669 15.6126C32.369 15.5945 32.3817 15.5753 32.4096 15.5653L32.4327 15.557L32.4111 15.5455C32.3918 15.5351 32.3805 15.5227 32.3745 15.5099C32.3684 15.4972 32.3671 15.4833 32.3695 15.4697C32.3741 15.4423 32.3926 15.4177 32.4101 15.4077C32.4283 15.4031 32.4457 15.4043 32.4652 15.4088C32.4794 15.4121 32.4939 15.417 32.5105 15.4226C32.5178 15.4251 32.5256 15.4277 32.5339 15.4304C32.5873 15.4476 32.657 15.4647 32.7636 15.4534H32.7638C32.7845 15.4534 32.8187 15.4534 32.8476 15.4348C32.878 15.4153 32.8999 15.3774 32.8999 15.3075C32.8999 15.2257 32.867 15.1487 32.7897 15.1014C32.7129 15.0544 32.5942 15.0379 32.4249 15.0719C32.1216 15.1279 31.9024 15.1222 31.7333 15.0915C31.5787 15.0635 31.4655 15.0146 31.3669 14.972C31.3576 14.9679 31.3484 14.964 31.3393 14.9601L31.3329 14.9573L31.3278 14.9619C31.2673 15.0159 31.2071 15.0268 31.1507 15.0295C31.1377 15.0301 31.125 15.0303 31.1124 15.0305L31.1088 15.0306C31.0951 15.0308 31.0816 15.0311 31.0685 15.032C31.0423 15.0338 31.0168 15.0381 30.9939 15.0505C30.9547 15.0715 30.9102 15.0717 30.8651 15.0717L30.8631 15.0717C30.8203 15.0717 30.7756 15.0717 30.7413 15.0958C30.7228 15.1055 30.7015 15.1082 30.6771 15.1075C30.6602 15.1071 30.6427 15.1051 30.624 15.1029C30.6149 15.1019 30.6055 15.1008 30.5958 15.0999C30.5372 15.0941 30.4709 15.0939 30.4047 15.1412L30.4044 15.1414C30.3689 15.1685 30.3379 15.1804 30.31 15.1843C30.2821 15.1882 30.2567 15.1843 30.2323 15.1788C30.2263 15.1775 30.2203 15.176 30.2142 15.1745C30.1962 15.1701 30.178 15.1656 30.1607 15.1645C30.1365 15.163 30.1127 15.1677 30.0892 15.1866C30.0478 15.2199 30.0121 15.2416 29.9742 15.2551C29.9364 15.2686 29.8957 15.2742 29.844 15.2742H29.8331V15.285C29.8331 15.3076 29.8331 15.3291 29.8281 15.3532C29.8231 15.3771 29.8132 15.404 29.7929 15.4367C29.7056 15.5675 29.6196 15.6179 29.5599 15.6307C29.5683 15.6181 29.5733 15.6031 29.5764 15.5882C29.5819 15.5618 29.5819 15.5327 29.5819 15.5105V15.51L29.5614 15.5049C29.5213 15.5802 29.4455 15.624 29.37 15.6547C29.3399 15.6669 29.3103 15.6769 29.2833 15.686C29.2764 15.6883 29.2698 15.6906 29.2633 15.6928C29.2419 15.7001 29.2222 15.7072 29.2063 15.7149L29.221 15.5886C29.2236 15.5783 29.2249 15.5671 29.2249 15.555L29.2032 15.5538L29.1996 15.5847C29.1958 15.5991 29.1893 15.6111 29.1804 15.6211C29.1659 15.6374 29.1447 15.6494 29.1176 15.6579C29.0631 15.6748 28.9887 15.6764 28.9099 15.6736C28.8813 15.6725 28.852 15.6709 28.8231 15.6693C28.7734 15.6666 28.7248 15.664 28.6823 15.6644C28.6486 15.6648 28.6178 15.6671 28.5925 15.6731C28.5843 15.675 28.5765 15.6773 28.5693 15.6802C28.579 15.6688 28.592 15.6567 28.6065 15.6451C28.6374 15.6203 28.6736 15.5981 28.6941 15.5871L28.6858 15.5672C28.6183 15.5878 28.5603 15.5634 28.5008 15.5384C28.4993 15.5378 28.4978 15.5372 28.4963 15.5366C28.4475 15.5161 28.3969 15.4957 28.3429 15.5087C28.354 15.4968 28.3666 15.4866 28.3802 15.4782C28.3975 15.4677 28.4161 15.4603 28.4354 15.4564C28.4432 15.4558 28.4513 15.4548 28.4599 15.4532L28.4574 15.4317C28.449 15.4322 28.4407 15.4332 28.4325 15.4348C28.4133 15.4362 28.397 15.4345 28.3825 15.4309C28.3622 15.426 28.3449 15.4174 28.3266 15.4077C28.324 15.4062 28.3214 15.4048 28.3187 15.4034C28.2843 15.3848 28.2463 15.3642 28.185 15.3642C28.156 15.3642 28.1392 15.354 28.1312 15.3412C28.1232 15.3282 28.1225 15.3098 28.1318 15.2896C28.1399 15.2724 28.1611 15.2619 28.1922 15.2564C28.2225 15.2509 28.2583 15.2509 28.29 15.2509H28.3239L28.2963 15.2312C28.2619 15.2066 28.2169 15.201 28.1763 15.2039C28.1361 15.2068 28.0983 15.2181 28.0756 15.2301C28.0504 15.2387 28.0241 15.2253 28.0105 15.2034C28.0037 15.1925 28.0006 15.1802 28.0022 15.1687C28.0037 15.1575 28.0098 15.146 28.0233 15.1364L28.0236 15.1361C28.0521 15.1141 28.0855 15.1005 28.1203 15.0968C28.1307 15.0957 28.1412 15.0954 28.1515 15.0961ZM32.7393 15.7475C32.7394 15.7475 32.7394 15.7475 32.7394 15.7474ZM28.8403 13.798C28.8683 13.8052 28.903 13.8181 28.945 13.835L28.9519 13.8377V13.8731L28.9473 13.8764C28.9336 13.8862 28.9215 13.9026 28.9111 13.924C28.9007 13.9452 28.8924 13.9704 28.8859 13.9967C28.873 14.0493 28.8679 14.1046 28.8679 14.1375V14.1651L28.849 14.145C28.8275 14.1219 28.8008 14.0875 28.7793 14.0501C28.7582 14.0133 28.7413 13.9722 28.7411 13.9358C28.7359 13.8966 28.7344 13.8659 28.7383 13.8432C28.7423 13.82 28.7524 13.8031 28.7717 13.7955C28.7895 13.7886 28.8128 13.7909 28.8403 13.798ZM28.7598 13.8469C28.7564 13.8662 28.7575 13.8944 28.7628 13.9336L28.7629 13.9343V13.935C28.7629 13.9659 28.7774 14.0032 28.7982 14.0393C28.8131 14.0653 28.8307 14.0898 28.847 14.1097C28.8491 14.0762 28.8546 14.033 28.8648 13.9915C28.8715 13.9643 28.8802 13.9375 28.8915 13.9145C28.9018 13.8935 28.9144 13.8749 28.9301 13.8622V13.8524C28.8913 13.8369 28.86 13.8255 28.8349 13.819C28.808 13.8121 28.7906 13.8115 28.7796 13.8158C28.77 13.8195 28.763 13.8279 28.7598 13.8469Z" fill="black"/>
<path d="M29.508 13.8676C29.676 13.7776 29.739 13.7776 29.697 13.9351C29.697 14.0026 29.634 14.0926 29.592 14.1376C29.592 14.0701 29.592 13.9126 29.508 13.8676Z" fill="#F9DD16"/>
<path fill-rule="evenodd" clip-rule="evenodd" d="M29.5293 13.8686C29.565 13.8966 29.5829 13.9447 29.5922 13.992C29.6002 14.0332 29.6022 14.0758 29.6027 14.1087C29.6189 14.089 29.6362 14.0649 29.6508 14.0393C29.6715 14.0033 29.6861 13.9659 29.6861 13.9351V13.9337L29.6865 13.9323C29.6969 13.8932 29.7004 13.8654 29.698 13.8468C29.6969 13.8377 29.6944 13.8315 29.6913 13.8273C29.6883 13.8233 29.6842 13.8206 29.6784 13.819C29.6661 13.8157 29.6465 13.8182 29.6179 13.8283C29.5935 13.8369 29.5641 13.8505 29.5293 13.8686ZM29.7079 13.9365C29.7182 13.8975 29.7225 13.8667 29.7196 13.8441C29.7181 13.8325 29.7147 13.8223 29.7086 13.8142C29.7025 13.806 29.6941 13.8007 29.6841 13.798C29.6649 13.7929 29.6399 13.7975 29.6107 13.8078C29.581 13.8182 29.545 13.8354 29.5029 13.858L29.485 13.8676L29.5029 13.8772C29.5403 13.8972 29.5604 13.9433 29.5708 13.9962C29.5811 14.0485 29.5811 14.1037 29.5811 14.1376V14.1651L29.5999 14.145C29.6215 14.1219 29.6482 14.0875 29.6697 14.0502C29.6907 14.0136 29.7074 13.9728 29.7079 13.9365Z" fill="black"/>
<path d="M29.235 13.755C29.571 13.755 29.613 13.935 29.592 14.1375C29.592 14.3625 29.487 14.2725 29.424 14.5875C29.403 14.6775 29.319 14.7 29.214 14.7C29.151 14.7 29.067 14.7 29.025 14.565C28.962 14.2725 28.857 14.34 28.857 14.115C28.857 13.935 28.899 13.755 29.235 13.755V13.755Z" fill="#F9DD16"/>
<path fill-rule="evenodd" clip-rule="evenodd" d="M28.9286 13.8742C28.8785 13.9386 28.8679 14.0254 28.8679 14.115C28.8679 14.1704 28.8743 14.2071 28.8846 14.2354C28.8949 14.2638 28.9092 14.2845 28.9262 14.3084C28.9271 14.3096 28.9279 14.3107 28.9288 14.3119C28.9452 14.3349 28.9637 14.3609 28.9819 14.3982C29.001 14.4373 29.0196 14.4887 29.0355 14.5622C29.0559 14.6273 29.0857 14.6582 29.1164 14.6734C29.148 14.689 29.1822 14.6891 29.214 14.6891C29.266 14.6891 29.3114 14.6835 29.346 14.6676C29.3799 14.6521 29.4037 14.6266 29.4134 14.5852C29.4293 14.5059 29.4479 14.4516 29.467 14.4113C29.4862 14.3709 29.5058 14.3448 29.523 14.3222L29.5234 14.3216C29.5404 14.2992 29.5544 14.2808 29.5645 14.2545C29.5747 14.2281 29.5811 14.193 29.5811 14.1375V14.1364L29.5812 14.1364C29.5916 14.0356 29.586 13.9435 29.5385 13.8766C29.4915 13.8104 29.4013 13.7659 29.235 13.7659C29.0688 13.7659 28.9782 13.8103 28.9286 13.8742ZM28.9114 13.8608C28.9668 13.7897 29.0652 13.7441 29.235 13.7441C29.4047 13.7441 29.5035 13.7896 29.5562 13.864C29.6084 13.9376 29.6133 14.0365 29.6029 14.1381C29.6028 14.1948 29.5962 14.2327 29.5848 14.2624C29.5735 14.2915 29.5579 14.3121 29.5413 14.3339L29.5403 14.3353C29.5233 14.3577 29.5048 14.3823 29.4866 14.4206C29.4684 14.459 29.4503 14.5116 29.4347 14.5896L29.4346 14.59L29.4346 14.59C29.4233 14.6385 29.3946 14.6692 29.355 14.6874C29.3161 14.7052 29.267 14.7109 29.214 14.7109H29.2132C29.1821 14.7109 29.1432 14.7109 29.1068 14.6929C29.0694 14.6744 29.0363 14.6379 29.0146 14.5682L29.0143 14.5673L29.0144 14.5673C28.9988 14.4949 28.9807 14.4451 28.9624 14.4077C28.945 14.3721 28.9274 14.3474 28.9109 14.3244C28.9101 14.3233 28.9093 14.3221 28.9085 14.321C28.8914 14.2971 28.8756 14.2742 28.8642 14.2428C28.8528 14.2114 28.8461 14.1721 28.8461 14.115C28.8461 14.0247 28.8565 13.9314 28.9114 13.8608Z" fill="black"/>
<path d="M28.374 14.5876C28.29 14.5426 28.227 14.5876 28.185 14.5876C28.311 14.6101 28.311 14.7676 28.563 14.8126C28.5 14.8126 28.479 14.8576 28.416 14.8126C28.521 14.9026 28.626 15.0151 28.878 15.0151C29.025 15.0151 28.92 15.0826 28.836 15.0376C28.92 15.1501 29.109 15.0601 29.235 15.2626C29.235 15.1051 29.025 14.8801 29.13 14.7226C28.773 14.7001 28.752 14.4976 28.563 14.3401C28.395 14.2051 28.374 14.0701 28.311 13.8226C28.29 13.7101 28.164 13.6426 28.101 13.6651C28.038 13.6651 27.996 13.7326 28.059 13.7776C28.101 13.8226 28.185 13.8226 28.185 13.9351C28.122 13.8451 28.017 13.8226 27.975 13.8676C27.954 13.9126 27.975 13.9801 28.017 13.9801C28.122 13.9801 28.059 14.1151 28.164 14.2051C28.059 14.0926 27.975 14.0701 27.912 14.1376C27.891 14.1826 27.912 14.2501 27.996 14.2501C28.101 14.2501 28.206 14.5201 28.374 14.5876V14.5876ZM31.104 15.6226C31.062 15.6226 31.083 15.7351 30.999 15.7351C31.167 15.7351 31.272 15.6901 31.335 15.6226L31.293 15.7351C31.377 15.6676 31.608 15.6451 31.713 15.6676C31.818 15.6901 31.839 15.6451 31.881 15.5776C31.923 15.4876 31.881 15.4426 31.818 15.3976C31.755 15.3301 31.734 15.2401 31.755 15.1051C31.461 14.6551 30.915 14.8801 30.915 15.0601C31.104 15.3076 31.125 15.2851 31.293 15.3076C31.44 15.3526 31.545 15.3526 31.44 15.4426C31.398 15.4876 31.23 15.4426 31.125 15.4651C30.852 15.4651 30.705 15.2626 30.642 15.3751C30.579 15.4651 30.642 15.5101 30.768 15.5101C30.684 15.5101 30.558 15.5101 30.579 15.6001C30.621 15.7576 30.747 15.5776 30.81 15.6226C30.768 15.6226 30.684 15.6451 30.684 15.6901C30.684 15.7351 30.789 15.8026 30.894 15.6901C30.955 15.6431 31.0289 15.6193 31.104 15.6226V15.6226Z" fill="#F9DD16"/>
<path fill-rule="evenodd" clip-rule="evenodd" d="M28.3216 13.8202C28.327 13.8414 28.3321 13.8617 28.337 13.8812C28.3893 14.0908 28.4193 14.2106 28.5698 14.3316L28.57 14.3317C28.618 14.3718 28.6553 14.4146 28.6895 14.4562C28.6961 14.4643 28.7026 14.4723 28.7091 14.4802C28.736 14.5133 28.7619 14.5451 28.7912 14.5743C28.8628 14.6455 28.9548 14.7006 29.1307 14.7117L29.1495 14.7129L29.139 14.7286C29.09 14.8021 29.1136 14.8925 29.1532 14.9884C29.162 15.0099 29.1715 15.0313 29.181 15.0527C29.182 15.055 29.183 15.0573 29.184 15.0596C29.1945 15.0833 29.2048 15.1068 29.2139 15.1299C29.2321 15.1759 29.2459 15.2211 29.2459 15.2626V15.3006L29.2258 15.2683C29.1649 15.1705 29.0894 15.1435 29.0173 15.1269C29.0066 15.1245 28.9957 15.1222 28.9849 15.1199C28.9598 15.1147 28.9351 15.1096 28.9126 15.102C28.8798 15.0911 28.85 15.0746 28.8273 15.0441L28.8411 15.028C28.8603 15.0383 28.8808 15.0422 28.8987 15.0422C28.9168 15.0422 28.931 15.0382 28.9379 15.0339C28.9381 15.0338 28.9383 15.0337 28.9385 15.0336C28.9351 15.032 28.9293 15.0301 28.9201 15.0286C28.9098 15.027 28.896 15.026 28.878 15.026C28.7502 15.026 28.6591 14.9974 28.5866 14.9571C28.5267 14.9238 28.4796 14.8825 28.4356 14.844C28.4266 14.8361 28.4177 14.8284 28.4089 14.8208L28.4223 14.8037C28.4371 14.8143 28.4488 14.8191 28.4586 14.8209C28.4683 14.8226 28.4771 14.8215 28.4867 14.819C28.4914 14.8177 28.4965 14.816 28.5021 14.8141C28.5044 14.8133 28.5068 14.8124 28.5092 14.8116C28.414 14.7854 28.3605 14.7412 28.319 14.6993C28.3105 14.6906 28.3026 14.6823 28.2951 14.6743C28.2812 14.6595 28.2685 14.646 28.2547 14.6341C28.2341 14.6164 28.2122 14.6035 28.1831 14.5983L28.185 14.5767C28.1939 14.5767 28.2044 14.5743 28.2176 14.5708C28.2197 14.5702 28.2218 14.5696 28.224 14.569C28.2354 14.5659 28.2481 14.5625 28.2618 14.56C28.2737 14.5579 28.2863 14.5565 28.2997 14.5567C28.2828 14.5439 28.2666 14.5294 28.2512 14.5141C28.2155 14.4788 28.183 14.4382 28.1529 14.4003C28.1517 14.3988 28.1504 14.3972 28.1492 14.3957C28.1203 14.3593 28.0937 14.3259 28.0682 14.3011C28.0413 14.2751 28.0177 14.261 27.996 14.261C27.9508 14.261 27.9206 14.2426 27.9052 14.2162C27.8902 14.1903 27.8903 14.1584 27.9021 14.133L27.9029 14.1314L27.9041 14.1302C27.9208 14.1122 27.9395 14.0997 27.96 14.0934C27.9806 14.0871 28.0024 14.0873 28.0251 14.0933C28.0488 14.0997 28.0737 14.1126 28.0997 14.1318C28.0911 14.1098 28.0861 14.0883 28.0817 14.0691C28.0811 14.0665 28.0805 14.0639 28.0799 14.0613C28.0746 14.0384 28.0697 14.021 28.0608 14.0091C28.0527 13.9983 28.0405 13.991 28.017 13.991C27.9892 13.991 27.9707 13.9687 27.9621 13.9443C27.9534 13.9195 27.9533 13.8884 27.9651 13.863L27.9659 13.8614L27.9671 13.8602C27.9919 13.8335 28.0337 13.8284 28.0751 13.8403C28.1078 13.8496 28.1418 13.8697 28.1707 13.9004C28.1685 13.8903 28.1654 13.8817 28.1616 13.8743C28.154 13.8596 28.1434 13.8489 28.1312 13.8397C28.1213 13.8323 28.1108 13.8262 28.0997 13.8198C28.0968 13.8182 28.0939 13.8165 28.0909 13.8147C28.0773 13.8068 28.0633 13.7979 28.0518 13.7858C28.0351 13.7736 28.0244 13.7594 28.0197 13.7442C28.0149 13.7288 28.0166 13.7134 28.0229 13.6999C28.0352 13.6735 28.0647 13.6549 28.0991 13.6542C28.1171 13.6483 28.1384 13.6487 28.1599 13.6538C28.1823 13.659 28.2058 13.6695 28.2278 13.6842C28.2715 13.7135 28.3104 13.7606 28.3216 13.8202ZM28.1325 14.1885C28.1395 14.197 28.1476 14.2053 28.1569 14.2133L28.1719 14.1977C28.164 14.1892 28.1562 14.1812 28.1485 14.1736C28.1201 14.1386 28.111 14.0992 28.1027 14.0635C28.1022 14.0611 28.1016 14.0587 28.1011 14.0564C28.0959 14.0342 28.0903 14.0123 28.0782 13.9961C28.0653 13.9788 28.046 13.9692 28.017 13.9692C28.0028 13.9692 27.9898 13.9577 27.9826 13.9371C27.9758 13.9175 27.9757 13.8931 27.9841 13.8738C28.0015 13.8564 28.0327 13.8507 28.0691 13.8612C28.106 13.8717 28.1459 13.8982 28.1761 13.9413L28.1959 13.9696V13.9351C28.1959 13.9056 28.1903 13.8827 28.1809 13.8644C28.1714 13.846 28.1583 13.8329 28.1443 13.8223C28.1332 13.814 28.1212 13.8071 28.11 13.8007C28.1072 13.7991 28.1045 13.7975 28.1019 13.796C28.0882 13.788 28.0763 13.7802 28.0669 13.7702L28.0662 13.7694L28.0653 13.7687C28.0511 13.7586 28.0436 13.7477 28.0405 13.7378C28.0374 13.7279 28.0384 13.718 28.0426 13.7091C28.0511 13.6908 28.0732 13.676 28.101 13.676H28.1029L28.1047 13.6753C28.1178 13.6706 28.1352 13.6703 28.155 13.675C28.1745 13.6796 28.1957 13.6888 28.2157 13.7022C28.2559 13.7291 28.2905 13.7718 28.3003 13.8246L28.3005 13.8253C28.3059 13.8468 28.3111 13.8674 28.3161 13.8874C28.3681 14.096 28.3998 14.2228 28.5561 14.3485C28.6025 14.3872 28.6387 14.4287 28.6727 14.47C28.6792 14.4779 28.6855 14.4857 28.6919 14.4935C28.7189 14.5268 28.7457 14.5596 28.7758 14.5897C28.8487 14.6622 28.9418 14.7182 29.1116 14.7321C29.0685 14.8129 29.0962 14.9073 29.1331 14.9967C29.142 15.0184 29.1516 15.0402 29.1611 15.0615C29.1621 15.0638 29.1631 15.0661 29.1642 15.0684C29.1746 15.0921 29.1848 15.1153 29.1937 15.1379C29.2054 15.1675 29.2148 15.1957 29.2199 15.2221C29.1593 15.1452 29.088 15.1209 29.0222 15.1057C29.0104 15.103 28.999 15.1006 28.9879 15.0983C28.9635 15.0933 28.9407 15.0885 28.9195 15.0814C28.9047 15.0764 28.891 15.0704 28.8787 15.0625C28.8855 15.0635 28.8923 15.0639 28.8987 15.0639C28.9192 15.0639 28.9378 15.0595 28.9493 15.0525C28.9546 15.0492 28.9611 15.0438 28.9622 15.0356C28.9636 15.026 28.9571 15.0193 28.9508 15.0156C28.9443 15.0117 28.9351 15.009 28.9236 15.0072C28.9118 15.0053 28.8967 15.0042 28.878 15.0042C28.7538 15.0042 28.6664 14.9765 28.5972 14.9381C28.5471 14.9103 28.5066 14.8769 28.468 14.8435C28.4766 14.8435 28.4846 14.842 28.4923 14.84C28.4993 14.8381 28.5057 14.8359 28.512 14.8337C28.5272 14.8285 28.5421 14.8235 28.563 14.8235L28.5649 14.8019C28.4416 14.7799 28.3806 14.7306 28.3345 14.684C28.3268 14.6763 28.3194 14.6684 28.3121 14.6606C28.2976 14.6452 28.2835 14.6303 28.2689 14.6177C28.2565 14.607 28.2433 14.5977 28.2284 14.5904C28.2289 14.5902 28.2294 14.5901 28.23 14.5899C28.2413 14.5869 28.253 14.5837 28.2657 14.5814C28.2902 14.577 28.3177 14.5763 28.3486 14.5879C28.3556 14.5915 28.3627 14.5948 28.3699 14.5977L28.374 14.5876L28.3791 14.578C28.3718 14.5741 28.3645 14.5708 28.3575 14.568C28.3252 14.5513 28.2951 14.527 28.2665 14.4987C28.2319 14.4644 28.2001 14.4248 28.1699 14.3868C28.1685 14.385 28.1672 14.3833 28.1658 14.3816C28.1373 14.3457 28.1099 14.3113 28.0833 14.2855C28.0557 14.2588 28.0268 14.2392 27.996 14.2392C27.9572 14.2392 27.9349 14.2238 27.924 14.2052C27.9131 14.1866 27.9127 14.163 27.9212 14.1437C27.9355 14.1287 27.9506 14.1191 27.9664 14.1142C27.9825 14.1093 28.0001 14.1092 28.0194 14.1143C28.0525 14.1232 28.0902 14.1474 28.1325 14.1885ZM31.2233 14.8356C31.4002 14.8126 31.6145 14.8702 31.7641 15.0991L31.7664 15.1026L31.7657 15.1068C31.7451 15.2393 31.7659 15.3253 31.8252 15.3894C31.8564 15.4117 31.8844 15.4355 31.8987 15.4661C31.9136 15.4979 31.9128 15.5351 31.8908 15.5822L31.8903 15.5834C31.8881 15.5869 31.8859 15.5903 31.8838 15.5938C31.8759 15.6066 31.8683 15.6188 31.8606 15.6296C31.8508 15.6434 31.8401 15.6558 31.8269 15.6652C31.7999 15.6845 31.7648 15.6898 31.7107 15.6782C31.6599 15.6673 31.5773 15.6672 31.4966 15.6783C31.4564 15.6839 31.417 15.6922 31.3826 15.7032C31.3481 15.7143 31.3193 15.7279 31.2998 15.7436L31.269 15.7683L31.309 15.661C31.242 15.7135 31.1424 15.7459 30.999 15.7459V15.7242C31.0172 15.7242 31.0288 15.7183 31.0372 15.7098C31.046 15.701 31.0519 15.6888 31.0571 15.675C31.0588 15.6703 31.0604 15.6658 31.0619 15.6612C31.0627 15.659 31.0634 15.6568 31.0642 15.6546C31.0665 15.648 31.069 15.6412 31.072 15.6353C31.0722 15.6348 31.0725 15.6342 31.0728 15.6337C31.0114 15.6372 30.9518 15.6594 30.9013 15.6982C30.8469 15.7562 30.7909 15.7691 30.7473 15.7598C30.7258 15.7551 30.7075 15.7451 30.6946 15.7328C30.6818 15.7207 30.6731 15.7054 30.6731 15.6901C30.6731 15.6823 30.6751 15.6751 30.6783 15.6687C30.6594 15.6758 30.6393 15.68 30.6206 15.6741C30.5967 15.6664 30.5794 15.6437 30.5685 15.6029L30.5684 15.6026C30.5626 15.5775 30.5667 15.557 30.5794 15.5412C30.5916 15.5261 30.6105 15.5168 30.6311 15.5109C30.6402 15.5083 30.65 15.5063 30.6601 15.5047C30.6468 15.4994 30.6355 15.4926 30.6266 15.4842C30.6126 15.4708 30.6054 15.4537 30.6065 15.4335C30.6077 15.414 30.6166 15.3925 30.6328 15.3693C30.6414 15.3541 30.652 15.3433 30.6648 15.3369C30.6778 15.3305 30.692 15.3291 30.7069 15.3309C30.7359 15.3343 30.7705 15.35 30.8093 15.368C30.8114 15.369 30.8135 15.37 30.8156 15.371C30.8934 15.4071 30.9941 15.4539 31.1239 15.4542C31.1709 15.4444 31.2296 15.4474 31.2829 15.4502C31.291 15.4506 31.2989 15.4511 31.3066 15.4514C31.3368 15.4528 31.3643 15.4535 31.3867 15.4511C31.4096 15.4487 31.4244 15.4433 31.4321 15.4352L31.4329 15.4343C31.4457 15.4233 31.455 15.414 31.4613 15.406C31.4677 15.398 31.4705 15.392 31.4713 15.3878C31.4721 15.384 31.4714 15.3812 31.4695 15.3784C31.4673 15.3752 31.463 15.3716 31.4559 15.3678C31.4414 15.36 31.419 15.3533 31.3899 15.3455C31.3831 15.3437 31.3759 15.3418 31.3684 15.3398C31.3449 15.3336 31.3185 15.3267 31.2907 15.3182C31.2748 15.3161 31.2602 15.3144 31.2465 15.3128C31.1894 15.3061 31.1485 15.3014 31.1065 15.2777C31.0544 15.2483 31.0007 15.1902 30.9064 15.0667L30.9041 15.0638V15.0601C30.9041 15.0098 30.9418 14.9591 30.9986 14.919C31.056 14.8785 31.1351 14.847 31.2233 14.8356ZM30.768 15.4992V15.521C30.7255 15.521 30.6747 15.521 30.6371 15.5318C30.6184 15.5371 30.6045 15.5447 30.5963 15.5549C30.5887 15.5644 30.585 15.5776 30.5895 15.5974C30.5997 15.6353 30.6138 15.6491 30.6273 15.6534C30.6418 15.658 30.66 15.6534 30.6822 15.6436C30.6913 15.6396 30.7004 15.635 30.7098 15.6303C30.7117 15.6294 30.7136 15.6284 30.7154 15.6275C30.7266 15.6219 30.7382 15.6163 30.7494 15.6121C30.7713 15.6038 30.7958 15.5991 30.8163 15.6137L30.8439 15.6335H30.81C30.7905 15.6335 30.7604 15.6388 30.7355 15.6494C30.7231 15.6548 30.7126 15.6611 30.7054 15.6683C30.6983 15.6753 30.6949 15.6825 30.6949 15.6901C30.6949 15.6973 30.6993 15.7073 30.7095 15.717C30.7195 15.7265 30.7341 15.7347 30.7519 15.7385C30.7869 15.746 30.8357 15.7366 30.8861 15.6827L30.8867 15.682L30.8874 15.6815C30.9503 15.6329 31.0268 15.6083 31.1045 15.6117L31.104 15.6226V15.6335C31.0999 15.6335 31.0961 15.6356 31.0914 15.645C31.0891 15.6496 31.087 15.6552 31.0847 15.6618C31.0841 15.6637 31.0834 15.6657 31.0826 15.6678C31.081 15.6726 31.0793 15.6777 31.0774 15.6826C31.0725 15.696 31.0659 15.7106 31.0553 15.7224C31.1886 15.7134 31.2739 15.6721 31.3271 15.6152L31.3452 15.6264L31.3147 15.7079C31.3327 15.6982 31.3535 15.6897 31.376 15.6825C31.4118 15.6711 31.4525 15.6625 31.4936 15.6568C31.5757 15.6455 31.6611 15.6453 31.7153 15.657C31.7662 15.6679 31.7941 15.6619 31.8143 15.6475C31.8247 15.64 31.8338 15.6299 31.8429 15.617C31.8502 15.6068 31.8572 15.5954 31.865 15.5827C31.8671 15.5794 31.8692 15.5759 31.8714 15.5724C31.8912 15.5298 31.8904 15.4996 31.879 15.4753C31.8672 15.45 31.8431 15.4289 31.8117 15.4064L31.8108 15.4058L31.8101 15.405C31.7446 15.3349 31.7234 15.2422 31.7436 15.1076C31.5993 14.8894 31.3949 14.8352 31.2261 14.8571C31.1411 14.8682 31.0654 14.8985 31.0112 14.9368C30.958 14.9743 30.9277 15.0177 30.9259 15.0565C31.0192 15.1784 31.07 15.2321 31.1172 15.2587C31.1551 15.2801 31.1907 15.2843 31.2471 15.2909C31.2614 15.2926 31.2771 15.2945 31.2944 15.2968L31.2953 15.2969L31.2962 15.2972C31.3238 15.3057 31.3499 15.3125 31.3736 15.3187C31.3812 15.3207 31.3885 15.3226 31.3956 15.3245C31.4242 15.3322 31.4491 15.3395 31.4661 15.3486C31.4747 15.3532 31.4823 15.3588 31.4873 15.366C31.4926 15.3736 31.4945 15.3824 31.4927 15.3919C31.4909 15.401 31.4858 15.4102 31.4784 15.4195C31.471 15.4289 31.4607 15.4391 31.4475 15.4505C31.4341 15.4644 31.4124 15.4702 31.389 15.4727C31.3648 15.4753 31.3358 15.4745 31.3056 15.4731C31.2976 15.4728 31.2896 15.4723 31.2815 15.4719C31.2273 15.4691 31.1714 15.4663 31.1273 15.4757L31.1261 15.476H31.125C30.9898 15.476 30.885 15.4272 30.8071 15.391C30.8048 15.3899 30.8025 15.3888 30.8002 15.3878C30.7602 15.3692 30.7292 15.3554 30.7044 15.3525C30.6924 15.3511 30.6826 15.3523 30.6745 15.3564C30.6663 15.3604 30.6586 15.3677 30.6515 15.3804L30.6509 15.3813C30.6358 15.403 30.6291 15.4207 30.6282 15.4348C30.6274 15.4484 30.632 15.4593 30.6416 15.4685C30.6516 15.4779 30.6673 15.4857 30.6889 15.4911C30.7104 15.4964 30.7371 15.4992 30.768 15.4992Z" fill="black"/>
<path fill-rule="evenodd" clip-rule="evenodd" d="M29.4253 14.0281C29.4391 14.0329 29.4521 14.0366 29.466 14.0366V14.0584C29.4483 14.0584 29.4325 14.0536 29.4181 14.0486C29.4148 14.0475 29.4117 14.0463 29.4086 14.0452C29.3977 14.0413 29.3878 14.0377 29.3773 14.0357C29.3644 14.0332 29.3514 14.0332 29.3369 14.0387C29.3266 14.0426 29.3152 14.0494 29.3022 14.0606C29.3062 14.0628 29.3104 14.0655 29.3143 14.0681C29.3147 14.0683 29.315 14.0686 29.3154 14.0688C29.32 14.0718 29.3246 14.0747 29.3294 14.0773C29.339 14.0824 29.3485 14.0856 29.3585 14.0845C29.3684 14.0834 29.3806 14.0781 29.395 14.0626L29.4109 14.0774C29.3939 14.0956 29.3772 14.1044 29.3608 14.1061C29.3446 14.1079 29.3305 14.1026 29.3191 14.0965C29.3134 14.0934 29.3081 14.09 29.3036 14.087C29.3033 14.0868 29.303 14.0867 29.3027 14.0865C29.2983 14.0836 29.2948 14.0813 29.2915 14.0796C29.29 14.0788 29.2888 14.0782 29.2879 14.0778V14.1368C29.2918 14.1665 29.2965 14.1928 29.3008 14.2164C29.302 14.2236 29.3033 14.2306 29.3044 14.2372C29.3093 14.2655 29.3129 14.29 29.3115 14.3098C29.31 14.3302 29.3031 14.3473 29.2859 14.3586C29.2697 14.3692 29.246 14.3734 29.214 14.3734C29.1871 14.3734 29.1668 14.3692 29.1532 14.3578C29.1391 14.346 29.1349 14.3286 29.1349 14.3091C29.1349 14.2896 29.139 14.2654 29.1442 14.2371C29.1449 14.2336 29.1456 14.23 29.1463 14.2263C29.1511 14.2004 29.1566 14.1707 29.1611 14.1368V14.0778C29.1602 14.0782 29.159 14.0788 29.1574 14.0796C29.1542 14.0813 29.1507 14.0836 29.1463 14.0865C29.146 14.0867 29.1457 14.0868 29.1454 14.087C29.1408 14.09 29.1356 14.0934 29.1299 14.0965C29.1185 14.1026 29.1044 14.1079 29.0881 14.1061C29.0717 14.1044 29.055 14.0956 29.038 14.0774L29.0539 14.0626C29.0684 14.0781 29.0806 14.0834 29.0905 14.0845C29.1005 14.0856 29.11 14.0824 29.1196 14.0773C29.1244 14.0747 29.129 14.0718 29.1336 14.0688C29.1339 14.0686 29.1343 14.0683 29.1347 14.0681C29.1385 14.0656 29.1426 14.0629 29.1465 14.0608C29.1339 14.0504 29.1229 14.0447 29.1131 14.0417C29.0991 14.0375 29.0867 14.0386 29.0745 14.0412C29.0702 14.0422 29.0663 14.0432 29.0622 14.0443C29.0602 14.0448 29.0582 14.0453 29.0561 14.0458C29.05 14.0474 29.0434 14.0488 29.0368 14.0492C29.0301 14.0496 29.0231 14.049 29.016 14.0463C29.0089 14.0436 29.0023 14.0391 28.996 14.0324L29.0119 14.0176C29.0162 14.0222 29.0201 14.0247 29.0237 14.026C29.0272 14.0273 29.031 14.0278 29.0355 14.0275C29.04 14.0272 29.045 14.0262 29.0508 14.0247C29.0525 14.0243 29.0543 14.0239 29.0562 14.0234C29.0605 14.0222 29.0652 14.021 29.07 14.02C29.084 14.017 29.1005 14.0153 29.1193 14.0209C29.1381 14.0265 29.158 14.0391 29.1799 14.0626L29.172 14.07H29.1829V14.1382L29.1828 14.1389C29.1781 14.1737 29.1725 14.2042 29.1676 14.2303C29.1669 14.234 29.1663 14.2376 29.1656 14.2411C29.1603 14.2698 29.1566 14.292 29.1566 14.3091C29.1566 14.326 29.1603 14.3354 29.1672 14.3412C29.1746 14.3474 29.1883 14.3516 29.214 14.3516C29.245 14.3516 29.2633 14.3474 29.274 14.3404C29.2837 14.3341 29.2886 14.3244 29.2898 14.3083C29.291 14.2915 29.288 14.2696 29.283 14.2409C29.2819 14.2344 29.2807 14.2276 29.2794 14.2205C29.2752 14.1967 29.2703 14.1694 29.2662 14.1389L29.2661 14.1382V14.07H29.277L29.269 14.0626C29.2908 14.0393 29.3105 14.0254 29.3293 14.0183C29.3482 14.0112 29.3654 14.0112 29.3814 14.0143C29.3937 14.0167 29.4057 14.0211 29.4169 14.0251C29.4197 14.0261 29.4225 14.0271 29.4253 14.0281ZM31.0387 14.9144C31.1466 14.8912 31.2542 14.9144 31.3401 14.9604L31.3299 14.9796C31.2477 14.9356 31.1454 14.9137 31.0433 14.9356L31.0387 14.9144ZM29.8043 15.1393C29.8015 15.081 29.8125 15.0118 29.8551 14.9204L29.8748 14.9296C29.8335 15.0182 29.8234 15.084 29.826 15.1382C29.8279 15.1794 29.8369 15.2139 29.8459 15.2481C29.8489 15.2595 29.8519 15.2709 29.8546 15.2825L29.8334 15.2875C29.8309 15.2769 29.8281 15.2661 29.8252 15.2551C29.8161 15.2204 29.8063 15.1829 29.8043 15.1393Z" fill="black"/>
<path d="M29.235 14.6326C29.319 14.6326 29.361 14.6326 29.361 14.4976C29.361 14.4526 29.424 14.4301 29.382 14.3401C29.424 14.4301 29.235 14.4301 29.235 14.3851C29.235 14.4301 29.025 14.4301 29.067 14.3401C29.046 14.4301 29.109 14.4526 29.088 14.4976C29.088 14.6326 29.13 14.6326 29.235 14.6326V14.6326Z" fill="#FF0016"/>
<path fill-rule="evenodd" clip-rule="evenodd" d="M29.2196 14.3909C29.2237 14.388 29.2241 14.3859 29.2241 14.385H29.2459C29.2459 14.3864 29.2464 14.3885 29.2499 14.3913C29.2534 14.3942 29.2591 14.397 29.2669 14.3992C29.2823 14.4037 29.3031 14.405 29.3228 14.4024C29.3428 14.3997 29.3597 14.3932 29.369 14.3837C29.3735 14.3792 29.3762 14.3741 29.377 14.3682C29.3778 14.3622 29.3767 14.3545 29.3721 14.3446L29.3918 14.3354C29.4029 14.3591 29.4073 14.3789 29.4073 14.3963C29.4073 14.4138 29.4028 14.428 29.3971 14.4403C29.3943 14.4463 29.3911 14.4519 29.3881 14.4571C29.3874 14.4584 29.3866 14.4597 29.3859 14.4609C29.3837 14.4647 29.3817 14.4682 29.3798 14.4717C29.3748 14.481 29.3719 14.4889 29.3719 14.4975C29.3719 14.565 29.3617 14.6038 29.3363 14.6241C29.3236 14.6343 29.3083 14.639 29.2916 14.6412C29.2751 14.6434 29.2561 14.6434 29.2355 14.6434H29.2345C29.2086 14.6434 29.1858 14.6434 29.1665 14.6412C29.147 14.639 29.1298 14.6345 29.1158 14.6245C29.0873 14.6041 29.0771 14.5649 29.0771 14.4975V14.4951L29.0781 14.4929C29.0853 14.4776 29.0802 14.4668 29.0707 14.4467C29.0697 14.4446 29.0687 14.4425 29.0676 14.4403C29.0596 14.423 29.0513 14.402 29.0518 14.3732C29.0517 14.3727 29.0516 14.3723 29.0515 14.3718C29.0492 14.3605 29.0512 14.3483 29.0571 14.3354L29.0776 14.3425C29.0752 14.3528 29.074 14.362 29.0736 14.3705C29.0752 14.3751 29.0781 14.3793 29.0826 14.3832C29.094 14.393 29.1137 14.3997 29.1365 14.4024C29.159 14.4051 29.1826 14.4037 29.2001 14.3991C29.2089 14.3969 29.2155 14.394 29.2196 14.3909ZM29.3855 14.3979C29.3852 14.3983 29.3848 14.3986 29.3845 14.399C29.3702 14.4135 29.3477 14.421 29.3257 14.4239C29.3034 14.4269 29.2796 14.4255 29.2609 14.4201C29.2515 14.4174 29.2428 14.4135 29.2362 14.4082C29.2356 14.4077 29.2351 14.4073 29.2346 14.4068C29.2339 14.4074 29.2332 14.408 29.2325 14.4085C29.2253 14.4138 29.2158 14.4175 29.2056 14.4202C29.185 14.4255 29.1587 14.4269 29.134 14.424C29.1138 14.4216 29.0934 14.4161 29.0778 14.4065C29.0804 14.4155 29.0838 14.4236 29.0873 14.4311C29.0884 14.4333 29.0894 14.4355 29.0905 14.4377C29.0993 14.4559 29.109 14.4757 29.0989 14.4998C29.0991 14.5658 29.1099 14.5936 29.1284 14.6068C29.1381 14.6137 29.151 14.6176 29.1689 14.6196C29.1869 14.6217 29.2085 14.6217 29.235 14.6217C29.2562 14.6217 29.2738 14.6217 29.2887 14.6197C29.3034 14.6177 29.3143 14.6139 29.3227 14.6072C29.3393 14.5938 29.3501 14.5651 29.3501 14.4975C29.3501 14.4837 29.355 14.4719 29.3606 14.4615C29.3627 14.4575 29.365 14.4535 29.3673 14.4497C29.368 14.4485 29.3686 14.4474 29.3693 14.4462C29.3722 14.4412 29.375 14.4363 29.3774 14.4311C29.382 14.4213 29.3853 14.4107 29.3855 14.3979Z" fill="black"/>
<path d="M29.13 14.3625L28.92 14.295ZM29.13 14.3625H28.92ZM29.13 14.385L28.941 14.4525ZM29.298 14.3625L29.508 14.295ZM29.298 14.3625H29.55ZM29.298 14.385L29.508 14.4525Z" fill="black"/>
<path fill-rule="evenodd" clip-rule="evenodd" d="M28.9233 14.2847L29.1333 14.3522L29.13 14.3625V14.3734H28.92V14.3516H29.0607L28.9167 14.3054L28.9233 14.2847ZM29.3673 14.3516L29.5113 14.3054L29.5047 14.2847L29.2947 14.3522L29.298 14.3625V14.3734H29.55V14.3516H29.3673ZM29.5047 14.4629L29.2947 14.3954L29.3013 14.3747L29.5113 14.4422L29.5047 14.4629ZM28.9373 14.4423L29.1263 14.3748L29.1337 14.3953L28.9447 14.4628L28.9373 14.4423Z" fill="black"/>
<path d="M27.45 13.8H27.6H27.45ZM27.45 13.95H27.15H27.45ZM27.45 14.25H27.15H27.3H27.45ZM27.45 15.15C27.45 15 27.3 15.15 27.3 15.15H27.45ZM27.45 15.15C27.45 15.15 27.3 15.45 27.45 15.45V15.3V15.15ZM30 15.6C30 15.6 29.7 15.75 29.85 15.9V15.6H30ZM30 15.75V16.05V15.9V15.75ZM30 15.45L29.85 15.6H30V15.45ZM31.65 15.75V15.9V15.75ZM31.65 15.6C31.65 15.6 31.5 15.6 31.65 15.6V15.6ZM31.65 15.9V16.05H31.8V15.9H31.65ZM28.65 14.7V15.15V14.7Z" fill="#0051BA"/>
</g>
<defs>
<clipPath id="clip0_4_4453">
<rect width="60" height="45" fill="white"/>
</clipPath>
</defs>
</svg>
