<svg width="60" height="45" viewBox="0 0 60 45" fill="none" xmlns="http://www.w3.org/2000/svg">
<g clip-path="url(#clip0_4_7530)">
<path fill-rule="evenodd" clip-rule="evenodd" d="M-15.5831 0.308472H75.8906V44.1947H-15.5831V0.308472Z" fill="#FFC621"/>
<path fill-rule="evenodd" clip-rule="evenodd" d="M-15.7594 30.1829H75.8289V45.12H-15.7594V30.1829Z" fill="#EF2118"/>
<path fill-rule="evenodd" clip-rule="evenodd" d="M-15.5831 0H75.8906V15.8625H-15.5831V0Z" fill="#298C08"/>
<path d="M28.5382 32.8229C33.7867 32.8229 38.0414 28.5681 38.0414 23.3196C38.0414 18.0711 33.7867 13.8164 28.5382 13.8164C23.2897 13.8164 19.035 18.0711 19.035 23.3196C19.035 28.5681 23.2897 32.8229 28.5382 32.8229Z" fill="#006BC6"/>
<path fill-rule="evenodd" clip-rule="evenodd" d="M24.2758 16.5851L23.703 16.9817L25.7739 19.8898L26.3291 19.5373L24.267 16.5851H24.2758ZM26.8666 23.4589L26.0118 22.8596L26.3643 21.7404L22.1255 21.8021L20.8918 20.8592L26.6816 20.7975L27.7567 17.5457L28.3383 18.8675L26.8666 23.45V23.4589ZM33.6082 17.2284L33.053 16.8054L30.9116 19.6607L31.4051 20.0749L33.6082 17.2284ZM27.8448 21.7669L28.1533 20.7799H29.3253L27.9858 16.7437L28.5146 15.2897L30.3211 20.7887L33.7404 20.8327L32.6653 21.7757L27.8448 21.758V21.7669ZM35.829 26.2789L36.0669 25.6267L32.6917 24.4547L32.445 25.0715L35.829 26.2789V26.2789ZM29.7395 22.1899L30.7706 22.181L31.1319 23.2914L34.5511 20.7799L36.1021 20.8327L31.4227 24.2432L32.4361 27.5214L31.2024 26.7812L29.7395 22.1899V22.1899ZM27.9946 31.1786L28.6908 31.1962L28.7173 27.6272L28.0651 27.5831L27.9946 31.1874V31.1786ZM29.9334 24.1022L30.2683 25.0804L29.3253 25.7854L32.7975 28.2264L33.2381 29.7069L28.5146 26.3582L25.7386 28.3586L26.0471 26.9486L29.9246 24.1022H29.9334ZM20.8301 25.2478L21.0328 25.9087L24.4432 24.8336L24.267 24.1991L20.8301 25.2478ZM28.1621 24.8953L27.3337 25.521L26.382 24.8424L25.1306 28.8962L23.8616 29.7774L25.58 24.252L22.8129 22.2251L24.2493 22.0841L28.1621 24.8953V24.8953Z" fill="#FFC621"/>
</g>
<defs>
<clipPath id="clip0_4_7530">
<rect width="60" height="45" fill="white"/>
</clipPath>
</defs>
</svg>
