<svg width="60" height="45" viewBox="0 0 60 45" fill="none" xmlns="http://www.w3.org/2000/svg">
<g clip-path="url(#clip0_4_1628)">
<path d="M0 0H60V45H0V0Z" fill="white"/>
<path d="M7.5 0H52.5V45H7.5V0Z" fill="white"/>
<path fill-rule="evenodd" clip-rule="evenodd" d="M25.9969 31.95C25.9969 31.95 27.0094 31.125 28.0031 31.125C28.9969 31.125 29.2594 31.8093 29.9531 31.8656C30.6375 31.9218 31.2094 31.1812 32.0625 31.1531C32.9156 31.125 33.9844 31.7531 33.9844 31.7531L30.2531 32.8781L25.9969 31.9406V31.95ZM23.85 30.7312L36.5437 30.7968C36.5437 30.7968 35.4469 29.6062 34.1531 29.5781C32.8594 29.5593 33.2156 30.1406 32.2312 30.2156C31.2375 30.3 30.9937 29.6156 30.0844 29.6343C29.1844 29.6625 28.6594 30.2156 27.975 30.2437C27.2812 30.2718 26.4094 29.5593 25.8844 29.5875C25.3594 29.6156 23.4937 30.4031 23.4937 30.4031L23.85 30.7406V30.7312ZM22.2281 29.2312L37.8844 29.2781C38.1375 28.9218 37.1156 28.0687 36.1875 27.9937C35.4187 28.0218 34.875 28.7906 34.2375 28.8187C33.6 28.8468 32.8875 28.0218 32.175 28.05C31.4625 28.0781 30.7219 28.8187 30.0094 28.8187C29.2875 28.8187 28.7719 28.0218 27.8625 28.0218C26.9531 28.0218 26.55 28.8937 25.8562 28.8468C25.1719 28.7906 24.5625 27.9656 23.9062 27.9656C23.25 27.9656 22.1531 28.95 21.9375 28.9031C21.7125 28.8375 22.2094 29.3062 22.2281 29.2218V29.2312Z" fill="#083D9C"/>
<path fill-rule="evenodd" clip-rule="evenodd" d="M23.3128 28.0335C23.5151 27.9402 23.7216 27.8718 23.9063 27.8718C24.0899 27.8718 24.2657 27.9295 24.4327 28.0111C24.5993 28.0925 24.7635 28.201 24.9227 28.3071L24.9318 28.3131C25.2547 28.5284 25.5534 28.7276 25.8632 28.7533C26.1602 28.7731 26.3992 28.6046 26.6953 28.3958C26.705 28.389 26.7147 28.3822 26.7245 28.3753C27.0257 28.1631 27.3755 27.9281 27.8625 27.9281C28.3455 27.9281 28.7216 28.1406 29.0544 28.3398C29.0712 28.3499 29.0878 28.3599 29.1044 28.3698C29.4233 28.5612 29.6962 28.725 30.0094 28.725C30.3384 28.725 30.6804 28.5531 31.049 28.3617C31.0593 28.3563 31.0697 28.3509 31.08 28.3455C31.4283 28.1645 31.8007 27.9709 32.1713 27.9563C32.5595 27.941 32.9402 28.1572 33.2811 28.353C33.2895 28.3579 33.298 28.3627 33.3064 28.3676C33.4721 28.4628 33.63 28.5535 33.7839 28.6205C33.9455 28.6909 34.0944 28.7312 34.2334 28.725C34.3746 28.7188 34.5147 28.6714 34.661 28.5981C34.7937 28.5316 34.9261 28.4468 35.0665 28.3568C35.0818 28.347 35.0973 28.3371 35.1128 28.3272C35.4223 28.1294 35.7707 27.9151 36.1841 27.9L36.1896 27.8998L36.1951 27.9003C36.6817 27.9396 37.1863 28.1811 37.5369 28.4567C37.7122 28.5946 37.8552 28.7457 37.938 28.8913C38.0189 29.0333 38.0563 29.198 37.9608 29.3324L37.9327 29.372L22.2281 29.325C22.2177 29.3262 22.2079 29.3259 22.1993 29.3249L22.1344 29.3247V29.3027C22.1188 29.2945 22.1039 29.285 22.0905 29.2759C22.0385 29.2406 21.9772 29.1878 21.9251 29.1358C21.876 29.0867 21.823 29.0264 21.8001 28.976C21.794 28.9627 21.7863 28.9424 21.7855 28.9188C21.7845 28.8923 21.7925 28.8552 21.8258 28.8284C21.8546 28.8052 21.8871 28.8026 21.9055 28.803C21.9228 28.8034 21.9399 28.8066 21.9558 28.8108C21.9576 28.8107 21.9612 28.8102 21.9668 28.8089C21.9794 28.806 21.9969 28.8002 22.0199 28.7902C22.0661 28.7702 22.1249 28.7382 22.1957 28.6959C22.2802 28.6454 22.3751 28.5844 22.479 28.5176C22.5508 28.4715 22.6269 28.4226 22.7068 28.3725C22.8993 28.2518 23.1088 28.1276 23.3128 28.0335ZM22.2282 29.2115L22.2284 29.14C22.2275 29.1397 22.2247 29.139 22.2206 29.1386C22.216 29.1381 22.2069 29.1378 22.1954 29.1408C22.183 29.144 22.1686 29.1511 22.1565 29.1642C22.1445 29.177 22.1389 29.191 22.1366 29.2015L22.2282 29.2115ZM22.2284 29.14L22.2284 29.1375L37.8257 29.1842C37.8367 29.1388 37.8262 29.0739 37.7751 28.984C37.7085 28.8671 37.5855 28.7335 37.421 28.6041C37.0932 28.3465 36.6253 28.1247 36.1855 28.0876C35.8323 28.1023 35.5261 28.2856 35.2138 28.4852C35.1982 28.4951 35.1826 28.5051 35.167 28.5151C35.0282 28.6041 34.8871 28.6945 34.745 28.7657C34.5861 28.8453 34.4192 28.9045 34.2416 28.9124C34.0619 28.9203 33.8826 28.868 33.7091 28.7925C33.5452 28.7211 33.3789 28.6255 33.2161 28.5319C33.2066 28.5265 33.1971 28.5211 33.1877 28.5156C32.8348 28.313 32.503 28.1308 32.1787 28.1436C31.8507 28.1566 31.5108 28.3331 31.145 28.5231L31.1354 28.5281C30.7774 28.714 30.3929 28.9125 30.0094 28.9125C29.6422 28.9125 29.3262 28.7222 29.0209 28.5384C28.9999 28.5258 28.979 28.5132 28.9581 28.5007C28.6253 28.3015 28.2889 28.1156 27.8625 28.1156C27.4401 28.1156 27.1336 28.3165 26.8325 28.5286C26.8166 28.5398 26.8006 28.5511 26.7846 28.5624C26.5068 28.759 26.2156 28.9651 25.8499 28.9404L25.8492 28.9403L25.8486 28.9403C25.4893 28.9107 25.1546 28.6873 24.8496 28.4838C24.8393 28.4769 24.829 28.47 24.8187 28.4631C24.658 28.356 24.504 28.2546 24.3504 28.1796C24.1972 28.1048 24.0507 28.0593 23.9063 28.0593C23.7627 28.0593 23.5861 28.114 23.3914 28.2038C23.1985 28.2928 22.9972 28.4118 22.8064 28.5313C22.7311 28.5786 22.6565 28.6265 22.5849 28.6725C22.4782 28.741 22.3781 28.8053 22.2919 28.8568C22.2192 28.9003 22.1519 28.9374 22.0943 28.9623C22.0755 28.9704 22.0568 28.9777 22.0385 28.9835C22.0445 28.9898 22.0509 28.9964 22.0577 29.0032C22.1041 29.0496 22.1564 29.094 22.1959 29.1208C22.2055 29.1274 22.2135 29.1323 22.2199 29.1358C22.2247 29.1384 22.2274 29.1396 22.2284 29.14ZM33.4166 29.57C33.5933 29.5129 33.8245 29.4796 34.1545 29.4843L34.1552 29.4843C34.8287 29.499 35.4446 29.8153 35.8869 30.1209C36.109 30.2743 36.2899 30.4268 36.4153 30.541C36.478 30.5982 36.527 30.6459 36.5605 30.6794C36.5772 30.6962 36.5901 30.7095 36.5989 30.7186C36.6032 30.7232 36.6066 30.7268 36.6089 30.7293L36.6116 30.7321L36.6126 30.7332L36.6127 30.7333C36.6127 30.7333 36.6127 30.7333 36.5437 30.7968L36.6127 30.7333L36.7586 30.8917L23.9438 30.8254V30.9585L23.3251 30.3725L23.4573 30.3167L23.4938 30.4031C23.4573 30.3167 23.4573 30.3167 23.4573 30.3167L23.4574 30.3167L23.4628 30.3144L23.4786 30.3077C23.4925 30.3019 23.5129 30.2934 23.539 30.2826C23.5913 30.2609 23.6664 30.23 23.7582 30.1927C23.9418 30.1183 24.1922 30.0186 24.4591 29.9181C24.7259 29.8176 25.0102 29.7158 25.2614 29.6373C25.5092 29.5598 25.7348 29.5016 25.8794 29.4938C26.0306 29.4857 26.1984 29.5308 26.3679 29.5943C26.5168 29.6502 26.6761 29.724 26.8361 29.7982C26.8593 29.809 26.8825 29.8198 26.9057 29.8305C27.2809 30.0038 27.651 30.163 27.9712 30.15C28.2693 30.1378 28.5359 30.0195 28.8413 29.8841C28.8643 29.8739 28.8875 29.8636 28.911 29.8532C29.2418 29.7073 29.6121 29.5553 30.0814 29.5406L30.0824 29.5406C30.5394 29.5312 30.8404 29.6913 31.1235 29.842C31.139 29.8502 31.1545 29.8585 31.17 29.8667C31.4642 30.0224 31.7538 30.162 32.2233 30.1222L32.2241 30.1221C32.46 30.1041 32.6097 30.0564 32.7218 29.9984C32.8137 29.9509 32.8819 29.8964 32.9583 29.8355C32.9777 29.8199 32.9976 29.804 33.0186 29.7877C33.121 29.708 33.2383 29.6277 33.4166 29.57ZM23.663 30.4342L23.8776 30.6376L36.3132 30.7019C36.3054 30.6947 36.2974 30.6873 36.289 30.6797C36.1683 30.5697 35.9941 30.4228 35.7803 30.2751C35.3508 29.9784 34.7715 29.6854 34.1514 29.6718C33.8347 29.6672 33.6254 29.6995 33.4743 29.7484C33.3248 29.7968 33.2271 29.863 33.1338 29.9356C33.1164 29.9491 33.0989 29.9632 33.0809 29.9776C33.0033 30.0397 32.9178 30.1082 32.8079 30.165C32.6697 30.2364 32.4948 30.2895 32.2388 30.309C31.7148 30.3534 31.3858 30.1931 31.0823 30.0324C31.0682 30.025 31.0543 30.0175 31.0403 30.0101C30.7564 29.8593 30.4938 29.7198 30.0868 29.728C29.6563 29.7416 29.3144 29.8802 28.9867 30.0248C28.9614 30.0359 28.9362 30.0471 28.911 30.0583C28.613 30.1908 28.3143 30.3236 27.9788 30.3374C27.6053 30.3525 27.1925 30.1695 26.8271 30.0007C26.8035 29.9898 26.7801 29.9789 26.7568 29.9681C26.5959 29.8935 26.4438 29.823 26.302 29.7699C26.1387 29.7086 26.0007 29.6751 25.8894 29.6811C25.7714 29.6874 25.5669 29.7382 25.3173 29.8162C25.071 29.8933 24.7905 29.9936 24.5252 30.0935C24.2602 30.1934 24.0113 30.2924 23.8287 30.3665C23.7645 30.3925 23.7086 30.4154 23.663 30.4342ZM25.9833 31.8416L25.9031 31.8239V32.1473L26.03 32.0439L30.2568 32.9749L34.2168 31.7809L34.0319 31.6723L33.9844 31.7531C34.0319 31.6723 34.0319 31.6723 34.0319 31.6723L34.0318 31.6722L34.0316 31.6721L34.0309 31.6717L34.0283 31.6702C34.0261 31.6689 34.0229 31.667 34.0187 31.6646C34.0103 31.6599 33.9981 31.6529 33.9822 31.6441C33.9506 31.6266 33.9047 31.6017 33.847 31.572C33.7316 31.5126 33.5689 31.4338 33.379 31.3558C33.0019 31.201 32.5064 31.0446 32.0594 31.0594C31.609 31.0742 31.235 31.2769 30.9031 31.4568L30.8999 31.4585C30.5583 31.6437 30.27 31.7976 29.9608 31.7721L29.9607 31.7721C29.6816 31.7495 29.4811 31.6179 29.2429 31.4616C29.2099 31.4399 29.1762 31.4177 29.1414 31.3954C28.8582 31.2129 28.526 31.0312 28.0031 31.0312C27.4829 31.0312 26.9648 31.2462 26.5824 31.4552C26.39 31.5603 26.2294 31.6654 26.1168 31.7443C26.0605 31.7837 26.016 31.8167 25.9855 31.8399C25.9848 31.8405 25.984 31.841 25.9833 31.8416ZM26.2278 31.8954L30.2494 32.7813L33.7412 31.7285C33.631 31.6723 33.4809 31.6004 33.3077 31.5293C32.9372 31.3771 32.4718 31.2334 32.0656 31.2468C31.6644 31.26 31.3269 31.4404 30.9892 31.6234L30.9724 31.6325C30.6489 31.8079 30.3143 31.9893 29.9455 31.959C29.6155 31.9323 29.3731 31.7723 29.1378 31.6171C29.1051 31.5955 29.0725 31.574 29.0399 31.553C28.7699 31.3791 28.474 31.2187 28.0031 31.2187C27.5296 31.2187 27.0446 31.4162 26.6723 31.6197C26.4893 31.7198 26.3359 31.8199 26.2278 31.8954Z" fill="#083D9C"/>
<path fill-rule="evenodd" clip-rule="evenodd" d="M28.2469 20.5219L31.8469 21.4781V16.3406C30.1969 16.4344 28.8281 13.2094 31.7344 12.9938C28.875 12.5813 28.5469 13.3219 28.2188 14.1188L28.2469 20.5219V20.5219Z" fill="#FF0000"/>
<path fill-rule="evenodd" clip-rule="evenodd" d="M28.9762 12.9973C29.49 12.748 30.317 12.6709 31.7511 12.8778C31.8103 12.8863 31.8536 12.9381 31.8515 12.9978C31.8494 13.0576 31.8027 13.1062 31.743 13.1107C31.0377 13.163 30.6147 13.3958 30.3868 13.6923C30.1586 13.9891 30.1093 14.3713 30.1964 14.7575C30.2835 15.1443 30.5059 15.5246 30.8043 15.8017C31.1027 16.0789 31.4678 16.2448 31.8402 16.2237C31.8724 16.2218 31.9039 16.2333 31.9274 16.2555C31.9508 16.2776 31.9641 16.3084 31.9641 16.3407V21.4782C31.9641 21.5146 31.9472 21.5489 31.9183 21.5711C31.8895 21.5932 31.852 21.6008 31.8168 21.5914L28.2168 20.6352L28.2469 20.5219L28.1297 20.5224L28.1016 14.1193C28.1015 14.1038 28.1045 14.0885 28.1104 14.0742C28.2742 13.6763 28.452 13.2518 28.9762 12.9973ZM28.3637 20.4317L31.7297 21.3258V16.4591C31.3238 16.4454 30.9458 16.2531 30.6448 15.9735C30.3132 15.6655 30.0657 15.2437 29.9677 14.809C29.8696 14.3737 29.9199 13.9151 30.2009 13.5495C30.3741 13.3242 30.6285 13.1424 30.973 13.023C30.0121 12.942 29.4405 13.0325 29.0785 13.2082C28.6497 13.4163 28.497 13.752 28.336 14.1418L28.3637 20.4317Z" fill="black"/>
<path fill-rule="evenodd" clip-rule="evenodd" d="M25.9688 24.2532L34.0969 24.2813Z" fill="#083D9C"/>
<path fill-rule="evenodd" clip-rule="evenodd" d="M25.7344 24.2524C25.7348 24.1229 25.8401 24.0184 25.9696 24.0188L34.0977 24.0469C34.2271 24.0474 34.3317 24.1527 34.3312 24.2821C34.3308 24.4115 34.2255 24.5161 34.0961 24.5157L25.9679 24.4875C25.8385 24.4871 25.7339 24.3818 25.7344 24.2524Z" fill="#083D9C"/>
<path fill-rule="evenodd" clip-rule="evenodd" d="M26.9129 22.0314C27.0164 22.035 27.0973 22.1219 27.0936 22.2254L27.0872 22.4089L27.2489 22.2122C27.3147 22.1322 27.4329 22.1207 27.5128 22.1864C27.5928 22.2522 27.6044 22.3703 27.5386 22.4503L27.096 22.9886L27.4686 23.4842C27.5309 23.567 27.5142 23.6845 27.4314 23.7467C27.3487 23.809 27.2311 23.7923 27.1689 23.7096L26.8509 23.2867L26.498 23.716C26.4322 23.7959 26.314 23.8075 26.234 23.7417C26.1541 23.6759 26.1425 23.5578 26.2083 23.4778L26.6191 22.9782L26.2033 22.4252C26.141 22.3424 26.1577 22.2249 26.2405 22.1626C26.3232 22.1004 26.4408 22.1171 26.503 22.1998L26.7096 22.4746L26.7189 22.2121C26.7225 22.1087 26.8094 22.0277 26.9129 22.0314ZM28.4504 22.0314C28.5539 22.035 28.6348 22.1219 28.6311 22.2254L28.6247 22.4089L28.7864 22.2122C28.8522 22.1322 28.9703 22.1207 29.0503 22.1864C29.1303 22.2522 29.1419 22.3703 29.0761 22.4503L28.6349 22.9869L29.0065 23.4847C29.0685 23.5677 29.0514 23.6852 28.9684 23.7471C28.8854 23.8091 28.7679 23.792 28.706 23.709L28.3896 23.2852L28.0355 23.716C27.9697 23.7959 27.8515 23.8075 27.7715 23.7417C27.6916 23.6759 27.68 23.5578 27.7458 23.4778L28.1586 22.9757L27.7404 22.4153C27.6784 22.3323 27.6955 22.2148 27.7785 22.1529C27.8615 22.0909 27.979 22.108 28.0409 22.191L28.2474 22.4676L28.2564 22.2121C28.26 22.1087 28.3469 22.0277 28.4504 22.0314ZM30.016 22.0314C30.1195 22.035 30.2004 22.1219 30.1968 22.2254L30.1903 22.4089L30.352 22.2122C30.4178 22.1322 30.536 22.1207 30.616 22.1864C30.6959 22.2522 30.7075 22.3703 30.6417 22.4503L30.2006 22.9869L30.5721 23.4847C30.6341 23.5677 30.617 23.6852 30.534 23.7471C30.451 23.8091 30.3336 23.792 30.2716 23.709L29.9553 23.2852L29.6011 23.716C29.5353 23.7959 29.4172 23.8075 29.3372 23.7417C29.2572 23.6759 29.2457 23.5578 29.3114 23.4778L29.7243 22.9757L29.306 22.4153C29.2441 22.3323 29.2611 22.2148 29.3441 22.1529C29.4271 22.0909 29.5446 22.108 29.6065 22.191L29.813 22.4676L29.822 22.2121C29.8256 22.1086 29.9125 22.0277 30.016 22.0314ZM33.1941 22.0314C33.2976 22.035 33.3785 22.1219 33.3749 22.2254L33.368 22.4208L33.5395 22.2122C33.6053 22.1322 33.7235 22.1207 33.8035 22.1864C33.8834 22.2522 33.895 22.3703 33.8292 22.4503L33.3831 22.9929L33.7503 23.4847C33.8122 23.5677 33.7951 23.6852 33.7122 23.7471C33.6292 23.8091 33.5117 23.792 33.4497 23.709L33.1379 23.2912L32.7886 23.716C32.7228 23.7959 32.6047 23.8075 32.5247 23.7417C32.4447 23.6759 32.4332 23.5578 32.4989 23.4778L32.9069 22.9817L32.4841 22.4153C32.4222 22.3323 32.4392 22.2148 32.5222 22.1529C32.6052 22.0909 32.7227 22.108 32.7846 22.191L32.9911 22.4676L33.0001 22.2121C33.0038 22.1087 33.0906 22.0277 33.1941 22.0314ZM31.6263 22.0313C31.7298 22.0337 31.8118 22.1196 31.8093 22.2232L31.8047 22.4179L31.9739 22.2122C32.0397 22.1322 32.1578 22.1207 32.2378 22.1864C32.3178 22.2522 32.3294 22.3703 32.2636 22.4503L31.8194 22.9906L32.1852 23.4854C32.2467 23.5687 32.2291 23.6861 32.1458 23.7477C32.0626 23.8092 31.9451 23.7916 31.8836 23.7083L31.5738 23.2892L31.223 23.716C31.1572 23.7959 31.039 23.8075 30.959 23.7417C30.8791 23.6759 30.8675 23.5578 30.9333 23.4778L31.344 22.9783L30.9273 22.4146C30.8658 22.3313 30.8834 22.2139 30.9667 22.1523C31.05 22.0908 31.1674 22.1084 31.2289 22.1917L31.4286 22.4619L31.4344 22.2143C31.4369 22.1108 31.5228 22.0289 31.6263 22.0313Z" fill="black"/>
<path fill-rule="evenodd" clip-rule="evenodd" d="M20.5031 24.3375L23.9625 24.3657V22.2L20.0062 22.0032L20.5031 24.3375ZM20.3344 21.3375L24.0188 21.7032L23.9906 20.1657L20.3906 18.7313L20.3344 21.3469V21.3375ZM21.0844 18.2719L23.9062 19.6407L24.3094 19.2188C24.3094 19.2188 24.0469 19.0407 24.0656 18.8719C24.0656 18.7125 24.3281 18.6844 24.3281 18.4969C24.3281 18.3375 24.0469 18.3094 24.0375 18.15C24.0187 17.9625 24.2625 17.775 24.2625 17.775L21.7125 15.5532L21.075 18.2719H21.0844ZM39.6469 24.3657H35.9906L35.9625 22.2469L39.975 21.9469L39.6469 24.3657ZM36.0188 21.75L40.3594 21.225L39.4219 18.7219L35.9906 20.1844L36.0188 21.75ZM39.1781 18.0375L36.0469 19.6875C36 19.5 35.9625 19.3313 35.7469 19.1907C35.7469 19.1907 35.9344 19.0782 35.9344 18.8907C35.9344 18.7032 35.6906 18.6657 35.6906 18.5625C35.6906 18.4594 35.9156 18.3563 35.9344 18.1032C35.9062 17.9344 35.6906 17.6907 35.7281 17.6438L38.1656 15.7875L39.1781 18.0375V18.0375ZM32.3906 21.7032L33.9563 21.6375L33.9844 21.0094L32.3906 21.7032V21.7032ZM27.6094 21.6563L25.9687 21.6094V20.9532L27.6188 21.6563H27.6094ZM27.6094 21.4688L25.9687 20.625V19.5188C25.9687 19.5188 25.7813 19.5469 25.8 19.3313C25.8094 18.8719 27.0094 20.1657 27.6188 20.5875L27.6094 21.4688V21.4688ZM32.3906 21.3657V20.6438C32.3906 20.6438 33.8719 19.3125 34.1813 19.0594C34.1813 19.3407 34.0125 19.5469 34.0125 19.5469V20.5969L32.3906 21.3657V21.3657ZM22.7812 15.3563L24.45 17.2032C24.4875 17.0344 24.8719 17.0063 25.2562 17.0344C25.6312 17.0625 25.9406 17.0063 25.9406 17.2782C25.9406 17.55 25.7531 17.5125 25.7531 17.7094C25.7531 17.9063 26.0344 17.8875 26.0344 18.1313C26.0344 18.375 25.8281 18.3282 25.8281 18.5157C25.8281 18.675 26.0531 18.6844 26.0531 18.6844L27.6094 20.1938V18.5813L24.4031 13.5469L22.7812 15.3563V15.3563ZM25.35 13.4438L27.5344 17.8969C27.5344 17.8969 27.5531 13.7907 27.9187 13.575L27.3094 12.45L25.35 13.4438V13.4438ZM34.8187 13.6219L32.3812 17.9532V16.125C32.3812 16.125 32.5875 15.825 32.2688 15.8438C31.95 15.8719 31.5656 15.825 31.5656 15.825L32.5406 12.3938L34.8187 13.6125V13.6219ZM37.3125 15.4688C37.2844 15.5157 35.6719 17.1563 35.6719 17.1563C35.5969 16.9688 35.1094 17.0625 34.6406 17.0625C34.1813 17.0625 34.1156 17.2125 34.1438 17.3344C34.1906 17.6438 34.35 17.4094 34.35 17.7094C34.35 18 34.125 17.8969 34.0969 18.1032C34.125 18.3563 34.4531 18.2907 34.2562 18.4782L32.3906 20.2782V18.5719L35.8688 13.1719L37.3125 15.4688Z" fill="#EF7D08"/>
<path fill-rule="evenodd" clip-rule="evenodd" d="M29.0437 25.1625C28.2656 26.4563 26.175 26.0719 25.6781 25.1625C25.5375 25.125 25.6219 19.5844 25.6219 19.5844C25.6219 19.5844 25.3875 19.4813 25.3781 19.3031C25.3688 19.1344 25.6969 19.1156 25.6969 18.9C25.6969 18.6844 25.3594 18.7688 25.35 18.5438C25.35 18.3375 25.7156 18.3563 25.6969 18.1688C25.6781 17.9438 25.2938 17.9813 25.275 17.775C25.275 17.6156 25.5562 17.475 25.6312 17.4C25.5438 17.402 25.4562 17.402 25.3688 17.4L24.7688 17.4094C24.3375 17.4094 24.7688 17.5031 24.7688 17.7469C24.7688 17.9063 24.5531 18.0188 24.5344 18.15C24.525 18.3 24.8344 18.3938 24.8438 18.5719C24.8438 18.7219 24.5344 18.7313 24.5437 18.8813C24.5625 19.1156 24.825 19.1719 24.8156 19.3219C24.8156 19.4625 24.4781 19.5188 24.4688 19.6313C24.4875 19.8563 24.525 25.3313 24.525 25.3313C25.0594 28.125 28.1625 28.8281 29.0437 25.1625ZM31.0969 25.1625C31.875 26.4563 33.9656 26.0719 34.4531 25.1625C34.6031 25.125 34.5188 19.5844 34.5188 19.5844C34.5188 19.5844 34.7531 19.4813 34.7625 19.3031C34.7719 19.1344 34.4625 19.1156 34.4625 18.9C34.4625 18.6844 34.7812 18.7688 34.7812 18.5438C34.7812 18.3375 34.4531 18.3563 34.4719 18.15C34.4906 17.9344 34.7531 17.9625 34.7625 17.7563C34.7719 17.5781 34.6031 17.475 34.5188 17.4H34.7719L35.3719 17.4094C35.7937 17.4094 35.3719 17.5031 35.3719 17.7469C35.3719 17.9063 35.5875 18.0188 35.6062 18.15C35.6062 18.3 35.3063 18.3938 35.2969 18.5719C35.2969 18.7219 35.6063 18.7313 35.5969 18.8813C35.5781 19.1156 35.3156 19.1719 35.3156 19.3219C35.325 19.4625 35.6625 19.5188 35.6625 19.6313L35.6156 25.3313C35.0812 28.125 31.9688 28.8281 31.0969 25.1625V25.1625Z" fill="#FF0000"/>
<path fill-rule="evenodd" clip-rule="evenodd" d="M25.739 17.3539C25.7578 17.398 25.748 17.449 25.7141 17.4829C25.6871 17.5099 25.6465 17.5387 25.6128 17.5627L25.6118 17.5634C25.609 17.5654 25.6061 17.5674 25.6033 17.5694C25.5681 17.5944 25.5324 17.6198 25.4987 17.647C25.462 17.6767 25.433 17.7045 25.4139 17.73C25.3988 17.7502 25.394 17.7633 25.3927 17.7704C25.3945 17.7775 25.3997 17.7857 25.4162 17.7979C25.4422 17.8173 25.4786 17.8335 25.5333 17.8577L25.5343 17.8581C25.5822 17.8793 25.6466 17.9077 25.6991 17.95C25.7567 17.9963 25.8054 18.0632 25.8136 18.1581C25.8226 18.2514 25.78 18.3197 25.728 18.3655C25.6852 18.4031 25.63 18.4306 25.5903 18.4503C25.5878 18.4516 25.5853 18.4528 25.5829 18.4541C25.5355 18.4778 25.505 18.4941 25.4846 18.5122C25.4704 18.5248 25.4676 18.5323 25.4672 18.5415C25.4684 18.5601 25.4739 18.5664 25.4826 18.5735C25.4989 18.5869 25.5238 18.5981 25.5702 18.6165C25.5724 18.6174 25.5746 18.6182 25.5769 18.6192C25.6151 18.6343 25.6722 18.6568 25.7181 18.6942C25.7752 18.7408 25.8141 18.8084 25.8141 18.9C25.8141 19.0765 25.6755 19.1668 25.601 19.2153C25.6 19.216 25.599 19.2167 25.598 19.2173C25.5944 19.2197 25.5909 19.222 25.5875 19.2242C25.5481 19.2498 25.5235 19.2658 25.506 19.283C25.498 19.2909 25.4956 19.2953 25.4951 19.2963C25.4951 19.2963 25.4951 19.2957 25.4951 19.2966L25.4952 19.297C25.4972 19.3353 25.5254 19.3778 25.5769 19.4192C25.6005 19.4382 25.6244 19.4531 25.6426 19.4634C25.6516 19.4684 25.6588 19.4722 25.6636 19.4745C25.666 19.4757 25.6677 19.4765 25.6686 19.4769L25.6693 19.4772L25.6692 19.4772M25.5037 19.6535C25.4817 19.6401 25.4561 19.6228 25.4301 19.6019C25.3621 19.5472 25.2685 19.4492 25.2611 19.3095C25.2563 19.2224 25.2979 19.1588 25.3419 19.1156C25.3774 19.0809 25.4231 19.0513 25.4576 19.029C25.4619 19.0263 25.466 19.0236 25.47 19.021C25.5581 18.9636 25.5797 18.9367 25.5797 18.9C25.5797 18.8838 25.5764 18.8811 25.5699 18.8759C25.555 18.8636 25.5312 18.8532 25.4837 18.8343C25.4822 18.8337 25.4806 18.8331 25.4791 18.8325C25.4399 18.8169 25.3815 18.7938 25.3337 18.7546C25.2769 18.7078 25.2367 18.6405 25.2329 18.5487C25.2328 18.547 25.2328 18.5454 25.2328 18.5438C25.2328 18.4509 25.2765 18.3836 25.329 18.3369C25.3754 18.2957 25.4333 18.2668 25.4748 18.2461C25.4759 18.2455 25.477 18.245 25.4781 18.2444C25.5271 18.2199 25.5554 18.2051 25.5732 18.1895C25.5774 18.1858 25.5795 18.1832 25.5804 18.182C25.5804 18.1816 25.5803 18.1811 25.5803 18.1804L25.5801 18.1785C25.5787 18.1614 25.5725 18.1489 25.5522 18.1326C25.5273 18.1126 25.4914 18.0954 25.4386 18.0721C25.4354 18.0707 25.4321 18.0692 25.4288 18.0677C25.3836 18.0479 25.3245 18.0219 25.2762 17.9859C25.2196 17.9438 25.1669 17.8801 25.1583 17.7856C25.158 17.7821 25.1578 17.7786 25.1578 17.775C25.1578 17.7002 25.1907 17.6371 25.2263 17.5895C25.2454 17.5641 25.2673 17.5403 25.29 17.5185L24.8057 17.526C24.8462 17.5795 24.8859 17.6537 24.8859 17.7469C24.8859 17.8767 24.7989 17.9764 24.747 18.0359L24.7469 18.0361C24.7407 18.0431 24.7349 18.0498 24.7293 18.0561C24.7068 18.0817 24.6888 18.1021 24.6738 18.1229C24.6615 18.1398 24.6555 18.1513 24.6527 18.1586C24.6546 18.1622 24.6585 18.1686 24.6666 18.1782C24.6865 18.2015 24.7157 18.2259 24.7571 18.2604L24.7572 18.2605C24.7945 18.2916 24.8421 18.3312 24.8801 18.3769C24.919 18.4235 24.9566 18.4863 24.9608 18.5657C24.9609 18.5678 24.9609 18.5698 24.9609 18.5719C24.9609 18.6565 24.9149 18.7151 24.8711 18.752C24.8325 18.7845 24.7847 18.8095 24.7503 18.8274C24.7483 18.8285 24.7464 18.8295 24.7445 18.8304C24.7033 18.852 24.6791 18.8655 24.664 18.8788C24.663 18.8797 24.6622 18.8804 24.6615 18.8811C24.6696 18.9451 24.7077 18.9895 24.77 19.0474C24.7743 19.0513 24.7788 19.0555 24.7835 19.0598C24.8109 19.085 24.8456 19.1168 24.8719 19.1503C24.9052 19.1928 24.9364 19.251 24.9328 19.3257C24.9313 19.4101 24.8795 19.4685 24.8383 19.5033C24.7957 19.5392 24.7426 19.5682 24.7009 19.5905C24.6947 19.5938 24.6888 19.597 24.683 19.6C24.6451 19.6202 24.6165 19.6354 24.5945 19.651C24.5917 19.6529 24.5894 19.6547 24.5874 19.6563C24.592 19.7765 24.5972 20.1376 24.6026 20.6155C24.6088 21.1606 24.6152 21.8662 24.6211 22.5647C24.6269 23.2632 24.6322 23.9546 24.636 24.4714C24.6379 24.7298 24.6395 24.9446 24.6405 25.0948L24.6421 25.3197C24.9052 26.6759 25.7812 27.4905 26.6625 27.5523C27.4444 27.6071 28.3002 27.0703 28.781 25.6532C28.3538 26.0177 27.784 26.1434 27.2472 26.1056C26.5514 26.0566 25.866 25.7294 25.5849 25.2359C25.5794 25.2296 25.5756 25.224 25.5733 25.2204C25.5638 25.2058 25.5581 25.1912 25.5547 25.1812C25.5476 25.1605 25.5426 25.1364 25.5387 25.113C25.5307 25.0648 25.5241 24.999 25.5184 24.9205C25.5071 24.7624 25.4988 24.5406 25.4929 24.2778C25.481 23.7515 25.4783 23.0543 25.4801 22.3591C25.4818 21.6637 25.488 20.9696 25.4937 20.4494C25.4966 20.1893 25.4993 19.9726 25.5013 19.821C25.5023 19.7503 25.5031 19.6938 25.5037 19.6535ZM24.525 25.3313C24.4078 25.3321 24.4078 25.3321 24.4078 25.332L24.4062 25.0964C24.4051 24.9463 24.4036 24.7315 24.4017 24.4732C24.3979 23.9564 24.3926 23.265 24.3867 22.5666C24.3809 21.8682 24.3744 21.1629 24.3683 20.6181C24.3621 20.0692 24.3562 19.6917 24.352 19.641C24.3514 19.6345 24.3514 19.628 24.352 19.6215C24.3591 19.5364 24.424 19.4845 24.4593 19.4595C24.4945 19.4347 24.5383 19.4115 24.5745 19.3923C24.58 19.3894 24.5854 19.3865 24.5905 19.3838C24.6343 19.3603 24.6662 19.3419 24.6872 19.3242C24.6931 19.3192 24.6966 19.3156 24.6986 19.3133C24.6985 19.3129 24.6984 19.3124 24.6981 19.3117C24.6971 19.3093 24.6945 19.3039 24.6876 19.2951C24.674 19.2778 24.6559 19.2611 24.6281 19.2354C24.6226 19.2303 24.6167 19.2249 24.6104 19.219C24.5421 19.1555 24.4402 19.0559 24.4269 18.8906L24.4268 18.8886C24.4214 18.8028 24.465 18.7416 24.5093 18.7027C24.5482 18.6686 24.5973 18.6429 24.632 18.6248C24.6334 18.6241 24.6346 18.6234 24.6359 18.6227C24.6774 18.601 24.703 18.5871 24.72 18.5728C24.7222 18.571 24.7238 18.5695 24.725 18.5683C24.7223 18.5587 24.7155 18.5454 24.7001 18.527C24.6779 18.5003 24.647 18.4738 24.607 18.4404C24.6048 18.4386 24.6025 18.4367 24.6002 18.4348C24.5653 18.4057 24.5218 18.3695 24.4882 18.3302C24.4519 18.2875 24.4123 18.2242 24.4174 18.1427C24.4176 18.1396 24.4179 18.1365 24.4184 18.1335C24.427 18.0728 24.4569 18.0227 24.4841 17.9853C24.5063 17.9546 24.5334 17.9238 24.5564 17.8977C24.5613 17.8922 24.5659 17.887 24.5703 17.882C24.6309 17.8125 24.6516 17.7763 24.6516 17.7469C24.6516 17.7223 24.641 17.6957 24.6158 17.6635C24.5965 17.6388 24.577 17.6203 24.555 17.5994C24.5453 17.5902 24.5351 17.5805 24.5242 17.5696L24.5238 17.5692C24.5119 17.5574 24.4858 17.5313 24.4716 17.4983C24.4631 17.4786 24.4538 17.445 24.4651 17.406C24.4767 17.366 24.5036 17.3416 24.5248 17.3284C24.5601 17.3064 24.6034 17.3004 24.6329 17.2973C24.6682 17.2937 24.713 17.2922 24.7678 17.2922L25.3669 17.2829C25.3684 17.2828 25.3699 17.2828 25.3714 17.2829C25.4571 17.2848 25.5429 17.2848 25.6286 17.2829C25.6764 17.2818 25.7202 17.3099 25.739 17.3539M24.7285 18.5644C24.7285 18.5644 24.7284 18.5646 24.7281 18.565C24.7283 18.5646 24.7285 18.5644 24.7285 18.5644ZM34.4092 17.3584C34.4265 17.3129 34.4701 17.2828 34.5188 17.2828H34.7719L34.7737 17.2829L35.3728 17.2922C35.4265 17.2922 35.4705 17.2937 35.5053 17.2974C35.5343 17.3004 35.5775 17.3065 35.6128 17.329C35.6341 17.3426 35.6604 17.3672 35.6716 17.4067C35.6824 17.445 35.6735 17.4779 35.6653 17.4974C35.6514 17.5303 35.6258 17.5564 35.6142 17.5683L35.6138 17.5687C35.6031 17.5796 35.5931 17.5893 35.5836 17.5986C35.5621 17.6194 35.5432 17.6379 35.5243 17.6626C35.4997 17.6946 35.4891 17.7215 35.4891 17.7469C35.4891 17.7763 35.5097 17.8125 35.5703 17.882C35.5747 17.887 35.5794 17.8922 35.5842 17.8977C35.6072 17.9238 35.6343 17.9546 35.6566 17.9853C35.6837 18.0227 35.7136 18.0728 35.7223 18.1335C35.723 18.1389 35.7234 18.1445 35.7234 18.15C35.7234 18.2286 35.6839 18.2892 35.6478 18.3309C35.615 18.3688 35.5733 18.404 35.5394 18.4326C35.5364 18.4351 35.5336 18.4375 35.5308 18.4399C35.4917 18.473 35.4616 18.4994 35.4401 18.5259C35.4249 18.5445 35.4182 18.5581 35.4155 18.5682C35.4168 18.5695 35.4184 18.571 35.4206 18.5728C35.4376 18.5871 35.4632 18.601 35.5047 18.6227L35.5086 18.6248C35.5433 18.6429 35.5925 18.6686 35.6313 18.7027C35.6756 18.7416 35.7192 18.8028 35.7138 18.8886L35.7137 18.8906C35.7004 19.0562 35.5984 19.1557 35.5283 19.2197C35.5203 19.2271 35.5129 19.2337 35.5061 19.2399C35.4796 19.2638 35.4616 19.2802 35.4471 19.2975C35.4418 19.304 35.4384 19.309 35.4363 19.3126C35.4389 19.3152 35.4426 19.3187 35.4477 19.3228C35.4706 19.3414 35.5037 19.3602 35.5478 19.3838C35.5518 19.3859 35.5559 19.3881 35.5602 19.3904C35.5973 19.4101 35.6428 19.4343 35.6789 19.4607C35.7139 19.4863 35.7797 19.5418 35.7797 19.6313L35.7797 19.6322L35.7328 25.3322C35.7327 25.3393 35.7321 25.3464 35.7307 25.3533C35.4569 26.7848 34.5139 27.7144 33.491 27.7861C32.4552 27.8586 31.4254 27.0501 30.9829 25.1896L31.0969 25.1625L31.1973 25.1021C31.5565 25.6993 32.223 25.9179 32.8757 25.8718C33.5349 25.8253 34.1325 25.5127 34.3498 25.1072C34.3527 25.1019 34.3558 25.0969 34.3594 25.0922C34.3604 25.0876 34.3618 25.0813 34.3632 25.0731C34.3698 25.0363 34.3762 24.9795 34.3822 24.903C34.394 24.7511 34.4029 24.534 34.4095 24.2722C34.4227 23.7491 34.4262 23.0543 34.425 22.3596C34.4238 21.6652 34.418 20.9718 34.4124 20.452C34.4096 20.1921 34.4069 19.9756 34.4049 19.8241C34.4039 19.7484 34.4031 19.6889 34.4025 19.6483L34.4016 19.5862C34.4016 19.5862 34.4016 19.5862 34.5188 19.5844L34.4016 19.5862C34.4009 19.5393 34.4283 19.4964 34.4712 19.4773C34.4712 19.4773 34.4712 19.4773 34.4712 19.4773C34.4712 19.4773 34.4713 19.4773 34.4713 19.4772C34.4714 19.4772 34.4713 19.4772 34.4713 19.4772C34.4713 19.4772 34.4714 19.4772 34.4714 19.4772C34.4715 19.4772 34.4714 19.4772 34.4714 19.4772C34.4715 19.4772 34.4715 19.4771 34.4716 19.4771L34.472 19.4769C34.473 19.4765 34.4747 19.4757 34.477 19.4745C34.4818 19.4722 34.4891 19.4684 34.498 19.4634C34.5162 19.4531 34.5401 19.4382 34.5637 19.4192C34.6152 19.3778 34.6435 19.3353 34.6455 19.297L34.6455 19.2966C34.6456 19.2944 34.6454 19.2941 34.6451 19.2937C34.6445 19.2923 34.6423 19.288 34.635 19.2804C34.6189 19.2636 34.5962 19.2479 34.5588 19.2221C34.5557 19.2199 34.5526 19.2178 34.5493 19.2155L34.5476 19.2143C34.4759 19.1647 34.3453 19.0743 34.3453 18.9C34.3453 18.811 34.3808 18.7439 34.4355 18.6965C34.4792 18.6586 34.5336 18.6355 34.5691 18.6205C34.5715 18.6195 34.5737 18.6186 34.5759 18.6176C34.6193 18.5991 34.64 18.5888 34.6527 18.5772C34.6582 18.5723 34.6641 18.5669 34.6641 18.5438C34.6641 18.5289 34.6602 18.5199 34.6474 18.5071C34.6296 18.4893 34.6036 18.4735 34.5601 18.4479L34.5567 18.4459C34.52 18.4243 34.4669 18.3931 34.4262 18.349C34.3784 18.2973 34.3472 18.228 34.3551 18.1397M34.637 19.6535C34.6375 19.6938 34.6383 19.7503 34.6393 19.821C34.6413 19.9726 34.644 20.1893 34.6468 20.4495C34.6523 20.9697 34.6582 21.6638 34.6594 22.3592C34.6605 23.0544 34.657 23.7517 34.6438 24.2781C34.6372 24.5409 34.6281 24.7629 34.6158 24.9211C34.6097 24.9997 34.6026 25.0658 34.5939 25.1143C34.5897 25.1379 34.5843 25.1624 34.5766 25.1835C34.5728 25.1938 34.5666 25.2086 34.5564 25.2234C34.5541 25.2267 34.5508 25.2313 34.5463 25.2364C34.2693 25.7299 33.5861 26.0566 32.8922 26.1056C32.3555 26.1435 31.7851 26.0173 31.3578 25.6517C31.8352 27.0699 32.6914 27.6071 33.4746 27.5523C34.3572 27.4905 35.2355 26.6757 35.4985 25.3196L35.5451 19.6534C35.5437 19.6523 35.5421 19.6511 35.5404 19.6498C35.5187 19.6339 35.4886 19.6179 35.4471 19.5957L35.4374 19.5905C35.3959 19.5684 35.3429 19.5397 35.2998 19.5047C35.258 19.4706 35.2043 19.4136 35.1987 19.3297C35.1985 19.3271 35.1984 19.3245 35.1984 19.3219C35.1984 19.2467 35.2324 19.1893 35.2667 19.1479C35.293 19.1162 35.3271 19.0856 35.3544 19.0609C35.36 19.0559 35.3653 19.0512 35.3702 19.0467C35.433 18.9893 35.471 18.9449 35.4791 18.8811C35.4784 18.8804 35.4776 18.8797 35.4766 18.8788C35.4615 18.8655 35.4373 18.852 35.3961 18.8304C35.3942 18.8295 35.3923 18.8285 35.3904 18.8274C35.356 18.8095 35.3081 18.7845 35.2696 18.752C35.2257 18.7151 35.1797 18.6565 35.1797 18.5719C35.1797 18.5707 35.1797 18.5695 35.1797 18.5682C35.1798 18.5674 35.1798 18.5666 35.1798 18.5657C35.184 18.4873 35.2201 18.4249 35.2583 18.378C35.2956 18.3321 35.3423 18.2923 35.3794 18.261L35.383 18.2579C35.422 18.2249 35.4503 18.2009 35.4706 18.1775C35.4795 18.1672 35.4842 18.16 35.4866 18.1554C35.4834 18.1481 35.4775 18.1375 35.4669 18.1229C35.4518 18.1021 35.4338 18.0817 35.4113 18.0561C35.4057 18.0497 35.3999 18.0431 35.3937 18.0361L35.3936 18.0359C35.3417 17.9764 35.2547 17.8767 35.2547 17.7469C35.2547 17.6539 35.2938 17.5797 35.3337 17.526L34.8077 17.5178C34.8514 17.5817 34.8847 17.6627 34.8795 17.7621C34.8719 17.9247 34.7583 17.9994 34.6926 18.0426C34.6901 18.0442 34.6877 18.0458 34.6853 18.0474C34.6136 18.0948 34.5926 18.114 34.5886 18.1602L34.5886 18.1606C34.5872 18.1753 34.59 18.181 34.5984 18.1901C34.6127 18.2056 34.636 18.2206 34.6789 18.2459C34.6811 18.2471 34.6833 18.2484 34.6855 18.2497C34.7215 18.2709 34.7725 18.3008 34.8131 18.3414C34.8613 18.3895 34.8984 18.4555 34.8984 18.5438C34.8984 18.6332 34.8645 18.7016 34.8102 18.7508C34.7649 18.7919 34.7085 18.8159 34.6719 18.8315L34.6678 18.8332C34.6232 18.8523 34.6023 18.8621 34.5891 18.8735L34.5887 18.8739C34.5838 18.8781 34.5797 18.8817 34.5797 18.9C34.5797 18.9399 34.6017 18.9667 34.6827 19.0228C34.6864 19.0253 34.6902 19.028 34.6943 19.0308C34.7268 19.0531 34.7704 19.083 34.8041 19.1182C34.8465 19.1623 34.8842 19.2252 34.8795 19.3096L34.7625 19.3031L34.8795 19.3093C34.8795 19.3094 34.8795 19.3095 34.8795 19.3096C34.872 19.4493 34.7785 19.5473 34.7105 19.6019C34.6845 19.6228 34.6589 19.6401 34.637 19.6535ZM35.4891 18.1492C35.4891 18.1492 35.4891 18.1492 35.4891 18.1494ZM35.5545 19.6619C35.5544 19.6619 35.554 19.6615 35.5533 19.6605C35.5542 19.6614 35.5545 19.6619 35.5545 19.6619ZM35.4121 18.5644C35.4121 18.5644 35.4123 18.5646 35.4125 18.565C35.4122 18.5646 35.4121 18.5644 35.4121 18.5644ZM25.7738 25.0948C25.7727 25.0899 25.7714 25.0832 25.7699 25.0744C25.7637 25.0373 25.7577 24.9802 25.7522 24.9037C25.7413 24.7515 25.7331 24.5344 25.7272 24.2725C25.7153 23.7493 25.7127 23.0544 25.7145 22.3597C25.7162 21.6652 25.7224 20.9718 25.7281 20.452C25.7309 20.1921 25.7337 19.9756 25.7357 19.8241C25.7367 19.7484 25.7376 19.6889 25.7381 19.6483L25.739 19.5862C25.739 19.5862 25.739 19.5862 25.6219 19.5844M25.7765 25.1053C25.7764 25.1052 25.7764 25.1052 25.7764 25.1051C25.7766 25.1056 25.7766 25.1057 25.7765 25.1053ZM25.7738 25.0948C25.7764 25.0985 25.7788 25.1023 25.781 25.1063C26.003 25.5127 26.6035 25.8253 27.2637 25.8718C27.9176 25.9179 28.5842 25.6993 28.9433 25.1021C28.9731 25.0526 29.0346 25.0322 29.0882 25.0541C29.1417 25.076 29.1712 25.1337 29.1577 25.1899C28.7105 27.0501 27.6807 27.8586 26.6461 27.7861C25.6242 27.7144 24.6837 26.7846 24.4099 25.3533C24.4086 25.3463 24.4079 25.3391 24.4078 25.332L24.525 25.3313" fill="black"/>
<path fill-rule="evenodd" clip-rule="evenodd" d="M28.2844 27.7125H31.7813C31.8094 27.6844 30.9938 26.4938 30.0375 26.5875C28.9594 26.6156 28.2281 27.7125 28.2844 27.7125ZM39.4313 27.6188H34.65C34.65 27.6188 35.2688 27.2625 35.4375 26.925C35.7469 27.0938 35.6625 27.2625 36.2813 27.2906C36.9 27.3188 37.4906 26.5875 38.0813 26.6156C38.6719 26.6437 39.4313 27.6469 39.4313 27.6281V27.6188ZM20.5875 27.6188H25.3688C25.3688 27.6188 24.75 27.2625 24.5813 26.925C24.2719 27.0938 24.3563 27.2625 23.7375 27.2906C23.1188 27.3188 22.5188 26.5875 21.9375 26.6156C21.3469 26.6437 20.5875 27.6469 20.5875 27.6281V27.6188ZM20.9438 26.1188L24.3469 26.1469C24.3469 26.1469 24.1313 25.6781 24.1031 25.1062C23.2219 24.8062 22.5094 25.7625 21.8719 25.7906C21.2438 25.8188 20.5875 25.1062 20.5875 25.1062L20.9438 26.1188ZM39.1313 26.1188L35.7188 26.1469C35.7188 26.1469 35.9344 25.6781 35.9625 25.1062C36.8438 24.8062 37.5563 25.7625 38.1938 25.7906C38.8219 25.8188 39.4781 25.1062 39.4781 25.1062L39.1219 26.1188H39.1313ZM29.1563 26.1562L30.8813 26.1094C30.8813 26.1094 30.9094 25.5844 30.0094 25.5844C29.1094 25.5844 29.1844 26.1844 29.1563 26.1562V26.1562ZM28.1062 25.4156C28.4355 25.2716 28.7064 25.0205 28.875 24.7031L27.6938 24.7312C27.6938 24.7312 27.15 25.0594 26.8781 25.4156H28.1062ZM31.9313 25.4156C31.602 25.2716 31.3311 25.0205 31.1625 24.7031L32.3438 24.7312C32.3438 24.7312 32.8875 25.0594 33.1594 25.4156H31.9313Z" fill="#083D9C"/>
<path fill-rule="evenodd" clip-rule="evenodd" d="M29.033 24.6056L28.9578 24.7471C28.7793 25.0832 28.4924 25.349 28.1438 25.5015L28.1259 25.5094H26.6887L26.8036 25.3588C26.9476 25.17 27.16 24.9927 27.3319 24.8647C27.4186 24.8001 27.4966 24.7469 27.553 24.7098C27.5812 24.6912 27.6041 24.6766 27.62 24.6666C27.628 24.6617 27.6342 24.6578 27.6385 24.6552L27.6434 24.6521L27.6448 24.6513L27.6451 24.6511L27.6453 24.651C27.6453 24.651 27.6453 24.651 27.6938 24.7313L27.6453 24.651L27.6666 24.6381L29.033 24.6056ZM27.7214 24.8244C27.7209 24.8247 27.7203 24.8251 27.7197 24.8254C27.7048 24.8348 27.6831 24.8486 27.6561 24.8664C27.602 24.902 27.5271 24.9531 27.4439 25.015C27.3269 25.1022 27.1965 25.2087 27.085 25.3219H28.0863C28.3378 25.208 28.552 25.0274 28.7066 24.8009L27.7214 24.8244ZM31.0045 24.6056L32.3709 24.6381L32.3922 24.651L32.3438 24.7313C32.3922 24.651 32.3922 24.651 32.3922 24.651L32.3928 24.6513L32.3941 24.6521L32.399 24.6552C32.4033 24.6578 32.4095 24.6617 32.4175 24.6666C32.4334 24.6766 32.4563 24.6912 32.4845 24.7098C32.5409 24.7469 32.6189 24.8001 32.7056 24.8647C32.8775 24.9927 33.0899 25.17 33.2339 25.3588L33.3489 25.5094H31.9116L31.8937 25.5015C31.5451 25.349 31.2582 25.0832 31.0797 24.7471L31.0045 24.6056ZM32.3161 24.8244C32.3166 24.8247 32.3172 24.8251 32.3178 24.8254C32.3327 24.8348 32.3544 24.8486 32.3814 24.8664C32.4355 24.902 32.5104 24.9531 32.5936 25.015C32.7106 25.1022 32.841 25.2087 32.9526 25.3219H31.9512C31.6997 25.208 31.4855 25.0274 31.331 24.8009L32.3161 24.8244ZM22.8505 25.2435C23.2217 25.0366 23.652 24.8537 24.1333 25.0175L24.1936 25.038L24.1968 25.1016C24.2103 25.3776 24.2693 25.6299 24.3252 25.8137C24.3532 25.9054 24.3802 25.9796 24.4001 26.0306C24.41 26.0561 24.4182 26.0757 24.4238 26.0888C24.4266 26.0953 24.4287 26.1003 24.4301 26.1034L24.4317 26.1069L24.432 26.1076L24.4321 26.1077L24.4938 26.2418L20.8772 26.212L20.4991 25.1374L20.6563 25.0428C20.6564 25.0427 20.6564 25.0427 20.6564 25.0427L20.6567 25.043L20.6579 25.0442C20.6589 25.0454 20.6606 25.0472 20.6629 25.0496C20.6675 25.0544 20.6745 25.0617 20.6837 25.071C20.702 25.0896 20.7291 25.1163 20.7637 25.1485C20.833 25.2129 20.9316 25.2984 21.0489 25.3829C21.2877 25.5548 21.5867 25.7096 21.8677 25.697C22.006 25.6909 22.1551 25.6338 22.3221 25.5465C22.42 25.4954 22.5155 25.4389 22.6154 25.3797C22.6903 25.3354 22.7677 25.2896 22.8505 25.2435ZM20.8003 25.4286L21.0103 26.0256L24.2076 26.052C24.1893 26.0024 24.1678 25.9404 24.1459 25.8683C24.0914 25.6893 24.0334 25.4464 24.0135 25.1768C23.6366 25.0734 23.2884 25.2141 22.9417 25.4073C22.8693 25.4477 22.7944 25.4919 22.7194 25.5361C22.6137 25.5986 22.508 25.661 22.4089 25.7127C22.2355 25.8033 22.0565 25.8763 21.876 25.8843C21.5289 25.8998 21.1857 25.7124 20.9394 25.5351C20.8895 25.4992 20.843 25.4632 20.8003 25.4286ZM36.0521 25.1768C36.0322 25.4464 35.9743 25.6893 35.9198 25.8683C35.8978 25.9404 35.8764 26.0024 35.858 26.052L39.0553 26.0256L39.2653 25.4286C39.2227 25.4632 39.1761 25.4992 39.1263 25.5351C38.8799 25.7124 38.5367 25.8998 38.1896 25.8843C38.0091 25.8763 37.8301 25.8033 37.6567 25.7127C37.5577 25.661 37.4519 25.5986 37.3462 25.5361C37.2713 25.4919 37.1964 25.4477 37.1239 25.4073C36.7773 25.2141 36.4291 25.0734 36.0521 25.1768ZM39.4093 25.0428L39.5666 25.1374L39.2103 26.1499L39.1317 26.1222L39.132 26.2125L39.1313 26.2125L35.5719 26.2418M39.4093 25.0428C39.4092 25.0427 39.4092 25.0427 39.4092 25.0427ZM39.4092 25.0427L39.4089 25.043L39.4078 25.0442C39.4067 25.0454 39.405 25.0472 39.4027 25.0496C39.3981 25.0544 39.3911 25.0617 39.382 25.071C39.3636 25.0895 39.3365 25.1163 39.3019 25.1485C39.2326 25.2129 39.134 25.2984 39.0167 25.3829C38.778 25.5548 38.479 25.7096 38.1979 25.697C38.0597 25.6909 37.9105 25.6338 37.7435 25.5465C37.6456 25.4954 37.5502 25.4389 37.4502 25.3797C37.3753 25.3354 37.2979 25.2896 37.2152 25.2435C36.844 25.0366 36.4136 24.8537 35.9323 25.0175L35.872 25.038L35.8689 25.1016C35.8553 25.3776 35.7964 25.6299 35.7404 25.8137C35.7125 25.9054 35.6855 25.9796 35.6656 26.0306C35.6556 26.0561 35.6475 26.0757 35.6419 26.0888C35.6404 26.0921 35.6392 26.095 35.6381 26.0975C35.6371 26.0999 35.6362 26.1019 35.6355 26.1034L35.6339 26.1069L35.6336 26.1076M29.1778 25.829C29.2966 25.65 29.5365 25.4906 30.0094 25.4906C30.4776 25.4906 30.7271 25.6279 30.8559 25.7882C30.919 25.8667 30.9489 25.9459 30.9629 26.0061C30.9699 26.0362 30.9729 26.0617 30.9742 26.0804C30.9749 26.0897 30.9751 26.0974 30.9751 26.1031C30.9751 26.1048 30.9751 26.1064 30.9751 26.1077C30.9751 26.1087 30.975 26.1095 30.975 26.1103L30.9749 26.1127L30.9749 26.1137L30.9749 26.1141L30.9749 26.1142C30.9749 26.1143 30.9749 26.1144 30.8813 26.1094L30.9749 26.1144L30.9702 26.2007L29.1757 26.2495C29.1316 26.2584 29.0991 26.2317 29.09 26.2225L29.1563 26.1563L29.1537 26.0632C29.1436 26.0638 29.1327 26.0661 29.1211 26.0712C29.1012 26.0799 29.0897 26.0931 29.0844 26.1003C29.0788 26.1079 29.0757 26.1145 29.0743 26.1177C29.0724 26.1223 29.0713 26.1261 29.071 26.1276C29.0711 26.1269 29.0714 26.1256 29.0717 26.1236C29.0721 26.1214 29.0726 26.1182 29.0733 26.1142C29.0753 26.1015 29.0786 26.0808 29.0831 26.0595C29.0956 26.0002 29.1204 25.9155 29.1778 25.829ZM29.2762 26.0592L30.7718 26.0186C30.7607 25.9851 30.7418 25.9455 30.7097 25.9056C30.6276 25.8034 30.4412 25.6781 30.0094 25.6781C29.5823 25.6781 29.4096 25.8188 29.334 25.9327C29.3047 25.9768 29.2872 26.0209 29.2762 26.0592ZM31.8757 27.7132C31.8753 27.724 31.8727 27.7536 31.8475 27.7788L31.8201 27.8063H28.2844C28.2632 27.8063 28.2357 27.799 28.214 27.7759C28.1946 27.7553 28.1896 27.7322 28.1882 27.7198C28.1857 27.6972 28.1915 27.6784 28.1935 27.672C28.199 27.6547 28.2083 27.6362 28.2174 27.6197C28.2369 27.5847 28.2677 27.5381 28.308 27.4844C28.3889 27.3765 28.5129 27.2339 28.6731 27.0907C28.9913 26.806 29.463 26.5098 30.0317 26.4939C30.5489 26.4447 31.0164 26.7407 31.3414 27.0348C31.5062 27.1838 31.6391 27.3367 31.7295 27.4546C31.7747 27.5135 31.81 27.5647 31.8336 27.6033C31.8451 27.6222 31.8552 27.6401 31.8621 27.6554C31.8654 27.6625 31.8697 27.6728 31.8725 27.6844C31.8739 27.6899 31.8761 27.7003 31.8757 27.7132ZM31.2156 27.1738C30.9015 26.8896 30.4844 26.6379 30.0467 26.6808L30.0433 26.6811L30.0399 26.6812C29.5321 26.6945 29.1003 26.9601 28.798 27.2304C28.6477 27.3649 28.532 27.4983 28.458 27.5969C28.4523 27.6045 28.4469 27.6117 28.4418 27.6188H31.618C31.6067 27.6031 31.5943 27.5864 31.5807 27.5687C31.4962 27.4584 31.3708 27.3142 31.2156 27.1738ZM36.777 27.2794C36.6183 27.3466 36.4508 27.3922 36.277 27.3843C35.9597 27.3699 35.8054 27.3188 35.6894 27.2372C35.649 27.2087 35.6128 27.1759 35.5803 27.1462C35.5701 27.137 35.5603 27.128 35.5508 27.1196C35.5264 27.0981 35.5004 27.0764 35.4693 27.0547C35.361 27.2133 35.1853 27.3625 35.0366 27.4736C35.0125 27.4915 34.9888 27.5087 34.9659 27.525H39.2165C39.1385 27.4366 39.0335 27.3224 38.913 27.2072C38.7836 27.0836 38.6383 26.9607 38.4912 26.8675C38.3427 26.7735 38.2009 26.7152 38.0768 26.7093C37.949 26.7032 37.8164 26.738 37.6751 26.7992C37.5356 26.8597 37.3945 26.9426 37.2464 27.0298L37.2393 27.0339C37.0908 27.1213 36.9353 27.2124 36.777 27.2794ZM39.4643 27.525C39.4624 27.5228 39.4604 27.5205 39.4583 27.5181C39.4372 27.4932 39.4085 27.4596 39.3739 27.42C39.2925 27.327 39.1771 27.2003 39.0425 27.0717C38.9083 26.9434 38.753 26.8114 38.5915 26.7091C38.4315 26.6078 38.257 26.5301 38.0857 26.522C37.9182 26.514 37.7555 26.5601 37.6006 26.6272C37.4503 26.6923 37.3006 26.7803 37.1562 26.8653L37.1443 26.8723C36.994 26.9607 36.8489 27.0454 36.7039 27.1067C36.5595 27.1679 36.4211 27.2031 36.2855 27.197C35.9841 27.1833 35.8712 27.1359 35.7973 27.0839C35.7673 27.0627 35.7433 27.041 35.7135 27.0138C35.7018 27.0032 35.6892 26.9917 35.6749 26.9791C35.6264 26.9362 35.5678 26.8893 35.4824 26.8427L35.3971 26.7962L35.3537 26.8831C35.2801 27.0301 35.1001 27.1921 34.9244 27.3233C34.8388 27.3872 34.7582 27.441 34.6989 27.4788C34.6693 27.4976 34.6452 27.5125 34.6285 27.5225C34.6202 27.5275 34.6137 27.5313 34.6094 27.5339L34.6046 27.5367L34.6035 27.5374L34.6032 27.5375L34.2993 27.7125H39.3895C39.3934 27.7144 39.399 27.7168 39.4058 27.7187C39.414 27.721 39.4318 27.7248 39.4535 27.7194C39.4793 27.7131 39.5009 27.6962 39.5134 27.6734C39.524 27.6542 39.525 27.6365 39.525 27.6281V27.525H39.4643ZM23.3133 27.1067C23.4586 27.1678 23.5976 27.2031 23.7332 27.197C24.0347 27.1833 24.1476 27.1359 24.2214 27.0839C24.2515 27.0627 24.2754 27.041 24.3053 27.0138C24.317 27.0032 24.3296 26.9917 24.3438 26.9791C24.3924 26.9362 24.4509 26.8893 24.5364 26.8427L24.6217 26.7962L24.6651 26.8831C24.7386 27.0301 24.9187 27.1921 25.0944 27.3233C25.18 27.3872 25.2606 27.441 25.3198 27.4788C25.3494 27.4976 25.3736 27.5125 25.3902 27.5225C25.3986 27.5275 25.405 27.5313 25.4093 27.5339L25.4141 27.5367L25.4153 27.5374L25.4155 27.5375M21.933 26.522C22.0985 26.514 22.2601 26.5602 22.4143 26.6272C22.563 26.6918 22.7118 26.779 22.8558 26.8634C22.8608 26.8664 22.8658 26.8693 22.8708 26.8722C23.0217 26.9606 23.1676 27.0453 23.3133 27.1067" fill="#083D9C"/>
<path fill-rule="evenodd" clip-rule="evenodd" d="M-3.75 33.75H63.75V45H-3.75V33.75ZM-3.75 0H63.75V11.25H-3.75V0Z" fill="#DE2010"/>
</g>
<defs>
<clipPath id="clip0_4_1628">
<rect width="60" height="45" fill="white"/>
</clipPath>
</defs>
</svg>
