<svg width="60" height="45" viewBox="0 0 60 45" fill="none" xmlns="http://www.w3.org/2000/svg">
<g clip-path="url(#clip0_4_7039)">
<path d="M0 0H60V45H0V0Z" fill="white"/>
<path d="M25.5 0H34.5V45H25.5V0Z" fill="#FF0000"/>
<path d="M0 18H60V27H0V18Z" fill="#FF0000"/>
<g style="mix-blend-mode:multiply">
<path fill-rule="evenodd" clip-rule="evenodd" d="M13.7625 34.9781C13.8563 33.4031 14.1375 32.0625 14.1375 32.0625C14.1375 32.0625 13.2188 32.1562 12.75 32.1562C12.2906 32.1562 11.3625 32.0625 11.3625 32.0625C11.3625 32.0625 11.6437 33.4031 11.7375 34.9875C10.1531 34.8938 8.8125 34.6125 8.8125 34.6125C8.8125 34.6125 8.90625 35.3062 8.90625 36C8.90625 36.6938 8.8125 37.3875 8.8125 37.3875C8.8125 37.3875 10.1531 37.1062 11.7375 37.0125C11.6437 38.5969 11.3625 39.9375 11.3625 39.9375C11.3625 39.9375 12.0562 39.8438 12.75 39.8438C13.4438 39.8438 14.1375 39.9375 14.1375 39.9375C14.1375 39.9375 13.8563 38.5969 13.7625 37.0125C15.3469 37.1062 16.6875 37.3875 16.6875 37.3875C16.6875 37.3875 16.5938 36.4688 16.5938 36C16.5938 35.5406 16.6875 34.6125 16.6875 34.6125C16.6875 34.6125 15.3469 34.8938 13.7719 34.9875L13.7625 34.9781ZM48.2625 7.97812C48.3562 6.40312 48.6375 5.0625 48.6375 5.0625C48.6375 5.0625 47.7188 5.15625 47.25 5.15625C46.7906 5.15625 45.8625 5.0625 45.8625 5.0625C45.8625 5.0625 46.1438 6.40312 46.2375 7.97812C44.6531 7.88437 43.3125 7.6125 43.3125 7.6125C43.3125 7.6125 43.4062 8.30625 43.4062 9C43.4062 9.69375 43.3125 10.3875 43.3125 10.3875C43.3125 10.3875 44.6531 10.1063 46.2375 10.0125C46.1438 11.5969 45.8625 12.9375 45.8625 12.9375C45.8625 12.9375 46.5562 12.8438 47.25 12.8438C47.9438 12.8438 48.6375 12.9375 48.6375 12.9375C48.6375 12.9375 48.3562 11.5969 48.2625 10.0219C49.8469 10.1156 51.1875 10.3969 51.1875 10.3969C51.1875 10.3969 51.0938 9.45938 51.0938 9C51.0938 8.54062 51.1875 7.6125 51.1875 7.6125C51.1875 7.6125 49.8469 7.89375 48.2625 7.9875V7.97812ZM13.7625 7.97812C13.8563 6.40312 14.1375 5.0625 14.1375 5.0625C14.1375 5.0625 13.2188 5.15625 12.75 5.15625C12.2906 5.15625 11.3625 5.0625 11.3625 5.0625C11.3625 5.0625 11.6437 6.40312 11.7375 7.9875C10.1531 7.89375 8.8125 7.6125 8.8125 7.6125C8.8125 7.6125 8.90625 8.30625 8.90625 9C8.90625 9.69375 8.8125 10.3875 8.8125 10.3875C8.8125 10.3875 10.1531 10.1063 11.7375 10.0125C11.6437 11.5969 11.3625 12.9375 11.3625 12.9375C11.3625 12.9375 12.0562 12.8438 12.75 12.8438C13.4438 12.8438 14.1375 12.9375 14.1375 12.9375C14.1375 12.9375 13.8563 11.5969 13.7625 10.0125C15.3469 10.1063 16.6875 10.3875 16.6875 10.3875C16.6875 10.3875 16.5938 9.46875 16.5938 9C16.5938 8.54062 16.6875 7.6125 16.6875 7.6125C16.6875 7.6125 15.3469 7.89375 13.7719 7.9875L13.7625 7.97812ZM48.2625 34.9781C48.3562 33.4031 48.6375 32.0625 48.6375 32.0625C48.6375 32.0625 47.7188 32.1562 47.25 32.1562C46.7906 32.1562 45.8625 32.0625 45.8625 32.0625C45.8625 32.0625 46.1438 33.4031 46.2375 34.9875C44.6531 34.8938 43.3125 34.6125 43.3125 34.6125C43.3125 34.6125 43.4062 35.3062 43.4062 36C43.4062 36.6938 43.3125 37.3875 43.3125 37.3875C43.3125 37.3875 44.6531 37.1062 46.2375 37.0125C46.1438 38.5969 45.8625 39.9375 45.8625 39.9375C45.8625 39.9375 46.5562 39.8438 47.25 39.8438C47.9438 39.8438 48.6375 39.9375 48.6375 39.9375C48.6375 39.9375 48.3562 38.5969 48.2625 37.0125C49.8469 37.1062 51.1875 37.3875 51.1875 37.3875C51.1875 37.3875 51.0938 36.4688 51.0938 36C51.0938 35.5406 51.1875 34.6125 51.1875 34.6125C51.1875 34.6125 49.8469 34.8938 48.2625 34.9875V34.9781Z" fill="#FF0000"/>
</g>
</g>
<defs>
<clipPath id="clip0_4_7039">
<rect width="60" height="45" fill="white"/>
</clipPath>
</defs>
</svg>
