<svg width="60" height="45" viewBox="0 0 60 45" fill="none" xmlns="http://www.w3.org/2000/svg">
<g clip-path="url(#clip0_4_7044)">
<path d="M0 0H60V45H0V0Z" fill="#CE1126"/>
<path d="M6.29999 6.30005H53.7V38.7H6.29999V6.30005Z" fill="#007A5E"/>
<path d="M6.29999 6.30933H53.7L6.29999 38.7093H53.7L6.29999 6.30933Z" fill="#FCD116"/>
<path d="M29.9906 27.9094C32.973 27.9094 35.3906 25.4917 35.3906 22.5094C35.3906 19.527 32.973 17.1094 29.9906 17.1094C27.0083 17.1094 24.5906 19.527 24.5906 22.5094C24.5906 25.4917 27.0083 27.9094 29.9906 27.9094Z" fill="#CE1126"/>
<path d="M9.59064 22.5656C10.3028 23.8937 11.3968 24.9779 12.7313 25.6781C12.6793 24.2129 12.3183 22.7753 11.6719 21.4594L9.59064 22.5656V22.5656Z" fill="#CE1126"/>
<path d="M8.4469 18.2532C9.4219 20.2875 5.90628 25.1625 11.775 26.3063C10.9826 25.1581 10.6207 23.767 10.7532 22.3782C12.0575 22.9811 13.1279 23.9955 13.8 25.2657C15.3375 19.6875 9.86253 20.0344 8.4469 18.2532Z" fill="#FCD116"/>
</g>
<defs>
<clipPath id="clip0_4_7044">
<rect width="60" height="45" fill="white"/>
</clipPath>
</defs>
</svg>
