<svg width="60" height="45" viewBox="0 0 60 45" fill="none" xmlns="http://www.w3.org/2000/svg">
<g clip-path="url(#clip0_4_6482)">
<path fill-rule="evenodd" clip-rule="evenodd" d="M0 0H60V45H0V0Z" fill="#BE0027"/>
<path fill-rule="evenodd" clip-rule="evenodd" d="M2.4 2.55933H57.6656V42.7218H2.4V2.55933Z" fill="#3B5AA3"/>
<path fill-rule="evenodd" clip-rule="evenodd" d="M29.475 38.7374C29.5977 38.796 29.7317 38.8272 29.8677 38.8288C30.0037 38.8305 30.1384 38.8025 30.2625 38.7468C43.1813 31.8749 43.1813 13.0312 30.2719 6.25307C30.1433 6.19454 30.0032 6.16582 29.8619 6.16907C29.7207 6.17232 29.582 6.20744 29.4563 6.27182C16.8656 13.1531 16.8281 31.7812 29.4656 38.7374H29.475Z" fill="#CBE0E5"/>
<path fill-rule="evenodd" clip-rule="evenodd" d="M29.475 39.0844C29.6625 39.2438 30.075 39.225 30.2625 39.0844C39.7781 31.9594 39.825 27.525 39.4125 27.525H20.5688C20.2875 27.525 20.7375 32.0438 29.475 39.0844Z" fill="#ADD2D9"/>
<path fill-rule="evenodd" clip-rule="evenodd" d="M22.0594 31.05C22.9212 30.7799 23.8523 30.8366 24.675 31.2093C25.3875 31.5843 25.8 31.5843 26.5688 31.5843C27.375 31.6031 28.0031 32.1937 28.875 32.2218C30.4781 32.2593 31.1531 33.0562 29.9063 33.0656C29.325 33.0656 28.0594 32.6625 27.45 32.7468C26.175 32.8781 25.3688 33.1593 24.1688 34.5L25.5563 35.4375C26.7563 34.9593 26.9531 34.4062 27.6188 34.3875C28.3688 34.3593 28.6219 33.9 29.4938 33.9C30.5347 33.9869 31.5827 33.8853 32.5875 33.6C33.975 33.2812 33.3188 32.3062 32.475 31.9593C31.7906 31.6687 30.525 31.95 29.7375 31.6593C29.1375 31.425 29.625 31.05 29.9531 30.975C30.2719 30.9093 30.6188 31.0218 31.0219 31.0875C31.7438 31.1437 32.6531 31.0781 33.2813 30.975C34.5938 30.7781 34.5375 30.3937 35.1563 30.3843C35.625 30.3562 35.9719 30.225 36.2813 30C36.6563 29.7468 37.0406 29.25 37.4906 29.2687L38.6813 29.3156L36.9938 33.1031L32.2406 37.95L29.775 38.8875L24.3563 35.3531L21.6281 31.1625L22.0688 31.05H22.0594Z" fill="#FDF9A1"/>
<path fill-rule="evenodd" clip-rule="evenodd" d="M28.2938 27.375L39.1688 27.3188L39.3563 26.3531C39.3563 26.3531 38.9719 26.2969 38.6531 26.2781C38.2688 26.25 37.5938 26.6906 37.1531 26.6813C36.825 26.6813 36.4688 26.1188 36.15 26.1188C35.5875 26.1188 35.55 26.6156 35.025 26.6344C34.6031 26.6156 34.425 26.2969 33.8719 26.3344C33.3094 26.3625 33.3469 26.6813 32.625 26.6625C31.6688 26.6344 31.2844 25.8094 30.5156 25.8C29.2406 25.7813 29.2031 27.0188 28.2844 27.3656L28.2938 27.375Z" fill="#179A3B"/>
<path fill-rule="evenodd" clip-rule="evenodd" d="M28.2937 27.6L39.4875 27.5438V27.2438L28.0312 27.3L28.2844 27.6H28.2937Z" fill="#FDF9A1"/>
<path fill-rule="evenodd" clip-rule="evenodd" d="M32.8875 30.9657C33.0656 31.6219 33.2437 31.8469 33.9375 32.025C34.6219 32.1844 35.6719 31.5188 35.025 30.8719C34.4063 30.2719 33.75 30.1219 33.1969 29.5782C32.025 28.425 30.2625 25.5938 30.2625 23.5969C30.2625 21.8813 30.0938 18.3657 30.0938 15.0375C30.0938 14.8219 29.4375 15.6375 29.4375 15.8625C29.475 18.7969 29.475 21.0188 29.5875 23.9813C29.775 26.1469 30.8062 27.6094 31.7156 28.9219C32.1187 29.5594 32.7094 30.2344 32.8875 30.9657Z" fill="#A79270"/>
<path d="M25.829 21.784C25.804 21.7077 25.7711 21.6393 25.7303 21.5789C25.6903 21.5177 25.6423 21.4655 25.5864 21.4225C25.5312 21.3794 25.4685 21.3465 25.3982 21.3238C25.3279 21.3012 25.2509 21.2898 25.167 21.2898C25.0294 21.2898 24.9044 21.3253 24.7918 21.3964C24.6792 21.4674 24.5896 21.5721 24.5231 21.7104C24.4566 21.8487 24.4234 22.0183 24.4234 22.2193C24.4234 22.4203 24.457 22.59 24.5243 22.7283C24.5915 22.8666 24.6826 22.9712 24.7974 23.0423C24.9123 23.1133 25.0415 23.1488 25.1851 23.1488C25.3181 23.1488 25.4352 23.1205 25.5365 23.0638C25.6385 23.0064 25.7179 22.9255 25.7745 22.8212C25.832 22.7162 25.8607 22.5926 25.8607 22.4506L25.9468 22.4687H25.2486V22.2193H26.1327V22.4687C26.1327 22.6599 26.0919 22.8261 26.0103 22.9674C25.9295 23.1088 25.8176 23.2183 25.6748 23.2962C25.5327 23.3732 25.3695 23.4118 25.1851 23.4118C24.9796 23.4118 24.799 23.3634 24.6433 23.2667C24.4884 23.17 24.3675 23.0324 24.2806 22.8541C24.1944 22.6758 24.1513 22.4642 24.1513 22.2193C24.1513 22.0357 24.1759 21.8706 24.225 21.724C24.2749 21.5766 24.3452 21.4512 24.4359 21.3476C24.5265 21.2441 24.6338 21.1648 24.7578 21.1096C24.8817 21.0544 25.0181 21.0269 25.167 21.0269C25.2894 21.0269 25.4035 21.0454 25.5093 21.0824C25.6158 21.1187 25.7107 21.1704 25.7938 21.2377C25.8777 21.3042 25.9476 21.3839 26.0035 21.4769C26.0594 21.5691 26.098 21.6715 26.1191 21.784H25.829Z" fill="#BD0728"/>
<path fill-rule="evenodd" clip-rule="evenodd" d="M25.167 21.1266C25.0307 21.1266 24.9083 21.1518 24.7983 21.2008C24.6878 21.25 24.5922 21.3206 24.5109 21.4134C24.4299 21.5058 24.3658 21.6193 24.3196 21.7558C24.2745 21.8905 24.2511 22.0446 24.2511 22.2193C24.2511 22.4526 24.2921 22.6486 24.3703 22.8106C24.4497 22.9735 24.5584 23.0961 24.696 23.182C24.834 23.2678 24.9959 23.3121 25.1851 23.3121C25.3552 23.3121 25.5017 23.2766 25.6272 23.2085C25.7537 23.1396 25.8521 23.0432 25.9237 22.9179L25.9239 22.9176C25.9954 22.7939 26.033 22.6454 26.033 22.4687V22.3191H25.3483V22.369H25.7609V22.3276L25.9674 22.3711L25.9591 22.4506H25.9604C25.9604 22.6062 25.9289 22.7468 25.8621 22.869C25.7966 22.9894 25.704 23.084 25.5854 23.1507L25.5852 23.1509C25.467 23.217 25.3326 23.2486 25.1851 23.2486C25.0242 23.2486 24.8766 23.2085 24.745 23.1271C24.6119 23.0448 24.5089 22.9248 24.4346 22.7719C24.359 22.6165 24.3236 22.431 24.3236 22.2193C24.3236 22.0078 24.3586 21.8224 24.4332 21.6672C24.5066 21.5146 24.6078 21.3945 24.7386 21.312C24.8676 21.2306 25.0113 21.1901 25.167 21.1901C25.2599 21.1901 25.3474 21.2027 25.4288 21.2289C25.5095 21.255 25.5827 21.2931 25.6475 21.3436C25.7123 21.3936 25.7676 21.4538 25.8134 21.5237C25.8468 21.5732 25.8751 21.6268 25.8986 21.6843H25.9904C25.9717 21.6289 25.9476 21.577 25.9182 21.5286L25.918 21.5283C25.8682 21.4455 25.8062 21.3748 25.7318 21.3159L25.7311 21.3153C25.6575 21.2558 25.5732 21.2095 25.4772 21.1768L25.4763 21.1766C25.3821 21.1436 25.2792 21.1266 25.167 21.1266ZM25.7529 22.5685H25.1488V22.1196H26.2325V22.4687C26.2325 22.6743 26.1885 22.8583 26.0968 23.0172C26.0068 23.1744 25.8815 23.2971 25.7225 23.3838L25.7224 23.3839C25.5637 23.4699 25.3837 23.5116 25.1851 23.5116C24.9633 23.5116 24.764 23.4591 24.5906 23.3514L24.5905 23.3513C24.4183 23.2438 24.2853 23.0915 24.1909 22.8978L24.1907 22.8975C24.0967 22.7028 24.0516 22.4757 24.0516 22.2193C24.0516 22.0269 24.0773 21.8508 24.1304 21.6923L24.1305 21.692C24.1841 21.5338 24.2604 21.3965 24.3608 21.2819C24.4609 21.1677 24.5799 21.0796 24.7172 21.0185C24.8551 20.9571 25.0055 20.9271 25.167 20.9271C25.2994 20.9271 25.4246 20.9472 25.5418 20.9881C25.6586 21.0279 25.7636 21.0851 25.8562 21.1598C25.9493 21.2338 26.027 21.3225 26.0889 21.4253C26.1514 21.5283 26.1939 21.6421 26.2172 21.7656L26.2394 21.8838H25.7566L25.7341 21.815C25.7118 21.7466 25.6828 21.6868 25.6477 21.6347L25.6473 21.6341L25.6469 21.6335C25.6127 21.5813 25.5723 21.5375 25.5255 21.5015L25.525 21.5011C25.4795 21.4656 25.4274 21.4381 25.3676 21.4188C25.3084 21.3997 25.2419 21.3896 25.167 21.3896C25.0476 21.3896 24.9411 21.4201 24.845 21.4808C24.7506 21.5404 24.6727 21.6296 24.613 21.7536C24.5547 21.8749 24.5231 22.0288 24.5231 22.2193C24.5231 22.4097 24.555 22.5635 24.614 22.6847C24.6741 22.8084 24.7533 22.8977 24.8499 22.9574C24.948 23.0181 25.0588 23.0491 25.1851 23.0491C25.3035 23.0491 25.4034 23.024 25.4877 22.9768C25.5731 22.9287 25.6391 22.8616 25.6869 22.7736L25.687 22.7734C25.7195 22.714 25.7419 22.646 25.7529 22.5685Z" fill="white"/>
<path d="M28.6333 21.071H28.9144V22.6081C28.9144 22.7668 28.877 22.9085 28.8022 23.0332C28.7281 23.1571 28.6235 23.255 28.4882 23.3268C28.3529 23.3978 28.1942 23.4333 28.0121 23.4333C27.83 23.4333 27.6713 23.3978 27.536 23.3268C27.4008 23.255 27.2957 23.1571 27.2209 23.0332C27.1469 22.9085 27.1098 22.7668 27.1098 22.6081V21.071H27.3909V22.5854C27.3909 22.6988 27.4159 22.7997 27.4658 22.8881C27.5156 22.9757 27.5867 23.0449 27.6789 23.0955C27.7718 23.1454 27.8829 23.1703 28.0121 23.1703C28.1413 23.1703 28.2524 23.1454 28.3454 23.0955C28.4383 23.0449 28.5094 22.9757 28.5585 22.8881C28.6083 22.7997 28.6333 22.6988 28.6333 22.5854V21.071Z" fill="#BD0728"/>
<path fill-rule="evenodd" clip-rule="evenodd" d="M27.0101 20.9713H27.4907V22.5855C27.4907 22.6836 27.5121 22.7672 27.5525 22.8389C27.5928 22.9096 27.65 22.9658 27.7265 23.0079C27.8019 23.0483 27.8959 23.0706 28.0121 23.0706C28.1284 23.0706 28.2225 23.0482 28.2979 23.0078C28.3752 22.9657 28.4321 22.9096 28.4715 22.8393L28.4716 22.8391C28.5121 22.7673 28.5335 22.6837 28.5335 22.5855V20.9713H29.0142V22.6081C29.0142 22.7831 28.9727 22.9428 28.8878 23.0844C28.8038 23.2249 28.6853 23.3351 28.535 23.4149L28.5346 23.4151C28.3825 23.4949 28.2073 23.5331 28.0121 23.5331C27.8169 23.5331 27.6417 23.4949 27.4897 23.4151L27.4893 23.4149C27.339 23.3351 27.2202 23.225 27.1355 23.0847L27.1352 23.0841C27.0511 22.9426 27.0101 22.783 27.0101 22.6081V20.9713ZM27.2096 21.1708V22.6081C27.2096 22.7505 27.2426 22.8742 27.3065 22.9819C27.3714 23.0893 27.4625 23.1748 27.5826 23.2386C27.701 23.3007 27.8432 23.3336 28.0121 23.3336C28.1811 23.3336 28.3232 23.3007 28.4416 23.2386C28.5617 23.1748 28.6525 23.0893 28.7166 22.982L28.7167 22.9819C28.7813 22.8741 28.8147 22.7504 28.8147 22.6081V21.1708H28.733V22.5855C28.733 22.7139 28.7046 22.832 28.6454 22.937C28.5866 23.0419 28.5016 23.124 28.3931 23.1831L28.3925 23.1834C28.2822 23.2427 28.1541 23.2701 28.0121 23.2701C27.8701 23.2701 27.7421 23.2427 27.6317 23.1834L27.6308 23.183C27.5232 23.1239 27.4385 23.0418 27.3791 22.9374L27.3789 22.9371C27.3196 22.8321 27.2912 22.7139 27.2912 22.5855V21.1708H27.2096Z" fill="white"/>
<path d="M30.6838 23.3925H30.3891L31.2415 21.071H31.5317L32.3841 23.3925H32.0894L31.3957 21.4383H31.3775L30.6838 23.3925ZM30.7926 22.4857H31.9806V22.7351H30.7926V22.4857Z" fill="#BD0728"/>
<path fill-rule="evenodd" clip-rule="evenodd" d="M31.1719 20.9713H31.6013L32.527 23.4923H32.019L31.7856 22.8348H30.9877L30.7543 23.4923H30.2462L31.1719 20.9713ZM31.0585 22.6353H31.7148L31.697 22.5855H31.0762L31.0585 22.6353ZM31.147 22.386H31.6262L31.3866 21.711L31.147 22.386ZM31.8379 22.386L31.4661 21.3386H31.3071L30.9353 22.386H30.865L31.3112 21.1708H31.4621L31.9083 22.386H31.8379ZM31.9973 22.8348L32.1598 23.2928H32.2412L32.0731 22.8348H31.9973ZM30.7002 22.8348H30.776L30.6134 23.2928H30.532L30.7002 22.8348Z" fill="white"/>
<path d="M33.5188 21.0586H33.8543L34.6432 22.9856H34.6704L35.4594 21.0586H35.7949V23.38H35.5319V21.6163H35.5092L34.7838 23.38H34.5299L33.8044 21.6163H33.7817V23.38H33.5188V21.0586Z" fill="#BD0728"/>
<path fill-rule="evenodd" clip-rule="evenodd" d="M33.419 20.9589H33.9212L34.6568 22.7556L35.3924 20.9589H35.8946V23.4798H35.4322V22.0659L34.8506 23.4798H34.463L33.8815 22.0659V23.4798H33.419V20.9589ZM33.6185 21.1584V23.2803H33.682V21.5166H33.8712L34.5967 23.2803H34.717L35.4424 21.5166H35.6317V23.2803H35.6951V21.1584H35.5263L34.7374 23.0854H34.5763L33.7873 21.1584H33.6185Z" fill="white"/>
<path fill-rule="evenodd" clip-rule="evenodd" d="M24.3375 15.0844C24.1969 15.3656 24.675 15 24.7875 14.9625C25.4156 14.7375 25.6594 13.95 26.7375 14.4281C27.5813 14.7938 28.7156 14.5781 28.125 14.9531C27.3937 15.3938 25.9219 15.8813 25.8938 18.0656C26.0156 18.2719 26.025 18.2438 26.1281 18.0094C26.3531 17.5031 27.4125 16.125 27.9375 16.2375C28.1531 16.2938 28.7719 15.6094 28.7812 15.8063C28.8469 16.35 27.9375 17.4563 27.9563 18.9281C27.9563 19.275 28.3781 19.3875 28.575 19.1438C28.7812 18.9281 28.8937 18.7125 29.25 18.4313C29.8687 17.925 29.7 15.75 29.775 15.8531C30.2156 16.4156 30.2812 18.0375 30.9375 18.6938C31.4906 19.2469 31.9312 18.975 31.8094 18.225C31.575 16.6875 30.8531 17.1281 30.5062 15.5438C30.4312 15.2344 30.4125 14.9625 30.825 15.0844C31.3219 15.2344 31.6219 15.4594 31.9875 16.0219C32.3625 16.5656 33.0562 17.0813 33.4594 17.3906C34.1625 17.9344 34.4156 17.4656 34.0781 16.7719C33.6495 15.984 32.9502 15.3779 32.1094 15.0656C31.5281 14.8594 31.3219 14.8406 30.8156 14.7469C30.675 14.7188 30.5344 14.4281 30.7781 14.2688C31.3204 13.8778 31.9523 13.6295 32.6156 13.5469C33.2437 13.5281 33.7406 14.0344 34.1812 14.1656C35.0625 14.3906 35.0625 13.8375 34.6687 13.4156C34.35 13.0688 33.675 12.4781 33.0469 12.5625C31.7812 12.7219 31.8656 12.6844 31.0781 13.2C30.7969 13.3688 30.4781 13.5563 30.6 13.35C30.8812 12.8344 30.6187 12.9281 31.0594 12.4031C31.3969 12.0281 31.65 11.7469 31.9969 11.6531C32.3156 11.5688 32.7469 11.2313 32.8687 11.0531C33.1875 10.6219 32.9156 10.3688 32.4281 10.5188C31.9969 10.6313 31.7719 10.9125 31.4906 10.9875C30.7969 11.2125 30.2438 12.7688 30.1594 12.9938C30.0563 13.2563 29.9344 13.125 29.9531 12.9C30.0469 11.8031 30.1406 9.94688 29.7656 9.1875C29.1656 8.0625 29.2219 8.5875 28.9969 9.12188C28.6594 9.96563 28.7812 10.7625 28.9969 11.5875C29.0906 12 29.4281 12.4688 29.4937 12.7969C29.5406 13.05 29.3437 12.7219 29.2312 12.5625C28.8656 12 28.5937 11.625 27.9937 11.3156C27.3945 11.0691 26.736 11.0039 26.1 11.1281C25.9312 11.1844 26.2875 11.4281 26.4281 11.5406C26.8312 11.8594 27.5906 11.9625 28.1156 12.2813C28.5469 12.5531 28.8844 12.7219 29.0344 13.0969C29.0906 13.3781 29.1844 13.7906 28.9969 13.7813C28.5187 13.7531 27.7781 13.3313 26.2406 13.5C25.4531 13.6125 24.7781 14.2781 24.3375 15.0844V15.0844Z" fill="#239E46"/>
<path fill-rule="evenodd" clip-rule="evenodd" d="M27.6844 29.1188H28.125V29.8594H27.6844V29.1188Z" fill="black"/>
<path fill-rule="evenodd" clip-rule="evenodd" d="M25.4719 24.1781C27.2344 26.6156 30.0656 28.0406 30.1219 29.1469H24.6094C25.875 27.6281 26.6531 26.5969 25.4719 24.1781Z" fill="#FDF9FF"/>
<path fill-rule="evenodd" clip-rule="evenodd" d="M23.8688 29.2032C26.2688 29.7375 29.1281 30.0375 30.9563 29.1282C30.975 29.6625 30.3656 30.4407 29.8594 30.4407H25.2656C25.8 30.3563 26.1094 30.1969 26.9719 30.1594L24.5344 30.1782C24.2531 30.1875 23.7844 29.4657 23.8688 29.2032Z" fill="#A68861"/>
<path fill-rule="evenodd" clip-rule="evenodd" d="M29.3063 39.8437C29.55 39.9844 29.9344 39.975 30.15 39.8625C44.0063 32.4844 44.0156 12.2625 30.1687 4.98748C30.0301 4.9233 29.8787 4.89163 29.726 4.89488C29.5732 4.89813 29.4233 4.93622 29.2875 5.00623C15.7875 12.3937 15.75 32.3812 29.3063 39.8531V39.8437ZM29.3719 38.1844C29.4883 38.2416 29.6161 38.2722 29.7458 38.2738C29.8756 38.2754 30.004 38.2481 30.1219 38.1937C41.7094 31.3687 41.85 13.3406 30.1312 6.88124C29.9062 6.71249 29.5781 6.76873 29.3531 6.88124C18.2531 13.4531 17.6344 30.7406 29.3719 38.1844Z" fill="#BE0027"/>
<path d="M25.2 21.1312C25.4125 21.1312 25.6 21.175 25.7625 21.2625C25.9812 21.375 26.1156 21.5812 26.1656 21.8812H25.875C25.8375 21.7187 25.7562 21.5937 25.6312 21.5062C25.5187 21.4312 25.3719 21.3937 25.1906 21.3937C24.9844 21.3937 24.8062 21.4781 24.6562 21.6469C24.5125 21.8031 24.4406 22.0406 24.4406 22.3594C24.4406 22.6219 24.5 22.8406 24.6187 23.0156C24.7437 23.1844 24.9406 23.2687 25.2094 23.2687C25.4156 23.2687 25.5844 23.2094 25.7156 23.0906C25.8594 22.9719 25.9312 22.7781 25.9312 22.5094H25.2187V22.2562H26.2125V23.475H26.0156L25.9406 23.175C25.8406 23.2937 25.7469 23.3781 25.6594 23.4281C25.5219 23.5031 25.35 23.5406 25.1437 23.5406C24.875 23.5406 24.6406 23.4531 24.4406 23.2781C24.2281 23.0531 24.1219 22.75 24.1219 22.3687C24.1219 21.9875 24.225 21.6844 24.4312 21.4594C24.6312 21.2406 24.8875 21.1312 25.2 21.1312Z" fill="#BD0728"/>
<path d="M27.4125 21.1969V22.6219C27.4125 22.7844 27.4437 22.9188 27.5062 23.025C27.5937 23.1938 27.75 23.2781 27.975 23.2781C28.2312 23.2781 28.4094 23.1906 28.5094 23.0156C28.5594 22.9156 28.5844 22.7844 28.5844 22.6219V21.1875H28.9031V22.4813C28.9031 22.7563 28.8594 22.975 28.7719 23.1375C28.6406 23.4063 28.3844 23.5406 28.0031 23.5406C27.6094 23.5406 27.3438 23.4031 27.2063 23.1281C27.1313 22.9719 27.0938 22.7563 27.0938 22.4813V21.1875L27.4125 21.1969Z" fill="#BD0728"/>
<path d="M31.725 22.5469L31.3781 21.5438L31.0031 22.5469H31.725ZM31.2187 21.1875H31.5656L32.4094 23.4844H32.0531L31.8281 22.8H30.9187L30.6656 23.4844H30.3562L31.2187 21.1875Z" fill="#BD0728"/>
<path d="M33.4688 21.1875H33.9281L34.575 23.1281L35.2312 21.1875H35.6719V23.475H35.3719V21.5438L34.7156 23.475H34.425L33.7688 21.5438V23.475H33.4688V21.1875Z" fill="#BD0728"/>
</g>
<defs>
<clipPath id="clip0_4_6482">
<rect width="60" height="45" fill="white"/>
</clipPath>
</defs>
</svg>
