<svg width="60" height="45" viewBox="0 0 60 45" fill="none" xmlns="http://www.w3.org/2000/svg">
<g clip-path="url(#clip0_4_5248)">
<path fill-rule="evenodd" clip-rule="evenodd" d="M-9.375 0H69.375V45H-9.375V0Z" fill="white"/>
<path fill-rule="evenodd" clip-rule="evenodd" d="M-9.375 30.2168H69.375V45H-9.375V30.2168Z" fill="#DA0000"/>
<path fill-rule="evenodd" clip-rule="evenodd" d="M5.60156 30.8496H9.9082V31.1396H5.60156V30.8496ZM6.24316 32.3262H6.54199V32.6162H6.24316V32.3262ZM9.92578 32.3262V32.6162H9.06445V32.3174L9.92578 32.3262ZM10.3828 30.8496H10.6816V32.6074H10.3828V30.8496Z" fill="white"/>
<path fill-rule="evenodd" clip-rule="evenodd" d="M12.1055 32.3174V32.6162H10.4707V32.3174H12.1055ZM9.06445 31.623H9.3457V32.6162H9.05566L9.06445 31.623Z" fill="white"/>
<path fill-rule="evenodd" clip-rule="evenodd" d="M11.8594 30.8496H12.1582V32.6074H11.8594V30.8496ZM11.1211 30.8496H11.4111V32.6074H11.1211V30.8496ZM7.18359 31.5527V31.8516H5.60156V31.5527H7.18359ZM10.6377 31.5527V31.8516H9.05566V31.5527H10.6377Z" fill="white"/>
<path fill-rule="evenodd" clip-rule="evenodd" d="M9.06445 31.6318H9.3457V32.6074H9.05566L9.06445 31.6318Z" fill="white"/>
<path fill-rule="evenodd" clip-rule="evenodd" d="M9.06445 31.6318H9.3457V32.6074H9.05566L9.06445 31.6318Z" fill="white"/>
<path fill-rule="evenodd" clip-rule="evenodd" d="M9.06445 31.6318H9.3457V32.6074H9.05566L9.06445 31.6318ZM5.61035 31.6318H5.90039V32.6074H5.61035V31.6318ZM8.1416 31.6318H8.44043V32.6074H8.1416V31.6318ZM6.88477 31.6318H7.18359V32.6074H6.88477V31.6318Z" fill="white"/>
<path fill-rule="evenodd" clip-rule="evenodd" d="M8.34375 32.3174V32.6162H7.0166V32.3174H8.34375ZM8.43164 31.5527V31.8516H7.58789V31.5527H8.43164Z" fill="white"/>
<path fill-rule="evenodd" clip-rule="evenodd" d="M-1.48242 30.8496H2.82422V31.1396H-1.48242V30.8496ZM-0.840821 32.3262H-0.541992V32.6162H-0.84961L-0.840821 32.3262ZM2.8418 32.3262V32.6162H1.98047V32.3174L2.8418 32.3262ZM3.29883 30.8496H3.59766V32.6074H3.29883V30.8496Z" fill="white"/>
<path fill-rule="evenodd" clip-rule="evenodd" d="M5.02148 32.3174V32.6162H3.38672V32.3174H5.02148ZM1.98047 31.623H2.27051V32.6162H1.98047V31.623Z" fill="white"/>
<path fill-rule="evenodd" clip-rule="evenodd" d="M4.77539 30.8496H5.07422V32.6074H4.77539V30.8496ZM4.03711 30.8496H4.32715V32.6074H4.03711V30.8496ZM0.0996094 31.5527V31.8516H-1.48242V31.5527H0.0996094ZM3.55371 31.5527V31.8516H1.97168V31.5527H3.55371Z" fill="white"/>
<path fill-rule="evenodd" clip-rule="evenodd" d="M1.98047 31.6318H2.27051V32.6074H1.98047V31.6318Z" fill="white"/>
<path fill-rule="evenodd" clip-rule="evenodd" d="M1.98047 31.6318H2.27051V32.6074H1.98047V31.6318Z" fill="white"/>
<path fill-rule="evenodd" clip-rule="evenodd" d="M1.98047 31.6318H2.27051V32.6074H1.98047V31.6318ZM-1.47363 31.6318H-1.18359V32.6074H-1.47363V31.6318ZM1.05762 31.6318H1.34766V32.6074H1.05762V31.6318ZM-0.199219 31.6318H0.0996096V32.6074H-0.199219V31.6318Z" fill="white"/>
<path fill-rule="evenodd" clip-rule="evenodd" d="M1.25977 32.3174V32.6162H-0.0585938V32.3174H1.25977ZM1.34766 31.5527V31.8516H0.503906V31.5527H1.34766Z" fill="white"/>
<path fill-rule="evenodd" clip-rule="evenodd" d="M12.624 30.8496H16.9307V31.1396H12.624V30.8496ZM13.2656 32.3262H13.5645V32.6162H13.2656V32.3262ZM16.9482 32.3262V32.6162H16.0869V32.3174L16.9482 32.3262ZM17.4141 30.8496H17.7129V32.6074H17.4141V30.8496Z" fill="white"/>
<path fill-rule="evenodd" clip-rule="evenodd" d="M19.1279 32.3174V32.6162H17.4932V32.3174H19.1279ZM16.0869 31.623H16.3857V32.6162H16.0869V31.623Z" fill="white"/>
<path fill-rule="evenodd" clip-rule="evenodd" d="M18.8818 30.8496H19.1807V32.6074H18.8818V30.8496ZM18.1436 30.8496H18.4424V32.6074H18.1348L18.1436 30.8496ZM14.2061 31.5527V31.8516H12.624V31.5527H14.2061ZM17.6602 31.5527V31.8516H16.0781V31.5527H17.6602Z" fill="white"/>
<path fill-rule="evenodd" clip-rule="evenodd" d="M16.0869 31.6318H16.3857V32.6074H16.0869V31.6318Z" fill="white"/>
<path fill-rule="evenodd" clip-rule="evenodd" d="M16.0869 31.6318H16.3857V32.6074H16.0869V31.6318Z" fill="white"/>
<path fill-rule="evenodd" clip-rule="evenodd" d="M16.0869 31.6318H16.3857V32.6074H16.0869V31.6318ZM12.6328 31.6318H12.9316V32.6074H12.6328V31.6318ZM15.1641 31.6318H15.4629V32.6074H15.1641V31.6318ZM13.9072 31.6318H14.2061V32.6074H13.9072V31.6318Z" fill="white"/>
<path fill-rule="evenodd" clip-rule="evenodd" d="M15.375 32.3174V32.6162H14.0391V32.3174H15.375ZM15.4629 31.5527V31.8516H14.6191V31.5527H15.4629Z" fill="white"/>
<path fill-rule="evenodd" clip-rule="evenodd" d="M19.6904 30.8496H24.0059V31.1396H19.6992L19.6904 30.8496ZM20.3408 32.3262H20.6309V32.6162H20.3408V32.3262ZM24.0146 32.3262V32.6162H23.1533V32.3174L24.0146 32.3262ZM24.4805 30.8496H24.7793V32.6074H24.4805V30.8496Z" fill="white"/>
<path fill-rule="evenodd" clip-rule="evenodd" d="M26.2031 32.3174V32.6162H24.5684V32.3174H26.2031ZM23.1533 31.623H23.4521V32.6162H23.1533V31.623Z" fill="white"/>
<path fill-rule="evenodd" clip-rule="evenodd" d="M25.957 30.8496H26.2559V32.6074H25.957V30.8496ZM25.21 30.8496H25.5088V32.6074H25.21V30.8496ZM21.2725 31.5527V31.8516H19.6992V31.5527H21.2725ZM24.7266 31.5527V31.8516H23.1533V31.5527H24.7266Z" fill="white"/>
<path fill-rule="evenodd" clip-rule="evenodd" d="M23.1533 31.6318H23.4521V32.6074H23.1533V31.6318Z" fill="white"/>
<path fill-rule="evenodd" clip-rule="evenodd" d="M23.1533 31.6318H23.4521V32.6074H23.1533V31.6318Z" fill="white"/>
<path fill-rule="evenodd" clip-rule="evenodd" d="M23.1533 31.6318H23.4521V32.6074H23.1533V31.6318ZM19.6992 31.6318H19.998V32.6074H19.6992V31.6318ZM22.2305 31.6318H22.5293V32.6074H22.2305V31.6318ZM20.9824 31.6318H21.2725V32.6074H20.9824V31.6318Z" fill="white"/>
<path fill-rule="evenodd" clip-rule="evenodd" d="M22.4414 32.3174V32.6162H21.1143V32.3174H22.4414ZM22.5293 31.5527V31.8516H21.6855V31.5527H22.5293Z" fill="white"/>
<path fill-rule="evenodd" clip-rule="evenodd" d="M26.792 30.8496H31.0986V31.1396H26.792V30.8496ZM27.4336 32.3262H27.7324V32.6162H27.4336V32.3262ZM31.1162 32.3262V32.6162H30.2549V32.3174L31.1162 32.3262ZM31.582 30.8496H31.8721V32.6074H31.582V30.8496Z" fill="white"/>
<path fill-rule="evenodd" clip-rule="evenodd" d="M33.2959 32.3174V32.6162H31.6611V32.3174H33.2959ZM30.2549 31.623H30.5537V32.6162H30.2549V31.623Z" fill="white"/>
<path fill-rule="evenodd" clip-rule="evenodd" d="M33.0498 30.8496H33.3486V32.6074H33.0498V30.8496ZM32.3115 30.8496H32.6104V32.6074H32.3115V30.8496ZM28.374 31.5527V31.8516H26.792V31.5527H28.374ZM31.8281 31.5527V31.8516H30.2461V31.5527H31.8281Z" fill="white"/>
<path fill-rule="evenodd" clip-rule="evenodd" d="M30.2549 31.6318H30.5537V32.6074H30.2549V31.6318Z" fill="white"/>
<path fill-rule="evenodd" clip-rule="evenodd" d="M30.2549 31.6318H30.5537V32.6074H30.2549V31.6318Z" fill="white"/>
<path fill-rule="evenodd" clip-rule="evenodd" d="M30.2549 31.6318H30.5537V32.6074H30.2549V31.6318ZM26.8008 31.6318H27.0908V32.6074H26.8008V31.6318ZM29.332 31.6318H29.6309V32.6074H29.332V31.6318ZM28.0752 31.6318H28.374V32.6074H28.0664L28.0752 31.6318Z" fill="white"/>
<path fill-rule="evenodd" clip-rule="evenodd" d="M29.543 32.3174V32.6162H28.207V32.3174H29.543ZM29.6309 31.5527V31.8516H28.7695V31.5527H29.6309Z" fill="white"/>
<path fill-rule="evenodd" clip-rule="evenodd" d="M-9.375 0H69.375V14.7832H-9.375V0Z" fill="#239F40"/>
<path fill-rule="evenodd" clip-rule="evenodd" d="M33.9287 30.8496H38.2354V31.1396H33.9287V30.8496ZM34.5703 32.3262H34.8691V32.6162H34.5703V32.3262ZM38.2529 32.3262V32.6162H37.3828V32.3174L38.2529 32.3262ZM38.7188 30.8496H39.0088V32.6074H38.7188V30.8496Z" fill="white"/>
<path fill-rule="evenodd" clip-rule="evenodd" d="M40.4326 32.3174V32.6162H38.7979V32.3174H40.4326ZM37.3916 31.623H37.6904V32.6162H37.3828L37.3916 31.623Z" fill="white"/>
<path fill-rule="evenodd" clip-rule="evenodd" d="M40.1953 30.8496H40.4853V32.6074H40.1953V30.8496ZM39.4482 30.8496H39.7471V32.6074H39.4482V30.8496ZM35.5107 31.5527V31.8516H33.9287V31.5527H35.5107ZM38.9648 31.5527V31.8516H37.3828V31.5527H38.9648Z" fill="white"/>
<path fill-rule="evenodd" clip-rule="evenodd" d="M37.3828 31.6318H37.6904V32.6074H37.3828V31.6318Z" fill="white"/>
<path fill-rule="evenodd" clip-rule="evenodd" d="M37.3828 31.6318H37.6904V32.6074H37.3828V31.6318Z" fill="white"/>
<path fill-rule="evenodd" clip-rule="evenodd" d="M37.3828 31.6318H37.6904V32.6074H37.3828V31.6318ZM33.9375 31.6318H34.2363V32.6074H33.9375V31.6318ZM36.4688 31.6318H36.7676V32.6074H36.4688V31.6318ZM35.2119 31.6318H35.5107V32.6074H35.2119V31.6318Z" fill="white"/>
<path fill-rule="evenodd" clip-rule="evenodd" d="M36.6797 32.3174V32.6162H35.3438V32.3174H36.6797ZM36.7676 31.5527V31.8516H35.9238V31.5527H36.7676Z" fill="white"/>
<path fill-rule="evenodd" clip-rule="evenodd" d="M41.0215 30.8496H45.3281V31.1396H41.0215V30.8496ZM41.6631 32.3262H41.9619V32.6162H41.6631V32.3262ZM45.3545 32.3262V32.6162H44.4844V32.3174L45.3545 32.3262ZM45.8115 30.8496H46.1104V32.6074H45.8115V30.8496Z" fill="white"/>
<path fill-rule="evenodd" clip-rule="evenodd" d="M47.5254 32.3174V32.6162H45.8906V32.3174H47.5254ZM44.4844 31.623H44.7832V32.6162H44.4844V31.623Z" fill="white"/>
<path fill-rule="evenodd" clip-rule="evenodd" d="M47.2881 30.8496H47.5781V32.6074H47.2881V30.8496ZM46.541 30.8496H46.8398V32.6074H46.541V30.8496ZM42.6035 31.5527V31.8516H41.0303V31.5527H42.6035ZM46.0576 31.5527V31.8516H44.4844V31.5527H46.0576Z" fill="white"/>
<path fill-rule="evenodd" clip-rule="evenodd" d="M44.4844 31.6318H44.7832V32.6074H44.4844V31.6318Z" fill="white"/>
<path fill-rule="evenodd" clip-rule="evenodd" d="M44.4844 31.6318H44.7832V32.6074H44.4844V31.6318Z" fill="white"/>
<path fill-rule="evenodd" clip-rule="evenodd" d="M44.4844 31.6318H44.7832V32.6074H44.4844V31.6318ZM41.0303 31.6318H41.3291V32.6074H41.0303V31.6318ZM43.5615 31.6318H43.8604V32.6074H43.5615V31.6318ZM42.3047 31.6318H42.6035V32.6074H42.3135L42.3047 31.6318Z" fill="white"/>
<path fill-rule="evenodd" clip-rule="evenodd" d="M43.7725 32.3174V32.6162H42.4453V32.3174H43.7725ZM43.8604 31.5527V31.8516H43.0078V31.5527H43.8604Z" fill="white"/>
<path fill-rule="evenodd" clip-rule="evenodd" d="M48.123 30.8496H52.4297V31.1396H48.123V30.8496ZM48.7646 32.3262H49.0635V32.6162H48.7646V32.3262ZM52.4473 32.3262V32.6162H51.5859V32.3174L52.4473 32.3262ZM52.9043 30.8496H53.2031V32.6074H52.9043V30.8496Z" fill="white"/>
<path fill-rule="evenodd" clip-rule="evenodd" d="M54.627 32.3174V32.6162H52.9922V32.3174H54.627ZM51.5771 31.623H51.876V32.6162H51.5771V31.623Z" fill="white"/>
<path fill-rule="evenodd" clip-rule="evenodd" d="M54.3809 30.8496H54.6797V32.6074H54.3809V30.8496ZM53.6426 30.8496H53.9326V32.6074H53.6426V30.8496ZM49.7051 31.5527V31.8516H48.123V31.5527H49.7051ZM53.1592 31.5527V31.8516H51.5771V31.5527H53.1592Z" fill="white"/>
<path fill-rule="evenodd" clip-rule="evenodd" d="M51.5859 31.6318H51.876V32.6074H51.5859V31.6318Z" fill="white"/>
<path fill-rule="evenodd" clip-rule="evenodd" d="M51.5859 31.6318H51.876V32.6074H51.5859V31.6318Z" fill="white"/>
<path fill-rule="evenodd" clip-rule="evenodd" d="M51.5859 31.6318H51.876V32.6074H51.5859V31.6318ZM48.123 31.6318H48.4219V32.6074H48.123V31.6318ZM50.6631 31.6318H50.9531V32.6074H50.6631V31.6318ZM49.4062 31.6318H49.7051V32.6074H49.4062V31.6318Z" fill="white"/>
<path fill-rule="evenodd" clip-rule="evenodd" d="M50.8652 32.3174V32.6162H49.5381V32.3174H50.8652ZM50.9531 31.5527V31.8516H50.1094V31.5527H50.9531Z" fill="white"/>
<path fill-rule="evenodd" clip-rule="evenodd" d="M55.2598 30.8496H59.5664V31.1396H55.2598V30.8496ZM55.9014 32.3262H56.2002V32.6162H55.9014V32.3262ZM59.584 32.3262V32.6162H58.7227V32.3174L59.584 32.3262ZM60.041 30.8496H60.3398V32.6074H60.041V30.8496Z" fill="white"/>
<path fill-rule="evenodd" clip-rule="evenodd" d="M61.7637 32.3174V32.6162H60.1289V32.3174H61.7637ZM58.7227 31.623H59.0127V32.6162H58.7227V31.623Z" fill="white"/>
<path fill-rule="evenodd" clip-rule="evenodd" d="M61.5176 30.8496H61.8164V32.6074H61.5176V30.8496ZM60.7793 30.8496H61.0693V32.6074H60.7793V30.8496ZM56.8418 31.5527V31.8516H55.2598V31.5527H56.8418ZM60.2959 31.5527V31.8516H58.7139V31.5527H60.2959Z" fill="white"/>
<path fill-rule="evenodd" clip-rule="evenodd" d="M58.7227 31.6318H59.0127V32.6074H58.7227V31.6318Z" fill="white"/>
<path fill-rule="evenodd" clip-rule="evenodd" d="M58.7227 31.6318H59.0127V32.6074H58.7227V31.6318Z" fill="white"/>
<path fill-rule="evenodd" clip-rule="evenodd" d="M58.7227 31.6318H59.0127V32.6074H58.7227V31.6318ZM55.2686 31.6318H55.5586V32.6074H55.2686V31.6318ZM57.7998 31.6318H58.0986V32.6074H57.7998V31.6318ZM56.543 31.6318H56.8418V32.6074H56.543V31.6318Z" fill="white"/>
<path fill-rule="evenodd" clip-rule="evenodd" d="M58.002 32.3174V32.6162H56.6748V32.3174H58.002ZM58.0898 31.5527V31.8516H57.2461V31.5527H58.0898Z" fill="white"/>
<path fill-rule="evenodd" clip-rule="evenodd" d="M5.60156 12.6035H9.9082V12.9023H5.60156V12.6035ZM6.24316 14.0977H6.54199V14.3789H6.24316V14.0977ZM9.92578 14.0801V14.3789H9.06445V14.0801H9.92578ZM10.3828 12.6035H10.6816V14.3789H10.3828V12.6035Z" fill="white"/>
<path fill-rule="evenodd" clip-rule="evenodd" d="M12.1055 14.0801V14.3789H10.4707V14.0801H12.1055ZM9.06445 13.3857H9.3457V14.3789H9.05566L9.06445 13.3857Z" fill="white"/>
<path fill-rule="evenodd" clip-rule="evenodd" d="M11.8594 12.6035H12.1582V14.3789H11.8594V12.6035ZM11.1211 12.6035H11.4111V14.3789H11.1211V12.6035ZM7.18359 13.3066V13.6055H5.60156V13.3154L7.18359 13.3066ZM10.6377 13.3066V13.6055H9.05566V13.3154L10.6377 13.3066Z" fill="white"/>
<path fill-rule="evenodd" clip-rule="evenodd" d="M9.06445 13.3857H9.3457V14.3789H9.05566L9.06445 13.3857Z" fill="white"/>
<path fill-rule="evenodd" clip-rule="evenodd" d="M9.06445 13.3857H9.3457V14.3789H9.05566L9.06445 13.3857Z" fill="white"/>
<path fill-rule="evenodd" clip-rule="evenodd" d="M9.06445 13.3857H9.3457V14.3789H9.05566L9.06445 13.3857ZM5.61035 13.3857H5.90039V14.3789H5.61035V13.3857ZM8.1416 13.3857H8.44043V14.3789H8.1416V13.3857ZM6.88477 13.3857H7.18359V14.3789H6.88477V13.3857Z" fill="white"/>
<path fill-rule="evenodd" clip-rule="evenodd" d="M8.34375 14.0801V14.3789H7.0166V14.0801H8.34375ZM8.43164 13.3154V13.6055H7.58789V13.3154H8.43164Z" fill="white"/>
<path fill-rule="evenodd" clip-rule="evenodd" d="M-1.48242 12.6035H2.82422V12.9023H-1.48242V12.6035ZM-0.840821 14.0977H-0.541992V14.3789H-0.84961L-0.840821 14.0977ZM2.8418 14.0801V14.3789H1.98047V14.0801H2.8418ZM3.29883 12.6035H3.59766V14.3789H3.29883V12.6035Z" fill="white"/>
<path fill-rule="evenodd" clip-rule="evenodd" d="M5.02148 14.0801V14.3789H3.38672V14.0801H5.02148ZM1.98047 13.3857H2.27051V14.3789H1.98047V13.3857Z" fill="white"/>
<path fill-rule="evenodd" clip-rule="evenodd" d="M4.77539 12.6035H5.07422V14.3789H4.77539V12.6035ZM4.03711 12.6035H4.32715V14.3789H4.03711V12.6035ZM0.0996094 13.3066V13.6055H-1.48242V13.3154L0.0996094 13.3066ZM3.55371 13.3066V13.6055H1.97168V13.3154L3.55371 13.3066Z" fill="white"/>
<path fill-rule="evenodd" clip-rule="evenodd" d="M1.98047 13.3857H2.27051V14.3789H1.98047V13.3857Z" fill="white"/>
<path fill-rule="evenodd" clip-rule="evenodd" d="M1.98047 13.3857H2.27051V14.3789H1.98047V13.3857Z" fill="white"/>
<path fill-rule="evenodd" clip-rule="evenodd" d="M1.98047 13.3857H2.27051V14.3789H1.98047V13.3857ZM-1.47363 13.3857H-1.18359V14.3789H-1.47363V13.3857ZM1.05762 13.3857H1.34766V14.3789H1.05762V13.3857ZM-0.199219 13.3857H0.0996096V14.3789H-0.199219V13.3857Z" fill="white"/>
<path fill-rule="evenodd" clip-rule="evenodd" d="M1.25977 14.0801V14.3789H-0.0585938V14.0801H1.25977ZM1.34766 13.3154V13.6055H0.503906V13.3154H1.34766Z" fill="white"/>
<path fill-rule="evenodd" clip-rule="evenodd" d="M12.624 12.6035H16.9307V12.9023H12.624V12.6035ZM13.2656 14.0977H13.5645V14.3789H13.2656V14.0977ZM16.9482 14.0801V14.3789H16.0869V14.0801H16.9482ZM17.4141 12.6035H17.7129V14.3789H17.4141V12.6035Z" fill="white"/>
<path fill-rule="evenodd" clip-rule="evenodd" d="M19.1279 14.0801V14.3789H17.4932V14.0801H19.1279ZM16.0869 13.3857H16.3857V14.3789H16.0869V13.3857Z" fill="white"/>
<path fill-rule="evenodd" clip-rule="evenodd" d="M18.8818 12.6035H19.1807V14.3789H18.8818V12.6035ZM18.1436 12.6035H18.4424V14.3789H18.1348L18.1436 12.6035ZM14.2061 13.3066V13.6055H12.624V13.3154L14.2061 13.3066ZM17.6602 13.3066V13.6055H16.0781V13.3154L17.6602 13.3066Z" fill="white"/>
<path fill-rule="evenodd" clip-rule="evenodd" d="M16.0869 13.3857H16.3857V14.3789H16.0869V13.3857Z" fill="white"/>
<path fill-rule="evenodd" clip-rule="evenodd" d="M16.0869 13.3857H16.3857V14.3789H16.0869V13.3857Z" fill="white"/>
<path fill-rule="evenodd" clip-rule="evenodd" d="M16.0869 13.3857H16.3857V14.3789H16.0869V13.3857ZM12.6328 13.3857H12.9316V14.3789H12.6328V13.3857ZM15.1641 13.3857H15.4629V14.3789H15.1641V13.3857ZM13.9072 13.3857H14.2061V14.3789H13.9072V13.3857Z" fill="white"/>
<path fill-rule="evenodd" clip-rule="evenodd" d="M15.375 14.0801V14.3789H14.0391V14.0801H15.375ZM15.4629 13.3154V13.6055H14.6191V13.3154H15.4629Z" fill="white"/>
<path fill-rule="evenodd" clip-rule="evenodd" d="M19.6904 12.6035H24.0059V12.9023H19.6992L19.6904 12.6035ZM20.3408 14.0977H20.6309V14.3789H20.3408V14.0977ZM24.0146 14.0801V14.3789H23.1533V14.0801H24.0146ZM24.4805 12.6035H24.7793V14.3789H24.4805V12.6035Z" fill="white"/>
<path fill-rule="evenodd" clip-rule="evenodd" d="M26.2031 14.0801V14.3789H24.5684V14.0801H26.2031ZM23.1533 13.3857H23.4521V14.3789H23.1533V13.3857Z" fill="white"/>
<path fill-rule="evenodd" clip-rule="evenodd" d="M25.957 12.6035H26.2559V14.3789H25.957V12.6035ZM25.21 12.6035H25.5088V14.3789H25.21V12.6035ZM21.2725 13.3066V13.6055H19.6992V13.3154L21.2725 13.3066ZM24.7266 13.3066V13.6055H23.1533V13.3154L24.7266 13.3066Z" fill="white"/>
<path fill-rule="evenodd" clip-rule="evenodd" d="M23.1533 13.3857H23.4521V14.3789H23.1533V13.3857Z" fill="white"/>
<path fill-rule="evenodd" clip-rule="evenodd" d="M23.1533 13.3857H23.4521V14.3789H23.1533V13.3857Z" fill="white"/>
<path fill-rule="evenodd" clip-rule="evenodd" d="M23.1533 13.3857H23.4521V14.3789H23.1533V13.3857ZM19.6992 13.3857H19.998V14.3789H19.6992V13.3857ZM22.2305 13.3857H22.5293V14.3789H22.2305V13.3857ZM20.9824 13.3857H21.2725V14.3789H20.9824V13.3857Z" fill="white"/>
<path fill-rule="evenodd" clip-rule="evenodd" d="M22.4414 14.0801V14.3789H21.1143V14.0801H22.4414ZM22.5293 13.3154V13.6055H21.6855V13.3154H22.5293Z" fill="white"/>
<path fill-rule="evenodd" clip-rule="evenodd" d="M26.792 12.6035H31.0986V12.9023H26.792V12.6035ZM27.4336 14.0977H27.7324V14.3789H27.4336V14.0977ZM31.1162 14.0801V14.3789H30.2549V14.0801H31.1162ZM31.582 12.6035H31.8721V14.3789H31.582V12.6035Z" fill="white"/>
<path fill-rule="evenodd" clip-rule="evenodd" d="M33.2959 14.0801V14.3789H31.6611V14.0801H33.2959ZM30.2549 13.3857H30.5537V14.3789H30.2549V13.3857Z" fill="white"/>
<path fill-rule="evenodd" clip-rule="evenodd" d="M33.0498 12.6035H33.3486V14.3789H33.0498V12.6035ZM32.3115 12.6035H32.6104V14.3789H32.3115V12.6035ZM28.374 13.3066V13.6055H26.792V13.3154L28.374 13.3066ZM31.8281 13.3066V13.6055H30.2461V13.3154L31.8281 13.3066Z" fill="white"/>
<path fill-rule="evenodd" clip-rule="evenodd" d="M30.2549 13.3857H30.5537V14.3789H30.2549V13.3857Z" fill="white"/>
<path fill-rule="evenodd" clip-rule="evenodd" d="M30.2549 13.3857H30.5537V14.3789H30.2549V13.3857Z" fill="white"/>
<path fill-rule="evenodd" clip-rule="evenodd" d="M30.2549 13.3857H30.5537V14.3789H30.2549V13.3857ZM26.8008 13.3857H27.0908V14.3789H26.8008V13.3857ZM29.332 13.3857H29.6309V14.3789H29.332V13.3857ZM28.0752 13.3857H28.374V14.3789H28.0664L28.0752 13.3857Z" fill="white"/>
<path fill-rule="evenodd" clip-rule="evenodd" d="M29.543 14.0801V14.3789H28.207V14.0801H29.543ZM29.6309 13.3154V13.6055H28.7695V13.3154H29.6309Z" fill="white"/>
<path fill-rule="evenodd" clip-rule="evenodd" d="M33.9287 12.6035H38.2354V12.9023H33.9287V12.6035ZM34.5703 14.0977H34.8691V14.3789H34.5703V14.0977ZM38.2529 14.0801V14.3789H37.3828V14.0801H38.2529ZM38.7188 12.6035H39.0088V14.3789H38.7188V12.6035Z" fill="white"/>
<path fill-rule="evenodd" clip-rule="evenodd" d="M40.4326 14.0801V14.3789H38.7979V14.0801H40.4326ZM37.3916 13.3857H37.6904V14.3789H37.3828L37.3916 13.3857Z" fill="white"/>
<path fill-rule="evenodd" clip-rule="evenodd" d="M40.1953 12.6035H40.4853V14.3789H40.1953V12.6035ZM39.4482 12.6035H39.7471V14.3789H39.4482V12.6035ZM35.5107 13.3066V13.6055H33.9287V13.3154L35.5107 13.3066ZM38.9648 13.3066V13.6055H37.3828V13.3154L38.9648 13.3066Z" fill="white"/>
<path fill-rule="evenodd" clip-rule="evenodd" d="M37.3828 13.3857H37.6904V14.3789H37.3828V13.3857Z" fill="white"/>
<path fill-rule="evenodd" clip-rule="evenodd" d="M37.3828 13.3857H37.6904V14.3789H37.3828V13.3857Z" fill="white"/>
<path fill-rule="evenodd" clip-rule="evenodd" d="M37.3828 13.3857H37.6904V14.3789H37.3828V13.3857ZM33.9375 13.3857H34.2363V14.3789H33.9375V13.3857ZM36.4688 13.3857H36.7676V14.3789H36.4688V13.3857ZM35.2119 13.3857H35.5107V14.3789H35.2119V13.3857Z" fill="white"/>
<path fill-rule="evenodd" clip-rule="evenodd" d="M36.6797 14.0801V14.3789H35.3438V14.0801H36.6797ZM36.7676 13.3154V13.6055H35.9238V13.3154H36.7676Z" fill="white"/>
<path fill-rule="evenodd" clip-rule="evenodd" d="M41.0215 12.6035H45.3281V12.9023H41.0215V12.6035ZM41.6631 14.0977H41.9619V14.3789H41.6631V14.0977ZM45.3545 14.0801V14.3789H44.4844V14.0801H45.3545ZM45.8115 12.6035H46.1104V14.3789H45.8115V12.6035Z" fill="white"/>
<path fill-rule="evenodd" clip-rule="evenodd" d="M47.5254 14.0801V14.3789H45.8906V14.0801H47.5254ZM44.4844 13.3857H44.7832V14.3789H44.4844V13.3857Z" fill="white"/>
<path fill-rule="evenodd" clip-rule="evenodd" d="M47.2881 12.6035H47.5781V14.3789H47.2881V12.6035ZM46.541 12.6035H46.8398V14.3789H46.541V12.6035ZM42.6035 13.3066V13.6055H41.0303V13.3154L42.6035 13.3066ZM46.0576 13.3066V13.6055H44.4844V13.3154L46.0576 13.3066Z" fill="white"/>
<path fill-rule="evenodd" clip-rule="evenodd" d="M44.4844 13.3857H44.7832V14.3789H44.4844V13.3857Z" fill="white"/>
<path fill-rule="evenodd" clip-rule="evenodd" d="M44.4844 13.3857H44.7832V14.3789H44.4844V13.3857Z" fill="white"/>
<path fill-rule="evenodd" clip-rule="evenodd" d="M44.4844 13.3857H44.7832V14.3789H44.4844V13.3857ZM41.0303 13.3857H41.3291V14.3789H41.0303V13.3857ZM43.5615 13.3857H43.8604V14.3789H43.5615V13.3857ZM42.3047 13.3857H42.6035V14.3789H42.3135L42.3047 13.3857Z" fill="white"/>
<path fill-rule="evenodd" clip-rule="evenodd" d="M43.7725 14.0801V14.3789H42.4453V14.0801H43.7725ZM43.8604 13.3154V13.6055H43.0078V13.3154H43.8604Z" fill="white"/>
<path fill-rule="evenodd" clip-rule="evenodd" d="M48.123 12.6035H52.4297V12.9023H48.123V12.6035ZM48.7646 14.0977H49.0635V14.3789H48.7646V14.0977ZM52.4473 14.0801V14.3789H51.5859V14.0801H52.4473ZM52.9043 12.6035H53.2031V14.3789H52.9043V12.6035Z" fill="white"/>
<path fill-rule="evenodd" clip-rule="evenodd" d="M54.627 14.0801V14.3789H52.9922V14.0801H54.627ZM51.5771 13.3857H51.876V14.3789H51.5771V13.3857Z" fill="white"/>
<path fill-rule="evenodd" clip-rule="evenodd" d="M54.3809 12.6035H54.6797V14.3789H54.3809V12.6035ZM53.6426 12.6035H53.9326V14.3789H53.6426V12.6035ZM49.7051 13.3066V13.6055H48.123V13.3154L49.7051 13.3066ZM53.1592 13.3066V13.6055H51.5771V13.3154L53.1592 13.3066Z" fill="white"/>
<path fill-rule="evenodd" clip-rule="evenodd" d="M51.5859 13.3857H51.876V14.3789H51.5859V13.3857Z" fill="white"/>
<path fill-rule="evenodd" clip-rule="evenodd" d="M51.5859 13.3857H51.876V14.3789H51.5859V13.3857Z" fill="white"/>
<path fill-rule="evenodd" clip-rule="evenodd" d="M51.5859 13.3857H51.876V14.3789H51.5859V13.3857ZM48.123 13.3857H48.4219V14.3789H48.123V13.3857ZM50.6631 13.3857H50.9531V14.3789H50.6631V13.3857ZM49.4062 13.3857H49.7051V14.3789H49.4062V13.3857Z" fill="white"/>
<path fill-rule="evenodd" clip-rule="evenodd" d="M50.8652 14.0801V14.3789H49.5381V14.0801H50.8652ZM50.9531 13.3154V13.6055H50.1094V13.3154H50.9531Z" fill="white"/>
<path fill-rule="evenodd" clip-rule="evenodd" d="M55.2598 12.6035H59.5664V12.9023H55.2598V12.6035ZM55.9014 14.0977H56.2002V14.3789H55.9014V14.0977ZM59.584 14.0801V14.3789H58.7227V14.0801H59.584ZM60.041 12.6035H60.3398V14.3789H60.041V12.6035Z" fill="white"/>
<path fill-rule="evenodd" clip-rule="evenodd" d="M61.7637 14.0801V14.3789H60.1289V14.0801H61.7637ZM58.7227 13.3857H59.0127V14.3789H58.7227V13.3857Z" fill="white"/>
<path fill-rule="evenodd" clip-rule="evenodd" d="M61.5176 12.6035H61.8164V14.3789H61.5176V12.6035ZM60.7793 12.6035H61.0693V14.3789H60.7793V12.6035ZM56.8418 13.3066V13.6055H55.2598V13.3154L56.8418 13.3066ZM60.2959 13.3066V13.6055H58.7139V13.3154L60.2959 13.3066Z" fill="white"/>
<path fill-rule="evenodd" clip-rule="evenodd" d="M58.7227 13.3857H59.0127V14.3789H58.7227V13.3857Z" fill="white"/>
<path fill-rule="evenodd" clip-rule="evenodd" d="M58.7227 13.3857H59.0127V14.3789H58.7227V13.3857Z" fill="white"/>
<path fill-rule="evenodd" clip-rule="evenodd" d="M58.7227 13.3857H59.0127V14.3789H58.7227V13.3857ZM55.2686 13.3857H55.5586V14.3789H55.2686V13.3857ZM57.7998 13.3857H58.0986V14.3789H57.7998V13.3857ZM56.543 13.3857H56.8418V14.3789H56.543V13.3857Z" fill="white"/>
<path fill-rule="evenodd" clip-rule="evenodd" d="M58.002 14.0801V14.3789H56.6748V14.0801H58.002ZM58.0898 13.3154V13.6055H57.2461V13.3154H58.0898Z" fill="white"/>
<path fill-rule="evenodd" clip-rule="evenodd" d="M1.45312 29.8389H1.98047V30.7617H1.45312V29.8389ZM15.5596 29.8389H16.0869V30.7617H15.5596V29.8389ZM-9.375 29.8389H-8.84766V30.7617H-9.375V29.8389ZM-2.21191 29.8389H-1.68457V30.7617H-2.21191V29.8389ZM4.89844 29.8389H5.42578V30.7617H4.89844V29.8389ZM8.41406 29.8389H8.94141V30.7617H8.41406V29.8389ZM12.0088 29.8389H12.5361V30.7617H12.0088V29.8389ZM19.0752 29.8389H19.6025V30.7617H19.0752V29.8389ZM36.917 29.8389H37.4531V30.7617H36.9258L36.917 29.8389ZM22.6699 29.8389H23.1973V30.7617H22.6699V29.8389ZM26.1855 29.8389H26.7129V30.7617H26.1855V29.8389ZM29.7451 29.8389H30.2725V30.7617H29.7451V29.8389ZM33.2959 29.8389H33.8232V30.7617H33.2959V29.8389ZM61.7021 29.8389H62.2295V30.7617H61.7021V29.8389ZM40.3711 29.8389H40.8984V30.7617H40.3711V29.8389ZM43.957 29.8389H44.4844V30.7617H43.957V29.8389ZM47.5869 29.8389H48.1143V30.7617H47.5869V29.8389ZM50.9971 29.8389H51.5244V30.7617H50.9971V29.8389ZM54.627 29.8389H55.1543V30.7617H54.627V29.8389ZM58.1777 29.8389H58.7051V30.7617H58.1777V29.8389ZM68.6982 29.8389H69.2256V30.7617H68.6982V29.8389ZM65.2881 29.8389H65.8154V30.7617H65.2881V29.8389ZM-5.80664 29.8389H-5.2793V30.7617H-5.80664V29.8389Z" fill="#D90000"/>
<path fill-rule="evenodd" clip-rule="evenodd" d="M1.45312 14.291H1.98047V15.2139H1.45312V14.291ZM15.5596 14.291H16.0869V15.2139H15.5596V14.291ZM-9.375 14.291H-8.84766V15.2139H-9.375V14.291ZM-2.21191 14.291H-1.68457V15.2139H-2.21191V14.291ZM4.89844 14.291H5.42578V15.2139H4.89844V14.291ZM8.41406 14.291H8.94141V15.2139H8.41406V14.291ZM12.0088 14.291H12.5361V15.2139H12.0088V14.291ZM19.0752 14.291H19.6025V15.2139H19.0752V14.291ZM36.917 14.291H37.4531V15.2139H36.9258L36.917 14.291ZM22.6699 14.291H23.1973V15.2139H22.6699V14.291ZM26.1855 14.291H26.7129V15.2139H26.1855V14.291ZM29.7451 14.291H30.2725V15.2139H29.7451V14.291ZM33.2959 14.291H33.8232V15.2139H33.2959V14.291ZM61.7021 14.291H62.2295V15.2139H61.7021V14.291ZM40.3711 14.291H40.8984V15.2139H40.3711V14.291ZM43.957 14.291H44.4844V15.2139H43.957V14.291ZM47.5869 14.291H48.1143V15.2139H47.5869V14.291ZM50.9971 14.291H51.5244V15.2139H50.9971V14.291ZM54.627 14.291H55.1543V15.2139H54.627V14.291ZM58.1777 14.291H58.7051V15.2139H58.1777V14.291ZM68.6982 14.291H69.2256V15.2139H68.6982V14.291ZM65.2881 14.291H65.8154V15.2139H65.2881V14.291ZM-5.80664 14.291H-5.2793V15.2139H-5.80664V14.291Z" fill="#239E3F"/>
<path fill-rule="evenodd" clip-rule="evenodd" d="M32.0918 17.3584C32.8301 18.2725 35.124 23.2998 30.7119 26.6045C28.6289 28.1689 29.9209 28.2393 29.9824 28.5029C33.3223 26.7363 34.4033 24.3281 34.3769 22.1748C34.3594 20.0303 33.2168 18.1318 32.0918 17.3584Z" fill="#DA0000"/>
<path fill-rule="evenodd" clip-rule="evenodd" d="M32.5313 17.1211C33.3467 17.6173 34.0417 18.2885 34.566 19.0862C35.0903 19.8839 35.4308 20.7881 35.5629 21.7335C35.6949 22.6788 35.6152 23.6418 35.3296 24.5526C35.0439 25.4634 34.5594 26.2994 33.9112 27C36.3018 26.4727 39.3604 19.4062 32.5313 17.1211V17.1211ZM27.4688 17.1211C26.654 17.618 25.9597 18.2898 25.4363 19.0879C24.9128 19.8859 24.5732 20.7903 24.442 21.7356C24.3108 22.6809 24.3913 23.6436 24.6776 24.5541C24.964 25.4645 25.449 26.2999 26.0977 27C23.6983 26.4727 20.6485 19.4062 27.4688 17.1211V17.1211Z" fill="#DA0000"/>
<path fill-rule="evenodd" clip-rule="evenodd" d="M27.9082 17.3584C27.17 18.2725 24.876 23.2998 29.2881 26.6045C31.3623 28.1689 30.0791 28.2393 30.0176 28.5029C26.6778 26.7363 25.5967 24.3281 25.6231 22.1748C25.6407 20.0303 26.7832 18.1318 27.9082 17.3584Z" fill="#DA0000"/>
<path fill-rule="evenodd" clip-rule="evenodd" d="M34.2363 28.0459C32.9268 28.0635 31.2832 27.8701 30.0615 27.2285C30.2637 27.624 30.4307 27.8701 30.6328 28.2568C31.793 28.3711 33.4014 28.5029 34.2363 28.0459ZM25.8867 28.0459C27.1963 28.0635 28.8398 27.8701 30.0615 27.2285C29.8594 27.624 29.6924 27.8701 29.4902 28.2568C28.3301 28.3711 26.7217 28.5029 25.8867 28.0459ZM28.2861 15.8555C28.5498 16.5586 29.2441 16.6641 29.9824 16.251C30.5273 16.5674 31.3623 16.5938 31.6523 15.8906C31.8721 17.6309 30.0439 17.209 29.9824 16.875C29.2969 17.5342 28.0313 17.1562 28.2861 15.8555Z" fill="#DA0000"/>
<path fill-rule="evenodd" clip-rule="evenodd" d="M30.0352 29.1445L30.7207 28.3535L30.8174 17.7979L30 17.0771L29.1826 17.7627L29.3496 28.3975L30.0352 29.1445Z" fill="#DA0000"/>
</g>
<defs>
<clipPath id="clip0_4_5248">
<rect width="60" height="45" fill="white"/>
</clipPath>
</defs>
</svg>
