<svg width="60" height="45" viewBox="0 0 60 45" fill="none" xmlns="http://www.w3.org/2000/svg">
<g clip-path="url(#clip0_4_2528)">
<path d="M0 0H60V45H0V0Z" fill="white"/>
<path d="M0 0H60V13.5H0V0Z" fill="black"/>
<path d="M0 31.5H60V45H0V31.5Z" fill="#006600"/>
<path d="M21.9562 35.8594L22.4625 36.1406L35.5969 13.3594C36.3562 13.1906 36.7781 12.4594 37.2 11.7281C37.4812 11.2219 38.6062 9.28125 39.0844 6.75C37.75 7.93572 36.6194 9.33241 35.7375 10.8844C35.3156 11.6156 34.8937 12.3469 35.0906 13.1062L21.9562 35.8594Z" fill="black"/>
<path fill-rule="evenodd" clip-rule="evenodd" d="M39.2991 6.37109L39.2226 6.77609C38.7598 9.22597 37.6973 11.1266 37.3621 11.7262C37.3477 11.752 37.3346 11.7755 37.3229 11.7964L37.3224 11.7974L37.3181 11.8049C37.1098 12.1659 36.8934 12.5409 36.6318 12.8462C36.3796 13.1403 36.078 13.3789 35.6886 13.4818L22.5152 36.3308L21.763 35.9129L34.9408 13.0846C34.8526 12.6886 34.9167 12.3048 35.0498 11.9369C35.1876 11.5561 35.4037 11.1815 35.6122 10.8201L35.6152 10.8149C35.6153 10.8148 35.6154 10.8146 35.6155 10.8145C36.505 9.2493 37.6453 7.84072 38.991 6.64488L39.2991 6.37109ZM38.8595 7.14565C37.6745 8.25655 36.6631 9.54023 35.8598 10.9538L35.8593 10.9546C35.647 11.3227 35.4429 11.6773 35.3143 12.0326C35.1866 12.3854 35.1378 12.7277 35.2268 13.071L35.2412 13.1267L22.1495 35.8059L22.4098 35.9505L35.506 13.2355L35.5664 13.2221C35.9066 13.1465 36.1772 12.9444 36.4182 12.6632C36.6611 12.3799 36.8654 12.0267 37.0776 11.6589C37.089 11.6384 37.1018 11.6155 37.1158 11.5905C37.4287 11.0306 38.3709 9.34492 38.8595 7.14565Z" fill="black"/>
<path d="M21.9562 35.8594L22.4625 36.1406L35.5969 13.3594C36.3562 13.1906 36.7781 12.4594 37.2 11.7281C37.4812 11.2219 38.6062 9.28125 39.0844 6.75C37.75 7.93572 36.6194 9.33241 35.7375 10.8844C35.3156 11.6156 34.8937 12.3469 35.0906 13.1062L21.9562 35.8594Z" fill="white"/>
<path d="M60.0469 15.75H35.3438C34.5 13.5 31.6875 9 30 9C28.3125 9 25.5 13.5 24.6563 15.75H-0.0187378V29.25H24.6563C25.5 31.5 28.3125 36 30 36C31.6875 36 34.5 31.5 35.3438 29.25H60.0469V15.75Z" fill="#BB0000"/>
<path d="M35.3438 29.25C36.1875 27 36.75 24.75 36.75 22.5C36.75 20.25 36.1875 18 35.3438 15.75C34.5 18 33.9375 20.25 33.9375 22.5C33.9375 24.75 34.5 27 35.3438 29.25Z" fill="black"/>
<path d="M30 24.1875C30.6213 24.1875 31.125 23.432 31.125 22.5C31.125 21.568 30.6213 20.8125 30 20.8125C29.3787 20.8125 28.875 21.568 28.875 22.5C28.875 23.432 29.3787 24.1875 30 24.1875Z" fill="white"/>
<path d="M30.2812 24.1312C30.2812 24.1312 31.4062 26.3812 31.4062 30.0375C31.4062 33.6937 30.2812 35.9437 30.2812 35.9437V24.1312Z" fill="white"/>
</g>
<defs>
<clipPath id="clip0_4_2528">
<rect width="60" height="45" fill="white"/>
</clipPath>
</defs>
</svg>
