<svg width="60" height="45" viewBox="0 0 60 45" fill="none" xmlns="http://www.w3.org/2000/svg">
<g clip-path="url(#clip0_4_4343)">
<path d="M0 0H60V45H0V0Z" fill="#244AA5"/>
<path d="M23.7188 21.075C23.7188 21.075 23.8313 21 23.8688 20.9906C23.9156 20.9906 24.0563 20.9344 24.0563 20.9344C24.0563 20.9344 24.15 20.8875 24.1969 20.8875C24.2531 20.8875 24.3469 20.9437 24.3844 20.9906C24.4125 21.0375 24.5719 21.1219 24.5719 21.1219C24.5719 21.1219 24.6844 21.1594 24.7125 21.1219C24.7313 21.0844 24.7781 21.0562 24.8344 21.0562C24.8813 21.0562 24.8906 21.0094 24.8906 20.9719C24.8906 20.9344 24.9094 20.8875 24.9469 20.8406C24.9938 20.7937 25.0688 20.7656 25.0688 20.7656C25.0688 20.7656 25.1813 20.7187 25.1906 20.6531C25.2094 20.5875 25.3125 20.5406 25.3781 20.5312C25.4438 20.5312 25.3781 20.4937 25.5469 20.5125C25.7063 20.5312 25.7344 20.475 25.7344 20.4281C25.7438 20.3812 25.7344 20.3344 25.8375 20.3344C25.9406 20.3531 25.9875 20.3531 25.9875 20.2969C25.9875 20.2406 26.0813 20.2031 25.9219 20.1656C25.7531 20.1187 25.7719 20.1562 25.7531 20.0719C25.7531 20.0062 25.7531 20.0156 25.65 20.0062C25.5375 19.9969 25.5938 19.9406 25.5844 19.8844C25.575 19.8281 25.5469 19.7906 25.5281 19.7625C25.5 19.725 25.4438 19.725 25.4438 19.6687C25.4438 19.6125 25.4344 19.575 25.3781 19.575C25.3125 19.575 25.2844 19.575 25.2844 19.5281C25.2844 19.4719 25.3031 19.4344 25.3594 19.4344C25.425 19.4344 25.4531 19.3781 25.4531 19.3219C25.4344 19.2656 25.4344 19.1437 25.4344 19.1437L25.5188 19.05C25.5188 19.05 25.7625 18.8531 25.7813 18.8156C25.8 18.7781 25.8844 18.75 25.9219 18.825C25.9594 18.9 25.9781 18.9187 26.0156 18.9562C26.0438 18.9937 26.1375 18.9656 26.1563 18.9281C26.175 18.8906 26.1844 18.75 26.2406 18.675C26.2969 18.6094 26.3344 18.5719 26.3438 18.5062C26.3531 18.4406 26.3906 18.3937 26.4563 18.3937C26.5125 18.3937 26.55 18.3094 26.55 18.2625C26.55 18.2156 26.5875 18.1687 26.6625 18.15C26.7375 18.1406 26.7844 18.0937 26.8125 18.1687C26.8406 18.2437 26.8688 18.2344 26.9156 18.2625C26.9719 18.2906 27.0469 18.3187 27.0844 18.2906C27.1313 18.2531 27.15 18.1969 27.2063 18.225C27.2625 18.2625 27.3 18.225 27.3188 18.1594L27.3469 17.9812C27.3469 17.9812 27.3563 17.9344 27.45 17.9344C27.5438 17.9344 27.4781 17.8781 27.525 17.8406C27.5813 17.8031 27.5813 17.7656 27.6469 17.7844C27.7125 17.8125 27.8156 17.7562 27.7688 17.6906C27.7125 17.6344 27.6 17.5406 27.6656 17.4656C27.7313 17.3906 27.7594 17.2781 27.6938 17.2594C27.6281 17.25 27.525 17.2687 27.5156 17.2031C27.5063 17.1281 27.4781 17.0719 27.5625 17.0625C27.6375 17.0531 27.7688 17.0531 27.8156 17.0156C27.8531 16.9781 27.9844 16.95 27.9844 16.8469C27.9844 16.7344 28.0219 16.725 28.0406 16.6594C28.05 16.6031 28.05 16.4719 27.9938 16.4156C27.9375 16.35 27.8625 16.2656 27.8531 16.2281C27.8344 16.1906 27.7875 16.1344 27.7031 16.1062C27.6281 16.0875 27.5531 16.0687 27.5531 16.0125C27.5531 15.9469 27.6094 16.0219 27.6094 15.8625C27.6094 15.7031 27.5063 15.675 27.5063 15.675L27.3469 15.5812C27.3469 15.5812 27.0656 15.5062 26.9906 15.5062C26.9156 15.5062 26.8219 15.4312 26.9063 15.375C27 15.3281 27.0188 15.2344 26.9906 15.1687C26.9531 15.1031 26.9344 15.0469 26.8125 15.0187C26.6906 14.9906 26.6625 14.9625 26.7188 14.8875C26.7656 14.8219 26.7844 14.7656 26.85 14.8219C26.9063 14.8688 27.0188 14.8875 27.1031 14.85C27.1969 14.8125 27.225 14.775 27.2719 14.8219C27.3094 14.8594 27.3656 14.8969 27.4313 14.8406C27.4969 14.775 27.6188 14.7656 27.675 14.7937C27.7219 14.8312 27.8625 14.8219 27.9 14.7937C27.9375 14.775 28.0313 14.7 28.0313 14.6719C28.0313 14.6437 28.0875 14.5594 28.1344 14.5312C28.1906 14.4937 28.2563 14.4 28.3125 14.4C28.3688 14.4 28.3875 14.3344 28.3875 14.3062C28.3875 14.2594 28.4344 14.175 28.4438 14.1469C28.4438 14.1187 28.5563 14.0719 28.6313 14.1469C28.7156 14.1937 28.8188 14.2219 28.8188 14.2219C28.8188 14.2219 28.9125 14.2406 28.9781 14.2219C29.0077 14.2036 29.0418 14.194 29.0766 14.194C29.1113 14.194 29.1454 14.2036 29.175 14.2219C29.2594 14.2781 29.3625 14.2781 29.3625 14.2781L29.3906 14.1562C29.3906 14.1187 29.4094 14.0437 29.3625 14.0156C29.325 13.9875 29.2688 13.95 29.3531 13.8844C29.4469 13.8281 29.4469 13.8375 29.5313 13.8375L29.7375 13.8469C29.8031 13.8469 29.9063 13.9125 29.9063 13.9687C29.9063 14.025 29.9531 14.0625 30 14.1C30.0563 14.1281 30.1219 14.1562 30.0938 14.2125C30.0844 14.2594 30.0844 14.3062 30.15 14.2875C30.2156 14.2781 30.2344 14.3156 30.2344 14.3719C30.2344 14.4187 30.2531 14.4469 30.3281 14.4656C30.3844 14.4844 30.4219 14.5312 30.4219 14.5781C30.4219 14.625 30.4031 14.6625 30.4219 14.7094L30.5156 14.8406C30.5156 14.8406 30.6375 14.9812 30.4781 14.9062C30.3281 14.8406 30.2906 14.8125 30.2438 14.8125L30.15 14.8594L30.0281 14.8781C29.9719 14.8781 29.9156 14.9906 30.0094 15.0094C30.0938 15.0281 30.1219 15.0469 30.1219 15.1219C30.1219 15.1969 30.0938 15.1687 30.0469 15.2156C30.0094 15.2719 29.9719 15.2344 29.8969 15.2344C29.8219 15.2344 29.8031 15.3 29.8031 15.3562C29.8031 15.4125 29.8313 15.4125 29.8594 15.45C29.8969 15.5062 29.9531 15.5156 30.0094 15.4687C30.0563 15.4219 30.1031 15.3844 30.1313 15.4781C30.1688 15.5719 30.2156 15.5719 30.2719 15.5719C30.3375 15.5719 30.3656 15.5719 30.4219 15.5344C30.4688 15.5062 30.5344 15.5344 30.5438 15.6188C30.5625 15.6938 30.6094 15.7125 30.6656 15.7406C30.7219 15.7687 30.7594 15.7875 30.7594 15.8344C30.7781 15.8906 30.8063 15.9094 30.8625 15.8812C30.9188 15.8437 31.0031 15.825 31.0406 15.8719L31.125 15.9844V16.0875L31.3406 16.1625L31.3594 16.2562C31.3594 16.2844 31.3969 16.3125 31.4531 16.2937H31.6031C31.6031 16.2937 31.6781 16.2656 31.6781 16.2C31.6781 16.1437 31.7063 16.125 31.7719 16.125C31.8188 16.125 31.9406 16.1719 31.9688 16.1062C32.0063 16.05 32.1 16.0312 32.175 16.0594L32.4563 16.1719C32.4563 16.1719 32.4281 16.1719 32.4938 16.275C32.5594 16.3781 32.6813 16.3781 32.6813 16.3781C32.6813 16.3781 32.6813 16.4719 32.7094 16.5094C32.7281 16.5469 32.8313 16.5656 32.8781 16.5281C32.9344 16.4906 33.0094 16.4344 33.075 16.4344C33.1406 16.4344 33.1875 16.4344 33.1875 16.3969C33.1875 16.3594 33.1219 16.3312 33.1219 16.2656C33.1219 16.2 33.1875 16.2094 33.1969 16.1437C33.2063 16.0875 33.2719 16.1438 33.3188 16.1813C33.3656 16.2188 33.4125 16.2562 33.4125 16.2937C33.4125 16.3406 33.5063 16.4812 33.5531 16.5C33.6094 16.5187 33.75 16.5281 33.7969 16.4812C33.8344 16.425 33.9469 16.4062 33.9375 16.5281C33.9281 16.65 33.9 16.6594 33.975 16.6969C34.05 16.7344 34.0688 16.8844 34.0031 16.9219C33.9375 16.9594 33.9094 16.9687 33.9094 17.0344C33.9094 17.1 33.8906 17.1844 33.9469 17.2219C34.0031 17.2687 34.0406 17.2969 34.0406 17.3344C34.0406 17.3812 34.0969 17.5594 34.0969 17.5594C34.0969 17.5594 34.1344 17.7375 34.1156 17.775C34.1156 17.8219 34.0875 17.8875 34.1813 17.8781C34.275 17.8687 34.3031 17.8687 34.3031 17.9437C34.3031 18.0187 34.3406 18.0562 34.2844 18.0844C34.2281 18.1219 34.1906 18.2156 34.2469 18.2344C34.3031 18.2531 34.3406 18.2906 34.3594 18.3281C34.3688 18.3656 34.4531 18.4406 34.5094 18.3937C34.5656 18.3562 34.575 18.3375 34.6219 18.3281C34.6594 18.3187 34.6969 18.2906 34.65 18.2344C34.6125 18.1875 34.5938 18.1406 34.6406 18.1031C34.6875 18.075 34.7063 17.9812 34.7063 17.9812C34.7063 17.9812 34.7719 17.8875 34.8469 17.9812C34.9219 18.075 34.9406 18.0375 34.9875 18.0375C35.0344 18.0375 35.0625 18.0844 35.0625 18.1312C35.0625 18.1875 35.175 18.1781 35.175 18.2531L35.1938 18.5344C35.1938 18.5344 35.1938 18.6375 35.2594 18.675C35.325 18.7219 35.3156 18.7312 35.2781 18.7687C35.25 18.825 35.2594 18.9094 35.2594 18.9562C35.2594 19.0031 35.2781 19.0031 35.2313 19.05C35.175 19.0875 35.1469 19.1437 35.1844 19.2C35.2125 19.2562 35.2031 19.2937 35.2875 19.3687C35.3813 19.4344 35.3719 19.4625 35.3719 19.5187C35.3719 19.5656 35.4563 19.6406 35.4563 19.6875C35.4563 19.7344 35.5219 19.8 35.5781 19.8094C35.6344 19.8187 35.6906 19.9031 35.6906 19.9594L35.7 20.1375C35.7 20.1375 35.7 20.1656 35.7563 20.1656C35.8219 20.1656 35.8688 20.2406 35.8875 20.1656C35.9063 20.0719 35.9813 20.0719 36.0188 20.0437C36.0563 20.0156 36.15 19.9875 36.1969 20.0156C36.2438 20.0437 36.2906 20.0437 36.3375 20.0437L36.5813 20.0531C36.5813 20.0531 36.6375 20.0531 36.675 20.1281C36.7031 20.2031 36.7969 20.2969 36.75 20.3344C36.6938 20.3812 36.6938 20.4562 36.75 20.4562C36.8063 20.4562 36.8906 20.4562 36.8906 20.5031C36.8906 20.5594 36.8906 20.5969 36.9563 20.5687C37.0031 20.5406 37.0406 20.5312 37.0594 20.5687C37.0875 20.6062 37.125 20.6062 37.1813 20.6344C37.2375 20.6719 37.2563 20.6437 37.2938 20.6062C37.3219 20.5687 37.4531 20.5312 37.4531 20.5312C37.4531 20.5312 37.6219 20.4844 37.6875 20.5031L37.8469 20.5687C37.8469 20.5687 37.8844 20.6625 37.8656 20.7281C37.8469 20.7844 37.8188 20.775 37.8469 20.8687C37.8656 20.9625 37.8188 20.9625 37.7813 20.9625C37.7344 20.9437 37.6875 20.9437 37.6875 21.0281C37.6875 21.1031 37.65 21.1219 37.65 21.1969C37.65 21.2719 37.65 21.2531 37.6031 21.2906C37.5656 21.3187 37.5469 21.3656 37.6125 21.3844C37.6781 21.3844 37.6594 21.4594 37.6594 21.4969L37.65 21.6281C37.65 21.6281 37.65 21.675 37.5844 21.675C37.5188 21.675 37.4438 21.675 37.4344 21.7219C37.4156 21.7687 37.3406 21.8437 37.4063 21.9C37.4813 21.9469 37.4625 21.975 37.4156 21.9937C37.3781 22.0219 37.3406 22.1156 37.4344 22.1437C37.5188 22.1812 37.5094 22.2094 37.4531 22.2469C37.3969 22.2844 37.2938 22.3219 37.2938 22.3781C37.2938 22.4344 37.2656 22.4344 37.2 22.4437C37.1344 22.4531 37.1063 22.5375 37.1813 22.6312C37.2563 22.7344 37.275 22.725 37.3313 22.725C37.3875 22.725 37.3875 22.6312 37.3875 22.6312L37.6219 22.65C37.6781 22.65 37.7531 22.65 37.8 22.6219C37.8469 22.5844 37.9594 22.5375 37.9594 22.6219C37.9594 22.7156 37.9875 22.7156 38.0344 22.7437C38.0906 22.7906 38.1 22.7531 38.1469 22.8187C38.1938 22.875 38.2031 22.8187 38.2406 22.7531C38.2688 22.6875 38.3344 22.6219 38.3906 22.6969C38.4375 22.7812 38.4375 22.7531 38.5031 22.7531C38.5688 22.7531 38.5969 22.7906 38.5969 22.8375C38.5969 22.8844 38.6531 22.8844 38.7375 22.875C38.8125 22.875 38.8219 22.9219 38.85 22.9687C38.8781 23.0156 38.8969 23.0062 38.9438 23.0062C38.9813 23.0062 39.0281 23.0062 39.0563 22.9687C39.0938 22.9312 39.1313 22.875 39.1781 22.9406C39.225 22.9969 39.3094 22.9875 39.3281 22.9219C39.3563 22.8469 39.45 22.7906 39.5063 22.8656C39.5625 22.95 39.6 22.95 39.6563 22.9594C39.7125 22.9594 39.7875 22.9594 39.8156 23.0156C39.8531 23.0719 39.9563 23.1469 39.8813 23.2031C39.8063 23.2687 39.7219 23.3437 39.7875 23.3719C39.8463 23.3862 39.8989 23.4191 39.9375 23.4656C39.9844 23.5031 40.125 23.5312 40.1906 23.5406C40.2563 23.5406 40.3031 23.5594 40.3781 23.4937C40.4625 23.4375 40.5375 23.4375 40.5281 23.5219C40.5188 23.5969 40.5563 23.6906 40.5563 23.6906C40.5563 23.6906 40.6125 23.8219 40.6125 23.8687C40.6125 23.9156 40.6031 23.925 40.7063 23.9906C40.8 24.0469 40.7813 24.0844 40.8656 24.0281C40.9406 23.9719 40.9594 23.9344 40.9594 23.8875V23.7281C40.9594 23.7281 41.0719 23.7094 41.1094 23.6812C41.1563 23.6437 41.325 23.5594 41.3719 23.5969C41.4188 23.6344 41.4656 23.625 41.5125 23.6062C41.5594 23.5875 41.6438 23.5875 41.6906 23.5875C41.7281 23.5875 41.8031 23.5969 41.8969 23.5312C41.9813 23.4562 41.9813 23.475 42.0375 23.5312C42.0844 23.5781 42.0844 23.6344 42.0563 23.6812C42.0188 23.7187 42.0563 23.8031 42.1313 23.8031C42.2063 23.8031 42.225 23.85 42.225 23.8969L42.2531 24.0562C42.2531 24.0937 42.2531 24.1219 42.3844 24.15C42.4969 24.1781 42.4781 24.2438 42.4969 24.3C42.525 24.3469 42.525 24.3938 42.4594 24.3938C42.3938 24.3938 42.3656 24.4219 42.3656 24.4687C42.3469 24.5156 42.2531 24.5344 42.2531 24.5344L42.1594 24.5156C42.1594 24.5156 42.0844 24.5156 42.0563 24.5531C42.0188 24.6 41.9625 24.675 42 24.7406C42.0469 24.8156 42.0469 24.8531 42 24.8906C41.9625 24.9187 41.9344 25.0687 41.8969 25.0406C41.85 25.0031 41.8031 25.0406 41.7563 25.0687C41.7094 25.0875 41.7188 25.2281 41.8031 25.275C41.8969 25.3312 41.9156 25.3969 41.9156 25.3969L42.0094 25.5469C42.0094 25.5469 41.9813 25.575 41.9625 25.6312C41.9344 25.6781 41.8688 25.7813 41.9344 25.8C42 25.8188 41.9719 25.9313 41.9063 25.9313C41.8406 25.9313 41.7656 25.8938 41.7563 25.9781C41.7469 26.0625 41.7094 26.0344 41.6438 26.025C41.5781 26.025 41.4188 25.9781 41.3719 26.0531C41.325 26.1375 41.3156 26.1656 41.2406 26.1562C41.1656 26.1562 41.1938 26.2781 41.2219 26.325L41.3156 26.4469C41.3156 26.4469 41.3813 26.4938 41.3813 26.5969C41.3813 26.6906 41.3344 26.6906 41.2875 26.6156C41.25 26.55 41.1656 26.5594 41.1563 26.6344C41.1469 26.7188 41.1281 26.8406 41.0625 26.8406C40.9781 26.8406 40.95 26.8594 40.9125 26.8969C40.8844 26.9344 40.8281 27.0094 40.8281 27.0469C40.8281 27.0844 40.8188 27.1312 40.7625 27.1406C40.7063 27.15 40.6969 27.2531 40.6969 27.2531C40.6969 27.2531 40.5656 27.2812 40.5563 27.3281C40.5469 27.375 40.5656 27.4594 40.4625 27.4688C40.4205 27.4737 40.3801 27.4881 40.3444 27.5108C40.3087 27.5335 40.2785 27.564 40.2563 27.6C40.2188 27.6469 40.2094 27.6937 40.2563 27.7406C40.3031 27.7875 40.3313 27.9469 40.3875 27.975C40.4344 28.0031 40.4813 28.0219 40.4719 28.0969C40.4625 28.1813 40.3969 28.2375 40.4813 28.2375C40.575 28.2375 40.6219 28.2563 40.5938 28.3313C40.5563 28.3969 40.5563 28.4062 40.5 28.4344C40.425 28.4719 40.3969 28.4719 40.3969 28.5469C40.3969 28.6219 40.4156 28.6313 40.3594 28.6594C40.3031 28.6875 40.3031 28.725 40.3031 28.7906C40.3031 28.8563 40.2844 28.8281 40.2188 28.8938C40.1531 28.9688 40.0688 28.9687 40.0125 28.95C39.9563 28.9312 39.9469 28.9312 39.9375 28.8656C39.9281 28.8094 39.8344 28.8094 39.7781 28.8187C39.7219 28.8187 39.6469 28.8844 39.6469 28.8844C39.6469 28.8844 39.5531 28.95 39.5906 28.9969C39.6375 29.0437 39.6094 29.1281 39.5344 29.1188C39.4594 29.1094 39.2906 29.1937 39.2344 29.1094C39.1781 29.0156 39.0281 28.9594 39 29.0813C38.9813 29.1938 39.0656 29.1844 39.0563 29.3063C39.0563 29.4281 39.0281 29.4281 38.9813 29.4656C38.9438 29.5031 38.9438 29.5406 38.925 29.5875C38.925 29.6344 38.9063 29.7469 38.9813 29.7844C39.0563 29.8313 39.0938 29.9344 39.0938 30C39.0938 30.0563 39.0938 30.1219 39.1688 30.1219C39.2438 30.1219 39.3094 30.1031 39.3188 30.0375C39.3281 29.9719 39.4781 29.925 39.4969 30.0656C39.4969 30.2063 39.4969 30.2813 39.5625 30.3375C39.6094 30.3938 39.6563 30.4781 39.7031 30.5062C39.7406 30.5344 39.8156 30.7875 39.8156 30.7875C39.7125 30.8156 39.6844 30.9562 39.6188 30.975C39.5813 30.9937 39.5344 30.975 39.4969 31.0031C39.4781 31.0313 39.4781 31.0687 39.4406 31.0781C39.3563 31.1156 39.375 30.9938 39.2719 31.0406C39.1875 31.0781 39.1781 31.1813 39.0563 31.1344C38.9906 31.1156 38.9531 30.8531 38.9344 30.7969L38.8313 30.6281C38.7563 30.5156 38.6156 30.6281 38.5688 30.5906C38.4938 30.5437 38.5219 30.4594 38.4094 30.45C38.1844 30.4312 38.3438 30.5906 38.25 30.6188C38.0625 30.6844 38.0625 30.45 37.9313 30.5625C37.8844 30.6 38.025 30.6281 37.9875 30.6937C37.9594 30.75 37.8281 30.8438 37.8281 30.9094C37.8469 31.0031 37.9406 31.0313 37.9688 31.0969C38.0625 31.3125 37.9219 31.4531 37.7156 31.2844C37.6031 31.2 37.575 31.0313 37.4063 31.05C37.3594 31.05 37.35 31.0875 37.3125 31.0969C37.2656 31.0969 37.2375 31.0594 37.1906 31.0687C37.125 31.0969 37.1906 31.1438 37.1719 31.1813C37.1719 31.1813 37.0781 31.2469 37.0781 31.275C37.0219 31.3313 37.0406 31.3875 36.9656 31.4437C36.9094 31.4906 36.8625 31.4625 36.7969 31.5375C36.7313 31.6031 36.7219 31.7156 36.6375 31.7812C36.5906 31.8188 36.5625 31.6781 36.5063 31.7719L36.4875 31.8094C36.4688 31.8375 36.4688 31.8469 36.4875 31.875C36.6 32.1 36.3563 32.175 36.2813 32.3344C36.2531 32.4 36.3375 32.4562 36.3094 32.5125L36.1688 32.6719C36.1688 32.6906 36.15 32.7469 36.1313 32.7656C36.1125 32.7844 36.0375 32.7656 36.0375 32.8031C36.0375 32.8406 36.1125 32.8687 36.1313 32.8875C36.15 32.9156 36.1125 32.9531 36.1313 32.9625C36.2438 33.0844 36.1781 33.0469 36.2344 33.15C36.2438 33.1688 36.2813 33.1406 36.3 33.1781C36.3094 33.2156 36.2625 33.2156 36.2813 33.2531C36.2813 33.2719 36.375 33.3844 36.375 33.3844C36.375 33.4219 36.2063 33.4969 36.1688 33.4969C36.0656 33.4969 36.2625 33.2906 36.0938 33.2906C36.0188 33.2906 36.0094 33.45 36 33.4781H35.9063C35.7938 33.4781 35.7188 33.6094 35.6813 33.6188C35.6531 33.6281 35.5875 33.6 35.5406 33.6188C35.5031 33.6188 35.4469 33.6656 35.4094 33.6656C35.3813 33.6656 35.3719 33.6469 35.3438 33.6281C35.2969 33.6 35.2031 33.5906 35.1563 33.5719C35.1188 33.5719 35.0625 33.6094 35.0438 33.6C35.0156 33.5812 35.0719 33.5063 34.9875 33.4688L34.9219 33.3094C34.95 33.2156 34.9781 33.1219 34.9688 33.0188C34.95 32.9156 34.7813 32.8313 34.7438 32.7375C34.7156 32.6813 34.6875 32.5125 34.6219 32.475C34.5504 32.4202 34.4926 32.3496 34.4531 32.2688C34.4531 32.25 34.4813 32.2125 34.4531 32.175C34.425 32.1469 34.3781 32.1281 34.3594 32.0813C34.35 32.0438 34.3594 31.9125 34.3125 31.8844C34.2656 31.8563 33.9375 31.8094 33.8438 31.8C33.8063 31.8 33.7781 31.8 33.75 31.7719L33.6938 31.7063L33.6 31.725C33.5719 31.725 33.525 31.7062 33.5063 31.725C33.4031 31.7906 33.375 31.8844 33.2719 31.9688C33.1688 32.0438 33.0563 32.0438 32.9531 32.1281C32.8875 32.1844 32.8406 32.325 32.775 32.3906C32.7469 32.4188 32.7094 32.3906 32.7 32.4C32.6438 32.4656 32.5688 32.5125 32.5125 32.5687C32.5031 32.5875 32.5125 32.6062 32.4938 32.6156L32.3719 32.6531H32.2594C32.2125 32.6719 32.2125 32.7281 32.025 32.7656L31.9781 32.7937L31.9219 32.8406H31.8375C31.7906 32.8406 31.7625 32.8875 31.725 32.8875C31.6313 32.9062 31.4625 32.8406 31.3875 32.8781C31.3406 32.8875 31.2188 33.0375 31.1719 33.0469C31.1438 33.0563 31.1156 33.0469 31.0781 33.0375L31.0219 33.2438L30.7969 33.4406C30.7688 33.4688 30.7594 33.5063 30.7219 33.5344C30.7031 33.5625 30.6656 33.5813 30.6281 33.5813C30.5906 33.5813 30.525 33.5437 30.4781 33.5437C30.4031 33.525 30.1688 33.5156 30.1031 33.5344C30.0188 33.5438 30.0469 33.7594 29.8594 33.7781L29.55 33.8156C29.5406 33.8156 29.475 33.7781 29.4094 33.7875C29.3813 33.7969 29.3063 33.8813 29.3063 33.9V33.9469L29.325 33.9844C29.2875 34.0312 29.1938 34.1063 29.1656 34.1719L29.1281 34.2094C29.1094 34.2281 28.9781 34.275 28.9688 34.2937C28.9406 34.3687 29.0625 34.4438 29.0438 34.4719C29.0156 34.5656 28.8844 34.6594 28.8375 34.7531C28.8281 34.7906 28.8844 34.9125 28.8844 34.95C28.8656 35.0719 28.8281 35.2219 28.8375 35.3344L28.8563 35.4938L28.9219 35.5406L29.0906 35.8781C29.1188 36.0844 28.8094 36.0094 28.9969 36.2156C29.0156 36.2531 29.0344 36.2812 29.0719 36.3094L29.3344 36.525C29.3344 36.5625 29.1469 36.5906 29.1188 36.6188C29.025 36.7125 28.9594 36.8625 28.875 36.9563C28.8188 37.0031 28.7813 36.9469 28.7063 37.0781C28.6875 37.125 28.7063 37.2281 28.6781 37.2656C28.6313 37.3031 28.6031 37.2469 28.5563 37.2656C28.5375 37.2656 28.5281 37.3312 28.5094 37.3406C28.4625 37.3875 28.0219 37.6219 27.9844 37.5938C27.9656 37.5844 27.9375 37.5094 27.9375 37.4906C27.9375 37.4625 27.9 37.4062 27.8813 37.3969C27.7688 37.3031 27.6 37.275 27.4875 37.3969C27.4594 37.425 27.4594 37.4719 27.4219 37.4906L27.2344 37.6406L27.1875 37.6875C27.1406 37.6875 27.0375 37.5656 27 37.5281C26.9625 37.4719 26.8125 37.3406 26.8031 37.275C26.8031 37.05 26.625 36.8156 26.5594 36.6H26.6625C26.7844 36.5156 26.7563 36.3188 26.9719 36.3938C27 36.3563 27 36.3188 27.0469 36.3C27.0656 36.2813 27.1031 36.2719 27.1125 36.2531C27.1875 36.1406 27.2719 35.7094 27.1969 35.5969C27.1313 35.5031 27.0563 35.5031 27.0094 35.3438C26.9906 35.2969 27.0094 35.25 27.0094 35.1937L26.9156 34.9031C26.8969 34.875 26.85 34.8563 26.85 34.8375L26.8313 34.5469C26.7656 34.3406 26.5125 34.2188 26.5031 34.1906L26.4094 34.0312C26.3719 33.9656 26.3719 33.9375 26.3531 33.8812C26.3438 33.8531 26.2969 33.825 26.2969 33.7969C26.2969 33.7406 26.4469 33.6375 26.4375 33.5437C26.4375 33.5156 26.3438 33.4219 26.3625 33.375C26.3813 33.3187 26.475 33.2062 26.475 33.1406C26.475 33.0656 26.325 32.8969 26.3063 32.8219C26.2969 32.775 26.3625 32.7469 26.3438 32.7188C26.325 32.6812 26.175 32.5406 26.1563 32.5031C26.1281 32.475 26.2031 32.4375 26.1563 32.3812C26.1 32.3344 26.1469 32.3438 26.1281 32.3063C26.1094 32.2594 26.0625 32.2125 26.0344 32.1656C26.0156 32.1188 25.8844 31.65 25.8938 31.6219C25.8656 31.5937 25.8281 31.5656 25.8094 31.5281L25.7719 31.4156C25.7719 31.4156 25.6219 31.3688 25.5938 31.3219C25.575 31.2938 25.5656 31.1719 25.5281 31.1156C25.5094 31.0875 25.4813 31.0969 25.4625 31.0781C25.4438 31.0594 25.4438 31.0312 25.4344 31.0125C25.3875 30.9562 25.3031 31.0125 25.2469 30.7875C25.1531 30.7312 25.0875 30.6938 25.0219 30.6188L24.9844 30.5813C24.9281 30.5625 24.8438 30.5531 24.7969 30.5156C24.7688 30.5156 24.6281 30.5156 24.6094 30.4969L24.5719 30.4219C24.4969 30.4125 24.3656 30.4219 24.3 30.3656C24.2531 30.3187 24.2438 30.1031 24.15 30.1312C24.1378 30.1276 24.1247 30.1276 24.1125 30.1312C24.0469 30.0375 23.8406 30.0375 23.7563 29.9812C23.7375 29.9719 23.6625 29.9813 23.6625 29.9625L23.6719 29.8406L23.5688 29.7094C23.4844 29.6906 23.5125 29.6812 23.475 29.6531C23.3344 29.6531 23.3156 29.6719 23.2313 29.7469C23.2125 29.7656 23.1656 29.775 23.1375 29.7844C23.0906 29.8125 23.0813 29.8969 23.0156 29.8594L22.9594 29.8125C22.9219 29.775 22.9031 29.7938 22.8844 29.7375C22.7719 29.6719 22.4625 29.8781 22.3969 29.7375C22.3406 29.7094 22.3031 29.7375 22.2563 29.7C22.2375 29.6812 22.3219 29.4187 22.0969 29.325L22.2469 29.2219C22.2656 29.1938 22.2469 29.1469 22.2469 29.1281C22.2469 29.0813 22.275 28.9969 22.2656 28.9688C22.2656 28.9406 22.2281 28.9125 22.2188 28.875C22.2 28.8469 22.2188 28.8 22.2 28.7625L22.125 28.725C22.0688 28.6781 22.0125 28.65 21.9656 28.5938L21.9281 28.5469C21.8906 28.5187 21.7594 28.4719 21.7594 28.4156C21.7594 28.3969 21.7969 28.3875 21.7969 28.3688C21.8063 28.3406 21.7969 28.3125 21.825 28.2937C21.8813 28.2 22.0219 28.2469 22.0031 28.0875C21.9938 28.0125 21.9375 27.9562 21.9281 27.8812C21.9 27.8625 21.9 27.8344 21.8813 27.8156C21.7406 27.8063 21.7594 27.6656 21.7125 27.6281C21.5719 27.5344 21.4594 27.5906 21.6188 27.4031C21.6375 27.3375 21.4781 27.2344 21.45 27.2063C21.3938 27.15 21.4219 27.0281 21.3938 26.9719C21.3938 26.9438 21.2906 26.8875 21.2625 26.85L21.2156 26.7562V26.7469C21.2438 26.7187 21.2344 26.6719 21.2156 26.6531C21.2063 26.625 21.1594 26.6344 21.15 26.6156C21.0188 26.5031 20.8688 26.4469 20.6906 26.3812C20.6438 26.3625 20.6625 26.325 20.6156 26.3063L20.3344 26.1937C20.3156 26.1937 20.2969 26.0906 20.2781 26.0531L20.1938 25.9594C20.1938 25.8656 20.1375 25.8656 20.0625 25.8094V25.7531L20.1188 25.5562C20.1281 25.5187 20.175 25.4812 20.1656 25.4437L20.1281 25.2281C20.0531 25.0406 19.9688 25.0594 20.0156 24.8062C20.0156 24.75 20.0063 24.7219 20.0438 24.675L20.0625 24.6469L20.175 24.5625C20.2125 24.5062 20.2406 24.3844 20.2875 24.3469L20.4563 24.2344C20.475 24.2156 20.4938 24.15 20.4844 24.1219C20.4469 24.1031 20.4094 24.1125 20.3719 24.1031C20.3531 24.1031 20.3063 24.0656 20.2688 24.0656C20.2594 24.0469 20.2406 24.0375 20.2406 24.0188L20.2219 24C20.175 24 20.1281 23.9719 20.0906 23.9531C20.0438 23.9344 19.9781 23.9344 19.9313 23.9062C19.8375 23.8594 19.7438 23.7187 19.6594 23.7C19.5469 23.6719 19.4719 23.7094 19.3594 23.7187C19.2938 23.7187 19.2938 23.6812 19.2375 23.6625C19.1625 23.6344 19.2188 23.7 19.05 23.6437C19.0219 23.625 19.05 23.5687 19.05 23.55H18.9563C18.825 23.5125 18.8719 23.3812 18.8344 23.2969C18.825 23.2781 18.7594 23.2781 18.7406 23.2781C18.7219 23.2781 18.7219 23.2594 18.7219 23.2594L18.7406 23.25C18.7594 23.2125 18.675 23.1187 18.675 23.1C18.6844 23.0719 18.8625 23.0437 18.8813 23.0437C18.8906 23.0156 18.8719 22.9969 18.8625 22.9781C18.8625 22.9312 18.8906 22.8656 18.9094 22.8187V22.8C18.8531 22.7719 18.8438 22.7344 18.7969 22.7062C18.7969 22.6781 18.825 22.6687 18.8344 22.6406C18.9188 22.4062 19.05 22.5937 19.1625 22.3781C19.1719 22.3594 19.2094 22.3125 19.2188 22.275H19.2375C19.2563 22.275 19.2938 22.2937 19.3125 22.275C19.3313 22.2562 19.3594 22.2562 19.3875 22.2469H19.4344C19.6406 22.2094 19.5938 22.1344 19.7156 22.05C19.7531 22.0219 19.8469 22.0125 19.8844 21.9937C19.9313 22.0219 19.9969 22.0875 20.0813 22.125C20.1469 22.1437 20.3625 22.1906 20.4 22.2187C20.4469 22.2375 20.4563 22.2937 20.4938 22.3125C20.6156 22.3875 20.5406 22.275 20.6625 22.2937C20.7844 22.3219 20.8781 22.425 20.9906 22.4719L21.0844 22.4625C21.1125 22.4531 21.3 22.4156 21.3188 22.425L21.3938 22.4531C21.4219 22.4625 21.4406 22.4062 21.4688 22.4062C21.5438 22.425 21.5438 22.4531 21.6563 22.4437C21.6563 22.4437 21.7125 22.1344 21.7688 22.125C21.7969 22.1156 21.8813 22.1906 21.9 22.2C21.9375 22.2094 21.9 22.1344 21.9 22.1344C21.8813 22.1062 21.825 21.9187 21.8344 21.9C21.8344 21.9 21.8813 21.9187 21.9094 21.9094C21.9656 21.8906 22.05 21.8719 22.0969 21.825L22.1906 21.6844C22.2 21.6656 22.1719 21.6094 22.1906 21.5906L22.275 21.5344C22.3125 21.4969 22.3125 21.4406 22.3688 21.4125C22.5563 21.3937 22.6219 21.2437 22.8 21.225H22.8563L22.8938 21.2812C22.8938 21.2906 23.0156 21.3656 23.0344 21.3562C23.0531 21.3562 23.0625 21.3281 23.0813 21.3187C23.1094 21.3281 23.2125 21.2719 23.2219 21.2344C23.2219 21.2344 23.2031 21.2062 23.2125 21.1781C23.2593 21.1365 23.3095 21.0989 23.3625 21.0656H23.4938C23.5125 21.0844 23.5125 21.1219 23.5406 21.1219H23.6531C23.6719 21.1219 23.6813 21.075 23.7188 21.075V21.075Z" fill="#D0A650"/>
<path d="M32.9906 6.88123L34.5 11.5312L30.5437 8.6531H35.4375L31.4812 11.5312L32.9812 6.88123H32.9906ZM38.8781 7.92185L40.3781 12.5719L36.4312 9.69373H41.3156L37.3594 12.5719L38.8781 7.92185ZM44.4937 9.9656L45.9937 14.6156L42.0469 11.7375H46.9312L42.975 14.625L44.4937 9.97498V9.9656Z" fill="white"/>
<path d="M27.0094 6.88123L25.5 11.5312L29.4563 8.6531H24.5625L28.5188 11.5312L27.0188 6.88123H27.0094ZM21.1219 7.92185L19.6219 12.5719L23.5688 9.69373H18.6844L22.6406 12.5719L21.1219 7.92185ZM15.5344 9.9656L17.0531 14.6156L13.0969 11.7375H17.9813L14.025 14.6156L15.5344 9.9656V9.9656Z" fill="white"/>
</g>
<defs>
<clipPath id="clip0_4_4343">
<rect width="60" height="45" fill="white"/>
</clipPath>
</defs>
</svg>
