<svg width="60" height="45" viewBox="0 0 60 45" fill="none" xmlns="http://www.w3.org/2000/svg">
<g clip-path="url(#clip0_4_5804)">
<path fill-rule="evenodd" clip-rule="evenodd" d="M-3.78748 0H63.7828V45H-3.78748V0Z" fill="#FF0000"/>
<path fill-rule="evenodd" clip-rule="evenodd" d="M16.735 22.9482C17.9303 21.4893 20.4176 22.9131 22.4479 21.8672C20.0397 21.999 18.7301 20.707 16.8317 20.8916C18.8004 19.6787 20.4791 21.2871 22.6764 20.6455C19.7672 20.3994 19.8903 19.0898 17.236 18.9053C19.5914 17.9033 20.7516 19.9424 23.0631 19.4766C20.3385 18.8525 19.9869 17.2529 17.9655 16.9102C20.9186 16.4707 20.7252 18.2109 23.6168 18.4219C20.6813 17.165 21.4459 16.0664 18.9938 15.1084C21.7448 15.0469 21.5602 16.9541 24.3551 17.4463C21.9645 15.9346 22.2545 14.5547 20.2946 13.4736C22.6237 13.5176 22.8434 15.8994 25.2252 16.6377C23.1071 14.959 23.6608 13.5352 21.8326 12.0322C24.153 12.5771 23.8102 14.6338 26.2272 15.9521C24.4342 13.9658 25.1198 12.542 23.5641 10.916C25.7965 11.6279 24.944 13.5879 27.2555 15.4512C25.9371 13.2627 26.7545 11.8652 25.4449 10.0283C27.5192 11.0918 26.5172 13.0957 28.4332 15.082C27.528 12.8408 28.4332 11.4521 27.5104 9.46582C29.2858 10.7842 28.2311 12.9199 29.6637 14.959C29.1364 12.1465 30.3492 11.6895 29.9713 9.22852C31.316 10.8809 29.8131 12.5332 30.8502 14.9678C30.7184 12.1992 32.1949 11.5576 31.9401 9.34277C33.2672 11.3291 31.193 13.0605 32.0631 15.1875C32.2828 12.5684 34.0055 11.8828 34.0319 9.84375C35.0865 11.7158 32.8014 13.0693 33.1705 15.5566C33.9176 12.8145 35.7545 12.4805 35.983 10.6348C36.6071 12.7969 34.1022 13.7988 34.2516 16.207C34.9987 13.7725 37.2926 13.4824 37.7672 11.6895C38.0573 13.9746 35.7985 14.3877 35.1569 16.9189C36.3434 14.8535 38.4264 14.6865 39.358 13.0518C39.2877 15.3193 36.7389 15.6182 35.9567 17.7363C37.4244 15.9346 39.2701 16.2422 40.7379 14.6514C40.5797 16.6992 37.9869 16.585 36.6071 18.7031C38.1979 17.2354 40.5973 17.6748 41.819 16.4092C41.7574 18.2197 38.5758 18.0791 37.0729 19.7051C38.9186 18.6855 41.274 19.2832 42.6276 18.3428C42.3815 19.9248 39.024 19.5557 37.4156 20.8037C39.6305 20.1885 41.3444 21.1289 43.1285 20.4521C42.2584 21.9902 39.2086 21.0146 37.5914 22.0166C39.525 21.6914 41.5641 22.8604 43.3131 22.4824C42.7418 23.8184 39.3932 22.3945 37.6002 23.2295C39.7448 23.2119 41.1422 24.5918 43.1373 24.4951C42.0563 25.708 39.1207 24.0469 37.4069 24.3281C39.4987 24.7676 41.0983 26.4902 42.6803 26.5781C41.3707 27.5713 38.9449 25.3037 36.9674 25.585C39.0065 26.1299 40.7115 28.4414 41.8717 28.4941C40.6149 29.3555 38.1364 26.5166 36.4401 26.6221C38.5055 27.5537 39.4459 29.918 40.8082 30.252C39.1295 30.7881 37.4772 27.6855 35.6754 27.5713C37.7672 28.8897 37.8815 30.9111 39.4899 31.8076C37.7936 32.2207 36.5895 28.7139 34.8053 28.415C36.5192 29.6719 36.7828 32.3701 37.9166 33.2139C36.194 33.3018 35.5699 29.6367 33.8033 29.1094C35.3151 30.375 34.9547 33.1172 36.1324 34.2949C34.3395 33.917 34.568 30.7266 32.6959 29.6455C34.0407 31.3506 33.3551 33.7676 34.234 35.1299C32.485 34.4268 33.2408 31.5615 31.5797 29.9443C32.485 31.7549 31.5094 33.8643 32.2301 35.6133C30.6305 34.8311 31.7028 31.4473 30.4811 30.1025C31.0436 32.1943 30.0065 33.9258 30.4283 35.7979C28.7936 33.9082 30.6744 32.001 29.2594 30.0762C29.6285 32.2822 28.0817 33.8291 28.3278 35.6748C27.0358 34.1631 29.0309 31.7461 28.0201 29.8389C28.2311 32.0098 26.236 33.917 26.3766 35.2881C25.3219 33.5303 27.5455 31.4561 26.9479 29.4609C26.8248 31.5352 24.8033 32.6602 24.4254 34.5498C23.7487 32.4668 26.1481 30.9639 25.9371 28.916C25.2516 30.8584 23.3004 31.6406 22.6149 33.5303C22.0524 31.4473 24.9 30.3486 24.9703 28.1689C24.0914 30.208 21.7623 30.665 20.9889 32.2295C20.6989 30.1641 23.9596 29.2412 24.0826 27.2812C23.028 29.1621 20.4791 29.2412 19.6002 30.7354C19.4684 28.6787 22.9049 28.4238 23.441 26.2705C22.3951 27.8701 19.6002 27.668 18.4313 28.9688C18.6158 27.0615 22.3336 26.9473 22.9313 25.2246C21.5426 26.5605 18.9762 26.0156 17.526 27.0703C18.3346 25.1895 21.8239 25.585 22.6061 24.2314C21.068 25.0313 18.3346 24.249 16.9811 25.0576C18.2115 23.2822 20.9186 24.3457 22.4567 23.124C19.9606 23.4844 18.4576 22.4912 16.7262 22.9482H16.735Z" fill="#FFFF00"/>
<path fill-rule="evenodd" clip-rule="evenodd" d="M38.7516 22.5088C38.7516 24.8223 37.8325 27.0411 36.1966 28.677C34.5607 30.3129 32.342 31.2319 30.0284 31.2319C27.7149 31.2319 25.4962 30.3129 23.8602 28.677C22.2243 27.0411 21.3053 24.8223 21.3053 22.5088C21.3053 20.1964 22.2239 17.9788 23.859 16.3437C25.494 14.7086 27.7117 13.79 30.024 13.79C32.3364 13.79 34.5541 14.7086 36.1891 16.3437C37.8242 17.9788 38.7428 20.1964 38.7428 22.5088H38.7516Z" fill="#FFFF00"/>
<path fill-rule="evenodd" clip-rule="evenodd" d="M37.6266 22.5264C37.6266 24.538 36.8275 26.4673 35.405 27.8897C33.9825 29.3122 32.0533 30.1113 30.0416 30.1113C28.03 30.1113 26.1007 29.3122 24.6782 27.8897C23.2558 26.4673 22.4567 24.538 22.4567 22.5264C22.4567 20.5147 23.2558 18.5854 24.6782 17.163C26.1007 15.7405 28.03 14.9414 30.0416 14.9414C32.0533 14.9414 33.9825 15.7405 35.405 17.163C36.8275 18.5854 37.6266 20.5147 37.6266 22.5264V22.5264Z" fill="#FF0000"/>
<path fill-rule="evenodd" clip-rule="evenodd" d="M36.5719 22.5439C36.5719 24.2712 35.8857 25.9277 34.6644 27.1491C33.443 28.3705 31.7865 29.0566 30.0592 29.0566C28.3319 29.0566 26.6754 28.3705 25.454 27.1491C24.2327 25.9277 23.5465 24.2712 23.5465 22.5439C23.5465 20.8167 24.2327 19.1601 25.454 17.9388C26.6754 16.7174 28.3319 16.0313 30.0592 16.0312C31.7865 16.0313 33.443 16.7174 34.6644 17.9388C35.8857 19.1601 36.5719 20.8167 36.5719 22.5439V22.5439Z" fill="#FFFF00"/>
<path fill-rule="evenodd" clip-rule="evenodd" d="M24.5133 18.2813C26.3151 18.2373 28.5563 18.4043 30.0416 19.582C31.6285 18.5917 33.4967 18.1501 35.359 18.3252L36.3258 20.0918C34.8235 19.9547 33.3111 20.2028 31.9313 20.8125C32.9174 21.5398 33.7103 22.4978 34.2404 23.6025C34.7706 24.7072 35.0219 25.9251 34.9723 27.1494C34.735 27.4482 34.3571 27.7734 34.1197 28.0723C34.4713 25.5674 33.153 22.7725 31.2281 21.3047C32.7926 23.5547 33.7155 25.5762 33.4606 28.3711L32.5817 28.9336C32.986 26.4727 32.4059 23.5723 30.5865 21.9023C31.6412 23.4404 32.6783 26.209 32.028 29.0215C31.7467 29.1094 31.3073 29.3467 31.026 29.4258C31.3706 28.2719 31.4641 27.0576 31.3004 25.8645C31.1367 24.6714 30.7195 23.5272 30.0768 22.5088C28.8639 24.249 28.4684 26.9033 29.1539 29.3643C28.8199 29.2764 28.5651 29.1709 28.2223 29.0918C27.7213 26.4551 28.4156 23.4668 29.6198 21.9111C28.3893 22.623 27.2379 25.6641 27.5631 28.7666L26.7457 28.3887C26.3502 26.0771 27.3961 23.0625 28.899 21.3223C27.194 22.3945 25.8053 25.04 26.0426 27.8789C25.7789 27.6504 25.5416 27.5361 25.278 27.2988C24.9791 24.8203 26.4205 22.3242 28.0992 20.8301C26.6842 20.1885 25.4625 20.0654 23.7047 20.0918C23.9772 19.5205 24.2321 18.8525 24.5133 18.2725V18.2813Z" fill="#FF0000"/>
</g>
<defs>
<clipPath id="clip0_4_5804">
<rect width="60" height="45" fill="white"/>
</clipPath>
</defs>
</svg>
