<svg width="60" height="45" viewBox="0 0 60 45" fill="none" xmlns="http://www.w3.org/2000/svg">
<g clip-path="url(#clip0_4_5954)">
<path d="M-15 0H75V45H-15V0Z" fill="#239E46"/>
<path d="M-15 0H75V33.75H-15V0Z" fill="black"/>
<path d="M-15 0H75V11.25H-15V0Z" fill="#E70013"/>
<path d="M33.978 18.522C33.2473 18.0005 32.387 17.6904 31.4916 17.6257C30.5962 17.561 29.7003 17.7442 28.9021 18.1551C28.104 18.5661 27.4344 19.189 26.967 19.9554C26.4996 20.7219 26.2523 21.6023 26.2523 22.5C26.2523 23.3977 26.4996 24.2781 26.967 25.0446C27.4344 25.811 28.104 26.4339 28.9021 26.8449C29.7003 27.2558 30.5962 27.439 31.4916 27.3743C32.387 27.3096 33.2473 26.9995 33.978 26.478C33.1913 27.2645 32.189 27.8001 31.0979 28.017C30.0068 28.234 28.8759 28.1225 27.8481 27.6967C26.8204 27.2709 25.942 26.5499 25.3239 25.6249C24.7059 24.6999 24.3761 23.6125 24.3761 22.5C24.3761 21.3875 24.7059 20.3001 25.3239 19.3751C25.942 18.4501 26.8204 17.7291 27.8481 17.3033C28.8759 16.8775 30.0068 16.7661 31.0979 16.983C32.189 17.1999 33.1913 17.7355 33.978 18.522M32.736 22.5L40.305 20.043L35.625 26.478V18.522L40.305 24.957L32.736 22.5Z" fill="white"/>
</g>
<defs>
<clipPath id="clip0_4_5954">
<rect width="60" height="45" fill="white"/>
</clipPath>
</defs>
</svg>
