<svg width="60" height="45" viewBox="0 0 60 45" fill="none" xmlns="http://www.w3.org/2000/svg">
<g clip-path="url(#clip0_4_747)">
<path d="M0 0H60V45H0V0Z" fill="#D21034"/>
<path d="M11.25 11.25H48.75V33.75H11.25V11.25Z" fill="#007E3A"/>
<path d="M32.8125 30C36.9546 30 40.3125 26.6421 40.3125 22.5C40.3125 18.3579 36.9546 15 32.8125 15C28.6704 15 25.3125 18.3579 25.3125 22.5C25.3125 26.6421 28.6704 30 32.8125 30Z" fill="white"/>
<path d="M35.625 30C39.7671 30 43.125 26.6421 43.125 22.5C43.125 18.3579 39.7671 15 35.625 15C31.4829 15 28.125 18.3579 28.125 22.5C28.125 26.6421 31.4829 30 35.625 30Z" fill="#007E3A"/>
</g>
<defs>
<clipPath id="clip0_4_747">
<rect width="60" height="45" fill="white"/>
</clipPath>
</defs>
</svg>
