<svg width="60" height="45" viewBox="0 0 60 45" fill="none" xmlns="http://www.w3.org/2000/svg">
<g clip-path="url(#clip0_4_3650)">
<path fill-rule="evenodd" clip-rule="evenodd" d="M30 0H60V45H30V0Z" fill="#CE0000"/>
<path fill-rule="evenodd" clip-rule="evenodd" d="M0 0H30V45H0V0Z" fill="white"/>
<path fill-rule="evenodd" clip-rule="evenodd" d="M14.5437 13.2983C14.5437 13.4332 14.4089 13.5231 14.244 13.5231C14.0642 13.5231 13.9443 13.4332 13.9443 13.3133C13.9443 13.1934 14.0642 13.0885 14.244 13.0885C14.4089 13.0885 14.5437 13.1934 14.5437 13.3133V13.2983Z" fill="#F1EEEE"/>
<path fill-rule="evenodd" clip-rule="evenodd" d="M4.93716 12.2493V17.8244H10.5273C10.5273 18.7536 11.4565 19.6828 12.3856 19.6828V25.2579H17.9757V19.6828C18.9049 19.6828 19.8341 18.7536 19.8341 17.8244H25.4092V12.2493H19.8191C19.8191 11.3201 18.8899 10.3909 17.9608 10.3909V4.8158H12.3856V10.3909C11.4415 10.3909 10.5123 11.3201 10.5123 12.2493H4.93716Z" fill="#CC0000"/>
<path fill-rule="evenodd" clip-rule="evenodd" d="M5.13199 12.4291V17.6445H10.7071C10.7071 18.5737 11.6363 19.5029 12.5655 19.5029V25.078H17.7659V19.5179C18.6951 19.5179 19.6243 18.5887 19.6243 17.6595H25.2144V12.4441H19.6393C19.6393 11.5149 18.7101 10.5857 17.7809 10.5857V4.99561H12.5655V10.5707C11.6363 10.5707 10.7071 11.4999 10.7071 12.4291H5.13199V12.4291Z" fill="#FFE600"/>
<path fill-rule="evenodd" clip-rule="evenodd" d="M5.31183 12.6239V17.4497H10.8869C10.8869 18.3789 11.8161 19.3081 12.7453 19.3081V24.8832H17.5861V19.3081C18.5153 19.3081 19.4445 18.3789 19.4445 17.4497H25.0196V12.6239H19.4445C19.4445 11.6947 18.5153 10.7655 17.5861 10.7655V5.19043H12.7453V10.7506C11.8161 10.7506 10.8869 11.6797 10.8869 12.6089H5.31183V12.6239Z" fill="#707070"/>
<path fill-rule="evenodd" clip-rule="evenodd" d="M5.50666 12.8039V17.2699H11.0818C11.0818 18.1991 12.011 19.1283 12.9401 19.1283V24.6884H17.3912V19.1133C18.3204 19.1133 19.2496 18.1841 19.2496 17.255H24.8247V12.7889H19.2496C19.2496 11.8597 18.3204 10.9305 17.3912 10.9305V5.37036H12.9401V10.9455C12.011 10.9455 11.0818 11.8747 11.0818 12.8039H5.49167H5.50666Z" fill="#A0A0A0"/>
<path fill-rule="evenodd" clip-rule="evenodd" d="M12.9851 10.4809C13.2998 10.8106 13.0451 11.6049 12.3856 12.2643C11.7262 12.9237 10.9469 13.1635 10.6172 12.8638C10.2875 12.5191 10.5572 11.7248 11.2167 11.0653C11.8761 10.4059 12.6554 10.1661 12.9851 10.4809Z" fill="#D0D0D0"/>
<path fill-rule="evenodd" clip-rule="evenodd" d="M12.5805 10.8705C12.9102 11.2002 12.8202 11.8147 12.3856 12.2643C11.951 12.7139 11.3365 12.7888 11.0068 12.4591C10.6771 12.1294 10.767 11.5149 11.2017 11.0803C11.6363 10.6457 12.2507 10.5558 12.5805 10.8705V10.8705Z" fill="#808080"/>
<path fill-rule="evenodd" clip-rule="evenodd" d="M10.9469 11.8596L11.0668 11.7397L11.5913 11.9945L11.3366 11.4699L11.4714 11.3351L11.996 12.3841L10.9469 11.8596ZM11.7262 11.0803L11.8761 10.9304L12.6554 11.7397L12.5205 11.8596L11.7262 11.0803Z" fill="#D0D0D0"/>
<path fill-rule="evenodd" clip-rule="evenodd" d="M19.7142 12.8487C19.3845 13.1784 18.5902 12.9087 17.9458 12.2493C17.3013 11.5898 17.0166 10.8105 17.3463 10.4808C17.676 10.1511 18.4703 10.4209 19.1297 11.0803C19.7892 11.7397 20.0289 12.519 19.7292 12.8487H19.7142Z" fill="#D0D0D0"/>
<path fill-rule="evenodd" clip-rule="evenodd" d="M19.3246 12.4591C18.9948 12.7888 18.3804 12.6989 17.9458 12.2643C17.5111 11.8297 17.4212 11.2152 17.736 10.8855C18.0657 10.5558 18.6951 10.6457 19.1297 11.0803C19.5644 11.5149 19.6543 12.1294 19.3246 12.4591Z" fill="#808080"/>
<path fill-rule="evenodd" clip-rule="evenodd" d="M18.3354 10.8105L18.4703 10.9454L18.2005 11.47L18.7251 11.2002L18.875 11.3501L17.8109 11.8596L18.3354 10.8105V10.8105ZM19.1297 11.6049L19.2496 11.7247L18.4703 12.5191L18.3354 12.3842L19.1297 11.6049Z" fill="#D0D0D0"/>
<path fill-rule="evenodd" clip-rule="evenodd" d="M17.3463 19.5929C17.0166 19.2632 17.2863 18.4689 17.9458 17.8094C18.6052 17.15 19.3845 16.8952 19.7142 17.21C20.0439 17.5397 19.7742 18.334 19.1147 18.9934C18.4553 19.6528 17.676 19.9076 17.3463 19.5929V19.5929Z" fill="#D0D0D0"/>
<path fill-rule="evenodd" clip-rule="evenodd" d="M17.7509 19.1882C17.4212 18.8585 17.5112 18.2441 17.9458 17.8095C18.3804 17.3748 18.9949 17.2849 19.3246 17.6146C19.6543 17.9443 19.5644 18.5588 19.1297 18.9934C18.6951 19.428 18.0807 19.518 17.736 19.1882H17.7509Z" fill="#808080"/>
<path fill-rule="evenodd" clip-rule="evenodd" d="M19.3845 18.1991L19.2496 18.349L18.7251 18.0792L18.9948 18.6037L18.86 18.7236L18.3354 17.6746L19.3845 18.1991ZM18.6202 18.9934L18.4703 19.1283L17.691 18.334L17.8259 18.1991L18.6202 18.9934Z" fill="#D0D0D0"/>
<path fill-rule="evenodd" clip-rule="evenodd" d="M10.6172 17.2249C10.9469 16.8952 11.7412 17.165 12.3856 17.8094C13.0301 18.4539 13.2998 19.2632 12.9851 19.5779C12.6554 19.9076 11.8611 19.6528 11.2017 18.9934C10.5422 18.334 10.3025 17.5397 10.6022 17.2249H10.6172Z" fill="#D0D0D0"/>
<path fill-rule="evenodd" clip-rule="evenodd" d="M11.0068 17.6146C11.3365 17.2849 11.951 17.3748 12.3856 17.8095C12.8202 18.2441 12.9102 18.8585 12.5805 19.1882C12.2657 19.518 11.6363 19.428 11.2017 18.9934C10.767 18.5588 10.6771 17.9443 11.0068 17.6146Z" fill="#808080"/>
<path fill-rule="evenodd" clip-rule="evenodd" d="M11.996 19.2632L11.8611 19.1133L12.1309 18.6038L11.6063 18.8585L11.4565 18.7237L12.5205 18.1991L11.996 19.2482V19.2632ZM11.2017 18.4689L11.0818 18.334L11.8611 17.5547L11.996 17.6746L11.2017 18.4689Z" fill="#D0D0D0"/>
<path fill-rule="evenodd" clip-rule="evenodd" d="M15.1818 11.1632C13.0388 11.1632 11.3031 12.8984 11.3031 15.0402C11.3031 17.1819 13.0337 18.9172 15.1766 18.9172C17.3196 18.9172 19.0553 17.1767 19.0553 15.0402V15.0142H19.0604C19.0464 12.8845 17.3161 11.1632 15.1818 11.1632ZM19.1071 15.0661H19.1123V15.0402C19.1123 12.8698 17.3533 11.1113 15.1818 11.1113C13.0102 11.1113 11.2512 12.8698 11.2512 15.0402C11.2512 17.2105 13.005 18.969 15.1766 18.969C17.3396 18.969 19.0931 17.2193 19.1071 15.0661Z" fill="#707070"/>
<path fill-rule="evenodd" clip-rule="evenodd" d="M15.1625 12.0784C13.5298 12.0784 12.2073 13.4006 12.2073 15.0323C12.2073 16.6642 13.5259 17.9863 15.1586 17.9863C16.7913 17.9863 18.1138 16.6602 18.1138 15.0323V15.0126H18.1176C18.107 13.3899 16.7886 12.0784 15.1625 12.0784ZM18.1532 15.0521H18.1572V15.0323C18.1572 13.3787 16.817 12.0389 15.1625 12.0389C13.508 12.0389 12.1678 13.3787 12.1678 15.0323C12.1678 16.6859 13.5041 18.0258 15.1586 18.0258C16.8065 18.0258 18.1426 16.6927 18.1532 15.0521Z" fill="#707070"/>
<path fill-rule="evenodd" clip-rule="evenodd" d="M13.8693 18.1991C13.8693 18.2487 13.8496 18.2964 13.8145 18.3315C13.7793 18.3667 13.7317 18.3864 13.682 18.3864C13.6323 18.3864 13.5847 18.3667 13.5495 18.3315C13.5144 18.2964 13.4947 18.2487 13.4947 18.1991C13.4947 18.1494 13.5144 18.1017 13.5495 18.0666C13.5847 18.0315 13.6323 18.0117 13.682 18.0117C13.7317 18.0117 13.7793 18.0315 13.8145 18.0666C13.8496 18.1017 13.8693 18.1494 13.8693 18.1991V18.1991ZM16.8367 18.1991C16.8367 18.2487 16.817 18.2964 16.7819 18.3315C16.7467 18.3667 16.6991 18.3864 16.6494 18.3864C16.5997 18.3864 16.5521 18.3667 16.5169 18.3315C16.4818 18.2964 16.4621 18.2487 16.4621 18.1991C16.4621 18.1494 16.4818 18.1017 16.5169 18.0666C16.5521 18.0315 16.5997 18.0117 16.6494 18.0117C16.6991 18.0117 16.7467 18.0315 16.7819 18.0666C16.817 18.1017 16.8367 18.1494 16.8367 18.1991ZM15.0383 18.1991V18.3939H14.7985C14.5437 18.3939 14.5437 18.5887 14.7985 18.5887H15.0383V18.7686C15.0383 18.9784 15.2631 18.9934 15.2781 18.7835V18.5737H15.5329C15.7877 18.5737 15.7877 18.3939 15.5329 18.3939H15.2931V18.1991C15.2931 18.0042 15.0383 18.0042 15.0383 18.1991Z" fill="#D0D0D0"/>
<path fill-rule="evenodd" clip-rule="evenodd" d="M14.244 15.4415V15.5614C14.244 15.5614 14.1841 15.6363 13.8094 15.6663C13.4347 15.6963 13.3748 15.6663 13.3748 15.6663C13.3898 15.7712 13.4647 15.9511 13.4347 16.1609C13.4497 16.4157 13.3748 16.6405 13.3748 16.6405C13.3748 16.6554 13.3298 16.6704 13.2549 16.6554C13.3148 16.5955 13.3148 16.4456 13.3148 16.2058C13.3148 15.996 13.09 15.6513 13.135 15.5614C13.1799 15.4715 14.244 15.4415 14.244 15.4415V15.4415ZM15.7127 15.0519L16.6869 15.0369C16.6869 15.0369 16.8367 15.3366 16.8217 15.4865C16.8217 15.6363 16.7618 15.7862 16.7018 15.7113C16.6269 15.6363 16.7318 15.6513 16.7468 15.4865C16.7468 15.3066 16.6269 15.1418 16.6269 15.1418C16.6269 15.1418 16.3572 15.2467 15.9675 15.2317C15.5778 15.2017 15.7577 15.0519 15.7127 15.0519Z" fill="#D0D0D0"/>
<path fill-rule="evenodd" clip-rule="evenodd" d="M16.6936 15.0335L16.6937 15.0337L16.694 15.0344L16.6953 15.037C16.6964 15.0392 16.698 15.0425 16.7 15.0468C16.7041 15.0553 16.71 15.0677 16.7169 15.0829C16.7307 15.1135 16.7491 15.1558 16.7669 15.2028C16.7848 15.2498 16.8022 15.3016 16.8143 15.3512C16.8263 15.4005 16.833 15.4482 16.8293 15.4868C16.8292 15.5624 16.8141 15.6384 16.791 15.6864C16.7796 15.7102 16.7655 15.7288 16.7488 15.7358C16.7401 15.7394 16.7308 15.7398 16.7216 15.7363C16.7126 15.7329 16.7042 15.7261 16.6963 15.7163C16.6776 15.6975 16.6683 15.6827 16.6677 15.668C16.6671 15.6533 16.6754 15.641 16.6845 15.6282C16.6856 15.6268 16.6866 15.6253 16.6877 15.6238C16.7062 15.5982 16.7324 15.5618 16.7393 15.4861C16.7393 15.3979 16.7098 15.313 16.6801 15.2499C16.6653 15.2183 16.6504 15.1923 16.6393 15.1743C16.6337 15.1652 16.6291 15.1582 16.6259 15.1534C16.6252 15.1524 16.6246 15.1516 16.6241 15.1508C16.6222 15.1515 16.6199 15.1523 16.617 15.1533C16.6088 15.1562 16.5967 15.1603 16.5809 15.1651C16.5493 15.1748 16.5032 15.1875 16.4449 15.1997C16.3283 15.2241 16.1628 15.2467 15.9672 15.2392L15.9669 15.2392C15.8692 15.2316 15.8063 15.2166 15.7664 15.1977C15.7264 15.1788 15.7089 15.1556 15.7036 15.1322C15.6984 15.1097 15.705 15.0885 15.7093 15.0742L15.7095 15.0735C15.7107 15.0699 15.7116 15.0668 15.7123 15.0641C15.7128 15.0619 15.713 15.0604 15.7131 15.0593C15.713 15.0593 15.7129 15.0593 15.7127 15.0593L15.7126 15.0444L15.7127 15.0444L16.6915 15.0293L16.6936 15.0335ZM15.7281 15.0591L16.6823 15.0444C16.6833 15.0466 16.6848 15.0496 16.6865 15.0533C16.6906 15.0617 16.6964 15.074 16.7032 15.0891C16.717 15.1195 16.7352 15.1615 16.7529 15.2081C16.7707 15.2548 16.7879 15.306 16.7997 15.3548C16.8116 15.4037 16.8179 15.4495 16.8143 15.4857L16.8143 15.4865C16.8143 15.5606 16.7994 15.6344 16.7775 15.6799C16.7665 15.703 16.7544 15.7172 16.743 15.7219C16.7377 15.7241 16.7324 15.7243 16.7269 15.7223C16.7212 15.7201 16.7147 15.7153 16.7077 15.7066L16.7072 15.706C16.6886 15.6874 16.683 15.6761 16.6827 15.6674C16.6823 15.6587 16.6871 15.6504 16.6967 15.6369C16.6977 15.6355 16.6988 15.6341 16.6998 15.6326C16.7189 15.6062 16.747 15.5671 16.7543 15.4871L16.7543 15.4865C16.7543 15.395 16.7239 15.3077 16.6937 15.2435C16.6785 15.2113 16.6634 15.1849 16.652 15.1664C16.6464 15.1572 16.6416 15.15 16.6383 15.145C16.6366 15.1425 16.6353 15.1406 16.6344 15.1394L16.6334 15.1379L16.6331 15.1375L16.633 15.1374L16.6296 15.1327L16.6242 15.1348L16.624 15.1349L16.6235 15.1351L16.6212 15.1359C16.6192 15.1367 16.6161 15.1378 16.6121 15.1392C16.6041 15.142 16.5921 15.146 16.5765 15.1508C16.5453 15.1603 16.4996 15.1729 16.4418 15.185C16.3262 15.2093 16.162 15.2317 15.9679 15.2242C15.871 15.2167 15.8103 15.2019 15.7728 15.1842C15.7356 15.1666 15.7222 15.1466 15.7182 15.1289C15.714 15.1105 15.7194 15.0927 15.7239 15.0779C15.725 15.0744 15.7261 15.0708 15.7268 15.0677C15.7275 15.0649 15.7281 15.0619 15.7281 15.0591ZM13.1582 15.5519C13.1482 15.5569 13.1434 15.5614 13.1417 15.5648C13.137 15.5741 13.1355 15.5877 13.1373 15.6056C13.139 15.6233 13.144 15.6444 13.1513 15.6683C13.1656 15.7151 13.1886 15.7712 13.2132 15.8315L13.215 15.8358C13.2403 15.8976 13.2671 15.9634 13.2875 16.027C13.308 16.0904 13.3223 16.1522 13.3223 16.2058V16.2062C13.3223 16.3258 13.3223 16.4235 13.3148 16.4988C13.308 16.5663 13.2951 16.6175 13.2693 16.6504C13.3 16.6554 13.3245 16.6549 13.3416 16.6518C13.3514 16.65 13.3584 16.6475 13.3627 16.6448C13.3671 16.6422 13.3673 16.6404 13.3673 16.6404C13.3673 16.6404 13.3673 16.6404 13.3673 16.6404L13.3673 16.6392L13.3677 16.6381L13.3677 16.6379L13.3679 16.6375L13.3685 16.6356C13.369 16.6339 13.3698 16.6314 13.3708 16.6281C13.3728 16.6215 13.3756 16.6118 13.379 16.5994C13.3858 16.5745 13.3946 16.5386 13.403 16.4948C13.4198 16.4071 13.4347 16.2879 13.4272 16.1613L13.4272 16.1606L13.4273 16.1598C13.4421 16.0561 13.431 15.9596 13.4143 15.8757C13.4065 15.8369 13.3975 15.8009 13.3894 15.7681C13.3887 15.7654 13.3881 15.7628 13.3874 15.7601C13.3788 15.7253 13.3712 15.694 13.3674 15.6674L13.3653 15.6532L13.378 15.6596L13.3783 15.6597C13.3787 15.6598 13.3793 15.6601 13.3804 15.6604C13.3824 15.6611 13.386 15.6621 13.3915 15.6632C13.4025 15.6654 13.4214 15.6682 13.452 15.6701C13.5134 15.6738 13.6217 15.6738 13.8088 15.6588C13.9957 15.6439 14.1037 15.6178 14.1647 15.5956C14.1951 15.5845 14.2138 15.5744 14.2247 15.5673C14.2302 15.5637 14.2337 15.5609 14.2357 15.5591C14.236 15.5588 14.2363 15.5586 14.2365 15.5584V15.4492L14.2323 15.4494C14.2245 15.4496 14.213 15.45 14.1985 15.4505C14.1693 15.4515 14.1276 15.453 14.0774 15.4551C13.977 15.4593 13.8426 15.4659 13.7069 15.4752C13.5711 15.4846 13.4341 15.4967 13.3283 15.5121C13.2754 15.5199 13.2305 15.5284 13.1976 15.5376C13.1811 15.5423 13.1679 15.5471 13.1582 15.5519ZM14.244 15.4415C14.2438 15.434 14.2438 15.434 14.2438 15.434L14.2407 15.4341L14.2318 15.4344C14.224 15.4346 14.2126 15.435 14.198 15.4355C14.1688 15.4365 14.127 15.438 14.0767 15.4401C13.9762 15.4443 13.8418 15.4509 13.7058 15.4603C13.57 15.4696 13.4325 15.4818 13.3262 15.4973C13.273 15.5051 13.2274 15.5137 13.1935 15.5232C13.1766 15.528 13.1624 15.5331 13.1515 15.5385C13.1409 15.5438 13.1322 15.5501 13.1283 15.5581C13.1217 15.5712 13.1205 15.588 13.1224 15.6071C13.1243 15.6262 13.1295 15.6484 13.137 15.6727C13.1515 15.7201 13.1746 15.7768 13.1992 15.8368L13.2011 15.8415C13.2264 15.9034 13.253 15.9687 13.2733 16.0316C13.2936 16.0946 13.3073 16.1546 13.3073 16.2058C13.3073 16.3259 13.3073 16.4229 13.2999 16.4973C13.2924 16.5722 13.2775 16.6222 13.2496 16.6501L13.2397 16.66L13.2534 16.6628C13.2916 16.6704 13.3225 16.6705 13.3443 16.6666C13.3551 16.6646 13.364 16.6616 13.3705 16.6576C13.3762 16.6541 13.3816 16.6489 13.3822 16.6418L13.3828 16.6401C13.3833 16.6384 13.3841 16.6358 13.3851 16.6325C13.3872 16.6258 13.3901 16.6159 13.3935 16.6033C13.4003 16.5781 13.4093 16.5419 13.4177 16.4976C13.4346 16.4094 13.4497 16.2891 13.4423 16.1612C13.4572 16.0554 13.4459 15.9573 13.429 15.8728C13.4211 15.8336 13.4121 15.7973 13.4039 15.7645C13.4033 15.7618 13.4026 15.7592 13.402 15.7565C13.3945 15.7267 13.3881 15.7001 13.3841 15.6769C13.3854 15.6772 13.3869 15.6775 13.3885 15.6779C13.4004 15.6803 13.42 15.6831 13.4511 15.685C13.5134 15.6888 13.6225 15.6888 13.81 15.6738C13.9977 15.6588 14.1071 15.6324 14.1698 15.6097C14.2011 15.5983 14.2209 15.5877 14.2329 15.5799C14.2389 15.5759 14.243 15.5727 14.2457 15.5703C14.247 15.5691 14.248 15.5681 14.2487 15.5674C14.249 15.5671 14.2493 15.5668 14.2495 15.5666L14.2497 15.5663L14.2498 15.5662C14.2498 15.5662 14.2499 15.5661 14.244 15.5614L14.2499 15.5661L14.2515 15.564V15.4415H14.244Z" fill="#707070"/>
<path fill-rule="evenodd" clip-rule="evenodd" d="M15.8326 15.3365C16.1923 15.3216 16.4321 15.3665 16.4321 15.3665C16.4321 15.3665 16.582 15.6663 16.582 15.8161C16.567 15.966 16.522 16.1159 16.4471 16.0409C16.3871 15.981 16.4771 15.996 16.492 15.8161C16.492 15.6513 16.3722 15.4714 16.3722 15.4714C16.3722 15.4714 16.1174 15.5763 15.7277 15.5613C15.3381 15.5314 15.458 15.5164 15.413 15.5014C15.368 15.5014 15.353 15.6213 14.7686 15.6363C14.1691 15.6363 13.8693 15.5014 13.8693 15.5014C13.8693 15.5014 13.8094 15.5913 13.4497 15.6213H13.0001C13.0151 15.7112 13.09 15.8911 13.075 16.1159C13.075 16.3556 13.0001 16.5954 13.0001 16.5954H12.8952C12.9551 16.5505 12.9402 16.3856 12.9551 16.1608C12.9551 15.936 12.7154 15.6063 12.7603 15.5014C12.8203 15.4115 13.09 15.5014 13.135 15.4564C13.1799 15.3965 12.8952 15.0518 12.9551 14.7371C13.0001 14.4223 13.3148 14.5123 13.6895 14.5123C14.0642 14.5272 14.8885 14.6322 15.0983 14.5123C15.3081 14.4074 15.2182 14.0027 15.398 13.7479C15.4577 13.6751 15.5333 13.6169 15.6191 13.5779C15.7049 13.5389 15.7984 13.5202 15.8926 13.5231C16.0275 13.5231 16.1923 13.9727 16.1923 14.0776L16.1473 14.1376H16.0874V14.1826C15.9375 14.1975 15.9225 14.0627 15.8326 13.9727C15.8027 14.1226 15.9525 14.6322 15.9525 14.9619C15.9525 15.2316 15.8476 15.3515 15.8326 15.3365V15.3365Z" fill="#D0D0D0"/>
<path fill-rule="evenodd" clip-rule="evenodd" d="M15.8923 13.5307C15.7993 13.5278 15.7069 13.5463 15.6222 13.5848C15.5376 13.6232 15.4629 13.6806 15.404 13.7525C15.323 13.8674 15.2974 14.0132 15.2735 14.1494C15.2712 14.1623 15.269 14.175 15.2667 14.1877C15.2536 14.2607 15.2395 14.3298 15.2152 14.3874C15.1909 14.445 15.1563 14.4916 15.1018 14.5189C15.0476 14.5498 14.9553 14.5657 14.8428 14.5725C14.7297 14.5793 14.595 14.5769 14.4553 14.5704C14.3157 14.5638 14.1708 14.553 14.0376 14.543C14.0316 14.5425 14.0256 14.5421 14.0197 14.5416C13.8935 14.5321 13.7786 14.5234 13.6893 14.5198C13.6175 14.5198 13.5478 14.5165 13.4819 14.5134C13.4618 14.5124 13.442 14.5115 13.4227 14.5107C13.3398 14.5071 13.2645 14.5058 13.1996 14.5141C13.1348 14.5225 13.0812 14.5404 13.041 14.5749C13.0011 14.6093 12.9736 14.6608 12.9625 14.7382L12.9625 14.7385C12.933 14.8935 12.9883 15.0565 13.0463 15.1893C13.0608 15.2225 13.0754 15.2537 13.0888 15.2823L13.0897 15.2842C13.1028 15.3121 13.1147 15.3376 13.1243 15.3601C13.1341 15.383 13.1415 15.4032 13.145 15.4197C13.1484 15.4357 13.1487 15.4507 13.141 15.461L13.1403 15.4618C13.1331 15.4691 13.122 15.4729 13.1097 15.475C13.0972 15.4772 13.0822 15.4777 13.0657 15.4773C13.0437 15.4768 13.0183 15.4748 12.9919 15.4726C12.979 15.4716 12.9658 15.4705 12.9527 15.4696C12.9125 15.4668 12.8724 15.4654 12.8389 15.4702C12.8054 15.475 12.7802 15.4856 12.7669 15.505C12.7622 15.5164 12.7611 15.5313 12.7632 15.5498C12.7654 15.5686 12.7709 15.5904 12.7789 15.6148C12.7943 15.6616 12.8185 15.7167 12.8445 15.7758L12.8477 15.7832C12.8749 15.845 12.9036 15.9108 12.9255 15.9753C12.9473 16.0398 12.9626 16.1035 12.9626 16.1609V16.1614C12.9589 16.2174 12.957 16.2698 12.9554 16.3175L12.9551 16.3239C12.9536 16.3691 12.9522 16.4102 12.9495 16.4462C12.9467 16.4838 12.9424 16.5162 12.9349 16.5423C12.9297 16.5605 12.9228 16.576 12.9134 16.588H12.9945C12.995 16.5865 12.9955 16.5847 12.9961 16.5826C12.9982 16.5756 13.0011 16.5654 13.0046 16.5523C13.0116 16.5262 13.0209 16.4889 13.0302 16.4441C13.0489 16.3544 13.0675 16.2351 13.0675 16.1159V16.1154C13.075 16.004 13.0601 15.9036 13.0415 15.8197C13.0325 15.7792 13.0226 15.7427 13.014 15.7105L13.013 15.7069C13.0041 15.674 12.9965 15.6455 12.9927 15.6226L12.9912 15.6138H13.4494C13.6285 15.5989 13.7325 15.5691 13.7914 15.5433C13.8209 15.5304 13.839 15.5185 13.8497 15.5101C13.855 15.5059 13.8585 15.5025 13.8606 15.5003C13.8616 15.4991 13.8623 15.4983 13.8627 15.4978L13.8631 15.4973L13.8666 15.492L13.8724 15.4946L13.8726 15.4947L13.8732 15.495L13.8758 15.4961C13.878 15.497 13.8815 15.4984 13.8861 15.5003C13.8954 15.5039 13.9093 15.5091 13.9279 15.5154C13.9652 15.528 14.0211 15.5448 14.0958 15.5616C14.2451 15.5952 14.4693 15.6288 14.7684 15.6288C15.0602 15.6213 15.2091 15.5877 15.2904 15.5563C15.3309 15.5406 15.3548 15.5255 15.3713 15.5142C15.3732 15.5129 15.375 15.5117 15.3767 15.5105C15.3826 15.5064 15.3879 15.5028 15.3927 15.5001C15.3991 15.4965 15.4055 15.4939 15.413 15.4939H15.4142L15.4153 15.4943C15.4215 15.4964 15.4259 15.4988 15.4289 15.502C15.4319 15.5051 15.4329 15.5085 15.4334 15.5105C15.4335 15.5106 15.4335 15.5107 15.4335 15.5108C15.434 15.5126 15.4343 15.5132 15.435 15.5139C15.436 15.5149 15.4382 15.5167 15.4438 15.5188C15.455 15.5231 15.4772 15.5282 15.5214 15.5341C15.5655 15.5399 15.6308 15.5464 15.7281 15.5539C15.9222 15.5614 16.0826 15.539 16.1945 15.5147C16.2504 15.5026 16.2942 15.49 16.324 15.4805C16.3388 15.4757 16.3502 15.4717 16.3578 15.4689C16.3617 15.4675 16.3645 15.4664 16.3665 15.4657L16.3686 15.4648L16.3691 15.4646L16.3693 15.4646L16.375 15.4622L16.3784 15.4673L16.3785 15.4675L16.3787 15.4679L16.3798 15.4695C16.3807 15.4708 16.382 15.4729 16.3836 15.4755C16.387 15.4808 16.3917 15.4886 16.3974 15.4984C16.4087 15.518 16.4238 15.5458 16.4389 15.5789C16.469 15.6448 16.4995 15.7321 16.4995 15.8162V15.8168C16.4919 15.9083 16.465 15.9507 16.4478 15.9776L16.4477 15.9777C16.4434 15.9843 16.4401 15.9895 16.4377 15.9943C16.4354 15.999 16.4343 16.0026 16.4342 16.006C16.434 16.0125 16.4376 16.0209 16.4524 16.0357C16.47 16.0533 16.4838 16.0559 16.4949 16.0516C16.5071 16.0468 16.5192 16.0327 16.5302 16.0096C16.5521 15.9641 16.567 15.8904 16.5745 15.8158C16.5744 15.7794 16.5653 15.7335 16.5513 15.6847C16.5374 15.6359 16.5187 15.5846 16.5001 15.5379C16.4814 15.4913 16.4627 15.4492 16.4487 15.4189C16.4417 15.4037 16.4359 15.3914 16.4318 15.383C16.4297 15.3788 16.4281 15.3755 16.427 15.3733C16.4253 15.373 16.4229 15.3726 16.4199 15.3721C16.4127 15.3709 16.4019 15.3692 16.3879 15.3672C16.36 15.3632 16.3189 15.3581 16.2666 15.3534C16.1639 15.3443 16.0181 15.3369 15.8432 15.3437C15.8412 15.3445 15.8391 15.3451 15.837 15.3453C15.8337 15.3455 15.8301 15.3447 15.8273 15.3419L15.8326 15.3366L15.8323 15.3291C15.8346 15.329 15.837 15.3289 15.8393 15.3288C15.8425 15.3269 15.8468 15.3232 15.8521 15.3173C15.8634 15.3047 15.8775 15.2834 15.8914 15.2529C15.919 15.1922 15.945 15.0958 15.945 14.9619C15.945 14.7979 15.9077 14.5888 15.8739 14.4012L15.8729 14.3953C15.8564 14.3039 15.8409 14.2178 15.8313 14.1452C15.8214 14.0713 15.8175 14.0102 15.8253 13.9713L15.828 13.9576L15.8379 13.9675C15.861 13.9905 15.8791 14.0163 15.8956 14.0415C15.8996 14.0476 15.9035 14.0537 15.9073 14.0597C15.9194 14.0785 15.9308 14.0963 15.9434 14.1124C15.9599 14.1335 15.9778 14.1508 16.0003 14.1621C16.0214 14.1726 16.0469 14.1781 16.0799 14.1757V14.1301H16.1436L16.1848 14.0752C16.1842 14.0497 16.1743 14.0041 16.1573 13.949C16.1398 13.8924 16.1151 13.8267 16.0862 13.7642C16.0573 13.7017 16.0243 13.6428 15.9904 13.5997C15.9734 13.5781 15.9564 13.5607 15.9398 13.5488C15.9231 13.5368 15.9073 13.5307 15.8926 13.5307L15.8923 13.5307ZM15.8627 15.328C16.0294 15.3224 16.1687 15.3296 16.2679 15.3385C16.3205 15.3432 16.3618 15.3484 16.39 15.3524C16.4042 15.3543 16.415 15.3561 16.4223 15.3573C16.426 15.3579 16.4287 15.3583 16.4306 15.3587L16.4327 15.3591L16.4333 15.3592L16.4334 15.3592L16.4321 15.3666L16.4388 15.3632L16.4389 15.3634L16.4392 15.3641L16.4405 15.3667C16.4416 15.3689 16.4432 15.3722 16.4453 15.3765C16.4494 15.385 16.4553 15.3973 16.4623 15.4126C16.4764 15.4431 16.4952 15.4854 16.514 15.5324C16.5328 15.5794 16.5516 15.6311 16.5657 15.6806C16.5799 15.73 16.5894 15.7777 16.5894 15.8162V15.8169C16.5819 15.8921 16.5668 15.9681 16.5437 16.0161C16.5323 16.0399 16.5182 16.0586 16.5004 16.0655C16.4815 16.0729 16.4616 16.0661 16.4418 16.0463C16.4266 16.0311 16.4189 16.0188 16.4192 16.0057C16.4194 15.9992 16.4214 15.9933 16.4243 15.9876C16.427 15.9821 16.4308 15.9763 16.4347 15.9701L16.4351 15.9695C16.4516 15.9439 16.4771 15.9039 16.4845 15.8159C16.4845 15.7351 16.455 15.6502 16.4253 15.5851C16.4104 15.5526 16.3955 15.5252 16.3844 15.5059C16.3788 15.4963 16.3742 15.4887 16.3709 15.4835C16.3703 15.4825 16.3697 15.4815 16.3692 15.4807C16.3675 15.4813 16.3654 15.4821 16.363 15.483C16.3552 15.4859 16.3436 15.4899 16.3285 15.4948C16.2983 15.5044 16.2541 15.5171 16.1976 15.5294C16.0847 15.5538 15.923 15.5764 15.7274 15.5689L15.7271 15.5689C15.6297 15.5614 15.5639 15.5548 15.5195 15.5489C15.4752 15.5431 15.4515 15.5378 15.4384 15.5328C15.4318 15.5303 15.4272 15.5275 15.4241 15.5242C15.4208 15.5207 15.4198 15.5172 15.4191 15.515C15.4185 15.5129 15.4184 15.5127 15.418 15.5122C15.4175 15.5117 15.416 15.5105 15.4118 15.509C15.4084 15.5092 15.4048 15.5105 15.4 15.5131C15.3959 15.5155 15.3914 15.5186 15.3857 15.5225C15.3838 15.5238 15.3819 15.5252 15.3797 15.5266C15.3625 15.5383 15.3377 15.5541 15.2958 15.5703C15.2122 15.6025 15.0614 15.6363 14.7687 15.6438L14.7685 15.6438C14.4682 15.6438 14.2429 15.61 14.0925 15.5762C14.0173 15.5593 13.9608 15.5423 13.9231 15.5296C13.9043 15.5233 13.8901 15.5179 13.8806 15.5142C13.8768 15.5127 13.8738 15.5115 13.8715 15.5105C13.8689 15.5133 13.8649 15.5172 13.859 15.5218C13.8472 15.5312 13.8279 15.5437 13.7974 15.557C13.7365 15.5837 13.6307 15.6138 13.4503 15.6288L13.4497 15.6289L13.0091 15.6288C13.0131 15.6493 13.0197 15.6741 13.0275 15.703L13.0285 15.7067C13.0371 15.7388 13.0471 15.7756 13.0561 15.8164C13.0749 15.9011 13.09 16.0029 13.0825 16.1162C13.0825 16.2367 13.0637 16.357 13.0449 16.4471C13.0355 16.4923 13.0261 16.5299 13.019 16.5562C13.0155 16.5694 13.0126 16.5797 13.0105 16.5868C13.0095 16.5903 13.0087 16.5931 13.0081 16.5949L13.0075 16.597L13.0073 16.5975L13.0073 16.5977L13.0056 16.603H12.8727L12.8907 16.5895C12.9038 16.5797 12.9135 16.5628 12.9205 16.5382C12.9276 16.5136 12.9317 16.4824 12.9345 16.4451C12.9372 16.4094 12.9386 16.3686 12.9402 16.3233L12.9404 16.317C12.942 16.2693 12.9439 16.2169 12.9476 16.1606C12.9476 16.1057 12.9329 16.0439 12.9113 15.9802C12.8896 15.9163 12.8612 15.8511 12.834 15.7892L12.8306 15.7815C12.8047 15.7226 12.7803 15.667 12.7647 15.6195C12.7565 15.5946 12.7507 15.5717 12.7483 15.5515C12.746 15.5314 12.7471 15.5133 12.7534 15.4985L12.7537 15.4979L12.7541 15.4973C12.7709 15.4721 12.8017 15.4604 12.8368 15.4554C12.872 15.4503 12.9135 15.4518 12.9538 15.4546C12.9673 15.4556 12.9807 15.4567 12.9937 15.4577C13.0198 15.4599 13.0445 15.4619 13.0661 15.4623C13.0822 15.4627 13.0961 15.4621 13.1072 15.4602C13.1181 15.4584 13.1252 15.4554 13.1293 15.4516C13.1325 15.4468 13.1336 15.4379 13.1304 15.4228C13.1272 15.4078 13.1202 15.3887 13.1105 15.366C13.1011 15.3437 13.0892 15.3184 13.076 15.2904L13.0752 15.2887C13.0618 15.26 13.0471 15.2287 13.0326 15.1953C12.9745 15.0622 12.9174 14.8956 12.9477 14.7359C12.9592 14.656 12.9879 14.6008 13.0313 14.5635C13.0745 14.5264 13.1314 14.5078 13.1977 14.4993C13.264 14.4907 13.3404 14.4922 13.4233 14.4957C13.4428 14.4965 13.4627 14.4975 13.4829 14.4984C13.5487 14.5015 13.618 14.5048 13.6895 14.5048H13.6898C13.7794 14.5084 13.8945 14.5171 14.0207 14.5267C14.0267 14.5271 14.0327 14.5276 14.0387 14.528C14.172 14.5381 14.3166 14.5489 14.456 14.5554C14.5955 14.562 14.7296 14.5643 14.8419 14.5575C14.9545 14.5507 15.0438 14.5348 15.0945 14.5058L15.0949 14.5056C15.1452 14.4804 15.178 14.4372 15.2014 14.3815C15.2249 14.3257 15.2389 14.2581 15.252 14.185C15.2543 14.1723 15.2565 14.1594 15.2588 14.1465C15.2826 14.0107 15.3087 13.8614 15.3919 13.7437L15.3922 13.7432C15.4526 13.6695 15.5292 13.6106 15.616 13.5711C15.7027 13.5317 15.7974 13.5127 15.8927 13.5157C15.9116 13.5157 15.9304 13.5236 15.9485 13.5366C15.9667 13.5497 15.9847 13.5682 16.0022 13.5904C16.0371 13.6349 16.0707 13.6949 16.0998 13.7579C16.129 13.821 16.1539 13.8874 16.1716 13.9446C16.1892 14.0015 16.1998 14.0502 16.1998 14.0777V14.0802L16.1511 14.1451H16.0949V14.1894L16.0881 14.1901C16.0495 14.1939 16.019 14.1882 15.9936 14.1755C15.9684 14.1629 15.9489 14.1437 15.9316 14.1216C15.9186 14.105 15.9066 14.0863 15.8944 14.0674C15.8906 14.0615 15.8869 14.0556 15.883 14.0497C15.8694 14.0288 15.8549 14.0081 15.8377 13.9891C15.8337 14.0255 15.8375 14.0785 15.8461 14.1432C15.8557 14.2155 15.8712 14.3013 15.8877 14.3929L15.8887 14.3986C15.9224 14.5857 15.96 14.7962 15.96 14.9619C15.96 15.0978 15.9336 15.1962 15.905 15.2591C15.8907 15.2905 15.8758 15.3132 15.8633 15.3273C15.8631 15.3275 15.8629 15.3277 15.8627 15.328ZM16.4321 15.3666L16.4388 15.3632L16.4371 15.3599L16.4334 15.3592L16.4321 15.3666Z" fill="#707070"/>
<path fill-rule="evenodd" clip-rule="evenodd" d="M14.6487 14.857C14.6487 14.9619 14.1841 15.2167 14.1391 15.3066C14.1091 15.4115 14.259 15.4565 14.214 15.5164C14.1691 15.5763 14.1241 15.5464 14.1091 15.5614L13.9293 15.1867C13.9293 15.1867 14.3789 14.9769 14.3639 14.887C14.3489 14.797 14.0342 14.7371 13.9742 14.5273C13.9143 14.3174 13.9443 13.8828 13.8993 13.7929C13.8543 13.703 13.2998 13.6131 13.2998 13.4932C13.2998 13.3433 13.8693 12.9836 13.9293 12.9237C13.9892 12.8637 14.0492 12.9836 13.9892 13.0286C13.9293 13.0885 13.4947 13.4332 13.4947 13.4782C13.4947 13.5381 13.8543 13.5981 13.9742 13.5981C14.1091 13.5981 14.1691 13.5381 14.1691 13.4782C14.1691 13.4332 14.0342 13.4332 14.0342 13.3283C14.0342 13.2234 14.1091 13.1485 14.229 13.1485C14.289 13.1485 14.4089 13.2234 14.4089 13.3133C14.4089 13.4033 14.304 13.4182 14.289 13.4782C14.274 13.5531 14.4089 13.5981 14.5288 13.5981C14.6487 13.5981 15.0683 13.9128 15.1282 13.9728C15.2032 14.0177 15.2631 14.0177 15.2032 14.0777C15.1432 14.1376 15.1732 14.1976 15.1132 14.1376C15.0841 14.1088 15.0633 14.0725 15.0533 14.0327C15.0533 13.9877 14.6037 13.7629 14.5288 13.8079C14.4688 13.8678 14.5288 14.5273 14.5288 14.5872C14.5288 14.6921 14.6636 14.6921 14.6487 14.857V14.857Z" fill="#D0D0D0"/>
<path fill-rule="evenodd" clip-rule="evenodd" d="M13.9704 12.9157C13.9605 12.9131 13.9482 12.9155 13.9346 12.929C13.9266 12.937 13.9107 12.9495 13.8895 12.9653C13.8681 12.9812 13.8409 13.0008 13.81 13.023L13.8094 13.0234C13.7477 13.0679 13.6713 13.1229 13.5967 13.1807C13.5218 13.2387 13.4491 13.2993 13.3951 13.3547C13.3682 13.3824 13.346 13.4085 13.3307 13.4323C13.3153 13.4561 13.3073 13.4767 13.3073 13.4932C13.3073 13.5052 13.3143 13.5178 13.3289 13.5313C13.3434 13.5448 13.3645 13.5581 13.3906 13.5713C13.4427 13.5977 13.513 13.6229 13.5851 13.6472C13.6019 13.6529 13.6188 13.6585 13.6356 13.6641C13.6907 13.6825 13.7446 13.7004 13.7894 13.7181C13.8187 13.7296 13.8445 13.7411 13.8644 13.7527C13.884 13.7641 13.8994 13.7763 13.906 13.7896C13.9122 13.8019 13.9167 13.8194 13.9204 13.8405C13.924 13.8617 13.9268 13.8871 13.929 13.9155C13.933 13.966 13.9353 14.0265 13.9377 14.0905C13.938 14.0986 13.9383 14.1067 13.9387 14.1149C13.9443 14.2613 13.9518 14.4214 13.9815 14.5253C14.0106 14.6271 14.1017 14.6932 14.1898 14.7457C14.2062 14.7555 14.2226 14.7648 14.2384 14.7738C14.2645 14.7887 14.2889 14.8027 14.3093 14.8161C14.3257 14.827 14.34 14.8379 14.3508 14.8492C14.3615 14.8604 14.3691 14.8725 14.3713 14.8858C14.3737 14.9002 14.3667 14.9155 14.3555 14.9302C14.3441 14.9453 14.3273 14.9613 14.307 14.9776C14.2665 15.0103 14.2113 15.0452 14.156 15.0771C14.1005 15.109 14.0447 15.1381 14.0027 15.1592C13.9817 15.1698 13.9641 15.1784 13.9518 15.1843C13.9467 15.1868 13.9425 15.1888 13.9393 15.1903L14.1124 15.5509C14.1167 15.5495 14.1212 15.5491 14.1253 15.549C14.1281 15.5489 14.1308 15.5489 14.1336 15.5489C14.1386 15.5489 14.1437 15.5489 14.1496 15.5483C14.1664 15.5467 14.1869 15.5401 14.2081 15.512C14.2129 15.5055 14.2148 15.4997 14.215 15.4943C14.2152 15.4887 14.2137 15.4829 14.2104 15.4765C14.2044 15.4648 14.1937 15.4527 14.1813 15.4387C14.1797 15.4369 14.1782 15.4352 14.1766 15.4334C14.1486 15.4017 14.1157 15.3613 14.1319 15.3046L14.1321 15.3039L14.1324 15.3033C14.1387 15.2907 14.1517 15.2762 14.1688 15.2603C14.1861 15.2443 14.2081 15.2264 14.2331 15.2073C14.2683 15.1803 14.3097 15.1507 14.3524 15.1202C14.3703 15.1074 14.3884 15.0944 14.4064 15.0814C14.4673 15.0374 14.5264 14.9931 14.5703 14.9533C14.5923 14.9335 14.6102 14.9149 14.6226 14.8983C14.6352 14.8815 14.6412 14.8676 14.6412 14.857H14.6487L14.6412 14.8564C14.6449 14.8162 14.6394 14.7866 14.6294 14.763C14.6193 14.7394 14.6046 14.7214 14.5889 14.7048C14.5848 14.7005 14.5806 14.6962 14.5764 14.6919C14.5489 14.664 14.5213 14.636 14.5213 14.5873C14.5213 14.5756 14.5189 14.54 14.5156 14.4897C14.5147 14.477 14.5138 14.4635 14.5129 14.4491C14.5082 14.3779 14.5026 14.2879 14.4988 14.1979C14.4951 14.1079 14.4932 14.0178 14.496 13.9463C14.4974 13.9106 14.5 13.8793 14.5042 13.8549C14.5063 13.8427 14.5088 13.8321 14.5118 13.8234C14.5148 13.8149 14.5186 13.8076 14.5235 13.8027L14.5241 13.802L14.5249 13.8015C14.5365 13.7946 14.5539 13.7934 14.5736 13.7954C14.5937 13.7974 14.6179 13.8028 14.6445 13.8106C14.6976 13.8262 14.7612 13.8516 14.8223 13.8798C14.8834 13.908 14.9422 13.9391 14.9858 13.966C15.0076 13.9794 15.0258 13.9919 15.0386 14.0026C15.045 14.0079 15.0503 14.013 15.0541 14.0176C15.0573 14.0217 15.0604 14.0265 15.0608 14.0316C15.0705 14.0698 15.0905 14.1046 15.1185 14.1323C15.1259 14.1397 15.1318 14.1452 15.1365 14.1489C15.1413 14.1527 15.1444 14.1543 15.1462 14.1548C15.1474 14.1551 15.1476 14.155 15.1478 14.1548C15.1478 14.1548 15.1478 14.1549 15.1478 14.1548C15.1485 14.1543 15.1497 14.1528 15.1515 14.1493C15.1529 14.1465 15.1544 14.143 15.1561 14.1388C15.1627 14.1226 15.1731 14.0972 15.1979 14.0724C15.2128 14.0575 15.2187 14.0477 15.2199 14.041C15.2205 14.038 15.22 14.0357 15.2189 14.0334C15.2177 14.0311 15.2154 14.0285 15.2117 14.0256C15.2041 14.0196 15.1923 14.0139 15.1768 14.0065L15.1756 14.0059C15.1607 13.9988 15.143 13.9904 15.1244 13.9792L15.1236 13.9788L15.123 13.9781C15.0935 13.9487 14.9742 13.8554 14.8468 13.7692C14.7832 13.7262 14.7179 13.6851 14.6611 13.6549C14.6327 13.6397 14.6065 13.6274 14.5838 13.6188C14.561 13.6102 14.5424 13.6056 14.5288 13.6056C14.4681 13.6056 14.4033 13.5943 14.3553 13.5731C14.3313 13.5626 14.311 13.5494 14.2975 13.5334C14.2839 13.5172 14.2774 13.4981 14.2816 13.4768L14.2817 13.4764C14.286 13.4594 14.2965 13.4461 14.3089 13.4344C14.3175 13.4263 14.3274 13.4186 14.3373 13.411C14.3416 13.4077 14.3458 13.4045 14.3499 13.4012C14.3776 13.379 14.4014 13.3547 14.4014 13.3134C14.4014 13.2717 14.3735 13.2325 14.3368 13.2031C14.3 13.1737 14.2567 13.156 14.229 13.156C14.1707 13.156 14.1239 13.1742 14.0918 13.2046C14.0597 13.2348 14.0417 13.2778 14.0417 13.3284C14.0417 13.3766 14.0722 13.4008 14.1053 13.4192C14.1122 13.4231 14.1191 13.4266 14.1258 13.43C14.1272 13.4307 14.1285 13.4314 14.1298 13.432C14.1377 13.4361 14.1454 13.4401 14.152 13.4443C14.1648 13.4523 14.1766 13.4627 14.1766 13.4782C14.1766 13.5109 14.1602 13.5431 14.1266 13.5668C14.0931 13.5904 14.0427 13.6056 13.9743 13.6056C13.9136 13.6056 13.7931 13.5905 13.6879 13.568C13.6353 13.5567 13.5862 13.5435 13.55 13.5292C13.532 13.5221 13.5168 13.5146 13.5059 13.5066C13.4955 13.499 13.4872 13.4896 13.4872 13.4782C13.4872 13.4754 13.488 13.4727 13.489 13.4703C13.4901 13.4678 13.4915 13.4651 13.4933 13.4624C13.4967 13.457 13.5017 13.4506 13.5078 13.4436C13.5201 13.4294 13.5375 13.4119 13.5584 13.392C13.6002 13.3523 13.6565 13.303 13.7146 13.2534C13.7575 13.2167 13.8015 13.1797 13.8413 13.1463C13.8554 13.1344 13.869 13.123 13.8819 13.1121C13.9312 13.0706 13.9692 13.038 13.9839 13.0233L13.9847 13.0226C14.0107 13.0031 14.0116 12.9665 13.9976 12.9404C13.9907 12.9275 13.9809 12.9185 13.9704 12.9157ZM14.6562 14.8574C14.656 14.8729 14.6476 14.8899 14.6346 14.9073C14.6214 14.925 14.6027 14.9443 14.5804 14.9645C14.5358 15.0048 14.476 15.0495 14.4151 15.0935C14.397 15.1066 14.3788 15.1197 14.3609 15.1325C14.3183 15.163 14.2773 15.1924 14.2423 15.2192C14.2174 15.2382 14.1958 15.2558 14.179 15.2713C14.1624 15.2867 14.1512 15.2995 14.1461 15.3094C14.1328 15.3572 14.1597 15.3916 14.1878 15.4234C14.1894 15.4252 14.191 15.427 14.1926 15.4288C14.2047 15.4425 14.2169 15.4561 14.2238 15.4697C14.2278 15.4776 14.2303 15.486 14.23 15.4948C14.2297 15.5037 14.2264 15.5124 14.22 15.5209C14.1962 15.5527 14.1717 15.5612 14.1511 15.5633C14.1445 15.5639 14.1379 15.5639 14.1324 15.5639C14.1299 15.5639 14.1277 15.5639 14.1258 15.564C14.1188 15.5642 14.1159 15.5652 14.1144 15.5667L14.107 15.5742L13.9193 15.1832L13.9261 15.18L13.9274 15.1794L13.9311 15.1776C13.9344 15.176 13.9392 15.1737 13.9453 15.1708C13.9576 15.1649 13.975 15.1564 13.996 15.1459C14.0378 15.1248 14.0934 15.0959 14.1485 15.0641C14.2036 15.0323 14.258 14.9979 14.2976 14.9659C14.3174 14.9499 14.3332 14.9348 14.3436 14.9212C14.3541 14.9073 14.3579 14.8963 14.3565 14.8882C14.355 14.879 14.3495 14.8696 14.3399 14.8595C14.3303 14.8494 14.3171 14.8393 14.301 14.8286C14.281 14.8154 14.2574 14.8019 14.2317 14.7873C14.2158 14.7782 14.1992 14.7687 14.1821 14.7586C14.0941 14.7061 13.9979 14.6374 13.9671 14.5294C13.9368 14.4234 13.9293 14.2613 13.9237 14.1155C13.9234 14.1073 13.9231 14.0992 13.9228 14.0911C13.9203 14.027 13.918 13.9669 13.9141 13.9167C13.9119 13.8885 13.9092 13.8636 13.9056 13.843C13.902 13.8223 13.8977 13.8065 13.8926 13.7963C13.8881 13.7872 13.8762 13.7769 13.8569 13.7657C13.8379 13.7546 13.813 13.7435 13.7839 13.732C13.7395 13.7145 13.6861 13.6968 13.6311 13.6784C13.6143 13.6728 13.5973 13.6672 13.5803 13.6614C13.5082 13.6371 13.437 13.6117 13.3838 13.5847C13.3572 13.5712 13.3347 13.5571 13.3187 13.5423C13.3028 13.5276 13.2924 13.5113 13.2924 13.4932C13.2924 13.4723 13.3022 13.4488 13.3181 13.4241C13.3342 13.3992 13.3571 13.3723 13.3844 13.3442C13.4391 13.2881 13.5125 13.227 13.5875 13.1688C13.6623 13.1109 13.7389 13.0557 13.8006 13.0113L13.8013 13.0108C13.8322 12.9886 13.8593 12.9691 13.8806 12.9532C13.902 12.9373 13.917 12.9255 13.924 12.9184C13.9404 12.902 13.9581 12.8969 13.9743 12.9013C13.9901 12.9055 14.0027 12.9181 14.0108 12.9333C14.0268 12.9632 14.0277 13.0088 13.9942 13.0343C13.9787 13.0497 13.9402 13.0826 13.8915 13.1236C13.8786 13.1344 13.865 13.1459 13.8509 13.1578C13.8111 13.1912 13.7672 13.2281 13.7244 13.2648C13.6663 13.3144 13.6102 13.3635 13.5687 13.4029C13.5479 13.4226 13.5309 13.4398 13.5191 13.4534C13.5132 13.4602 13.5088 13.4659 13.5059 13.4705C13.5044 13.4728 13.5034 13.4746 13.5028 13.4761C13.5025 13.4768 13.5024 13.4773 13.5023 13.4777C13.5022 13.4781 13.5022 13.4783 13.5022 13.4782C13.5022 13.4819 13.5051 13.4875 13.5148 13.4946C13.5241 13.5014 13.5379 13.5084 13.5555 13.5153C13.5905 13.5291 13.6388 13.5421 13.6911 13.5533C13.7957 13.5758 13.9151 13.5906 13.9743 13.5906C14.0407 13.5906 14.0877 13.5759 14.1179 13.5545C14.148 13.5333 14.1616 13.5055 14.1616 13.4782C14.1616 13.4713 14.1565 13.4648 14.144 13.4569C14.138 13.4532 14.1309 13.4494 14.123 13.4454C14.1217 13.4447 14.1204 13.4441 14.1191 13.4434C14.1124 13.44 14.1052 13.4363 14.098 13.4323C14.0637 13.4133 14.0267 13.3851 14.0267 13.3284C14.0267 13.2741 14.0462 13.2271 14.0815 13.1937C14.1169 13.1603 14.1675 13.141 14.229 13.141C14.2614 13.141 14.3079 13.1608 14.3461 13.1914C14.3843 13.222 14.4164 13.2651 14.4164 13.3134C14.4164 13.362 14.3877 13.3901 14.3592 13.4129C14.3547 13.4166 14.3502 13.42 14.3458 13.4234C14.3362 13.4308 14.3272 13.4378 14.3192 13.4453C14.3078 13.456 14.2996 13.467 14.2963 13.4799C14.2931 13.4959 14.2978 13.5105 14.309 13.5238C14.3204 13.5373 14.3385 13.5494 14.3613 13.5594C14.407 13.5795 14.4696 13.5906 14.5288 13.5906C14.5451 13.5906 14.5658 13.5959 14.5891 13.6048C14.6126 13.6136 14.6394 13.6263 14.6681 13.6416C14.7256 13.6722 14.7914 13.7136 14.8552 13.7568C14.9817 13.8424 15.1013 13.9356 15.1329 13.9668C15.1506 13.9774 15.1674 13.9854 15.1822 13.9925L15.1832 13.993C15.1982 14.0001 15.2117 14.0066 15.2209 14.0137C15.2256 14.0174 15.2297 14.0216 15.2322 14.0266C15.2349 14.0318 15.2358 14.0375 15.2347 14.0437C15.2326 14.0553 15.2236 14.0679 15.2085 14.083C15.1862 14.1053 15.1772 14.127 15.1705 14.1433C15.1685 14.148 15.1668 14.1523 15.1649 14.156C15.163 14.1599 15.1604 14.1641 15.1567 14.1669C15.1524 14.1701 15.1473 14.1707 15.1421 14.1692C15.1374 14.1679 15.1325 14.1648 15.1272 14.1606C15.1219 14.1564 15.1155 14.1505 15.108 14.143M14.5335 13.8139C14.5311 13.8166 14.5285 13.8213 14.526 13.8284C14.5233 13.836 14.521 13.8457 14.5189 13.8575C14.5149 13.8809 14.5124 13.9114 14.511 13.9469C14.5082 14.0178 14.51 14.1074 14.5138 14.1973C14.5175 14.2871 14.5231 14.377 14.5278 14.4481C14.5288 14.4623 14.5296 14.4757 14.5305 14.4882C14.5338 14.5386 14.5363 14.575 14.5363 14.5873C14.5363 14.6294 14.5592 14.6529 14.5866 14.6809C14.5909 14.6853 14.5953 14.6898 14.5998 14.6945C14.6159 14.7116 14.6321 14.7311 14.6432 14.7572C14.6542 14.7832 14.6599 14.8153 14.6562 14.8574" fill="#707070"/>
<path fill-rule="evenodd" clip-rule="evenodd" d="M13.8694 13.5831H14.6187V14.3475H13.8694V13.5831Z" fill="#A7A7A7"/>
<path d="M16.2534 16.3413L13.7939 12.6494C13.771 12.615 13.7405 12.5934 13.7259 12.6011C13.7113 12.6089 13.7181 12.6432 13.741 12.6776L16.2005 16.3695C16.2234 16.4039 16.2539 16.4255 16.2685 16.4177C16.2831 16.4099 16.2763 16.3757 16.2534 16.3413Z" fill="#808080"/>
<path fill-rule="evenodd" clip-rule="evenodd" d="M14.0633 12.9831C14.0633 13.0123 14.0504 13.0403 14.0273 13.061C14.0042 13.0816 13.9729 13.0932 13.9403 13.0932C13.9077 13.0932 13.8764 13.0816 13.8533 13.061C13.8302 13.0403 13.8173 13.0123 13.8173 12.9831C13.8173 12.9539 13.8302 12.9259 13.8533 12.9053C13.8764 12.8846 13.9077 12.873 13.9403 12.873C13.9729 12.873 14.0042 12.8846 14.0273 12.9053C14.0504 12.9259 14.0633 12.9539 14.0633 12.9831V12.9831Z" fill="#D0D0D0"/>
<path fill-rule="evenodd" clip-rule="evenodd" d="M13.9403 12.8813C13.9096 12.8813 13.8802 12.8922 13.8587 12.9114C13.8373 12.9306 13.8254 12.9564 13.8254 12.9831C13.8254 13.0098 13.8373 13.0357 13.8587 13.0549C13.8802 13.0741 13.9096 13.085 13.9403 13.085C13.971 13.085 14.0003 13.0741 14.0218 13.0549C14.0433 13.0357 14.0551 13.0098 14.0551 12.9831C14.0551 12.9564 14.0433 12.9306 14.0218 12.9114C14.0003 12.8922 13.971 12.8813 13.9403 12.8813ZM13.8478 12.8992C13.8725 12.8771 13.9058 12.8649 13.9403 12.8649C13.9748 12.8649 14.0081 12.8771 14.0328 12.8992C14.0574 12.9213 14.0715 12.9515 14.0715 12.9831C14.0715 13.0148 14.0574 13.045 14.0328 13.0671C14.0081 13.0892 13.9748 13.1014 13.9403 13.1014C13.9058 13.1014 13.8725 13.0892 13.8478 13.0671C13.8231 13.045 13.8091 13.0148 13.8091 12.9831C13.8091 12.9515 13.8231 12.9213 13.8478 12.8992Z" fill="#707070"/>
<path fill-rule="evenodd" clip-rule="evenodd" d="M16.2073 13.9727C16.2073 14.0177 15.9076 14.0776 15.5928 14.0776C15.2631 14.0776 14.9784 14.0177 14.9784 13.9727C14.9784 13.9278 15.2631 14.0477 15.5778 14.0477C15.9225 14.0477 16.2073 13.9278 16.2073 13.9727V13.9727Z" fill="#808080"/>
<path fill-rule="evenodd" clip-rule="evenodd" d="M13.9293 14.3474H14.5438V14.5722H13.9443L13.9293 14.3474Z" fill="#A7A7A7"/>
<path fill-rule="evenodd" clip-rule="evenodd" d="M15.9225 13.8079C15.8626 13.9278 15.8176 14.0028 15.8026 13.9878C15.8026 13.9878 15.8326 13.8679 15.8926 13.763L16.0125 13.5831C16.0274 13.5981 15.9825 13.703 15.9225 13.8079ZM16.0724 14.1077L15.9525 14.1826C15.9836 14.1305 16.0243 14.0847 16.0724 14.0477C16.1473 13.9878 16.2073 13.9578 16.2073 13.9728L16.0874 14.0927L16.0724 14.1077Z" fill="#808080"/>
<path fill-rule="evenodd" clip-rule="evenodd" d="M16.0125 13.9577L16.0874 14.1376L15.9675 13.9877L15.8926 13.8079L16.0125 13.9577ZM15.9525 14.4373C15.9525 14.4373 15.7727 14.4673 15.5329 14.4673C15.2931 14.4673 15.0983 14.4523 15.0983 14.4373L15.5329 14.4073C15.7727 14.4073 15.9525 14.4073 15.9525 14.4373ZM14.5437 14.3774C14.5437 14.3923 14.4089 14.4073 14.244 14.4073C14.0642 14.4073 13.9443 14.4073 13.9443 14.3774C13.9443 14.3774 14.0642 14.3474 14.244 14.3474C14.4089 14.3474 14.5437 14.3624 14.5437 14.3774Z" fill="#808080"/>
<path fill-rule="evenodd" clip-rule="evenodd" d="M13.1949 16.2957C13.1949 16.2957 13.2999 16.5355 13.7345 16.5355C14.1541 16.5355 14.304 16.4606 14.1391 16.3407C13.9743 16.2208 13.6296 16.2508 13.6895 16.3557C13.7195 16.4756 13.5546 16.5055 13.5247 16.4306C13.4797 16.3557 13.3298 16.1159 13.5996 16.1009C13.8843 16.0859 14.4688 15.996 14.6187 16.1608C14.7686 16.3257 14.4538 16.4606 14.6936 16.5055C14.9184 16.5355 14.9634 16.4606 15.368 16.4456C15.7727 16.4156 15.9375 16.5205 16.0724 16.5055C16.2223 16.5055 16.1923 16.2508 16.0724 16.2058C15.9675 16.1309 15.7577 16.1159 15.6978 16.0559C15.6528 15.981 15.5029 16.0559 15.5179 15.966C15.5179 15.8911 15.7277 16.011 15.7277 15.981L15.7577 15.951H15.7127L15.7277 15.9211L15.6978 15.936L15.7127 15.9061C15.7127 15.9061 15.6678 15.936 15.6678 15.9061H15.6378C15.6678 15.8761 15.6528 15.8761 15.6378 15.8611H15.5928V15.8161C15.5629 15.8161 15.5629 15.8161 15.5479 15.8461V15.7712C15.5479 15.7562 15.5779 15.7412 15.6228 15.7412C15.7277 15.7412 15.7727 15.8611 15.8176 15.8611C15.8476 15.8611 15.8926 15.7412 16.0275 15.7862L16.2523 15.8761C16.3272 15.9211 16.2073 15.966 16.2523 16.026C16.2972 16.0859 16.567 16.2807 16.4921 16.5055C16.4171 16.7154 16.1923 16.7453 16.1923 16.8353C16.1623 16.9252 16.8368 16.8952 17.0016 16.9252C17.1162 16.946 17.2183 17.0104 17.2864 17.105L16.9866 17.12C16.9866 17.12 16.8368 17.0451 16.4621 17.0301C16.0874 17.0301 15.9525 16.8802 15.8027 16.8502L15.2032 16.8802L14.7536 16.8353C14.6637 16.8203 14.1241 17.075 14.1241 17.135H13.7644C13.7644 17.135 13.8094 17.0001 14.0192 16.9851C14.2141 16.9551 14.4239 16.8652 14.4089 16.8053L14.4688 16.4156C14.4688 16.3257 14.5588 16.2658 14.5438 16.2358C14.5288 16.1758 14.289 16.1309 14.0642 16.1309C13.8394 16.1309 13.5996 16.1459 13.5546 16.1908C13.5247 16.2508 13.5546 16.4156 13.5996 16.3856C13.6446 16.3856 13.5846 16.2658 13.6296 16.2508C13.7267 16.2209 13.8277 16.2058 13.9293 16.2058C14.0492 16.2058 14.244 16.3107 14.244 16.3557C14.244 16.3707 14.304 16.4756 14.2141 16.5205C14.0645 16.5701 13.9067 16.5905 13.7495 16.5805C13.5929 16.5723 13.4397 16.5315 13.2999 16.4606C13.2399 16.4156 13.1949 16.3107 13.1949 16.2957V16.2957Z" fill="#D0D0D0"/>
<path fill-rule="evenodd" clip-rule="evenodd" d="M15.5586 15.7655C15.5559 15.7682 15.5554 15.7701 15.5554 15.7712V15.8183C15.5569 15.8166 15.5586 15.815 15.5606 15.8137C15.5648 15.8109 15.5694 15.8097 15.5745 15.8092C15.5793 15.8087 15.5853 15.8087 15.5924 15.8087L15.6003 15.8087V15.8537H15.6409L15.6431 15.8559C15.6456 15.8583 15.6479 15.8602 15.6503 15.8622C15.6512 15.8629 15.6522 15.8637 15.6532 15.8646C15.6562 15.8671 15.6601 15.8706 15.6618 15.8756C15.6636 15.8813 15.6622 15.8869 15.659 15.8923C15.6579 15.8943 15.6564 15.8964 15.6547 15.8986H15.6753V15.9061C15.6753 15.909 15.6758 15.9103 15.6761 15.9109C15.6764 15.9112 15.6766 15.9115 15.6772 15.9116C15.6789 15.9122 15.6825 15.912 15.6879 15.9102C15.6929 15.9086 15.698 15.906 15.7021 15.9038C15.704 15.9027 15.7057 15.9017 15.7069 15.901L15.7082 15.9001L15.7085 15.8999L15.7086 15.8999M15.5853 15.8237C15.5815 15.8237 15.5786 15.8238 15.5761 15.8241C15.5722 15.8245 15.5703 15.8252 15.5689 15.8262C15.5674 15.8272 15.5657 15.8289 15.5634 15.8327C15.561 15.8366 15.5584 15.8419 15.5546 15.8495L15.5404 15.8462V15.7712C15.5404 15.7649 15.5436 15.7593 15.548 15.7549C15.5524 15.7505 15.5584 15.7468 15.5655 15.7437C15.5798 15.7376 15.5996 15.7338 15.6228 15.7338C15.6784 15.7338 15.7177 15.7656 15.748 15.7959C15.7546 15.8025 15.7606 15.8089 15.7663 15.8149C15.774 15.823 15.7811 15.8305 15.7881 15.8369C15.8002 15.8481 15.8096 15.8537 15.8176 15.8537C15.819 15.8537 15.8213 15.8529 15.8253 15.85C15.8291 15.8472 15.8335 15.8431 15.8388 15.8378C15.8404 15.8362 15.8422 15.8344 15.8439 15.8326C15.8534 15.8231 15.8648 15.8114 15.8787 15.8009C15.8952 15.7882 15.9154 15.7768 15.9405 15.7716C15.9655 15.7664 15.995 15.7675 16.0298 15.7791L16.0302 15.7792L16.2562 15.8696L16.2561 15.8697C16.276 15.8817 16.285 15.895 16.285 15.9101C16.285 15.924 16.2772 15.9375 16.2699 15.9494C16.269 15.9508 16.2682 15.9521 16.2673 15.9535C16.2605 15.9646 16.2541 15.9749 16.251 15.9856C16.2479 15.997 16.2485 16.0086 16.2582 16.0215C16.2635 16.0285 16.2723 16.0378 16.2838 16.0493C16.2897 16.0552 16.296 16.0613 16.3029 16.068C16.3096 16.0746 16.3168 16.0817 16.3245 16.0893C16.355 16.1196 16.3909 16.1569 16.4231 16.1995C16.4873 16.2844 16.5378 16.392 16.4992 16.508L16.4991 16.5081C16.4608 16.6153 16.3842 16.6764 16.3183 16.7216C16.3087 16.7282 16.2994 16.7344 16.2905 16.7403C16.2685 16.755 16.249 16.768 16.2334 16.7811C16.2116 16.7995 16.1998 16.8163 16.1998 16.8353V16.8365L16.1994 16.8377C16.1983 16.8409 16.1988 16.8436 16.2008 16.8465C16.2031 16.8497 16.2076 16.8534 16.215 16.857C16.2299 16.8644 16.2535 16.8706 16.2842 16.8757C16.3452 16.8859 16.4315 16.8915 16.5242 16.8953C16.5811 16.8976 16.6401 16.8991 16.6972 16.9007C16.7331 16.9016 16.7683 16.9026 16.8016 16.9037C16.8874 16.9065 16.9611 16.9102 17.0029 16.9178C17.1195 16.939 17.2233 17.0045 17.2924 17.1007L17.3005 17.1119L16.985 17.1276M16.0249 15.7933C15.9924 15.7825 15.9657 15.7817 15.9435 15.7863C15.9212 15.7909 15.9031 15.8011 15.8878 15.8128C15.8748 15.8226 15.8642 15.8334 15.8548 15.843C15.8529 15.8449 15.8511 15.8467 15.8494 15.8484C15.8441 15.8537 15.839 15.8586 15.8341 15.8621C15.8294 15.8656 15.8238 15.8686 15.8176 15.8686C15.8032 15.8686 15.7901 15.8592 15.7779 15.8479C15.7707 15.8413 15.7629 15.8331 15.7548 15.8245C15.7491 15.8185 15.7433 15.8124 15.7374 15.8065C15.7077 15.7768 15.6721 15.7488 15.6228 15.7488C15.6011 15.7488 15.5834 15.7524 15.5714 15.7575C15.5654 15.7601 15.5612 15.7629 15.5586 15.7655M13.5608 16.1953C13.5543 16.2089 13.5508 16.2287 13.5502 16.251C13.5495 16.2738 13.5518 16.2985 13.5563 16.3205C13.5609 16.3426 13.5677 16.3611 13.5755 16.372C13.5794 16.3774 13.583 16.3803 13.586 16.3813C13.5885 16.3822 13.5915 16.3821 13.5954 16.3795L13.5973 16.3782H13.5996C13.6033 16.3782 13.6051 16.3771 13.6062 16.3757C13.6076 16.374 13.6088 16.3709 13.6095 16.3658C13.6107 16.3555 13.609 16.3411 13.6071 16.3248C13.6053 16.3091 13.6033 16.2918 13.6048 16.2774C13.6063 16.2631 13.6117 16.2489 13.6272 16.2437L13.6273 16.2436C13.7252 16.2136 13.8269 16.1983 13.9293 16.1984M13.5608 16.1953C13.5655 16.191 13.5728 16.1866 13.5831 16.1823C13.5939 16.1778 13.6074 16.1736 13.6233 16.1698C13.6552 16.1622 13.696 16.1562 13.7427 16.1515C13.836 16.1422 13.9519 16.1384 14.0642 16.1384C14.1761 16.1384 14.2918 16.1496 14.3811 16.1682C14.4258 16.1775 14.4636 16.1886 14.491 16.201C14.5047 16.2071 14.5156 16.2135 14.5233 16.2199C14.5311 16.2263 14.5351 16.2323 14.5365 16.2376L14.5367 16.2384L14.537 16.2392C14.5389 16.2429 14.5382 16.249 14.5318 16.2603C14.5275 16.268 14.5214 16.2766 14.5145 16.2865C14.5117 16.2905 14.5088 16.2946 14.5057 16.299C14.4851 16.329 14.4615 16.3679 14.4613 16.4151L14.4012 16.8057L14.4016 16.8071C14.4029 16.8122 14.4019 16.8182 14.3979 16.8253C14.3938 16.8325 14.3868 16.8404 14.3769 16.8488C14.357 16.8655 14.3268 16.8829 14.2896 16.8997C14.2155 16.933 14.1151 16.9628 14.0184 16.9777C13.9119 16.9854 13.8467 17.0235 13.808 17.0603C13.7887 17.0786 13.7761 17.0966 13.7683 17.11C13.7644 17.1167 13.7617 17.1222 13.7599 17.1262C13.759 17.1282 13.7584 17.1297 13.758 17.1308L13.7575 17.1321L13.7574 17.1325L13.7573 17.1326M14.2413 16.3318C14.2472 16.3394 14.2515 16.3476 14.2515 16.3557C14.2515 16.3557 14.2515 16.3562 14.2519 16.3577C14.2523 16.359 14.2528 16.3607 14.2535 16.3629C14.2542 16.365 14.2551 16.3674 14.256 16.3702C14.257 16.3729 14.258 16.3759 14.2591 16.3791C14.2634 16.3919 14.2682 16.4084 14.2702 16.4261C14.2722 16.4437 14.2712 16.4629 14.2635 16.4809C14.2558 16.4991 14.2413 16.5153 14.2174 16.5273L14.2164 16.5278C14.0659 16.5776 13.9072 16.598 13.749 16.588C13.5914 16.5798 13.4372 16.5387 13.2965 16.4673L13.2953 16.4667L13.2953 16.4666C13.2641 16.4432 13.2373 16.4046 13.2184 16.3706C13.2088 16.3535 13.2012 16.3373 13.196 16.3244C13.1933 16.3179 13.1912 16.3122 13.1898 16.3075C13.1885 16.3031 13.1874 16.2989 13.1874 16.2958M14.2413 16.3318C14.2353 16.324 14.2267 16.3158 14.2164 16.3075ZM14.2164 16.3075C14.1957 16.2909 14.1671 16.2733 14.135 16.2572ZM14.135 16.2572C14.0708 16.2252 13.9909 16.1984 13.9293 16.1984Z" fill="#808080"/>
<path fill-rule="evenodd" clip-rule="evenodd" d="M15.9225 15.9211C15.9225 15.927 15.9214 15.9328 15.9191 15.9383C15.9169 15.9437 15.9135 15.9487 15.9094 15.9529C15.9052 15.957 15.9002 15.9603 15.8948 15.9626C15.8893 15.9649 15.8835 15.966 15.8776 15.966C15.8717 15.966 15.8658 15.9649 15.8604 15.9626C15.8549 15.9603 15.85 15.957 15.8458 15.9529C15.8416 15.9487 15.8383 15.9437 15.836 15.9383C15.8338 15.9328 15.8326 15.927 15.8326 15.9211C15.8326 15.9091 15.8373 15.8977 15.8458 15.8893C15.8542 15.8808 15.8656 15.8761 15.8776 15.8761C15.8895 15.8761 15.9009 15.8808 15.9094 15.8893C15.9178 15.8977 15.9225 15.9091 15.9225 15.9211V15.9211Z" fill="black"/>
<path d="M18.2455 15.2167L18.4853 15.2616L18.8899 14.9919L18.86 15.1417L18.6502 15.2766L18.5303 15.3366L18.6052 15.4565L18.7401 15.6663L18.7101 15.8161L18.4553 15.3815L18.2155 15.3366L18.2455 15.2167V15.2167ZM17.8409 13.4482L18.2905 13.2384L18.1706 12.9686L18.2305 12.9387L18.5303 13.5981L18.4853 13.6281L18.3504 13.3433L17.9008 13.5681L17.8409 13.4482V13.4482ZM17.1215 12.579L17.5411 12.1893L17.631 12.2792V12.9387L17.9608 12.6389L18.0357 12.7288L17.6161 13.1185L17.5261 13.0286V12.3692L17.1964 12.6689L17.1215 12.579ZM15.2631 11.8296L15.3381 11.2601H15.458L15.383 11.7847L15.8326 11.8296V11.9046L15.2631 11.8296ZM14.3489 11.9196L14.244 11.3501L14.3639 11.3201L14.4538 11.8296L14.9034 11.7397V11.8146L14.3489 11.9196V11.9196ZM12.6554 12.7438L12.6104 12.6989L12.9102 12.4591L13.0601 12.609C13.0279 12.6737 12.9876 12.7342 12.9402 12.7888C12.9013 12.8439 12.856 12.8942 12.8053 12.9387C12.742 12.9893 12.6712 13.0297 12.5955 13.0586C12.5205 13.0735 12.4456 13.0885 12.4006 13.0586C12.3433 13.0524 12.2901 13.0258 12.2508 12.9836C12.2204 12.9396 12.2047 12.8872 12.2058 12.8338C12.2058 12.7738 12.2208 12.6989 12.2657 12.6389C12.2957 12.579 12.3557 12.519 12.4156 12.4741C12.4655 12.4318 12.521 12.3965 12.5805 12.3692L12.7154 12.3392C12.7453 12.3392 12.7903 12.3392 12.8203 12.3692L12.7603 12.4441C12.7319 12.4321 12.7011 12.4269 12.6704 12.4291L12.5805 12.4441C12.5423 12.4642 12.507 12.4894 12.4756 12.519C12.4306 12.549 12.3856 12.579 12.3707 12.6239C12.3454 12.65 12.3251 12.6805 12.3107 12.7139V12.7888C12.3107 12.8338 12.3257 12.8787 12.3557 12.9087L12.4606 12.9836L12.6104 12.9686C12.7484 12.9104 12.8603 12.8038 12.9252 12.6689L12.8652 12.579L12.6554 12.7438V12.7438ZM12.6404 16.8952L12.1608 17.2399L11.8012 16.7303L11.8611 16.6854L12.1608 17.09L12.2957 16.9851L12.0559 16.6404L12.1009 16.6104L12.3557 16.9551L12.5655 16.8053L12.6404 16.8952V16.8952ZM11.936 16.1459C12.011 16.1309 12.0559 16.0859 12.0859 16.011V15.7862C12.0623 15.7088 12.0151 15.6407 11.951 15.5913C11.9061 15.5464 11.8311 15.5314 11.7712 15.5464C11.7238 15.5567 11.6814 15.5832 11.6513 15.6213C11.6363 15.6513 11.6063 15.6962 11.6063 15.7412L11.6213 15.9061C11.6513 15.996 11.6813 16.0559 11.7412 16.1159C11.7862 16.1608 11.8611 16.1758 11.936 16.1459V16.1459ZM11.981 16.2657C11.9371 16.2797 11.8902 16.2815 11.8453 16.271C11.8005 16.2604 11.7593 16.2379 11.7262 16.2058C11.6463 16.1338 11.589 16.04 11.5614 15.936C11.5314 15.8461 11.5314 15.7862 11.5314 15.6962C11.5314 15.6063 11.5614 15.5764 11.5913 15.5314C11.6255 15.478 11.6794 15.4403 11.7412 15.4265C11.7915 15.4153 11.844 15.4205 11.8911 15.4415C11.951 15.4714 11.996 15.5014 12.0409 15.5614C12.133 15.6923 12.1755 15.8516 12.1608 16.011C12.1554 16.0702 12.1348 16.127 12.1009 16.1758C12.0709 16.2208 12.026 16.2508 11.981 16.2657V16.2657ZM12.026 15.0968H11.4265V14.6771L11.4565 14.4973L11.5164 14.3924C11.5286 14.3815 11.5428 14.3733 11.5583 14.3681C11.5737 14.363 11.5901 14.361 11.6063 14.3624C11.6513 14.3624 11.6813 14.3774 11.7112 14.4224C11.7262 14.4673 11.7562 14.5273 11.7562 14.6172C11.776 14.5539 11.8122 14.497 11.8611 14.4523L12.026 14.3025V14.4523L11.9061 14.5572L11.8161 14.6472C11.7983 14.6648 11.7831 14.685 11.7712 14.7071C11.7687 14.727 11.7687 14.7472 11.7712 14.7671V14.827L11.7562 14.9769H12.026V15.0968V15.0968ZM11.6962 14.9619V14.7071C11.7013 14.6623 11.7013 14.617 11.6962 14.5722C11.6909 14.5502 11.6807 14.5297 11.6663 14.5123C11.6555 14.497 11.6395 14.4864 11.6213 14.4823C11.5913 14.4823 11.5614 14.4973 11.5464 14.5273L11.5164 14.6771V14.9769H11.7112L11.6962 14.9619ZM13.2998 12.4291V11.7547L13.4197 11.6798L14.0342 11.9795L13.9143 12.0544L13.7345 11.9645L13.4197 12.1593V12.3692L13.2998 12.4291V12.4291ZM13.4048 12.0844L13.6745 11.9345L13.5246 11.8446C13.4782 11.8225 13.4331 11.7974 13.3898 11.7697L13.4048 11.8896V12.0844V12.0844ZM16.1923 11.9046L16.8218 11.6498L16.9267 11.7247L16.8817 12.4141L16.7768 12.3242L16.7918 12.1294L16.492 11.9046L16.2972 11.9795L16.1923 11.9046V11.9046ZM16.552 11.8746L16.8068 12.0544V11.8746C16.8137 11.8241 16.8237 11.774 16.8367 11.7247C16.8048 11.7537 16.7696 11.7788 16.7318 11.7997L16.552 11.8746ZM18.0956 14.0177L18.6651 13.8828L18.7551 14.2875L18.785 14.4673L18.7551 14.5722C18.7474 14.5868 18.7368 14.5997 18.7239 14.61C18.711 14.6203 18.6961 14.6279 18.6801 14.6322C18.6352 14.6322 18.5902 14.6322 18.5602 14.6022C18.5107 14.552 18.4746 14.4902 18.4553 14.4224C18.4578 14.4473 18.4578 14.4724 18.4553 14.4973L18.3954 14.6172L18.2755 14.797L18.2455 14.6472L18.3354 14.4973L18.3954 14.4074C18.4157 14.3707 18.426 14.3294 18.4254 14.2875C18.4221 14.2622 18.4171 14.2371 18.4104 14.2125L18.3804 14.0777L18.1256 14.1376L18.0956 14.0177V14.0177ZM18.4403 14.0627L18.5003 14.3175C18.5003 14.3624 18.5303 14.4074 18.5452 14.4373C18.5452 14.4673 18.5752 14.4823 18.5902 14.4973L18.6502 14.5123C18.6651 14.5123 18.6951 14.4823 18.6951 14.4523C18.7072 14.4031 18.7072 14.3517 18.6951 14.3025L18.6202 14.0177L18.4403 14.0627V14.0627Z" fill="#D0D0D0"/>
</g>
<defs>
<clipPath id="clip0_4_3650">
<rect width="60" height="45" fill="white"/>
</clipPath>
</defs>
</svg>
