<svg width="60" height="45" viewBox="0 0 60 45" fill="none" xmlns="http://www.w3.org/2000/svg">
<g clip-path="url(#clip0_4_5689)">
<path d="M0 0H60V45H0V0Z" fill="#CD2A3E"/>
<path d="M0 6.75H60V38.25H0V6.75Z" fill="#006233"/>
<path d="M44.0625 14.4938C44.0625 18.2234 42.5809 21.8002 39.9437 24.4375C37.3065 27.0747 33.7296 28.5563 30 28.5563C26.2704 28.5563 22.6935 27.0747 20.0563 24.4375C17.4191 21.8002 15.9375 18.2234 15.9375 14.4938C15.625 15.6937 15.4675 16.9288 15.4688 18.1688C15.4688 22.0227 16.9997 25.7188 19.7249 28.4439C22.45 31.1691 26.1461 32.7 30 32.7C33.8539 32.7 37.55 31.1691 40.2752 28.4439C43.0003 25.7188 44.5313 22.0227 44.5313 18.1688C44.5331 16.9288 44.3755 15.6936 44.0625 14.4938V14.4938Z" fill="#FFC400"/>
<path d="M30 8.7937L28.7344 12.6843H24.6562L27.9656 15.0843L26.7 18.9656L30.0094 16.5656L33.3187 18.9656L32.0531 15.0843L35.3625 12.6843H31.275L30 8.7937Z" fill="#FFC400"/>
</g>
<defs>
<clipPath id="clip0_4_5689">
<rect width="60" height="45" fill="white"/>
</clipPath>
</defs>
</svg>
