<svg width="60" height="45" viewBox="0 0 60 45" fill="none" xmlns="http://www.w3.org/2000/svg">
<g clip-path="url(#clip0_4_6107)">
<path d="M0 0H60V45H0V0Z" fill="#DA2032"/>
<path d="M19.9969 0H40.0031V45H19.9969V0Z" fill="#0066B3"/>
<path d="M10.0031 20.7937C12.0742 20.7937 13.7531 19.1148 13.7531 17.0437C13.7531 14.9726 12.0742 13.2937 10.0031 13.2937C7.93204 13.2937 6.25311 14.9726 6.25311 17.0437C6.25311 19.1148 7.93204 20.7937 10.0031 20.7937Z" fill="#FFD900"/>
<path d="M10.0031 19.425C12.2606 19.425 14.0906 17.595 14.0906 15.3375C14.0906 13.08 12.2606 11.25 10.0031 11.25C7.74565 11.25 5.91562 13.08 5.91562 15.3375C5.91562 17.595 7.74565 19.425 10.0031 19.425Z" fill="#DA2032"/>
<path d="M10.0031 18.75C11.5098 18.75 12.7312 17.5285 12.7312 16.0218C12.7312 14.5151 11.5098 13.2937 10.0031 13.2937C8.49642 13.2937 7.27499 14.5151 7.27499 16.0218C7.27499 17.5285 8.49642 18.75 10.0031 18.75Z" fill="#FFD900"/>
<path d="M10.2844 7.16248C10.146 7.22303 10.0271 7.32083 9.94102 7.44498C9.85494 7.56913 9.80503 7.71475 9.79686 7.8656C9.77811 8.09998 9.88124 8.36248 9.89061 8.58748C9.89061 8.98123 9.48749 9.11248 9.48749 9.6656C9.48749 9.8531 9.66561 10.0687 9.66561 10.5656C9.62811 10.8281 9.47811 10.8937 9.31874 10.9125C9.27362 10.9125 9.22895 10.9035 9.18738 10.8859C9.14581 10.8684 9.10818 10.8427 9.07671 10.8103C9.04525 10.778 9.02059 10.7397 9.00419 10.6976C8.98779 10.6556 8.97998 10.6107 8.98124 10.5656C8.981 10.4783 9.0146 10.3943 9.07499 10.3312C9.08682 10.321 9.09935 10.3116 9.11249 10.3031C9.18749 10.2187 9.29999 10.1906 9.29999 9.98435C9.29999 9.88123 9.22499 9.7781 9.15936 9.5906C9.09374 9.4031 9.14061 9.1031 9.29061 8.92498C9.04686 9.01873 8.90624 9.24373 8.82186 9.44998C8.74686 9.7031 8.82186 9.84373 8.70936 10.0594C8.64374 10.1906 8.56874 10.2469 8.49374 10.3594C8.39999 10.4906 8.30624 10.7719 8.30624 10.9125C8.33814 11.3419 8.53125 11.7435 8.84684 12.0365C9.16243 12.3295 9.57715 12.4923 10.0078 12.4923C10.4384 12.4923 10.8532 12.3295 11.1688 12.0365C11.4843 11.7435 11.6775 11.3419 11.7094 10.9125C11.7094 10.7719 11.6062 10.4906 11.5219 10.3594C11.4375 10.2469 11.3625 10.1906 11.2969 10.0594C11.1844 9.84373 11.2594 9.7031 11.175 9.44998C11.1 9.24373 10.9594 9.01873 10.7156 8.92498C10.8656 9.11248 10.9031 9.41248 10.8469 9.5906C10.7812 9.7781 10.7156 9.87185 10.7156 9.98435C10.7156 10.1906 10.8187 10.2187 10.9031 10.3031C10.913 10.3119 10.9224 10.3213 10.9312 10.3312C10.9916 10.3943 11.0252 10.4783 11.025 10.5656C11.0262 10.6107 11.0184 10.6556 11.002 10.6976C10.9856 10.7397 10.961 10.778 10.9295 10.8103C10.898 10.8427 10.8604 10.8684 10.8188 10.8859C10.7773 10.9035 10.7326 10.9125 10.6875 10.9125C10.5 10.8844 10.3594 10.8 10.3406 10.5656C10.3406 9.90935 10.6219 9.87185 10.6219 9.38435C10.6219 8.6906 10.0031 8.36248 10.0031 7.85623C10.0031 7.68748 10.0406 7.38748 10.2844 7.16248V7.16248ZM2.50311 21.4687H5.90624V37.8281H2.50311V21.4687ZM14.0906 21.4687H17.5031V37.8281H14.0906V21.4687ZM6.59061 21.4687H13.4062L10.0031 23.5125L6.59061 21.4687ZM6.59061 24.1875H13.4062V25.5562H6.59061V24.1875ZM6.59061 33.7406H13.4062V35.1094H6.59061V33.7406ZM6.59061 35.7844H13.4062L10.0031 37.8281L6.59061 35.7844Z" fill="#FFD900"/>
<path d="M10.0031 33.075C11.8878 33.075 13.4156 31.5472 13.4156 29.6625C13.4156 27.7778 11.8878 26.25 10.0031 26.25C8.11846 26.25 6.59064 27.7778 6.59064 29.6625C6.59064 31.5472 8.11846 33.075 10.0031 33.075Z" fill="#FFD900"/>
<path d="M9.9988 28.5315C10.3754 28.5315 10.6806 28.2262 10.6806 27.8497C10.6806 27.4731 10.3754 27.1678 9.9988 27.1678C9.62225 27.1678 9.31699 27.4731 9.31699 27.8497C9.31699 28.2262 9.62225 28.5315 9.9988 28.5315Z" fill="#DA2032"/>
<path d="M9.9988 32.145C10.3754 32.145 10.6806 31.8397 10.6806 31.4632C10.6806 31.0866 10.3754 30.7814 9.9988 30.7814C9.62225 30.7814 9.31699 31.0866 9.31699 31.4632C9.31699 31.8397 9.62225 32.145 9.9988 32.145Z" fill="#DA2032"/>
<path d="M9.99881 25.8383C10.5323 25.8383 11.0439 26.0502 11.4211 26.4274C11.7983 26.8046 12.0102 27.3162 12.0102 27.8496C12.0102 28.3831 11.7983 28.8947 11.4211 29.2719C11.0439 29.6491 10.5323 29.861 9.99881 29.861C9.57387 29.861 9.16632 30.0298 8.86584 30.3303C8.56536 30.6307 8.39655 31.0383 8.39655 31.4632C8.39655 31.8882 8.56536 32.2957 8.86584 32.5962C9.16632 32.8967 9.57387 33.0655 9.99881 33.0655V33.4746C9.46537 33.4746 8.95377 33.2627 8.57657 32.8855C8.19937 32.5083 7.98746 31.9967 7.98746 31.4632C7.98746 30.9298 8.19937 30.4182 8.57657 30.041C8.95377 29.6638 9.46537 29.4519 9.99881 29.4519C10.4238 29.4519 10.8313 29.2831 11.1318 28.9826C11.4323 28.6821 11.6011 28.2746 11.6011 27.8496C11.6011 27.4247 11.4323 27.0171 11.1318 26.7166C10.8313 26.4162 10.4238 26.2473 9.99881 26.2473V25.8383Z" fill="#DA2032"/>
</g>
<defs>
<clipPath id="clip0_4_6107">
<rect width="60" height="45" fill="white"/>
</clipPath>
</defs>
</svg>
