<svg width="60" height="45" viewBox="0 0 60 45" fill="none" xmlns="http://www.w3.org/2000/svg">
<g clip-path="url(#clip0_4_5616)">
<path d="M0 0H60V45H0V0Z" fill="#012169"/>
<path d="M36.0844 10.4062H55.35L55.3219 24.1219C55.4812 29.625 52.05 33.0469 45.7312 34.5938C41.2406 33.4688 36.075 31.1719 36.0563 24.2812L36.0844 10.4062V10.4062Z" fill="white"/>
<path d="M36.5063 10.8187H54.9188L54.9 23.9625C55.05 29.2406 51.7688 32.5125 45.7313 33.9937C41.4375 32.925 36.4969 30.7125 36.4875 24.1125L36.5063 10.8187V10.8187Z" fill="#00A2BD"/>
<path fill-rule="evenodd" clip-rule="evenodd" d="M36.5905 10.9031L36.5719 24.1124C36.5765 27.3878 37.8033 29.5675 39.5575 31.0631C41.31 32.5573 43.5944 33.3734 45.7314 33.9068C48.7308 33.1682 51.0365 31.9875 52.5743 30.3443C54.1137 28.6994 54.8901 26.5843 54.8157 23.9649L54.8156 23.9636L54.8342 10.9031H36.5905ZM36.5062 10.8187V10.7344H55.0032L54.9844 23.9613C55.0596 26.6195 54.2704 28.779 52.6975 30.4596C51.1263 32.1385 48.7796 33.3327 45.7513 34.0757L45.7311 34.0807L45.7109 34.0756C43.5599 33.5402 41.236 32.7161 39.448 31.1916C37.6561 29.6638 36.4078 27.4372 36.4031 24.1126V24.1124L36.4219 10.8186L36.5062 10.8187Z" fill="black"/>
<path d="M54.7781 25.5188C54.1031 30.5532 50.2219 32.7563 45.7312 33.9282C41.7469 32.8594 37.4625 31.1532 36.6375 25.5375L54.7781 25.5188Z" fill="#A53D08"/>
<path d="M45 13.2656L44.9719 11.6156L46.2844 11.625L46.2938 13.2656H49.875L49.8844 14.55L46.2938 14.5687L46.2656 29.7L44.9906 29.7094L44.9719 14.55L41.4094 14.5687V13.2562L45 13.2656Z" fill="black"/>
<path fill-rule="evenodd" clip-rule="evenodd" d="M42.0938 26.1375L45.375 29.5406C46.5094 28.2937 45.7219 23.6344 44.2313 22.7812C44.0531 23.3344 43.7531 24 43.425 24.2062C42.7219 24.6937 40.9781 25.2562 41.5594 25.6125C41.6906 25.4344 42.0375 25.2656 42.2063 25.6687C42.3938 26.3156 41.475 26.3531 41.475 26.3531C41.475 26.3531 40.8938 26.2781 40.7906 25.6969C40.6969 25.0969 41.6625 24.5531 41.7469 24.5156C41.8219 24.4875 43.0875 24.1406 43.3031 23.025C43.575 21.9187 43.8469 22.0875 43.8938 22.0687C45.5531 22.2281 46.6313 25.1906 46.6969 27.2719C46.7531 29.3531 45.8531 30.7406 45.6844 30.8344C45.525 30.9187 41.7469 26.3437 41.7469 26.3437L42.1031 26.1375H42.0938Z" fill="#FF9A08"/>
<path fill-rule="evenodd" clip-rule="evenodd" d="M43.8883 22.0305L43.8973 22.0314C44.3233 22.0723 44.7094 22.2929 45.049 22.6296C45.3884 22.9663 45.6831 23.4206 45.9268 23.9335C46.4143 24.959 46.7014 26.2251 46.7344 27.2707L46.7344 27.2708C46.7626 28.3171 46.5506 29.1892 46.31 29.8119C46.1897 30.1233 46.0621 30.3725 45.9537 30.5504C45.8995 30.6392 45.8498 30.7106 45.8079 30.7631C45.787 30.7893 45.7678 30.8112 45.7507 30.8283C45.734 30.8449 45.7177 30.8587 45.7026 30.8671L45.7019 30.8675C45.6883 30.8747 45.6746 30.8734 45.6663 30.8716C45.6575 30.8696 45.6491 30.866 45.6417 30.8621C45.6267 30.8543 45.6094 30.8421 45.5906 30.8272C45.5525 30.797 45.5026 30.7511 45.4431 30.6923C45.3237 30.5745 45.1625 30.4021 44.9741 30.1934C44.5971 29.7759 44.1096 29.2116 43.6273 28.645C43.145 28.0782 42.6676 27.5089 42.3109 27.0813C42.1325 26.8674 41.9843 26.689 41.8807 26.5641C41.8288 26.5016 41.7882 26.4525 41.7604 26.419L41.718 26.3676C41.718 26.3676 41.718 26.3676 41.7391 26.3501L41.718 26.3676L41.7093 26.3572C41.6781 26.3642 41.6485 26.3697 41.6217 26.3741C41.5791 26.3811 41.543 26.3852 41.5176 26.3876C41.5048 26.3887 41.4947 26.3895 41.4877 26.3899C41.4842 26.3902 41.4815 26.3903 41.4796 26.3904L41.4774 26.3905L41.4768 26.3905L41.4766 26.3906C41.4766 26.3906 41.4765 26.3906 41.475 26.3531C41.4702 26.3903 41.4702 26.3903 41.4702 26.3903L41.4699 26.3903L41.4695 26.3902L41.468 26.39C41.4667 26.3898 41.4648 26.3895 41.4625 26.3891C41.4578 26.3884 41.451 26.3872 41.4425 26.3855C41.4255 26.3822 41.4014 26.3767 41.3722 26.3683C41.3139 26.3516 41.2351 26.323 41.1527 26.2754C40.9874 26.1799 40.8076 26.0075 40.7537 25.7034L40.7536 25.7026C40.7284 25.5416 40.7747 25.3863 40.8562 25.2456C40.9375 25.1051 41.0551 24.9767 41.1769 24.8674C41.42 24.6492 41.6858 24.5017 41.7316 24.4813L41.7327 24.4809L41.7337 24.4805C41.7384 24.4787 41.7472 24.4759 41.7594 24.4719C41.8517 24.4419 42.1444 24.3468 42.4518 24.1467C42.7998 23.92 43.1611 23.562 43.2663 23.0179L43.2665 23.0169L43.2667 23.016C43.4029 22.4619 43.5409 22.2178 43.6575 22.1113C43.7172 22.0568 43.7715 22.0382 43.8157 22.0332C43.8372 22.0308 43.8554 22.0317 43.868 22.0324L43.8682 22.0324C43.8749 22.0327 43.8788 22.0329 43.8819 22.0329C43.882 22.0329 43.8822 22.0329 43.8823 22.0329L43.8883 22.0305ZM43.8837 22.0328C43.8837 22.0328 43.8837 22.0328 43.8836 22.0328ZM41.475 26.3531L41.4702 26.3903L41.4733 26.3907L41.4765 26.3906L41.475 26.3531ZM41.4768 26.3155C41.4783 26.3154 41.4803 26.3153 41.4828 26.3151C41.4892 26.3147 41.4986 26.314 41.5107 26.3129C41.5347 26.3107 41.569 26.3068 41.6096 26.3001C41.6827 26.2881 41.7752 26.2674 41.8651 26.2319L42.0369 26.1325L42.0055 26.1H42.081C42.1032 26.0783 42.123 26.0545 42.1394 26.0285C42.1924 25.9447 42.2143 25.8331 42.1708 25.6812C42.1309 25.5866 42.082 25.5289 42.0319 25.4962C41.9818 25.4635 41.9275 25.4537 41.873 25.4599C41.7616 25.4725 41.6506 25.5518 41.5896 25.6347L41.5691 25.6624L41.5398 25.6444C41.4625 25.5971 41.4153 25.5411 41.4066 25.4746C41.3981 25.4089 41.4289 25.3454 41.4781 25.2869C41.576 25.1703 41.7676 25.0484 41.9926 24.9256C42.1577 24.8356 42.3444 24.7432 42.5313 24.6508C42.6006 24.6165 42.67 24.5822 42.7383 24.548C42.9917 24.4211 43.2303 24.2956 43.4036 24.1754L43.4043 24.1749L43.405 24.1745C43.5602 24.0769 43.7134 23.8667 43.8512 23.6063C43.9882 23.3474 44.1069 23.0449 44.1955 22.7697L44.2097 22.7257L44.2499 22.7487C44.6327 22.9678 44.9656 23.4276 45.2324 24.0062C45.4998 24.5861 45.7033 25.2908 45.8245 26.007C45.9456 26.7232 45.9846 27.4526 45.9218 28.0821C45.8591 28.7101 45.6946 29.2451 45.4027 29.5658L45.3758 29.5954L42.0922 26.1899C42.0414 26.2304 41.9839 26.2625 41.926 26.2878C41.9167 26.2919 41.9073 26.2958 41.898 26.2996L41.804 26.354L41.8182 26.3712C41.8459 26.4046 41.8866 26.4537 41.9384 26.5162C42.042 26.6411 42.1902 26.8195 42.3685 27.0332C42.7251 27.4608 43.2023 28.0299 43.6844 28.5964C44.1666 29.1629 44.6535 29.7265 45.0297 30.1431C45.2179 30.3515 45.378 30.5227 45.4958 30.6389C45.5548 30.6972 45.6024 30.7408 45.6372 30.7684C45.6542 30.7819 45.6668 30.7905 45.6755 30.7952C45.6813 30.7907 45.6887 30.7842 45.6977 30.7752C45.7122 30.7607 45.7296 30.7411 45.7493 30.7163C45.7887 30.6669 45.8366 30.5982 45.8897 30.5113C45.9956 30.3375 46.1212 30.0923 46.24 29.7849C46.4775 29.1701 46.6873 28.3079 46.6594 27.273C46.6267 26.2373 46.3419 24.9815 45.8591 23.9657C45.6177 23.4578 45.3276 23.0116 44.9961 22.6829C44.6665 22.356 44.2978 22.147 43.8966 22.1067C43.8912 22.1077 43.8864 22.1078 43.8829 22.1079C43.8772 22.108 43.8709 22.1076 43.8655 22.1073L43.8641 22.1073C43.8518 22.1066 43.839 22.1061 43.8241 22.1077C43.7957 22.1109 43.7562 22.1228 43.7081 22.1667C43.6092 22.2571 43.4754 22.4816 43.3398 23.033C43.2291 23.604 42.85 23.9769 42.4927 24.2095C42.175 24.4164 41.8702 24.5149 41.7823 24.5433C41.7723 24.5465 41.7651 24.5489 41.7611 24.5503C41.7191 24.5694 41.4623 24.712 41.227 24.9232C41.1085 25.0295 40.997 25.1519 40.9211 25.2832C40.8452 25.4142 40.806 25.5519 40.8276 25.6907C40.8769 25.9676 41.0392 26.1232 41.1902 26.2105C41.2661 26.2543 41.339 26.2808 41.3929 26.2962C41.4198 26.304 41.4419 26.3089 41.4571 26.3119C41.4647 26.3135 41.4705 26.3145 41.4744 26.3151C41.4753 26.3152 41.4761 26.3154 41.4768 26.3155ZM42.1573 26.1494L45.3737 29.4852C45.6331 29.1791 45.787 28.6774 45.8472 28.0747C45.9092 27.4532 45.8708 26.7306 45.7505 26.0195C45.6302 25.3084 45.4283 24.6103 45.1643 24.0376C44.9093 23.4847 44.5988 23.0538 44.2523 22.8375C44.1645 23.1034 44.0496 23.3916 43.9175 23.6413C43.779 23.9032 43.6184 24.1286 43.4457 24.2375C43.2675 24.361 43.0247 24.4884 42.7719 24.615C42.7028 24.6497 42.6329 24.6842 42.5632 24.7187C42.3768 24.8109 42.1922 24.9022 42.0285 24.9915C41.8023 25.1149 41.623 25.2308 41.5355 25.3351C41.4919 25.387 41.4764 25.4298 41.481 25.4649C41.4848 25.4942 41.5038 25.5272 41.5516 25.5622C41.6247 25.4772 41.741 25.3993 41.8645 25.3854C41.9342 25.3775 42.0065 25.39 42.0729 25.4334C42.1391 25.4766 42.1966 25.5485 42.2408 25.6542L42.2417 25.6562L42.2423 25.6583C42.2917 25.8288 42.2691 25.9638 42.2028 26.0686C42.1959 26.0794 42.1887 26.0899 42.181 26.1H42.2427L42.1573 26.1494Z" fill="black"/>
<path d="M44.4938 22.9688L44.5125 29.1094ZM44.1188 23.0906L44.1469 28.6594ZM43.725 23.8969L43.7438 28.3219ZM43.3969 24.2063L43.4156 27.8719ZM43.05 24.375V27.4688ZM42.675 24.6188V27.0656ZM42.3469 24.8156V26.6906Z" fill="#FF9A08"/>
<path fill-rule="evenodd" clip-rule="evenodd" d="M44.475 29.1095L44.4562 22.9689L44.5312 22.9686L44.55 29.1093L44.475 29.1095ZM44.1094 28.6596L44.0812 23.0908L44.1562 23.0904L44.1844 28.6592L44.1094 28.6596ZM43.7062 28.322L43.6875 23.897L43.7625 23.8967L43.7812 28.3217L43.7062 28.322ZM43.3781 27.8721L43.3594 24.2064L43.4344 24.2061L43.4531 27.8717L43.3781 27.8721ZM43.0125 27.4687V24.375H43.0875V27.4687H43.0125ZM42.6375 27.0656V24.6187H42.7125V27.0656H42.6375ZM42.3094 26.6906V24.8156H42.3844V26.6906H42.3094Z" fill="black"/>
<path fill-rule="evenodd" clip-rule="evenodd" d="M42.0222 26.503C42.0378 26.4894 42.0615 26.491 42.0751 26.5066L45.4501 30.3691C45.4637 30.3847 45.4621 30.4084 45.4465 30.422C45.4309 30.4356 45.4073 30.434 45.3936 30.4185L42.0186 26.5559C42.005 26.5404 42.0066 26.5167 42.0222 26.503Z" fill="#FFDF00"/>
<path fill-rule="evenodd" clip-rule="evenodd" d="M45.5624 24.0324C45.5963 24.0169 45.6364 24.0317 45.652 24.0656L45.5906 24.0938C45.652 24.0656 45.6519 24.0655 45.652 24.0656L45.6523 24.0664L45.6532 24.0683L45.6566 24.0759C45.6596 24.0826 45.6639 24.0924 45.6695 24.1052C45.6806 24.1308 45.6966 24.1686 45.7165 24.2176C45.7561 24.3155 45.8111 24.4582 45.8725 24.6378C45.9952 24.997 46.1439 25.5047 46.2477 26.0989C46.4552 27.2861 46.4852 28.8266 45.763 30.2186C45.7459 30.2517 45.7051 30.2646 45.672 30.2474C45.6389 30.2303 45.626 30.1895 45.6432 30.1564C46.3461 28.8016 46.3198 27.2952 46.1148 26.1222C46.0124 25.5364 45.8657 25.0356 45.7447 24.6815C45.6842 24.5044 45.6302 24.3641 45.5913 24.2683C45.5719 24.2204 45.5563 24.1836 45.5456 24.1589C45.5402 24.1465 45.5361 24.1372 45.5334 24.131L45.5302 24.1241L45.5295 24.1224L45.5293 24.122C45.5293 24.122 45.5293 24.122 45.5293 24.122M45.5624 24.0324C45.5286 24.048 45.5138 24.0881 45.5293 24.122ZM41.4417 24.9215C41.4661 24.9497 41.463 24.9923 41.4348 25.0167L41.4345 25.0169L41.4335 25.0178C41.4325 25.0187 41.4309 25.0201 41.4289 25.0219C41.4248 25.0256 41.4187 25.0312 41.411 25.0384C41.3955 25.053 41.3736 25.0744 41.3482 25.1011C41.2973 25.1549 41.2336 25.2293 41.1805 25.3134C41.127 25.3982 41.0871 25.4882 41.0781 25.5739C41.0694 25.6565 41.089 25.7366 41.1584 25.8098C41.184 25.8369 41.1829 25.8796 41.1558 25.9053C41.1287 25.9309 41.086 25.9297 41.0604 25.9027C40.961 25.7978 40.9314 25.6775 40.9438 25.5597C40.9559 25.445 41.0074 25.3347 41.0664 25.2413C41.1258 25.1473 41.1957 25.0658 41.2502 25.0083C41.2776 24.9794 41.3014 24.9562 41.3184 24.9401C41.327 24.9321 41.3338 24.9259 41.3386 24.9215C41.341 24.9194 41.3429 24.9177 41.3442 24.9165L41.3458 24.9151L41.3463 24.9148L41.3464 24.9146C41.3464 24.9146 41.3465 24.9145 41.3906 24.9656L41.3465 24.9145C41.3747 24.8902 41.4173 24.8933 41.4417 24.9215ZM41.7161 25.8431L41.7162 25.8429L41.7169 25.8411C41.7176 25.8394 41.7187 25.8368 41.7201 25.8334C41.7231 25.8267 41.7275 25.8169 41.7332 25.8056C41.7449 25.7824 41.7609 25.7544 41.7798 25.7307C41.7997 25.7057 41.8169 25.693 41.8287 25.689C41.834 25.6872 41.8429 25.6844 41.862 25.701C41.8902 25.7254 41.9328 25.7224 41.9573 25.6942C41.9817 25.666 41.9786 25.6234 41.9505 25.599C41.8993 25.5546 41.8414 25.5425 41.786 25.5609C41.7372 25.5772 41.6999 25.6142 41.6741 25.6466C41.6473 25.6804 41.6264 25.7174 41.6126 25.7449C41.6056 25.7589 41.6001 25.7709 41.5963 25.7796C41.5944 25.7839 41.593 25.7875 41.5919 25.79L41.5907 25.793L41.5904 25.7939L41.5902 25.7942L41.5902 25.7943C41.5902 25.7943 41.5902 25.7944 41.6531 25.8188L41.5902 25.7943C41.5767 25.8291 41.594 25.8683 41.6288 25.8817C41.6635 25.8952 41.7026 25.8779 41.7161 25.8431Z" fill="#FFDF00"/>
<path d="M46.3125 16.4438C46.5281 16.2563 46.65 16.1344 46.7906 16.1625C46.9313 16.1813 47.1188 16.1625 47.2594 16.125C47.6283 16.0393 48.0105 16.0266 48.3844 16.0875C48.4781 16.1063 48.6188 16.1532 48.8156 16.3219C49.0125 16.4907 49.3031 16.7907 49.2094 17.5969C49.1156 18.4032 49.1438 18.75 49.0969 19.2094C49.0219 20.0063 48.8438 20.6625 48.5344 20.6157C48.9563 21.3657 49.0031 22.0219 49.2844 22.5375C49.5656 23.0532 49.7344 24.1125 49.6313 25.2563C49.5188 26.4094 49.2188 28.9782 50.1281 30.7125C49.9781 30.8157 49.6125 30.7125 49.2844 30.3657C48.9563 30.0188 48.8156 30.0282 48.5531 30.2344C47.7281 30.8625 46.9594 31.6219 45.825 30.8625C45.5625 30.6938 45.4875 30.4875 45.675 29.9532C46.1438 28.6407 46.3781 26.8219 46.3031 25.9782V16.4438H46.3125Z" fill="#008021"/>
<path fill-rule="evenodd" clip-rule="evenodd" d="M47.2628 16.1387C47.1208 16.1765 46.9315 16.1955 46.7888 16.1765L46.7879 16.1764C46.7229 16.1634 46.6612 16.1845 46.5875 16.234C46.5269 16.2747 46.4601 16.3333 46.3784 16.4049C46.3602 16.4208 46.3414 16.4373 46.3217 16.4544L46.3178 16.4579H46.3172V25.9776C46.3547 26.4011 46.3147 27.0677 46.2069 27.792C46.099 28.5168 45.923 29.3005 45.6883 29.9578C45.5947 30.2245 45.5677 30.4066 45.595 30.5422C45.6221 30.6766 45.7032 30.7675 45.8326 30.8507L45.8328 30.8509C46.1149 31.0397 46.3735 31.1336 46.6153 31.1591C46.8571 31.1846 47.083 31.1418 47.2999 31.0557C47.6576 30.9138 47.9892 30.6552 48.3259 30.3925C48.3984 30.3359 48.4712 30.2792 48.5445 30.2233C48.6758 30.1201 48.7808 30.0626 48.8961 30.0787C49.0104 30.0947 49.1306 30.1826 49.2946 30.356C49.4574 30.5281 49.6291 30.6393 49.778 30.6947C49.9205 30.7477 50.0389 30.7486 50.1097 30.7076C49.6582 29.8396 49.507 28.7663 49.4824 27.7668C49.4598 26.8432 49.5453 25.9812 49.6029 25.4004C49.6079 25.3497 49.6127 25.3012 49.6173 25.255C49.6687 24.6842 49.6523 24.1345 49.588 23.6633C49.5237 23.1918 49.4115 22.8 49.272 22.5443C49.1462 22.3136 49.067 22.055 48.9811 21.7744C48.9705 21.7395 48.9597 21.7042 48.9487 21.6687C48.8491 21.3466 48.7323 20.9962 48.5221 20.6226L48.508 20.5975L48.5365 20.6018C48.6078 20.6126 48.6726 20.5834 48.7318 20.5183C48.7914 20.4529 48.8443 20.3524 48.8903 20.2242C48.9823 19.9681 49.0454 19.6061 49.0829 19.2081L49.0829 19.208C49.1018 19.0224 49.1085 18.8553 49.116 18.6682C49.1177 18.6243 49.1195 18.5793 49.1215 18.5327C49.1321 18.2875 49.1485 17.9989 49.1954 17.5953C49.2421 17.1941 49.1929 16.9201 49.1086 16.726C49.0243 16.5319 48.9042 16.4164 48.8065 16.3326C48.6116 16.1655 48.4732 16.1197 48.3819 16.1014C48.01 16.0408 47.6298 16.0535 47.2628 16.1387ZM46.3072 16.4297C46.3252 16.4141 46.3425 16.399 46.3592 16.3843C46.441 16.3126 46.5096 16.2525 46.5719 16.2107C46.648 16.1595 46.7174 16.1337 46.7929 16.1487C46.9313 16.167 47.1167 16.1486 47.2558 16.1115L47.2562 16.1114C47.627 16.0252 48.011 16.0125 48.3866 16.0737L48.3871 16.0738C48.4833 16.093 48.6261 16.141 48.8248 16.3113C48.9239 16.3962 49.0476 16.5151 49.1344 16.7148C49.2211 16.9144 49.2704 17.1936 49.2234 17.5986C49.1765 18.0012 49.1601 18.2892 49.1496 18.5339C49.1476 18.5803 49.1458 18.6251 49.1441 18.669C49.1366 18.8561 49.1299 19.0243 49.1109 19.2108C49.0733 19.6096 49.0099 19.9743 48.9168 20.2337C48.8702 20.3634 48.8158 20.4679 48.7526 20.5373C48.6962 20.5993 48.6318 20.634 48.5596 20.632C48.7632 20.9997 48.8779 21.3445 48.9756 21.6604C48.9866 21.696 48.9973 21.7312 49.008 21.766C49.0941 22.0471 49.1724 22.3028 49.2967 22.5308C49.4385 22.7908 49.5513 23.1864 49.6159 23.6595C49.6805 24.1328 49.6969 24.6847 49.6453 25.2576L49.6453 25.2577C49.6407 25.3039 49.6359 25.3524 49.6309 25.4031C49.5733 25.984 49.4879 26.8444 49.5106 27.7661C49.5351 28.7684 49.6874 29.8417 50.1406 30.706L50.1464 30.7171L50.1361 30.7241C50.0553 30.7797 49.9207 30.7778 49.7682 30.7211C49.6147 30.6639 49.4395 30.5501 49.2742 30.3753C49.1101 30.2019 48.9959 30.1211 48.8922 30.1066C48.7895 30.0922 48.693 30.1425 48.5618 30.2455L48.5617 30.2456C48.489 30.3009 48.4167 30.3574 48.3444 30.4138C48.0076 30.6765 47.6721 30.9383 47.3103 31.0819C47.09 31.1693 46.8595 31.2132 46.6124 31.1871C46.3652 31.161 46.1024 31.0651 45.8173 30.8743C45.6843 30.7888 45.5966 30.6922 45.5675 30.5478C45.5386 30.4044 45.5678 30.2163 45.6617 29.9485C45.8957 29.2934 46.0713 28.5114 46.1791 27.7878C46.2868 27.0641 46.3265 26.3997 46.2891 25.9794L46.289 25.9782L46.2891 16.4297H46.3072Z" fill="black"/>
<path d="M47.0906 15.6376C47.1654 15.8441 47.1621 16.0708 47.0813 16.2751C46.9875 16.5001 46.9594 16.7438 47.1281 17.0626C47.3813 16.6876 47.7469 16.7626 47.9719 16.5563C48.1781 16.3407 48.225 16.1345 48.3844 16.0876C48.225 15.947 47.9812 15.7876 48.0281 15.3845C48.0844 14.972 48.6563 14.6345 48.1406 14.0157C48.0635 13.9166 47.9628 13.8385 47.8477 13.7885C47.7326 13.7384 47.6068 13.7181 47.4818 13.7293C47.3568 13.7405 47.2366 13.7829 47.1322 13.8526C47.0278 13.9222 46.9426 14.017 46.8844 14.1282C46.8563 14.2032 46.9031 14.3532 46.8188 14.447C46.7625 14.522 46.6969 14.5876 46.6219 14.6345C46.575 14.672 46.5469 14.7188 46.6031 14.7845C46.6219 14.8126 46.6594 14.8126 46.6969 14.822L46.6219 14.9626C46.5937 14.9907 46.6031 15.0188 46.6406 15.0563C46.5938 15.1782 46.6781 15.197 46.6219 15.2907C46.5656 15.3751 46.5094 15.4782 46.6781 15.572C46.7344 15.6001 46.9594 15.647 47.0906 15.6376V15.6376ZM44.9812 17.7938C44.6812 17.8688 44.1938 17.7376 43.8281 17.7751C43.6594 17.7938 43.5281 17.7095 43.5469 17.5501C43.575 17.3907 43.6031 17.1376 43.5656 16.9126C43.5691 16.4279 43.6914 15.9515 43.9219 15.5251C44.1072 15.1879 44.228 14.8191 44.2781 14.4376C44.2781 14.2595 44.2969 14.072 44.4469 13.9688C44.5594 13.9032 44.5781 13.8376 44.6156 13.7813C44.7094 13.6407 44.8031 13.6126 44.8031 13.6876C44.8125 13.7345 44.8031 13.7813 44.7563 13.8376C44.85 13.7626 45.0188 13.6688 45.0563 13.6501C45.0938 13.6126 45.2813 13.4813 45.2906 13.6126C45.3656 13.5751 45.4219 13.5751 45.4406 13.6126C45.4594 13.6595 45.4406 13.6782 45.4125 13.7063C45.4688 13.7063 45.525 13.7907 45.4125 13.8751C45.4781 13.8563 45.5344 13.9501 45.4313 14.0345C45.3375 14.1282 45.2063 14.1845 45.1781 14.2595C45.1406 14.3345 44.8781 14.5313 44.775 14.5688C44.6719 14.6157 44.6625 14.672 44.6625 14.822C44.6625 16.4907 44.475 16.3501 44.475 16.7626C44.475 16.8563 44.4469 16.9595 44.55 16.9313C44.6625 16.8938 44.8219 16.847 44.9812 16.847V17.7845V17.7938ZM45.0469 21.3751C45.5344 21.1313 46.0969 21.0376 46.3875 20.9626C46.7243 20.8548 47.0506 20.7168 47.3625 20.5501C47.5969 20.4282 47.7844 20.2688 47.9156 20.222C48.0694 20.1731 48.1975 20.0652 48.2719 19.922C48.6412 19.2993 48.8626 18.6 48.9187 17.8782C48.9187 17.5032 48.825 17.072 48.45 17.372C48.0675 17.7017 47.7823 18.1296 47.625 18.6095C47.475 19.2095 47.3438 19.3501 47.3156 19.4626C47.2781 19.5845 47.1656 19.5845 47.0156 19.6126C46.5419 19.6864 46.0994 19.8946 45.7406 20.2126C45.3152 20.5274 44.8706 20.8155 44.4094 21.0751C44.0625 21.272 43.9969 21.2907 43.9219 21.4501C43.8469 21.6001 43.7719 21.7313 43.7156 21.7876C43.6406 21.8626 43.6219 21.9376 43.6406 22.0313C43.65 22.1063 43.6219 22.4251 43.6125 22.5376C43.6125 22.6501 43.6406 22.6688 43.6781 22.6782C43.7156 22.6782 43.7719 22.6595 43.8 22.5282C43.7813 22.6595 43.9594 22.622 43.9688 22.5188C43.9688 22.6595 44.1563 22.5751 44.1563 22.4438C44.1563 22.5376 44.3156 22.472 44.3156 22.4438C44.3531 22.322 44.3813 22.2095 44.4281 22.1251C44.4844 21.9938 44.55 21.8251 44.6813 21.7501C44.8219 21.6376 44.7563 21.5251 45.0469 21.3751V21.3751ZM48.5531 30.2345C48.5813 30.3563 48.6469 30.4876 48.6656 30.572C48.6844 30.647 48.6469 30.6751 48.6281 30.722C48.5022 30.9832 48.4138 31.2609 48.3656 31.547C48.3656 31.6595 48.2719 31.772 48.2437 31.847C48.1969 31.922 48.2156 31.9876 48.3188 32.0626C48.3563 32.0907 48.5063 32.0438 48.5156 31.9688C48.5813 32.0251 48.6656 32.0063 48.7125 31.922C48.7687 31.9688 48.8531 31.9407 48.9 31.8563C48.9469 31.8844 49.0219 31.8282 49.05 31.7813C49.125 31.8188 49.2 31.7813 49.2 31.6313C49.2 31.5938 49.2281 31.5376 49.2469 31.5095C49.2656 31.472 49.275 31.4063 49.275 31.3501C49.275 31.2844 49.3031 31.1626 49.3594 31.0876C49.4156 30.9938 49.5 30.8532 49.4625 30.7126C49.425 30.5813 49.3687 30.5907 49.3219 30.4126C49.2 30.2813 49.0406 30.1126 48.8719 30.0938C48.7031 30.0938 48.6094 30.197 48.5531 30.2345V30.2345ZM45.4688 31.1626C45.6281 31.3126 45.9656 31.3126 46.2 31.0688C46.1156 31.0313 45.9188 30.9376 45.8438 30.8813C45.7391 30.9996 45.6116 31.0953 45.4688 31.1626V31.1626Z" fill="#FFE1CF"/>
<path fill-rule="evenodd" clip-rule="evenodd" d="M45.1896 13.582C45.1389 13.6022 45.0843 13.6432 45.0669 13.6607L45.0651 13.6624L45.063 13.6635C45.0258 13.682 44.8582 13.7752 44.7656 13.8493L44.7447 13.828C44.7891 13.7747 44.7968 13.7323 44.7884 13.6905L44.7881 13.689V13.6876C44.7881 13.6715 44.7832 13.6658 44.7797 13.6639C44.7755 13.6615 44.7664 13.6605 44.7505 13.6673C44.7192 13.6809 44.6743 13.7203 44.6281 13.7896C44.6209 13.8004 44.6143 13.8119 44.6074 13.8238C44.5799 13.8715 44.5477 13.9272 44.4549 13.9815C44.3125 14.0798 44.2931 14.259 44.2931 14.4376V14.4385L44.293 14.4395C44.2427 14.8228 44.1213 15.1934 43.935 15.5322C43.706 15.9561 43.5843 16.4296 43.5806 16.9114C43.6182 17.1384 43.5899 17.3925 43.5617 17.5522C43.5531 17.6268 43.5793 17.6822 43.6262 17.7174C43.6739 17.7531 43.7447 17.7692 43.8265 17.7602L43.8266 17.7601C43.9944 17.7429 44.1873 17.7609 44.3745 17.7784C44.3933 17.7801 44.412 17.7819 44.4307 17.7836C44.6311 17.8019 44.8206 17.8153 44.9662 17.782V16.8621C44.8145 16.8649 44.6634 16.9093 44.5547 16.9455L44.554 16.9458C44.5267 16.9532 44.5041 16.9532 44.487 16.9428C44.4697 16.9323 44.4623 16.9139 44.459 16.8952C44.4558 16.8764 44.4562 16.8541 44.4572 16.8317C44.4575 16.8254 44.4579 16.819 44.4582 16.8126C44.4591 16.7959 44.46 16.7792 44.46 16.7626C44.46 16.658 44.4719 16.5883 44.4897 16.5164C44.4956 16.4925 44.5021 16.4687 44.509 16.4435C44.5229 16.3924 44.5384 16.3354 44.5541 16.2603C44.6006 16.0367 44.6475 15.6559 44.6475 14.8219C44.6475 14.7475 44.6497 14.693 44.6661 14.6512C44.6833 14.6077 44.7151 14.5796 44.7688 14.5552L44.7699 14.5547C44.8191 14.5368 44.9089 14.4795 44.9921 14.4162C45.0334 14.3848 45.0725 14.3523 45.1035 14.3232C45.1347 14.294 45.1561 14.2695 45.1644 14.2534C45.1726 14.232 45.1876 14.2129 45.2059 14.1951C45.2244 14.177 45.2471 14.1595 45.2712 14.1419C45.2801 14.1354 45.2892 14.1288 45.2984 14.1222C45.3397 14.0925 45.3832 14.0613 45.4206 14.0238L45.4212 14.0233L45.4218 14.0228C45.4703 13.9831 45.4779 13.9444 45.4708 13.9203C45.4635 13.896 45.4409 13.8825 45.4166 13.8895L45.4035 13.8631C45.4571 13.8229 45.4664 13.786 45.4611 13.7623C45.4556 13.7374 45.4335 13.7213 45.4125 13.7213H45.3763L45.4019 13.6957C45.4166 13.681 45.4258 13.6715 45.4303 13.6607C45.4342 13.6514 45.4351 13.6394 45.4269 13.6187C45.4208 13.6069 45.4084 13.5994 45.3867 13.5994C45.3642 13.5994 45.3338 13.6077 45.2973 13.626L45.2773 13.636L45.2757 13.6136C45.2746 13.599 45.2712 13.5895 45.267 13.5834C45.2631 13.5776 45.2578 13.5741 45.2512 13.5722C45.2368 13.5681 45.2153 13.5717 45.1896 13.582ZM45.3023 13.5905C45.3 13.5814 45.2965 13.5733 45.2918 13.5665C45.2836 13.5545 45.2723 13.547 45.2594 13.5434C45.2349 13.5363 45.2054 13.5433 45.1784 13.5541C45.1251 13.5754 45.0689 13.617 45.0474 13.6377C45.014 13.6547 44.901 13.7174 44.8094 13.78C44.8223 13.7477 44.8241 13.7169 44.8181 13.686C44.8178 13.6653 44.8109 13.647 44.7943 13.6377C44.778 13.6286 44.7578 13.6315 44.7386 13.6398C44.6995 13.6567 44.6507 13.7017 44.6031 13.773C44.5949 13.7853 44.5877 13.7977 44.5805 13.8102C44.5532 13.8573 44.5251 13.9058 44.4393 13.9559L44.4384 13.9564C44.2815 14.0643 44.2632 14.2593 44.2631 14.4366C44.2132 14.8159 44.093 15.1826 43.9087 15.5178L43.9087 15.5179C43.677 15.9465 43.5541 16.4253 43.5506 16.9125L43.5506 16.9137L43.5508 16.915C43.5879 17.1375 43.5601 17.3887 43.5321 17.5475L43.532 17.5483C43.522 17.6329 43.5521 17.6993 43.6082 17.7414C43.6636 17.7829 43.7428 17.7996 43.8297 17.79M44.5457 16.9169C44.5216 16.9234 44.5091 16.9212 44.5025 16.9172C44.4962 16.9133 44.4912 16.9054 44.4886 16.8901C44.486 16.8749 44.4862 16.8556 44.4872 16.8331C44.4875 16.8273 44.4878 16.8212 44.4881 16.815C44.489 16.798 44.49 16.78 44.49 16.7626C44.49 16.6608 44.5015 16.5935 44.5189 16.5236C44.5245 16.5009 44.5308 16.4776 44.5376 16.4527C44.5516 16.4011 44.5676 16.3424 44.5834 16.2664C44.6306 16.04 44.6775 15.6568 44.6775 14.8219C44.6775 14.7464 44.68 14.6978 44.694 14.6622C44.7073 14.6285 44.7316 14.6051 44.7807 14.5827C44.8347 14.5629 44.9273 14.5032 45.0103 14.4401C45.0521 14.4083 45.0921 14.3751 45.1241 14.3451C45.1555 14.3155 45.1808 14.2875 45.1915 14.2661L45.1919 14.2654L45.1922 14.2647C45.1981 14.2489 45.2099 14.2331 45.2268 14.2166C45.2437 14.2001 45.265 14.1836 45.2889 14.1661C45.2974 14.1599 45.3062 14.1536 45.3152 14.1471C45.3564 14.1175 45.4021 14.0847 45.4413 14.0456C45.4954 14.001 45.5111 13.9509 45.4995 13.9118C45.4922 13.8871 45.4741 13.8684 45.4513 13.861C45.4867 13.8247 45.4975 13.7877 45.4904 13.7558C45.4843 13.7283 45.4651 13.7072 45.4418 13.6973C45.4484 13.6896 45.4542 13.6814 45.458 13.6722C45.4658 13.6535 45.4649 13.6328 45.4546 13.607L45.454 13.6059C45.4414 13.5805 45.4163 13.5694 45.3867 13.5694C45.3624 13.5694 45.3337 13.5768 45.3023 13.5905C45.304 13.597 45.305 13.604 45.3056 13.6115M45.4418 13.6973C45.4325 13.6934 45.4225 13.6913 45.4125 13.6913V13.7063L45.4231 13.7169L45.4243 13.7157C45.4303 13.7098 45.4363 13.7037 45.4418 13.6973ZM45.4513 13.861C45.4382 13.8568 45.4235 13.8563 45.4084 13.8606L45.4125 13.8751L45.4215 13.8871C45.4329 13.8785 45.4428 13.8698 45.4513 13.861ZM45.4413 14.0456C45.4415 14.0454 45.4417 14.0452 45.4419 14.045L45.4312 14.0344L45.4407 14.046C45.4409 14.0459 45.4411 14.0457 45.4413 14.0456ZM44.7807 14.5827C44.7809 14.5826 44.781 14.5825 44.7812 14.5825L44.775 14.5688L44.7801 14.5829C44.7803 14.5828 44.7805 14.5828 44.7807 14.5827ZM44.5457 16.9169C44.5458 16.9169 44.5459 16.9169 44.5461 16.9168L44.55 16.9313L44.5453 16.9171C44.5454 16.917 44.5455 16.917 44.5457 16.9169ZM47.4805 13.7143C47.608 13.7029 47.7363 13.7237 47.8537 13.7747C47.971 13.8257 48.0737 13.9053 48.1523 14.0063C48.2824 14.1625 48.3448 14.302 48.3633 14.4304C48.3818 14.5589 48.3562 14.6748 48.3127 14.783C48.2798 14.8652 48.2361 14.9439 48.1938 15.0203C48.1807 15.044 48.1677 15.0674 48.1551 15.0907C48.1018 15.1898 48.0567 15.2861 48.043 15.3863C48.02 15.5841 48.0683 15.721 48.1412 15.8259C48.2004 15.9109 48.2756 15.9749 48.3448 16.0338C48.3618 16.0482 48.3784 16.0623 48.3943 16.0763L48.4147 16.0943L48.3886 16.102C48.3146 16.1237 48.2656 16.1826 48.2081 16.2671C48.1982 16.2817 48.188 16.297 48.1775 16.3129C48.1275 16.3881 48.0688 16.4767 47.9827 16.5667L47.982 16.5674C47.9239 16.6207 47.857 16.6554 47.7863 16.6836C47.7435 16.7007 47.6982 16.7156 47.6526 16.7308C47.6236 16.7403 47.5944 16.75 47.5656 16.7603C47.4158 16.8137 47.2646 16.8872 47.1406 17.071L47.1266 17.0917L47.1149 17.0696C47.0296 16.9084 46.9936 16.7655 46.9913 16.6339C46.9889 16.5024 47.02 16.3832 47.0674 16.2694C47.1454 16.0721 47.1499 15.8534 47.0803 15.6532C47.0142 15.6563 46.9293 15.6469 46.8536 15.6336C46.8134 15.6265 46.7755 15.6182 46.744 15.6099C46.7128 15.6016 46.6869 15.5931 46.6714 15.5854L46.6708 15.5851C46.5838 15.5367 46.5506 15.4833 46.5506 15.4278C46.5506 15.3747 46.5814 15.3244 46.6092 15.2827C46.6221 15.2611 46.6264 15.2448 46.627 15.231C46.6276 15.2167 46.6244 15.2038 46.6202 15.1878L46.62 15.1868C46.616 15.1713 46.6113 15.1533 46.6108 15.1315C46.6104 15.1111 46.6136 15.088 46.6233 15.06C46.6076 15.0432 46.596 15.0265 46.592 15.0093C46.5872 14.9886 46.594 14.97 46.6096 14.9536L46.6743 14.8324C46.6724 14.832 46.6705 14.8316 46.6686 14.8313L46.6662 14.8308C46.6572 14.8291 46.6478 14.8272 46.6388 14.8246C46.6212 14.8196 46.6034 14.8113 46.5912 14.7935C46.5615 14.7586 46.552 14.726 46.5592 14.6954C46.5663 14.6658 46.5883 14.6421 46.6125 14.6227L46.6132 14.6222L46.6139 14.6217C46.687 14.5761 46.7513 14.5119 46.8067 14.4379L46.8072 14.4374L46.8076 14.4369C46.8461 14.3941 46.8554 14.3379 46.8577 14.2799C46.8582 14.2655 46.8584 14.2513 46.8585 14.2372L46.8585 14.2336C46.8586 14.2208 46.8587 14.2081 46.8591 14.1959C46.86 14.1697 46.8624 14.1441 46.8703 14.1229L46.8707 14.122L46.8711 14.1212C46.9305 14.0078 47.0174 13.9112 47.1239 13.8401C47.2304 13.769 47.353 13.7257 47.4805 13.7143ZM47.0906 15.6376L47.1047 15.6325C47.1807 15.8424 47.1774 16.0729 47.0952 16.2806L47.0951 16.2808C47.0488 16.392 47.019 16.5071 47.0212 16.6334C47.0234 16.7537 47.0548 16.885 47.13 17.0336C47.2564 16.8573 47.4085 16.7844 47.5555 16.732C47.5858 16.7212 47.6155 16.7114 47.6447 16.7018C47.6895 16.6869 47.7329 16.6726 47.7752 16.6558C47.844 16.6283 47.9071 16.5953 47.9614 16.5456C48.0452 16.4578 48.1023 16.3719 48.1521 16.2969C48.1628 16.2808 48.1731 16.2652 48.1833 16.2502C48.2348 16.1745 48.2838 16.1121 48.3552 16.0821C48.3459 16.0741 48.3364 16.066 48.3266 16.0577C48.2572 15.9987 48.1782 15.9316 48.1166 15.843C48.0395 15.7322 47.9894 15.588 48.0132 15.3827L48.0133 15.3824C48.0277 15.2764 48.0752 15.1759 48.1287 15.0764C48.1416 15.0525 48.1549 15.0286 48.1682 15.0046C48.2103 14.9285 48.2527 14.8521 48.2849 14.7718C48.327 14.6668 48.3512 14.5564 48.3336 14.4347C48.3161 14.313 48.2567 14.1784 48.1291 14.0253L48.1288 14.0249C48.0532 13.9278 47.9546 13.8513 47.8418 13.8022C47.729 13.7532 47.6057 13.7332 47.4831 13.7442C47.3606 13.7552 47.2428 13.7967 47.1406 13.865C47.0385 13.9331 46.9552 14.0257 46.8981 14.1343C46.8922 14.1505 46.89 14.1715 46.8891 14.197C46.8887 14.2087 46.8886 14.221 46.8885 14.2339L46.8885 14.2374C46.8884 14.2515 46.8882 14.2662 46.8876 14.2811C46.8853 14.3402 46.8759 14.4055 46.8304 14.4565C46.7736 14.5321 46.707 14.5987 46.6306 14.6467C46.6083 14.6646 46.593 14.6829 46.5884 14.7024C46.584 14.7208 46.5884 14.7442 46.6145 14.7747L46.6151 14.7754L46.6156 14.7761C46.6221 14.7859 46.6322 14.7915 46.6471 14.7958C46.6546 14.7979 46.6628 14.7996 46.6719 14.8013L46.6743 14.8018C46.6826 14.8034 46.6915 14.8051 46.7005 14.8074L46.7192 14.812L46.6341 14.9716L46.6325 14.9732C46.6211 14.9845 46.6192 14.9935 46.6213 15.0025C46.6238 15.0135 46.6329 15.0273 46.6512 15.0457L46.6581 15.0526L46.6546 15.0617C46.6435 15.0905 46.6404 15.1126 46.6408 15.1308C46.6412 15.1492 46.6451 15.1643 46.6492 15.1801L46.6493 15.1803L46.6493 15.1805C46.6534 15.1961 46.6578 15.213 46.6569 15.2323C46.6561 15.2521 46.6498 15.2732 46.6347 15.2984L46.6344 15.299C46.606 15.3416 46.5806 15.3849 46.5806 15.4278C46.5806 15.4683 46.6036 15.5133 46.6851 15.5587C46.6978 15.5649 46.721 15.5728 46.7517 15.5809C46.7823 15.589 46.8194 15.5971 46.8589 15.604C46.9381 15.618 47.0258 15.6272 47.0896 15.6226L47.0906 15.6376ZM48.913 17.5962C48.9279 17.6858 48.9337 17.7839 48.9337 17.8782V17.8794C48.8774 18.6033 48.6554 19.3046 48.285 19.9292C48.2088 20.0757 48.0778 20.1861 47.9204 20.2361C47.8569 20.2589 47.779 20.3092 47.686 20.3704C47.6814 20.3734 47.6768 20.3765 47.6721 20.3795C47.583 20.4382 47.4816 20.505 47.3695 20.5633C47.0568 20.7304 46.7297 20.8688 46.3921 20.9768L46.3913 20.9771C46.3311 20.9926 46.2595 21.0089 46.1796 21.0271C45.8716 21.0972 45.4393 21.1956 45.0537 21.3884C44.9106 21.4623 44.8565 21.5261 44.8206 21.5845C44.8122 21.598 44.8047 21.6117 44.7971 21.6254C44.7721 21.6709 44.7467 21.7169 44.6906 21.7618L44.6897 21.7625L44.6887 21.7631C44.6263 21.7987 44.5787 21.8572 44.5395 21.9241C44.5049 21.9831 44.4774 22.0477 44.452 22.1074C44.4486 22.1154 44.4452 22.1232 44.4419 22.131L44.4416 22.1317L44.4412 22.1323C44.4044 22.1986 44.3794 22.2826 44.3514 22.377C44.3447 22.3996 44.3377 22.4229 44.3305 22.4466C44.3294 22.4552 44.3237 22.4621 44.3193 22.4664C44.3137 22.4719 44.3064 22.4771 44.2982 22.4818C44.2819 22.4913 44.2605 22.4998 44.239 22.5042C44.2179 22.5085 44.1942 22.5095 44.1751 22.501C44.1708 22.4991 44.1667 22.4967 44.1629 22.4938C44.1463 22.5428 44.1073 22.5805 44.0684 22.5971C44.0426 22.608 44.0139 22.6109 43.9907 22.598C43.9799 22.5919 43.9713 22.583 43.9651 22.5715C43.944 22.6024 43.9086 22.6218 43.8758 22.6263C43.8513 22.6296 43.8254 22.6249 43.8069 22.6075C43.8028 22.6037 43.7992 22.5994 43.7961 22.5946C43.7838 22.626 43.769 22.648 43.7529 22.6633C43.7272 22.6877 43.6997 22.6932 43.6781 22.6932H43.6763L43.6745 22.6927C43.654 22.6876 43.633 22.6791 43.6183 22.6541C43.6045 22.6306 43.5975 22.5944 43.5975 22.5376V22.5363C43.5982 22.5279 43.5991 22.5183 43.6 22.5077C43.605 22.4478 43.6127 22.3569 43.6186 22.2694C43.6221 22.2179 43.6251 22.1677 43.6265 22.1257C43.628 22.0838 43.6279 22.0512 43.6258 22.0337C43.6162 21.9853 43.6161 21.9407 43.6286 21.8982C43.6412 21.8554 43.6662 21.8158 43.705 21.777C43.7318 21.7502 43.7638 21.7047 43.7989 21.6462C43.8337 21.5881 43.871 21.5183 43.9084 21.4435C43.9468 21.3619 43.9835 21.3152 44.055 21.2644C44.1065 21.2277 44.1766 21.1885 44.2789 21.1313C44.3156 21.1107 44.3564 21.0879 44.402 21.062C44.8625 20.8028 45.3064 20.5152 45.7312 20.2009C46.092 19.8813 46.5369 19.672 47.0131 19.5978C47.0338 19.5939 47.0545 19.5904 47.0743 19.5871C47.0896 19.5846 47.1043 19.5821 47.1178 19.5796C47.1499 19.5738 47.1781 19.5675 47.2027 19.5586C47.2271 19.5497 47.2474 19.5384 47.2636 19.5227C47.2797 19.5071 47.2925 19.4867 47.3012 19.4585C47.3087 19.4288 47.3228 19.3977 47.3412 19.3596C47.3452 19.3515 47.3493 19.3431 47.3536 19.3343C47.37 19.3009 47.3892 19.2616 47.4109 19.2127C47.4656 19.0893 47.5356 18.905 47.6104 18.6058L47.6107 18.6048C47.7688 18.1223 48.0557 17.6921 48.4402 17.3606L48.4406 17.3602C48.5355 17.2843 48.6154 17.2523 48.6824 17.2568C48.7505 17.2613 48.8011 17.303 48.8379 17.3642C48.8744 17.4251 48.8983 17.507 48.913 17.5962ZM44.1412 22.4438H44.1712C44.1712 22.4534 44.1733 22.4598 44.1759 22.4641C44.1785 22.4682 44.1822 22.4714 44.1872 22.4736C44.1979 22.4783 44.2142 22.4787 44.2329 22.4748C44.2512 22.471 44.2696 22.4637 44.2832 22.4559C44.29 22.4519 44.2951 22.4482 44.2982 22.4451C44.2996 22.4437 44.3003 22.4428 44.3006 22.4423V22.4416L44.3013 22.4394C44.3085 22.416 44.3154 22.3928 44.3221 22.37C44.3502 22.2757 44.3763 22.1878 44.4146 22.1185C44.4178 22.111 44.421 22.1034 44.4243 22.0957C44.4497 22.0362 44.4779 21.9698 44.5136 21.9089C44.5539 21.8402 44.6044 21.777 44.6728 21.7376C44.7232 21.6971 44.7449 21.6576 44.7693 21.6136C44.7772 21.5992 44.7855 21.5843 44.795 21.5688C44.8341 21.5053 44.8925 21.4379 45.04 21.3617L45.0469 21.3751L45.0402 21.3616C45.4295 21.167 45.8668 21.0675 46.1749 20.9974C46.2539 20.9794 46.3243 20.9634 46.3833 20.9481C46.7191 20.8407 47.0445 20.703 47.3554 20.5368L47.3556 20.5368C47.4663 20.4792 47.5665 20.4131 47.6559 20.3543C47.6604 20.3513 47.665 20.3483 47.6695 20.3453C47.7615 20.2848 47.8429 20.232 47.9106 20.2078L47.9111 20.2076C48.0611 20.1599 48.186 20.0547 48.2586 19.915L48.259 19.9143C48.627 19.2937 48.8477 18.5969 48.9037 17.8776C48.9037 17.7846 48.8979 17.6884 48.8834 17.6011C48.8689 17.5135 48.8459 17.4359 48.8121 17.3797C48.7785 17.3237 48.7354 17.2904 48.6804 17.2867C48.6245 17.283 48.5521 17.3095 48.4596 17.3835C48.0794 17.7113 47.7959 18.1366 47.6394 18.6136C47.5643 18.9141 47.4937 19.0999 47.4383 19.2249C47.4164 19.2743 47.3968 19.3143 47.3805 19.3477C47.3762 19.3565 47.3721 19.3648 47.3682 19.3727C47.3496 19.4112 47.3368 19.4398 47.3302 19.4662L47.33 19.467C47.32 19.4996 47.3046 19.5247 47.2845 19.5442C47.2644 19.5637 47.2401 19.577 47.2129 19.5868C47.1859 19.5966 47.1556 19.6033 47.1232 19.6092C47.1083 19.6119 47.0935 19.6143 47.0783 19.6169C47.0593 19.62 47.0396 19.6233 47.0184 19.6273L47.0179 19.6274C46.5471 19.7007 46.1072 19.9077 45.7506 20.2238L45.7496 20.2247C45.3237 20.5399 44.8785 20.8282 44.4168 21.0881C44.3702 21.1145 44.3289 21.1377 44.2919 21.1583C44.1905 21.2151 44.1224 21.2532 44.0724 21.2888C44.0056 21.3364 43.972 21.3788 43.9354 21.4564L43.9353 21.4568C43.8977 21.532 43.86 21.6026 43.8246 21.6617C43.7893 21.7205 43.7557 21.7687 43.7262 21.7982C43.6901 21.8343 43.6682 21.8697 43.6574 21.9066C43.6465 21.9436 43.6463 21.9832 43.6553 22.0284L43.6555 22.0294C43.6581 22.0496 43.658 22.0847 43.6565 22.1268C43.655 22.1692 43.6521 22.2198 43.6486 22.2714C43.6426 22.3592 43.6349 22.4504 43.6298 22.5103C43.629 22.5206 43.6282 22.5299 43.6275 22.5382C43.6276 22.5934 43.6346 22.6227 43.6442 22.6389C43.6526 22.6533 43.6639 22.659 43.6799 22.6632C43.6955 22.6629 43.7142 22.6587 43.7323 22.6415C43.7515 22.6233 43.7716 22.589 43.7853 22.525L43.8148 22.5303C43.8106 22.56 43.8178 22.5767 43.8274 22.5857C43.8373 22.595 43.853 22.5991 43.8718 22.5965C43.9102 22.5913 43.9499 22.5603 43.9538 22.5175L43.9837 22.5188C43.9837 22.5508 43.9942 22.5656 44.0054 22.5718C44.0173 22.5785 44.0355 22.5784 44.0566 22.5695C44.099 22.5515 44.1412 22.5024 44.1412 22.4438ZM48.5775 30.1974C48.6353 30.1518 48.7281 30.0788 48.8719 30.0788H48.8727L48.8735 30.0789C48.9621 30.0887 49.0468 30.1377 49.1238 30.1993C49.201 30.261 49.272 30.3368 49.3329 30.4024L49.3354 30.4051L49.3364 30.4087C49.3593 30.4958 49.3843 30.5365 49.4081 30.5717C49.4103 30.575 49.4125 30.5782 49.4147 30.5814C49.4371 30.614 49.4592 30.6463 49.4769 30.7084L49.477 30.7087C49.4968 30.783 49.4842 30.8567 49.4602 30.9228C49.4363 30.9886 49.4005 31.0482 49.3725 31.0949L49.3718 31.0959L49.3714 31.0966C49.3447 31.1321 49.3243 31.1795 49.3105 31.2265C49.2967 31.2736 49.29 31.319 49.29 31.3501C49.29 31.4071 49.2806 31.4755 49.2603 31.5161L49.2599 31.517L49.2594 31.5178C49.2505 31.531 49.2392 31.5513 49.2302 31.5727C49.2211 31.5944 49.215 31.6156 49.215 31.6313C49.215 31.7081 49.1959 31.7605 49.1627 31.7881C49.132 31.8138 49.0929 31.8152 49.0555 31.8002C49.0394 31.8225 49.0154 31.8448 48.9896 31.8599C48.9644 31.8746 48.9337 31.8844 48.9061 31.8755C48.8818 31.9139 48.8493 31.9406 48.8147 31.9525C48.7816 31.9639 48.7468 31.9617 48.7169 31.9435C48.6926 31.9805 48.6602 32.0044 48.6245 32.0127C48.5907 32.0206 48.5556 32.0141 48.5239 31.9937C48.5176 32.0075 48.5078 32.0197 48.4963 32.0302C48.4787 32.0461 48.4562 32.059 48.4334 32.0683C48.4105 32.0775 48.3865 32.0835 48.3653 32.0853C48.345 32.0869 48.3238 32.0851 48.3098 32.0746M48.5531 30.2344L48.5448 30.222C48.5542 30.2157 48.565 30.2072 48.5775 30.1974M48.5701 30.2409C48.5841 30.2977 48.6058 30.3565 48.6269 30.4119C48.6287 30.4166 48.6305 30.4212 48.6322 30.4258C48.6523 30.4787 48.6713 30.5285 48.6802 30.5685C48.6904 30.6092 48.6853 30.6382 48.6748 30.6633C48.67 30.6747 48.664 30.6852 48.6585 30.695L48.6576 30.6966C48.6517 30.7071 48.6463 30.7168 48.6421 30.7275L48.6417 30.7285C48.5165 30.9881 48.4286 31.264 48.3806 31.5482C48.3803 31.6079 48.3555 31.6664 48.3285 31.7179C48.3188 31.7366 48.3085 31.7547 48.2989 31.7718C48.295 31.7786 48.2913 31.7852 48.2878 31.7915C48.275 31.8144 48.2644 31.8346 48.2578 31.8522L48.2573 31.8536L48.2565 31.8549C48.2347 31.8898 48.2293 31.9203 48.2392 31.95C48.2495 31.9807 48.2769 32.0136 48.3276 32.0504L48.3278 32.0506C48.3325 32.0541 48.3441 32.0569 48.3628 32.0554C48.3805 32.0539 48.4016 32.0488 48.4221 32.0405C48.4426 32.0321 48.4618 32.021 48.4761 32.0079C48.4905 31.9949 48.499 31.9809 48.5007 31.9669L48.5042 31.9393L48.5254 31.9574C48.555 31.9828 48.5877 31.9905 48.6177 31.9835C48.6479 31.9764 48.6775 31.954 48.6994 31.9146L48.7082 31.8988L48.7221 31.9104C48.7458 31.9302 48.7753 31.9343 48.8049 31.9242C48.8347 31.9139 48.8649 31.8886 48.8869 31.849L48.8944 31.8355L48.9077 31.8434C48.9238 31.8531 48.9477 31.8496 48.9745 31.834C49.0005 31.8188 49.0244 31.7947 49.0371 31.7736L49.0443 31.7617L49.0567 31.7679C49.0907 31.7849 49.1214 31.7835 49.1435 31.7651C49.1666 31.7459 49.185 31.7045 49.185 31.6313C49.185 31.6095 49.193 31.5838 49.2026 31.561C49.2121 31.5383 49.224 31.5168 49.2339 31.5019C49.2508 31.4674 49.26 31.4051 49.26 31.3501C49.26 31.3155 49.2673 31.2672 49.2817 31.2181C49.296 31.1693 49.3176 31.1186 49.3469 31.0792C49.375 31.0323 49.4092 30.9751 49.432 30.9125C49.4548 30.8497 49.4657 30.7828 49.448 30.7165C49.4317 30.6593 49.4119 30.6304 49.3899 30.5983C49.3877 30.5951 49.3855 30.5918 49.3833 30.5885C49.3583 30.5516 49.332 30.5086 49.3083 30.42C49.2479 30.355 49.1792 30.282 49.1051 30.2227C49.03 30.1626 48.951 30.1179 48.871 30.1088C48.7394 30.1091 48.6567 30.1737 48.5985 30.2193C48.5883 30.2272 48.5789 30.2346 48.5701 30.2409ZM45.8417 30.861L45.8527 30.8693C45.8891 30.8965 45.9559 30.9335 46.0252 30.9687C46.094 31.0037 46.1641 31.0364 46.2061 31.0551L46.2256 31.0638L46.2108 31.0792C45.972 31.3276 45.6251 31.3303 45.4585 31.1735L45.4687 31.1626L45.4624 31.149C45.6033 31.0825 45.7293 30.9881 45.8325 30.8714L45.8417 30.861ZM45.4957 31.1662C45.6505 31.2918 45.9533 31.2893 46.1741 31.0736C46.1314 31.0542 46.071 31.0257 46.0116 30.9955C45.9487 30.9635 45.8859 30.9291 45.8459 30.9014C45.7468 31.0108 45.628 31.1007 45.4957 31.1662Z" fill="black"/>
<path d="M47.0063 13.9687C47.0625 13.5937 47.3344 13.5937 47.5031 13.6406C47.5781 13.65 47.7469 13.6687 47.9156 13.6218C48.2344 13.5375 48.4781 13.65 48.4406 13.9593C48.5344 14.025 48.6281 14.175 48.6 14.3062C48.5906 14.4375 48.6188 14.4937 48.7313 14.5031C48.8531 14.5218 49.1063 14.6718 48.9375 14.8781C49.0969 14.9718 49.2188 15.225 49.1344 15.3843C49.05 15.5531 48.7969 15.5812 48.6844 15.4312C48.5625 15.4875 48.375 15.4968 48.2531 15.375C48.1688 15.4687 47.9719 15.4593 47.925 15.375C47.8875 15.2812 47.8313 15.2437 47.7469 15.2156C47.6625 15.1875 47.6531 14.9531 47.7844 14.925C47.775 14.85 47.7844 14.775 47.8125 14.7375C47.8406 14.7 47.8125 14.625 47.7375 14.5687C47.6625 14.5031 47.5969 14.2875 47.6719 14.1562C47.5406 14.2031 47.2594 14.0718 47.2031 13.9875C47.1375 13.8937 47.0531 13.8937 47.0063 13.9687V13.9687Z" fill="#870F00"/>
<path fill-rule="evenodd" clip-rule="evenodd" d="M48.3046 13.6551C48.2131 13.6015 48.0768 13.5938 47.9193 13.6354C47.7477 13.6831 47.5766 13.664 47.5014 13.6546L47.5004 13.6544L47.4994 13.6542C47.4163 13.6311 47.3099 13.6202 47.218 13.6594C47.1358 13.6945 47.0625 13.771 47.0291 13.9223C47.0495 13.9068 47.0733 13.8991 47.0986 13.9008C47.1395 13.9035 47.1804 13.9305 47.2146 13.9794L47.2148 13.9797L47.2148 13.9797C47.2272 13.9983 47.2534 14.0211 47.2893 14.0442C47.3248 14.0671 47.3685 14.0896 47.4146 14.108C47.4607 14.1265 47.5089 14.1408 47.5533 14.1476C47.598 14.1545 47.6375 14.1536 47.6671 14.143L47.7029 14.1302L47.6841 14.1632C47.649 14.2247 47.6462 14.3074 47.6622 14.3842C47.6782 14.461 47.7122 14.5277 47.7464 14.5578C47.7853 14.5871 47.8126 14.6216 47.8266 14.6547C47.8404 14.6873 47.8421 14.7215 47.8237 14.7459C47.8117 14.762 47.8028 14.7875 47.7983 14.8192C47.7938 14.8506 47.7938 14.8868 47.7983 14.9232L47.7999 14.936L47.7873 14.9387C47.7311 14.9508 47.7022 15.0078 47.6988 15.0711C47.6971 15.1021 47.7019 15.1328 47.7117 15.157C47.7217 15.1816 47.7358 15.1971 47.7513 15.2023C47.7943 15.2166 47.8313 15.2337 47.8626 15.2599C47.8937 15.2861 47.9183 15.3207 47.9377 15.3689C47.9475 15.3861 47.9655 15.4005 47.9897 15.4108C48.0141 15.4213 48.0439 15.4272 48.0752 15.4277C48.1384 15.4289 48.2041 15.4084 48.2427 15.3656L48.2526 15.3546L48.2631 15.3651C48.3793 15.4812 48.5597 15.4733 48.6785 15.4185L48.6888 15.4137L48.6956 15.4228C48.7484 15.4932 48.8345 15.5223 48.9184 15.5134C49.0023 15.5044 49.0821 15.4575 49.1218 15.3781L49.1219 15.3778L49.1219 15.3778C49.1614 15.3033 49.1534 15.2049 49.1144 15.1121C49.0755 15.0194 49.007 14.9353 48.9304 14.8902L48.9162 14.8819L48.9266 14.8692C48.9671 14.8197 48.9813 14.7749 48.9796 14.7358C48.9778 14.6964 48.96 14.6607 48.9328 14.6296C48.878 14.5669 48.7877 14.5262 48.7296 14.5171C48.6716 14.5122 48.6313 14.4948 48.608 14.4579C48.5855 14.4221 48.5813 14.3711 48.586 14.3052L48.586 14.3043L48.5862 14.3033C48.5994 14.2418 48.5842 14.1749 48.5535 14.1146C48.5228 14.0543 48.4774 14.0023 48.4326 13.9709L48.4256 13.9661L48.4267 13.9577C48.4449 13.8073 48.3948 13.7079 48.3046 13.6551ZM47.0062 13.9687L46.9923 13.9667C47.021 13.7755 47.1054 13.6769 47.207 13.6335C47.3069 13.5909 47.4203 13.6032 47.5059 13.6268C47.5812 13.6362 47.7468 13.6542 47.9119 13.6083L47.912 13.6083L47.912 13.6083C48.0732 13.5656 48.2182 13.5719 48.3188 13.6308C48.419 13.6895 48.472 13.7982 48.4555 13.9528C48.5021 13.9873 48.5475 14.0408 48.5785 14.1018C48.611 14.1654 48.6285 14.2387 48.614 14.3082C48.6094 14.373 48.6146 14.4155 48.6318 14.4429C48.6483 14.4691 48.6781 14.4846 48.7324 14.4891L48.7334 14.4892L48.7334 14.4892C48.7971 14.499 48.8941 14.5426 48.9539 14.611C48.9841 14.6455 49.0056 14.6871 49.0076 14.7345C49.0096 14.7784 48.9949 14.8254 48.9582 14.8744C49.0353 14.9246 49.1018 15.0094 49.1403 15.1012C49.181 15.1981 49.1917 15.306 49.1469 15.3908C49.1022 15.48 49.0132 15.5315 48.9214 15.5413C48.833 15.5508 48.7402 15.5217 48.6801 15.4485C48.5583 15.5007 48.3775 15.5087 48.2534 15.3948C48.2072 15.4383 48.1381 15.457 48.0747 15.4559C48.0404 15.4552 48.007 15.4488 47.9786 15.4367C47.9504 15.4246 47.9264 15.4065 47.9127 15.3818L47.9123 15.381L47.9119 15.3802C47.8939 15.3351 47.8717 15.3043 47.8445 15.2815C47.8171 15.2585 47.7838 15.2428 47.7424 15.229C47.7158 15.2201 47.6971 15.1958 47.6856 15.1676C47.6741 15.139 47.6689 15.1041 47.6707 15.0696C47.6742 15.0054 47.7029 14.9357 47.7691 14.9145C47.7656 14.88 47.7661 14.8458 47.7705 14.8152C47.7753 14.7813 47.7852 14.7505 47.8012 14.7291C47.811 14.716 47.8127 14.6939 47.8007 14.6656C47.789 14.6379 47.765 14.6069 47.7291 14.58L47.7282 14.5794L47.7282 14.5793C47.6875 14.5437 47.6514 14.47 47.6347 14.39C47.6201 14.3201 47.6196 14.2422 47.6461 14.1772C47.6166 14.1819 47.5833 14.1807 47.549 14.1754C47.502 14.1682 47.4518 14.1532 47.4041 14.1341C47.3565 14.1151 47.3112 14.0918 47.274 14.0679C47.2373 14.0442 47.2072 14.0189 47.1915 13.9954C47.1602 13.9507 47.1261 13.9308 47.0967 13.9289C47.0679 13.9269 47.0395 13.942 47.0182 13.9762L47.0062 13.9687Z" fill="black"/>
<path fill-rule="evenodd" clip-rule="evenodd" d="M47.1738 13.9175C47.1754 13.9312 47.1819 13.9451 47.195 13.9582L47.1738 13.9794C47.1564 13.9621 47.1465 13.942 47.144 13.9209C47.1416 13.8998 47.1468 13.8789 47.1577 13.8596C47.1794 13.8214 47.2239 13.7893 47.2822 13.7728C47.3997 13.7394 47.5761 13.7676 47.7572 13.9392L47.7575 13.9395C47.7915 13.9735 47.8462 13.9916 47.8999 13.9985C47.9265 14.0019 47.9522 14.0024 47.974 14.001C47.996 13.9996 48.013 13.9962 48.0225 13.9924L48.0337 14.0203C48.0198 14.0258 47.9993 14.0295 47.9759 14.031C47.9523 14.0325 47.9246 14.0319 47.8961 14.0282C47.8398 14.0211 47.7774 14.0017 47.7364 13.9608C47.5613 13.795 47.3956 13.7717 47.2904 13.8016C47.2374 13.8167 47.2005 13.8449 47.1838 13.8744C47.1755 13.889 47.1723 13.9037 47.1738 13.9175ZM47.943 14.1616C47.8568 14.1435 47.7584 14.1525 47.6751 14.171L47.6686 14.1417C47.7541 14.1227 47.8572 14.1129 47.9492 14.1323C48.0416 14.1517 48.124 14.2011 48.1639 14.3008C48.1818 14.3454 48.2029 14.3698 48.2256 14.3854C48.2473 14.4004 48.2712 14.408 48.2986 14.4167C48.3006 14.4173 48.3026 14.418 48.3046 14.4186C48.3341 14.428 48.3666 14.4392 48.3988 14.463C48.4312 14.4869 48.4625 14.5229 48.4915 14.5808C48.5476 14.6884 48.6167 14.7984 48.6938 14.8607C48.7321 14.8917 48.7713 14.91 48.8109 14.9114C48.8501 14.9129 48.8922 14.8979 48.9368 14.8577L48.9569 14.88C48.9078 14.9242 48.8585 14.9432 48.8098 14.9414C48.7615 14.9396 48.7163 14.9175 48.6749 14.884C48.5926 14.8175 48.5212 14.7025 48.4648 14.5945L48.4647 14.5943C48.4374 14.5398 48.409 14.5078 48.381 14.4872C48.353 14.4664 48.3245 14.4565 48.2954 14.4472C48.2932 14.4465 48.291 14.4458 48.2888 14.4451C48.2621 14.4366 48.2341 14.4277 48.2086 14.4101C48.1803 14.3906 48.1557 14.361 48.1361 14.3119C48.101 14.2241 48.0287 14.1797 47.943 14.1616ZM48.1919 14.9213C48.1885 14.9786 48.198 15.0322 48.2269 15.0652L48.2324 15.0714L48.23 15.0794C48.2157 15.1273 48.2115 15.1776 48.2177 15.2272C48.2239 15.2768 48.2403 15.3245 48.266 15.3674L48.2403 15.3828C48.2125 15.3363 48.1946 15.2846 48.1879 15.2309C48.1815 15.1798 48.1853 15.128 48.199 15.0785C48.1667 15.0366 48.1586 14.9764 48.162 14.9195C48.1656 14.8591 48.1825 14.7985 48.2022 14.759L48.229 14.7724C48.2113 14.8079 48.1953 14.8645 48.1919 14.9213ZM46.7829 14.8911L46.6892 14.8348L46.7046 14.8091L46.7983 14.8653L46.7829 14.8911ZM47.7877 14.9893C47.7763 14.9671 47.7694 14.9447 47.7694 14.9251H47.7994C47.7994 14.9382 47.8042 14.9557 47.8144 14.9755C47.8245 14.995 47.8394 15.0158 47.8584 15.0353C47.8965 15.0745 47.9498 15.1077 48.0115 15.1165L48.0072 15.1462C47.9376 15.1362 47.8785 15.0991 47.8369 15.0562C47.816 15.0348 47.7993 15.0116 47.7877 14.9893ZM46.6791 15.0876L46.6329 15.0598L46.6483 15.0341L46.6959 15.0626L46.6965 15.0631C46.7303 15.0884 46.7827 15.0976 46.8187 15.0976V15.1276C46.78 15.1276 46.7204 15.1181 46.6791 15.0876ZM48.6523 15.1338C48.6336 15.2462 48.6255 15.3338 48.6961 15.422L48.6727 15.4407C48.5932 15.3414 48.6039 15.2415 48.6227 15.1289L48.6523 15.1338ZM47.3344 15.5653C47.271 15.5993 47.1986 15.638 47.0926 15.6524L47.0886 15.6227C47.1888 15.6091 47.2571 15.5727 47.3202 15.5388L47.3226 15.5376C47.3846 15.5042 47.4436 15.4726 47.5219 15.4726V15.5026C47.4512 15.5026 47.3981 15.5311 47.3344 15.5653Z" fill="black"/>
<path fill-rule="evenodd" clip-rule="evenodd" d="M47.956 13.7103C48.1402 13.7465 48.3112 13.8319 48.4507 13.9577L48.4306 13.9799C48.2952 13.8579 48.1291 13.7749 47.9502 13.7398L47.956 13.7103ZM47.9233 14.5122C47.8965 14.4587 47.8819 14.3979 47.8819 14.3438H47.9119C47.9119 14.3929 47.9253 14.4492 47.9501 14.4988C47.975 14.5485 48.0105 14.5901 48.0536 14.6116L48.058 14.6139L48.0603 14.6183C48.0871 14.672 48.1856 14.8156 48.4019 14.7976L48.4044 14.8275C48.1762 14.8465 48.0681 14.6981 48.0357 14.6362C47.9871 14.6103 47.9492 14.564 47.9233 14.5122ZM46.8883 18.1523C46.8127 17.6611 46.926 17.3102 47.1161 17.0536L47.1402 17.0715C46.9552 17.3211 46.8435 17.6638 46.9179 18.1475C46.9647 18.391 47.0212 18.6922 47.0224 18.9726C47.0236 19.2526 46.9697 19.516 46.7914 19.6798L46.7711 19.6578C46.9397 19.5028 46.9936 19.2506 46.9924 18.9728C46.9912 18.6955 46.9353 18.3968 46.8884 18.1529L46.8883 18.1523L46.8883 18.1523ZM48.1079 20.562C48.2537 20.5514 48.4054 20.5679 48.5289 20.6012L48.5211 20.6302C48.4008 20.5978 48.2525 20.5815 48.1101 20.592C47.9674 20.6024 47.8324 20.6394 47.7372 20.712L47.7371 20.712C47.6402 20.7847 47.5058 20.8228 47.369 20.8287C47.2321 20.8347 47.0911 20.8085 46.9805 20.7508L46.9944 20.7242C47.0995 20.7791 47.235 20.8045 47.3677 20.7987C47.5004 20.793 47.6284 20.756 47.7191 20.6881" fill="black"/>
<path fill-rule="evenodd" clip-rule="evenodd" d="M48.3792 20.7089C48.4275 20.8117 48.4556 20.9808 48.4556 21.2438H48.4256C48.4256 20.9818 48.3975 20.8182 48.352 20.7217C48.3295 20.6737 48.303 20.6432 48.2744 20.625C48.254 20.6121 48.232 20.6051 48.2083 20.6029C48.1985 20.6026 48.1884 20.6026 48.1781 20.6026L48.1772 20.5726C48.1882 20.5719 48.1991 20.572 48.2099 20.5729C48.2501 20.5739 48.2891 20.5777 48.3259 20.5909C48.3729 20.6078 48.4153 20.6396 48.4532 20.6977C48.528 20.8124 48.5868 21.0314 48.6336 21.4484L48.6337 21.4488L48.6337 21.4488C48.6754 21.9214 48.7581 22.155 48.8636 22.4528C48.9 22.5553 48.939 22.6655 48.9799 22.7956L48.98 22.7957C49.1728 23.4354 49.2197 24.2458 49.2431 24.9828C49.247 25.1065 49.2503 25.2281 49.2535 25.3465C49.2598 25.5812 49.2658 25.8033 49.2759 26.0043C49.2912 26.3068 49.3157 26.5595 49.3644 26.7335L49.3356 26.7416C49.2858 26.564 49.2612 26.3082 49.246 26.0058C49.2358 25.8045 49.2298 25.5817 49.2235 25.3468C49.2203 25.2285 49.217 25.1071 49.2131 24.9838C49.1897 24.2465 49.1428 23.4398 48.9513 22.8045C48.9108 22.676 48.8721 22.5666 48.8359 22.4645C48.73 22.1657 48.6459 21.9281 48.6038 21.4516C48.5569 21.0343 48.4985 20.8221 48.4281 20.7141C48.3934 20.6611 48.3562 20.6337 48.3161 20.6193C48.34 20.6409 48.3611 20.6705 48.3792 20.7089ZM47.7512 20.7434C47.8041 20.6438 47.8858 20.5922 47.9974 20.5728L48.0026 20.6024C47.8986 20.6204 47.8256 20.6673 47.7777 20.7575C47.7291 20.8491 47.7056 20.9866 47.7056 21.1876C47.7056 21.316 47.6957 21.4645 47.6849 21.626C47.6791 21.7127 47.673 21.8032 47.6681 21.8962C47.6541 22.163 47.6494 22.4526 47.6867 22.7419L47.657 22.7457C47.6193 22.4538 47.6241 22.1621 47.6381 21.8946C47.6431 21.8004 47.6492 21.7094 47.655 21.6225C47.6658 21.4618 47.6756 21.315 47.6756 21.1876C47.6756 20.9854 47.699 20.8417 47.7512 20.7434ZM47.5769 20.7594C47.5887 20.7567 47.6005 20.754 47.612 20.7511L47.6193 20.7803C47.6065 20.7834 47.5941 20.7863 47.5819 20.7891C47.5571 20.7948 47.5335 20.8002 47.5107 20.8076C47.4774 20.8185 47.4482 20.8331 47.4248 20.857C47.3781 20.9048 47.3494 20.9949 47.368 21.1861L47.3382 21.189C47.3193 20.9959 47.3469 20.8938 47.4033 20.8361C47.4314 20.8073 47.4656 20.7908 47.5014 20.7791C47.5255 20.7713 47.5514 20.7653 47.5769 20.7594ZM46.9574 20.891C46.9178 20.9669 46.8946 21.077 46.89 21.1882L46.86 21.187C46.8647 21.0732 46.8884 20.9583 46.9308 20.8771C46.952 20.8365 46.9785 20.8032 47.0108 20.7833C47.0437 20.763 47.0816 20.7571 47.1232 20.7701L47.1143 20.7988C47.0809 20.7883 47.052 20.793 47.0266 20.8088C47.0006 20.8249 46.9772 20.8531 46.9574 20.891ZM48.0891 26.0104C48.6487 24.5264 48.662 22.8917 48.1265 21.3989L48.1547 21.3888C48.692 22.8866 48.6793 24.5266 48.1191 26.0158C48.2998 26.52 48.4805 26.9681 48.6374 27.3575C48.6752 27.4512 48.7116 27.5416 48.7463 27.6285C48.9255 28.0769 49.0598 28.4348 49.1023 28.6945L49.0727 28.6994C49.0308 28.4435 48.898 28.0889 48.7185 27.6396C48.6838 27.5529 48.6474 27.4626 48.6097 27.3689C48.4522 26.9782 48.2706 26.5277 48.089 26.0208L48.0871 26.0156L48.0891 26.0104ZM46.9907 22.4519C46.9813 22.5821 46.9506 22.7471 46.8989 22.9537L46.8989 22.9538C46.7774 23.4258 46.7871 23.6672 46.8171 23.8238C46.8246 23.8631 46.8334 23.8973 46.8419 23.9287C46.8434 23.9342 46.8449 23.9397 46.8464 23.9451C46.8532 23.9702 46.8597 23.9941 46.8648 24.0174C46.8771 24.0748 46.8809 24.1301 46.8613 24.2009L46.8324 24.193C46.8504 24.1279 46.8471 24.0777 46.8354 24.0237C46.8306 24.0013 46.8243 23.9784 46.8175 23.9533C46.816 23.9478 46.8145 23.9422 46.8129 23.9365C46.8044 23.9048 46.7953 23.8699 46.7876 23.8295C46.7566 23.6673 46.7476 23.4212 46.8698 22.9464C46.9213 22.7405 46.9515 22.5774 46.9608 22.4498C46.9701 22.3218 46.9582 22.2313 46.9272 22.1693L46.954 22.1559C46.9886 22.2251 47.0002 22.3221 46.9907 22.4519Z" fill="black"/>
<path fill-rule="evenodd" clip-rule="evenodd" d="M46.9315 23.0979C46.9099 22.9566 46.9019 22.8277 46.926 22.7217L46.9552 22.7283C46.9325 22.8286 46.9397 22.9528 46.9612 23.0933C46.9765 23.1939 46.999 23.3016 47.0223 23.4138C47.0316 23.4584 47.0411 23.5036 47.0502 23.5494C47.1146 23.8702 47.1672 24.2161 47.0673 24.5111L47.0389 24.5014C47.1359 24.2151 47.0853 23.8767 47.0208 23.5553C47.0118 23.5101 47.0024 23.4651 46.9931 23.4208C46.9697 23.3082 46.947 23.1993 46.9315 23.0979ZM46.5562 25.1506C46.5393 24.9632 46.5225 24.777 46.5225 24.6094H46.5525C46.5525 24.7755 46.5691 24.9603 46.586 25.1479C46.5881 25.1711 46.5902 25.1942 46.5923 25.2174C46.611 25.4283 46.6275 25.6402 46.6181 25.8289L46.6181 25.8289C46.6037 26.1103 46.6899 26.2716 46.8093 26.4952C46.8429 26.5581 46.8792 26.6259 46.9166 26.7027C47.5539 27.9588 47.9683 28.8526 47.9212 30.0381L47.9212 30.0388L47.9212 30.0388C47.9168 30.0909 47.9176 30.1556 47.9185 30.2266L47.9186 30.2398C47.9195 30.3156 47.9201 30.3977 47.9142 30.4769C47.9083 30.5561 47.8958 30.6333 47.8701 30.6995C47.8444 30.7658 47.8051 30.8217 47.7451 30.8567L47.7299 30.8308C47.7824 30.8002 47.8181 30.7507 47.8422 30.6886C47.8663 30.6264 47.8784 30.5525 47.8843 30.4747C47.8901 30.3969 47.8895 30.316 47.8886 30.2401C47.8886 30.2355 47.8885 30.2309 47.8884 30.2264C47.8876 30.1561 47.8868 30.0902 47.8913 30.0366C47.9379 28.8598 47.5273 27.9724 46.8897 26.7162L46.8896 26.7159C46.8534 26.6414 46.8178 26.5748 46.7844 26.5125C46.664 26.2874 46.5733 26.1177 46.5881 25.8274C46.5881 25.8274 46.5881 25.8274 46.5881 25.8274L46.6031 25.8281L46.5881 25.8274C46.5881 25.8274 46.5881 25.8274 46.5881 25.8274C46.5975 25.6411 46.5812 25.4311 46.5624 25.2201C46.5603 25.1969 46.5582 25.1737 46.5562 25.1506ZM47.0118 28.7801C47.0669 29.5083 46.9905 30.2405 46.7863 30.9417L46.786 30.9427L46.7855 30.9437C46.7431 31.0381 46.7046 31.0965 46.6673 31.1313C46.6292 31.1668 46.5927 31.1775 46.5562 31.1775V31.1475C46.5854 31.1475 46.6145 31.1395 46.6468 31.1094C46.6797 31.0787 46.7161 31.0248 46.7578 30.9323C46.9607 30.2349 47.0366 29.5067 46.9819 28.7824L47.0118 28.7801ZM46.9922 30.8383C47.1504 30.4289 47.1505 29.9255 47.1133 29.6835L47.1429 29.679C47.1807 29.9246 47.1808 30.4336 47.0202 30.8492L46.9922 30.8383Z" fill="black"/>
<path fill-rule="evenodd" clip-rule="evenodd" d="M44.8597 13.9193L45.2816 13.6006L45.2997 13.6245L44.8778 13.9433L44.8597 13.9193ZM45.384 13.6986C45.3938 13.6943 45.4035 13.6913 45.4125 13.6913V13.7213C45.4097 13.7213 45.4045 13.7224 45.3961 13.7261C45.3879 13.7297 45.3778 13.7352 45.3656 13.7428C45.3414 13.7579 45.3102 13.7804 45.2715 13.8097C45.2379 13.8351 45.1989 13.8655 45.1543 13.9003C45.1478 13.9054 45.1411 13.9106 45.1343 13.9159C45.0813 13.9572 45.0209 14.0041 44.9528 14.0558L44.9347 14.0319C45.0026 13.9804 45.0629 13.9335 45.1159 13.8922C45.1227 13.8869 45.1293 13.8817 45.1359 13.8766C45.1805 13.8419 45.2196 13.8114 45.2534 13.7858C45.2921 13.7564 45.3242 13.7332 45.3498 13.7173C45.3625 13.7094 45.374 13.703 45.384 13.6986ZM44.5956 13.9863L44.7456 13.8363L44.7668 13.8575L44.6168 14.0075L44.5956 13.9863ZM45.2365 13.9854C45.304 13.9295 45.3668 13.8809 45.4163 13.8611L45.4274 13.889C45.3832 13.9067 45.3241 13.9519 45.2556 14.0085C45.2375 14.0235 45.2188 14.0392 45.1997 14.0553C45.1475 14.0992 45.0923 14.1457 45.0371 14.1871L45.0191 14.1631C45.0735 14.1222 45.1278 14.0766 45.1798 14.0329C45.199 14.0166 45.218 14.0007 45.2365 13.9854ZM43.8134 22.3871C43.8141 22.4289 43.815 22.4753 43.815 22.5282H43.785C43.785 22.4772 43.7842 22.4315 43.7834 22.3901C43.782 22.3108 43.7808 22.2468 43.7862 22.1893C43.7947 22.1 43.819 22.025 43.8812 21.9294L43.9063 21.9457C43.8466 22.0376 43.8241 22.1079 43.8161 22.1921C43.8108 22.248 43.8119 22.3093 43.8134 22.3871ZM43.9881 22.4208C43.9868 22.4511 43.9853 22.4838 43.9837 22.5195L43.9538 22.5181C43.9554 22.483 43.9567 22.4505 43.958 22.4204C43.9643 22.2749 43.9681 22.1855 43.981 22.1221C43.9889 22.0832 44.0003 22.0532 44.0181 22.0255C44.0357 21.9981 44.0591 21.9737 44.0898 21.9453L44.1102 21.9673C44.08 21.9952 44.0588 22.0176 44.0433 22.0418C44.028 22.0657 44.0177 22.092 44.0104 22.128C43.998 22.1889 43.9943 22.2752 43.9881 22.4208ZM44.1744 22.3884C44.1736 22.4071 44.1728 22.4258 44.1712 22.445L44.1413 22.4426C44.1427 22.4256 44.1435 22.4081 44.1443 22.39C44.146 22.3506 44.1478 22.3084 44.1568 22.2628C44.1701 22.1949 44.1991 22.118 44.2658 22.0227L44.2904 22.0399C44.2259 22.1321 44.1986 22.2052 44.1862 22.2686C44.1777 22.312 44.176 22.3503 44.1744 22.3884ZM48.6532 29.0685C48.4899 28.5826 48.3193 28.0751 48.128 27.7769L48.1532 27.7607C48.3467 28.0621 48.5183 28.5728 48.6808 29.0567C48.6887 29.0802 48.6966 29.1036 48.7044 29.1269C48.7894 29.3795 48.8722 29.6219 48.9547 29.821C49.0375 30.0208 49.1191 30.1744 49.2009 30.2516L49.1803 30.2735C49.0933 30.1913 49.0097 30.032 48.927 29.8325C48.844 29.6323 48.7609 29.3889 48.676 29.1365C48.6684 29.1139 48.6608 29.0912 48.6532 29.0685ZM47.5354 30.2777C47.6191 29.9429 47.6194 29.4671 47.5259 28.9433L47.5554 28.938C47.6494 29.4643 47.6496 29.9447 47.5645 30.2849L47.5354 30.2777ZM48.4754 29.7329C48.4908 29.8302 48.4931 29.9343 48.4931 30.0188H48.4631C48.4631 29.9346 48.4608 29.8324 48.4457 29.7376C48.4306 29.6422 48.403 29.5568 48.3546 29.5039L48.3767 29.4837C48.4313 29.5433 48.46 29.6361 48.4754 29.7329ZM47.323 30.4001C47.3177 30.3552 47.313 30.315 47.3101 30.2827L47.3399 30.2799C47.3428 30.311 47.3474 30.3503 47.3526 30.3946C47.3644 30.4954 47.3793 30.6223 47.3833 30.739C47.3863 30.8231 47.3837 30.9034 47.37 30.9661C47.3565 31.0275 47.3308 31.0783 47.2823 31.0926L47.2739 31.0638C47.3051 31.0546 47.3275 31.0198 47.3407 30.9597C47.3536 30.9008 47.3563 30.8235 47.3534 30.74C47.3493 30.6246 47.3347 30.5004 47.323 30.4001ZM49.044 31.7674C49.0437 31.7671 49.0427 31.7663 49.0406 31.7663V31.7963C49.0269 31.7963 49.0189 31.7858 49.015 31.7765C49.011 31.7669 49.0092 31.7541 49.0092 31.7391C49.0092 31.7088 49.0167 31.6649 49.0358 31.6078L49.0642 31.6173C49.0458 31.6727 49.0392 31.7132 49.0392 31.7391C49.0392 31.7522 49.0409 31.7606 49.0427 31.765C49.0438 31.7676 49.0444 31.7678 49.044 31.7674ZM48.8833 31.7901C48.8844 31.8205 48.8951 31.8371 48.9067 31.8429L48.8933 31.8697C48.8674 31.8568 48.8546 31.8265 48.8534 31.7912C48.8521 31.7553 48.8623 31.7106 48.8866 31.6621L48.9134 31.6755C48.8908 31.7208 48.8823 31.7604 48.8833 31.7901ZM48.7213 31.8826C48.7227 31.8992 48.7269 31.9069 48.7309 31.9099L48.7129 31.9339C48.6981 31.9229 48.6929 31.9036 48.6914 31.8851C48.6898 31.8658 48.6917 31.8428 48.6953 31.8189C48.7006 31.7838 48.7098 31.7446 48.7179 31.7098C48.7208 31.6975 48.7236 31.6857 48.726 31.6749L48.7553 31.6814C48.7527 31.693 48.7498 31.7052 48.7469 31.7178C48.7388 31.7523 48.7301 31.7896 48.725 31.8234C48.7215 31.8464 48.72 31.8667 48.7213 31.8826ZM48.5254 31.957C48.5259 31.9579 48.5262 31.9582 48.5262 31.9582L48.505 31.9794C48.5004 31.9748 48.4974 31.9688 48.4954 31.963C48.4932 31.9569 48.4917 31.9499 48.4906 31.9423C48.4886 31.927 48.4883 31.908 48.4901 31.8867C48.4938 31.844 48.5059 31.7908 48.5301 31.7376L48.5574 31.75C48.5347 31.7999 48.5234 31.8498 48.52 31.8892C48.5183 31.9089 48.5187 31.9257 48.5204 31.9382C48.5212 31.9445 48.5224 31.9494 48.5237 31.953C48.5243 31.9548 48.5249 31.9561 48.5254 31.957Z" fill="black"/>
<path d="M46.9219 14.3156C46.9969 14.4094 47.0813 14.4094 47.0906 14.4656C47.1094 14.5406 47.1188 14.5406 47.1281 14.5594C47.1469 14.5781 47.0906 14.5781 47.0719 14.5594H46.9406C46.9031 14.5594 46.8656 14.5125 46.8844 14.5125C46.9125 14.5031 46.9125 14.4938 46.9031 14.475C46.9031 14.4469 46.9219 14.4188 46.9406 14.4094L46.9313 14.3813C46.9125 14.3531 46.9031 14.2875 46.9219 14.3063V14.3156ZM46.9688 14.2125C47.0876 14.2295 47.1987 14.2818 47.2875 14.3625C47.3531 14.4375 47.2969 14.4188 47.2688 14.4188C47.2406 14.4188 47.175 14.4 47.1375 14.3625C47.0883 14.3109 47.0271 14.2722 46.9594 14.25C46.9313 14.25 46.9031 14.2125 46.9594 14.2125H46.9688Z" fill="black"/>
<path d="M0 0H30V22.5H0V0Z" fill="#012169"/>
<path d="M3.51562 0L14.9531 8.48438L26.3438 0H30V2.90625L18.75 11.2969L30 19.6406V22.5H26.25L15 14.1094L3.79688 22.5H0V19.6875L11.2031 11.3438L0 3V0H3.51562Z" fill="white"/>
<path d="M19.875 13.1719L30 20.625V22.5L17.2969 13.1719H19.875ZM11.25 14.1094L11.5312 15.75L2.53125 22.5H0L11.25 14.1094ZM30 0V0.140625L18.3281 8.95312L18.4219 6.89062L27.6562 0H30ZM0 0L11.2031 8.25H8.39062L0 1.96875V0Z" fill="#C8102E"/>
<path d="M11.2969 0V22.5H18.7969V0H11.2969ZM0 7.5V15H30V7.5H0Z" fill="white"/>
<path d="M0 9.04688V13.5469H30V9.04688H0ZM12.7969 0V22.5H17.2969V0H12.7969Z" fill="#C8102E"/>
</g>
<defs>
<clipPath id="clip0_4_5616">
<rect width="60" height="45" fill="white"/>
</clipPath>
</defs>
</svg>
