<svg width="60" height="45" viewBox="0 0 60 45" fill="none" xmlns="http://www.w3.org/2000/svg">
<g clip-path="url(#clip0_4_5541)">
<path d="M0 0H60V45H0V0Z" fill="white"/>
<path fill-rule="evenodd" clip-rule="evenodd" d="M0.571289 44.4287H33.8643L12.0762 22.333L34.6904 22.3594L0.580078 0.571289V44.4287H0.571289Z" fill="#CE0000"/>
<path fill-rule="evenodd" clip-rule="evenodd" d="M-0.0263672 -0.535645L36.7702 22.9683L13.5275 22.9412L35.314 45.0352H0.571289V44.4288H-0.0263672V-0.535645ZM1.18652 43.8223H32.4146L10.6248 21.7249L32.6106 21.7505L1.18652 1.6783V43.8223Z" fill="#000063"/>
<path fill-rule="evenodd" clip-rule="evenodd" d="M15.8818 32.6777L13.5088 33.4687L15.3721 35.209L12.8672 35.0508L13.8955 37.3535L11.6543 36.2725L11.6982 38.7861L10.0459 36.9492L9.10547 39.2871L8.29688 36.9756L6.5127 38.7861L6.6709 36.3516L4.30664 37.3535L5.41406 35.1562L2.83887 35.209L4.72852 33.6006L2.3291 32.6777L4.70215 31.8867L2.83008 30.1465L5.32617 30.3047L4.30664 28.002L6.55664 29.083L6.5127 26.5693L8.16504 28.4063L9.10547 26.0684L9.90527 28.3799L11.6982 26.5693L11.5312 29.0039L13.9043 28.002L12.7881 30.1992L15.3721 30.1465L13.4824 31.7549L15.8818 32.6777ZM13.0342 16.4443L12.041 17.1826L12.5332 17.5869C13.6882 16.7801 14.6172 15.6908 15.2314 14.4229C15.3896 16.2949 13.6758 20.4873 9.19336 20.5313C8.37408 20.5417 7.56084 20.3898 6.80058 20.0843C6.04032 19.7788 5.34809 19.3257 4.76384 18.7513C4.17959 18.1769 3.71489 17.4924 3.39657 16.7374C3.07824 15.9824 2.91259 15.1719 2.90918 14.3525C3.78809 15.9521 4.33301 16.7256 5.72168 17.5605L6.13477 17.1738L5.20312 16.3916L6.40723 16.0752L5.75684 14.9854L7.02246 15.0732L6.86426 13.8076L7.97168 14.458L8.32324 13.2715L9.11426 14.2207L9.86133 13.3154L10.2656 14.5459L11.3027 13.8252L11.1709 15.082L12.4189 14.9326L11.8301 16.0928L13.0342 16.4443V16.4443Z" fill="white"/>
</g>
<defs>
<clipPath id="clip0_4_5541">
<rect width="60" height="45" fill="white"/>
</clipPath>
</defs>
</svg>
