<svg width="60" height="45" viewBox="0 0 60 45" fill="none" xmlns="http://www.w3.org/2000/svg">
<g clip-path="url(#clip0_4_5960)">
<path d="M0 0H60V45H0V0Z" fill="#009543"/>
<path d="M0 0H60V30H0V0Z" fill="#ED4135"/>
<path d="M0 0H60V15H0V0Z" fill="#0035AD"/>
<path d="M22.5 37.2469C30.6445 37.2469 37.2469 30.6445 37.2469 22.5C37.2469 14.3556 30.6445 7.75317 22.5 7.75317C14.3555 7.75317 7.75312 14.3556 7.75312 22.5C7.75312 30.6445 14.3555 37.2469 22.5 37.2469Z" fill="#FAE600"/>
<path fill-rule="evenodd" clip-rule="evenodd" d="M22.5 8.00151C14.4927 8.00151 8.00156 14.4927 8.00156 22.5C8.00156 30.5072 14.4927 36.9984 22.5 36.9984C30.5073 36.9984 36.9984 30.5072 36.9984 22.5C36.9984 14.4927 30.5073 8.00151 22.5 8.00151ZM7.50469 22.5C7.50469 14.2183 14.2183 7.50464 22.5 7.50464C30.7817 7.50464 37.4953 14.2183 37.4953 22.5C37.4953 30.7816 30.7817 37.4953 22.5 37.4953C14.2183 37.4953 7.50469 30.7816 7.50469 22.5Z" fill="black"/>
<path d="M19.9969 24.7032H24.9938ZM19.9969 21H24.9938ZM22.5 7.80005V33Z" fill="black"/>
<path fill-rule="evenodd" clip-rule="evenodd" d="M22.2 20.7V7.80005H22.8V20.7H24.9938V21.3H22.8V24.4032H24.9938V25.0032H22.8V33H22.2V25.0032H19.9969V24.4032H22.2V21.3H19.9969V20.7H22.2Z" fill="black"/>
<path d="M16.5563 36.0375C22.575 38.5031 28.2188 36.1968 28.2188 36.1968C28.2188 36.1968 26.0906 33.8906 25.0031 32.9906C23.9344 32.1093 20.8031 32.1468 19.7344 32.9906C18.6268 33.9547 17.5662 34.9715 16.5563 36.0375V36.0375Z" fill="black"/>
<path d="M22.5 31.6969C23.4113 31.6969 24.15 30.6223 24.15 29.2969C24.15 27.9714 23.4113 26.8969 22.5 26.8969C21.5887 26.8969 20.85 27.9714 20.85 29.2969C20.85 30.6223 21.5887 31.6969 22.5 31.6969Z" fill="black"/>
<path d="M22.5 24.1126C23.6028 24.1126 24.4969 23.5459 24.4969 22.8469C24.4969 22.1479 23.6028 21.5813 22.5 21.5813C21.3972 21.5813 20.5031 22.1479 20.5031 22.8469C20.5031 23.5459 21.3972 24.1126 22.5 24.1126Z" fill="black"/>
<path d="M22.5 18.9938C23.6028 18.9938 24.4969 18.0997 24.4969 16.9969C24.4969 15.894 23.6028 15 22.5 15C21.3972 15 20.5031 15.894 20.5031 16.9969C20.5031 18.0997 21.3972 18.9938 22.5 18.9938Z" fill="black"/>
<path d="M24.9 9.55308C24.9 9.55308 25.0687 9.83433 24.7125 10.4906C22.9687 13.6312 21.2156 13.6968 20.8875 13.9687C20.5125 14.2687 20.3625 14.25 20.3625 14.25C20.3906 13.9781 20.4094 12.8812 20.4281 12.7781C20.7 11.3062 22.9125 11.325 24.6469 9.82495C24.9187 9.59058 24.9 9.5437 24.9 9.5437V9.55308ZM19.05 16.3031C19.05 16.3031 19.4531 17.4281 19.5 18.5531C19.5937 20.3531 21.3187 20.4 22.5 20.4V19.3968C21.6094 19.3968 20.8406 19.2656 20.2031 17.9531C19.8677 17.3704 19.4819 16.8183 19.05 16.3031V16.3031ZM19.0031 30.7968C19.0031 30.7968 19.6312 30.0187 20.3719 28.1999C20.7469 27.2531 21.6656 26.6999 22.5 26.6999V25.2937C20.5969 25.2937 19.6875 25.9968 19.5937 27.0375C19.4744 28.3015 19.2772 29.5571 19.0031 30.7968V30.7968Z" fill="black"/>
<path d="M25.95 16.3031C25.95 16.3031 25.5469 17.4281 25.5 18.5531C25.4062 20.3531 23.6813 20.4 22.5 20.4V19.4062C23.3906 19.4062 24.1594 19.275 24.7969 17.9531C25.1344 17.3719 25.5187 16.8187 25.95 16.3031ZM25.9969 30.8062C25.9969 30.8062 25.3688 30.0187 24.6281 28.2C24.2531 27.2531 23.3344 26.7 22.5 26.7V25.3125C24.4031 25.3125 25.3125 26.0156 25.4062 27.0562C25.5259 28.3172 25.7232 29.5695 25.9969 30.8062V30.8062Z" fill="black"/>
</g>
<defs>
<clipPath id="clip0_4_5960">
<rect width="60" height="45" fill="white"/>
</clipPath>
</defs>
</svg>
