<svg width="60" height="45" viewBox="0 0 60 45" fill="none" xmlns="http://www.w3.org/2000/svg">
<g clip-path="url(#clip0_4_4253)">
<path d="M0 0H60V45H0V0Z" fill="#0067C6"/>
<path d="M0 15H60V30H0V15Z" fill="white"/>
<path d="M23.25 22.4531L24 22.5V22.3875L23.7188 22.3688L23.7375 22.0125L24.0469 21.7875L24.0563 21.6469L23.7281 21.8812C23.7188 21.8062 23.6719 21.7219 23.5969 21.6937C23.5219 21.675 23.4469 21.675 23.3812 21.7219C23.3062 21.7781 23.2875 21.8719 23.2875 21.9562L23.25 22.4531V22.4531ZM23.3625 22.35L23.3906 21.975C23.4 21.9187 23.4094 21.8438 23.4656 21.8063C23.4775 21.7983 23.4911 21.7932 23.5052 21.7912C23.5194 21.7893 23.5339 21.7907 23.5474 21.7952C23.561 21.7997 23.5734 21.8073 23.5836 21.8173C23.5938 21.8274 23.6015 21.8396 23.6063 21.8531C23.6438 21.9469 23.625 22.05 23.6156 22.1531L23.6063 22.3594L23.3625 22.35V22.35ZM23.3438 21.3L24.075 21.4688L24.2438 20.7562C24.2094 20.7501 24.175 20.7438 24.1406 20.7375L24 21.3375L23.775 21.2906L23.9062 20.7469L23.8031 20.7188L23.6719 21.2625L23.4844 21.2156L23.6156 20.6344L23.5031 20.6156L23.3438 21.3V21.3ZM23.6063 20.3156L24.3187 20.5687L24.3562 20.4656L24.075 20.3719L24.1875 20.0438C24.2063 19.95 24.225 19.8563 24.1781 19.7625C24.1563 19.7334 24.128 19.7098 24.0954 19.6935C24.0629 19.6772 24.027 19.6688 23.9906 19.6688C23.8969 19.6688 23.8406 19.7344 23.8031 19.8094C23.7469 19.9031 23.7094 20.0156 23.6813 20.1281L23.6063 20.3156V20.3156ZM23.7469 20.25L23.8594 19.9313C23.8875 19.875 23.9156 19.8094 23.9813 19.7906C23.9943 19.7879 24.0077 19.788 24.0207 19.7909C24.0337 19.7938 24.0459 19.7994 24.0565 19.8074C24.0672 19.8154 24.076 19.8256 24.0824 19.8372C24.0888 19.8489 24.0927 19.8617 24.0938 19.875C24.1125 19.9688 24.0656 20.0625 24.0375 20.1562L23.9719 20.3344L23.7469 20.25V20.25ZM24 19.4062L24.4031 19.65C24.4781 19.6875 24.5719 19.7063 24.6562 19.6688C24.7579 19.5998 24.8363 19.5018 24.8812 19.3875C24.9187 19.2938 24.9563 19.1813 24.9 19.0875C24.8438 18.9938 24.7406 18.9563 24.6469 18.9L24.3938 18.75L24.3375 18.8438L24.7125 19.0687C24.7781 19.1062 24.825 19.1625 24.8156 19.2469C24.7969 19.3327 24.7584 19.413 24.7031 19.4813C24.6656 19.5375 24.5906 19.5844 24.5156 19.575C24.4406 19.5563 24.375 19.5 24.3094 19.4625L24.0563 19.3219L24 19.4156V19.4062ZM24.5437 18.5344L25.1344 18.9844L25.4156 18.6281C25.4719 18.5437 25.5094 18.4406 25.4812 18.3469C25.4638 18.3108 25.4374 18.2798 25.4046 18.2568C25.3718 18.2338 25.3336 18.2197 25.2937 18.2156C25.2469 18.2156 25.2 18.2437 25.1813 18.2531C25.2 18.1687 25.1344 18.0938 25.0687 18.075C24.975 18.0469 24.8812 18.1031 24.825 18.1688L24.6375 18.4031L24.5437 18.5344ZM24.6937 18.5062C24.7594 18.4125 24.825 18.3188 24.9 18.2438C24.9375 18.2063 24.9938 18.15 25.0406 18.1875C25.0875 18.2063 25.1063 18.2719 25.0781 18.3094C25.0406 18.3938 24.9844 18.45 24.9281 18.525L24.8531 18.6281L24.6937 18.5062V18.5062ZM24.9375 18.6937L25.1531 18.4125C25.1906 18.375 25.2469 18.3188 25.3031 18.3375C25.3594 18.3469 25.3969 18.4031 25.3781 18.4594C25.35 18.5531 25.275 18.6281 25.2094 18.7125L25.1156 18.8344L24.9281 18.6937H24.9375ZM25.2188 17.7375L25.7344 18.2812L26.175 17.8594L26.1 17.7844L25.7438 18.1219H25.7344L25.2937 17.6531L25.2188 17.7375ZM25.875 17.1562L26.3344 17.7469L26.4281 17.6813L25.9594 17.0906L25.875 17.1562ZM26.55 16.6969C26.4767 16.7399 26.4129 16.7973 26.3625 16.8656C26.3199 16.922 26.2961 16.9903 26.2944 17.061C26.2927 17.1316 26.3133 17.201 26.3531 17.2594C26.3894 17.319 26.4413 17.3676 26.5031 17.4C26.5607 17.4303 26.6258 17.4433 26.6906 17.4375C26.7809 17.4256 26.8674 17.3935 26.9437 17.3438C27.0218 17.299 27.0865 17.2343 27.1312 17.1562C27.1687 17.0812 27.1781 17.0063 27.1594 16.9313L27.0656 16.9688C27.0844 17.1188 26.9906 17.1937 26.8781 17.25C26.7094 17.3625 26.55 17.3531 26.4469 17.2031C26.3438 17.025 26.4469 16.8844 26.5969 16.7906C26.7 16.725 26.8031 16.6781 26.8969 16.7438L26.9812 16.6688C26.9268 16.6296 26.8608 16.6098 26.7937 16.6125C26.7094 16.6125 26.6344 16.65 26.55 16.7062V16.6969ZM27.4406 16.2562L27.3562 17.1L27.4781 17.0531L27.4969 16.7906L27.8719 16.6406L28.0781 16.8094L28.1906 16.7625L27.5531 16.2094L27.4406 16.2562ZM27.5344 16.35L27.7875 16.5563L27.5062 16.6688L27.5344 16.3406V16.35ZM29.0813 15.7875L29.1281 16.5375L29.5312 16.5187C29.6438 16.5 29.7563 16.4813 29.8219 16.3875C29.9156 16.2938 29.9344 16.1344 29.8875 16.0031C29.8698 15.9461 29.8368 15.8951 29.7922 15.8554C29.7476 15.8158 29.693 15.7891 29.6344 15.7781C29.5219 15.7594 29.4094 15.7781 29.2969 15.7781L29.0813 15.7969V15.7875ZM29.1937 15.8906L29.5219 15.8812C29.5817 15.8785 29.6408 15.8949 29.6906 15.9281C29.7656 15.9844 29.8125 16.0687 29.8031 16.1625C29.799 16.2148 29.7788 16.2646 29.7452 16.3049C29.7116 16.3452 29.6663 16.3741 29.6156 16.3875C29.5594 16.4063 29.4938 16.4063 29.4375 16.4156L29.2312 16.425L29.1937 15.8906V15.8906ZM30.1312 15.75L30.0844 16.5L30.8156 16.5375V16.4344L30.1969 16.3969L30.2063 16.1719L30.7688 16.2V16.0969L30.2156 16.0687L30.225 15.8625L30.825 15.9V15.7875L30.1219 15.75H30.1312ZM32.0813 16.0594L31.8094 16.7625L31.9031 16.8L32.1281 16.2375V16.2188L32.1469 16.2469L32.4094 16.9969L32.5312 17.0438L32.8031 16.3406L32.7094 16.3031L32.4938 16.8656L32.4844 16.8844L32.4656 16.8563L32.2125 16.1063L32.0813 16.0594ZM33.0938 16.5L32.7469 17.1562L32.6531 17.1094L32.9906 16.4437L33.0938 16.5ZM33.6562 16.8281C33.5881 16.7825 33.5117 16.7506 33.4313 16.7344C33.3619 16.7147 33.2881 16.7177 33.2206 16.7431C33.1532 16.7684 33.0956 16.8146 33.0563 16.875C33.02 16.9343 33.0006 17.0024 33 17.0719C33 17.1375 33.0094 17.2031 33.0563 17.2687C33.0938 17.3344 33.15 17.3906 33.2438 17.4562C33.3193 17.5076 33.4061 17.5398 33.4969 17.55C33.5711 17.5521 33.6438 17.5289 33.7031 17.4844L33.6281 17.4C33.4969 17.4938 33.3938 17.4281 33.2906 17.3625C33.1219 17.25 33.0563 17.1 33.1594 16.9406C33.2719 16.7719 33.45 16.8187 33.6 16.9125C33.6937 16.9781 33.7875 17.0531 33.7688 17.1656L33.8625 17.2031C33.8736 17.1392 33.8638 17.0734 33.8344 17.0156C33.7969 16.9406 33.7406 16.8844 33.6562 16.8281V16.8281ZM34.3688 17.3625L33.5906 17.6813L33.6844 17.7656L33.9281 17.6719L34.2375 17.9344L34.1719 18.1875L34.2656 18.2719L34.4625 17.4469L34.3688 17.3625V17.3625ZM34.3406 17.4938L34.2656 17.8125L34.0312 17.625L34.3406 17.4938ZM34.9406 17.8875L34.3594 18.3563L34.425 18.45L34.6594 18.2625L34.8844 18.5438L34.8187 18.9188L34.9031 19.0219L34.9781 18.6281C35.0438 18.675 35.1375 18.7031 35.2125 18.6656C35.2781 18.6281 35.3438 18.5719 35.3438 18.4969C35.3438 18.3938 35.2781 18.3094 35.2219 18.2344L34.9406 17.8875V17.8875ZM34.9219 18.0375L35.1656 18.3375C35.2031 18.3938 35.25 18.4688 35.2031 18.525C35.175 18.5813 35.1 18.5813 35.0531 18.5438C34.9594 18.4781 34.9031 18.3844 34.8281 18.3L34.7344 18.1969L34.9219 18.0375ZM35.8125 19.0781L34.9688 19.1156L35.0344 19.2281L35.2969 19.2188L35.5031 19.575L35.3531 19.7906L35.4187 19.9031L35.8781 19.1906L35.8125 19.0781V19.0781ZM35.7469 19.1906L35.5594 19.4719L35.4187 19.2094L35.7469 19.1906ZM36.3 20.0719C36.2531 19.95 36.1781 19.8187 36.0469 19.7531C35.976 19.7204 35.8963 19.7118 35.8201 19.7287C35.7439 19.7457 35.6753 19.7872 35.625 19.8469C35.5312 19.9406 35.5312 20.0813 35.5594 20.2125C35.5875 20.3531 35.6531 20.4937 35.7469 20.5969L35.6906 20.6156L35.7281 20.7188L36.0844 20.5969L35.9437 20.2125L35.8688 20.2406L35.9625 20.5219L35.85 20.5687C35.7483 20.4739 35.6793 20.3491 35.6531 20.2125C35.625 20.1094 35.625 19.9875 35.7 19.9125C35.7937 19.8187 35.9437 19.7906 36.0469 19.8656C36.15 19.9406 36.2062 20.0625 36.2344 20.1844C36.2625 20.2688 36.2531 20.3625 36.1969 20.4281C36.1781 20.4281 36.1969 20.4563 36.2063 20.4656L36.2344 20.5125C36.2661 20.4882 36.2919 20.457 36.3098 20.4213C36.3277 20.3856 36.3371 20.3462 36.3375 20.3063C36.3394 20.2265 36.3266 20.1471 36.3 20.0719V20.0719ZM36.5156 20.6625L36.0938 20.7375C36.029 20.7469 35.9676 20.7727 35.9156 20.8125C35.875 20.8492 35.8484 20.8989 35.8406 20.9531V21.1781C35.8687 21.2719 35.8969 21.3375 35.9344 21.3937C35.9625 21.45 36 21.4875 36.0469 21.4875C36.1084 21.5034 36.1729 21.5034 36.2344 21.4875L36.6562 21.4125L36.6375 21.3094L36.225 21.3844C36.0375 21.4219 35.9812 21.3281 35.9437 21.1594C35.9156 20.9906 35.9437 20.8781 36.1219 20.85L36.5344 20.7656L36.5156 20.6625V20.6625ZM36.7406 21.9375L35.9625 21.6L35.9719 21.7313L36.2156 21.825L36.2438 22.2375L36.0188 22.3781L36.0281 22.5L36.75 22.0594L36.7406 21.9375V21.9375ZM36.6281 22.0031L36.3469 22.1813L36.3281 21.8812L36.6281 22.0031V22.0031ZM23.8312 23.8781L23.7188 23.9062L23.8406 24.3656L23.9531 24.3375L23.8312 23.8781ZM36.1687 23.8781L36.2812 23.9062L36.1594 24.3656L36.0469 24.3375L36.1687 23.8781ZM24.9938 25.8L24.15 25.8938L24.225 25.9969L24.4875 25.9688L24.7125 26.3063L24.5813 26.5406L24.6562 26.6344L25.0594 25.9031L24.9938 25.8V25.8ZM24.9281 25.9219L24.7688 26.2031L24.6 25.9594L24.9281 25.9219ZM25.3125 26.2594L24.7781 26.7562L24.8531 26.8313L25.3031 26.4094L25.0594 27.0656L25.1531 27.15L25.7906 26.9625L25.35 27.3656L25.425 27.4406L25.9594 26.9437L25.8469 26.8313L25.1906 27.0188L25.4344 26.3906L25.3125 26.2594ZM26.0906 27.0469L25.6406 27.6562L26.2219 28.0875L26.2875 28.0031L25.7906 27.6281L25.9313 27.4406L26.3719 27.7875L26.4375 27.6937L25.9969 27.3656L26.1188 27.2063L26.5875 27.5625L26.6531 27.4688L26.0906 27.0469V27.0469ZM26.8219 27.5906L26.475 28.2469L26.5687 28.3031L26.7094 28.0406L27.0281 28.2094L27.1031 28.5844L27.225 28.65L27.1406 28.2562C27.225 28.2844 27.3281 28.2656 27.375 28.2C27.4219 28.1437 27.4594 28.0781 27.4313 28.0031C27.4125 27.9094 27.3094 27.8531 27.2344 27.8063L26.8219 27.5906V27.5906ZM26.8688 27.7312L27.2063 27.9187C27.2625 27.9562 27.3281 28.0031 27.3187 28.0687C27.3187 28.1344 27.2531 28.1625 27.1969 28.1531C27.0844 28.1344 26.9906 28.0687 26.8969 28.0219L26.7562 27.9469L26.8688 27.7312ZM27.675 28.0312L27.3938 28.725L27.4875 28.7719L27.7688 28.0781L27.675 28.0312ZM28.35 28.2656C28.272 28.2371 28.1892 28.2244 28.1062 28.2281C28.034 28.2293 27.9641 28.2536 27.9067 28.2975C27.8493 28.3414 27.8076 28.4025 27.7875 28.4719C27.7704 28.5364 27.7704 28.6042 27.7875 28.6687C27.7875 28.7437 27.825 28.8 27.8812 28.8562C27.9459 28.9136 28.0229 28.9553 28.1062 28.9781C28.1935 29.0091 28.2875 29.0156 28.3781 28.9969C28.4519 28.9827 28.5183 28.9428 28.5656 28.8844L28.4719 28.8281C28.3781 28.95 28.2563 28.9219 28.1344 28.875C27.9469 28.8094 27.8438 28.6875 27.9 28.5C27.9656 28.3125 28.1531 28.3125 28.3125 28.3594C28.425 28.3969 28.5281 28.4531 28.5375 28.5563L28.65 28.575C28.6448 28.5045 28.615 28.4381 28.5656 28.3875C28.505 28.3296 28.4309 28.2878 28.35 28.2656V28.2656ZM29.1 28.4344L28.6125 29.1188L28.7344 29.1375L28.8844 28.9219L29.2969 28.9875L29.3812 29.2312L29.5031 29.25L29.2219 28.4531L29.1 28.4344ZM29.1469 28.5563L29.2594 28.875L28.9594 28.8281L29.1469 28.5563ZM30.8625 28.4437C30.7688 28.4531 30.7031 28.4812 30.6375 28.5281C30.5755 28.5642 30.5267 28.6191 30.498 28.6849C30.4694 28.7506 30.4624 28.8238 30.4781 28.8938C30.4875 28.9594 30.5156 29.0156 30.5719 29.0813C30.6094 29.1281 30.6656 29.1563 30.7406 29.175C30.8062 29.1938 30.9 29.1938 31.0031 29.175C31.0969 29.1563 31.1906 29.1188 31.2469 29.0625C31.3018 29.0138 31.3383 28.9475 31.35 28.875H31.2375C31.2094 29.025 31.0969 29.0625 30.975 29.0813C30.7781 29.1188 30.6281 29.0531 30.5906 28.8656C30.5531 28.6687 30.7125 28.575 30.8719 28.5375C30.9937 28.5187 31.1063 28.5094 31.1719 28.6031L31.2656 28.5656C31.2304 28.5096 31.1777 28.4667 31.1156 28.4437C31.0326 28.4223 30.9455 28.4223 30.8625 28.4437V28.4437ZM31.3594 28.35L31.575 29.0719L32.2781 28.8656L32.2406 28.7625L31.65 28.9406L31.5844 28.7156L32.1188 28.5563L32.0906 28.4625L31.5563 28.6125L31.5 28.425L32.0625 28.2562L32.0344 28.1531L31.3594 28.35ZM32.175 28.0969L32.4844 28.7812L32.5781 28.7344L32.3156 28.1719L33.0469 28.5H33.0938L33.1875 28.4531L32.8688 27.7688L32.775 27.8156L33.0375 28.3781L32.2875 28.0406L32.175 28.0969V28.0969ZM33 27.7125L33.0563 27.8063L33.3187 27.6188H33.3375L33.6844 28.1531L33.7781 28.0875L33.4313 27.5625V27.5531L33.7031 27.3656L33.6469 27.2812L33 27.7125ZM33.75 27.1875L34.2562 27.75L34.3406 27.6656L34.1438 27.45L34.4062 27.2063L34.7812 27.2625L34.8938 27.1687L34.4906 27.1125C34.5375 27.0469 34.5563 26.9438 34.5094 26.8688C34.4719 26.8031 34.4156 26.7469 34.3313 26.7562C34.2375 26.7562 34.1437 26.8312 34.0781 26.8875L33.75 27.1969V27.1875ZM33.9 27.1969L34.1813 26.9344C34.2375 26.8969 34.3125 26.85 34.3688 26.8875C34.4344 26.9156 34.4344 26.9906 34.3969 27.0375C34.3406 27.1312 34.2562 27.1969 34.1719 27.2812L34.0687 27.375L33.9 27.1875V27.1969ZM34.6219 26.3156L34.9594 27.0938L35.0344 27L34.9406 26.7562L35.1937 26.4375L35.4469 26.4938L35.5312 26.4L34.7063 26.2125L34.6219 26.3156V26.3156ZM34.7531 26.3438L35.0813 26.4094L34.8938 26.6438L34.7531 26.3438ZM34.95 25.8938L35.5781 26.2969L35.9062 25.7906L35.8125 25.7344L35.5594 26.1375L35.55 26.1562H35.5406L35.0062 25.8L34.95 25.8938Z" fill="#C8A400"/>
<path d="M30 16.98L27.6375 21.0675L26.4825 23.07H33.5175L32.415 21.165L30 16.98V16.98Z" fill="white"/>
<path opacity="0.6" d="M29.9999 16.98L29.8199 17.28L29.9999 21.405L30.1799 17.28L29.9999 16.98Z" fill="#17C0EB"/>
<path opacity="0.6" fill-rule="evenodd" clip-rule="evenodd" d="M30 16.9727L30.1838 17.279L30.0037 21.4051H29.9962L29.8162 17.279L30 16.9727ZM29.8238 17.2809L30 21.3189L30.1762 17.2809L30 16.9872L29.8238 17.2809Z" fill="#17C0EB"/>
<path d="M29.9999 20.8125H29.9924L29.9999 21.0375L30.0074 20.8125H29.9999Z" fill="white"/>
<path d="M30 19.9349C29.2011 19.934 28.4287 20.2217 27.825 20.7449L26.73 22.6499C26.6908 22.8551 26.6707 23.0635 26.67 23.2724H27.045C27.0832 22.5155 27.4107 21.8021 27.96 21.2798C28.5093 20.7575 29.2383 20.4663 29.9962 20.4663C30.7542 20.4663 31.4832 20.7575 32.0324 21.2798C32.5817 21.8021 32.9093 22.5155 32.9475 23.2724H33.3225C33.3243 23.0638 33.3067 22.8554 33.27 22.6499L32.175 20.7449C31.5709 20.2223 30.7988 19.9347 30 19.9349Z" fill="#FF0000"/>
<path d="M30 20.0024C29.1524 20.0007 28.3374 20.3288 27.7275 20.9174L26.8275 22.4849C26.7637 22.7401 26.731 23.002 26.73 23.2649H27.0525C27.1057 22.5196 27.4393 21.822 27.9862 21.3127C28.5331 20.8035 29.2527 20.5203 30 20.5203C30.7473 20.5203 31.4668 20.8035 32.0137 21.3127C32.5606 21.822 32.8943 22.5196 32.9475 23.2649H33.27C33.2693 22.9995 33.2366 22.7351 33.1725 22.4774L32.2725 20.9174C31.6626 20.3288 30.8476 20.0007 30 20.0024V20.0024Z" fill="#FF6600"/>
<path d="M30 20.0624C29.5468 20.0612 29.0986 20.1562 28.6849 20.341C28.2711 20.5259 27.9014 20.7965 27.6 21.1349L26.9475 22.2599C26.8435 22.5872 26.7929 22.929 26.7975 23.2724H27.045C27.0831 22.5154 27.4107 21.802 27.96 21.2797C28.5093 20.7575 29.2383 20.4662 29.9962 20.4662C30.7542 20.4662 31.4831 20.7575 32.0324 21.2797C32.5817 21.802 32.9093 22.5154 32.9475 23.2724H33.21C33.21 22.9199 33.15 22.5824 33.0525 22.2674L32.3925 21.1349C32.0922 20.7971 31.7237 20.5268 31.3113 20.3419C30.8989 20.157 30.4519 20.0618 30 20.0624V20.0624Z" fill="#FFFF00"/>
<path d="M30 20.1225C29.4827 20.1222 28.9733 20.2493 28.5168 20.4926C28.0603 20.7359 27.6707 21.0879 27.3825 21.5175L27.1725 21.885C26.9599 22.3166 26.8496 22.7914 26.85 23.2725H27.0525C27.1057 22.5271 27.4393 21.8295 27.9862 21.3203C28.5331 20.811 29.2527 20.5279 30 20.5279C30.7473 20.5279 31.4668 20.811 32.0137 21.3203C32.5606 21.8295 32.8943 22.5271 32.9475 23.2725H33.15C33.1504 22.7914 33.04 22.3166 32.8275 21.885L32.6175 21.51C32.3293 21.0804 31.9397 20.7284 31.4832 20.4851C31.0267 20.2418 30.5173 20.1147 30 20.115V20.1225Z" fill="#00FF00"/>
<path d="M30 20.1749C29.5936 20.1749 29.1911 20.2551 28.8158 20.4109C28.4404 20.5666 28.0994 20.7949 27.8124 21.0826C27.5253 21.3703 27.2979 21.7119 27.143 22.0876C26.9882 22.4634 26.909 22.866 26.91 23.2724H27.0525C27.1057 22.527 27.4393 21.8295 27.9862 21.3202C28.5331 20.811 29.2527 20.5278 30 20.5278C30.7473 20.5278 31.4668 20.811 32.0137 21.3202C32.5606 21.8295 32.8943 22.527 32.9475 23.2724H33.09C33.091 22.866 33.0118 22.4634 32.8569 22.0876C32.7021 21.7119 32.4746 21.3703 32.1876 21.0826C31.9006 20.7949 31.5596 20.5666 31.1842 20.4109C30.8088 20.2551 30.4064 20.1749 30 20.1749V20.1749Z" fill="#00CCFF"/>
<path d="M30 20.235C29.1964 20.235 28.4257 20.5542 27.8574 21.1225C27.2892 21.6907 26.97 22.4614 26.97 23.265H27.075C27.075 22.4892 27.3831 21.7452 27.9317 21.1967C28.4802 20.6482 29.2242 20.34 30 20.34C30.7757 20.34 31.5197 20.6482 32.0683 21.1967C32.6168 21.7452 32.925 22.4892 32.925 23.265H33.03C33.026 22.464 32.705 21.6971 32.1372 21.1321C31.5694 20.5671 30.801 20.25 30 20.25V20.235Z" fill="#0000FF"/>
<path d="M29.9999 20.3024C29.6055 20.3024 29.2149 20.3809 28.8511 20.5334C28.4873 20.6859 28.1575 20.9094 27.8811 21.1908C27.6046 21.4722 27.3869 21.8058 27.2408 22.1722C27.0946 22.5386 27.023 22.9305 27.0299 23.3249H27.0899V23.2649C27.0979 22.4931 27.4121 21.7561 27.9635 21.216C28.5148 20.6759 29.2582 20.377 30.0299 20.3849C30.8017 20.3929 31.5387 20.7071 32.0788 21.2585C32.6189 21.8098 32.9179 22.5531 32.9099 23.3249H32.9699V23.2649C32.9699 22.8749 32.8931 22.4887 32.7439 22.1284C32.5946 21.768 32.3758 21.4406 32.1001 21.1648C31.8243 20.889 31.4968 20.6703 31.1365 20.521C30.7762 20.3717 30.39 20.2949 29.9999 20.2949V20.3024Z" fill="#800080"/>
<path d="M30.03 21.6075C29.9775 21.6075 29.94 21.57 29.895 21.5625C29.8731 21.5818 29.8567 21.6065 29.8475 21.6342C29.8382 21.6618 29.8365 21.6915 29.8425 21.72C29.865 21.7275 29.865 21.75 29.91 21.7875C29.955 21.825 29.9475 21.84 29.94 21.9375C29.94 21.9675 29.9475 22.05 29.985 22.0575C30.0225 22.065 30.06 22.035 30.0675 21.9675C30.075 21.915 30.0975 21.8775 30.12 21.8475C30.1425 21.705 30.105 21.6525 30.03 21.6075Z" fill="#510000"/>
<path d="M29.79 21.2625C29.745 21.2625 29.67 21.3375 29.64 21.3C29.625 21.2775 29.6175 21.2325 29.64 21.195C29.6738 21.1204 29.732 21.0596 29.805 21.0225C29.9775 20.9175 30.0975 20.9475 30.18 21.0975C30.2625 21.2325 30.345 21.3825 30.3525 21.5025C30.3525 21.54 30.375 21.6075 30.3375 21.645C30.24 21.75 29.9925 21.5325 29.85 21.57C29.805 21.5775 29.745 21.615 29.7 21.585C29.67 21.5625 29.7 21.51 29.7225 21.4875C29.7675 21.45 29.835 21.3075 29.8275 21.2475C29.8275 21.2175 29.8275 21.2625 29.79 21.2625V21.2625Z" fill="#FF0000"/>
<path d="M29.775 21.1949C29.685 21.2249 29.7 21.2699 29.655 21.3074C29.67 21.3149 29.7149 21.3299 29.7599 21.2849C29.7749 21.2699 29.7975 21.2624 29.8125 21.2624L29.7599 21.3149C29.7154 21.3516 29.6795 21.3977 29.655 21.4499C29.6325 21.5099 29.625 21.5774 29.6325 21.5849C29.6325 21.5849 29.6625 21.6449 29.745 21.6749C29.895 21.7349 29.925 21.8624 30.0825 21.8624C30.2025 21.8624 30.1874 21.7799 30.2849 21.7949C30.3599 21.8099 30.4125 21.7424 30.33 21.7049C30.1962 21.6787 30.0587 21.6787 29.925 21.7049C29.895 21.4049 29.925 21.5099 29.9175 21.3749C29.91 21.2474 29.865 21.2399 29.9175 21.1274C29.88 21.2024 29.8275 21.1874 29.7675 21.1874L29.775 21.1949Z" fill="url(#paint0_linear_4_4253)"/>
<path d="M30.075 20.985L30.0675 21.03L30.09 21.105L30.105 21.18C30.105 21.2025 30.135 21.21 30.1575 21.225C30.1875 21.2475 30.1575 21.3 30.18 21.3075C30.195 21.3075 30.2175 21.2325 30.2175 21.2175V21.165C30.2058 21.1421 30.1933 21.1196 30.18 21.0975C30.1754 21.0897 30.1704 21.0822 30.165 21.075C30.1484 21.0497 30.1281 21.027 30.105 21.0075C30.0977 21.0022 30.0902 20.9971 30.0825 20.9925L30.0675 20.985H30.075Z" fill="#FF2A2A"/>
<path d="M30.0975 21.555L29.9475 21.5025C29.85 21.4725 29.7525 21.4125 29.685 21.4425C29.6625 21.45 29.6625 21.4725 29.655 21.51C29.655 21.5475 29.6175 21.6075 29.655 21.585C29.7 21.555 29.835 21.645 29.88 21.6675C29.9025 21.6825 29.955 21.7125 29.9625 21.7425C29.9775 21.7875 29.9625 21.8775 29.9625 21.9225C29.9625 21.96 29.9775 22.0575 30.015 22.0725C30.06 22.08 30.0975 22.0425 30.1125 21.975C30.135 21.9075 30.1425 21.87 30.1725 21.8325C30.2025 21.795 30.2325 21.7725 30.27 21.765C30.315 21.765 30.375 21.8025 30.375 21.75C30.375 21.72 30.345 21.69 30.36 21.645C30.3675 21.6075 30.33 21.615 30.2925 21.6L30.09 21.555H30.0975Z" fill="url(#paint1_linear_4_4253)"/>
<path d="M29.88 21.6674C29.85 21.6524 29.7075 21.5549 29.655 21.5924C29.6325 21.5924 29.625 21.5924 29.625 21.5699L29.64 21.5024C29.64 21.4799 29.655 21.4424 29.6775 21.4274C29.73 21.3824 29.85 21.4649 29.91 21.4874L29.88 21.6674V21.6674Z" fill="#910000"/>
<path d="M30.135 21.8549C30.2025 21.7349 30.2475 21.7499 30.33 21.7499C30.36 21.7499 30.3675 21.7274 30.36 21.6974C30.3375 21.7424 30.2325 21.6974 30.1725 21.7199C30.06 21.7724 30.0825 21.9974 30.0225 22.0199C30.0825 22.0724 30.105 21.8924 30.135 21.8549V21.8549Z" fill="#FF3A3A"/>
<path d="M26.4825 23.0699L25.7325 24.3674H34.275L33.525 23.0774H26.49L26.4825 23.0699Z" fill="white"/>
<path d="M26.2275 24.105C26.1096 24.1048 25.9918 24.1123 25.875 24.1275L25.8375 24.195C26.0175 24.1725 26.19 24.1425 26.3775 24.1425C26.6175 24.1425 26.8425 24.2025 27.105 24.2025H27.45C27.7125 24.2025 27.93 24.1425 28.1775 24.1425C28.425 24.1425 28.65 24.2025 28.9125 24.2025H29.2575C29.52 24.2025 29.7375 24.1425 29.985 24.1425C30.2325 24.1425 30.4575 24.2025 30.72 24.2025H31.0575C31.32 24.2025 31.545 24.1425 31.7925 24.1425C32.04 24.1425 32.265 24.2025 32.5275 24.2025H32.865C33.1275 24.2025 33.3525 24.1425 33.6 24.1425C33.795 24.1425 33.975 24.18 34.1625 24.195L34.125 24.12C34.0153 24.1086 33.9052 24.1036 33.795 24.105H33.4575C33.195 24.105 32.97 24.1575 32.7225 24.165C32.475 24.165 32.25 24.105 31.9875 24.105H31.65C31.3875 24.105 31.1625 24.1575 30.915 24.165C30.6675 24.165 30.4425 24.105 30.18 24.105H29.85C29.5875 24.105 29.3625 24.1575 29.115 24.165C28.8675 24.165 28.6425 24.105 28.38 24.105H28.0425C27.78 24.105 27.555 24.1575 27.3075 24.165C27.06 24.165 26.8425 24.105 26.58 24.105H26.235H26.2275Z" fill="url(#paint2_linear_4_4253)"/>
<path d="M26.49 23.0625V23.0775H33.5175L33.51 23.0625H26.49V23.0625ZM26.475 23.085L26.4675 23.1075H33.525L33.5175 23.085H26.4675H26.475ZM26.46 23.115L26.445 23.1375H33.555L33.54 23.115H26.46V23.115ZM26.4375 23.1525L26.415 23.19H33.585L33.5625 23.1525H26.4375ZM26.4075 23.205L26.385 23.2425H33.615L33.5925 23.205H26.4075V23.205ZM26.3775 23.2575L26.3625 23.2875H33.6375L33.6225 23.2575H26.3775V23.2575ZM26.3475 23.31L26.3325 23.34H33.675L33.6525 23.31H26.3475ZM26.3175 23.3625L26.295 23.4075H33.705L33.6825 23.3625H26.325H26.3175Z" fill="url(#paint3_linear_4_4253)"/>
<path d="M26.805 23.4225C27.06 23.475 27.0825 23.4225 27.0825 23.4225H26.805ZM32.9175 23.4225C32.9175 23.4225 32.94 23.475 33.195 23.4225H32.9175Z" fill="url(#paint4_linear_4_4253)"/>
<path d="M32.295 22.2749C32.1675 22.2749 32.13 22.3424 32.13 22.3424C31.9275 23.1374 31.245 23.9399 30.435 23.9399H29.835V24.7499H34.44L33.975 23.9249C33.2475 23.8199 32.655 23.0774 32.4675 22.3424C32.4675 22.3424 32.4225 22.2749 32.295 22.2749V22.2749Z" fill="url(#paint5_linear_4_4253)"/>
<path d="M32.295 22.3124C32.235 22.3124 32.205 22.3199 32.1825 22.3349L32.16 22.3574C32.0475 22.7727 31.8306 23.1522 31.53 23.4599C31.23 23.7674 30.855 23.9774 30.435 23.9774H29.8575V24.7199H34.425L33.9975 23.9699C33.645 23.9174 33.3225 23.7299 33.0675 23.4599C32.7668 23.1522 32.5499 22.7727 32.4375 22.3574L32.415 22.3349C32.3781 22.3157 32.3363 22.3079 32.295 22.3124V22.3124Z" fill="#97C924"/>
<path d="M32.295 22.3124H32.325V23.1224C32.3178 23.2927 32.2661 23.4582 32.175 23.6024C32.1375 23.7224 32.1 23.6774 32.0025 23.8199C31.876 23.8635 31.7453 23.8937 31.6125 23.9099C31.425 23.9399 31.0125 23.9699 30.795 23.9174C31.0741 23.832 31.327 23.6771 31.53 23.4674C31.5858 23.4077 31.6384 23.3451 31.6875 23.2799C31.7711 23.176 31.8463 23.0656 31.9125 22.9499L31.9875 22.7999C32.0234 22.7289 32.0559 22.6564 32.085 22.5824C32.1139 22.5088 32.139 22.4337 32.16 22.3574L32.1825 22.3349L32.2275 22.3199L32.3025 22.3124H32.295Z" fill="#EDE71F"/>
<path d="M32.25 22.4174C32.2125 22.8674 32.0775 23.4074 31.7475 23.7524C31.6275 23.8499 31.47 23.9474 31.3275 23.9249C31.83 23.5124 32.1375 22.8749 32.2425 22.4174H32.25Z" fill="#C6CB24"/>
<path d="M31.8375 23.1974C31.7625 23.3999 31.4775 23.6999 31.1775 23.9474H30.96C31.1475 23.9324 31.5825 23.5724 31.8375 23.1974V23.1974Z" fill="#9ECB34"/>
<path d="M30.165 22.3498C30.375 23.1373 31.05 23.9398 31.86 23.9398H32.4675V24.7498H27.5325V23.9398H28.1325C28.9425 23.9398 29.625 23.1373 29.8275 22.3423C29.8275 22.3423 29.8725 22.2823 30 22.2823C30.1275 22.2823 30.165 22.3423 30.165 22.3423V22.3498Z" fill="url(#paint6_linear_4_4253)"/>
<path d="M30 22.3123C30.06 22.3123 30.09 22.3273 30.1125 22.3348L30.135 22.3573C30.2474 22.7726 30.4643 23.1521 30.765 23.4598C31.065 23.7673 31.44 23.9773 31.86 23.9773H32.4375V24.7198H27.5625V23.9698H28.14C28.5525 23.9698 28.935 23.7673 29.235 23.4598C29.5329 23.1513 29.7472 22.7718 29.8575 22.3573L29.88 22.3348C29.9172 22.3164 29.9587 22.3086 30 22.3123V22.3123Z" fill="#97C924"/>
<path d="M29.9475 22.3124C29.94 22.3121 29.9325 22.3121 29.925 22.3124L29.88 22.3349L29.8575 22.3574C29.8366 22.4337 29.8116 22.5088 29.7825 22.5824C29.7561 22.6588 29.726 22.7338 29.6925 22.8074C29.669 22.8557 29.644 22.9032 29.6175 22.9499C29.5513 23.0657 29.4761 23.176 29.3925 23.2799C29.3432 23.3426 29.2906 23.4027 29.235 23.4599C29.0329 23.6724 28.7799 23.8298 28.5 23.9174C28.71 23.9699 28.8 23.9174 28.9875 23.8874C29.1375 23.8649 29.3025 23.8424 29.4375 23.7974C29.55 23.6474 29.5125 23.6999 29.55 23.5799C29.64 23.4149 29.775 23.2649 29.805 23.0774C29.925 22.8524 29.9475 22.4324 29.9475 22.3124V22.3124Z" fill="#EDE71F"/>
<path d="M29.9475 22.4174C29.9175 22.8674 29.775 23.4074 29.445 23.7524C29.325 23.8499 29.175 23.9474 29.025 23.9249C29.535 23.5124 29.8425 22.8749 29.9475 22.4174Z" fill="#C6CB24"/>
<path d="M29.535 23.1974C29.3719 23.4923 29.1467 23.7482 28.875 23.9474H28.665C28.8525 23.9324 29.28 23.5724 29.535 23.1974Z" fill="#9ECB34"/>
<path d="M30.075 22.3198L30.1125 22.3348L30.1425 22.3573C30.1638 22.4335 30.1888 22.5086 30.2175 22.5823C30.2439 22.6587 30.2739 22.7338 30.3075 22.8073L30.3825 22.9498C30.4486 23.0656 30.5239 23.1759 30.6075 23.2798C30.6568 23.3425 30.7094 23.4026 30.765 23.4598C30.9658 23.6808 31.2184 23.8483 31.5 23.9473C30.9525 23.9473 30.72 23.9023 30.525 23.6473C30.3832 23.4972 30.2757 23.3181 30.21 23.1223C30.1725 22.9723 30.06 22.6348 30.0675 22.3198H30.075Z" fill="#EDE71F"/>
<path d="M30.1125 22.4174C30.1425 22.8674 30.2775 23.3174 30.6075 23.6624C30.7275 23.7674 30.8775 23.8574 31.0275 23.8349C30.5563 23.4931 30.2299 22.9875 30.1125 22.4174V22.4174Z" fill="#C6CB24"/>
<path d="M28.86 22.2749C28.725 22.2749 28.6875 22.3424 28.6875 22.3424C28.5 23.0774 27.8025 24.0149 27.075 24.1274L26.715 24.7499H30.39V23.9024C29.73 23.7224 29.1975 23.0249 29.025 22.3424C29.025 22.3424 28.9875 22.2824 28.8525 22.2824L28.86 22.2749Z" fill="url(#paint7_linear_4_4253)"/>
<path d="M28.86 22.3124C28.8 22.3124 28.7625 22.3274 28.74 22.3349L28.7175 22.3574C28.5914 22.7689 28.3849 23.1513 28.11 23.4824C27.855 23.8049 27.3825 24.1274 27.06 24.1574L26.7375 24.7199H30.3375V23.9174C30.0667 23.8281 29.822 23.6735 29.625 23.4674C29.3232 23.1576 29.1063 22.7753 28.995 22.3574L28.9725 22.3349C28.9377 22.3175 28.8988 22.3097 28.86 22.3124V22.3124Z" fill="#97C924"/>
<path d="M28.7549 22.4174C28.7099 23.0924 28.3349 23.9549 27.9074 24.0974C27.7649 24.1499 27.5249 24.1649 27.4424 24.1724C27.7731 23.9886 28.0615 23.7375 28.2889 23.4351C28.5163 23.1328 28.6776 22.786 28.7624 22.4174H28.7549Z" fill="#93BC30"/>
<path d="M28.8599 22.3124H28.8224V23.1224C28.8224 23.2949 28.8899 23.4374 28.9724 23.6024L28.9874 23.6399C29.0249 23.7224 29.0474 23.7524 29.1599 23.8424C29.482 24.0722 29.8759 24.1787 30.27 24.1424C30.1875 24.0749 30.0975 24.0149 30.015 23.9624L30.3525 23.9249C30.0745 23.834 29.8241 23.674 29.6249 23.4599C29.5887 23.4235 29.5537 23.386 29.52 23.3474L29.4749 23.2874C29.3862 23.1813 29.3059 23.0685 29.2349 22.9499C29.2083 22.9007 29.1833 22.8507 29.1599 22.7999C29.1139 22.7049 29.0739 22.6072 29.04 22.5074C29.0233 22.4579 29.0083 22.4078 28.995 22.3574L28.9724 22.3349C28.9582 22.3277 28.9431 22.3227 28.9275 22.3199C28.9029 22.3139 28.8777 22.3113 28.8525 22.3124H28.8599Z" fill="#EDE71F"/>
<path d="M28.905 22.4174C28.9425 22.8674 29.0775 23.4074 29.4075 23.7524C29.5275 23.8499 29.6775 23.9474 29.8275 23.9249C29.37 23.5311 29.0473 23.0039 28.905 22.4174V22.4174Z" fill="#CCD11E"/>
<path d="M29.22 23.0474C29.4629 23.5226 29.8449 23.9124 30.315 24.1649H30.5025C30.1725 23.9849 29.64 23.7299 29.2275 23.0399L29.22 23.0474Z" fill="#9ECB34"/>
<path d="M34.2375 24.3525C34.1925 24.3675 33.9075 24.3375 33.7575 24.3525L33.66 24.375H33.4125C33.1425 24.375 32.91 24.45 32.655 24.45C32.4 24.45 32.1675 24.375 31.905 24.375H31.65C31.38 24.375 31.1475 24.45 30.8925 24.45C30.6375 24.45 30.405 24.375 30.1425 24.375H29.8875C29.6175 24.375 29.385 24.45 29.1375 24.45C28.875 24.45 28.65 24.375 28.38 24.375H28.125C27.855 24.375 27.63 24.45 27.375 24.45C27.1125 24.45 26.8875 24.375 26.6175 24.375H26.3625C26.1525 24.375 25.8975 24.42 25.695 24.435L25.2225 25.2525H34.7775L34.2375 24.3525Z" fill="white"/>
<path d="M33.6 24.2324H33.555C33.315 24.2399 33.135 24.3149 32.715 24.3149C32.295 24.3149 32.25 24.2399 31.77 24.2549C31.32 24.2549 31.14 24.3449 30.8925 24.3449C30.6525 24.3449 30.2625 24.2924 29.955 24.3224C29.655 24.3524 29.295 24.4199 29.055 24.4199C28.7625 24.4199 28.47 24.3674 28.17 24.3974C27.8625 24.4274 27.72 24.5099 27.3375 24.5099C27.0075 24.5099 26.6625 24.4574 26.3775 24.4574C26.1225 24.4574 25.8375 24.5324 25.6275 24.5624L25.56 24.6749C25.7325 24.6524 26.205 24.5774 26.37 24.5774C26.55 24.5774 27.1725 24.6149 27.5175 24.5999C27.87 24.5924 27.9075 24.5099 28.32 24.5099C28.605 24.5099 28.815 24.5399 29.1075 24.5399C29.295 24.5399 29.46 24.4499 29.7375 24.4499L29.9475 24.4424C30.18 24.4049 30.5775 24.4424 30.8475 24.4574C31.095 24.4724 31.26 24.4124 31.5225 24.4049L31.8525 24.3974C32.115 24.3824 32.3325 24.4424 32.58 24.4424C32.82 24.4274 33.06 24.3674 33.315 24.3674L33.6525 24.3524C33.825 24.3524 34.095 24.3524 34.275 24.3899L34.215 24.2849C34.035 24.2774 33.8175 24.2324 33.6 24.2324V24.2324Z" fill="url(#paint8_linear_4_4253)"/>
<path d="M26.2725 25.1099C26.0175 25.1099 25.7925 25.1699 25.5525 25.1774C25.4621 25.175 25.372 25.1675 25.2825 25.1549L25.245 25.2149H25.695C25.9575 25.2149 26.175 25.1549 26.415 25.1474C26.6625 25.1549 26.88 25.2224 27.1425 25.2224H27.48C27.735 25.2224 27.96 25.1549 28.2 25.1474C28.4475 25.1549 28.6725 25.2224 28.9275 25.2224H29.265C29.5275 25.2224 29.745 25.1549 29.9925 25.1474C30.2325 25.1549 30.45 25.2224 30.7125 25.2224H31.05C31.305 25.2224 31.53 25.1549 31.7775 25.1474C32.0175 25.1549 32.2425 25.2224 32.4975 25.2224H32.835C33.0975 25.2224 33.315 25.1549 33.555 25.1474C33.8025 25.1549 34.02 25.2224 34.2825 25.2224H34.62L34.755 25.2149L34.7175 25.1549C34.6425 25.1624 34.56 25.1774 34.4775 25.1774C34.23 25.1774 34.0125 25.1024 33.75 25.1024H33.4125C33.1575 25.1024 32.9325 25.1774 32.6925 25.1774C32.445 25.1699 32.2275 25.1024 31.965 25.1024H31.6275C31.3725 25.1024 31.1475 25.1774 30.9075 25.1774C30.66 25.1699 30.4425 25.1024 30.18 25.1024H29.8425C29.58 25.1024 29.3625 25.1774 29.1225 25.1774C28.875 25.1699 28.6575 25.1024 28.395 25.1024H28.0575C27.8025 25.1024 27.5775 25.1774 27.3375 25.1774C27.09 25.1699 26.8725 25.1024 26.61 25.1024H26.2725V25.1099Z" fill="url(#paint9_linear_4_4253)"/>
<path d="M25.7925 24.3524L25.605 24.6674C25.8225 24.6299 26.1375 24.5399 26.4075 24.5399C26.6775 24.5399 27.0075 24.6074 27.3375 24.6149C27.7125 24.6149 27.8625 24.5249 28.1625 24.4949C28.47 24.4649 28.7625 24.5324 29.0625 24.5399C29.295 24.5399 29.655 24.4574 29.9625 24.4274C30.2625 24.3899 30.54 24.4499 30.9 24.4499C31.2675 24.4574 31.3275 24.3599 31.77 24.3524C32.25 24.3449 32.295 24.4199 32.715 24.4199C33.03 24.4349 33.3075 24.3524 33.5925 24.3374C33.8775 24.3149 34.005 24.3374 34.215 24.3374L34.0725 24.0974L26.475 24.2699L25.7925 24.3524Z" fill="#97C924"/>
<path d="M33.75 24.345L34.05 24.3675C34.1224 24.3761 34.1949 24.3836 34.2675 24.39L34.2375 24.3525C34.1925 24.3675 33.9075 24.3375 33.7575 24.3525L33.75 24.345Z" fill="white"/>
<path d="M30 16.8656L27.5906 21.0375L25.125 25.3125H34.875L32.4656 21.1312L30 16.875V16.8656ZM30 17.0906L32.3625 21.1875L34.6781 25.2H25.3219L27.6844 21.0937L30 17.0906Z" fill="#C8A400"/>
</g>
<defs>
<linearGradient id="paint0_linear_4_4253" x1="29.9025" y1="21.6824" x2="30.045" y2="21.2549" gradientUnits="userSpaceOnUse">
<stop stop-color="#510000"/>
<stop offset="0.3" stop-color="#8A0000"/>
<stop offset="1" stop-color="#AA0000"/>
</linearGradient>
<linearGradient id="paint1_linear_4_4253" x1="30.105" y1="21.855" x2="30.2175" y2="21.555" gradientUnits="userSpaceOnUse">
<stop stop-color="#FF2A2A"/>
<stop offset="1" stop-color="#FF0000"/>
</linearGradient>
<linearGradient id="paint2_linear_4_4253" x1="25.8375" y1="23.8125" x2="40.08" y2="23.8125" gradientUnits="userSpaceOnUse">
<stop stop-color="#002255"/>
<stop offset="0.5" stop-color="#0044AA"/>
<stop offset="1" stop-color="#002255"/>
</linearGradient>
<linearGradient id="paint3_linear_4_4253" x1="25.8375" y1="23.8125" x2="40.08" y2="23.8125" gradientUnits="userSpaceOnUse">
<stop stop-color="#002255"/>
<stop offset="0.5" stop-color="#0044AA"/>
<stop offset="1" stop-color="#002255"/>
</linearGradient>
<linearGradient id="paint4_linear_4_4253" x1="25.8375" y1="23.8125" x2="40.08" y2="23.8125" gradientUnits="userSpaceOnUse">
<stop stop-color="#002255"/>
<stop offset="0.5" stop-color="#0044AA"/>
<stop offset="1" stop-color="#002255"/>
</linearGradient>
<linearGradient id="paint5_linear_4_4253" x1="28.86" y1="23.3774" x2="28.86" y2="23.8199" gradientUnits="userSpaceOnUse">
<stop stop-color="#F5F549"/>
<stop offset="1" stop-color="#97C924"/>
</linearGradient>
<linearGradient id="paint6_linear_4_4253" x1="28.86" y1="23.3773" x2="28.86" y2="23.8198" gradientUnits="userSpaceOnUse">
<stop stop-color="#F5F549"/>
<stop offset="1" stop-color="#97C924"/>
</linearGradient>
<linearGradient id="paint7_linear_4_4253" x1="28.86" y1="23.3774" x2="28.86" y2="23.8199" gradientUnits="userSpaceOnUse">
<stop stop-color="#F5F549"/>
<stop offset="1" stop-color="#97C924"/>
</linearGradient>
<linearGradient id="paint8_linear_4_4253" x1="25.5609" y1="24.2342" x2="34.2858" y2="24.2342" gradientUnits="userSpaceOnUse">
<stop stop-color="#002255"/>
<stop offset="0.5" stop-color="#0044AA"/>
<stop offset="1" stop-color="#002255"/>
</linearGradient>
<linearGradient id="paint9_linear_4_4253" x1="25.2781" y1="25.1054" x2="34.7215" y2="25.1054" gradientUnits="userSpaceOnUse">
<stop stop-color="#002255"/>
<stop offset="0.5" stop-color="#0044AA"/>
<stop offset="1" stop-color="#002255"/>
</linearGradient>
<clipPath id="clip0_4_4253">
<rect width="60" height="45" fill="white"/>
</clipPath>
</defs>
</svg>
