<svg width="60" height="45" viewBox="0 0 60 45" fill="none" xmlns="http://www.w3.org/2000/svg">
<g clip-path="url(#clip0_4_5577)">
<path fill-rule="evenodd" clip-rule="evenodd" d="M0.150024 0L0.103149 45H60.1031L0.150024 0Z" fill="black"/>
<path fill-rule="evenodd" clip-rule="evenodd" d="M60.0563 45L60.1031 0H0.103149L60.0563 45Z" fill="#FF0000"/>
<path d="M37.1475 11.198L36.3567 11.1565C36.107 10.5759 35.4202 10.3685 34.9831 10.6174C34.1783 10.6175 33.3734 10.6037 32.569 10.5759L34.0466 11.2187C34.442 12.2348 35.6907 12.4422 35.6907 12.4422C35.5659 14.2671 33.8385 12.2141 32.3817 13.2509C31.3411 13.8731 31.3411 14.5988 30.7792 15.8016C30.5919 16.1334 29.8635 17.0043 29.8635 17.0043L31.0914 16.9006L30.696 17.4191L32.1528 17.2117L31.8406 17.502C32.0487 17.5435 33.5055 17.1495 33.5055 17.1495L33.4015 17.6264L35.0664 17.0251C35.0664 17.0251 35.3994 17.2947 35.6907 17.4191L35.8989 16.5896L36.7313 16.797L36.9394 15.9675C38.1881 17.6264 38.6043 19.2854 40.8936 19.7001L40.6855 18.8707C41.294 19.1361 41.8977 19.4127 42.4961 19.7001L42.6834 19.3476C43.6823 20.0527 44.494 20.0319 45.0559 20.1149L44.6397 19.078L45.0559 19.2854L44.4316 17.6264L45.0559 17.8338L44.2234 16.5896L44.5356 16.3822L44.4316 15.7601C45.6802 16.1749 47.3452 16.797 47.5533 18.2486C47.7614 20.5296 45.264 21.1517 43.5991 20.9444C44.8478 21.9812 47.137 21.5665 48.1776 20.5296C48.5938 20.1149 48.802 19.4928 49.0101 18.8707C49.2182 19.4928 49.6344 20.3222 49.6344 21.1517C49.4263 23.018 46.9289 23.6402 45.264 23.8475C47.137 24.8844 50.4669 23.6402 50.675 20.9444C50.675 18.6633 49.2182 17.6264 48.5938 16.5896L48.3857 15.4698L49.0101 15.7601C49.0101 15.7601 48.6355 15.0758 48.5938 14.9306C48.5938 14.9306 47.9487 13.168 47.7198 12.774L48.1776 12.8569L46.4711 10.721L46.9497 10.6796C46.9497 10.6796 44.9726 9.1243 44.4316 8.91693L45.0559 8.70956C43.8072 8.08745 42.3504 8.50219 41.1017 9.33167L41.3098 8.70956L40.9352 8.75103V8.02524L41.3098 7.46534L40.6855 7.25797L41.1017 6.22113L40.4774 6.4285L40.6855 5.39165C40.6855 5.39165 40.2276 5.59902 39.9363 5.57828C40.0558 5.34736 40.1669 5.11219 40.2693 4.87323C40.0611 4.56217 40.2693 3.94006 40.2693 3.94006C38.8125 4.14743 38.6043 4.3548 37.7719 5.59902C36.5232 7.88008 36.9394 8.91693 37.1475 11.198Z" fill="#FFCC00"/>
<path fill-rule="evenodd" clip-rule="evenodd" d="M40.1136 4.07849C39.4937 4.17406 39.1397 4.27576 38.8513 4.47468C38.5351 4.69282 38.287 5.03458 37.8697 5.65823C37.2543 6.78352 37.053 7.5945 37.0276 8.40199C37.0104 8.95222 37.074 9.49773 37.1495 10.1458C37.1866 10.464 37.2266 10.8071 37.2613 11.1875L37.2733 11.3189L36.2798 11.2668L36.2518 11.2016C36.0267 10.6784 35.4128 10.5041 35.0397 10.7166L35.0134 10.7315L34.9832 10.7315C34.3751 10.7316 33.7671 10.7238 33.1593 10.708L34.1359 11.1328L34.1531 11.1772C34.3365 11.6484 34.7196 11.9368 35.0676 12.109C35.2409 12.1947 35.4026 12.2501 35.521 12.284C35.58 12.3009 35.628 12.3124 35.6608 12.3196C35.6772 12.3232 35.6898 12.3257 35.6981 12.3273C35.7005 12.3278 35.7026 12.3282 35.7043 12.3285C35.7054 12.3287 35.7064 12.3289 35.7072 12.329L35.7092 12.3294L35.7095 12.3294L35.7096 12.3294C35.7096 12.3294 35.7096 12.3294 35.7096 12.3294L35.8118 12.3464L35.8048 12.4499C35.7727 12.9188 35.6339 13.1931 35.3681 13.2987C35.2431 13.3484 35.1036 13.3541 34.9619 13.3403C34.82 13.3264 34.666 13.2919 34.5083 13.2529C34.466 13.2424 34.4232 13.2317 34.3801 13.2208C33.7664 13.0661 33.081 12.8934 32.448 13.3439L32.4443 13.3466L32.4404 13.3489C31.9412 13.6473 31.6954 13.9666 31.5036 14.3586C31.4094 14.5514 31.3284 14.7614 31.2365 14.9994L31.227 15.0242C31.1316 15.2712 31.0251 15.5453 30.8828 15.8499L30.8809 15.8538L30.8788 15.8577C30.7798 16.0329 30.5447 16.341 30.3407 16.5983C30.2621 16.6974 30.187 16.7904 30.1241 16.8676L31.3385 16.765L30.956 17.2666L32.4974 17.0471L32.1701 17.3516C32.3327 17.321 32.5311 17.2763 32.7246 17.2301C32.9187 17.1837 33.1066 17.1359 33.246 17.0997C33.3156 17.0816 33.3732 17.0665 33.4132 17.0558C33.4332 17.0505 33.4489 17.0463 33.4595 17.0435L33.4757 17.0391C33.4757 17.0391 33.4757 17.0391 33.5056 17.1494L33.4757 17.0391L33.6573 16.99L33.5572 17.4486L35.0882 16.8956L35.1383 16.9362L35.1384 16.9363L35.139 16.9367L35.1415 16.9388C35.1438 16.9406 35.1473 16.9434 35.152 16.947C35.1612 16.9543 35.1748 16.9649 35.1922 16.9781C35.2269 17.0045 35.2762 17.0411 35.3344 17.0814C35.4175 17.139 35.5159 17.2024 35.6141 17.255L35.8158 16.4511L36.6483 16.6584L36.8869 15.7075L37.0307 15.8987C37.3312 16.2978 37.5837 16.6967 37.8229 17.0745C37.8348 17.0934 37.8468 17.1122 37.8587 17.131C38.1095 17.527 38.3468 17.8973 38.6151 18.2283C39.1186 18.8495 39.7309 19.3317 40.7388 19.5526L40.5181 18.6729L40.7312 18.7658C41.3075 19.0173 41.8794 19.2786 42.4466 19.5496L42.6434 19.1794L42.7493 19.2542C43.5657 19.8304 44.2452 19.9062 44.7824 19.9661C44.8146 19.9697 44.8462 19.9732 44.8774 19.9768L44.4217 18.8417L44.8465 19.0533L44.2403 17.4424L44.7756 17.6202L44.0648 16.5578L44.4107 16.3279L44.2876 15.5918L44.4676 15.6516C45.0916 15.8589 45.8329 16.1219 46.4449 16.5196C47.0583 16.9182 47.5559 17.4614 47.6664 18.2322L47.6668 18.2351L47.6671 18.2381C47.7211 18.8307 47.5996 19.3223 47.3547 19.721C47.1105 20.1185 46.7481 20.4165 46.3308 20.6311C45.6361 20.9884 44.7786 21.1202 44.0202 21.0923C44.5739 21.396 45.2666 21.484 45.9527 21.4011C46.7918 21.2998 47.5986 20.9452 48.097 20.4486C48.4904 20.0566 48.6913 19.4634 48.9017 18.8343L49.0101 18.5104L49.1185 18.8343C49.1668 18.9788 49.2267 19.1351 49.2911 19.3032L49.3021 19.3319C49.3704 19.51 49.4428 19.7001 49.5087 19.8971C49.6403 20.2905 49.7487 20.7188 49.7487 21.1516V21.158L49.748 21.1643C49.6376 22.154 48.9196 22.8021 48.0452 23.2245C47.301 23.5841 46.4267 23.7892 45.6669 23.9066C46.5243 24.2258 47.6086 24.1366 48.5449 23.6924C49.6086 23.1877 50.459 22.2354 50.5608 20.9398C50.5598 19.8291 50.2057 19.0223 49.773 18.363C49.5576 18.0346 49.323 17.7433 49.1001 17.4665L49.0935 17.4582C48.8702 17.181 48.6568 16.9156 48.496 16.6484L48.4853 16.6307L48.2329 15.2726L48.7474 15.5119C48.7372 15.4924 48.7268 15.4726 48.7163 15.4526C48.6667 15.3576 48.6153 15.2573 48.5736 15.1712C48.5349 15.0913 48.4999 15.0144 48.4853 14.9664L48.4793 14.9501C48.4746 14.9371 48.4675 14.9181 48.4585 14.8936C48.4405 14.8448 48.4144 14.7745 48.3825 14.689C48.3185 14.5179 48.2309 14.2857 48.1361 14.0413C47.9447 13.5474 47.7298 13.0186 47.621 12.8313L47.4967 12.6174L47.8982 12.6901L46.2486 10.6255L46.6497 10.5908C46.6226 10.5699 46.5936 10.5475 46.5627 10.5238C46.3693 10.375 46.1059 10.1746 45.8257 9.96785C45.5454 9.76093 45.2491 9.54825 44.9898 9.37469C44.7268 9.19868 44.5121 9.07005 44.3907 9.02353L44.0922 8.90915L44.7359 8.69537C43.6024 8.27685 42.3087 8.66702 41.165 9.42675L40.8878 9.61083L41.1448 8.84269L40.821 8.87854V7.99045L41.1315 7.5264L40.5342 7.32803L40.9039 6.40713L40.3266 6.59887L40.5321 5.57513C40.508 5.58373 40.4824 5.59253 40.4556 5.60127C40.3033 5.65098 40.0977 5.70422 39.9282 5.69216L39.755 5.67983L39.8348 5.52566C39.9443 5.31415 40.0466 5.09903 40.1416 4.88067C40.0979 4.79474 40.0766 4.6992 40.0677 4.60697C40.0569 4.49339 40.0643 4.37719 40.078 4.27475C40.0877 4.2022 40.1008 4.13502 40.1136 4.07849ZM40.6384 5.28746L40.8414 5.19552L40.6282 6.25794L41.2996 6.03493L40.8368 7.18773L41.4882 7.4041L41.0495 8.05984V8.62333L41.4749 8.57624L41.3119 9.06344C42.5139 8.34083 43.8967 8.00427 45.1069 8.6072L45.3546 8.73064L44.7278 8.93885C44.8439 9.00616 44.9768 9.09106 45.1169 9.18477C45.3804 9.36114 45.6799 9.57616 45.9614 9.78399C46.2432 9.99194 46.5079 10.1933 46.702 10.3427C46.7992 10.4173 46.8787 10.479 46.934 10.5221C46.9616 10.5436 46.9832 10.5605 46.9979 10.572L47.0203 10.5896L47.0204 10.5896C47.0204 10.5897 47.0204 10.5897 46.9498 10.6795L47.0204 10.5896L47.2476 10.7684L46.6936 10.8164L48.4571 13.0236L47.9246 12.9271C48.0467 13.1916 48.2075 13.5931 48.3492 13.9587C48.4444 14.2042 48.5324 14.4373 48.5965 14.609C48.6286 14.6948 48.6547 14.7654 48.6729 14.8144C48.6819 14.839 48.689 14.8582 48.6938 14.8712L48.7011 14.8912C48.7011 14.8912 48.7012 14.8913 48.5939 14.9305L48.7012 14.8913L48.7026 14.8951L48.7037 14.8991C48.7109 14.9241 48.7373 14.9848 48.7793 15.0716C48.8195 15.1546 48.8697 15.2526 48.9189 15.3468C48.968 15.4409 49.0159 15.5305 49.0515 15.5967C49.0693 15.6297 49.084 15.6569 49.0943 15.6758L49.1062 15.6976L49.1101 15.7047L49.1103 15.7051L49.1103 15.7051L49.2774 16.0103L48.5386 15.6668L48.7024 16.5481C48.8525 16.7936 49.0512 17.0414 49.2714 17.3149L49.2806 17.3263C49.502 17.6012 49.7425 17.8999 49.9641 18.2376C50.4154 18.9253 50.7893 19.7763 50.7893 20.9443V20.9487L50.7889 20.9531C50.681 22.3511 49.7632 23.3672 48.6429 23.8988C47.5257 24.4289 46.185 24.4879 45.2087 23.9474L44.9017 23.7774L45.2499 23.734C46.0777 23.6309 47.1039 23.4255 47.9458 23.0188C48.7864 22.6127 49.4201 22.0184 49.5202 21.1453C49.5191 20.7507 49.4198 20.3517 49.292 19.9696C49.2278 19.7778 49.1571 19.592 49.0888 19.4137L49.0771 19.3831C49.0555 19.327 49.0342 19.2714 49.0136 19.2168C48.8345 19.7334 48.624 20.246 48.2583 20.6105C47.7161 21.1507 46.858 21.5219 45.9801 21.628C45.1023 21.734 44.1825 21.5772 43.5261 21.0322L43.2256 20.7826L43.6132 20.8309C44.4291 20.9325 45.4453 20.8296 46.2263 20.4279C46.6155 20.2278 46.9425 19.9555 47.16 19.6014C47.3765 19.249 47.4891 18.8083 47.4398 18.2618C47.3413 17.5825 46.9029 17.0897 46.3204 16.7112C45.7912 16.3674 45.1549 16.1255 44.5757 15.9289L44.6605 16.4363L44.3822 16.6212L45.3362 18.0472L44.6229 17.8103L45.2653 19.5173L44.8576 19.3142L45.2361 20.2569L45.0392 20.2278C44.9542 20.2153 44.8621 20.2051 44.7633 20.1942C44.2461 20.1372 43.5459 20.06 42.7243 19.514L42.5455 19.8505L42.4466 19.803C41.9194 19.5498 41.3882 19.305 40.8531 19.0689L41.0476 19.844L40.8733 19.8125C39.6974 19.5994 38.9981 19.0638 38.4376 18.3722C38.1596 18.0293 37.9156 17.6479 37.6656 17.2533C37.6541 17.2351 37.6426 17.2169 37.631 17.1987C37.4308 16.8824 37.2249 16.5573 36.9911 16.2309L36.8144 16.9353L35.9819 16.7279L35.769 17.5766L35.6459 17.5241C35.4895 17.4573 35.3259 17.3536 35.2042 17.2692C35.1427 17.2266 35.0906 17.188 35.0538 17.16C35.0511 17.1579 35.0484 17.1559 35.0458 17.1539L33.2458 17.8041L33.3541 17.3077C33.338 17.3119 33.3211 17.3163 33.3034 17.3209C33.1631 17.3573 32.9738 17.4055 32.7777 17.4523C32.582 17.4992 32.3782 17.545 32.2096 17.5766C32.1255 17.5924 32.0485 17.605 31.9849 17.6122C31.9263 17.6189 31.8641 17.6231 31.8183 17.614L31.5993 17.5703L31.8082 17.3761L30.4361 17.5714L30.8444 17.0361L29.6001 17.1412L29.7759 16.9309L29.776 16.9308L29.784 16.9213C29.7893 16.9149 29.7972 16.9054 29.8073 16.8932C29.8274 16.8689 29.8565 16.8338 29.8919 16.7905C29.9629 16.704 30.0594 16.5853 30.1616 16.4563C30.3671 16.1972 30.5879 15.9065 30.6776 15.7491C30.8153 15.4539 30.919 15.1876 31.0138 14.9419L31.0249 14.913C31.1154 14.6785 31.1996 14.4601 31.2984 14.2582C31.5067 13.8322 31.7804 13.4782 32.3192 13.1551C33.0411 12.644 33.8271 12.844 34.4261 12.9965C34.473 13.0084 34.5187 13.0201 34.5631 13.0311C34.7202 13.0699 34.8602 13.1007 34.9841 13.1128C35.1083 13.1249 35.2065 13.117 35.2837 13.0863C35.4116 13.0355 35.527 12.9011 35.568 12.5327C35.537 12.5253 35.5 12.5157 35.458 12.5037C35.3298 12.4669 35.1547 12.407 34.9663 12.3138C34.6016 12.1334 34.1765 11.8228 33.9583 11.3048L32.5235 10.6806L32.573 10.4616C33.3664 10.489 34.1602 10.5028 34.9541 10.503C35.4371 10.2508 36.1401 10.4681 36.4312 11.0459L37.0214 11.0769C36.9911 10.7628 36.957 10.4703 36.9248 10.1932C36.848 9.53394 36.7814 8.96199 36.7992 8.39483C36.8259 7.54443 37.0403 6.69752 37.6717 5.54406L37.6741 5.53961L37.6769 5.53539C38.0903 4.91751 38.3621 4.53453 38.7216 4.28658C39.084 4.03659 39.5246 3.93056 40.2532 3.82685L40.4363 3.80078L40.3777 3.97614L40.3776 3.97628L40.3773 3.97723L40.3759 3.98166C40.3746 3.98573 40.3726 3.99196 40.3702 4.00013C40.3653 4.01649 40.3584 4.04054 40.3507 4.07051C40.3352 4.13064 40.3167 4.21353 40.3045 4.30506C40.2922 4.39702 40.2866 4.49467 40.2952 4.58523C40.304 4.67653 40.3265 4.75315 40.3642 4.80959L40.3987 4.86113L40.3743 4.91813C40.2974 5.09774 40.2155 5.27523 40.129 5.4504C40.2126 5.43554 40.3017 5.41113 40.3847 5.38403C40.4571 5.36039 40.521 5.33606 40.5667 5.31764C40.5896 5.30845 40.6078 5.30078 40.6201 5.29546C40.6263 5.29281 40.631 5.29074 40.6341 5.28937L40.6375 5.28786L40.6383 5.28752L40.6384 5.28746Z" fill="#FFCC00"/>
<path fill-rule="evenodd" clip-rule="evenodd" d="M45.0143 14.5988C45.1183 14.7854 46.3046 15.3453 47.1787 15.843C46.9497 14.8891 45.2224 14.6817 45.0143 14.5988Z" fill="#FF0000"/>
<path fill-rule="evenodd" clip-rule="evenodd" d="M44.688 14.3123L45.0681 14.4638C45.0813 14.469 45.1183 14.4788 45.1901 14.4952C45.2117 14.5002 45.2358 14.5056 45.2619 14.5115C45.3148 14.5234 45.376 14.5371 45.4415 14.5526C45.6387 14.5992 45.888 14.6643 46.1395 14.7581C46.3901 14.8516 46.6493 14.9758 46.8629 15.1435C47.0773 15.3117 47.2529 15.5294 47.3201 15.8091L47.3984 16.1355L47.1067 15.9694C46.811 15.8011 46.4808 15.6263 46.1669 15.4602C46.0188 15.3818 45.8743 15.3053 45.7388 15.2323C45.5291 15.1194 45.3404 15.0146 45.1968 14.9256C45.1252 14.8812 45.0621 14.839 45.0123 14.8005C44.9676 14.7659 44.916 14.7212 44.8873 14.6697L44.688 14.3123ZM45.8673 14.9712C45.8704 14.9729 45.8735 14.9746 45.8766 14.9763C46.0083 15.0472 46.1506 15.1225 46.2975 15.2002C46.4567 15.2845 46.6213 15.3716 46.7838 15.4592C46.7526 15.4292 46.7191 15.4003 46.6834 15.3723C46.5023 15.2302 46.2737 15.1186 46.0378 15.0306C45.9808 15.0093 45.9237 14.9896 45.8673 14.9712Z" fill="#FF0000"/>
<path fill-rule="evenodd" clip-rule="evenodd" d="M16.4063 37.4062L15.075 36.5625L13.2938 37.4156L13.6969 35.8968L12.3375 34.4812L13.9031 34.3874L14.8406 32.6625L15.4125 34.1156L17.3531 34.4718L16.1344 35.4656L16.4063 37.4062ZM19.8 30L19.1813 29.7187L18.5906 30.0562L18.6844 29.3812L18.1781 28.9218L18.8438 28.8L19.125 28.1812L19.4531 28.7812L20.1281 28.8562L19.6594 29.3437L19.8 30ZM22.8 25.7624L21.4406 25.1062L20.1375 25.8375L20.3531 24.3656L19.2469 23.3531L20.7188 23.0906L21.3375 21.7406L22.05 23.0531L23.5313 23.2218L22.5 24.3L22.8 25.7624ZM16.6313 19.8562L15.0375 19.0593L13.4906 19.9125L13.7531 18.1687L12.4594 16.95L14.2125 16.6687L14.9625 15.075L15.7781 16.6406L17.5406 16.8562L16.2938 18.1125L16.6313 19.8562ZM10.9313 25.9875L9.33751 25.05L7.74376 26.0156L8.14689 24.2062L6.73126 22.9875L8.57814 22.8187L9.30001 21.1031L10.0406 22.8093L11.8969 22.9593L10.5 24.1781L10.9313 25.9875Z" fill="white"/>
</g>
<defs>
<clipPath id="clip0_4_5577">
<rect width="60" height="45" fill="white"/>
</clipPath>
</defs>
</svg>
