<svg width="60" height="45" viewBox="0 0 60 45" fill="none" xmlns="http://www.w3.org/2000/svg">
<g clip-path="url(#clip0_4_6119)">
<path fill-rule="evenodd" clip-rule="evenodd" d="M-2.43396 0.0175781H62.3942V44.9561H-2.43396V0.0175781Z" fill="#FFE900"/>
<path fill-rule="evenodd" clip-rule="evenodd" d="M-2.46912 0.0175781L-2.3988 32.4141L48.0504 0L-2.46912 0.0175781V0.0175781Z" fill="#35A100"/>
<path fill-rule="evenodd" clip-rule="evenodd" d="M62.4733 44.9561L62.3502 11.2764L11.4615 44.9824L62.4733 44.9561Z" fill="#C70000"/>
<path fill-rule="evenodd" clip-rule="evenodd" d="M-2.44275 34.8574L-2.3988 45L8.61389 44.9824L62.3766 8.93848L62.3239 0.123047L51.443 0.0175781L-2.43396 34.8574H-2.44275Z" fill="black"/>
<path fill-rule="evenodd" clip-rule="evenodd" d="M40.4742 13.7637L39.6129 10.0547L42.5397 12.4277L45.8795 10.2656L44.3502 13.8955L47.2858 16.2686L43.401 16.1367L41.8805 19.7666L41.0104 16.0576L37.1344 15.9258L40.4742 13.7637ZM16.2867 29.4961L15.4166 25.7783L18.3434 28.1514L21.6832 25.9893L20.1539 29.6191L23.0895 31.9922L19.2135 31.8604L17.6842 35.4902L16.8229 31.7813L12.9469 31.6494L16.2867 29.4961Z" fill="white"/>
</g>
<defs>
<clipPath id="clip0_4_6119">
<rect width="60" height="45" fill="white"/>
</clipPath>
</defs>
</svg>
