<svg width="60" height="45" viewBox="0 0 60 45" fill="none" xmlns="http://www.w3.org/2000/svg">
<g clip-path="url(#clip0_4_5867)">
<path fill-rule="evenodd" clip-rule="evenodd" d="M0 0H67.5V22.5H29.9971L0 0Z" fill="#ED2939"/>
<path fill-rule="evenodd" clip-rule="evenodd" d="M0 45H67.5V22.5H29.9971L0 45Z" fill="#002395"/>
<path fill-rule="evenodd" clip-rule="evenodd" d="M0 0L29.9971 22.5L0 45V0Z" fill="white"/>
<path d="M15.1436 16.9805L15.1523 16.6289C15.1523 16.6289 14.9678 16.3301 15.1875 16.0137C15.1875 16.0137 14.7217 15.7676 14.8359 15.3809C14.8359 15.3809 14.4141 15.2754 14.4404 14.8184C14.4404 14.8184 14.001 14.792 13.9482 14.4053C13.9482 14.4053 13.5 14.4756 13.2979 14.1064C13.2979 14.1064 12.8584 14.1943 12.7354 13.8867C12.7354 13.8867 12.3047 14.0273 12.0586 13.667C12.0586 13.667 11.6016 13.8516 11.417 13.5088C11.2324 13.8516 10.7754 13.667 10.7754 13.667C10.5293 14.0273 10.0986 13.8779 10.0986 13.8779C9.97559 14.1855 9.54492 14.0977 9.54492 14.0977C9.34277 14.4756 8.89453 14.3965 8.89453 14.3965C8.85059 14.7832 8.40234 14.8184 8.40234 14.8184C8.41503 14.9427 8.38311 15.0676 8.31228 15.1706C8.24144 15.2737 8.1363 15.3482 8.01562 15.3809C8.12988 15.7588 7.66406 16.0049 7.66406 16.0049C7.89258 16.3301 7.70801 16.6201 7.70801 16.6201L7.69922 16.9453L15.1436 16.9805" fill="#FFFF00"/>
<path fill-rule="evenodd" clip-rule="evenodd" d="M11.4265 13.4817L11.4395 13.5062C11.5265 13.6705 11.6783 13.7097 11.8113 13.7072C11.8778 13.706 11.9389 13.6943 11.9835 13.6828C12.0058 13.6771 12.0239 13.6715 12.0363 13.6673C12.0425 13.6652 12.0474 13.6634 12.0506 13.6622C12.0522 13.6617 12.0534 13.6612 12.0542 13.6609L12.0551 13.6605L12.0553 13.6605L12.0665 13.656L12.0734 13.6658C12.196 13.8423 12.3623 13.8938 12.4988 13.9011C12.5672 13.9048 12.628 13.8974 12.6717 13.8891C12.6935 13.8849 12.711 13.8806 12.723 13.8772C12.729 13.8756 12.7336 13.8742 12.7367 13.8732C12.7374 13.873 12.7381 13.8727 12.7387 13.8725C12.7393 13.8724 12.7397 13.8722 12.7401 13.8721L12.7409 13.8718L12.7411 13.8718M10.787 13.6605L10.7872 13.6605L10.7881 13.6609C10.7889 13.6612 10.7901 13.6617 10.7917 13.6622C10.7949 13.6634 10.7998 13.6652 10.806 13.6673C10.8185 13.6715 10.8366 13.6771 10.8589 13.6828C10.9037 13.6943 10.9651 13.706 11.0323 13.7072C11.1665 13.7097 11.321 13.6704 11.413 13.5059L11.4265 13.4817" fill="black"/>
<path d="M14.9678 16.541C13.7988 16.4268 12.4541 16.1455 11.417 16.7344C10.7139 16.3213 9.74707 16.3477 8.9209 16.4268C8.47266 16.5146 7.94531 16.5146 7.4707 16.585L7.40039 16.5938C6.54785 16.6553 5.77441 16.4004 5.02734 16.0664C5.27344 17.4023 5.52832 18.7646 5.66016 20.1621C5.94141 22.2363 4.68457 23.9678 5.18555 26.0156C5.49316 27 6.57422 27.5713 7.55859 27.6855C8.51059 27.7457 9.45666 27.8779 10.3887 28.0811C10.5545 28.1219 10.7163 28.1778 10.8721 28.248C11.092 28.3441 11.2895 28.4847 11.4521 28.6611C11.9795 28.1074 12.7705 27.9492 13.5352 27.8701C14.9238 27.7031 16.6377 27.791 17.4902 26.5342V26.4639C17.9561 25.7607 17.8945 24.7061 17.6924 23.915C17.6748 23.6426 17.6045 23.3965 17.5605 23.1328C16.7168 20.8916 17.4463 18.3691 17.8066 16.1016C17.3516 16.3303 16.8662 16.4931 16.3652 16.585C15.9697 16.6377 15.5303 16.6201 15.1348 16.5938L14.959 16.5498" fill="#FF0000"/>
<path d="M16.7168 22.9834C16.7168 23.124 16.7959 23.2471 16.8223 23.3789C16.9893 24.3633 17.1387 25.6641 16.1367 26.2705C15.0117 26.9736 13.5527 26.6748 12.2607 27.0527C11.9971 27.123 11.6455 27.3604 11.4697 27.5273C11.3467 27.4482 11.2324 27.334 11.083 27.2637C10.0195 26.7012 8.63086 26.8857 7.43555 26.5781C6.8291 26.3936 6.20508 25.9189 6.04688 25.3037C5.66016 23.6865 6.5918 22.3066 6.48633 20.6982C6.41602 19.4678 6.20508 18.2988 5.92383 17.1475C6.86426 17.5869 7.94531 17.6572 9 17.4463C9.8135 17.297 10.6524 17.3729 11.4258 17.666C11.8301 17.4902 12.3047 17.4111 12.7441 17.3672C13.5615 17.4551 14.4492 17.5957 15.3018 17.5957C15.873 17.5605 16.3916 17.4023 16.8838 17.1826C16.5938 19.0811 16.0225 21.0674 16.7168 22.9834Z" fill="#80CFE1"/>
<path d="M15.0293 23.3613V21.5684H15.2402L12.5156 19.8105L12.5068 18.8877H12.7705L11.3994 17.9209L10.0459 18.8877H10.3096V19.8105L7.59375 21.5684H7.81348V23.3525H15.0293" fill="white"/>
<path fill-rule="evenodd" clip-rule="evenodd" d="M11.4062 17.8408L12.9638 18.9629H12.5756L12.5846 19.7759L15.4495 21.6323H15.0939V23.3649H15.0334V23.4152H7.75873V21.6323H7.39307L10.2572 19.7764L10.2481 18.9528H9.85816L11.4062 17.8408ZM14.973 23.2943V21.5114H15.0406L12.4645 19.8421L12.4534 18.842H12.5891L11.4061 17.9897L10.2337 18.8319H10.3677L10.3788 19.8417L7.80195 21.5114H7.87962V23.2943H14.973Z" fill="black"/>
<path d="M15.873 25.708V26.2617H7.0752V25.6992H15.8643" fill="white"/>
<path fill-rule="evenodd" clip-rule="evenodd" d="M7.01306 25.6414H15.9402V26.3263H7.01306V25.6414ZM7.13396 25.7623V26.2055H15.8193V25.7623H7.13396Z" fill="black"/>
<path d="M7.65527 25.6729V23.7832H8.00684L7.98926 25.6904L8.00684 23.792L7.49707 23.7832V23.3701L15.3545 23.3877V23.7832H14.8799V25.6992L14.8711 23.7832H15.2227L15.2402 25.6816" fill="white"/>
<path fill-rule="evenodd" clip-rule="evenodd" d="M7.44629 23.3143L15.4263 23.3246V23.8483H15.2956L15.3054 25.6813L15.1845 25.6819L15.1747 23.8483H14.943L14.9527 25.7011L14.9527 25.7014L14.8318 25.7024L14.8318 25.7021L14.811 23.7274H15.3054V23.4453L7.56718 23.4354V23.7197L7.59743 23.7209V23.7173H8.07161L8.07137 23.7399L8.07159 23.7399L8.05082 25.6923L7.92993 25.691L7.94925 23.856L7.71832 23.8467V25.6715H7.59743V23.8419L7.44629 23.8359V23.3143Z" fill="black"/>
<path fill-rule="evenodd" clip-rule="evenodd" d="M8.22217 23.8281H9.4111V25.2082H9.34057L9.34 25.2686L8.22217 25.258V23.8281ZM9.2902 25.1472V23.949H8.34306V25.1382L9.2902 25.1472Z" fill="black"/>
<path fill-rule="evenodd" clip-rule="evenodd" d="M13.4011 23.8383H14.5694L14.5804 25.2687H13.4011V23.8383ZM13.522 23.9592V25.1478H14.4586L14.4494 23.9592H13.522ZM8.57478 24.1002H9.12894V24.9866H8.52441V24.1606H8.57478V24.1002ZM8.64531 24.2211V24.8657H9.00805V24.2211H8.64531Z" fill="black"/>
<path fill-rule="evenodd" clip-rule="evenodd" d="M13.391 21.6926H14.5698V23.123H13.391V21.6926ZM13.5119 21.8135V23.0021H14.4489V21.8135H13.5119ZM13.6832 24.1102H14.2877V24.9966H13.6832V24.1102ZM13.8041 24.2311V24.8757H14.1668V24.2311H13.8041Z" fill="black"/>
<path fill-rule="evenodd" clip-rule="evenodd" d="M8.22217 21.6826H9.40102V23.0626H9.34057V23.113H8.22217V21.6826ZM9.28012 22.9921V21.8035H8.34306V22.9921H9.28012ZM13.6732 21.9647H14.2777V22.8511H13.6732V21.9647ZM13.7941 22.0856V22.7302H14.1568V22.0856H13.7941Z" fill="black"/>
<path fill-rule="evenodd" clip-rule="evenodd" d="M10.1366 21.6826H11.3155V23.0626H11.255V23.113H10.1366V21.6826ZM11.1946 22.9921V21.8035H10.2575V22.9921H11.1946ZM8.5144 21.9546H9.11894V22.841H8.5144V21.9546ZM8.6353 22.0755V22.7201H8.99804V22.0755H8.6353Z" fill="black"/>
<path fill-rule="evenodd" clip-rule="evenodd" d="M11.6076 21.682L12.7865 21.6932V23.1236L11.6076 23.1124V21.682ZM11.7285 21.8041V22.9927L12.6656 23.0016V21.813L11.7285 21.8041ZM10.4187 21.9546H11.0232V22.841H10.4187V21.9546ZM10.5396 22.0754V22.7201H10.9023V22.0754H10.5396Z" fill="black"/>
<path fill-rule="evenodd" clip-rule="evenodd" d="M11.8898 21.9546H12.5044V22.841H11.8898V21.9546ZM12.0107 22.0755V22.7202H12.3835V22.0755H12.0107Z" fill="black"/>
<path d="M12.9814 22.6582L12.999 25.6992H9.93164L9.92285 22.6582H12.9727" fill="white"/>
<path fill-rule="evenodd" clip-rule="evenodd" d="M10.5396 19.0032H12.2928V19.8896H10.5396V19.0032ZM10.6605 19.1241V19.7687H12.1719V19.1241H10.6605ZM10.4292 20.0508H12.4132L14.2919 21.4207H8.55054L10.4292 20.0508ZM10.4686 20.1717L8.9215 21.2998H13.9209L12.3738 20.1717H10.4686ZM9.87439 22.5993H13.0482L13.0587 25.7623H9.88487L9.87439 22.5993ZM9.99569 22.7202L9.99815 23.4656H12.9302L12.9278 22.7202H9.99569ZM12.9306 23.5865H12.6857V25.6414H12.9374L12.9306 23.5865ZM12.5648 25.6414V23.5865H10.3582V25.6414H12.5648ZM10.2373 25.6414V23.5865H9.99856L10.0054 25.6414H10.2373Z" fill="black"/>
<path fill-rule="evenodd" clip-rule="evenodd" d="M10.6986 18.7614H12.1235L11.4111 18.2549L10.6986 18.7614ZM11.4111 18.1701L11.3811 18.1279L10.3199 18.8823H12.5022L11.4411 18.1279L11.4111 18.1701ZM10.9829 19.1946H11.8494V19.6982H10.9829V19.1946ZM11.1038 19.3155V19.5774H11.7285V19.3155H11.1038Z" fill="black"/>
<path d="M15.0645 17.7539C15.3193 17.7539 15.3809 18.8086 15.3809 19.3359C15.6094 19.4062 16.0928 19.7139 16.3125 19.9863H13.834C14.0449 19.7139 14.5283 19.4063 14.748 19.3447C14.748 18.8174 14.8008 17.7451 15.0645 17.7627" fill="white"/>
<path fill-rule="evenodd" clip-rule="evenodd" d="M14.8729 18.358C14.8268 18.6853 14.8117 19.0802 14.8117 19.3456V19.3912L14.7679 19.4037C14.6716 19.4312 14.5017 19.52 14.3268 19.6386C14.1958 19.7275 14.0669 19.8298 13.9685 19.9298H16.1789C16.0805 19.8299 15.9514 19.7276 15.8196 19.6388C15.6435 19.5202 15.4713 19.4315 15.3702 19.4039L15.3256 19.3918V19.3456C15.3256 19.0801 15.3106 18.6854 15.2633 18.3583C15.2395 18.1941 15.2082 18.0508 15.1683 17.9499C15.1483 17.8993 15.1276 17.8632 15.1076 17.8408C15.0881 17.8189 15.0737 17.8145 15.0636 17.8145C15.0558 17.8145 15.0426 17.818 15.0237 17.8399C15.0045 17.8624 14.9844 17.8985 14.965 17.9492C14.9264 18.0503 14.896 18.1938 14.8729 18.358ZM14.9321 17.7611C14.9647 17.7232 15.0085 17.6936 15.0636 17.6936C15.1191 17.6936 15.1639 17.7222 15.1978 17.7603C15.2313 17.7978 15.2583 17.8486 15.2808 17.9054C15.3259 18.0195 15.3588 18.174 15.3829 18.341C15.4288 18.6581 15.4448 19.0343 15.4464 19.3013C15.5654 19.3431 15.7287 19.4318 15.8871 19.5385C16.0669 19.6596 16.2493 19.8099 16.3608 19.9532L16.4367 20.0507H13.7108L13.7867 19.9532C13.8982 19.8099 14.0805 19.6597 14.2589 19.5386C14.4156 19.4323 14.5762 19.3439 14.691 19.3018C14.6926 19.0349 14.7085 18.6585 14.7532 18.3412C14.7766 18.1743 14.8086 18.02 14.8521 17.9061C14.8738 17.8493 14.8998 17.7986 14.9321 17.7611ZM15.5574 17.6936H15.9407L15.8393 17.8819C15.8495 17.9 15.861 17.925 15.869 17.9553C15.8846 18.015 15.8854 18.0933 15.8396 18.1774L15.9362 18.3383H15.511L15.6098 18.1737C15.6093 18.1726 15.6088 18.1714 15.6083 18.1702C15.5994 18.1488 15.5886 18.1186 15.5813 18.0837C15.5691 18.0251 15.5653 17.9443 15.6074 17.8712L15.5574 17.7795V17.6936ZM15.7247 18.1346C15.7632 18.0739 15.7616 18.0224 15.752 17.9859C15.7468 17.966 15.7389 17.9497 15.7324 17.9385C15.7291 17.933 15.7263 17.9288 15.7245 17.9263C15.7236 17.9251 15.723 17.9243 15.7226 17.9239C15.7226 17.9238 15.7226 17.9238 15.7225 17.9237C15.7225 17.9237 15.7225 17.9237 15.7225 17.9236C15.7225 17.9236 15.7225 17.9236 15.7225 17.9236L15.7196 17.9202C15.6913 17.9591 15.6893 18.0092 15.6997 18.059C15.705 18.0845 15.7131 18.1072 15.7199 18.1237C15.7216 18.1277 15.7232 18.1314 15.7247 18.1346ZM15.7263 17.8367L15.7383 17.8145H15.7142L15.7263 17.8367ZM16.2079 17.8145L16.22 17.8367L16.232 17.8145H16.2079ZM16.2133 17.9202C16.185 17.9591 16.183 18.0092 16.1934 18.059C16.1987 18.0845 16.2068 18.1072 16.2136 18.1237C16.2153 18.1277 16.2169 18.1314 16.2184 18.1346C16.2569 18.0739 16.2553 18.0224 16.2458 17.9859C16.2405 17.966 16.2326 17.9497 16.2261 17.9385C16.2228 17.933 16.22 17.9288 16.2182 17.9263C16.2173 17.9251 16.2167 17.9243 16.2164 17.9239L16.2163 17.9237L16.2162 17.9236L16.2133 17.9202ZM16.1047 18.1765C16.1038 18.1745 16.1029 18.1724 16.102 18.1702C16.0931 18.1488 16.0823 18.1186 16.075 18.0837C16.0628 18.0251 16.059 17.9443 16.1011 17.8712L16.0585 17.7931L16.1115 17.7641V17.6936H16.4344L16.333 17.8819C16.3432 17.9 16.3548 17.925 16.3627 17.9553C16.3783 18.015 16.3791 18.0933 16.3334 18.1774L16.4299 18.3383H16.0238L16.1047 18.1765ZM16.5034 17.7037H16.9322L16.8274 17.8832C16.8374 17.9012 16.8487 17.9257 16.8564 17.9553C16.8721 18.015 16.8729 18.0933 16.8271 18.1774L16.9236 18.3383H16.5175L16.5984 18.1765C16.5976 18.1745 16.5967 18.1724 16.5957 18.1702C16.5868 18.1488 16.576 18.1186 16.5687 18.0837C16.5565 18.0251 16.5527 17.9443 16.5948 17.8712L16.5034 17.7037ZM16.7121 18.1346C16.7507 18.0739 16.749 18.0224 16.7395 17.9859C16.7342 17.966 16.7263 17.9497 16.7198 17.9385C16.7166 17.933 16.7137 17.9288 16.7119 17.9263C16.711 17.9251 16.7104 17.9243 16.7101 17.9239C16.71 17.9238 16.71 17.9238 16.71 17.9237C16.7099 17.9237 16.7099 17.9236 16.7099 17.9236L16.707 17.9202C16.6787 17.9591 16.6767 18.0092 16.6871 18.059C16.6924 18.0845 16.7005 18.1072 16.7073 18.1237C16.709 18.1277 16.7106 18.1314 16.7121 18.1346ZM16.7141 17.8375L16.7217 17.8246H16.7071L16.7141 17.8375ZM9.97832 22.6798H10.3956L10.3059 22.8592C10.3154 22.8783 10.3266 22.9053 10.3341 22.9384C10.3477 22.9983 10.349 23.0777 10.3072 23.1622L10.4046 23.3245H9.96936L10.0681 23.1599C10.0676 23.1588 10.0671 23.1576 10.0666 23.1564C10.0577 23.135 10.0469 23.1048 10.0396 23.0699C10.0273 23.0109 10.0235 22.9295 10.0665 22.8561L9.97832 22.6798ZM10.187 23.1969L10.1829 23.2036H10.191L10.187 23.1969ZM10.1872 23.1296C10.2264 23.0658 10.2259 23.0079 10.2162 22.9652C10.2112 22.9432 10.2037 22.9251 10.1975 22.9127C10.1944 22.9066 10.1917 22.902 10.19 22.8991C10.1891 22.8977 10.1885 22.8967 10.1881 22.8962C10.1881 22.8961 10.188 22.896 10.188 22.896C10.1879 22.8959 10.1879 22.8959 10.1879 22.8959L10.1872 22.8949L10.183 22.8998C10.1499 22.9396 10.147 22.9925 10.158 23.0452C10.1633 23.0707 10.1714 23.0934 10.1782 23.1099C10.1816 23.118 10.1846 23.1244 10.1867 23.1286C10.1869 23.1289 10.187 23.1293 10.1872 23.1296ZM10.187 22.8267L10.2 22.8007H10.174L10.187 22.8267ZM10.4317 22.6798H10.849L10.7593 22.8592C10.7688 22.8783 10.78 22.9053 10.7875 22.9384C10.8011 22.9983 10.8024 23.0777 10.7606 23.1622L10.858 23.3245H10.4228L10.5215 23.1599C10.521 23.1588 10.5205 23.1576 10.52 23.1564C10.5111 23.135 10.5003 23.1048 10.493 23.0699C10.4808 23.0109 10.4769 22.9295 10.5199 22.8561L10.4317 22.6798ZM10.6404 23.1969L10.6363 23.2036H10.6444L10.6404 23.1969ZM10.6406 23.1296C10.6798 23.0658 10.6793 23.0079 10.6696 22.9652C10.6646 22.9432 10.6571 22.9251 10.6509 22.9127C10.6478 22.9066 10.6451 22.902 10.6434 22.8991C10.6425 22.8977 10.6419 22.8967 10.6415 22.8962C10.6415 22.8961 10.6414 22.896 10.6414 22.896L10.6413 22.8959L10.6406 22.8949L10.6364 22.8998C10.6033 22.9396 10.6004 22.9925 10.6114 23.0452C10.6167 23.0707 10.6248 23.0934 10.6316 23.1099C10.635 23.118 10.638 23.1244 10.6401 23.1286C10.6403 23.1289 10.6404 23.1293 10.6406 23.1296ZM10.6404 22.8267L10.6534 22.8007H10.6274L10.6404 22.8267ZM10.9254 22.6798H11.3427L11.253 22.8592C11.2625 22.8783 11.2737 22.9053 11.2812 22.9384C11.2948 22.9983 11.2961 23.0777 11.2543 23.1622L11.3517 23.3245H10.9355L11.0164 23.1627C11.0156 23.1607 11.0147 23.1586 11.0137 23.1564C11.0049 23.135 10.994 23.1048 10.9868 23.0699C10.9745 23.0109 10.9706 22.9295 11.0136 22.8561L10.9254 22.6798ZM11.1343 23.1973L11.1312 23.2036H11.1382L11.1343 23.1973ZM11.1343 23.1296C11.1735 23.0658 11.173 23.0079 11.1633 22.9652C11.1583 22.9432 11.1508 22.9251 11.1446 22.9127C11.1415 22.9066 11.1388 22.902 11.1371 22.8991C11.1362 22.8977 11.1356 22.8967 11.1353 22.8962C11.1352 22.8961 11.1351 22.896 11.1351 22.896C11.135 22.8959 11.135 22.8959 11.135 22.8959C11.135 22.8959 11.135 22.8959 11.135 22.8959L11.1343 22.8949L11.1301 22.8998C11.097 22.9396 11.0941 22.9925 11.1051 23.0452C11.1104 23.0707 11.1185 23.0934 11.1253 23.1099C11.1287 23.118 11.1317 23.1244 11.1338 23.1286C11.134 23.1289 11.1341 23.1293 11.1343 23.1296ZM11.1341 22.8267L11.1471 22.8007H11.1211L11.1341 22.8267Z" fill="black"/>
<path d="M11.4697 29.6016C12.6123 29.6016 14.0186 29.3643 14.6777 29.0303L16.1279 28.8984L16.1631 30.665C14.9326 31.3418 12.1025 31.4912 11.4785 31.4824C10.8545 31.4824 7.98926 31.3418 6.75 30.665L6.76758 28.8896L8.21777 29.0215C9.25418 29.4228 10.3585 29.6198 11.4697 29.6016" fill="#FFFF00"/>
<path fill-rule="evenodd" clip-rule="evenodd" d="M6.75628 28.8784L8.22642 29.0111L8.22904 29.0125C8.55944 29.1826 9.08658 29.3259 9.67432 29.4265C10.2617 29.5271 10.9082 29.5849 11.4766 29.5849C12.05 29.5849 12.6864 29.5271 13.2624 29.4265C13.8388 29.3259 14.3534 29.1826 14.6839 29.0125L14.6865 29.0111L16.1464 28.8886L16.1771 30.6766L16.1692 30.681C15.5568 31.02 14.539 31.2267 13.5995 31.3476C12.6595 31.4686 11.7948 31.5039 11.4866 31.4988C11.1735 31.4988 10.2989 31.4635 9.34744 31.3426C8.39657 31.2217 7.3662 31.015 6.74374 30.671L6.73584 30.6666L6.75628 28.8784ZM6.78613 28.9115L6.76627 30.6489C7.38396 30.9872 8.40437 31.1922 9.35125 31.3126C10.3015 31.4334 11.175 31.4686 11.4867 31.4686L11.4869 31.4686C11.7934 31.4736 12.6566 31.4384 13.5956 31.3176C14.5311 31.1973 15.5389 30.9923 16.1466 30.659L16.1168 28.9214L14.695 29.0407C14.3604 29.2124 13.8434 29.3557 13.2676 29.4563C12.69 29.5572 12.0518 29.6152 11.4766 29.6152C10.9064 29.6152 10.2582 29.5572 9.66922 29.4563C9.08216 29.3558 8.55257 29.2124 8.21783 29.0407L6.78613 28.9115Z" fill="black"/>
<path d="M3.02342 22.0605L4.29783 22.4648L3.91111 24.5303L2.70701 24.7236C2.70701 24.7236 2.50486 23.6338 3.02342 22.0605Z" fill="#FFFF00"/>
<path fill-rule="evenodd" clip-rule="evenodd" d="M3.02348 22.0465L4.31994 22.458L3.93268 24.5466L2.6985 24.742L2.69582 24.7275L2.71068 24.7247C2.69582 24.7275 2.69582 24.7275 2.69582 24.7275L2.69577 24.7272L2.69566 24.7266L2.69522 24.7241C2.69485 24.722 2.69431 24.7188 2.69362 24.7145C2.69226 24.7061 2.69033 24.6935 2.68807 24.677C2.68355 24.6439 2.67769 24.595 2.67232 24.5315C2.66157 24.4044 2.65273 24.2187 2.66031 23.9839C2.67546 23.5142 2.75628 22.8479 3.01877 22.0606L3.02348 22.0465ZM2.7231 24.7075L3.90686 24.5201L4.28536 22.4787L3.04274 22.0843C2.78502 22.8623 2.7055 23.5205 2.69051 23.9848C2.68298 24.2184 2.69177 24.4029 2.70243 24.5289C2.70776 24.5919 2.71356 24.6403 2.71801 24.6729C2.72004 24.6877 2.7218 24.6993 2.7231 24.7075Z" fill="black"/>
<path d="M3.91113 24.5127L2.70703 24.7236L3.47168 23.6338L3.91113 24.5127Z" fill="#7E7E7E"/>
<path fill-rule="evenodd" clip-rule="evenodd" d="M3.47868 23.6077L3.9426 24.5247L2.67737 24.7355L3.47868 23.6077ZM2.74411 24.6938L3.89707 24.5017L3.47432 23.666L2.74411 24.6938Z" fill="black"/>
<path d="M2.25875 23.5547L3.48922 23.6426C3.51559 24.6797 3.64742 28.6523 8.39352 28.8721L8.2441 30.3223C2.46969 30.375 2.03024 25.4443 2.26754 23.5547" fill="#FFFF00"/>
<path fill-rule="evenodd" clip-rule="evenodd" d="M2.2807 23.5722C2.16729 24.52 2.2212 26.2142 3.01746 27.6663C3.41744 28.3958 4.00468 29.0641 4.85224 29.5464C5.67665 30.0154 6.74813 30.309 8.13457 30.3108L8.2291 30.2905L8.2334 30.3104C8.2352 30.3104 8.237 30.3104 8.2388 30.3104L8.38688 28.8892C6.01438 28.7742 4.79443 27.7258 4.16477 26.5728C3.53985 25.4285 3.49737 24.1828 3.48195 23.651L2.2807 23.5722ZM8.13776 30.341C8.1758 30.3411 8.21408 30.3409 8.25259 30.3405L8.26606 30.3403L8.42026 28.8605L8.40427 28.8597C6.03151 28.7492 4.81718 27.7044 4.1913 26.5583C3.56471 25.4109 3.52688 24.1601 3.51176 23.6364L3.51137 23.6226L2.2684 23.5411L2.26741 23.5562L2.25241 23.5544C2.13631 24.5031 2.18663 26.214 2.99096 27.6809C3.39326 28.4146 3.98425 29.0872 4.8373 29.5726C5.63989 30.0293 6.67372 30.3198 7.9993 30.3399L6.77819 30.6027L6.78454 30.6323L8.13776 30.341Z" fill="black"/>
<path d="M19.8105 22.0781L18.5449 22.4824L18.9492 24.5391L20.1621 24.7324C20.1621 24.7324 20.3555 23.6514 19.8105 22.0781Z" fill="#FFFF00"/>
<path fill-rule="evenodd" clip-rule="evenodd" d="M19.8289 22.0566L19.8337 22.0706C20.1063 22.8629 20.1922 23.5317 20.2099 24.0027C20.2187 24.2382 20.2105 24.4242 20.2001 24.5514C20.1948 24.6151 20.1891 24.664 20.1846 24.6971C20.1823 24.7136 20.1804 24.7262 20.1791 24.7347C20.1784 24.7389 20.1778 24.7421 20.1775 24.7443L20.177 24.7468L20.1769 24.7474L20.1769 24.7476C20.1769 24.7476 20.1769 24.7476 20.162 24.7449L20.1769 24.7476L20.1742 24.7622L18.9401 24.5566L18.5325 22.4681L19.8289 22.0566ZM20.1496 24.7275C20.1509 24.7193 20.1526 24.7078 20.1546 24.693C20.159 24.6604 20.1648 24.612 20.1699 24.549C20.1803 24.4228 20.1884 24.238 20.1797 24.0038C20.1622 23.5382 20.0777 22.8775 19.8099 22.0944L18.5673 22.4888L18.9657 24.5302L20.1496 24.7275Z" fill="black"/>
<path d="M18.9492 24.5215L20.1533 24.7412L19.3799 23.6514L18.9404 24.5215" fill="#7E7E7E"/>
<path fill-rule="evenodd" clip-rule="evenodd" d="M19.3838 23.6278L20.1959 24.756L18.9303 24.5346L19.3838 23.6278ZM19.3885 23.686L18.9755 24.5118L20.128 24.7135L19.3885 23.686Z" fill="black"/>
<path d="M20.5928 23.5635L19.3623 23.6514C19.3447 24.6885 19.248 28.6611 14.502 28.8809L14.6777 30.3223C20.4521 30.3926 20.8477 25.4531 20.6016 23.5635" fill="#FFFF00"/>
<path fill-rule="evenodd" clip-rule="evenodd" d="M20.6104 23.5502V23.5754C20.7364 24.5193 20.701 26.227 19.9096 27.6909C19.5135 28.4233 18.9282 29.0948 18.0792 29.5786C17.2732 30.038 16.2302 30.3278 14.8873 30.3408L16.1449 30.6027L16.1387 30.6323L14.7406 30.3411C14.7173 30.341 14.694 30.3408 14.6705 30.3405L14.6572 30.3403L14.4927 28.8705L14.5088 28.8698C16.8815 28.7643 18.0857 27.7196 18.7003 26.5723C19.3156 25.4237 19.3408 24.1704 19.3509 23.6466L19.3512 23.6327L20.6104 23.5502ZM14.7438 30.3109L14.6939 30.3005L14.6919 30.3105C14.6893 30.3105 14.6868 30.3105 14.6842 30.3104L14.5263 28.8993C16.8987 28.7893 18.1086 27.7409 18.7269 26.5866C19.3405 25.441 19.3706 24.193 19.3809 23.6611L20.5808 23.5824C20.7059 24.5232 20.6695 26.2217 19.883 27.6765C19.4893 28.4047 18.9077 29.0717 18.0643 29.5524C17.235 30.0249 16.1519 30.3179 14.7438 30.3109Z" fill="black"/>
<path d="M10.7051 30.4717C10.6699 30.4893 10.6172 30.4981 10.5733 30.4893L10.3447 30.4805L10.3623 30.1905L10.5908 30.2081C10.6348 30.2081 10.6787 30.2169 10.6963 30.2344C10.7402 30.252 10.7578 30.296 10.7578 30.3575C10.7578 30.4102 10.7315 30.4454 10.6963 30.4717M10.3184 30.9112L10.336 30.5684L10.5996 30.586C10.6875 30.5948 10.7578 30.5684 10.8018 30.5245C10.8457 30.4893 10.8721 30.4366 10.8721 30.3663C10.8765 30.3349 10.874 30.3029 10.8649 30.2726C10.8558 30.2423 10.8403 30.2143 10.8193 30.1905C10.7719 30.1442 10.7096 30.1162 10.6436 30.1114L10.2568 30.085L10.2041 30.9112H10.3184ZM11.1445 30.2344H11.4258L11.5225 30.252C11.5664 30.2784 11.584 30.3135 11.584 30.3751C11.584 30.4278 11.5752 30.4629 11.5401 30.4893C11.5023 30.5094 11.4597 30.5186 11.417 30.5157H11.1445V30.2344M11.1445 30.9551V30.6036L11.4082 30.6124C11.4522 30.6124 11.4961 30.6124 11.5137 30.6299C11.5488 30.6475 11.5752 30.6827 11.5752 30.7354V30.9376L11.5928 30.9639H11.7334V30.9463C11.7248 30.9418 11.7173 30.9356 11.7112 30.928C11.7052 30.9205 11.7008 30.9118 11.6983 30.9024C11.6925 30.8794 11.6896 30.8558 11.6895 30.8321V30.7178C11.6895 30.6651 11.6719 30.6299 11.6543 30.6124C11.6367 30.5881 11.6122 30.5698 11.584 30.5596C11.6192 30.542 11.6543 30.5157 11.6719 30.4893C11.6895 30.4542 11.707 30.419 11.707 30.3663C11.707 30.2784 11.6631 30.2081 11.584 30.1729C11.5341 30.1509 11.4803 30.1389 11.4258 30.1377H11.0303V30.9639H11.1445M12.0235 30.7881C11.9707 30.7232 11.9399 30.6432 11.9356 30.5596C11.9356 30.4454 11.9531 30.3575 12.0059 30.296C12.0326 30.2669 12.0653 30.244 12.1017 30.2288C12.1381 30.2136 12.1774 30.2066 12.2168 30.2081C12.255 30.2037 12.2936 30.2078 12.3301 30.2199C12.3665 30.232 12.3998 30.252 12.4277 30.2784C12.4893 30.3311 12.5156 30.4102 12.5244 30.5069C12.5312 30.5923 12.5129 30.6778 12.4717 30.753C12.4277 30.8233 12.3574 30.8672 12.252 30.8672C12.1465 30.8672 12.0762 30.8497 12.0147 30.7881M11.8828 30.2696C11.8319 30.3575 11.8075 30.4582 11.8125 30.5596C11.8213 30.6827 11.8565 30.7881 11.9356 30.8585C11.977 30.8991 12.0267 30.9303 12.0813 30.9501C12.1359 30.9698 12.1941 30.9775 12.252 30.9727C12.312 30.972 12.3711 30.9574 12.4244 30.9299C12.4778 30.9025 12.5241 30.8629 12.5596 30.8145C12.6218 30.7211 12.6526 30.6102 12.6475 30.4981C12.6444 30.3979 12.6072 30.3018 12.542 30.2256C12.4629 30.1377 12.3486 30.0938 12.1992 30.1026C12.0586 30.1026 11.9531 30.1641 11.8828 30.2696M15.75 29.0831C15.8379 29.0743 15.9082 29.0743 15.9697 29.0919C16.0576 29.127 16.1192 29.1885 16.1631 29.294L16.0488 29.3116C16.0295 29.2615 15.9918 29.2206 15.9434 29.1973C15.8878 29.1744 15.8266 29.1683 15.7676 29.1797C15.732 29.1858 15.6981 29.199 15.6679 29.2187C15.6376 29.2383 15.6117 29.2639 15.5918 29.294C15.5479 29.3555 15.5303 29.4434 15.5479 29.5577C15.5572 29.6433 15.5942 29.7235 15.6533 29.7862C15.7061 29.8389 15.7852 29.8565 15.8818 29.8477C15.9503 29.8382 16.0129 29.8038 16.0576 29.751C16.1104 29.6983 16.1192 29.628 16.1016 29.5313L15.8379 29.5753L15.8291 29.4874L16.1983 29.4258L16.2686 29.8653H16.1895L16.1455 29.7774L16.0576 29.8653C16.0137 29.9092 15.9522 29.9268 15.8818 29.9444C15.7837 29.9618 15.6826 29.9397 15.6006 29.8829C15.5542 29.8468 15.5155 29.8017 15.4868 29.7504C15.4581 29.6991 15.44 29.6425 15.4336 29.584C15.4192 29.5244 15.4173 29.4623 15.4279 29.4019C15.4385 29.3414 15.4613 29.2837 15.4951 29.2325C15.5256 29.1899 15.565 29.1545 15.6105 29.1287C15.656 29.1029 15.7066 29.0873 15.7588 29.0831M16.585 29.0215L16.8486 28.9249C16.8838 28.9073 16.919 28.9073 16.9453 28.9073C16.9981 28.9073 17.0332 28.9424 17.0508 28.9952C17.0684 29.0479 17.0684 29.0919 17.0508 29.127C17.0244 29.1534 16.9893 29.1797 16.9365 29.1973L16.6904 29.2852L16.585 29.0215M16.8486 29.6983L16.7256 29.3731L16.9717 29.2852C17.0019 29.2703 17.0348 29.2614 17.0684 29.2588C17.1123 29.2676 17.1475 29.294 17.1738 29.3467L17.2266 29.4698L17.2529 29.5313L17.2705 29.5577L17.4024 29.5049V29.4874C17.376 29.4874 17.3584 29.4786 17.3496 29.4522C17.332 29.4434 17.3233 29.417 17.3145 29.3907L17.2705 29.2852C17.2529 29.2413 17.2266 29.2149 17.209 29.1973C17.1813 29.1852 17.1513 29.1792 17.1211 29.1797L17.1738 29.0743C17.1738 29.0391 17.1738 28.9952 17.1563 28.9512C17.1211 28.8633 17.0684 28.8106 16.9805 28.8106C16.9236 28.8073 16.8666 28.8162 16.8135 28.837L16.4443 28.9688L16.7432 29.7422L16.8486 29.7071M17.8154 29.294L17.3496 28.6085L17.8594 28.2745L17.9209 28.3624L17.499 28.626L17.6397 28.837L18.0352 28.5909L18.0879 28.67L17.6924 28.9161L17.8506 29.1534L18.2901 28.8721L18.3428 28.96L17.8154 29.294M18.2285 28.0811L18.3604 27.9317C18.4307 27.8614 18.4922 27.835 18.5625 27.8438C18.6416 27.8438 18.7119 27.8878 18.791 27.9581C18.8468 28.0048 18.8893 28.0654 18.9141 28.1338C18.9317 28.1866 18.9229 28.2305 18.9141 28.2745C18.8982 28.3067 18.8774 28.3364 18.8526 28.3624L18.7207 28.503L18.2285 28.0811M18.9404 28.3975C19.0371 28.292 19.0547 28.1866 19.002 28.046C18.9652 27.9749 18.9144 27.9121 18.8526 27.8614C18.7781 27.791 18.6821 27.7476 18.5801 27.7383C18.4746 27.7295 18.3867 27.7647 18.3076 27.8526L18.0791 28.0987L18.7119 28.6524L18.9404 28.4063M19.4326 27.7647L18.7031 27.3252L18.7647 27.2374L19.4942 27.668L19.4326 27.7559M19.7227 27.2637L18.9317 26.9473L19.1602 26.3936L19.2568 26.4288L19.0723 26.8858L19.3096 26.9737L19.4854 26.5606L19.5733 26.5958L19.3975 27.0176L19.6611 27.1231L19.8633 26.6661L19.9512 26.7012L19.7227 27.2637M20.0742 26.2969L19.2481 26.1211L19.2832 25.9893L20.0479 25.7256L19.3711 25.5762L19.3975 25.4795L20.2236 25.6553L20.1973 25.7784L19.4326 26.042L20.1094 26.1915L20.083 26.2969M20.0127 25.2422L20.0215 25.1368C20.0742 25.1368 20.1094 25.1368 20.1445 25.1192C20.2061 25.084 20.2324 25.0225 20.25 24.9346C20.255 24.8934 20.252 24.8517 20.2412 24.8116C20.2236 24.7501 20.1885 24.7061 20.127 24.7061C20.0742 24.6973 20.0391 24.7061 20.0215 24.7325C19.9951 24.7588 19.9776 24.8028 19.96 24.8643L19.916 24.9698C19.8985 25.0401 19.8721 25.0928 19.8457 25.1192C19.8106 25.1719 19.7578 25.1895 19.6875 25.1807C19.6537 25.1789 19.6207 25.1702 19.5905 25.1551C19.5602 25.14 19.5334 25.1188 19.5117 25.0928C19.459 25.0401 19.4414 24.961 19.4502 24.8643C19.459 24.7764 19.4854 24.7061 19.5381 24.6534C19.582 24.6006 19.6524 24.5655 19.749 24.5831L19.7402 24.6885C19.6963 24.6885 19.6524 24.6885 19.6348 24.7149C19.582 24.7413 19.5557 24.8028 19.5469 24.8819C19.5469 24.9434 19.5469 24.9874 19.582 25.0225C19.6084 25.0577 19.6348 25.0752 19.6699 25.0752C19.7139 25.0752 19.749 25.0752 19.7666 25.0401L19.8281 24.8907L19.8633 24.7764C19.8809 24.7237 19.9072 24.6885 19.9336 24.6534C19.9776 24.6094 20.0391 24.5919 20.1094 24.5919C20.2061 24.6006 20.2764 24.6446 20.3027 24.7149C20.3379 24.7852 20.3555 24.8555 20.3467 24.9522C20.3418 25.039 20.3041 25.1207 20.2412 25.1807C20.1797 25.2335 20.1094 25.251 20.0127 25.2422M2.8213 25.1895L2.84767 25.295C2.79494 25.3038 2.75978 25.3213 2.73341 25.3477C2.68947 25.3917 2.67189 25.462 2.68947 25.5586C2.69552 25.5954 2.70738 25.631 2.72462 25.6641C2.75978 25.7256 2.81251 25.752 2.87404 25.7432C2.91798 25.7344 2.94435 25.7169 2.96193 25.6817L2.98829 25.5411V25.4268C2.98829 25.3565 3.00587 25.295 3.01466 25.2686C3.04103 25.2159 3.09376 25.1807 3.16408 25.1631C3.23439 25.1544 3.3047 25.1631 3.35744 25.2159C3.41896 25.251 3.45411 25.3213 3.47169 25.4092C3.48878 25.4862 3.47949 25.5667 3.44533 25.6378C3.41017 25.7081 3.35743 25.7432 3.26076 25.7608L3.24318 25.6641C3.27564 25.6525 3.3055 25.6345 3.33107 25.6114C3.37501 25.5674 3.3838 25.5059 3.37501 25.4268C3.35744 25.3565 3.33986 25.3126 3.3047 25.295C3.29001 25.2833 3.273 25.275 3.25481 25.2704C3.23662 25.2659 3.21768 25.2653 3.19923 25.2686C3.17985 25.2677 3.16071 25.2733 3.14481 25.2844C3.12891 25.2955 3.11714 25.3116 3.11134 25.3301L3.10255 25.4883L3.09376 25.6026C3.09341 25.6516 3.08136 25.6998 3.05861 25.7432C3.04434 25.7718 3.02323 25.7963 2.99716 25.8147C2.97109 25.8331 2.94087 25.8448 2.90919 25.8487C2.8213 25.8663 2.73341 25.8399 2.68947 25.7784C2.63575 25.719 2.59928 25.646 2.584 25.5674C2.57401 25.5242 2.57275 25.4793 2.5803 25.4356C2.58784 25.3918 2.60404 25.35 2.62794 25.3126C2.64977 25.2804 2.67842 25.2536 2.71185 25.2338C2.74527 25.2141 2.78265 25.2019 2.8213 25.1983M2.76857 26.2794L3.58595 26.0333L3.77052 26.6045L3.67384 26.6397L3.51564 26.1739L3.26954 26.2442L3.41896 26.6836L3.32228 26.71L3.18165 26.2706L2.9004 26.3585L3.05861 26.8331L2.97072 26.8594L2.76857 26.2794M3.12892 27.2725L3.87599 26.877L3.96388 27.0176L3.44533 27.5538L4.1924 27.4307L4.2715 27.5626L3.52443 27.9581L3.47169 27.8702L3.91115 27.6329L3.99025 27.5977L4.10451 27.5362L3.35744 27.668L3.3047 27.5713L3.81447 27.0264L3.7881 27.044L3.70021 27.0879C3.67496 27.1045 3.64852 27.1192 3.62111 27.1319L3.18165 27.3604L3.12892 27.2725M4.51759 28.3711C4.48244 28.3624 4.44728 28.336 4.41212 28.3008L4.25392 28.1426L4.46486 27.9493L4.62306 28.1075C4.64937 28.1322 4.67032 28.1622 4.68458 28.1954C4.70216 28.2393 4.68458 28.2833 4.64064 28.3272C4.59669 28.3624 4.55275 28.3799 4.51759 28.3711ZM3.91993 28.4415L4.18361 28.2042L4.35939 28.3887C4.4297 28.4503 4.49122 28.4766 4.55275 28.4766C4.61803 28.4757 4.68066 28.4507 4.72853 28.4063C4.77292 28.3584 4.79797 28.2958 4.79884 28.2305C4.79884 28.1778 4.77247 28.1163 4.71974 28.0635L4.45607 27.7999L3.84083 28.3624L3.92872 28.4503M4.66701 29.1094L5.11525 28.4063L5.64259 28.7227L5.58986 28.8106L5.1504 28.5469L5.01857 28.7667L5.41408 29.004L5.37013 29.0919L4.96583 28.8458L4.81642 29.0831L5.25587 29.3467L5.20314 29.4346L4.66701 29.1094ZM5.98536 28.9688L6.25783 29.0567L6.34572 29.1006C6.38087 29.1358 6.38966 29.1797 6.36329 29.2325C6.34572 29.2852 6.32814 29.3204 6.28419 29.3292L6.15236 29.3204L5.89747 29.2325L5.98536 28.9688M5.75685 29.6631L5.87111 29.3292L6.1172 29.4083C6.16115 29.417 6.20509 29.4346 6.21388 29.4522C6.24025 29.4786 6.24904 29.5225 6.24025 29.5753L6.1963 29.7071L6.18751 29.7686V29.795L6.31935 29.8389V29.8213L6.30177 29.7598L6.31935 29.6983L6.35451 29.5928C6.36329 29.5401 6.37208 29.5049 6.35451 29.4874C6.35451 29.461 6.32814 29.4346 6.30177 29.4083C6.34572 29.4083 6.38966 29.3907 6.41603 29.3643C6.4424 29.3379 6.46876 29.3028 6.47755 29.2588C6.51271 29.171 6.49513 29.0919 6.42482 29.0391C6.383 29.0046 6.33539 28.9778 6.28419 28.96L5.90626 28.8458L5.64259 29.628L5.75685 29.6631" fill="#009FC5"/>
<path d="M6.89935 15.4336C6.98725 15.1963 7.89252 14.5547 10.8369 14.8359C10.8369 14.8359 11.3378 15.1435 11.6279 15.0996C11.8037 15.082 11.54 15.1172 11.3115 14.9326C11.0917 14.7568 11.0478 14.3789 11.5488 14.3965C12.0585 14.4053 13.9482 14.5107 13.9833 14.6865C14.0185 14.8535 12.9814 14.9238 12.6035 14.915C12.2167 14.9062 12.2519 15.0996 12.6386 15.0908C13.8427 15.0381 15.1523 14.6162 16.5322 15.6006C16.6992 15.7148 16.1191 15.7324 15.6708 15.5478C15.6708 15.5478 14.4404 15.6094 13.913 15.5215C13.913 15.5215 13.5175 15.8555 12.9814 15.8203C13.0517 15.9961 12.788 16.6289 11.1357 16.1455C10.8544 16.2334 9.86127 16.4004 9.96674 16.1015C9.70307 16.1015 9.24603 16.1894 9.17572 16.04C9.10541 15.8906 9.98432 15.6709 10.1425 15.5127C10.1425 15.5127 8.27924 15.5303 7.92767 15.3984C7.92767 15.3984 6.82904 15.6445 6.89935 15.4336" fill="#BC715F"/>
<path d="M7.49702 18.0351C7.53217 17.9824 7.54975 17.8769 7.63764 17.8857C7.81342 17.9297 7.94526 18.2724 8.16499 18.0527C8.25288 18.0351 8.27924 18.1406 8.34077 18.1582C8.38471 18.3428 8.54292 18.1142 8.64838 18.1318C8.89448 18.0264 9.18452 18 9.47456 18.0439C9.47456 18.2373 9.33393 18.4394 9.15815 18.5449C9.15815 18.7207 9.33393 18.8437 9.32514 19.0283C9.29877 19.0986 9.32514 19.2041 9.21967 19.2305C9.07905 19.2041 8.956 19.1953 8.84174 19.1162C8.82417 19.1074 8.81538 19.081 8.78901 19.0898C8.77143 19.1514 8.8769 19.2129 8.91206 19.2744C8.84174 19.3887 8.73628 19.2832 8.6396 19.2832C8.61323 19.3535 8.6396 19.4326 8.56928 19.4765C8.45503 19.4765 8.42866 19.3447 8.35835 19.2832C8.27924 19.3623 8.41108 19.4062 8.42866 19.4678C8.37592 19.7139 8.38471 19.9512 8.14741 20.1094L7.98042 20.1885C7.93647 20.0654 7.96284 19.8808 7.93647 19.749C7.84858 19.9072 7.76069 20.0478 7.62885 20.1797C7.45307 20.1269 7.36518 19.9336 7.33003 19.7666C7.29418 19.6745 7.2859 19.5739 7.30619 19.4771C7.32647 19.3804 7.37445 19.2916 7.44428 19.2217C7.40034 19.1338 7.22456 19.1514 7.19819 19.0107C6.93452 18.8349 6.80268 19.3008 6.63569 19.0635C6.60981 18.9462 6.61225 18.8244 6.64282 18.7082C6.67339 18.5921 6.7312 18.4849 6.81147 18.3955C6.76752 18.3076 6.64448 18.3252 6.57417 18.2724C6.41596 18.1318 6.17866 17.9912 6.19624 17.7451C6.41683 17.6652 6.65566 17.6501 6.88457 17.7015C7.11348 17.7529 7.32293 17.8687 7.48823 18.0351" fill="#008737"/>
<path d="M7.72557 18.0088C7.71678 18.2109 7.85741 18.0615 7.97166 18.1846C7.88377 18.1494 7.82225 18.334 7.73436 18.2285L7.68163 18.2813C7.71678 18.3516 7.76952 18.3604 7.71678 18.4395C7.62889 18.4746 7.60252 18.3516 7.55858 18.3076C7.55858 18.29 7.57616 18.2549 7.541 18.2373C7.48827 18.2813 7.43553 18.2988 7.36522 18.29C7.34764 18.2549 7.3037 18.2021 7.34764 18.167C7.41795 18.0791 7.52342 18.2021 7.57616 18.1406C7.58495 18.0791 7.53221 18.0088 7.60252 17.9648C7.64647 17.9736 7.70799 17.9473 7.72557 18.0088M8.27049 18.1758C8.27928 18.2109 8.25292 18.2637 8.30565 18.2988C8.37596 18.2637 8.44627 18.29 8.48143 18.3516C8.48143 18.3867 8.49022 18.4395 8.44627 18.457L8.34081 18.4307C8.34959 18.4131 8.31444 18.4043 8.30565 18.3779C8.2617 18.3691 8.22655 18.4043 8.20018 18.4307C8.22655 18.4658 8.28807 18.4922 8.27049 18.5361C8.20897 18.5977 8.1826 18.4834 8.11229 18.5186C8.05956 18.501 8.12108 18.4043 8.05077 18.3691C7.96288 18.3691 8.0244 18.5098 7.91014 18.457C7.87499 18.4131 7.83983 18.3516 7.87499 18.3076C7.90101 18.2922 7.93131 18.2856 7.96139 18.2887C7.99148 18.2919 8.01974 18.3047 8.04198 18.3252C8.11229 18.2461 8.11229 17.9648 8.27928 18.1758M7.59374 18.4658C7.63768 18.5361 7.57616 18.624 7.63768 18.6943C7.72557 18.5186 7.81346 18.7295 7.91893 18.7119C7.95409 18.7559 7.92772 18.8086 7.93651 18.8525C7.80467 18.8877 7.64647 18.9316 7.53221 18.8262L7.49706 18.8613C7.56737 18.9229 7.62889 19.002 7.57616 19.1074C7.47948 19.125 7.32127 19.1338 7.27733 19.0283C7.25096 18.9404 7.33885 18.8877 7.24217 18.8174C7.18065 18.9053 7.18065 19.0107 7.04881 18.9316C7.01108 18.9111 6.98271 18.8768 6.96961 18.8359C6.95652 18.7949 6.9597 18.7506 6.9785 18.7119C7.06639 18.5713 7.22459 18.7119 7.31249 18.6504C7.33006 18.5273 7.28612 18.4219 7.40038 18.3604C7.48827 18.3428 7.53221 18.4131 7.59374 18.4658" fill="#FFFF00"/>
<path d="M7.96289 18.5449C7.91895 18.747 7.76953 18.5361 7.69922 18.5273C7.78711 18.3515 7.84863 18.5801 7.96289 18.5449ZM8.4375 18.7646C8.33203 18.791 8.34961 18.6592 8.29688 18.6064L8.34082 18.5713C8.37598 18.6152 8.40234 18.7031 8.4375 18.7646" fill="white"/>
<path d="M8.29688 18.7207C8.32324 18.7911 8.22656 18.8526 8.31445 18.8965L8.38477 18.835C8.46387 18.8526 8.54297 18.8702 8.5957 18.9405C8.64844 19.0899 8.49902 19.0899 8.41992 19.1338H8.33203C8.34961 19.0811 8.28809 19.0635 8.2793 19.0459C8.26241 19.04 8.24411 19.0393 8.22683 19.044C8.20955 19.0487 8.19413 19.0586 8.18262 19.0723C8.2002 19.1602 8.31445 19.2481 8.2002 19.3272C8.09473 19.3272 7.93652 19.3623 7.94531 19.2217C7.91016 19.1338 8.05078 19.0196 7.90137 19.0108C7.84863 19.125 7.7959 19.2217 7.66406 19.125L7.68164 18.9668C7.80469 18.9668 7.9541 18.9932 8.00684 18.8526C8.04199 18.7559 7.94531 18.6592 8.0332 18.5889C8.16504 18.5537 8.23535 18.6416 8.29688 18.7207" fill="#FFFF00"/>
<path d="M8.209 18.9492C8.23537 19.0283 8.15627 19.0371 8.11232 19.0722C8.05959 19.0722 8.02443 19.0546 7.98928 19.0195C7.96291 18.9316 8.03322 18.914 8.07717 18.8789C8.13869 18.8525 8.16506 18.9228 8.209 18.9492" fill="black"/>
<path d="M8.12988 19.002C8.12109 19.0195 8.09473 19.0107 8.07715 19.0195L8.05957 18.9316C8.10352 18.9316 8.14746 18.9404 8.12988 19.002Z" fill="white"/>
</g>
<defs>
<clipPath id="clip0_4_5867">
<rect width="60" height="45" fill="white"/>
</clipPath>
</defs>
</svg>
