<svg width="60" height="45" viewBox="0 0 60 45" fill="none" xmlns="http://www.w3.org/2000/svg">
<g clip-path="url(#clip0_4_1104)">
<path fill-rule="evenodd" clip-rule="evenodd" d="M-4.12732 0H85.8727V45H-4.12732V0Z" fill="white"/>
<path fill-rule="evenodd" clip-rule="evenodd" d="M-4.12732 29.9971H85.8727V45H-4.12732V29.9971Z" fill="#D50000"/>
<path fill-rule="evenodd" clip-rule="evenodd" d="M-4.12732 15.0029H85.8727V29.9971H-4.12732V15.0029Z" fill="#0000BF"/>
<path fill-rule="evenodd" clip-rule="evenodd" d="M21.3961 8.17383C21.0446 13.5879 20.8336 16.5586 20.0162 17.9297C19.1198 19.4062 18.2584 20.4873 14.7692 21.7969C11.2887 20.4873 10.4274 19.4062 9.53088 17.9297C8.70471 16.5586 8.50256 13.5879 8.151 8.17383L8.66077 7.99805C9.69788 7.68164 10.4713 7.42676 11.0426 7.3125C11.86 7.13672 12.5631 6.94336 14.7604 6.89941C16.9576 6.93457 17.6608 7.14551 18.4781 7.32129C19.0406 7.44434 19.8492 7.67285 20.8776 7.99805L21.3961 8.17383Z" fill="#D50000"/>
<path fill-rule="evenodd" clip-rule="evenodd" d="M20.8864 7.99805C20.5524 13.4033 20.2711 15.8818 19.8317 17.0684C18.9879 19.1074 17.652 20.2236 14.7692 21.2871C11.8864 20.2236 10.5504 19.1074 9.69788 17.0684C9.25842 15.873 8.99475 13.4033 8.66077 7.98926C9.6803 7.67285 10.4713 7.42676 11.0426 7.3125C11.86 7.13672 12.5631 6.93457 14.7604 6.89941C16.9576 6.93457 17.6608 7.13672 18.4781 7.3125C19.2917 7.4977 20.0954 7.72357 20.8864 7.98926V7.99805Z" fill="#0000BF"/>
<path fill-rule="evenodd" clip-rule="evenodd" d="M14.7692 9.65039L14.901 9.97559L15.5162 10.0635L15.1207 10.3008L15.4987 10.5557L14.9449 10.6436L14.7692 10.9424L14.5934 10.6348L14.066 10.5645L14.4176 10.3008L14.0485 10.0635L14.6373 9.97559L14.7692 9.65039V9.65039Z" fill="#FFDF00"/>
<path fill-rule="evenodd" clip-rule="evenodd" d="M19.6295 15.7852L19.2867 15.5215L19.0494 15.1172L18.5748 14.7041L18.3199 14.291L17.8453 13.8604L17.6168 13.4473L17.3531 13.2451L17.1949 13.0781L16.7555 13.4561L16.527 13.8691L16.2369 14.1328L15.9117 13.8779L15.6744 13.4561L14.7692 11.8477L13.8639 13.4561L13.6266 13.8779L13.3014 14.1328L13.0114 13.8691L12.774 13.4561L12.3434 13.0781L12.1764 13.2363L11.9215 13.4473L11.693 13.8604L11.2184 14.291L10.9635 14.7041L10.4889 15.1172L10.2516 15.5215L9.90881 15.7852C10.102 16.9949 10.6745 18.1121 11.5436 18.9756C12.4865 19.7825 13.5797 20.3949 14.7604 20.7773C15.95 20.4034 17.0507 19.7903 17.9948 18.9756C18.5045 18.4482 19.4537 17.2793 19.6295 15.7852V15.7852Z" fill="white"/>
<path fill-rule="evenodd" clip-rule="evenodd" d="M16.2106 7.37402L16.3512 7.69922L16.9664 7.78711L16.5621 8.02441L16.9489 8.2793L16.3951 8.36719L16.2194 8.66602L16.0436 8.3584L15.5162 8.28809L15.8678 8.02441L15.4987 7.78711L16.0787 7.69922L16.2194 7.37402H16.2106ZM13.3102 7.37402L13.4508 7.69922L14.066 7.77832L13.6705 8.01562L14.0485 8.27051L13.4948 8.3584L13.319 8.65723L13.1432 8.3584L12.6158 8.2793L12.9674 8.01562L12.5983 7.77832L13.1871 7.69043L13.319 7.36523L13.3102 7.37402Z" fill="#FFDF00"/>
<path fill-rule="evenodd" clip-rule="evenodd" d="M18.8737 17.8418H18.2233L17.608 17.7979L16.8785 17.4463H16.0524L15.3405 17.7979L14.7692 17.8506L14.2067 17.7979L13.4948 17.4463H12.6598L11.9215 17.7979L11.3151 17.8506L10.6471 17.8418L10.3307 17.2969L10.3395 17.2793L11.3239 17.4463L11.9303 17.4023L12.6598 17.042H13.486L14.2067 17.3936L14.7692 17.4463L15.3405 17.3936L16.0524 17.042H16.8785L17.6168 17.3936L18.2233 17.4463L19.1725 17.2705L19.1901 17.3057L18.8649 17.8418H18.8737ZM11.2799 18.6768L11.9303 18.6328L12.6598 18.2813H13.486L14.2067 18.6328L14.7692 18.6768L15.3317 18.6328L16.0524 18.2813H16.8785L17.608 18.6328L18.2672 18.6768L18.6891 18.1494H18.6803L18.2233 18.2725L17.6168 18.2285L16.8873 17.877H16.0612L15.3405 18.2285L14.778 18.2813L14.2067 18.2285L13.4948 17.877H12.6598L11.9215 18.2285L11.3151 18.2813L10.8756 18.167V18.1846L11.2711 18.6768H11.2799Z" fill="#0000BF"/>
</g>
<defs>
<clipPath id="clip0_4_1104">
<rect width="60" height="45" fill="white"/>
</clipPath>
</defs>
</svg>
