<svg width="60" height="45" viewBox="0 0 60 45" fill="none" xmlns="http://www.w3.org/2000/svg">
<g clip-path="url(#clip0_4_4212)">
<path fill-rule="evenodd" clip-rule="evenodd" d="M-3.75 30.0059H63.75V37.5029H-3.75V30.0059Z" fill="#FFE700"/>
<path fill-rule="evenodd" clip-rule="evenodd" d="M-3.75 22.5H63.75V29.9971H-3.75V22.5Z" fill="black"/>
<path fill-rule="evenodd" clip-rule="evenodd" d="M-3.75 15.0029H63.75V22.5H-3.75V15.0029Z" fill="#DE3908"/>
<path fill-rule="evenodd" clip-rule="evenodd" d="M-3.75 7.50586H63.75V15.0029H-3.75V7.50586Z" fill="#FFE700"/>
<path fill-rule="evenodd" clip-rule="evenodd" d="M-3.75 0H63.75V7.49707H-3.75V0Z" fill="black"/>
<path fill-rule="evenodd" clip-rule="evenodd" d="M37.0049 22.5C37.0049 24.3578 36.2669 26.1395 34.9532 27.4532C33.6395 28.7669 31.8578 29.5049 30 29.5049C28.1422 29.5049 26.3605 28.7669 25.0468 27.4532C23.7331 26.1395 22.9951 24.3578 22.9951 22.5C22.9951 20.6422 23.7331 18.8605 25.0468 17.5468C26.3605 16.2331 28.1422 15.4951 30 15.4951C31.8578 15.4951 33.6395 16.2331 34.9532 17.5468C36.2669 18.8605 37.0049 20.6422 37.0049 22.5V22.5Z" fill="#FFFDFF"/>
<path fill-rule="evenodd" clip-rule="evenodd" d="M30 15.5391C28.1538 15.5391 26.3833 16.2724 25.0779 17.5779C23.7724 18.8833 23.0391 20.6538 23.0391 22.5C23.0391 24.3462 23.7724 26.1167 25.0779 27.4221C26.3833 28.7276 28.1538 29.4609 30 29.4609C31.8462 29.4609 33.6167 28.7276 34.9221 27.4221C36.2276 26.1167 36.9609 24.3462 36.9609 22.5C36.9609 20.6538 36.2276 18.8833 34.9221 17.5779C33.6167 16.2724 31.8462 15.5391 30 15.5391ZM25.0157 17.5157C26.3376 16.1938 28.1305 15.4512 30 15.4512C31.8695 15.4512 33.6624 16.1938 34.9843 17.5157C36.3062 18.8376 37.0488 20.6305 37.0488 22.5C37.0488 24.3695 36.3062 26.1624 34.9843 27.4843C33.6624 28.8062 31.8695 29.5488 30 29.5488C28.1305 29.5488 26.3376 28.8062 25.0157 27.4843C23.6938 26.1624 22.9512 24.3695 22.9512 22.5C22.9512 20.6305 23.6938 18.8376 25.0157 17.5157Z" fill="black"/>
<path fill-rule="evenodd" clip-rule="evenodd" d="M28.7695 17.1299L28.3125 16.2949C28.4883 16.1191 28.7783 15.9785 29.2529 15.9785L29.2002 16.9014L28.7607 17.1299H28.7695Z" fill="#DE3108"/>
<path fill-rule="evenodd" clip-rule="evenodd" d="M28.3672 16.3033L28.7855 17.0675L29.1577 16.8739L29.2064 16.0229C28.7897 16.0314 28.5295 16.1532 28.3672 16.3033ZM28.8277 17.1446L29.2426 16.9288L29.2994 15.9346H29.2529C28.7691 15.9346 28.467 16.0782 28.2814 16.2638L28.2581 16.2871L28.731 17.151L28.7523 17.1393L28.7607 17.1738H28.8437L28.8277 17.1446Z" fill="black"/>
<path fill-rule="evenodd" clip-rule="evenodd" d="M29.209 16.9014L29.2705 15.9785C29.2705 15.9785 30.2109 15.9258 30.7207 16.541L30.2197 17.2617L29.2002 16.9102L29.209 16.9014Z" fill="#FFE700"/>
<path fill-rule="evenodd" clip-rule="evenodd" d="M29.3117 16.0214L29.2543 16.8824L30.2026 17.2094L30.6653 16.5438C30.4206 16.2643 30.0808 16.1329 29.7953 16.0721C29.6487 16.0408 29.5176 16.0284 29.4233 16.0238C29.3761 16.0215 29.3382 16.0212 29.3123 16.0214C29.3121 16.0214 29.3119 16.0214 29.3117 16.0214ZM29.1662 16.882L29.2292 15.9368L29.268 15.9347L29.2705 15.9785C29.268 15.9347 29.268 15.9347 29.268 15.9347L29.2681 15.9347L29.2683 15.9347L29.2689 15.9346L29.2712 15.9345C29.2732 15.9344 29.276 15.9343 29.2797 15.9342C29.287 15.9339 29.2978 15.9337 29.3115 15.9335C29.339 15.9333 29.3785 15.9336 29.4275 15.936C29.5254 15.9408 29.6613 15.9536 29.8136 15.9861C30.1172 16.0509 30.4908 16.1947 30.7545 16.513L30.7758 16.5387L30.2368 17.3141L29.1194 16.9288L29.1662 16.882Z" fill="black"/>
<path fill-rule="evenodd" clip-rule="evenodd" d="M30.2285 17.2529L30.6943 16.5322C31.002 16.8574 31.1338 17.0859 31.1777 17.4375C31.1865 17.4463 30.4482 17.6221 30.4482 17.6133L30.2285 17.2529V17.2529Z" fill="#DE3108"/>
<path fill-rule="evenodd" clip-rule="evenodd" d="M30.6878 16.4614L30.7262 16.5021C31.0371 16.8307 31.1753 17.0671 31.221 17.4299C31.2221 17.4357 31.222 17.442 31.2205 17.4483C31.2176 17.4601 31.2106 17.4672 31.2084 17.4695C31.2033 17.4744 31.198 17.4771 31.1967 17.4778L31.1966 17.4779C31.1927 17.4799 31.1886 17.4814 31.1858 17.4824C31.1796 17.4847 31.171 17.4873 31.1612 17.4902C31.1412 17.496 31.1125 17.5037 31.0784 17.5125C31.0101 17.5302 30.9184 17.5528 30.8265 17.5748C30.7346 17.5968 30.6424 17.6183 30.573 17.6337C30.5384 17.6414 30.5091 17.6477 30.4884 17.6518C30.4782 17.6538 30.4695 17.6554 30.463 17.6564C30.46 17.6568 30.4563 17.6573 30.4527 17.6575C30.4514 17.6576 30.4474 17.6578 30.4428 17.6571C30.4409 17.6569 30.4349 17.656 30.4282 17.6525C30.4236 17.6502 30.4148 17.6442 30.4092 17.6337L30.191 17.2759L30.2285 17.253L30.1916 17.2291L30.6878 16.4614ZM30.2804 17.2537L30.4707 17.5657C30.4709 17.5657 30.4712 17.5656 30.4714 17.5655C30.4911 17.5617 30.5195 17.5556 30.5539 17.5479C30.6227 17.5326 30.7144 17.5112 30.806 17.4893C30.8976 17.4674 30.9888 17.4449 31.0564 17.4274C31.0862 17.4197 31.1111 17.4131 31.1294 17.4079C31.0848 17.1026 30.9667 16.8919 30.7007 16.6034L30.2804 17.2537ZM30.4869 17.5923L30.4851 17.5894C30.4857 17.5903 30.4863 17.5913 30.4869 17.5923Z" fill="black"/>
<path fill-rule="evenodd" clip-rule="evenodd" d="M28.9981 29.1006C28.9981 29.1006 29.8682 28.1074 31.5557 28.3184C31.3008 27.9053 30.4746 27.958 30.4746 27.958C30.4746 27.958 30.2285 26.0244 30.4219 25.919C30.6153 25.8135 31.4766 25.9277 31.4766 25.9277C31.5821 25.9277 31.7754 25.6289 31.6172 25.4356C31.4678 25.2422 31.0196 24.5127 31.2041 24.3633C31.3887 24.2227 32.3819 24.4512 32.3819 24.4512L29.5694 20.8477C29.5694 20.8477 29.2793 19.4854 29.8594 18.8262C30.5537 18.2549 30.4746 17.6309 30.4571 17.6397C30.3604 17.0069 29.4024 16.5586 28.752 17.1387C28.374 17.5957 28.6289 17.9473 28.6289 17.9473C28.6289 17.9473 27.6182 18.2197 27.583 18.3955C27.5391 18.5713 28.7168 18.3692 28.7168 18.3692L28.6026 19.169C28.6026 19.169 26.3174 21.2432 28.0752 23.0361L28.128 22.9658C28.128 22.9658 28.7432 23.7217 29.3848 23.8887C30 24.5039 29.9385 24.416 29.9385 24.416C29.9385 24.416 30.0528 25.3916 29.9385 25.585C29.7891 25.541 28.2422 25.4795 28.0137 25.5674C27.8028 25.6377 27.0117 25.5938 27.2051 26.8945L27.4951 26.2354C27.4951 26.2354 27.4688 26.7012 27.6621 26.8682C27.627 26.376 27.8467 26.042 27.8467 26.042C27.8467 26.042 27.8819 26.5869 28.0049 26.6572C28.128 26.7451 28.128 25.7783 28.7959 25.8662C29.4463 25.9453 29.9297 25.919 29.9297 25.919C29.9297 25.919 30.1494 27.7998 30.0791 27.9756C29.6045 27.8613 28.4619 28.0195 28.3916 28.3096C29.0596 28.2656 29.3672 28.3447 29.3672 28.3447C29.3672 28.3447 28.8311 28.8281 28.9981 29.1006V29.1006Z" fill="black"/>
<path fill-rule="evenodd" clip-rule="evenodd" d="M30.4945 17.6234C30.4393 17.2937 30.1648 17.018 29.8254 16.8971C29.4808 16.7742 29.063 16.8082 28.7256 17.1092C28.7241 17.1105 28.7227 17.1119 28.7215 17.1135C28.5258 17.3501 28.4917 17.5629 28.5094 17.7188C28.5182 17.7961 28.5396 17.8583 28.5589 17.9014C28.5624 17.9091 28.5658 17.9163 28.5691 17.9228C28.5416 17.9306 28.5039 17.9414 28.4592 17.9547C28.3635 17.9831 28.2354 18.0228 28.106 18.0681C27.977 18.1134 27.8454 18.1646 27.7434 18.216C27.6926 18.2416 27.6476 18.2681 27.6136 18.2946C27.5818 18.3195 27.5521 18.3503 27.5444 18.3868C27.5392 18.4087 27.5434 18.4303 27.557 18.4481C27.5693 18.4643 27.5871 18.4746 27.6043 18.4815C27.6386 18.4954 27.6865 18.5021 27.7394 18.505C27.8469 18.511 27.9925 18.5019 28.1373 18.4876C28.2826 18.4732 28.4292 18.4534 28.5392 18.4371C28.5928 18.4292 28.6379 18.4221 28.67 18.4169L28.5654 19.1495C28.5613 19.1533 28.5561 19.1582 28.5499 19.1641C28.5333 19.18 28.5094 19.2035 28.4795 19.2339C28.4199 19.2947 28.3368 19.3835 28.2426 19.4956C28.0545 19.7197 27.8216 20.0379 27.6439 20.4133C27.4663 20.7885 27.3429 21.2229 27.3766 21.6784C27.4102 22.1348 27.6013 22.6093 28.0469 23.0638C28.055 23.0721 28.0663 23.0764 28.0778 23.0756C28.0893 23.0748 28.0999 23.0691 28.1068 23.0599L28.1298 23.0292C28.1479 23.0502 28.1733 23.0789 28.205 23.1133C28.2733 23.1875 28.3712 23.2881 28.4893 23.3941C28.7221 23.6028 29.0378 23.836 29.3643 23.9242C29.6666 24.2264 29.804 24.3572 29.866 24.4126C29.8816 24.4265 29.8929 24.4361 29.9011 24.4425C29.9013 24.4426 29.9015 24.4428 29.9017 24.443C29.9023 24.4485 29.903 24.4551 29.9038 24.4625C29.9067 24.4894 29.9107 24.5281 29.9152 24.5752C29.9241 24.6693 29.9347 24.7968 29.9418 24.9301C29.9489 25.0636 29.9524 25.2022 29.9472 25.319C29.9445 25.3774 29.9397 25.4295 29.9323 25.4725C29.9275 25.5001 29.9219 25.5225 29.9157 25.5398C29.8921 25.5359 29.8615 25.5322 29.8262 25.5286C29.7685 25.5228 29.6943 25.5171 29.6093 25.5118C29.4391 25.5012 29.2241 25.4921 29.0066 25.4872C28.7893 25.4822 28.569 25.4814 28.3885 25.4873C28.2983 25.4903 28.2175 25.495 28.1518 25.5018C28.0879 25.5083 28.0344 25.5172 28.0004 25.5301C27.977 25.5378 27.9447 25.5443 27.9029 25.5524L27.8988 25.5532C27.8584 25.5611 27.8113 25.5702 27.7612 25.5832C27.6576 25.61 27.5391 25.6536 27.433 25.7387C27.2177 25.9114 27.0682 26.2427 27.1659 26.9003C27.1685 26.9178 27.1823 26.9314 27.1998 26.9337C27.2173 26.9361 27.2342 26.9266 27.2413 26.9105L27.459 26.4157C27.4608 26.4406 27.4634 26.4669 27.4669 26.4942C27.4759 26.5646 27.4912 26.6416 27.5173 26.7125C27.5433 26.7831 27.5809 26.8503 27.6362 26.8981C27.6483 26.9085 27.6655 26.9107 27.6798 26.9035C27.6941 26.8963 27.7027 26.8813 27.7015 26.8653C27.6844 26.6258 27.7294 26.4247 27.7785 26.2835C27.7924 26.2438 27.8066 26.2088 27.8198 26.1792C27.8249 26.224 27.8317 26.2762 27.8406 26.3297C27.8528 26.4031 27.8692 26.4802 27.8908 26.5441C27.9016 26.576 27.914 26.6058 27.9287 26.6307C27.9426 26.6544 27.9604 26.6768 27.9836 26.6906C27.9987 26.7008 28.0181 26.7062 28.0388 26.6995C28.0574 26.6935 28.0702 26.6798 28.0787 26.6682C28.0956 26.6451 28.11 26.6096 28.1236 26.5718C28.1317 26.5494 28.14 26.5249 28.1488 26.4989C28.1712 26.4323 28.1971 26.3557 28.2321 26.2779C28.2804 26.1705 28.3437 26.0672 28.4325 25.9959C28.5199 25.9258 28.6344 25.8848 28.7907 25.9054L28.7911 25.9055C29.1179 25.9452 29.4028 25.9585 29.606 25.9618C29.7077 25.9634 29.7889 25.9626 29.8449 25.9614C29.8647 25.9609 29.8813 25.9604 29.8946 25.96C29.896 25.9721 29.8977 25.987 29.8997 26.0046C29.9055 26.0563 29.9138 26.1304 29.9236 26.2199C29.9431 26.3988 29.9683 26.6392 29.9914 26.885C30.0144 27.131 30.0352 27.3819 30.0459 27.5822C30.0512 27.6824 30.054 27.7693 30.0533 27.8363C30.053 27.8699 30.0517 27.8979 30.0496 27.9197C30.0493 27.9228 30.049 27.9257 30.0487 27.9285C29.8008 27.8796 29.4144 27.8933 29.077 27.952C28.8984 27.983 28.7308 28.0271 28.6025 28.0827C28.5383 28.1104 28.4825 28.1417 28.4398 28.1767C28.3973 28.2114 28.3647 28.2525 28.3532 28.3002C28.3502 28.3125 28.3532 28.3254 28.3613 28.335C28.3694 28.3447 28.3816 28.3499 28.3942 28.349C28.7262 28.3272 28.9681 28.336 29.1264 28.3501C29.1945 28.3561 29.2471 28.3632 29.2848 28.3692C29.2764 28.3776 29.2672 28.387 29.2575 28.3971C29.2091 28.4475 29.146 28.5178 29.088 28.5971C29.0303 28.6761 28.9762 28.766 28.9476 28.8555C28.919 28.9449 28.9142 29.0395 28.9643 29.1213L28.998 29.1006C29.0278 29.1266 29.0278 29.1267 29.0278 29.1267L29.0278 29.1266L29.0282 29.1262L29.0299 29.1243C29.0314 29.1226 29.0338 29.12 29.037 29.1166C29.0435 29.1097 29.0533 29.0995 29.0665 29.0865C29.0929 29.0604 29.1326 29.0232 29.1857 28.9791C29.2918 28.8908 29.4509 28.7749 29.6622 28.6655C30.0846 28.4467 30.716 28.2533 31.5507 28.3576C31.5659 28.3595 31.5807 28.3525 31.5889 28.3397C31.5972 28.3269 31.5973 28.3105 31.5893 28.2976C31.452 28.0751 31.1656 27.9829 30.9258 27.9442C30.8043 27.9246 30.6911 27.9182 30.6084 27.9167C30.567 27.9159 30.5331 27.9164 30.5095 27.917C30.5095 27.917 30.5094 27.917 30.5094 27.917C30.5078 27.9044 30.5059 27.8886 30.5037 27.87C30.4973 27.817 30.4885 27.7412 30.4785 27.6499C30.4585 27.4673 30.4338 27.2227 30.4152 26.9751C30.3965 26.7271 30.384 26.477 30.3881 26.2829C30.3901 26.1856 30.3963 26.1039 30.4075 26.0441C30.4131 26.0141 30.4197 25.9913 30.4268 25.9752C30.4343 25.9582 30.4401 25.9541 30.4408 25.9537C30.4592 25.9436 30.4887 25.9348 30.5292 25.9281C30.569 25.9215 30.6167 25.9174 30.6697 25.9153C30.7757 25.9113 30.9 25.9156 31.0192 25.9233C31.1382 25.9309 31.2513 25.9418 31.3347 25.9508C31.3764 25.9554 31.4106 25.9594 31.4344 25.9623C31.4463 25.9637 31.4555 25.9649 31.4618 25.9657L31.469 25.9666L31.4708 25.9669L31.4712 25.9669L31.4713 25.9669C31.473 25.9672 31.4748 25.9673 31.4765 25.9673C31.5193 25.9673 31.561 25.9388 31.5935 25.9057C31.6278 25.8708 31.6595 25.8232 31.6822 25.7695C31.727 25.6633 31.7397 25.5232 31.6482 25.4109C31.5751 25.3163 31.4274 25.0883 31.3211 24.8659C31.2677 24.7543 31.226 24.6466 31.2085 24.5589C31.1998 24.5151 31.1976 24.4785 31.2018 24.4501C31.2059 24.4224 31.2156 24.4051 31.2285 24.3944C31.2439 24.3829 31.2717 24.3725 31.314 24.3657C31.3557 24.359 31.4071 24.3564 31.4654 24.3572C31.582 24.3588 31.7215 24.3739 31.8565 24.3936C31.9912 24.4133 32.1204 24.4373 32.216 24.4564C32.2638 24.466 32.3031 24.4743 32.3304 24.4803C32.3441 24.4832 32.3547 24.4856 32.362 24.4872L32.3702 24.4891L32.3723 24.4896L32.3728 24.4897L32.3729 24.4897C32.3892 24.4935 32.4062 24.4865 32.4152 24.4724C32.4242 24.4583 32.4233 24.44 32.413 24.4268L29.6062 20.8306C29.6059 20.8289 29.6055 20.8269 29.605 20.8246C29.6031 20.8147 29.6003 20.8 29.5969 20.781C29.5902 20.7429 29.5813 20.6877 29.5723 20.6193C29.5543 20.4825 29.5364 20.2934 29.5364 20.0841C29.5364 19.664 29.6087 19.1729 29.887 18.8547C30.2388 18.5643 30.3964 18.2595 30.4632 18.0263C30.4966 17.9096 30.5072 17.8111 30.5082 17.7416C30.5087 17.7069 30.5069 17.6789 30.504 17.6591C30.5026 17.6494 30.5008 17.6404 30.4984 17.633C30.4977 17.6308 30.4965 17.6273 30.4945 17.6234ZM29.5693 20.8477C29.5306 20.8559 29.5306 20.8559 29.5306 20.8559L29.5306 20.8556L29.5304 20.8547L29.5298 20.8516C29.5292 20.8489 29.5284 20.845 29.5274 20.8398C29.5254 20.8294 29.5225 20.8142 29.519 20.7947C29.5122 20.7557 29.503 20.6993 29.4939 20.6296C29.4756 20.4904 29.4573 20.2978 29.4573 20.0841C29.4573 19.6593 29.5296 19.1411 29.8297 18.8C29.8311 18.7984 29.8326 18.797 29.8342 18.7956C30.175 18.5153 30.3244 18.2234 30.3871 18.0045C30.4186 17.8948 30.4282 17.8032 30.4291 17.7404C30.4296 17.7089 30.4278 17.6851 30.4257 17.6703C30.4252 17.6667 30.4247 17.6639 30.4243 17.6618C30.421 17.657 30.4188 17.6515 30.4179 17.6456C30.3723 17.347 30.1217 17.0866 29.7988 16.9716C29.4784 16.8574 29.0931 16.8889 28.7805 17.1662C28.6 17.3856 28.5728 17.5762 28.588 17.7099C28.5957 17.7776 28.6144 17.8319 28.6311 17.869C28.6394 17.8875 28.6471 17.9017 28.6527 17.9111C28.6555 17.9158 28.6577 17.9192 28.6591 17.9214C28.6598 17.9225 28.6604 17.9233 28.6607 17.9237L28.6609 17.924C28.6685 17.9346 28.6705 17.9482 28.6662 17.9605C28.6618 17.9727 28.6517 17.9821 28.6392 17.9854L28.6385 17.9856L28.6364 17.9862L28.628 17.9885C28.6207 17.9905 28.6099 17.9935 28.5961 17.9974C28.5686 18.0051 28.5291 18.0164 28.4817 18.0305C28.3867 18.0587 28.2599 18.098 28.1322 18.1428C28.0042 18.1877 27.8765 18.2375 27.7791 18.2866C27.7302 18.3112 27.6905 18.3349 27.6624 18.3569C27.6341 18.3791 27.6243 18.3945 27.6221 18.402C27.6223 18.4022 27.6226 18.4024 27.6229 18.4026C27.6252 18.4042 27.6288 18.4061 27.6339 18.4082C27.6556 18.4169 27.6925 18.4232 27.7438 18.4261C27.8448 18.4316 27.9854 18.4231 28.1295 18.4089C28.2731 18.3947 28.4183 18.375 28.5277 18.3588C28.5823 18.3508 28.628 18.3436 28.66 18.3384C28.6759 18.3359 28.6885 18.3338 28.6971 18.3324L28.7068 18.3307L28.71 18.3302C28.7225 18.328 28.7353 18.332 28.7444 18.3408C28.7534 18.3496 28.7577 18.3622 28.7559 18.3747L28.6417 19.1745C28.6404 19.1837 28.6359 19.192 28.6291 19.1982L28.6288 19.1985L28.6276 19.1996L28.623 19.2039C28.6188 19.2077 28.6127 19.2135 28.6047 19.2212C28.5886 19.2366 28.5652 19.2595 28.536 19.2893C28.4776 19.3489 28.3959 19.4361 28.3032 19.5465C28.1178 19.7673 27.8893 20.0798 27.7154 20.4471C27.5415 20.8145 27.4231 21.2349 27.4554 21.6726C27.4869 22.0984 27.6611 22.5437 28.0714 22.9753L28.0963 22.9421C28.1036 22.9323 28.115 22.9265 28.1271 22.9263C28.1393 22.926 28.1509 22.9314 28.1586 22.9408L28.159 22.9413L28.1602 22.9428C28.1609 22.9436 28.1617 22.9447 28.1628 22.9459C28.1635 22.9468 28.1644 22.9478 28.1653 22.949C28.1699 22.9544 28.1767 22.9625 28.1856 22.9728C28.2034 22.9935 28.2296 23.0234 28.2632 23.0597C28.3302 23.1325 28.4263 23.2313 28.5421 23.3352C28.7749 23.5439 29.0833 23.7694 29.3947 23.8504C29.4015 23.8522 29.4077 23.8557 29.4127 23.8607C29.7204 24.1684 29.8581 24.2995 29.9187 24.3535C29.931 24.3646 29.9398 24.3721 29.9461 24.3772C29.9559 24.3791 29.9648 24.3847 29.9709 24.3933L29.9385 24.416L29.9006 24.4204C29.9006 24.4204 29.9006 24.4204 29.9006 24.4204L29.9385 24.416C29.9709 24.3933 29.9708 24.3933 29.9709 24.3933L29.9709 24.3934L29.971 24.3935L29.9712 24.3938L29.9716 24.3944C29.9718 24.3947 29.972 24.3951 29.9723 24.3955C29.9724 24.3957 29.9726 24.396 29.9728 24.3963C29.9735 24.3974 29.9752 24.4003 29.9766 24.4039C29.9773 24.4056 29.9786 24.4091 29.9793 24.4137C29.9796 24.4157 29.9801 24.4199 29.9793 24.4253C29.9801 24.4324 29.9812 24.4421 29.9825 24.4541C29.9854 24.4813 29.9894 24.5203 29.9939 24.5677C30.0029 24.6626 30.0136 24.7911 30.0208 24.9259C30.028 25.0604 30.0316 25.202 30.0262 25.3225C30.0235 25.3828 30.0184 25.4385 30.0102 25.486C30.0022 25.5325 29.9905 25.5746 29.9725 25.6051C29.9633 25.6207 29.9447 25.628 29.9273 25.6229C29.9128 25.6186 29.8761 25.6131 29.8183 25.6073C29.7619 25.6017 29.6889 25.5961 29.6044 25.5908C29.4353 25.5802 29.2214 25.5712 29.0048 25.5663C28.7882 25.5613 28.5696 25.5605 28.3911 25.5664C28.3018 25.5693 28.2231 25.5739 28.1599 25.5804C28.0955 25.5871 28.051 25.5954 28.0279 25.6043C28.0273 25.6045 28.0267 25.6047 28.0262 25.6049C27.9968 25.6147 27.9585 25.6222 27.918 25.6301L27.9145 25.6307C27.8738 25.6387 27.8287 25.6474 27.781 25.6598C27.683 25.6851 27.5764 25.7251 27.4825 25.8004C27.312 25.9372 27.1716 26.2012 27.2265 26.7476L27.4589 26.2194C27.4666 26.2019 27.4857 26.1924 27.5043 26.1969C27.5229 26.2014 27.5357 26.2185 27.5346 26.2376M27.5346 26.2376L27.5346 26.2378L27.5345 26.2386L27.5344 26.2423C27.5342 26.2455 27.5341 26.2504 27.5339 26.2567C27.5336 26.2694 27.5333 26.2877 27.5336 26.3103C27.5341 26.3555 27.5368 26.4174 27.5453 26.4841C27.5539 26.551 27.5682 26.6218 27.5915 26.6852C27.5996 26.7072 27.6087 26.728 27.6188 26.7472C27.6206 26.5489 27.6607 26.3814 27.7038 26.2575C27.7298 26.183 27.7569 26.1242 27.7777 26.0838C27.7881 26.0636 27.7969 26.0479 27.8032 26.0372C27.8064 26.0319 27.8089 26.0278 27.8106 26.0249C27.8115 26.0235 27.8122 26.0224 27.8127 26.0216L27.8133 26.0207L27.8136 26.0203C27.8136 26.0203 27.8136 26.0202 27.8467 26.042L27.8136 26.0203C27.8229 26.0061 27.8403 25.9994 27.8568 26.0038C27.8732 26.0081 27.885 26.0225 27.8861 26.0394L27.8862 26.0398L27.8862 26.0409L27.8865 26.0453C27.8868 26.0492 27.8873 26.055 27.8878 26.0624C27.889 26.0772 27.8909 26.0985 27.8934 26.1243C27.8986 26.176 27.9067 26.2454 27.9186 26.3167C27.9306 26.3884 27.9461 26.4607 27.9657 26.5188C27.9755 26.5478 27.986 26.5721 27.9968 26.5905C28.0046 26.6037 28.0117 26.6123 28.0175 26.6177C28.0262 26.6041 28.0365 26.5804 28.0492 26.5449C28.0564 26.525 28.0641 26.5022 28.0725 26.4773C28.0953 26.4098 28.1233 26.327 28.16 26.2455C28.2105 26.1332 28.2801 26.0168 28.383 25.9342C28.4873 25.8506 28.6233 25.8037 28.8009 25.827C29.1243 25.8663 29.4063 25.8794 29.6073 25.8827C29.7078 25.8843 29.7881 25.8835 29.8431 25.8823C29.8706 25.8817 29.8918 25.881 29.9061 25.8804C29.9132 25.8801 29.9186 25.8799 29.9222 25.8797L29.9263 25.8795L29.9272 25.8795L29.9275 25.8795C29.9483 25.8783 29.9665 25.8936 29.969 25.9144L29.9297 25.9189C29.969 25.9144 29.969 25.9143 29.969 25.9144L29.9714 25.9356C29.973 25.9494 29.9753 25.9697 29.9783 25.9956C29.9842 26.0475 29.9925 26.1217 30.0022 26.2113C30.0217 26.3905 30.047 26.6313 30.0701 26.8777C30.0932 27.1239 30.1141 27.3761 30.1249 27.578C30.1303 27.6788 30.1331 27.7677 30.1324 27.8372C30.132 27.8719 30.1308 27.9023 30.1284 27.9273C30.1261 27.9513 30.1224 27.9737 30.1158 27.9903C30.1085 28.0085 30.0889 28.0186 30.0698 28.014C29.8401 27.9587 29.442 27.9688 29.0905 28.0299C28.9153 28.0604 28.7544 28.1031 28.6339 28.1553C28.5736 28.1813 28.5249 28.2091 28.4899 28.2379C28.4783 28.2473 28.4685 28.2567 28.4604 28.2658C28.76 28.2493 28.9826 28.2578 29.1334 28.2713C29.2146 28.2785 29.275 28.2872 29.3154 28.2941C29.3355 28.2975 29.3507 28.3005 29.3609 28.3027C29.366 28.3038 29.3699 28.3047 29.3726 28.3053L29.3757 28.3061L29.3766 28.3063L29.3769 28.3064L29.377 28.3064C29.377 28.3064 29.377 28.3064 29.3672 28.3447L29.377 28.3064C29.3911 28.31 29.4021 28.3211 29.4056 28.3353C29.4091 28.3494 29.4045 28.3643 29.3937 28.3741C29.3937 28.3741 29.3937 28.3741 29.3937 28.3741L29.3934 28.3744L29.3923 28.3753L29.3881 28.3792C29.3844 28.3827 29.3788 28.3879 29.3718 28.3946C29.3578 28.408 29.3379 28.4276 29.3145 28.4519C29.2676 28.5007 29.2071 28.5683 29.1519 28.6438C29.0965 28.7197 29.0479 28.8018 29.0229 28.8796C29.0051 28.9352 29.0002 28.9858 29.0111 29.03C29.0389 29.0026 29.0802 28.9639 29.1351 28.9183C29.2448 28.8269 29.4087 28.7077 29.6258 28.5952C30.0446 28.3783 30.6611 28.1869 31.4685 28.2687C31.3374 28.1261 31.1189 28.0555 30.9132 28.0223C30.7964 28.0035 30.6871 27.9973 30.6069 27.9958C30.5669 27.995 30.5342 27.9955 30.5117 27.9961C30.5004 27.9964 30.4917 27.9967 30.4858 27.997C30.4839 27.9971 30.4823 27.9972 30.4811 27.9973L30.4792 27.9974L30.4776 27.9974L30.4772 27.9975C30.4564 27.9988 30.438 27.9837 30.4354 27.963L30.4746 27.958C30.4354 27.963 30.4354 27.963 30.4354 27.963L30.4353 27.9629L30.4353 27.9626L30.4347 27.9574L30.4326 27.9411C30.4309 27.9269 30.4283 27.906 30.4251 27.8794C30.4188 27.8262 30.4099 27.7502 30.3998 27.6585C30.3798 27.4754 30.355 27.2299 30.3363 26.981C30.3176 26.7323 30.3048 26.4792 30.309 26.2812C30.3111 26.1824 30.3174 26.0957 30.3297 26.0296C30.3359 25.9966 30.3439 25.9671 30.3544 25.9432C30.3645 25.9203 30.3795 25.897 30.4029 25.8842C30.4329 25.8679 30.4726 25.8572 30.5162 25.85C30.5605 25.8427 30.6118 25.8384 30.6667 25.8363C30.7766 25.8321 30.9039 25.8366 31.0242 25.8443C31.1448 25.8521 31.2591 25.8631 31.3432 25.8722C31.3853 25.8768 31.4199 25.8808 31.4439 25.8838C31.4506 25.8846 31.4564 25.8853 31.4614 25.8859C31.4655 25.8864 31.469 25.8869 31.4718 25.8872L31.4784 25.8881C31.4891 25.8871 31.5102 25.8776 31.537 25.8503C31.5637 25.8231 31.5902 25.784 31.6093 25.7388C31.6479 25.6474 31.6529 25.5416 31.5866 25.4606L31.5859 25.4597C31.5094 25.3608 31.3586 25.1277 31.2497 24.9C31.1954 24.7863 31.1503 24.6716 31.131 24.5744C31.1213 24.5258 31.1176 24.4794 31.1236 24.4385C31.1297 24.3973 31.1462 24.3592 31.1792 24.3325L31.1801 24.3318C31.211 24.3083 31.2545 24.2952 31.3014 24.2876C31.3493 24.2799 31.4058 24.2773 31.4665 24.2781C31.5881 24.2798 31.7315 24.2955 31.8679 24.3154C32.0045 24.3353 32.1351 24.3596 32.2315 24.3789C32.2502 24.3826 32.2676 24.3862 32.2835 24.3895L29.5381 20.872C29.5345 20.8673 29.5319 20.8617 29.5306 20.8559L29.5693 20.8477M30.4232 17.6575C30.4232 17.6575 30.4232 17.6575 30.4232 17.6575Z" fill="black"/>
<path fill-rule="evenodd" clip-rule="evenodd" d="M29.2617 18.8789C29.2617 18.8789 27.6006 20.707 28.3213 22.1045C28.3564 21.9111 28.3389 21.7881 28.3652 21.7969C28.3213 21.7705 28.5674 21.9639 28.5498 21.9287C28.5498 21.8232 28.4795 21.6035 28.4795 21.6035L28.6992 21.665L28.5674 21.4189L28.8926 21.4541C28.8926 21.4541 28.7783 21.1553 28.8135 21.1553L29.0771 21.1729C28.6025 20.3291 29.0508 19.626 29.2617 18.8701V18.8789Z" fill="#9CA69C"/>
<path fill-rule="evenodd" clip-rule="evenodd" d="M29.2671 18.8309C29.2867 18.8336 29.3013 18.8504 29.3013 18.8701V18.8789C29.3013 18.8872 29.2987 18.8953 29.2938 18.902C29.2506 19.0535 29.1984 19.203 29.1467 19.3507C29.1359 19.3816 29.1252 19.4124 29.1145 19.4431C29.0503 19.6284 28.9901 19.8115 28.9511 19.9967C28.8734 20.3656 28.8802 20.742 29.1116 21.1535C29.1188 21.1661 29.1184 21.1817 29.1106 21.1939C29.1029 21.2062 29.089 21.2133 29.0745 21.2123L28.8505 21.1974C28.856 21.2229 28.866 21.257 28.8775 21.2925C28.8894 21.3293 28.9024 21.3661 28.9125 21.3939C28.9175 21.4078 28.9218 21.4193 28.9248 21.4274L28.9283 21.4368L28.9292 21.4392L28.9295 21.4398L28.9295 21.4399C28.9344 21.4528 28.9323 21.4673 28.9239 21.4782C28.9155 21.4892 28.902 21.4949 28.8883 21.4934L28.6376 21.4663L28.7341 21.6464C28.7416 21.6603 28.74 21.6774 28.7301 21.6898C28.7202 21.7022 28.7038 21.7074 28.6886 21.7031L28.5379 21.6609C28.5426 21.6777 28.5478 21.6966 28.553 21.7167C28.5698 21.782 28.5881 21.8644 28.5893 21.9226C28.5897 21.9243 28.59 21.9263 28.5901 21.9283C28.5909 21.9382 28.5881 21.9556 28.5713 21.9662C28.5587 21.9741 28.5463 21.9726 28.5428 21.9721C28.5379 21.9714 28.5337 21.97 28.5312 21.9691C28.5218 21.9655 28.5106 21.9588 28.5009 21.9525C28.4796 21.9389 28.4509 21.9181 28.4238 21.8977C28.411 21.8879 28.3982 21.8781 28.3866 21.869C28.3864 21.8716 28.3862 21.8744 28.3861 21.8773C28.3859 21.8793 28.3858 21.8812 28.3857 21.8833C28.3824 21.937 28.3776 22.0159 28.3602 22.1116C28.3572 22.1282 28.3439 22.1411 28.3271 22.1436C28.3104 22.1461 28.2939 22.1377 28.2862 22.1226C27.9165 21.4059 28.1596 20.5838 28.4861 19.9496C28.65 19.6312 28.8364 19.3571 28.9818 19.1627C29.0545 19.0655 29.117 18.988 29.1614 18.9348C29.1836 18.9082 29.2013 18.8877 29.2135 18.8738C29.2169 18.8698 29.22 18.8663 29.2225 18.8634C29.2229 18.8621 29.2233 18.8608 29.2236 18.8595C29.229 18.8404 29.2475 18.8283 29.2671 18.8309ZM29.1634 19.0573C29.1289 19.1002 29.0889 19.1515 29.0451 19.2101C28.9015 19.4021 28.7177 19.6724 28.5564 19.9858C28.2516 20.5779 28.0325 21.3131 28.3004 21.9651C28.3035 21.9319 28.3053 21.9027 28.3068 21.878L28.3071 21.8725C28.3087 21.8467 28.3102 21.823 28.3134 21.8064C28.3148 21.7995 28.3173 21.7883 28.3239 21.7783C28.3346 21.7538 28.3599 21.7547 28.3629 21.7549C28.369 21.7553 28.3736 21.7571 28.3748 21.7575C28.3768 21.7583 28.3785 21.7591 28.3795 21.7596C28.3817 21.7607 28.3838 21.7619 28.3856 21.763C28.3919 21.7668 28.3968 21.7721 28.4001 21.7782C28.4011 21.7791 28.4022 21.78 28.4034 21.7809C28.4193 21.7943 28.4449 21.8145 28.4715 21.8345C28.4822 21.8426 28.4928 21.8505 28.503 21.8579C28.4966 21.8197 28.4867 21.7767 28.4764 21.7364C28.4677 21.703 28.4591 21.6727 28.4526 21.6507C28.4493 21.6398 28.4466 21.6309 28.4447 21.6249L28.4426 21.6179L28.442 21.6161L28.4418 21.6156L28.4795 21.6035M29.0085 21.1286C28.7991 20.7209 28.7971 20.3441 28.8737 19.9804C28.9138 19.7899 28.9755 19.6027 29.0398 19.4172C29.0506 19.3861 29.0615 19.355 29.0723 19.3239C29.1034 19.235 29.1344 19.1463 29.1634 19.0573" fill="#9CA69C"/>
<path fill-rule="evenodd" clip-rule="evenodd" d="M29.8418 17.3057C29.8418 17.3057 29.9297 17.9385 29.5781 18.1143C29.5342 18.1582 29.3145 18.2285 29.3496 18.3604C29.3848 18.5361 29.4815 18.501 29.6133 18.4658C29.9736 18.4043 30.3955 17.6396 29.8418 17.3057Z" fill="#9CA69C"/>
<path fill-rule="evenodd" clip-rule="evenodd" d="M29.7856 17.2205L29.8645 17.268C30.0122 17.3571 30.097 17.4766 30.1328 17.6076C30.1683 17.7376 30.1547 17.8756 30.112 18.002C30.0692 18.1285 29.9966 18.2458 29.9107 18.3359C29.8259 18.4248 29.7247 18.4907 29.6228 18.5088C29.6176 18.5102 29.6124 18.5116 29.6072 18.513C29.581 18.5201 29.5544 18.5272 29.5298 18.532C29.4997 18.5379 29.4676 18.5413 29.4368 18.5353C29.4042 18.529 29.3751 18.5124 29.3523 18.4828C29.3307 18.4547 29.3163 18.417 29.3068 18.3703C29.2822 18.2748 29.3526 18.2082 29.4089 18.1685C29.4374 18.1483 29.4681 18.131 29.4931 18.1169C29.4945 18.116 29.4959 18.1153 29.4973 18.1145C29.5106 18.107 29.5217 18.1006 29.5309 18.0949C29.5405 18.0888 29.5452 18.0851 29.5471 18.0832L29.5521 18.0782L29.5585 18.075C29.7131 17.9977 29.7766 17.8162 29.7982 17.6387C29.8088 17.5518 29.8088 17.4697 29.8062 17.4092C29.8048 17.3791 29.8028 17.3545 29.8012 17.3375C29.8003 17.329 29.7996 17.3224 29.7991 17.318C29.7988 17.3158 29.7986 17.3142 29.7985 17.3131L29.7983 17.312L29.7983 17.3117L29.7856 17.2205ZM29.8935 17.3959C29.8937 17.399 29.8938 17.4021 29.894 17.4054C29.8968 17.469 29.8968 17.5562 29.8854 17.6494C29.8634 17.8305 29.7961 18.0508 29.6035 18.1507C29.5954 18.1576 29.5862 18.1639 29.5777 18.1692C29.5665 18.1763 29.5536 18.1836 29.5406 18.191C29.5395 18.1916 29.5384 18.1922 29.5373 18.1928C29.5116 18.2074 29.4844 18.2227 29.4596 18.2403C29.4041 18.2794 29.3826 18.3134 29.3921 18.349L29.3925 18.3504L29.3927 18.3517C29.4008 18.3923 29.4116 18.4157 29.4219 18.4291C29.4312 18.4412 29.4412 18.4466 29.4536 18.4491C29.4679 18.4519 29.4868 18.4509 29.513 18.4458C29.5342 18.4416 29.557 18.4355 29.583 18.4285C29.5891 18.4268 29.5955 18.4251 29.602 18.4234L29.6039 18.4229L29.6059 18.4225C29.6834 18.4093 29.7693 18.3568 29.8471 18.2752C29.9243 18.1943 29.9901 18.088 30.0287 17.9739C30.0673 17.8597 30.0778 17.74 30.048 17.6308C30.0247 17.5455 29.9762 17.4645 29.8935 17.3959Z" fill="#9CA69C"/>
<path fill-rule="evenodd" clip-rule="evenodd" d="M29.2266 17.8418C29.2266 17.8768 29.2127 17.9103 29.1879 17.935C29.1632 17.9597 29.1297 17.9736 29.0947 17.9736C29.0598 17.9736 29.0262 17.9597 29.0015 17.935C28.9768 17.9103 28.9629 17.8768 28.9629 17.8418C28.9629 17.8068 28.9768 17.7733 29.0015 17.7486C29.0262 17.7239 29.0598 17.71 29.0947 17.71C29.1297 17.71 29.1632 17.7239 29.1879 17.7486C29.2127 17.7733 29.2266 17.8068 29.2266 17.8418V17.8418Z" fill="white"/>
<path fill-rule="evenodd" clip-rule="evenodd" d="M28.6904 18.3691C28.6025 18.4482 28.1455 18.9229 28.6025 19.0986C29.0684 18.9756 28.9365 18.8877 29.042 18.7822C29.042 18.5625 28.8135 18.5098 28.6904 18.3779V18.3691Z" fill="#DE3108"/>
<path fill-rule="evenodd" clip-rule="evenodd" d="M28.7344 18.36V18.2705L28.661 18.3365C28.6155 18.3775 28.474 18.5208 28.4021 18.6796C28.3662 18.759 28.3447 18.8488 28.3688 18.9337C28.3937 19.0212 28.4637 19.0924 28.5868 19.1397L28.6 19.1448L28.6138 19.1412C28.847 19.0795 28.9441 19.024 28.9924 18.9605C29.0132 18.9331 29.0237 18.9054 29.0318 18.8839C29.033 18.8808 29.0342 18.8777 29.0353 18.8749C29.0441 18.8522 29.053 18.8335 29.0731 18.8133L29.0859 18.8005V18.7823C29.0859 18.6531 29.017 18.5736 28.9396 18.5126C28.912 18.4909 28.8817 18.4703 28.8529 18.4507C28.8425 18.4436 28.8322 18.4366 28.8224 18.4298C28.7894 18.4069 28.7596 18.3846 28.7344 18.36ZM28.6857 18.4348C28.6285 18.4929 28.5339 18.6016 28.4822 18.7158C28.45 18.7869 28.4374 18.8536 28.4534 18.9096C28.4679 18.9608 28.5092 19.0125 28.6053 19.0525C28.8267 18.9927 28.8944 18.9441 28.9224 18.9073C28.9351 18.8907 28.941 18.8752 28.9493 18.8535C28.9506 18.8502 28.952 18.8466 28.9534 18.8429C28.9625 18.8196 28.9742 18.7932 28.9975 18.7657C28.9923 18.6846 28.9485 18.6316 28.8852 18.5817C28.8602 18.562 28.8338 18.544 28.8059 18.5251C28.7949 18.5176 28.7837 18.5099 28.7722 18.5019C28.743 18.4817 28.7131 18.4598 28.6857 18.4348Z" fill="black"/>
<path fill-rule="evenodd" clip-rule="evenodd" d="M29.7012 22.8955C29.6748 23.001 29.5694 23.3877 29.71 23.6865C30.1143 23.5107 30.2988 23.5635 30.4307 23.6514C30.1055 23.3877 29.9737 23.2734 29.7012 22.8955V22.8955Z" fill="#9CA69C"/>
<path fill-rule="evenodd" clip-rule="evenodd" d="M29.7333 22.8724C30.003 23.2466 30.1321 23.3584 30.4556 23.6207C30.472 23.634 30.4751 23.6579 30.4625 23.6749C30.45 23.6919 30.4263 23.6961 30.4087 23.6843C30.3477 23.6437 30.2758 23.6117 30.1717 23.6097C30.0663 23.6076 29.9249 23.6362 29.7257 23.7229C29.7061 23.7314 29.6833 23.7228 29.6742 23.7034C29.5997 23.5451 29.5912 23.3657 29.6035 23.2153C29.6151 23.0749 29.6451 22.9561 29.6598 22.898C29.6609 22.8936 29.6619 22.8896 29.6628 22.886L29.7012 22.8956L29.7333 22.8724ZM29.7195 22.9877C29.9088 23.2437 30.0341 23.3719 30.2257 23.534C30.209 23.5321 30.1915 23.5309 30.1733 23.5306C30.0597 23.5284 29.9176 23.5573 29.7307 23.6348C29.6783 23.5026 29.6715 23.354 29.6824 23.2218C29.6899 23.1305 29.7056 23.0488 29.7195 22.9877Z" fill="#9CA69C"/>
<path fill-rule="evenodd" clip-rule="evenodd" d="M30.3867 24.7061L30.4043 25.6025C30.4043 25.6025 30.7207 25.6553 30.8613 25.6025C31.002 25.5498 30.8613 24.9873 30.3867 24.7061Z" fill="white"/>
<path fill-rule="evenodd" clip-rule="evenodd" d="M30.3668 24.6719C30.3792 24.6647 30.3945 24.6647 30.4069 24.672C30.6525 24.8176 30.8115 25.0356 30.8912 25.2246C30.931 25.3189 30.9519 25.4081 30.9528 25.4793C30.9532 25.5147 30.9487 25.5479 30.9373 25.5755C30.9257 25.6036 30.9058 25.6281 30.8752 25.6396C30.8344 25.6549 30.7835 25.6617 30.7326 25.6643C30.681 25.6669 30.6266 25.6651 30.5774 25.6618C30.528 25.6584 30.4833 25.6534 30.4509 25.6492C30.4346 25.6471 30.4215 25.6452 30.4123 25.6438C30.4077 25.6431 30.4041 25.6426 30.4017 25.6422L30.3989 25.6417L30.3981 25.6416L30.3979 25.6416C30.3979 25.6416 30.3978 25.6416 30.4043 25.6025L30.3978 25.6416C30.379 25.6384 30.3651 25.6224 30.3648 25.6033L30.3472 24.7068C30.3469 24.6925 30.3544 24.6791 30.3668 24.6719ZM30.4432 25.5683C30.4486 25.5691 30.4545 25.5699 30.461 25.5707C30.4923 25.5748 30.5354 25.5796 30.5828 25.5829C30.6302 25.5861 30.6813 25.5877 30.7286 25.5853C30.7766 25.5829 30.8179 25.5766 30.8474 25.5655C30.852 25.5638 30.8585 25.5592 30.8642 25.5453C30.8702 25.5309 30.8741 25.5094 30.8737 25.4803C30.873 25.4223 30.8554 25.3434 30.8183 25.2554C30.751 25.0958 30.6223 24.913 30.4277 24.7792L30.4432 25.5683Z" fill="white"/>
<path fill-rule="evenodd" clip-rule="evenodd" d="M32.6367 24.8203C32.6367 24.8203 32.0654 23.4316 30.5976 23.08C29.1299 22.7285 29.3232 21.164 29.4375 21.0673C29.5078 20.9355 29.5517 20.7246 29.9736 20.9267C30.3955 21.1289 32.3467 22.1044 32.6279 22.1572C32.9092 22.2099 32.6631 24.8554 32.6455 24.8203H32.6367Z" fill="#9CA69C"/>
<path fill-rule="evenodd" clip-rule="evenodd" d="M29.498 21.0445C29.4911 21.0589 29.4838 21.0739 29.4763 21.088L29.4723 21.0955L29.4659 21.1009C29.4661 21.1008 29.466 21.1008 29.4658 21.1011C29.4649 21.1023 29.4612 21.1073 29.4558 21.1196C29.4498 21.1336 29.4432 21.1531 29.4369 21.178C29.4243 21.2276 29.4135 21.2954 29.408 21.3762C29.397 21.5378 29.4077 21.7484 29.4667 21.9667C29.5842 22.4012 29.8924 22.866 30.6079 23.0373C31.3537 23.216 31.8711 23.658 32.2013 24.0539C32.3665 24.2519 32.4853 24.4387 32.5628 24.5762C32.5857 24.6169 32.605 24.6532 32.6209 24.6843C32.6281 24.6177 32.6368 24.5282 32.6459 24.4226C32.667 24.1792 32.6906 23.8509 32.7049 23.5198C32.7191 23.1885 32.724 22.8558 32.7079 22.6033C32.6999 22.4767 32.6867 22.3725 32.6676 22.2993C32.658 22.2625 32.6476 22.2361 32.6372 22.2192C32.6321 22.2108 32.6277 22.2059 32.6244 22.2032C32.6215 22.2007 32.62 22.2004 32.6198 22.2004C32.5799 22.1929 32.5149 22.1703 32.4342 22.1384C32.3523 22.1059 32.2507 22.0624 32.136 22.0113C31.9063 21.909 31.6225 21.7756 31.3345 21.6376C31.0465 21.4997 30.7541 21.3571 30.5075 21.2363C30.4459 21.2062 30.3871 21.1774 30.332 21.1504C30.1664 21.0693 30.0336 21.0042 29.9546 20.9664C29.7468 20.8668 29.6489 20.8776 29.5965 20.9094C29.569 20.926 29.5483 20.9515 29.5295 20.9836C29.5201 20.9996 29.5116 21.0166 29.5029 21.0344C29.5013 21.0377 29.4997 21.0411 29.498 21.0445ZM32.5961 24.837L32.596 24.8369L32.5957 24.8363L32.5946 24.8336C32.5935 24.8311 32.5919 24.8274 32.5897 24.8224C32.5854 24.8125 32.5787 24.7978 32.5696 24.7789C32.5515 24.741 32.5239 24.6863 32.4862 24.6194C32.4108 24.4856 32.2949 24.3033 32.1338 24.1102C31.8115 23.7238 31.3093 23.2957 30.5874 23.1228C29.8351 22.9426 29.5061 22.4493 29.3819 21.9896C29.32 21.7607 29.3088 21.5401 29.3203 21.3702C29.3261 21.2853 29.3376 21.2122 29.3517 21.1564C29.3588 21.1286 29.3667 21.1042 29.3753 21.0845C29.3818 21.0694 29.3903 21.0533 29.4017 21.0409C29.4073 21.0302 29.4127 21.019 29.4186 21.0069C29.4203 21.0033 29.4221 20.9997 29.4239 20.996C29.4327 20.9778 29.4425 20.9583 29.4537 20.9391C29.4761 20.9009 29.5059 20.8615 29.5509 20.8342C29.6435 20.7781 29.7786 20.7846 29.9926 20.8871C30.072 20.9251 30.2053 20.9905 30.3711 21.0717C30.4261 21.0987 30.4847 21.1274 30.5461 21.1574C30.7927 21.2781 31.0848 21.4206 31.3725 21.5584C31.6602 21.6962 31.9432 21.8292 32.1717 21.931C32.286 21.9819 32.3863 22.0248 32.4666 22.0566C32.5481 22.0889 32.6056 22.1083 32.636 22.114C32.6712 22.1206 32.6956 22.1462 32.7121 22.1732C32.729 22.2008 32.7421 22.2366 32.7527 22.2771C32.7739 22.3586 32.7875 22.4694 32.7956 22.5977C32.812 22.855 32.807 23.1914 32.7927 23.5236C32.7783 23.8561 32.7547 24.1858 32.7335 24.4302C32.7229 24.5524 32.7129 24.6535 32.705 24.7231C32.701 24.7578 32.6975 24.7851 32.6947 24.8035C32.6933 24.8124 32.6919 24.8204 32.6905 24.8263L32.6904 24.8265C32.6899 24.8285 32.6885 24.8344 32.6855 24.8402C32.6846 24.842 32.6827 24.8453 32.6797 24.8488C32.6772 24.8518 32.6704 24.8591 32.6587 24.8627C32.6524 24.8646 32.6462 24.865 32.6403 24.8642H32.6073L32.5961 24.837Z" fill="black"/>
<path fill-rule="evenodd" clip-rule="evenodd" d="M31.248 23.0713C31.2217 23.0889 33.208 24.249 32.6104 25.2422C33.1729 24.8643 32.9971 24.2139 32.9971 24.2139C32.9971 24.2139 33.4541 25.418 32.3291 26.0068C32.4521 26.1123 32.5312 26.0947 32.5312 26.0947L32.3379 26.2793C32.3379 26.2793 32.25 26.4287 33.0059 26.0596C32.8037 26.2266 32.7861 26.3496 32.7861 26.3496C32.7861 26.3496 32.8389 26.5078 33.3311 26.0771C32.9355 26.5078 32.8477 26.7275 32.8477 26.7187C33.9287 26.6309 36.2754 23.1152 32.1094 22.0869L32.2939 22.2803L31.2393 23.0713H31.248Z" fill="#DE3108"/>
<path fill-rule="evenodd" clip-rule="evenodd" d="M32.0752 22.0671C32.084 22.0519 32.1018 22.0443 32.1189 22.0485C33.1658 22.3069 33.8099 22.7232 34.1662 23.2087C34.523 23.6949 34.5872 24.2454 34.485 24.7632C34.3829 25.2802 34.1148 25.7661 33.8042 26.1283C33.6489 26.3095 33.4822 26.4607 33.3192 26.5696C33.1584 26.677 32.9986 26.745 32.8554 26.7578C32.848 26.7593 32.838 26.7592 32.8276 26.7531C32.8143 26.7452 32.8104 26.7328 32.8094 26.7291C32.8082 26.7243 32.8081 26.7204 32.8081 26.7188C32.8081 26.7097 32.8112 26.7013 32.8163 26.6946L32.8172 26.6929C32.8204 26.687 32.8255 26.6771 32.833 26.6636C32.8479 26.6367 32.8717 26.5957 32.9081 26.5409C32.9444 26.4862 32.993 26.4178 33.0574 26.3361C32.9809 26.3831 32.9241 26.4056 32.8815 26.4137C32.8369 26.4222 32.804 26.4158 32.7807 26.4009C32.7694 26.3937 32.7618 26.3853 32.7568 26.378C32.7543 26.3744 32.7525 26.3711 32.7512 26.3684C32.7505 26.3671 32.75 26.3658 32.7496 26.3648L32.749 26.3633L32.7488 26.3627L32.7487 26.3624L32.7487 26.3623C32.7486 26.3622 32.7486 26.3621 32.7861 26.3496C32.747 26.344 32.747 26.344 32.747 26.344L32.747 26.3439L32.747 26.3438L32.7471 26.3435L32.7472 26.3428L32.7475 26.3408C32.7478 26.3393 32.7482 26.3373 32.7488 26.3349C32.75 26.33 32.7518 26.3233 32.7546 26.3151C32.7602 26.2985 32.7698 26.2756 32.7859 26.2475C32.796 26.23 32.8086 26.2105 32.8243 26.1894C32.7323 26.2315 32.6575 26.2631 32.5969 26.2865C32.498 26.3247 32.4344 26.3421 32.3932 26.3471C32.3727 26.3496 32.3546 26.3495 32.3393 26.3452C32.3229 26.3406 32.3074 26.3304 32.2997 26.3126C32.2928 26.2967 32.2954 26.282 32.2975 26.2745C32.2986 26.2703 32.3 26.2669 32.3011 26.2644C32.3017 26.2632 32.3022 26.2621 32.3027 26.2613L32.3033 26.2601L32.3036 26.2596L32.3037 26.2594L32.3037 26.2593C32.3038 26.2593 32.3038 26.2592 32.3379 26.2793L32.3038 26.2592C32.3057 26.2561 32.3079 26.2532 32.3106 26.2507L32.4451 26.1223C32.4064 26.1092 32.3582 26.0839 32.3034 26.0369C32.2934 26.0283 32.2883 26.0154 32.2898 26.0024C32.2913 25.9893 32.2991 25.9779 32.3108 25.9718C32.8587 25.685 33.0199 25.2506 33.0455 24.8868C33.0514 24.8036 33.0501 24.7241 33.0447 24.6509C33.0069 24.8569 32.8992 25.0958 32.6324 25.275C32.617 25.2854 32.5965 25.2836 32.5831 25.2708C32.5697 25.2581 32.5669 25.2377 32.5765 25.2218C32.7179 24.9868 32.7076 24.7417 32.6093 24.5014C32.5105 24.2598 32.3233 24.0256 32.1155 23.8189C31.9082 23.6127 31.6829 23.4364 31.5105 23.3102C31.4331 23.2535 31.3665 23.2071 31.3171 23.1726C31.3114 23.1687 31.3061 23.1649 31.3009 23.1613C31.2757 23.1437 31.2554 23.1295 31.2419 23.1193C31.2374 23.116 31.2331 23.1127 31.2294 23.1096C31.2166 23.1063 31.2061 23.0968 31.2017 23.0838C31.1964 23.0676 31.2019 23.0499 31.2155 23.0397L32.2346 22.2754L32.0808 22.1142C32.0686 22.1015 32.0663 22.0823 32.0752 22.0671ZM31.3077 23.0694C31.3182 23.0769 31.3311 23.0859 31.3462 23.0965C31.3513 23.1 31.3567 23.1038 31.3623 23.1077C31.4118 23.1422 31.479 23.1891 31.5572 23.2463C31.7311 23.3737 31.96 23.5527 32.1713 23.7629C32.3822 23.9726 32.5779 24.2157 32.6825 24.4715C32.7667 24.6772 32.7924 24.8926 32.7188 25.1045C32.8892 24.9402 32.9547 24.7461 32.9754 24.5814C32.9881 24.4803 32.9839 24.3905 32.9765 24.3259C32.9728 24.2937 32.9683 24.2679 32.9647 24.2503C32.963 24.2415 32.9615 24.2348 32.9604 24.2304C32.9599 24.2282 32.9595 24.2265 32.9592 24.2255L32.9589 24.2244L32.9589 24.2242L32.9589 24.2242L32.9589 24.2242C32.9534 24.2038 32.9648 24.1827 32.9849 24.1762C33.0049 24.1697 33.0266 24.1801 33.034 24.1998L32.9971 24.2139C33.034 24.1998 33.0341 24.1999 33.0341 24.1999L33.0341 24.2L33.0342 24.2002L33.0345 24.201L33.0355 24.2039C33.0364 24.2064 33.0377 24.21 33.0393 24.2147C33.0426 24.2241 33.0471 24.2378 33.0524 24.2553C33.063 24.2904 33.0767 24.3408 33.0896 24.4032C33.1154 24.5277 33.1379 24.7004 33.1244 24.8923C33.0982 25.2654 32.9354 25.7103 32.4016 26.0124C32.437 26.036 32.4657 26.0469 32.4859 26.052C32.5003 26.0556 32.5108 26.0563 32.517 26.0563C32.5201 26.0563 32.5222 26.0561 32.5231 26.056C32.5233 26.056 32.5235 26.0559 32.5236 26.0559C32.5406 26.0526 32.5579 26.0607 32.5661 26.0761C32.5745 26.0918 32.5714 26.1111 32.5586 26.1233L32.4115 26.2637C32.4451 26.2563 32.4951 26.2411 32.5684 26.2127C32.665 26.1754 32.8001 26.116 32.9885 26.024C33.0065 26.0152 33.0283 26.0213 33.0391 26.0382C33.05 26.055 33.0465 26.0773 33.0311 26.0901C32.9333 26.1708 32.8816 26.2398 32.8545 26.2869C32.8422 26.3083 32.8349 26.3254 32.8307 26.3371C32.8372 26.3386 32.8484 26.3395 32.8666 26.336C32.9301 26.3239 33.0594 26.2623 33.305 26.0474C33.3208 26.0336 33.3447 26.0345 33.3594 26.0495C33.374 26.0646 33.3744 26.0884 33.3602 26.1039C33.1637 26.3178 33.0442 26.4788 32.974 26.5846C32.9522 26.6175 32.9351 26.6451 32.922 26.6673C33.0296 26.6432 33.1498 26.5876 33.2752 26.5038C33.4312 26.3996 33.5926 26.2536 33.7442 26.0768C34.0475 25.723 34.3084 25.2492 34.4074 24.7478C34.5062 24.2472 34.4435 23.7204 34.1024 23.2555C33.7757 22.8103 33.1901 22.4169 32.2336 22.1598L32.3226 22.253C32.3304 22.2611 32.3343 22.2723 32.3334 22.2835C32.3324 22.2948 32.3267 22.3051 32.3177 22.3119L31.3077 23.0694ZM32.7861 26.3496L32.747 26.344C32.7461 26.3501 32.7467 26.3563 32.7486 26.3621L32.7861 26.3496Z" fill="black"/>
<path fill-rule="evenodd" clip-rule="evenodd" d="M31.3359 22.7286C31.5996 22.9219 31.6963 22.9922 31.7314 23.0801C31.4853 23.0274 31.2656 23.045 31.2656 23.045C31.2656 23.045 30.7295 22.5352 30.6328 22.4913C30.5625 22.4913 30.1406 22.2276 30.1406 22.2276C29.9385 22.1221 29.7451 21.4102 30.5097 21.6124C30.803 21.7653 31.1054 21.9003 31.415 22.0166L32.3554 22.3155L32.9004 22.9219C32.9004 22.9219 31.9336 22.4473 31.8105 22.4385C32.0742 22.6495 32.2236 22.9483 32.2236 22.9483C31.916 22.8604 31.6523 22.7725 31.3359 22.7286V22.7286Z" fill="white"/>
<path fill-rule="evenodd" clip-rule="evenodd" d="M30.0417 22.0426C30.0747 22.1175 30.1199 22.1722 30.1589 22.1925C30.1598 22.193 30.1607 22.1935 30.1616 22.194L30.1662 22.197L30.1797 22.2053C30.1913 22.2124 30.2079 22.2227 30.2282 22.235C30.2687 22.2596 30.3233 22.2924 30.3801 22.3252C30.437 22.358 30.4955 22.3905 30.5439 22.4147C30.5682 22.4268 30.5893 22.4365 30.606 22.4431C30.6144 22.4464 30.6211 22.4488 30.6263 22.4502C30.631 22.4515 30.633 22.4517 30.633 22.4517C30.633 22.4517 30.6329 22.4517 30.6328 22.4517C30.6384 22.4517 30.644 22.4529 30.6492 22.4553C30.6658 22.4628 30.6879 22.4782 30.7117 22.4962C30.7363 22.5149 30.7658 22.5389 30.798 22.5661C30.8624 22.6205 30.9389 22.6888 31.0121 22.7553C31.0853 22.822 31.1555 22.8872 31.2074 22.9358C31.2333 22.96 31.2547 22.9802 31.2695 22.9942L31.2803 23.0044C31.2863 23.0041 31.2937 23.0038 31.3025 23.0035C31.3276 23.0027 31.3635 23.0021 31.4072 23.0032C31.4728 23.0049 31.5563 23.0104 31.6473 23.0245C31.6331 23.0093 31.6156 22.9927 31.5936 22.9739C31.5344 22.9232 31.4475 22.8595 31.3182 22.7646L31.3125 22.7605L31.3359 22.7286L31.3414 22.6894C31.6045 22.7259 31.8322 22.7927 32.0748 22.8638C32.0968 22.8703 32.1189 22.8768 32.1411 22.8833C32.1256 22.8579 32.1063 22.8279 32.0835 22.7951C32.0144 22.6959 31.9137 22.5717 31.7858 22.4694C31.7723 22.4586 31.7674 22.4402 31.7737 22.4241C31.78 22.408 31.7961 22.3978 31.8133 22.3991C31.8351 22.4006 31.8688 22.4111 31.9061 22.4246C31.9453 22.4388 31.9939 22.4584 32.0482 22.4813C32.1567 22.5273 32.2896 22.5877 32.4183 22.6477C32.5343 22.7017 32.6471 22.7555 32.7361 22.7983L32.3332 22.3499L31.403 22.0543C31.4024 22.0541 31.4017 22.0539 31.4011 22.0537C31.0913 21.9373 30.7889 21.8023 30.4954 21.6495C30.3106 21.6012 30.1913 21.6102 30.1177 21.6443C30.0462 21.6774 30.0114 21.7374 30.0018 21.8098C29.992 21.8838 30.0092 21.9689 30.0417 22.0426ZM32.9004 22.9219C32.8829 22.9574 32.8829 22.9574 32.8829 22.9574L32.8721 22.9521C32.865 22.9486 32.8546 22.9436 32.8413 22.9371C32.8146 22.9241 32.7764 22.9055 32.7302 22.8833C32.6377 22.8387 32.5132 22.7791 32.3849 22.7194C32.2565 22.6596 32.1246 22.5996 32.0173 22.5542C32.0027 22.548 31.9887 22.5421 31.9751 22.5365C32.0456 22.6104 32.1037 22.6856 32.1484 22.7499C32.1843 22.8015 32.2118 22.8464 32.2304 22.8785C32.2397 22.8945 32.2467 22.9074 32.2515 22.9164C32.2539 22.9208 32.2558 22.9243 32.257 22.9267L32.2584 22.9295L32.2588 22.9303L32.2589 22.9305L32.259 22.9306C32.259 22.9306 32.259 22.9306 32.2236 22.9483L32.259 22.9306C32.266 22.9446 32.2641 22.9615 32.254 22.9735C32.244 22.9856 32.2278 22.9906 32.2127 22.9863C32.1574 22.9705 32.1036 22.9547 32.0508 22.9393C31.8608 22.8836 31.6839 22.8317 31.4925 22.7947C31.5561 22.842 31.6061 22.8804 31.6451 22.9139C31.7083 22.968 31.747 23.0126 31.7681 23.0654C31.7736 23.079 31.7711 23.0945 31.7617 23.1056C31.7522 23.1168 31.7374 23.1219 31.7231 23.1188C31.6032 23.0931 31.4893 23.0845 31.4052 23.0823C31.3633 23.0812 31.3289 23.0818 31.3051 23.0826C31.2932 23.083 31.284 23.0834 31.2778 23.0838C31.2747 23.084 31.2724 23.0841 31.2709 23.0842L31.2692 23.0844L31.2688 23.0844C31.2688 23.0844 31.2688 23.0844 31.2688 23.0844M31.2656 23.045L31.2383 23.0736L31.2324 23.0679L31.2152 23.0517C31.2004 23.0377 31.1791 23.0177 31.1533 22.9935C31.1016 22.9451 31.0317 22.8801 30.9588 22.8138C30.8859 22.7475 30.8102 22.68 30.7469 22.6265C30.7152 22.5997 30.687 22.5767 30.6638 22.5592C30.6443 22.5443 30.6303 22.5348 30.6216 22.53C30.6255 22.5305 30.6292 22.5308 30.6328 22.5308V22.4913L30.6164 22.5273C30.6179 22.5279 30.6196 22.5288 30.6216 22.53C30.607 22.5279 30.5911 22.5223 30.5769 22.5167C30.5571 22.5089 30.5337 22.498 30.5085 22.4854C30.4581 22.4602 30.3979 22.4268 30.3406 22.3937C30.2831 22.3605 30.2279 22.3274 30.1871 22.3026C30.1667 22.2902 30.1498 22.2798 30.1381 22.2726L30.1245 22.2641L30.1209 22.2619C30.0594 22.2291 30.0052 22.1558 29.9693 22.0745C29.9326 21.9913 29.9112 21.8914 29.9234 21.7994C29.9358 21.7059 29.9835 21.6193 30.0844 21.5725C30.1828 21.5269 30.3248 21.5225 30.5199 21.5741C30.5227 21.5749 30.5254 21.5759 30.528 21.5773C30.8196 21.7293 31.1201 21.8636 31.428 21.9793L32.3674 22.2778C32.3741 22.2799 32.3802 22.2838 32.3849 22.289L32.9298 22.8955C32.9425 22.9096 32.9433 22.9307 32.9319 22.9458C32.9205 22.9609 32.8999 22.9658 32.8829 22.9574L32.9004 22.9219M31.2688 23.0844C31.2688 23.0844 31.2688 23.0844 31.2688 23.0844C31.2576 23.0853 31.2465 23.0814 31.2383 23.0736L31.2656 23.045" fill="black"/>
<path fill-rule="evenodd" clip-rule="evenodd" d="M27.5837 18.4866C27.5625 18.4919 27.5411 18.479 27.5358 18.4578C27.5306 18.4366 27.5435 18.4151 27.5647 18.4099L27.5742 18.4483C27.5647 18.4099 27.5647 18.4099 27.5647 18.4099L27.5752 18.4073C27.582 18.4056 27.592 18.4032 27.6048 18.4001C27.6303 18.3939 27.6669 18.3851 27.7111 18.3746C27.7996 18.3537 27.9188 18.3262 28.0416 18.2997C28.1643 18.2733 28.2912 18.2479 28.3948 18.2312C28.4466 18.2229 28.4931 18.2167 28.5308 18.2137C28.5497 18.2122 28.5668 18.2114 28.5816 18.2117C28.5958 18.212 28.6105 18.2133 28.623 18.2171C28.6438 18.2235 28.6556 18.2457 28.6491 18.2665C28.6427 18.2874 28.6206 18.2991 28.5997 18.2927C28.5979 18.2921 28.592 18.2911 28.5801 18.2908C28.5688 18.2906 28.5545 18.2912 28.5371 18.2925C28.5025 18.2953 28.4582 18.3012 28.4074 18.3093C28.3058 18.3256 28.1805 18.3507 28.0583 18.3771C27.9361 18.4034 27.8175 18.4308 27.7293 18.4516C27.6852 18.462 27.6488 18.4708 27.6234 18.4769C27.6107 18.48 27.6008 18.4825 27.594 18.4841L27.5837 18.4866Z" fill="white"/>
<path fill-rule="evenodd" clip-rule="evenodd" d="M-3.75 37.5029H63.75V45H-3.75V37.5029Z" fill="#DE3908"/>
</g>
<defs>
<clipPath id="clip0_4_4212">
<rect width="60" height="45" fill="white"/>
</clipPath>
</defs>
</svg>
