<svg width="60" height="45" viewBox="0 0 60 45" fill="none" xmlns="http://www.w3.org/2000/svg">
<g clip-path="url(#clip0_4_5650)">
<path d="M0 0H60V45H0V0Z" fill="white"/>
<path d="M24.9375 4.99683H60V10.0031H24.9375V4.99683ZM24.9375 15H60V19.9968H24.9375V15ZM0 25.0031H60V30H0V25.0031ZM0 34.9968H60V40.0031H0V34.9968Z" fill="#0038A8"/>
<path d="M11.9308 14.9413L12.7584 16.1771C9.3578 18.6381 11.4339 20.0933 9.02403 20.8811C10.5229 19.4183 8.78802 19.295 10.0509 16.2462" fill="#FCD116"/>
<path fill-rule="evenodd" clip-rule="evenodd" d="M11.9535 14.827L12.8712 16.1974L12.8068 16.244C11.9631 16.8546 11.463 17.3999 11.1484 17.8845C10.8341 18.3687 10.7022 18.7962 10.5994 19.1781C10.5879 19.2205 10.5768 19.2626 10.5658 19.3044C10.4788 19.6343 10.3981 19.9402 10.2139 20.2068C10.0029 20.5121 9.6628 20.7591 9.04966 20.9596L8.71269 21.0697L8.96641 20.8221C9.33561 20.4618 9.49668 20.1925 9.5593 19.9481C9.62236 19.702 9.58902 19.4708 9.54435 19.1706L9.54418 19.1695C9.49984 18.8715 9.44707 18.5169 9.48622 18.0442C9.5254 17.5711 9.65625 16.9834 9.97465 16.2147L10.0062 16.1385L10.1587 16.2017L10.1271 16.2779C9.81406 17.0336 9.6882 17.6046 9.65066 18.0578C9.61313 18.5108 9.66342 18.8498 9.70755 19.1463L9.70875 19.1544C9.75212 19.4458 9.79115 19.708 9.71913 19.9891C9.66404 20.2041 9.54588 20.4245 9.32827 20.6788C9.71011 20.5131 9.93206 20.3244 10.0781 20.113C10.2448 19.8717 10.318 19.5955 10.4064 19.2613C10.4173 19.2202 10.4285 19.1781 10.44 19.1352C10.5445 18.7471 10.6818 18.3002 11.01 17.7947C11.3296 17.3024 11.8275 16.7585 12.6458 16.1572L11.8164 14.9188L11.9535 14.827Z" fill="black"/>
<path fill-rule="evenodd" clip-rule="evenodd" d="M10.0318 18.8726C10.1662 17.9665 10.3431 16.7744 11.2687 15.2488L11.4098 15.3344C10.5015 16.8315 10.3285 17.9969 10.1949 18.8976C10.1918 18.9183 10.1888 18.9389 10.1857 18.9594C10.1183 19.4124 10.0557 19.8087 9.90106 20.1413C9.74381 20.4793 9.49329 20.7485 9.05956 20.9555L8.98849 20.8066C9.38951 20.6152 9.61124 20.3731 9.75145 20.0717C9.89423 19.7647 9.95434 19.3932 10.0225 18.9351C10.0256 18.9144 10.0287 18.8936 10.0318 18.8726Z" fill="black"/>
<path d="M12.4969 12.4969H14.1469L12.4969 21.5719L10.8469 12.4969H12.4969V21.5719Z" fill="#FCD116"/>
<path fill-rule="evenodd" clip-rule="evenodd" d="M10.748 12.4144H14.2457L12.4969 22.0331L10.748 12.4144ZM10.9457 12.5794L12.4144 20.657V12.5794H10.9457ZM12.5794 12.5794V20.657L14.048 12.5794H12.5794Z" fill="black"/>
<path d="M12.4969 15.5219C14.1675 15.5219 15.5219 14.1676 15.5219 12.4969C15.5219 10.8263 14.1675 9.47192 12.4969 9.47192C10.8262 9.47192 9.47188 10.8263 9.47188 12.4969C9.47188 14.1676 10.8262 15.5219 12.4969 15.5219Z" fill="#FCD116"/>
<path fill-rule="evenodd" clip-rule="evenodd" d="M12.4969 9.5544C10.8718 9.5544 9.55438 10.8718 9.55438 12.4969C9.55438 14.122 10.8718 15.4394 12.4969 15.4394C14.122 15.4394 15.4394 14.122 15.4394 12.4969C15.4394 10.8718 14.122 9.5544 12.4969 9.5544ZM9.38938 12.4969C9.38938 10.7807 10.7807 9.3894 12.4969 9.3894C14.2131 9.3894 15.6044 10.7807 15.6044 12.4969C15.6044 14.2131 14.2131 15.6044 12.4969 15.6044C10.7807 15.6044 9.38938 14.2131 9.38938 12.4969Z" fill="black"/>
<path d="M14.7243 11.2869C14.5319 11.5069 14.4219 11.1219 13.7344 11.1219C13.0469 11.1219 12.9369 11.5344 12.8269 11.4519C12.7169 11.3694 13.4044 10.8744 13.6244 10.8469C13.8444 10.8194 14.4769 11.0394 14.7243 11.2869ZM13.9269 11.5344C14.1194 11.6994 13.9544 12.0569 13.7619 12.0569C13.5694 12.0569 13.2119 11.7269 13.3769 11.5069" fill="black"/>
<path d="M13.0194 11.782C13.0469 11.452 13.3219 11.397 13.7619 11.397C14.2019 11.397 14.3944 11.727 14.5594 11.8095C14.3669 11.8095 14.2019 11.5345 13.7619 11.5345C13.3219 11.5345 13.3219 11.5345 13.0194 11.8095M13.1019 11.8645C13.2119 11.6995 13.3494 12.0295 13.6519 12.0295C13.9544 12.0295 14.1194 11.947 14.3119 11.8095C14.5044 11.672 14.0369 12.1395 13.7344 12.1395C13.4319 12.1395 13.0194 11.9745 13.1019 11.8645Z" fill="black"/>
<path d="M14.0369 12.0295C14.3944 11.837 14.1744 11.562 14.0369 11.507C14.0919 11.562 14.3119 11.837 14.0369 12.0295ZM12.4969 13.6794C12.6619 13.6794 12.7169 13.6244 12.9369 13.6244C13.1569 13.6244 13.6794 13.9269 13.9819 13.8169C13.3494 14.0644 13.5969 13.8994 12.4969 13.8994H12.3594M14.0919 14.0644C13.9819 13.8719 14.0094 13.9269 13.7894 13.6244C14.0094 13.7894 14.0644 13.8719 14.0919 14.0644ZM12.4969 14.3394C13.1844 14.3394 13.0744 14.2019 13.9819 13.8169C13.3219 13.8994 13.1844 14.1194 12.4969 14.1194H12.3594M12.4969 13.3219C12.6894 13.3219 12.7444 13.1844 12.9644 13.1844C13.1844 13.1844 13.4869 13.2669 13.6244 13.3769C13.6519 13.4044 13.5419 13.1569 13.3219 13.1294C13.1019 13.1019 13.1844 12.7444 12.9369 12.6894C12.9369 12.7994 13.0194 12.7719 13.0469 12.9369C13.0469 13.0744 12.7994 13.0744 12.7444 12.9369C12.7994 13.1569 12.6344 13.1569 12.4969 13.1569" fill="black"/>
<path d="M12.4969 14.5869C12.3594 14.5869 12.0019 14.6694 12.4969 14.6694C12.9919 14.6694 12.6344 14.5869 12.4969 14.5869Z" fill="black"/>
</g>
<defs>
<clipPath id="clip0_4_5650">
<rect width="60" height="45" fill="white"/>
</clipPath>
</defs>
</svg>
