<svg width="60" height="45" viewBox="0 0 60 45" fill="none" xmlns="http://www.w3.org/2000/svg">
<g clip-path="url(#clip0_4_5597)">
<path d="M0 30H60V45H0V30Z" fill="#1EB53A"/>
<path d="M0 0H60V15H0V0Z" fill="#0099B5"/>
<path d="M0 14.4H60V30.6H0V14.4Z" fill="#CE1126"/>
<path d="M0 15.3H60V29.7H0V15.3Z" fill="white"/>
<path d="M12.6 12.6C15.5823 12.6 18 10.1824 18 7.20005C18 4.21771 15.5823 1.80005 12.6 1.80005C9.61767 1.80005 7.20001 4.21771 7.20001 7.20005C7.20001 10.1824 9.61767 12.6 12.6 12.6Z" fill="white"/>
<path d="M14.4 12.6C17.3823 12.6 19.8 10.1824 19.8 7.20005C19.8 4.21771 17.3823 1.80005 14.4 1.80005C11.4177 1.80005 9 4.21771 9 7.20005C9 10.1824 11.4177 12.6 14.4 12.6Z" fill="#0099B5"/>
<path d="M24.4781 10.4419L24.1361 11.4679L24.6581 11.6479" fill="white"/>
</g>
<defs>
<clipPath id="clip0_4_5597">
<rect width="60" height="45" fill="white"/>
</clipPath>
</defs>
</svg>
