<svg width="40" height="40" viewBox="0 0 40 40" fill="none" xmlns="http://www.w3.org/2000/svg">
<path d="M4 4C4 1.79086 5.79086 0 8 0H24L36 12V36C36 38.2091 34.2091 40 32 40H8C5.79086 40 4 38.2091 4 36V4Z" fill="url(#paint0_linear_6726_49332)"/>
<path d="M24 0L36 12H28C25.7909 12 24 10.2091 24 8V0Z" fill="#CDD5DF"/>
<path d="M11.0623 32L13.3843 25.52H14.5723L12.4393 32H11.0623ZM15.8143 32L13.6903 25.52H14.9323L17.2543 32H15.8143ZM12.2863 29.489H15.9223V30.569H12.2863V29.489Z" fill="#4B5565"/>
<path d="M17.9232 32V25.52H19.3092V32H17.9232ZM18.5712 32V30.938H22.7472V32H18.5712ZM18.5712 29.21V28.166H22.4322V29.21H18.5712ZM18.5712 26.582V25.52H22.6392V26.582H18.5712Z" fill="#4B5565"/>
<path d="M23.557 32V25.52H26.635C27.115 25.52 27.526 25.604 27.868 25.772C28.216 25.94 28.483 26.174 28.669 26.474C28.861 26.774 28.957 27.125 28.957 27.527C28.957 27.929 28.861 28.283 28.669 28.589C28.477 28.895 28.207 29.135 27.859 29.309C27.517 29.477 27.109 29.561 26.635 29.561H24.655V28.499H26.563C26.881 28.499 27.127 28.412 27.301 28.238C27.481 28.058 27.571 27.824 27.571 27.536C27.571 27.248 27.481 27.017 27.301 26.843C27.127 26.669 26.881 26.582 26.563 26.582H24.943V32H23.557Z" fill="#4B5565"/>
<defs>
<linearGradient id="paint0_linear_6726_49332" x1="20" y1="0" x2="20" y2="40" gradientUnits="userSpaceOnUse">
<stop stop-color="#F9FAFB"/>
<stop offset="1" stop-color="#EDF0F3"/>
</linearGradient>
</defs>
</svg>
