<svg width="40" height="40" viewBox="0 0 40 40" fill="none" xmlns="http://www.w3.org/2000/svg">
<path d="M4 4C4 1.79086 5.79086 0 8 0H24L36 12V36C36 38.2091 34.2091 40 32 40H8C5.79086 40 4 38.2091 4 36V4Z" fill="url(#paint0_linear_6726_49268)"/>
<path d="M24 0L36 12H28C25.7909 12 24 10.2091 24 8V0Z" fill="#CDD5DF"/>
<path d="M13.2209 32V25.52H14.6069V32H13.2209ZM13.8689 29.489V28.427H17.5859V29.489H13.8689ZM13.8689 26.582V25.52H17.7929V26.582H13.8689Z" fill="#4B5565"/>
<path d="M18.5295 32V25.52H19.9155V32H18.5295Z" fill="#4B5565"/>
<path d="M24.0187 32.09C23.3167 32.09 22.7137 31.952 22.2097 31.676C21.7057 31.4 21.3157 31.013 21.0397 30.515C20.7697 30.017 20.6347 29.435 20.6347 28.769C20.6347 28.109 20.7727 27.53 21.0487 27.032C21.3247 26.528 21.7057 26.135 22.1917 25.853C22.6837 25.571 23.2537 25.43 23.9017 25.43C24.4357 25.43 24.9127 25.526 25.3327 25.718C25.7587 25.91 26.1007 26.174 26.3587 26.51C26.6227 26.84 26.7787 27.224 26.8267 27.662H25.4407C25.3807 27.308 25.2127 27.032 24.9367 26.834C24.6667 26.63 24.3277 26.528 23.9197 26.528C23.5417 26.528 23.2117 26.618 22.9297 26.798C22.6477 26.972 22.4287 27.224 22.2727 27.554C22.1167 27.884 22.0387 28.28 22.0387 28.742C22.0387 29.222 22.1167 29.633 22.2727 29.975C22.4287 30.311 22.6567 30.569 22.9567 30.749C23.2627 30.923 23.6377 31.01 24.0817 31.01C24.4417 31.01 24.7477 30.965 24.9997 30.875C25.2517 30.785 25.4437 30.659 25.5757 30.497L26.8897 31.019C26.5417 31.367 26.1367 31.634 25.6747 31.82C25.2187 32 24.6667 32.09 24.0187 32.09ZM25.5037 31.019V29.237L25.7827 29.516H24.0727V28.454H26.8897V31.019H25.5037Z" fill="#4B5565"/>
<defs>
<linearGradient id="paint0_linear_6726_49268" x1="20" y1="0" x2="20" y2="40" gradientUnits="userSpaceOnUse">
<stop stop-color="#F9FAFB"/>
<stop offset="1" stop-color="#EDF0F3"/>
</linearGradient>
</defs>
</svg>
