<svg width="40" height="40" viewBox="0 0 40 40" fill="none" xmlns="http://www.w3.org/2000/svg">
<path d="M7.75 4C7.75 2.20508 9.20508 0.75 11 0.75H27C27.1212 0.75 27.2375 0.798159 27.3232 0.883885L38.1161 11.6768C38.2018 11.7625 38.25 11.8788 38.25 12V36C38.25 37.7949 36.7949 39.25 35 39.25H11C9.20507 39.25 7.75 37.7949 7.75 36V4Z" fill="white" stroke="#CDD5DF" stroke-width="1.5"/>
<path d="M27 0.5V8C27 10.2091 28.7909 12 31 12H38.5" stroke="#CDD5DF" stroke-width="1.5"/>
<rect x="0.90625" y="18" width="23.1875" height="16" rx="2" fill="#875BF7"/>
<path d="M4.90625 29.6V22.4H6.44625V29.6H4.90625ZM5.62625 26.81V25.63H9.75625V26.81H5.62625ZM5.62625 23.58V22.4H9.98625V23.58H5.62625Z" fill="white"/>
<path d="M10.8047 29.6V22.4H12.3447V29.6H10.8047Z" fill="white"/>
<path d="M16.9038 29.7C16.1238 29.7 15.4538 29.5467 14.8938 29.24C14.3337 28.9333 13.9004 28.5033 13.5938 27.95C13.2937 27.3967 13.1438 26.75 13.1438 26.01C13.1438 25.2767 13.2971 24.6333 13.6038 24.08C13.9104 23.52 14.3337 23.0833 14.8737 22.77C15.4204 22.4567 16.0538 22.3 16.7738 22.3C17.3671 22.3 17.8971 22.4067 18.3638 22.62C18.8371 22.8333 19.2171 23.1267 19.5037 23.5C19.7971 23.8667 19.9704 24.2933 20.0238 24.78H18.4838C18.4171 24.3867 18.2304 24.08 17.9237 23.86C17.6237 23.6333 17.2471 23.52 16.7937 23.52C16.3737 23.52 16.0071 23.62 15.6938 23.82C15.3804 24.0133 15.1371 24.2933 14.9637 24.66C14.7904 25.0267 14.7037 25.4667 14.7037 25.98C14.7037 26.5133 14.7904 26.97 14.9637 27.35C15.1371 27.7233 15.3904 28.01 15.7238 28.21C16.0638 28.4033 16.4804 28.5 16.9738 28.5C17.3737 28.5 17.7138 28.45 17.9938 28.35C18.2738 28.25 18.4871 28.11 18.6338 27.93L20.0938 28.51C19.7071 28.8967 19.2571 29.1933 18.7438 29.4C18.2371 29.6 17.6238 29.7 16.9038 29.7ZM18.5538 28.51V26.53L18.8638 26.84H16.9637V25.66H20.0938V28.51H18.5538Z" fill="white"/>
</svg>
