<svg width="40" height="40" viewBox="0 0 40 40" fill="none" xmlns="http://www.w3.org/2000/svg">
<path d="M4 4C4 1.79086 5.79086 0 8 0H24L36 12V36C36 38.2091 34.2091 40 32 40H8C5.79086 40 4 38.2091 4 36V4Z" fill="url(#paint0_linear_6726_49316)"/>
<path d="M24 0L36 12H28C25.7909 12 24 10.2091 24 8V0Z" fill="#CDD5DF"/>
<path d="M9.26587 32V25.52H10.6519V32H9.26587Z" fill="#4B5565"/>
<path d="M11.551 32V25.52H13.342L16.222 31.244L15.781 31.352V25.52H17.131V32H15.34L12.46 26.276L12.901 26.168V32H11.551Z" fill="#4B5565"/>
<path d="M18.8746 32V30.92H20.5126C20.9806 30.92 21.3766 30.827 21.7006 30.641C22.0306 30.449 22.2796 30.188 22.4476 29.858C22.6216 29.528 22.7086 29.15 22.7086 28.724C22.7086 28.304 22.6246 27.935 22.4566 27.617C22.2886 27.299 22.0396 27.05 21.7096 26.87C21.3856 26.69 20.9866 26.6 20.5126 26.6H18.9016V25.52H20.5126C21.2386 25.52 21.8716 25.652 22.4116 25.916C22.9516 26.174 23.3686 26.546 23.6626 27.032C23.9626 27.512 24.1126 28.082 24.1126 28.742C24.1126 29.402 23.9626 29.978 23.6626 30.47C23.3626 30.956 22.9426 31.334 22.4026 31.604C21.8686 31.868 21.2416 32 20.5216 32H18.8746ZM18.0286 32V25.52H19.4146V32H18.0286Z" fill="#4B5565"/>
<path d="M25.6773 32V30.92H27.3153C27.7833 30.92 28.1793 30.827 28.5033 30.641C28.8333 30.449 29.0823 30.188 29.2503 29.858C29.4243 29.528 29.5113 29.15 29.5113 28.724C29.5113 28.304 29.4273 27.935 29.2593 27.617C29.0913 27.299 28.8423 27.05 28.5123 26.87C28.1883 26.69 27.7893 26.6 27.3153 26.6H25.7043V25.52H27.3153C28.0413 25.52 28.6743 25.652 29.2143 25.916C29.7543 26.174 30.1713 26.546 30.4653 27.032C30.7653 27.512 30.9153 28.082 30.9153 28.742C30.9153 29.402 30.7653 29.978 30.4653 30.47C30.1653 30.956 29.7453 31.334 29.2053 31.604C28.6713 31.868 28.0443 32 27.3243 32H25.6773ZM24.8313 32V25.52H26.2173V32H24.8313Z" fill="#4B5565"/>
<defs>
<linearGradient id="paint0_linear_6726_49316" x1="20" y1="0" x2="20" y2="40" gradientUnits="userSpaceOnUse">
<stop stop-color="#F9FAFB"/>
<stop offset="1" stop-color="#EDF0F3"/>
</linearGradient>
</defs>
</svg>
