<svg width="40" height="40" viewBox="0 0 40 40" fill="none" xmlns="http://www.w3.org/2000/svg">
<path d="M7.75 4C7.75 2.20508 9.20508 0.75 11 0.75H27C27.1212 0.75 27.2375 0.798159 27.3232 0.883885L38.1161 11.6768C38.2018 11.7625 38.25 11.8788 38.25 12V36C38.25 37.7949 36.7949 39.25 35 39.25H11C9.20507 39.25 7.75 37.7949 7.75 36V4Z" fill="white" stroke="#CDD5DF" stroke-width="1.5"/>
<path d="M27 0.5V8C27 10.2091 28.7909 12 31 12H38.5" stroke="#CDD5DF" stroke-width="1.5"/>
<rect x="0.472656" y="18" width="32.0549" height="16" rx="2" fill="#BA24D5"/>
<path d="M4.47266 29.6V22.4H6.01266V29.6H4.47266Z" fill="white"/>
<path d="M7.01172 29.6V22.4H9.00172L12.2017 28.76L11.7117 28.88V22.4H13.2117V29.6H11.2217L8.02172 23.24L8.51172 23.12V29.6H7.01172Z" fill="white"/>
<path d="M15.149 29.6V28.4H16.969C17.489 28.4 17.929 28.2967 18.289 28.09C18.6557 27.8767 18.9323 27.5867 19.119 27.22C19.3123 26.8533 19.409 26.4333 19.409 25.96C19.409 25.4933 19.3157 25.0833 19.129 24.73C18.9423 24.3767 18.6657 24.1 18.299 23.9C17.939 23.7 17.4957 23.6 16.969 23.6H15.179V22.4H16.969C17.7757 22.4 18.479 22.5467 19.079 22.84C19.679 23.1267 20.1423 23.54 20.469 24.08C20.8023 24.6133 20.969 25.2467 20.969 25.98C20.969 26.7133 20.8023 27.3533 20.469 27.9C20.1357 28.44 19.669 28.86 19.069 29.16C18.4757 29.4533 17.779 29.6 16.979 29.6H15.149ZM14.209 29.6V22.4H15.749V29.6H14.209Z" fill="white"/>
<path d="M22.7076 29.6V28.4H24.5276C25.0476 28.4 25.4876 28.2967 25.8476 28.09C26.2142 27.8767 26.4909 27.5867 26.6776 27.22C26.8709 26.8533 26.9676 26.4333 26.9676 25.96C26.9676 25.4933 26.8742 25.0833 26.6876 24.73C26.5009 24.3767 26.2242 24.1 25.8576 23.9C25.4976 23.7 25.0542 23.6 24.5276 23.6H22.7376V22.4H24.5276C25.3342 22.4 26.0376 22.5467 26.6376 22.84C27.2376 23.1267 27.7009 23.54 28.0276 24.08C28.3609 24.6133 28.5276 25.2467 28.5276 25.98C28.5276 26.7133 28.3609 27.3533 28.0276 27.9C27.6942 28.44 27.2276 28.86 26.6276 29.16C26.0342 29.4533 25.3376 29.6 24.5376 29.6H22.7076ZM21.7676 29.6V22.4H23.3076V29.6H21.7676Z" fill="white"/>
</svg>
