<svg width="40" height="40" viewBox="0 0 40 40" fill="none" xmlns="http://www.w3.org/2000/svg">
<path d="M4 4C4 1.79086 5.79086 0 8 0H24L36 12V36C36 38.2091 34.2091 40 32 40H8C5.79086 40 4 38.2091 4 36V4Z" fill="#0F6AF5"/>
<path opacity="0.3" d="M24 0L36 12H28C25.7909 12 24 10.2091 24 8V0Z" fill="white"/>
<path d="M11.1599 32V25.52H14.2379C14.7179 25.52 15.1289 25.604 15.4709 25.772C15.8189 25.94 16.0859 26.174 16.2719 26.474C16.4639 26.774 16.5599 27.125 16.5599 27.527C16.5599 27.929 16.4639 28.283 16.2719 28.589C16.0799 28.895 15.8099 29.135 15.4619 29.309C15.1199 29.477 14.7119 29.561 14.2379 29.561H12.2579V28.499H14.1659C14.4839 28.499 14.7299 28.412 14.9039 28.238C15.0839 28.058 15.1739 27.824 15.1739 27.536C15.1739 27.248 15.0839 27.017 14.9039 26.843C14.7299 26.669 14.4839 26.582 14.1659 26.582H12.5459V32H11.1599Z" fill="white"/>
<path d="M19.7302 32.081C18.8902 32.081 18.2182 31.895 17.7142 31.523C17.2102 31.145 16.9162 30.614 16.8322 29.93H18.1642C18.2062 30.278 18.3742 30.554 18.6682 30.758C18.9622 30.956 19.3372 31.055 19.7932 31.055C20.1652 31.055 20.4502 30.989 20.6482 30.857C20.8522 30.725 20.9542 30.548 20.9542 30.326C20.9542 30.116 20.8942 29.948 20.7742 29.822C20.6542 29.69 20.4472 29.585 20.1532 29.507L18.9472 29.174C18.3292 29 17.8762 28.763 17.5882 28.463C17.3062 28.157 17.1652 27.776 17.1652 27.32C17.1652 26.93 17.2642 26.594 17.4622 26.312C17.6662 26.024 17.9512 25.805 18.3172 25.655C18.6832 25.499 19.1122 25.421 19.6042 25.421C20.3602 25.421 20.9632 25.601 21.4132 25.961C21.8632 26.315 22.1182 26.786 22.1782 27.374H20.8462C20.7862 27.056 20.6392 26.822 20.4052 26.672C20.1772 26.522 19.8832 26.447 19.5232 26.447C19.2112 26.447 18.9622 26.507 18.7762 26.627C18.5902 26.747 18.4972 26.909 18.4972 27.113C18.4972 27.269 18.5482 27.413 18.6502 27.545C18.7522 27.671 18.9652 27.779 19.2892 27.869L20.4952 28.202C21.1312 28.376 21.5872 28.616 21.8632 28.922C22.1452 29.222 22.2862 29.603 22.2862 30.065C22.2862 30.713 22.0612 31.211 21.6112 31.559C21.1612 31.907 20.5342 32.081 19.7302 32.081Z" fill="white"/>
<path d="M23.7833 32V30.92H25.4213C25.8893 30.92 26.2853 30.827 26.6093 30.641C26.9393 30.449 27.1883 30.188 27.3563 29.858C27.5303 29.528 27.6173 29.15 27.6173 28.724C27.6173 28.304 27.5333 27.935 27.3653 27.617C27.1973 27.299 26.9483 27.05 26.6183 26.87C26.2943 26.69 25.8953 26.6 25.4213 26.6H23.8103V25.52H25.4213C26.1473 25.52 26.7803 25.652 27.3203 25.916C27.8603 26.174 28.2773 26.546 28.5713 27.032C28.8713 27.512 29.0213 28.082 29.0213 28.742C29.0213 29.402 28.8713 29.978 28.5713 30.47C28.2713 30.956 27.8513 31.334 27.3113 31.604C26.7773 31.868 26.1503 32 25.4303 32H23.7833ZM22.9373 32V25.52H24.3233V32H22.9373Z" fill="white"/>
</svg>
