<svg width="40" height="40" viewBox="0 0 40 40" fill="none" xmlns="http://www.w3.org/2000/svg">
<path d="M7.75 4C7.75 2.20508 9.20508 0.75 11 0.75H27C27.1212 0.75 27.2375 0.798159 27.3232 0.883885L38.1161 11.6768C38.2018 11.7625 38.25 11.8788 38.25 12V36C38.25 37.7949 36.7949 39.25 35 39.25H11C9.20507 39.25 7.75 37.7949 7.75 36V4Z" fill="white" stroke="#CDD5DF" stroke-width="1.5"/>
<path d="M27 0.5V8C27 10.2091 28.7909 12 31 12H38.5" stroke="#CDD5DF" stroke-width="1.5"/>
<rect x="0.558594" y="18" width="27.883" height="16" rx="2" fill="#6927DA"/>
<path d="M4.55859 29.6L7.13859 22.4H8.45859L6.08859 29.6H4.55859ZM9.83859 29.6L7.47859 22.4H8.85859L11.4386 29.6H9.83859ZM5.91859 26.81H9.95859V28.01H5.91859V26.81Z" fill="white"/>
<path d="M12.1819 29.6V22.4H13.7219V29.6H12.1819ZM12.9019 29.6V28.42H17.5419V29.6H12.9019ZM12.9019 26.5V25.34H17.1919V26.5H12.9019ZM12.9019 23.58V22.4H17.4219V23.58H12.9019Z" fill="white"/>
<path d="M18.4416 29.6V22.4H21.8616C22.395 22.4 22.8516 22.4933 23.2316 22.68C23.6183 22.8667 23.915 23.1267 24.1216 23.46C24.335 23.7933 24.4416 24.1833 24.4416 24.63C24.4416 25.0767 24.335 25.47 24.1216 25.81C23.9083 26.15 23.6083 26.4167 23.2216 26.61C22.8416 26.7967 22.3883 26.89 21.8616 26.89H19.6616V25.71H21.7816C22.135 25.71 22.4083 25.6133 22.6016 25.42C22.8016 25.22 22.9016 24.96 22.9016 24.64C22.9016 24.32 22.8016 24.0633 22.6016 23.87C22.4083 23.6767 22.135 23.58 21.7816 23.58H19.9816V29.6H18.4416Z" fill="white"/>
</svg>
