<svg width="40" height="40" viewBox="0 0 40 40" fill="none" xmlns="http://www.w3.org/2000/svg">
<path d="M7.75 4C7.75 2.20508 9.20508 0.75 11 0.75H27C27.1212 0.75 27.2375 0.798159 27.3232 0.883885L38.1161 11.6768C38.2018 11.7625 38.25 11.8788 38.25 12V36C38.25 37.7949 36.7949 39.25 35 39.25H11C9.20507 39.25 7.75 37.7949 7.75 36V4Z" fill="white" stroke="#CDD5DF" stroke-width="1.5"/>
<path d="M27 0.5V8C27 10.2091 28.7909 12 31 12H38.5" stroke="#CDD5DF" stroke-width="1.5"/>
<rect x="0.918457" y="18" width="17.1633" height="16" rx="2" fill="#E04F16"/>
<path d="M4.91846 29.6L7.49846 22.4H8.81846L6.44846 29.6H4.91846ZM10.1985 29.6L7.83846 22.4H9.21846L11.7985 29.6H10.1985ZM6.27846 26.81H10.3185V28.01H6.27846V26.81Z" fill="white"/>
<path d="M12.5417 29.6V22.4H14.0817V29.6H12.5417Z" fill="white"/>
</svg>
