<svg width="40" height="40" viewBox="0 0 40 40" fill="none" xmlns="http://www.w3.org/2000/svg">
<path d="M7.75 4C7.75 2.20508 9.20508 0.75 11 0.75H27C27.1212 0.75 27.2375 0.798159 27.3232 0.883885L38.1161 11.6768C38.2018 11.7625 38.25 11.8788 38.25 12V36C38.25 37.7949 36.7949 39.25 35 39.25H11C9.20507 39.25 7.75 37.7949 7.75 36V4Z" fill="white" stroke="#CDD5DF" stroke-width="1.5"/>
<path d="M27 0.5V8C27 10.2091 28.7909 12 31 12H38.5" stroke="#CDD5DF" stroke-width="1.5"/>
<rect x="0.577148" y="18" width="27.8459" height="16" rx="2" fill="#0F6AF5"/>
<path d="M4.57715 29.61V22.41H7.99715C8.53048 22.41 8.98715 22.5033 9.36715 22.69C9.75382 22.8767 10.0505 23.1367 10.2571 23.47C10.4705 23.8033 10.5771 24.1933 10.5771 24.64C10.5771 25.0867 10.4705 25.48 10.2571 25.82C10.0438 26.16 9.74381 26.4267 9.35715 26.62C8.97715 26.8067 8.52382 26.9 7.99715 26.9H5.79715V25.72H7.91715C8.27048 25.72 8.54382 25.6233 8.73715 25.43C8.93715 25.23 9.03715 24.97 9.03715 24.65C9.03715 24.33 8.93715 24.0733 8.73715 23.88C8.54382 23.6867 8.27048 23.59 7.91715 23.59H6.11715V29.61H4.57715Z" fill="white"/>
<path d="M14.0996 29.7C13.1663 29.7 12.4196 29.4933 11.8596 29.08C11.2996 28.66 10.973 28.07 10.8796 27.31H12.3596C12.4063 27.6967 12.593 28.0033 12.9196 28.23C13.2463 28.45 13.663 28.56 14.1696 28.56C14.583 28.56 14.8996 28.4867 15.1196 28.34C15.3463 28.1933 15.4596 27.9967 15.4596 27.75C15.4596 27.5167 15.393 27.33 15.2596 27.19C15.1263 27.0433 14.8963 26.9267 14.5696 26.84L13.2296 26.47C12.543 26.2767 12.0396 26.0133 11.7196 25.68C11.4063 25.34 11.2496 24.9167 11.2496 24.41C11.2496 23.9767 11.3596 23.6033 11.5796 23.29C11.8063 22.97 12.123 22.7267 12.5296 22.56C12.9363 22.3867 13.413 22.3 13.9596 22.3C14.7996 22.3 15.4696 22.5 15.9696 22.9C16.4696 23.2933 16.753 23.8167 16.8196 24.47H15.3396C15.273 24.1167 15.1096 23.8567 14.8496 23.69C14.5963 23.5233 14.2696 23.44 13.8696 23.44C13.523 23.44 13.2463 23.5067 13.0396 23.64C12.833 23.7733 12.7296 23.9533 12.7296 24.18C12.7296 24.3533 12.7863 24.5133 12.8996 24.66C13.013 24.8 13.2496 24.92 13.6096 25.02L14.9496 25.39C15.6563 25.5833 16.163 25.85 16.4696 26.19C16.783 26.5233 16.9396 26.9467 16.9396 27.46C16.9396 28.18 16.6896 28.7333 16.1896 29.12C15.6896 29.5067 14.993 29.7 14.0996 29.7Z" fill="white"/>
<path d="M18.6031 29.61V28.41H20.4231C20.9431 28.41 21.3831 28.3067 21.7431 28.1C22.1098 27.8867 22.3864 27.5967 22.5731 27.23C22.7664 26.8633 22.8631 26.4433 22.8631 25.97C22.8631 25.5033 22.7698 25.0933 22.5831 24.74C22.3964 24.3867 22.1198 24.11 21.7531 23.91C21.3931 23.71 20.9498 23.61 20.4231 23.61H18.6331V22.41H20.4231C21.2298 22.41 21.9331 22.5567 22.5331 22.85C23.1331 23.1367 23.5964 23.55 23.9231 24.09C24.2564 24.6233 24.4231 25.2567 24.4231 25.99C24.4231 26.7233 24.2564 27.3633 23.9231 27.91C23.5898 28.45 23.1231 28.87 22.5231 29.17C21.9298 29.4633 21.2331 29.61 20.4331 29.61H18.6031ZM17.6631 29.61V22.41H19.2031V29.61H17.6631Z" fill="white"/>
</svg>
