<svg width="46" height="32" viewBox="0 0 46 32" fill="none" xmlns="http://www.w3.org/2000/svg">
<rect x="0.5" y="0.5" width="45" height="31" rx="3.5" fill="white"/>
<path fill-rule="evenodd" clip-rule="evenodd" d="M19.5128 15.9588H18.0342V15.3786C18.0342 14.624 18.4653 14.408 18.8372 14.408C19.2476 14.408 19.5673 14.5902 19.5673 14.5902L20.0707 13.4397C20.0707 13.4397 19.5604 13.1062 18.6328 13.1062C17.59 13.1062 16.4034 13.6941 16.4034 15.5392V15.9588H13.9281V15.3786C13.9281 14.624 14.3592 14.408 14.7304 14.408C14.9418 14.408 15.2261 14.4572 15.4613 14.5902L15.9646 13.4397C15.6641 13.263 15.1815 13.1062 14.5268 13.1062C13.4839 13.1062 12.2974 13.6941 12.2974 15.5392V15.9588H11.3506V17.2176H12.2974V21.6649H13.9281V17.2176H16.4034V21.6649H18.0342V17.2176H19.5128V15.9588ZM7.6067 20.6411C7.17788 20.6411 6.96424 20.4305 6.96424 20.0824C6.96424 19.4384 7.68509 19.2179 9.00075 19.0788C9.00075 19.9402 8.41823 20.6411 7.6067 20.6411ZM8.17385 15.7911C7.23398 15.7911 6.15194 16.2346 5.56481 16.7026L6.10122 17.8315C6.57231 17.4004 7.33389 17.0323 8.02092 17.0323C8.67337 17.0323 9.03379 17.2505 9.03379 17.6893C9.03379 17.986 8.79479 18.135 8.34292 18.1935C6.65684 18.4132 5.3335 18.8782 5.3335 20.1785C5.3335 21.209 6.06741 21.833 7.214 21.833C8.03168 21.833 8.76021 21.3781 9.1068 20.7779V21.6647H10.6315V17.9491C10.6315 16.4144 9.56482 15.7911 8.17385 15.7911ZM23.4854 15.9588V21.6649H25.1177V18.916C25.1177 17.6088 25.9085 17.2253 26.4602 17.2253C26.6754 17.2253 26.9659 17.2876 27.158 17.4313L27.4554 15.9227C27.2034 15.8151 26.9398 15.7913 26.7238 15.7913C25.8846 15.7913 25.3574 16.1633 25.0093 16.9179V15.9588H23.4854ZM33.1778 16.7936C33.5136 16.3017 34.1584 15.7914 35.0214 15.7914C36.0643 15.7914 36.9273 16.4385 36.9273 17.7211V21.665H35.2965V18.2368C35.2965 17.4814 34.8416 17.1678 34.4105 17.1678C33.871 17.1678 33.3315 17.6612 33.3315 18.7279V21.665H31.7008V18.2483C31.7008 17.4698 31.2719 17.1678 30.8055 17.1678C30.2898 17.1678 29.738 17.6727 29.738 18.7279V21.665H28.105V15.959H29.6781V16.822C29.954 16.271 30.5511 15.7914 31.4141 15.7914C32.2049 15.7914 32.8658 16.158 33.1778 16.7936ZM22.1156 21.6651H20.4864V15.9591H22.1156V21.6651Z" fill="#060809"/>
<path fill-rule="evenodd" clip-rule="evenodd" d="M29.9915 8C25.5864 8 21.6602 11.0578 20.5459 14.9894H22.1428C23.0735 12.0615 26.2328 9.49165 29.9915 9.49165C34.5601 9.49165 38.5087 12.9698 38.5087 18.3847C38.5087 19.6004 38.3511 20.6963 38.053 21.6646H39.6022L39.6176 21.6116C39.8712 20.6125 40.0003 19.5274 40.0003 18.3847C40.0003 12.3458 35.5999 8 29.9915 8Z" fill="#0FA0EA"/>
<rect x="0.5" y="0.5" width="45" height="31" rx="3.5" stroke="#EEF2F6"/>
</svg>
