<svg width="28" height="20" viewBox="0 0 28 20" fill="none" xmlns="http://www.w3.org/2000/svg">
<rect x="0.5" y="0.5" width="27" height="19" rx="3.5" fill="white"/>
<path fill-rule="evenodd" clip-rule="evenodd" d="M12.0517 9.97431H11.1385V9.61168C11.1385 9.14002 11.4048 9.00505 11.6345 9.00505C11.888 9.00505 12.0854 9.11888 12.0854 9.11888L12.3963 8.39986C12.3963 8.39986 12.0812 8.19141 11.5082 8.19141C10.8641 8.19141 10.1313 8.55884 10.1313 9.71206V9.97431H8.60238V9.61168C8.60238 9.14002 8.86867 9.00505 9.09793 9.00505C9.22846 9.00505 9.40408 9.03579 9.54933 9.11888L9.86023 8.39986C9.67464 8.28939 9.37655 8.19141 8.97214 8.19141C8.32803 8.19141 7.59516 8.55884 7.59516 9.71206V9.97431H7.01038V10.7611H7.59516V13.5406H8.60238V10.7611H10.1313V13.5406H11.1385V10.7611H12.0517V9.97431ZM4.69798 12.9007C4.43312 12.9007 4.30117 12.7691 4.30117 12.5515C4.30117 12.149 4.7464 12.0112 5.55901 11.9243C5.55901 12.4627 5.19922 12.9007 4.69798 12.9007ZM5.04828 9.8695C4.46777 9.8695 3.79946 10.1466 3.43682 10.4391L3.76813 11.1447C4.05909 10.8753 4.52948 10.6452 4.95382 10.6452C5.35681 10.6452 5.57942 10.7816 5.57942 11.0559C5.57942 11.2413 5.4318 11.3344 5.15271 11.3709C4.11131 11.5083 3.29395 11.7989 3.29395 12.6116C3.29395 13.2557 3.74724 13.6457 4.45543 13.6457C4.96047 13.6457 5.41044 13.3613 5.62452 12.9862V13.5405H6.56624V11.2182C6.56624 10.259 5.90741 9.8695 5.04828 9.8695ZM14.5054 9.97431V13.5406H15.5136V11.8225C15.5136 11.0055 16.002 10.7659 16.3428 10.7659C16.4757 10.7659 16.6551 10.8048 16.7738 10.8946L16.9575 9.95174C16.8018 9.88449 16.639 9.8696 16.5056 9.8696C15.9873 9.8696 15.6617 10.1021 15.4467 10.5737V9.97431H14.5054ZM20.4919 10.496C20.6993 10.1886 21.0976 9.86968 21.6306 9.86968C22.2747 9.86968 22.8078 10.2741 22.8078 11.0757V13.5407H21.8005V11.398C21.8005 10.9259 21.5195 10.7299 21.2532 10.7299C20.92 10.7299 20.5868 11.0383 20.5868 11.7049V13.5407H19.5796V11.4052C19.5796 10.9187 19.3147 10.7299 19.0266 10.7299C18.7081 10.7299 18.3673 11.0455 18.3673 11.7049V13.5407H17.3587V9.97439H18.3303V10.5138C18.5007 10.1694 18.8695 9.86968 19.4026 9.86968C19.891 9.86968 20.2992 10.0988 20.4919 10.496ZM13.6594 13.5407H12.6531V9.97445H13.6594V13.5407Z" fill="#060809"/>
<path fill-rule="evenodd" clip-rule="evenodd" d="M18.524 5C15.8032 5 13.3782 6.91115 12.6899 9.36841H13.6763C14.2511 7.53843 16.2024 5.93228 18.524 5.93228C21.3458 5.93228 23.7846 8.10615 23.7846 11.4904C23.7846 12.2503 23.6873 12.9352 23.5031 13.5404H24.46L24.4695 13.5072C24.6262 12.8828 24.7059 12.2046 24.7059 11.4904C24.7059 7.71614 21.988 5 18.524 5Z" fill="#0FA0EA"/>
<rect x="0.5" y="0.5" width="27" height="19" rx="3.5" stroke="#EEF2F6"/>
</svg>
