<svg width="28" height="20" viewBox="0 0 28 20" fill="none" xmlns="http://www.w3.org/2000/svg">
<rect x="0.5" y="0.5" width="27" height="19" rx="3.5" fill="white"/>
<path fill-rule="evenodd" clip-rule="evenodd" d="M22.4766 11.6234H23.1672H23.1678C23.2401 11.6249 23.3001 11.5645 23.3028 11.4877V9.45144C23.3028 9.19569 23.3157 8.96472 23.4126 8.73376C23.4791 8.55807 23.6358 8.43978 23.8137 8.43103C24.2554 8.43103 24.2512 8.94597 24.2479 9.35051C24.2476 9.38463 24.2473 9.41797 24.2473 9.45014V11.5047C24.2558 11.5706 24.3075 11.6206 24.37 11.6234H25.0667C25.1328 11.6249 25.1897 11.5741 25.1998 11.5047V9.12392C25.1998 8.7579 25.1998 8.24835 25.0189 7.94562C24.8232 7.6194 24.5202 7.5 24.2099 7.5C23.7315 7.5 23.4598 7.74662 23.266 8.26401H23.2525V7.68529C23.2385 7.62479 23.1884 7.5816 23.1298 7.5796H22.487C22.4191 7.57782 22.3613 7.63171 22.354 7.70356V11.4877C22.3548 11.5603 22.4085 11.6196 22.4766 11.6234ZM21.8265 9.63869C21.8265 8.44473 21.2702 7.50522 20.2417 7.50522C19.2395 7.50522 18.6832 8.42907 18.6832 9.5989C18.6832 10.7687 19.2327 11.7082 20.2417 11.7082C21.2132 11.7082 21.8265 10.7929 21.8265 9.63869ZM19.705 9.4795C19.705 9.01757 19.7375 8.27771 20.2484 8.27771C20.468 8.27771 20.6231 8.38275 20.701 8.64372C20.7918 8.9458 20.8047 9.32813 20.8047 9.64652C20.8047 10.1319 20.7845 10.9279 20.2417 10.9279C19.7048 10.9279 19.7049 9.96284 19.705 9.49481L19.705 9.4795ZM6.74536 11.6313H7.43781H7.43842C7.47318 11.6321 7.50683 11.6182 7.53192 11.5926C7.55702 11.567 7.57149 11.5318 7.57213 11.4949V9.48993L7.57212 9.45855C7.57183 9.0226 7.57145 8.44603 8.05053 8.44603C8.49342 8.44603 8.48657 8.95262 8.48104 9.36171V9.36173V9.36175V9.36177V9.36179C8.48044 9.40589 8.47986 9.44885 8.47986 9.48993V11.4955C8.48103 11.568 8.53454 11.6271 8.60252 11.6313H9.29681C9.33146 11.6319 9.36495 11.618 9.38991 11.5924C9.41488 11.5668 9.42926 11.5317 9.4299 11.4949V9.48993L9.42984 9.44226C9.42942 9.22984 9.42886 8.94317 9.49492 8.76507C9.56227 8.58302 9.72509 8.46114 9.90892 8.45516C10.1095 8.45516 10.2646 8.52693 10.3162 8.78138C10.3425 8.90384 10.3391 9.18773 10.3368 9.37599V9.376V9.376V9.37603V9.37606V9.37608V9.37611C10.3363 9.42049 10.3358 9.45956 10.3358 9.48993V11.4955C10.3367 11.5681 10.3903 11.6275 10.4585 11.6313H11.1509C11.1857 11.6321 11.2193 11.6182 11.2444 11.5926C11.2695 11.567 11.284 11.5318 11.2846 11.4949V9.1076C11.2846 9.0494 11.2856 8.98992 11.2865 8.92978C11.2922 8.57333 11.2982 8.1939 11.1098 7.92147C10.8814 7.61245 10.5141 7.45845 10.149 7.51862C9.7838 7.57879 9.47752 7.84376 9.34772 8.2118C9.15329 7.73357 8.87545 7.51108 8.44858 7.51108C8.0217 7.51108 7.70461 7.73357 7.53656 8.2118H7.52368V7.71791C7.52003 7.64751 7.46719 7.5913 7.40101 7.58742H6.75517C6.68385 7.58667 6.62502 7.64664 6.62269 7.72247V11.5066C6.62898 11.5747 6.68113 11.6277 6.74536 11.6313ZM5.54016 11.66C5.49455 11.702 5.42901 11.7091 5.3764 11.6776C5.18016 11.5039 5.121 11.41 5.03014 11.2658C5.01451 11.241 4.99794 11.2147 4.97958 11.1863C4.5987 11.5986 4.32945 11.7219 3.83695 11.7219C3.25367 11.7219 2.7998 11.339 2.7998 10.573C2.7998 9.97471 3.10647 9.56824 3.5358 9.36859C3.85283 9.22061 4.27582 9.17467 4.64152 9.13496C4.70951 9.12758 4.77553 9.12041 4.83851 9.11284V9.01758L4.83879 8.9621C4.84 8.79968 4.84135 8.61885 4.75449 8.48258C4.66985 8.34688 4.50915 8.29142 4.36564 8.29142C4.10129 8.29142 3.86577 8.43561 3.80812 8.73377C3.80081 8.80332 3.7505 8.85899 3.68545 8.86948L3.01938 8.79184C2.98614 8.78678 2.95631 8.76744 2.93683 8.73834C2.91736 8.70925 2.90995 8.67293 2.91634 8.63786C3.07028 7.77142 3.80628 7.5098 4.46561 7.5098C4.80294 7.5098 5.24331 7.60505 5.50827 7.87647C5.81931 8.18625 5.81738 8.59178 5.81528 9.03496C5.81511 9.07155 5.81493 9.10839 5.81493 9.14546V10.2931C5.81493 10.6022 5.92274 10.7559 6.03629 10.9179C6.04978 10.9371 6.06335 10.9565 6.07683 10.9762C6.12099 11.0414 6.1308 11.123 6.07683 11.1719C5.93515 11.2979 5.68368 11.5301 5.54568 11.6613L5.54016 11.66ZM4.84157 9.86313L4.84159 9.89886C4.84183 10.1702 4.84204 10.4004 4.71216 10.6461C4.60176 10.8535 4.42696 10.9814 4.23192 10.9814C3.96635 10.9814 3.81118 10.7661 3.81118 10.4464C3.81118 9.81877 4.34048 9.70459 4.84157 9.70459V9.86313ZM15.1172 10.9152C15.1307 10.9344 15.1443 10.9538 15.1578 10.9736C15.2044 11.0414 15.2142 11.121 15.1547 11.1661C15.0131 11.292 14.7616 11.5249 14.6236 11.6554C14.5777 11.6969 14.5124 11.7036 14.4598 11.6723C14.2627 11.4979 14.2044 11.4054 14.1122 11.2593L14.1122 11.2593C14.0968 11.2349 14.0805 11.2091 14.0624 11.1811C13.6821 11.5934 13.411 11.7167 12.9204 11.7167C12.3371 11.7167 11.8832 11.3337 11.8832 10.5684C11.8832 9.96948 12.1881 9.56301 12.6223 9.36337C12.94 9.21482 13.3654 9.1691 13.7321 9.12968C13.7987 9.12252 13.8633 9.11558 13.925 9.10826V9.01497L13.9253 8.95976C13.9265 8.79727 13.9278 8.61638 13.8404 8.48062C13.7582 8.34491 13.5944 8.2888 13.4515 8.2888C13.1872 8.2888 12.9529 8.43299 12.8946 8.73116C12.8871 8.80061 12.8369 8.85616 12.7719 8.86686L12.1004 8.78987C12.0669 8.78499 12.0368 8.76563 12.0172 8.73636C11.9975 8.70709 11.9901 8.67051 11.9967 8.63525C12.1513 7.76816 12.8873 7.50718 13.5466 7.50718C13.8833 7.50718 14.3237 7.60244 14.5892 7.87385C14.9009 8.18203 14.8987 8.58442 14.8963 9.02534V9.02549V9.02564V9.02579V9.02594C14.8961 9.06463 14.8959 9.10361 14.8959 9.14284V10.2911C14.8959 10.5996 15.0037 10.7533 15.1172 10.9152ZM13.3166 10.9775C13.511 10.9775 13.6864 10.8496 13.7962 10.6428C13.9265 10.3958 13.9264 10.1645 13.9262 9.88977L13.9262 9.86052V9.70132C13.4251 9.70132 12.8958 9.81484 12.8958 10.4431C12.8958 10.7622 13.051 10.9775 13.3166 10.9775ZM15.7441 7.70942V8.24834C15.7437 8.2853 15.7576 8.32081 15.7826 8.34658C15.8075 8.37235 15.8412 8.38613 15.876 8.3847H17.0683L15.7012 10.4725C15.6388 10.5845 15.6093 10.7138 15.6165 10.8437V11.395C15.6165 11.4746 15.6993 11.5653 15.7785 11.5203C16.5325 11.1044 17.4291 11.1027 18.1845 11.5157C18.271 11.5634 18.3526 11.4714 18.3526 11.3918V10.8124C18.3503 10.7238 18.3034 10.6434 18.2299 10.6017C17.8319 10.3635 17.3688 10.2937 16.9309 10.3048L18.111 8.51323C18.2207 8.35273 18.2821 8.25095 18.2821 8.17331V7.70942C18.2824 7.67257 18.2686 7.63717 18.2438 7.61142C18.219 7.58567 18.1854 7.57182 18.1508 7.57306H15.8735C15.8389 7.57099 15.805 7.58465 15.7803 7.61064C15.7557 7.63663 15.7425 7.67253 15.7441 7.70942Z" fill="#222222"/>
<path fill-rule="evenodd" clip-rule="evenodd" d="M16.8829 14.0374C17.0405 13.6205 17.3914 12.6862 17.2245 12.4598H17.2258C17.0597 12.2329 16.1274 12.352 15.708 12.4056L15.7072 12.4057C15.5796 12.422 15.56 12.3039 15.6746 12.2184C16.4192 11.6619 17.6391 11.8211 17.7808 12.009C17.9225 12.1969 17.7422 13.4979 17.0448 14.119C16.9375 14.2142 16.8351 14.1634 16.8829 14.0374ZM11.8726 14.6807C13.4943 14.6807 15.3827 14.136 16.6836 13.1149V13.1169C16.8988 12.9446 16.7142 12.6915 16.4947 12.7906C15.0747 13.4278 13.5505 13.7603 12.0094 13.7693C9.87132 13.7693 7.80317 13.1456 6.13 12.1101C5.98342 12.0195 5.87425 12.1793 5.99691 12.2961C7.6077 13.8421 9.70313 14.6925 11.8726 14.6807Z" fill="#FF9900"/>
<rect x="0.5" y="0.5" width="27" height="19" rx="3.5" stroke="#EEF2F6"/>
</svg>
