<svg width="28" height="20" viewBox="0 0 28 20" fill="none" xmlns="http://www.w3.org/2000/svg">
<rect x="0.5" y="0.5" width="27" height="19" rx="3.5" fill="#1F72CD"/>
<path fill-rule="evenodd" clip-rule="evenodd" d="M5.01964 7.08331L2.3999 13.1223H5.5361L5.92489 12.1594H6.8136L7.20239 13.1223H10.6545V12.3874L10.9621 13.1223H12.7477L13.0553 12.3718V13.1223H20.2347L21.1077 12.1844L21.9251 13.1223L25.6126 13.13L22.9846 10.1196L25.6126 7.08331H21.9823L21.1325 8.00384L20.3408 7.08331H12.5306L11.8599 8.64202L11.1736 7.08331H8.04391V7.79319L7.69575 7.08331H5.01964ZM5.62648 7.94085H7.15521L8.89288 12.0359V7.94085H10.5675L11.9097 10.877L13.1466 7.94085H14.8129V12.2742H13.799L13.7907 8.87862L12.3126 12.2742H11.4056L9.91915 8.87862V12.2742H7.83333L7.43789 11.3027H5.30151L4.9069 12.2733H3.78933L5.62648 7.94085ZM19.8633 7.94085H15.7405V12.2716H19.7995L21.1077 10.8363L22.3686 12.2716H23.6868L21.7709 10.1188L23.6868 7.94085H22.4258L21.1242 9.35967L19.8633 7.94085ZM6.37015 8.67403L5.6663 10.4046H7.07318L6.37015 8.67403ZM16.7586 9.62912V8.83807V8.83731H19.3311L20.4536 10.1024L19.2814 11.3744H16.7586V10.5108H19.0078V9.62912H16.7586Z" fill="white"/>
<rect x="0.5" y="0.5" width="27" height="19" rx="3.5" stroke="#EEF2F6"/>
</svg>
