<svg width="46" height="32" viewBox="0 0 46 32" fill="none" xmlns="http://www.w3.org/2000/svg">
<rect x="0.5" y="0.5" width="45" height="31" rx="5.5" fill="white"/>
<path fill-rule="evenodd" clip-rule="evenodd" d="M12.6963 11.1242C12.3095 11.5934 11.6907 11.9635 11.0719 11.9106C10.9945 11.2762 11.2975 10.6021 11.652 10.1858C12.0388 9.7034 12.7156 9.35976 13.2635 9.33333C13.328 9.99417 13.0766 10.6418 12.6963 11.1242ZM13.257 12.0362C12.7118 12.004 12.2144 12.2042 11.8126 12.366C11.554 12.4701 11.3351 12.5582 11.1685 12.5582C10.9816 12.5582 10.7536 12.4654 10.4976 12.3611C10.1621 12.2245 9.77866 12.0683 9.3765 12.0758C8.45472 12.089 7.5974 12.6243 7.12684 13.4768C6.15993 15.1818 6.87544 17.7062 7.81012 19.0939C8.26779 19.7812 8.8157 20.5346 9.53766 20.5081C9.85527 20.4958 10.0837 20.3965 10.3202 20.2936C10.5924 20.1752 10.8752 20.0521 11.3168 20.0521C11.743 20.0521 12.0134 20.172 12.273 20.287C12.5198 20.3963 12.7569 20.5014 13.1088 20.4949C13.8565 20.4817 14.3271 19.8076 14.7847 19.1204C15.2786 18.3827 15.4957 17.6628 15.5286 17.5536L15.5325 17.541C15.5317 17.5401 15.5256 17.5373 15.5148 17.5322L15.5148 17.5322C15.3497 17.4547 14.0878 16.8625 14.0757 15.2743C14.0635 13.9412 15.0766 13.2658 15.2361 13.1595L15.2361 13.1595C15.2458 13.153 15.2523 13.1486 15.2553 13.1464C14.6107 12.1683 13.6051 12.0626 13.257 12.0362ZM18.4332 20.4222V10.1197H22.2042C24.1509 10.1197 25.511 11.4943 25.511 13.5032C25.511 15.5122 24.1251 16.8999 22.1526 16.8999H19.9932V20.4222H18.4332ZM19.9931 11.4678H21.7915C23.1452 11.4678 23.9187 12.208 23.9187 13.5098C23.9187 14.8117 23.1452 15.5584 21.785 15.5584H19.9931V11.4678ZM30.6614 19.1864C30.2489 19.9927 29.34 20.5015 28.3602 20.5015C26.9098 20.5015 25.8978 19.616 25.8978 18.2811C25.8978 16.9594 26.8776 16.1995 28.689 16.0871L30.6357 15.9682V15.3998C30.6357 14.5606 30.1006 14.1046 29.1466 14.1046C28.3602 14.1046 27.7865 14.5209 27.6705 15.1553H26.2652C26.3104 13.8204 27.5351 12.849 29.1917 12.849C30.9773 12.849 32.1376 13.8072 32.1376 15.2941V20.4222H30.6937V19.1864H30.6614ZM28.7791 19.279C27.9476 19.279 27.419 18.8693 27.419 18.2415C27.419 17.5938 27.9282 17.2172 28.9016 17.1577L30.6356 17.0453V17.6269C30.6356 18.5917 29.8362 19.279 28.7791 19.279ZM36.9269 20.8253C36.3017 22.6294 35.5862 23.2242 34.0649 23.2242C33.9489 23.2242 33.5621 23.211 33.4719 23.1845V21.9488C33.5685 21.962 33.807 21.9752 33.9295 21.9752C34.6192 21.9752 35.006 21.6778 35.2445 20.9046L35.3863 20.4487L32.7435 12.9481H34.3743L36.2114 19.0345H36.2437L38.0808 12.9481H39.6665L36.9269 20.8253Z" fill="#222222"/>
<rect x="0.5" y="0.5" width="45" height="31" rx="5.5" stroke="#EEF2F6"/>
</svg>
