<svg width="28" height="20" viewBox="0 0 28 20" fill="none" xmlns="http://www.w3.org/2000/svg">
<rect x="0.5" y="0.5" width="27" height="19" rx="3.5" fill="white"/>
<path fill-rule="evenodd" clip-rule="evenodd" d="M7.78173 6.95263C7.54671 7.24587 7.17067 7.47717 6.79464 7.44413C6.74764 7.04762 6.93174 6.62634 7.14717 6.36613C7.38219 6.06462 7.79348 5.84985 8.12643 5.83333C8.1656 6.24635 8.01283 6.65112 7.78173 6.95263ZM8.12248 7.5226C7.7912 7.50249 7.48892 7.62765 7.24477 7.72874C7.08764 7.7938 6.95459 7.84889 6.85337 7.84889C6.73977 7.84889 6.60123 7.79085 6.44567 7.72569C6.24184 7.64031 6.00881 7.54269 5.76444 7.54738C5.20431 7.55564 4.68334 7.89019 4.3974 8.42299C3.80985 9.4886 4.24464 11.0664 4.81261 11.9337C5.09071 12.3632 5.42366 12.8341 5.86236 12.8176C6.05537 12.8099 6.1942 12.7478 6.33789 12.6835C6.5033 12.6095 6.67514 12.5326 6.94346 12.5326C7.20247 12.5326 7.3668 12.6075 7.52454 12.6794C7.67453 12.7477 7.81856 12.8133 8.03239 12.8093C8.48676 12.8011 8.7727 12.3798 9.05081 11.9502C9.35093 11.4892 9.48282 11.0393 9.50283 10.971L9.50518 10.9631C9.5047 10.9626 9.50099 10.9608 9.49445 10.9576C9.39412 10.9092 8.62729 10.539 8.61994 9.54642C8.61255 8.71326 9.22817 8.29112 9.32508 8.22467C9.33098 8.22063 9.33495 8.2179 9.33675 8.21648C8.94505 7.6052 8.334 7.53912 8.12248 7.5226ZM11.2679 12.7639V6.32483H13.5593C14.7423 6.32483 15.5687 7.18392 15.5687 8.43951C15.5687 9.69511 14.7266 10.5625 13.528 10.5625H12.2158V12.7639H11.2679ZM12.2157 7.1674H13.3085C14.1311 7.1674 14.6012 7.62998 14.6012 8.44364C14.6012 9.2573 14.1311 9.72402 13.3046 9.72402H12.2157V7.1674ZM18.6985 11.9915C18.4478 12.4954 17.8955 12.8134 17.3001 12.8134C16.4188 12.8134 15.8038 12.26 15.8038 11.4257C15.8038 10.5996 16.3992 10.1247 17.4999 10.0544L18.6828 9.9801V9.6249C18.6828 9.10036 18.3577 8.81537 17.778 8.81537C17.3001 8.81537 16.9515 9.07557 16.881 9.47208H16.0271C16.0545 8.63777 16.7987 8.03062 17.8054 8.03062C18.8904 8.03062 19.5955 8.62951 19.5955 9.55881V12.7639H18.7181V11.9915H18.6985ZM17.5546 12.0494C17.0493 12.0494 16.7282 11.7933 16.7282 11.4009C16.7282 10.9961 17.0376 10.7607 17.6291 10.7235L18.6827 10.6533V11.0168C18.6827 11.6198 18.197 12.0494 17.5546 12.0494ZM22.5058 13.0158C22.1258 14.1434 21.691 14.5151 20.7666 14.5151C20.6961 14.5151 20.4611 14.5069 20.4063 14.4903V13.718C20.465 13.7262 20.6099 13.7345 20.6844 13.7345C21.1035 13.7345 21.3385 13.5486 21.4834 13.0654L21.5696 12.7804L19.9636 8.09258H20.9546L22.071 11.8965H22.0906L23.2069 8.09258H24.1705L22.5058 13.0158Z" fill="#222222"/>
<rect x="0.5" y="0.5" width="27" height="19" rx="3.5" stroke="#EEF2F6"/>
</svg>
