<svg width="34" height="24" viewBox="0 0 34 24" fill="none" xmlns="http://www.w3.org/2000/svg">
<rect x="0.5" y="0.5" width="33" height="23" rx="3.5" fill="white"/>
<path d="M25.4911 7.43805H18.7193L18.0306 8.23723L15.7957 10.8304V10.8305L15.107 11.6296H8.42477L9.10282 10.8203L9.42376 10.4373L10.1018 9.62801H7.02279C6.46029 9.62801 6 10.1144 6 10.7089V12.9896C6 13.5841 6.46029 14.0706 7.02279 14.0706H18.8106C19.3731 14.0706 20.1415 13.7093 20.5182 13.2677L22.3013 11.1775L25.4911 7.43805Z" fill="#005697"/>
<path d="M26.8516 5C27.4141 5 27.8744 5.48643 27.8744 6.08098V8.36157C27.8744 8.95603 27.4141 9.44255 26.8516 9.44255H23.7826L24.4671 8.63935H24.4672L24.8065 8.24114L25.491 7.43804H18.7193L15.107 11.6326H8.3833L13.2052 6.01336L13.3877 5.8007C13.7657 5.3603 14.5351 5 15.0976 5H26.8516V5Z" fill="#FBD500"/>
<path fill-rule="evenodd" clip-rule="evenodd" d="M8.30498 17.9476C8.30498 17.7987 8.27088 17.6698 8.20285 17.5609C8.13473 17.4521 8.04515 17.3691 7.93401 17.3118C8.04515 17.2545 8.13127 17.17 8.19246 17.0583C8.25357 16.9466 8.28412 16.8206 8.28412 16.6803V16.603C8.28412 16.4311 8.25218 16.288 8.18831 16.1734C8.12434 16.0588 8.03467 15.9671 7.91939 15.8984C7.8041 15.8297 7.66579 15.7803 7.50471 15.7502C7.34347 15.7201 7.1643 15.7051 6.96696 15.7051C6.90032 15.7051 6.83082 15.7066 6.75863 15.7094C6.68627 15.7123 6.61617 15.7158 6.54814 15.7201C6.48002 15.7244 6.41744 15.7295 6.36058 15.7352C6.30354 15.741 6.25697 15.7467 6.22088 15.7523C6.1403 15.7668 6.08335 15.7925 6.05003 15.8297C6.0167 15.867 6 15.9343 6 16.0316V18.6435C6 18.7409 6.01731 18.8082 6.0521 18.8454C6.08681 18.8827 6.14584 18.9084 6.22928 18.9227C6.27091 18.9313 6.32094 18.9384 6.37927 18.9442C6.43761 18.9499 6.50079 18.9549 6.56891 18.9592C6.63703 18.9635 6.70713 18.9671 6.7794 18.97C6.85168 18.9728 6.92248 18.9743 6.99198 18.9743C7.17261 18.9743 7.34277 18.9599 7.50264 18.9313C7.66233 18.9028 7.80124 18.8518 7.91939 18.7788C8.03753 18.7058 8.13127 18.6069 8.20077 18.4824C8.27018 18.3578 8.30498 18.201 8.30498 18.012V17.9476ZM7.59643 16.7146C7.59643 16.7605 7.58951 16.8042 7.57557 16.8457C7.56164 16.8872 7.53879 16.9229 7.50685 16.9532C7.47482 16.9831 7.43181 17.0075 7.37763 17.026C7.32344 17.0447 7.25463 17.054 7.17129 17.054H6.70451V16.3108C6.71836 16.3108 6.73991 16.3102 6.76908 16.3087C6.79824 16.3072 6.8288 16.3065 6.86074 16.3065H7.0212C7.23516 16.3065 7.38455 16.3344 7.46928 16.3903C7.55402 16.4461 7.59643 16.5327 7.59643 16.6501V16.7146ZM7.49015 18.274C7.57211 18.2082 7.61314 18.1151 7.61314 17.9948V17.9475C7.61314 17.8444 7.58111 17.7549 7.51724 17.679C7.45327 17.6032 7.33799 17.5652 7.17129 17.5652H6.70451V18.3685H6.77739C6.80932 18.3685 6.84265 18.3694 6.87744 18.3707C6.91215 18.3721 6.94547 18.373 6.9775 18.373H7.04622C7.26018 18.373 7.40818 18.3399 7.49015 18.274ZM10.5891 17.316C10.5891 17.1586 10.5662 17.0246 10.5203 16.9144C10.4745 16.8042 10.4099 16.7139 10.3265 16.6437C10.2432 16.5736 10.1411 16.5221 10.0201 16.4891C9.89931 16.4562 9.76386 16.4397 9.61378 16.4397C9.47477 16.4397 9.33932 16.4498 9.20741 16.4699C9.07533 16.4898 8.97043 16.5099 8.89271 16.5299C8.83991 16.5443 8.81351 16.5757 8.81351 16.6244V16.9723C8.81351 17.0011 8.82044 17.0211 8.83437 17.0325C8.84822 17.044 8.86622 17.0498 8.88855 17.0498H8.90932L9.03439 17.039C9.08442 17.0347 9.14068 17.0312 9.20326 17.0282C9.26575 17.0254 9.33101 17.0233 9.39913 17.0218C9.46716 17.0203 9.53458 17.0196 9.60131 17.0196C9.69851 17.0196 9.77494 17.0383 9.8305 17.0755C9.88607 17.1127 9.91385 17.1929 9.91385 17.316V17.4707H9.68882C9.33032 17.4707 9.06979 17.5287 8.90725 17.6447C8.7447 17.7606 8.66343 17.9447 8.66343 18.1967V18.2355C8.66343 18.3757 8.6836 18.4931 8.72384 18.5876C8.76409 18.6821 8.81767 18.758 8.88431 18.8154C8.95104 18.8726 9.02669 18.9134 9.11151 18.9377C9.19625 18.962 9.28453 18.9743 9.37619 18.9743C9.50126 18.9743 9.60893 18.957 9.6992 18.9227C9.78948 18.8884 9.8749 18.8411 9.95557 18.781V18.8496C9.95557 18.8726 9.96388 18.8926 9.98058 18.9098C9.99729 18.927 10.0167 18.9355 10.0389 18.9355H10.5058C10.5279 18.9355 10.5474 18.927 10.5641 18.9098C10.5808 18.8926 10.5891 18.8726 10.5891 18.8496V17.316ZM9.76594 18.4222C9.82281 18.4036 9.87638 18.3814 9.92641 18.3556V17.8831H9.68882C9.61655 17.8831 9.55683 17.8895 9.50957 17.9024C9.46232 17.9153 9.42475 17.9347 9.39706 17.9605C9.36927 17.9861 9.3498 18.0191 9.33872 18.0592C9.32755 18.0993 9.32201 18.1451 9.32201 18.1967V18.2355C9.32201 18.327 9.34348 18.3857 9.38658 18.4115C9.42969 18.4372 9.49564 18.4501 9.58461 18.4501C9.64849 18.4501 9.7089 18.4409 9.76594 18.4222ZM13.14 18.8454V17.4148C13.14 17.2804 13.1297 17.1535 13.1088 17.0347C13.0879 16.916 13.0505 16.8128 12.9963 16.7253C12.9421 16.638 12.8671 16.5685 12.7712 16.517C12.6753 16.4655 12.5524 16.4397 12.4023 16.4397C12.2689 16.4397 12.1507 16.4563 12.048 16.4895C11.9452 16.5227 11.8368 16.5811 11.7229 16.6648V16.5607C11.7229 16.5377 11.7145 16.5174 11.6979 16.5001C11.6812 16.4828 11.6617 16.474 11.6395 16.474H11.1727C11.1504 16.474 11.131 16.4826 11.1144 16.4998C11.0977 16.517 11.0894 16.5371 11.0894 16.56V18.8454C11.0894 18.8683 11.0983 18.8891 11.1164 18.9076C11.1345 18.9263 11.1546 18.9355 11.1769 18.9355H11.6812C11.7034 18.9355 11.7229 18.9263 11.7395 18.9077C11.7562 18.8892 11.7646 18.8685 11.7646 18.8455V17.1567C11.8368 17.1168 11.9049 17.0839 11.9688 17.0582C12.0327 17.0325 12.0952 17.0196 12.1564 17.0196C12.2203 17.0196 12.2724 17.026 12.3127 17.039C12.3529 17.0518 12.3842 17.0739 12.4064 17.1055C12.4287 17.1368 12.444 17.1782 12.4523 17.2296C12.4606 17.2811 12.4648 17.344 12.4648 17.4183V18.8455C12.4648 18.8685 12.4732 18.8892 12.4899 18.9077C12.5065 18.9263 12.5259 18.9355 12.5482 18.9355H13.0525C13.0747 18.9355 13.0949 18.9263 13.113 18.9076C13.131 18.8891 13.14 18.8683 13.14 18.8454ZM15.1907 18.4288V18.811C15.1907 18.8425 15.1837 18.8647 15.1699 18.8776C15.1559 18.8905 15.1337 18.9012 15.1031 18.9098C15.0448 18.9241 14.9691 18.9384 14.876 18.9529C14.7829 18.967 14.6739 18.9743 14.5488 18.9743C14.2542 18.9743 14.0187 18.8812 13.8423 18.695C13.6659 18.5089 13.5777 18.2397 13.5777 17.8874V17.5266C13.5777 17.1743 13.6659 16.9051 13.8423 16.719C14.0187 16.5327 14.2542 16.4397 14.5488 16.4397C14.6739 16.4397 14.7829 16.4468 14.876 16.4611C14.9691 16.4756 15.0448 16.4898 15.1031 16.5041C15.1337 16.5127 15.1559 16.5235 15.1699 16.5363C15.1837 16.5492 15.1907 16.5715 15.1907 16.6029V16.9853C15.1907 17.0082 15.183 17.026 15.1678 17.039C15.1525 17.0518 15.1337 17.0582 15.1115 17.0582H15.1031C15.0253 17.0498 14.9511 17.0425 14.8802 17.0368C14.8093 17.0312 14.7141 17.0282 14.5947 17.0282C14.5474 17.0282 14.503 17.0361 14.4613 17.0518C14.4196 17.0676 14.3835 17.0948 14.3529 17.1334C14.3223 17.1722 14.298 17.2236 14.28 17.2881C14.2619 17.3525 14.2529 17.432 14.2529 17.5266V17.8874C14.2529 17.9819 14.2619 18.0613 14.28 18.1258C14.298 18.1902 14.3223 18.2418 14.3529 18.2804C14.3835 18.3191 14.4196 18.3464 14.4613 18.3621C14.503 18.3778 14.5474 18.3857 14.5947 18.3857C14.7141 18.3857 14.8093 18.3828 14.8802 18.3771C14.9511 18.3714 15.0253 18.3642 15.1031 18.3556H15.1115C15.1337 18.3556 15.1525 18.3621 15.1678 18.375C15.183 18.3879 15.1907 18.4058 15.1907 18.4288ZM17.5042 17.5566C17.5042 17.3847 17.4812 17.2301 17.4352 17.0927C17.3893 16.9552 17.3224 16.8385 17.2348 16.7426C17.1471 16.6467 17.0385 16.5722 16.9091 16.5192C16.7796 16.4663 16.6299 16.4397 16.46 16.4397C16.2902 16.4397 16.1406 16.4663 16.0111 16.5192C15.8816 16.5722 15.7723 16.6467 15.6832 16.7426C15.5941 16.8385 15.5266 16.9552 15.4807 17.0927C15.4347 17.2301 15.4117 17.3847 15.4117 17.5566V17.8573C15.4117 18.0291 15.4347 18.1838 15.4807 18.3213C15.5266 18.4588 15.5941 18.5754 15.6832 18.6714C15.7723 18.7674 15.8816 18.8418 16.0111 18.8948C16.1406 18.9477 16.2902 18.9743 16.46 18.9743C16.6299 18.9743 16.7796 18.9477 16.9091 18.8948C17.0385 18.8418 17.1471 18.7674 17.2348 18.6714C17.3224 18.5754 17.3893 18.4588 17.4352 18.3213C17.4812 18.1838 17.5042 18.0291 17.5042 17.8573V17.5566ZM16.46 18.3857C16.7059 18.3857 16.8289 18.2096 16.8289 17.8573V17.5566C16.8289 17.2072 16.7059 17.0325 16.46 17.0325C16.3384 17.0325 16.2459 17.0762 16.1824 17.1635C16.1188 17.2509 16.087 17.382 16.087 17.5566V17.8573C16.087 18.032 16.1188 18.1638 16.1824 18.2525C16.2459 18.3414 16.3384 18.3857 16.46 18.3857ZM19.9841 18.8454V17.4148C19.9841 17.2804 19.9735 17.1535 19.9528 17.0347C19.932 16.916 19.8944 16.8128 19.8401 16.7253C19.786 16.638 19.711 16.5685 19.6152 16.517C19.5193 16.4655 19.3963 16.4397 19.2463 16.4397C19.1129 16.4397 18.9948 16.4563 18.892 16.4895C18.7891 16.5227 18.6808 16.5811 18.5669 16.6648V16.5607C18.5669 16.5377 18.5586 16.5174 18.5418 16.5001C18.5252 16.4828 18.5057 16.474 18.4835 16.474H18.0167C17.9944 16.474 17.975 16.4826 17.9583 16.4998C17.9417 16.517 17.9333 16.5371 17.9333 16.56V18.8454C17.9333 18.8683 17.9423 18.8891 17.9604 18.9076C17.9785 18.9263 17.9986 18.9355 18.0209 18.9355H18.5252C18.5474 18.9355 18.5669 18.9263 18.5836 18.9077C18.6002 18.8892 18.6086 18.8685 18.6086 18.8455V17.1567C18.6808 17.1168 18.7489 17.0839 18.8128 17.0582C18.8767 17.0325 18.9392 17.0196 19.0004 17.0196C19.0643 17.0196 19.1164 17.026 19.1566 17.039C19.1969 17.0518 19.2282 17.0739 19.2505 17.1055C19.2727 17.1368 19.2879 17.1782 19.2963 17.2296C19.3046 17.2811 19.3088 17.344 19.3088 17.4183V18.8455C19.3088 18.8685 19.3171 18.8892 19.3338 18.9077C19.3505 18.9263 19.3699 18.9355 19.3922 18.9355H19.8965C19.9187 18.9355 19.9389 18.9263 19.957 18.9076C19.975 18.8891 19.9841 18.8683 19.9841 18.8454ZM21.8015 18.5225V18.855C21.8015 18.9032 21.7751 18.9317 21.7223 18.9401C21.6584 18.9515 21.6028 18.96 21.5556 18.9657C21.5084 18.9714 21.4541 18.9743 21.3931 18.9743C21.2797 18.9743 21.1796 18.9649 21.0926 18.9463C21.0056 18.9277 20.933 18.8912 20.875 18.8368C20.8171 18.7824 20.7729 18.7072 20.7425 18.6112C20.7122 18.5153 20.6969 18.3916 20.6969 18.2397V16.9939L20.3635 16.938C20.3412 16.9323 20.3211 16.9216 20.303 16.9058C20.285 16.8901 20.276 16.8707 20.276 16.8478V16.5642C20.276 16.5414 20.285 16.5206 20.303 16.502C20.3211 16.4834 20.3412 16.474 20.3635 16.474H20.6969V16.1218C20.6969 16.0988 20.7053 16.0803 20.7218 16.0659C20.7382 16.0517 20.7577 16.0417 20.7799 16.0359L21.2852 15.9458H21.2976C21.3197 15.9458 21.3377 15.9521 21.3515 15.9649C21.3653 15.9779 21.3722 15.9958 21.3722 16.0186V16.474H21.714C21.7362 16.474 21.7557 16.4827 21.7724 16.5C21.7891 16.5173 21.7974 16.5376 21.7974 16.5607V16.9115C21.7974 16.9347 21.7891 16.9548 21.7724 16.9722C21.7557 16.9895 21.7362 16.9981 21.714 16.9981H21.3722V18.2482C21.3722 18.3341 21.3792 18.3893 21.3931 18.4136C21.4069 18.438 21.4458 18.4501 21.5097 18.4501H21.714C21.7724 18.4501 21.8015 18.4743 21.8015 18.5225ZM24.0272 17.316C24.0272 17.1586 24.0044 17.0246 23.9584 16.9144C23.9126 16.8042 23.8481 16.7139 23.7647 16.6437C23.6814 16.5736 23.5792 16.5221 23.4583 16.4891C23.3375 16.4562 23.202 16.4397 23.0519 16.4397C22.9129 16.4397 22.7775 16.4498 22.6456 16.4699C22.5135 16.4898 22.4086 16.5099 22.3309 16.5299C22.2779 16.5443 22.2517 16.5757 22.2517 16.6244V16.9723C22.2517 17.0011 22.2585 17.0211 22.2724 17.0325C22.2864 17.044 22.3044 17.0498 22.3266 17.0498H22.3475L22.4726 17.039C22.5226 17.0347 22.5788 17.0312 22.6413 17.0282C22.7039 17.0254 22.7692 17.0233 22.8373 17.0218C22.9053 17.0203 22.9727 17.0196 23.0394 17.0196C23.1367 17.0196 23.2131 17.0383 23.2687 17.0755C23.3242 17.1127 23.352 17.1929 23.352 17.316V17.4707H23.127C22.7684 17.4707 22.508 17.5287 22.3454 17.6447C22.1829 17.7606 22.1016 17.9447 22.1016 18.1967V18.2355C22.1016 18.3757 22.1217 18.4931 22.162 18.5876C22.2022 18.6821 22.2558 18.758 22.3225 18.8154C22.3892 18.8726 22.4649 18.9134 22.5497 18.9377C22.6344 18.962 22.7226 18.9743 22.8144 18.9743C22.9394 18.9743 23.047 18.957 23.1374 18.9227C23.2276 18.8884 23.313 18.8411 23.3937 18.781V18.8496C23.3937 18.8726 23.402 18.8926 23.4188 18.9098C23.4354 18.927 23.4548 18.9355 23.4771 18.9355H23.944C23.9661 18.9355 23.9856 18.927 24.0023 18.9098C24.0189 18.8926 24.0272 18.8726 24.0272 18.8496V17.316ZM23.2041 18.4222C23.261 18.4036 23.3145 18.3814 23.3646 18.3556V17.8831H23.127C23.0547 17.8831 22.995 17.8895 22.9477 17.9024C22.9005 17.9153 22.8629 17.9347 22.8352 17.9605C22.8073 17.9861 22.7879 18.0191 22.7769 18.0592C22.7657 18.0993 22.7602 18.1451 22.7602 18.1967V18.2355C22.7602 18.327 22.7816 18.3857 22.8247 18.4115C22.8678 18.4372 22.9338 18.4501 23.0228 18.4501C23.0866 18.4501 23.147 18.4409 23.2041 18.4222ZM26.078 18.811V18.4288C26.078 18.4058 26.0703 18.3879 26.055 18.375C26.0397 18.3621 26.021 18.3556 25.9988 18.3556H25.9905C25.9127 18.3642 25.8383 18.3714 25.7674 18.3771C25.6966 18.3828 25.6014 18.3857 25.482 18.3857C25.4346 18.3857 25.3902 18.3778 25.3486 18.3621C25.3069 18.3464 25.2707 18.3191 25.2402 18.2804C25.2096 18.2418 25.1853 18.1902 25.1673 18.1258C25.1491 18.0613 25.1402 17.9819 25.1402 17.8874V17.5266C25.1402 17.432 25.1491 17.3525 25.1673 17.2881C25.1853 17.2236 25.2096 17.1722 25.2402 17.1334C25.2707 17.0948 25.3069 17.0676 25.3486 17.0518C25.3902 17.0361 25.4346 17.0282 25.482 17.0282C25.6014 17.0282 25.6966 17.0312 25.7674 17.0368C25.8383 17.0425 25.9127 17.0498 25.9905 17.0582H25.9988C26.021 17.0582 26.0397 17.0518 26.055 17.039C26.0703 17.026 26.078 17.0082 26.078 16.9853V16.6029C26.078 16.5715 26.0711 16.5492 26.0571 16.5363C26.0431 16.5235 26.021 16.5127 25.9905 16.5041C25.9321 16.4898 25.8563 16.4756 25.7633 16.4611C25.6701 16.4468 25.5612 16.4397 25.4361 16.4397C25.1414 16.4397 24.9061 16.5327 24.7296 16.719C24.5531 16.9051 24.4649 17.1743 24.4649 17.5266V17.8874C24.4649 18.2397 24.5531 18.5089 24.7296 18.695C24.9061 18.8812 25.1414 18.9743 25.4361 18.9743C25.5612 18.9743 25.6701 18.967 25.7633 18.9529C25.8563 18.9384 25.9321 18.9241 25.9905 18.9098C26.021 18.9012 26.0431 18.8905 26.0571 18.8776C26.0711 18.8647 26.078 18.8425 26.078 18.811ZM27.8744 18.5225V18.855C27.8744 18.9032 27.8479 18.9317 27.7952 18.9401C27.7312 18.9515 27.6757 18.96 27.6285 18.9657C27.5812 18.9714 27.527 18.9743 27.466 18.9743C27.3526 18.9743 27.2524 18.9649 27.1655 18.9463C27.0784 18.9277 27.0059 18.8912 26.9479 18.8368C26.89 18.7824 26.8457 18.7072 26.8153 18.6112C26.7851 18.5153 26.7698 18.3916 26.7698 18.2397V16.9939L26.4364 16.938C26.4141 16.9323 26.394 16.9216 26.3759 16.9058C26.3578 16.8901 26.3488 16.8707 26.3488 16.8478V16.5642C26.3488 16.5414 26.3578 16.5206 26.3759 16.502C26.394 16.4834 26.4141 16.474 26.4364 16.474H26.7698V16.1218C26.7698 16.0988 26.7781 16.0803 26.7947 16.0659C26.8111 16.0517 26.8305 16.0417 26.8527 16.0359L27.358 15.9458H27.3705C27.3926 15.9458 27.4106 15.9521 27.4242 15.9649C27.4382 15.9779 27.4451 15.9958 27.4451 16.0186V16.474H27.7869C27.8091 16.474 27.8285 16.4827 27.8452 16.5C27.8619 16.5173 27.8703 16.5376 27.8703 16.5607V16.9115C27.8703 16.9347 27.8619 16.9548 27.8452 16.9722C27.8285 16.9895 27.8091 16.9981 27.7869 16.9981H27.4451V18.2482C27.4451 18.3341 27.452 18.3893 27.466 18.4136C27.4798 18.438 27.5187 18.4501 27.5826 18.4501H27.7869C27.8452 18.4501 27.8744 18.4743 27.8744 18.5225Z" fill="#005697"/>
<rect x="0.5" y="0.5" width="33" height="23" rx="3.5" stroke="#EEF2F6"/>
</svg>
