<svg width="28" height="20" viewBox="0 0 28 20" fill="none" xmlns="http://www.w3.org/2000/svg">
<rect x="0.5" y="0.5" width="27" height="19" rx="3.5" fill="white"/>
<path fill-rule="evenodd" clip-rule="evenodd" d="M19.9438 6.47411C21.7578 9.73216 20.6051 13.8747 17.3693 15.7266C14.1334 17.5786 10.0397 16.4388 8.22572 13.1807C6.41174 9.92265 7.56439 5.78015 10.8002 3.92817C14.0361 2.0762 18.1298 3.21605 19.9438 6.47411ZM14.2725 6.82852C15.2448 6.64379 16.0763 6.72457 16.3967 7.57713C16.632 8.20105 16.469 8.66122 16.1009 9.00038C16.8489 8.97129 17.3661 9.43251 17.5692 10.2319C17.7771 11.4306 16.9957 11.9887 15.7778 12.4104L16.1083 13.6376L15.3726 13.8456L15.0464 12.6348C14.8557 12.6889 14.6598 12.7422 14.457 12.7955L14.785 14.012L14.05 14.2196L13.7178 12.9903L12.2339 13.4056L12.1417 12.4802C12.1417 12.4802 12.6883 12.3343 12.6766 12.3289C12.8847 12.2696 12.8995 12.1035 12.8873 12.0059L11.9889 8.67555C11.9203 8.53328 11.7763 8.38701 11.4781 8.47105C11.4842 8.45836 10.9439 8.62257 10.9439 8.62257L10.7305 7.83236L12.2132 7.41051L11.8856 6.19469L12.621 5.98695L12.9424 7.17858C13.138 7.11866 13.3349 7.05907 13.5281 7.00443L13.2085 5.8205L13.9443 5.61255L14.2725 6.82852ZM13.7116 9.48711C14.2165 9.35284 15.3152 9.06068 15.1092 8.29582C14.898 7.51355 13.8535 7.8386 13.3421 7.99774L13.3421 7.99775C13.2841 8.01578 13.233 8.03169 13.1907 8.04361L13.5891 9.52031C13.6239 9.51042 13.6652 9.49944 13.7115 9.48713L13.7116 9.48711ZM14.3787 11.8584C14.9829 11.6967 16.3043 11.343 16.0768 10.5006C15.8445 9.6391 14.5882 10.0268 13.9753 10.216C13.9068 10.2371 13.8463 10.2558 13.7962 10.27L14.235 11.8975C14.276 11.8859 14.3244 11.8729 14.3785 11.8584L14.3787 11.8584Z" fill="#8FC258"/>
<rect x="0.5" y="0.5" width="27" height="19" rx="3.5" stroke="#EEF2F6"/>
</svg>
