<svg width="28" height="20" viewBox="0 0 28 20" fill="none" xmlns="http://www.w3.org/2000/svg">
<rect x="0.5" y="0.5" width="27" height="19" rx="3.5" fill="white"/>
<path fill-rule="evenodd" clip-rule="evenodd" d="M5.71189 11.4723C5.55875 11.5608 5.39571 11.605 5.22287 11.605H5.08949C5.05484 11.605 5.00537 11.6019 4.86247 11.5756L5.34561 9.43426C5.4345 9.35106 5.53037 9.29705 5.64153 9.27093C5.75269 9.24493 5.82428 9.23791 5.89351 9.23791C6.10581 9.23791 6.27009 9.30212 6.34918 9.44269C6.42815 9.58314 6.46772 9.77831 6.46772 10.0281C6.46772 10.2311 6.43554 10.4263 6.3714 10.6136C6.30714 10.8009 6.21949 10.9687 6.10839 11.1171C5.99723 11.2654 5.86497 11.3838 5.71189 11.4723ZM6.8012 8.39666C6.62819 8.30821 6.42328 8.26393 6.18613 8.26393C6.07245 8.26393 5.96628 8.27696 5.86754 8.30296C5.76864 8.32908 5.67551 8.36275 5.57677 8.40957L6.03059 6.39825L4.882 6.58558L3.6001 12.2607C3.74333 12.3336 3.89518 12.3908 4.05581 12.4324C4.21628 12.474 4.36819 12.5052 4.51148 12.5261C4.65471 12.5468 4.78198 12.5585 4.89314 12.5612C5.0043 12.5638 5.0821 12.5651 5.12654 12.5651C5.47228 12.5651 5.79344 12.4961 6.08981 12.3582C6.38623 12.2204 6.64302 12.0331 6.86047 11.7962C7.07781 11.5594 7.24947 11.281 7.37546 10.9609C7.50145 10.6409 7.56442 10.3013 7.56442 9.94222C7.56442 9.70807 7.53716 9.48949 7.48287 9.28654C7.42847 9.08353 7.34451 8.90669 7.23095 8.75569C7.11727 8.6048 6.97404 8.48516 6.8012 8.39666ZM9.83901 7.76298L10.0078 7.01514H8.90749L8.73873 7.76298H9.83901ZM11.4311 11.5739C11.2894 11.5739 11.1779 11.5527 11.097 11.51C11.0159 11.4673 10.959 11.4073 10.9262 11.3299C10.8931 11.2527 10.8806 11.1607 10.8882 11.0539C10.8958 10.9473 10.9147 10.8327 10.9451 10.7099L11.2793 9.2379H12.5323L12.7601 8.26187H11.4995L11.7881 7.0218L10.611 7.21385L9.86674 10.5259C9.80602 10.7979 9.77053 11.0567 9.76045 11.3019C9.75021 11.5473 9.7857 11.7647 9.86674 11.954C9.94768 12.1433 10.0844 12.2927 10.2768 12.402C10.4692 12.5112 10.7401 12.5659 11.0894 12.5659C11.3324 12.5659 11.5425 12.5446 11.7197 12.502C11.738 12.4975 11.7658 12.4905 11.7839 12.4859L12.013 11.4761C11.9361 11.5038 11.8588 11.5223 11.7843 11.538C11.6704 11.562 11.5526 11.5739 11.4311 11.5739ZM24.8001 8.26321H23.6999L23.0599 11.0996H23.061L22.9731 11.4898C22.9117 11.5079 22.8506 11.5243 22.7899 11.5371C22.676 11.5611 22.5583 11.5731 22.4368 11.5731C22.2949 11.5731 22.1836 11.5518 22.1026 11.5091C22.0216 11.4664 21.9647 11.4065 21.9317 11.329C21.8988 11.2518 21.8862 11.1598 21.8938 11.053C21.9014 10.9464 21.9204 10.8318 21.9508 10.709L22.2849 9.237L22.5051 8.26097L22.5052 8.26068H21.3812L20.8724 10.5251C20.8117 10.7971 20.7762 11.0558 20.7661 11.3011C20.7558 11.5464 20.7913 11.7638 20.8724 11.9531C20.9533 12.1424 21.09 12.2919 21.2825 12.4011C21.4748 12.5103 21.7457 12.5651 22.095 12.5651C22.338 12.5651 22.5481 12.5438 22.7254 12.5011C22.7325 12.4994 22.7394 12.4975 22.7464 12.4957L22.7459 12.4978C22.6966 12.7314 22.5969 12.9209 22.4368 13.0688C22.2766 13.2168 22.0388 13.2908 21.7235 13.2908C21.5889 13.2908 21.4666 13.2823 21.3558 13.2662L21.1392 14.226C21.2857 14.246 21.4481 14.2563 21.6274 14.2563C21.9625 14.2563 22.2558 14.216 22.5071 14.1355C22.7584 14.0551 22.9739 13.9331 23.1538 13.7696C23.3336 13.606 23.4839 13.4009 23.6047 13.1545C23.7253 12.9079 23.8227 12.616 23.8966 12.2785L24.6579 8.90686L24.6552 8.90563L24.8001 8.26321ZM19.4035 9.2379C18.8905 9.2379 18.7925 9.2379 18.5823 9.35276C18.4331 9.43425 18.3095 9.55677 18.2011 9.6997C18.0925 9.84269 18.0074 10.0077 17.9458 10.1948C17.884 10.382 17.8532 10.5768 17.8532 10.7796C17.8532 11.029 17.8927 11.2267 17.9717 11.3722C18.0505 11.5177 18.1961 11.5904 18.4083 11.5904C18.5218 11.5904 18.6241 11.5671 18.7155 11.5203C18.8067 11.4735 18.9042 11.3955 19.0078 11.2864C19.0177 11.1565 19.0337 11.0201 19.056 10.877C19.0762 10.7464 19.1015 10.6245 19.1246 10.5131L19.1246 10.513L19.131 10.482L19.4035 9.2379ZM20.1847 10.686C20.1155 10.9823 20.0958 11.2799 20.1254 11.5788C20.1551 11.8778 20.2636 12.3358 20.3694 12.5651H19.3047C19.2078 12.3924 19.1863 12.2881 19.1715 12.216L19.1715 12.216L19.1715 12.2159C19.1664 12.1913 19.1621 12.1704 19.1559 12.1518C19.0177 12.2715 18.8647 12.3702 18.697 12.4481C18.5292 12.5261 18.3417 12.5651 18.1345 12.5651C17.8877 12.5651 17.6768 12.5195 17.5017 12.4287C17.3265 12.3377 17.1834 12.2156 17.0724 12.0622C16.9614 11.909 16.8811 11.7296 16.8319 11.5242C16.7825 11.3189 16.7578 11.0993 16.7578 10.8654C16.7578 10.5067 16.8182 10.1688 16.9392 9.85177C17.06 9.53472 17.2278 9.25788 17.4425 9.02132C17.6571 8.78482 18.1751 8.26328 19.0251 8.26328L20.7321 8.26322L20.1847 10.686ZM14.0601 11.6072C13.9358 11.6072 13.8316 11.5968 13.7471 11.5758L14.2799 9.23791C14.2799 9.23791 14.551 9.23791 14.7142 9.23856C14.9476 9.23956 15.1131 9.32299 15.2076 9.48001C15.3019 9.63698 15.3491 9.82808 15.3491 10.053C15.3491 10.2833 15.318 10.4939 15.256 10.6849C15.1938 10.876 15.107 11.0394 14.9952 11.1755C14.8834 11.3116 14.748 11.4176 14.5891 11.4934C14.4301 11.5693 14.2538 11.6072 14.0601 11.6072ZM16.273 11.0145C16.3922 10.698 16.4518 10.3487 16.4518 9.96664C16.4518 9.7312 16.4207 9.5102 16.3587 9.30336C16.2965 9.09675 16.2009 8.9162 16.0719 8.76177C15.9426 8.60746 15.7776 8.48582 15.5763 8.39679C15.3752 8.30787 15.1355 8.26335 14.8573 8.26335L14.4744 8.26333L13.3879 8.26335L12.1079 13.9384H13.2106L13.5459 12.5177C13.7147 12.5491 13.8837 12.5648 14.0526 12.5648C14.4003 12.5648 14.7219 12.5007 15.0175 12.3725C15.313 12.2444 15.5663 12.0652 15.7776 11.8348C15.9886 11.6047 16.1539 11.3312 16.273 11.0145ZM7.65345 12.5659L8.62478 8.26074H9.72506L8.75374 12.5659H7.65345Z" fill="#002855"/>
<rect x="0.5" y="0.5" width="27" height="19" rx="3.5" stroke="#EEF2F6"/>
</svg>
