<svg width="58" height="40" viewBox="0 0 58 40" fill="none" xmlns="http://www.w3.org/2000/svg">
<rect x="0.5" y="0.5" width="57" height="39" rx="5.5" fill="white"/>
<path fill-rule="evenodd" clip-rule="evenodd" d="M11.5595 22.9446C11.2496 23.1216 10.9196 23.2099 10.5698 23.2099H10.2999C10.2298 23.2099 10.1296 23.2039 9.84044 23.1512L10.8182 18.8685C10.9981 18.7021 11.1921 18.5941 11.4171 18.5419C11.6421 18.4899 11.787 18.4758 11.9271 18.4758C12.3567 18.4758 12.6892 18.6042 12.8492 18.8854C13.0091 19.1663 13.0892 19.5566 13.0892 20.0562C13.0892 20.4622 13.024 20.8525 12.8942 21.2272C12.7642 21.6018 12.5868 21.9375 12.3619 22.2342C12.137 22.5308 11.8693 22.7677 11.5595 22.9446ZM13.7641 16.7933C13.4139 16.6164 12.9992 16.5279 12.5193 16.5279C12.2892 16.5279 12.0743 16.5539 11.8745 16.6059C11.6744 16.6582 11.4859 16.7255 11.2861 16.8191L12.2045 12.7965L9.87998 13.1712L7.28564 24.5214C7.57552 24.6672 7.88283 24.7816 8.20793 24.8648C8.53269 24.948 8.84012 25.0104 9.1301 25.0521C9.41997 25.0937 9.67756 25.117 9.90252 25.1224C10.1275 25.1275 10.2849 25.1302 10.3749 25.1302C11.0746 25.1302 11.7245 24.9921 12.3243 24.7164C12.9242 24.4408 13.4439 24.0662 13.884 23.5924C14.3239 23.1188 14.6713 22.562 14.9263 21.9219C15.1812 21.2818 15.3087 20.6026 15.3087 19.8844C15.3087 19.4161 15.2535 18.979 15.1436 18.5731C15.0335 18.1671 14.8636 17.8134 14.6338 17.5114C14.4037 17.2096 14.1139 16.9703 13.7641 16.7933ZM19.912 15.526L20.2536 14.0303H18.0268L17.6853 15.526H19.912ZM23.1342 23.1479C22.8472 23.1479 22.6217 23.1054 22.458 23.0199C22.2939 22.9347 22.1787 22.8146 22.1122 22.6599C22.0454 22.5054 22.02 22.3213 22.0353 22.1079C22.0507 21.8946 22.0891 21.6654 22.1506 21.4199L22.8269 18.4758H25.3627L25.8238 16.5237H23.2725L23.8565 14.0436L21.4744 14.4277L19.9681 21.0518C19.8452 21.5958 19.7734 22.1134 19.753 22.6039C19.7323 23.0947 19.8041 23.5294 19.9681 23.9079C20.1319 24.2867 20.4086 24.5854 20.7981 24.8039C21.1873 25.0224 21.7356 25.1319 22.4426 25.1319C22.9344 25.1319 23.3595 25.0892 23.7182 25.0039C23.7553 24.9951 23.8116 24.9809 23.848 24.9717L24.3118 22.9522C24.156 23.0075 23.9996 23.0446 23.8488 23.0759C23.6183 23.1239 23.3801 23.1479 23.1342 23.1479ZM50.1904 16.5264H47.9638L46.6686 22.1992H46.6708L46.4929 22.9795C46.3686 23.0159 46.2449 23.0485 46.1221 23.0741C45.8916 23.1221 45.6534 23.1462 45.4075 23.1462C45.1204 23.1462 44.895 23.1036 44.7312 23.0181C44.5672 22.9328 44.452 22.8129 44.3854 22.6581C44.3187 22.5036 44.2932 22.3196 44.3086 22.1061C44.324 21.8928 44.3624 21.6636 44.4239 21.4181L45.1001 18.474L45.5458 16.5219L45.5459 16.5214H43.2711L42.2414 21.0501C42.1185 21.5941 42.0467 22.1116 42.0263 22.6022C42.0056 23.0929 42.0774 23.5277 42.2414 23.9061C42.4052 24.2849 42.6819 24.5837 43.0714 24.8022C43.4606 25.0206 44.0089 25.1302 44.7158 25.1302C45.2077 25.1302 45.6328 25.0875 45.9915 25.0021C46.0041 24.9992 46.0163 24.996 46.0285 24.9928L46.0286 24.9928L46.0341 24.9914L46.0331 24.9956C45.9334 25.4629 45.7316 25.8418 45.4076 26.1375C45.0833 26.4335 44.6021 26.5815 43.964 26.5815C43.6916 26.5815 43.4441 26.5647 43.2198 26.5324L42.7815 28.452C43.078 28.492 43.4066 28.5126 43.7695 28.5126C44.4476 28.5126 45.0411 28.4319 45.5498 28.2711C46.0584 28.1101 46.4945 27.8662 46.8585 27.5391C47.2225 27.2121 47.5266 26.8018 47.7711 26.309C48.0153 25.8157 48.2123 25.232 48.3619 24.5569L49.9027 17.8137L49.8971 17.8112L50.1904 16.5264ZM39.2687 18.4758C38.2304 18.4758 38.0322 18.4758 37.6067 18.7055C37.3047 18.8685 37.0547 19.1135 36.8352 19.3994C36.6155 19.6854 36.4433 20.0153 36.3186 20.3895C36.1935 20.7639 36.1312 21.1537 36.1312 21.5591C36.1312 22.0581 36.2111 22.4534 36.371 22.7443C36.5305 23.0355 36.8252 23.1809 37.2547 23.1809C37.4843 23.1809 37.6915 23.1342 37.8763 23.0405C38.061 22.947 38.2583 22.791 38.468 22.5727C38.4879 22.313 38.5204 22.0402 38.5654 21.7541C38.6064 21.4928 38.6575 21.2489 38.7043 21.026L38.7173 20.9639L39.2687 18.4758ZM40.8497 21.372C40.7097 21.9647 40.6698 22.5597 40.7297 23.1575C40.7897 23.7555 41.0094 24.6716 41.2236 25.1302H39.0688C38.8726 24.7848 38.8292 24.5762 38.7992 24.4319C38.789 24.3826 38.7803 24.3408 38.7676 24.3037C38.4879 24.5429 38.1783 24.7403 37.8389 24.8962C37.4993 25.0521 37.1199 25.1302 36.7004 25.1302C36.2011 25.1302 35.7742 25.0391 35.4198 24.8573C35.0652 24.6755 34.7756 24.4311 34.551 24.1244C34.3263 23.8179 34.1638 23.4592 34.0643 23.0484C33.9643 22.6378 33.9144 22.1985 33.9144 21.7307C33.9144 21.0134 34.0365 20.3376 34.2814 19.7035C34.526 19.0694 34.8656 18.5158 35.3 18.0426C35.7343 17.5696 36.7826 16.5266 38.503 16.5266L41.9575 16.5264L40.8497 21.372ZM28.4547 23.2144C28.2032 23.2144 27.9922 23.1935 27.8212 23.1515L28.8995 18.4758C28.8995 18.4758 29.4481 18.4758 29.7784 18.4771C30.2509 18.4791 30.5858 18.646 30.7769 18.96C30.9678 19.274 31.0634 19.6562 31.0634 20.1061C31.0634 20.5667 31.0004 20.9878 30.8749 21.3698C30.7491 21.752 30.5734 22.0789 30.3472 22.3509C30.121 22.6232 29.8469 22.8351 29.5254 22.9868C29.2034 23.1386 28.8467 23.2144 28.4547 23.2144ZM32.9332 22.0291C33.1745 21.3961 33.2951 20.6975 33.2951 19.9333C33.2951 19.4624 33.2322 19.0204 33.1066 18.6067C32.9808 18.1935 32.7873 17.8324 32.5261 17.5235C32.2646 17.2149 31.9305 16.9716 31.5233 16.7936C31.1162 16.6157 30.631 16.5267 30.0682 16.5267L29.2931 16.5267H29.2909H29.2905H29.2898H29.2888C28.4649 16.5266 27.3644 16.5265 27.0944 16.5267L24.5038 27.8769H26.7355L27.4141 25.0354C27.7558 25.0983 28.0976 25.1296 28.4395 25.1296C29.1432 25.1296 29.7942 25.0013 30.3924 24.7451C30.9903 24.4887 31.503 24.1303 31.9305 23.6696C32.3577 23.2093 32.6921 22.6625 32.9332 22.0291ZM15.4889 25.1319L17.4546 16.5215H19.6814L17.7156 25.1319H15.4889Z" fill="#002855"/>
<rect x="0.5" y="0.5" width="57" height="39" rx="5.5" stroke="#EEF2F6"/>
</svg>
