<svg width="58" height="40" viewBox="0 0 58 40" fill="none" xmlns="http://www.w3.org/2000/svg">
<rect x="0.5" y="0.5" width="57" height="39" rx="5.5" fill="white"/>
<path d="M7.29822 18.0132C6.90687 18.0132 6.86827 17.8861 6.86827 16.9599V16.8018C6.86827 15.8724 6.90687 15.7466 7.29822 15.7466H16.2472C16.6399 15.7466 16.6785 15.8724 16.6785 16.8006V16.9586C16.6785 17.8861 16.6393 18.0126 16.2472 18.0126H7.29822V18.0132V18.0132ZM7.29822 13.9346C6.90687 13.9346 6.86827 13.8081 6.86827 12.8806V12.7225C6.86827 11.7919 6.90687 11.6667 7.29822 11.6667H16.2472C16.6399 11.6667 16.6785 11.7931 16.6785 12.7225V12.8806C16.6785 13.8081 16.6393 13.9346 16.2472 13.9346H7.29822ZM8.63885 26.0472C8.63885 24.5121 9.43984 23.668 10.645 23.668C11.1 23.668 11.4643 23.792 11.92 24.0038C12.0852 24.0822 12.222 24.0506 12.4386 23.5707L12.5964 23.2444C12.7521 22.8512 12.7636 22.6887 12.5747 22.6014C12.0161 22.2961 11.1515 22.1032 10.4047 22.1032C8.27661 22.1032 6.6665 23.6775 6.6665 26.0472C6.6665 28.4162 8.27661 29.9905 10.404 29.9905C11.1515 29.9905 12.0358 29.7983 12.5964 29.4911C12.7833 29.4057 12.7711 29.2413 12.6167 28.8481L12.461 28.5035C12.2443 28.023 12.1069 27.9958 11.9403 28.0704C11.4846 28.2835 11.1007 28.4074 10.645 28.4074C9.43984 28.4074 8.64088 27.5817 8.64088 26.0472H8.63952H8.63885ZM33.9956 29.6276C33.9956 29.8363 33.9117 29.8932 33.2799 29.8932H33.217C32.5514 29.8932 32.4586 29.8647 32.4065 29.7124C32.3716 29.6089 32.3438 29.5036 32.3232 29.3969C31.9711 29.7901 31.5466 30 30.9 30C29.3319 30 28.3894 28.9252 28.3894 27.1966C28.3894 25.3283 29.4382 24.2219 30.9934 24.2219C31.4315 24.2219 31.835 24.3483 32.1465 24.5785V22.1506C32.1465 21.9882 32.1668 21.9205 33.0403 21.9205H33.1032C33.9117 21.9205 33.9949 21.9882 33.9949 22.1506V29.6276H33.9956ZM32.1472 25.9416C32.0404 25.8326 31.9105 25.7457 31.7657 25.6862C31.6209 25.6268 31.4644 25.5962 31.3062 25.5964C30.6102 25.5964 30.2798 26.161 30.2798 27.1979C30.2798 27.7922 30.4145 28.1697 30.6102 28.3676C30.7862 28.5718 31.0571 28.6375 31.3178 28.6375C31.6394 28.6375 31.8879 28.5636 32.003 28.4264C32.1052 28.3214 32.1465 28.1589 32.1465 27.7846V25.941L32.1479 25.9416H32.1472ZM43.4179 29.6656C43.4179 29.8268 43.3346 29.8932 42.5242 29.8932H42.4619C41.5898 29.8932 41.5715 29.8268 41.5715 29.6656V22.1506C41.5715 21.9882 41.5898 21.9205 42.4612 21.9205H42.5235C43.3333 21.9205 43.4172 21.9882 43.4172 22.1506V29.6656H43.4179ZM36.9152 27.6677C37.0181 28.3486 37.4745 28.6761 38.1915 28.6761C38.7433 28.6761 39.2599 28.5623 39.8639 28.3214C39.9898 28.274 40.1029 28.3214 40.2363 28.7026L40.3311 28.9163C40.4645 29.3096 40.453 29.3969 40.3094 29.4721C39.5917 29.8458 38.8449 29.9988 38.0141 29.9988C36.1779 29.9988 35.0261 28.9555 35.0261 27.1694C35.0261 25.4327 36.0844 24.2219 37.901 24.2219C39.698 24.2219 40.6202 25.4131 40.6202 27.0632C40.6202 27.6108 40.5694 27.6677 40.3616 27.6677H36.9152ZM38.7718 26.6036C38.7433 26.0295 38.4942 25.5288 37.8814 25.5288C37.3499 25.5288 36.9653 25.9018 36.8929 26.6036H38.7718ZM46.2942 27.6677C46.3957 28.3486 46.8534 28.6761 47.5711 28.6761C48.1182 28.6761 48.6396 28.5623 49.2415 28.3214C49.3647 28.274 49.4812 28.3214 49.6153 28.7026L49.7094 28.9163C49.8428 29.3096 49.8319 29.3969 49.6891 29.4721C48.9714 29.8458 48.2232 29.9988 47.3917 29.9988C45.5548 29.9988 44.4044 28.9555 44.4044 27.1694C44.4044 25.4327 45.4607 24.2219 47.278 24.2219C49.0763 24.2219 49.9998 25.4131 49.9998 27.0632C49.9998 27.6108 49.9477 27.6677 49.7398 27.6677H46.2935H46.2942ZM48.1528 26.6036C48.1189 26.0295 47.8718 25.5288 47.259 25.5288C46.7295 25.5288 46.3436 25.9018 46.2718 26.6036H48.1528V26.6036ZM25.4346 25.9796C25.341 25.8643 25.2203 25.7707 25.0817 25.706C24.9432 25.6413 24.7905 25.6073 24.6356 25.6065C23.9396 25.6065 23.6085 26.1724 23.6085 27.1789C23.6085 28.0325 23.8549 28.6666 24.6133 28.6666C24.8949 28.6666 25.1008 28.5996 25.2477 28.4637C25.3818 28.3309 25.4346 28.1475 25.4346 27.7467V25.9796ZM27.3033 29.6276C27.3033 29.8363 27.2214 29.8932 26.5883 29.8932H26.503C25.8395 29.8932 25.746 29.8647 25.6946 29.7124C25.659 29.6091 25.6311 29.5037 25.6113 29.3969C25.2592 29.7901 24.8326 30 24.1881 30C22.6829 30 21.7167 28.9429 21.7167 27.2181C21.7167 25.2993 22.9111 24.2219 24.3235 24.2219C24.8949 24.2219 25.3919 24.4444 25.6628 24.7606L25.6946 24.5203C25.7034 24.4065 25.7366 24.3306 26.4191 24.3306H26.4929C27.1997 24.3306 27.302 24.3768 27.302 24.5519V29.6276H27.3033V29.6276ZM18.6373 22.7089C19.332 22.7089 19.374 22.7171 19.374 22.9283V24.3294H20.5691C20.7343 24.3294 20.7857 24.3578 20.7857 24.8851V24.9629C20.7857 25.4889 20.7343 25.5193 20.5691 25.5193H19.374V28.0337C19.374 28.4548 19.4559 28.6761 19.871 28.6761C20.0876 28.6761 20.2772 28.6375 20.4641 28.5813C20.6605 28.5111 20.7349 28.5996 20.869 29.0396L20.9002 29.1452C21.045 29.6276 21.0024 29.6656 20.8175 29.7503C20.4438 29.9134 19.9441 30 19.4776 30C18.0036 30 17.5885 29.3096 17.5885 28.1083V25.5193H16.8925C16.7165 25.5193 16.6724 25.4877 16.6724 24.9629V24.8851C16.6724 24.3578 16.7158 24.3306 16.8925 24.3306H17.6711C17.7558 23.8798 17.8993 23.2451 17.9934 22.9283C18.0456 22.7456 18.0767 22.7089 18.6373 22.7089V22.7089ZM14.7753 24.3306C15.5857 24.3306 15.6575 24.3958 15.6575 24.5601V29.6656C15.6575 29.8363 15.5857 29.8932 14.7753 29.8932H14.7224C13.8307 29.8932 13.8104 29.8363 13.8104 29.6656V24.5601C13.8104 24.3958 13.8307 24.3306 14.7224 24.3306H14.7753ZM14.7224 21.8352C15.3074 21.8352 15.7313 22.2569 15.7313 22.7361C15.7287 22.8562 15.7005 22.9746 15.6484 23.0845C15.5964 23.1943 15.5214 23.2934 15.428 23.3759C15.2384 23.5435 14.9845 23.6345 14.7224 23.6288C14.1442 23.6288 13.7156 23.2071 13.7156 22.7361C13.7156 22.2556 14.1442 21.8352 14.7224 21.8352V21.8352Z" fill="#EE293D"/>
<rect x="0.5" y="0.5" width="57" height="39" rx="5.5" stroke="#EEF2F6"/>
</svg>
