<svg width="28" height="20" viewBox="0 0 28 20" fill="none" xmlns="http://www.w3.org/2000/svg">
<rect x="0.5" y="0.5" width="27" height="19" rx="3.5" fill="white"/>
<path d="M11.5293 19.1667L27.1764 14.375V16.1667C27.1764 17.8235 25.8332 19.1667 24.1764 19.1667H11.5293Z" fill="#FD6020"/>
<path fill-rule="evenodd" clip-rule="evenodd" d="M24.2067 7.59237C25.0675 7.59237 25.541 7.99532 25.541 8.75645C25.584 9.33849 25.1966 9.83099 24.6801 9.92053L25.8423 11.5771H24.9384L23.9484 9.96531H23.8623V11.5771H23.1306V7.59237H24.2067ZM23.8623 9.42805H24.0775C24.551 9.42805 24.7662 9.20419 24.7662 8.80124C24.7662 8.44306 24.551 8.2192 24.0775 8.2192H23.8623V9.42805ZM20.5912 11.5771H22.6572V10.9055H21.3229V9.83099H22.6141V9.1594H21.3229V8.26395H22.6572V7.59237H20.5912V11.5771ZM18.4391 10.2787L17.4492 7.59237H16.6744L18.2669 11.6667H18.6543L20.2469 7.59237H19.4721L18.4391 10.2787ZM9.70168 9.60713C9.70168 10.7264 10.5625 11.6667 11.6386 11.6667C11.9829 11.6667 12.2842 11.5771 12.5855 11.4428V10.5474C12.3703 10.816 12.069 10.9951 11.7246 10.9951C11.036 10.9951 10.4764 10.4578 10.4764 9.74145V9.65191C10.4334 8.93555 10.9929 8.30873 11.6816 8.26396C12.0259 8.26396 12.3703 8.44305 12.5855 8.71169V7.81624C12.3272 7.63715 11.9829 7.59237 11.6816 7.59237C10.5625 7.50283 9.70168 8.44305 9.70168 9.60713ZM8.36739 9.11464C7.93698 8.93555 7.80785 8.846 7.80785 8.62214C7.85089 8.35351 8.0661 8.12964 8.32435 8.17442C8.53956 8.17442 8.75476 8.30873 8.92693 8.48782L9.3143 7.95055C9.01301 7.68192 8.62564 7.50283 8.23827 7.50283C7.63568 7.45806 7.11919 7.95055 7.07614 8.57737V8.62214C7.07614 9.15941 7.29135 9.47282 7.98002 9.69668C8.15218 9.74145 8.32435 9.831 8.49652 9.92054C8.62564 10.0101 8.71172 10.1444 8.71172 10.3235C8.71172 10.6369 8.45347 10.9055 8.19523 10.9055H8.15218C7.80785 10.9055 7.50656 10.6817 7.37744 10.3683L6.90398 10.8608C7.16223 11.3533 7.67873 11.6219 8.19523 11.6219C8.88389 11.6667 9.44343 11.1294 9.48647 10.413V10.2787C9.44343 9.74145 9.22822 9.47282 8.36739 9.11464ZM5.87099 11.5771H6.60269V7.59237H5.87099V11.5771ZM2.4707 7.59238H3.54674H3.76195C4.79495 7.63715 5.61274 8.5326 5.56969 9.60714C5.56969 10.1892 5.31144 10.7265 4.88103 11.1294C4.49366 11.4428 4.0202 11.6219 3.54674 11.5771H2.4707V7.59238ZM3.41762 10.9055C3.76195 10.9503 4.14932 10.816 4.40757 10.5921C4.66582 10.3235 4.79495 9.96531 4.79495 9.56235C4.79495 9.20417 4.66582 8.84599 4.40757 8.57736C4.14932 8.3535 3.76195 8.21918 3.41762 8.26395H3.20241V10.9055H3.41762Z" fill="#222222"/>
<path fill-rule="evenodd" clip-rule="evenodd" d="M14.7807 7.5C13.7047 7.5 12.8008 8.39545 12.8008 9.55953C12.8008 10.6788 13.6616 11.6191 14.7807 11.6638C15.8998 11.7086 16.7606 10.7684 16.8036 9.60431C16.7606 8.44022 15.8998 7.5 14.7807 7.5V7.5Z" fill="#FD6020"/>
<rect x="0.5" y="0.5" width="27" height="19" rx="3.5" stroke="#EEF2F6"/>
</svg>
