<svg width="34" height="24" viewBox="0 0 34 24" fill="none" xmlns="http://www.w3.org/2000/svg">
<rect x="0.5" y="0.5" width="33" height="23" rx="3.5" fill="white"/>
<path d="M7.82406 9.49573C8.11175 9.40141 8.41952 9.35019 8.73975 9.35019C10.1373 9.35019 11.3031 10.3241 11.5705 11.6178L13.5509 11.2216C13.0965 9.0229 11.1154 7.3678 8.73975 7.3678C8.19585 7.3678 7.67231 7.45472 7.18359 7.61484L7.82406 9.49573Z" fill="#FECA2F"/>
<path d="M5.46727 15.8677L6.65306 14.3366C6.12376 13.8012 5.78968 13.0196 5.78968 12.1484C5.78968 11.2778 6.12344 10.4962 6.6526 9.96122L5.46618 8.4303C4.56678 9.33989 4 10.6686 4 12.1484C4 13.629 4.56761 14.9581 5.46727 15.8677" fill="#1BA7DE"/>
<path d="M11.5711 12.6802C11.3028 13.9737 10.1377 14.9464 8.74142 14.9464C8.42105 14.9464 8.11268 14.895 7.82497 14.8004L7.18359 16.6823C7.67307 16.8432 8.19677 16.9302 8.74142 16.9302C11.1149 16.9302 13.0947 15.2762 13.5509 13.0783L11.5711 12.6802Z" fill="#EC412A"/>
<path fill-rule="evenodd" clip-rule="evenodd" d="M23.0793 8.43031V13.8716L24.0558 14.263L23.5939 15.3362L22.6282 14.948C22.4111 14.857 22.2642 14.7183 22.1525 14.5616C22.0453 14.4013 21.9659 14.1822 21.9659 13.8866V8.43031H23.0793ZM15.6737 12.4744C15.6979 10.9184 17.0231 9.67629 18.6311 9.70012C19.9958 9.72082 21.1266 10.6452 21.4236 11.8746L16.1452 14.0562C15.8386 13.6029 15.6643 13.0576 15.6737 12.4744ZM16.8814 12.6926C16.8742 12.6273 16.8691 12.5603 16.871 12.4928C16.8862 11.576 17.6663 10.8445 18.6137 10.8597C19.1293 10.8664 19.5872 11.0947 19.8967 11.4481L16.8814 12.6926ZM19.7856 13.7028C19.4675 14.002 19.0361 14.1843 18.5598 14.1778C18.2333 14.1725 17.9307 14.078 17.6735 13.9205L17.0359 14.903C17.4726 15.1699 17.9875 15.3278 18.5426 15.3362C19.3507 15.3478 20.0872 15.0408 20.6227 14.534L19.7856 13.7028ZM27.1433 10.8596C26.9531 10.8596 26.7703 10.8894 26.5995 10.9448L26.2195 9.84385C26.5095 9.75021 26.8201 9.69934 27.1433 9.69934C28.5536 9.69934 29.7301 10.6681 29.9999 11.9549L28.8237 12.1868C28.6652 11.4294 27.9731 10.8596 27.1433 10.8596ZM25.2122 14.629L26.0069 13.76C25.6519 13.4561 25.4284 13.0123 25.4284 12.5177C25.4284 12.0235 25.6519 11.5799 26.0066 11.2763L25.2113 10.4072C24.6083 10.9236 24.2284 11.6781 24.2284 12.5177C24.2284 13.3583 24.6086 14.1125 25.2122 14.629ZM27.1432 14.1763C27.9722 14.1763 28.6643 13.607 28.8237 12.8507L29.9995 13.0836C29.7284 14.3691 28.5522 15.3365 27.1432 15.3365C26.8198 15.3365 26.5088 15.2854 26.218 15.1914L26.5989 14.0908C26.77 14.1461 26.9529 14.1763 27.1432 14.1763Z" fill="#222222"/>
<rect x="0.5" y="0.5" width="33" height="23" rx="3.5" stroke="#EEF2F6"/>
</svg>
