<svg width="28" height="20" viewBox="0 0 28 20" fill="none" xmlns="http://www.w3.org/2000/svg">
<rect x="0.5" y="0.5" width="27" height="19" rx="3.5" fill="white"/>
<path fill-rule="evenodd" clip-rule="evenodd" d="M11.947 8.88004H8.33992H8.27997C8.55542 5.29505 9.99451 4.21062 13.7433 4.16702C13.801 4.16666 13.8571 4.16666 13.9141 4.16666H14.0154C14.0725 4.16666 14.1285 4.16666 14.1864 4.16702C14.6612 4.17253 15.0986 4.19492 15.5017 4.23668C15.4722 4.23769 15.4432 4.2387 15.4107 4.24228C15.3805 4.24531 15.3427 4.24759 15.298 4.25027C14.8544 4.27697 13.7359 4.34428 12.7124 5.59535C12.1074 6.33571 12.0474 8.88004 12.0474 8.88004H11.947ZM11.6801 13.2424C11.2572 13.7776 10.6484 13.7416 10.6398 13.7411V15.9165C9.13353 15.3011 8.45457 14.018 8.27753 11.6521C8.25612 11.367 8.24333 11.1165 8.23535 10.9089L12.0475 10.9074L12.045 11.1372L12.045 11.1374C12.0405 11.5342 12.0318 12.305 12.0328 12.3307C12.0357 12.4437 12.0074 12.8287 11.6801 13.2424ZM16.7086 4.45161C18.6243 4.96786 19.454 6.25806 19.652 8.90858C19.7137 9.73181 19.7066 10.2802 19.7066 10.2802C19.7066 10.2802 19.7138 10.8288 19.6521 11.652C19.3825 15.2599 17.945 16.3498 14.1864 16.3935C14.1286 16.3939 13.8011 16.3939 13.7434 16.3935C13.0915 16.3858 12.5114 16.3459 11.9932 16.2679C11.9954 16.2679 11.9976 16.2679 11.9998 16.2678C12.0158 16.2677 12.0314 16.2676 12.0475 16.2664C12.7276 16.227 13.6744 15.6962 14.2379 14.4615C14.484 13.9216 14.5501 12.9578 14.5501 12.9578V10.9078H14.5503V10.9073H16.609H16.7088V8.87985H16.609H14.5505C14.5505 8.87985 14.5505 8.87974 14.5504 8.87963C14.5504 8.87957 14.5504 8.87952 14.5503 8.87948C14.5503 8.87948 14.5494 8.87737 14.5487 8.87352L14.5481 8.87085C14.5476 8.8692 14.5472 8.86747 14.5467 8.86552C14.5461 8.86313 14.5454 8.86041 14.5443 8.85709C14.5441 8.85544 14.5436 8.85277 14.5434 8.85066C14.5419 8.84479 14.5405 8.8391 14.5394 8.8313C14.5389 8.82937 14.5386 8.82708 14.5383 8.82475C14.538 8.82319 14.5378 8.82161 14.5375 8.8201C14.5361 8.81248 14.5349 8.80478 14.5337 8.79569C14.5328 8.79211 14.5325 8.78768 14.5323 8.78349C14.5322 8.78252 14.5322 8.78157 14.5321 8.78064C14.5306 8.771 14.5296 8.76182 14.5285 8.75081C14.5283 8.74856 14.5282 8.74618 14.5281 8.74376C14.528 8.74026 14.5279 8.73669 14.5276 8.73337C14.5274 8.73106 14.5273 8.72877 14.5271 8.72647C14.5265 8.71708 14.5259 8.70766 14.5257 8.69712C14.5256 8.694 14.5256 8.6907 14.5256 8.68738C14.5256 8.68407 14.5256 8.68074 14.5256 8.67757C14.5256 8.67299 14.5255 8.66844 14.5254 8.66386C14.5252 8.65456 14.525 8.6451 14.5256 8.6349C14.5256 8.63137 14.5258 8.62756 14.526 8.62369C14.5262 8.62072 14.5264 8.61771 14.5265 8.6148C14.5268 8.59855 14.5275 8.5824 14.5292 8.56441C14.5294 8.56181 14.5297 8.55905 14.53 8.55624C14.5303 8.55318 14.5306 8.55008 14.5308 8.54707C14.5325 8.52743 14.5348 8.5076 14.5378 8.48649C14.538 8.4845 14.5384 8.48243 14.5388 8.48038C14.5391 8.47837 14.5395 8.47638 14.5397 8.47447C14.5433 8.45061 14.5472 8.42638 14.5524 8.40087L14.5528 8.39866C14.5892 8.22144 14.6674 8.00329 14.824 7.75613C15.2452 7.09295 16.4414 7.12416 16.6707 7.13645C16.6885 7.13754 16.7005 7.13837 16.7057 7.13873C16.7075 7.13886 16.7085 7.13893 16.7086 7.13893V4.45161ZM11.917 16.2552C11.9282 16.2555 11.9394 16.2557 11.9507 16.2557C11.9394 16.2557 11.9283 16.2555 11.9172 16.2552L11.917 16.2552Z" fill="#659AD2"/>
<rect x="0.5" y="0.5" width="27" height="19" rx="3.5" stroke="#EEF2F6"/>
</svg>
