<svg width="34" height="24" viewBox="0 0 34 24" fill="none" xmlns="http://www.w3.org/2000/svg">
<rect x="0.5" y="0.5" width="33" height="23" rx="3.5" fill="white"/>
<path fill-rule="evenodd" clip-rule="evenodd" d="M6.18117 7.74278C5.57833 7.74376 5.09059 8.1883 5.08942 8.73765V8.73766V15.3427V15.3427C5.08956 15.4114 5.09732 15.4784 5.11194 15.5431C5.1284 15.6159 5.15358 15.6859 5.18645 15.752C5.35791 16.0969 5.73851 16.3368 6.18117 16.3376H17.5403V16.3376V7.74279V7.74278H6.18117ZM6.18116 7H27.9209C28.974 7.00016 29.8273 7.77758 29.8276 8.73765V15.3427C29.8273 16.3024 28.974 17.0799 27.9209 17.0803H6.18116C5.12793 17.0799 4.27477 16.3024 4.27441 15.3427V8.73765C4.27477 7.77758 5.12793 7.00016 6.18116 7Z" fill="#0F3365"/>
<path fill-rule="evenodd" clip-rule="evenodd" d="M19.3994 14.2623H18.4458V10.7321H19.3254V11.1861H19.336C19.5267 10.8335 19.9296 10.6742 20.3641 10.6742C21.1272 10.6742 21.5455 11.3358 21.5455 11.9442C21.5455 12.6879 21.1058 13.3061 20.2844 13.3061C19.9507 13.3061 19.5903 13.1952 19.4101 12.8958H19.3994V14.2623ZM19.9827 12.6396C20.3428 12.6396 20.5601 12.3645 20.5601 11.9636C20.5601 11.6302 20.3534 11.3406 19.9827 11.3406C19.6328 11.3406 19.3994 11.6207 19.3994 11.9973C19.3994 12.3645 19.6646 12.6396 19.9827 12.6396ZM25.1999 14.2623C25.3961 14.301 25.5921 14.3204 25.7935 14.3204C26.6184 14.3204 26.8489 13.7744 27.0991 13.1818C27.1142 13.1462 27.1293 13.1104 27.1446 13.0745L28.1569 10.7321H27.203L26.6359 12.374H26.6254L26.0318 10.7321H25.0042L26.1217 13.3061C26.0533 13.5282 25.8731 13.6538 25.6402 13.6538C25.5074 13.6538 25.3907 13.6396 25.2638 13.6006L25.1999 14.2623ZM24.8445 13.3299C24.8022 13.132 24.7914 12.9341 24.7914 12.736V11.7991C24.7914 11.0312 24.1821 10.7561 23.4774 10.7561C23.0692 10.7561 22.7142 10.809 22.3752 10.9348L22.3908 11.5239C22.656 11.3888 22.9633 11.3356 23.2704 11.3356C23.615 11.3356 23.896 11.4273 23.9012 11.7703C23.7794 11.7508 23.61 11.7362 23.4563 11.7362C22.9475 11.7362 22.0308 11.8282 22.0308 12.596C22.0308 13.1419 22.5183 13.3882 23.0641 13.3882C23.4563 13.3882 23.7212 13.2479 23.9383 12.9341H23.9487C23.9487 13.0107 23.9543 13.0873 23.9599 13.1648V13.1648C23.9639 13.2193 23.9679 13.2743 23.9701 13.3299H24.8445ZM22.9209 12.5334C22.9209 12.2919 23.1751 12.2001 23.4984 12.2001C23.5998 12.2001 23.6985 12.205 23.7907 12.2095L23.7907 12.2095C23.8287 12.2113 23.8656 12.2131 23.9012 12.2145C23.9012 12.509 23.6735 12.8088 23.3129 12.8088C23.0904 12.8088 22.9209 12.707 22.9209 12.5334Z" fill="#FFFFFE"/>
<path fill-rule="evenodd" clip-rule="evenodd" d="M10.1565 13.248H11.1102V10.7321H10.1565V13.248ZM10.1565 10.3216H11.1102V9.68408H10.1565V10.3216ZM13.4428 10.6742C13.5539 10.6742 13.6705 10.6887 13.7659 10.7029L13.7181 11.4273C13.6123 11.3985 13.5062 11.3985 13.3951 11.3985C12.95 11.3985 12.7009 11.6931 12.7009 12.1858V13.248H11.7471V10.7321H12.6162V11.1956H12.6266C12.791 10.877 13.0295 10.6742 13.4428 10.6742ZM17.0135 11.9926C17.0135 12.8233 16.3193 13.3061 15.4081 13.3061C14.4968 13.3061 13.8026 12.8233 13.8026 11.9926C13.8026 11.157 14.4968 10.6742 15.4081 10.6742C16.3193 10.6742 17.0135 11.157 17.0135 11.9926ZM14.7882 11.9926C14.7882 12.3645 14.9683 12.6976 15.4082 12.6976C15.8479 12.6976 16.0281 12.3645 16.0281 11.9926C16.0281 11.6159 15.8479 11.2827 15.4082 11.2827C14.9683 11.2827 14.7882 11.6159 14.7882 11.9926ZM8.63443 10.7321H9.49832V12.9537C9.49832 13.987 8.94726 14.3204 7.8345 14.3204C7.37887 14.3204 7.00263 14.2333 6.78 14.1611L6.82781 13.4752C7.11917 13.6057 7.36291 13.6828 7.76035 13.6828C8.3115 13.6828 8.60809 13.4463 8.60809 12.9537V12.8182H8.59736C8.36968 13.1132 8.0518 13.248 7.67032 13.248C6.91251 13.248 6.44092 12.7269 6.44092 11.9829C6.44092 11.2342 6.82781 10.6742 7.68611 10.6742C8.09401 10.6742 8.42263 10.877 8.62406 11.1859H8.63443V10.7321ZM7.96704 11.3406C7.61199 11.3406 7.42653 11.6255 7.42653 11.9683C7.42653 12.3594 7.68091 12.5817 7.96704 12.5817C8.30603 12.5817 8.57637 12.321 8.57637 11.9345C8.57637 11.6543 8.39614 11.3406 7.96704 11.3406Z" fill="#D8232A"/>
<rect x="0.5" y="0.5" width="33" height="23" rx="3.5" stroke="#EEF2F6"/>
</svg>
