<svg width="28" height="20" viewBox="0 0 28 20" fill="none" xmlns="http://www.w3.org/2000/svg">
<rect x="0.5" y="0.5" width="27" height="19" rx="3.5" fill="white"/>
<path fill-rule="evenodd" clip-rule="evenodd" d="M5.09029 6.45232C4.59383 6.45315 4.19216 6.82359 4.1912 7.28138V7.2814V12.7856V12.7856C4.19121 12.7892 4.19124 12.7927 4.19129 12.7963C4.19214 12.8498 4.19845 12.902 4.20975 12.9526C4.29406 13.3301 4.65588 13.6139 5.09029 13.6147H14.4449L14.4449 13.6147L14.4449 6.45234L14.4449 6.45232H5.09029ZM5.09028 5.83334H22.9936C23.8609 5.83348 24.5635 6.48133 24.5638 7.28139V12.7856C24.5635 13.5854 23.8609 14.2333 22.9936 14.2336H5.09028C4.22292 14.2333 3.52032 13.5854 3.52002 12.7856V7.28139C3.52032 6.48133 4.22292 5.83348 5.09028 5.83334Z" fill="#0F3365"/>
<path fill-rule="evenodd" clip-rule="evenodd" d="M15.9758 11.8852H15.1904V8.94341H15.9148V9.32174H15.9236C16.0806 9.02795 16.4124 8.89514 16.7702 8.89514C17.3987 8.89514 17.7431 9.44652 17.7431 9.95348C17.7431 10.5733 17.381 11.0884 16.7046 11.0884C16.4297 11.0884 16.133 10.996 15.9845 10.7465H15.9758V11.8852ZM16.4561 10.533C16.7526 10.533 16.9316 10.3038 16.9316 9.96966C16.9316 9.69184 16.7614 9.4505 16.4561 9.4505C16.1679 9.4505 15.9757 9.68395 15.9757 9.99777C15.9757 10.3038 16.1941 10.533 16.4561 10.533ZM20.7527 11.8852C20.9142 11.9175 21.0756 11.9336 21.2415 11.9336C21.9208 11.9336 22.1107 11.4786 22.3167 10.9849L22.3541 10.8955L23.1878 8.94341H22.4023L21.9352 10.3116H21.9265L21.4377 8.94341H20.5915L21.5118 11.0884C21.4554 11.2735 21.307 11.3782 21.1153 11.3782C21.0058 11.3782 20.9098 11.3663 20.8053 11.3338L20.7527 11.8852ZM20.4599 11.1083C20.4251 10.9433 20.4162 10.7784 20.4162 10.6133V9.83261C20.4162 9.19271 19.9145 8.96344 19.3341 8.96344C18.9979 8.96344 18.7056 9.00752 18.4264 9.11236L18.4393 9.60327C18.6577 9.49069 18.9107 9.44633 19.1637 9.44633C19.4474 9.44633 19.6788 9.52277 19.6831 9.80861C19.5828 9.79236 19.4433 9.78016 19.3167 9.78016C18.8977 9.78016 18.1428 9.85688 18.1428 10.4967C18.1428 10.9516 18.5443 11.1568 18.9938 11.1568C19.3167 11.1568 19.5349 11.0399 19.7137 10.7784H19.7222C19.7222 10.8422 19.7268 10.9061 19.7315 10.9707V10.9707L19.7315 10.9707C19.7348 11.0161 19.7381 11.0619 19.7398 11.1083H20.4599ZM18.8758 10.4445C18.8758 10.2432 19.0852 10.1668 19.3514 10.1668C19.4349 10.1668 19.5161 10.1708 19.5921 10.1746C19.6234 10.1761 19.6538 10.1776 19.6831 10.1788C19.6831 10.4242 19.4956 10.674 19.1986 10.674C19.0154 10.674 18.8758 10.5891 18.8758 10.4445Z" fill="#FFFFFE"/>
<path fill-rule="evenodd" clip-rule="evenodd" d="M8.36405 11.04H9.14948V8.94342H8.36405V11.04ZM8.36405 8.60129H9.14948V8.07007H8.36405V8.60129ZM11.0705 8.89516C11.162 8.89516 11.258 8.90722 11.3366 8.91909L11.2972 9.52278C11.21 9.49871 11.1227 9.49871 11.0312 9.49871C10.6646 9.49871 10.4595 9.74424 10.4595 10.1549V11.04H9.67403V8.94343H10.3897V9.32964H10.3983C10.5337 9.06416 10.7301 8.89516 11.0705 8.89516ZM14.0111 9.99387C14.0111 10.6861 13.4393 11.0884 12.689 11.0884C11.9385 11.0884 11.3668 10.6861 11.3668 9.99387C11.3668 9.29748 11.9385 8.89516 12.689 8.89516C13.4393 8.89516 14.0111 9.29748 14.0111 9.99387ZM12.1784 9.99387C12.1784 10.3038 12.3268 10.5813 12.689 10.5813C13.0511 10.5813 13.1996 10.3038 13.1996 9.99387C13.1996 9.67992 13.0511 9.40224 12.689 9.40224C12.3268 9.40224 12.1784 9.67992 12.1784 9.99387ZM7.11062 8.94343H7.82206V10.7948C7.82206 11.6558 7.36825 11.9337 6.45185 11.9337C6.07663 11.9337 5.76678 11.861 5.58345 11.8009L5.62282 11.2294C5.86276 11.338 6.06348 11.4024 6.39079 11.4024C6.84468 11.4024 7.08893 11.2052 7.08893 10.7948V10.6818H7.08009C6.89259 10.9276 6.63081 11.04 6.31665 11.04C5.69257 11.04 5.3042 10.6057 5.3042 9.98572C5.3042 9.36186 5.62282 8.89516 6.32965 8.89516C6.66557 8.89516 6.9362 9.06416 7.10208 9.32162H7.11062V8.94343ZM6.561 9.45052C6.26861 9.45052 6.11588 9.68795 6.11588 9.97358C6.11588 10.2995 6.32537 10.4848 6.561 10.4848C6.84017 10.4848 7.06281 10.2675 7.06281 9.9454C7.06281 9.71188 6.91438 9.45052 6.561 9.45052Z" fill="#D8232A"/>
<rect x="0.5" y="0.5" width="27" height="19" rx="3.5" stroke="#EEF2F6"/>
</svg>
