<svg width="28" height="20" viewBox="0 0 28 20" fill="none" xmlns="http://www.w3.org/2000/svg">
<rect x="0.5" y="0.5" width="27" height="19" rx="3.5" fill="white"/>
<path fill-rule="evenodd" clip-rule="evenodd" d="M13.2242 12.94V10.4944H14.4715C14.9827 10.4944 15.4141 10.3211 15.7658 9.97934L15.8502 9.89268C16.4926 9.18502 16.4504 8.0826 15.7658 7.42789C15.4235 7.08127 14.9545 6.89353 14.4715 6.90315H12.4692V12.94H13.2242ZM13.2243 9.75303V7.64447H14.4906C14.7626 7.64447 15.0206 7.75038 15.2128 7.94294C15.6209 8.34732 15.6303 9.02129 15.2363 9.44012C15.044 9.64712 14.772 9.76266 14.4906 9.75303H13.2243ZM19.3718 9.13204C19.0483 8.82876 18.6075 8.67471 18.0495 8.67471C17.332 8.67471 16.7927 8.9443 16.4364 9.47866L17.1022 9.90711C17.3461 9.54124 17.679 9.3583 18.101 9.3583C18.3683 9.3583 18.6262 9.4594 18.8279 9.64233C19.0248 9.81564 19.1374 10.066 19.1374 10.3307V10.5089C18.8466 10.3452 18.4809 10.2585 18.0307 10.2585C17.5055 10.2585 17.0835 10.3837 16.7693 10.6388C16.4551 10.894 16.2957 11.231 16.2957 11.6594C16.2863 12.0494 16.4504 12.42 16.7412 12.6704C17.0366 12.94 17.4117 13.0748 17.8525 13.0748C18.373 13.0748 18.7857 12.8389 19.0999 12.3671H19.1327V12.94H19.8548V10.3933C19.8548 9.85897 19.6954 9.43533 19.3718 9.13204ZM17.3228 12.1794C17.168 12.0638 17.0742 11.8761 17.0742 11.6739C17.0742 11.4476 17.1774 11.2599 17.379 11.1106C17.5854 10.9614 17.8433 10.8844 18.1482 10.8844C18.5703 10.8796 18.8986 10.9758 19.1331 11.1684C19.1331 11.4958 19.0065 11.7798 18.7579 12.0205C18.5328 12.2516 18.2279 12.3815 17.909 12.3815C17.698 12.3864 17.4916 12.3142 17.3228 12.1794ZM21.4773 14.7549L24.0001 8.8095H23.1795L22.0119 11.775H21.9978L20.8021 8.8095H19.9814L21.6368 12.6752L20.6989 14.7549H21.4773Z" fill="#3C4043"/>
<path d="M10.6177 9.96491C10.6177 9.72902 10.599 9.49313 10.5614 9.26205H7.37744V10.5955H9.20156C9.12653 11.024 8.88269 11.4091 8.52631 11.6498V12.5164H9.61421C10.2519 11.9146 10.6177 11.024 10.6177 9.96491Z" fill="#4285F4"/>
<path d="M7.37749 13.354C8.2872 13.354 9.05624 13.0459 9.61426 12.5164L8.52636 11.6498C8.22155 11.8617 7.83235 11.982 7.37749 11.982C6.49591 11.982 5.75032 11.3706 5.48303 10.5522H4.3623V11.4476C4.93439 12.6175 6.10202 13.354 7.37749 13.354Z" fill="#34A853"/>
<path d="M5.48321 10.5522C5.34251 10.1238 5.34251 9.65683 5.48321 9.22356V8.33296H4.3623C3.87923 9.31022 3.87923 10.4656 4.3623 11.4428L5.48321 10.5522Z" fill="#FBBC04"/>
<path d="M7.37749 7.79377C7.86048 7.78414 8.32472 7.97189 8.67172 8.31369L9.63771 7.32199C9.02342 6.73468 8.21687 6.41214 7.37749 6.42176C6.10202 6.42176 4.93439 7.16313 4.3623 8.33295L5.48303 9.22836C5.75032 8.40516 6.49591 7.79377 7.37749 7.79377Z" fill="#EA4335"/>
<rect x="0.5" y="0.5" width="27" height="19" rx="3.5" stroke="#EEF2F6"/>
</svg>
