<svg width="46" height="32" viewBox="0 0 46 32" fill="none" xmlns="http://www.w3.org/2000/svg">
<rect x="0.5" y="0.5" width="45" height="31" rx="5.5" fill="white"/>
<path fill-rule="evenodd" clip-rule="evenodd" d="M12.3218 6.60791H23.1094C30.4398 6.60791 33.2568 10.7318 33.2568 15.9445C33.2568 22.1799 29.3195 25.3141 23.1094 25.3141H12.3218V6.60791ZM13.346 7.72962V24.2583H23.1093C28.9993 24.2583 32.2003 21.4211 32.2003 15.9775C32.2003 10.3689 28.7432 7.72962 23.1093 7.72962H13.346ZM16.2271 16.2744C17.3055 16.2744 18.1797 15.3734 18.1797 14.2619C18.1797 13.1504 17.3055 12.2494 16.2271 12.2494C15.1486 12.2494 14.2744 13.1504 14.2744 14.2619C14.2744 15.3734 15.1486 16.2744 16.2271 16.2744ZM14.6586 17.1322H17.7957V22.8727H14.6586V17.1322Z" fill="#222222"/>
<path fill-rule="evenodd" clip-rule="evenodd" d="M28.6474 12.4144H29.5437V15.1857H30.8561C30.504 10.138 26.6307 9.01627 23.1095 9.01627H19.3643V12.4144H19.9084C20.9328 12.4144 21.541 13.1072 21.541 14.2619C21.541 15.4166 20.9328 16.1094 19.9405 16.1094H19.3643V22.8727H23.1095C28.8394 22.8727 30.7921 20.1344 30.8881 16.1094H28.6474V12.4144ZM24.3259 15.1857V16.1094H22.0852V12.4144H24.2619V13.3381H22.9815V13.767H24.1979V14.6908H23.0135V15.1857H24.3259ZM24.71 16.1094L25.7983 12.4144H27.0787L28.1671 16.1094H27.2388L27.0467 15.4166H25.8623L25.6703 16.1094H24.71ZM26.1285 14.4598H26.1185V14.4928L26.1285 14.4598ZM26.1285 14.4598H26.7587L26.4706 13.4371H26.4386L26.1285 14.4598ZM19.3643 15.1857V13.3381H19.9084C20.2606 13.3381 20.6447 13.4371 20.6447 14.2619C20.6447 15.0867 20.2926 15.1857 19.9084 15.1857H19.3643Z" fill="#D50072"/>
<rect x="0.5" y="0.5" width="45" height="31" rx="5.5" stroke="#EEF2F6"/>
</svg>
