<svg width="28" height="20" viewBox="0 0 28 20" fill="none" xmlns="http://www.w3.org/2000/svg">
<rect x="0.5" y="0.5" width="27" height="19" rx="3.5" fill="white"/>
<path fill-rule="evenodd" clip-rule="evenodd" d="M7.61084 4.12994H14.2738C18.8014 4.12994 20.5413 6.7074 20.5413 9.9653C20.5413 13.8624 18.1094 15.8213 14.2738 15.8213H7.61084V4.12994ZM8.24347 4.83101V15.1615H14.2737C17.9116 15.1615 19.8888 13.3882 19.8888 9.98592C19.8888 6.48058 17.7535 4.83101 14.2737 4.83101H8.24347ZM10.0229 10.1715C10.689 10.1715 11.229 9.60835 11.229 8.91369C11.229 8.21902 10.689 7.65589 10.0229 7.65589C9.35684 7.65589 8.81688 8.21902 8.81688 8.91369C8.81688 9.60835 9.35684 10.1715 10.0229 10.1715ZM9.05419 10.7076H10.9918V14.2954H9.05419V10.7076Z" fill="#222222"/>
<path fill-rule="evenodd" clip-rule="evenodd" d="M17.6941 7.75899H18.2477V9.49104H19.0584C18.8409 6.33623 16.4485 5.63516 14.2737 5.63516H11.9604V7.75899H12.2966C12.9292 7.75899 13.3049 8.192 13.3049 8.91369C13.3049 9.63537 12.9292 10.0684 12.3163 10.0684H11.9604V14.2954H14.2737C17.8128 14.2954 19.0188 12.584 19.0781 10.0684H17.6941V7.75899ZM15.025 9.49104V10.0684H13.641V7.75899H14.9855V8.33634H14.1946V8.60439H14.9459V9.18174H14.2144V9.49104H15.025ZM15.2622 10.0684L15.9344 7.75899H16.7253L17.3975 10.0684H16.8241L16.7055 9.63537H15.974L15.8553 10.0684H15.2622ZM16.1384 9.0374H16.1322V9.05802L16.1384 9.0374ZM16.1384 9.0374H16.5276L16.3497 8.39819H16.3299L16.1384 9.0374ZM11.9604 9.49104V8.33634H12.2966C12.514 8.33634 12.7513 8.3982 12.7513 8.91369C12.7513 9.42918 12.5338 9.49104 12.2966 9.49104H11.9604Z" fill="#D50072"/>
<rect x="0.5" y="0.5" width="27" height="19" rx="3.5" stroke="#EEF2F6"/>
</svg>
