<svg width="34" height="24" viewBox="0 0 34 24" fill="none" xmlns="http://www.w3.org/2000/svg">
<rect x="0.5" y="0.5" width="33" height="23" rx="3.5" fill="white"/>
<path fill-rule="evenodd" clip-rule="evenodd" d="M24.951 18.6209C24.951 18.9731 24.8111 19.3109 24.562 19.5599C24.313 19.809 23.9752 19.9489 23.623 19.9489H10.3295C10.155 19.9491 9.98213 19.9149 9.82084 19.8482C9.65954 19.7816 9.51297 19.6838 9.38949 19.5604C9.26602 19.4371 9.16806 19.2906 9.10123 19.1294C9.0344 18.9682 9 18.7954 9 18.6209V5.32799C9 5.15347 9.0344 4.98066 9.10123 4.81944C9.16806 4.65823 9.26602 4.51176 9.38949 4.38843C9.51297 4.26509 9.65954 4.1673 9.82084 4.10065C9.98213 4.03401 10.155 3.9998 10.3295 4H23.6221C23.9743 4 24.3121 4.13991 24.5611 4.38896C24.8102 4.63801 24.9501 4.97579 24.9501 5.32799L24.951 18.6209Z" fill="#EDAA00"/>
<path d="M17.9061 12.1466V9.29053L18.6519 9.11397V9.48792C18.6519 9.48792 18.8447 8.99566 19.2926 8.88127C19.4305 8.84656 19.5 8.86738 19.5 8.86738V9.59597C19.3658 9.5978 19.2332 9.62547 19.1094 9.67746C18.8329 9.78641 18.6941 10.0248 18.6941 10.387V11.964L17.9061 12.1466ZM13.9761 13.0753C13.9761 13.0753 13.8554 12.8942 13.8554 12.2507V10.8289L13.4715 10.9194V10.3342L13.8557 10.2437V9.60502L14.6486 9.4179V10.055L15.2087 9.92223V10.5078L14.6486 10.6409V12.0896C14.6486 12.7478 14.8233 12.8743 14.8233 12.8743L13.9761 13.0753ZM15.2914 11.3764C15.2914 10.8684 15.3639 10.4981 15.519 10.2138C15.7034 9.87636 16.0067 9.65663 16.448 9.55613C17.3175 9.35844 17.6311 9.87334 17.6187 10.5633C17.6148 10.8099 17.6157 10.9303 17.6157 10.9303L16.0837 11.2904V11.3151C16.0837 11.798 16.1851 12.0265 16.4906 11.9613C16.7543 11.9058 16.8277 11.7404 16.8485 11.5363C16.8521 11.5028 16.8533 11.4192 16.8533 11.4192L17.5714 11.2472C17.5714 11.2472 17.5732 11.3061 17.5714 11.3716C17.5647 11.6459 17.485 12.3262 16.4875 12.5616C15.5429 12.7859 15.2905 12.2088 15.2905 11.3764H15.2914ZM16.4788 10.0879C16.225 10.1456 16.0919 10.3946 16.0864 10.8072L16.8573 10.6237C16.8588 10.6049 16.8588 10.5633 16.8588 10.4993C16.8573 10.1881 16.761 10.0239 16.4791 10.0879H16.4788ZM22.1819 9.70613C22.1517 8.8363 22.3775 8.14574 23.3478 7.92542C23.9671 7.78477 24.2017 7.94534 24.3206 8.10077C24.435 8.24927 24.479 8.44937 24.479 8.72976V8.78167L23.7191 8.96276V8.85682C23.7191 8.52482 23.6285 8.39806 23.3871 8.45842C23.1 8.53056 22.9841 8.8028 22.9841 9.34486V9.59748C22.9841 10.1483 23.0596 10.4006 23.3901 10.3312C23.6774 10.2708 23.7166 10.0197 23.7221 9.79879C23.7221 9.76408 23.7242 9.65301 23.7242 9.65301L24.4829 9.47434V9.59235C24.4808 10.3143 24.1002 10.7694 23.3868 10.9354C22.4049 11.166 22.2124 10.5977 22.1822 9.70613H22.1819ZM19.557 10.9237C19.557 10.2621 19.9451 10.0529 20.5286 9.81177C21.0528 9.59476 21.064 9.48701 21.0664 9.29868C21.0691 9.14023 20.9958 9.00411 20.7344 9.07081C20.4944 9.13117 20.4308 9.30562 20.4181 9.44446C20.4137 9.49322 20.4121 9.54219 20.4133 9.59114L19.6777 9.76468C19.6728 9.61809 19.6899 9.47159 19.7284 9.33007C19.8461 8.93439 20.1953 8.66819 20.7972 8.52905C21.5795 8.34796 21.8405 8.69203 21.8418 9.22624V10.4912C21.8418 11.1029 21.9552 11.1923 21.9552 11.1923L21.233 11.3634C21.1931 11.2799 21.1605 11.193 21.1358 11.1038C21.1358 11.1038 20.978 11.5019 20.4329 11.6305C19.8594 11.7651 19.5576 11.4108 19.5576 10.924L19.557 10.9237ZM21.0622 10.0206C20.9404 10.106 20.8118 10.1812 20.6776 10.2455C20.4362 10.3635 20.3278 10.5084 20.3278 10.7317C20.3278 10.9252 20.4486 11.0525 20.6659 10.9982C20.8998 10.9397 21.0622 10.7214 21.0622 10.4187V10.0206ZM9.83158 15.0773C9.74916 15.0771 9.66831 15.0547 9.59754 15.0124C9.52677 14.9702 9.46869 14.9097 9.42943 14.8372C9.39017 14.7647 9.37117 14.683 9.37443 14.6006C9.37769 14.5183 9.4031 14.4383 9.44798 14.3692L9.4528 14.3629L9.46156 14.3607L10.539 14.1063V14.9251L10.5221 14.9291C10.2777 14.9879 9.98551 15.0546 9.92515 15.067C9.89424 15.0739 9.86265 15.0774 9.83098 15.0773H9.83158ZM9.83158 16.1249C9.71049 16.1249 9.59434 16.0769 9.50858 15.9914C9.42281 15.9059 9.37443 15.7899 9.37403 15.6688C9.37355 15.5804 9.39928 15.4939 9.44798 15.4201L9.4528 15.412L9.46156 15.4102L10.539 15.1557V15.9746L10.5221 15.9791C10.2777 16.0376 9.98551 16.1055 9.92515 16.1173C9.89413 16.1234 9.86259 16.1264 9.83098 16.1264L9.83158 16.1249ZM9.83158 17.1743C9.71021 17.1742 9.59383 17.1259 9.50803 17.0401C9.42223 16.9542 9.37403 16.8378 9.37403 16.7164C9.37355 16.628 9.39928 16.5415 9.44798 16.4677L9.4528 16.4593L10.5393 16.2033V17.0222L10.5224 17.0264C10.2644 17.0886 9.97736 17.1534 9.92545 17.1652C9.89441 17.1711 9.86288 17.1742 9.83128 17.1743" fill="#231F20"/>
<path d="M9.70489 14.0737L9.70459 9.49243L10.5397 9.29504V13.876L9.70489 14.0737V14.0737Z" fill="#231F20"/>
<path d="M11.7856 13.6841C11.7823 13.5496 11.7266 13.4216 11.6303 13.3277C11.534 13.2337 11.4048 13.181 11.2702 13.181C11.1357 13.181 11.0064 13.2337 10.9102 13.3277C10.8139 13.4216 10.7581 13.5496 10.7549 13.6841V17.9662C10.7555 18.3361 10.9027 18.6905 11.1642 18.9521C11.4256 19.2136 11.7801 19.3608 12.1499 19.3615C12.5398 19.3615 13.6083 19.3597 13.6083 19.3597V15.5813C13.6084 15.4702 13.5812 15.3608 13.5289 15.2628C13.4766 15.1648 13.4009 15.0813 13.3085 15.0196L12.0083 14.1365V16.1418C12.0091 16.1568 12.0068 16.1718 12.0016 16.1859C11.9964 16.2 11.9884 16.2129 11.9781 16.2238C11.9677 16.2347 11.9552 16.2434 11.9414 16.2493C11.9276 16.2553 11.9127 16.2583 11.8977 16.2583C11.8827 16.2583 11.8678 16.2553 11.854 16.2493C11.8402 16.2434 11.8277 16.2347 11.8174 16.2238C11.807 16.2129 11.799 16.2 11.7938 16.1859C11.7886 16.1718 11.7863 16.1568 11.7871 16.1418C11.7871 16.1203 11.7844 13.9488 11.7844 13.6841H11.7856ZM12.4816 10.4894C12.3237 10.5258 12.1755 10.596 12.0472 10.6949C11.9188 10.7939 11.8133 10.9194 11.7379 11.0628V10.742L10.9861 10.92V12.9763C11.1179 12.9243 11.2616 12.9097 11.4013 12.9341C11.5409 12.9586 11.6711 13.0211 11.7774 13.1149V11.7869C11.7774 11.469 11.9362 11.2149 12.162 11.1651C12.3325 11.1277 12.4743 11.1887 12.4743 11.4914V13.4287L13.266 13.2428V11.1938C13.266 10.6967 13.0752 10.3487 12.4813 10.4894H12.4816ZM23.9913 7.55721C23.8945 7.55727 23.7997 7.5286 23.7191 7.47482C23.6386 7.42105 23.5757 7.34458 23.5386 7.2551C23.5015 7.16561 23.4917 7.06713 23.5105 6.97209C23.5294 6.87706 23.576 6.78975 23.6444 6.7212C23.7129 6.65265 23.8002 6.60595 23.8952 6.58699C23.9902 6.56803 24.0887 6.57767 24.1782 6.61469C24.2677 6.65171 24.3443 6.71445 24.3982 6.79497C24.452 6.87549 24.4808 6.97018 24.4809 7.06706C24.4806 7.19679 24.429 7.32114 24.3372 7.41285C24.2454 7.50456 24.1211 7.55615 23.9913 7.5563V7.55721ZM23.9913 6.63848C23.9066 6.63848 23.8239 6.66359 23.7534 6.71064C23.683 6.75768 23.6281 6.82455 23.5957 6.90279C23.5633 6.98103 23.5548 7.06713 23.5713 7.1502C23.5878 7.23327 23.6285 7.30958 23.6884 7.36949C23.7483 7.4294 23.8245 7.47021 23.9076 7.48677C23.9907 7.50333 24.0768 7.49489 24.155 7.46252C24.2333 7.43015 24.3002 7.37531 24.3473 7.30492C24.3944 7.23453 24.4196 7.15175 24.4196 7.06706C24.4195 6.9535 24.3743 6.84462 24.294 6.76429C24.2137 6.68396 24.1049 6.63872 23.9913 6.63848" fill="#231F20"/>
<path d="M23.813 6.77582H24.0243C24.1085 6.77582 24.1752 6.81777 24.1752 6.92914C24.1752 7.00671 24.1408 7.06647 24.0756 7.07673C24.1359 7.08277 24.1661 7.11536 24.1688 7.19957C24.1688 7.2373 24.1706 7.28438 24.1725 7.32029C24.1724 7.33055 24.175 7.34065 24.18 7.34962C24.185 7.3586 24.1921 7.36617 24.2008 7.3716H24.0934C24.0826 7.35613 24.0769 7.33766 24.0771 7.31879C24.0735 7.28287 24.0741 7.24937 24.0729 7.20591C24.0729 7.14071 24.0514 7.11204 23.9856 7.11204H23.9099V7.3716H23.8142L23.813 6.77582ZM23.9847 7.04202C23.9977 7.04322 24.0108 7.04152 24.023 7.03703C24.0353 7.03254 24.0464 7.02539 24.0555 7.01608C24.0646 7.00678 24.0716 6.99556 24.0758 6.98323C24.0801 6.97091 24.0815 6.95779 24.0801 6.94484C24.0801 6.88115 24.0529 6.84795 23.9896 6.84795H23.9099V7.04202H23.9847Z" fill="#231F20"/>
<rect x="0.5" y="0.5" width="33" height="23" rx="3.5" stroke="#EEF2F6"/>
</svg>
