<svg width="28" height="20" viewBox="0 0 28 20" fill="none" xmlns="http://www.w3.org/2000/svg">
<rect x="0.5" y="0.5" width="27" height="19" rx="3.5" fill="white"/>
<path fill-rule="evenodd" clip-rule="evenodd" d="M20.5477 15.5174C20.5477 15.8109 20.4325 16.0924 20.2274 16.2999C20.0223 16.5074 19.7441 16.624 19.4541 16.624H8.5065C8.36278 16.6242 8.22043 16.5957 8.0876 16.5402C7.95477 16.4846 7.83407 16.4031 7.73238 16.3004C7.63069 16.1976 7.55003 16.0755 7.49499 15.9412C7.43995 15.8068 7.41162 15.6628 7.41162 15.5174V4.43997C7.41162 4.29454 7.43995 4.15053 7.49499 4.01618C7.55003 3.88183 7.63069 3.75978 7.73238 3.657C7.83407 3.55422 7.95477 3.47273 8.0876 3.41719C8.22043 3.36165 8.36278 3.33315 8.5065 3.33331H19.4533C19.7434 3.33331 20.0216 3.44991 20.2267 3.65745C20.4318 3.86499 20.547 4.14647 20.547 4.43997L20.5477 15.5174Z" fill="#EDAA00"/>
<path d="M14.7461 10.1222V7.74211L15.3603 7.59497V7.9066C15.3603 7.9066 15.5191 7.49638 15.888 7.40106C16.0016 7.37213 16.0587 7.38949 16.0587 7.38949V7.99664C15.9482 7.99817 15.839 8.02123 15.7371 8.06455C15.5094 8.15535 15.3951 8.35404 15.3951 8.65586V9.97001L14.7461 10.1222ZM11.5097 10.8961C11.5097 10.8961 11.4103 10.7452 11.4103 10.209V9.02407L11.0941 9.09953V8.61184L11.4105 8.53639V8.00419L12.0635 7.84825V8.37919L12.5248 8.26853V8.75646L12.0635 8.86738V10.0746C12.0635 10.6232 12.2074 10.7286 12.2074 10.7286L11.5097 10.8961ZM12.5929 9.48032C12.5929 9.05702 12.6525 8.74841 12.7803 8.51149C12.9322 8.2303 13.182 8.04719 13.5454 7.96344C14.2614 7.7987 14.5197 8.22778 14.5095 8.80274C14.5063 9.00823 14.507 9.10858 14.507 9.10858L13.2453 9.40864V9.42926C13.2453 9.83168 13.3289 10.0221 13.5804 9.96775C13.7976 9.92147 13.858 9.78364 13.8752 9.61362C13.8782 9.5857 13.8792 9.51603 13.8792 9.51603L14.4705 9.37267C14.4705 9.37267 14.472 9.42172 14.4705 9.47629C14.465 9.70492 14.3994 10.2718 13.5779 10.468C12.7999 10.6549 12.5921 10.174 12.5921 9.48032H12.5929ZM13.5707 8.40661C13.3617 8.45465 13.2521 8.66215 13.2476 9.00596L13.8824 8.85304C13.8836 8.83745 13.8836 8.80274 13.8836 8.74942C13.8824 8.49011 13.8031 8.35329 13.571 8.40661H13.5707ZM18.2674 8.08844C18.2425 7.36358 18.4285 6.78812 19.2276 6.60451C19.7376 6.48731 19.9307 6.62111 20.0286 6.75064C20.1229 6.87439 20.1591 7.04114 20.1591 7.2748V7.31806L19.5333 7.46897V7.38068C19.5333 7.10402 19.4587 6.99838 19.2599 7.04869C19.0235 7.1088 18.9281 7.33566 18.9281 7.78738V7.9979C18.9281 8.45691 18.9902 8.66718 19.2624 8.60933C19.499 8.55902 19.5313 8.34977 19.5358 8.16566C19.5358 8.13673 19.5375 8.04418 19.5375 8.04418L20.1624 7.89528V7.99362C20.1606 8.59524 19.8472 8.97453 19.2596 9.11286C18.4511 9.30501 18.2925 8.83141 18.2676 8.08844H18.2674ZM16.1057 9.10305C16.1057 8.55173 16.4254 8.37743 16.9058 8.17647C17.3375 7.99563 17.3467 7.90584 17.3487 7.7489C17.351 7.61686 17.2906 7.50342 17.0753 7.55901C16.8777 7.60931 16.8253 7.75468 16.8148 7.87038C16.8112 7.91102 16.8099 7.95183 16.8109 7.99262L16.2051 8.13724C16.2011 8.01508 16.2151 7.89299 16.2469 7.77506C16.3438 7.44532 16.6314 7.22349 17.127 7.10754C17.7713 6.95663 17.9863 7.24336 17.9873 7.68854V8.74263C17.9873 9.25245 18.0807 9.32689 18.0807 9.32689L17.4859 9.4695C17.4531 9.39991 17.4263 9.32753 17.4059 9.2532C17.4059 9.2532 17.2759 9.58495 16.827 9.69209C16.3548 9.80427 16.1062 9.50899 16.1062 9.1033L16.1057 9.10305ZM17.3453 8.35052C17.245 8.42165 17.139 8.48432 17.0286 8.5379C16.8298 8.63624 16.7405 8.75697 16.7405 8.94309C16.7405 9.10431 16.8399 9.21044 17.0189 9.16517C17.2115 9.11638 17.3453 8.93453 17.3453 8.68227V8.35052ZM8.09654 12.5644C8.02866 12.5642 7.96208 12.5456 7.9038 12.5104C7.84551 12.4752 7.79769 12.4247 7.76536 12.3643C7.73302 12.3039 7.71737 12.2358 7.72006 12.1672C7.72275 12.0986 7.74367 12.0319 7.78063 11.9743L7.7846 11.969L7.79181 11.9673L8.67915 11.7553V12.4376L8.66523 12.4409C8.4639 12.4899 8.2233 12.5455 8.17359 12.5558C8.14814 12.5616 8.12213 12.5645 8.09604 12.5644H8.09654ZM8.09654 13.4374C7.99682 13.4374 7.90116 13.3974 7.83054 13.3261C7.75991 13.2549 7.72006 13.1583 7.71973 13.0573C7.71933 12.9837 7.74053 12.9116 7.78063 12.8501L7.7846 12.8433L7.79181 12.8418L8.67915 12.6298V13.3121L8.66523 13.3159C8.4639 13.3647 8.2233 13.4213 8.17359 13.4311C8.14805 13.4362 8.12207 13.4387 8.09604 13.4386L8.09654 13.4374ZM8.09654 14.3119C7.99658 14.3118 7.90074 14.2716 7.83008 14.2001C7.75942 14.1285 7.71973 14.0315 7.71973 13.9303C7.71933 13.8567 7.74053 13.7846 7.78063 13.7231L7.7846 13.7161L8.6794 13.5028V14.1851L8.66548 14.1887C8.45297 14.2405 8.21659 14.2945 8.17384 14.3043C8.14828 14.3093 8.12232 14.3118 8.09629 14.3119" fill="#231F20"/>
<path d="M7.99244 11.7281L7.99219 7.91034L8.67994 7.74585V11.5633L7.99244 11.7281V11.7281Z" fill="#231F20"/>
<path d="M9.70575 11.4034C9.70307 11.2913 9.65718 11.1847 9.57788 11.1064C9.49858 11.0281 9.39215 10.9842 9.28134 10.9842C9.17053 10.9842 9.06411 11.0281 8.98481 11.1064C8.90551 11.1847 8.85961 11.2913 8.85693 11.4034V14.9719C8.85746 15.28 8.97866 15.5754 9.19398 15.7934C9.4093 16.0113 9.70121 16.134 10.0058 16.1346C10.3269 16.1346 11.2068 16.1331 11.2068 16.1331V12.9844C11.2069 12.8919 11.1845 12.8007 11.1414 12.719C11.0984 12.6374 11.036 12.5677 10.96 12.5163L9.88918 11.7804V13.4515C9.88983 13.464 9.88795 13.4765 9.88366 13.4882C9.87938 13.5 9.87277 13.5107 9.86425 13.5198C9.85573 13.5289 9.84547 13.5362 9.83409 13.5411C9.82272 13.546 9.81047 13.5486 9.79809 13.5486C9.78571 13.5486 9.77346 13.546 9.76208 13.5411C9.75071 13.5362 9.74044 13.5289 9.73192 13.5198C9.7234 13.5107 9.71679 13.5 9.71251 13.4882C9.70822 13.4765 9.70634 13.464 9.70699 13.4515C9.70699 13.4336 9.70475 11.624 9.70475 11.4034H9.70575ZM10.2789 8.74113C10.1489 8.77154 10.0269 8.82997 9.92116 8.91244C9.81547 8.99491 9.7286 9.09947 9.66648 9.219V8.95165L9.04733 9.10004V10.8136C9.15593 10.7702 9.27425 10.7581 9.38925 10.7784C9.50425 10.7988 9.61145 10.8509 9.69904 10.929V9.82238C9.69904 9.55754 9.82978 9.34577 10.0157 9.30427C10.1561 9.27308 10.2729 9.32388 10.2729 9.57615V11.1906L10.9249 11.0357V9.32816C10.9249 8.91392 10.7678 8.62392 10.2787 8.74113H10.2789ZM19.7575 6.29768C19.6778 6.29772 19.5997 6.27383 19.5334 6.22902C19.467 6.18421 19.4153 6.12049 19.3847 6.04591C19.3541 5.97134 19.3461 5.88927 19.3616 5.81008C19.3771 5.73088 19.4155 5.65813 19.4719 5.601C19.5282 5.54388 19.6001 5.50495 19.6783 5.48916C19.7566 5.47336 19.8377 5.48139 19.9114 5.51224C19.9852 5.54309 20.0482 5.59537 20.0926 5.66247C20.1369 5.72957 20.1606 5.80848 20.1607 5.88922C20.1605 5.99733 20.118 6.10095 20.0424 6.17738C19.9668 6.2538 19.8644 6.29679 19.7575 6.29692V6.29768ZM19.7575 5.53207C19.6878 5.53207 19.6196 5.55299 19.5616 5.5922C19.5036 5.6314 19.4584 5.68713 19.4317 5.75233C19.405 5.81753 19.398 5.88928 19.4116 5.9585C19.4252 6.02772 19.4588 6.09132 19.5081 6.14124C19.5574 6.19116 19.6202 6.22518 19.6886 6.23897C19.757 6.25277 19.8279 6.24574 19.8923 6.21877C19.9568 6.19179 20.0119 6.14609 20.0507 6.08743C20.0895 6.02877 20.1102 5.95979 20.1102 5.88922C20.1101 5.79458 20.0729 5.70385 20.0068 5.63691C19.9407 5.56997 19.8511 5.53227 19.7575 5.53207" fill="#231F20"/>
<path d="M19.6104 5.64648H19.7843C19.8537 5.64648 19.9086 5.68144 19.9086 5.77425C19.9086 5.83889 19.8803 5.88869 19.8266 5.89724C19.8763 5.90227 19.9012 5.92944 19.9034 5.99961C19.9034 6.03105 19.9049 6.07028 19.9064 6.10022C19.9064 6.10876 19.9085 6.11718 19.9126 6.12466C19.9167 6.13214 19.9226 6.13844 19.9297 6.14297H19.8413C19.8324 6.13008 19.8277 6.11469 19.8278 6.09896C19.8249 6.06903 19.8254 6.04111 19.8244 6.00489C19.8244 5.95056 19.8067 5.92667 19.7525 5.92667H19.6901V6.14297H19.6113L19.6104 5.64648ZM19.7518 5.86832C19.7625 5.86932 19.7732 5.8679 19.7833 5.86416C19.7934 5.86042 19.8025 5.85446 19.8101 5.8467C19.8176 5.83895 19.8233 5.8296 19.8268 5.81933C19.8303 5.80906 19.8315 5.79813 19.8303 5.78733C19.8303 5.73426 19.808 5.7066 19.7558 5.7066H19.6901V5.86832H19.7518Z" fill="#231F20"/>
<rect x="0.5" y="0.5" width="27" height="19" rx="3.5" stroke="#EEF2F6"/>
</svg>
