<svg width="58" height="40" viewBox="0 0 58 40" fill="none" xmlns="http://www.w3.org/2000/svg">
<rect x="0.5" y="0.5" width="57" height="39" rx="5.5" fill="white"/>
<path fill-rule="evenodd" clip-rule="evenodd" d="M41.585 31.0348C41.585 31.6218 41.3518 32.1848 40.9367 32.5999C40.5216 33.015 39.9587 33.2481 39.3717 33.2481H17.2158C16.925 33.2485 16.6369 33.1915 16.3681 33.0804C16.0992 32.9693 15.8549 32.8063 15.6492 32.6008C15.4434 32.3952 15.2801 32.1511 15.1687 31.8824C15.0573 31.6137 15 31.3257 15 31.0348V8.88001C15 8.58914 15.0573 8.30112 15.1687 8.03243C15.2801 7.76373 15.4434 7.51962 15.6492 7.31406C15.8549 7.10851 16.0992 6.94553 16.3681 6.83444C16.6369 6.72336 16.925 6.66636 17.2158 6.66669H39.3701C39.9571 6.66669 40.5201 6.89988 40.9352 7.31495C41.3503 7.73003 41.5835 8.293 41.5835 8.88001L41.585 31.0348Z" fill="#EDAA00"/>
<path d="M29.8436 20.2444V15.4843L31.0866 15.19V15.8133C31.0866 15.8133 31.408 14.9928 32.1545 14.8022C32.3844 14.7443 32.5001 14.779 32.5001 14.779V15.9933C32.2764 15.9964 32.0554 16.0425 31.8492 16.1292C31.3884 16.3108 31.157 16.7081 31.157 17.3118V19.9401L29.8436 20.2444ZM23.2937 21.7922C23.2937 21.7922 23.0925 21.4904 23.0925 20.418V18.0482L22.4526 18.1991V17.2237L23.093 17.0728V16.0084L24.4144 15.6966V16.7584L25.3481 16.5371V17.513L24.4144 17.7348V20.1494C24.4144 21.2465 24.7057 21.4572 24.7057 21.4572L23.2937 21.7922ZM25.4859 18.9607C25.4859 18.1141 25.6066 17.4969 25.8652 17.023C26.1725 16.4607 26.6781 16.0945 27.4135 15.9269C28.8627 15.5975 29.3854 16.4556 29.3647 17.6055C29.3582 18.0165 29.3597 18.2172 29.3597 18.2172L26.8063 18.8173V18.8586C26.8063 19.6634 26.9754 20.0442 27.4844 19.9356C27.9241 19.843 28.0463 19.5673 28.081 19.2273C28.087 19.1715 28.0891 19.0321 28.0891 19.0321L29.2858 18.7454C29.2858 18.7454 29.2888 18.8435 29.2858 18.9526C29.2747 19.4099 29.1419 20.5437 27.4794 20.9361C25.9049 21.3098 25.4844 20.348 25.4844 18.9607H25.4859ZM27.4648 16.8133C27.0418 16.9094 26.8199 17.3244 26.8109 18.012L28.0956 17.7061C28.0981 17.675 28.0981 17.6055 28.0981 17.4989C28.0956 16.9803 27.9351 16.7066 27.4653 16.8133H27.4648ZM36.97 16.1769C36.9197 14.7272 37.296 13.5763 38.9132 13.2091C39.9454 12.9747 40.3363 13.2423 40.5344 13.5013C40.7251 13.7488 40.7985 14.0823 40.7985 14.5497V14.6362L39.5319 14.938V14.7614C39.5319 14.2081 39.381 13.9968 38.9786 14.0974C38.5002 14.2177 38.307 14.6714 38.307 15.5748V15.9959C38.307 16.9139 38.4328 17.3344 38.9836 17.2187C39.4625 17.1181 39.5279 16.6996 39.5369 16.3314C39.5369 16.2735 39.5405 16.0884 39.5405 16.0884L40.8051 15.7906V15.9873C40.8016 17.1905 40.1672 17.9491 38.9781 18.2258C37.3417 18.6101 37.0208 17.6629 36.9705 16.1769H36.97ZM32.5952 18.2062C32.5952 17.1035 33.2421 16.7549 34.2144 16.353C35.0882 15.9913 35.1068 15.8117 35.1108 15.4979C35.1153 15.2338 34.9931 15.0069 34.5575 15.1181C34.1576 15.2187 34.0514 15.5094 34.0303 15.7408C34.023 15.8221 34.0203 15.9037 34.0223 15.9853L32.7964 16.2745C32.7881 16.0302 32.8166 15.786 32.8809 15.5502C33.0771 14.8907 33.6591 14.447 34.6621 14.2151C35.966 13.9133 36.4011 14.4868 36.4031 15.3771V17.4853C36.4031 18.505 36.5922 18.6539 36.5922 18.6539L35.3885 18.9391C35.3219 18.7999 35.2677 18.6551 35.2265 18.5065C35.2265 18.5065 34.9634 19.17 34.055 19.3842C33.0992 19.6086 32.5962 19.018 32.5962 18.2067L32.5952 18.2062ZM35.1038 16.7011C34.9008 16.8434 34.6864 16.9687 34.4629 17.0759C34.0605 17.2725 33.8799 17.514 33.8799 17.8862C33.8799 18.2087 34.0811 18.421 34.4433 18.3304C34.8331 18.2328 35.1038 17.8691 35.1038 17.3646V16.7011ZM16.3861 25.1288C16.2488 25.1285 16.114 25.0912 15.9961 25.0208C15.8781 24.9504 15.7813 24.8495 15.7159 24.7287C15.6504 24.6079 15.6188 24.4717 15.6242 24.3345C15.6297 24.1972 15.672 24.0639 15.7468 23.9487L15.7548 23.9382L15.7694 23.9346L17.5652 23.5106V24.8753L17.5371 24.8818C17.1296 24.9799 16.6427 25.0911 16.5421 25.1117C16.4906 25.1232 16.4379 25.129 16.3851 25.1288H16.3861ZM16.3861 26.8748C16.1843 26.8748 15.9907 26.7948 15.8478 26.6524C15.7048 26.5099 15.6242 26.3166 15.6235 26.1147C15.6227 25.9674 15.6656 25.8232 15.7468 25.7003L15.7548 25.6867L15.7694 25.6837L17.5652 25.2596V26.6243L17.5371 26.6319C17.1296 26.7294 16.6427 26.8426 16.5421 26.8622C16.4904 26.8724 16.4378 26.8774 16.3851 26.8773L16.3861 26.8748ZM16.3861 28.6238C16.1838 28.6237 15.9899 28.5433 15.8469 28.4002C15.7039 28.2571 15.6235 28.0631 15.6235 27.8608C15.6227 27.7134 15.6656 27.5692 15.7468 27.4463L15.7548 27.4322L17.5657 27.0056V28.3703L17.5376 28.3774C17.1075 28.481 16.6291 28.5891 16.5426 28.6088C16.4908 28.6186 16.4383 28.6237 16.3856 28.6238" fill="#231F20"/>
<path d="M16.1753 23.4562L16.1748 15.8208L17.5667 15.4918V23.1268L16.1753 23.4562V23.4562Z" fill="#231F20"/>
<path d="M19.6426 22.8068C19.6372 22.5826 19.5443 22.3694 19.3839 22.2128C19.2234 22.0561 19.008 21.9684 18.7837 21.9684C18.5595 21.9684 18.3441 22.0561 18.1836 22.2128C18.0231 22.3694 17.9302 22.5826 17.9248 22.8068V29.9437C17.9259 30.5601 18.1711 31.1509 18.6069 31.5868C19.0427 32.0226 19.6334 32.268 20.2498 32.2692C20.8997 32.2692 22.6804 32.2662 22.6804 32.2662V25.9688C22.6807 25.7837 22.6353 25.6014 22.5482 25.4381C22.461 25.2747 22.3349 25.1355 22.1809 25.0327L20.0139 23.5608V26.9029C20.0152 26.928 20.0114 26.953 20.0027 26.9765C19.994 27 19.9807 27.0215 19.9634 27.0397C19.9462 27.0578 19.9254 27.0723 19.9024 27.0822C19.8794 27.0921 19.8546 27.0972 19.8295 27.0972C19.8045 27.0972 19.7797 27.0921 19.7566 27.0822C19.7336 27.0723 19.7129 27.0578 19.6956 27.0397C19.6784 27.0215 19.665 27 19.6563 26.9765C19.6476 26.953 19.6438 26.928 19.6452 26.9029C19.6452 26.8672 19.6406 23.248 19.6406 22.8068H19.6426ZM20.8026 17.4823C20.5395 17.5431 20.2925 17.6599 20.0786 17.8249C19.8647 17.9898 19.6889 18.1989 19.5632 18.438V17.9033L18.3101 18.2001V21.6272C18.5299 21.5405 18.7694 21.5161 19.0021 21.5569C19.2348 21.5976 19.4518 21.7019 19.6291 21.8581V19.6448C19.6291 19.1151 19.8937 18.6915 20.2699 18.6085C20.5541 18.5462 20.7905 18.6478 20.7905 19.1523V22.3812L22.11 22.0714V18.6563C22.11 17.8278 21.7921 17.2478 20.8021 17.4823H20.8026ZM39.9856 12.5954C39.8241 12.5954 39.6662 12.5477 39.5319 12.458C39.3976 12.3684 39.2929 12.241 39.231 12.0918C39.1691 11.9427 39.1528 11.7785 39.1842 11.6202C39.2156 11.4618 39.2933 11.3163 39.4074 11.202C39.5215 11.0878 39.6669 11.0099 39.8253 10.9783C39.9836 10.9467 40.1478 10.9628 40.297 11.0245C40.4462 11.0862 40.5738 11.1907 40.6636 11.3249C40.7534 11.4591 40.8014 11.617 40.8015 11.7784C40.8011 11.9947 40.715 12.2019 40.562 12.3548C40.4091 12.5076 40.2018 12.5936 39.9856 12.5938V12.5954ZM39.9856 11.0641C39.8444 11.0641 39.7064 11.106 39.589 11.1844C39.4717 11.2628 39.3802 11.3743 39.3261 11.5047C39.2721 11.6351 39.2579 11.7786 39.2854 11.917C39.3129 12.0554 39.3809 12.1826 39.4806 12.2825C39.5804 12.3823 39.7076 12.4504 39.846 12.478C39.9844 12.5055 40.1279 12.4915 40.2584 12.4375C40.3888 12.3836 40.5003 12.2922 40.5788 12.1749C40.6573 12.0575 40.6992 11.9196 40.6993 11.7784C40.6991 11.5892 40.6238 11.4077 40.49 11.2738C40.3562 11.1399 40.1748 11.0645 39.9856 11.0641" fill="#231F20"/>
<path d="M39.688 11.293H40.0401C40.1805 11.293 40.2916 11.363 40.2916 11.5486C40.2916 11.6778 40.2343 11.7774 40.1256 11.7945C40.2262 11.8046 40.2765 11.8589 40.2811 11.9993C40.2811 12.0622 40.2841 12.1406 40.2871 12.2005C40.2871 12.2176 40.2914 12.2344 40.2997 12.2494C40.3079 12.2643 40.3199 12.2769 40.3344 12.286H40.1553C40.1373 12.2602 40.1278 12.2294 40.1281 12.198C40.1221 12.1381 40.1231 12.0823 40.1211 12.0098C40.1211 11.9012 40.0854 11.8534 39.9757 11.8534H39.8495V12.286H39.69L39.688 11.293ZM39.9742 11.7367C39.9958 11.7387 40.0177 11.7359 40.0381 11.7284C40.0585 11.7209 40.0769 11.709 40.0922 11.6935C40.1074 11.678 40.119 11.6593 40.1261 11.6387C40.1331 11.6182 40.1356 11.5963 40.1332 11.5747C40.1332 11.4686 40.0879 11.4133 39.9823 11.4133H39.8495V11.7367H39.9742Z" fill="#231F20"/>
<rect x="0.5" y="0.5" width="57" height="39" rx="5.5" stroke="#EEF2F6"/>
</svg>
