<svg width="58" height="40" viewBox="0 0 58 40" fill="none" xmlns="http://www.w3.org/2000/svg">
<rect x="0.5" y="0.5" width="57" height="39" rx="5.5" fill="#FEB4C7"/>
<path fill-rule="evenodd" clip-rule="evenodd" d="M8.78186 25.6327H6.47607V15H8.78186V25.6327ZM14.5385 15H12.2827C12.2827 16.9567 11.4326 18.7526 9.95055 19.9276L9.05685 20.6359L12.5197 25.6331H15.3668L12.1805 21.0349C13.6908 19.4433 14.5385 17.3019 14.5385 15ZM18.2162 25.6298H16.0387V15.002H18.2162V25.6298ZM24.7953 18.2781V18.7484C24.2078 18.3242 23.4986 18.0749 22.7337 18.0749C20.7093 18.0749 19.0682 19.8117 19.0682 21.9541C19.0682 24.0966 20.7093 25.8333 22.7337 25.8333C23.4986 25.8333 24.2078 25.584 24.7953 25.1599V25.6298H26.8752V18.2781H24.7953ZM24.789 21.9542C24.789 22.9988 23.9452 23.8457 22.9044 23.8457C21.8636 23.8457 21.0199 22.9988 21.0199 21.9542C21.0199 20.9095 21.8636 20.0628 22.9044 20.0628C23.9452 20.0628 24.789 20.9095 24.789 21.9542ZM46.7371 18.7484V18.2781H48.8169V25.6298H46.7371V25.1599C46.1495 25.584 45.4403 25.8333 44.6754 25.8333C42.651 25.8333 41.0099 24.0966 41.0099 21.9541C41.0099 19.8117 42.651 18.0749 44.6754 18.0749C45.4403 18.0749 46.1495 18.3242 46.7371 18.7484ZM44.8461 23.8457C45.887 23.8457 46.7306 22.9988 46.7306 21.9542C46.7306 20.9095 45.887 20.0628 44.8461 20.0628C43.8053 20.0628 42.9616 20.9095 42.9616 21.9542C42.9616 22.9988 43.8053 23.8457 44.8461 23.8457ZM49.7195 24.4036C49.7195 23.6407 50.3038 23.0223 51.0246 23.0223C51.7454 23.0223 52.3298 23.6407 52.3298 24.4036C52.3298 25.1663 51.7454 25.7848 51.0246 25.7848C50.3038 25.7848 49.7195 25.1663 49.7195 24.4036ZM37.3141 18.0804C36.4832 18.0804 35.697 18.3534 35.1713 19.1065V18.2786H33.1004V25.6298H35.1967V21.7665C35.1967 20.6485 35.9051 20.1011 36.758 20.1011C37.6721 20.1011 38.1975 20.679 38.1975 21.7513V25.6298H40.2749V20.9547C40.2749 19.2439 38.9896 18.0804 37.3141 18.0804ZM30.0925 18.2783V19.2358C30.5095 18.6614 31.2863 18.2787 32.1309 18.2787V20.4179C32.127 20.4179 32.1231 20.4176 32.1193 20.4174C32.115 20.4172 32.1107 20.4169 32.1062 20.4169C31.2833 20.4169 30.0973 21.0394 30.0973 22.1974V25.6298H27.9632V18.2783H30.0925Z" fill="#17120F"/>
<rect x="0.5" y="0.5" width="57" height="39" rx="5.5" stroke="#EEF2F6"/>
</svg>
