<svg width="28" height="20" viewBox="0 0 28 20" fill="none" xmlns="http://www.w3.org/2000/svg">
<rect x="0.5" y="0.5" width="27" height="19" rx="3.5" fill="white"/>
<path fill-rule="evenodd" clip-rule="evenodd" d="M20.5881 10C20.5881 13.6819 17.6384 16.6667 13.9999 16.6667C10.3613 16.6667 7.41162 13.6819 7.41162 10C7.41162 6.31811 10.3613 3.33334 13.9999 3.33334C17.6384 3.33334 20.5881 6.31811 20.5881 10ZM12.2115 10.495L13.1402 6.96984H15.1531L14.4564 9.71172L15.3855 9.32008L15.1531 10.1816L14.224 10.495L13.7596 12.2185H17.0886L16.7789 13.4717H11.437L11.9791 11.3566L11.205 11.67L11.437 10.8084L12.2115 10.495Z" fill="#A5A8A9"/>
<rect x="0.5" y="0.5" width="27" height="19" rx="3.5" stroke="#EEF2F6"/>
</svg>
