<svg width="46" height="32" viewBox="0 0 46 32" fill="none" xmlns="http://www.w3.org/2000/svg">
<rect x="0.5" y="0.5" width="45" height="31" rx="3.5" fill="white"/>
<path d="M25.6768 15.6077C25.6768 20.5456 21.7197 24.5487 16.8384 24.5487C11.9571 24.5487 8 20.5456 8 15.6077C8 10.6697 11.9571 6.66666 16.8384 6.66666C21.7197 6.66666 25.6768 10.6697 25.6768 15.6077Z" fill="#ED0006"/>
<path d="M37.1426 15.6077C37.1426 20.5456 33.1855 24.5487 28.3042 24.5487C23.4229 24.5487 19.4658 20.5456 19.4658 15.6077C19.4658 10.6697 23.4229 6.66666 28.3042 6.66666C33.1855 6.66666 37.1426 10.6697 37.1426 15.6077Z" fill="#0099DF"/>
<path fill-rule="evenodd" clip-rule="evenodd" d="M22.5717 8.80258C24.472 10.4425 25.677 12.8827 25.677 15.6077C25.677 18.3326 24.472 20.7728 22.5717 22.4128C20.6713 20.7728 19.4663 18.3326 19.4663 15.6077C19.4663 12.8827 20.6713 10.4425 22.5717 8.80258Z" fill="#6C6BBD"/>
<rect x="0.5" y="0.5" width="45" height="31" rx="3.5" stroke="#EEF2F6"/>
</svg>
