<svg width="28" height="20" viewBox="0 0 28 20" fill="none" xmlns="http://www.w3.org/2000/svg">
<rect x="0.5" y="0.5" width="27" height="19" rx="3.5" fill="white"/>
<path d="M15.8594 9.75479C15.8594 12.841 13.4154 15.3429 10.4004 15.3429C7.38549 15.3429 4.94141 12.841 4.94141 9.75479C4.94141 6.66855 7.38549 4.16666 10.4004 4.16666C13.4154 4.16666 15.8594 6.66855 15.8594 9.75479Z" fill="#ED0006"/>
<path d="M22.9415 9.75479C22.9415 12.841 20.4974 15.3429 17.4825 15.3429C14.4675 15.3429 12.0234 12.841 12.0234 9.75479C12.0234 6.66855 14.4675 4.16666 17.4825 4.16666C20.4974 4.16666 22.9415 6.66855 22.9415 9.75479Z" fill="#0099DF"/>
<path fill-rule="evenodd" clip-rule="evenodd" d="M13.9414 5.50162C15.1152 6.52658 15.8595 8.05172 15.8595 9.7548C15.8595 11.4579 15.1152 12.983 13.9414 14.008C12.7677 12.983 12.0234 11.4579 12.0234 9.7548C12.0234 8.05172 12.7677 6.52658 13.9414 5.50162Z" fill="#6C6BBD"/>
<rect x="0.5" y="0.5" width="27" height="19" rx="3.5" stroke="#EEF2F6"/>
</svg>
