<svg width="58" height="40" viewBox="0 0 58 40" fill="none" xmlns="http://www.w3.org/2000/svg">
<rect x="0.5" y="0.5" width="57" height="39" rx="5.5" fill="white"/>
<path fill-rule="evenodd" clip-rule="evenodd" d="M6.6665 24.0104C6.69536 23.8553 6.72178 23.7052 6.74768 23.558L6.74769 23.5579L6.74769 23.5579C6.78772 23.3304 6.82651 23.11 6.8711 22.8895C7.05996 21.8924 7.25012 20.8966 7.44029 19.9008L7.44029 19.9008L7.4403 19.9008L7.4403 19.9007L7.44031 19.9007L7.44032 19.9007C7.63049 18.9048 7.82066 17.909 8.00952 16.9118C8.03575 16.7855 8.07248 16.7013 8.19839 16.6803C9.17942 16.5329 10.1657 16.4277 11.1467 16.675C12.0019 16.8855 12.5999 17.4906 12.6996 18.201C12.9042 19.6165 12.0806 20.7479 10.8582 21.1531C10.2129 21.3635 9.55714 21.4162 8.89088 21.353C8.7335 21.3372 8.68628 21.3793 8.66005 21.5319C8.5184 22.3054 8.37151 23.0737 8.21937 23.842C8.20888 23.9051 8.15117 24.0051 8.11445 24.0051C7.75792 24.013 7.40724 24.012 7.04276 24.011H7.04275H7.04275H7.04274H7.04274H7.04273C6.91917 24.0107 6.79401 24.0104 6.6665 24.0104ZM8.92236 20.1006C9.02493 20.1006 9.12426 20.1033 9.22105 20.106C9.42625 20.1116 9.62003 20.1168 9.80896 20.0954C10.3546 20.0375 10.79 19.7902 11.0366 19.2692C11.3146 18.6799 11.1153 18.0537 10.5906 17.8695C10.2182 17.738 9.83519 17.7643 9.45222 17.8169C9.40501 17.8222 9.34205 17.8958 9.33156 17.9432C9.25818 18.3289 9.1848 18.7162 9.10866 19.1181L9.10866 19.1181L8.92236 20.1006ZM15.968 23C15.885 23.0866 15.8072 23.1738 15.7312 23.2589C15.5671 23.4428 15.4112 23.6175 15.2283 23.7578C14.6774 24.184 14.0479 24.2787 13.4131 23.9841C12.7836 23.6946 12.5265 23.1316 12.5003 22.4686C12.4426 21.0741 12.9304 19.9217 14.1003 19.1219C14.8348 18.6167 15.6794 18.4641 16.5556 18.5115C16.8454 18.5286 17.1329 18.579 17.4212 18.6296C17.5765 18.6568 17.732 18.6841 17.8881 18.7062C18.0665 18.7325 18.0927 18.8325 18.0612 18.9851C18.0193 19.2041 17.9769 19.4229 17.9346 19.6415L17.9344 19.6425L17.9342 19.6433L17.9341 19.644L17.934 19.6446C17.7751 20.4651 17.6165 21.2837 17.4841 22.1055C17.4082 22.576 17.3779 23.0579 17.3479 23.535L17.3479 23.5353L17.3479 23.5357C17.3426 23.6187 17.3374 23.7015 17.332 23.7841C17.3215 23.9525 17.2795 24.0209 17.1064 24.0156C16.7811 24.0051 16.4559 24.0051 16.1306 24.0156C15.9627 24.0209 15.905 23.9577 15.9208 23.7946C15.9357 23.6143 15.9454 23.4287 15.9554 23.2358L15.9554 23.2354L15.9555 23.2333C15.9595 23.1567 15.9635 23.079 15.968 23ZM16.3352 19.748C15.8263 19.606 15.4014 19.7059 15.0447 20.0059C14.3732 20.5742 14.0689 21.3109 14.1266 22.1896C14.1423 22.458 14.2472 22.7158 14.5305 22.8316C14.8138 22.9474 15.0709 22.8632 15.2912 22.6737C15.4224 22.558 15.5483 22.4264 15.6427 22.2791C16.0128 21.7126 16.1138 21.0736 16.2165 20.4245L16.2165 20.4244C16.2521 20.1993 16.2879 19.973 16.3352 19.748ZM23.769 22.6948C24.0576 23.621 24.8497 24.1366 26.24 24.1366C27.1948 24.1103 28.1443 23.5683 28.7371 22.4528C29.0519 21.8529 29.1673 21.2109 29.1254 20.5374C29.0886 19.8901 28.8316 19.3429 28.307 18.9535C27.7561 18.543 27.1266 18.4589 26.4551 18.5325C24.2097 18.7851 23.2916 21.1688 23.769 22.6948ZM25.263 21.9221V21.922V21.922V21.9219V21.9218C25.2636 21.895 25.2642 21.8684 25.2642 21.8424C25.2799 21.2372 25.4268 20.6742 25.7888 20.1743C25.9514 19.9533 26.156 19.7849 26.4288 19.7217C26.9849 19.5955 27.4413 19.9164 27.4938 20.5216C27.5568 21.2635 27.3784 21.9476 26.9115 22.5422C26.7331 22.7632 26.5075 22.9158 26.219 22.9421C25.6996 22.9895 25.3062 22.6369 25.2642 22.0844C25.2607 22.0316 25.2619 21.9764 25.263 21.9221ZM30.374 18.643H31.7065C31.6855 18.9272 31.6645 19.2008 31.6383 19.4797C31.6869 19.4344 31.7338 19.3895 31.7799 19.3456L31.7799 19.3455L31.78 19.3455L31.78 19.3455L31.78 19.3455C31.8782 19.2518 31.9721 19.1621 32.0685 19.0798C32.5879 18.6273 33.1807 18.4273 33.8679 18.5378C34.4345 18.6325 34.828 19.0482 34.8909 19.6323C34.9593 20.2401 34.8457 20.8296 34.7323 21.4178L34.7073 21.5477C34.6613 21.7868 34.6158 22.0259 34.5703 22.2648L34.5701 22.2656L34.5701 22.2657L34.5701 22.2659C34.4705 22.7891 34.371 23.3115 34.2666 23.8314C34.2509 23.8999 34.1722 23.9998 34.1197 24.0051C33.6686 24.0156 33.2174 24.0104 32.7662 24.0051C32.7511 24.0051 32.736 23.9969 32.713 23.9844C32.7041 23.9796 32.694 23.9741 32.6823 23.9683C32.7662 23.5315 32.8502 23.0895 32.9289 22.6475C33.0495 21.9687 33.1649 21.2951 33.2699 20.6163C33.2908 20.5006 33.2804 20.3795 33.2646 20.2638C33.2226 19.8586 32.9236 19.6744 32.5354 19.7954C32.1577 19.9165 31.9321 20.2111 31.7485 20.5374C31.4757 21.0162 31.3812 21.5477 31.2868 22.0792C31.2632 22.2109 31.2398 22.3423 31.2164 22.4736C31.1361 22.9246 31.0562 23.3738 30.9668 23.8262C30.9511 23.8946 30.8724 23.9998 30.8199 24.0051C30.452 24.0177 30.0808 24.0169 29.685 24.0161C29.5841 24.0158 29.4816 24.0156 29.3772 24.0156C29.7235 22.2055 30.0487 20.4321 30.374 18.643ZM37.9389 22.9106C37.3828 22.8422 37.0103 22.4528 37.0471 21.9055C37.1631 21.9055 37.2785 21.9073 37.3933 21.9091C37.6212 21.9126 37.8468 21.916 38.0701 21.9055C38.6104 21.874 39.1403 21.7845 39.6334 21.5372C40.263 21.2215 40.5567 20.7005 40.5095 20.0217C40.4623 19.3324 40.0898 18.8325 39.4236 18.6325C38.4268 18.3326 37.5087 18.5431 36.727 19.2113C35.7775 20.0217 35.4208 21.0952 35.5572 22.3212C35.6516 23.1895 36.1237 23.8104 36.9841 24.0314C37.9074 24.2682 38.815 24.1419 39.6911 23.7841C39.7541 23.7578 39.8275 23.6578 39.8223 23.5947C39.8097 23.3378 39.7837 23.081 39.7576 22.8242C39.7511 22.76 39.7446 22.6959 39.7383 22.6317C39.7211 22.6317 39.7083 22.6308 39.6985 22.6301C39.6843 22.6291 39.6763 22.6286 39.6701 22.6317C39.6124 22.6527 39.5547 22.6738 39.5023 22.6948C38.9986 22.8895 38.4793 22.9737 37.9389 22.9106ZM38.752 20.5794C38.432 20.7478 37.6031 20.8478 37.1992 20.7636C37.2831 20.0638 38.0228 19.5165 38.6471 19.6691C38.8569 19.7217 39.0091 19.8322 39.0458 20.0585C39.0825 20.2795 38.9724 20.4637 38.752 20.5794ZM42.288 21.9266C42.2408 22.4423 42.608 22.837 43.1694 22.9106C43.694 22.9738 44.1976 22.8948 44.6908 22.7159C44.7362 22.6988 44.7801 22.6817 44.8283 22.663C44.8692 22.6471 44.9131 22.63 44.9636 22.6107C44.9738 22.7222 44.9852 22.8314 44.9964 22.9391C45.0196 23.1619 45.0422 23.3783 45.0528 23.5947C45.058 23.6578 44.9846 23.7578 44.9269 23.7841C44.035 24.1525 43.1169 24.2788 42.1779 24.0209C41.3332 23.7894 40.8925 23.1737 40.7876 22.3318C40.6565 21.2531 40.9345 20.2796 41.6847 19.4798C42.4926 18.622 43.4842 18.3168 44.6278 18.6326C45.3256 18.8273 45.698 19.3324 45.74 20.0428C45.782 20.7374 45.4672 21.2583 44.8114 21.5635C44.1504 21.8687 43.4474 21.9161 42.734 21.9319C42.5923 21.9266 42.4454 21.9266 42.288 21.9266ZM42.4402 20.8058C42.5356 20.7998 42.6294 20.7951 42.7218 20.7905C42.9544 20.7788 43.1787 20.7675 43.4002 20.7374C43.6101 20.7111 43.8199 20.6479 44.0088 20.5585C44.2134 20.469 44.3131 20.2796 44.2816 20.0481C44.2501 19.8271 44.1032 19.7218 43.8986 19.6692C43.2796 19.5008 42.5084 20.0691 42.4402 20.8058ZM46.0285 22.9106C45.9603 23.2684 45.8973 23.621 45.8291 24.0104C45.9342 24.0104 46.0378 24.0106 46.1401 24.0108C46.5438 24.0116 46.9288 24.0124 47.3138 23.9998C47.3505 23.9998 47.4082 23.8999 47.4187 23.8367C47.4722 23.5739 47.5219 23.3098 47.5715 23.0458C47.6629 22.5591 47.7543 22.0726 47.8699 21.5951C48.127 20.5321 48.5624 20.1638 49.5959 20.027C49.6379 20.0217 49.7061 19.9743 49.7165 19.9375C49.7824 19.6351 49.8414 19.3304 49.9026 19.0143C49.934 18.8518 49.966 18.6864 49.9998 18.5168C49.0031 18.4115 48.447 18.9903 47.9643 19.7007L47.972 19.5987C47.9957 19.2843 48.0199 18.9643 48.0483 18.6273C47.9392 18.6273 47.8322 18.6269 47.7266 18.6266C47.4159 18.6256 47.1183 18.6247 46.8207 18.6325C46.7787 18.6378 46.7 18.7325 46.6948 18.7904C46.5828 20.1428 46.3179 21.4656 46.0531 22.7875C46.0449 22.8285 46.0367 22.8695 46.0285 22.9106Z" fill="#222222"/>
<path fill-rule="evenodd" clip-rule="evenodd" d="M32.1389 12.2948C32.0858 12.2808 32.0326 12.2667 31.9795 12.2549C31.8169 12.2549 31.6543 12.2549 31.4811 12.2601C31.422 12.272 31.3629 12.2849 31.3033 12.298C31.2306 12.3139 31.1573 12.3299 31.0824 12.3443C30.2798 12.4969 29.5243 12.7758 28.7951 13.1442C27.216 13.944 25.7995 14.9806 24.53 16.2067C23.6853 17.0171 22.8669 17.8643 22.0747 18.7325C20.6845 20.2585 19.4936 21.9371 18.5441 23.7788C18.0562 24.7313 17.6155 25.7048 17.4161 26.7624C17.3794 26.9571 17.4424 27.1834 17.5053 27.3781C17.5316 27.457 17.6785 27.5149 17.7781 27.5465C17.8044 27.557 17.8831 27.4255 17.9198 27.3518C17.9328 27.3233 17.9462 27.294 17.9598 27.2641C18.1876 26.765 18.4957 26.0901 18.763 25.6432C19.3296 24.6961 19.7769 23.963 20.4117 23.0632C21.4295 21.6161 22.6187 20.1963 23.8672 18.9439C25.0476 17.76 26.2297 16.7013 27.7144 15.9015C28.3964 15.5384 29.0941 15.1806 29.8076 14.8859C31.0405 14.3755 32.3258 14.0282 33.6478 13.8335C33.7894 13.8125 33.9783 13.702 34.0255 13.5862C34.0675 13.4809 33.9678 13.281 33.8681 13.181C33.4642 12.7653 32.992 12.4496 32.4045 12.3549C32.3159 12.3417 32.2274 12.3183 32.1389 12.2948ZM20.1284 19.4745C20.3802 18.7904 20.5062 18.08 20.5219 17.3433C20.5149 17.2644 20.5091 17.1855 20.5032 17.1065C20.4916 16.9487 20.4799 16.7908 20.4589 16.6329C20.3173 15.4121 19.7927 14.3755 18.9585 13.4862C18.8589 13.3862 18.7225 13.3073 18.5861 13.2599C18.4497 13.2073 18.3605 13.2862 18.371 13.4441C18.3712 13.4474 18.3715 13.4508 18.3717 13.4541C18.382 13.5878 18.3926 13.7263 18.4182 13.8598C18.455 14.0701 18.4916 14.2806 18.5283 14.4913C18.6585 15.2401 18.789 15.9907 18.9323 16.7382C19.074 17.4907 19.2313 18.2379 19.3992 18.9798C19.4569 19.2166 19.5514 19.4534 19.6668 19.6744C19.756 19.8428 19.8819 19.827 19.9973 19.6744C20.0497 19.6113 20.1022 19.5481 20.1284 19.4745Z" fill="#FC461E"/>
<rect x="0.5" y="0.5" width="57" height="39" rx="5.5" stroke="#EEF2F6"/>
</svg>
