<svg width="46" height="32" viewBox="0 0 46 32" fill="none" xmlns="http://www.w3.org/2000/svg">
<rect x="0.5" y="0.5" width="45" height="31" rx="3.5" fill="white"/>
<path fill-rule="evenodd" clip-rule="evenodd" d="M5.3335 19.2082C5.35658 19.0842 5.37772 18.9641 5.39844 18.8463C5.43047 18.6643 5.4615 18.4879 5.49718 18.3116C5.64825 17.5139 5.80038 16.7173 5.95251 15.9207L5.95251 15.9207L5.95252 15.9206L5.95252 15.9206L5.95253 15.9206L5.95255 15.9205C6.10468 15.1238 6.25682 14.3271 6.40791 13.5294C6.4289 13.4284 6.45828 13.361 6.559 13.3442C7.34383 13.2263 8.13285 13.1421 8.91768 13.34C9.60178 13.5084 10.0802 13.9925 10.16 14.5608C10.3237 15.6932 9.66473 16.5982 8.68685 16.9224C8.17063 17.0908 7.64601 17.1329 7.113 17.0824C6.98709 17.0697 6.94932 17.1034 6.92833 17.2255C6.81501 17.8443 6.6975 18.4589 6.57579 19.0735C6.5674 19.124 6.52123 19.204 6.49185 19.204C6.20666 19.2103 5.92615 19.2096 5.6346 19.2088H5.63457H5.63455H5.63452H5.63449H5.63446L5.63404 19.2088C5.53533 19.2085 5.43535 19.2082 5.3335 19.2082ZM7.37711 16.0847L7.37713 16.0847H7.37713C7.5413 16.0892 7.69632 16.0934 7.84746 16.0762C8.28394 16.0299 8.63229 15.8321 8.82955 15.4153C9.05198 14.9438 8.8925 14.4429 8.47281 14.2956C8.17482 14.1903 7.86845 14.2114 7.56207 14.2535C7.5243 14.2577 7.47394 14.3166 7.46554 14.3545C7.40683 14.6631 7.34812 14.9729 7.28721 15.2945L7.13818 16.0805C7.22022 16.0805 7.29968 16.0826 7.37711 16.0847ZM12.7747 18.4C12.7083 18.4693 12.6461 18.539 12.5853 18.6071C12.454 18.7542 12.3292 18.894 12.1829 19.0062C11.7422 19.3472 11.2386 19.4229 10.7308 19.1872C10.2271 18.9557 10.0215 18.5052 10.0005 17.9748C9.95433 16.8592 10.3446 15.9373 11.2806 15.2975C11.8681 14.8933 12.5438 14.7713 13.2447 14.8091C13.4766 14.8228 13.7066 14.8632 13.9373 14.9036L13.9373 14.9036C14.0615 14.9254 14.1859 14.9472 14.3108 14.9649C14.4535 14.986 14.4744 15.0659 14.4493 15.188C14.4156 15.3636 14.3817 15.5391 14.3477 15.7144L14.3477 15.7145L14.3475 15.7157L14.3475 15.7157L14.3475 15.7157L14.3475 15.7157L14.3475 15.7157L14.3475 15.7157C14.2203 16.3721 14.0935 17.0269 13.9876 17.6843C13.9268 18.0607 13.9026 18.4462 13.8786 18.8279L13.8786 18.8282C13.8744 18.8947 13.8702 18.9611 13.8659 19.0272C13.8575 19.1619 13.8239 19.2167 13.6854 19.2125C13.4252 19.204 13.165 19.204 12.9048 19.2125C12.7705 19.2167 12.7243 19.1661 12.7369 19.0356C12.7489 18.8914 12.7566 18.7429 12.7646 18.5886C12.7678 18.5267 12.7711 18.4639 12.7747 18.4ZM13.0685 15.7984C12.6614 15.6847 12.3214 15.7647 12.036 16.0046C11.4988 16.4593 11.2554 17.0486 11.3016 17.7517C11.3141 17.9664 11.3981 18.1726 11.6247 18.2652C11.8514 18.3578 12.057 18.2905 12.2333 18.1389C12.3382 18.0463 12.4389 17.9411 12.5145 17.8232C12.8105 17.37 12.8914 16.8588 12.9735 16.3395L12.9735 16.3395L12.9735 16.3395L12.9735 16.3395L12.9735 16.3395L12.9735 16.3395C13.002 16.1594 13.0306 15.9783 13.0685 15.7984ZM19.0155 18.1558C19.2463 18.8967 19.8801 19.3093 20.9923 19.3093C21.7561 19.2882 22.5158 18.8546 22.99 17.9622C23.2418 17.4823 23.3342 16.9687 23.3006 16.4299C23.2712 15.9121 23.0656 15.4743 22.6459 15.1627C22.2052 14.8344 21.7015 14.767 21.1643 14.826C19.3681 15.028 18.6336 16.935 19.0155 18.1558ZM20.2107 17.5376L20.2107 17.5375C20.2112 17.516 20.2116 17.4947 20.2116 17.4738C20.2242 16.9897 20.3417 16.5393 20.6313 16.1394C20.7614 15.9626 20.9251 15.8279 21.1434 15.7773C21.5882 15.6763 21.9534 15.9331 21.9953 16.4172C22.0457 17.0108 21.903 17.558 21.5295 18.0337C21.3868 18.2105 21.2063 18.3326 20.9755 18.3537C20.56 18.3915 20.2452 18.1095 20.2116 17.6675C20.2088 17.6252 20.2098 17.5811 20.2107 17.5376ZM24.2995 14.9144H25.3655C25.3487 15.1417 25.3319 15.3606 25.3109 15.5837C25.3498 15.5475 25.3873 15.5116 25.4241 15.4765L25.4243 15.4764L25.4243 15.4763L25.4243 15.4763L25.4243 15.4763C25.5028 15.4014 25.578 15.3297 25.6551 15.2638C26.0706 14.9018 26.5448 14.7418 27.0946 14.8302C27.5479 14.906 27.8627 15.2385 27.913 15.7058C27.9678 16.192 27.8768 16.6636 27.7861 17.1342V17.1342L27.7661 17.2381C27.7295 17.4285 27.6932 17.619 27.657 17.8093L27.6565 17.8118C27.5768 18.2306 27.4972 18.6489 27.4136 19.0651C27.401 19.1198 27.3381 19.1998 27.2961 19.204C26.9352 19.2124 26.5742 19.2082 26.2133 19.204C26.2012 19.204 26.1891 19.1975 26.1707 19.1875C26.1636 19.1836 26.1555 19.1793 26.1461 19.1746C26.2133 18.8252 26.2804 18.4715 26.3434 18.1179C26.4399 17.5749 26.5322 17.0361 26.6162 16.493C26.633 16.4004 26.6246 16.3036 26.612 16.211C26.5784 15.8868 26.3392 15.7395 26.0286 15.8363C25.7264 15.9331 25.546 16.1689 25.3991 16.4299C25.1808 16.8129 25.1053 17.2381 25.0298 17.6633V17.6633L25.0297 17.6633C25.0108 17.7687 24.9921 17.8738 24.9734 17.9789L24.9733 17.9794C24.9091 18.34 24.8452 18.6992 24.7737 19.0609C24.7611 19.1156 24.6982 19.1998 24.6562 19.204C24.3619 19.2141 24.0649 19.2135 23.7483 19.2128H23.7483H23.7481H23.7479H23.7476C23.6671 19.2126 23.5854 19.2124 23.5021 19.2124C23.7791 17.7643 24.0393 16.3457 24.2995 14.9144ZM30.3514 18.3284C29.9065 18.2737 29.6086 17.9622 29.6379 17.5244C29.7307 17.5244 29.8231 17.5258 29.9149 17.5272H29.915C30.0973 17.53 30.2777 17.5328 30.4563 17.5244C30.8886 17.4991 31.3125 17.4275 31.707 17.2297C32.2107 16.9771 32.4457 16.5604 32.4079 16.0173C32.3701 15.4658 32.0722 15.0659 31.5392 14.906C30.7417 14.666 30.0073 14.8344 29.3819 15.369C28.6223 16.0173 28.3369 16.8761 28.446 17.8569C28.5216 18.5515 28.8993 19.0483 29.5876 19.2251C30.3262 19.4145 31.0523 19.3135 31.7532 19.0272C31.8036 19.0062 31.8623 18.9262 31.8581 18.8757C31.848 18.6703 31.8272 18.4648 31.8064 18.2594C31.8012 18.208 31.796 18.1567 31.791 18.1053C31.7856 18.1053 31.7807 18.1052 31.7764 18.105C31.7695 18.1048 31.7639 18.1044 31.7591 18.104C31.7478 18.1033 31.7414 18.1028 31.7364 18.1053C31.6902 18.1221 31.6441 18.139 31.6021 18.1558C31.1992 18.3116 30.7837 18.3789 30.3514 18.3284ZM31.0019 16.4635C30.7459 16.5982 30.0828 16.6782 29.7596 16.6108C29.8268 16.051 30.4185 15.6132 30.918 15.7352C31.0858 15.7773 31.2076 15.8657 31.2369 16.0468C31.2663 16.2236 31.1782 16.3709 31.0019 16.4635ZM33.8307 17.5412C33.7929 17.9538 34.0867 18.2695 34.5358 18.3285C34.9555 18.379 35.3584 18.3158 35.7529 18.1727C35.7893 18.159 35.8244 18.1454 35.8629 18.1303L35.863 18.1303C35.8957 18.1176 35.9308 18.1039 35.9712 18.0885C35.9794 18.1777 35.9885 18.265 35.9974 18.3512L35.9974 18.3513C36.016 18.5295 36.034 18.7026 36.0425 18.8757C36.0467 18.9262 35.9879 19.0062 35.9418 19.0273C35.2283 19.3219 34.4938 19.423 33.7426 19.2167C33.0669 19.0315 32.7143 18.5389 32.6304 17.8654C32.5255 17.0024 32.7479 16.2236 33.3481 15.5838C33.9944 14.8976 34.7876 14.6534 35.7025 14.906C36.2607 15.0618 36.5587 15.4659 36.5923 16.0342C36.6259 16.5899 36.3741 17.0066 35.8494 17.2508C35.3206 17.4949 34.7582 17.5328 34.1875 17.5455C34.0741 17.5412 33.9566 17.5412 33.8307 17.5412ZM33.9524 16.6446C34.0288 16.6398 34.1038 16.636 34.1777 16.6323C34.3638 16.623 34.5432 16.614 34.7205 16.5899C34.8883 16.5688 35.0562 16.5183 35.2073 16.4467C35.371 16.3752 35.4507 16.2236 35.4256 16.0384C35.4004 15.8616 35.2829 15.7774 35.1192 15.7353C34.6239 15.6006 34.007 16.0552 33.9524 16.6446ZM36.8231 18.3284C36.7685 18.6147 36.7182 18.8967 36.6636 19.2082C36.7477 19.2082 36.8305 19.2084 36.9124 19.2086C37.2353 19.2093 37.5433 19.2099 37.8513 19.1998C37.8807 19.1998 37.9269 19.1198 37.9353 19.0693C37.9781 18.8591 38.0178 18.6478 38.0575 18.4366C38.1306 18.0472 38.2037 17.6581 38.2962 17.276C38.5019 16.4257 38.8502 16.131 39.677 16.0215C39.7106 16.0173 39.7651 15.9794 39.7735 15.95C39.8262 15.708 39.8734 15.4643 39.9223 15.2114C39.9475 15.0814 39.9731 14.9491 40.0002 14.8134C39.2028 14.7292 38.7579 15.1922 38.3718 15.7605L38.3779 15.6789C38.3969 15.4274 38.4162 15.1714 38.4389 14.9018C38.3517 14.9018 38.266 14.9015 38.1816 14.9012C37.933 14.9004 37.6949 14.8997 37.4568 14.906C37.4232 14.9102 37.3603 14.9859 37.3561 15.0323C37.2665 16.1142 37.0546 17.1724 36.8428 18.2299L36.8231 18.3284Z" fill="#222222"/>
<path fill-rule="evenodd" clip-rule="evenodd" d="M25.7112 9.8358C25.6687 9.82455 25.6262 9.8133 25.5837 9.80383C25.4536 9.80383 25.3235 9.80383 25.185 9.80804C25.1377 9.81753 25.0904 9.82788 25.0427 9.83831C24.9846 9.85101 24.926 9.86384 24.866 9.8754C24.2239 9.99748 23.6195 10.2206 23.0362 10.5153C21.7729 11.1551 20.6397 11.9844 19.6241 12.9653C18.9484 13.6136 18.2936 14.2913 17.6599 14.9859C16.5477 16.2067 15.595 17.5496 14.8354 19.023C14.445 19.7849 14.0925 20.5637 13.933 21.4099C13.9036 21.5656 13.954 21.7466 14.0044 21.9024C14.0253 21.9655 14.1429 22.0119 14.2226 22.0371C14.2436 22.0455 14.3065 21.9403 14.3359 21.8814C14.3464 21.8585 14.357 21.8351 14.3679 21.8112C14.5502 21.4119 14.7967 20.872 15.0105 20.5145C15.4638 19.7568 15.8216 19.1703 16.3295 18.4505C17.1437 17.2928 18.095 16.157 19.0939 15.1551C20.0382 14.2079 20.9839 13.361 22.1716 12.7211C22.7172 12.4307 23.2754 12.1444 23.8462 11.9087C24.8325 11.5003 25.8607 11.2225 26.9183 11.0667C27.0317 11.0499 27.1827 10.9615 27.2205 10.8689C27.2541 10.7847 27.1743 10.6247 27.0946 10.5447C26.7714 10.2122 26.3937 9.95959 25.9237 9.88382C25.8528 9.87329 25.782 9.85455 25.7112 9.8358ZM16.1028 15.5795C16.3043 15.0322 16.405 14.4639 16.4176 13.8746C16.412 13.8114 16.4074 13.7483 16.4027 13.6851C16.3934 13.5589 16.384 13.4326 16.3673 13.3063C16.2539 12.3296 15.8342 11.5003 15.1669 10.7889C15.0872 10.7089 14.9781 10.6458 14.8689 10.6079C14.7598 10.5658 14.6885 10.6289 14.6969 10.7552C14.6971 10.7579 14.6973 10.7605 14.6975 10.7632C14.7057 10.8702 14.7142 10.981 14.7346 11.0878C14.7641 11.256 14.7934 11.4244 14.8227 11.593C14.9269 12.192 15.0313 12.7925 15.1459 13.3905C15.2593 13.9924 15.3852 14.5902 15.5195 15.1838C15.5656 15.3732 15.6412 15.5627 15.7335 15.7395C15.8049 15.8742 15.9056 15.8615 15.9979 15.7395L15.9979 15.7395C16.0399 15.6889 16.0819 15.6384 16.1028 15.5795Z" fill="#FC461E"/>
<rect x="0.5" y="0.5" width="45" height="31" rx="3.5" stroke="#EEF2F6"/>
</svg>
