<svg width="28" height="20" viewBox="0 0 28 20" fill="none" xmlns="http://www.w3.org/2000/svg">
<rect x="0.5" y="0.5" width="27" height="19" rx="3.5" fill="white"/>
<path fill-rule="evenodd" clip-rule="evenodd" d="M12.0352 15.3735L12.2169 14.166L11.812 14.1561H9.87842L11.2222 5.24473C11.2264 5.21774 11.2399 5.19269 11.2597 5.17487C11.2795 5.15705 11.3049 5.14728 11.3313 5.14728H14.5917C15.6741 5.14728 16.4211 5.38281 16.811 5.84776C16.9939 6.06588 17.1103 6.29387 17.1667 6.54468C17.2258 6.8079 17.2268 7.12235 17.1691 7.50594L17.1649 7.53384V7.77966L17.3478 7.888C17.5017 7.97344 17.6241 8.07119 17.7179 8.1831C17.8743 8.36965 17.9755 8.60671 18.0182 8.88766C18.0624 9.17665 18.0478 9.52063 17.9755 9.91002C17.892 10.3579 17.7572 10.748 17.575 11.0671C17.4076 11.3612 17.1941 11.6052 16.9407 11.7942C16.6988 11.9738 16.4114 12.1101 16.0864 12.1974C15.7714 12.2831 15.4123 12.3264 15.0185 12.3264H14.7648C14.5834 12.3264 14.4072 12.3947 14.2688 12.5172C14.1301 12.6423 14.0384 12.8132 14.0102 13L13.9911 13.1088L13.6699 15.2373L13.6554 15.3154C13.6515 15.3401 13.6448 15.3525 13.6351 15.3608C13.6264 15.3685 13.614 15.3735 13.6018 15.3735H12.0352" fill="#28356A"/>
<path fill-rule="evenodd" clip-rule="evenodd" d="M17.5208 7.56226C17.5112 7.62732 17.5 7.69382 17.4875 7.76215C17.0576 10.071 15.5865 10.8686 13.7079 10.8686H12.7513C12.5215 10.8686 12.3279 11.0431 12.2921 11.2801L11.6637 15.4495C11.6404 15.6052 11.7551 15.7454 11.9052 15.7454H13.6018C13.8027 15.7454 13.9734 15.5928 14.005 15.3856L14.0216 15.2954L14.3411 13.1753L14.3616 13.059C14.3929 12.851 14.5639 12.6983 14.7648 12.6983H15.0185C16.6623 12.6983 17.9491 12.0004 18.3252 9.98049C18.4823 9.13673 18.401 8.43218 17.9852 7.93668C17.8594 7.7873 17.7034 7.66327 17.5208 7.56226" fill="#298FC2"/>
<path fill-rule="evenodd" clip-rule="evenodd" d="M17.071 7.37472C17.0053 7.35466 16.9375 7.33653 16.868 7.32014C16.7981 7.30415 16.7265 7.28999 16.6528 7.27757C16.3949 7.23399 16.1123 7.21332 15.8096 7.21332H13.2541C13.1911 7.21332 13.1313 7.22818 13.0779 7.25507C12.96 7.31433 12.8725 7.43103 12.8512 7.57389L12.3076 11.1752L12.292 11.2802C12.3277 11.0431 12.5214 10.8687 12.7511 10.8687H13.7077C15.5864 10.8687 17.0574 10.0706 17.4874 7.76218C17.5002 7.69385 17.511 7.62735 17.5207 7.56229C17.4119 7.5019 17.2941 7.45027 17.1673 7.40628C17.1359 7.39539 17.1036 7.3849 17.071 7.37472" fill="#22284F"/>
<path fill-rule="evenodd" clip-rule="evenodd" d="M12.8515 7.57389C12.8727 7.43103 12.9602 7.31433 13.0781 7.25547C13.132 7.22849 13.1914 7.21362 13.2543 7.21362H15.8098C16.1125 7.21362 16.3951 7.2344 16.653 7.27798C16.7267 7.2903 16.7983 7.30456 16.8682 7.32054C16.9377 7.33684 17.0055 7.35506 17.0712 7.37502C17.1038 7.3852 17.1361 7.39579 17.1678 7.40628C17.2946 7.45027 17.4125 7.50231 17.5213 7.56228C17.6492 6.70906 17.5202 6.12813 17.0792 5.60208C16.5929 5.02288 15.7153 4.77502 14.5922 4.77502H11.3318C11.1024 4.77502 10.9067 4.94946 10.8712 5.18692L9.51324 14.1899C9.48647 14.368 9.61781 14.5287 9.78955 14.5287H11.8024L12.8515 7.57389" fill="#28356A"/>
<rect x="0.5" y="0.5" width="27" height="19" rx="3.5" stroke="#EEF2F6"/>
</svg>
