<svg width="28" height="20" viewBox="0 0 28 20" fill="none" xmlns="http://www.w3.org/2000/svg">
<rect x="0.5" y="0.5" width="27" height="19" rx="3.5" fill="white"/>
<path d="M24.0926 8.72862C24.4313 8.72862 24.7058 8.45084 24.7058 8.10818C24.7058 7.76551 24.4313 7.48773 24.0926 7.48773C23.754 7.48773 23.4795 7.76551 23.4795 8.10818C23.4795 8.45084 23.754 8.72862 24.0926 8.72862Z" fill="#7887E6"/>
<path d="M24.0926 10.671C24.4313 10.671 24.7058 10.3932 24.7058 10.0506C24.7058 9.7079 24.4313 9.43011 24.0926 9.43011C23.754 9.43011 23.4795 9.7079 23.4795 10.0506C23.4795 10.3932 23.754 10.671 24.0926 10.671Z" fill="#FF5073"/>
<path fill-rule="evenodd" clip-rule="evenodd" d="M4.85499 9.09694H4.26006V10.5998H3.29395V6.4861H4.85499C5.78593 6.4861 6.22789 7.03451 6.22789 7.76172C6.22789 8.60213 5.63847 9.09694 4.85499 9.09694ZM4.71007 7.20131H4.26006V8.38131H4.74905C5.08719 8.38131 5.30965 8.15491 5.28974 7.74757C5.27448 7.43928 5.01516 7.20131 4.71007 7.20131ZM8.89318 10.5994H7.95037H7.94995V10.4643C7.76181 10.584 7.51562 10.6706 7.28892 10.6706C6.71434 10.6706 6.27747 10.2324 6.27747 9.71053C6.27747 9.17627 6.6512 8.59784 7.95037 8.69132V8.4885C7.95037 8.25611 7.75588 8.1785 7.53808 8.1785C7.23172 8.1785 6.87239 8.31571 6.70162 8.39332L6.4423 7.85091C6.72493 7.67211 7.18468 7.4873 7.76774 7.4873C8.46309 7.4873 8.89318 7.79731 8.89318 8.48293V10.5994ZM7.21943 9.69338C7.21943 9.91377 7.37875 10.051 7.61435 10.051C7.76181 10.051 7.89741 9.99738 7.98512 9.93178V9.29375C7.41435 9.19813 7.21943 9.44297 7.21943 9.69338ZM18.2713 7.55891V7.43371C18.2713 6.7125 18.6717 6.2417 19.4319 6.2417C19.6031 6.2417 19.7501 6.26571 19.8798 6.3013V6.98049C19.8035 6.9569 19.6917 6.93889 19.6031 6.93889C19.3141 6.93889 19.2082 7.1297 19.2082 7.39812V7.55891H19.8561V8.20894H19.2082V10.5994H18.2713V8.20894H17.7704V7.55891H18.2713ZM15.0496 7.85134C15.3323 7.67254 15.792 7.48773 16.3751 7.48773C17.0704 7.48773 17.5005 7.79774 17.5001 8.48293V10.5994H16.5573V10.4647C16.3691 10.5844 16.123 10.671 15.8963 10.671C15.3217 10.671 14.8848 10.2328 14.8848 9.71096C14.8848 9.1767 15.2585 8.59827 16.5577 8.69175V8.48893C16.5577 8.25653 16.3632 8.17893 16.1454 8.17893C15.8391 8.17893 15.4797 8.31614 15.309 8.39374L15.0496 7.85134ZM16.1865 10.051C16.334 10.051 16.4691 9.99738 16.5577 9.93178H16.5573V9.29375C15.9865 9.19813 15.7916 9.44297 15.7916 9.69338C15.7916 9.91377 15.9509 10.051 16.1865 10.051ZM12.2449 7.55934L10.7224 11.4527H9.8254L10.222 10.4566L8.95123 7.55934H9.91608L10.6602 9.37608L11.3085 7.55934H12.2449ZM22.8667 9.03263V9.27017V9.27103H20.9133C20.9281 9.4271 20.9675 9.55445 21.0268 9.65564C21.0273 9.65607 21.0273 9.6565 21.0277 9.65693C21.0374 9.67279 21.0476 9.68823 21.0582 9.70281C21.0646 9.71181 21.0709 9.71996 21.0777 9.72854C21.0819 9.73368 21.0862 9.73925 21.0908 9.7444C21.1023 9.75812 21.1146 9.77141 21.1273 9.78385L21.1285 9.78513C21.1599 9.81558 21.1951 9.84302 21.234 9.86703C21.2344 9.86719 21.2346 9.8673 21.2349 9.86738C21.2352 9.86752 21.2355 9.86762 21.2357 9.86789C21.2531 9.87861 21.2718 9.88847 21.2908 9.8979C21.2946 9.89962 21.298 9.90133 21.3014 9.90305C21.3129 9.90862 21.3252 9.91377 21.3374 9.91848C21.3485 9.92277 21.3595 9.92663 21.3705 9.93049L21.3955 9.93821C21.4112 9.9425 21.4268 9.94678 21.443 9.95064C21.4457 9.95129 21.4485 9.95182 21.4512 9.95236C21.454 9.95289 21.4567 9.95343 21.4595 9.95407C21.4752 9.9575 21.4908 9.96008 21.5069 9.96265L21.5088 9.96299C21.5127 9.96373 21.5165 9.96442 21.5205 9.96479C21.5404 9.96737 21.5607 9.96951 21.5811 9.9708C21.5836 9.97101 21.5861 9.97112 21.5885 9.97122C21.5909 9.97133 21.5934 9.97144 21.5959 9.97165C21.6175 9.97294 21.6391 9.9738 21.6616 9.9738C21.9175 9.9738 22.2031 9.9009 22.4849 9.73925L22.7476 10.3301C22.3319 10.6217 21.7925 10.6714 21.5201 10.6714C20.5421 10.6714 19.9294 10.057 19.9294 9.09737C19.9294 8.16135 20.5777 7.48773 21.4141 7.48773C22.2506 7.48773 22.8667 8.14119 22.8667 9.03263ZM21.915 8.76935C21.8794 8.36416 21.6735 8.15534 21.4141 8.15534C21.1548 8.15534 20.9489 8.36373 20.9133 8.76935H21.915ZM13.25 9.97937C13.5272 9.97937 13.692 9.89576 13.692 9.72896C13.692 9.55075 13.467 9.47302 13.1965 9.37959C12.789 9.23879 12.2781 9.06231 12.2784 8.45249C12.2784 7.80889 12.8437 7.48688 13.5449 7.48688C13.928 7.48688 14.3051 7.60608 14.5526 7.73128L14.2873 8.3573C14.0988 8.27411 13.8394 8.1845 13.592 8.1845C13.3564 8.1845 13.2149 8.27369 13.2149 8.4169C13.2149 8.57442 13.425 8.6455 13.6819 8.73239C14.0857 8.869 14.6051 9.0447 14.6051 9.65693C14.6051 10.313 14.0161 10.6706 13.3327 10.6706C12.9496 10.6706 12.5373 10.5814 12.1839 10.3906L12.4843 9.77656C12.6962 9.88418 12.9674 9.97937 13.25 9.97937ZM16.6264 12.6361V12.2356H16.4564V12.1233H16.9264L16.9437 12.2356H16.7831V12.6361H16.6264ZM17.4844 12.6361L17.4653 12.2648L17.4522 12.3146C17.424 12.4218 17.3959 12.5288 17.3662 12.6361H17.2285L17.1293 12.2648L17.1103 12.6361H16.97C16.9853 12.4659 16.9988 12.2939 17.0119 12.1237H17.209L17.2988 12.4873L17.2998 12.4832C17.3283 12.3628 17.3564 12.2441 17.3865 12.1237H17.5836L17.6238 12.6361H17.4844ZM3.29824 12.2742V14.5622H3.83553V13.7265H4.16647C4.60249 13.7265 4.93004 13.4512 4.93004 12.9838C4.93004 12.5791 4.68427 12.2742 4.16647 12.2742H3.29824ZM4.40927 13.0036C4.40927 13.2124 4.28808 13.3286 4.10799 13.3286H3.83596V12.6721H4.10799C4.30122 12.6721 4.40927 12.808 4.40927 13.0036ZM5.95585 14.3932L5.98551 14.5622V14.5626H6.46391V13.3856C6.46391 13.004 6.22492 12.8316 5.83805 12.8316C5.51347 12.8316 5.25796 12.9345 5.10076 13.034L5.24483 13.3359C5.33974 13.2926 5.53975 13.2162 5.71009 13.2162C5.83128 13.2162 5.93933 13.2591 5.93933 13.3886V13.5014C5.24144 13.4881 5.00881 13.7299 5.00881 14.0948C5.00881 14.4331 5.2711 14.602 5.53 14.602C5.73975 14.602 5.8639 14.4961 5.95585 14.3932ZM5.89708 13.8314C5.91062 13.833 5.92454 13.8346 5.93975 13.8358V14.1904C5.8906 14.2269 5.81517 14.2569 5.73339 14.2569C5.60246 14.2569 5.5139 14.1806 5.5139 14.0579C5.5139 13.919 5.6122 13.826 5.82195 13.826C5.84925 13.826 5.87251 13.8286 5.89704 13.8314L5.89708 13.8314ZM6.97197 15.2817L7.2474 14.5622H7.09019C7.02935 14.3685 6.96892 14.1749 6.90848 13.9813L6.90846 13.9812L6.90845 13.9812L6.90844 13.9811L6.90843 13.9811L6.90842 13.9811L6.90841 13.9811L6.9084 13.981C6.79292 13.6111 6.67745 13.2412 6.55925 12.8711H7.09019L7.4046 14.1244L7.75842 12.8711H8.27962C8.12858 13.3129 7.97958 13.7548 7.83095 14.1957C7.70853 14.5588 7.58636 14.9211 7.4635 15.2821H6.97197V15.2817ZM9.22667 12.2742V14.5622H10.6258V14.1677H9.76396V12.2742H9.22667ZM11.75 14.5622L11.7203 14.3932C11.6284 14.4961 11.5042 14.602 11.2945 14.602C11.0356 14.602 10.7733 14.4331 10.7733 14.0948C10.7733 13.7299 11.0059 13.4881 11.7038 13.5014V13.3886C11.7038 13.2591 11.5958 13.2162 11.4746 13.2162C11.3042 13.2162 11.1042 13.2926 11.0093 13.3359L10.8653 13.034C11.0225 12.9345 11.278 12.8316 11.6026 12.8316C11.9894 12.8316 12.2284 13.004 12.2284 13.3856V14.5626H11.75V14.5622ZM11.6616 13.8314L11.6615 13.8314C11.637 13.8286 11.6137 13.826 11.5864 13.826C11.3767 13.826 11.2784 13.919 11.2784 14.0579C11.2784 14.1806 11.367 14.2569 11.4979 14.2569C11.5797 14.2569 11.6551 14.2269 11.7042 14.1904V13.8358C11.689 13.8346 11.6751 13.833 11.6616 13.8314ZM12.661 14.1012C12.661 14.5424 12.9725 14.5622 13.1297 14.5622V14.563H13.5034V14.208H13.3594C13.2445 14.208 13.1822 14.1548 13.1822 13.9825V13.233H13.5034V12.8715H13.1822V12.3672L12.661 12.5495V12.8711H12.4055V13.2325H12.661V14.1012ZM15.1679 14.4361C15.0632 14.5159 14.7907 14.6021 14.5221 14.6021C13.978 14.6021 13.6373 14.2603 13.6373 13.7265C13.6373 13.2059 13.9979 12.8312 14.4632 12.8312C14.8204 12.8312 15.1742 13.0267 15.1742 13.6236V13.8225H14.1848C14.2111 14.1012 14.378 14.214 14.6009 14.214C14.7683 14.214 14.9581 14.1445 15.0204 14.1047L15.1679 14.4361ZM14.6928 13.5443C14.6928 13.3153 14.5945 13.2025 14.4568 13.2025C14.3128 13.2025 14.2047 13.3187 14.1848 13.5443H14.6928ZM15.3874 12.8711V14.5622H15.9115V13.4679C16.0035 13.3749 16.1509 13.3187 16.2886 13.3187C16.3213 13.3187 16.3899 13.3187 16.4196 13.3251V12.8312C16.1937 12.8312 15.9937 12.9705 15.8857 13.1794V12.8711H15.3874Z" fill="#2D2341"/>
<rect x="0.5" y="0.5" width="27" height="19" rx="3.5" stroke="#EEF2F6"/>
</svg>
