<svg width="46" height="32" viewBox="0 0 46 32" fill="none" xmlns="http://www.w3.org/2000/svg">
<rect x="0.5" y="0.5" width="45" height="31" rx="5.5" fill="#F884A1"/>
<path fill-rule="evenodd" clip-rule="evenodd" d="M26.3786 12.5808L27.6318 6.1575C27.7825 5.4369 27.3679 4.71075 26.6733 4.50011C25.8979 4.30056 25.1171 4.76618 24.9179 5.5533L23.7825 9.55501L22.8874 5.61428C22.8174 5.24843 22.602 4.92139 22.2951 4.71075C21.9882 4.50011 21.6058 4.42805 21.2451 4.50566C20.5343 4.66086 20.0712 5.5145 20.2489 6.29054L20.777 10.7544C20.3182 10.2836 19.7824 10.1386 19.1615 10.5089L19.0807 10.5643C18.5149 10.961 18.3998 11.7716 18.7634 12.5099C18.4624 12.5273 18.1682 12.6565 17.9445 12.8924L17.8906 12.9534C17.3683 13.5077 17.4706 14.4445 18.1222 15.1152L18.6515 15.6582C18.711 18.1684 20.6946 19.9266 23.0333 19.9266C23.061 19.9266 23.0877 19.9227 23.113 19.9154C26.2809 19.8828 27.6732 17.9404 27.9117 14.9932C27.9871 14.062 27.8202 13.4245 27.4702 13.042C27.2763 12.8314 27.0717 12.7316 26.9156 12.7095L26.3786 12.5808ZM25.8116 12.445L27.061 6.03555C27.1471 5.61428 26.9048 5.19854 26.5171 5.0766C26.0648 4.96019 25.6017 5.24289 25.4779 5.71405L24.0294 10.8248C23.9863 10.9856 23.8248 11.0742 23.6686 11.0299C23.5446 10.9947 23.4647 10.8826 23.4587 10.7574L22.3166 5.73623C22.2735 5.52005 22.1497 5.33158 21.972 5.20963C21.7943 5.08768 21.5735 5.04888 21.3635 5.09323C20.9866 5.17637 20.7066 5.69743 20.8197 6.16305L20.825 6.19631L21.4777 11.735L21.8883 12.3657C22.0675 12.1095 22.326 11.9499 22.6347 11.878C22.8932 11.8226 23.157 11.8281 23.4101 11.8724C23.4732 11.8817 23.5212 11.8949 23.5478 11.9022C23.553 11.9036 23.5574 11.9048 23.5609 11.9057L25.8116 12.445ZM21.6302 13.0463L20.9874 12.0588C20.9655 12.035 20.9474 12.0074 20.9342 11.9771L20.6315 11.5122C20.26 10.9523 19.8992 10.7583 19.4684 11.0133L19.4092 11.0576C19.0754 11.296 19.0323 11.8614 19.3769 12.4046L20.6477 14.3502C20.8739 14.6939 21.3262 14.7826 21.66 14.5498L21.7246 14.511C21.8139 14.4509 21.8879 14.3682 21.9409 14.2731C21.6218 13.9367 21.5428 13.5207 21.6302 13.0463ZM22.5288 14.0155C22.4955 13.9633 22.4459 13.9216 22.3848 13.8983C22.142 13.6579 22.1324 13.3576 22.247 12.9644C22.3332 12.6762 22.5001 12.5265 22.7639 12.4656C22.9363 12.4268 23.1247 12.4323 23.3078 12.4656C23.3284 12.4698 23.3466 12.4732 23.3621 12.4761C23.3873 12.4809 23.4055 12.4843 23.4155 12.4877L26.8079 13.3026L26.8725 13.3247C26.9263 13.3469 26.9856 13.3913 27.0448 13.4522C27.271 13.7017 27.4002 14.1728 27.3356 14.9489C27.1148 17.665 25.8871 19.3501 22.9686 19.3224C22.9522 19.3224 22.9361 19.3238 22.9205 19.3264C21.1516 19.2778 19.6553 18.0889 19.3077 16.3315L19.743 16.7781C20.2653 17.2936 21.0892 17.2825 21.5953 16.7504L21.6546 16.6894C22.0563 16.2579 22.1252 15.6223 21.8641 15.1195C21.9027 15.0981 21.9406 15.0745 21.9777 15.0487L22.0423 15.0043C22.1887 14.9017 22.3116 14.7695 22.406 14.6173C22.6025 14.7228 22.8389 14.8152 23.1193 14.8934L23.9324 15.0874C23.3293 15.4367 22.9524 16.0852 22.9093 17.0774C22.8986 17.2437 23.0224 17.3823 23.1839 17.3934C23.3455 17.3989 23.4801 17.277 23.4909 17.1107C23.534 16.2127 23.8732 15.7304 24.4171 15.5198C24.7078 15.4089 25.0255 15.3868 25.3055 15.4145L25.3755 15.4256C25.7471 15.4976 25.8655 14.9267 25.494 14.838L23.2593 14.3225C22.9368 14.2318 22.6985 14.131 22.5288 14.0155ZM18.3645 13.3137C18.588 13.0729 18.952 13.0439 19.2143 13.2316L20.1631 14.6884C20.4233 15.0797 20.8448 15.2871 21.2709 15.2794C21.5033 15.5697 21.4908 15.9991 21.2292 16.2737L21.1753 16.3347C20.8953 16.6284 20.4376 16.634 20.1522 16.3457L18.5368 14.6994C18.0899 14.2394 18.0306 13.674 18.3106 13.3746L18.3645 13.3137ZM16.2106 25.5528C16.2106 26.4785 15.5106 27.1105 14.5952 27.1105C13.9544 27.1105 13.4052 26.8111 13.0659 26.3344L13.6959 25.6859C13.8844 25.9353 14.1967 26.2069 14.606 26.2069C14.9883 26.2069 15.2521 25.9741 15.2521 25.5972C15.2521 25.1981 14.9398 25.0983 14.4498 24.9542C13.5505 24.6826 13.1844 24.2003 13.1844 23.5739C13.1844 22.7868 13.7659 22.1106 14.6813 22.1106C15.2575 22.1106 15.7906 22.3877 16.0275 22.9254L15.2683 23.4187C15.1229 23.1748 14.9236 23.0141 14.6544 23.0141C14.3367 23.0141 14.1375 23.2358 14.1375 23.5185C14.1375 23.8566 14.4283 23.962 14.8913 24.1005C15.6183 24.3223 16.2106 24.6937 16.2106 25.5528ZM16.5389 25.3422C16.5389 26.3123 17.3251 27.1105 18.2943 27.1105C19.2636 27.1105 20.0497 26.3123 20.0497 25.3422C20.0497 24.3722 19.2636 23.574 18.2943 23.574C17.3251 23.574 16.5389 24.3722 16.5389 25.3422ZM18.2941 26.2236C18.7626 26.2236 19.1341 25.8411 19.1341 25.3422C19.1341 24.8433 18.7626 24.4609 18.2941 24.4609C17.8202 24.4609 17.4541 24.8433 17.4541 25.3422C17.4541 25.8466 17.8256 26.2236 18.2941 26.2236ZM22.3167 22.1716V23.0585C21.8051 23.0363 21.4336 23.3024 21.4336 23.8899V24.2502C21.6382 24.0285 21.929 23.9176 22.2898 23.9176V24.8156C21.7836 24.8267 21.4336 25.1593 21.4336 25.6249V27.0218H20.5182V23.8345C20.5182 22.9365 21.0674 22.1716 22.1821 22.1716H22.3167ZM24.3144 27.1105C23.3452 27.1105 22.559 26.3123 22.559 25.3422C22.559 24.3722 23.3452 23.574 24.3144 23.574C25.2837 23.574 26.0699 24.3722 26.0699 25.3422C26.0699 26.3123 25.2837 27.1105 24.3144 27.1105ZM25.1544 25.3422C25.1544 25.8411 24.7882 26.2236 24.3144 26.2236C23.8459 26.2236 23.4744 25.8466 23.4744 25.3422C23.4744 24.8433 23.8459 24.4609 24.3144 24.4609C24.7829 24.4609 25.1544 24.8433 25.1544 25.3422ZM27.4537 24.0507V23.6682H26.5652V27.0218H27.4806V25.4919C27.4806 24.9376 27.7983 24.6271 28.3476 24.6271V23.6183C27.933 23.6017 27.6368 23.7458 27.4537 24.0507ZM29.7908 24.4886V25.309C29.7908 25.8965 30.1623 26.1571 30.6739 26.1404V27.0273H30.5392C29.4192 27.0273 28.8754 26.2624 28.8754 25.3644V22.5928H29.7908V23.1194C29.7908 23.574 30.1515 23.9176 30.6469 23.9287V24.8212C30.2808 24.8212 29.9954 24.7103 29.7908 24.4886ZM31.767 27.0772C32.1008 27.0772 32.3808 26.7945 32.3808 26.4453C32.3808 26.1016 32.1062 25.8134 31.767 25.8134C31.4277 25.8134 31.1531 26.0961 31.1531 26.4453C31.1531 26.7945 31.4277 27.0772 31.767 27.0772Z" fill="white"/>
<rect x="0.5" y="0.5" width="45" height="31" rx="5.5" stroke="#EEF2F6"/>
</svg>
