<svg width="34" height="24" viewBox="0 0 34 24" fill="none" xmlns="http://www.w3.org/2000/svg">
<rect x="0.5" y="0.5" width="33" height="23" rx="3.5" fill="#F884A1"/>
<path fill-rule="evenodd" clip-rule="evenodd" d="M19.7839 9.43561L20.7237 4.61813C20.8368 4.07767 20.5258 3.53306 20.0048 3.37508C19.4233 3.22542 18.8377 3.57464 18.6883 4.16498L17.8367 7.16626L17.1654 4.21071C17.1129 3.93633 16.9514 3.69104 16.7212 3.53306C16.491 3.37509 16.2043 3.32104 15.9337 3.37924C15.4006 3.49565 15.0533 4.13588 15.1865 4.7179L15.5826 8.06577C15.2385 7.7127 14.8367 7.60393 14.371 7.88164L14.3104 7.92321C13.8861 8.22072 13.7997 8.82866 14.0724 9.3824C13.8467 9.39547 13.626 9.49236 13.4582 9.66929L13.4179 9.71502C13.0261 10.1308 13.1028 10.8333 13.5915 11.3364L13.9885 11.7437C14.0331 13.6263 15.5208 14.9449 17.2748 14.9449C17.2956 14.9449 17.3156 14.942 17.3346 14.9365C19.7105 14.9121 20.7547 13.4553 20.9337 11.2449C20.9902 10.5465 20.865 10.0684 20.6025 9.78153C20.4571 9.62355 20.3037 9.54872 20.1866 9.53209L19.7839 9.43561ZM19.3586 9.33372L20.2956 4.52667C20.3602 4.21071 20.1785 3.89891 19.8877 3.80745C19.5485 3.72014 19.2012 3.93217 19.1083 4.28554L18.0219 8.1186C17.9896 8.23916 17.8684 8.30568 17.7513 8.27242C17.6583 8.24602 17.5984 8.16195 17.5939 8.06809L16.7373 4.30217C16.705 4.14003 16.6121 3.99869 16.4789 3.90722C16.3456 3.81576 16.18 3.78666 16.0225 3.81992C15.7398 3.88228 15.5298 4.27307 15.6146 4.62229L15.6187 4.64723L16.1082 8.80123L16.4161 9.27427C16.5505 9.08212 16.7444 8.96239 16.9759 8.90849C17.1698 8.86692 17.3676 8.87108 17.5575 8.90433C17.6048 8.91129 17.6408 8.92117 17.6607 8.92664C17.6646 8.9277 17.6679 8.9286 17.6705 8.92928L19.3586 9.33372ZM16.2225 9.78473L15.7404 9.04412C15.724 9.02623 15.7104 9.00555 15.7005 8.98286L15.4735 8.63411C15.1949 8.21422 14.9243 8.06872 14.6012 8.25995L14.5568 8.29321C14.3064 8.47198 14.2741 8.89603 14.5326 9.30344L15.4857 10.7627C15.6553 11.0204 15.9945 11.0869 16.2449 10.9123L16.2934 10.8832C16.3603 10.8382 16.4158 10.7762 16.4556 10.7048C16.2162 10.4525 16.157 10.1405 16.2225 9.78473ZM16.8964 10.5116C16.8715 10.4725 16.8343 10.4412 16.7885 10.4238C16.6064 10.2434 16.5992 10.0182 16.6851 9.72333C16.7497 9.50715 16.8749 9.3949 17.0728 9.34917C17.2021 9.32007 17.3434 9.32422 17.4807 9.34917C17.4962 9.35234 17.5098 9.35491 17.5215 9.35711C17.5404 9.36066 17.554 9.36323 17.5615 9.3658L20.1058 9.97693L20.1542 9.99355C20.1946 10.0102 20.2391 10.0434 20.2835 10.0892C20.4531 10.2763 20.55 10.6296 20.5016 11.2117C20.336 13.2487 19.4152 14.5126 17.2263 14.4918C17.214 14.4918 17.202 14.4928 17.1903 14.4948C15.8636 14.4584 14.7413 13.5666 14.4807 12.2487L14.8071 12.5836C15.1989 12.9702 15.8168 12.9619 16.1964 12.5628L16.2408 12.5171C16.5421 12.1934 16.5938 11.7167 16.3979 11.3396C16.4269 11.3236 16.4553 11.3059 16.4832 11.2865L16.5316 11.2532C16.6414 11.1763 16.7336 11.0771 16.8044 10.963C16.9518 11.0421 17.1291 11.1114 17.3394 11.1701L17.9492 11.3156C17.4969 11.5775 17.2142 12.0639 17.1819 12.8081C17.1738 12.9328 17.2667 13.0367 17.3878 13.045C17.509 13.0492 17.61 12.9577 17.618 12.833C17.6503 12.1595 17.9048 11.7978 18.3127 11.6399C18.5308 11.5567 18.769 11.5401 18.979 11.5609L19.0315 11.5692C19.3102 11.6232 19.399 11.195 19.1204 11.1285L17.4444 10.7419C17.2025 10.6738 17.0237 10.5983 16.8964 10.5116ZM13.7732 9.98525C13.9409 9.80467 14.2138 9.7829 14.4106 9.92368L15.1222 11.0163C15.3174 11.3097 15.6335 11.4653 15.953 11.4595C16.1273 11.6773 16.118 11.9994 15.9218 12.2053L15.8814 12.251C15.6714 12.4713 15.3281 12.4755 15.114 12.2593L13.9025 11.0246C13.5673 10.6795 13.5229 10.2555 13.7329 10.031L13.7732 9.98525ZM12.1578 19.1646C12.1578 19.8589 11.6328 20.3328 10.9463 20.3328C10.4657 20.3328 10.0537 20.1083 9.79932 19.7508L10.2718 19.2644C10.4132 19.4515 10.6474 19.6552 10.9543 19.6552C11.2411 19.6552 11.439 19.4806 11.439 19.1979C11.439 18.8986 11.2047 18.8237 10.8372 18.7156C10.1628 18.5119 9.88816 18.1502 9.88816 17.6805C9.88816 17.0901 10.3243 16.5829 11.0109 16.5829C11.443 16.5829 11.8428 16.7908 12.0205 17.1941L11.4511 17.5641C11.342 17.3811 11.1926 17.2606 10.9907 17.2606C10.7524 17.2606 10.603 17.4269 10.603 17.6389C10.603 17.8925 10.8211 17.9715 11.1684 18.0754C11.7136 18.2417 12.1578 18.5202 12.1578 19.1646ZM12.4041 19.0067C12.4041 19.7342 12.9937 20.3328 13.7206 20.3328C14.4476 20.3328 15.0372 19.7342 15.0372 19.0067C15.0372 18.2791 14.4476 17.6805 13.7206 17.6805C12.9937 17.6805 12.4041 18.2791 12.4041 19.0067ZM13.7205 19.6677C14.0718 19.6677 14.3505 19.3808 14.3505 19.0067C14.3505 18.6325 14.0718 18.3456 13.7205 18.3456C13.3651 18.3456 13.0904 18.6325 13.0904 19.0067C13.0904 19.385 13.3691 19.6677 13.7205 19.6677ZM16.7374 16.6287V17.2938C16.3537 17.2772 16.0751 17.4768 16.0751 17.9174V18.1877C16.2285 18.0214 16.4466 17.9382 16.7172 17.9382V18.6117C16.3376 18.62 16.0751 18.8695 16.0751 19.2187V20.2663H15.3885V17.8759C15.3885 17.2024 15.8005 16.6287 16.6364 16.6287H16.7374ZM18.2357 20.3328C17.5088 20.3328 16.9191 19.7342 16.9191 19.0067C16.9191 18.2791 17.5088 17.6805 18.2357 17.6805C18.9627 17.6805 19.5523 18.2791 19.5523 19.0067C19.5523 19.7342 18.9627 20.3328 18.2357 20.3328ZM18.8657 19.0067C18.8657 19.3808 18.5911 19.6677 18.2357 19.6677C17.8843 19.6677 17.6057 19.385 17.6057 19.0067C17.6057 18.6325 17.8843 18.3456 18.2357 18.3456C18.587 18.3456 18.8657 18.6325 18.8657 19.0067ZM20.5902 18.038V17.7511H19.9238V20.2663H20.6104V19.1189C20.6104 18.7032 20.8486 18.4704 21.2606 18.4704V17.7137C20.9496 17.7013 20.7275 17.8093 20.5902 18.038ZM22.3429 18.3664V18.9817C22.3429 19.4224 22.6216 19.6178 23.0053 19.6053V20.2705H22.9043C22.0643 20.2705 21.6564 19.6968 21.6564 19.0233V16.9446H22.3429V17.3396C22.3429 17.6805 22.6135 17.9382 22.9851 17.9466V18.6159C22.7105 18.6159 22.4964 18.5327 22.3429 18.3664ZM23.8251 20.3079C24.0755 20.3079 24.2855 20.0959 24.2855 19.834C24.2855 19.5762 24.0795 19.36 23.8251 19.36C23.5707 19.36 23.3647 19.5721 23.3647 19.834C23.3647 20.0959 23.5707 20.3079 23.8251 20.3079Z" fill="white"/>
<rect x="0.5" y="0.5" width="33" height="23" rx="3.5" stroke="#EEF2F6"/>
</svg>
