<svg width="28" height="20" viewBox="0 0 28 20" fill="none" xmlns="http://www.w3.org/2000/svg">
<rect x="0.5" y="0.5" width="27" height="19" rx="3.5" fill="white"/>
<path fill-rule="evenodd" clip-rule="evenodd" d="M15.0443 6.78494L13.622 7.10291V5.90168L15.0443 5.5896V6.78494ZM18.0022 7.45032C17.4469 7.45032 17.0899 7.72118 16.8916 7.90961L16.8179 7.54453H15.5712V14.4104L16.9879 14.0983L16.9936 12.4319C17.1976 12.585 17.4979 12.8028 17.9966 12.8028C19.0109 12.8028 19.9346 11.9549 19.9346 10.0883C19.9289 8.38068 18.9939 7.45032 18.0022 7.45032ZM17.6622 11.5074C17.3279 11.5074 17.1296 11.3837 16.9936 11.2306L16.9879 9.04606C17.1352 8.8753 17.3392 8.75753 17.6622 8.75753C18.1779 8.75753 18.5349 9.35814 18.5349 10.1295C18.5349 10.9186 18.1836 11.5074 17.6622 11.5074ZM24.4 10.1472C24.4 8.63977 23.6973 7.45032 22.3543 7.45032C21.0056 7.45032 20.1896 8.63977 20.1896 10.1354C20.1896 11.9078 21.153 12.8028 22.5356 12.8028C23.21 12.8028 23.72 12.6439 24.1053 12.4201V11.2424C23.72 11.4426 23.278 11.5663 22.717 11.5663C22.1673 11.5663 21.68 11.3661 21.6176 10.6713H24.3886C24.3886 10.6388 24.3907 10.5652 24.393 10.4803L24.393 10.4801V10.4801V10.48L24.393 10.4799V10.4798L24.393 10.4796C24.3962 10.3643 24.4 10.2285 24.4 10.1472ZM21.6006 9.58779C21.6006 8.92241 21.9916 8.64566 22.3486 8.64566C22.6943 8.64566 23.0626 8.92241 23.0626 9.58779H21.6006ZM13.6219 7.55043H15.0442V12.7027H13.6219V7.55043ZM12.007 7.55042L12.0977 7.98616C12.432 7.35022 13.095 7.47976 13.2764 7.55042V8.90475C13.1007 8.83998 12.534 8.75754 12.1997 9.21094V12.7027H10.783V7.55042H12.007ZM9.26426 6.27264L7.88159 6.57884L7.87592 11.2954C7.87592 12.1669 8.50492 12.8087 9.34359 12.8087C9.80826 12.8087 10.1483 12.7204 10.3353 12.6144V11.4191C10.1539 11.4956 9.25859 11.7665 9.25859 10.895V8.80464H10.3353V7.55042H9.25859L9.26426 6.27264ZM5.91532 8.72811C5.61498 8.72811 5.43365 8.81643 5.43365 9.04608C5.43365 9.29681 5.74573 9.40711 6.1329 9.54395C6.76407 9.76702 7.59481 10.0606 7.59833 11.1482C7.59833 12.2022 6.78799 12.8087 5.60932 12.8087C5.12198 12.8087 4.58931 12.7086 4.06231 12.4731V11.0717C4.53831 11.3425 5.13898 11.5427 5.60932 11.5427C5.92665 11.5427 6.15332 11.4544 6.15332 11.1836C6.15332 10.9058 5.81502 10.7789 5.4066 10.6256C4.7846 10.3922 3.99998 10.0978 3.99998 9.11674C3.99998 8.0745 4.76498 7.45033 5.91532 7.45033C6.38565 7.45033 6.85032 7.52688 7.32066 7.72119V9.10496C6.88999 8.86354 6.34599 8.72811 5.91532 8.72811Z" fill="#6461FC"/>
<rect x="0.5" y="0.5" width="27" height="19" rx="3.5" stroke="#EEF2F6"/>
</svg>
