<svg width="58" height="40" viewBox="0 0 58 40" fill="none" xmlns="http://www.w3.org/2000/svg">
<rect x="0.5" y="0.5" width="57" height="39" rx="5.5" fill="white"/>
<path fill-rule="evenodd" clip-rule="evenodd" d="M30.4468 13.5699L27.5683 14.2058V11.8034L30.4468 11.1792V13.5699ZM36.4331 14.9006C35.3092 14.9006 34.5867 15.4424 34.1853 15.8192L34.0362 15.0891H31.5132V28.8207L34.3803 28.1966L34.3917 24.8638C34.8046 25.17 35.4124 25.6057 36.4216 25.6057C38.4744 25.6057 40.3438 23.9098 40.3438 20.1766C40.3323 16.7614 38.44 14.9006 36.4331 14.9006ZM35.745 23.0148C35.0683 23.0148 34.6669 22.7675 34.3917 22.4613L34.3802 18.0921C34.6784 17.7506 35.0913 17.5151 35.745 17.5151C36.7886 17.5151 37.5111 18.7163 37.5111 20.259C37.5111 21.8371 36.8 23.0148 35.745 23.0148ZM49.3809 20.2944C49.3809 17.2795 47.9588 14.9006 45.2408 14.9006C42.5114 14.9006 40.86 17.2795 40.86 20.2708C40.86 23.8156 42.8096 25.6057 45.6078 25.6057C46.9725 25.6057 48.0047 25.2877 48.7845 24.8402V22.4848C48.0047 22.8853 47.1102 23.1326 45.9748 23.1326C44.8624 23.1326 43.8761 22.7322 43.75 21.3425H49.3579C49.3579 21.2776 49.3621 21.1304 49.3668 20.9606L49.3668 20.9603L49.3668 20.9598L49.3668 20.9594L49.3669 20.9589C49.3733 20.7283 49.3809 20.4569 49.3809 20.2944ZM43.7155 19.1756C43.7155 17.8448 44.5068 17.2913 45.2293 17.2913C45.9289 17.2913 46.6743 17.8448 46.6743 19.1756H43.7155ZM27.5681 15.1009H30.4466V25.4055H27.5681V15.1009ZM24.2999 15.1008L24.4834 15.9723C25.16 14.7004 26.5018 14.9595 26.8688 15.1008V17.8095C26.5133 17.68 25.3664 17.5151 24.6898 18.4219V25.4055H21.8228V15.1008H24.2999ZM18.7491 12.5453L15.9508 13.1577L15.9393 22.5908C15.9393 24.3338 17.2123 25.6174 18.9096 25.6174C19.85 25.6174 20.5381 25.4408 20.9166 25.2288V22.8381C20.5496 22.9912 18.7376 23.533 18.7376 21.79V17.6093H20.9166V15.1008H18.7376L18.7491 12.5453ZM11.9715 17.4562C11.3636 17.4562 10.9966 17.6329 10.9966 18.0922C10.9966 18.5936 11.6282 18.8142 12.4118 19.0879C13.6892 19.534 15.3704 20.1213 15.3775 22.2964C15.3775 24.4045 13.7376 25.6175 11.3522 25.6175C10.3659 25.6175 9.28787 25.4173 8.22132 24.9462V22.1434C9.18466 22.6851 10.4003 23.0855 11.3522 23.0855C11.9944 23.0855 12.4531 22.9088 12.4531 22.3671C12.4531 21.8116 11.7685 21.5577 10.9419 21.2512C9.6831 20.7844 8.09517 20.1955 8.09517 18.2335C8.09517 16.149 9.64339 14.9007 11.9715 14.9007C12.9233 14.9007 13.8637 15.0538 14.8156 15.4424V18.2099C13.944 17.7271 12.843 17.4562 11.9715 17.4562Z" fill="#6461FC"/>
<rect x="0.5" y="0.5" width="57" height="39" rx="5.5" stroke="#EEF2F6"/>
</svg>
