<svg width="34" height="24" viewBox="0 0 34 24" fill="none" xmlns="http://www.w3.org/2000/svg">
<rect x="0.5" y="0.5" width="33" height="23" rx="3.5" fill="white"/>
<path fill-rule="evenodd" clip-rule="evenodd" d="M18.2679 8.14192L16.5408 8.52349V7.08202L18.2679 6.70752V8.14192ZM21.8597 8.94038C21.1853 8.94038 20.7518 9.26542 20.511 9.49153L20.4215 9.05344H18.9077V17.2924L20.628 16.9179L20.6348 14.9183C20.8826 15.102 21.2472 15.3634 21.8528 15.3634C23.0845 15.3634 24.2061 14.3459 24.2061 12.106C24.1992 10.0568 23.0638 8.94038 21.8597 8.94038ZM21.4468 13.8089C21.0408 13.8089 20.8 13.6605 20.6348 13.4768L20.6279 10.8553C20.8069 10.6504 21.0546 10.509 21.4468 10.509C22.0729 10.509 22.5064 11.2298 22.5064 12.1554C22.5064 13.1023 22.0798 13.8089 21.4468 13.8089ZM29.6283 12.1766C29.6283 10.3677 28.7751 8.94038 27.1443 8.94038C25.5066 8.94038 24.5158 10.3677 24.5158 12.1625C24.5158 14.2894 25.6855 15.3634 27.3645 15.3634C28.1833 15.3634 28.8026 15.1726 29.2705 14.9041V13.4909C28.8026 13.7312 28.2659 13.8795 27.5847 13.8795C26.9172 13.8795 26.3255 13.6393 26.2498 12.8055H29.6146C29.6146 12.7666 29.617 12.6782 29.6199 12.5763L29.6199 12.5762C29.6238 12.4377 29.6283 12.2743 29.6283 12.1766ZM26.2291 11.5054C26.2291 10.7069 26.7039 10.3748 27.1374 10.3748C27.5571 10.3748 28.0044 10.7069 28.0044 11.5054H26.2291ZM16.5407 9.06052H18.2678V15.2433H16.5407V9.06052ZM14.5797 9.06051L14.6898 9.5834C15.0958 8.82026 15.9009 8.97572 16.1211 9.06051V10.6857C15.9078 10.608 15.2197 10.509 14.8137 11.0531V15.2433H13.0935V9.06051H14.5797ZM11.2492 7.52717L9.57029 7.8946L9.56341 13.5545C9.56341 14.6003 10.3272 15.3705 11.3456 15.3705C11.9098 15.3705 12.3227 15.2645 12.5498 15.1373V13.7029C12.3296 13.7947 11.2424 14.1198 11.2424 13.074V10.5656H12.5498V9.0605H11.2424L11.2492 7.52717ZM7.18268 10.4737C6.81799 10.4737 6.59779 10.5797 6.59779 10.8553C6.59779 11.1562 6.97675 11.2885 7.44688 11.4527C8.21331 11.7204 9.22207 12.0728 9.22633 13.3779C9.22633 14.6427 8.24235 15.3705 6.8111 15.3705C6.21934 15.3705 5.57253 15.2504 4.93259 14.9677V13.286C5.5106 13.611 6.23998 13.8513 6.8111 13.8513C7.19644 13.8513 7.47168 13.7453 7.47168 13.4203C7.47168 13.087 7.06089 12.9346 6.56495 12.7507C5.80967 12.4706 4.8569 12.1173 4.8569 10.9401C4.8569 9.6894 5.78584 8.9404 7.18268 8.9404C7.7538 8.9404 8.31804 9.03225 8.88916 9.26543V10.926C8.36621 10.6362 7.70563 10.4737 7.18268 10.4737Z" fill="#6461FC"/>
<rect x="0.5" y="0.5" width="33" height="23" rx="3.5" stroke="#EEF2F6"/>
</svg>
