<svg width="28" height="20" viewBox="0 0 28 20" fill="none" xmlns="http://www.w3.org/2000/svg">
<rect x="0.5" y="0.5" width="27" height="19" rx="3.5" fill="white"/>
<path fill-rule="evenodd" clip-rule="evenodd" d="M12.0152 8.5877H12.9266L13.0731 7.82853H12.1616L12.0152 8.5877ZM11.9207 9.07598H12.8323L12.2532 12.0735C12.2109 12.0886 12.0805 12.1419 11.9003 12.1419C11.6571 12.1419 11.4341 12.0445 11.4341 11.699C11.4341 11.634 11.4414 11.56 11.4576 11.4759C11.6387 10.5405 11.9207 9.07598 11.9207 9.07598ZM20.9715 9.00751C20.3648 9.00751 20.1237 9.37284 20.0105 9.59522H19.9997L20.0347 9.07661H19.1339C19.128 9.19065 19.0891 9.55013 19.0313 9.86017C19.0313 9.86017 18.8233 10.9482 18.7839 11.1565C18.7539 11.3156 18.6991 11.5509 18.6991 11.6874C18.6991 11.9781 18.8425 12.142 19.1626 12.142C19.342 12.142 19.4714 12.0915 19.5185 12.0735L19.8198 10.5124C19.9033 10.0814 20.2065 9.79929 20.567 9.79929C20.8579 9.79929 20.997 10.0174 20.997 10.1957C20.997 10.3509 20.9591 10.5229 20.9298 10.675L20.8002 11.3435C20.7848 11.4237 20.7518 11.5779 20.7518 11.6988C20.7518 11.9943 20.9139 12.142 21.2217 12.142C21.3898 12.142 21.4963 12.0988 21.5718 12.0735L21.8421 10.6741C21.9007 10.3578 21.9224 10.1912 21.9224 9.98993C21.9224 9.41043 21.5927 9.00751 20.9715 9.00751ZM16.9227 9.73232C16.4132 9.73232 16.131 10.2678 16.131 10.7452C16.131 11.1478 16.3079 11.4174 16.7099 11.4174C17.1644 11.4174 17.5201 11.0198 17.5201 10.3411C17.5201 10.0306 17.3593 9.73232 16.9227 9.73232ZM16.654 12.1421C15.678 12.1421 15.2111 11.5403 15.2111 10.7733C15.2111 9.72079 15.9139 9.00751 17.0001 9.00751C17.9425 9.00751 18.4429 9.5942 18.4429 10.3477C18.4429 11.4767 17.6922 12.1421 16.654 12.1421ZM13.2408 11.4204C13.22 11.5282 13.2069 11.6038 13.2069 11.6967C13.2069 12.0403 13.4303 12.142 13.667 12.142C13.8563 12.142 13.9734 12.0888 14.0163 12.0735L14.4545 9.80134L15.1632 9.80126L15.3031 9.07598L14.5945 9.07606L14.629 8.89742C14.6931 8.56242 14.8464 8.41514 15.1117 8.41514C15.2888 8.41514 15.4321 8.44752 15.4819 8.46087L15.6152 7.7712C15.5584 7.75643 15.2965 7.69049 14.9089 7.69049C14.2913 7.69049 13.8867 8.07619 13.767 8.69739L13.6938 9.07598H13.2324L13.0924 9.80126H13.5541C13.5541 9.80126 13.372 10.7407 13.2408 11.4204ZM11.1425 9.00759C10.685 9.00759 10.4334 9.33422 10.335 9.59475H10.3245L10.3597 9.07598H9.45857C9.45059 9.2558 9.414 9.55984 9.32219 10.0379C9.22914 10.5223 9.13848 11.0055 9.04489 11.4758C9.02886 11.5562 9.02173 11.6348 9.02173 11.7014C9.02173 11.9477 9.14009 12.1418 9.48986 12.1418C9.66314 12.1418 9.78349 12.0955 9.84125 12.0735L10.1093 10.6839C10.2059 10.1522 10.3813 9.80071 10.8903 9.80071C11.1218 9.80071 11.3417 9.85149 11.3878 9.86539L11.5421 9.06587C11.5088 9.05403 11.3751 9.00759 11.1425 9.00759ZM24.3631 10.2909C24.4119 10.0161 24.2564 9.73232 23.905 9.73232C23.4759 9.73232 23.2874 10.0338 23.2033 10.2909H24.3631ZM24.7698 11.4063C24.7698 11.8232 24.3772 12.1429 23.682 12.1429C22.7212 12.1429 22.2514 11.5274 22.2514 10.774C22.2514 10.0262 22.7342 9.0083 23.9126 9.0083C24.6895 9.0083 25.2705 9.40522 25.2705 10.3139C25.2705 10.5374 25.2221 10.7803 25.2013 10.8776H23.136C23.1326 11.0956 23.3113 11.4735 24.0292 11.4735C24.3491 11.4735 24.7114 11.3573 24.7698 11.3276C24.7698 11.3503 24.7698 11.3913 24.7698 11.4063ZM7.89402 10.2909C7.94273 10.0161 7.78725 9.73232 7.43586 9.73232C7.00677 9.73232 6.81838 10.0338 6.73416 10.2909H7.89402ZM8.30075 11.4063C8.30075 11.8232 7.90817 12.1429 7.21306 12.1429C6.25217 12.1429 5.78242 11.5274 5.78242 10.774C5.78242 10.0262 6.26513 9.0083 7.44364 9.0083C8.2206 9.0083 8.80157 9.40522 8.80157 10.3139C8.80157 10.5374 8.75316 10.7803 8.7323 10.8776H6.66707C6.66362 11.0956 6.84227 11.4735 7.56016 11.4735C7.8801 11.4735 8.24238 11.3573 8.30075 11.3276C8.30075 11.3503 8.30075 11.3913 8.30075 11.4063ZM2.82373 8.05606H3.74067V11.0364C3.74067 11.4846 3.9576 11.7133 4.30584 11.7133C4.34136 11.7133 4.3623 11.7087 4.3692 11.7069C4.21656 11.9445 4.01865 12.1393 3.56425 12.1393C3.08346 12.1393 2.82373 11.7961 2.82373 11.2811V8.05606Z" fill="#1A1919"/>
<path fill-rule="evenodd" clip-rule="evenodd" d="M4.14727 10.4858C4.04847 10.6444 3.99609 10.8276 3.99609 11.0145V11.0413C3.99609 11.3435 4.1548 11.4518 4.32808 11.4518C4.50519 11.4518 4.6 11.3282 4.68698 11.1878C4.83272 10.9527 6.61368 8.05603 6.61368 8.05603H5.66061L4.14727 10.4858Z" fill="#00A3DA"/>
<rect x="0.5" y="0.5" width="27" height="19" rx="3.5" stroke="#EEF2F6"/>
</svg>
