<svg width="58" height="40" viewBox="0 0 58 40" fill="none" xmlns="http://www.w3.org/2000/svg">
<rect x="0.5" y="0.5" width="57" height="39" rx="5.5" fill="white"/>
<path fill-rule="evenodd" clip-rule="evenodd" d="M20.9054 26.9225C21.1623 26.7891 21.5989 26.614 22.0615 26.614C23.1232 26.614 23.697 27.3309 23.697 28.6649C23.697 30.2234 22.9266 30.982 21.6848 30.982C21.2307 30.982 20.5286 30.8403 20.0147 30.5732V24.7553L20.9054 24.5468V26.9225ZM20.897 30.2649C21.1708 30.3817 21.4707 30.3982 21.6848 30.3982C22.3185 30.3982 22.798 30.0149 22.798 28.6649C22.798 27.606 22.4041 27.2643 21.8304 27.2643C21.4877 27.2643 21.2396 27.356 20.897 27.5394V30.2649ZM11.7761 26.7222H11.8361L13.0004 30.8819H13.9252L15.3127 24.9717H14.3107L13.4372 29.3814H13.3776L12.187 24.9717H11.4249L10.3117 29.3814H10.2517L9.29251 24.9717H8.3335L9.72083 30.8819H10.6455L11.7761 26.7222ZM19.1074 30.5983V29.9648C18.6364 30.2399 18.2084 30.3982 17.746 30.3982C16.8639 30.3982 16.4444 29.9562 16.4444 28.9561H19.2359V28.6479C19.2359 27.2894 18.5764 26.614 17.5063 26.614C16.2218 26.614 15.5623 27.531 15.5623 28.7978C15.5623 30.115 16.1532 30.982 17.5917 30.982C18.2084 30.982 18.7221 30.8153 19.1074 30.5983ZM18.4223 28.3978H16.4617C16.5556 27.5644 16.9579 27.1726 17.4806 27.1726C17.943 27.1726 18.3799 27.5224 18.4223 28.3978ZM27.6364 29.6314H27.5934L25.6752 24.9717H24.6391V30.8819H25.4099V26.6974H25.4868L27.234 30.8819H27.7818L29.5288 26.5973H29.6061V30.8819H30.5309V24.9717H29.4689L27.6364 29.6314ZM31.473 28.7978C31.473 27.339 32.2951 26.614 33.4254 26.614C34.5559 26.614 35.3781 27.339 35.3781 28.7978C35.3781 30.2234 34.5987 30.982 33.4254 30.982C32.2521 30.982 31.473 30.2234 31.473 28.7978ZM34.4787 28.7978C34.4787 27.6727 34.0075 27.1977 33.4253 27.1977C32.8601 27.1977 32.372 27.6727 32.372 28.7978C32.372 29.9402 32.8176 30.3982 33.4253 30.3982C34.0333 30.3982 34.4787 29.9402 34.4787 28.7978ZM38.3746 26.614C37.3903 26.614 36.5765 27.0057 36.1912 27.2308V30.8819H37.082V27.581C37.3473 27.4312 37.7841 27.2808 38.1268 27.2808C38.5635 27.2808 38.8972 27.3976 38.8972 28.0561V30.8819H39.7877V27.8642C39.7877 27.0057 39.4027 26.614 38.3746 26.614ZM44.1292 29.9648V30.5983C43.7441 30.8153 43.2305 30.982 42.6136 30.982C41.1752 30.982 40.5843 30.115 40.5843 28.7978C40.5843 27.531 41.2438 26.614 42.5282 26.614C43.5988 26.614 44.2584 27.2894 44.2584 28.6479V28.9561H41.4666C41.4666 29.9562 41.8862 30.3982 42.7681 30.3982C43.2305 30.3982 43.6586 30.2399 44.1292 29.9648ZM41.4837 28.3978H43.4446C43.402 27.5224 42.9649 27.1726 42.5025 27.1726C41.98 27.1726 41.578 27.5644 41.4837 28.3978ZM48.5057 26.7557H47.5894L46.6129 29.823H46.5618L45.4657 26.7557H44.5237L46.1679 30.9235C45.962 31.5401 45.6028 31.9907 45.0205 31.9907V32.6738C46.0048 32.6738 46.5273 32.074 46.9556 30.9235L48.5057 26.7557Z" fill="#0068A3"/>
<path fill-rule="evenodd" clip-rule="evenodd" d="M27.8452 7.5C29.0237 7.5 30.1398 7.76713 31.1338 8.24139C31.2899 8.31348 31.4456 8.3928 31.6018 8.48037L30.9108 9.0823L29.8728 8.03751L28.1207 9.55862L27.0801 8.45309L23.8164 11.3166L25.9087 13.5612L25.0865 14.2651L27.1473 16.513L26.3299 17.2154L29.2748 20.406L31.0229 18.8395L32.5343 20.5182C32.2336 20.7457 31.9062 20.9598 31.5454 21.1576C30.4525 21.7642 29.1894 22.1116 27.8452 22.1116C23.7114 22.1116 20.3398 18.8293 20.3398 14.806C20.3398 10.7818 23.7114 7.5 27.8452 7.5ZM26.4774 14.3441L28.2621 12.7797L29.8692 14.5173L28.0846 16.0812L26.4774 14.3441ZM29.5314 15.7819L27.7465 17.3459L29.3539 19.0836L31.1386 17.5192L29.5314 15.7819ZM25.2004 11.3774L26.9851 9.81335L28.5917 11.5506L26.807 13.1146L25.2004 11.3774ZM29.8141 9.36253L28.4755 10.5354L29.6806 11.8388L31.0192 10.6655L29.8141 9.36253ZM30.8538 15.9089L32.1928 14.7355L33.3979 16.0388L32.0593 17.2118L30.8538 15.9089ZM33.3696 17.3672L32.0314 18.5407L33.2365 19.8432L34.5751 18.6701L33.3696 17.3672ZM32.5704 12.5089L33.4628 11.7268L34.2661 12.5954L33.3742 13.3773L32.5704 12.5089ZM32.3227 9.14597L31.4303 9.92791L32.2336 10.7965L33.1262 10.0146L32.3227 9.14597ZM33.7113 15.0897L34.6036 14.3076L35.4071 15.176L34.5147 15.9581L33.7113 15.0897ZM31.0477 11.9823L29.7092 13.1558L30.9147 14.4582L32.2528 13.2852L31.0477 11.9823Z" fill="#0068A3"/>
<rect x="0.5" y="0.5" width="57" height="39" rx="5.5" stroke="#EEF2F6"/>
</svg>
