<svg width="28" height="20" viewBox="0 0 28 20" fill="none" xmlns="http://www.w3.org/2000/svg">
<rect x="0.5" y="0.5" width="27" height="19" rx="3.5" fill="white"/>
<path fill-rule="evenodd" clip-rule="evenodd" d="M10.3297 13.4613C10.4566 13.3946 10.6724 13.307 10.9009 13.307C11.4255 13.307 11.7091 13.6655 11.7091 14.3325C11.7091 15.1117 11.3284 15.491 10.7148 15.491C10.4904 15.491 10.1435 15.4202 9.88957 15.2866V12.3777L10.3297 12.2734V13.4613ZM10.3255 15.1325C10.4608 15.1909 10.609 15.1991 10.7148 15.1991C11.0279 15.1991 11.2649 15.0075 11.2649 14.3325C11.2649 13.803 11.0702 13.6322 10.7867 13.6322C10.6174 13.6322 10.4948 13.678 10.3255 13.7697V15.1325ZM5.81872 13.3611H5.84835L6.4237 15.441H6.88065L7.56623 12.4859H7.07111L6.63953 14.6907H6.61004L6.02175 12.4859H5.64517L5.09512 14.6907H5.06548L4.59154 12.4859H4.11768L4.80318 15.441H5.26006L5.81872 13.3611ZM9.44128 15.2992V14.9824C9.20854 15.12 8.99705 15.1991 8.76857 15.1991C8.33272 15.1991 8.12542 14.9781 8.12542 14.4781H9.50474V14.324C9.50474 13.6447 9.1789 13.307 8.6501 13.307C8.01541 13.307 7.68957 13.7655 7.68957 14.3989C7.68957 15.0575 7.98151 15.491 8.69231 15.491C8.99705 15.491 9.25089 15.4077 9.44128 15.2992ZM9.10275 14.1989H8.13399C8.18039 13.7822 8.37915 13.5863 8.63742 13.5863C8.86589 13.5863 9.0818 13.7612 9.10275 14.1989ZM13.6556 14.8158H13.6343L12.6865 12.4859H12.1746V15.441H12.5554V13.3487H12.5934L13.4567 15.441H13.7274L14.5907 13.2987H14.6288V15.441H15.0858V12.4859H14.561L13.6556 14.8158ZM15.5513 14.3989C15.5513 13.6695 15.9575 13.307 16.516 13.307C17.0746 13.307 17.4809 13.6695 17.4809 14.3989C17.4809 15.1117 17.0958 15.491 16.516 15.491C15.9363 15.491 15.5513 15.1117 15.5513 14.3989ZM17.0365 14.3989C17.0365 13.8364 16.8037 13.5989 16.516 13.5989C16.2367 13.5989 15.9955 13.8364 15.9955 14.3989C15.9955 14.9701 16.2157 15.1991 16.516 15.1991C16.8164 15.1991 17.0365 14.9701 17.0365 14.3989ZM18.9615 13.307C18.4752 13.307 18.0731 13.5029 17.8827 13.6154V15.441H18.3228V13.7905C18.4539 13.7156 18.6697 13.6404 18.8391 13.6404C19.0549 13.6404 19.2197 13.6988 19.2197 14.0281V15.441H19.6598V13.9321C19.6598 13.5029 19.4695 13.307 18.9615 13.307ZM21.805 14.9824V15.2992C21.6147 15.4077 21.3609 15.491 21.0561 15.491C20.3454 15.491 20.0533 15.0575 20.0533 14.3989C20.0533 13.7655 20.3793 13.307 21.0139 13.307C21.5429 13.307 21.8688 13.6447 21.8688 14.324V14.4781H20.4893C20.4893 14.9781 20.6966 15.1991 21.1324 15.1991C21.3609 15.1991 21.5725 15.12 21.805 14.9824ZM20.4978 14.1989H21.4667C21.4457 13.7612 21.2297 13.5863 21.0012 13.5863C20.743 13.5863 20.5444 13.7822 20.4978 14.1989ZM23.9675 13.3779H23.5147L23.0322 14.9115H23.007L22.4654 13.3779H21.9999L22.8123 15.4618C22.7106 15.7701 22.5331 15.9954 22.2453 15.9954V16.3369C22.7317 16.3369 22.9899 16.037 23.2015 15.4618L23.9675 13.3779Z" fill="#0068A3"/>
<path fill-rule="evenodd" clip-rule="evenodd" d="M13.7588 3.75C14.3411 3.75 14.8926 3.88357 15.3838 4.1207C15.4609 4.15674 15.5379 4.1964 15.615 4.24018L15.2736 4.54115L14.7607 4.01875L13.895 4.77931L13.3808 4.22655L11.7681 5.65832L12.802 6.78058L12.3957 7.13256L13.414 8.25651L13.0101 8.60767L14.4652 10.203L15.329 9.41976L16.0758 10.2591C15.9272 10.3728 15.7654 10.4799 15.5872 10.5788C15.0471 10.8821 14.423 11.0558 13.7588 11.0558C11.7162 11.0558 10.0503 9.41467 10.0503 7.403C10.0503 5.3909 11.7162 3.75 13.7588 3.75ZM13.083 7.17206L13.9648 6.38983L14.7589 7.25867L13.8771 8.0406L13.083 7.17206ZM14.592 7.89096L13.71 8.67297L14.5043 9.54181L15.3862 8.75958L14.592 7.89096ZM12.452 5.68869L13.3338 4.90668L14.1277 5.7753L13.2458 6.5573L12.452 5.68869ZM14.7317 4.68127L14.0703 5.26772L14.6657 5.9194L15.3271 5.33273L14.7317 4.68127ZM15.2454 7.95444L15.907 7.36777L16.5025 8.01938L15.8411 8.6059L15.2454 7.95444ZM16.4885 8.68359L15.8273 9.27033L16.4228 9.92158L17.0842 9.33505L16.4885 8.68359ZM16.0936 6.25443L16.5346 5.86339L16.9315 6.2977L16.4908 6.68867L16.0936 6.25443ZM15.9712 4.57299L15.5303 4.96396L15.9272 5.39827L16.3682 5.0073L15.9712 4.57299ZM16.6573 7.54483L17.0983 7.15379L17.4953 7.58803L17.0543 7.97907L16.6573 7.54483ZM15.3412 5.99114L14.6799 6.57788L15.2755 7.22913L15.9367 6.6426L15.3412 5.99114Z" fill="#0068A3"/>
<rect x="0.5" y="0.5" width="27" height="19" rx="3.5" stroke="#EEF2F6"/>
</svg>
