<svg width="46" height="32" viewBox="0 0 46 32" fill="none" xmlns="http://www.w3.org/2000/svg">
<rect x="0.5" y="0.5" width="45" height="31" rx="5.5" fill="white"/>
<path fill-rule="evenodd" clip-rule="evenodd" d="M16.724 21.538C16.9295 21.4313 17.2788 21.2912 17.6489 21.2912C18.4982 21.2912 18.9573 21.8647 18.9573 22.932C18.9573 24.1787 18.341 24.7856 17.3475 24.7856C16.9843 24.7856 16.4226 24.6723 16.0115 24.4585V19.8042L16.724 19.6375V21.538ZM16.7173 24.2119C16.9364 24.3054 17.1763 24.3186 17.3476 24.3186C17.8545 24.3186 18.2381 24.0119 18.2381 22.932C18.2381 22.0848 17.923 21.8114 17.464 21.8114C17.1898 21.8114 16.9914 21.8848 16.7173 22.0315V24.2119ZM9.42057 21.3777H9.46855L10.4001 24.7055H11.1399L12.2499 19.9773H11.4483L10.7495 23.5051H10.7018L9.74929 19.9773H9.13959L8.24903 23.5051H8.20105L7.43372 19.9773H6.6665L7.77637 24.7055H8.51608L9.42057 21.3777ZM15.2857 24.4786V23.9718C14.9088 24.1919 14.5664 24.3186 14.1965 24.3186C13.4909 24.3186 13.1552 23.965 13.1552 23.1649H15.3884V22.9183C15.3884 21.8315 14.8609 21.2912 14.0047 21.2912C12.9771 21.2912 12.4496 22.0248 12.4496 23.0382C12.4496 24.092 12.9222 24.7856 14.0731 24.7856C14.5664 24.7856 14.9774 24.6522 15.2857 24.4786ZM14.7376 22.7182H13.1691C13.2442 22.0515 13.566 21.7381 13.9842 21.7381C14.3541 21.7381 14.7036 22.0179 14.7376 22.7182ZM22.1088 23.7052H22.0744L20.5399 19.9773H19.711V24.7055H20.3276V21.3579H20.3891L21.7869 24.7055H22.2251L23.6228 21.2779H23.6846V24.7055H24.4244V19.9773H23.5748L22.1088 23.7052ZM25.1781 23.0382C25.1781 21.8712 25.8358 21.2912 26.74 21.2912C27.6444 21.2912 28.3022 21.8712 28.3022 23.0382C28.3022 24.1787 27.6787 24.7856 26.74 24.7856C25.8014 24.7856 25.1781 24.1787 25.1781 23.0382ZM27.5827 23.0382C27.5827 22.1381 27.2057 21.7581 26.74 21.7581C26.2878 21.7581 25.8973 22.1381 25.8973 23.0382C25.8973 23.9521 26.2537 24.3186 26.74 24.3186C27.2263 24.3186 27.5827 23.9521 27.5827 23.0382ZM30.6994 21.2912C29.912 21.2912 29.2609 21.6046 28.9527 21.7847V24.7055H29.6653V22.0648C29.8776 21.9449 30.227 21.8246 30.5012 21.8246C30.8505 21.8246 31.1174 21.9181 31.1174 22.4449V24.7055H31.8299V22.2913C31.8299 21.6046 31.5219 21.2912 30.6994 21.2912ZM35.3031 23.9718V24.4786C34.995 24.6522 34.5841 24.7856 34.0906 24.7856C32.9399 24.7856 32.4671 24.092 32.4671 23.0382C32.4671 22.0248 32.9948 21.2912 34.0223 21.2912C34.8788 21.2912 35.4064 21.8315 35.4064 22.9183V23.1649H33.173C33.173 23.965 33.5086 24.3186 34.2142 24.3186C34.5841 24.3186 34.9266 24.1919 35.3031 23.9718ZM33.1867 22.7182H34.7554C34.7213 22.0179 34.3716 21.7381 34.0017 21.7381C33.5837 21.7381 33.2621 22.0515 33.1867 22.7182ZM38.8043 21.4045H38.0713L37.29 23.8584H37.2492L36.3723 21.4045H35.6186L36.934 24.7388C36.7693 25.2321 36.4819 25.5925 36.0161 25.5925V26.1391C36.8035 26.1391 37.2215 25.6592 37.5642 24.7388L38.8043 21.4045Z" fill="#0068A3"/>
<path fill-rule="evenodd" clip-rule="evenodd" d="M22.2763 6C23.2191 6 24.1119 6.21371 24.9071 6.59311C25.032 6.65079 25.1566 6.71424 25.2815 6.78429L24.7288 7.26584L23.8983 6.43L22.4967 7.6469L21.6642 6.76247L19.0532 9.05332L20.7271 10.8489L20.0693 11.4121L21.718 13.2104L21.064 13.7723L23.4199 16.3248L24.8184 15.0716L26.0275 16.4146C25.787 16.5966 25.5251 16.7678 25.2364 16.9261C24.3621 17.4114 23.3516 17.6893 22.2763 17.6893C18.9692 17.6893 16.272 15.0635 16.272 11.8448C16.272 8.62543 18.9692 6 22.2763 6ZM21.182 11.4753L22.6098 10.2237L23.8955 11.6139L22.4678 12.865L21.182 11.4753ZM23.6252 12.6255L22.1973 13.8767L23.4832 15.2669L24.911 14.0153L23.6252 12.6255ZM20.1604 9.10189L21.5882 7.85068L22.8735 9.24047L21.4457 10.4917L20.1604 9.10189ZM23.8514 7.49003L22.7805 8.42835L23.7446 9.47104L24.8155 8.53237L23.8514 7.49003ZM24.6831 12.7271L25.7543 11.7884L26.7184 12.831L25.6476 13.7694L24.6831 12.7271ZM26.6958 13.8937L25.6252 14.8325L26.5893 15.8745L27.6601 14.9361L26.6958 13.8937ZM26.0564 10.0071L26.7703 9.38142L27.413 10.0763L26.6995 10.7019L26.0564 10.0071ZM25.8583 7.31678L25.1444 7.94233L25.787 8.63722L26.501 8.01168L25.8583 7.31678ZM26.9691 12.0717L27.683 11.4461L28.3258 12.1408L27.6119 12.7665L26.9691 12.0717ZM24.8382 9.58582L23.7675 10.5246L24.7318 11.5666L25.8023 10.6282L24.8382 9.58582Z" fill="#0068A3"/>
<rect x="0.5" y="0.5" width="45" height="31" rx="5.5" stroke="#EEF2F6"/>
</svg>
