<svg width="40" height="40" viewBox="0 0 40 40" fill="none" xmlns="http://www.w3.org/2000/svg">
<path d="M4 4C4 1.79086 5.79086 0 8 0H24L36 12V36C36 38.2091 34.2091 40 32 40H8C5.79086 40 4 38.2091 4 36V4Z" fill="#4B5565"/>
<path opacity="0.3" d="M24 0L36 12H28C25.7909 12 24 10.2091 24 8V0Z" fill="white"/>
<path d="M11.146 32V25.52H14.044C14.512 25.52 14.92 25.601 15.268 25.763C15.616 25.919 15.886 26.141 16.078 26.429C16.27 26.717 16.366 27.053 16.366 27.437C16.366 27.815 16.27 28.148 16.078 28.436C15.886 28.718 15.616 28.94 15.268 29.102C14.92 29.258 14.512 29.336 14.044 29.336H12.244V28.319H14.008C14.338 28.319 14.59 28.244 14.764 28.094C14.944 27.938 15.034 27.722 15.034 27.446C15.034 27.164 14.947 26.951 14.773 26.807C14.599 26.657 14.344 26.582 14.008 26.582H12.532V32H11.146ZM14.8 32L12.199 28.634H13.666L16.672 32H14.8Z" fill="white"/>
<path d="M16.9597 32L19.2817 25.52H20.4697L18.3367 32H16.9597ZM21.7117 32L19.5877 25.52H20.8297L23.1517 32H21.7117ZM18.1837 29.489H21.8197V30.569H18.1837V29.489Z" fill="white"/>
<path d="M23.6704 32V25.52H26.5684C27.0364 25.52 27.4444 25.601 27.7924 25.763C28.1404 25.919 28.4104 26.141 28.6024 26.429C28.7944 26.717 28.8904 27.053 28.8904 27.437C28.8904 27.815 28.7944 28.148 28.6024 28.436C28.4104 28.718 28.1404 28.94 27.7924 29.102C27.4444 29.258 27.0364 29.336 26.5684 29.336H24.7684V28.319H26.5324C26.8624 28.319 27.1144 28.244 27.2884 28.094C27.4684 27.938 27.5584 27.722 27.5584 27.446C27.5584 27.164 27.4714 26.951 27.2974 26.807C27.1234 26.657 26.8684 26.582 26.5324 26.582H25.0564V32H23.6704ZM27.3244 32L24.7234 28.634H26.1904L29.1964 32H27.3244Z" fill="white"/>
</svg>
