<svg width="40" height="40" viewBox="0 0 40 40" fill="none" xmlns="http://www.w3.org/2000/svg">
<path d="M4 4C4 1.79086 5.79086 0 8 0H24L36 12V36C36 38.2091 34.2091 40 32 40H8C5.79086 40 4 38.2091 4 36V4Z" fill="url(#paint0_linear_6726_49444)"/>
<path d="M24 0L36 12H28C25.7909 12 24 10.2091 24 8V0Z" fill="#CDD5DF"/>
<path d="M13.3376 32V31.064L16.9196 26.069L17.2526 26.582H13.4636V25.52H18.3326V26.456L14.8046 31.388L14.4896 30.938H18.3686V32H13.3376Z" fill="#4B5565"/>
<path d="M19.1405 32V25.52H20.5265V32H19.1405Z" fill="#4B5565"/>
<path d="M21.4257 32V25.52H24.5037C24.9837 25.52 25.3947 25.604 25.7367 25.772C26.0847 25.94 26.3517 26.174 26.5377 26.474C26.7297 26.774 26.8257 27.125 26.8257 27.527C26.8257 27.929 26.7297 28.283 26.5377 28.589C26.3457 28.895 26.0757 29.135 25.7277 29.309C25.3857 29.477 24.9777 29.561 24.5037 29.561H22.5237V28.499H24.4317C24.7497 28.499 24.9957 28.412 25.1697 28.238C25.3497 28.058 25.4397 27.824 25.4397 27.536C25.4397 27.248 25.3497 27.017 25.1697 26.843C24.9957 26.669 24.7497 26.582 24.4317 26.582H22.8117V32H21.4257Z" fill="#4B5565"/>
<defs>
<linearGradient id="paint0_linear_6726_49444" x1="20" y1="0" x2="20" y2="40" gradientUnits="userSpaceOnUse">
<stop stop-color="#F9FAFB"/>
<stop offset="1" stop-color="#EDF0F3"/>
</linearGradient>
</defs>
</svg>
