<svg width="32" height="32" viewBox="0 0 32 32" fill="none" xmlns="http://www.w3.org/2000/svg">
<g clip-path="url(#clip0_6726_48124)">
<path d="M12.2971 12.9829L10.1943 13.8514L12.0685 0L19.4743 4.02286L12.2971 12.9829Z" fill="url(#paint0_linear_6726_48124)"/>
<path d="M11.1086 19.2L12.2057 0L2.97143 5.80571L0 23.5429L11.1086 19.2Z" fill="url(#paint1_linear_6726_48124)"/>
<path d="M31.36 9.60003L27.2457 1.23431L19.4743 4.02289L13.76 10.3772L0 23.5429L10.3771 31.0857L23.4057 19.3372L31.36 9.60003Z" fill="url(#paint2_linear_6726_48124)"/>
<path d="M13.44 13.6685L11.6571 24.64L18.9714 30.2628L26.9714 32L32 20.5714L13.44 13.6685Z" fill="url(#paint3_linear_6726_48124)"/>
<path d="M6.1257 6.1257H25.8743V25.8743H6.1257V6.1257Z" fill="#222222"/>
<path d="M8 22.1714H15.4057V23.4057H8V22.1714Z" fill="white"/>
<path d="M7.86285 12.8457C7.86285 10.5143 9.6 8.59427 12.1143 8.59427C13.6686 8.59427 14.5829 9.09713 15.36 9.87427L14.2171 11.2C13.5771 10.6057 12.9371 10.2857 12.1143 10.2857C10.7429 10.2857 9.73714 11.4286 9.73714 12.8457V12.8C9.73714 14.2171 10.6971 15.36 12.1143 15.36C13.0286 15.36 13.6229 14.9943 14.2629 14.4L15.4057 15.5428C14.5829 16.4571 13.6229 17.0057 12.0686 17.0057C9.64571 17.0514 7.86285 15.1771 7.86285 12.8457Z" fill="white"/>
<path d="M16.64 8.73145H18.4228V15.4057H21.9886V16.9143H16.64V8.73145Z" fill="white"/>
</g>
<defs>
<linearGradient id="paint0_linear_6726_48124" x1="10.1732" y1="6.91977" x2="20.8704" y2="6.91977" gradientUnits="userSpaceOnUse">
<stop stop-color="#ED358C"/>
<stop offset="0.155" stop-color="#E9388C"/>
<stop offset="0.297" stop-color="#DE418C"/>
<stop offset="0.433" stop-color="#CC508C"/>
<stop offset="0.566" stop-color="#B2658D"/>
<stop offset="0.697" stop-color="#90808D"/>
<stop offset="0.826" stop-color="#67A18E"/>
<stop offset="0.951" stop-color="#37C78F"/>
<stop offset="1" stop-color="#22D88F"/>
</linearGradient>
<linearGradient id="paint1_linear_6726_48124" x1="8.13714" y1="4.10606" x2="3.43086" y2="35.6869" gradientUnits="userSpaceOnUse">
<stop offset="0.091" stop-color="#22D88F"/>
<stop offset="0.903" stop-color="#029DE0"/>
</linearGradient>
<linearGradient id="paint2_linear_6726_48124" x1="29.1822" y1="2.9678" x2="-3.00937" y2="36.9669" gradientUnits="userSpaceOnUse">
<stop offset="0.091" stop-color="#22D88F"/>
<stop offset="0.903" stop-color="#029DE0"/>
</linearGradient>
<linearGradient id="paint3_linear_6726_48124" x1="18.3378" y1="22.5673" x2="30.5714" y2="24.3067" gradientUnits="userSpaceOnUse">
<stop offset="0.091" stop-color="#22D88F"/>
<stop offset="0.903" stop-color="#029DE0"/>
</linearGradient>
<clipPath id="clip0_6726_48124">
<rect width="32" height="32" fill="white"/>
</clipPath>
</defs>
</svg>
