<svg width="32" height="32" viewBox="0 0 32 32" fill="none" xmlns="http://www.w3.org/2000/svg">
<path d="M26.1824 10.2222L30.544 19.9123L24.3771 30.4471L9.56435 18.3781L17.1397 11.0766L26.1824 10.2222Z" fill="url(#paint0_linear_6726_48179)"/>
<path d="M19.8853 19.5415L24.3771 30.4475L10.6926 25.7435L9.56435 18.3785L19.8853 19.5415Z" fill="#BB4EFC"/>
<path d="M11.0999 4.31223L17.3975 7.53965L11.7298 24.7008L0.315426 24.5819L2.76754 19.1442L0.315426 12.1952L11.0999 4.31223Z" fill="#078EFC"/>
<path d="M19.0002 0.218964L21.9785 10.3538L0.315426 12.1952L7.20503 0.218964H19.0002Z" fill="url(#paint1_linear_6726_48179)"/>
<path d="M30.544 6.63724L17.8702 9.64524L0.315426 24.5819L11.6379 30.4475L21.4734 20.3076L30.544 6.63724Z" fill="url(#paint2_linear_6726_48179)"/>
<path d="M5.3536 5.25714H25.5058V25.4094H5.3536V5.25714Z" fill="#222222"/>
<path d="M7.36868 22.0841H14.9257V23.2933H7.36868V22.0841Z" fill="white"/>
<path d="M6.6775 11.8308V11.8061C6.59521 9.38557 8.49098 7.35632 10.9116 7.27449C10.9527 7.27312 10.9934 7.2722 11.0345 7.2722C12.2414 7.21049 13.4208 7.64477 14.2994 8.47449L13.1474 9.94009C12.5756 9.3586 11.7902 9.03723 10.9746 9.05094C9.56527 9.15426 8.5015 10.3716 8.58835 11.7819V11.8066C8.47041 13.2196 9.52047 14.4603 10.9335 14.5783C10.9906 14.5828 11.0482 14.586 11.1058 14.5869C11.7216 14.6052 12.3264 14.4201 12.827 14.0608V12.8082H10.987V11.1428H14.5961V14.9499C13.6302 15.8436 12.3625 16.3401 11.0464 16.341C8.68664 16.3972 6.72824 14.5293 6.67201 12.1696C6.66973 12.0567 6.67155 11.9437 6.6775 11.8308Z" fill="white"/>
<path d="M15.3641 11.8308V11.8061C15.2997 9.36729 17.2242 7.33803 19.6636 7.27358C22.1029 7.20912 24.1317 9.13369 24.1961 11.573C24.198 11.6425 24.198 11.7124 24.1966 11.7819V11.8066C24.261 14.2455 22.3365 16.2747 19.8972 16.3392C17.4583 16.4036 15.429 14.4791 15.3646 12.0397C15.3628 11.9703 15.3628 11.9008 15.3641 11.8308ZM22.2857 11.8308V11.8061C22.3708 10.3707 21.2759 9.13872 19.8405 9.05369C19.8162 9.05232 19.7925 9.0514 19.7682 9.05049C18.3529 9.08615 17.2348 10.2619 17.2704 11.6772C17.2713 11.712 17.2727 11.7467 17.275 11.7819V11.8066C17.19 13.242 18.2848 14.474 19.7202 14.5591C19.7445 14.5604 19.7682 14.5613 19.7925 14.5623C21.2078 14.5266 22.326 13.3508 22.2903 11.9355C22.2894 11.9008 22.288 11.8656 22.2857 11.8308Z" fill="white"/>
<defs>
<linearGradient id="paint0_linear_6726_48179" x1="24.7787" y1="12.508" x2="16.2258" y2="25.5487" gradientUnits="userSpaceOnUse">
<stop offset="0.174" stop-color="#078EFC"/>
<stop offset="0.204" stop-color="#118AFC"/>
<stop offset="0.435" stop-color="#5971FC"/>
<stop offset="0.627" stop-color="#8E5EFC"/>
<stop offset="0.77" stop-color="#AF52FC"/>
<stop offset="0.849" stop-color="#BB4EFC"/>
</linearGradient>
<linearGradient id="paint1_linear_6726_48179" x1="3.30725" y1="13.7758" x2="20.6523" y2="0.726535" gradientUnits="userSpaceOnUse">
<stop offset="0.174" stop-color="#078EFC"/>
<stop offset="0.204" stop-color="#118AFC"/>
<stop offset="0.435" stop-color="#5971FC"/>
<stop offset="0.627" stop-color="#8E5EFC"/>
<stop offset="0.77" stop-color="#AF52FC"/>
<stop offset="0.849" stop-color="#BB4EFC"/>
</linearGradient>
<linearGradient id="paint2_linear_6726_48179" x1="4.51511" y1="26.6258" x2="26.3208" y2="12.6137" gradientUnits="userSpaceOnUse">
<stop stop-color="#078EFC"/>
<stop offset="0.106" stop-color="#15A7D3"/>
<stop offset="0.228" stop-color="#23BFAA"/>
<stop offset="0.348" stop-color="#2DD28B"/>
<stop offset="0.463" stop-color="#35DF74"/>
<stop offset="0.573" stop-color="#39E767"/>
<stop offset="0.67" stop-color="#3BEA62"/>
</linearGradient>
</defs>
</svg>
