<svg width="32" height="32" viewBox="0 0 32 32" fill="none" xmlns="http://www.w3.org/2000/svg">
<g clip-path="url(#clip0_6726_48282)">
<path d="M28.0228 0.411447C27.2457 0.0457328 26.3771 -0.0456958 25.5086 0.0457328C25.3714 0.0457328 4.79999 1.78288 4.79999 1.78288L19.3371 18.9257L21.9886 19.0629L30.3086 10.0572C33.0971 7.26859 32.5028 2.28573 28.0228 0.411447Z" fill="url(#paint0_linear_6726_48282)"/>
<path d="M24.5029 21.5772L23.9086 22.4915L16.5943 13.5772L9.50861 18.3314L21.2572 31.0857C21.4857 31.3143 21.8057 31.4972 22.1257 31.68C22.7657 32 23.4972 32.0915 24.2286 31.8629C24.9143 31.68 25.4172 31.3143 25.8286 30.9029C25.8743 30.8572 30.7657 26.0115 30.7657 26.0115L24.5029 21.5772Z" fill="url(#paint1_linear_6726_48282)"/>
<path d="M20.8914 19.0172L8.96001 3.84001C8.45716 3.10858 7.68001 2.51429 6.6743 2.10287C5.89716 1.78287 4.98287 1.69144 4.16001 1.87429C-0.228559 2.83429 -1.23427 7.63429 1.60001 10.1943L9.8743 18.6972L20.8914 19.0172Z" fill="url(#paint2_linear_6726_48282)"/>
<path d="M28.8914 18.5143C27.3372 18.0571 26.4686 18.1943 24.4114 18.1485L7.04001 15.68L2.05715 20.4343C-1.09713 23.5428 -0.594278 28.9828 4.06858 31.3143C5.25715 31.9086 6.58287 32.0914 7.81715 31.9086C16.64 30.2628 27.7029 27.6114 27.7943 27.6114C27.9772 27.5657 28.2057 27.52 28.3886 27.4743C31.2686 26.6057 32.4572 23.9085 31.7714 21.6228C31.4057 20.3428 30.4 18.9714 28.8914 18.5143Z" fill="url(#paint3_linear_6726_48282)"/>
<path d="M6.12567 6.1257H25.8742V25.8743H6.12567V6.1257Z" fill="#222222"/>
<path d="M7.95428 8.73145H9.78286V12.0229H13.1657V8.73145H14.9943V17.0057H13.1657V13.6686H9.78286V17.0057H7.95428V8.73145Z" fill="white"/>
<path d="M16.32 8.73145H20.16C21.12 8.73145 21.8514 9.00573 22.3086 9.46287C22.6743 9.82859 22.8571 10.2857 22.8571 10.88V10.9257C22.8571 11.84 22.3543 12.3886 21.76 12.7086C22.72 13.0743 23.3143 13.6229 23.3143 14.7657V14.8114C23.3143 16.32 22.08 17.0972 20.2057 17.0972H16.2743V8.73145H16.32ZM21.12 11.1543C21.12 10.6057 20.7086 10.2857 19.9314 10.2857H18.1486V12.0229H19.84C20.6171 12.0686 21.12 11.7943 21.12 11.1543ZM20.2057 13.5772H18.1029V15.4057H20.2514C21.0743 15.4057 21.5314 15.1314 21.5314 14.4914V14.4457C21.5771 13.9429 21.1657 13.5772 20.2057 13.5772Z" fill="white"/>
<path d="M8 22.1714H15.4057V23.4057H8V22.1714Z" fill="white"/>
</g>
<defs>
<linearGradient id="paint0_linear_6726_48282" x1="18.4754" y1="0.406419" x2="18.096" y2="17.9767" gradientUnits="userSpaceOnUse">
<stop offset="0.328" stop-color="#00B8F1"/>
<stop offset="0.973" stop-color="#9758FB"/>
</linearGradient>
<linearGradient id="paint1_linear_6726_48282" x1="26.672" y1="29.2649" x2="5.45466" y2="6.23362" gradientUnits="userSpaceOnUse">
<stop stop-color="#FFEE45"/>
<stop offset="1" stop-color="#9758FB"/>
</linearGradient>
<linearGradient id="paint2_linear_6726_48282" x1="14.1829" y1="4.33784" x2="9.77921" y2="13.7518" gradientUnits="userSpaceOnUse">
<stop offset="0.328" stop-color="#00B8F1"/>
<stop offset="0.79" stop-color="#9758FB"/>
</linearGradient>
<linearGradient id="paint3_linear_6726_48282" x1="-1.48982" y1="23.8281" x2="31.4588" y2="23.8281" gradientUnits="userSpaceOnUse">
<stop stop-color="#00B8F1"/>
<stop offset="0.306" stop-color="#9758FB"/>
<stop offset="0.989" stop-color="#FFEE45"/>
</linearGradient>
<clipPath id="clip0_6726_48282">
<rect width="32" height="32" fill="white"/>
</clipPath>
</defs>
</svg>
