<svg width="32" height="32" viewBox="0 0 32 32" fill="none" xmlns="http://www.w3.org/2000/svg">
<g clip-path="url(#clip0_6726_48191)">
<path d="M18.1029 6.94857L16.5943 2.37714L5.44 0L0 6.17143L17.0057 14.8571L18.1029 6.94857Z" fill="url(#paint0_linear_6726_48191)"/>
<path d="M12.8 18.9257L12.48 9.41713L0 6.17142L3.06286 24.5028L12.8 24.4114V18.9257Z" fill="url(#paint1_linear_6726_48191)"/>
<path d="M10.1029 18.7429L10.6972 11.2L19.7486 1.92001L27.84 3.38287L32 13.76L27.6572 18.0572L20.5714 16.9143L16.1829 21.5314L10.1029 18.7429Z" fill="url(#paint2_linear_6726_48191)"/>
<path d="M19.7486 1.92001L6.76572 13.44L9.28001 28.2514L20.0686 32L32 24.8686L19.7486 1.92001Z" fill="url(#paint3_linear_6726_48191)"/>
<path d="M6.1257 6.1257H25.8743V25.8743H6.1257V6.1257Z" fill="#222222"/>
<path d="M8 22.1714H15.4057V23.4057H8V22.1714Z" fill="white"/>
<path d="M7.90855 8.68573H11.2457C13.2114 8.68573 14.4 9.82859 14.4 11.52V11.5657C14.4 13.4857 12.9371 14.4457 11.0628 14.4457H9.6914V16.9143H7.90855V8.68573ZM11.1543 12.8C12.0685 12.8 12.5714 12.2514 12.5714 11.5657V11.52C12.5714 10.6972 12.0228 10.2857 11.1085 10.2857H9.73712V12.8H11.1543Z" fill="white"/>
<path d="M14.8571 15.7257L15.9086 14.4457C16.64 15.04 17.4171 15.4514 18.3771 15.4514C19.1086 15.4514 19.5657 15.1771 19.5657 14.6742V14.6285C19.5657 14.1714 19.2914 13.9428 17.92 13.5771C16.2743 13.1657 15.1771 12.7085 15.1771 11.0628V11.0171C15.1771 9.50852 16.3657 8.54852 18.0571 8.54852C19.2457 8.54852 20.2971 8.91424 21.12 9.59995L20.16 10.9714C19.4286 10.4685 18.6971 10.1485 18.0114 10.1485C17.3257 10.1485 16.96 10.4685 16.96 10.88V10.9257C16.96 11.4742 17.3257 11.6571 18.7429 12.0228C20.3886 12.48 21.3486 13.0742 21.3486 14.4914V14.5371C21.3486 16.1828 20.1143 17.0971 18.3314 17.0971C17.0971 17.0514 15.8629 16.5942 14.8571 15.7257Z" fill="white"/>
</g>
<defs>
<linearGradient id="paint0_linear_6726_48191" x1="0.255085" y1="21.4153" x2="13.6901" y2="3.66903" gradientUnits="userSpaceOnUse">
<stop offset="0.016" stop-color="#765AF8"/>
<stop offset="0.382" stop-color="#B345F1"/>
<stop offset="0.758" stop-color="#FA3293"/>
<stop offset="0.941" stop-color="#FF318C"/>
</linearGradient>
<linearGradient id="paint1_linear_6726_48191" x1="1.248" y1="22.1161" x2="14.6615" y2="4.39816" gradientUnits="userSpaceOnUse">
<stop offset="0.016" stop-color="#765AF8"/>
<stop offset="0.382" stop-color="#B345F1"/>
<stop offset="0.758" stop-color="#FA3293"/>
<stop offset="0.941" stop-color="#FF318C"/>
</linearGradient>
<linearGradient id="paint2_linear_6726_48191" x1="23.2489" y1="21.2137" x2="15.6681" y2="3.22196" gradientUnits="userSpaceOnUse">
<stop offset="0.183" stop-color="#765AF8"/>
<stop offset="0.238" stop-color="#8655F6"/>
<stop offset="0.345" stop-color="#9F4CF3"/>
<stop offset="0.443" stop-color="#AE47F2"/>
<stop offset="0.522" stop-color="#B345F1"/>
</linearGradient>
<linearGradient id="paint3_linear_6726_48191" x1="28.9216" y1="26.2121" x2="11.2905" y2="12.5788" gradientUnits="userSpaceOnUse">
<stop offset="0.016" stop-color="#765AF8"/>
<stop offset="0.382" stop-color="#B345F1"/>
</linearGradient>
<clipPath id="clip0_6726_48191">
<rect width="32" height="32" fill="white"/>
</clipPath>
</defs>
</svg>
