<svg width="32" height="32" viewBox="0 0 32 32" fill="none" xmlns="http://www.w3.org/2000/svg">
<g clip-path="url(#clip0_6726_48321)">
<path d="M27.6572 10.9715L4.38861 12.2972L4.25146 3.38289L25.2343 0.0914612L27.6572 10.9715Z" fill="url(#paint0_linear_6726_48321)"/>
<path d="M9.28003 19.7485L16.7772 10.24L8.64003 4.66282C7.22288 3.38282 5.07431 2.83425 2.88003 3.74854C1.78288 4.20568 0.914313 5.07425 0.45717 6.17139C-0.50283 8.45711 0.0914555 10.6971 1.55431 12.0685L9.28003 19.7485Z" fill="url(#paint1_linear_6726_48321)"/>
<path d="M9.28003 19.7486L20.8 31.1314L27.9772 17.7371L16.7772 10.24L9.28003 19.7486Z" fill="url(#paint2_linear_6726_48321)"/>
<path d="M24.64 16.7314L5.48573 15.8171C4.7543 15.68 3.93145 15.7257 3.06288 16.0914C2.24002 16.4571 1.60002 17.0514 1.28002 17.8743C0.320018 20.1143 1.46288 22.2629 3.33716 22.9943L20.48 31.0857C20.7086 31.2229 21.8514 31.5429 21.8514 31.5429C22.7657 31.8171 23.7714 31.9543 24.6857 31.9543C25.8286 31.9543 27.1086 31.6343 28.3886 30.9943C29.5772 30.4 30.3086 29.44 30.9486 28.2514C31.7257 26.88 31.9543 25.6 31.9543 24.32C31.9086 20.3429 28.6172 17.0057 24.64 16.7314Z" fill="url(#paint3_linear_6726_48321)"/>
<path d="M23.8171 0.50287C23.4971 0.640013 23.1771 0.82287 22.9028 1.00573L12.2971 9.00573L17.5543 16.6857L29.0743 10.24C29.9428 9.82858 30.6285 9.09715 31.04 8.2743C33.6 3.33716 28.8457 -1.59999 23.8171 0.50287Z" fill="url(#paint4_linear_6726_48321)"/>
<path d="M6.62856 22.7657L17.5543 16.6857L12.2971 9.00574L2.23999 16.5486L6.62856 22.7657Z" fill="#905CFB"/>
<path d="M9.32573 25.7829V16L5.48573 15.8171C4.7543 15.68 3.93145 15.7257 3.06288 16.0914C2.24002 16.4571 1.60002 17.0514 1.28002 17.8743C0.320018 20.1143 1.46288 22.2629 3.33716 22.9943H3.38288L9.32573 25.7829Z" fill="url(#paint5_linear_6726_48321)"/>
<path d="M6.12567 6.1257H25.8742V25.8743H6.12567V6.1257Z" fill="#222222"/>
<path d="M8 13.44V8.68573H9.82857V13.3943C9.82857 14.7657 10.5143 15.4514 11.6114 15.4514C12.7086 15.4514 13.3943 14.7657 13.3943 13.44V8.68573H15.2229V13.3486C15.2229 15.8629 13.8057 17.0972 11.5657 17.0972C9.37143 17.1429 8 15.8629 8 13.44Z" fill="white"/>
<path d="M16.1829 8.68573H19.5657C21.5314 8.68573 22.72 9.8743 22.72 11.5657V11.6114C22.72 13.5314 21.2114 14.5372 19.3829 14.5372H18.0114V17.0057H16.1829V8.68573ZM19.4743 12.8914C20.3886 12.8914 20.9371 12.3429 20.9371 11.6572V11.6114C20.9371 10.7886 20.3886 10.3772 19.4743 10.3772H18.0571V12.8914H19.4743Z" fill="white"/>
<path d="M8 22.1714H15.4057V23.4057H8V22.1714Z" fill="white"/>
</g>
<defs>
<linearGradient id="paint0_linear_6726_48321" x1="29.6746" y1="5.03318" x2="8.00598" y2="8.28346" gradientUnits="userSpaceOnUse">
<stop stop-color="#FF8200"/>
<stop offset="0.973" stop-color="#905CFB"/>
</linearGradient>
<linearGradient id="paint1_linear_6726_48321" x1="7.16574" y1="15.9094" x2="9.1854" y2="4.62625" gradientUnits="userSpaceOnUse">
<stop stop-color="#0CB0F2"/>
<stop offset="0.973" stop-color="#905CFB"/>
</linearGradient>
<linearGradient id="paint2_linear_6726_48321" x1="26.6675" y1="24.533" x2="12.3328" y2="17.5323" gradientUnits="userSpaceOnUse">
<stop stop-color="#0CB0F2"/>
<stop offset="0.973" stop-color="#905CFB"/>
</linearGradient>
<linearGradient id="paint3_linear_6726_48321" x1="27.7385" y1="25.6265" x2="3.36093" y2="16.8626" gradientUnits="userSpaceOnUse">
<stop stop-color="#0CB0F2"/>
<stop offset="0.973" stop-color="#905CFB"/>
</linearGradient>
<linearGradient id="paint4_linear_6726_48321" x1="29.3458" y1="2.71316" x2="8.46809" y2="19.5401" gradientUnits="userSpaceOnUse">
<stop stop-color="#FF8200"/>
<stop offset="0.973" stop-color="#905CFB"/>
</linearGradient>
<linearGradient id="paint5_linear_6726_48321" x1="13.9191" y1="22.5111" x2="1.03545" y2="17.9323" gradientUnits="userSpaceOnUse">
<stop stop-color="#0CB0F2"/>
<stop offset="0.973" stop-color="#905CFB"/>
</linearGradient>
<clipPath id="clip0_6726_48321">
<rect width="32" height="32" fill="white"/>
</clipPath>
</defs>
</svg>
