<svg width="32" height="32" viewBox="0 0 32 32" fill="none" xmlns="http://www.w3.org/2000/svg">
<path fill-rule="evenodd" clip-rule="evenodd" d="M15 24.1429C22.732 24.1429 29 19.8576 29 14.5714C29 9.28527 22.732 5 15 5C7.26801 5 1 9.28527 1 14.5714C1 19.8576 7.26801 24.1429 15 24.1429ZM16.89 21.7142C22.6503 21.7142 27.32 19.8571 27.32 15.2142C27.32 10.5714 22.6503 8.71424 16.89 8.71424C11.1297 8.71424 6.45999 11.6244 6.45999 15.2142C6.45999 18.8041 11.1297 21.7142 16.89 21.7142Z" fill="url(#paint0_linear_6726_48404)"/>
<path fill-rule="evenodd" clip-rule="evenodd" d="M22.7 19.7143H22.28L23.2246 20.0999C23.9719 20.4049 24.5934 20.9634 24.9843 21.6814L27.88 27H22.56L20.0715 22.1755C19.8657 21.7764 19.5876 21.4207 19.2521 21.1272L19.0946 20.9894C18.8916 20.8119 18.633 20.7143 18.3657 20.7143H17.24V27H12.48V10.9286L22.7 10.876C24.52 10.876 26.48 12.8046 26.48 15.2952C26.48 17.7857 24.52 19.7143 22.7 19.7143ZM17.38 14.4286L20.32 14.4304C21.022 14.4676 21.58 15.0602 21.58 15.7857C21.58 16.5113 21.022 17.1057 20.32 17.1429H17.38V14.4286Z" fill="url(#paint1_linear_6726_48404)"/>
<defs>
<linearGradient id="paint0_linear_6726_48404" x1="3.87" y1="9.14286" x2="29.1096" y2="17.8242" gradientUnits="userSpaceOnUse">
<stop stop-color="#C8CBCD"/>
<stop offset="1" stop-color="#88888F"/>
</linearGradient>
<linearGradient id="paint1_linear_6726_48404" x1="27.88" y1="27" x2="9.79786" y2="11.8609" gradientUnits="userSpaceOnUse">
<stop stop-color="#185DAC"/>
<stop offset="1" stop-color="#2F72C4"/>
</linearGradient>
</defs>
</svg>
