<svg width="40" height="40" viewBox="0 0 40 40" fill="none" xmlns="http://www.w3.org/2000/svg">
<path fill-rule="evenodd" clip-rule="evenodd" d="M16.08 26.9296H13.07V17.2696H16.08V26.9296ZM14.54 16.0796C13.63 16.0796 13 15.4496 13 14.6096C13 13.7696 13.63 13.1396 14.61 13.1396C15.59 13.1396 16.15 13.7696 16.15 14.6096C16.15 15.4496 15.59 16.0796 14.54 16.0796ZM27 26.9296H23.99V21.6096C23.99 20.3496 23.57 19.5096 22.45 19.5096C21.61 19.5096 21.12 20.0696 20.91 20.6296C20.84 20.8396 20.84 21.1196 20.84 21.3996V26.9296H17.83V20.3496C17.83 19.1596 17.76 18.1796 17.76 17.2696H20.35L20.49 18.5996H20.56C20.98 17.9696 21.89 17.0596 23.5 17.0596C25.46 17.0596 26.93 18.3896 26.93 21.1896V26.9296H27Z" fill="#171717"/>
<rect x="0.5" y="0.5" width="39" height="39" rx="19.5" stroke="#E5E5E5"/>
</svg>
