<svg width="40" height="40" viewBox="0 0 40 40" fill="none" xmlns="http://www.w3.org/2000/svg">
<path fill-rule="evenodd" clip-rule="evenodd" d="M25.6 17.1301V17.4801C25.6 21.2601 22.73 25.6701 17.41 25.6701C15.8 25.6701 14.26 25.1801 13 24.4101C13.21 24.4101 13.49 24.4801 13.7 24.4801C15.03 24.4801 16.29 23.9901 17.27 23.2201C16.01 23.2201 14.96 22.3801 14.61 21.2601C14.82 21.2601 14.96 21.3301 15.17 21.3301C15.45 21.3301 15.73 21.3301 15.94 21.2601C14.61 20.9801 13.7 19.8601 13.7 18.4601V18.3901C13.7 18.6001 14.47 18.7401 14.96 18.7401C14.19 18.2501 13.63 17.3401 13.63 16.3601C13.63 15.8001 13.77 15.3101 14.05 14.8901C15.45 16.6401 17.55 17.7601 20 17.9001C19.86 17.6201 19.79 17.4101 19.79 17.2001C19.79 15.5901 21.05 14.3301 22.66 14.3301C23.5 14.3301 24.2 14.6801 24.76 15.2401C25.39 15.1001 26.02 14.8901 26.58 14.5401C26.37 15.2401 25.88 15.8001 25.32 16.1501C25.88 16.0801 26.44 15.9401 27 15.7301C26.58 16.2201 26.16 16.7101 25.6 17.1301Z" fill="#171717"/>
<rect x="0.5" y="0.5" width="39" height="39" rx="19.5" stroke="#E5E5E5"/>
</svg>
