<svg width="40" height="40" viewBox="0 0 40 40" fill="none" xmlns="http://www.w3.org/2000/svg">
<path d="M26.707 16.6084C26.6279 16.3106 26.472 16.0388 26.255 15.8201C26.0379 15.6014 25.7672 15.4436 25.47 15.3624C24.379 15.0684 20 15.0684 20 15.0684C20 15.0684 15.622 15.0684 14.53 15.3624C14.2328 15.4438 13.9621 15.6017 13.7449 15.8203C13.5277 16.0389 13.3715 16.3106 13.292 16.6084C13 17.7074 13 20.0004 13 20.0004C13 20.0004 13 22.2934 13.292 23.3924C13.3713 23.6901 13.5274 23.9618 13.7447 24.1803C13.9619 24.3987 14.2327 24.5564 14.53 24.6374C15.622 24.9324 20 24.9324 20 24.9324C20 24.9324 24.378 24.9324 25.469 24.6374C25.7663 24.5567 26.0372 24.3991 26.2543 24.1806C26.4714 23.962 26.6272 23.6902 26.706 23.3924C27 22.2934 27 20.0004 27 20.0004C27 20.0004 27 17.7074 26.707 16.6084ZM18.568 22.0824V17.9184L22.228 20.0004L18.568 22.0824Z" fill="#171717"/>
<rect x="0.5" y="0.5" width="39" height="39" rx="19.5" stroke="#E5E5E5"/>
</svg>
