<svg width="825" height="344" viewBox="0 0 825 344" fill="none" xmlns="http://www.w3.org/2000/svg">
<g opacity="0.04">
<path d="M81.6626 194.831V182.792L117.78 202.536L137.284 191.219L147.397 198.202L117.78 216.02L81.6626 194.831Z" stroke="black" stroke-width="0.481568"/>
<path d="M173.883 178.939L163.047 172.92V147.878L117.298 122.114L72.0311 147.878V154.62L125.967 185.681L117.298 190.979L61.1958 158.473V141.618L117.298 108.39L173.883 141.618V178.939Z" stroke="black" stroke-width="0.481568"/>
<path d="M98.7583 157.51L87.4414 151.008L117.539 133.19L152.453 153.657V167.623L117.539 146.915L98.7583 157.51Z" stroke="black" stroke-width="0.481568"/>
<path d="M117.539 157.991L108.871 163.529L163.77 195.313V201.092L117.539 227.096L72.0311 201.092V176.532L61.1958 170.512V207.111L117.539 240.099L173.401 207.111V190.497L117.539 157.991Z" stroke="black" stroke-width="0.481568"/>
<path d="M199.165 194.831V182.792L235.283 202.536L254.786 191.219L264.899 198.202L235.283 216.02L199.165 194.831Z" fill="black" stroke="black" stroke-width="0.481568"/>
<path d="M291.385 178.939L280.55 172.92V147.878L234.801 122.114L189.534 147.878V154.62L243.469 185.681L234.801 190.979L178.698 158.473V141.618L234.801 108.39L291.385 141.618V178.939Z" fill="black" stroke="black" stroke-width="0.481568"/>
<path d="M216.261 157.51L204.944 151.008L235.042 133.19L269.956 153.657V167.623L235.042 146.915L216.261 157.51Z" fill="black" stroke="black" stroke-width="0.481568"/>
<path d="M235.042 157.991L226.373 163.529L281.272 195.313V201.092L235.042 227.096L189.534 201.092V176.532L178.698 170.512V207.111L235.042 240.099L290.904 207.111V190.497L235.042 157.991Z" fill="black" stroke="black" stroke-width="0.481568"/>
<path d="M316.668 194.831V182.792L352.786 202.536L372.289 191.219L382.402 198.202L352.786 216.02L316.668 194.831Z" stroke="black" stroke-width="0.481568"/>
<path d="M408.888 178.939L398.053 172.92V147.878L352.304 122.114L307.036 147.878V154.62L360.972 185.681L352.304 190.979L296.201 158.473V141.618L352.304 108.39L408.888 141.618V178.939Z" stroke="black" stroke-width="0.481568"/>
<path d="M333.764 157.51L322.447 151.008L352.545 133.19L387.458 153.657V167.623L352.545 146.915L333.764 157.51Z" stroke="black" stroke-width="0.481568"/>
<path d="M352.545 157.991L343.876 163.529L398.775 195.313V201.092L352.545 227.096L307.036 201.092V176.532L296.201 170.512V207.111L352.545 240.099L408.407 207.111V190.497L352.545 157.991Z" stroke="black" stroke-width="0.481568"/>
<path d="M434.171 194.831V182.792L470.289 202.536L489.792 191.219L499.905 198.202L470.289 216.02L434.171 194.831Z" stroke="black" stroke-width="0.481568"/>
<path d="M526.391 178.939L515.556 172.92V147.878L469.807 122.114L424.539 147.878V154.62L478.475 185.681L469.807 190.979L413.704 158.473V141.618L469.807 108.39L526.391 141.618V178.939Z" stroke="black" stroke-width="0.481568"/>
<path d="M451.266 157.51L439.949 151.008L470.047 133.19L504.961 153.657V167.623L470.047 146.915L451.266 157.51Z" stroke="black" stroke-width="0.481568"/>
<path d="M470.048 157.991L461.379 163.529L516.278 195.313V201.092L470.048 227.096L424.539 201.092V176.532L413.704 170.512V207.111L470.048 240.099L525.909 207.111V190.497L470.048 157.991Z" stroke="black" stroke-width="0.481568"/>
<path d="M551.673 194.831V182.792L587.79 202.536L607.294 191.219L617.407 198.202L587.79 216.02L551.673 194.831Z" fill="black" stroke="black" stroke-width="0.481568"/>
<path d="M643.893 178.939L633.058 172.92V147.878L587.309 122.114L542.041 147.878V154.62L595.977 185.681L587.309 190.979L531.206 158.473V141.618L587.309 108.39L643.893 141.618V178.939Z" fill="black" stroke="black" stroke-width="0.481568"/>
<path d="M568.768 157.51L557.451 151.008L587.549 133.19L622.463 153.657V167.623L587.549 146.915L568.768 157.51Z" fill="black" stroke="black" stroke-width="0.481568"/>
<path d="M587.55 157.991L578.881 163.529L633.78 195.313V201.092L587.55 227.096L542.041 201.092V176.532L531.206 170.512V207.111L587.55 240.099L643.411 207.111V190.497L587.55 157.991Z" fill="black" stroke="black" stroke-width="0.481568"/>
<path d="M669.176 194.831V182.792L705.293 202.536L724.797 191.219L734.91 198.202L705.293 216.02L669.176 194.831Z" stroke="black" stroke-width="0.481568"/>
<path d="M761.396 178.939L750.561 172.92V147.878L704.812 122.114L659.544 147.878V154.62L713.48 185.681L704.812 190.979L648.709 158.473V141.618L704.812 108.39L761.396 141.618V178.939Z" stroke="black" stroke-width="0.481568"/>
<path d="M686.271 157.51L674.954 151.008L705.052 133.19L739.966 153.657V167.623L705.052 146.915L686.271 157.51Z" stroke="black" stroke-width="0.481568"/>
<path d="M705.052 157.991L696.384 163.529L751.283 195.313V201.092L705.052 227.096L659.544 201.092V176.532L648.709 170.512V207.111L705.052 240.099L760.914 207.111V190.497L705.052 157.991Z" stroke="black" stroke-width="0.481568"/>
<path d="M26.7642 87.4415V75.4023L62.8818 95.1466L82.3853 83.8298L92.4982 90.8125L62.8818 108.631L26.7642 87.4415Z" stroke="black" stroke-width="0.481568"/>
<path d="M118.984 71.5497L108.149 65.5301V40.4886L62.4001 14.7247L17.1326 40.4886V47.2305L71.0683 78.2917L62.4001 83.5889L6.29736 51.0831V34.2282L62.4001 1L118.984 34.2282V71.5497Z" stroke="black" stroke-width="0.481568"/>
<path d="M43.8598 50.12L32.543 43.6188L62.641 25.8008L97.5547 46.2674V60.2329L62.641 39.5255L43.8598 50.12Z" stroke="black" stroke-width="0.481568"/>
<path d="M62.6408 50.6016L53.9726 56.1396L108.871 87.9231V93.7019L62.6408 119.707L17.1326 93.7019V69.1419L6.29736 63.1223V99.7215L62.6408 132.709L118.503 99.7215V83.1074L62.6408 50.6016Z" stroke="black" stroke-width="0.481568"/>
<path d="M144.267 87.4415V75.4023L180.384 95.1466L199.888 83.8298L210.001 90.8125L180.384 108.631L144.267 87.4415Z" stroke="black" stroke-width="0.481568"/>
<path d="M236.487 71.5497L225.651 65.5301V40.4886L179.902 14.7247L134.635 40.4886V47.2305L188.571 78.2917L179.902 83.5889L123.8 51.0831V34.2282L179.902 1L236.487 34.2282V71.5497Z" stroke="black" stroke-width="0.481568"/>
<path d="M161.362 50.12L150.045 43.6188L180.143 25.8008L215.057 46.2674V60.2329L180.143 39.5255L161.362 50.12Z" stroke="black" stroke-width="0.481568"/>
<path d="M180.143 50.6016L171.475 56.1396L226.374 87.9231V93.7019L180.143 119.707L134.635 93.7019V69.1419L123.8 63.1223V99.7215L180.143 132.709L236.005 99.7215V83.1074L180.143 50.6016Z" stroke="black" stroke-width="0.481568"/>
<path d="M261.77 87.4415V75.4023L297.887 95.1466L317.391 83.8298L327.504 90.8125L297.887 108.631L261.77 87.4415Z" stroke="black" stroke-width="0.481568"/>
<path d="M353.99 71.5497L343.154 65.5301V40.4886L297.405 14.7247L252.138 40.4886V47.2305L306.074 78.2917L297.405 83.5889L241.303 51.0831V34.2282L297.405 1L353.99 34.2282V71.5497Z" stroke="black" stroke-width="0.481568"/>
<path d="M278.865 50.12L267.548 43.6188L297.646 25.8008L332.56 46.2674V60.2329L297.646 39.5255L278.865 50.12Z" stroke="black" stroke-width="0.481568"/>
<path d="M297.646 50.6016L288.978 56.1396L343.877 87.9231V93.7019L297.646 119.707L252.138 93.7019V69.1419L241.303 63.1223V99.7215L297.646 132.709L353.508 99.7215V83.1074L297.646 50.6016Z" stroke="black" stroke-width="0.481568"/>
<path d="M379.272 87.4415V75.4023L415.39 95.1466L434.894 83.8298L445.007 90.8125L415.39 108.631L379.272 87.4415Z" stroke="black" stroke-width="0.481568"/>
<path d="M471.493 71.5497L460.657 65.5301V40.4886L414.908 14.7247L369.641 40.4886V47.2305L423.577 78.2917L414.908 83.5889L358.806 51.0831V34.2282L414.908 1L471.493 34.2282V71.5497Z" stroke="black" stroke-width="0.481568"/>
<path d="M396.368 50.12L385.051 43.6188L415.149 25.8008L450.062 46.2674V60.2329L415.149 39.5255L396.368 50.12Z" stroke="black" stroke-width="0.481568"/>
<path d="M415.149 50.6016L406.481 56.1396L461.38 87.9231V93.7019L415.149 119.707L369.641 93.7019V69.1419L358.806 63.1223V99.7215L415.149 132.709L471.011 99.7215V83.1074L415.149 50.6016Z" stroke="black" stroke-width="0.481568"/>
<path d="M496.774 87.4415V75.4023L532.892 95.1466L552.396 83.8298L562.508 90.8125L532.892 108.631L496.774 87.4415Z" stroke="black" stroke-width="0.481568"/>
<path d="M588.995 71.5497L578.159 65.5301V40.4886L532.41 14.7247L487.143 40.4886V47.2305L541.079 78.2917L532.41 83.5889L476.308 51.0831V34.2282L532.41 1L588.995 34.2282V71.5497Z" stroke="black" stroke-width="0.481568"/>
<path d="M513.87 50.12L502.553 43.6188L532.651 25.8008L567.564 46.2674V60.2329L532.651 39.5255L513.87 50.12Z" stroke="black" stroke-width="0.481568"/>
<path d="M532.651 50.6016L523.983 56.1396L578.882 87.9231V93.7019L532.651 119.707L487.143 93.7019V69.1419L476.308 63.1223V99.7215L532.651 132.709L588.513 99.7215V83.1074L532.651 50.6016Z" stroke="black" stroke-width="0.481568"/>
<path d="M614.277 87.4415V75.4023L650.395 95.1466L669.898 83.8298L680.011 90.8125L650.395 108.631L614.277 87.4415Z" stroke="black" stroke-width="0.481568"/>
<path d="M706.497 71.5497L695.662 65.5301V40.4886L649.913 14.7247L604.646 40.4886V47.2305L658.581 78.2917L649.913 83.5889L593.811 51.0831V34.2282L649.913 1L706.497 34.2282V71.5497Z" stroke="black" stroke-width="0.481568"/>
<path d="M631.373 50.12L620.056 43.6188L650.154 25.8008L685.067 46.2674V60.2329L650.154 39.5255L631.373 50.12Z" stroke="black" stroke-width="0.481568"/>
<path d="M650.154 50.6016L641.486 56.1396L696.385 87.9231V93.7019L650.154 119.707L604.646 93.7019V69.1419L593.811 63.1223V99.7215L650.154 132.709L706.016 99.7215V83.1074L650.154 50.6016Z" stroke="black" stroke-width="0.481568"/>
<path d="M731.78 87.4415V75.4023L767.898 95.1466L787.401 83.8298L797.514 90.8125L767.898 108.631L731.78 87.4415Z" stroke="black" stroke-width="0.481568"/>
<path d="M824 71.5497L813.165 65.5301V40.4886L767.416 14.7247L722.149 40.4886V47.2305L776.084 78.2917L767.416 83.5889L711.313 51.0831V34.2282L767.416 1L824 34.2282V71.5497Z" stroke="black" stroke-width="0.481568"/>
<path d="M748.875 50.12L737.559 43.6188L767.657 25.8008L802.57 46.2674V60.2329L767.657 39.5255L748.875 50.12Z" stroke="black" stroke-width="0.481568"/>
<path d="M767.657 50.6016L758.989 56.1396L813.887 87.9231V93.7019L767.657 119.707L722.149 93.7019V69.1419L711.313 63.1223V99.7215L767.657 132.709L823.519 99.7215V83.1074L767.657 50.6016Z" stroke="black" stroke-width="0.481568"/>
<path d="M21.4668 298.368V286.329L57.5844 306.073L77.0879 294.757L87.2009 301.739L57.5844 319.557L21.4668 298.368Z" stroke="black" stroke-width="0.481568"/>
<path d="M113.687 282.476L102.852 276.457V251.415L57.1027 225.651L11.8353 251.415V258.157L65.7709 289.218L57.1027 294.516L1 262.01V245.155L57.1027 211.927L113.687 245.155V282.476Z" stroke="black" stroke-width="0.481568"/>
<path d="M38.5625 261.047L27.2456 254.546L57.3436 236.728L92.2573 257.194V271.16L57.3436 250.452L38.5625 261.047Z" stroke="black" stroke-width="0.481568"/>
<path d="M57.3435 261.528L48.6752 267.066L103.574 298.85V304.629L57.3435 330.633L11.8353 304.629V280.069L1 274.049V310.648L57.3435 343.636L113.205 310.648V294.034L57.3435 261.528Z" stroke="black" stroke-width="0.481568"/>
<path d="M138.969 298.368V286.329L175.087 306.073L194.59 294.757L204.703 301.739L175.087 319.557L138.969 298.368Z" stroke="black" stroke-width="0.481568"/>
<path d="M231.189 282.476L220.354 276.457V251.415L174.605 225.651L129.338 251.415V258.157L183.273 289.218L174.605 294.516L118.502 262.01V245.155L174.605 211.927L231.189 245.155V282.476Z" stroke="black" stroke-width="0.481568"/>
<path d="M156.065 261.047L144.748 254.546L174.846 236.728L209.76 257.194V271.16L174.846 250.452L156.065 261.047Z" stroke="black" stroke-width="0.481568"/>
<path d="M174.846 261.528L166.178 267.066L221.076 298.85V304.629L174.846 330.633L129.338 304.629V280.069L118.502 274.049V310.648L174.846 343.636L230.708 310.648V294.034L174.846 261.528Z" stroke="black" stroke-width="0.481568"/>
<path d="M256.472 298.368V286.329L292.59 306.073L312.093 294.757L322.206 301.739L292.59 319.557L256.472 298.368Z" stroke="black" stroke-width="0.481568"/>
<path d="M348.692 282.476L337.857 276.457V251.415L292.108 225.651L246.841 251.415V258.157L300.776 289.218L292.108 294.516L236.005 262.01V245.155L292.108 211.927L348.692 245.155V282.476Z" stroke="black" stroke-width="0.481568"/>
<path d="M273.568 261.047L262.251 254.546L292.349 236.728L327.263 257.194V271.16L292.349 250.452L273.568 261.047Z" stroke="black" stroke-width="0.481568"/>
<path d="M292.349 261.528L283.681 267.066L338.579 298.85V304.629L292.349 330.633L246.841 304.629V280.069L236.005 274.049V310.648L292.349 343.636L348.211 310.648V294.034L292.349 261.528Z" stroke="black" stroke-width="0.481568"/>
<path d="M373.975 298.368V286.329L410.092 306.073L429.596 294.757L439.709 301.739L410.092 319.557L373.975 298.368Z" stroke="black" stroke-width="0.481568"/>
<path d="M466.195 282.476L455.359 276.457V251.415L409.611 225.651L364.343 251.415V258.157L418.279 289.218L409.611 294.516L353.508 262.01V245.155L409.611 211.927L466.195 245.155V282.476Z" stroke="black" stroke-width="0.481568"/>
<path d="M391.07 261.047L379.753 254.546L409.851 236.728L444.765 257.194V271.16L409.851 250.452L391.07 261.047Z" stroke="black" stroke-width="0.481568"/>
<path d="M409.851 261.528L401.183 267.066L456.082 298.85V304.629L409.851 330.633L364.343 304.629V280.069L353.508 274.049V310.648L409.851 343.636L465.713 310.648V294.034L409.851 261.528Z" stroke="black" stroke-width="0.481568"/>
<path d="M491.478 298.368V286.329L527.595 306.073L547.099 294.757L557.212 301.739L527.595 319.557L491.478 298.368Z" stroke="black" stroke-width="0.481568"/>
<path d="M583.698 282.476L572.862 276.457V251.415L527.113 225.651L481.846 251.415V258.157L535.782 289.218L527.113 294.516L471.011 262.01V245.155L527.113 211.927L583.698 245.155V282.476Z" stroke="black" stroke-width="0.481568"/>
<path d="M508.573 261.047L497.256 254.546L527.354 236.728L562.268 257.194V271.16L527.354 250.452L508.573 261.047Z" stroke="black" stroke-width="0.481568"/>
<path d="M527.354 261.528L518.686 267.066L573.585 298.85V304.629L527.354 330.633L481.846 304.629V280.069L471.011 274.049V310.648L527.354 343.636L583.216 310.648V294.034L527.354 261.528Z" stroke="black" stroke-width="0.481568"/>
<path d="M608.98 298.368V286.329L645.098 306.073L664.602 294.757L674.715 301.739L645.098 319.557L608.98 298.368Z" stroke="black" stroke-width="0.481568"/>
<path d="M701.201 282.476L690.365 276.457V251.415L644.616 225.651L599.349 251.415V258.157L653.285 289.218L644.616 294.516L588.514 262.01V245.155L644.616 211.927L701.201 245.155V282.476Z" stroke="black" stroke-width="0.481568"/>
<path d="M626.076 261.047L614.759 254.546L644.857 236.728L679.77 257.194V271.16L644.857 250.452L626.076 261.047Z" stroke="black" stroke-width="0.481568"/>
<path d="M644.857 261.528L636.189 267.066L691.088 298.85V304.629L644.857 330.633L599.349 304.629V280.069L588.514 274.049V310.648L644.857 343.636L700.719 310.648V294.034L644.857 261.528Z" stroke="black" stroke-width="0.481568"/>
<path d="M726.482 298.368V286.329L762.6 306.073L782.104 294.757L792.216 301.739L762.6 319.557L726.482 298.368Z" stroke="black" stroke-width="0.481568"/>
<path d="M818.703 282.476L807.867 276.457V251.415L762.118 225.651L716.851 251.415V258.157L770.787 289.218L762.118 294.516L706.016 262.01V245.155L762.118 211.927L818.703 245.155V282.476Z" stroke="black" stroke-width="0.481568"/>
<path d="M743.579 261.047L732.262 254.546L762.36 236.728L797.273 257.194V271.16L762.36 250.452L743.579 261.047Z" stroke="black" stroke-width="0.481568"/>
<path d="M762.359 261.528L753.691 267.066L808.59 298.85V304.629L762.359 330.633L716.851 304.629V280.069L706.016 274.049V310.648L762.359 343.636L818.221 310.648V294.034L762.359 261.528Z" stroke="black" stroke-width="0.481568"/>
</g>
</svg>
