<svg width="40" height="40" viewBox="0 0 40 40" fill="none" xmlns="http://www.w3.org/2000/svg">
<path d="M4 4C4 1.79086 5.79086 0 8 0H24L36 12V36C36 38.2091 34.2091 40 32 40H8C5.79086 40 4 38.2091 4 36V4Z" fill="#3B549F"/>
<path opacity="0.3" d="M24 0L36 12H28C25.7909 12 24 10.2091 24 8V0Z" fill="white"/>
<path d="M10.4415 32V30.92H12.0795C12.5475 30.92 12.9435 30.827 13.2675 30.641C13.5975 30.449 13.8465 30.188 14.0145 29.858C14.1885 29.528 14.2755 29.15 14.2755 28.724C14.2755 28.304 14.1915 27.935 14.0235 27.617C13.8555 27.299 13.6065 27.05 13.2765 26.87C12.9525 26.69 12.5535 26.6 12.0795 26.6H10.4685V25.52H12.0795C12.8055 25.52 13.4385 25.652 13.9785 25.916C14.5185 26.174 14.9355 26.546 15.2295 27.032C15.5295 27.512 15.6795 28.082 15.6795 28.742C15.6795 29.402 15.5295 29.978 15.2295 30.47C14.9295 30.956 14.5095 31.334 13.9695 31.604C13.4355 31.868 12.8085 32 12.0885 32H10.4415ZM9.59546 32V25.52H10.9815V32H9.59546Z" fill="white"/>
<path d="M16.3982 32V25.52H18.5582L20.3582 31.766H19.5752L21.3752 25.52H23.5442V32H22.1762V25.907H22.4102L20.6552 32H19.2242L17.4872 25.961H17.7122V32H16.3982Z" fill="white"/>
<path d="M27.6442 32.09C26.9422 32.09 26.3392 31.952 25.8352 31.676C25.3312 31.4 24.9412 31.013 24.6652 30.515C24.3952 30.017 24.2602 29.435 24.2602 28.769C24.2602 28.109 24.3982 27.53 24.6742 27.032C24.9502 26.528 25.3312 26.135 25.8172 25.853C26.3092 25.571 26.8792 25.43 27.5272 25.43C28.0612 25.43 28.5382 25.526 28.9582 25.718C29.3842 25.91 29.7262 26.174 29.9842 26.51C30.2482 26.84 30.4042 27.224 30.4522 27.662H29.0662C29.0062 27.308 28.8382 27.032 28.5622 26.834C28.2922 26.63 27.9532 26.528 27.5452 26.528C27.1672 26.528 26.8372 26.618 26.5552 26.798C26.2732 26.972 26.0542 27.224 25.8982 27.554C25.7422 27.884 25.6642 28.28 25.6642 28.742C25.6642 29.222 25.7422 29.633 25.8982 29.975C26.0542 30.311 26.2822 30.569 26.5822 30.749C26.8882 30.923 27.2632 31.01 27.7072 31.01C28.0672 31.01 28.3732 30.965 28.6252 30.875C28.8772 30.785 29.0692 30.659 29.2012 30.497L30.5152 31.019C30.1672 31.367 29.7622 31.634 29.3002 31.82C28.8442 32 28.2922 32.09 27.6442 32.09ZM29.1292 31.019V29.237L29.4082 29.516H27.6982V28.454H30.5152V31.019H29.1292Z" fill="white"/>
</svg>
