<svg width="40" height="40" viewBox="0 0 40 40" fill="none" xmlns="http://www.w3.org/2000/svg">
<path d="M4 4C4 1.79086 5.79086 0 8 0H24L36 12V36C36 38.2091 34.2091 40 32 40H8C5.79086 40 4 38.2091 4 36V4Z" fill="url(#paint0_linear_6726_49588)"/>
<path d="M24 0L36 12H28C25.7909 12 24 10.2091 24 8V0Z" fill="#CDD5DF"/>
<path d="M10.6724 32.09C10.4444 32.09 10.2254 32.072 10.0154 32.036C9.8054 32.006 9.6524 31.967 9.5564 31.919V30.857C9.6644 30.899 9.7934 30.935 9.9434 30.965C10.0934 30.995 10.2464 31.01 10.4024 31.01C10.7384 31.01 10.9814 30.956 11.1314 30.848C11.2874 30.734 11.3654 30.53 11.3654 30.236V25.52H12.7514V30.299C12.7514 30.899 12.5744 31.349 12.2204 31.649C11.8664 31.943 11.3504 32.09 10.6724 32.09Z" fill="#4B5565"/>
<path d="M13.1365 32L15.4585 25.52H16.6465L14.5135 32H13.1365ZM17.8885 32L15.7645 25.52H17.0065L19.3285 32H17.8885ZM14.3605 29.489H17.9965V30.569H14.3605V29.489Z" fill="#4B5565"/>
<path d="M20.9517 32L18.6297 25.52H20.0697L21.8427 30.92H21.6717L23.4537 25.52H24.8217L22.4997 32H20.9517Z" fill="#4B5565"/>
<path d="M24.1228 32L26.4448 25.52H27.6328L25.4998 32H24.1228ZM28.8748 32L26.7508 25.52H27.9928L30.3148 32H28.8748ZM25.3468 29.489H28.9828V30.569H25.3468V29.489Z" fill="#4B5565"/>
<defs>
<linearGradient id="paint0_linear_6726_49588" x1="20" y1="0" x2="20" y2="40" gradientUnits="userSpaceOnUse">
<stop stop-color="#F9FAFB"/>
<stop offset="1" stop-color="#EDF0F3"/>
</linearGradient>
</defs>
</svg>
