<svg width="40" height="40" viewBox="0 0 40 40" fill="none" xmlns="http://www.w3.org/2000/svg">
<path d="M7.75 4C7.75 2.20508 9.20508 0.75 11 0.75H27C27.1212 0.75 27.2375 0.798159 27.3232 0.883885L38.1161 11.6768C38.2018 11.7625 38.25 11.8788 38.25 12V36C38.25 37.7949 36.7949 39.25 35 39.25H11C9.20507 39.25 7.75 37.7949 7.75 36V4Z" fill="white" stroke="#CDD5DF" stroke-width="1.5"/>
<path d="M27 0.5V8C27 10.2091 28.7909 12 31 12H38.5" stroke="#CDD5DF" stroke-width="1.5"/>
<rect x="1.354" y="18" width="18.2918" height="16" rx="2" fill="#3B549F"/>
<path d="M6.594 29.705C6.34067 29.705 6.09734 29.685 5.864 29.645C5.63067 29.6116 5.46067 29.5683 5.354 29.515V28.335C5.474 28.3816 5.61734 28.4216 5.784 28.455C5.95067 28.4883 6.12067 28.505 6.294 28.505C6.66734 28.505 6.93734 28.445 7.104 28.325C7.27734 28.1983 7.364 27.9716 7.364 27.645V22.405H8.904V27.715C8.904 28.3816 8.70734 28.8816 8.314 29.215C7.92067 29.5416 7.34734 29.705 6.594 29.705Z" fill="white"/>
<path d="M12.8058 29.695C11.8725 29.695 11.1258 29.4883 10.5658 29.075C10.0058 28.655 9.67913 28.065 9.5858 27.305H11.0658C11.1125 27.6916 11.2991 27.9983 11.6258 28.225C11.9525 28.445 12.3691 28.555 12.8758 28.555C13.2891 28.555 13.6058 28.4816 13.8258 28.335C14.0525 28.1883 14.1658 27.9916 14.1658 27.745C14.1658 27.5116 14.0991 27.325 13.9658 27.185C13.8325 27.0383 13.6025 26.9216 13.2758 26.835L11.9358 26.465C11.2491 26.2716 10.7458 26.0083 10.4258 25.675C10.1125 25.335 9.9558 24.9116 9.9558 24.405C9.9558 23.9716 10.0658 23.5983 10.2858 23.285C10.5125 22.965 10.8291 22.7216 11.2358 22.555C11.6425 22.3816 12.1191 22.295 12.6658 22.295C13.5058 22.295 14.1758 22.495 14.6758 22.895C15.1758 23.2883 15.4591 23.8116 15.5258 24.465H14.0458C13.9791 24.1116 13.8158 23.8516 13.5558 23.685C13.3025 23.5183 12.9758 23.435 12.5758 23.435C12.2291 23.435 11.9525 23.5016 11.7458 23.635C11.5391 23.7683 11.4358 23.9483 11.4358 24.175C11.4358 24.3483 11.4925 24.5083 11.6058 24.655C11.7191 24.795 11.9558 24.915 12.3158 25.015L13.6558 25.385C14.3625 25.5783 14.8691 25.845 15.1758 26.185C15.4891 26.5183 15.6458 26.9416 15.6458 27.455C15.6458 28.175 15.3958 28.7283 14.8958 29.115C14.3958 29.5016 13.6991 29.695 12.8058 29.695Z" fill="white"/>
</svg>
