<svg width="40" height="40" viewBox="0 0 40 40" fill="none" xmlns="http://www.w3.org/2000/svg">
<path d="M7.75 4C7.75 2.20508 9.20508 0.75 11 0.75H27C27.1212 0.75 27.2375 0.798159 27.3232 0.883885L38.1161 11.6768C38.2018 11.7625 38.25 11.8788 38.25 12V36C38.25 37.7949 36.7949 39.25 35 39.25H11C9.20507 39.25 7.75 37.7949 7.75 36V4Z" fill="white" stroke="#CDD5DF" stroke-width="1.5"/>
<path d="M27 0.5V8C27 10.2091 28.7909 12 31 12H38.5" stroke="#CDD5DF" stroke-width="1.5"/>
<rect x="1.40308" y="18" width="33.1937" height="16" rx="2" fill="#3B549F"/>
<path d="M6.64308 29.705C6.38974 29.705 6.14641 29.685 5.91308 29.645C5.67974 29.6116 5.50974 29.5683 5.40308 29.515V28.335C5.52308 28.3816 5.66641 28.4216 5.83308 28.455C5.99974 28.4883 6.16974 28.505 6.34308 28.505C6.71641 28.505 6.98641 28.445 7.15308 28.325C7.32641 28.1983 7.41308 27.9716 7.41308 27.645V22.405H8.95308V27.715C8.95308 28.3816 8.75641 28.8816 8.36308 29.215C7.96974 29.5416 7.39641 29.705 6.64308 29.705Z" fill="white"/>
<path d="M12.8549 29.695C11.9215 29.695 11.1749 29.4883 10.6149 29.075C10.0549 28.655 9.72821 28.065 9.63487 27.305H11.1149C11.1615 27.6916 11.3482 27.9983 11.6749 28.225C12.0015 28.445 12.4182 28.555 12.9249 28.555C13.3382 28.555 13.6549 28.4816 13.8749 28.335C14.1015 28.1883 14.2149 27.9916 14.2149 27.745C14.2149 27.5116 14.1482 27.325 14.0149 27.185C13.8815 27.0383 13.6515 26.9216 13.3249 26.835L11.9849 26.465C11.2982 26.2716 10.7949 26.0083 10.4749 25.675C10.1615 25.335 10.0049 24.9116 10.0049 24.405C10.0049 23.9716 10.1149 23.5983 10.3349 23.285C10.5615 22.965 10.8782 22.7216 11.2849 22.555C11.6915 22.3816 12.1682 22.295 12.7149 22.295C13.5549 22.295 14.2249 22.495 14.7249 22.895C15.2249 23.2883 15.5082 23.8116 15.5749 24.465H14.0949C14.0282 24.1116 13.8649 23.8516 13.6049 23.685C13.3515 23.5183 13.0249 23.435 12.6249 23.435C12.2782 23.435 12.0015 23.5016 11.7949 23.635C11.5882 23.7683 11.4849 23.9483 11.4849 24.175C11.4849 24.3483 11.5415 24.5083 11.6549 24.655C11.7682 24.795 12.0049 24.915 12.3649 25.015L13.7049 25.385C14.4115 25.5783 14.9182 25.845 15.2249 26.185C15.5382 26.5183 15.6949 26.9416 15.6949 27.455C15.6949 28.175 15.4449 28.7283 14.9449 29.115C14.4449 29.5016 13.7482 29.695 12.8549 29.695Z" fill="white"/>
<path d="M19.9083 29.705C19.375 29.705 18.8816 29.615 18.4283 29.435C17.9816 29.255 17.5916 29.0016 17.2583 28.675C16.9316 28.3416 16.675 27.9483 16.4883 27.495C16.3083 27.035 16.2183 26.5283 16.2183 25.975C16.2183 25.2416 16.375 24.6016 16.6883 24.055C17.0016 23.5016 17.435 23.0716 17.9883 22.765C18.5483 22.4583 19.185 22.305 19.8983 22.305C20.625 22.305 21.265 22.4583 21.8183 22.765C22.3716 23.0716 22.805 23.5016 23.1183 24.055C23.4383 24.6083 23.5983 25.2516 23.5983 25.985C23.5983 26.5316 23.505 27.035 23.3183 27.495C23.1383 27.9483 22.8816 28.3416 22.5483 28.675C22.2216 29.0016 21.8316 29.255 21.3783 29.435C20.9316 29.615 20.4416 29.705 19.9083 29.705ZM19.8983 28.485C20.3183 28.485 20.6883 28.3783 21.0083 28.165C21.3283 27.9516 21.5783 27.6583 21.7583 27.285C21.945 26.905 22.0383 26.465 22.0383 25.965C22.0383 25.4716 21.9483 25.0416 21.7683 24.675C21.5883 24.3083 21.3383 24.025 21.0183 23.825C20.6983 23.625 20.325 23.525 19.8983 23.525C19.4783 23.525 19.1083 23.625 18.7883 23.825C18.4683 24.025 18.2183 24.3083 18.0383 24.675C17.865 25.035 17.7783 25.465 17.7783 25.965C17.7783 26.4716 17.8683 26.915 18.0483 27.295C18.2283 27.6683 18.4783 27.9616 18.7983 28.175C19.1183 28.3816 19.485 28.485 19.8983 28.485Z" fill="white"/>
<path d="M24.3968 29.605V22.405H26.3868L29.5868 28.765L29.0968 28.885V22.405H30.5968V29.605H28.6068L25.4068 23.245L25.8968 23.125V29.605H24.3968Z" fill="white"/>
</svg>
