<svg width="40" height="40" viewBox="0 0 40 40" fill="none" xmlns="http://www.w3.org/2000/svg">
<path d="M4 4C4 1.79086 5.79086 0 8 0H24L36 12V36C36 38.2091 34.2091 40 32 40H8C5.79086 40 4 38.2091 4 36V4Z" fill="url(#paint0_linear_6726_49508)"/>
<path d="M24 0L36 12H28C25.7909 12 24 10.2091 24 8V0Z" fill="#CDD5DF"/>
<path d="M11.6338 32V25.52H14.5318C14.9998 25.52 15.4078 25.601 15.7558 25.763C16.1038 25.919 16.3738 26.141 16.5658 26.429C16.7578 26.717 16.8538 27.053 16.8538 27.437C16.8538 27.815 16.7578 28.148 16.5658 28.436C16.3738 28.718 16.1038 28.94 15.7558 29.102C15.4078 29.258 14.9998 29.336 14.5318 29.336H12.7318V28.319H14.4958C14.8258 28.319 15.0778 28.244 15.2518 28.094C15.4318 27.938 15.5218 27.722 15.5218 27.446C15.5218 27.164 15.4348 26.951 15.2608 26.807C15.0868 26.657 14.8318 26.582 14.4958 26.582H13.0198V32H11.6338ZM15.2878 32L12.6868 28.634H14.1538L17.1598 32H15.2878Z" fill="#4B5565"/>
<path d="M20.1521 32.081C19.3121 32.081 18.6401 31.895 18.1361 31.523C17.6321 31.145 17.3381 30.614 17.2541 29.93H18.5861C18.6281 30.278 18.7961 30.554 19.0901 30.758C19.3841 30.956 19.7591 31.055 20.2151 31.055C20.5871 31.055 20.8721 30.989 21.0701 30.857C21.2741 30.725 21.3761 30.548 21.3761 30.326C21.3761 30.116 21.3161 29.948 21.1961 29.822C21.0761 29.69 20.8691 29.585 20.5751 29.507L19.3691 29.174C18.7511 29 18.2981 28.763 18.0101 28.463C17.7281 28.157 17.5871 27.776 17.5871 27.32C17.5871 26.93 17.6861 26.594 17.8841 26.312C18.0881 26.024 18.3731 25.805 18.7391 25.655C19.1051 25.499 19.5341 25.421 20.0261 25.421C20.7821 25.421 21.3851 25.601 21.8351 25.961C22.2851 26.315 22.5401 26.786 22.6001 27.374H21.2681C21.2081 27.056 21.0611 26.822 20.8271 26.672C20.5991 26.522 20.3051 26.447 19.9451 26.447C19.6331 26.447 19.3841 26.507 19.1981 26.627C19.0121 26.747 18.9191 26.909 18.9191 27.113C18.9191 27.269 18.9701 27.413 19.0721 27.545C19.1741 27.671 19.3871 27.779 19.7111 27.869L20.9171 28.202C21.5531 28.376 22.0091 28.616 22.2851 28.922C22.5671 29.222 22.7081 29.603 22.7081 30.065C22.7081 30.713 22.4831 31.211 22.0331 31.559C21.5831 31.907 20.9561 32.081 20.1521 32.081Z" fill="#4B5565"/>
<path d="M26.0232 32.081C25.1832 32.081 24.5112 31.895 24.0072 31.523C23.5032 31.145 23.2092 30.614 23.1252 29.93H24.4572C24.4992 30.278 24.6672 30.554 24.9612 30.758C25.2552 30.956 25.6302 31.055 26.0862 31.055C26.4582 31.055 26.7432 30.989 26.9412 30.857C27.1452 30.725 27.2472 30.548 27.2472 30.326C27.2472 30.116 27.1872 29.948 27.0672 29.822C26.9472 29.69 26.7402 29.585 26.4462 29.507L25.2402 29.174C24.6222 29 24.1692 28.763 23.8812 28.463C23.5992 28.157 23.4582 27.776 23.4582 27.32C23.4582 26.93 23.5572 26.594 23.7552 26.312C23.9592 26.024 24.2442 25.805 24.6102 25.655C24.9762 25.499 25.4052 25.421 25.8972 25.421C26.6532 25.421 27.2562 25.601 27.7062 25.961C28.1562 26.315 28.4112 26.786 28.4712 27.374H27.1392C27.0792 27.056 26.9322 26.822 26.6982 26.672C26.4702 26.522 26.1762 26.447 25.8162 26.447C25.5042 26.447 25.2552 26.507 25.0692 26.627C24.8832 26.747 24.7902 26.909 24.7902 27.113C24.7902 27.269 24.8412 27.413 24.9432 27.545C25.0452 27.671 25.2582 27.779 25.5822 27.869L26.7882 28.202C27.4242 28.376 27.8802 28.616 28.1562 28.922C28.4382 29.222 28.5792 29.603 28.5792 30.065C28.5792 30.713 28.3542 31.211 27.9042 31.559C27.4542 31.907 26.8272 32.081 26.0232 32.081Z" fill="#4B5565"/>
<defs>
<linearGradient id="paint0_linear_6726_49508" x1="20" y1="0" x2="20" y2="40" gradientUnits="userSpaceOnUse">
<stop stop-color="#F9FAFB"/>
<stop offset="1" stop-color="#EDF0F3"/>
</linearGradient>
</defs>
</svg>
