<svg width="40" height="40" viewBox="0 0 40 40" fill="none" xmlns="http://www.w3.org/2000/svg">
<path d="M7.75 4C7.75 2.20508 9.20508 0.75 11 0.75H27C27.1212 0.75 27.2375 0.798159 27.3232 0.883885L38.1161 11.6768C38.2018 11.7625 38.25 11.8788 38.25 12V36C38.25 37.7949 36.7949 39.25 35 39.25H11C9.20507 39.25 7.75 37.7949 7.75 36V4Z" fill="white" stroke="#CDD5DF" stroke-width="1.5"/>
<path d="M27 0.5V8C27 10.2091 28.7909 12 31 12H38.5" stroke="#CDD5DF" stroke-width="1.5"/>
<rect x="0.585938" y="18" width="26.8283" height="16" rx="2" fill="#3B549F"/>
<path d="M4.58594 29.61V22.41H7.80594C8.32594 22.41 8.77927 22.5 9.16594 22.68C9.5526 22.8533 9.8526 23.1 10.0659 23.42C10.2793 23.74 10.3859 24.1133 10.3859 24.54C10.3859 24.96 10.2793 25.33 10.0659 25.65C9.8526 25.9633 9.5526 26.21 9.16594 26.39C8.77927 26.5633 8.32594 26.65 7.80594 26.65H5.80594V25.52H7.76594C8.1326 25.52 8.4126 25.4367 8.60594 25.27C8.80594 25.0967 8.90594 24.8567 8.90594 24.55C8.90594 24.2367 8.80927 24 8.61594 23.84C8.4226 23.6733 8.13927 23.59 7.76594 23.59H6.12594V29.61H4.58594ZM8.64594 29.61L5.75594 25.87H7.38594L10.7259 29.61H8.64594Z" fill="white"/>
<path d="M14.0508 29.7C13.1174 29.7 12.3708 29.4933 11.8108 29.08C11.2508 28.66 10.9241 28.07 10.8308 27.31H12.3108C12.3574 27.6967 12.5441 28.0033 12.8708 28.23C13.1974 28.45 13.6141 28.56 14.1208 28.56C14.5341 28.56 14.8508 28.4867 15.0708 28.34C15.2974 28.1933 15.4108 27.9967 15.4108 27.75C15.4108 27.5167 15.3441 27.33 15.2108 27.19C15.0774 27.0433 14.8474 26.9267 14.5208 26.84L13.1808 26.47C12.4941 26.2767 11.9908 26.0133 11.6708 25.68C11.3574 25.34 11.2008 24.9167 11.2008 24.41C11.2008 23.9767 11.3108 23.6033 11.5308 23.29C11.7574 22.97 12.0741 22.7267 12.4808 22.56C12.8874 22.3867 13.3641 22.3 13.9108 22.3C14.7508 22.3 15.4208 22.5 15.9208 22.9C16.4208 23.2933 16.7041 23.8167 16.7708 24.47H15.2908C15.2241 24.1167 15.0608 23.8567 14.8008 23.69C14.5474 23.5233 14.2208 23.44 13.8208 23.44C13.4741 23.44 13.1974 23.5067 12.9908 23.64C12.7841 23.7733 12.6808 23.9533 12.6808 24.18C12.6808 24.3533 12.7374 24.5133 12.8508 24.66C12.9641 24.8 13.2008 24.92 13.5608 25.02L14.9008 25.39C15.6074 25.5833 16.1141 25.85 16.4208 26.19C16.7341 26.5233 16.8908 26.9467 16.8908 27.46C16.8908 28.18 16.6408 28.7333 16.1408 29.12C15.6408 29.5067 14.9441 29.7 14.0508 29.7Z" fill="white"/>
<path d="M20.5742 29.7C19.6409 29.7 18.8942 29.4933 18.3342 29.08C17.7742 28.66 17.4476 28.07 17.3542 27.31H18.8342C18.8809 27.6967 19.0676 28.0033 19.3942 28.23C19.7209 28.45 20.1376 28.56 20.6442 28.56C21.0576 28.56 21.3742 28.4867 21.5942 28.34C21.8209 28.1933 21.9342 27.9967 21.9342 27.75C21.9342 27.5167 21.8676 27.33 21.7342 27.19C21.6009 27.0433 21.3709 26.9267 21.0442 26.84L19.7042 26.47C19.0176 26.2767 18.5142 26.0133 18.1942 25.68C17.8809 25.34 17.7242 24.9167 17.7242 24.41C17.7242 23.9767 17.8342 23.6033 18.0542 23.29C18.2809 22.97 18.5976 22.7267 19.0042 22.56C19.4109 22.3867 19.8876 22.3 20.4342 22.3C21.2742 22.3 21.9442 22.5 22.4442 22.9C22.9442 23.2933 23.2276 23.8167 23.2942 24.47H21.8142C21.7476 24.1167 21.5842 23.8567 21.3242 23.69C21.0709 23.5233 20.7442 23.44 20.3442 23.44C19.9976 23.44 19.7209 23.5067 19.5142 23.64C19.3076 23.7733 19.2042 23.9533 19.2042 24.18C19.2042 24.3533 19.2609 24.5133 19.3742 24.66C19.4876 24.8 19.7242 24.92 20.0842 25.02L21.4242 25.39C22.1309 25.5833 22.6376 25.85 22.9442 26.19C23.2576 26.5233 23.4142 26.9467 23.4142 27.46C23.4142 28.18 23.1642 28.7333 22.6642 29.12C22.1642 29.5067 21.4676 29.7 20.5742 29.7Z" fill="white"/>
</svg>
