<svg width="40" height="40" viewBox="0 0 40 40" fill="none" xmlns="http://www.w3.org/2000/svg">
<path d="M7.75 4C7.75 2.20508 9.20508 0.75 11 0.75H27C27.1212 0.75 27.2375 0.798159 27.3232 0.883885L38.1161 11.6768C38.2018 11.7625 38.25 11.8788 38.25 12V36C38.25 37.7949 36.7949 39.25 35 39.25H11C9.20507 39.25 7.75 37.7949 7.75 36V4Z" fill="white" stroke="#CDD5DF" stroke-width="1.5"/>
<path d="M27 0.5V8C27 10.2091 28.7909 12 31 12H38.5" stroke="#CDD5DF" stroke-width="1.5"/>
<rect x="0.53125" y="18" width="27.9377" height="16" rx="2" fill="#3B549F"/>
<path d="M7.75125 29.695C6.81792 29.695 6.07125 29.4883 5.51125 29.075C4.95125 28.655 4.62458 28.065 4.53125 27.305H6.01125C6.05792 27.6916 6.24458 27.9983 6.57125 28.225C6.89792 28.445 7.31458 28.555 7.82125 28.555C8.23458 28.555 8.55125 28.4816 8.77125 28.335C8.99792 28.1883 9.11125 27.9916 9.11125 27.745C9.11125 27.5116 9.04458 27.325 8.91125 27.185C8.77792 27.0383 8.54792 26.9216 8.22125 26.835L6.88125 26.465C6.19458 26.2716 5.69125 26.0083 5.37125 25.675C5.05792 25.335 4.90125 24.9116 4.90125 24.405C4.90125 23.9716 5.01125 23.5983 5.23125 23.285C5.45792 22.965 5.77458 22.7216 6.18125 22.555C6.58792 22.3816 7.06458 22.295 7.61125 22.295C8.45125 22.295 9.12125 22.495 9.62125 22.895C10.1213 23.2883 10.4046 23.8116 10.4713 24.465H8.99125C8.92458 24.1116 8.76125 23.8516 8.50125 23.685C8.24792 23.5183 7.92125 23.435 7.52125 23.435C7.17458 23.435 6.89792 23.5016 6.69125 23.635C6.48458 23.7683 6.38125 23.9483 6.38125 24.175C6.38125 24.3483 6.43792 24.5083 6.55125 24.655C6.66458 24.795 6.90125 24.915 7.26125 25.015L8.60125 25.385C9.30792 25.5783 9.81458 25.845 10.1213 26.185C10.4346 26.5183 10.5913 26.9416 10.5913 27.455C10.5913 28.175 10.3413 28.7283 9.84125 29.115C9.34125 29.5016 8.64458 29.695 7.75125 29.695Z" fill="white"/>
<path d="M14.8047 29.705C14.0914 29.705 13.4547 29.5483 12.8947 29.235C12.3414 28.9216 11.9047 28.485 11.5847 27.925C11.2714 27.365 11.1147 26.715 11.1147 25.975C11.1147 25.2416 11.2714 24.6016 11.5847 24.055C11.898 23.5016 12.3314 23.0716 12.8847 22.765C13.4447 22.4583 14.0814 22.305 14.7947 22.305C15.5214 22.305 16.1614 22.4583 16.7147 22.765C17.268 23.0716 17.7014 23.5016 18.0147 24.055C18.3347 24.6083 18.4947 25.2516 18.4947 25.985C18.4947 26.4516 18.418 26.8916 18.2647 27.305C18.118 27.7183 17.878 28.075 17.5447 28.375C17.218 28.675 16.7847 28.8983 16.2447 29.045L14.8047 29.705ZM14.7947 28.545C15.2147 28.545 15.5847 28.4416 15.9047 28.235C16.2247 28.0283 16.4747 27.7316 16.6547 27.345C16.8414 26.9583 16.9347 26.4983 16.9347 25.965C16.9347 25.4716 16.8447 25.0416 16.6647 24.675C16.4847 24.3083 16.2347 24.025 15.9147 23.825C15.5947 23.625 15.2214 23.525 14.7947 23.525C14.3747 23.525 14.0047 23.625 13.6847 23.825C13.3647 24.025 13.1147 24.3083 12.9347 24.675C12.7614 25.035 12.6747 25.465 12.6747 25.965C12.6747 26.505 12.7647 26.9683 12.9447 27.355C13.1247 27.735 13.3747 28.0283 13.6947 28.235C14.0147 28.4416 14.3814 28.545 14.7947 28.545ZM14.8047 29.705V28.625L18.8647 28.425V29.605C18.438 29.605 18.0547 29.6083 17.7147 29.615C17.3814 29.6283 17.0647 29.6416 16.7647 29.655C16.4647 29.6683 16.158 29.6783 15.8447 29.685C15.5314 29.6983 15.1847 29.705 14.8047 29.705Z" fill="white"/>
<path d="M19.469 29.605V22.405H21.009V29.605H19.469ZM20.189 29.605V28.425H24.469V29.605H20.189Z" fill="white"/>
</svg>
