<svg width="40" height="40" viewBox="0 0 40 40" fill="none" xmlns="http://www.w3.org/2000/svg">
<path d="M4 4C4 1.79086 5.79086 0 8 0H24L36 12V36C36 38.2091 34.2091 40 32 40H8C5.79086 40 4 38.2091 4 36V4Z" fill="url(#paint0_linear_6726_49540)"/>
<path d="M24 0L36 12H28C25.7909 12 24 10.2091 24 8V0Z" fill="#CDD5DF"/>
<path d="M14.7474 32L12.9564 29.165L10.4544 25.52H12.0744L13.7574 28.193L16.3674 32H14.7474ZM13.1544 28.184L14.9004 25.52H16.3674L13.6134 29.345L13.1544 28.184ZM13.4694 29.381L11.7504 32H10.2834L13.0104 28.22L13.4694 29.381Z" fill="#4B5565"/>
<path d="M16.9958 32V25.52H19.1558L20.9558 31.766H20.1728L21.9728 25.52H24.1418V32H22.7738V25.907H23.0078L21.2528 32H19.8218L18.0848 25.961H18.3098V32H16.9958Z" fill="#4B5565"/>
<path d="M25.0378 32V25.52H26.4238V32H25.0378ZM25.6858 32V30.938H29.5378V32H25.6858Z" fill="#4B5565"/>
<defs>
<linearGradient id="paint0_linear_6726_49540" x1="20" y1="0" x2="20" y2="40" gradientUnits="userSpaceOnUse">
<stop stop-color="#F9FAFB"/>
<stop offset="1" stop-color="#EDF0F3"/>
</linearGradient>
</defs>
</svg>
