<svg width="40" height="40" viewBox="0 0 40 40" fill="none" xmlns="http://www.w3.org/2000/svg">
<path d="M7.75 4C7.75 2.20508 9.20508 0.75 11 0.75H27C27.1212 0.75 27.2375 0.798159 27.3232 0.883885L38.1161 11.6768C38.2018 11.7625 38.25 11.8788 38.25 12V36C38.25 37.7949 36.7949 39.25 35 39.25H11C9.20507 39.25 7.75 37.7949 7.75 36V4Z" fill="white" stroke="#CDD5DF" stroke-width="1.5"/>
<path d="M27 0.5V8C27 10.2091 28.7909 12 31 12H38.5" stroke="#CDD5DF" stroke-width="1.5"/>
<rect x="0.303223" y="18" width="29.3937" height="16" rx="2" fill="#3B549F"/>
<path d="M9.26322 29.6L7.27322 26.45L4.49322 22.4H6.29322L8.16322 25.37L11.0632 29.6H9.26322ZM7.49322 25.36L9.43322 22.4H11.0632L8.00322 26.65L7.49322 25.36ZM7.84322 26.69L5.93322 29.6H4.30322L7.33322 25.4L7.84322 26.69Z" fill="white"/>
<path d="M11.7614 29.6V22.4H14.1614L16.1614 29.34H15.2914L17.2914 22.4H19.7014V29.6H18.1814V22.83H18.4414L16.4914 29.6H14.9014L12.9714 22.89H13.2214V29.6H11.7614Z" fill="white"/>
<path d="M20.697 29.6V22.4H22.237V29.6H20.697ZM21.417 29.6V28.42H25.697V29.6H21.417Z" fill="white"/>
</svg>
