<svg width="40" height="40" viewBox="0 0 40 40" fill="none" xmlns="http://www.w3.org/2000/svg">
<path d="M7.75 4C7.75 2.20508 9.20508 0.75 11 0.75H27C27.1212 0.75 27.2375 0.798159 27.3232 0.883885L38.1161 11.6768C38.2018 11.7625 38.25 11.8788 38.25 12V36C38.25 37.7949 36.7949 39.25 35 39.25H11C9.20507 39.25 7.75 37.7949 7.75 36V4Z" fill="white" stroke="#CDD5DF" stroke-width="1.5"/>
<path d="M27 0.5V8C27 10.2091 28.7909 12 31 12H38.5" stroke="#CDD5DF" stroke-width="1.5"/>
<rect x="0.866699" y="18" width="23.2668" height="16" rx="2" fill="#0F6AF5"/>
<path d="M4.8667 29.6L7.4467 22.4H8.7667L6.3967 29.6H4.8667ZM10.1467 29.6L7.7867 22.4H9.1667L11.7467 29.6H10.1467ZM6.2267 26.81H10.2667V28.01H6.2267V26.81Z" fill="white"/>
<path d="M13.5502 29.6L10.9702 22.4H12.5702L14.5402 28.4H14.3502L16.3302 22.4H17.8502L15.2702 29.6H13.5502Z" fill="white"/>
<path d="M18.5935 29.6V22.4H20.1335V29.6H18.5935Z" fill="white"/>
</svg>
