<svg width="40" height="40" viewBox="0 0 40 40" fill="none" xmlns="http://www.w3.org/2000/svg">
<path d="M4 4C4 1.79086 5.79086 0 8 0H24L36 12V36C36 38.2091 34.2091 40 32 40H8C5.79086 40 4 38.2091 4 36V4Z" fill="url(#paint0_linear_6726_49348)"/>
<path d="M24 0L36 12H28C25.7909 12 24 10.2091 24 8V0Z" fill="#CDD5DF"/>
<path d="M10.7864 32V25.52H12.9464L14.7464 31.766H13.9634L15.7634 25.52H17.9324V32H16.5644V25.907H16.7984L15.0434 32H13.6124L11.8754 25.961H12.1004V32H10.7864Z" fill="#4B5565"/>
<path d="M18.8284 32V25.52H21.9064C22.3864 25.52 22.7974 25.604 23.1394 25.772C23.4874 25.94 23.7544 26.174 23.9404 26.474C24.1324 26.774 24.2284 27.125 24.2284 27.527C24.2284 27.929 24.1324 28.283 23.9404 28.589C23.7484 28.895 23.4784 29.135 23.1304 29.309C22.7884 29.477 22.3804 29.561 21.9064 29.561H19.9264V28.499H21.8344C22.1524 28.499 22.3984 28.412 22.5724 28.238C22.7524 28.058 22.8424 27.824 22.8424 27.536C22.8424 27.248 22.7524 27.017 22.5724 26.843C22.3984 26.669 22.1524 26.582 21.8344 26.582H20.2144V32H18.8284Z" fill="#4B5565"/>
<path d="M27.1072 32.09C26.6512 32.09 26.2402 32.009 25.8742 31.847C25.5142 31.679 25.2202 31.436 24.9922 31.118C24.7702 30.794 24.6412 30.401 24.6052 29.939H25.9822C26.0302 30.311 26.1442 30.587 26.3242 30.767C26.5042 30.941 26.7472 31.028 27.0532 31.028C27.3172 31.028 27.5362 30.95 27.7102 30.794C27.8902 30.638 27.9802 30.41 27.9802 30.11C27.9802 29.822 27.8932 29.591 27.7192 29.417C27.5512 29.237 27.2632 29.147 26.8552 29.147H26.2792V28.103H26.8282C27.1822 28.103 27.4372 28.025 27.5932 27.869C27.7492 27.713 27.8272 27.515 27.8272 27.275C27.8272 27.047 27.7672 26.861 27.6472 26.717C27.5272 26.567 27.3232 26.492 27.0352 26.492C26.7892 26.492 26.5762 26.567 26.3962 26.717C26.2162 26.867 26.1052 27.095 26.0632 27.401H24.6772C24.7312 26.993 24.8602 26.642 25.0642 26.348C25.2682 26.054 25.5412 25.829 25.8832 25.673C26.2252 25.511 26.6242 25.43 27.0802 25.43C27.5362 25.43 27.9262 25.502 28.2502 25.646C28.5802 25.784 28.8352 25.982 29.0152 26.24C29.1952 26.498 29.2852 26.807 29.2852 27.167C29.2852 27.467 29.2162 27.731 29.0782 27.959C28.9402 28.187 28.7662 28.364 28.5562 28.49C28.3522 28.616 28.1452 28.679 27.9352 28.679L27.9262 28.49C28.2442 28.49 28.5172 28.568 28.7452 28.724C28.9732 28.874 29.1472 29.078 29.2672 29.336C29.3872 29.588 29.4472 29.87 29.4472 30.182C29.4472 30.572 29.3452 30.911 29.1412 31.199C28.9372 31.487 28.6582 31.709 28.3042 31.865C27.9502 32.015 27.5512 32.09 27.1072 32.09Z" fill="#4B5565"/>
<defs>
<linearGradient id="paint0_linear_6726_49348" x1="20" y1="0" x2="20" y2="40" gradientUnits="userSpaceOnUse">
<stop stop-color="#F9FAFB"/>
<stop offset="1" stop-color="#EDF0F3"/>
</linearGradient>
</defs>
</svg>
