<svg width="40" height="40" viewBox="0 0 40 40" fill="none" xmlns="http://www.w3.org/2000/svg">
<path d="M7.75 4C7.75 2.20508 9.20508 0.75 11 0.75H27C27.1212 0.75 27.2375 0.798159 27.3232 0.883885L38.1161 11.6768C38.2018 11.7625 38.25 11.8788 38.25 12V36C38.25 37.7949 36.7949 39.25 35 39.25H11C9.20507 39.25 7.75 37.7949 7.75 36V4Z" fill="white" stroke="#CDD5DF" stroke-width="1.5"/>
<path d="M27 0.5V8C27 10.2091 28.7909 12 31 12H38.5" stroke="#CDD5DF" stroke-width="1.5"/>
<rect x="1.5" y="18" width="28" height="16" rx="2" fill="#D444F1"/>
<path d="M5.13281 29.6V22.4H7.53281L9.53281 29.34H8.66281L10.6628 22.4H13.0728V29.6H11.5528V22.83H11.8128L9.86281 29.6H8.27281L6.34281 22.89H6.59281V29.6H5.13281Z" fill="white"/>
<path d="M14.0684 29.6V22.4H17.4884C18.0217 22.4 18.4784 22.4933 18.8584 22.68C19.245 22.8667 19.5417 23.1267 19.7484 23.46C19.9617 23.7933 20.0684 24.1833 20.0684 24.63C20.0684 25.0767 19.9617 25.47 19.7484 25.81C19.535 26.15 19.235 26.4167 18.8484 26.61C18.4684 26.7967 18.015 26.89 17.4884 26.89H15.2884V25.71H17.4084C17.7617 25.71 18.035 25.6133 18.2284 25.42C18.4284 25.22 18.5284 24.96 18.5284 24.64C18.5284 24.32 18.4284 24.0633 18.2284 23.87C18.035 23.6767 17.7617 23.58 17.4084 23.58H15.6084V29.6H14.0684Z" fill="white"/>
<path d="M23.2671 29.7C22.7604 29.7 22.3038 29.61 21.8971 29.43C21.4971 29.2433 21.1704 28.9733 20.9171 28.62C20.6704 28.26 20.5271 27.8233 20.4871 27.31H22.0171C22.0704 27.7233 22.1971 28.03 22.3971 28.23C22.5971 28.4233 22.8671 28.52 23.2071 28.52C23.5004 28.52 23.7438 28.4333 23.9371 28.26C24.1371 28.0867 24.2371 27.8333 24.2371 27.5C24.2371 27.18 24.1404 26.9233 23.9471 26.73C23.7604 26.53 23.4404 26.43 22.9871 26.43H22.3471V25.27H22.9571C23.3504 25.27 23.6338 25.1833 23.8071 25.01C23.9804 24.8367 24.0671 24.6167 24.0671 24.35C24.0671 24.0967 24.0004 23.89 23.8671 23.73C23.7338 23.5633 23.5071 23.48 23.1871 23.48C22.9138 23.48 22.6771 23.5633 22.4771 23.73C22.2771 23.8967 22.1538 24.15 22.1071 24.49H20.5671C20.6271 24.0367 20.7704 23.6467 20.9971 23.32C21.2238 22.9933 21.5271 22.7433 21.9071 22.57C22.2871 22.39 22.7304 22.3 23.2371 22.3C23.7438 22.3 24.1771 22.38 24.5371 22.54C24.9038 22.6933 25.1871 22.9133 25.3871 23.2C25.5871 23.4867 25.6871 23.83 25.6871 24.23C25.6871 24.5633 25.6104 24.8567 25.4571 25.11C25.3038 25.3633 25.1104 25.56 24.8771 25.7C24.6504 25.84 24.4204 25.91 24.1871 25.91L24.1771 25.7C24.5304 25.7 24.8338 25.7867 25.0871 25.96C25.3404 26.1267 25.5338 26.3533 25.6671 26.64C25.8004 26.92 25.8671 27.2333 25.8671 27.58C25.8671 28.0133 25.7538 28.39 25.5271 28.71C25.3004 29.03 24.9904 29.2767 24.5971 29.45C24.2038 29.6167 23.7604 29.7 23.2671 29.7Z" fill="white"/>
</svg>
