<svg width="40" height="40" viewBox="0 0 40 40" fill="none" xmlns="http://www.w3.org/2000/svg">
<path d="M4 4C4 1.79086 5.79086 0 8 0H24L36 12V36C36 38.2091 34.2091 40 32 40H8C5.79086 40 4 38.2091 4 36V4Z" fill="#0F6AF5"/>
<path opacity="0.3" d="M24 0L36 12H28C25.7909 12 24 10.2091 24 8V0Z" fill="white"/>
<path d="M10.8611 32V25.52H13.0211L14.8211 31.766H14.0381L15.8381 25.52H18.0071V32H16.6391V25.907H16.8731L15.1181 32H13.6871L11.9501 25.961H12.1751V32H10.8611Z" fill="white"/>
<path d="M18.9031 32V25.52H21.9811C22.4611 25.52 22.8721 25.604 23.2141 25.772C23.5621 25.94 23.8291 26.174 24.0151 26.474C24.2071 26.774 24.3031 27.125 24.3031 27.527C24.3031 27.929 24.2071 28.283 24.0151 28.589C23.8231 28.895 23.5531 29.135 23.2051 29.309C22.8631 29.477 22.4551 29.561 21.9811 29.561H20.0011V28.499H21.9091C22.2271 28.499 22.4731 28.412 22.6471 28.238C22.8271 28.058 22.9171 27.824 22.9171 27.536C22.9171 27.248 22.8271 27.017 22.6471 26.843C22.4731 26.669 22.2271 26.582 21.9091 26.582H20.2891V32H18.9031Z" fill="white"/>
<path d="M27.3562 32V30.29L27.4282 30.11V26.411L27.9772 26.708L25.3492 30.191L24.7102 29.714H29.4082V30.776H24.2062V29.714L27.3922 25.52H28.7602V32H27.3562Z" fill="white"/>
</svg>
