<svg width="40" height="40" viewBox="0 0 40 40" fill="none" xmlns="http://www.w3.org/2000/svg">
<path d="M7.75 4C7.75 2.20508 9.20508 0.75 11 0.75H27C27.1212 0.75 27.2375 0.798159 27.3232 0.883885L38.1161 11.6768C38.2018 11.7625 38.25 11.8788 38.25 12V36C38.25 37.7949 36.7949 39.25 35 39.25H11C9.20507 39.25 7.75 37.7949 7.75 36V4Z" fill="white" stroke="#CDD5DF" stroke-width="1.5"/>
<path d="M27 0.5V8C27 10.2091 28.7909 12 31 12H38.5" stroke="#CDD5DF" stroke-width="1.5"/>
<rect x="0.685303" y="18" width="30.6296" height="16" rx="2" fill="#D444F1"/>
<path d="M6.7153 29.6L4.6853 22.4H6.2453L7.9253 28.99H7.4353L8.9353 22.4H10.6853L12.1653 28.99H11.6853L13.3753 22.4H14.8653L12.8353 29.6H11.1153L9.5853 23.14H9.9853L8.4353 29.6H6.7153Z" fill="white"/>
<path d="M14.3314 29.6L16.9114 22.4H18.2314L15.8614 29.6H14.3314ZM19.6114 29.6L17.2514 22.4H18.6314L21.2114 29.6H19.6114ZM15.6914 26.81H19.7314V28.01H15.6914V26.81Z" fill="white"/>
<path d="M23.0149 29.6L20.4349 22.4H22.0349L24.0049 28.4H23.8149L25.7949 22.4H27.3149L24.7349 29.6H23.0149Z" fill="white"/>
</svg>
