<svg width="58" height="40" viewBox="0 0 58 40" fill="none" xmlns="http://www.w3.org/2000/svg">
<rect x="0.5" y="0.5" width="57" height="39" rx="5.5" fill="white"/>
<path fill-rule="evenodd" clip-rule="evenodd" d="M24.3906 19.9485H22.5424V19.2232C22.5424 18.2799 23.0813 18.01 23.5462 18.01C24.0592 18.01 24.4588 18.2376 24.4588 18.2376L25.088 16.7996C25.088 16.7996 24.4501 16.3827 23.2907 16.3827C21.9871 16.3827 20.5039 17.1176 20.5039 19.424V19.9485H17.4098V19.2232C17.4098 18.2799 17.9487 18.01 18.4127 18.01C18.6768 18.01 19.0323 18.0715 19.3262 18.2376L19.9554 16.7996C19.5798 16.5787 18.9765 16.3827 18.1581 16.3827C16.8545 16.3827 15.3713 17.1176 15.3713 19.424V19.9485H14.1879V21.522H15.3713V27.0811H17.4098V21.522H20.5039V27.0811H22.5424V21.522H24.3906V19.9485ZM9.50801 25.8013C8.97199 25.8013 8.70493 25.5381 8.70493 25.103C8.70493 24.298 9.60599 24.0223 11.2506 23.8484C11.2506 24.9252 10.5224 25.8013 9.50801 25.8013ZM10.2169 19.7389C9.04211 19.7389 7.68956 20.2931 6.95565 20.8782L7.62616 22.2893C8.21502 21.7504 9.16699 21.2903 10.0258 21.2903C10.8413 21.2903 11.2919 21.5631 11.2919 22.1116C11.2919 22.4824 10.9931 22.6688 10.4283 22.7418C8.32069 23.0165 6.6665 23.5977 6.6665 25.223C6.6665 26.5112 7.58389 27.2912 9.01713 27.2912C10.0392 27.2912 10.9499 26.7226 11.3831 25.9723V27.0809H13.289V22.4363C13.289 20.5179 11.9557 19.7389 10.2169 19.7389ZM29.3564 19.9485V27.0811H31.3967V23.6449C31.3967 22.0109 32.3852 21.5316 33.0749 21.5316C33.3439 21.5316 33.707 21.6094 33.9472 21.789L34.3189 19.9033C34.0038 19.7689 33.6744 19.7391 33.4044 19.7391C32.3554 19.7391 31.6964 20.204 31.2613 21.1473V19.9485H29.3564ZM41.4719 20.9919C41.8917 20.3771 42.6976 19.7392 43.7764 19.7392C45.08 19.7392 46.1587 20.5481 46.1587 22.1514V27.0812H44.1203V22.7959C44.1203 21.8516 43.5516 21.4597 43.0127 21.4597C42.3384 21.4597 41.664 22.0764 41.664 23.4098V27.0812H39.6256V22.8103C39.6256 21.8372 39.0896 21.4597 38.5065 21.4597C37.8619 21.4597 37.1722 22.0908 37.1722 23.4098V27.0812H35.1308V19.9487H37.0972V21.0274C37.4421 20.3387 38.1885 19.7392 39.2673 19.7392C40.2557 19.7392 41.0819 20.1975 41.4719 20.9919ZM27.6442 27.0814H25.6076V19.9488H27.6442V27.0814Z" fill="#060809"/>
<path fill-rule="evenodd" clip-rule="evenodd" d="M37.4886 10C31.9823 10 27.0745 13.8223 25.6816 18.7368H27.6778C28.8411 15.0769 32.7902 11.8646 37.4886 11.8646C43.1995 11.8646 48.1351 16.2123 48.1351 22.9808C48.1351 24.5005 47.9382 25.8704 47.5655 27.0807H49.5021L49.5213 27.0144C49.8383 25.7656 49.9997 24.4093 49.9997 22.9808C49.9997 15.4323 44.4992 10 37.4886 10Z" fill="#0FA0EA"/>
<rect x="0.5" y="0.5" width="57" height="39" rx="5.5" stroke="#EEF2F6"/>
</svg>
