<svg width="46" height="32" viewBox="0 0 46 32" fill="none" xmlns="http://www.w3.org/2000/svg">
<rect x="0.5" y="0.5" width="45" height="31" rx="3.5" fill="white"/>
<path d="M11.8395 11.731H5.49541C4.66923 11.731 4 12.4064 4 13.2388V19.6366C4 20.469 4.66923 21.1444 5.49541 21.1444H11.8395C12.6656 21.1444 13.334 20.469 13.334 19.6366V13.2388C13.3349 12.4055 12.6656 11.731 11.8395 11.731Z" fill="#1677FF"/>
<path d="M11.6854 17.6421C11.3124 17.516 10.8107 17.3229 10.2526 17.1192C10.5876 16.5311 10.8557 15.8619 11.032 15.1345H9.19185V14.4661H11.4455V14.0931H9.19185V12.9786H8.2722C8.11085 12.9786 8.11085 13.1391 8.11085 13.1391V14.0923H5.83157V14.4652H8.11085V15.1336H6.22835V15.5066H9.87872C9.74557 15.9703 9.5657 16.4068 9.3532 16.8027C8.16904 16.4086 6.90464 16.0894 6.11108 16.286C5.60321 16.4121 5.27609 16.6369 5.08387 16.8732C4.20214 17.9551 4.83434 19.5987 6.69655 19.5987C7.79783 19.5987 8.85855 18.9797 9.68033 17.9595C10.9068 18.5538 13.3342 19.5749 13.3342 19.5749V18.12C13.3351 18.12 13.03 18.0953 11.6854 17.6421ZM6.52285 18.97C5.07064 18.97 4.64124 17.8167 5.35897 17.1854C5.5988 16.972 6.03614 16.8679 6.26891 16.845C7.13124 16.7595 7.93009 17.091 8.87266 17.5548C8.21048 18.426 7.36667 18.97 6.52285 18.97Z" fill="white"/>
<path d="M24.2686 13.1092C24.2686 13.5959 24.6248 13.9239 25.1212 13.9239C25.6176 13.9239 25.9738 13.5959 25.9738 13.1092C25.9738 12.6313 25.6176 12.2944 25.1212 12.2944C24.6248 12.2944 24.2686 12.6313 24.2686 13.1092Z" fill="#1677FF"/>
<path d="M23.3692 12.4999H21.8896V19.3368H23.3692V12.4999Z" fill="#222222"/>
<path d="M19.2953 12.7344H17.3096L15.0903 19.3377H16.4579L16.8326 18.0451H19.1833L19.5395 19.3377H21.2907L19.2953 12.7344ZM17.1412 16.9676L18.0212 13.9239H18.0582L18.8915 16.9676H17.1412Z" fill="#222222"/>
<path d="M25.8609 14.3171H24.3813V19.3377H25.8609V14.3171Z" fill="#222222"/>
<path d="M41.3244 14.3268L41.3333 14.3171H39.9384L39.0575 17.3706H39.0108L37.9994 14.3171H36.3418L38.3363 19.3562L37.503 20.8922V20.9292H38.8045L41.3244 14.3268Z" fill="#222222"/>
<path d="M29.5422 14.214C28.999 14.214 28.5776 14.4203 28.0997 14.8136V14.3172H26.6201V20.9292H28.0997V19.2901C28.3809 19.3651 28.6428 19.403 28.9611 19.403C30.2819 19.403 31.4714 18.4287 31.4714 16.6961C31.4714 15.1416 30.6099 14.214 29.5422 14.214ZM28.6049 18.4754C28.4365 18.4754 28.2769 18.4569 28.0988 18.4004V15.6847C28.4083 15.4696 28.6604 15.3664 28.9787 15.3664C29.5316 15.3664 29.9716 15.8064 29.9716 16.7437C29.9725 17.9419 29.3261 18.4754 28.6049 18.4754Z" fill="#222222"/>
<path d="M36.051 18.0821V15.9845C36.051 14.8418 35.3765 14.214 34.187 14.214C33.4279 14.214 32.9041 14.3454 31.9483 14.6355L32.2102 15.7879C33.0814 15.3946 33.4649 15.2262 33.8679 15.2262C34.3546 15.2262 34.5706 15.5727 34.5706 16.1071V16.1441C32.875 16.4624 32.3504 16.6405 32.0233 16.9685C31.7799 17.2119 31.6768 17.5584 31.6768 17.9613C31.6768 18.926 32.4262 19.4409 33.1281 19.4409C33.6527 19.4409 34.0742 19.2443 34.6455 18.8131L34.7487 19.3377H36.2283L36.051 18.0821ZM34.5715 18.1201C34.1782 18.3352 33.9534 18.4198 33.6915 18.4198C33.3353 18.4198 33.1105 18.1853 33.1105 17.8114C33.1105 17.6713 33.1387 17.5302 33.2507 17.4182C33.4288 17.2401 33.7753 17.1087 34.5715 16.9218V18.1201Z" fill="#222222"/>
<rect x="0.5" y="0.5" width="45" height="31" rx="3.5" stroke="#EEF2F6"/>
</svg>
