<svg width="58" height="40" viewBox="0 0 58 40" fill="none" xmlns="http://www.w3.org/2000/svg">
<rect x="0.5" y="0.5" width="57" height="39" rx="5.5" fill="white"/>
<path d="M14.7993 14.6638H6.86927C5.83654 14.6638 5 15.5081 5 16.5485V24.5458C5 25.5862 5.83654 26.4305 6.86927 26.4305H14.7993C15.8321 26.4305 16.6675 25.5862 16.6675 24.5458V16.5485C16.6686 15.507 15.8321 14.6638 14.7993 14.6638Z" fill="#1677FF"/>
<path d="M14.6062 22.0527C14.14 21.8951 13.5129 21.6537 12.8152 21.3991C13.234 20.664 13.5691 19.8275 13.7895 18.9182H11.4893V18.0827H14.3064V17.6165H11.4893V16.2234H10.3398C10.1381 16.2234 10.1381 16.424 10.1381 16.424V17.6154H7.28898V18.0816H10.1381V18.9171H7.78495V19.3833H12.3479C12.1815 19.963 11.9566 20.5086 11.691 21.0035C10.2108 20.5108 8.63031 20.1118 7.63837 20.3576C7.00352 20.5152 6.59462 20.7963 6.35435 21.0916C5.25219 22.444 6.04243 24.4984 8.3702 24.4984C9.7468 24.4984 11.0727 23.7247 12.0999 22.4495C13.633 23.1924 16.6673 24.4687 16.6673 24.4687V22.6501C16.6684 22.6501 16.287 22.6192 14.6062 22.0527ZM8.15308 23.7126C6.33781 23.7126 5.80106 22.271 6.69822 21.4818C6.99801 21.2151 7.54468 21.085 7.83565 21.0564C8.91357 20.9495 9.91213 21.3639 11.0903 21.9436C10.2626 23.0325 9.20784 23.7126 8.15308 23.7126Z" fill="white"/>
<path d="M30.3354 16.3865C30.3354 16.9949 30.7807 17.4049 31.4012 17.4049C32.0218 17.4049 32.467 16.9949 32.467 16.3865C32.467 15.7891 32.0218 15.3681 31.4012 15.3681C30.7807 15.3681 30.3354 15.7891 30.3354 16.3865Z" fill="#1677FF"/>
<path d="M29.2112 15.6249H27.3618V24.1711H29.2112V15.6249Z" fill="#222222"/>
<path d="M24.119 15.918H21.6369L18.8628 24.1721H20.5722L21.0407 22.5564H23.979L24.4243 24.1721H26.6132L24.119 15.918ZM21.4264 21.2095L22.5264 17.4048H22.5727L23.6142 21.2095H21.4264Z" fill="#222222"/>
<path d="M32.326 17.8965H30.4766V24.1722H32.326V17.8965Z" fill="#222222"/>
<path d="M51.6556 17.9086L51.6666 17.8965H49.923L48.8219 21.7133H48.7635L47.4993 17.8965H45.4272L47.9203 24.1953L46.8788 26.1153V26.1616H48.5056L51.6556 17.9086Z" fill="#222222"/>
<path d="M36.9275 17.7675C36.2485 17.7675 35.7217 18.0254 35.1243 18.517V17.8965H33.2749V26.1616H35.1243V24.1127C35.4759 24.2064 35.8033 24.2537 36.2011 24.2537C37.8522 24.2537 39.339 23.0359 39.339 20.8701C39.339 18.927 38.2622 17.7675 36.9275 17.7675ZM35.7559 23.0943C35.5454 23.0943 35.3459 23.0711 35.1232 23.0006V19.6059C35.5101 19.337 35.8253 19.208 36.2232 19.208C36.9142 19.208 37.4642 19.758 37.4642 20.9296C37.4653 22.4275 36.6574 23.0943 35.7559 23.0943Z" fill="#222222"/>
<path d="M45.0635 22.6027V19.9807C45.0635 18.5523 44.2204 17.7675 42.7336 17.7675C41.7846 17.7675 41.1299 17.9317 39.9352 18.2944L40.2625 19.7349C41.3514 19.2433 41.8309 19.0328 42.3346 19.0328C42.943 19.0328 43.213 19.4659 43.213 20.1339V20.1802C41.0935 20.578 40.4378 20.8007 40.0289 21.2107C39.7247 21.5149 39.5957 21.948 39.5957 22.4517C39.5957 23.6575 40.5325 24.3011 41.4099 24.3011C42.0657 24.3011 42.5925 24.0554 43.3067 23.5164L43.4356 24.1722H45.2851L45.0635 22.6027ZM43.2141 22.6501C42.7225 22.919 42.4415 23.0248 42.1141 23.0248C41.6689 23.0248 41.3878 22.7317 41.3878 22.2643C41.3878 22.0891 41.4231 21.9127 41.5631 21.7728C41.7857 21.5501 42.2189 21.3859 43.2141 21.1523V22.6501Z" fill="#222222"/>
<rect x="0.5" y="0.5" width="57" height="39" rx="5.5" stroke="#EEF2F6"/>
</svg>
