<svg width="58" height="40" viewBox="0 0 58 40" fill="none" xmlns="http://www.w3.org/2000/svg">
<rect x="0.5" y="0.5" width="57" height="39" rx="5.5" fill="white"/>
<path fill-rule="evenodd" clip-rule="evenodd" d="M45.4886 23.2469H46.8863H46.8875C47.0337 23.2498 47.1552 23.129 47.1606 22.9754V18.9029C47.1606 18.3914 47.1867 17.9294 47.3828 17.4675C47.5174 17.1161 47.8346 16.8796 48.1946 16.8621C49.0886 16.8621 49.08 17.8919 49.0733 18.701C49.0727 18.7693 49.0722 18.8359 49.0722 18.9003V23.0093C49.0894 23.1412 49.1939 23.2411 49.3204 23.2469H50.7305C50.8642 23.2498 50.9793 23.1483 50.9998 23.0093V18.2478C50.9998 17.5158 50.9998 16.4967 50.6337 15.8912C50.2377 15.2388 49.6245 15 48.9964 15C48.0282 15 47.4784 15.4932 47.0861 16.528H47.0588V15.3706C47.0305 15.2496 46.929 15.1632 46.8106 15.1592H45.5097C45.3723 15.1556 45.2552 15.2634 45.2404 15.4071V22.9754C45.2421 23.1205 45.3508 23.2393 45.4886 23.2469ZM44.1729 19.2774C44.1729 16.8895 43.0471 15.0104 40.9655 15.0104C38.9373 15.0104 37.8115 16.8581 37.8115 19.1978C37.8115 21.5374 38.9236 23.4165 40.9655 23.4165C42.9317 23.4165 44.1729 21.5857 44.1729 19.2774ZM39.8794 18.959C39.8794 18.0351 39.9452 16.5554 40.9791 16.5554C41.4235 16.5554 41.7375 16.7655 41.8952 17.2874C42.0789 17.8916 42.105 18.6563 42.105 19.293C42.105 20.2639 42.064 21.8558 40.9655 21.8558C39.879 21.8558 39.8792 19.9257 39.8794 18.9896L39.8794 18.959ZM13.6516 23.2625H15.0529H15.0542C15.1245 23.2642 15.1926 23.2364 15.2434 23.1852C15.2942 23.1341 15.3235 23.0637 15.3248 22.9897V18.9799L15.3248 18.9171C15.3242 18.0452 15.3234 16.8921 16.293 16.8921C17.1893 16.8921 17.1754 17.9052 17.1642 18.7234L17.1642 18.7235C17.163 18.8118 17.1618 18.8977 17.1618 18.9799V22.9911C17.1642 23.1359 17.2725 23.2543 17.4101 23.2625H18.8152C18.8853 23.2639 18.9531 23.2359 19.0036 23.1848C19.0541 23.1336 19.0833 23.0635 19.0846 22.9897V18.9799L19.0844 18.8845C19.0836 18.4597 19.0824 17.8863 19.2161 17.5301C19.3524 17.166 19.682 16.9223 20.054 16.9103C20.4599 16.9103 20.7739 17.0539 20.8782 17.5628C20.9314 17.8077 20.9245 18.3755 20.9199 18.752V18.752L20.9199 18.7522C20.9189 18.841 20.9179 18.9191 20.9179 18.9799V22.9911C20.9197 23.1362 21.0283 23.2549 21.1662 23.2625H22.5675C22.6379 23.2642 22.706 23.2364 22.7568 23.1852C22.8076 23.1341 22.8368 23.0637 22.8381 22.9897V18.2152C22.8381 18.0988 22.8401 17.9798 22.842 17.8596C22.8535 17.1466 22.8657 16.3878 22.4844 15.8429C22.0222 15.2249 21.2789 14.9169 20.5398 15.0372C19.8008 15.1576 19.1809 15.6875 18.9182 16.4236C18.5248 15.4671 17.9625 15.0222 17.0985 15.0222C16.2346 15.0222 15.5929 15.4671 15.2528 16.4236H15.2267V15.4358C15.2193 15.295 15.1124 15.1826 14.9785 15.1748H13.6714C13.5271 15.1733 13.408 15.2933 13.4033 15.4449V23.0132C13.416 23.1494 13.5216 23.2554 13.6516 23.2625ZM11.2125 23.3199C11.1202 23.4041 10.9875 23.4182 10.881 23.3551C10.4839 23.0078 10.3642 22.82 10.1803 22.5316C10.1486 22.482 10.1151 22.4295 10.078 22.3726C9.30713 23.1973 8.76221 23.4439 7.76548 23.4439C6.58504 23.4439 5.6665 22.6779 5.6665 21.146C5.6665 19.9494 6.28714 19.1365 7.15602 18.7372C7.79762 18.4412 8.65367 18.3493 9.39377 18.2699L9.39382 18.2699C9.53141 18.2551 9.665 18.2408 9.79246 18.2257V18.0352C9.79246 17.9988 9.79274 17.9617 9.79302 17.9242C9.79548 17.5994 9.79821 17.2377 9.62241 16.9652C9.45111 16.6937 9.1259 16.5828 8.83545 16.5828C8.30046 16.5828 7.82382 16.8712 7.70714 17.4675C7.69235 17.6066 7.59053 17.718 7.45889 17.739L6.11088 17.5837C6.04361 17.5735 5.98323 17.5349 5.94383 17.4767C5.90442 17.4185 5.88943 17.3459 5.90234 17.2757C6.2139 15.5428 7.70342 15.0196 9.03777 15.0196C9.72047 15.0196 10.6117 15.2101 11.1479 15.7529C11.7774 16.3725 11.7735 17.1836 11.7693 18.0699C11.7689 18.1431 11.7685 18.2168 11.7685 18.2909V20.5862C11.7685 21.2044 11.9867 21.5119 12.2165 21.8357L12.2165 21.8358L12.2166 21.8358L12.2166 21.8358L12.2166 21.8358L12.2166 21.8358C12.2439 21.8743 12.2713 21.9129 12.2986 21.9524C12.3879 22.0829 12.4078 22.246 12.2986 22.3439C12.0118 22.5957 11.5029 23.0602 11.2236 23.3225L11.2125 23.3199ZM9.79864 19.7263L9.79869 19.7977C9.79918 20.3405 9.7996 20.8007 9.53674 21.2921C9.31331 21.7071 8.95955 21.9628 8.56483 21.9628C8.02736 21.9628 7.71332 21.5322 7.71332 20.8928C7.71332 19.6375 8.78453 19.4092 9.79864 19.4092V19.7263ZM30.5947 21.8305L30.5948 21.8307C30.6221 21.8691 30.6495 21.9077 30.6767 21.9472C30.7711 22.0829 30.7909 22.2421 30.6705 22.3321C30.3838 22.584 29.8749 23.0498 29.5956 23.3108C29.5027 23.3938 29.3705 23.4073 29.2642 23.3447C28.8653 22.9958 28.7472 22.8108 28.5606 22.5187C28.5295 22.4699 28.4964 22.4181 28.4598 22.3621C27.6903 23.1868 27.1416 23.4334 26.1486 23.4334C24.9682 23.4334 24.0496 22.6675 24.0496 21.1368C24.0496 19.939 24.6665 19.126 25.5454 18.7267C26.1883 18.4296 27.0492 18.3382 27.7915 18.2594C27.9262 18.245 28.0569 18.2312 28.1818 18.2165V18.0299C28.1818 17.9937 28.1821 17.9569 28.1824 17.9195C28.1848 17.5946 28.1875 17.2328 28.0105 16.9612C27.8442 16.6898 27.5128 16.5776 27.2235 16.5776C26.6886 16.5776 26.2144 16.866 26.0965 17.4623C26.0813 17.6012 25.9797 17.7123 25.8482 17.7337L24.489 17.5797C24.4213 17.57 24.3604 17.5313 24.3207 17.4727C24.281 17.4142 24.266 17.341 24.2793 17.2705C24.5921 15.5363 26.0816 15.0144 27.4159 15.0144C28.0974 15.0144 28.9886 15.2049 29.5261 15.7477C30.1569 16.3641 30.1524 17.1688 30.1476 18.0507C30.1471 18.1284 30.1467 18.2068 30.1467 18.2857V20.5823C30.1467 21.1992 30.3648 21.5065 30.5946 21.8303L30.5947 21.8305ZM26.9505 21.955C27.3439 21.955 27.6989 21.6992 27.9211 21.2856C28.1849 20.7915 28.1846 20.3291 28.1843 19.7795L28.1843 19.721V19.4026C27.1702 19.4026 26.0989 19.6297 26.0989 20.8863C26.0989 21.5244 26.413 21.955 26.9505 21.955ZM31.8633 15.4188V16.4967C31.8626 16.5706 31.8907 16.6416 31.9411 16.6932C31.9916 16.7447 32.0599 16.7723 32.1302 16.7694H34.5432L31.7764 20.945C31.6501 21.169 31.5905 21.4276 31.6051 21.6875V22.7901C31.6051 22.9493 31.7727 23.1307 31.9328 23.0406C33.4588 22.2089 35.2735 22.2054 36.8023 23.0315C36.9773 23.1268 37.1424 22.9428 37.1424 22.7836V21.6248C37.1377 21.4477 37.0429 21.2868 36.8942 21.2034C36.0886 20.7271 35.1514 20.5875 34.2652 20.6097L36.6533 17.0265C36.8755 16.7055 36.9997 16.5019 36.9997 16.3466V15.4188C37.0004 15.3451 36.9724 15.2743 36.9223 15.2228C36.8721 15.1713 36.8041 15.1436 36.734 15.1461H32.1252C32.0551 15.142 31.9865 15.1693 31.9366 15.2213C31.8867 15.2733 31.86 15.3451 31.8633 15.4188Z" fill="#222222"/>
<path fill-rule="evenodd" clip-rule="evenodd" d="M34.1684 28.0749C34.4874 27.241 35.1974 25.3724 34.8597 24.9197H34.8622C34.5261 24.4659 32.6393 24.704 31.7907 24.8111L31.7889 24.8114C31.5307 24.844 31.491 24.6078 31.7231 24.4369C33.23 23.3238 35.6988 23.6422 35.9856 24.018C36.2723 24.3938 35.9074 26.9957 34.4961 28.238C34.2788 28.4285 34.0715 28.3267 34.1684 28.0749ZM24.0285 29.3615C27.3104 29.3615 31.1322 28.2719 33.7649 26.2298V26.2337C34.2006 25.8892 33.827 25.3829 33.3826 25.5813C30.5089 26.8555 27.4241 27.5207 24.3053 27.5386C19.9782 27.5386 15.7927 26.2911 12.4065 24.2203C12.1099 24.0389 11.8889 24.3586 12.1372 24.5922C15.3971 27.6841 19.6379 29.385 24.0285 29.3615Z" fill="#FF9900"/>
<rect x="0.5" y="0.5" width="57" height="39" rx="5.5" stroke="#EEF2F6"/>
</svg>
