<svg width="46" height="32" viewBox="0 0 46 32" fill="none" xmlns="http://www.w3.org/2000/svg">
<rect x="0.5" y="0.5" width="45" height="31" rx="3.5" fill="#1F72CD"/>
<path fill-rule="evenodd" clip-rule="evenodd" d="M8.12722 11.3333L3.88574 20.9956H8.96339L9.59287 19.4551H11.0317L11.6612 20.9956H17.2503V19.8198L17.7483 20.9956H20.6394L21.1374 19.795V20.9956H32.7611L34.1745 19.4951L35.498 20.9956L41.4682 21.0081L37.2133 16.1915L41.4682 11.3333H35.5906L34.2147 12.8062L32.9329 11.3333H20.2878L19.202 13.8272L18.0907 11.3333H13.0237V12.4691L12.46 11.3333H8.12722ZM9.10972 12.7054H11.5848L14.3982 19.2575V12.7054H17.1095L19.2825 17.4032L21.2852 12.7054H23.983V19.6387H22.3415L22.3281 14.2058L19.9348 19.6387H18.4664L16.0598 14.2058V19.6387H12.6827L12.0425 18.0844H8.58358L7.94468 19.6374H6.1353L9.10972 12.7054ZM32.1598 12.7054H25.4849V19.6346H32.0564L34.1745 17.3382L36.2161 19.6346H38.3502L35.2483 16.1901L38.3502 12.7054H36.3087L34.2013 14.9755L32.1598 12.7054ZM10.3138 13.8785L9.17419 16.6474H11.452L10.3138 13.8785ZM27.1332 15.4066V14.1409V14.1397H31.2982L33.1155 16.1639L31.2176 18.1991H27.1332V16.8173H30.7747V15.4066H27.1332Z" fill="white"/>
<rect x="0.5" y="0.5" width="45" height="31" rx="3.5" stroke="#EEF2F6"/>
</svg>
