<svg width="58" height="40" viewBox="0 0 58 40" fill="none" xmlns="http://www.w3.org/2000/svg">
<rect x="0.5" y="0.5" width="57" height="39" rx="5.5" fill="white"/>
<path fill-rule="evenodd" clip-rule="evenodd" d="M16.0077 13.9053C15.5155 14.4918 14.7279 14.9544 13.9403 14.8883C13.8419 14.0953 14.2275 13.2527 14.6787 12.7323C15.1709 12.1293 16.0323 11.6997 16.7297 11.6667C16.8117 12.4927 16.4918 13.3023 16.0077 13.9053ZM16.7214 15.0452C16.0276 15.005 15.3945 15.2553 14.8831 15.4575C14.554 15.5876 14.2753 15.6978 14.0633 15.6978C13.8254 15.6978 13.5352 15.5817 13.2094 15.4514C12.7825 15.2806 12.2944 15.0854 11.7826 15.0948C10.6094 15.1113 9.51827 15.7804 8.91938 16.846C7.68877 18.9772 8.59942 22.1327 9.789 23.8674C10.3715 24.7265 11.0688 25.6682 11.9877 25.6352C12.3919 25.6198 12.6827 25.4956 12.9837 25.367C13.3301 25.219 13.69 25.0652 14.252 25.0652C14.7945 25.0652 15.1387 25.215 15.4691 25.3587C15.7832 25.4954 16.0849 25.6267 16.5327 25.6186C17.4844 25.6021 18.0833 24.7596 18.6658 23.9005C19.2944 22.9784 19.5706 22.0786 19.6125 21.942L19.6175 21.9262C19.6164 21.9252 19.6087 21.9216 19.595 21.9153C19.3848 21.8184 17.7787 21.0781 17.7633 19.0929C17.7479 17.4265 19.0373 16.5823 19.2402 16.4494C19.2526 16.4413 19.2609 16.4358 19.2647 16.433C18.4443 15.2104 17.1644 15.0783 16.7214 15.0452ZM23.3093 25.5278V12.6497H28.1087C30.5863 12.6497 32.3174 14.3679 32.3174 16.879C32.3174 19.3902 30.5535 21.1249 28.0431 21.1249H25.2947V25.5278H23.3093ZM25.2946 14.3348H27.5835C29.3063 14.3348 30.2908 15.26 30.2908 16.8873C30.2908 18.5146 29.3063 19.4481 27.5753 19.4481H25.2946V14.3348ZM38.8725 23.9831C38.3475 24.9909 37.1907 25.6269 35.9437 25.6269C34.0978 25.6269 32.8097 24.52 32.8097 22.8514C32.8097 21.1993 34.0567 20.2493 36.3621 20.1089L38.8397 19.9602V19.2498C38.8397 18.2007 38.1588 17.6308 36.9446 17.6308C35.9437 17.6308 35.2135 18.1512 35.0658 18.9442H33.2773C33.3348 17.2756 34.8935 16.0613 37.002 16.0613C39.2745 16.0613 40.7512 17.259 40.7512 19.1176V25.5278H38.9135V23.9831H38.8725ZM36.4768 24.0987C35.4185 24.0987 34.7457 23.5866 34.7457 22.8018C34.7457 21.9923 35.3939 21.5214 36.6327 21.4471L38.8396 21.3067V22.0336C38.8396 23.2396 37.8223 24.0987 36.4768 24.0987ZM46.8468 26.0317C46.051 28.2868 45.1403 29.0303 43.2042 29.0303C43.0565 29.0303 42.5643 29.0137 42.4494 28.9807V27.436C42.5725 27.4525 42.876 27.469 43.0319 27.469C43.9097 27.469 44.402 27.0973 44.7055 26.1308L44.886 25.5608L41.5223 16.1852H43.598L45.9361 23.7931H45.9771L48.3153 16.1852H50.3335L46.8468 26.0317Z" fill="#222222"/>
<rect x="0.5" y="0.5" width="57" height="39" rx="5.5" stroke="#EEF2F6"/>
</svg>
