<svg width="46" height="32" viewBox="0 0 46 32" fill="none" xmlns="http://www.w3.org/2000/svg">
<rect x="0.5" y="0.5" width="45" height="31" rx="3.5" fill="white"/>
<path d="M33.9881 9.91742H24.9591L24.0408 10.983L21.061 14.4405V14.4407L20.1427 15.5061H11.233L12.1371 14.4271L12.565 13.9164L13.4691 12.8374H9.36372C8.61371 12.8374 8 13.4859 8 14.2786V17.3195C8 18.1122 8.61371 18.7608 9.36372 18.7608H25.0808C25.8308 18.7608 26.8554 18.2791 27.3576 17.6903L29.7351 14.9033L33.9881 9.91742Z" fill="#005697"/>
<path d="M35.8021 6.66669C36.5521 6.66669 37.1659 7.31526 37.1659 8.10799V11.1488C37.1659 11.9414 36.5521 12.5901 35.8021 12.5901H31.7102L32.6228 11.5192H32.6229L33.0754 10.9882L33.988 9.91741H24.9591L20.1427 15.5102H11.1777L17.607 8.01783L17.8502 7.73428C18.3542 7.14708 19.3801 6.66669 20.1301 6.66669H35.8021V6.66669Z" fill="#FBD500"/>
<path fill-rule="evenodd" clip-rule="evenodd" d="M11.0733 23.9301C11.0733 23.7316 11.0278 23.5597 10.9371 23.4146C10.8463 23.2695 10.7269 23.1588 10.5787 23.0824C10.7269 23.006 10.8417 22.8933 10.9233 22.7444C11.0048 22.5955 11.0455 22.4275 11.0455 22.2404V22.1373C11.0455 21.9081 11.0029 21.7173 10.9177 21.5645C10.8325 21.4118 10.7129 21.2895 10.5592 21.1979C10.4055 21.1062 10.2211 21.0405 10.0063 21.0002C9.79129 20.9602 9.5524 20.9402 9.28929 20.9402C9.20042 20.9402 9.10776 20.9421 9.01151 20.9459C8.91503 20.9497 8.82156 20.9545 8.73085 20.9602C8.64003 20.9659 8.55659 20.9727 8.48077 20.9803C8.40472 20.988 8.34263 20.9956 8.29451 21.0031C8.18707 21.0224 8.11113 21.0566 8.0667 21.1062C8.02227 21.1559 8 21.2457 8 21.3755V24.858C8 24.9879 8.02308 25.0776 8.06947 25.1272C8.11575 25.1769 8.19445 25.2112 8.3057 25.2303C8.36121 25.2417 8.42792 25.2512 8.5057 25.259C8.58348 25.2666 8.66772 25.2732 8.75855 25.279C8.84937 25.2847 8.94284 25.2894 9.03921 25.2933C9.13557 25.297 9.22997 25.2991 9.32264 25.2991C9.56348 25.2991 9.79037 25.2799 10.0035 25.2417C10.2164 25.2037 10.4017 25.1358 10.5592 25.0383C10.7167 24.9411 10.8417 24.8093 10.9344 24.6432C11.0269 24.4771 11.0733 24.268 11.0733 24.0159V23.9301ZM10.1286 22.2862C10.1286 22.3473 10.1193 22.4056 10.1008 22.4609C10.0822 22.5162 10.0517 22.5639 10.0091 22.6042C9.96643 22.6442 9.90907 22.6767 9.83683 22.7014C9.76459 22.7263 9.67284 22.7386 9.56171 22.7386H8.93934V21.7477C8.95781 21.7477 8.98654 21.7469 9.02543 21.7449C9.06432 21.743 9.10506 21.742 9.14764 21.742H9.3616C9.64688 21.742 9.84606 21.7793 9.95904 21.8537C10.072 21.9282 10.1286 22.0437 10.1286 22.2002V22.2862ZM9.98686 24.3654C10.0961 24.2776 10.1508 24.1534 10.1508 23.9931V23.93C10.1508 23.7926 10.1081 23.6733 10.023 23.572C9.9377 23.4709 9.78398 23.4203 9.56171 23.4203H8.93934V24.4913H9.03651C9.07909 24.4913 9.12352 24.4925 9.16992 24.4943C9.21619 24.4962 9.26062 24.4973 9.30332 24.4973H9.39495C9.68023 24.4973 9.87757 24.4533 9.98686 24.3654ZM14.1188 23.0881C14.1188 22.8781 14.0883 22.6995 14.0271 22.5525C13.966 22.4056 13.8798 22.2852 13.7687 22.1916C13.6576 22.0981 13.5214 22.0295 13.3602 21.9855C13.1991 21.9416 13.0185 21.9196 12.8184 21.9196C12.633 21.9196 12.4524 21.933 12.2765 21.9598C12.1004 21.9864 11.9606 22.0132 11.8569 22.0399C11.7865 22.0591 11.7513 22.101 11.7513 22.1658V22.6298C11.7513 22.6681 11.7606 22.6948 11.7792 22.71C11.7976 22.7253 11.8216 22.733 11.8514 22.733H11.8791L12.0459 22.7186C12.1126 22.7129 12.1876 22.7083 12.271 22.7042C12.3543 22.7006 12.4413 22.6977 12.5322 22.6957C12.6229 22.6938 12.7128 22.6928 12.8017 22.6928C12.9313 22.6928 13.0332 22.7177 13.1073 22.7673C13.1814 22.817 13.2185 22.9239 13.2185 23.0881V23.2943H12.9184C12.4404 23.2943 12.0931 23.3716 11.8763 23.5262C11.6596 23.6809 11.5512 23.9262 11.5512 24.2622V24.314C11.5512 24.5009 11.5781 24.6575 11.6318 24.7834C11.6855 24.9095 11.7569 25.0107 11.8457 25.0872C11.9347 25.1634 12.0356 25.2179 12.1487 25.2503C12.2617 25.2827 12.3794 25.299 12.5016 25.299C12.6683 25.299 12.8119 25.2761 12.9323 25.2303C13.0526 25.1845 13.1665 25.1214 13.2741 25.0413V25.1329C13.2741 25.1634 13.2852 25.1902 13.3074 25.213C13.3297 25.236 13.3556 25.2474 13.3852 25.2474H14.0077C14.0373 25.2474 14.0632 25.236 14.0855 25.213C14.1078 25.1902 14.1188 25.1634 14.1188 25.1329V23.0881ZM13.0213 24.5629C13.0971 24.5382 13.1685 24.5085 13.2352 24.4742V23.8442H12.9184C12.8221 23.8442 12.7424 23.8527 12.6794 23.8698C12.6164 23.8871 12.5663 23.9129 12.5294 23.9473C12.4924 23.9815 12.4664 24.0255 12.4516 24.0789C12.4367 24.1325 12.4294 24.1935 12.4294 24.2622V24.314C12.4294 24.436 12.458 24.5142 12.5154 24.5486C12.5729 24.583 12.6609 24.6001 12.7795 24.6001C12.8647 24.6001 12.9452 24.5879 13.0213 24.5629ZM17.5201 25.1272V23.2197C17.5201 23.0405 17.5062 22.8714 17.4784 22.7129C17.4506 22.5546 17.4006 22.417 17.3284 22.3004C17.2561 22.184 17.1561 22.0914 17.0282 22.0227C16.9005 21.954 16.7365 21.9196 16.5364 21.9196C16.3585 21.9196 16.201 21.9417 16.064 21.986C15.9269 22.0302 15.7824 22.1081 15.6306 22.2197V22.0809C15.6306 22.0502 15.6194 22.0232 15.5972 22.0001C15.5749 21.9771 15.549 21.9654 15.5193 21.9654H14.8969C14.8672 21.9654 14.8413 21.9768 14.8192 21.9998C14.7969 22.0227 14.7858 22.0495 14.7858 22.0799V25.1272C14.7858 25.1577 14.7977 25.1854 14.8219 25.2102C14.8459 25.235 14.8728 25.2474 14.9025 25.2474H15.5749C15.6046 25.2474 15.6306 25.235 15.6527 25.2103C15.675 25.1855 15.6861 25.158 15.6861 25.1274V22.8756C15.7824 22.8224 15.8731 22.7786 15.9584 22.7443C16.0436 22.71 16.1269 22.6928 16.2085 22.6928C16.2937 22.6928 16.3631 22.7014 16.4169 22.7186C16.4706 22.7358 16.5122 22.7653 16.5419 22.8074C16.5716 22.8491 16.592 22.9043 16.6031 22.9728C16.6141 23.0414 16.6198 23.1253 16.6198 23.2244V25.1274C16.6198 25.158 16.6309 25.1855 16.6531 25.2103C16.6753 25.235 16.7012 25.2474 16.7309 25.2474H17.4034C17.4329 25.2474 17.4598 25.235 17.4839 25.2102C17.5081 25.1854 17.5201 25.1577 17.5201 25.1272ZM20.2543 24.5717V25.0814C20.2543 25.1233 20.245 25.153 20.2265 25.1701C20.2079 25.1873 20.1783 25.2016 20.1375 25.213C20.0598 25.2322 19.9588 25.2512 19.8347 25.2705C19.7105 25.2894 19.5651 25.299 19.3984 25.299C19.0057 25.299 18.6916 25.175 18.4565 24.9266C18.2211 24.6785 18.1036 24.3196 18.1036 23.8499V23.3688C18.1036 22.8991 18.2211 22.5401 18.4565 22.292C18.6916 22.0437 19.0057 21.9196 19.3984 21.9196C19.5651 21.9196 19.7105 21.9291 19.8347 21.9482C19.9588 21.9674 20.0598 21.9864 20.1375 22.0055C20.1783 22.0169 20.2079 22.0313 20.2265 22.0484C20.245 22.0657 20.2543 22.0953 20.2543 22.1373V22.647C20.2543 22.6776 20.2441 22.7014 20.2237 22.7186C20.2033 22.7358 20.1783 22.7443 20.1487 22.7443H20.1375C20.0338 22.733 19.9348 22.7234 19.8403 22.7158C19.7457 22.7083 19.6188 22.7042 19.4595 22.7042C19.3965 22.7042 19.3373 22.7148 19.2817 22.7358C19.2261 22.7568 19.178 22.7931 19.1372 22.8446C19.0964 22.8962 19.0641 22.9648 19.0399 23.0508C19.0158 23.1367 19.0038 23.2427 19.0038 23.3688V23.8499C19.0038 23.9758 19.0158 24.0818 19.0399 24.1678C19.0641 24.2537 19.0964 24.3224 19.1372 24.3739C19.178 24.4255 19.2261 24.4618 19.2817 24.4827C19.3373 24.5038 19.3965 24.5143 19.4595 24.5143C19.6188 24.5143 19.7457 24.5105 19.8403 24.5028C19.9348 24.4952 20.0338 24.4856 20.1375 24.4742H20.1487C20.1783 24.4742 20.2033 24.4827 20.2237 24.5C20.2441 24.5172 20.2543 24.541 20.2543 24.5717ZM23.3389 23.4088C23.3389 23.1796 23.3082 22.9735 23.247 22.7902C23.1857 22.607 23.0966 22.4514 22.9797 22.3234C22.8628 22.1955 22.718 22.0962 22.5454 22.0256C22.3728 21.955 22.1731 21.9196 21.9467 21.9196C21.7203 21.9196 21.5208 21.955 21.3481 22.0256C21.1755 22.0962 21.0297 22.1955 20.911 22.3234C20.7921 22.4514 20.7021 22.607 20.6409 22.7902C20.5795 22.9735 20.549 23.1796 20.549 23.4088V23.8098C20.549 24.0389 20.5795 24.2451 20.6409 24.4284C20.7021 24.6117 20.7921 24.7672 20.911 24.8952C21.0297 25.0232 21.1755 25.1224 21.3481 25.193C21.5208 25.2636 21.7203 25.299 21.9467 25.299C22.1731 25.299 22.3728 25.2636 22.5454 25.193C22.718 25.1224 22.8628 25.0232 22.9797 24.8952C23.0966 24.7672 23.1857 24.6117 23.247 24.4284C23.3082 24.2451 23.3389 24.0389 23.3389 23.8098V23.4088ZM21.9467 24.5143C22.2746 24.5143 22.4386 24.2795 22.4386 23.8098V23.4088C22.4386 22.943 22.2746 22.71 21.9467 22.71C21.7846 22.71 21.6612 22.7682 21.5765 22.8847C21.4917 23.0012 21.4493 23.176 21.4493 23.4088V23.8098C21.4493 24.0427 21.4917 24.2183 21.5765 24.3367C21.6612 24.4551 21.7846 24.5143 21.9467 24.5143ZM26.6454 25.1272V23.2197C26.6454 23.0405 26.6314 22.8714 26.6038 22.7129C26.576 22.5546 26.5259 22.417 26.4535 22.3004C26.3813 22.184 26.2814 22.0914 26.1536 22.0227C26.0257 21.954 25.8617 21.9196 25.6618 21.9196C25.4839 21.9196 25.3264 21.9417 25.1893 21.986C25.0522 22.0302 24.9077 22.1081 24.7558 22.2197V22.0809C24.7558 22.0502 24.7448 22.0232 24.7224 22.0001C24.7003 21.9771 24.6742 21.9654 24.6447 21.9654H24.0222C23.9926 21.9654 23.9667 21.9768 23.9444 21.9998C23.9223 22.0227 23.9111 22.0495 23.9111 22.0799V25.1272C23.9111 25.1577 23.9231 25.1854 23.9472 25.2102C23.9713 25.235 23.9981 25.2474 24.0279 25.2474H24.7003C24.7299 25.2474 24.7558 25.235 24.7781 25.2103C24.8003 25.1855 24.8115 25.158 24.8115 25.1274V22.8756C24.9077 22.8224 24.9985 22.7786 25.0837 22.7443C25.169 22.71 25.2523 22.6928 25.3339 22.6928C25.4191 22.6928 25.4885 22.7014 25.5422 22.7186C25.5959 22.7358 25.6376 22.7653 25.6673 22.8074C25.6969 22.8491 25.7173 22.9043 25.7285 22.9728C25.7395 23.0414 25.7451 23.1253 25.7451 23.2244V25.1274C25.7451 25.158 25.7562 25.1855 25.7784 25.2103C25.8007 25.235 25.8265 25.2474 25.8562 25.2474H26.5287C26.5583 25.2474 26.5852 25.235 26.6093 25.2102C26.6333 25.1854 26.6454 25.1577 26.6454 25.1272ZM29.0687 24.6967V25.14C29.0687 25.2043 29.0335 25.2423 28.9631 25.2534C28.8778 25.2687 28.8037 25.28 28.7408 25.2876C28.6778 25.2952 28.6055 25.299 28.5241 25.299C28.3729 25.299 28.2394 25.2865 28.1234 25.2618C28.0075 25.2369 27.9106 25.1883 27.8333 25.1157C27.7561 25.0432 27.6971 24.9429 27.6566 24.8149C27.6162 24.6871 27.5959 24.5221 27.5959 24.3195V22.6586L27.1514 22.584C27.1216 22.5764 27.0948 22.5621 27.0707 22.541C27.0466 22.5201 27.0346 22.4943 27.0346 22.4637V22.0856C27.0346 22.0552 27.0466 22.0275 27.0707 22.0026C27.0948 21.9779 27.1216 21.9654 27.1514 21.9654H27.5959V21.4957C27.5959 21.4651 27.607 21.4404 27.629 21.4212C27.651 21.4022 27.6769 21.3889 27.7065 21.3812L28.3803 21.261H28.3968C28.4262 21.261 28.4503 21.2695 28.4687 21.2866C28.4871 21.3038 28.4963 21.3277 28.4963 21.3582V21.9654H28.952C28.9816 21.9654 29.0075 21.9769 29.0298 22C29.0521 22.0231 29.0632 22.0502 29.0632 22.0809V22.5487C29.0632 22.5796 29.0521 22.6065 29.0298 22.6295C29.0075 22.6526 28.9816 22.6641 28.952 22.6641H28.4963V24.331C28.4963 24.4455 28.5055 24.5191 28.5241 24.5515C28.5426 24.5839 28.5944 24.6001 28.6796 24.6001H28.952C29.0298 24.6001 29.0687 24.6323 29.0687 24.6967ZM32.0363 23.0881C32.0363 22.8781 32.0058 22.6995 31.9445 22.5525C31.8835 22.4056 31.7974 22.2852 31.6863 22.1916C31.5751 22.0981 31.439 22.0295 31.2777 21.9855C31.1166 21.9416 30.936 21.9196 30.7359 21.9196C30.5505 21.9196 30.37 21.933 30.1941 21.9598C30.018 21.9864 29.8781 22.0132 29.7745 22.0399C29.7039 22.0591 29.6689 22.101 29.6689 22.1658V22.6298C29.6689 22.6681 29.678 22.6948 29.6966 22.71C29.7152 22.7253 29.7392 22.733 29.7688 22.733H29.7967L29.9634 22.7186C30.0301 22.7129 30.1051 22.7083 30.1884 22.7042C30.2719 22.7006 30.3589 22.6977 30.4497 22.6957C30.5404 22.6938 30.6303 22.6928 30.7192 22.6928C30.8489 22.6928 30.9508 22.7177 31.0249 22.7673C31.099 22.817 31.136 22.9239 31.136 23.0881V23.2943H30.836C30.3579 23.2943 30.0106 23.3716 29.7939 23.5262C29.5772 23.6809 29.4688 23.9262 29.4688 24.2622V24.314C29.4688 24.5009 29.4956 24.6575 29.5493 24.7834C29.6029 24.9095 29.6744 25.0107 29.7633 25.0872C29.8523 25.1634 29.9531 25.2179 30.0662 25.2503C30.1792 25.2827 30.2968 25.299 30.4191 25.299C30.5859 25.299 30.7293 25.2761 30.8498 25.2303C30.9702 25.1845 31.084 25.1214 31.1916 25.0413V25.1329C31.1916 25.1634 31.2027 25.1902 31.225 25.213C31.2472 25.236 31.2731 25.2474 31.3028 25.2474H31.9253C31.9548 25.2474 31.9808 25.236 32.003 25.213C32.0252 25.1902 32.0363 25.1634 32.0363 25.1329V23.0881ZM30.9388 24.5629C31.0146 24.5382 31.086 24.5085 31.1528 24.4742V23.8442H30.836C30.7396 23.8442 30.66 23.8527 30.597 23.8698C30.534 23.8871 30.4839 23.9129 30.4469 23.9473C30.4098 23.9815 30.3838 24.0255 30.3692 24.0789C30.3543 24.1325 30.3469 24.1935 30.3469 24.2622V24.314C30.3469 24.436 30.3755 24.5142 30.433 24.5486C30.4905 24.583 30.5784 24.6001 30.697 24.6001C30.7822 24.6001 30.8626 24.5879 30.9388 24.5629ZM34.7706 25.0814V24.5717C34.7706 24.541 34.7604 24.5172 34.7401 24.5C34.7196 24.4827 34.6947 24.4742 34.665 24.4742H34.654C34.5502 24.4856 34.4511 24.4952 34.3566 24.5028C34.2622 24.5105 34.1352 24.5143 33.976 24.5143C33.9128 24.5143 33.8535 24.5038 33.7981 24.4827C33.7425 24.4618 33.6943 24.4255 33.6535 24.3739C33.6128 24.3224 33.5804 24.2537 33.5564 24.1678C33.5321 24.0818 33.5202 23.9758 33.5202 23.8499V23.3688C33.5202 23.2427 33.5321 23.1367 33.5564 23.0508C33.5804 22.9648 33.6128 22.8962 33.6535 22.8446C33.6943 22.7931 33.7425 22.7568 33.7981 22.7358C33.8535 22.7148 33.9128 22.7042 33.976 22.7042C34.1352 22.7042 34.2622 22.7083 34.3566 22.7158C34.4511 22.7234 34.5502 22.733 34.654 22.7443H34.665C34.6947 22.7443 34.7196 22.7358 34.7401 22.7186C34.7604 22.7014 34.7706 22.6776 34.7706 22.647V22.1373C34.7706 22.0953 34.7614 22.0657 34.7428 22.0484C34.7241 22.0313 34.6947 22.0169 34.654 22.0055C34.5762 21.9864 34.4751 21.9674 34.351 21.9482C34.2269 21.9291 34.0816 21.9196 33.9148 21.9196C33.5219 21.9196 33.2081 22.0437 32.9728 22.292C32.7375 22.5401 32.6199 22.8991 32.6199 23.3688V23.8499C32.6199 24.3196 32.7375 24.6785 32.9728 24.9266C33.2081 25.175 33.5219 25.299 33.9148 25.299C34.0816 25.299 34.2269 25.2894 34.351 25.2705C34.4751 25.2512 34.5762 25.2322 34.654 25.213C34.6947 25.2016 34.7241 25.1873 34.7428 25.1701C34.7614 25.153 34.7706 25.1233 34.7706 25.0814ZM37.1659 24.6967V25.14C37.1659 25.2043 37.1306 25.2423 37.0603 25.2534C36.975 25.2687 36.9009 25.28 36.838 25.2876C36.7749 25.2952 36.7026 25.299 36.6213 25.299C36.4701 25.299 36.3366 25.2865 36.2206 25.2618C36.1045 25.2369 36.0078 25.1883 35.9306 25.1157C35.8533 25.0432 35.7943 24.9429 35.7538 24.8149C35.7134 24.6871 35.6931 24.5221 35.6931 24.3195V22.6586L35.2486 22.584C35.2188 22.5764 35.192 22.5621 35.1679 22.541C35.1438 22.5201 35.1318 22.4943 35.1318 22.4637V22.0856C35.1318 22.0552 35.1438 22.0275 35.1679 22.0026C35.192 21.9779 35.2188 21.9654 35.2486 21.9654H35.6931V21.4957C35.6931 21.4651 35.7042 21.4404 35.7262 21.4212C35.7481 21.4022 35.774 21.3889 35.8035 21.3812L36.4774 21.261H36.494C36.5234 21.261 36.5474 21.2695 36.5657 21.2866C36.5842 21.3038 36.5935 21.3277 36.5935 21.3582V21.9654H37.0492C37.0787 21.9654 37.1047 21.9769 37.127 22C37.1491 22.0231 37.1603 22.0502 37.1603 22.0809V22.5487C37.1603 22.5796 37.1491 22.6065 37.127 22.6295C37.1047 22.6526 37.0787 22.6641 37.0492 22.6641H36.5935V24.331C36.5935 24.4455 36.6027 24.5191 36.6213 24.5515C36.6397 24.5839 36.6916 24.6001 36.7768 24.6001H37.0492C37.127 24.6001 37.1659 24.6323 37.1659 24.6967Z" fill="#005697"/>
<rect x="0.5" y="0.5" width="45" height="31" rx="3.5" stroke="#EEF2F6"/>
</svg>
