<svg width="28" height="20" viewBox="0 0 28 20" fill="none" xmlns="http://www.w3.org/2000/svg">
<rect x="0.5" y="0.5" width="27" height="19" rx="3.5" fill="white"/>
<path d="M20.9929 6.19836H15.4161L14.849 6.86435L13.0085 9.02532V9.02539L12.4413 9.6913H6.93827L7.49667 9.01692L7.76097 8.69772L8.31937 8.02333H5.7837C5.32047 8.02333 4.94141 8.42869 4.94141 8.92407V10.8246C4.94141 11.3201 5.32047 11.7255 5.7837 11.7255H15.4913C15.9546 11.7255 16.5874 11.4244 16.8976 11.0564L18.366 9.31456L20.9929 6.19836Z" fill="#005697"/>
<path d="M22.1135 4.16669C22.5767 4.16669 22.9558 4.57205 22.9558 5.0675V6.968C22.9558 7.46338 22.5767 7.86881 22.1135 7.86881H19.5861L20.1498 7.19948H20.1498L20.4293 6.86764L20.993 6.19839H15.4163L12.4415 9.69385H6.9043L10.8753 5.01115L11.0255 4.83393C11.3368 4.46693 11.9705 4.16669 12.4337 4.16669H22.1135V4.16669Z" fill="#FBD500"/>
<path fill-rule="evenodd" clip-rule="evenodd" d="M6.83962 14.9563C6.83962 14.8322 6.81154 14.7248 6.75551 14.6341C6.69942 14.5434 6.62565 14.4742 6.53412 14.4265C6.62565 14.3787 6.69657 14.3083 6.74696 14.2152C6.79728 14.1221 6.82245 14.0172 6.82245 13.9002V13.8358C6.82245 13.6925 6.79614 13.5733 6.74354 13.4778C6.69087 13.3823 6.61702 13.3059 6.52208 13.2487C6.42713 13.1914 6.31323 13.1503 6.18058 13.1251C6.04779 13.1001 5.90024 13.0876 5.73773 13.0876C5.68284 13.0876 5.62561 13.0888 5.56616 13.0912C5.50657 13.0935 5.44884 13.0965 5.39281 13.1001C5.33672 13.1036 5.28518 13.1079 5.23835 13.1126C5.19138 13.1175 5.15303 13.1222 5.12331 13.1269C5.05695 13.139 5.01005 13.1604 4.98261 13.1914C4.95516 13.2224 4.94141 13.2786 4.94141 13.3597V15.5362C4.94141 15.6174 4.95566 15.6735 4.98432 15.7045C5.0129 15.7355 5.06151 15.7569 5.13022 15.7689C5.16451 15.776 5.20571 15.782 5.25375 15.7868C5.30179 15.7916 5.35382 15.7957 5.40992 15.7993C5.46602 15.8029 5.52375 15.8059 5.58327 15.8083C5.64279 15.8106 5.70109 15.8119 5.75833 15.8119C5.90709 15.8119 6.04722 15.7999 6.17887 15.776C6.31038 15.7523 6.42478 15.7098 6.52208 15.6489C6.61937 15.5881 6.69657 15.5058 6.7538 15.402C6.81097 15.2981 6.83962 15.1675 6.83962 15.0099V14.9563ZM6.25611 13.9288C6.25611 13.967 6.25041 14.0035 6.23894 14.038C6.22746 14.0726 6.20864 14.1024 6.18234 14.1276C6.15597 14.1526 6.12054 14.1729 6.07592 14.1883C6.0313 14.2039 5.97464 14.2116 5.90599 14.2116H5.52159V13.5923C5.53299 13.5923 5.55074 13.5918 5.57476 13.5905C5.59878 13.5893 5.62395 13.5887 5.65025 13.5887H5.7824C5.9586 13.5887 6.08162 13.612 6.15141 13.6585C6.22119 13.7051 6.25611 13.7773 6.25611 13.8751V13.9288ZM6.16859 15.2283C6.23609 15.1735 6.26987 15.0959 6.26987 14.9957V14.9563C6.26987 14.8703 6.2435 14.7958 6.1909 14.7325C6.13822 14.6693 6.04328 14.6376 5.90599 14.6376H5.52159V15.307H5.58161C5.60791 15.307 5.63535 15.3078 5.664 15.3089C5.69259 15.3101 5.72003 15.3108 5.7464 15.3108H5.803C5.9792 15.3108 6.10108 15.2833 6.16859 15.2283ZM8.72069 14.43C8.72069 14.2988 8.7018 14.1872 8.66403 14.0953C8.62632 14.0035 8.57308 13.9282 8.50443 13.8697C8.43579 13.8113 8.35168 13.7684 8.25211 13.7409C8.1526 13.7135 8.04105 13.6997 7.91746 13.6997C7.80298 13.6997 7.69143 13.7081 7.5828 13.7248C7.47403 13.7415 7.38764 13.7582 7.32364 13.7749C7.28016 13.7869 7.25842 13.8131 7.25842 13.8536V14.1436C7.25842 14.1675 7.26412 14.1843 7.27559 14.1937C7.287 14.2033 7.30182 14.2081 7.32021 14.2081H7.33732L7.44032 14.1991C7.48152 14.1956 7.52785 14.1927 7.57938 14.1901C7.63085 14.1878 7.68459 14.186 7.74069 14.1848C7.79671 14.1836 7.85224 14.183 7.90719 14.183C7.98724 14.183 8.05018 14.1985 8.09594 14.2295C8.1417 14.2606 8.16458 14.3274 8.16458 14.43V14.5589H7.97925C7.68402 14.5589 7.46947 14.6072 7.33561 14.7039C7.20175 14.8005 7.13482 14.9539 7.13482 15.1639V15.1962C7.13482 15.3131 7.15143 15.4109 7.18457 15.4896C7.21772 15.5684 7.26184 15.6317 7.31672 15.6795C7.37168 15.7271 7.43397 15.7612 7.50383 15.7814C7.57361 15.8017 7.64631 15.8119 7.7218 15.8119C7.82479 15.8119 7.91346 15.7975 7.98781 15.7689C8.06215 15.7403 8.1325 15.7009 8.19894 15.6508V15.708C8.19894 15.7271 8.20578 15.7438 8.21953 15.7581C8.23329 15.7725 8.24926 15.7796 8.26758 15.7796H8.65205C8.6703 15.7796 8.68634 15.7725 8.70009 15.7581C8.71385 15.7438 8.72069 15.7271 8.72069 15.708V14.43ZM8.04277 15.3518C8.0896 15.3363 8.13372 15.3178 8.17492 15.2963V14.9026H7.97926C7.91974 14.9026 7.87056 14.9079 7.83164 14.9186C7.79273 14.9294 7.76179 14.9455 7.73898 14.967C7.7161 14.9884 7.70006 15.0159 7.69094 15.0493C7.68175 15.0828 7.67718 15.1209 7.67718 15.1639V15.1962C7.67718 15.2725 7.69486 15.3214 7.73036 15.3429C7.76585 15.3643 7.82017 15.375 7.89344 15.375C7.94605 15.375 7.9958 15.3674 8.04277 15.3518ZM10.8214 15.7044V14.5123C10.8214 14.4003 10.8129 14.2946 10.7957 14.1956C10.7785 14.0966 10.7477 14.0106 10.703 13.9377C10.6584 13.865 10.5966 13.8071 10.5177 13.7642C10.4387 13.7212 10.3375 13.6997 10.2139 13.6997C10.104 13.6997 10.0067 13.7136 9.92212 13.7412C9.83744 13.7689 9.7482 13.8175 9.6544 13.8873V13.8005C9.6544 13.7813 9.64749 13.7645 9.6338 13.75C9.62004 13.7356 9.60401 13.7283 9.58569 13.7283H9.20128C9.18289 13.7283 9.16693 13.7355 9.15324 13.7498C9.13948 13.7642 9.13264 13.7809 9.13264 13.7999V15.7044C9.13264 15.7235 9.13998 15.7409 9.15495 15.7563C9.16978 15.7719 9.18638 15.7796 9.2047 15.7796H9.62004C9.63836 15.7796 9.6544 15.7719 9.66808 15.7564C9.68184 15.7409 9.68868 15.7237 9.68868 15.7046V14.2972C9.7482 14.2639 9.80423 14.2366 9.8569 14.2152C9.9095 14.1937 9.96097 14.183 10.0114 14.183C10.064 14.183 10.1069 14.1883 10.1401 14.1991C10.1732 14.2098 10.199 14.2283 10.2173 14.2546C10.2356 14.2807 10.2482 14.3152 10.2551 14.358C10.2619 14.4009 10.2654 14.4533 10.2654 14.5152V15.7046C10.2654 15.7237 10.2722 15.7409 10.286 15.7564C10.2997 15.7719 10.3156 15.7796 10.334 15.7796H10.7494C10.7676 15.7796 10.7842 15.7719 10.7991 15.7563C10.814 15.7409 10.8214 15.7235 10.8214 15.7044ZM12.5103 15.3573V15.6758C12.5103 15.7021 12.5045 15.7206 12.4931 15.7313C12.4816 15.7421 12.4633 15.751 12.4381 15.7581C12.3901 15.7701 12.3277 15.782 12.2511 15.794C12.1744 15.8058 12.0846 15.8119 11.9816 15.8119C11.739 15.8119 11.5451 15.7343 11.3998 15.5791C11.2545 15.424 11.1818 15.1997 11.1818 14.9061V14.6054C11.1818 14.3119 11.2545 14.0875 11.3998 13.9325C11.5451 13.7773 11.739 13.6997 11.9816 13.6997C12.0846 13.6997 12.1744 13.7057 12.2511 13.7176C12.3277 13.7296 12.3901 13.7415 12.4381 13.7534C12.4633 13.7605 12.4816 13.7695 12.4931 13.7802C12.5045 13.791 12.5103 13.8095 12.5103 13.8358V14.1544C12.5103 14.1735 12.5039 14.1883 12.4914 14.1991C12.4787 14.2098 12.4633 14.2152 12.445 14.2152H12.4381C12.374 14.2081 12.3129 14.2021 12.2545 14.1973C12.1961 14.1927 12.1177 14.1901 12.0194 14.1901C11.9804 14.1901 11.9439 14.1967 11.9095 14.2098C11.8752 14.223 11.8454 14.2457 11.8203 14.2778C11.795 14.3101 11.7751 14.353 11.7602 14.4067C11.7453 14.4604 11.7379 14.5266 11.7379 14.6054V14.9061C11.7379 14.9849 11.7453 15.0511 11.7602 15.1048C11.7751 15.1585 11.795 15.2015 11.8203 15.2337C11.8454 15.2659 11.8752 15.2886 11.9095 15.3017C11.9439 15.3148 11.9804 15.3214 12.0194 15.3214C12.1177 15.3214 12.1961 15.319 12.2545 15.3142C12.3129 15.3095 12.374 15.3035 12.4381 15.2963H12.445C12.4633 15.2963 12.4787 15.3017 12.4914 15.3125C12.5039 15.3232 12.5103 15.3381 12.5103 15.3573ZM14.4155 14.6305C14.4155 14.4872 14.3965 14.3584 14.3587 14.2439C14.3208 14.1293 14.2658 14.0321 14.1936 13.9521C14.1214 13.8722 14.0319 13.8101 13.9253 13.766C13.8187 13.7219 13.6954 13.6997 13.5556 13.6997C13.4157 13.6997 13.2925 13.7219 13.1858 13.766C13.0792 13.8101 12.9892 13.8722 12.9158 13.9521C12.8424 14.0321 12.7868 14.1293 12.749 14.2439C12.7111 14.3584 12.6922 14.4872 12.6922 14.6305V14.8811C12.6922 15.0243 12.7111 15.1532 12.749 15.2677C12.7868 15.3823 12.8424 15.4795 12.9158 15.5595C12.9892 15.6395 13.0792 15.7015 13.1858 15.7456C13.2925 15.7897 13.4157 15.8119 13.5556 15.8119C13.6954 15.8119 13.8187 15.7897 13.9253 15.7456C14.0319 15.7015 14.1214 15.6395 14.1936 15.5595C14.2658 15.4795 14.3208 15.3823 14.3587 15.2677C14.3965 15.1532 14.4155 15.0243 14.4155 14.8811V14.6305ZM13.5556 15.3214C13.7581 15.3214 13.8593 15.1746 13.8593 14.8811V14.6305C13.8593 14.3393 13.7581 14.1937 13.5556 14.1937C13.4554 14.1937 13.3792 14.2301 13.3269 14.3029C13.2745 14.3757 13.2483 14.4849 13.2483 14.6305V14.8811C13.2483 15.0266 13.2745 15.1364 13.3269 15.2104C13.3792 15.2844 13.4554 15.3214 13.5556 15.3214ZM16.4577 15.7044V14.5123C16.4577 14.4003 16.449 14.2946 16.432 14.1956C16.4148 14.0966 16.3839 14.0106 16.3392 13.9377C16.2946 13.865 16.2328 13.8071 16.1539 13.7642C16.0749 13.7212 15.9737 13.6997 15.8501 13.6997C15.7403 13.6997 15.643 13.7136 15.5583 13.7412C15.4736 13.7689 15.3844 13.8175 15.2906 13.8873V13.8005C15.2906 13.7813 15.2838 13.7645 15.2699 13.75C15.2563 13.7356 15.2402 13.7283 15.222 13.7283H14.8375C14.8192 13.7283 14.8032 13.7355 14.7894 13.7498C14.7758 13.7642 14.7688 13.7809 14.7688 13.7999V15.7044C14.7688 15.7235 14.7763 15.7409 14.7912 15.7563C14.8061 15.7719 14.8226 15.7796 14.841 15.7796H15.2563C15.2746 15.7796 15.2906 15.7719 15.3044 15.7564C15.318 15.7409 15.325 15.7237 15.325 15.7046V14.2972C15.3844 14.2639 15.4405 14.2366 15.4931 14.2152C15.5458 14.1937 15.5972 14.183 15.6476 14.183C15.7002 14.183 15.7431 14.1883 15.7763 14.1991C15.8094 14.2098 15.8352 14.2283 15.8536 14.2546C15.8719 14.2807 15.8844 14.3152 15.8913 14.358C15.8982 14.4009 15.9016 14.4533 15.9016 14.5152V15.7046C15.9016 15.7237 15.9084 15.7409 15.9222 15.7564C15.936 15.7719 15.9519 15.7796 15.9702 15.7796H16.3856C16.4039 15.7796 16.4205 15.7719 16.4354 15.7563C16.4502 15.7409 16.4577 15.7235 16.4577 15.7044ZM17.9544 15.4354V15.7125C17.9544 15.7527 17.9327 15.7764 17.8892 15.7834C17.8365 15.7929 17.7908 15.8 17.7519 15.8047C17.713 15.8095 17.6683 15.8118 17.6181 15.8118C17.5247 15.8118 17.4422 15.804 17.3706 15.7886C17.299 15.773 17.2392 15.7426 17.1914 15.6973C17.1437 15.6519 17.1073 15.5893 17.0823 15.5093C17.0573 15.4294 17.0448 15.3263 17.0448 15.1997V14.1616L16.7702 14.115C16.7518 14.1102 16.7353 14.1013 16.7204 14.0881C16.7055 14.075 16.6981 14.0589 16.6981 14.0398V13.8035C16.6981 13.7845 16.7055 13.7671 16.7204 13.7516C16.7353 13.7361 16.7518 13.7283 16.7702 13.7283H17.0448V13.4348C17.0448 13.4157 17.0516 13.4002 17.0652 13.3882C17.0788 13.3763 17.0948 13.368 17.1131 13.3632L17.5293 13.2881H17.5394C17.5576 13.2881 17.5724 13.2934 17.5839 13.3041C17.5952 13.3149 17.6009 13.3298 17.6009 13.3488V13.7283H17.8824C17.9006 13.7283 17.9167 13.7355 17.9304 13.75C17.9442 13.7644 17.951 13.7813 17.951 13.8005V14.0929C17.951 14.1122 17.9442 14.129 17.9304 14.1434C17.9167 14.1579 17.9006 14.1651 17.8824 14.1651H17.6009V15.2068C17.6009 15.2784 17.6066 15.3244 17.6181 15.3446C17.6295 15.3649 17.6615 15.375 17.7141 15.375H17.8824C17.9304 15.375 17.9544 15.3952 17.9544 15.4354ZM19.7873 14.43C19.7873 14.2988 19.7685 14.1872 19.7307 14.0953C19.693 14.0035 19.6398 13.9282 19.5712 13.8697C19.5025 13.8113 19.4184 13.7684 19.3188 13.7409C19.2193 13.7135 19.1078 13.6997 18.9842 13.6997C18.8696 13.6997 18.7582 13.7081 18.6495 13.7248C18.5408 13.7415 18.4544 13.7582 18.3904 13.7749C18.3467 13.7869 18.3251 13.8131 18.3251 13.8536V14.1436C18.3251 14.1675 18.3308 14.1843 18.3422 14.1937C18.3537 14.2033 18.3685 14.2081 18.3869 14.2081H18.404L18.507 14.1991C18.5482 14.1956 18.5946 14.1927 18.646 14.1901C18.6976 14.1878 18.7513 14.186 18.8074 14.1848C18.8634 14.1836 18.919 14.183 18.9738 14.183C19.054 14.183 19.1169 14.1985 19.1627 14.2295C19.2084 14.2606 19.2313 14.3274 19.2313 14.43V14.5589H19.046C18.7507 14.5589 18.5362 14.6072 18.4023 14.7039C18.2685 14.8005 18.2015 14.9539 18.2015 15.1639V15.1962C18.2015 15.3131 18.2181 15.4109 18.2513 15.4896C18.2844 15.5684 18.3286 15.6317 18.3834 15.6795C18.4384 15.7271 18.5007 15.7612 18.5706 15.7814C18.6403 15.8017 18.713 15.8119 18.7885 15.8119C18.8915 15.8119 18.9801 15.7975 19.0545 15.7689C19.1289 15.7403 19.1992 15.7009 19.2657 15.6508V15.708C19.2657 15.7271 19.2725 15.7438 19.2863 15.7581C19.2999 15.7725 19.316 15.7796 19.3343 15.7796H19.7188C19.737 15.7796 19.7531 15.7725 19.7668 15.7581C19.7805 15.7438 19.7873 15.7271 19.7873 15.708V14.43ZM19.1095 15.3518C19.1563 15.3363 19.2004 15.3178 19.2416 15.2963V14.9026H19.046C18.9865 14.9026 18.9373 14.9079 18.8984 14.9186C18.8594 14.9294 18.8285 14.9455 18.8057 14.967C18.7827 14.9884 18.7667 15.0159 18.7577 15.0493C18.7485 15.0828 18.7439 15.1209 18.7439 15.1639V15.1962C18.7439 15.2725 18.7616 15.3214 18.7971 15.3429C18.8326 15.3643 18.8869 15.375 18.9602 15.375C19.0128 15.375 19.0624 15.3674 19.1095 15.3518ZM21.4762 15.6758V15.3573C21.4762 15.3381 21.4699 15.3232 21.4573 15.3125C21.4447 15.3017 21.4293 15.2963 21.411 15.2963H21.4042C21.3401 15.3035 21.2788 15.3095 21.2205 15.3142C21.1622 15.319 21.0838 15.3214 20.9854 15.3214C20.9464 15.3214 20.9098 15.3148 20.8756 15.3017C20.8412 15.2886 20.8114 15.2659 20.7862 15.2337C20.7611 15.2015 20.741 15.1585 20.7262 15.1048C20.7113 15.0511 20.7039 14.9849 20.7039 14.9061V14.6054C20.7039 14.5266 20.7113 14.4604 20.7262 14.4067C20.741 14.353 20.7611 14.3101 20.7862 14.2778C20.8114 14.2457 20.8412 14.223 20.8756 14.2098C20.9098 14.1967 20.9464 14.1901 20.9854 14.1901C21.0838 14.1901 21.1622 14.1927 21.2205 14.1973C21.2788 14.2021 21.3401 14.2081 21.4042 14.2152H21.411C21.4293 14.2152 21.4447 14.2098 21.4573 14.1991C21.4699 14.1883 21.4762 14.1735 21.4762 14.1544V13.8358C21.4762 13.8095 21.4705 13.791 21.459 13.7802C21.4475 13.7695 21.4293 13.7605 21.4042 13.7534C21.3561 13.7415 21.2937 13.7296 21.217 13.7176C21.1404 13.7057 21.0506 13.6997 20.9476 13.6997C20.7049 13.6997 20.5111 13.7773 20.3658 13.9325C20.2204 14.0875 20.1478 14.3119 20.1478 14.6054V14.9061C20.1478 15.1997 20.2204 15.424 20.3658 15.5791C20.5111 15.7343 20.7049 15.8119 20.9476 15.8119C21.0506 15.8119 21.1404 15.8058 21.217 15.794C21.2937 15.782 21.3561 15.7701 21.4042 15.7581C21.4293 15.751 21.4475 15.7421 21.459 15.7313C21.4705 15.7206 21.4762 15.7021 21.4762 15.6758ZM22.9556 15.4354V15.7125C22.9556 15.7527 22.9338 15.7764 22.8904 15.7834C22.8377 15.7929 22.792 15.8 22.7531 15.8047C22.7141 15.8095 22.6695 15.8118 22.6193 15.8118C22.5259 15.8118 22.4434 15.804 22.3718 15.7886C22.3001 15.773 22.2403 15.7426 22.1927 15.6973C22.1449 15.6519 22.1085 15.5893 22.0835 15.5093C22.0585 15.4294 22.046 15.3263 22.046 15.1997V14.1616L21.7714 14.115C21.753 14.1102 21.7365 14.1013 21.7216 14.0881C21.7067 14.075 21.6993 14.0589 21.6993 14.0398V13.8035C21.6993 13.7845 21.7067 13.7671 21.7216 13.7516C21.7365 13.7361 21.753 13.7283 21.7714 13.7283H22.046V13.4348C22.046 13.4157 22.0528 13.4002 22.0664 13.3882C22.08 13.3763 22.0959 13.368 22.1142 13.3632L22.5304 13.2881H22.5406C22.5588 13.2881 22.5736 13.2934 22.5849 13.3041C22.5964 13.3149 22.6021 13.3298 22.6021 13.3488V13.7283H22.8836C22.9018 13.7283 22.9178 13.7355 22.9316 13.75C22.9453 13.7644 22.9522 13.7813 22.9522 13.8005V14.0929C22.9522 14.1122 22.9453 14.129 22.9316 14.1434C22.9178 14.1579 22.9018 14.1651 22.8836 14.1651H22.6021V15.2068C22.6021 15.2784 22.6078 15.3244 22.6193 15.3446C22.6307 15.3649 22.6627 15.375 22.7153 15.375H22.8836C22.9316 15.375 22.9556 15.3952 22.9556 15.4354Z" fill="#005697"/>
<rect x="0.5" y="0.5" width="27" height="19" rx="3.5" stroke="#EEF2F6"/>
</svg>
