<svg width="28" height="20" viewBox="0 0 28 20" fill="none" xmlns="http://www.w3.org/2000/svg">
<rect x="0.5" y="0.5" width="27" height="19" rx="3.5" fill="white"/>
<path fill-rule="evenodd" clip-rule="evenodd" d="M20.481 9.94581C20.481 13.5978 17.5553 16.5583 13.9463 16.5583C10.3373 16.5583 7.41162 13.5978 7.41162 9.94581C7.41162 6.29383 10.3373 3.33331 13.9463 3.33331C17.5553 3.33331 20.481 6.29383 20.481 9.94581ZM15.5163 7.48904C16.4253 7.8049 17.0902 8.27787 16.9598 9.15808C16.865 9.80263 16.5106 10.1144 16.0397 10.2235C16.6857 10.5625 16.9059 11.2059 16.7013 11.9839C16.3129 13.1035 15.3895 13.1978 14.1614 12.9638L13.8632 14.1673L13.1433 13.9862L13.4374 12.7988C13.2507 12.7521 13.06 12.7021 12.8635 12.6487L12.5682 13.8419L11.8491 13.6608L12.1469 12.4548L10.6968 12.086L11.0545 11.255C11.0545 11.255 11.5853 11.3968 11.5779 11.3865C11.7818 11.4374 11.8725 11.3034 11.9082 11.2145L12.7163 7.94795C12.7253 7.79374 12.6724 7.59942 12.3807 7.52583C12.3918 7.51798 11.8577 7.39477 11.8577 7.39477L12.0493 6.61958L13.5014 6.98216L13.7967 5.78981L14.5162 5.9709L14.227 7.13968C14.4206 7.18392 14.6151 7.22899 14.8042 7.27653L15.0913 6.11519L15.8112 6.29627L15.5163 7.48904ZM13.7937 9.47803C14.2841 9.60959 15.3512 9.89586 15.5372 9.14526C15.727 8.37731 14.6902 8.14537 14.1826 8.03181L14.1826 8.0318C14.1251 8.01893 14.0744 8.00759 14.033 7.99715L13.6745 9.44666C13.7086 9.4552 13.7488 9.46596 13.7937 9.47803ZM13.2381 11.8118C13.8255 11.9683 15.11 12.3107 15.3144 11.4836C15.5237 10.638 14.2782 10.3563 13.6705 10.2189C13.6026 10.2035 13.5426 10.1899 13.4936 10.1776L13.0981 11.7751C13.1383 11.7852 13.1854 11.7977 13.238 11.8118L13.2381 11.8118Z" fill="#F7931A"/>
<rect x="0.5" y="0.5" width="27" height="19" rx="3.5" stroke="#EEF2F6"/>
</svg>
