<svg width="58" height="40" viewBox="0 0 58 40" fill="none" xmlns="http://www.w3.org/2000/svg">
<rect x="0.5" y="0.5" width="57" height="39" rx="5.5" fill="white"/>
<path fill-rule="evenodd" clip-rule="evenodd" d="M41.45 19.8917C41.45 27.1956 35.529 33.1167 28.225 33.1167C20.921 33.1167 15 27.1956 15 19.8917C15 12.5877 20.921 6.66669 28.225 6.66669C35.529 6.66669 41.45 12.5877 41.45 19.8917ZM31.4023 14.9781C33.2419 15.6099 34.5876 16.5558 34.3236 18.3162C34.1318 19.6053 33.4146 20.2288 32.4616 20.4471C33.7691 21.1251 34.2147 22.4119 33.8006 23.9679C33.0144 26.2071 31.1457 26.3956 28.6602 25.9276L28.0567 28.3346L26.5998 27.9724L27.195 25.5977C26.8173 25.5042 26.4312 25.4042 26.0336 25.2975L25.4359 27.6839L23.9806 27.3217L24.5833 24.9097L21.6487 24.1721L22.3726 22.5101C22.3726 22.5101 23.4468 22.7937 23.4318 22.7731C23.8444 22.8748 24.0279 22.6069 24.1001 22.4291L25.7356 15.896C25.7538 15.5875 25.6467 15.1989 25.0565 15.0517C25.0789 15.036 23.998 14.7896 23.998 14.7896L24.3857 13.2392L27.3245 13.9644L27.9222 11.5797L29.3783 11.9419L28.7931 14.2794C29.1849 14.3679 29.5784 14.458 29.9611 14.5531L30.5422 12.2304L31.9992 12.5926L31.4023 14.9781ZM27.9162 18.9561C28.9086 19.2192 31.0682 19.7918 31.4446 18.2906C31.8286 16.7547 29.7305 16.2908 28.7032 16.0637L28.7032 16.0637C28.5868 16.0379 28.4841 16.0152 28.4004 15.9944L27.6749 18.8934C27.7439 18.9104 27.825 18.9319 27.9159 18.956L27.9162 18.9561ZM26.7917 23.6236C27.9804 23.9367 30.5801 24.6215 30.9938 22.9674C31.4172 21.276 28.8966 20.7127 27.6667 20.4378L27.6665 20.4377L27.6662 20.4376C27.529 20.407 27.4079 20.3799 27.3087 20.3553L26.5084 23.5503C26.5898 23.5704 26.685 23.5955 26.7917 23.6236Z" fill="#F7931A"/>
<rect x="0.5" y="0.5" width="57" height="39" rx="5.5" stroke="#EEF2F6"/>
</svg>
