<svg width="46" height="32" viewBox="0 0 46 32" fill="none" xmlns="http://www.w3.org/2000/svg">
<rect x="0.5" y="0.5" width="45" height="31" rx="3.5" fill="white"/>
<path fill-rule="evenodd" clip-rule="evenodd" d="M9.2477 18.3557C8.99976 18.4973 8.73579 18.568 8.45595 18.568H8.24001C8.18391 18.568 8.1038 18.5632 7.87245 18.521L8.65468 15.0949C8.79859 14.9617 8.95382 14.8753 9.13379 14.8335C9.31376 14.7919 9.42966 14.7807 9.54176 14.7807C9.88548 14.7807 10.1515 14.8834 10.2795 15.1083C10.4074 15.3331 10.4714 15.6453 10.4714 16.045C10.4714 16.3698 10.4193 16.6821 10.3155 16.9818C10.2114 17.2815 10.0695 17.55 9.88965 17.7874C9.70968 18.0246 9.49554 18.2142 9.2477 18.3557ZM11.0113 13.4347C10.7312 13.2932 10.3995 13.2223 10.0155 13.2223C9.83148 13.2223 9.65957 13.2432 9.49972 13.2848C9.33959 13.3266 9.1888 13.3804 9.02895 13.4553L9.76369 10.2372L7.90408 10.537L5.82861 19.6171C6.06051 19.7338 6.30636 19.8253 6.56644 19.8918C6.82625 19.9584 7.07219 20.0084 7.30418 20.0418C7.53607 20.075 7.74214 20.0936 7.92212 20.098C8.10209 20.102 8.22805 20.1042 8.3 20.1042C8.85976 20.1042 9.37974 19.9937 9.85957 19.7732C10.3395 19.5527 10.7553 19.253 11.1073 18.874C11.4592 18.4951 11.7371 18.0496 11.9411 17.5375C12.1451 17.0254 12.247 16.4821 12.247 15.9076C12.247 15.533 12.2029 15.1832 12.115 14.8585C12.0269 14.5337 11.891 14.2507 11.7071 14.0091C11.5231 13.7677 11.2912 13.5763 11.0113 13.4347ZM15.9297 12.4208L16.2029 11.2243H14.4215L14.1483 12.4208H15.9297ZM18.5074 18.5183C18.2779 18.5183 18.0975 18.4844 17.9665 18.416C17.8352 18.3478 17.7431 18.2517 17.6899 18.1279C17.6364 18.0044 17.6161 17.8571 17.6283 17.6863C17.6407 17.5158 17.6714 17.3324 17.7206 17.1359L18.2616 14.7807H20.2903L20.6591 13.219H18.6181L19.0853 11.2349L17.1796 11.5422L15.9746 16.8415C15.8763 17.2767 15.8188 17.6908 15.8025 18.0831C15.7859 18.4758 15.8434 18.8235 15.9746 19.1264C16.1056 19.4294 16.3269 19.6684 16.6386 19.8432C16.95 20.018 17.3886 20.1055 17.9542 20.1055C18.3476 20.1055 18.6877 20.0714 18.9747 20.0032C19.0043 19.9961 19.0493 19.9848 19.0785 19.9774L19.4495 18.3618C19.3249 18.4061 19.1998 18.4357 19.0792 18.4608C18.8947 18.4992 18.7042 18.5183 18.5074 18.5183ZM40.1524 13.2212H38.3711L37.335 17.7594H37.3368L37.1944 18.3837C37.095 18.4127 36.996 18.4389 36.8978 18.4593C36.7134 18.4977 36.5228 18.517 36.3261 18.517C36.0965 18.517 35.9161 18.4829 35.7851 18.4145C35.6539 18.3463 35.5617 18.2504 35.5084 18.1265C35.455 18.0029 35.4347 17.8557 35.447 17.6849C35.4593 17.5143 35.49 17.3309 35.5392 17.1345L36.0801 14.7792L36.4367 13.2176L36.4368 13.2171H34.617L33.7933 16.8401C33.6949 17.2753 33.6375 17.6893 33.6212 18.0818C33.6046 18.4743 33.662 18.8222 33.7933 19.1249C33.9243 19.4279 34.1456 19.667 34.4572 19.8418C34.7686 20.0166 35.2072 20.1042 35.7728 20.1042C36.1662 20.1042 36.5063 20.07 36.7933 20.0017C36.8034 19.9994 36.8131 19.9969 36.8229 19.9943L36.8274 19.9932L36.8266 19.9965C36.7468 20.3703 36.5853 20.6735 36.3262 20.9101C36.0667 21.1469 35.6818 21.2653 35.1713 21.2653C34.9534 21.2653 34.7554 21.2518 34.5759 21.2259L34.2253 22.7616C34.4625 22.7936 34.7254 22.8101 35.0157 22.8101C35.5582 22.8101 36.033 22.7456 36.4399 22.6169C36.8468 22.4881 37.1957 22.293 37.4869 22.0313C37.7781 21.7697 38.0214 21.4415 38.217 21.0472C38.4123 20.6526 38.5699 20.1856 38.6896 19.6456L39.9222 14.251L39.9178 14.249L40.1524 13.2212ZM31.4151 14.7807C30.5844 14.7807 30.4258 14.7807 30.0855 14.9644C29.8439 15.0948 29.6439 15.2909 29.4683 15.5196C29.2925 15.7483 29.1547 16.0123 29.055 16.3117C28.9549 16.6112 28.9051 16.923 28.9051 17.2473C28.9051 17.6465 28.969 17.9627 29.0969 18.1955C29.2245 18.4284 29.4603 18.5447 29.8038 18.5447C29.9875 18.5447 30.1533 18.5074 30.3012 18.4325C30.4489 18.3576 30.6067 18.2328 30.7745 18.0582C30.7904 17.8505 30.8164 17.6322 30.8524 17.4033C30.8852 17.1943 30.9261 16.9991 30.9635 16.8209L30.9739 16.7712L31.4151 14.7807ZM32.6798 17.0976C32.5678 17.5718 32.5359 18.0478 32.5839 18.5261C32.6319 19.0045 32.8076 19.7373 32.979 20.1042H31.2551C31.0982 19.8279 31.0635 19.661 31.0395 19.5456V19.5456C31.0313 19.5061 31.0243 19.4727 31.0142 19.443C30.7904 19.6344 30.5427 19.7923 30.2712 19.917C29.9996 20.0418 29.696 20.1042 29.3604 20.1042C28.961 20.1042 28.6194 20.0313 28.336 19.8859C28.0522 19.7404 27.8206 19.5449 27.6409 19.2996C27.4611 19.0544 27.3312 18.7674 27.2515 18.4388C27.1715 18.1103 27.1316 17.7589 27.1316 17.3846C27.1316 16.8107 27.2293 16.2701 27.4252 15.7629C27.6209 15.2556 27.8926 14.8126 28.2401 14.4341C28.5875 14.0557 29.4262 13.2213 30.8025 13.2213L33.5661 13.2212L32.6798 17.0976ZM22.7638 18.5716C22.5627 18.5716 22.3938 18.5549 22.2571 18.5213L23.1197 14.7807C23.1197 14.7807 23.5586 14.7807 23.8228 14.7817C24.2008 14.7833 24.4688 14.9168 24.6216 15.1681C24.7743 15.4192 24.8508 15.725 24.8508 16.0849C24.8508 16.4534 24.8004 16.7903 24.7 17.0959C24.5993 17.4016 24.4588 17.6631 24.2778 17.8808C24.0969 18.0986 23.8776 18.2681 23.6204 18.3895C23.3628 18.5109 23.0775 18.5716 22.7638 18.5716ZM26.3467 17.6233C26.5397 17.1169 26.6362 16.558 26.6362 15.9467C26.6362 15.57 26.5858 15.2164 26.4854 14.8854C26.3847 14.5548 26.23 14.266 26.021 14.0189C25.8117 13.772 25.5445 13.5774 25.2187 13.4349C24.893 13.2926 24.5049 13.2214 24.0546 13.2214L23.4346 13.2214H23.4336H23.4321H23.4297H23.4292C22.7702 13.2213 21.8914 13.2213 21.6756 13.2214L19.6031 22.3015H21.3885L21.9314 20.0284C22.2047 20.0787 22.4782 20.1038 22.7517 20.1038C23.3146 20.1038 23.8354 20.0011 24.314 19.7961C24.7924 19.591 25.2025 19.3043 25.5445 18.9357C25.8862 18.5675 26.1537 18.13 26.3467 17.6233ZM12.3912 20.1055L13.9638 13.2172H15.7452L14.1726 20.1055H12.3912Z" fill="#002855"/>
<rect x="0.5" y="0.5" width="45" height="31" rx="3.5" stroke="#EEF2F6"/>
</svg>
