<svg width="34" height="24" viewBox="0 0 34 24" fill="none" xmlns="http://www.w3.org/2000/svg">
<rect x="0.5" y="0.5" width="33" height="23" rx="3.5" fill="white"/>
<path fill-rule="evenodd" clip-rule="evenodd" d="M6.9359 13.7668C6.74995 13.873 6.55197 13.926 6.34209 13.926H6.18013C6.13806 13.926 6.07798 13.9223 5.90446 13.8907L6.49114 11.3211C6.59907 11.2213 6.71549 11.1565 6.85047 11.1251C6.98545 11.0939 7.07237 11.0855 7.15645 11.0855C7.41424 11.0855 7.61371 11.1626 7.70975 11.3312C7.80565 11.4998 7.8537 11.734 7.8537 12.0337C7.8537 12.2773 7.81462 12.5115 7.73673 12.7363C7.65871 12.9611 7.55227 13.1625 7.41736 13.3405C7.28238 13.5185 7.12178 13.6606 6.9359 13.7668ZM8.25863 10.076C8.04855 9.96987 7.79973 9.91673 7.51177 9.91673C7.37373 9.91673 7.2448 9.93237 7.12491 9.96357C7.00482 9.99491 6.89172 10.0353 6.77183 10.0915L7.32289 7.67792L5.92818 7.90271L4.37158 14.7128C4.5455 14.8004 4.72989 14.869 4.92495 14.9189C5.11981 14.9688 5.30427 15.0063 5.47826 15.0313C5.65218 15.0562 5.80673 15.0702 5.94171 15.0735C6.07669 15.0765 6.17116 15.0781 6.22512 15.0781C6.64494 15.0781 7.03492 14.9953 7.3948 14.8299C7.75474 14.6645 8.06657 14.4397 8.33061 14.1555C8.59452 13.8713 8.80297 13.5372 8.95595 13.1531C9.10894 12.7691 9.1854 12.3616 9.1854 11.9307C9.1854 11.6497 9.15231 11.3874 9.08638 11.1439C9.02032 10.9002 8.91837 10.688 8.78047 10.5068C8.64243 10.3258 8.46851 10.1822 8.25863 10.076ZM11.9474 9.31559L12.1523 8.41818H10.8163L10.6114 9.31559H11.9474ZM13.8807 13.8887C13.7085 13.8887 13.5732 13.8633 13.475 13.812C13.3765 13.7608 13.3074 13.6888 13.2675 13.5959C13.2274 13.5032 13.2122 13.3928 13.2214 13.2647C13.2306 13.1368 13.2537 12.9992 13.2906 12.8519L13.6963 11.0855H15.2178L15.4945 9.91426H13.9637L14.3141 8.42618L12.8848 8.65663L11.9811 12.6311C11.9073 12.9575 11.8642 13.2681 11.852 13.5623C11.8396 13.8568 11.8827 14.1176 11.9811 14.3448C12.0794 14.572 12.2453 14.7513 12.4791 14.8824C12.7126 15.0135 13.0415 15.0791 13.4658 15.0791C13.7608 15.0791 14.0159 15.0535 14.2311 15.0024C14.2534 14.9971 14.2871 14.9886 14.309 14.9831L14.5873 13.7713C14.4938 13.8045 14.4 13.8267 14.3095 13.8456C14.1712 13.8744 14.0283 13.8887 13.8807 13.8887ZM30.1144 9.91587H28.7785L28.0013 13.3195H28.0027L27.8959 13.7877C27.8214 13.8095 27.7472 13.8291 27.6735 13.8445C27.5352 13.8733 27.3922 13.8877 27.2447 13.8877C27.0725 13.8877 26.9372 13.8622 26.8389 13.8109C26.7405 13.7597 26.6714 13.6878 26.6314 13.5949C26.5914 13.5022 26.5761 13.3918 26.5854 13.2636C26.5946 13.1357 26.6176 12.9982 26.6545 12.8509L27.0602 11.0844L27.3277 9.91318L27.3277 9.91283H25.9629L25.3451 12.6301C25.2713 12.9565 25.2282 13.267 25.216 13.5613C25.2036 13.8557 25.2467 14.1166 25.3451 14.3437C25.4433 14.5709 25.6093 14.7502 25.843 14.8814C26.0766 15.0124 26.4055 15.0781 26.8297 15.0781C27.1248 15.0781 27.3799 15.0525 27.5951 15.0013C27.6038 14.9992 27.6122 14.997 27.6207 14.9949L27.6201 14.9974C27.5602 15.2777 27.4391 15.5051 27.2448 15.6825C27.0502 15.8601 26.7615 15.9489 26.3786 15.9489C26.2152 15.9489 26.0667 15.9388 25.9321 15.9194L25.6691 17.0712C25.847 17.0952 26.0442 17.1076 26.2619 17.1076C26.6688 17.1076 27.0249 17.0592 27.3301 16.9627C27.6352 16.8661 27.8969 16.7198 28.1153 16.5235C28.3337 16.3273 28.5162 16.0811 28.6628 15.7854C28.8094 15.4894 28.9276 15.1392 29.0173 14.7342L29.9418 10.6882L29.9385 10.6868L30.1144 9.91587ZM23.5614 11.0855C22.9384 11.0855 22.8195 11.0855 22.5642 11.2233C22.383 11.3211 22.233 11.4681 22.1013 11.6397C21.9695 11.8112 21.8662 12.0092 21.7913 12.2337C21.7163 12.4584 21.6789 12.6922 21.6789 12.9355C21.6789 13.2349 21.7268 13.472 21.8228 13.6466C21.9185 13.8213 22.0953 13.9085 22.353 13.9085C22.4908 13.9085 22.6151 13.8805 22.726 13.8243C22.8368 13.7682 22.9552 13.6746 23.081 13.5436C23.0929 13.3878 23.1124 13.2241 23.1394 13.0525C23.164 12.8957 23.1947 12.7494 23.2228 12.6157L23.2306 12.5784L23.5614 11.0855ZM24.51 12.8232C24.426 13.1788 24.4021 13.5359 24.438 13.8945C24.474 14.2533 24.6058 14.803 24.7344 15.0781H23.4415C23.3238 14.8709 23.2977 14.7457 23.2797 14.6592L23.2797 14.6591C23.2736 14.6296 23.2684 14.6045 23.2607 14.5822C23.0929 14.7258 22.9072 14.8442 22.7036 14.9378C22.4998 15.0313 22.2721 15.0781 22.0204 15.0781C21.7209 15.0781 21.4647 15.0234 21.2521 14.9144C21.0393 14.8053 20.8656 14.6587 20.7308 14.4747C20.596 14.2908 20.4985 14.0755 20.4388 13.8291C20.3787 13.5827 20.3488 13.3191 20.3488 13.0384C20.3488 12.608 20.4221 12.2026 20.569 11.8221C20.7158 11.4417 20.9195 11.1095 21.1802 10.8256C21.4408 10.5418 22.0698 9.91595 23.102 9.91595L25.1747 9.91588L24.51 12.8232ZM17.073 13.9286C16.9221 13.9286 16.7955 13.9161 16.6929 13.8909L17.3399 11.0855C17.3399 11.0855 17.6691 11.0855 17.8672 11.0863C18.1507 11.0875 18.3517 11.1876 18.4664 11.376C18.5809 11.5644 18.6382 11.7937 18.6382 12.0636C18.6382 12.34 18.6004 12.5927 18.5251 12.8219C18.4496 13.0512 18.3442 13.2473 18.2085 13.4106C18.0728 13.5739 17.9084 13.7011 17.7154 13.7921C17.5222 13.8831 17.3082 13.9286 17.073 13.9286ZM19.7601 13.2175C19.9049 12.8376 19.9773 12.4185 19.9773 11.96C19.9773 11.6774 19.9395 11.4123 19.8642 11.164C19.7887 10.9161 19.6726 10.6995 19.5159 10.5141C19.3589 10.329 19.1585 10.183 18.9142 10.0762C18.6699 9.96945 18.3788 9.91603 18.0411 9.91603L17.5761 9.91601L16.2568 9.91603L14.7025 16.7261H16.0415L16.4487 15.0213C16.6537 15.059 16.8588 15.0778 17.0639 15.0778C17.4861 15.0778 17.8767 15.0008 18.2356 14.8471C18.5944 14.6932 18.902 14.4782 19.1585 14.2018C19.4148 13.9256 19.6154 13.5975 19.7601 13.2175ZM9.29352 15.0791L10.473 9.9129H11.809L10.6296 15.0791H9.29352Z" fill="#002855"/>
<rect x="0.5" y="0.5" width="33" height="23" rx="3.5" stroke="#EEF2F6"/>
</svg>
