<svg width="28" height="20" viewBox="0 0 28 20" fill="none" xmlns="http://www.w3.org/2000/svg">
<rect x="0.5" y="0.5" width="27" height="19" rx="3.5" fill="white"/>
<path d="M3.60609 9.00657C3.41271 9.00657 3.39364 8.94303 3.39364 8.47991V8.40088C3.39364 7.93617 3.41271 7.87327 3.60609 7.87327H8.02795C8.222 7.87327 8.24107 7.93617 8.24107 8.40025V8.47928C8.24107 8.94303 8.22166 9.00626 8.02795 9.00626H3.60609V9.00657V9.00657ZM3.60609 6.96725C3.41271 6.96725 3.39364 6.90403 3.39364 6.44027V6.36124C3.39364 5.89591 3.41271 5.83331 3.60609 5.83331H8.02795C8.222 5.83331 8.24107 5.89654 8.24107 6.36124V6.44027C8.24107 6.90403 8.22166 6.96725 8.02795 6.96725H3.60609ZM4.26852 13.0236C4.26852 12.256 4.6643 11.834 5.25981 11.834C5.48464 11.834 5.66463 11.896 5.88979 12.0019C5.97142 12.0411 6.039 12.0252 6.14606 11.7853L6.22401 11.6222C6.30096 11.4256 6.30665 11.3443 6.21331 11.3007C5.93729 11.148 5.51006 11.0516 5.14104 11.0516C4.08953 11.0516 3.29395 11.8387 3.29395 13.0236C3.29395 14.2081 4.08953 14.9952 5.14071 14.9952C5.51006 14.9952 5.947 14.8991 6.22401 14.7455C6.31635 14.7028 6.31033 14.6206 6.23405 14.424L6.1571 14.2517C6.05004 14.0115 5.98213 13.9979 5.89982 14.0352C5.67467 14.1417 5.48497 14.2037 5.25981 14.2037C4.6643 14.2037 4.26952 13.7908 4.26952 13.0236H4.26885H4.26852ZM16.7977 14.8138C16.7977 14.9181 16.7563 14.9466 16.4441 14.9466H16.413C16.0841 14.9466 16.0383 14.9323 16.0125 14.8561C15.9953 14.8044 15.9816 14.7517 15.9714 14.6984C15.7974 14.895 15.5876 15 15.2681 15C14.4933 15 14.0276 14.4626 14.0276 13.5983C14.0276 12.6641 14.5458 12.1109 15.3143 12.1109C15.5308 12.1109 15.7302 12.1741 15.8841 12.2892V11.0753C15.8841 10.994 15.8941 10.9602 16.3257 10.9602H16.3568C16.7563 10.9602 16.7974 10.994 16.7974 11.0753V14.8138H16.7977ZM15.8844 12.9708C15.8316 12.9163 15.7674 12.8728 15.6959 12.8431C15.6244 12.8134 15.547 12.7981 15.4689 12.7982C15.1249 12.7982 14.9617 13.0805 14.9617 13.5989C14.9617 13.8961 15.0283 14.0848 15.1249 14.1837C15.2119 14.2859 15.3458 14.3187 15.4746 14.3187C15.6335 14.3187 15.7563 14.2817 15.8131 14.2131C15.8637 14.1607 15.8841 14.0794 15.8841 13.8923V12.9705L15.8847 12.9708H15.8844ZM21.4535 14.8327C21.4535 14.9134 21.4123 14.9466 21.0118 14.9466H20.9811C20.5502 14.9466 20.5411 14.9134 20.5411 14.8327V11.0753C20.5411 10.994 20.5502 10.9602 20.9807 10.9602H21.0115C21.4116 10.9602 21.4531 10.994 21.4531 11.0753V14.8327H21.4535ZM18.2404 13.8338C18.2912 14.1743 18.5167 14.338 18.871 14.338C19.1437 14.338 19.3989 14.2811 19.6974 14.1607C19.7596 14.137 19.8155 14.1607 19.8814 14.3513L19.9282 14.4581C19.9941 14.6548 19.9884 14.6984 19.9175 14.736C19.5629 14.9228 19.1939 14.9993 18.7833 14.9993C17.876 14.9993 17.3069 14.4777 17.3069 13.5847C17.3069 12.7163 17.8299 12.1109 18.7275 12.1109C19.6154 12.1109 20.0711 12.7065 20.0711 13.5316C20.0711 13.8053 20.046 13.8338 19.9433 13.8338H18.2404ZM19.1577 13.3018C19.1437 13.0147 19.0206 12.7643 18.7178 12.7643C18.4551 12.7643 18.2651 12.9509 18.2293 13.3018H19.1577ZM22.8747 13.8338C22.9249 14.1743 23.151 14.338 23.5056 14.338C23.776 14.338 24.0336 14.2811 24.331 14.1607C24.3919 14.137 24.4494 14.1607 24.5157 14.3513L24.5622 14.4581C24.6281 14.6548 24.6227 14.6984 24.5521 14.736C24.1975 14.9228 23.8278 14.9993 23.417 14.9993C22.5093 14.9993 21.9409 14.4777 21.9409 13.5847C21.9409 12.7163 22.4628 12.1109 23.3608 12.1109C24.2494 12.1109 24.7057 12.7065 24.7057 13.5316C24.7057 13.8053 24.6799 13.8338 24.5772 13.8338H22.8743H22.8747ZM23.793 13.3018C23.7763 13.0147 23.6542 12.7643 23.3514 12.7643C23.0898 12.7643 22.8991 12.9509 22.8636 13.3018H23.793V13.3018ZM12.5676 12.9897C12.5214 12.9321 12.4617 12.8853 12.3932 12.853C12.3248 12.8206 12.2493 12.8036 12.1728 12.8032C11.8289 12.8032 11.6653 13.0862 11.6653 13.5894C11.6653 14.0162 11.7871 14.3333 12.1618 14.3333C12.3009 14.3333 12.4026 14.2998 12.4752 14.2318C12.5415 14.1654 12.5676 14.0737 12.5676 13.8733V12.9897ZM13.491 14.8138C13.491 14.9181 13.4505 14.9466 13.1377 14.9466H13.0955C12.7676 14.9466 12.7215 14.9323 12.6961 14.8561C12.6784 14.8045 12.6647 14.7518 12.6549 14.6984C12.4809 14.895 12.2702 15 11.9517 15C11.2079 15 10.7305 14.4714 10.7305 13.609C10.7305 12.6496 11.3207 12.1109 12.0186 12.1109C12.3009 12.1109 12.5465 12.2222 12.6803 12.3803L12.6961 12.2601C12.7004 12.2032 12.7168 12.1653 13.054 12.1653H13.0905C13.4398 12.1653 13.4903 12.1884 13.4903 12.2759V14.8138H13.491V14.8138ZM9.20895 11.3544C9.5522 11.3544 9.57295 11.3585 9.57295 11.4641V12.1647H10.1634C10.2451 12.1647 10.2705 12.1789 10.2705 12.4425V12.4814C10.2705 12.7444 10.2451 12.7596 10.1634 12.7596H9.57295V14.0168C9.57295 14.2274 9.61343 14.338 9.81851 14.338C9.92557 14.338 10.0192 14.3187 10.1116 14.2906C10.2086 14.2555 10.2454 14.2998 10.3117 14.5198L10.327 14.5726C10.3986 14.8138 10.3776 14.8327 10.2862 14.8751C10.1015 14.9567 9.85464 15 9.62413 15C8.8958 15 8.69071 14.6548 8.69071 14.0541V12.7596H8.34679C8.2598 12.7596 8.23806 12.7438 8.23806 12.4814V12.4425C8.23806 12.1789 8.25947 12.1653 8.34679 12.1653H8.73153C8.77335 11.9399 8.84428 11.6225 8.89078 11.4641C8.91654 11.3728 8.93193 11.3544 9.20895 11.3544V11.3544ZM7.30062 12.1653C7.70109 12.1653 7.73655 12.1979 7.73655 12.28V14.8327C7.73655 14.9181 7.70109 14.9466 7.30062 14.9466H7.27453C6.83391 14.9466 6.82388 14.9181 6.82388 14.8327V12.28C6.82388 12.1979 6.83391 12.1653 7.27453 12.1653H7.30062ZM7.27453 10.9175C7.56359 10.9175 7.77302 11.1284 7.77302 11.368C7.77173 11.4281 7.75781 11.4873 7.73208 11.5422C7.70635 11.5971 7.66932 11.6467 7.62314 11.6879C7.52946 11.7717 7.404 11.8172 7.27453 11.8144C6.98881 11.8144 6.77704 11.6035 6.77704 11.368C6.77704 11.1278 6.98881 10.9175 7.27453 10.9175V10.9175Z" fill="#EE293D"/>
<rect x="0.5" y="0.5" width="27" height="19" rx="3.5" stroke="#EEF2F6"/>
</svg>
