<svg width="28" height="20" viewBox="0 0 28 20" fill="none" xmlns="http://www.w3.org/2000/svg">
<rect x="0.5" y="0.5" width="27" height="19" rx="3.5" fill="white"/>
<path fill-rule="evenodd" clip-rule="evenodd" d="M13.0436 16.0833H15.1816C18.5189 16.0833 21.1783 13.4041 21.2825 10.0946V10.042C21.2304 6.67992 18.5189 3.9482 15.1816 4.00074H12.7829C9.60202 4.1058 7.09905 6.83752 7.20334 10.0946C7.20334 13.3516 9.8106 16.0308 13.0436 16.0833ZM8.24625 10.042C8.24625 7.31029 10.4885 5.05137 13.2 5.05137C15.9116 5.05137 18.1538 7.31029 18.1538 10.042C18.1538 12.7737 15.9116 15.0326 13.2 15.0326C10.4885 15.0326 8.24625 12.7737 8.24625 10.042ZM13.9822 13.4041V6.73243C15.8073 7.20523 16.9545 9.04389 16.4852 10.8825C16.1723 12.1433 15.2337 13.0889 13.9822 13.4041ZM9.96704 9.20149C9.49773 11.0401 10.5928 12.9313 12.4179 13.4041V6.73243C11.2185 7.04763 10.2799 7.99323 9.96704 9.20149Z" fill="#0079BE"/>
<rect x="0.5" y="0.5" width="27" height="19" rx="3.5" stroke="#EEF2F6"/>
</svg>
