<svg width="28" height="20" viewBox="0 0 28 20" fill="none" xmlns="http://www.w3.org/2000/svg">
<rect x="0.5" y="0.5" width="27" height="19" rx="3.5" fill="white"/>
<path d="M6.44346 7.91311C6.68038 7.8345 6.93383 7.79183 7.19755 7.79183C8.34849 7.79183 9.30852 8.60338 9.52877 9.68146L11.1597 9.35135C10.7855 7.51908 9.15396 6.13983 7.19755 6.13983C6.74963 6.13983 6.31849 6.21226 5.91602 6.3457L6.44346 7.91311Z" fill="#FECA2F"/>
<path d="M4.50228 13.2231L5.47882 11.9472C5.04292 11.5011 4.7678 10.8497 4.7678 10.1237C4.7678 9.39819 5.04266 8.74684 5.47844 8.30103L4.50139 7.02527C3.7607 7.78326 3.29395 8.89048 3.29395 10.1237C3.29395 11.3575 3.76139 12.4651 4.50228 13.2231" fill="#1BA7DE"/>
<path d="M9.52927 10.5668C9.30828 11.6447 8.34885 12.4553 7.19893 12.4553C6.9351 12.4553 6.68115 12.4125 6.44421 12.3336L5.91602 13.9018C6.31911 14.0359 6.7504 14.1085 7.19893 14.1085C9.15354 14.1085 10.784 12.7302 11.1597 10.8986L9.52927 10.5668Z" fill="#EC412A"/>
<path fill-rule="evenodd" clip-rule="evenodd" d="M19.0063 7.02528V11.5597L19.8104 11.8858L19.43 12.7802L18.6348 12.4567C18.456 12.3808 18.335 12.2652 18.243 12.1347C18.1548 12.0011 18.0893 11.8185 18.0893 11.5721V7.02528H19.0063ZM12.9075 10.3954C12.9275 9.09868 14.0188 8.06359 15.343 8.08346C16.4669 8.1007 17.3981 8.87101 17.6427 9.89554L13.2958 11.7135C13.0433 11.3358 12.8998 10.8814 12.9075 10.3954ZM13.9021 10.5772C13.8962 10.5228 13.892 10.467 13.8935 10.4107C13.906 9.64672 14.5485 9.03711 15.3287 9.04977C15.7533 9.05532 16.1304 9.2456 16.3853 9.54011L13.9021 10.5772ZM16.2938 11.419C16.0318 11.6684 15.6765 11.8203 15.2843 11.8148C15.0154 11.8104 14.7663 11.7317 14.5545 11.6004L14.0293 12.4192C14.389 12.6416 14.813 12.7732 15.2702 12.7801C15.9356 12.7898 16.5421 12.534 16.9832 12.1117L16.2938 11.419ZM22.3531 9.04972C22.1964 9.04972 22.0459 9.0745 21.9052 9.12069L21.5923 8.20322C21.8312 8.12519 22.0869 8.08281 22.3531 8.08281C23.5145 8.08281 24.4834 8.89009 24.7055 9.96246L23.7369 10.1557C23.6064 9.52456 23.0364 9.04972 22.3531 9.04972ZM20.7627 12.1909L21.4172 11.4667C21.1249 11.2134 20.9408 10.8436 20.9408 10.4314C20.9408 10.0196 21.1249 9.64995 21.4169 9.39691L20.762 8.67271C20.2654 9.103 19.9526 9.73174 19.9526 10.4314C19.9526 11.1319 20.2657 11.7604 20.7627 12.1909ZM22.353 11.8136C23.0357 11.8136 23.6056 11.3392 23.7369 10.709L24.7052 10.903C24.482 11.9742 23.5134 12.7804 22.353 12.7804C22.0866 12.7804 21.8306 12.7379 21.5911 12.6595L21.9047 11.7423C22.0456 11.7884 22.1962 11.8136 22.353 11.8136Z" fill="#222222"/>
<rect x="0.5" y="0.5" width="27" height="19" rx="3.5" stroke="#EEF2F6"/>
</svg>
