<svg width="46" height="32" viewBox="0 0 46 32" fill="none" xmlns="http://www.w3.org/2000/svg">
<rect x="0.5" y="0.5" width="45" height="31" rx="3.5" fill="white"/>
<path d="M10.4326 12.661C10.8162 12.5352 11.2265 12.4669 11.6535 12.4669C13.5169 12.4669 15.0712 13.7654 15.4278 15.4903L18.0684 14.9622C17.4625 12.0305 14.821 9.82373 11.6535 9.82373C10.9283 9.82373 10.2302 9.93962 9.57861 10.1531L10.4326 12.661Z" fill="#FECA2F"/>
<path d="M7.28985 21.157L8.87091 19.1155C8.16517 18.4017 7.71974 17.3595 7.71974 16.1979C7.71974 15.0371 8.16476 13.9949 8.87029 13.2816L7.2884 11.2404C6.0892 12.4532 5.3335 14.2248 5.3335 16.1979C5.3335 18.172 6.0903 19.9442 7.28985 21.157" fill="#1BA7DE"/>
<path d="M15.4286 16.907C15.0708 18.6316 13.5175 19.9285 11.6557 19.9285C11.2286 19.9285 10.8174 19.86 10.4338 19.7339L9.57861 22.243C10.2312 22.4575 10.9295 22.5736 11.6557 22.5736C14.8203 22.5736 17.4601 20.3683 18.0684 17.4378L15.4286 16.907Z" fill="#EC412A"/>
<path fill-rule="evenodd" clip-rule="evenodd" d="M30.7726 11.2404V18.4955L32.0745 19.0173L31.4586 20.4483L30.1711 19.9307C29.8816 19.8093 29.6857 19.6244 29.5369 19.4155C29.3939 19.2018 29.288 18.9096 29.288 18.5154V11.2404H30.7726ZM20.8984 16.6326C20.9308 14.5579 22.6976 12.9017 24.8416 12.9335C26.6612 12.9611 28.169 14.1936 28.565 15.8329L21.5271 18.7416C21.1182 18.1372 20.8859 17.4102 20.8984 16.6326ZM22.5087 16.9235C22.4991 16.8364 22.4923 16.7472 22.4948 16.6571C22.515 15.4347 23.5553 14.4594 24.8184 14.4796C25.5059 14.4885 26.1165 14.793 26.5292 15.2642L22.5087 16.9235ZM26.381 18.2704C25.9568 18.6694 25.3816 18.9125 24.7465 18.9037C24.3112 18.8967 23.9078 18.7707 23.5649 18.5607L22.7147 19.8707C23.2969 20.2266 23.9835 20.4371 24.7237 20.4482C25.8011 20.4637 26.7831 20.0545 27.4971 19.3787L26.381 18.2704ZM36.1912 14.4795C35.9376 14.4795 35.6939 14.5192 35.4661 14.5931L34.9595 13.1251C35.3462 13.0003 35.7603 12.9325 36.1912 12.9325C38.0716 12.9325 39.6403 14.2241 40 15.9399L38.4318 16.2491C38.2205 15.2393 37.2976 14.4795 36.1912 14.4795ZM33.6164 19.5054L34.676 18.3467C34.2028 17.9415 33.9048 17.3498 33.9048 16.6902C33.9048 16.0313 34.2028 15.4399 34.6756 15.035L33.6152 13.8763C32.8113 14.5648 32.3047 15.5708 32.3047 16.6902C32.3047 17.8111 32.8116 18.8167 33.6164 19.5054ZM36.1911 18.9017C37.2965 18.9017 38.2192 18.1426 38.4317 17.1343L39.9995 17.4448C39.638 19.1588 38.0698 20.4486 36.1911 20.4486C35.7599 20.4486 35.3453 20.3806 34.9575 20.2552L35.4653 18.7877C35.6934 18.8614 35.9373 18.9017 36.1911 18.9017Z" fill="#222222"/>
<rect x="0.5" y="0.5" width="45" height="31" rx="3.5" stroke="#EEF2F6"/>
</svg>
