<svg width="58" height="40" viewBox="0 0 58 40" fill="none" xmlns="http://www.w3.org/2000/svg">
<rect x="0.5" y="0.5" width="57" height="39" rx="5.5" fill="white"/>
<path d="M13.0401 15.8262C13.5196 15.669 14.0325 15.5837 14.5662 15.5837C16.8955 15.5837 18.8384 17.2068 19.2842 19.3629L22.5849 18.7027C21.8275 15.0382 18.5256 12.2797 14.5662 12.2797C13.6597 12.2797 12.7872 12.4245 11.9727 12.6914L13.0401 15.8262Z" fill="#FECA2F"/>
<path d="M9.11195 26.4462L11.0883 23.8944C10.2061 23.002 9.6493 21.6993 9.6493 20.2473C9.6493 18.7963 10.2056 17.4936 11.0875 16.602L9.11013 14.0505C7.61113 15.5665 6.6665 17.7809 6.6665 20.2473C6.6665 22.715 7.61251 24.9302 9.11195 26.4462" fill="#1BA7DE"/>
<path d="M19.2852 21.1337C18.8379 23.2895 16.8962 24.9106 14.569 24.9106C14.0351 24.9106 13.5211 24.825 13.0416 24.6673L11.9727 27.8038C12.7884 28.0719 13.6613 28.217 14.569 28.217C18.5248 28.217 21.8245 25.4604 22.5849 21.7972L19.2852 21.1337Z" fill="#EC412A"/>
<path fill-rule="evenodd" clip-rule="evenodd" d="M38.4654 14.0505V23.1193L40.0928 23.7716L39.3229 25.5603L37.7136 24.9134C37.3517 24.7616 37.1068 24.5304 36.9207 24.2693C36.7421 24.0021 36.6096 23.637 36.6096 23.1442V14.0505H38.4654ZM26.1227 20.7907C26.1631 18.1973 28.3717 16.1271 31.0516 16.1669C33.3262 16.2014 35.2108 17.742 35.7058 19.791L26.9085 23.4269C26.3974 22.6715 26.107 21.7627 26.1227 20.7907ZM28.1356 21.1543C28.1235 21.0455 28.115 20.9339 28.1182 20.8213C28.1434 19.2934 29.4437 18.0742 31.0226 18.0995C31.8821 18.1106 32.6452 18.4911 33.1611 19.0802L28.1356 21.1543ZM32.9759 22.8379C32.4457 23.3367 31.7266 23.6405 30.9328 23.6296C30.3886 23.6208 29.8844 23.4633 29.4557 23.2008L28.393 24.8383C29.1208 25.2832 29.979 25.5464 30.9042 25.5602C32.251 25.5796 33.4784 25.068 34.371 24.2233L32.9759 22.8379ZM45.2386 18.0994C44.9216 18.0994 44.617 18.1489 44.3323 18.2413L43.6991 16.4064C44.1824 16.2503 44.7 16.1655 45.2386 16.1655C47.5891 16.1655 49.55 17.7801 49.9996 19.9249L48.0394 20.3113C47.7752 19.0491 46.6216 18.0994 45.2386 18.0994ZM42.0201 24.3817L43.3447 22.9333C42.7531 22.4268 42.3806 21.6872 42.3806 20.8627C42.3806 20.0391 42.7531 19.2998 43.3441 18.7938L42.0186 17.3454C41.0137 18.2059 40.3806 19.4634 40.3806 20.8627C40.3806 22.2638 41.0142 23.5208 42.0201 24.3817ZM45.2385 23.6271C46.6202 23.6271 47.7736 22.6783 48.0393 21.4178L49.999 21.8059C49.5472 23.9484 47.5869 25.5607 45.2385 25.5607C44.6994 25.5607 44.1812 25.4757 43.6965 25.3189L44.3313 23.4846C44.6164 23.5767 44.9213 23.6271 45.2385 23.6271Z" fill="#222222"/>
<rect x="0.5" y="0.5" width="57" height="39" rx="5.5" stroke="#EEF2F6"/>
</svg>
