<svg width="34" height="24" viewBox="0 0 34 24" fill="none" xmlns="http://www.w3.org/2000/svg">
<rect x="0.5" y="0.5" width="33" height="23" rx="3.5" fill="white"/>
<path fill-rule="evenodd" clip-rule="evenodd" d="M14.5071 10.6561H10.127H10.0542C10.3887 6.35408 12.1361 5.05275 16.6882 5.00044C16.7583 5 16.8264 5 16.8956 5H17.0186C17.088 5 17.156 5 17.2262 5.00044C17.8028 5.00705 18.3339 5.03392 18.8235 5.08403C18.7876 5.08524 18.7524 5.08645 18.7129 5.09075C18.6762 5.09439 18.6303 5.09712 18.5761 5.10034C18.0375 5.13237 16.6792 5.21315 15.4365 6.71443C14.7018 7.60287 14.629 10.6561 14.629 10.6561H14.5071ZM14.1829 15.8909C13.6694 16.5331 12.9301 16.49 12.9197 16.4893V19.0998C11.0906 18.3614 10.2662 16.8216 10.0512 13.9825C10.0252 13.6404 10.0097 13.3398 10 13.0907L14.6291 13.0889L14.626 13.3644C14.6205 13.8405 14.61 14.766 14.6111 14.7968C14.6147 14.9324 14.5804 15.3944 14.1829 15.8909ZM20.289 5.34195C22.6151 5.96144 23.6226 7.50968 23.8631 10.6903C23.938 11.6782 23.9294 12.3362 23.9294 12.3362C23.9294 12.3362 23.9381 12.9946 23.8632 13.9824C23.5358 18.3119 21.7903 19.6197 17.2263 19.6723C17.1561 19.6727 16.7584 19.6727 16.6883 19.6723C15.8967 19.663 15.1924 19.6151 14.5631 19.5215C14.5658 19.5215 14.5685 19.5214 14.5712 19.5214C14.5905 19.5212 14.6094 19.5211 14.6291 19.5197C15.4548 19.4724 16.6045 18.8355 17.2888 17.3539C17.5877 16.706 17.668 15.5493 17.668 15.5493V13.0894H17.6682V13.0888H20.168H20.2892V10.6558H20.168H17.6684C17.6684 10.6558 17.6684 10.6557 17.6683 10.6556C17.6683 10.6555 17.6683 10.6554 17.6682 10.6554C17.6682 10.6554 17.6671 10.6529 17.6662 10.6482L17.6655 10.645C17.6649 10.6431 17.6643 10.641 17.6637 10.6386C17.663 10.6358 17.6622 10.6325 17.6609 10.6285C17.6608 10.6279 17.6607 10.6271 17.6606 10.6263C17.6603 10.6245 17.6599 10.6225 17.6598 10.6208C17.6579 10.6138 17.6563 10.6069 17.655 10.5976C17.6543 10.5953 17.6539 10.5925 17.6535 10.5897C17.6533 10.5878 17.653 10.5859 17.6526 10.5841C17.6509 10.575 17.6494 10.5657 17.648 10.5548C17.6469 10.5505 17.6466 10.5452 17.6463 10.5402C17.6462 10.539 17.6461 10.5379 17.646 10.5368C17.6443 10.5252 17.6431 10.5142 17.6416 10.501C17.6414 10.4983 17.6413 10.4954 17.6412 10.4925C17.6411 10.4883 17.6409 10.484 17.6405 10.4801C17.6404 10.4773 17.6402 10.4745 17.64 10.4718C17.6392 10.4605 17.6385 10.4492 17.6383 10.4366C17.6382 10.4328 17.6382 10.4288 17.6382 10.4249C17.6382 10.4209 17.6382 10.4169 17.6381 10.4131C17.6381 10.4076 17.638 10.4021 17.6379 10.3966C17.6377 10.3855 17.6374 10.3741 17.6381 10.3619C17.6381 10.3577 17.6384 10.3531 17.6387 10.3484C17.6389 10.3449 17.6391 10.3413 17.6392 10.3378C17.6396 10.3183 17.6404 10.2989 17.6425 10.2773C17.6427 10.2742 17.6431 10.2709 17.6435 10.2675C17.6439 10.2638 17.6443 10.2601 17.6445 10.2565C17.6466 10.2329 17.6493 10.2091 17.653 10.1838C17.6532 10.1814 17.6537 10.1789 17.6541 10.1765C17.6546 10.1741 17.6551 10.1717 17.6553 10.1694C17.6597 10.1407 17.6644 10.1117 17.6707 10.081C17.6707 10.0804 17.6709 10.0794 17.6711 10.0784C17.7154 9.86574 17.8104 9.60396 18.0006 9.30737C18.512 8.51155 19.9644 8.549 20.243 8.56376C20.2645 8.56506 20.2791 8.56606 20.2854 8.56649C20.2877 8.56665 20.2889 8.56673 20.289 8.56673V5.34195ZM14.4707 19.5063C14.4723 19.5063 14.474 19.5064 14.4757 19.5064C14.474 19.5064 14.4724 19.5063 14.4707 19.5063H14.4707Z" fill="#659AD2"/>
<rect x="0.5" y="0.5" width="33" height="23" rx="3.5" stroke="#EEF2F6"/>
</svg>
