<svg width="58" height="40" viewBox="0 0 58 40" fill="none" xmlns="http://www.w3.org/2000/svg">
<rect x="0.5" y="0.5" width="57" height="39" rx="5.5" fill="white"/>
<path fill-rule="evenodd" clip-rule="evenodd" d="M24.1783 17.7601H16.8781H16.7568C17.3143 10.5901 20.2267 8.42127 27.8135 8.33408C27.9303 8.33334 28.0439 8.33334 28.1592 8.33334H28.3642C28.4798 8.33334 28.5931 8.33334 28.7102 8.33408C29.6711 8.34509 30.5564 8.38988 31.3723 8.4734C31.3124 8.47541 31.2539 8.47743 31.188 8.48459C31.1269 8.49065 31.0504 8.4952 30.96 8.50058C30.0623 8.55397 27.7985 8.68859 25.7273 11.1907C24.5028 12.6715 24.3815 17.7601 24.3815 17.7601H24.1783ZM23.6381 26.4848C22.7822 27.5552 21.55 27.4833 21.5327 27.4822V31.833C18.4842 30.6023 17.1102 28.036 16.7519 23.3042C16.7085 22.7341 16.6827 22.233 16.6665 21.8178L24.3816 21.8148L24.3765 22.2741C24.3674 23.0676 24.3498 24.61 24.3517 24.6614C24.3576 24.8873 24.3005 25.6573 23.6381 26.4848ZM33.8148 8.90326C37.6917 9.93575 39.3708 12.5161 39.7717 17.8172C39.8965 19.4637 39.8822 20.5604 39.8822 20.5604C39.8822 20.5604 39.8967 21.6577 39.7719 23.304C39.2262 30.5198 36.317 32.6996 28.7104 32.7871C28.5933 32.7878 27.9304 32.7878 27.8137 32.7871C26.4943 32.7717 25.3205 32.6918 24.2717 32.5358C24.2762 32.5358 24.2806 32.5357 24.2851 32.5357C24.3173 32.5354 24.3489 32.5351 24.3816 32.5329C25.7579 32.454 27.674 31.3925 28.8144 28.9231C29.3126 27.8433 29.4464 25.9156 29.4464 25.9156V21.8157H29.4468V21.8146H33.6131H33.8152V17.7597H33.6131H29.4472C29.4472 17.7597 29.4472 17.7592 29.4468 17.759C29.4468 17.759 29.4449 17.7548 29.4435 17.7471L29.4424 17.7417C29.4413 17.7384 29.4404 17.735 29.4394 17.7311C29.4382 17.7263 29.4368 17.7209 29.4347 17.7142C29.4345 17.7128 29.4342 17.7111 29.4339 17.7092C29.4335 17.7066 29.433 17.7038 29.4328 17.7014C29.4297 17.6896 29.427 17.6782 29.4248 17.6626C29.4237 17.6588 29.423 17.6542 29.4224 17.6495C29.4219 17.6464 29.4215 17.6432 29.4209 17.6402C29.418 17.625 29.4156 17.6096 29.4132 17.5914C29.4114 17.5843 29.4108 17.5754 29.4103 17.567C29.4102 17.5651 29.41 17.5632 29.4099 17.5613C29.407 17.542 29.4049 17.5237 29.4025 17.5017C29.4022 17.4972 29.4021 17.4924 29.4019 17.4876C29.4016 17.4806 29.4014 17.4734 29.4007 17.4668C29.4004 17.4622 29.4001 17.4576 29.3998 17.453C29.3986 17.4342 29.3973 17.4154 29.397 17.3943C29.3969 17.388 29.3969 17.3814 29.3969 17.3748C29.3969 17.3682 29.3969 17.3615 29.3967 17.3552C29.3967 17.346 29.3965 17.3369 29.3963 17.3277C29.3959 17.3091 29.3956 17.2902 29.3967 17.2698C29.3967 17.2628 29.3971 17.2551 29.3976 17.2474C29.398 17.2415 29.3983 17.2355 29.3985 17.2296C29.3992 17.1971 29.4005 17.1648 29.404 17.1289C29.4044 17.1237 29.405 17.1181 29.4056 17.1125C29.4063 17.1064 29.4069 17.1002 29.4073 17.0942C29.4108 17.0549 29.4154 17.0152 29.4215 16.973C29.4218 16.969 29.4226 16.9649 29.4234 16.9608C29.4242 16.9568 29.4249 16.9528 29.4253 16.949C29.4327 16.9013 29.4405 16.8528 29.451 16.8018C29.451 16.8007 29.4514 16.799 29.4517 16.7974C29.5255 16.4429 29.6838 16.0066 30.0008 15.5123C30.8532 14.1859 33.2739 14.2483 33.7381 14.2729C33.774 14.2751 33.7983 14.2768 33.8089 14.2775C33.8126 14.2778 33.8146 14.2779 33.8148 14.2779V8.90326ZM24.1173 32.5105C24.1386 32.5109 24.16 32.5114 24.1816 32.5115C24.16 32.5114 24.1387 32.5109 24.1176 32.5105L24.1173 32.5105Z" fill="#659AD2"/>
<rect x="0.5" y="0.5" width="57" height="39" rx="5.5" stroke="#EEF2F6"/>
</svg>
