<svg width="46" height="32" viewBox="0 0 46 32" fill="none" xmlns="http://www.w3.org/2000/svg">
<rect x="0.5" y="0.5" width="45" height="31" rx="3.5" fill="white"/>
<path fill-rule="evenodd" clip-rule="evenodd" d="M8.24155 10.3237C7.43777 10.325 6.78745 10.9177 6.78589 11.6502V11.6502V20.4569V20.457C6.7859 20.4627 6.78595 20.4684 6.78604 20.4741C6.78595 20.4684 6.7859 20.4627 6.78589 20.4569M6.81592 20.7241C6.95242 21.3282 7.53823 21.7822 8.24155 21.7835H23.3871L23.3871 21.7834H8.24155C7.53824 21.7822 6.95243 21.3282 6.81592 20.7241ZM23.3871 10.3237L23.3871 10.3237H8.24155M8.24155 9.33334H37.2278C38.632 9.33356 39.7697 10.3701 39.7702 11.6502V20.457C39.7697 21.7366 38.632 22.7733 37.2278 22.7737H8.24155C6.83724 22.7733 5.6997 21.7366 5.69922 20.457V11.6502C5.6997 10.3701 6.83724 9.33356 8.24155 9.33334Z" fill="#0F3365"/>
<path fill-rule="evenodd" clip-rule="evenodd" d="M25.8658 19.0164H24.5942V14.3095H25.767V14.9148H25.7812C26.0355 14.4447 26.5726 14.2322 27.152 14.2322C28.1695 14.2322 28.7272 15.1144 28.7272 15.9256C28.7272 16.9173 28.1408 17.7414 27.0458 17.7414C26.6008 17.7414 26.1203 17.5936 25.88 17.1944H25.8658V19.0164ZM26.6434 16.8529C27.1235 16.8529 27.4133 16.486 27.4133 15.9515C27.4133 15.507 27.1377 15.1208 26.6434 15.1208C26.1768 15.1208 25.8657 15.4943 25.8657 15.9964C25.8657 16.486 26.2193 16.8529 26.6434 16.8529ZM33.5998 19.0164C33.8614 19.068 34.1226 19.0938 34.3912 19.0938C35.4911 19.0938 35.7984 18.3659 36.132 17.5758C36.152 17.5283 36.1722 17.4806 36.1926 17.4327L37.5423 14.3095H36.2706L35.5144 16.4986H35.5003L34.7089 14.3095H33.3388L34.8288 17.7414C34.7376 18.0376 34.4972 18.2051 34.1868 18.2051C34.0097 18.2051 33.8541 18.1862 33.6849 18.1342L33.5998 19.0164ZM33.1258 17.7733C33.0694 17.5093 33.055 17.2455 33.055 16.9813V15.7322C33.055 14.7084 32.2427 14.3415 31.303 14.3415C30.7587 14.3415 30.2855 14.4121 29.8334 14.5798L29.8543 15.3652C30.2079 15.1851 30.6175 15.1141 31.0271 15.1141C31.4865 15.1141 31.8612 15.2364 31.8681 15.6938C31.7057 15.6678 31.4798 15.6483 31.2748 15.6483C30.5965 15.6483 29.3743 15.771 29.3743 16.7947C29.3743 17.5226 30.0242 17.8509 30.752 17.8509C31.2748 17.8509 31.6281 17.6639 31.9176 17.2455H31.9314C31.9314 17.3476 31.9389 17.4498 31.9464 17.5531L31.9464 17.5531V17.5531C31.9517 17.6258 31.9571 17.699 31.9599 17.7733H33.1258ZM30.561 16.7112C30.561 16.3892 30.9 16.2669 31.3311 16.2669C31.4662 16.2669 31.5978 16.2733 31.7207 16.2793L31.7208 16.2793C31.7715 16.2818 31.8207 16.2842 31.8681 16.2861C31.8681 16.6787 31.5645 17.0784 31.0837 17.0784C30.7871 17.0784 30.561 16.9426 30.561 16.7112Z" fill="#FFFFFE"/>
<path fill-rule="evenodd" clip-rule="evenodd" d="M13.5424 17.664H14.8141V14.3095H13.5424V17.664ZM13.5424 13.7621H14.8141V12.9121H13.5424V13.7621ZM17.9242 14.2323C18.0724 14.2323 18.2278 14.2516 18.3551 14.2705L18.2913 15.2364C18.1502 15.1979 18.0088 15.1979 17.8606 15.1979C17.2672 15.1979 16.935 15.5908 16.935 16.2478V17.664H15.6633V14.3095H16.8221V14.9274H16.836C17.0551 14.5027 17.3731 14.2323 17.9242 14.2323ZM22.6852 15.9902C22.6852 17.0977 21.7596 17.7415 20.5447 17.7415C19.3296 17.7415 18.4039 17.0977 18.4039 15.9902C18.4039 14.876 19.3296 14.2323 20.5447 14.2323C21.7596 14.2323 22.6852 14.876 22.6852 15.9902ZM19.7181 15.9902C19.7181 16.486 19.9582 16.9301 20.5447 16.9301C21.131 16.9301 21.3713 16.486 21.3713 15.9902C21.3713 15.4879 21.131 15.0436 20.5447 15.0436C19.9582 15.0436 19.7181 15.4879 19.7181 15.9902ZM11.5131 14.3095H12.6649V17.2716C12.6649 18.6493 11.9302 19.0938 10.4465 19.0938C9.83898 19.0938 9.33733 18.9777 9.04049 18.8815L9.10424 17.967C9.49272 18.1409 9.8177 18.2438 10.3476 18.2438C11.0825 18.2438 11.4779 17.9284 11.4779 17.2716V17.0909H11.4636C11.1601 17.4842 10.7362 17.664 10.2276 17.664C9.21717 17.664 8.58839 16.9692 8.58839 15.9771C8.58839 14.979 9.10424 14.2323 10.2486 14.2323C10.7925 14.2323 11.2307 14.5027 11.4992 14.9146H11.5131V14.3095ZM10.6232 15.1208C10.1498 15.1208 9.90253 15.5007 9.90253 15.9577C9.90253 16.4791 10.2417 16.7757 10.6232 16.7757C11.0752 16.7757 11.4357 16.428 11.4357 15.9126C11.4357 15.539 11.1953 15.1208 10.6232 15.1208Z" fill="#D8232A"/>
<rect x="0.5" y="0.5" width="45" height="31" rx="3.5" stroke="#EEF2F6"/>
</svg>
