<svg width="58" height="40" viewBox="0 0 58 40" fill="none" xmlns="http://www.w3.org/2000/svg">
<rect x="0.5" y="0.5" width="57" height="39" rx="5.5" fill="white"/>
<path fill-rule="evenodd" clip-rule="evenodd" d="M10.3019 12.9046C9.29721 12.9063 8.48432 13.6472 8.48236 14.5627V14.5628V25.5712V25.5712C8.48238 25.5783 8.48244 25.5855 8.48256 25.5926C8.48244 25.5854 8.48238 25.5783 8.48236 25.5712M8.5199 25.9051C8.69053 26.6602 9.42279 27.2277 10.3019 27.2293H29.2338L29.2338 27.2293H10.3019C9.4228 27.2277 8.69054 26.6602 8.5199 25.9051ZM29.2338 12.9046L29.2338 12.9046H10.3019M10.3019 11.6667H46.5348C48.29 11.6669 49.7121 12.9626 49.7127 14.5627V25.5712C49.7121 27.1707 48.29 28.4666 46.5348 28.4671H10.3019C8.54655 28.4666 7.12462 27.1707 7.12402 25.5712V14.5627C7.12462 12.9626 8.54655 11.6669 10.3019 11.6667Z" fill="#0F3365"/>
<path fill-rule="evenodd" clip-rule="evenodd" d="M32.3321 23.7705H30.7427V17.8868H32.2087V18.6435H32.2264C32.5442 18.0559 33.2156 17.7903 33.9398 17.7903C35.2117 17.7903 35.9088 18.893 35.9088 19.9069C35.9088 21.1466 35.1759 22.1768 33.8071 22.1768C33.2508 22.1768 32.6502 21.9919 32.3498 21.4929H32.3321V23.7705ZM33.3041 21.0661C33.9043 21.0661 34.2664 20.6075 34.2664 19.9393C34.2664 19.3837 33.922 18.901 33.3041 18.901C32.7209 18.901 32.332 19.3679 32.332 19.9955C32.332 20.6075 32.774 21.0661 33.3041 21.0661ZM41.9996 23.7705C42.3266 23.835 42.6531 23.8673 42.9888 23.8673C44.3637 23.8673 44.7479 22.9573 45.1649 21.9697C45.1899 21.9103 45.2151 21.8507 45.2406 21.7909L46.9278 17.8868H45.3381L44.3929 20.6233H44.3753L43.386 17.8868H41.6733L43.5359 22.1768C43.4218 22.547 43.1214 22.7564 42.7334 22.7564C42.5119 22.7564 42.3176 22.7327 42.106 22.6677L41.9996 23.7705ZM41.4072 22.2166C41.3367 21.8866 41.3186 21.5569 41.3186 21.2267V19.6652C41.3186 18.3854 40.3032 17.9269 39.1286 17.9269C38.4483 17.9269 37.8567 18.015 37.2916 18.2247L37.3177 19.2065C37.7597 18.9814 38.2718 18.8927 38.7837 18.8927C39.358 18.8927 39.8263 19.0455 39.8351 19.6172C39.6319 19.5847 39.3496 19.5603 39.0934 19.5603C38.2455 19.5603 36.7177 19.7138 36.7177 20.9934C36.7177 21.9032 37.5302 22.3137 38.4399 22.3137C39.0934 22.3137 39.535 22.0799 39.8968 21.5569H39.9141C39.9141 21.6845 39.9235 21.8122 39.9329 21.9414C39.9395 22.0322 39.9462 22.1238 39.9498 22.2166H41.4072ZM38.2011 20.8889C38.2011 20.4865 38.6249 20.3336 39.1637 20.3336C39.3327 20.3336 39.4971 20.3416 39.6508 20.3491L39.6508 20.3491C39.7142 20.3522 39.7757 20.3552 39.835 20.3576C39.835 20.8483 39.4555 21.348 38.8545 21.348C38.4837 21.348 38.2011 21.1783 38.2011 20.8889Z" fill="#FFFFFE"/>
<path fill-rule="evenodd" clip-rule="evenodd" d="M16.9279 22.08H18.5175V17.8868H16.9279V22.08ZM16.9279 17.2026H18.5175V16.1401H16.9279V17.2026ZM22.4052 17.7903C22.5904 17.7903 22.7846 17.8144 22.9437 17.8381L22.864 19.0455C22.6877 18.9974 22.5109 18.9974 22.3256 18.9974C21.5839 18.9974 21.1686 19.4884 21.1686 20.3097V22.08H19.5791V17.8868H21.0274V18.6592H21.0449C21.3188 18.1283 21.7163 17.7903 22.4052 17.7903ZM28.3564 19.9877C28.3564 21.3721 27.1993 22.1768 25.6807 22.1768C24.1618 22.1768 23.0048 21.3721 23.0048 19.9877C23.0048 18.5949 24.1618 17.7903 25.6807 17.7903C27.1993 17.7903 28.3564 18.5949 28.3564 19.9877ZM24.6475 19.9877C24.6475 20.6075 24.9477 21.1626 25.6807 21.1626C26.4137 21.1626 26.714 20.6075 26.714 19.9877C26.714 19.3598 26.4137 18.8045 25.6807 18.8045C24.9477 18.8045 24.6475 19.3598 24.6475 19.9877ZM14.3912 17.8868H15.831V21.5895C15.831 23.3116 14.9126 23.8673 13.058 23.8673C12.2986 23.8673 11.6715 23.7221 11.3005 23.6018L11.3802 22.4587C11.8658 22.6761 12.272 22.8047 12.9344 22.8047C13.853 22.8047 14.3473 22.4104 14.3473 21.5895V21.3636H14.3294C13.95 21.8552 13.4202 22.08 12.7844 22.08C11.5213 22.08 10.7354 21.2114 10.7354 19.9714C10.7354 18.7237 11.3802 17.7903 12.8107 17.7903C13.4905 17.7903 14.0382 18.1283 14.3739 18.6432H14.3912V17.8868ZM13.2789 18.901C12.6871 18.901 12.378 19.3759 12.378 19.9471C12.378 20.5989 12.802 20.9695 13.2789 20.9695C13.8439 20.9695 14.2944 20.535 14.2944 19.8908C14.2944 19.4237 13.9941 18.901 13.2789 18.901Z" fill="#D8232A"/>
<rect x="0.5" y="0.5" width="57" height="39" rx="5.5" stroke="#EEF2F6"/>
</svg>
