<svg width="58" height="40" viewBox="0 0 58 40" fill="none" xmlns="http://www.w3.org/2000/svg">
<rect x="0.5" y="0.5" width="57" height="39" rx="5.5" fill="white"/>
<path fill-rule="evenodd" clip-rule="evenodd" d="M26.7633 25.88V20.9889H29.2876C30.3221 20.9889 31.1952 20.6423 31.9069 19.9587L32.0777 19.7854C33.3779 18.3701 33.2925 16.1652 31.9069 14.8558C31.2141 14.1626 30.2651 13.7871 29.2876 13.8063H25.2354V25.88H26.7633ZM26.7634 19.5061V15.289H29.3262C29.8767 15.289 30.3987 15.5008 30.7879 15.8859C31.6137 16.6947 31.6327 18.0426 30.8354 18.8802C30.4462 19.2943 29.8957 19.5253 29.3262 19.5061H26.7634ZM39.2049 18.2641C38.5501 17.6575 37.658 17.3494 36.5287 17.3494C35.0767 17.3494 33.9853 17.8886 33.2641 18.9573L34.6117 19.8142C35.1051 19.0825 35.7789 18.7166 36.6331 18.7166C37.174 18.7166 37.696 18.9188 38.104 19.2847C38.5026 19.6313 38.7304 20.132 38.7304 20.6615V21.0177C38.142 20.6904 37.4018 20.5171 36.4907 20.5171C35.4278 20.5171 34.5737 20.7674 33.9379 21.2777C33.302 21.788 32.9794 22.462 32.9794 23.3189C32.9604 24.0987 33.2925 24.8401 33.8809 25.3408C34.4788 25.8799 35.238 26.1495 36.1301 26.1495C37.1835 26.1495 38.0186 25.6778 38.6545 24.7342H38.7209V25.8799H40.1824V20.7867C40.1824 19.7179 39.8597 18.8707 39.2049 18.2641ZM35.0579 24.3587C34.7447 24.1277 34.5549 23.7522 34.5549 23.3478C34.5549 22.8953 34.7637 22.5198 35.1718 22.2213C35.5895 21.9228 36.1115 21.7688 36.7285 21.7688C37.5827 21.7591 38.2471 21.9517 38.7217 22.3368C38.7217 22.9915 38.4654 23.5596 37.9624 24.041C37.5068 24.5031 36.8898 24.7631 36.2444 24.7631C35.8173 24.7727 35.3996 24.6283 35.0579 24.3587ZM43.466 29.5097L48.5717 17.619H46.9109L44.5479 23.5499H44.5194L42.0994 17.619H40.4386L43.7887 25.3504L41.8906 29.5097H43.466Z" fill="#3C4043"/>
<path d="M21.4884 19.9298C21.4884 19.4581 21.4504 18.9863 21.3745 18.5241H14.9307V21.1911H18.6223C18.4705 22.048 17.977 22.8183 17.2557 23.2997V25.0327H19.4575C20.7481 23.8292 21.4884 22.048 21.4884 19.9298Z" fill="#4285F4"/>
<path d="M14.9308 26.708C16.7719 26.708 18.3282 26.0918 19.4576 25.0328L17.2559 23.2997C16.639 23.7233 15.8513 23.964 14.9308 23.964C13.1466 23.964 11.6377 22.7413 11.0968 21.1045H8.82861V22.8953C9.98641 25.2349 12.3495 26.708 14.9308 26.708Z" fill="#34A853"/>
<path d="M11.097 21.1045C10.8122 20.2476 10.8122 19.3137 11.097 18.4471V16.6659H8.82845C7.8508 18.6204 7.8508 20.9312 8.82845 22.8857L11.097 21.1045Z" fill="#FBBC04"/>
<path d="M14.9308 15.5876C15.9083 15.5683 16.8478 15.9438 17.5501 16.6274L19.505 14.644C18.2618 13.4694 16.6295 12.8243 14.9308 12.8435C12.3495 12.8435 9.98641 14.3263 8.82861 16.6659L11.0968 18.4567C11.6377 16.8103 13.1466 15.5876 14.9308 15.5876Z" fill="#EA4335"/>
<rect x="0.5" y="0.5" width="57" height="39" rx="5.5" stroke="#EEF2F6"/>
</svg>
