<svg width="46" height="32" viewBox="0 0 46 32" fill="none" xmlns="http://www.w3.org/2000/svg">
<rect x="0.5" y="0.5" width="45" height="31" rx="5.5" fill="white"/>
<path fill-rule="evenodd" clip-rule="evenodd" d="M33.268 24.8278C33.268 25.2974 33.0814 25.7478 32.7494 26.0799C32.4173 26.4119 31.9669 26.5985 31.4973 26.5985H13.7727C13.54 26.5987 13.3095 26.5531 13.0944 26.4643C12.8794 26.3754 12.684 26.245 12.5193 26.0806C12.3547 25.9161 12.2241 25.7208 12.135 25.5059C12.0459 25.2909 12 25.0605 12 24.8278V7.10397C12 6.87127 12.0459 6.64086 12.135 6.4259C12.2241 6.21095 12.3547 6.01566 12.5193 5.85121C12.684 5.68677 12.8794 5.55638 13.0944 5.46752C13.3095 5.37865 13.54 5.33305 13.7727 5.33331H31.4961C31.9657 5.33331 32.4161 5.51986 32.7482 5.85193C33.0802 6.18399 33.2668 6.63436 33.2668 7.10397L33.268 24.8278Z" fill="#EDAA00"/>
<path d="M23.8751 16.1955V12.3874L24.8695 12.152V12.6506C24.8695 12.6506 25.1266 11.9942 25.7238 11.8417C25.9077 11.7954 26.0003 11.8232 26.0003 11.8232V12.7946C25.8213 12.7971 25.6445 12.834 25.4795 12.9033C25.1109 13.0486 24.9258 13.3665 24.9258 13.8494V15.952L23.8751 16.1955ZM18.6352 17.4337C18.6352 17.4337 18.4742 17.1923 18.4742 16.3343V14.4385L17.9623 14.5592V13.7789L18.4746 13.6582V12.8067L19.5318 12.5572V13.4067L20.2786 13.2296V14.0103L19.5318 14.1878V16.1194C19.5318 16.9971 19.7648 17.1657 19.7648 17.1657L18.6352 17.4337ZM20.3889 15.1685C20.3889 14.4912 20.4855 13.9975 20.6923 13.6184C20.9382 13.1685 21.3426 12.8755 21.931 12.7415C23.0904 12.4779 23.5085 13.1645 23.492 14.0844C23.4868 14.4132 23.488 14.5737 23.488 14.5737L21.4453 15.0538V15.0868C21.4453 15.7307 21.5805 16.0353 21.9877 15.9484C22.3394 15.8744 22.4372 15.6538 22.465 15.3818C22.4698 15.3371 22.4714 15.2257 22.4714 15.2257L23.4288 14.9963C23.4288 14.9963 23.4312 15.0747 23.4288 15.1621C23.42 15.5279 23.3137 16.4349 21.9837 16.7488C20.7241 17.0478 20.3877 16.2784 20.3877 15.1685H20.3889ZM21.972 13.4506C21.6336 13.5274 21.4561 13.8594 21.4489 14.4095L22.4767 14.1649C22.4787 14.1399 22.4787 14.0844 22.4787 13.9991C22.4767 13.5842 22.3483 13.3653 21.9724 13.4506H21.972ZM29.5762 12.9415C29.536 11.7817 29.837 10.861 31.1308 10.5672C31.9565 10.3797 32.2692 10.5938 32.4278 10.801C32.5803 10.999 32.639 11.2658 32.639 11.6397V11.7089L31.6257 11.9503V11.8091C31.6257 11.3664 31.505 11.1974 31.1831 11.2779C30.8004 11.3741 30.6458 11.7371 30.6458 12.4598V12.7966C30.6458 13.5311 30.7464 13.8675 31.1871 13.7749C31.5702 13.6944 31.6225 13.3596 31.6298 13.0651C31.6298 13.0188 31.6326 12.8707 31.6326 12.8707L32.6443 12.6324V12.7898C32.6414 13.7524 32.134 14.3592 31.1827 14.5806C29.8736 14.888 29.6168 14.1303 29.5766 12.9415H29.5762ZM26.0763 14.5649C26.0763 13.6828 26.5938 13.4039 27.3717 13.0824C28.0707 12.793 28.0856 12.6494 28.0888 12.3982C28.0925 12.187 27.9947 12.0055 27.6462 12.0944C27.3263 12.1749 27.2413 12.4075 27.2244 12.5926C27.2186 12.6576 27.2164 12.7229 27.218 12.7882L26.2373 13.0196C26.2307 12.8241 26.2535 12.6288 26.3049 12.4401C26.4619 11.9125 26.9275 11.5576 27.7299 11.3721C28.773 11.1306 29.1211 11.5894 29.1227 12.3017V13.9882C29.1227 14.8039 29.274 14.923 29.274 14.923L28.311 15.1512C28.2578 15.0399 28.2144 14.9241 28.1814 14.8051C28.1814 14.8051 27.9709 15.3359 27.2442 15.5073C26.4796 15.6868 26.0771 15.2144 26.0771 14.5653L26.0763 14.5649ZM28.0832 13.3608C27.9208 13.4746 27.7493 13.5749 27.5705 13.6606C27.2486 13.818 27.1041 14.0111 27.1041 14.3089C27.1041 14.5669 27.2651 14.7367 27.5548 14.6643C27.8667 14.5862 28.0832 14.2953 28.0832 13.8916V13.3608ZM13.1091 20.103C12.9992 20.1028 12.8914 20.0729 12.797 20.0166C12.7027 19.9603 12.6252 19.8795 12.5729 19.7829C12.5205 19.6863 12.4952 19.5773 12.4996 19.4675C12.5039 19.3577 12.5378 19.2511 12.5976 19.1589L12.6041 19.1505L12.6157 19.1477L14.0524 18.8084V19.9002L14.0298 19.9054C13.7039 19.9839 13.3143 20.0728 13.2339 20.0893C13.1926 20.0985 13.1505 20.1031 13.1083 20.103H13.1091ZM13.1091 21.4998C12.9477 21.4998 12.7928 21.4358 12.6784 21.3218C12.5641 21.2079 12.4996 21.0532 12.499 20.8917C12.4984 20.7739 12.5327 20.6585 12.5976 20.5602L12.6041 20.5493L12.6157 20.5469L14.0524 20.2076V21.2994L14.0298 21.3054C13.7039 21.3835 13.3143 21.4741 13.2339 21.4897C13.1925 21.4978 13.1504 21.5019 13.1083 21.5018L13.1091 21.4998ZM13.1091 22.899C12.9473 22.8989 12.7921 22.8346 12.6777 22.7201C12.5633 22.6056 12.499 22.4504 12.499 22.2886C12.4984 22.1707 12.5327 22.0553 12.5976 21.957L12.6041 21.9457L14.0528 21.6044V22.6962L14.0302 22.7018C13.6862 22.7847 13.3035 22.8713 13.2343 22.887C13.1929 22.8949 13.1508 22.8989 13.1087 22.899" fill="#231F20"/>
<path d="M12.9399 18.765L12.9395 12.6566L14.053 12.3934V18.5014L12.9399 18.765V18.765Z" fill="#231F20"/>
<path d="M15.7141 18.2454C15.7098 18.0661 15.6355 17.8955 15.5071 17.7702C15.3787 17.6449 15.2064 17.5747 15.027 17.5747C14.8476 17.5747 14.6753 17.6449 14.5469 17.7702C14.4185 17.8955 14.3442 18.0661 14.3398 18.2454V23.955C14.3407 24.4481 14.5369 24.9207 14.8855 25.2694C15.2342 25.6181 15.7068 25.8144 16.1998 25.8154C16.7198 25.8154 18.1443 25.813 18.1443 25.813V20.7751C18.1446 20.627 18.1083 20.4811 18.0385 20.3504C17.9688 20.2198 17.8679 20.1084 17.7447 20.0262L16.0111 18.8487V21.5224C16.0121 21.5424 16.0091 21.5624 16.0022 21.5812C15.9952 21.6 15.9845 21.6172 15.9707 21.6317C15.9569 21.6463 15.9403 21.6578 15.9219 21.6658C15.9035 21.6737 15.8837 21.6777 15.8636 21.6777C15.8436 21.6777 15.8237 21.6737 15.8053 21.6658C15.7869 21.6578 15.7703 21.6463 15.7565 21.6317C15.7427 21.6172 15.732 21.6 15.7251 21.5812C15.7181 21.5624 15.7151 21.5424 15.7161 21.5224C15.7161 21.4938 15.7125 18.5984 15.7125 18.2454H15.7141ZM16.6421 13.9858C16.4316 14.0345 16.234 14.128 16.0629 14.2599C15.8918 14.3919 15.7511 14.5592 15.6505 14.7504V14.3226L14.6481 14.5601V17.3018C14.8239 17.2324 15.0155 17.2129 15.2017 17.2455C15.3879 17.2781 15.5614 17.3615 15.7032 17.4865V15.7158C15.7032 15.2921 15.9149 14.9532 16.2159 14.8868C16.4433 14.8369 16.6324 14.9182 16.6324 15.3218V17.905L17.688 17.6571V14.9251C17.688 14.2623 17.4337 13.7983 16.6417 13.9858H16.6421ZM31.9884 10.0763C31.8593 10.0764 31.733 10.0381 31.6255 9.96643C31.5181 9.89473 31.4343 9.79278 31.3848 9.67346C31.3353 9.55415 31.3223 9.42284 31.3474 9.29613C31.3725 9.16942 31.4346 9.053 31.5259 8.9616C31.6172 8.8702 31.7335 8.80793 31.8602 8.78265C31.9869 8.75737 32.1182 8.77022 32.2376 8.81958C32.357 8.86894 32.459 8.95259 32.5309 9.05996C32.6027 9.16732 32.6411 9.29357 32.6412 9.42275C32.6409 9.59573 32.572 9.76152 32.4496 9.8838C32.3273 10.0061 32.1614 10.0749 31.9884 10.0751V10.0763ZM31.9884 8.85131C31.8755 8.85131 31.7651 8.88479 31.6712 8.94752C31.5773 9.01025 31.5041 9.09941 31.4609 9.20373C31.4177 9.30805 31.4063 9.42284 31.4284 9.5336C31.4504 9.64436 31.5047 9.74611 31.5845 9.82599C31.6643 9.90586 31.766 9.96028 31.8768 9.98236C31.9875 10.0044 32.1023 9.99319 32.2067 9.95003C32.311 9.90687 32.4003 9.83374 32.463 9.73989C32.5258 9.64603 32.5594 9.53567 32.5595 9.42275C32.5593 9.27133 32.4991 9.12616 32.392 9.01906C32.285 8.91195 32.1399 8.85163 31.9884 8.85131" fill="#231F20"/>
<path d="M31.7505 9.03436H32.0322C32.1445 9.03436 32.2334 9.0903 32.2334 9.23879C32.2334 9.34222 32.1875 9.4219 32.1006 9.43558C32.1811 9.44363 32.2213 9.48709 32.2249 9.59936C32.2249 9.64967 32.2274 9.71244 32.2298 9.76033C32.2297 9.77401 32.2332 9.78747 32.2398 9.79944C32.2464 9.81141 32.256 9.82149 32.2676 9.82874H32.1243C32.1099 9.80811 32.1023 9.78349 32.1026 9.75832C32.0978 9.71043 32.0986 9.66576 32.097 9.60781C32.097 9.52089 32.0684 9.48266 31.9807 9.48266H31.8797V9.82874H31.7521L31.7505 9.03436ZM31.9795 9.3893C31.9968 9.3909 32.0142 9.38863 32.0305 9.38264C32.0469 9.37666 32.0617 9.36712 32.0738 9.35471C32.086 9.34231 32.0953 9.32735 32.1009 9.31091C32.1066 9.29448 32.1086 9.277 32.1066 9.25972C32.1066 9.17481 32.0704 9.13054 31.9859 9.13054H31.8797V9.3893H31.9795Z" fill="#231F20"/>
<rect x="0.5" y="0.5" width="45" height="31" rx="5.5" stroke="#EEF2F6"/>
</svg>
