<svg width="34" height="24" viewBox="0 0 34 24" fill="none" xmlns="http://www.w3.org/2000/svg">
<rect x="0.5" y="0.5" width="33" height="23" rx="3.5" fill="white"/>
<path d="M21.9823 11.9542C22.5135 11.9658 23.0478 11.9308 23.577 11.9724C24.1128 12.0724 24.242 12.8836 23.7659 13.1493C23.4411 13.3243 23.0552 13.2145 22.703 13.2454H21.9823V11.9542V11.9542ZM23.8841 10.4928C24.0022 10.9095 23.6006 11.2835 23.1993 11.2262H21.9823C21.9908 10.8333 21.9656 10.4068 21.9946 10.0346C22.4822 10.0484 22.9742 10.0066 23.4589 10.0564C23.6672 10.1088 23.8415 10.28 23.8841 10.4928V10.4928ZM26.8131 4.31448C26.8357 5.11012 26.8163 5.94781 26.8228 6.75959C26.8213 10.06 26.826 13.3603 26.8202 16.6609C26.7989 17.8978 25.7027 18.9726 24.4743 18.9972C23.2448 19.0022 22.0151 18.998 20.7854 18.9994V14.0099C22.1252 14.003 23.4657 14.0239 24.805 13.9994C25.4263 13.9604 26.1068 13.5505 26.1357 12.8668C26.2089 12.1801 25.5615 11.7051 24.9468 11.6301C24.7106 11.624 24.7175 11.5613 24.9468 11.5339C25.5331 11.4072 25.9934 10.8004 25.8209 10.1928C25.674 9.55368 24.9676 9.30631 24.38 9.30754C23.182 9.2994 21.9837 9.30641 20.7857 9.30404C20.7934 8.37256 20.7695 7.44008 20.7985 6.50928C20.8935 5.2947 22.0172 4.29307 23.2283 4.3148C24.4234 4.31462 25.6183 4.31462 26.8131 4.31457V4.31448Z" fill="url(#paint0_linear_6698_47747)"/>
<path d="M7.24671 6.63518C7.27731 5.40023 8.37818 4.33427 9.60494 4.31622C10.8299 4.31245 12.0551 4.31568 13.2801 4.31459C13.2767 8.44645 13.2867 12.5788 13.275 16.7104C13.2279 17.9303 12.139 18.976 10.9256 18.9976C9.69828 19.002 8.47083 18.9982 7.24348 18.9994V13.8417C8.43565 14.1234 9.68582 14.2432 10.902 14.0564C11.629 13.9395 12.4244 13.5824 12.6706 12.8282C12.8517 12.1831 12.7497 11.5041 12.7767 10.8419V9.30415H10.6719C10.6624 10.3212 10.6913 11.34 10.6567 12.3558C10.5999 12.9802 9.9816 13.3769 9.39272 13.3557C8.66241 13.3635 7.2152 12.8264 7.2152 12.8264C7.21157 10.9209 7.23639 8.53456 7.24671 6.63536V6.63518Z" fill="url(#paint1_linear_6698_47747)"/>
<path d="M14.0649 9.92439C13.9541 9.9479 14.0426 9.54701 14.0143 9.39494C14.0218 8.43341 13.9985 7.47083 14.0271 6.50998C14.1218 5.29026 15.2542 4.28613 16.4702 4.31468H20.0512C20.0478 8.44654 20.0578 12.5789 20.0461 16.7105C19.9989 17.9304 18.9099 18.976 17.6965 18.9977C16.4691 19.0023 15.2417 18.9984 14.0142 18.9996V13.3486C14.8525 14.0364 15.9918 14.1435 17.0362 14.1453C17.8235 14.145 18.6062 14.0237 19.3708 13.8421V12.8068C18.5092 13.2362 17.4963 13.509 16.5411 13.2623C15.8748 13.0965 15.3911 12.4525 15.4019 11.7649C15.3247 11.0498 15.7439 10.2949 16.4466 10.0823C17.3191 9.80915 18.27 10.018 19.0878 10.3732C19.263 10.4649 19.4408 10.5787 19.3708 10.2858V9.47209C18.003 9.14667 16.5474 9.02692 15.1732 9.38094C14.7755 9.49314 14.388 9.6633 14.0649 9.92449V9.92439Z" fill="url(#paint2_linear_6698_47747)"/>
<rect x="0.5" y="0.5" width="33" height="23" rx="3.5" stroke="#EEF2F6"/>
<defs>
<linearGradient id="paint0_linear_6698_47747" x1="20.7442" y1="11.343" x2="26.7848" y2="11.343" gradientUnits="userSpaceOnUse">
<stop stop-color="#58B03A"/>
<stop offset="1" stop-color="#55B330"/>
</linearGradient>
<linearGradient id="paint1_linear_6698_47747" x1="7.11505" y1="11.7976" x2="13.1811" y2="11.7976" gradientUnits="userSpaceOnUse">
<stop stop-color="#0F6EB6"/>
<stop offset="1" stop-color="#006DBA"/>
</linearGradient>
<linearGradient id="paint2_linear_6698_47747" x1="14.0054" y1="11.4854" x2="20.05" y2="11.4854" gradientUnits="userSpaceOnUse">
<stop stop-color="#DE0D3D"/>
<stop offset="1" stop-color="#E30138"/>
</linearGradient>
</defs>
</svg>
