<svg width="28" height="20" viewBox="0 0 28 20" fill="none" xmlns="http://www.w3.org/2000/svg">
<rect x="0.5" y="0.5" width="27" height="19" rx="3.5" fill="white"/>
<path d="M18.1028 9.96194C18.5403 9.97157 18.9803 9.94239 19.4161 9.9771C19.8574 10.0604 19.9637 10.7364 19.5717 10.9578C19.3042 11.1037 18.9864 11.0122 18.6964 11.0379H18.1028V9.96194V9.96194ZM19.669 8.74412C19.7662 9.0913 19.4355 9.40302 19.105 9.35521H18.1028C18.1098 9.0278 18.0891 8.67244 18.113 8.36227C18.5145 8.37371 18.9197 8.33893 19.3189 8.38045C19.4904 8.42406 19.6339 8.56674 19.669 8.74412V8.74412ZM22.0811 3.59548C22.0997 4.25852 22.0838 4.95659 22.0891 5.63308C22.0879 8.38341 22.0918 11.1337 22.087 13.8841C22.0694 14.9149 21.1667 15.8105 20.1551 15.8311C19.1425 15.8353 18.1298 15.8318 17.1171 15.8329V11.675C18.2205 11.6692 19.3244 11.6867 20.4274 11.6663C20.939 11.6338 21.4995 11.2921 21.5233 10.7224C21.5835 10.1502 21.0504 9.75437 20.5442 9.69186C20.3496 9.68674 20.3553 9.63446 20.5442 9.61165C21.027 9.50607 21.4061 9.00045 21.264 8.49407C21.143 7.96148 20.5613 7.75534 20.0774 7.75637C19.0908 7.74958 18.104 7.75542 17.1173 7.75345C17.1237 6.97721 17.1041 6.20015 17.1279 5.42448C17.2061 4.41233 18.1316 3.57764 19.1289 3.59575C20.1131 3.5956 21.0971 3.5956 22.0811 3.59556V3.59548Z" fill="url(#paint0_linear_6700_49292)"/>
<path d="M5.96765 5.52937C5.99285 4.50025 6.89945 3.61195 7.90972 3.59691C8.91854 3.59377 9.9275 3.59646 10.9363 3.59555C10.9335 7.03877 10.9418 10.4824 10.9322 13.9254C10.8933 14.942 9.99658 15.8134 8.99731 15.8314C7.98659 15.8351 6.97575 15.8319 5.96499 15.8329V11.5348C6.94677 11.7695 7.97633 11.8694 8.97792 11.7138C9.57662 11.6163 10.2317 11.3188 10.4344 10.6902C10.5835 10.1526 10.4995 9.58679 10.5217 9.03499V7.75352H8.7884C8.78061 8.60105 8.80435 9.45006 8.77585 10.2966C8.72913 10.8169 8.21991 11.1475 7.73495 11.1298C7.13352 11.1363 5.9417 10.6888 5.9417 10.6888C5.93871 9.10084 5.95915 7.11219 5.96765 5.52953V5.52937Z" fill="url(#paint1_linear_6700_49292)"/>
<path d="M11.5826 8.27035C11.4913 8.28994 11.5642 7.95586 11.5409 7.82914C11.5471 7.02786 11.5279 6.22571 11.5515 5.425C11.6294 4.40857 12.562 3.5718 13.5634 3.59559H16.5124C16.5097 7.03881 16.5179 10.4824 16.5083 13.9254C16.4694 14.9421 15.5726 15.8134 14.5733 15.8314C13.5625 15.8353 12.5517 15.832 11.5408 15.833V11.1238C12.2312 11.697 13.1695 11.7862 14.0295 11.7878C14.6779 11.7876 15.3225 11.6864 15.9522 11.5351V10.6724C15.2426 11.0302 14.4084 11.2575 13.6218 11.0519C13.0731 10.9137 12.6748 10.3771 12.6836 9.8041C12.6201 9.2082 12.9653 8.57908 13.544 8.40193C14.2625 8.17431 15.0456 8.34839 15.7191 8.64432C15.8633 8.72077 16.0098 8.8156 15.9521 8.57154V7.89343C14.8257 7.62224 13.627 7.52245 12.4953 7.81747C12.1678 7.91097 11.8486 8.05277 11.5826 8.27042V8.27035Z" fill="url(#paint2_linear_6700_49292)"/>
<rect x="0.5" y="0.5" width="27" height="19" rx="3.5" stroke="#EEF2F6"/>
<defs>
<linearGradient id="paint0_linear_6700_49292" x1="17.0832" y1="9.45254" x2="22.0578" y2="9.45254" gradientUnits="userSpaceOnUse">
<stop stop-color="#58B03A"/>
<stop offset="1" stop-color="#55B330"/>
</linearGradient>
<linearGradient id="paint1_linear_6700_49292" x1="5.85922" y1="9.83143" x2="10.8548" y2="9.83143" gradientUnits="userSpaceOnUse">
<stop stop-color="#0F6EB6"/>
<stop offset="1" stop-color="#006DBA"/>
</linearGradient>
<linearGradient id="paint2_linear_6700_49292" x1="11.5336" y1="9.5712" x2="16.5115" y2="9.5712" gradientUnits="userSpaceOnUse">
<stop stop-color="#DE0D3D"/>
<stop offset="1" stop-color="#E30138"/>
</linearGradient>
</defs>
</svg>
