<svg width="46" height="32" viewBox="0 0 46 32" fill="none" xmlns="http://www.w3.org/2000/svg">
<rect x="0.5" y="0.5" width="45" height="31" rx="3.5" fill="#FEB4C7"/>
<path fill-rule="evenodd" clip-rule="evenodd" d="M7.02578 20.5062H5.18115V12H7.02578V20.5062ZM11.6311 12H9.82644C9.82644 13.5654 9.1464 15.0021 7.96073 15.9421L7.24577 16.5087L10.016 20.5065H12.2937L9.7447 16.8279C10.953 15.5546 11.6311 13.8415 11.6311 12ZM14.5733 20.5038H12.8312V12.0016H14.5733V20.5038ZM19.8365 14.6225V14.9987C19.3665 14.6594 18.7991 14.4599 18.1872 14.4599C16.5677 14.4599 15.2549 15.8494 15.2549 17.5633C15.2549 19.2772 16.5677 20.6667 18.1872 20.6667C18.7991 20.6667 19.3665 20.4672 19.8365 20.128V20.5038H21.5004V14.6225H19.8365ZM19.8315 17.5633C19.8315 18.399 19.1565 19.0766 18.3238 19.0766C17.4912 19.0766 16.8162 18.399 16.8162 17.5633C16.8162 16.7276 17.4912 16.0503 18.3238 16.0503C19.1565 16.0503 19.8315 16.7276 19.8315 17.5633ZM37.39 14.9987V14.6225H39.0538V20.5038H37.39V20.128C36.9199 20.4672 36.3526 20.6667 35.7406 20.6667C34.1211 20.6667 32.8082 19.2772 32.8082 17.5633C32.8082 15.8494 34.1211 14.4599 35.7406 14.4599C36.3526 14.4599 36.9199 14.6594 37.39 14.9987ZM35.8772 19.0766C36.7099 19.0766 37.3848 18.399 37.3848 17.5633C37.3848 16.7276 36.7099 16.0503 35.8772 16.0503C35.0445 16.0503 34.3696 16.7276 34.3696 17.5633C34.3696 18.399 35.0445 19.0766 35.8772 19.0766ZM39.7759 19.5229C39.7759 18.9125 40.2434 18.4178 40.82 18.4178C41.3966 18.4178 41.8641 18.9125 41.8641 19.5229C41.8641 20.133 41.3966 20.6278 40.82 20.6278C40.2434 20.6278 39.7759 20.133 39.7759 19.5229ZM29.8515 14.4643C29.1869 14.4643 28.5579 14.6827 28.1373 15.2852V14.6229H26.4806V20.5038H28.1577V17.4132C28.1577 16.5188 28.7244 16.0809 29.4067 16.0809C30.1379 16.0809 30.5583 16.5432 30.5583 17.401V20.5038H32.2202V16.7638C32.2202 15.3951 31.1919 14.4643 29.8515 14.4643ZM24.0743 14.6226V15.3886C24.4079 14.9291 25.0293 14.623 25.705 14.623V16.3343L25.6958 16.3339C25.6923 16.3338 25.6888 16.3336 25.6852 16.3336C25.0269 16.3336 24.0781 16.8315 24.0781 17.758V20.5039H22.3708V14.6226H24.0743Z" fill="#17120F"/>
<rect x="0.5" y="0.5" width="45" height="31" rx="3.5" stroke="#EEF2F6"/>
</svg>
