<svg width="28" height="20" viewBox="0 0 28 20" fill="none" xmlns="http://www.w3.org/2000/svg">
<rect x="0.5" y="0.5" width="27" height="19" rx="3.5" fill="#FEB4C7"/>
<path fill-rule="evenodd" clip-rule="evenodd" d="M4.33953 12.8164H3.2002V7.5H4.33953V12.8164ZM7.18397 7.5H6.06935C6.06935 8.47835 5.64932 9.37631 4.917 9.96379L4.4754 10.3179L6.18644 12.8166H7.59324L6.01886 10.5175C6.76514 9.72163 7.18397 8.65095 7.18397 7.5ZM9.00121 12.8149H7.92525V7.50102H9.00121V12.8149ZM12.2521 9.13907V9.37421C11.9617 9.16211 11.6113 9.03747 11.2334 9.03747C10.2331 9.03747 9.42219 9.90585 9.42219 10.9771C9.42219 12.0483 10.2331 12.9167 11.2334 12.9167C11.6113 12.9167 11.9617 12.792 12.2521 12.58V12.8149H13.2798V9.13907H12.2521ZM12.2489 10.9771C12.2489 11.4994 11.832 11.9228 11.3177 11.9228C10.8035 11.9228 10.3865 11.4994 10.3865 10.9771C10.3865 10.4548 10.8035 10.0314 11.3177 10.0314C11.832 10.0314 12.2489 10.4548 12.2489 10.9771ZM23.0939 9.37421V9.13907H24.1215V12.8149H23.0939V12.58C22.8036 12.792 22.4531 12.9167 22.0751 12.9167C21.0749 12.9167 20.264 12.0483 20.264 10.9771C20.264 9.90585 21.0749 9.03747 22.0751 9.03747C22.4531 9.03747 22.8036 9.16211 23.0939 9.37421ZM22.1595 11.9228C22.6738 11.9228 23.0907 11.4994 23.0907 10.9771C23.0907 10.4548 22.6738 10.0314 22.1595 10.0314C21.6452 10.0314 21.2283 10.4548 21.2283 10.9771C21.2283 11.4994 21.6452 11.9228 22.1595 11.9228ZM24.5675 12.2018C24.5675 11.8203 24.8563 11.5111 25.2124 11.5111C25.5686 11.5111 25.8573 11.8203 25.8573 12.2018C25.8573 12.5831 25.5686 12.8924 25.2124 12.8924C24.8563 12.8924 24.5675 12.5831 24.5675 12.2018ZM18.4378 9.04021C18.0273 9.04021 17.6388 9.17669 17.379 9.55325V9.13929H16.3558V12.8149H17.3916V10.8832C17.3916 10.3243 17.7416 10.0505 18.163 10.0505C18.6147 10.0505 18.8743 10.3395 18.8743 10.8756V12.8149H19.9008V10.4774C19.9008 9.62195 19.2657 9.04021 18.4378 9.04021ZM14.8695 9.13914V9.61789C15.0755 9.33071 15.4594 9.13935 15.8767 9.13935V10.209L15.871 10.2087L15.8645 10.2085C15.4579 10.2085 14.8719 10.5197 14.8719 11.0987V12.8149H13.8173V9.13914H14.8695Z" fill="#17120F"/>
<rect x="0.5" y="0.5" width="27" height="19" rx="3.5" stroke="#EEF2F6"/>
</svg>
