<svg width="28" height="20" viewBox="0 0 28 20" fill="none" xmlns="http://www.w3.org/2000/svg">
<rect x="0.5" y="0.5" width="27" height="19" rx="3.5" fill="white"/>
<path fill-rule="evenodd" clip-rule="evenodd" d="M14.1476 14.0245C13.1725 14.8562 11.9077 15.3583 10.5255 15.3583C7.44149 15.3583 4.94141 12.8586 4.94141 9.77498C4.94141 6.69139 7.44149 4.19165 10.5255 4.19165C11.9077 4.19165 13.1725 4.69373 14.1476 5.52543C15.1227 4.69373 16.3876 4.19165 17.7697 4.19165C20.8538 4.19165 23.3538 6.69139 23.3538 9.77498C23.3538 12.8586 20.8538 15.3583 17.7697 15.3583C16.3876 15.3583 15.1227 14.8562 14.1476 14.0245Z" fill="#ED0006"/>
<path fill-rule="evenodd" clip-rule="evenodd" d="M14.1475 14.0245C15.3481 13.0004 16.1094 11.4766 16.1094 9.77498C16.1094 8.07335 15.3481 6.54952 14.1475 5.52543C15.1226 4.69373 16.3874 4.19165 17.7696 4.19165C20.8536 4.19165 23.3537 6.69139 23.3537 9.77498C23.3537 12.8586 20.8536 15.3583 17.7696 15.3583C16.3874 15.3583 15.1226 14.8562 14.1475 14.0245Z" fill="#F9A000"/>
<path fill-rule="evenodd" clip-rule="evenodd" d="M14.1475 14.0245C15.3481 13.0004 16.1095 11.4766 16.1095 9.77496C16.1095 8.07334 15.3481 6.54952 14.1475 5.52543C12.9469 6.54952 12.1855 8.07334 12.1855 9.77496C12.1855 11.4766 12.9469 13.0004 14.1475 14.0245Z" fill="#FF5E00"/>
<rect x="0.5" y="0.5" width="27" height="19" rx="3.5" stroke="#EEF2F6"/>
</svg>
