<svg width="28" height="20" viewBox="0 0 28 20" fill="none" xmlns="http://www.w3.org/2000/svg">
<rect x="0.5" y="0.5" width="27" height="19" rx="3.5" fill="white"/>
<path fill-rule="evenodd" clip-rule="evenodd" d="M3.29395 12.0052C3.3082 11.9277 3.32126 11.8526 3.33406 11.779C3.35384 11.6652 3.37301 11.555 3.39504 11.4448C3.48836 10.9462 3.58233 10.4483 3.6763 9.95035C3.77027 9.45242 3.86423 8.95449 3.95756 8.45591C3.97052 8.39276 3.98866 8.35067 4.05088 8.34014C4.53562 8.26647 5.02296 8.21385 5.50771 8.33751C5.93024 8.44275 6.22575 8.74532 6.27501 9.10051C6.3761 9.80826 5.96912 10.3739 5.36513 10.5765C5.04629 10.6818 4.72226 10.7081 4.39305 10.6765C4.31528 10.6686 4.29195 10.6897 4.27899 10.766C4.209 11.1527 4.13642 11.5369 4.06124 11.921C4.05606 11.9526 4.02755 12.0025 4.0094 12.0025C3.83323 12.0065 3.65995 12.006 3.47984 12.0055H3.47983H3.47983H3.47982H3.47981H3.4798C3.41876 12.0053 3.35693 12.0052 3.29395 12.0052ZM4.4086 10.0503C4.45928 10.0503 4.50836 10.0517 4.55619 10.053C4.65758 10.0558 4.75333 10.0584 4.84669 10.0477C5.11628 10.0187 5.33143 9.89508 5.45327 9.63461C5.59066 9.33993 5.49215 9.02684 5.23293 8.93475C5.04888 8.86898 4.85965 8.88213 4.67042 8.90844C4.64709 8.91107 4.61598 8.94791 4.6108 8.97159C4.57453 9.16446 4.53827 9.35815 4.50064 9.55912L4.4086 10.0503ZM7.77298 11.6294L7.77298 11.6294C7.69187 11.7214 7.61483 11.8088 7.52446 11.8789C7.25228 12.092 6.94121 12.1394 6.62755 11.992C6.31648 11.8473 6.18946 11.5658 6.1765 11.2343C6.14799 10.5371 6.38907 9.96086 6.96713 9.56095C7.33004 9.30837 7.74739 9.23207 8.18029 9.25574C8.32349 9.26429 8.46559 9.28951 8.60803 9.31479C8.68475 9.32841 8.76158 9.34204 8.83872 9.35309C8.92686 9.36625 8.93982 9.41624 8.92426 9.49254C8.90346 9.60258 8.88242 9.7125 8.86139 9.82235C8.78288 10.2326 8.70455 10.6418 8.63912 11.0527C8.6016 11.288 8.58663 11.5289 8.5718 11.7675V11.7675L8.56394 11.892C8.55876 11.9762 8.53802 12.0104 8.45248 12.0078C8.29176 12.0025 8.13104 12.0025 7.97032 12.0078C7.88737 12.0104 7.85886 11.9789 7.86663 11.8973C7.87404 11.8072 7.8788 11.7143 7.88374 11.6179C7.88573 11.5792 7.88774 11.5399 7.88997 11.5C7.84895 11.5433 7.81053 11.5869 7.77298 11.6294ZM8.07142 9.87401C7.81998 9.80298 7.61001 9.85297 7.43374 10.0029C7.10193 10.2871 6.95158 10.6554 6.9801 11.0948C6.98787 11.229 7.03972 11.3579 7.1797 11.4158C7.31968 11.4737 7.4467 11.4316 7.55557 11.3369C7.62038 11.279 7.68259 11.2132 7.72925 11.1395C7.91209 10.8563 7.96204 10.5368 8.01277 10.2122L8.01277 10.2122C8.03037 10.0997 8.04806 9.98649 8.07142 9.87401ZM11.7446 11.3474C11.8872 11.8105 12.2786 12.0683 12.9655 12.0683C13.4373 12.0552 13.9065 11.7842 14.1994 11.2264C14.355 10.9264 14.412 10.6055 14.3913 10.2687C14.3731 9.94507 14.2461 9.67144 13.9869 9.47674C13.7147 9.27152 13.4036 9.22943 13.0718 9.26626C11.9623 9.39255 11.5087 10.5844 11.7446 11.3474ZM12.4828 10.961C12.4831 10.9476 12.4834 10.9342 12.4834 10.9212C12.4912 10.6186 12.5637 10.3371 12.7426 10.0871C12.823 9.97664 12.9241 9.89244 13.0589 9.86087C13.3336 9.79772 13.5592 9.95822 13.5851 10.2608C13.6162 10.6318 13.5281 10.9738 13.2973 11.2711C13.2092 11.3816 13.0977 11.4579 12.9552 11.4711C12.6985 11.4947 12.5041 11.3185 12.4834 11.0422C12.4817 11.0158 12.4822 10.9882 12.4828 10.9611V10.961ZM15.0082 9.32152H15.6667C15.6563 9.4636 15.6459 9.60041 15.633 9.73986C15.657 9.71717 15.6802 9.69475 15.7029 9.67277C15.7514 9.62593 15.7979 9.58108 15.8455 9.5399C16.1021 9.31363 16.3951 9.21365 16.7346 9.2689C17.0146 9.31626 17.209 9.52411 17.2401 9.81616C17.2739 10.12 17.2178 10.4148 17.1617 10.7089L17.1494 10.7739C17.1267 10.8934 17.1042 11.013 17.0817 11.1324L17.0817 11.1325C17.0324 11.3943 16.9833 11.6556 16.9317 11.9157C16.9239 11.9499 16.885 11.9999 16.8591 12.0025C16.6361 12.0078 16.4132 12.0052 16.1903 12.0025C16.1828 12.0025 16.1753 11.9984 16.164 11.9922L16.1555 11.9876L16.1488 11.9841C16.1903 11.7658 16.2318 11.5447 16.2706 11.3237C16.3303 10.9843 16.3873 10.6476 16.4391 10.3082C16.4495 10.2503 16.4443 10.1898 16.4365 10.1319C16.4158 9.92929 16.268 9.8372 16.0762 9.89772C15.8896 9.95823 15.7781 10.1056 15.6874 10.2687C15.5526 10.5081 15.5059 10.7739 15.4593 11.0396L15.4245 11.2368C15.3848 11.4623 15.3453 11.6869 15.3011 11.9131C15.2934 11.9473 15.2545 11.9999 15.2286 12.0025C15.0468 12.0088 14.8634 12.0084 14.6678 12.008L14.5157 12.0078C14.6868 11.1027 14.8475 10.2161 15.0082 9.32152ZM18.7462 11.4553C18.4714 11.4211 18.2874 11.2264 18.3055 10.9528C18.3628 10.9528 18.4199 10.9536 18.4766 10.9545C18.5892 10.9563 18.7007 10.958 18.811 10.9528C19.078 10.937 19.3398 10.8922 19.5835 10.7686C19.8946 10.6107 20.0397 10.3503 20.0164 10.0108C19.9931 9.66618 19.809 9.41623 19.4798 9.31626C18.9873 9.16629 18.5336 9.27153 18.1474 9.60567C17.6782 10.0108 17.5019 10.5476 17.5693 11.1606C17.616 11.5947 17.8493 11.9052 18.2744 12.0157C18.7306 12.1341 19.1791 12.071 19.612 11.892C19.6431 11.8789 19.6794 11.8289 19.6768 11.7973C19.6706 11.6689 19.6577 11.5405 19.6449 11.4121L19.6353 11.3158C19.6268 11.3158 19.6205 11.3154 19.6156 11.3151C19.6086 11.3146 19.6047 11.3143 19.6016 11.3158C19.5731 11.3264 19.5446 11.3369 19.5187 11.3474C19.2698 11.4448 19.0132 11.4869 18.7462 11.4553ZM19.148 10.2897C18.9898 10.3739 18.5803 10.4239 18.3807 10.3818C18.4221 10.0319 18.7877 9.75826 19.0961 9.83456C19.1998 9.86087 19.275 9.91612 19.2931 10.0293C19.3113 10.1398 19.2568 10.2318 19.148 10.2897ZM20.8952 10.9633C20.8718 11.2212 21.0533 11.4185 21.3307 11.4553C21.5899 11.4869 21.8387 11.4474 22.0824 11.358C22.1049 11.3494 22.1265 11.3409 22.1504 11.3315L22.1504 11.3315C22.1706 11.3235 22.1923 11.315 22.2172 11.3053C22.2223 11.361 22.2279 11.4156 22.2334 11.4694L22.2334 11.4696L22.2334 11.4697C22.2449 11.5811 22.256 11.6892 22.2613 11.7973C22.2639 11.8289 22.2276 11.8789 22.1991 11.8921C21.7584 12.0762 21.3047 12.1394 20.8407 12.0105C20.4234 11.8947 20.2056 11.5869 20.1538 11.1659C20.089 10.6265 20.2264 10.1398 20.5971 9.73988C20.9963 9.31102 21.4862 9.15842 22.0513 9.31628C22.3961 9.41363 22.5801 9.66621 22.6008 10.0214C22.6216 10.3687 22.4661 10.6292 22.142 10.7818C21.8154 10.9344 21.468 10.958 21.1155 10.9659C21.0455 10.9633 20.9729 10.9633 20.8952 10.9633ZM21.1094 10.3952L21.1095 10.3952C21.2245 10.3894 21.3353 10.3838 21.4447 10.3687C21.5484 10.3555 21.6521 10.324 21.7454 10.2792C21.8465 10.2345 21.8958 10.1398 21.8802 10.024C21.8647 9.91353 21.7921 9.86091 21.691 9.8346C21.3851 9.75041 21.004 10.0346 20.9703 10.4029C21.0175 10.3999 21.0638 10.3976 21.1094 10.3952ZM22.7434 11.4553C22.7097 11.6342 22.6786 11.8105 22.6449 12.0052C22.6968 12.0052 22.748 12.0053 22.7986 12.0054C22.998 12.0058 23.1883 12.0062 23.3785 11.9999C23.3966 11.9999 23.4251 11.9499 23.4303 11.9184C23.4568 11.787 23.4813 11.6549 23.5058 11.5229C23.551 11.2795 23.5961 11.0363 23.6533 10.7975C23.7803 10.2661 23.9954 10.0819 24.5061 10.0135C24.5268 10.0109 24.5605 9.98717 24.5657 9.96876C24.5983 9.81753 24.6274 9.66515 24.6576 9.50708C24.6732 9.42589 24.689 9.34319 24.7057 9.25838C24.2132 9.20575 23.9384 9.49517 23.6999 9.85036L23.7037 9.79935C23.7154 9.64214 23.7274 9.48217 23.7414 9.31363C23.6875 9.31363 23.6346 9.31346 23.5825 9.31329C23.4289 9.3128 23.2819 9.31233 23.1348 9.31626C23.1141 9.31889 23.0752 9.36625 23.0726 9.39519C23.0173 10.0714 22.8864 10.7328 22.7556 11.3938L22.7434 11.4553Z" fill="#222222"/>
<path fill-rule="evenodd" clip-rule="evenodd" d="M15.8802 6.14742C15.854 6.14039 15.8277 6.13336 15.8015 6.12744C15.7211 6.12744 15.6408 6.12744 15.5552 6.13007C15.526 6.136 15.4968 6.14247 15.4673 6.14899C15.4315 6.15693 15.3952 6.16494 15.3582 6.17217C14.9616 6.24847 14.5883 6.38791 14.228 6.57209C13.4477 6.97201 12.7478 7.49032 12.1205 8.10335C11.7032 8.50853 11.2988 8.93213 10.9074 9.36625C10.2204 10.1293 9.63199 10.9686 9.1628 11.8894C8.92172 12.3656 8.70398 12.8524 8.60547 13.3812C8.58733 13.4786 8.61843 13.5917 8.64954 13.689C8.6625 13.7285 8.73508 13.7575 8.78434 13.7732C8.7973 13.7785 8.83618 13.7127 8.85433 13.6759C8.86077 13.6616 8.86737 13.647 8.8741 13.6321C8.98668 13.3825 9.13891 13.045 9.27099 12.8216C9.55095 12.348 9.77197 11.9815 10.0856 11.5316C10.5885 10.8081 11.1761 10.0982 11.7931 9.47197C12.3763 8.87999 12.9604 8.35067 13.694 7.95075C14.031 7.76921 14.3758 7.5903 14.7283 7.44296C15.3375 7.18775 15.9726 7.0141 16.6258 6.91675C16.6958 6.90623 16.7891 6.85098 16.8125 6.79309C16.8332 6.74047 16.7839 6.64049 16.7347 6.5905C16.5351 6.38265 16.3018 6.22479 16.0115 6.17743C15.9677 6.17085 15.924 6.15914 15.8802 6.14742ZM9.94566 9.73723C10.0701 9.39519 10.1323 9.04 10.1401 8.67166C10.1366 8.63219 10.1337 8.59273 10.1309 8.55326C10.1251 8.47433 10.1193 8.3954 10.109 8.31646C10.039 7.70606 9.77976 7.18775 9.36759 6.7431C9.31834 6.69311 9.25094 6.65365 9.18354 6.62997C9.11615 6.60366 9.07208 6.64312 9.07726 6.72205C9.07739 6.72372 9.07752 6.72539 9.07764 6.72706C9.0827 6.79392 9.08795 6.86317 9.10059 6.92991C9.11881 7.03505 9.13689 7.14031 9.15499 7.24565C9.21933 7.62006 9.28382 7.99537 9.35463 8.36909C9.42462 8.74532 9.50239 9.11893 9.58534 9.48991C9.61385 9.60831 9.66051 9.7267 9.71754 9.83721C9.76161 9.9214 9.82382 9.91351 9.88085 9.83721C9.90677 9.80563 9.9327 9.77406 9.94566 9.73723Z" fill="#FC461E"/>
<rect x="0.5" y="0.5" width="27" height="19" rx="3.5" stroke="#EEF2F6"/>
</svg>
