<svg width="46" height="32" viewBox="0 0 46 32" fill="none" xmlns="http://www.w3.org/2000/svg">
<rect x="0.5" y="0.5" width="45" height="31" rx="5.5" fill="white"/>
<path d="M39.0074 13.9658C39.5556 13.9658 40.0001 13.5213 40.0001 12.9731C40.0001 12.4248 39.5556 11.9803 39.0074 11.9803C38.4591 11.9803 38.0146 12.4248 38.0146 12.9731C38.0146 13.5213 38.4591 13.9658 39.0074 13.9658Z" fill="#7887E6"/>
<path d="M39.0074 17.0736C39.5556 17.0736 40.0001 16.6291 40.0001 16.0808C40.0001 15.5326 39.5556 15.0881 39.0074 15.0881C38.4591 15.0881 38.0146 15.5326 38.0146 16.0808C38.0146 16.6291 38.4591 17.0736 39.0074 17.0736Z" fill="#FF5073"/>
<path fill-rule="evenodd" clip-rule="evenodd" d="M7.86089 14.5551H6.89768V16.9597H5.3335V10.3777H7.86089C9.36814 10.3777 10.0837 11.2552 10.0837 12.4187C10.0837 13.7634 9.1294 14.5551 7.86089 14.5551ZM7.62627 11.5221H6.89768V13.4101H7.68938C8.23685 13.4101 8.59702 13.0478 8.56478 12.3961C8.54008 11.9028 8.12022 11.5221 7.62627 11.5221ZM14.3989 16.959H12.8725H12.8718V16.7429C12.5672 16.9343 12.1686 17.0729 11.8016 17.0729C10.8713 17.0729 10.164 16.3717 10.164 15.5368C10.164 14.682 10.7691 13.7565 12.8725 13.9061V13.5816C12.8725 13.2097 12.5576 13.0856 12.2049 13.0856C11.7089 13.0856 11.1272 13.3051 10.8507 13.4293L10.4308 12.5614C10.8884 12.2753 11.6328 11.9797 12.5768 11.9797C13.7026 11.9797 14.3989 12.4757 14.3989 13.5727V16.959ZM11.689 15.5094C11.689 15.862 11.947 16.0815 12.3284 16.0815C12.5672 16.0815 12.7867 15.9958 12.9287 15.8908V14.87C12.0046 14.717 11.689 15.1087 11.689 15.5094ZM29.5825 12.0942V11.8939C29.5825 10.74 30.2308 9.98669 31.4616 9.98669C31.7388 9.98669 31.9768 10.0251 32.1868 10.0821V11.1688C32.0633 11.131 31.8822 11.1022 31.7388 11.1022C31.2709 11.1022 31.0994 11.4075 31.0994 11.837V12.0942H32.1483V13.1343H31.0994V16.959H29.5825V13.1343H28.7716V12.0942H29.5825ZM24.3665 12.5621C24.8241 12.276 25.5685 11.9803 26.5125 11.9803C27.6383 11.9803 28.3346 12.4764 28.3339 13.5727V16.959H26.8075V16.7436C26.5029 16.935 26.1043 17.0736 25.7372 17.0736C24.807 17.0736 24.0996 16.3724 24.0996 15.5375C24.0996 14.6827 24.7047 13.7572 26.8082 13.9068V13.5823C26.8082 13.2104 26.4933 13.0863 26.1406 13.0863C25.6446 13.0863 25.0628 13.3058 24.7864 13.43L24.3665 12.5621ZM26.2072 16.0815C26.4459 16.0815 26.6648 15.9958 26.8082 15.8908H26.8075V14.87C25.8834 14.717 25.5678 15.1087 25.5678 15.5094C25.5678 15.862 25.8257 16.0815 26.2072 16.0815ZM19.8256 12.0949L17.3606 18.3242H15.9082L16.5504 16.7305L14.4929 12.0949H16.055L17.2597 15.0017L18.3094 12.0949H19.8256ZM37.0227 14.4522V14.8322V14.8336H33.86C33.8841 15.0833 33.9479 15.2871 34.0439 15.449C34.0442 15.4493 34.0444 15.4497 34.0446 15.45C34.0448 15.4504 34.0449 15.4507 34.0453 15.4511C34.0611 15.4764 34.0775 15.5011 34.0947 15.5245C34.105 15.5389 34.1152 15.5519 34.1262 15.5656C34.1283 15.5682 34.1305 15.5708 34.1326 15.5734C34.1374 15.5793 34.1423 15.5853 34.1475 15.591C34.166 15.613 34.1859 15.6342 34.2065 15.6541L34.2086 15.6562C34.2593 15.7049 34.3163 15.7488 34.3794 15.7872C34.3807 15.7879 34.3814 15.7879 34.3821 15.7886C34.4102 15.8057 34.4404 15.8215 34.4713 15.8366C34.4775 15.8394 34.483 15.8421 34.4885 15.8449C34.507 15.8538 34.5269 15.862 34.5468 15.8696C34.5646 15.8764 34.5824 15.8826 34.6003 15.8888C34.6133 15.8929 34.627 15.897 34.6408 15.9011C34.6661 15.908 34.6915 15.9148 34.7176 15.921C34.7228 15.9222 34.7281 15.9232 34.7333 15.9242C34.737 15.9249 34.7407 15.9256 34.7444 15.9265C34.7697 15.932 34.7951 15.9361 34.8212 15.9402L34.8242 15.9408C34.8306 15.9419 34.8366 15.943 34.8431 15.9436C34.8754 15.9478 34.9083 15.9512 34.9412 15.9532C34.9495 15.9539 34.957 15.9539 34.9653 15.9546C35.0002 15.9567 35.0352 15.9581 35.0716 15.9581C35.486 15.9581 35.9484 15.8414 36.4046 15.5828L36.8299 16.5282C36.1569 16.9947 35.2836 17.0742 34.8425 17.0742C33.2591 17.0742 32.267 16.0911 32.267 14.5558C32.267 13.0581 33.3167 11.9803 34.6709 11.9803C36.0252 11.9803 37.0227 13.0259 37.0227 14.4522ZM35.4819 14.0309C35.4242 13.3826 35.0908 13.0485 34.6709 13.0485C34.2511 13.0485 33.9177 13.3819 33.86 14.0309H35.4819ZM21.4529 15.967C21.9015 15.967 22.1684 15.8332 22.1684 15.5663C22.1684 15.2812 21.8042 15.1568 21.3663 15.0073C20.7064 14.782 19.8793 14.4997 19.8798 13.524C19.8798 12.4942 20.795 11.979 21.9304 11.979C22.5505 11.979 23.1611 12.1697 23.5618 12.37L23.1323 13.3717C22.827 13.2386 22.4072 13.0952 22.0065 13.0952C21.6251 13.0952 21.3959 13.2379 21.3959 13.467C21.3959 13.7191 21.7361 13.8328 22.152 13.9718C22.8059 14.1904 23.6468 14.4715 23.6468 15.4511C23.6468 16.5007 22.6932 17.0729 21.5866 17.0729C20.9665 17.0729 20.2989 16.9302 19.7268 16.6249L20.2132 15.6425C20.5562 15.8147 20.9953 15.967 21.4529 15.967ZM26.9193 20.2177V19.577H26.6442V19.3972H27.405L27.4331 19.577H27.1731V20.2177H26.9193ZM28.3085 20.2177L28.2777 19.6236L28.2565 19.703L28.2565 19.7032C28.2108 19.8748 28.1653 20.046 28.1171 20.2177H27.8942L27.7336 19.6236L27.7028 20.2177H27.4757C27.5004 19.9454 27.5223 19.6703 27.5436 19.3979H27.8626L28.0081 19.9797L28.0094 19.9739C28.0556 19.781 28.1012 19.5908 28.1501 19.3979H28.4691L28.5343 20.2177H28.3085ZM5.34036 19.6387V23.2994H6.21027V21.9623H6.74607C7.45201 21.9623 7.98233 21.5219 7.98233 20.7741C7.98233 20.1265 7.58442 19.6387 6.74607 19.6387H5.34036ZM7.13918 20.8057C7.13918 21.1398 6.94297 21.3257 6.6514 21.3257H6.21095V20.2754H6.6514C6.96423 20.2754 7.13918 20.4928 7.13918 20.8057ZM9.64325 23.0291L9.69127 23.2994V23.3001H10.4658V21.4169C10.4658 20.8063 10.0789 20.5306 9.45253 20.5306C8.92701 20.5306 8.51333 20.6952 8.25881 20.8544L8.49206 21.3373C8.64574 21.2681 8.96955 21.1459 9.24534 21.1459C9.44155 21.1459 9.61649 21.2145 9.61649 21.4217V21.6022C8.48657 21.5809 8.10993 21.9678 8.10993 22.5517C8.10993 23.0929 8.5346 23.3632 8.95377 23.3632C9.29336 23.3632 9.49438 23.1938 9.64325 23.0291ZM9.54803 22.1303C9.56997 22.1328 9.59253 22.1353 9.61718 22.1373V22.7046C9.5376 22.763 9.41548 22.811 9.28307 22.811C9.07109 22.811 8.9277 22.6889 8.9277 22.4927C8.9277 22.2704 9.08686 22.1215 9.42646 22.1215C9.47065 22.1215 9.5083 22.1258 9.54801 22.1303L9.54803 22.1303ZM11.2884 24.4506L11.7343 23.2994H11.4798C11.3813 22.9897 11.2835 22.68 11.1857 22.3704L11.1856 22.3699C10.9986 21.7779 10.8116 21.1859 10.6202 20.5937H11.4798L11.9888 22.599L12.5617 20.5937H13.4055C13.161 21.3005 12.9198 22.0074 12.6792 22.7127L12.6791 22.713C12.4809 23.294 12.2831 23.8738 12.0842 24.4513H11.2884V24.4506ZM14.9389 19.6387V23.2994H17.2042V22.6683H15.8088V19.6387H14.9389ZM19.0243 23.2994L18.9762 23.0291C18.8274 23.1938 18.6264 23.3632 18.2868 23.3632C17.8676 23.3632 17.4429 23.0929 17.4429 22.5517C17.4429 21.9678 17.8196 21.5809 18.9495 21.6022V21.4217C18.9495 21.2145 18.7745 21.1459 18.5783 21.1459C18.3025 21.1459 17.9787 21.2681 17.8251 21.3373L17.5918 20.8544C17.8463 20.6952 18.26 20.5306 18.7855 20.5306C19.4119 20.5306 19.7988 20.8063 19.7988 21.4169V23.3001H19.0243V23.2994ZM18.8811 22.1303L18.881 22.1303C18.8413 22.1258 18.8037 22.1215 18.7595 22.1215C18.4199 22.1215 18.2607 22.2704 18.2607 22.4927C18.2607 22.6889 18.4041 22.811 18.6161 22.811C18.7485 22.811 18.8706 22.763 18.9502 22.7046V22.1373C18.9255 22.1353 18.903 22.1328 18.8811 22.1303ZM20.4993 22.5619C20.4993 23.2679 21.0035 23.2994 21.258 23.2994V23.3008H21.8631V22.7328H21.6299C21.444 22.7328 21.3431 22.6477 21.3431 22.3719V21.1727H21.8631V20.5944H21.3431V19.7876L20.4993 20.0791V20.5937H20.0856V21.172H20.4993V22.5619ZM24.5579 23.0978C24.3885 23.2254 23.9473 23.3633 23.5124 23.3633C22.6315 23.3633 22.0799 22.8165 22.0799 21.9623C22.0799 21.1295 22.6637 20.5299 23.417 20.5299C23.9954 20.5299 24.5682 20.8427 24.5682 21.7977V22.116H22.9663C23.0088 22.562 23.2791 22.7424 23.64 22.7424C23.911 22.7424 24.2183 22.6312 24.3192 22.5674L24.5579 23.0978ZM23.7889 21.6708C23.7889 21.3044 23.6297 21.124 23.4067 21.124C23.1735 21.124 22.9985 21.3099 22.9663 21.6708H23.7889ZM24.9133 20.5937V23.2994H25.7619V21.5487C25.9108 21.3998 26.1496 21.3099 26.3725 21.3099H26.3725C26.4254 21.3099 26.5365 21.3099 26.5845 21.3202V20.5299C26.2188 20.5299 25.895 20.7528 25.7201 21.087V20.5937H24.9133Z" fill="#2D2341"/>
<rect x="0.5" y="0.5" width="45" height="31" rx="5.5" stroke="#EEF2F6"/>
</svg>
