<svg width="58" height="40" viewBox="0 0 58 40" fill="none" xmlns="http://www.w3.org/2000/svg">
<rect x="0.5" y="0.5" width="57" height="39" rx="5.5" fill="white"/>
<path d="M48.759 17.4572C49.4443 17.4572 49.9999 16.9017 49.9999 16.2164C49.9999 15.531 49.4443 14.9755 48.759 14.9755C48.0736 14.9755 47.5181 15.531 47.5181 16.2164C47.5181 16.9017 48.0736 17.4572 48.759 17.4572Z" fill="#7887E6"/>
<path d="M48.759 21.342C49.4443 21.342 49.9998 20.7864 49.9998 20.1011C49.9998 19.4158 49.4443 18.8602 48.759 18.8602C48.0736 18.8602 47.5181 19.4158 47.5181 20.1011C47.5181 20.7864 48.0736 21.342 48.759 21.342Z" fill="#FF5073"/>
<path fill-rule="evenodd" clip-rule="evenodd" d="M9.82575 18.1939H8.62174V21.1996H6.6665V12.9722H9.82575C11.7098 12.9722 12.6042 14.069 12.6042 15.5234C12.6042 17.2043 11.4114 18.1939 9.82575 18.1939ZM9.53247 14.4026H8.62174V16.7626H9.61136C10.2957 16.7626 10.7459 16.3098 10.7056 15.4951C10.6747 14.8786 10.1499 14.4026 9.53247 14.4026ZM17.9983 21.1988H16.0902H16.0894V20.9286C15.7086 21.1679 15.2104 21.3411 14.7516 21.3411C13.5887 21.3411 12.7046 20.4647 12.7046 19.4211C12.7046 18.3525 13.4609 17.1957 16.0902 17.3826V16.977C16.0902 16.5122 15.6966 16.357 15.2558 16.357C14.6358 16.357 13.9086 16.6314 13.563 16.7866L13.0382 15.7018C13.6102 15.3442 14.5406 14.9746 15.7206 14.9746C17.1279 14.9746 17.9983 15.5946 17.9983 16.9659V21.1988ZM14.6109 19.3868C14.6109 19.8275 14.9334 20.102 15.4102 20.102C15.7086 20.102 15.983 19.9948 16.1605 19.8636V18.5875C15.0054 18.3963 14.6109 18.8859 14.6109 19.3868ZM36.9778 15.1178V14.8674C36.9778 13.425 37.7882 12.4834 39.3267 12.4834C39.6731 12.4834 39.9707 12.5314 40.2331 12.6026V13.961C40.0787 13.9138 39.8523 13.8778 39.6731 13.8778C39.0883 13.8778 38.8739 14.2594 38.8739 14.7962V15.1178H40.1851V16.4179H38.8739V21.1988H36.9778V16.4179H35.9642V15.1178H36.9778ZM30.4578 15.7027C31.0298 15.3451 31.9602 14.9755 33.1402 14.9755C34.5475 14.9755 35.4179 15.5955 35.417 16.9659V21.1988H33.509V20.9295C33.1282 21.1688 32.63 21.342 32.1712 21.342C31.0083 21.342 30.1242 20.4656 30.1242 19.4219C30.1242 18.3534 30.8806 17.1965 33.5098 17.3835V16.9779C33.5098 16.5131 33.1162 16.3579 32.6754 16.3579C32.0554 16.3579 31.3282 16.6323 30.9826 16.7875L30.4578 15.7027ZM32.7586 20.102C33.057 20.102 33.3306 19.9948 33.5098 19.8636H33.509V18.5875C32.3538 18.3963 31.9594 18.8859 31.9594 19.3868C31.9594 19.8275 32.2818 20.102 32.7586 20.102ZM24.7816 15.1187L21.7004 22.9053H19.8849L20.6876 20.9132L18.1158 15.1187H20.0684L21.5743 18.7522L22.8864 15.1187H24.7816ZM46.278 18.0653V18.5403V18.5421H42.3247C42.3547 18.8542 42.4344 19.1089 42.5545 19.3113C42.5549 19.3117 42.5552 19.3121 42.5554 19.3126C42.5556 19.313 42.5558 19.3134 42.5562 19.3139C42.576 19.3456 42.5965 19.3765 42.618 19.4056C42.6308 19.4236 42.6437 19.4399 42.6574 19.4571C42.6601 19.4603 42.6627 19.4635 42.6654 19.4668C42.6714 19.4742 42.6775 19.4817 42.684 19.4888C42.7072 19.5162 42.732 19.5428 42.7577 19.5677L42.7603 19.5703C42.8238 19.6312 42.895 19.686 42.9739 19.7341C42.9745 19.7344 42.975 19.7346 42.9755 19.7348C42.9762 19.735 42.9768 19.7352 42.9773 19.7358C43.0124 19.7572 43.0502 19.7769 43.0888 19.7958C43.0965 19.7992 43.1033 19.8027 43.1102 19.8061C43.1334 19.8172 43.1582 19.8275 43.1831 19.837C43.2054 19.8455 43.2276 19.8532 43.2499 19.8609L43.25 19.861C43.2663 19.8661 43.2834 19.8713 43.3006 19.8764C43.3323 19.885 43.364 19.8936 43.3966 19.9013C43.4022 19.9026 43.4078 19.9036 43.4134 19.9047C43.4189 19.9058 43.4245 19.9069 43.4301 19.9081C43.4618 19.915 43.4935 19.9202 43.5261 19.9253C43.5356 19.927 43.5441 19.9287 43.5536 19.9296C43.5939 19.9347 43.635 19.939 43.6762 19.9416C43.681 19.942 43.6857 19.9422 43.6903 19.9424C43.6956 19.9426 43.7008 19.9429 43.7062 19.9433C43.7499 19.9459 43.7937 19.9476 43.8391 19.9476C44.3571 19.9476 44.9351 19.8018 45.5054 19.4785L46.0371 20.6602C45.1958 21.2434 44.1041 21.3428 43.5527 21.3428C41.5735 21.3428 40.3334 20.114 40.3334 18.1947C40.3334 16.3227 41.6455 14.9755 43.3383 14.9755C45.0311 14.9755 46.278 16.2824 46.278 18.0653ZM44.352 17.5387C44.2799 16.7283 43.8631 16.3107 43.3383 16.3107C42.8135 16.3107 42.3967 16.7275 42.3247 17.5387H44.352ZM26.8157 19.9587C27.3766 19.9587 27.7102 19.7915 27.7102 19.4579C27.7102 19.1015 27.2548 18.946 26.7075 18.7592C25.8826 18.4776 24.8488 18.1246 24.8493 16.905C24.8493 15.6178 25.9933 14.9738 27.4126 14.9738C28.1878 14.9738 28.951 15.2122 29.4519 15.4626L28.915 16.7146C28.5334 16.5482 28.0086 16.369 27.5078 16.369C27.031 16.369 26.7445 16.5474 26.7445 16.8338C26.7445 17.1488 27.1698 17.291 27.6896 17.4648C28.507 17.738 29.5582 18.0894 29.5582 19.3139C29.5582 20.6259 28.3662 21.3411 26.9829 21.3411C26.2077 21.3411 25.3733 21.1628 24.6581 20.7811L25.2661 19.5531C25.6949 19.7684 26.2437 19.9587 26.8157 19.9587ZM33.6488 25.2722V24.4712H33.3049V24.2466H34.2559L34.2911 24.4712H33.966V25.2722H33.6488ZM35.3853 25.2722L35.3467 24.5295L35.3201 24.6294C35.2631 24.8437 35.2062 25.0576 35.1461 25.2722H34.8673L34.6667 24.5295L34.6281 25.2722H34.3442C34.3751 24.9317 34.4025 24.5879 34.4291 24.2474H34.8279L35.0097 24.9746L35.0116 24.9669C35.0692 24.726 35.1261 24.4884 35.1872 24.2474H35.586L35.6674 25.2722H35.3853ZM6.67508 24.5484V29.1243H7.76247V27.453H8.43222C9.31465 27.453 9.97754 26.9024 9.97754 25.9677C9.97754 25.1581 9.48016 24.5484 8.43222 24.5484H6.67508ZM8.9236 26.0071C8.9236 26.4247 8.67834 26.6571 8.31388 26.6571H7.76333V25.3442H8.31388C8.70492 25.3442 8.9236 25.6161 8.9236 26.0071ZM12.0537 28.7865L12.1137 29.1243V29.1252H13.0819V26.7712C13.0819 26.008 12.5982 25.6632 11.8153 25.6632C11.1584 25.6632 10.6413 25.869 10.3231 26.068L10.6147 26.6717C10.8068 26.5851 11.2116 26.4325 11.5563 26.4325C11.8016 26.4325 12.0202 26.5182 12.0202 26.7772V27.0027C10.6078 26.9761 10.137 27.4598 10.137 28.1896C10.137 28.8662 10.6679 29.2041 11.1918 29.2041C11.6163 29.2041 11.8676 28.9923 12.0537 28.7865ZM11.9347 27.6629C11.9621 27.666 11.9903 27.6692 12.0211 27.6716V28.3808C11.9216 28.4537 11.769 28.5138 11.6035 28.5138C11.3385 28.5138 11.1593 28.3611 11.1593 28.1158C11.1593 27.838 11.3582 27.6519 11.7827 27.6519C11.838 27.6519 11.885 27.6572 11.9347 27.6629ZM14.1101 30.5633L14.6675 29.1243H14.3494C14.2262 28.737 14.1039 28.3497 13.9816 27.9625L13.9816 27.9624L13.9816 27.9623L13.9816 27.9623L13.9815 27.9622L13.9815 27.9622L13.9815 27.9622L13.9815 27.9621L13.9815 27.962C13.7477 27.2221 13.5141 26.4823 13.2749 25.7421H14.3494L14.9857 28.2488L15.7018 25.7421H16.7565C16.4509 26.6256 16.1495 27.5093 15.8487 28.3908L15.8485 28.3914L15.8485 28.3916L15.8482 28.3922L15.8479 28.3931C15.6004 29.1187 15.3533 29.8429 15.1049 30.5642H14.1101V30.5633ZM18.6732 24.5484V29.1243H21.5049V28.3354H19.7606V24.5484H18.6732ZM23.78 29.1243L23.7199 28.7865C23.5338 28.9923 23.2826 29.2041 22.8581 29.2041C22.3341 29.2041 21.8033 28.8662 21.8033 28.1896C21.8033 27.4598 22.2741 26.9761 23.6865 27.0027V26.7772C23.6865 26.5182 23.4678 26.4325 23.2226 26.4325C22.8778 26.4325 22.473 26.5851 22.281 26.6717L21.9894 26.068C22.3075 25.869 22.8246 25.6632 23.4815 25.6632C24.2645 25.6632 24.7481 26.008 24.7481 26.7712V29.1252H23.78V29.1243ZM23.6873 27.6716C23.6565 27.6692 23.6283 27.666 23.6009 27.6629C23.5513 27.6572 23.5042 27.6519 23.4489 27.6519C23.0245 27.6519 22.8255 27.838 22.8255 28.1158C22.8255 28.3611 23.0047 28.5138 23.2697 28.5138C23.4352 28.5138 23.5879 28.4537 23.6873 28.3808V27.6716ZM25.6237 28.2025C25.6237 29.0849 26.254 29.1243 26.5722 29.1243V29.126H27.3285V28.416H27.037C26.8046 28.416 26.6785 28.3096 26.6785 27.9649V26.4659H27.3285V25.743H26.6785V24.7345L25.6237 25.0989V25.7421H25.1066V26.465H25.6237V28.2025ZM30.697 28.8722C30.4852 29.0317 29.9338 29.2041 29.3901 29.2041C28.289 29.2041 27.5995 28.5206 27.5995 27.453C27.5995 26.4119 28.3293 25.6624 29.2709 25.6624C29.9938 25.6624 30.7099 26.0534 30.7099 27.2472V27.6451H28.7075C28.7607 28.2025 29.0985 28.428 29.5496 28.428C29.8884 28.428 30.2725 28.2891 30.3986 28.2093L30.697 28.8722ZM29.7357 27.0885C29.7357 26.6306 29.5368 26.405 29.258 26.405C28.9665 26.405 28.7478 26.6374 28.7075 27.0885H29.7357ZM31.1413 25.7421V29.1243H32.2021V26.9359C32.3881 26.7498 32.6866 26.6374 32.9653 26.6374C33.0313 26.6374 33.1702 26.6374 33.2303 26.6503V25.6624C32.7732 25.6624 32.3684 25.9411 32.1497 26.3587V25.7421H31.1413Z" fill="#2D2341"/>
<rect x="0.5" y="0.5" width="57" height="39" rx="5.5" stroke="#EEF2F6"/>
</svg>
