<svg width="34" height="24" viewBox="0 0 34 24" fill="none" xmlns="http://www.w3.org/2000/svg">
<rect x="0.5" y="0.5" width="33" height="23" rx="3.5" fill="white"/>
<path fill-rule="evenodd" clip-rule="evenodd" d="M9.71436 11.5673C9.71436 15.4393 12.7819 18.5971 16.5798 18.5971C17.0459 18.5971 17.5121 18.5551 18.0477 18.5068C18.645 18.453 19.3287 18.3914 20.1951 18.3715C21.5097 18.3715 22.9339 18.8602 24.5042 20.2887C24.6503 20.4391 24.8694 20.2512 24.7233 20.0632C23.153 18.0708 21.7288 17.6949 20.3046 17.3565C18.5518 16.943 17.6388 15.9656 17.018 14.8379C16.9084 14.6123 16.8354 14.6499 16.8354 14.9506C16.7989 15.4018 16.8354 15.8153 16.9084 16.2288H16.6893C14.2061 16.2288 12.1611 14.1236 12.1611 11.5673C12.1611 9.01107 14.2061 6.9059 16.6893 6.9059C19.1726 6.9059 21.2176 9.01107 21.2176 11.5673C21.2176 11.7177 21.2176 11.9057 21.1811 12.0936C20.8159 12.0184 20.1951 12.0184 19.7203 12.056C19.5377 12.056 19.5377 12.1312 19.6838 12.1688C21.1445 12.4696 22.1671 13.4094 22.4227 15.1386C22.4227 15.2138 22.4592 15.2138 22.4957 15.1762C23.08 14.1236 23.4452 12.8831 23.4452 11.5673C23.4452 7.65775 20.3777 4.5 16.5798 4.5C12.7819 4.5 9.71436 7.69534 9.71436 11.5673ZM21.5462 14.462C21.8018 14.5747 21.9114 14.9507 21.9114 15.1386C21.9479 15.4394 21.8749 15.5897 21.7653 15.5897C21.6558 15.5897 21.5097 15.4769 21.3636 15.2138C21.2175 14.9507 21.1445 14.6875 21.2175 14.5371C21.3271 14.462 21.4366 14.4244 21.5462 14.462ZM20.049 15.6273C20.195 15.6273 20.3776 15.7025 20.5602 15.8529C20.8524 16.116 20.9619 16.4168 20.8158 16.6423C20.7428 16.7551 20.5602 16.8303 20.4141 16.8303C20.2316 16.8303 20.049 16.7551 19.9394 16.6423C19.6473 16.3792 19.5742 16.0032 19.7568 15.7777C19.7933 15.7025 19.9029 15.6273 20.049 15.6273Z" fill="#F28A1A"/>
<rect x="0.5" y="0.5" width="33" height="23" rx="3.5" stroke="#EEF2F6"/>
</svg>
