<svg width="28" height="20" viewBox="0 0 28 20" fill="none" xmlns="http://www.w3.org/2000/svg">
<rect x="0.5" y="0.5" width="27" height="19" rx="3.5" fill="white"/>
<path fill-rule="evenodd" clip-rule="evenodd" d="M8 9.63945C8 12.8661 10.5262 15.4976 13.6539 15.4976C14.0378 15.4976 14.4216 15.4626 14.8627 15.4223C15.3546 15.3775 15.9177 15.3261 16.6312 15.3096C17.7138 15.3096 18.8867 15.7169 20.1799 16.9073C20.3002 17.0326 20.4806 16.876 20.3603 16.7193C19.0672 15.059 17.8943 14.7457 16.7214 14.4638C15.2779 14.1192 14.526 13.3047 14.0148 12.3649C13.9245 12.1769 13.8644 12.2083 13.8644 12.4589C13.8343 12.8348 13.8644 13.1794 13.9245 13.524H13.7441C11.6991 13.524 10.0149 11.7697 10.0149 9.63945C10.0149 7.50922 11.6991 5.75492 13.7441 5.75492C15.7891 5.75492 17.4732 7.50922 17.4732 9.63945C17.4732 9.76476 17.4732 9.92139 17.4432 10.078C17.1424 10.0154 16.6312 10.0154 16.2402 10.0467C16.0898 10.0467 16.0898 10.1094 16.2101 10.1407C17.4131 10.3913 18.2552 11.1745 18.4657 12.6155C18.4657 12.6782 18.4958 12.6782 18.5258 12.6468C19.007 11.7697 19.3077 10.7359 19.3077 9.63945C19.3077 6.38146 16.7815 3.75 13.6539 3.75C10.5262 3.75 8 6.41278 8 9.63945ZM17.7439 12.0516C17.9544 12.1456 18.0446 12.4589 18.0446 12.6155C18.0747 12.8661 18.0145 12.9914 17.9243 12.9914C17.8341 12.9914 17.7138 12.8975 17.5935 12.6782C17.4732 12.4589 17.4131 12.2396 17.4732 12.1143C17.5634 12.0516 17.6537 12.0203 17.7439 12.0516ZM16.5109 13.0228C16.6311 13.0228 16.7815 13.0854 16.9319 13.2107C17.1725 13.43 17.2627 13.6806 17.1424 13.8686C17.0823 13.9626 16.9319 14.0252 16.8116 14.0252C16.6612 14.0252 16.5109 13.9626 16.4206 13.8686C16.18 13.6493 16.1199 13.336 16.2703 13.1481C16.3003 13.0854 16.3906 13.0228 16.5109 13.0228Z" fill="#F28A1A"/>
<rect x="0.5" y="0.5" width="27" height="19" rx="3.5" stroke="#EEF2F6"/>
</svg>
