<svg width="46" height="32" viewBox="0 0 46 32" fill="none" xmlns="http://www.w3.org/2000/svg">
<rect x="0.5" y="0.5" width="45" height="31" rx="5.5" fill="white"/>
<path fill-rule="evenodd" clip-rule="evenodd" d="M25.7889 15.3173H27.2731C27.7437 15.2998 28.03 15.2625 28.133 15.2041C28.2737 15.1243 28.3681 14.9646 28.4151 14.725C28.4452 14.5656 28.4602 14.3285 28.4602 14.0136C28.4602 13.6278 28.4304 13.3418 28.3704 13.155C28.2847 12.8934 28.0796 12.7341 27.7548 12.6762C27.6906 12.6675 27.5368 12.6628 27.2932 12.6628H25.7889V15.3173ZM23.408 19.7885V10.6667H27.8437C28.4521 10.6667 28.9163 10.7179 29.2353 10.8203C29.9648 11.056 30.4543 11.5386 30.705 12.268C30.8345 12.6508 30.8992 13.2271 30.8992 13.9967C30.8992 14.9219 30.8274 15.5869 30.6854 15.9917C30.4009 16.7923 29.8152 17.2534 28.9309 17.3729C28.8269 17.3909 28.3844 17.4069 27.6035 17.4197L27.2082 17.4334H25.7888V19.7885H23.408ZM11.4532 13.5765H13.668C13.6823 13.375 13.6895 13.2242 13.6895 13.1234C13.6895 11.8943 13.2076 11.1463 12.2438 10.8792C11.8489 10.77 11.1864 10.7149 10.2568 10.7149C9.66628 10.7149 9.12946 10.7372 8.64555 10.7806C8.06399 10.8289 7.5862 10.9904 7.21283 11.2654C6.95794 11.4445 6.77324 11.7065 6.65863 12.0515C6.54412 12.3965 6.48681 12.8551 6.48681 13.427C6.48681 14.1779 6.59284 14.7393 6.8048 15.1104C7.04595 15.5471 7.52921 15.8347 8.25437 15.9746C8.52976 16.0232 9.0215 16.0733 9.72938 16.1254C10.6109 16.1866 11.1048 16.2349 11.2109 16.2695C11.4948 16.3571 11.637 16.6015 11.637 17.0031C11.637 17.1824 11.6202 17.3289 11.5862 17.4421C11.5224 17.626 11.3888 17.7589 11.1852 17.8415C11.0708 17.8855 10.8056 17.9075 10.39 17.9075H9.57581C9.35902 17.9026 9.17464 17.8615 9.02193 17.7833C8.8016 17.6699 8.69117 17.4151 8.69117 17.019L8.69095 16.8294H6.47607C6.47607 17.5716 6.52877 18.1018 6.63523 18.4202C6.82637 18.9921 7.22131 19.3719 7.82037 19.5593C8.30846 19.7124 9.17293 19.7885 10.4133 19.7885C11.1564 19.7885 11.7089 19.7534 12.07 19.6833C12.932 19.5174 13.486 19.1224 13.7326 18.4971C13.8687 18.1562 13.9367 17.6184 13.9367 16.884C13.9367 16.5654 13.9219 16.2787 13.892 16.0253C13.841 15.6016 13.6812 15.2586 13.4133 14.9961C13.0727 14.6597 12.5239 14.4521 11.7669 14.3734C11.5284 14.3471 10.9305 14.301 9.97321 14.2355L9.52655 14.2029C9.33047 14.1899 9.17325 14.1462 9.05423 14.0718C8.8881 13.967 8.80525 13.7483 8.80525 13.4162C8.80525 13.0494 8.89883 12.8111 9.08578 12.7016C9.27284 12.5923 9.65619 12.5378 10.2344 12.5378C10.8298 12.5378 11.1937 12.6326 11.3255 12.8221C11.4104 12.9501 11.4532 13.2017 11.4532 13.5765ZM6.48447 21.5976L6.81652 21.563C6.83649 21.6785 6.87705 21.7631 6.93812 21.8173C6.99929 21.8715 7.08171 21.8985 7.18549 21.8985C7.29539 21.8985 7.37813 21.8744 7.43394 21.8264C7.48964 21.7783 7.51743 21.7221 7.51743 21.6577C7.51743 21.6164 7.50573 21.5813 7.48245 21.5522C7.45905 21.5232 7.41827 21.4981 7.35999 21.4765C7.32007 21.4624 7.22928 21.4372 7.08751 21.4009C6.90496 21.3544 6.77703 21.2971 6.70341 21.229C6.59995 21.1334 6.54822 21.0168 6.54822 20.8791C6.54822 20.7907 6.57258 20.7078 6.62142 20.6308C6.67014 20.5537 6.74054 20.4949 6.8323 20.4546C6.92417 20.4143 7.03503 20.3941 7.16489 20.3941C7.37695 20.3941 7.53654 20.4422 7.64375 20.5383C7.75096 20.6344 7.8072 20.7627 7.81256 20.9232L7.47053 20.937C7.45594 20.8474 7.4246 20.783 7.37652 20.7436C7.32855 20.7043 7.25654 20.6846 7.16049 20.6846C7.06132 20.6846 6.98384 20.7056 6.92771 20.7477C6.89154 20.7745 6.87351 20.8106 6.87351 20.8558C6.87351 20.8971 6.89047 20.9322 6.92427 20.9617C6.9672 20.9989 7.07162 21.0377 7.23754 21.0779C7.40335 21.1182 7.52602 21.1599 7.60554 21.2033C7.68496 21.2465 7.74721 21.3057 7.79217 21.3808C7.83703 21.456 7.85957 21.5488 7.85957 21.6592C7.85957 21.7595 7.83263 21.8532 7.77876 21.9406C7.72488 22.028 7.64879 22.093 7.55038 22.1355C7.45197 22.178 7.3293 22.1994 7.18238 22.1994C6.9686 22.1994 6.8044 22.1481 6.68978 22.0456C6.57527 21.9432 6.5068 21.7939 6.48447 21.5976ZM8.21416 20.9059H8.53945V22.1682H8.21416V20.9059ZM8.21416 20.4252H8.53945V20.7331H8.21416V20.4252ZM9.73239 22.1682H10.0577V21.3821C10.0577 21.2845 10.0517 21.2095 10.0398 21.1571C10.0278 21.1047 10.0067 21.0579 9.97633 21.0166C9.94596 20.9753 9.9012 20.9413 9.84207 20.9148C9.78294 20.8882 9.71758 20.8748 9.6461 20.8748C9.48405 20.8748 9.34947 20.947 9.24269 21.0914V20.9059H8.9409V22.1682H9.26619V21.5952C9.26619 21.4538 9.27435 21.357 9.29087 21.3046C9.30729 21.2522 9.33766 21.2101 9.3821 21.1784C9.42653 21.1466 9.47664 21.1307 9.53256 21.1307C9.57613 21.1307 9.61348 21.1419 9.64449 21.164C9.67551 21.1862 9.69783 21.2175 9.71168 21.2576C9.72541 21.2977 9.73239 21.386 9.73239 21.5225V22.1682ZM10.7155 21.5098C10.7155 21.6442 10.7404 21.7425 10.7905 21.8049C10.8404 21.8674 10.902 21.8985 10.9753 21.8985C11.0537 21.8985 11.12 21.8665 11.1742 21.8025C11.2283 21.7386 11.2555 21.6437 11.2555 21.5181C11.2555 21.3871 11.2295 21.2897 11.1777 21.2261C11.1257 21.1626 11.0603 21.1307 10.9809 21.1307C10.9039 21.1307 10.8404 21.162 10.7905 21.2243C10.7404 21.2868 10.7155 21.3819 10.7155 21.5098ZM10.4238 22.2512L10.7927 22.2927C10.7989 22.3397 10.8132 22.372 10.8355 22.3897C10.8664 22.4149 10.915 22.4276 10.9813 22.4276C11.0662 22.4276 11.1299 22.4145 11.1724 22.3884C11.2008 22.3709 11.2225 22.3428 11.2372 22.3039C11.2472 22.2761 11.2522 22.225 11.2522 22.1505L11.2532 21.9662C11.1572 22.1009 11.0355 22.1682 10.8878 22.1682C10.7231 22.1682 10.5928 22.0964 10.4967 21.9527C10.4212 21.8392 10.3836 21.6977 10.3836 21.5286C10.3836 21.3166 10.4329 21.1547 10.5318 21.0427C10.6306 20.9308 10.7536 20.8748 10.9005 20.8748C11.052 20.8748 11.1771 20.9435 11.2756 21.0808V20.9059H11.5775V22.0406C11.5775 22.1898 11.5656 22.3014 11.5416 22.3751C11.5178 22.449 11.4843 22.5069 11.4412 22.549C11.398 22.591 11.3405 22.624 11.2685 22.6478C11.1965 22.6716 11.1055 22.6835 10.9955 22.6835C10.7876 22.6835 10.6402 22.6466 10.5531 22.5727C10.4661 22.4989 10.4226 22.4053 10.4226 22.2919C10.4226 22.2807 10.423 22.2672 10.4238 22.2512ZM12.2923 20.4252H11.967V22.1682H12.2923V20.4252ZM13.4249 21.4316C13.4226 21.3333 13.3983 21.2587 13.3518 21.2075C13.3054 21.1564 13.249 21.1307 13.1824 21.1307C13.1113 21.1307 13.0525 21.1578 13.0061 21.2117C12.9596 21.2656 12.9369 21.339 12.9376 21.4316H13.4249ZM13.4081 21.7705L13.7301 21.8259C13.6885 21.9475 13.6227 22.0402 13.5329 22.1039C13.443 22.1676 13.3306 22.1994 13.1957 22.1994C12.982 22.1994 12.8239 22.1273 12.7214 21.9833C12.6404 21.868 12.5999 21.7225 12.5999 21.5466C12.5999 21.3367 12.653 21.1722 12.7595 21.0532C12.8659 20.9342 13.0003 20.8748 13.1629 20.8748C13.3457 20.8748 13.4898 20.9372 13.5954 21.062C13.701 21.1869 13.7515 21.378 13.7468 21.6356H12.932C12.9342 21.735 12.9606 21.8123 13.0111 21.8676C13.0615 21.9227 13.1244 21.9504 13.1997 21.9504C13.2509 21.9504 13.2941 21.9362 13.3289 21.9078C13.3638 21.8794 13.3903 21.8336 13.4081 21.7705ZM14.8112 20.4252V22.1682H16.0957V21.8742H15.1533V21.4005H15.9985V21.1066H15.1533V20.7192H16.0622V20.4252H14.8112ZM17.2584 22.1681V21.9791C17.2137 22.0465 17.155 22.1001 17.0821 22.1398C17.0092 22.1794 16.9324 22.1993 16.8515 22.1993C16.7689 22.1993 16.6951 22.1806 16.6295 22.1433C16.5641 22.1061 16.5166 22.0536 16.4873 21.9862C16.458 21.9187 16.4434 21.8254 16.4434 21.7063V20.9059H16.7687V21.4864C16.7687 21.6642 16.7746 21.7731 16.7867 21.813C16.7986 21.8533 16.8202 21.8849 16.8518 21.9084C16.8834 21.9318 16.9233 21.9434 16.9718 21.9434C17.0272 21.9434 17.0769 21.9279 17.1206 21.8965C17.1645 21.8651 17.1945 21.8263 17.2107 21.7798C17.2268 21.7334 17.2349 21.6198 17.2349 21.439V20.9059H17.5602V22.1681H17.2584ZM17.9498 22.1682H18.2751V21.7778C18.2751 21.5629 18.2842 21.4216 18.3023 21.3542C18.3205 21.2868 18.3454 21.2402 18.377 21.2143C18.4087 21.1887 18.4472 21.1757 18.4928 21.1757C18.5398 21.1757 18.5909 21.194 18.6457 21.2304L18.7446 20.9381C18.6761 20.896 18.6049 20.8748 18.531 20.8748C18.4787 20.8748 18.432 20.8888 18.3908 20.9165C18.3496 20.9444 18.3032 21.0006 18.2516 21.0854V20.9059H17.9498V22.1682ZM19.2078 21.5371C19.2078 21.6629 19.2367 21.7591 19.2946 21.8259C19.3524 21.8927 19.4237 21.9262 19.5086 21.9262C19.5933 21.9262 19.6645 21.8927 19.7219 21.8259C19.7793 21.7591 19.8081 21.662 19.8081 21.5347C19.8081 21.4107 19.7793 21.3151 19.7219 21.2483C19.6645 21.1815 19.5933 21.1481 19.5086 21.1481C19.4237 21.1481 19.3524 21.1815 19.2946 21.2483C19.2367 21.3151 19.2078 21.4115 19.2078 21.5371ZM18.8758 21.5191C18.8758 21.4078 18.9023 21.3 18.9554 21.1957C19.0085 21.0916 19.0836 21.012 19.1809 20.9572C19.2782 20.9023 19.3869 20.8748 19.5069 20.8748C19.6922 20.8748 19.8441 20.937 19.9625 21.0615C20.0809 21.186 20.1402 21.3434 20.1402 21.5335C20.1402 21.7252 20.0803 21.8842 19.9607 22.0102C19.8412 22.1363 19.6906 22.1994 19.5091 22.1994C19.3969 22.1994 19.2897 22.173 19.1879 22.1207C19.0859 22.0681 19.0085 21.9912 18.9554 21.8897C18.9023 21.7882 18.8758 21.6649 18.8758 21.5191ZM21.5414 21.2172V20.7192H21.7058C21.8286 20.7192 21.9102 20.7232 21.9508 20.7312C22.006 20.7416 22.0516 20.7675 22.0877 20.809C22.1237 20.8505 22.1418 20.9032 22.1418 20.967C22.1418 21.0189 22.1289 21.0644 22.1032 21.1035C22.0776 21.1426 22.0421 21.1714 21.9969 21.1898C21.9516 21.2082 21.8619 21.2172 21.7277 21.2172H21.5414ZM21.1994 20.4252V22.1682H21.5414V21.5111H21.7638C21.918 21.5111 22.0359 21.5028 22.1173 21.4861C22.1772 21.4726 22.2361 21.4452 22.2941 21.4035C22.352 21.3619 22.3999 21.3045 22.4374 21.2317C22.4751 21.1586 22.4939 21.0687 22.4939 20.9617C22.4939 20.8229 22.4613 20.7097 22.3959 20.6222C22.3306 20.5345 22.2495 20.4775 22.1527 20.4514C22.0897 20.434 21.9544 20.4252 21.7469 20.4252H21.1994ZM23.5159 21.5631C23.4744 21.5774 23.4088 21.5945 23.3191 21.6144C23.2293 21.6342 23.1706 21.6538 23.1432 21.6728C23.1009 21.7039 23.08 21.7433 23.08 21.791C23.08 21.8381 23.0967 21.8786 23.1304 21.9129C23.1642 21.9471 23.2071 21.9642 23.2594 21.9642C23.3177 21.9642 23.3732 21.9443 23.4262 21.9046C23.4652 21.8742 23.491 21.8373 23.5032 21.7935C23.5116 21.7648 23.5159 21.7102 23.5159 21.6298V21.5631ZM23.08 21.2898L22.7882 21.2345C22.8212 21.1122 22.8781 21.0218 22.9588 20.963C23.0396 20.9043 23.1596 20.8748 23.3188 20.8748C23.4633 20.8748 23.5711 20.8925 23.6418 20.9277C23.7125 20.9632 23.7624 21.0081 23.7912 21.0624C23.8201 21.1167 23.8346 21.2167 23.8346 21.362L23.8312 21.7526C23.8312 21.8637 23.8364 21.9458 23.8467 21.9985C23.8571 22.0513 23.8765 22.1078 23.905 22.1682H23.583C23.5744 22.1464 23.5641 22.1139 23.5518 22.071C23.5464 22.0514 23.5425 22.0386 23.5404 22.0323C23.485 22.0879 23.4259 22.1298 23.3629 22.1576C23.2999 22.1854 23.2328 22.1994 23.1613 22.1994C23.0353 22.1994 22.936 22.1639 22.8634 22.0933C22.7909 22.0226 22.7546 21.9332 22.7546 21.8252C22.7546 21.7538 22.7711 21.6901 22.8041 21.6341C22.8372 21.5781 22.8836 21.5352 22.9432 21.5054C23.0028 21.4757 23.0888 21.4495 23.201 21.4273C23.3525 21.3979 23.4574 21.3706 23.5159 21.3451V21.3114C23.5159 21.2463 23.5005 21.2 23.4696 21.1722C23.4385 21.1445 23.3803 21.1307 23.2944 21.1307C23.2365 21.1307 23.1913 21.1425 23.1588 21.166C23.1262 21.1895 23.1 21.2308 23.08 21.2898ZM24.4135 20.9059H24.0681L24.5348 22.1717C24.5155 22.2429 24.4877 22.3017 24.4513 22.348C24.415 22.394 24.3591 22.4171 24.2832 22.4171C24.2423 22.4171 24.1961 22.412 24.1452 22.4015L24.1754 22.6632C24.2354 22.6768 24.2968 22.6835 24.3592 22.6835C24.4208 22.6835 24.476 22.6768 24.525 22.6631C24.5739 22.6497 24.6149 22.6307 24.6485 22.6065C24.682 22.5824 24.7117 22.5507 24.7375 22.5119C24.7632 22.4729 24.7904 22.4166 24.8189 22.3427L25.3291 20.9059H24.9937L24.707 21.8021L24.4135 20.9059ZM25.5827 20.9059H25.8812V21.0783C25.9884 20.9427 26.116 20.8748 26.2641 20.8748C26.3427 20.8748 26.4109 20.8914 26.4688 20.9247C26.5266 20.9581 26.574 21.0086 26.611 21.076C26.6648 21.0086 26.7231 20.9581 26.7854 20.9247C26.8478 20.8914 26.9142 20.8748 26.9851 20.8748C27.0752 20.8748 27.1514 20.8936 27.2138 20.9315C27.2761 20.969 27.3228 21.0244 27.3536 21.0976C27.3758 21.1515 27.387 21.2388 27.387 21.3595V22.1682H27.0617V21.4452C27.0617 21.3197 27.0505 21.2388 27.0283 21.2023C26.9983 21.1545 26.9522 21.1307 26.8901 21.1307C26.8447 21.1307 26.802 21.145 26.7621 21.1736C26.7221 21.2023 26.6934 21.2441 26.6758 21.2993C26.6581 21.3544 26.6492 21.4416 26.6492 21.5607V22.1682H26.3239V21.4751C26.3239 21.3518 26.3182 21.2725 26.3066 21.2367C26.2951 21.2009 26.2773 21.1744 26.253 21.1569C26.2288 21.1395 26.1961 21.1307 26.1545 21.1307C26.1046 21.1307 26.0597 21.1446 26.0197 21.1724C25.9798 21.2002 25.9513 21.2403 25.9339 21.2927C25.9166 21.3451 25.908 21.432 25.908 21.5535V22.1682H25.5827V20.9059ZM28.4344 21.2075C28.4809 21.2587 28.5052 21.3333 28.5076 21.4316H28.0203C28.0196 21.339 28.0423 21.2656 28.0888 21.2117C28.1351 21.1578 28.194 21.1307 28.265 21.1307C28.3316 21.1307 28.3881 21.1564 28.4344 21.2075ZM28.8128 21.8259L28.4908 21.7705C28.473 21.8336 28.4466 21.8794 28.4115 21.9078C28.3766 21.9362 28.3336 21.9504 28.2824 21.9504C28.207 21.9504 28.1441 21.9227 28.0937 21.8676C28.0433 21.8123 28.0169 21.735 28.0145 21.6356H28.8295C28.8341 21.378 28.7836 21.1869 28.678 21.062C28.5724 20.9372 28.4284 20.8748 28.2456 20.8748C28.0829 20.8748 27.9485 20.9342 27.8421 21.0532C27.7358 21.1722 27.6825 21.3367 27.6825 21.5466C27.6825 21.7225 27.7229 21.868 27.804 21.9833C27.9066 22.1273 28.0647 22.1994 28.2782 22.1994C28.4132 22.1994 28.5256 22.1676 28.6155 22.1039C28.7054 22.0402 28.771 21.9475 28.8128 21.8259ZM30.2772 22.1682H29.9519V21.5225C29.9519 21.386 29.9449 21.2977 29.9313 21.2576C29.9174 21.2175 29.895 21.1862 29.864 21.164C29.833 21.1419 29.7956 21.1307 29.752 21.1307C29.6962 21.1307 29.646 21.1466 29.6017 21.1784C29.5573 21.2101 29.5269 21.2522 29.5104 21.3046C29.4939 21.357 29.4857 21.4538 29.4857 21.5952V22.1682H29.1604V20.9059H29.4622V21.0914C29.5691 20.947 29.7035 20.8748 29.8656 20.8748C29.9371 20.8748 30.0025 20.8882 30.0616 20.9148C30.1207 20.9413 30.1656 20.9753 30.1959 21.0166C30.2263 21.0579 30.2473 21.1047 30.2592 21.1571C30.2713 21.2095 30.2772 21.2845 30.2772 21.3821V22.1682ZM31.237 21.1722V20.9059H31.0156V20.4564L30.6903 20.6535V20.9059H30.5427V21.1722H30.6903V21.7239C30.6903 21.8422 30.6936 21.9209 30.7006 21.9599C30.709 22.0147 30.724 22.0582 30.7458 22.0902C30.7677 22.1224 30.8019 22.1488 30.8485 22.1689C30.8952 22.1892 30.9474 22.1994 31.0057 22.1994C31.1005 22.1994 31.1854 22.1827 31.2604 22.1493L31.2319 21.8906C31.1759 21.912 31.1334 21.9227 31.1038 21.9227C31.0827 21.9227 31.0648 21.9171 31.05 21.906C31.0353 21.8948 31.0259 21.8808 31.0218 21.8636C31.0176 21.8466 31.0156 21.7862 31.0156 21.6829V21.1722H31.237ZM31.4199 21.812L31.7452 21.7601C31.759 21.8247 31.787 21.8736 31.8292 21.9071C31.8715 21.9406 31.9305 21.9572 32.0065 21.9572C32.0903 21.9572 32.1533 21.9413 32.1955 21.9094C32.2239 21.887 32.2382 21.8572 32.2382 21.8196C32.2382 21.7941 32.2304 21.7729 32.2149 21.7563C32.1986 21.7402 32.1623 21.7255 32.1059 21.7119C31.843 21.652 31.6764 21.5975 31.6062 21.5482C31.5087 21.4799 31.4601 21.3849 31.4601 21.2635C31.4601 21.1537 31.5021 21.0615 31.5863 20.9869C31.6707 20.9122 31.8013 20.8748 31.9783 20.8748C32.1468 20.8748 32.2719 20.9028 32.3539 20.9587C32.4358 21.0147 32.4922 21.0974 32.5232 21.2068L32.218 21.2656C32.2048 21.2166 32.1797 21.1788 32.1428 21.1527C32.1058 21.1265 32.0531 21.1134 31.9847 21.1134C31.8984 21.1134 31.8365 21.1257 31.7993 21.1506C31.7743 21.1681 31.7619 21.1908 31.7619 21.2187C31.7619 21.2427 31.7726 21.263 31.7943 21.2799C31.8236 21.3021 31.925 21.3336 32.0984 21.3744C32.2717 21.4151 32.3927 21.4649 32.4615 21.5239C32.5294 21.5836 32.5635 21.667 32.5635 21.7737C32.5635 21.8901 32.5165 21.9901 32.4228 22.0738C32.3289 22.1575 32.1902 22.1994 32.0065 22.1994C31.8398 22.1994 31.7078 22.1645 31.6106 22.0951C31.5134 22.0255 31.4498 21.9313 31.4199 21.812ZM34.307 20.8333L34.5433 21.4801H34.0786L34.307 20.8333ZM34.8023 22.1682H35.1706L34.4881 20.4252H34.1283L33.4736 22.1682H33.8356L33.9749 21.774H34.6561L34.8023 22.1682ZM35.7289 22.1682H35.4036V20.9059H35.7054V21.0854C35.757 21.0006 35.8033 20.9444 35.8446 20.9165C35.8857 20.8888 35.9324 20.8748 35.9849 20.8748C36.0587 20.8748 36.1299 20.896 36.1984 20.9381L36.0995 21.2304C36.0447 21.194 35.9937 21.1757 35.9467 21.1757C35.901 21.1757 35.8624 21.1887 35.8308 21.2143C35.7991 21.2402 35.7742 21.2868 35.7562 21.3542C35.7379 21.4216 35.7289 21.5629 35.7289 21.7778V22.1682ZM37.0648 21.2075C37.1112 21.2587 37.1355 21.3333 37.1379 21.4316H36.6506C36.6498 21.339 36.6726 21.2656 36.7191 21.2117C36.7655 21.1578 36.8242 21.1307 36.8954 21.1307C36.9619 21.1307 37.0183 21.1564 37.0648 21.2075ZM37.4431 21.8259L37.1211 21.7705C37.1032 21.8336 37.0768 21.8794 37.0419 21.9078C37.0069 21.9362 36.9639 21.9504 36.9126 21.9504C36.8373 21.9504 36.7745 21.9227 36.7239 21.8676C36.6736 21.8123 36.6472 21.735 36.6448 21.6356H37.4598C37.4644 21.378 37.4139 21.1869 37.3084 21.062C37.2027 20.9372 37.0585 20.8748 36.8759 20.8748C36.7133 20.8748 36.5787 20.9342 36.4725 21.0532C36.366 21.1722 36.3128 21.3367 36.3128 21.5466C36.3128 21.7225 36.3532 21.868 36.4343 21.9833C36.5367 22.1273 36.6949 22.1994 36.9086 22.1994C37.0435 22.1994 37.156 22.1676 37.2458 22.1039C37.3356 22.0402 37.4014 21.9475 37.4431 21.8259ZM38.4682 21.5631C38.4267 21.5774 38.361 21.5945 38.2713 21.6144C38.1816 21.6342 38.123 21.6538 38.0954 21.6728C38.0531 21.7039 38.0322 21.7433 38.0322 21.791C38.0322 21.8381 38.049 21.8786 38.0828 21.9129C38.1165 21.9471 38.1594 21.9642 38.2117 21.9642C38.2699 21.9642 38.3254 21.9443 38.3784 21.9046C38.4175 21.8742 38.4433 21.8373 38.4555 21.7935C38.4639 21.7648 38.4682 21.7102 38.4682 21.6298V21.5631ZM38.0322 21.2898L37.7404 21.2345C37.7734 21.1122 37.8303 21.0218 37.911 20.963C37.9918 20.9043 38.1118 20.8748 38.271 20.8748C38.4155 20.8748 38.5233 20.8925 38.594 20.9277C38.6647 20.9632 38.7146 21.0081 38.7434 21.0624C38.7723 21.1167 38.7867 21.2167 38.7867 21.362L38.7834 21.7526C38.7834 21.8637 38.7886 21.9458 38.7989 21.9985C38.8093 22.0513 38.8287 22.1078 38.857 22.1682H38.5352C38.5266 22.1464 38.5164 22.1139 38.504 22.071C38.4987 22.0514 38.4947 22.0386 38.4926 22.0323C38.4372 22.0879 38.3782 22.1298 38.3152 22.1576C38.2522 22.1854 38.185 22.1994 38.1135 22.1994C37.9875 22.1994 37.8882 22.1639 37.8156 22.0933C37.7432 22.0226 37.7069 21.9332 37.7069 21.8252C37.7069 21.7538 37.7233 21.6901 37.7564 21.6341C37.7894 21.5781 37.8358 21.5352 37.8953 21.5054C37.955 21.4757 38.041 21.4495 38.1532 21.4273C38.3047 21.3979 38.4096 21.3706 38.4681 21.3451V21.3114C38.4681 21.2463 38.4527 21.2 38.4217 21.1722C38.3908 21.1445 38.3325 21.1307 38.2466 21.1307C38.1887 21.1307 38.1435 21.1425 38.111 21.166C38.0785 21.1895 38.0521 21.2308 38.0322 21.2898ZM34.3928 12.4808L35.5083 16.4349H33.3103L34.3928 12.4808ZM32.798 18.212H35.9812L36.4354 19.7885H38.8469L36.1564 10.6667H32.565L29.9071 19.7885H32.3703L32.798 18.212Z" fill="#10298E"/>
<path fill-rule="evenodd" clip-rule="evenodd" d="M20.1221 11.95C21.104 11.95 21.9804 12.4165 22.5565 13.1471L23.0697 12.0124C22.2671 11.2301 21.1747 10.7479 19.9698 10.7479C18.0938 10.7479 16.4891 11.9162 15.8304 13.5699H14.8297L14.2388 14.8762H15.5262C15.5165 14.9974 15.5103 15.1187 15.5103 15.2424C15.5103 15.3921 15.5178 15.5401 15.5322 15.6863H14.8852L14.2944 16.993H15.8611C16.5385 18.6049 18.1232 19.7366 19.9698 19.7366C20.9004 19.7366 21.7639 19.4491 22.4788 18.958V17.3565C21.903 18.0325 21.0609 18.4596 20.1221 18.4596C19.0246 18.4596 18.0593 17.8761 17.4971 16.993H20.778L21.3688 15.6863H17.0144C16.992 15.529 16.9799 15.3683 16.9799 15.2047C16.9799 15.094 16.9855 14.9844 16.9958 14.8762H21.735L22.3258 13.5699H17.4057C17.9498 12.6016 18.9624 11.95 20.1221 11.95" fill="#FFBE00"/>
<rect x="0.5" y="0.5" width="45" height="31" rx="5.5" stroke="#EEF2F6"/>
</svg>
