<svg width="58" height="40" viewBox="0 0 58 40" fill="none" xmlns="http://www.w3.org/2000/svg">
<rect x="0.5" y="0.5" width="57" height="39" rx="5.5" fill="white"/>
<path fill-rule="evenodd" clip-rule="evenodd" d="M32.2362 19.1467H34.0915C34.6798 19.1248 35.0376 19.0782 35.1663 19.0052C35.3422 18.9054 35.4603 18.7058 35.519 18.4063C35.5566 18.207 35.5754 17.9107 35.5754 17.517C35.5754 17.0348 35.5381 16.6773 35.4631 16.4438C35.356 16.1168 35.0997 15.9176 34.6936 15.8453C34.6134 15.8343 34.4211 15.8285 34.1166 15.8285H32.2362V19.1467ZM29.2601 24.7357V13.3333H34.8047C35.5652 13.3333 36.1455 13.3974 36.5442 13.5253C37.4562 13.82 38.068 14.4233 38.3814 15.335C38.5432 15.8135 38.6241 16.5339 38.6241 17.4959C38.6241 18.6524 38.5343 19.4837 38.3569 19.9897C38.0012 20.9904 37.2692 21.5668 36.1638 21.7162C36.0338 21.7386 35.4807 21.7587 34.5045 21.7747L34.0104 21.7917H32.2361V24.7357H29.2601ZM14.3166 16.9706H17.0852C17.103 16.7187 17.112 16.5303 17.112 16.4043C17.112 14.8678 16.5097 13.9329 15.3049 13.5991C14.8112 13.4625 13.9831 13.3937 12.8211 13.3937C12.083 13.3937 11.4119 13.4215 10.8071 13.4758C10.0801 13.5361 9.48287 13.738 9.01616 14.0817C8.69755 14.3057 8.46668 14.6331 8.3234 15.0644C8.18027 15.4956 8.10863 16.0688 8.10863 16.7837C8.10863 17.7224 8.24117 18.4242 8.50612 18.888C8.80755 19.4339 9.41163 19.7934 10.3181 19.9682C10.6623 20.029 11.277 20.0916 12.1618 20.1568C13.2638 20.2333 13.8811 20.2936 14.0138 20.3369C14.3686 20.4465 14.5464 20.7519 14.5464 21.2539C14.5464 21.478 14.5253 21.6611 14.4829 21.8027C14.4031 22.0326 14.2361 22.1987 13.9816 22.3019C13.8386 22.3569 13.5071 22.3843 12.9877 22.3843H11.9699C11.6989 22.3782 11.4684 22.3269 11.2775 22.2291C11.0021 22.0873 10.8641 21.7689 10.8641 21.2738L10.864 21.192L10.8638 21.0367H8.09521C8.09521 21.9645 8.16108 22.6272 8.29416 23.0252C8.53308 23.7401 9.02676 24.2149 9.77558 24.4492C10.3857 24.6405 11.4663 24.7357 13.0168 24.7357C13.9456 24.7357 14.6363 24.6918 15.0877 24.6041C16.1652 24.3968 16.8577 23.9031 17.1659 23.1214C17.336 22.6953 17.4209 22.023 17.4209 21.1051C17.4209 20.7068 17.4024 20.3484 17.3651 20.0316C17.3014 19.5021 17.1017 19.0732 16.7667 18.7451C16.341 18.3246 15.655 18.0651 14.7087 17.9667C14.4106 17.934 13.6633 17.8763 12.4666 17.7944L11.9083 17.7537C11.6632 17.7374 11.4667 17.6827 11.3179 17.5898C11.1102 17.4588 11.0067 17.1854 11.0067 16.7703C11.0067 16.3117 11.1237 16.0139 11.3574 15.877C11.5912 15.7404 12.0704 15.6722 12.7932 15.6722C13.5374 15.6722 13.9922 15.7908 14.1569 16.0276C14.2632 16.1877 14.3166 16.5021 14.3166 16.9706ZM8.10571 26.997L8.52078 26.9538C8.54573 27.0981 8.59644 27.2039 8.67277 27.2717C8.74923 27.3393 8.85226 27.3731 8.98198 27.3731C9.11935 27.3731 9.22278 27.3431 9.29254 27.283C9.36217 27.2229 9.39691 27.1526 9.39691 27.0721C9.39691 27.0205 9.38229 26.9766 9.35318 26.9403C9.32393 26.904 9.27296 26.8726 9.20011 26.8456C9.15021 26.8281 9.03672 26.7965 8.85951 26.7512C8.63132 26.6931 8.47141 26.6214 8.37938 26.5363C8.25006 26.4168 8.1854 26.271 8.1854 26.0989C8.1854 25.9884 8.21585 25.8848 8.27689 25.7885C8.33779 25.6921 8.4258 25.6186 8.5405 25.5683C8.65533 25.5179 8.79391 25.4926 8.95623 25.4926C9.22131 25.4926 9.42079 25.5528 9.55481 25.6729C9.68882 25.7931 9.75912 25.9534 9.76583 26.154L9.33829 26.1713C9.32004 26.0592 9.28087 25.9787 9.22077 25.9295C9.16081 25.8804 9.07079 25.8557 8.95073 25.8557C8.82677 25.8557 8.72992 25.882 8.65976 25.9346C8.61455 25.9682 8.59201 26.0133 8.59201 26.0697C8.59201 26.1213 8.61321 26.1653 8.65546 26.2021C8.70912 26.2486 8.83965 26.2972 9.04705 26.3474C9.25431 26.3977 9.40764 26.4499 9.50705 26.5041C9.60632 26.5582 9.68413 26.6322 9.74034 26.726C9.79641 26.82 9.82458 26.936 9.82458 27.074C9.82458 27.1993 9.79091 27.3165 9.72357 27.4258C9.65622 27.5351 9.56111 27.6163 9.4381 27.6694C9.31508 27.7225 9.16175 27.7492 8.97809 27.7492C8.71087 27.7492 8.50562 27.6852 8.36234 27.5571C8.21921 27.429 8.13362 27.2424 8.10571 26.997ZM10.2678 26.1324H10.6744V27.7102H10.2678V26.1324ZM10.2678 25.5315H10.6744V25.9163H10.2678V25.5315ZM12.1656 27.7102H12.5722V26.7277C12.5722 26.6056 12.5647 26.5119 12.5498 26.4464C12.5349 26.3809 12.5085 26.3223 12.4705 26.2707C12.4326 26.2192 12.3766 26.1767 12.3027 26.1435C12.2288 26.1103 12.1471 26.0935 12.0578 26.0935C11.8552 26.0935 11.687 26.1837 11.5535 26.3643V26.1324H11.1762V27.7102H11.5829V26.9941C11.5829 26.8173 11.5931 26.6963 11.6137 26.6308C11.6342 26.5653 11.6722 26.5127 11.7277 26.473C11.7833 26.4333 11.8459 26.4134 11.9158 26.4134C11.9703 26.4134 12.017 26.4273 12.0557 26.455C12.0945 26.4828 12.1224 26.522 12.1397 26.572C12.1569 26.6221 12.1656 26.7325 12.1656 26.9032V27.7102ZM13.3945 26.8873C13.3945 27.0552 13.4257 27.1782 13.4882 27.2561C13.5506 27.3342 13.6276 27.3731 13.7192 27.3731C13.8173 27.3731 13.9002 27.3331 13.9679 27.2532C14.0355 27.1732 14.0695 27.0547 14.0695 26.8977C14.0695 26.7339 14.037 26.6122 13.9722 26.5326C13.9073 26.4532 13.8254 26.4134 13.7263 26.4134C13.63 26.4134 13.5506 26.4525 13.4882 26.5304C13.4257 26.6086 13.3945 26.7274 13.3945 26.8873ZM13.0299 27.814L13.4909 27.8658C13.4987 27.9246 13.5166 27.965 13.5445 27.9872C13.5831 28.0187 13.6439 28.0345 13.7268 28.0345C13.8329 28.0345 13.9124 28.0181 13.9656 27.9855C14.0011 27.9636 14.0282 27.9285 14.0466 27.88C14.0591 27.8451 14.0654 27.7813 14.0654 27.6881L14.0666 27.4578C13.9466 27.6261 13.7945 27.7102 13.6099 27.7102C13.404 27.7102 13.2412 27.6206 13.121 27.4409C13.0266 27.299 12.9796 27.1222 12.9796 26.9108C12.9796 26.6458 13.0413 26.4434 13.1648 26.3034C13.2884 26.1635 13.4421 26.0935 13.6258 26.0935C13.8152 26.0935 13.9715 26.1795 14.0946 26.351V26.1324H14.472V27.5507C14.472 27.7373 14.4571 27.8768 14.4272 27.9689C14.3974 28.0613 14.3555 28.1337 14.3016 28.1862C14.2477 28.2388 14.1758 28.28 14.0858 28.3097C13.9957 28.3395 13.882 28.3544 13.7445 28.3544C13.4846 28.3544 13.3003 28.3082 13.1915 28.216C13.0827 28.1237 13.0284 28.0067 13.0284 27.8649C13.0284 27.8509 13.0289 27.834 13.0299 27.814ZM15.3655 25.5315H14.9588V27.7102H15.3655V25.5315ZM16.7812 26.7895C16.7784 26.6667 16.748 26.5734 16.6899 26.5094C16.6319 26.4455 16.5614 26.4134 16.4782 26.4134C16.3892 26.4134 16.3157 26.4473 16.2578 26.5146C16.1997 26.582 16.1712 26.6737 16.1722 26.7895H16.7812ZM16.7603 27.2132L17.1628 27.2824C17.1107 27.4344 17.0285 27.5503 16.9162 27.6298C16.8039 27.7095 16.6633 27.7492 16.4947 27.7492C16.2276 27.7492 16.03 27.6592 15.9019 27.4792C15.8006 27.3351 15.75 27.1532 15.75 26.9332C15.75 26.6709 15.8164 26.4652 15.9495 26.3165C16.0824 26.1678 16.2505 26.0935 16.4538 26.0935C16.6822 26.0935 16.8624 26.1716 16.9944 26.3275C17.1264 26.4836 17.1895 26.7225 17.1837 27.0446H16.1651C16.1679 27.1688 16.2009 27.2653 16.264 27.3345C16.327 27.4034 16.4056 27.438 16.4998 27.438C16.5638 27.438 16.6177 27.4203 16.6613 27.3847C16.7049 27.3493 16.738 27.292 16.7603 27.2132ZM18.5141 25.5315V27.7102H20.1197V27.3428H18.9418V26.7506H19.9982V26.3832H18.9418V25.8991H20.0779V25.5315H18.5141ZM21.5732 27.7102V27.4739C21.5172 27.5582 21.4438 27.6251 21.3528 27.6748C21.2617 27.7243 21.1656 27.7492 21.0645 27.7492C20.9613 27.7492 20.869 27.7258 20.787 27.6792C20.7052 27.6326 20.6459 27.567 20.6093 27.4828C20.5727 27.3984 20.5544 27.2818 20.5544 27.1329V26.1324H20.961V26.8581C20.961 27.0802 20.9684 27.2164 20.9834 27.2663C20.9983 27.3166 21.0254 27.3562 21.0649 27.3855C21.1043 27.4147 21.1542 27.4292 21.2149 27.4292C21.2841 27.4292 21.3462 27.4099 21.4009 27.3706C21.4558 27.3314 21.4932 27.2829 21.5135 27.2248C21.5336 27.1668 21.5438 27.0248 21.5438 26.7987V26.1324H21.9504V27.7102H21.5732ZM22.4374 27.7102H22.844V27.2223C22.844 26.9537 22.8554 26.777 22.878 26.6928C22.9007 26.6086 22.9318 26.5503 22.9714 26.5179C23.011 26.4859 23.0592 26.4697 23.1162 26.4697C23.1749 26.4697 23.2388 26.4925 23.3072 26.538L23.4309 26.1727C23.3453 26.12 23.2562 26.0935 23.1639 26.0935C23.0985 26.0935 23.0401 26.111 22.9886 26.1457C22.9371 26.1806 22.8791 26.2508 22.8146 26.3568V26.1324H22.4374V27.7102ZM24.0099 26.9213C24.0099 27.0786 24.046 27.1988 24.1183 27.2824C24.1906 27.3659 24.2797 27.4077 24.3858 27.4077C24.4918 27.4077 24.5807 27.3659 24.6525 27.2824C24.7243 27.1988 24.7602 27.0775 24.7602 26.9184C24.7602 26.7634 24.7243 26.6439 24.6525 26.5604C24.5807 26.4769 24.4918 26.4351 24.3858 26.4351C24.2797 26.4351 24.1906 26.4769 24.1183 26.5604C24.046 26.6439 24.0099 26.7643 24.0099 26.9213ZM23.5949 26.8989C23.5949 26.7597 23.628 26.625 23.6944 26.4947C23.7607 26.3645 23.8546 26.2651 23.9763 26.1965C24.0978 26.1279 24.2337 26.0935 24.3837 26.0935C24.6154 26.0935 24.8052 26.1713 24.9533 26.3269C25.1013 26.4825 25.1753 26.6792 25.1753 26.9169C25.1753 27.1565 25.1005 27.3553 24.951 27.5128C24.8016 27.6704 24.6134 27.7492 24.3865 27.7492C24.2462 27.7492 24.1123 27.7163 23.985 27.6509C23.8576 27.5852 23.7607 27.489 23.6944 27.3622C23.628 27.2353 23.5949 27.0811 23.5949 26.8989ZM26.9269 26.5216V25.8991H27.1324C27.2859 25.8991 27.3878 25.9041 27.4387 25.914C27.5076 25.927 27.5646 25.9594 27.6097 26.0113C27.6548 26.0631 27.6773 26.129 27.6773 26.2088C27.6773 26.2737 27.6612 26.3305 27.6292 26.3794C27.5971 26.4283 27.5527 26.4643 27.4962 26.4873C27.4396 26.5102 27.3275 26.5216 27.1598 26.5216H26.9269ZM26.4994 25.5315V27.7102H26.9269V26.889H27.2049C27.3976 26.889 27.5449 26.8786 27.6468 26.8577C27.7216 26.8408 27.7953 26.8065 27.8677 26.7544C27.9401 26.7023 28 26.6307 28.0469 26.5397C28.094 26.4482 28.1175 26.3359 28.1175 26.2021C28.1175 26.0287 28.0767 25.8872 27.995 25.7777C27.9133 25.6682 27.812 25.5969 27.691 25.5643C27.6123 25.5426 27.4431 25.5315 27.1838 25.5315H26.4994ZM29.395 26.9538C29.3431 26.9718 29.2611 26.9931 29.1489 27.018C29.0368 27.0428 28.9634 27.0673 28.9291 27.0911C28.8762 27.1299 28.8501 27.1792 28.8501 27.2388C28.8501 27.2976 28.871 27.3482 28.9131 27.3911C28.9554 27.4338 29.009 27.4553 29.0744 27.4553C29.1472 27.4553 29.2166 27.4304 29.2828 27.3807C29.3317 27.3428 29.3639 27.2966 29.3792 27.2418C29.3896 27.206 29.395 27.1378 29.395 27.0373V26.9538ZM28.8501 26.6123L28.4854 26.5431C28.5267 26.3903 28.5978 26.2772 28.6987 26.2038C28.7997 26.1303 28.9496 26.0935 29.1486 26.0935C29.3293 26.0935 29.464 26.1157 29.5524 26.1597C29.6408 26.2041 29.7032 26.2601 29.7391 26.328C29.7752 26.3959 29.7933 26.5209 29.7933 26.7025L29.7892 27.1908C29.7892 27.3297 29.7956 27.4323 29.8085 27.4982C29.8215 27.5641 29.8458 27.6348 29.8813 27.7102H29.4789C29.4681 27.683 29.4553 27.6424 29.4398 27.5888C29.4331 27.5643 29.4283 27.5482 29.4256 27.5403C29.3564 27.6099 29.2825 27.6622 29.2037 27.6971C29.125 27.7318 29.0411 27.7492 28.9518 27.7492C28.7943 27.7492 28.6701 27.705 28.5794 27.6167C28.4887 27.5283 28.4434 27.4165 28.4434 27.2815C28.4434 27.1923 28.464 27.1126 28.5052 27.0426C28.5467 26.9726 28.6046 26.919 28.6791 26.8818C28.7537 26.8447 28.8611 26.8119 29.0014 26.7841C29.1907 26.7474 29.3219 26.7133 29.395 26.6815V26.6393C29.395 26.5579 29.3757 26.5 29.3371 26.4652C29.2983 26.4307 29.2255 26.4134 29.1181 26.4134C29.0457 26.4134 28.9892 26.4282 28.9486 26.4575C28.9079 26.487 28.8751 26.5386 28.8501 26.6123ZM30.517 26.1324H30.0853L30.6687 27.7146C30.6445 27.8037 30.6098 27.8772 30.5643 27.935C30.5188 27.9925 30.4489 28.0214 30.3541 28.0214C30.303 28.0214 30.2453 28.0151 30.1816 28.0019L30.2194 28.3291C30.2944 28.346 30.3711 28.3544 30.4491 28.3544C30.5261 28.3544 30.5952 28.346 30.6563 28.3289C30.7175 28.3122 30.7688 28.2884 30.8107 28.2581C30.8526 28.228 30.8898 28.1884 30.922 28.1398C30.9541 28.0912 30.9881 28.0207 31.0238 27.9283L31.6615 26.1324H31.2423L30.8839 27.2526L30.517 26.1324ZM31.9785 26.1324H32.3516V26.3479C32.4856 26.1783 32.6451 26.0935 32.8302 26.0935C32.9284 26.0935 33.0138 26.1143 33.0861 26.1559C33.1584 26.1977 33.2177 26.2608 33.2638 26.345C33.3312 26.2608 33.404 26.1977 33.4818 26.1559C33.5599 26.1143 33.6429 26.0935 33.7315 26.0935C33.8442 26.0935 33.9394 26.1171 34.0173 26.1644C34.0953 26.2113 34.1536 26.2806 34.1921 26.372C34.2199 26.4394 34.2339 26.5485 34.2339 26.6994V27.7102H33.8273V26.8065C33.8273 26.6496 33.8133 26.5485 33.7855 26.5029C33.748 26.4431 33.6904 26.4134 33.6127 26.4134C33.556 26.4134 33.5026 26.4312 33.4527 26.467C33.4028 26.5029 33.3668 26.5552 33.3448 26.6242C33.3227 26.6931 33.3116 26.8021 33.3116 26.9509V27.7102H32.905V26.8439C32.905 26.6898 32.8979 26.5907 32.8834 26.5459C32.869 26.5012 32.8467 26.468 32.8164 26.4462C32.7861 26.4244 32.7452 26.4134 32.6933 26.4134C32.6309 26.4134 32.5747 26.4308 32.5248 26.4655C32.4749 26.5002 32.4392 26.5505 32.4175 26.6159C32.3959 26.6815 32.3851 26.79 32.3851 26.9419V27.7102H31.9785V26.1324ZM35.5431 26.5094C35.6013 26.5734 35.6316 26.6667 35.6346 26.7895H35.0255C35.0246 26.6737 35.053 26.582 35.1111 26.5146C35.1689 26.4473 35.2426 26.4134 35.3314 26.4134C35.4146 26.4134 35.4853 26.4455 35.5431 26.5094ZM36.0161 27.2824L35.6136 27.2132C35.5914 27.292 35.5584 27.3493 35.5145 27.3847C35.4709 27.4203 35.4171 27.438 35.3531 27.438C35.2588 27.438 35.1802 27.4034 35.1173 27.3345C35.0542 27.2653 35.0212 27.1688 35.0183 27.0446H36.037C36.0428 26.7225 35.9796 26.4836 35.8476 26.3275C35.7156 26.1716 35.5356 26.0935 35.3071 26.0935C35.1037 26.0935 34.9358 26.1678 34.8027 26.3165C34.6699 26.4652 34.6032 26.6709 34.6032 26.9332C34.6032 27.1532 34.6538 27.3351 34.7551 27.4792C34.8833 27.6592 35.0809 27.7492 35.3479 27.7492C35.5167 27.7492 35.6571 27.7095 35.7695 27.6298C35.8818 27.5503 35.9639 27.4344 36.0161 27.2824ZM37.8466 27.7102H37.44V26.9032C37.44 26.7325 37.4312 26.6221 37.4142 26.572C37.3969 26.522 37.3689 26.4828 37.3301 26.455C37.2913 26.4273 37.2446 26.4134 37.1902 26.4134C37.1204 26.4134 37.0576 26.4333 37.0022 26.473C36.9467 26.5127 36.9087 26.5653 36.8881 26.6308C36.8675 26.6963 36.8572 26.8173 36.8572 26.9941V27.7102H36.4506V26.1324H36.8278V26.3643C36.9615 26.1837 37.1295 26.0935 37.3321 26.0935C37.4215 26.0935 37.5033 26.1103 37.5771 26.1435C37.651 26.1767 37.7071 26.2192 37.745 26.2707C37.783 26.3223 37.8093 26.3809 37.8242 26.4464C37.8392 26.5119 37.8466 26.6056 37.8466 26.7277V27.7102ZM39.0464 26.4652V26.1324H38.7696V25.5705L38.363 25.8169V26.1324H38.1785V26.4652H38.363V27.155C38.363 27.3028 38.3671 27.4012 38.3759 27.4499C38.3863 27.5184 38.4051 27.5727 38.4323 27.6128C38.4597 27.6531 38.5025 27.686 38.5607 27.7112C38.6191 27.7365 38.6844 27.7492 38.7573 27.7492C38.8757 27.7492 38.9818 27.7283 39.0756 27.6867L39.04 27.3633C38.97 27.39 38.9169 27.4034 38.8799 27.4034C38.8534 27.4034 38.8312 27.3963 38.8127 27.3825C38.7943 27.3685 38.7825 27.351 38.7774 27.3295C38.7721 27.3082 38.7696 27.2328 38.7696 27.1036V26.4652H39.0464ZM39.275 27.2651L39.6816 27.2002C39.6989 27.2808 39.7339 27.342 39.7866 27.3839C39.8395 27.4258 39.9133 27.4466 40.0082 27.4466C40.113 27.4466 40.1918 27.4266 40.2445 27.3868C40.28 27.3587 40.2979 27.3215 40.2979 27.2745C40.2979 27.2427 40.2881 27.2161 40.2688 27.1953C40.2484 27.1753 40.203 27.1569 40.1325 27.1399C39.8039 27.065 39.5956 26.9968 39.5079 26.9353C39.3861 26.8499 39.3253 26.7311 39.3253 26.5794C39.3253 26.4421 39.3777 26.3269 39.483 26.2337C39.5885 26.1403 39.7517 26.0935 39.973 26.0935C40.1836 26.0935 40.34 26.1285 40.4425 26.1984C40.5448 26.2684 40.6154 26.3717 40.6542 26.5085L40.2727 26.582C40.2562 26.5207 40.2248 26.4735 40.1786 26.4409C40.1323 26.4081 40.0665 26.3918 39.981 26.3918C39.8732 26.3918 39.7957 26.4071 39.7492 26.4383C39.7179 26.4601 39.7025 26.4885 39.7025 26.5233C39.7025 26.5534 39.7159 26.5788 39.743 26.5998C39.7796 26.6276 39.9064 26.6671 40.1231 26.718C40.3397 26.7689 40.4911 26.8311 40.577 26.9049C40.6618 26.9796 40.7045 27.0837 40.7045 27.2172C40.7045 27.3626 40.6457 27.4876 40.5286 27.5922C40.4112 27.6969 40.2379 27.7492 40.0082 27.7492C39.7999 27.7492 39.6349 27.7057 39.5134 27.6189C39.3918 27.5319 39.3124 27.4142 39.275 27.2651ZM42.8839 26.0417L43.1793 26.8501H42.5984L42.8839 26.0417ZM43.503 27.7102H43.9634L43.1102 25.5315H42.6605L41.8421 27.7102H42.2946L42.4687 27.2175H43.3203L43.503 27.7102ZM44.6613 27.7102H44.2547V26.1324H44.6319V26.3568C44.6964 26.2508 44.7542 26.1806 44.8059 26.1457C44.8573 26.111 44.9156 26.0935 44.9812 26.0935C45.0735 26.0935 45.1625 26.12 45.2482 26.1727L45.1245 26.538C45.0559 26.4925 44.9922 26.4697 44.9335 26.4697C44.8763 26.4697 44.8282 26.4859 44.7886 26.5179C44.749 26.5503 44.7179 26.6086 44.6953 26.6928C44.6725 26.777 44.6613 26.9537 44.6613 27.2223V27.7102ZM46.3311 26.5094C46.3891 26.5734 46.4195 26.6667 46.4225 26.7895H45.8134C45.8123 26.6737 45.8409 26.582 45.899 26.5146C45.957 26.4473 46.0303 26.4134 46.1194 26.4134C46.2025 26.4134 46.273 26.4455 46.3311 26.5094ZM46.8039 27.2824L46.4015 27.2132C46.3791 27.292 46.3461 27.3493 46.3025 27.3847C46.2588 27.4203 46.205 27.438 46.1408 27.438C46.0468 27.438 45.9682 27.4034 45.905 27.3345C45.8421 27.2653 45.8091 27.1688 45.8061 27.0446H46.8249C46.8306 26.7225 46.7675 26.4836 46.6356 26.3275C46.5035 26.1716 46.3233 26.0935 46.095 26.0935C45.8917 26.0935 45.7235 26.1678 45.5907 26.3165C45.4576 26.4652 45.3911 26.6709 45.3911 26.9332C45.3911 27.1532 45.4417 27.3351 45.5429 27.4792C45.6711 27.6592 45.8688 27.7492 46.1359 27.7492C46.3045 27.7492 46.4451 27.7095 46.5574 27.6298C46.6697 27.5503 46.7519 27.4344 46.8039 27.2824ZM48.0853 26.9538C48.0335 26.9718 47.9514 26.9931 47.8393 27.018C47.7271 27.0428 47.6539 27.0673 47.6194 27.0911C47.5666 27.1299 47.5404 27.1792 47.5404 27.2388C47.5404 27.2976 47.5613 27.3482 47.6036 27.3911C47.6457 27.4338 47.6994 27.4553 47.7647 27.4553C47.8375 27.4553 47.9069 27.4304 47.9732 27.3807C48.022 27.3428 48.0542 27.2966 48.0695 27.2418C48.0799 27.206 48.0853 27.1378 48.0853 27.0373V26.9538ZM47.5403 26.6123L47.1756 26.5431C47.2169 26.3903 47.288 26.2772 47.3889 26.2038C47.4899 26.1303 47.6399 26.0935 47.8388 26.0935C48.0195 26.0935 48.1542 26.1157 48.2426 26.1597C48.331 26.2041 48.3934 26.2601 48.4294 26.328C48.4654 26.3959 48.4835 26.5209 48.4835 26.7025L48.4794 27.1908C48.4794 27.3297 48.4858 27.4323 48.4987 27.4982C48.5117 27.5641 48.536 27.6348 48.5714 27.7102H48.1691C48.1584 27.683 48.1456 27.6424 48.1301 27.5888C48.1235 27.5643 48.1185 27.5482 48.1158 27.5403C48.0466 27.6099 47.9728 27.6622 47.8941 27.6971C47.8153 27.7318 47.7314 27.7492 47.642 27.7492C47.4845 27.7492 47.3603 27.705 47.2696 27.6167C47.1791 27.5283 47.1337 27.4165 47.1337 27.2815C47.1337 27.1923 47.1543 27.1126 47.1956 27.0426C47.2369 26.9726 47.2949 26.919 47.3693 26.8818C47.4439 26.8447 47.5513 26.8119 47.6917 26.7841C47.881 26.7474 48.0121 26.7133 48.0853 26.6815V26.6393C48.0853 26.5579 48.0659 26.5 48.0273 26.4652C47.9887 26.4307 47.9157 26.4134 47.8084 26.4134C47.7359 26.4134 47.6795 26.4282 47.6388 26.4575C47.5983 26.487 47.5653 26.5386 47.5403 26.6123ZM42.9911 15.601L44.3855 20.5437H41.6379L42.9911 15.601ZM40.9976 22.765H44.9767L45.5444 24.7357H48.5587L45.1956 13.3333H40.7064L37.384 24.7357H40.463L40.9976 22.765Z" fill="#10298E"/>
<path fill-rule="evenodd" clip-rule="evenodd" d="M25.1525 14.9375C26.3799 14.9375 27.4754 15.5206 28.1955 16.4339L28.837 15.0156C27.8337 14.0377 26.4682 13.4348 24.9621 13.4348C22.6172 13.4348 20.6112 14.8952 19.7879 16.9624H18.537L17.7983 18.5953H19.4076C19.3955 18.7468 19.3878 18.8984 19.3878 19.053C19.3878 19.2402 19.3971 19.4251 19.4151 19.6079H18.6063L17.8678 21.2413H19.8263C20.673 23.2562 22.6539 24.6708 24.9621 24.6708C26.1253 24.6708 27.2047 24.3114 28.0984 23.6975V21.6957C27.3787 22.5406 26.326 23.0746 25.1525 23.0746C23.7806 23.0746 22.574 22.3452 21.8713 21.2413H25.9724L26.7109 19.6079H21.2679C21.2398 19.4113 21.2248 19.2104 21.2248 19.0058C21.2248 18.8675 21.2318 18.7306 21.2447 18.5953H27.1686L27.9071 16.9624H21.757C22.4371 15.752 23.7028 14.9375 25.1525 14.9375" fill="#FFBE00"/>
<rect x="0.5" y="0.5" width="57" height="39" rx="5.5" stroke="#EEF2F6"/>
</svg>
