<svg width="28" height="20" viewBox="0 0 28 20" fill="none" xmlns="http://www.w3.org/2000/svg">
<rect x="0.5" y="0.5" width="27" height="19" rx="3.5" fill="#5A31F4"/>
<path d="M15.8696 9.14482C15.8696 10.3916 15.0058 11.2816 13.7987 11.2816H12.6615C12.6489 11.2816 12.6365 11.2841 12.6249 11.289C12.6133 11.2938 12.6028 11.301 12.5939 11.31C12.5851 11.319 12.578 11.3297 12.5733 11.3414C12.5685 11.3532 12.5661 11.3658 12.5662 11.3785V13.0171C12.5662 13.0427 12.5561 13.0673 12.5383 13.0854C12.5204 13.1036 12.4962 13.1139 12.4709 13.114H11.6751C11.6561 13.1139 11.6377 13.1082 11.622 13.0975C11.6062 13.0869 11.594 13.0717 11.5867 13.0541C11.5819 13.0425 11.5794 13.0301 11.5793 13.0176V7.10452C11.5792 7.09181 11.5817 7.07922 11.5864 7.06746C11.5912 7.05571 11.5982 7.04502 11.607 7.03602C11.6159 7.02701 11.6264 7.01987 11.638 7.01499C11.6496 7.01011 11.662 7.0076 11.6746 7.0076H13.8038C15.0058 7.0062 15.8696 7.8962 15.8696 9.14482V9.14482ZM14.8772 9.14482C14.8772 8.42804 14.3942 7.90416 13.739 7.90416H12.6615C12.6489 7.90416 12.6365 7.90667 12.6249 7.91154C12.6133 7.91642 12.6028 7.92356 12.5939 7.93257C12.5851 7.94158 12.578 7.95226 12.5733 7.96402C12.5685 7.97577 12.5661 7.98836 12.5662 8.00107V10.2829C12.5662 10.3085 12.5762 10.3331 12.5941 10.3511C12.612 10.3692 12.6362 10.3794 12.6615 10.3794H13.739C14.3942 10.3841 14.8772 9.85972 14.8772 9.14482ZM16.1056 11.9796C16.0973 11.7884 16.1364 11.5981 16.2193 11.4261C16.3022 11.2541 16.4263 11.1057 16.5803 10.9946C16.8907 10.7581 17.376 10.636 18.0885 10.6107L18.8473 10.5835V10.3569C18.8473 9.90279 18.5466 9.71084 18.0636 9.71084C17.5805 9.71084 17.2743 9.88407 17.2039 10.1673C17.1982 10.1872 17.1861 10.2047 17.1695 10.2169C17.1529 10.2291 17.1328 10.2353 17.1123 10.2347H16.3628C16.349 10.2351 16.3353 10.2324 16.3226 10.2268C16.31 10.2212 16.2987 10.2129 16.2896 10.2024C16.2805 10.1919 16.2738 10.1795 16.27 10.166C16.2662 10.1526 16.2653 10.1385 16.2675 10.1247C16.3785 9.45335 16.9305 8.94304 18.0978 8.94304C19.3396 8.94304 19.7879 9.52825 19.7879 10.6453V13.0171C19.7877 13.043 19.7773 13.0677 19.7591 13.0858C19.7409 13.104 19.7163 13.1141 19.6908 13.114H18.9352C18.9099 13.1139 18.8857 13.1038 18.8677 13.0859C18.8588 13.0769 18.8518 13.0663 18.8471 13.0545C18.8423 13.0428 18.8399 13.0302 18.8399 13.0176V12.8401C18.8402 12.8255 18.8361 12.8111 18.8281 12.7988C18.8201 12.7866 18.8087 12.777 18.7952 12.7715C18.7818 12.766 18.767 12.7647 18.7529 12.7679C18.7387 12.771 18.7258 12.7784 18.7159 12.7891C18.4892 13.0386 18.1232 13.2189 17.537 13.2189C16.6746 13.2189 16.1056 12.7647 16.1056 11.9796V11.9796ZM18.8473 11.4656V11.2816L17.8646 11.334C17.3469 11.3607 17.0457 11.5784 17.0457 11.945C17.0457 12.2764 17.3219 12.46 17.8045 12.46C18.4601 12.46 18.8473 12.1018 18.8473 11.4656V11.4656ZM20.5467 14.9062V14.2189C20.5468 14.2045 20.5501 14.1903 20.5563 14.1773C20.5625 14.1643 20.5714 14.1528 20.5824 14.1437C20.5935 14.1346 20.6063 14.1281 20.6201 14.1246C20.634 14.121 20.6484 14.1206 20.6624 14.1234C20.778 14.1454 20.896 14.1566 21.014 14.1571C21.2168 14.1671 21.4171 14.1079 21.5827 13.9891C21.7484 13.8703 21.8699 13.6986 21.9277 13.5016L21.9768 13.3434C21.9839 13.3222 21.9839 13.2991 21.9768 13.2779L20.4023 9.18602C20.3966 9.17118 20.3946 9.15517 20.3964 9.13936C20.3981 9.12355 20.4037 9.10841 20.4125 9.09524C20.4213 9.08207 20.4332 9.07127 20.4471 9.06376C20.4609 9.05625 20.4764 9.05225 20.4921 9.05212H21.2555C21.275 9.05232 21.294 9.05846 21.31 9.06973C21.326 9.081 21.3383 9.09689 21.3453 9.11532L22.4145 12.0011C22.4212 12.0203 22.4336 12.0369 22.45 12.0487C22.4664 12.0604 22.486 12.0667 22.5061 12.0667C22.5262 12.0667 22.5458 12.0604 22.5622 12.0487C22.5786 12.0369 22.591 12.0203 22.5977 12.0011L23.5263 9.12328C23.5327 9.10361 23.5451 9.0865 23.5617 9.07439C23.5783 9.06229 23.5983 9.0558 23.6188 9.05587H24.4086C24.4244 9.05596 24.44 9.05993 24.4539 9.06743C24.4679 9.07494 24.4799 9.08575 24.4888 9.09895C24.4978 9.11215 24.5035 9.12734 24.5053 9.14324C24.5072 9.15913 24.5053 9.17526 24.4997 9.19023L22.8156 13.7343C22.4279 14.7905 21.763 15.0607 21.0311 15.0607C20.8923 15.0644 20.7535 15.0476 20.6193 15.0106C20.597 15.0046 20.5775 14.9909 20.5642 14.9718C20.5509 14.9527 20.5447 14.9294 20.5467 14.9062V14.9062ZM6.46545 6.66677C5.46242 6.65954 4.4948 7.04155 3.76162 7.73421C3.73027 7.76327 3.71072 7.80309 3.70679 7.84593C3.70286 7.88876 3.71482 7.93155 3.74034 7.96596L4.19422 8.59331C4.20893 8.6142 4.22799 8.63157 4.25005 8.6442C4.27211 8.65683 4.29664 8.66442 4.32191 8.66643C4.34718 8.66844 4.37258 8.66482 4.39632 8.65582C4.42006 8.64683 4.44157 8.63268 4.45932 8.61438C4.72296 8.34768 5.03648 8.13682 5.38156 7.99414C5.72665 7.85145 6.09638 7.7798 6.46915 7.78337C8.02556 7.78337 8.83846 8.96879 8.83846 10.1392C8.83846 11.4117 7.98438 12.3069 6.75692 12.3247C5.80846 12.3247 5.09364 11.6884 5.09364 10.848C5.09463 10.6357 5.14216 10.4263 5.23281 10.2348C5.32346 10.0434 5.45496 9.87463 5.61784 9.7408C5.65227 9.7117 5.67404 9.67008 5.67845 9.6249C5.68287 9.57972 5.66957 9.53459 5.64144 9.49923L5.16443 8.88966C5.15 8.87123 5.13207 8.85591 5.1117 8.8446C5.09133 8.83329 5.06892 8.82623 5.0458 8.82383C5.02269 8.82143 4.99933 8.82374 4.97711 8.83062C4.95489 8.83751 4.93426 8.84883 4.91644 8.86391C4.62349 9.10275 4.38708 9.40491 4.22456 9.74824C4.06204 10.0916 3.97753 10.4674 3.97723 10.848C3.97723 12.2947 5.19219 13.4295 6.7486 13.4389H6.76942C8.61731 13.4146 9.95349 12.0297 9.95349 10.1369C9.95349 8.45613 8.7302 6.66677 6.46591 6.66677H6.46545Z" fill="white"/>
<rect x="0.5" y="0.5" width="27" height="19" rx="3.5" stroke="#EEF2F6"/>
</svg>
