<svg width="34" height="24" viewBox="0 0 34 24" fill="none" xmlns="http://www.w3.org/2000/svg">
<rect x="0.5" y="0.5" width="33" height="23" rx="3.5" fill="white"/>
<path fill-rule="evenodd" clip-rule="evenodd" d="M21.4621 9.00041C21.4621 8.44806 21.8996 8 22.4384 8C22.9781 8 23.4153 8.44806 23.4153 9.00041C23.4153 9.5531 22.9781 10.0002 22.4384 10.0002C21.8996 10.0002 21.4621 9.5531 21.4621 9.00041ZM24.2691 8.81815L26.2493 8.45522V16.2412H24.2691V8.81815ZM27.1614 8.81815V16.2412H29.1428V8.45522L27.1614 8.81815ZM21.4485 10.5464V16.2412H23.4296V10.5464H21.4485ZM17.5706 13.0375C17.5706 11.3648 18.5006 10.5233 20.331 10.4629C20.331 10.4629 20.6616 10.4499 20.8567 10.4924V12.157C19.6964 12.1979 19.5682 12.6271 19.5682 13.6282V16.2412H17.5706V13.0375ZM14.9563 10.5399L14.9462 10.5667C14.8753 10.7574 14.5525 11.6252 13.828 12.5225V8.45522L11.7835 8.86948V16.2412H13.828V13.9622C14.4201 14.872 14.7126 16.2412 14.7126 16.2412H17.161C16.919 15.2099 15.8596 13.3088 15.8596 13.3088C16.8108 12.0735 17.228 10.7579 17.2946 10.5399H14.9563ZM7.5247 10.7621C7.5247 11.2966 8.10469 11.3353 8.35503 11.3518C10.1911 11.4779 11.2854 12.3984 11.2854 13.8147C11.2854 15.0643 10.3069 16.3247 8.12405 16.3247C7.11192 16.3247 6.24829 16.2226 5.48238 16.0163V14.1974C5.99383 14.4129 6.83653 14.639 7.7046 14.639C8.49685 14.639 8.96801 14.3706 8.96801 13.9144C8.96801 13.3641 8.39662 13.3282 8.1775 13.3145L8.17513 13.3143C5.61817 13.1359 5.34277 11.5868 5.34277 10.9291C5.34277 9.78704 6.13407 8.45522 8.3674 8.45522C9.66285 8.45522 10.3612 8.66219 10.9627 8.87761L10.9929 8.88703V10.6536L10.9704 10.6471C10.7289 10.5425 10.4453 10.4398 10.4453 10.4398C9.93571 10.2835 9.2231 10.1172 8.6723 10.1172C8.35915 10.1172 7.5247 10.1172 7.5247 10.7621Z" fill="#862165"/>
<rect x="0.5" y="0.5" width="33" height="23" rx="3.5" stroke="#EEF2F6"/>
</svg>
