<svg width="28" height="20" viewBox="0 0 28 20" fill="none" xmlns="http://www.w3.org/2000/svg">
<rect x="0.5" y="0.5" width="27" height="19" rx="3.5" fill="white"/>
<path fill-rule="evenodd" clip-rule="evenodd" d="M17.6747 7.50037C17.6747 7.04007 18.035 6.66669 18.4786 6.66669C18.9231 6.66669 19.2832 7.04007 19.2832 7.50037C19.2832 7.96093 18.9231 8.3335 18.4786 8.3335C18.035 8.3335 17.6747 7.96093 17.6747 7.50037ZM19.9863 7.34848L21.617 7.04603V13.5343H19.9863V7.34848ZM22.3682 7.34848V13.5343H23.9999V7.04603L22.3682 7.34848ZM17.6634 8.78866V13.5343H19.2949V8.78866H17.6634ZM14.4699 10.8646C14.4699 9.47071 15.2357 8.76944 16.7431 8.71908C16.7431 8.71908 17.0154 8.70825 17.1761 8.74372V10.1308C16.2205 10.1649 16.115 10.5226 16.115 11.3568V13.5343H14.4699V10.8646ZM12.3169 8.78325L12.3086 8.8056C12.2502 8.9645 11.9844 9.68768 11.3878 10.4354V7.04603L9.704 7.39126V13.5343H11.3878V11.6352C11.8753 12.3933 12.1162 13.5343 12.1162 13.5343H14.1326C13.9332 12.6749 13.0608 11.0907 13.0608 11.0907C13.8441 10.0612 14.1877 8.96493 14.2426 8.78325H12.3169ZM6.19679 8.96845C6.19679 9.41386 6.67442 9.44608 6.88058 9.45988C8.39266 9.56494 9.29385 10.332 9.29385 11.5123C9.29385 12.5536 8.48803 13.6039 6.69036 13.6039C5.85685 13.6039 5.14562 13.5189 4.51487 13.347V11.8312C4.93607 12.0107 5.63005 12.1992 6.34494 12.1992C6.99738 12.1992 7.38539 11.9755 7.38539 11.5954C7.38539 11.1368 6.91483 11.1069 6.73438 11.0954L6.73243 11.0953C4.6267 10.9466 4.3999 9.65565 4.3999 9.10762C4.3999 8.15589 5.05156 7.04603 6.89077 7.04603C7.95761 7.04603 8.53271 7.21851 9.02811 7.39803L9.05294 7.40588V8.87802L9.03439 8.8726C8.83554 8.78541 8.60195 8.69985 8.60195 8.69985C8.18232 8.56962 7.59547 8.43099 7.14187 8.43099C6.88398 8.43099 6.19679 8.43099 6.19679 8.96845Z" fill="#862165"/>
<rect x="0.5" y="0.5" width="27" height="19" rx="3.5" stroke="#EEF2F6"/>
</svg>
