<svg width="58" height="40" viewBox="0 0 58 40" fill="none" xmlns="http://www.w3.org/2000/svg">
<rect x="0.5" y="0.5" width="57" height="39" rx="5.5" fill="#F884A1"/>
<path fill-rule="evenodd" clip-rule="evenodd" d="M32.9734 15.726L34.5398 7.69688C34.7283 6.79612 34.21 5.88844 33.3417 5.62514C32.3725 5.3757 31.3965 5.95773 31.1474 6.94163L29.7282 11.9438L28.6094 7.01785C28.5219 6.56054 28.2526 6.15174 27.869 5.88844C27.4853 5.62514 27.0074 5.53507 26.5564 5.63207C25.668 5.82608 25.0891 6.89313 25.3112 7.86317L25.9713 13.4429C25.3979 12.8545 24.7282 12.6732 23.952 13.1361L23.8511 13.2054C23.1438 13.7012 22.9999 14.7144 23.4543 15.6373C23.0781 15.6591 22.7104 15.8206 22.4307 16.1155L22.3634 16.1917C21.7105 16.8846 21.8384 18.0556 22.6528 18.894L23.3145 19.5728C23.3889 22.7105 25.8683 24.9082 28.7917 24.9082C28.8263 24.9082 28.8597 24.9033 28.8913 24.8942C32.8512 24.8535 34.5916 22.4256 34.8898 18.7415C34.984 17.5775 34.7754 16.7806 34.3379 16.3026C34.0956 16.0393 33.8398 15.9145 33.6446 15.8868L32.9734 15.726ZM32.2646 15.5562L33.8264 7.54444C33.934 7.01785 33.6312 6.49818 33.1465 6.34574C32.5811 6.20024 32.0023 6.55361 31.8475 7.14257L30.0368 13.531C29.983 13.7319 29.7811 13.8428 29.5859 13.7874C29.4309 13.7434 29.3311 13.6032 29.3235 13.4468L27.8959 7.17028C27.8421 6.90006 27.6872 6.66448 27.4651 6.51204C27.243 6.3596 26.967 6.3111 26.7045 6.36653C26.2334 6.47047 25.8834 7.12178 26.0247 7.70381L26.0314 7.74538L26.8473 14.6687L27.3604 15.4571C27.5845 15.1369 27.9077 14.9373 28.2935 14.8475C28.6166 14.7782 28.9464 14.7851 29.2628 14.8406C29.3416 14.8522 29.4017 14.8686 29.4349 14.8777C29.4414 14.8795 29.4468 14.881 29.4512 14.8821L32.2646 15.5562ZM27.0378 16.3079L26.2344 15.0735C26.207 15.0437 26.1844 15.0093 26.1679 14.9714L25.7896 14.3902C25.3251 13.6904 24.8742 13.4479 24.3357 13.7666L24.2616 13.822C23.8443 14.12 23.7905 14.8267 24.2213 15.5057L25.8097 17.9378C26.0924 18.3674 26.6578 18.4782 27.0752 18.1872L27.1559 18.1387C27.2675 18.0636 27.36 17.9603 27.4263 17.8414C27.0273 17.4209 26.9286 16.9008 27.0378 16.3079ZM28.1611 17.5194C28.1195 17.4541 28.0575 17.402 27.9811 17.3729C27.6776 17.0724 27.6656 16.6971 27.8089 16.2055C27.9166 15.8452 28.1252 15.6582 28.455 15.5819C28.6704 15.5334 28.906 15.5404 29.1349 15.5819C29.1606 15.5872 29.1833 15.5915 29.2028 15.5952C29.2342 15.6011 29.257 15.6054 29.2695 15.6097L33.51 16.6282L33.5907 16.6559C33.658 16.6836 33.7321 16.7391 33.8061 16.8153C34.0888 17.1271 34.2504 17.716 34.1696 18.6861C33.8936 22.0812 32.359 24.1876 28.7108 24.153C28.6904 24.153 28.6703 24.1547 28.6508 24.158C26.4396 24.0973 24.5692 22.6111 24.1348 20.4144L24.6789 20.9726C25.3318 21.617 26.3616 21.6032 26.9943 20.938L27.0683 20.8618C27.5705 20.3224 27.6566 19.5278 27.3302 18.8993C27.3785 18.8726 27.4259 18.8431 27.4723 18.8108L27.5531 18.7554C27.736 18.6272 27.8897 18.4619 28.0076 18.2716C28.2533 18.4034 28.5488 18.519 28.8993 18.6168L29.9157 18.8593C29.1618 19.2958 28.6906 20.1065 28.6368 21.3468C28.6233 21.5546 28.7781 21.7279 28.9801 21.7417C29.182 21.7487 29.3503 21.5962 29.3637 21.3884C29.4176 20.2659 29.8416 19.6631 30.5214 19.3998C30.8849 19.2612 31.282 19.2335 31.632 19.2681L31.7195 19.282C32.184 19.372 32.3321 18.6584 31.8676 18.5475L29.0743 17.9031C28.6711 17.7897 28.3732 17.6638 28.1611 17.5194ZM22.9557 16.6421C23.2351 16.3411 23.6901 16.3048 24.018 16.5395L25.204 18.3604C25.5293 18.8496 26.0561 19.1089 26.5887 19.0992C26.8792 19.4621 26.8637 19.9989 26.5366 20.3421L26.4693 20.4183C26.1193 20.7856 25.5471 20.7925 25.1904 20.4322L23.1711 18.3743C22.6125 17.7992 22.5384 17.0925 22.8884 16.7183L22.9557 16.6421ZM20.2634 31.941C20.2634 33.0982 19.3884 33.8881 18.2441 33.8881C17.4431 33.8881 16.7566 33.5139 16.3325 32.918L17.12 32.1073C17.3556 32.4191 17.746 32.7587 18.2576 32.7587C18.7355 32.7587 19.0653 32.4676 19.0653 31.9965C19.0653 31.4976 18.6749 31.3729 18.0624 31.1927C16.9383 30.8532 16.4806 30.2504 16.4806 29.4674C16.4806 28.4835 17.2075 27.6382 18.3518 27.6382C19.072 27.6382 19.7384 27.9847 20.0345 28.6568L19.0855 29.2734C18.9037 28.9686 18.6547 28.7676 18.3181 28.7676C17.921 28.7676 17.672 29.0448 17.672 29.3981C17.672 29.8208 18.0354 29.9525 18.6143 30.1257C19.523 30.4028 20.2634 30.8671 20.2634 31.941ZM20.6737 31.6778C20.6737 32.8903 21.6565 33.8881 22.868 33.8881C24.0796 33.8881 25.0623 32.8903 25.0623 31.6778C25.0623 30.4652 24.0796 29.4674 22.868 29.4674C21.6565 29.4674 20.6737 30.4652 20.6737 31.6778ZM22.8677 32.7795C23.4533 32.7795 23.9178 32.3014 23.9178 31.6778C23.9178 31.0542 23.4533 30.5761 22.8677 30.5761C22.2754 30.5761 21.8177 31.0542 21.8177 31.6778C21.8177 32.3083 22.2822 32.7795 22.8677 32.7795ZM27.896 27.7145V28.8231C27.2565 28.7954 26.7921 29.1279 26.7921 29.8624V30.3128C27.0479 30.0356 27.4114 29.8971 27.8623 29.8971V31.0195C27.2296 31.0334 26.7921 31.4491 26.7921 32.0312V33.7772H25.6479V29.7931C25.6479 28.6706 26.3344 27.7145 27.7277 27.7145H27.896ZM30.3932 33.8881C29.1816 33.8881 28.1989 32.8903 28.1989 31.6778C28.1989 30.4652 29.1816 29.4674 30.3932 29.4674C31.6047 29.4674 32.5875 30.4652 32.5875 31.6778C32.5875 32.8903 31.6047 33.8881 30.3932 33.8881ZM31.4431 31.6778C31.4431 32.3014 30.9854 32.7795 30.3931 32.7795C29.8075 32.7795 29.3431 32.3083 29.3431 31.6778C29.3431 31.0542 29.8075 30.5761 30.3931 30.5761C30.9787 30.5761 31.4431 31.0542 31.4431 31.6778ZM34.3173 30.0633V29.5852H33.2067V33.7772H34.3509V31.8648C34.3509 31.1719 34.748 30.7839 35.4346 30.7839V29.5229C34.9163 29.5021 34.5461 29.6822 34.3173 30.0633ZM37.2386 30.6107V31.6362C37.2386 32.3707 37.703 32.6963 38.3424 32.6755V33.7842H38.1742C36.7741 33.7842 36.0943 32.828 36.0943 31.7055V28.2411H37.2386V28.8993C37.2386 29.4675 37.6895 29.8971 38.3088 29.9109V31.0265C37.8511 31.0265 37.4943 30.8879 37.2386 30.6107ZM39.7088 33.8465C40.1261 33.8465 40.4761 33.4932 40.4761 33.0566C40.4761 32.627 40.1329 32.2667 39.7088 32.2667C39.2848 32.2667 38.9415 32.6201 38.9415 33.0566C38.9415 33.4932 39.2848 33.8465 39.7088 33.8465Z" fill="white"/>
<rect x="0.5" y="0.5" width="57" height="39" rx="5.5" stroke="#EEF2F6"/>
</svg>
