<svg width="28" height="20" viewBox="0 0 28 20" fill="none" xmlns="http://www.w3.org/2000/svg">
<rect x="0.5" y="0.5" width="27" height="19" rx="3.5" fill="#F884A1"/>
<path fill-rule="evenodd" clip-rule="evenodd" d="M16.2929 7.86302L17.0669 3.84845C17.16 3.39808 16.9039 2.94423 16.4749 2.81259C15.9959 2.68787 15.5137 2.97888 15.3906 3.47083L14.6894 5.9719L14.1365 3.50894C14.0933 3.28029 13.9603 3.07588 13.7707 2.94424C13.5811 2.81259 13.345 2.76755 13.1221 2.81605C12.6831 2.91306 12.3971 3.44658 12.5068 3.9316L12.833 6.72149C12.5497 6.42726 12.2187 6.33662 11.8352 6.56805L11.7854 6.60269C11.4359 6.85061 11.3648 7.35723 11.5893 7.81868C11.4034 7.82957 11.2217 7.91031 11.0835 8.05776L11.0503 8.09587C10.7277 8.44231 10.7909 9.0278 11.1933 9.447L11.5202 9.78641C11.557 11.3553 12.7821 12.4541 14.2266 12.4541C14.2437 12.4541 14.2602 12.4517 14.2758 12.4471C16.2325 12.4267 17.0924 11.2128 17.2398 9.37077C17.2864 8.78875 17.1833 8.39034 16.9671 8.15129C16.8473 8.01964 16.721 7.95728 16.6245 7.94342L16.2929 7.86302ZM15.9427 7.77811L16.7143 3.77224C16.7675 3.50894 16.6179 3.24911 16.3784 3.17289C16.099 3.10013 15.813 3.27682 15.7365 3.5713L14.8419 6.76552C14.8153 6.86598 14.7155 6.92142 14.619 6.8937C14.5424 6.87169 14.4931 6.80164 14.4894 6.72342L13.784 3.58516C13.7574 3.45004 13.6809 3.33225 13.5711 3.25604C13.4614 3.17982 13.325 3.15557 13.1953 3.18328C12.9625 3.23525 12.7895 3.56091 12.8594 3.85192L12.8627 3.87271L13.2658 7.33437L13.5194 7.72858C13.6301 7.56845 13.7898 7.46868 13.9804 7.42376C14.1401 7.38911 14.3031 7.39258 14.4594 7.42029C14.4984 7.42609 14.528 7.43432 14.5444 7.43888C14.5476 7.43977 14.5503 7.44052 14.5525 7.44108L15.9427 7.77811ZM13.36 8.15395L12.963 7.53678C12.9495 7.52187 12.9383 7.50464 12.9301 7.48573L12.7432 7.19511C12.5137 6.8452 12.2909 6.72395 12.0248 6.88331L11.9882 6.91103C11.782 7.06 11.7554 7.41337 11.9683 7.75289L12.7532 8.9689C12.8929 9.1837 13.1722 9.23913 13.3784 9.09363L13.4184 9.06937C13.4735 9.03181 13.5192 8.98016 13.5519 8.92071C13.3548 8.71045 13.306 8.45043 13.36 8.15395ZM13.915 8.75972C13.8945 8.72708 13.8638 8.70099 13.8261 8.68648C13.6761 8.53619 13.6702 8.34855 13.741 8.10279C13.7942 7.92264 13.8973 7.8291 14.0603 7.79099C14.1667 7.76674 14.2831 7.7702 14.3962 7.79099C14.4089 7.79364 14.4201 7.79578 14.4297 7.79761C14.4453 7.80056 14.4565 7.80271 14.4627 7.80485L16.558 8.31412L16.5979 8.32798C16.6312 8.34184 16.6677 8.36955 16.7043 8.40766C16.844 8.56356 16.9238 8.85804 16.8839 9.34306C16.7476 11.0406 15.9893 12.0938 14.1867 12.0765C14.1765 12.0765 14.1666 12.0774 14.157 12.079C13.0644 12.0486 12.1402 11.3056 11.9256 10.2072L12.1944 10.4863C12.517 10.8085 13.0259 10.8016 13.3385 10.469L13.3751 10.4309C13.6232 10.1612 13.6657 9.76394 13.5045 9.44969C13.5283 9.43631 13.5517 9.42156 13.5747 9.40543L13.6146 9.37771C13.705 9.3136 13.7809 9.23096 13.8392 9.13581C13.9606 9.20173 14.1066 9.25952 14.2798 9.30841L14.782 9.42967C14.4095 9.64793 14.1767 10.0533 14.1501 10.6734C14.1434 10.7773 14.2199 10.8639 14.3197 10.8709C14.4195 10.8743 14.5026 10.7981 14.5093 10.6942C14.5359 10.133 14.7454 9.83155 15.0813 9.6999C15.2609 9.63061 15.4571 9.61675 15.6301 9.63407L15.6733 9.641C15.9028 9.68604 15.976 9.3292 15.7465 9.27377L14.3662 8.95158C14.167 8.89489 14.0198 8.83192 13.915 8.75972ZM11.343 8.32106C11.481 8.17057 11.7058 8.15243 11.8678 8.26975L12.4539 9.18024C12.6146 9.4248 12.8749 9.55447 13.1381 9.54962C13.2816 9.73107 13.2739 9.99948 13.1123 10.1711L13.0791 10.2092C12.9061 10.3928 12.6234 10.3963 12.4471 10.2161L11.4494 9.18717C11.1733 8.89962 11.1368 8.54624 11.3097 8.35916L11.343 8.32106ZM10.0126 15.9705C10.0126 16.5491 9.58026 16.944 9.01486 16.944C8.61908 16.944 8.27984 16.757 8.07031 16.459L8.45944 16.0537C8.57584 16.2096 8.76874 16.3793 9.02151 16.3793C9.25765 16.3793 9.42061 16.2338 9.42061 15.9983C9.42061 15.7488 9.22771 15.6865 8.92506 15.5964C8.36964 15.4266 8.14348 15.1252 8.14348 14.7337C8.14348 14.2418 8.50268 13.8191 9.06807 13.8191C9.42394 13.8191 9.7532 13.9923 9.89954 14.3284L9.43059 14.6367C9.34079 14.4843 9.21774 14.3838 9.05144 14.3838C8.85522 14.3838 8.73216 14.5224 8.73216 14.6991C8.73216 14.9104 8.91176 14.9762 9.19778 15.0629C9.64677 15.2014 10.0126 15.4335 10.0126 15.9705ZM10.2154 15.8389C10.2154 16.4452 10.701 16.9441 11.2996 16.9441C11.8983 16.9441 12.3839 16.4452 12.3839 15.8389C12.3839 15.2326 11.8983 14.7337 11.2996 14.7337C10.701 14.7337 10.2154 15.2326 10.2154 15.8389ZM11.2995 16.3897C11.5888 16.3897 11.8183 16.1507 11.8183 15.8389C11.8183 15.5271 11.5888 15.2881 11.2995 15.2881C11.0068 15.2881 10.7806 15.5271 10.7806 15.8389C10.7806 16.1542 11.0101 16.3897 11.2995 16.3897ZM13.784 13.8572V14.4116C13.4681 14.3977 13.2386 14.564 13.2386 14.9312V15.1564C13.365 15.0178 13.5446 14.9485 13.7674 14.9485V15.5098C13.4548 15.5167 13.2386 15.7246 13.2386 16.0156V16.8886H12.6732V14.8966C12.6732 14.3353 13.0124 13.8572 13.7009 13.8572H13.784ZM15.0179 16.9441C14.4193 16.9441 13.9337 16.4452 13.9337 15.8389C13.9337 15.2326 14.4193 14.7337 15.0179 14.7337C15.6166 14.7337 16.1022 15.2326 16.1022 15.8389C16.1022 16.4452 15.6166 16.9441 15.0179 16.9441ZM15.5367 15.8389C15.5367 16.1507 15.3106 16.3897 15.0179 16.3897C14.7285 16.3897 14.4991 16.1542 14.4991 15.8389C14.4991 15.5271 14.7285 15.2881 15.0179 15.2881C15.3072 15.2881 15.5367 15.5271 15.5367 15.8389ZM16.9569 15.0317V14.7926H16.4081V16.8886H16.9735V15.9324C16.9735 15.586 17.1697 15.392 17.509 15.392V14.7615C17.2529 14.7511 17.07 14.8411 16.9569 15.0317ZM18.4004 15.3054V15.8181C18.4004 16.1854 18.6298 16.3482 18.9458 16.3378V16.8921H18.8627C18.1709 16.8921 17.835 16.414 17.835 15.8528V14.1205H18.4004V14.4497C18.4004 14.7337 18.6232 14.9485 18.9292 14.9555V15.5132C18.703 15.5132 18.5267 15.444 18.4004 15.3054ZM19.621 16.9233C19.8272 16.9233 20.0001 16.7466 20.0001 16.5283C20.0001 16.3135 19.8305 16.1334 19.621 16.1334C19.4114 16.1334 19.2418 16.3101 19.2418 16.5283C19.2418 16.7466 19.4114 16.9233 19.621 16.9233Z" fill="white"/>
<rect x="0.5" y="0.5" width="27" height="19" rx="3.5" stroke="#EEF2F6"/>
</svg>
