<svg width="58" height="40" viewBox="0 0 58 40" fill="none" xmlns="http://www.w3.org/2000/svg">
<rect x="0.5" y="0.5" width="57" height="39" rx="5.5" fill="white"/>
<path d="M17.5307 8.33411H26.4611C27.7076 8.33411 28.483 9.38007 28.1922 10.6676L24.0345 29.0432C23.7411 30.3262 22.4929 31.3731 21.2455 31.3731H12.3161C11.0712 31.3731 10.2941 30.3262 10.5849 29.0432L14.7444 10.6676C15.0352 9.38007 16.2826 8.33411 17.5307 8.33411Z" fill="#E21836"/>
<path d="M25.7177 8.33337H35.9873C37.2337 8.33337 36.6717 9.37934 36.3785 10.6668L32.2214 29.0425C31.9297 30.3255 32.0207 31.3724 30.7717 31.3724H20.5021C19.2531 31.3724 18.4802 30.3255 18.7736 29.0425L22.9304 10.6668C23.2256 9.37934 24.4704 8.33337 25.7177 8.33337Z" fill="#00447C"/>
<path d="M35.5801 8.33337H44.5104C45.7587 8.33337 46.534 9.37934 46.2408 10.6668L42.0838 29.0425C41.7904 30.3255 40.5414 31.3724 39.2933 31.3724H30.3671C29.1181 31.3724 28.3434 30.3255 28.636 29.0425L32.7937 10.6668C33.0845 9.37934 34.3311 8.33337 35.5801 8.33337Z" fill="#007B84"/>
<path d="M19.8626 14.2221C18.9443 14.2318 18.6731 14.2221 18.5864 14.2011C18.5531 14.364 17.9334 17.3067 17.9317 17.3092C17.7983 17.9045 17.7012 18.3289 17.3714 18.603C17.1842 18.7623 16.9657 18.8391 16.7123 18.8391C16.3051 18.8391 16.0678 18.631 16.028 18.2361L16.0203 18.1006C16.0203 18.1006 16.1444 17.3031 16.1444 17.2986C16.1444 17.2986 16.7948 14.617 16.9113 14.2625C16.9174 14.2423 16.9191 14.2318 16.9206 14.2221C15.6547 14.2336 15.4302 14.2221 15.4148 14.2011C15.4063 14.23 15.375 14.3962 15.375 14.3962L14.7108 17.4187L14.6538 17.6751L14.5435 18.5136C14.5435 18.7623 14.5909 18.9653 14.6854 19.1369C14.9879 19.6812 15.851 19.7627 16.3392 19.7627C16.9683 19.7627 17.5584 19.6252 17.9572 19.374C18.6493 18.953 18.8304 18.2949 18.992 17.71L19.0668 17.41C19.0668 17.41 19.7368 14.6248 19.8507 14.2625C19.855 14.2423 19.8568 14.2318 19.8626 14.2221ZM22.1422 16.469C21.9807 16.469 21.6855 16.5093 21.4204 16.6431C21.3242 16.694 21.2332 16.7527 21.1372 16.8111L21.2239 16.4892L21.1764 16.4349C20.6142 16.5521 20.4884 16.5678 19.969 16.6431L19.9255 16.6729C19.8652 17.1876 19.8116 17.5746 19.5881 18.5862C19.503 18.9591 19.4146 19.3355 19.326 19.7075L19.35 19.7548C19.8822 19.7259 20.0437 19.7259 20.5062 19.7337L20.5437 19.6918C20.6024 19.3819 20.61 19.3093 20.7402 18.6817C20.8014 18.3841 20.9289 17.7303 20.9918 17.4975C21.1074 17.4424 21.2215 17.3881 21.3303 17.3881C21.5896 17.3881 21.558 17.6209 21.548 17.7137C21.5369 17.8694 21.4424 18.3781 21.3455 18.8148L21.2809 19.0967C21.2358 19.3048 21.1864 19.5072 21.1414 19.7135L21.161 19.7548C21.6855 19.7259 21.8455 19.7259 22.2935 19.7337L22.3462 19.6918C22.4271 19.2078 22.4509 19.0783 22.5945 18.3736L22.6668 18.0498C22.8072 17.4161 22.8777 17.0948 22.7715 16.8331C22.6592 16.5398 22.3897 16.469 22.1422 16.469ZM24.6888 17.1324C24.4099 17.1876 24.2321 17.2243 24.0553 17.2481C23.8801 17.277 23.7093 17.3032 23.4398 17.3417L23.4184 17.3617L23.3989 17.3776C23.3708 17.5842 23.3512 17.7628 23.314 17.9727C23.2824 18.1898 23.2339 18.4365 23.1549 18.791C23.0937 19.0624 23.0621 19.1569 23.0273 19.2524C22.9933 19.3478 22.9559 19.4406 22.8871 19.7075L22.9032 19.7321L22.9167 19.7547C23.1686 19.7424 23.3333 19.7337 23.5027 19.7321C23.6718 19.7258 23.847 19.7321 24.1183 19.7337L24.142 19.7137L24.1674 19.6918C24.2066 19.4511 24.2125 19.3864 24.2364 19.269C24.2602 19.143 24.3011 18.9687 24.4014 18.5031C24.4489 18.2844 24.5018 18.0664 24.551 17.8432C24.6021 17.6209 24.6557 17.402 24.7066 17.1833L24.699 17.1569L24.6888 17.1324ZM24.6947 16.2379C24.4413 16.084 23.9966 16.1328 23.6973 16.3455C23.3989 16.5538 23.365 16.8496 23.6175 17.0056C23.8665 17.1553 24.3129 17.1107 24.6096 16.8962C24.9074 16.6834 24.9446 16.3903 24.6947 16.2379ZM26.227 19.803C26.7396 19.803 27.265 19.6576 27.6606 19.226C27.9649 18.876 28.1044 18.3553 28.1527 18.1408C28.3101 17.4301 28.1875 17.0982 28.0336 16.8961C27.7999 16.588 27.3867 16.4892 26.9581 16.4892C26.7004 16.4892 26.0866 16.5154 25.6071 16.9705C25.2627 17.2988 25.1036 17.7442 25.0076 18.1713C24.9107 18.6064 24.7993 19.3898 25.4991 19.6813C25.715 19.7768 26.0263 19.803 26.227 19.803ZM26.1869 18.2038C26.3051 17.6656 26.4447 17.2138 26.8008 17.2138C27.0798 17.2138 27.1001 17.55 26.976 18.09C26.9538 18.2098 26.8519 18.6555 26.7141 18.8453C26.6179 18.9854 26.5041 19.0703 26.3783 19.0703C26.3408 19.0703 26.1182 19.0703 26.1147 18.7299C26.1129 18.5619 26.1462 18.3902 26.1869 18.2038ZM29.4341 19.7338L29.4742 19.6919C29.531 19.382 29.5403 19.3092 29.6662 18.6818C29.7291 18.3842 29.8592 17.7304 29.9204 17.4975C30.0362 17.4422 30.1483 17.388 30.2606 17.388C30.5181 17.388 30.4868 17.6208 30.4765 17.7135C30.4672 17.8695 30.3727 18.3779 30.2741 18.8146L30.2129 19.0965C30.1661 19.3049 30.1152 19.507 30.0702 19.7136L30.0897 19.7548C30.6161 19.7259 30.77 19.7259 31.2205 19.7338L31.2749 19.6919C31.354 19.2077 31.3753 19.0781 31.5233 18.3737L31.5938 18.0497C31.7349 17.416 31.8063 17.0949 31.7018 16.8332C31.5862 16.5399 31.315 16.4691 31.071 16.4691C30.9093 16.4691 30.6126 16.5092 30.349 16.6432C30.2547 16.694 30.1603 16.7525 30.0675 16.8112L30.1483 16.4892L30.105 16.4348C29.543 16.5522 29.4145 16.5679 28.8958 16.6432L28.856 16.673C28.7931 17.1877 28.7419 17.5744 28.5184 18.5863C28.4333 18.9592 28.3449 19.3356 28.2565 19.7076L28.2803 19.7548C28.8133 19.7259 28.9724 19.7259 29.4341 19.7338ZM33.3011 19.7547C33.3342 19.5885 33.5308 18.603 33.5325 18.603C33.5325 18.603 33.6999 17.8799 33.7101 17.8537C33.7101 17.8537 33.7628 17.7784 33.8155 17.7486H33.893C34.6241 17.7486 35.4497 17.7486 36.0969 17.2586C36.5372 16.9225 36.8382 16.4261 36.9725 15.823C37.0074 15.6751 37.0331 15.4992 37.0331 15.3233C37.0331 15.0923 36.988 14.8637 36.8578 14.6851C36.5278 14.2099 35.8707 14.2011 35.1121 14.1975C35.1097 14.1975 34.7382 14.2011 34.7382 14.2011C33.7671 14.2134 33.3777 14.2099 33.2178 14.1897C33.2043 14.2625 33.1788 14.392 33.1788 14.392C33.1788 14.392 32.831 16.0515 32.831 16.0542C32.831 16.0542 31.9986 19.5824 31.9594 19.7487C32.8072 19.7381 33.1548 19.7381 33.3011 19.7547ZM33.9456 16.8068C33.9456 16.8068 34.3155 15.1507 34.3137 15.157L34.3257 15.0721L34.3309 15.0073L34.4787 15.023C34.4787 15.023 35.2414 15.0905 35.2593 15.0923C35.5603 15.2121 35.6844 15.5211 35.5977 15.9245C35.5187 16.2931 35.2865 16.6029 34.9881 16.7526C34.7423 16.8794 34.4413 16.89 34.1311 16.89H33.9304L33.9456 16.8068ZM36.2482 18.2345C36.1505 18.6633 36.0382 19.4467 36.7345 19.7259C36.9565 19.8231 37.1555 19.852 37.3577 19.8415C37.5712 19.8296 37.7691 19.7194 37.9524 19.5607C37.9358 19.6259 37.9193 19.6912 37.9027 19.7566L37.9343 19.7985C38.4351 19.7768 38.5906 19.7768 39.1332 19.781L39.1824 19.7425C39.2616 19.263 39.3363 18.7973 39.5422 17.88C39.6426 17.4406 39.7427 17.0054 39.8456 16.5678L39.8295 16.5197C39.2693 16.6265 39.1195 16.6494 38.5805 16.728L38.5396 16.7623C38.5342 16.8069 38.5285 16.8497 38.5233 16.8925C38.4395 16.7531 38.318 16.6342 38.1306 16.56C37.891 16.463 37.3281 16.588 36.8442 17.0415C36.5042 17.3653 36.341 17.809 36.2482 18.2345ZM37.4249 18.2607C37.5449 17.7321 37.6827 17.2849 38.0396 17.2849C38.2654 17.2849 38.3842 17.4993 38.36 17.865C38.3409 17.9562 38.3202 18.0523 38.2956 18.161C38.2599 18.318 38.2212 18.4738 38.1835 18.6297C38.1452 18.7364 38.1006 18.837 38.0516 18.904C37.9598 19.038 37.7412 19.1211 37.6154 19.1211C37.5797 19.1211 37.3594 19.1211 37.3518 18.7868C37.3501 18.6203 37.3834 18.4489 37.4249 18.2607ZM43.5698 16.5154L43.5265 16.4645C42.9721 16.5801 42.8718 16.5985 42.3624 16.6693L42.325 16.7079C42.3233 16.7141 42.3217 16.7238 42.3191 16.7325L42.3174 16.7238C41.9382 17.6243 41.9493 17.43 41.6406 18.139C41.6389 18.1067 41.6389 18.0866 41.6372 18.0523L41.5599 16.5154L41.5114 16.4645C40.9306 16.5801 40.9169 16.5985 40.3806 16.6693L40.3388 16.7079C40.3329 16.7262 40.3329 16.7464 40.3294 16.7684L40.3329 16.7762C40.3999 17.1289 40.3838 17.0502 40.4511 17.6068C40.4824 17.88 40.5242 18.1547 40.5556 18.4245C40.6085 18.876 40.6381 19.0982 40.7027 19.7873C40.3405 20.4026 40.2547 20.6354 39.906 21.1754L39.9084 21.1808L39.6629 21.5805C39.6348 21.6226 39.6094 21.6515 39.5737 21.6639C39.5345 21.6838 39.4835 21.6874 39.4128 21.6874H39.2768L39.0745 22.3798L39.7683 22.3921C40.1755 22.3903 40.4315 22.1942 40.5693 21.9307L41.0055 21.1613H40.9985L41.0445 21.107C41.3379 20.4568 43.5698 16.5154 43.5698 16.5154ZM36.2482 25.6087H35.9539L37.0431 21.9001H37.4045L37.5192 21.5181L37.5303 21.9429C37.5168 22.2055 37.7175 22.4384 38.2447 22.3998H38.8544L39.0642 21.6857H38.8348C38.7029 21.6857 38.6417 21.6514 38.6493 21.5779L38.6382 21.1457H37.5092V21.1479C37.1441 21.1558 36.054 21.184 35.8333 21.2445C35.5662 21.3153 35.2848 21.5237 35.2848 21.5237L35.3954 21.1412H34.3392L34.1192 21.9001L33.0154 25.6654H32.8012L32.5911 26.3744H34.6947L34.6242 26.6108H35.6607L35.7295 26.3744H36.0203L36.2482 25.6087ZM35.3851 22.6537C35.216 22.7019 34.9013 22.848 34.9013 22.848L35.1812 21.9001H36.0203L35.8179 22.5907C35.8179 22.5907 35.5586 22.6064 35.3851 22.6537ZM35.4013 24.0077C35.4013 24.0077 35.1377 24.0418 34.9642 24.0821C34.7933 24.1355 34.4729 24.3035 34.4729 24.3035L34.762 23.3172H35.6054L35.4013 24.0077ZM34.9311 25.6175H34.0894L34.3334 24.785H35.1725L34.9311 25.6175ZM36.9582 23.3172H38.1714L37.9971 23.8984H36.7677L36.5831 24.5339H37.6588L36.8443 25.7145C36.7873 25.8012 36.7361 25.8319 36.6793 25.8563C36.6223 25.8861 36.5474 25.9211 36.4608 25.9211H36.1624L35.9573 26.6171H36.7379C37.1436 26.6171 37.3833 26.427 37.5602 26.1777L38.1188 25.3907L38.2387 26.1898C38.2642 26.3394 38.3686 26.427 38.4394 26.4611C38.5175 26.5014 38.5983 26.5707 38.7123 26.581C38.8347 26.5864 38.923 26.5906 38.9818 26.5906H39.3654L39.5956 25.8117H39.4444C39.3575 25.8117 39.208 25.7967 39.1825 25.7687C39.157 25.7347 39.157 25.6822 39.1433 25.6025L39.0217 24.8016H38.5234L38.742 24.5339H39.9689L40.1577 23.8984H39.0217L39.1986 23.3172H40.3312L40.5412 22.6004H37.1647L36.9582 23.3172ZM26.7107 25.7793L26.9939 24.8095H28.1578L28.3704 24.0883H27.2055L27.3833 23.4913H28.5217L28.7326 22.7929H25.8842L25.6776 23.4913H26.3248L26.1522 24.0883H25.5033L25.2882 24.8219H25.9351L25.5577 26.1049C25.5068 26.2747 25.5816 26.3395 25.6291 26.4184C25.6776 26.4952 25.7268 26.5461 25.8374 26.575C25.9515 26.6012 26.0296 26.6169 26.1358 26.6169H27.4479L27.6817 25.8179L27.1001 25.9001C26.9878 25.9001 26.6767 25.8862 26.7107 25.7793ZM26.8442 21.1368L26.5492 21.6856C26.4861 21.8055 26.4293 21.8799 26.3782 21.9141C26.3331 21.943 26.2439 21.9551 26.1146 21.9551H25.9607L25.755 22.6572H26.2661C26.5118 22.6572 26.7005 22.5644 26.7906 22.518C26.8875 22.4647 26.913 22.4952 26.9878 22.4208L27.1605 22.2668H28.7564L28.9682 21.5359H27.8L28.0039 21.1368H26.8442ZM29.2003 25.7934C29.1731 25.7531 29.1927 25.6821 29.2343 25.5342L29.6705 24.0479H31.2223C31.4484 24.0445 31.6117 24.0419 31.7179 24.034C31.8319 24.0217 31.956 23.9798 32.0912 23.9045C32.2307 23.8256 32.3021 23.7425 32.3624 23.647C32.4297 23.5518 32.5376 23.3434 32.6304 23.0221L33.1787 21.1413L31.5683 21.1509C31.5683 21.1509 31.0725 21.2262 30.8542 21.3093C30.6339 21.4021 30.3191 21.6611 30.3191 21.6611L30.4645 21.1455H29.4698L28.0772 25.9001C28.0277 26.0847 27.9947 26.2187 27.987 26.2991C27.9844 26.3859 28.0933 26.4717 28.1638 26.5364C28.2472 26.6012 28.3704 26.5907 28.4885 26.6012C28.6128 26.6108 28.7896 26.6169 29.0336 26.6169H29.798L30.0327 25.8013L29.3483 25.8678C29.2752 25.8678 29.2223 25.8275 29.2003 25.7934ZM29.9519 23.0441H31.5818L31.4782 23.3784C31.4636 23.3862 31.4288 23.3618 31.263 23.382H29.8516L29.9519 23.0441ZM30.2784 21.9228H31.9221L31.8039 22.3255C31.8039 22.3255 31.0292 22.3176 30.9051 22.3412C30.3592 22.4384 30.0403 22.7387 30.0403 22.7387L30.2784 21.9228ZM31.5147 24.4979C31.5012 24.5479 31.4799 24.5783 31.4501 24.6012C31.417 24.6232 31.3634 24.631 31.2835 24.631H31.0513L31.065 24.2239H30.099L30.0598 26.2143C30.0583 26.3579 30.0718 26.441 30.1739 26.5076C30.276 26.5907 30.5905 26.6013 31.0139 26.6013H31.6192L31.8377 25.8562L31.3108 25.886L31.1355 25.8966C31.1116 25.886 31.0887 25.8764 31.0633 25.8502C31.0411 25.8275 31.0036 25.8414 31.0097 25.6978L31.0139 25.1876L31.5665 25.1641C31.8649 25.1641 31.9925 25.0641 32.1013 24.9689C32.2052 24.8777 32.2391 24.7728 32.2783 24.631L32.371 24.1793H31.6116L31.5147 24.4979Z" fill="#FEFEFE"/>
<rect x="0.5" y="0.5" width="57" height="39" rx="5.5" stroke="#EEF2F6"/>
</svg>
