<svg width="28" height="20" viewBox="0 0 28 20" fill="none" xmlns="http://www.w3.org/2000/svg">
<rect x="0.5" y="0.5" width="27" height="19" rx="3.5" fill="white"/>
<path d="M8.66239 4.16736H13.075C13.691 4.16736 14.0741 4.69034 13.9304 5.3341L11.876 14.5219C11.731 15.1634 11.1143 15.6868 10.4979 15.6868H6.08572C5.47061 15.6868 5.08665 15.1634 5.23034 14.5219L7.28559 5.3341C7.42928 4.69034 8.04567 4.16736 8.66239 4.16736Z" fill="#E21836"/>
<path d="M12.7075 4.16663H17.7819C18.3978 4.16663 18.1201 4.68961 17.9752 5.33336L15.9211 14.5212C15.777 15.1627 15.822 15.6861 15.2048 15.6861H10.1304C9.51327 15.6861 9.13135 15.1627 9.27633 14.5212L11.3303 5.33336C11.4761 4.68961 12.0912 4.16663 12.7075 4.16663Z" fill="#00447C"/>
<path d="M17.5809 4.16663H21.9935C22.6103 4.16663 22.9934 4.68961 22.8485 5.33336L20.7945 14.5212C20.6495 15.1627 20.0323 15.6861 19.4156 15.6861H15.005C14.3879 15.6861 14.0051 15.1627 14.1497 14.5212L16.2041 5.33336C16.3477 4.68961 16.9637 4.16663 17.5809 4.16663Z" fill="#007B84"/>
<path d="M9.81482 7.11107C9.36105 7.11589 9.22704 7.11107 9.18423 7.10054C9.16778 7.18199 8.86157 8.65335 8.86071 8.65458C8.79478 8.95226 8.74681 9.16446 8.58387 9.30148C8.49137 9.38113 8.38338 9.41956 8.25819 9.41956C8.05696 9.41956 7.93972 9.31548 7.92004 9.11807L7.91628 9.05029C7.91628 9.05029 7.97758 8.65156 7.97758 8.64932C7.97758 8.64932 8.29895 7.30848 8.3565 7.13124C8.35951 7.12115 8.36037 7.11589 8.36112 7.11107C7.73559 7.11679 7.6247 7.11107 7.61706 7.10054C7.61287 7.11499 7.59738 7.19812 7.59738 7.19812L7.26923 8.70937L7.24105 8.83754L7.18652 9.25677C7.18652 9.38113 7.20997 9.48264 7.25665 9.56846C7.40615 9.84059 7.8326 9.88137 8.07384 9.88137C8.38468 9.88137 8.67625 9.81258 8.87329 9.68699C9.21532 9.47648 9.3048 9.14743 9.38461 8.85502L9.4216 8.705C9.4216 8.705 9.75266 7.3124 9.80891 7.13124C9.81106 7.12115 9.81192 7.11589 9.81482 7.11107ZM10.9412 8.2345C10.8614 8.2345 10.7156 8.25466 10.5846 8.32155C10.537 8.34698 10.4921 8.37633 10.4446 8.40557L10.4874 8.24458L10.464 8.21747C10.1862 8.27606 10.124 8.2839 9.86738 8.32155L9.84587 8.33645C9.81608 8.59379 9.78962 8.78728 9.67916 9.29312C9.63711 9.47955 9.59344 9.66777 9.54967 9.85374L9.5615 9.87738C9.82447 9.86293 9.90427 9.86293 10.1328 9.86685L10.1513 9.8459C10.1804 9.69096 10.1841 9.65466 10.2484 9.34085C10.2787 9.19206 10.3417 8.86514 10.3728 8.74874C10.4299 8.72118 10.4862 8.69407 10.54 8.69407C10.6681 8.69407 10.6525 8.81047 10.6476 8.85685C10.6421 8.93472 10.5954 9.18904 10.5476 9.4074L10.5156 9.54834C10.4933 9.65242 10.4689 9.75358 10.4467 9.85677L10.4563 9.87738C10.7156 9.86293 10.7946 9.86293 11.016 9.86685L11.042 9.8459C11.082 9.60391 11.0937 9.53915 11.1647 9.1868L11.2004 9.02491C11.2698 8.70807 11.3046 8.54741 11.2521 8.41655C11.1966 8.2699 11.0635 8.2345 10.9412 8.2345ZM12.1995 8.56622C12.0617 8.59378 11.9739 8.61216 11.8865 8.62403C11.7999 8.63848 11.7155 8.65159 11.5824 8.67086L11.5718 8.68083L11.5621 8.68879C11.5483 8.79209 11.5386 8.88138 11.5202 8.98635C11.5046 9.09492 11.4806 9.21827 11.4416 9.39551C11.4113 9.53118 11.3957 9.57846 11.3785 9.62619C11.3618 9.67392 11.3433 9.7203 11.3093 9.85373L11.3172 9.86606L11.3239 9.87737C11.4483 9.87121 11.5298 9.86684 11.6134 9.86606C11.697 9.86292 11.7836 9.86606 11.9176 9.86684L11.9293 9.85687L11.9419 9.84589C11.9613 9.72556 11.9642 9.69319 11.976 9.63448C11.9877 9.57152 12.0079 9.48435 12.0575 9.25154C12.081 9.1422 12.1071 9.03319 12.1314 8.9216C12.1567 8.81046 12.1832 8.701 12.2083 8.59165L12.2046 8.57843L12.1995 8.56622ZM12.2024 8.11895C12.0772 8.04199 11.8575 8.06641 11.7096 8.17273C11.5622 8.27692 11.5454 8.42481 11.6702 8.50279C11.7932 8.57763 12.0138 8.55533 12.1604 8.44811C12.3075 8.34168 12.3259 8.19514 12.2024 8.11895ZM12.9596 9.90149C13.2129 9.90149 13.4725 9.82878 13.6679 9.613C13.8183 9.438 13.8872 9.17763 13.9111 9.07041C13.9889 8.71504 13.9283 8.54911 13.8523 8.44806C13.7367 8.29401 13.5326 8.2446 13.3208 8.2446C13.1935 8.2446 12.8902 8.25771 12.6532 8.48525C12.4831 8.64939 12.4045 8.87211 12.357 9.08565C12.3092 9.30322 12.2541 9.6949 12.5999 9.84066C12.7066 9.88839 12.8604 9.90149 12.9596 9.90149ZM12.9398 9.1019C12.9982 8.83279 13.0671 8.60692 13.2431 8.60692C13.381 8.60692 13.391 8.77498 13.3297 9.04498C13.3187 9.10492 13.2684 9.32776 13.2003 9.42265C13.1527 9.49268 13.0965 9.53514 13.0343 9.53514C13.0158 9.53514 12.9058 9.53514 12.9041 9.36496C12.9032 9.28093 12.9197 9.19511 12.9398 9.1019ZM14.5443 9.86689L14.5641 9.84594C14.5921 9.69099 14.5968 9.65458 14.6589 9.34088C14.69 9.1921 14.7543 8.86518 14.7845 8.74877C14.8418 8.7211 14.8971 8.69399 14.9526 8.69399C15.0799 8.69399 15.0644 8.81039 15.0593 8.85677C15.0547 8.93475 15.008 9.18896 14.9593 9.40732L14.9291 9.54826C14.906 9.65245 14.8808 9.75351 14.8585 9.8568L14.8682 9.87742C15.1283 9.86297 15.2043 9.86296 15.427 9.86689L15.4538 9.84594C15.4929 9.60383 15.5034 9.53907 15.5766 9.18683L15.6114 9.02483C15.6811 8.70799 15.7164 8.54744 15.6648 8.41659C15.6077 8.26993 15.4736 8.23453 15.3531 8.23453C15.2732 8.23453 15.1266 8.25458 14.9963 8.32158C14.9497 8.34701 14.9031 8.37625 14.8572 8.40561L14.8972 8.24461L14.8757 8.21739C14.598 8.27609 14.5346 8.28394 14.2783 8.32158L14.2586 8.33648C14.2275 8.59383 14.2022 8.7872 14.0918 9.29315C14.0497 9.47958 14.0061 9.6678 13.9624 9.85378L13.9741 9.87742C14.2375 9.86297 14.3161 9.86296 14.5443 9.86689ZM16.455 9.87736C16.4714 9.79423 16.5685 9.3015 16.5693 9.3015C16.5693 9.3015 16.6521 8.93996 16.6571 8.92685C16.6571 8.92685 16.6831 8.88921 16.7092 8.87431H16.7475C17.1087 8.87431 17.5167 8.87431 17.8364 8.62929C18.054 8.46123 18.2028 8.21307 18.2691 7.91148C18.2863 7.83753 18.299 7.74958 18.299 7.66164C18.299 7.54613 18.2768 7.43185 18.2124 7.34256C18.0494 7.10493 17.7247 7.10056 17.3499 7.09877C17.3487 7.09877 17.1651 7.10056 17.1651 7.10056C16.6853 7.10672 16.4929 7.10493 16.4138 7.09485C16.4072 7.13126 16.3946 7.19602 16.3946 7.19602C16.3946 7.19602 16.2227 8.02575 16.2227 8.0271C16.2227 8.0271 15.8114 9.79121 15.7921 9.87434C16.211 9.86907 16.3827 9.86907 16.455 9.87736ZM16.7735 8.40342C16.7735 8.40342 16.9562 7.57537 16.9554 7.57851L16.9613 7.53604L16.9639 7.50367L17.0369 7.51151C17.0369 7.51151 17.4138 7.54523 17.4226 7.54613C17.5713 7.60607 17.6326 7.76056 17.5898 7.96223C17.5508 8.14653 17.436 8.30147 17.2886 8.37631C17.1671 8.43972 17.0184 8.44499 16.8651 8.44499H16.766L16.7735 8.40342ZM17.9112 9.11723C17.8629 9.33167 17.8074 9.72335 18.1515 9.86294C18.2612 9.91157 18.3595 9.92602 18.4594 9.92075C18.5649 9.91481 18.6627 9.85969 18.7533 9.78037C18.7451 9.81297 18.7369 9.84558 18.7288 9.87829L18.7443 9.89924C18.9918 9.88837 19.0686 9.88837 19.3368 9.8905L19.3611 9.87123C19.4002 9.63148 19.4371 9.39867 19.5388 8.93999C19.5884 8.72029 19.6379 8.50272 19.6888 8.28391L19.6808 8.25983C19.404 8.31327 19.33 8.3247 19.0637 8.36402L19.0435 8.38116C19.0408 8.40346 19.038 8.42486 19.0354 8.44625C18.994 8.37657 18.934 8.31708 18.8414 8.27999C18.7229 8.23148 18.4448 8.294 18.2057 8.52076C18.0377 8.68265 17.9571 8.90448 17.9112 9.11723ZM18.4927 9.13034C18.5519 8.86605 18.62 8.64243 18.7964 8.64243C18.9079 8.64243 18.9667 8.74965 18.9547 8.93249C18.9453 8.97809 18.935 9.02615 18.9229 9.08049C18.9052 9.15902 18.8861 9.23689 18.8675 9.31486C18.8486 9.36819 18.8265 9.4185 18.8023 9.452C18.7569 9.51899 18.6489 9.56056 18.5868 9.56056C18.5691 9.56056 18.4603 9.56056 18.4565 9.3934C18.4557 9.31016 18.4721 9.22445 18.4927 9.13034ZM21.529 8.25769L21.5076 8.23226C21.2336 8.29007 21.1841 8.29925 20.9324 8.33466L20.9139 8.35393C20.913 8.35706 20.9123 8.36188 20.911 8.36625L20.9101 8.36188C20.7228 8.81215 20.7282 8.71502 20.5757 9.0695C20.5749 9.05336 20.5749 9.04328 20.574 9.02614L20.5358 8.25769L20.5118 8.23226C20.2249 8.29007 20.2181 8.29925 19.9531 8.33466L19.9324 8.35393C19.9295 8.36311 19.9295 8.3732 19.9278 8.38418L19.9295 8.3881C19.9627 8.56444 19.9547 8.52512 19.9879 8.80341C20.0034 8.93998 20.0241 9.07734 20.0396 9.21223C20.0657 9.43798 20.0803 9.54912 20.1123 9.89363C19.9333 10.2013 19.8909 10.3177 19.7186 10.5877L19.7198 10.5904L19.5985 10.7902C19.5846 10.8113 19.572 10.8258 19.5544 10.8319C19.535 10.8419 19.5099 10.8437 19.4749 10.8437H19.4077L19.3078 11.1899L19.6505 11.196C19.8518 11.1951 19.9783 11.0971 20.0463 10.9654L20.2619 10.5806H20.2584L20.2811 10.5535C20.4261 10.2284 21.529 8.25769 21.529 8.25769ZM17.9112 12.8044H17.7658L18.304 10.9501H18.4826L18.5392 10.759L18.5447 10.9715C18.538 11.1028 18.6372 11.2192 18.8977 11.1999H19.199L19.3026 10.8429H19.1893C19.1241 10.8429 19.0939 10.8257 19.0977 10.789L19.0922 10.5728H18.5343V10.574C18.3539 10.5779 17.8153 10.592 17.7062 10.6223C17.5743 10.6577 17.4352 10.7618 17.4352 10.7618L17.4898 10.5706H16.968L16.8592 10.9501L16.3138 12.8327H16.208L16.1042 13.1872H17.1436L17.1088 13.3054H17.6209L17.6549 13.1872H17.7986L17.9112 12.8044ZM17.4848 11.3268C17.4012 11.3509 17.2457 11.424 17.2457 11.424L17.384 10.9501H17.7986L17.6986 11.2954C17.6986 11.2954 17.5705 11.3032 17.4848 11.3268ZM17.4927 12.0039C17.4927 12.0039 17.3625 12.0209 17.2768 12.0411C17.1923 12.0677 17.034 12.1518 17.034 12.1518L17.1768 11.6586H17.5936L17.4927 12.0039ZM17.2604 12.8087H16.8445L16.9651 12.3925H17.3797L17.2604 12.8087ZM18.262 11.6586H18.8615L18.7754 11.9492H18.1679L18.0767 12.2669H18.6082L18.2058 12.8572C18.1776 12.9006 18.1523 12.916 18.1242 12.9282C18.0961 12.9431 18.0591 12.9605 18.0163 12.9605H17.8688L17.7675 13.3085H18.1532C18.3537 13.3085 18.4721 13.2135 18.5595 13.0888L18.8355 12.6954L18.8948 13.0949C18.9073 13.1697 18.959 13.2135 18.9939 13.2305C19.0325 13.2507 19.0724 13.2853 19.1288 13.2905C19.1892 13.2932 19.2329 13.2953 19.262 13.2953H19.4515L19.5653 12.9059H19.4905C19.4476 12.9059 19.3737 12.8984 19.3611 12.8844C19.3485 12.8673 19.3485 12.8411 19.3418 12.8012L19.2816 12.4008H19.0354L19.1434 12.2669H19.7497L19.843 11.9492H19.2816L19.3691 11.6586H19.9287L20.0325 11.3002H18.3641L18.262 11.6586ZM13.1986 12.8897L13.3385 12.4048H13.9136L14.0187 12.0441H13.443L13.5309 11.7457H14.0934L14.1976 11.3965H12.7902L12.6881 11.7457H13.0079L12.9226 12.0441H12.602L12.4957 12.4109H12.8154L12.6289 13.0524C12.6037 13.1374 12.6407 13.1697 12.6641 13.2092C12.6881 13.2476 12.7124 13.273 12.7671 13.2875C12.8234 13.3006 12.862 13.3084 12.9145 13.3084H13.5629L13.6784 12.9089L13.391 12.95C13.3355 12.95 13.1818 12.9431 13.1986 12.8897ZM13.2645 10.5684L13.1188 10.8428C13.0876 10.9027 13.0595 10.9399 13.0343 10.9571C13.012 10.9715 12.9679 10.9776 12.904 10.9776H12.828L12.7263 11.3286H12.9789C13.1003 11.3286 13.1935 11.2822 13.2381 11.259C13.2859 11.2323 13.2985 11.2476 13.3355 11.2104L13.4208 11.1334H14.2094L14.314 10.768H13.7368L13.8376 10.5684H13.2645ZM14.4287 12.8967C14.4153 12.8765 14.425 12.841 14.4455 12.7671L14.6611 12.024H15.4278C15.5396 12.0223 15.6202 12.0209 15.6727 12.017C15.7291 12.0108 15.7904 11.9899 15.8572 11.9522C15.9261 11.9128 15.9614 11.8712 15.9912 11.8235C16.0244 11.7759 16.0778 11.6717 16.1236 11.5111L16.3945 10.5706L15.5988 10.5754C15.5988 10.5754 15.3538 10.6131 15.2459 10.6547C15.1371 10.701 14.9816 10.8305 14.9816 10.8305L15.0534 10.5728H14.5619L13.8738 12.95C13.8493 13.0424 13.833 13.1094 13.8292 13.1496C13.8279 13.1929 13.8817 13.2358 13.9166 13.2682C13.9578 13.3006 14.0186 13.2953 14.077 13.3006C14.1385 13.3054 14.2258 13.3084 14.3464 13.3084H14.7241L14.84 12.9006L14.5019 12.9339C14.4657 12.9339 14.4396 12.9137 14.4287 12.8967ZM14.8001 11.522H15.6055L15.5543 11.6892C15.5471 11.6931 15.5299 11.6809 15.4479 11.691H14.7505L14.8001 11.522ZM14.9615 10.9614H15.7736L15.7152 11.1627C15.7152 11.1627 15.3324 11.1588 15.2711 11.1706C15.0014 11.2192 14.8438 11.3693 14.8438 11.3693L14.9615 10.9614ZM15.5723 12.249C15.5657 12.2739 15.5551 12.2892 15.5404 12.3006C15.524 12.3116 15.4976 12.3155 15.4581 12.3155H15.3433L15.3501 12.1119H14.8728L14.8534 13.1071C14.8527 13.179 14.8593 13.2205 14.9098 13.2538C14.9602 13.2954 15.1156 13.3006 15.3248 13.3006H15.6239L15.7319 12.9281L15.4715 12.943L15.385 12.9483C15.3731 12.943 15.3618 12.9382 15.3493 12.9251C15.3383 12.9138 15.3198 12.9207 15.3228 12.8489L15.3248 12.5938L15.5979 12.582C15.7454 12.582 15.8084 12.5321 15.8622 12.4844C15.9135 12.4389 15.9303 12.3864 15.9496 12.3155L15.9954 12.0896H15.6202L15.5723 12.249Z" fill="#FEFEFE"/>
<rect x="0.5" y="0.5" width="27" height="19" rx="3.5" stroke="#EEF2F6"/>
</svg>
