<svg width="58" height="40" viewBox="0 0 58 40" fill="none" xmlns="http://www.w3.org/2000/svg">
<rect x="0.5" y="0.5" width="57" height="39" rx="5.5" fill="white"/>
<path fill-rule="evenodd" clip-rule="evenodd" d="M24.3162 17.1754H26.1606L26.4571 15.6571H24.6124L24.3162 17.1754ZM24.1249 18.152H25.9697L24.7978 24.1469C24.7123 24.1772 24.4482 24.2838 24.0836 24.2838C23.5915 24.2838 23.14 24.0889 23.14 23.3979C23.14 23.2679 23.1548 23.1199 23.1877 22.9517C23.5542 21.081 24.1249 18.152 24.1249 18.152ZM42.442 18.015C41.2142 18.015 40.7262 18.7457 40.497 19.1904H40.4753L40.5461 18.1532H38.7231C38.7112 18.3813 38.6323 19.1003 38.5154 19.7204C38.5154 19.7204 38.0944 21.8964 38.0148 22.313C37.9541 22.6313 37.8431 23.1018 37.8431 23.3749C37.8431 23.9563 38.1334 24.284 38.781 24.284C39.1443 24.284 39.4062 24.1831 39.5015 24.1469L40.1111 21.0248C40.2802 20.1628 40.8938 19.5986 41.6234 19.5986C42.2121 19.5986 42.4935 20.0348 42.4935 20.3915C42.4935 20.7018 42.4168 21.0458 42.3575 21.35L42.0954 22.687C42.0641 22.8475 41.9974 23.1558 41.9974 23.3976C41.9974 23.9886 42.3254 24.284 42.9484 24.284C43.2885 24.284 43.5041 24.1976 43.6569 24.1469L44.204 21.3481C44.3226 20.7156 44.3663 20.3825 44.3663 19.9799C44.3663 18.8209 43.6993 18.015 42.442 18.015ZM34.248 19.4646C33.2169 19.4646 32.6457 20.5357 32.6457 21.4904C32.6457 22.2956 33.0037 22.8349 33.8173 22.8349C34.7371 22.8349 35.4569 22.0396 35.4569 20.6822C35.4569 20.0612 35.1316 19.4646 34.248 19.4646ZM33.7041 24.2842C31.729 24.2842 30.7839 23.0806 30.7839 21.5465C30.7839 19.4416 32.2064 18.015 34.4046 18.015C36.3118 18.015 37.3246 19.1884 37.3246 20.6953C37.3246 22.9535 35.8053 24.2842 33.7041 24.2842ZM26.7965 22.8407C26.7545 23.0565 26.7279 23.2076 26.7279 23.3934C26.7279 24.0806 27.18 24.284 27.659 24.284C28.0422 24.284 28.2792 24.1775 28.366 24.1469L29.2529 19.6027L30.6871 19.6025L30.9703 18.152L29.5362 18.1521L29.6059 17.7948C29.7357 17.1248 30.046 16.8303 30.5828 16.8303C30.9412 16.8303 31.2312 16.895 31.332 16.9217L31.6019 15.5424C31.4869 15.5129 30.9569 15.381 30.1725 15.381C28.9225 15.381 28.1036 16.1524 27.8615 17.3948L27.7132 18.152H26.7795L26.4962 19.6025H27.4305C27.4305 19.6025 27.062 21.4814 26.7965 22.8407ZM22.5499 18.0152C21.6241 18.0152 21.1149 18.6684 20.9158 19.1895H20.8945L20.9657 18.152H19.142C19.1259 18.5116 19.0518 19.1197 18.866 20.0757C18.6777 21.0446 18.4942 22.011 18.3048 22.9516C18.2724 23.1124 18.2579 23.2697 18.2579 23.4028C18.2579 23.8955 18.4975 24.2835 19.2053 24.2835C19.556 24.2835 19.7996 24.191 19.9165 24.1469L20.459 21.3677C20.6545 20.3044 21.0095 19.6014 22.0395 19.6014C22.508 19.6014 22.9531 19.703 23.0464 19.7308L23.3586 18.1317C23.2912 18.1081 23.0208 18.0152 22.5499 18.0152ZM49.3059 20.5818C49.4046 20.0321 49.09 19.4646 48.3788 19.4646C47.5104 19.4646 47.129 20.0675 46.9587 20.5818H49.3059ZM50.129 22.8126C50.129 23.6464 49.3345 24.2857 47.9275 24.2857C45.983 24.2857 45.0322 23.0549 45.0322 21.5481C45.0322 20.0524 46.0093 18.0166 48.3942 18.0166C49.9666 18.0166 51.1424 18.8104 51.1424 20.6277C51.1424 21.0747 51.0444 21.5606 51.0023 21.7552H46.8225C46.8156 22.1912 47.1773 22.947 48.6301 22.947C49.2776 22.947 50.0108 22.7145 50.129 22.6553C50.129 22.7006 50.129 22.7826 50.129 22.8126ZM15.9757 20.5818C16.0742 20.0321 15.7596 19.4646 15.0484 19.4646C14.18 19.4646 13.7988 20.0675 13.6283 20.5818H15.9757ZM16.7988 22.8126C16.7988 23.6464 16.0043 24.2857 14.5975 24.2857C12.6529 24.2857 11.7022 23.0549 11.7022 21.5481C11.7022 20.0524 12.6791 18.0166 15.0642 18.0166C16.6366 18.0166 17.8124 18.8104 17.8124 20.6277C17.8124 21.0747 17.7144 21.5606 17.6722 21.7552H13.4925C13.4856 22.1912 13.8471 22.947 15.3 22.947C15.9475 22.947 16.6807 22.7145 16.7988 22.6553C16.7988 22.7006 16.7988 22.7826 16.7988 22.8126ZM5.71436 16.1121H7.57007V22.0728C7.57007 22.9691 8.00908 23.4267 8.71386 23.4267C8.78574 23.4267 8.82812 23.4174 8.84209 23.4139C8.53317 23.889 8.13265 24.2786 7.21302 24.2786C6.23999 24.2786 5.71436 23.5922 5.71436 22.5621V16.1121Z" fill="#1A1919"/>
<path fill-rule="evenodd" clip-rule="evenodd" d="M8.24092 21.2128C8.1403 21.3724 8.08691 21.5573 8.08691 21.746V22.0827C8.08691 22.687 8.4081 22.9036 8.75878 22.9036C9.11723 22.9036 9.3091 22.6566 9.48514 22.3757C9.7801 21.9055 13.3844 16.1121 13.3844 16.1121H11.4556L8.24092 21.2128Z" fill="#00A3DA"/>
<rect x="0.5" y="0.5" width="57" height="39" rx="5.5" stroke="#EEF2F6"/>
</svg>
