<svg width="34" height="24" viewBox="0 0 34 24" fill="none" xmlns="http://www.w3.org/2000/svg">
<rect x="0.5" y="0.5" width="33" height="23" rx="3.5" fill="white"/>
<path fill-rule="evenodd" clip-rule="evenodd" d="M14.5898 10.3052H15.6965L15.8744 9.39423H14.7675L14.5898 10.3052ZM14.475 10.8912H15.5819L14.8788 14.4881C14.8275 14.5063 14.669 14.5703 14.4502 14.5703C14.155 14.5703 13.8841 14.4534 13.8841 14.0387C13.8841 13.9608 13.893 13.872 13.9127 13.771C14.1326 12.6486 14.475 10.8912 14.475 10.8912ZM25.4653 10.809C24.7286 10.809 24.4358 11.2474 24.2983 11.5143H24.2853L24.3277 10.8919H23.234C23.2268 11.0288 23.1795 11.4601 23.1093 11.8322C23.1093 11.8322 22.8567 13.1378 22.809 13.3878C22.7725 13.5787 22.7059 13.8611 22.7059 14.0249C22.7059 14.3737 22.8801 14.5704 23.2687 14.5704C23.4867 14.5704 23.6438 14.5098 23.701 14.4881L24.0668 12.6149C24.1682 12.0976 24.5364 11.7591 24.9742 11.7591C25.3274 11.7591 25.4962 12.0209 25.4962 12.2349C25.4962 12.4211 25.4502 12.6275 25.4146 12.81L25.2573 13.6122C25.2386 13.7085 25.1985 13.8935 25.1985 14.0386C25.1985 14.3932 25.3953 14.5704 25.7691 14.5704C25.9732 14.5704 26.1026 14.5186 26.1942 14.4881L26.5225 12.8089C26.5936 12.4293 26.6199 12.2295 26.6199 11.9879C26.6199 11.2925 26.2197 10.809 25.4653 10.809ZM20.5489 11.6788C19.9302 11.6788 19.5875 12.3214 19.5875 12.8943C19.5875 13.3774 19.8023 13.7009 20.2905 13.7009C20.8424 13.7009 21.2743 13.2238 21.2743 12.4093C21.2743 12.0367 21.079 11.6788 20.5489 11.6788ZM20.2226 14.5705C19.0375 14.5705 18.4705 13.8484 18.4705 12.9279C18.4705 11.6649 19.3239 10.809 20.6428 10.809C21.7872 10.809 22.3949 11.513 22.3949 12.4172C22.3949 13.7721 21.4833 14.5705 20.2226 14.5705ZM16.078 13.7044C16.0528 13.8339 16.0369 13.9246 16.0369 14.036C16.0369 14.4483 16.3081 14.5704 16.5955 14.5704C16.8254 14.5704 16.9676 14.5065 17.0197 14.4881L17.5518 11.7616L18.4124 11.7615L18.5823 10.8912L17.7218 10.8913L17.7636 10.6769C17.8415 10.2749 18.0277 10.0982 18.3498 10.0982C18.5648 10.0982 18.7388 10.137 18.7993 10.153L18.9613 9.32543C18.8922 9.30771 18.5743 9.22858 18.1036 9.22858C17.3536 9.22858 16.8623 9.69142 16.717 10.4369L16.628 10.8912H16.0678L15.8978 11.7615H16.4584C16.4584 11.7615 16.2373 12.8888 16.078 13.7044ZM13.5301 10.8091C12.9746 10.8091 12.6691 11.2011 12.5495 11.5137H12.5368L12.5795 10.8912H11.4853C11.4756 11.1069 11.4312 11.4718 11.3197 12.0454C11.2067 12.6267 11.0966 13.2066 10.983 13.7709C10.9635 13.8674 10.9549 13.9618 10.9549 14.0417C10.9549 14.3373 11.0986 14.5701 11.5233 14.5701C11.7337 14.5701 11.8799 14.5146 11.95 14.4881L12.2755 12.8206C12.3928 12.1826 12.6058 11.7608 13.2238 11.7608C13.5049 11.7608 13.772 11.8218 13.8279 11.8385L14.0152 10.879C13.9748 10.8648 13.8126 10.8091 13.5301 10.8091ZM29.5836 12.3491C29.6429 12.0193 29.4541 11.6788 29.0274 11.6788C28.5064 11.6788 28.2775 12.0405 28.1753 12.3491H29.5836ZM30.0775 13.6875C30.0775 14.1878 29.6008 14.5714 28.7566 14.5714C27.5899 14.5714 27.0194 13.8329 27.0194 12.9288C27.0194 12.0314 27.6057 10.8099 29.0366 10.8099C29.9801 10.8099 30.6855 11.2862 30.6855 12.3766C30.6855 12.6448 30.6267 12.9363 30.6015 13.0531H28.0936C28.0894 13.3147 28.3065 13.7682 29.1782 13.7682C29.5667 13.7682 30.0066 13.6287 30.0775 13.5932C30.0775 13.6204 30.0775 13.6695 30.0775 13.6875ZM9.5855 12.3491C9.64464 12.0193 9.45584 11.6788 9.02915 11.6788C8.50811 11.6788 8.27935 12.0405 8.17708 12.3491H9.5855ZM10.0794 13.6875C10.0794 14.1878 9.60268 14.5714 8.75862 14.5714C7.59181 14.5714 7.02141 13.8329 7.02141 12.9288C7.02141 12.0314 7.60756 10.8099 9.0386 10.8099C9.98205 10.8099 10.6875 11.2862 10.6875 12.3766C10.6875 12.6448 10.6287 12.9363 10.6034 13.0531H8.09562C8.09143 13.3147 8.30836 13.7682 9.18009 13.7682C9.56859 13.7682 10.0085 13.6287 10.0794 13.5932C10.0794 13.6204 10.0794 13.6695 10.0794 13.6875ZM3.42871 9.66726H4.54214V13.2437C4.54214 13.7815 4.80555 14.056 5.22842 14.056C5.27154 14.056 5.29697 14.0504 5.30535 14.0483C5.12 14.3334 4.87969 14.5672 4.32791 14.5672C3.74409 14.5672 3.42871 14.1553 3.42871 13.5372V9.66726Z" fill="#1A1919"/>
<path fill-rule="evenodd" clip-rule="evenodd" d="M5.00605 12.6299C4.90544 12.7895 4.85205 12.9744 4.85205 13.1631V13.2496C4.85205 13.6122 5.04476 13.7421 5.25517 13.7421C5.47024 13.7421 5.58536 13.5939 5.69099 13.4254C5.86796 13.1433 8.03055 9.66724 8.03055 9.66724H6.87325L5.00605 12.6299Z" fill="#00A3DA"/>
<rect x="0.5" y="0.5" width="33" height="23" rx="3.5" stroke="#EEF2F6"/>
</svg>
