<svg width="34" height="24" viewBox="0 0 34 24" fill="none" xmlns="http://www.w3.org/2000/svg">
<rect x="0.5" y="0.5" width="33" height="23" rx="3.5" fill="white"/>
<path fill-rule="evenodd" clip-rule="evenodd" d="M12.5432 16.1535C12.6973 16.0735 12.9593 15.9684 13.2368 15.9684C13.8738 15.9684 14.2181 16.3985 14.2181 17.199C14.2181 18.134 13.7559 18.5892 13.0108 18.5892C12.7383 18.5892 12.3171 18.5042 12.0087 18.3439V14.8532L12.5432 14.7281V16.1535ZM12.5381 18.159C12.7024 18.229 12.8823 18.2389 13.0108 18.2389C13.391 18.2389 13.6787 18.0089 13.6787 17.199C13.6787 16.5636 13.4424 16.3586 13.0981 16.3586C12.8925 16.3586 12.7436 16.4136 12.5381 16.5236V18.159ZM7.06555 16.0333H7.10154L7.80017 18.5291H8.35504L9.18753 14.983H8.58632L8.06225 17.6288H8.02645L7.31209 14.983H6.85482L6.1869 17.6288H6.15091L5.57541 14.983H5L5.8324 18.5291H6.38718L7.06555 16.0333ZM11.4644 18.359V17.9789C11.1818 18.1439 10.9249 18.2389 10.6475 18.2389C10.1183 18.2389 9.86655 17.9737 9.86655 17.3737H11.5414V17.1887C11.5414 16.3736 11.1458 15.9684 10.5037 15.9684C9.73296 15.9684 9.3373 16.5186 9.3373 17.2787C9.3373 18.069 9.6918 18.5892 10.5549 18.5892C10.9249 18.5892 11.2332 18.4892 11.4644 18.359ZM11.0533 17.0387H9.87695C9.93329 16.5386 10.1747 16.3035 10.4883 16.3035C10.7657 16.3035 11.0279 16.5134 11.0533 17.0387ZM16.5817 17.7789H16.5559L15.405 14.983H14.7834V18.5291H15.2458V16.0185H15.292L16.3403 18.5291H16.669L17.7172 15.9584H17.7636V18.5291H18.3184V14.983H17.6812L16.5817 17.7789ZM18.8837 17.2787C18.8837 16.4034 19.377 15.9684 20.0551 15.9684C20.7334 15.9684 21.2268 16.4034 21.2268 17.2787C21.2268 18.134 20.7591 18.5892 20.0551 18.5892C19.3512 18.5892 18.8837 18.134 18.8837 17.2787ZM20.6871 17.2787C20.6871 16.6036 20.4044 16.3186 20.0551 16.3186C19.716 16.3186 19.4231 16.6036 19.4231 17.2787C19.4231 17.9641 19.6904 18.2389 20.0551 18.2389C20.4199 18.2389 20.6871 17.9641 20.6871 17.2787ZM23.0247 15.9684C22.4341 15.9684 21.9458 16.2034 21.7146 16.3385V18.5291H22.2491V16.5486C22.4083 16.4587 22.6704 16.3685 22.876 16.3685C23.138 16.3685 23.3382 16.4385 23.3382 16.8337V18.5291H23.8725V16.7185C23.8725 16.2034 23.6415 15.9684 23.0247 15.9684ZM26.4774 17.9789V18.359C26.2463 18.4892 25.9382 18.5892 25.5681 18.5892C24.705 18.5892 24.3505 18.069 24.3505 17.2787C24.3505 16.5186 24.7462 15.9684 25.5168 15.9684C26.1592 15.9684 26.5549 16.3736 26.5549 17.1887V17.3737H24.8799C24.8799 17.9737 25.1316 18.2389 25.6608 18.2389C25.9382 18.2389 26.1951 18.1439 26.4774 17.9789ZM24.8901 17.0387H26.0667C26.0411 16.5134 25.7789 16.3035 25.5014 16.3035C25.1879 16.3035 24.9467 16.5386 24.8901 17.0387ZM29.1034 16.0534H28.5536L27.9676 17.8938H27.937L27.2793 16.0534H26.7141L27.7006 18.5541C27.5771 18.9241 27.3616 19.1944 27.0122 19.1944V19.6043C27.6028 19.6043 27.9163 19.2444 28.1733 18.5541L29.1034 16.0534Z" fill="#0068A3"/>
<path fill-rule="evenodd" clip-rule="evenodd" d="M16.7073 4.5C17.4144 4.5 18.0841 4.66028 18.6805 4.94484C18.7742 4.98809 18.8676 5.03568 18.9613 5.08822L18.5467 5.44938L17.9238 4.8225L16.8726 5.73517L16.2482 5.07186L14.29 6.78999L15.5454 8.1367L15.0521 8.55907L16.2886 9.90781L15.7981 10.3292L17.5651 12.2436L18.6139 11.3037L19.5208 12.3109C19.3404 12.4474 19.1439 12.5759 18.9275 12.6946C18.2717 13.0585 17.5138 13.2669 16.7073 13.2669C14.227 13.2669 12.2041 11.2976 12.2041 8.88361C12.2041 6.46908 14.227 4.5 16.7073 4.5ZM15.8866 8.60647L16.9575 7.6678L17.9217 8.71041L16.851 9.64873L15.8866 8.60647ZM17.719 9.46916L16.6481 10.4076L17.6125 11.4502L18.6834 10.5115L17.719 9.46916ZM15.1204 6.82642L16.1913 5.88801L17.1552 6.93036L16.0844 7.86876L15.1204 6.82642ZM17.8886 5.61752L17.0855 6.32126L17.8086 7.10328L18.6117 6.39928L17.8886 5.61752ZM18.5124 9.54533L19.3159 8.84132L20.0389 9.62325L19.2358 10.3271L18.5124 9.54533ZM20.022 10.4203L19.219 11.1244L19.9421 11.9059L20.7452 11.2021L20.022 10.4203ZM19.5425 7.50532L20.0779 7.03607L20.5599 7.55724L20.0247 8.0264L19.5425 7.50532ZM19.3938 5.48759L18.8584 5.95675L19.3404 6.47792L19.8759 6.00876L19.3938 5.48759ZM20.2269 9.0538L20.7624 8.58455L21.2445 9.10563L20.709 9.57488L20.2269 9.0538ZM18.6288 7.18936L17.8257 7.89346L18.549 8.67495L19.3519 7.97112L18.6288 7.18936Z" fill="#0068A3"/>
<rect x="0.5" y="0.5" width="33" height="23" rx="3.5" stroke="#EEF2F6"/>
</svg>
