<svg width="58" height="40" viewBox="0 0 58 40" fill="none" xmlns="http://www.w3.org/2000/svg">
<rect x="0.5" y="0.5" width="57" height="39" rx="5.5" fill="white"/>
<path d="M25.317 23.0931C25.2037 23.1534 25.0762 23.1882 24.9406 23.1882C24.6269 23.1882 24.3542 23.0063 24.211 22.7371L24.1561 22.6107L21.8718 17.328C21.8471 17.2706 21.8319 17.2056 21.8319 17.1423C21.8319 16.8988 22.0192 16.7016 22.2502 16.7016C22.3439 16.7016 22.4307 16.7343 22.5005 16.789L25.1961 18.8117C25.393 18.9473 25.6284 19.027 25.8813 19.027C26.0323 19.027 26.1762 18.9974 26.3105 18.9459L38.9873 13C36.7149 10.1778 32.9727 8.33331 28.7378 8.33331C21.8078 8.33331 16.1904 13.2668 16.1904 19.3529C16.1904 22.673 17.8805 25.6619 20.5259 27.6821C20.7381 27.8418 20.8771 28.1041 20.8771 28.4002C20.8771 28.4981 20.8571 28.5874 20.8328 28.6808C20.6216 29.5113 20.2834 30.8415 20.2677 30.9038C20.2413 31.008 20.2001 31.1169 20.2001 31.226C20.2001 31.4694 20.3873 31.6666 20.6187 31.6666C20.7093 31.6666 20.7835 31.631 20.8601 31.5846L23.6071 29.9132C23.8137 29.7877 24.0324 29.7097 24.2735 29.7097C24.4017 29.7097 24.5256 29.7307 24.6421 29.7682C25.9236 30.1567 27.3062 30.3725 28.7379 30.3725C35.6675 30.3725 41.2857 25.4388 41.2857 19.3529C41.2857 17.5095 40.7673 15.7734 39.8563 14.2463L25.4089 23.0372L25.317 23.0931Z" fill="#1AAD19"/>
<rect x="0.5" y="0.5" width="57" height="39" rx="5.5" stroke="#EEF2F6"/>
</svg>
