<svg width="28" height="20" viewBox="0 0 28 20" fill="none" xmlns="http://www.w3.org/2000/svg">
<rect x="0.5" y="0.5" width="27" height="19" rx="3.5" fill="white"/>
<path d="M12.5096 11.5466C12.4536 11.5767 12.3906 11.5941 12.3236 11.5941C12.1686 11.5941 12.0338 11.5032 11.9631 11.3686L11.936 11.3054L10.8073 8.66402C10.7951 8.63531 10.7875 8.60281 10.7875 8.57118C10.7875 8.44945 10.8801 8.35084 10.9942 8.35084C11.0405 8.35084 11.0834 8.3672 11.1179 8.39453L12.4499 9.40588C12.5472 9.4737 12.6634 9.51351 12.7884 9.51351C12.863 9.51351 12.9342 9.49871 13.0005 9.47296L19.2643 6.50003C18.1415 5.08895 16.2924 4.16669 14.1999 4.16669C10.7757 4.16669 8 6.63341 8 9.67648C8 11.3365 8.8351 12.831 10.1422 13.8411C10.2471 13.9209 10.3157 14.0521 10.3157 14.2001C10.3157 14.2491 10.3059 14.2937 10.2939 14.3404C10.1895 14.7557 10.0224 15.4208 10.0146 15.4519C10.0016 15.504 9.98127 15.5585 9.98127 15.613C9.98127 15.7347 10.0737 15.8334 10.1881 15.8334C10.2329 15.8334 10.2695 15.8156 10.3074 15.7923L11.6647 14.9566C11.7668 14.8939 11.8749 14.8549 11.994 14.8549C12.0573 14.8549 12.1186 14.8654 12.1761 14.8841C12.8093 15.0784 13.4925 15.1863 14.1999 15.1863C17.624 15.1863 20.4 12.7194 20.4 9.67648C20.4 8.75478 20.1439 7.88675 19.6937 7.12316L12.555 11.5186L12.5096 11.5466Z" fill="#1AAD19"/>
<rect x="0.5" y="0.5" width="27" height="19" rx="3.5" stroke="#EEF2F6"/>
</svg>
