<svg width="46" height="32" viewBox="0 0 46 32" fill="none" xmlns="http://www.w3.org/2000/svg">
<rect x="0.5" y="0.5" width="45" height="31" rx="3.5" fill="white"/>
<path d="M20.2534 18.4745C20.1628 18.5227 20.0608 18.5506 19.9523 18.5506C19.7013 18.5506 19.4831 18.4051 19.3686 18.1897L19.3247 18.0886L17.4972 13.8624C17.4775 13.8165 17.4653 13.7645 17.4653 13.7139C17.4653 13.5191 17.6152 13.3613 17.8 13.3613C17.8749 13.3613 17.9444 13.3875 18.0002 13.4312L20.1567 15.0494C20.3142 15.1579 20.5025 15.2216 20.7049 15.2216C20.8257 15.2216 20.9408 15.1979 21.0482 15.1567L31.1896 10.4C29.3718 8.1423 26.3779 6.66669 22.9901 6.66669C17.4461 6.66669 12.9521 10.6134 12.9521 15.4824C12.9521 18.1384 14.3042 20.5295 16.4205 22.1457C16.5903 22.2735 16.7015 22.4833 16.7015 22.7202C16.7015 22.7985 16.6855 22.87 16.6661 22.9447C16.497 23.6091 16.2265 24.6732 16.214 24.7231C16.1928 24.8064 16.1599 24.8936 16.1599 24.9808C16.1599 25.1756 16.3096 25.3334 16.4947 25.3334C16.5672 25.3334 16.6266 25.3049 16.6879 25.2677L18.8854 23.9306C19.0508 23.8302 19.2257 23.7678 19.4186 23.7678C19.5212 23.7678 19.6203 23.7846 19.7135 23.8146C20.7387 24.1254 21.8448 24.298 22.9901 24.298C28.5338 24.298 33.0283 20.351 33.0283 15.4824C33.0283 14.0076 32.6136 12.6188 31.8848 11.397L20.3269 18.4298L20.2534 18.4745Z" fill="#1AAD19"/>
<rect x="0.5" y="0.5" width="45" height="31" rx="3.5" stroke="#EEF2F6"/>
</svg>
