<svg width="34" height="24" viewBox="0 0 34 24" fill="none" xmlns="http://www.w3.org/2000/svg">
<rect x="0.5" y="0.5" width="33" height="23" rx="3.5" fill="white"/>
<path d="M23.8002 10.7791C23.7301 10.3461 23.3445 10.0574 22.8187 10.0574C22.6434 10.0574 22.5032 10.0574 22.3279 10.0574C22.0125 10.0213 21.9423 10.1296 21.9423 10.3822C21.9423 11.6451 21.9423 12.872 21.9423 14.135C21.9423 14.7845 21.3114 15.4701 20.5752 15.6145C18.2617 16.1557 15.9482 16.6609 13.6346 17.2022C13.3892 17.2744 13.1088 17.2744 12.8284 17.2744C12.7232 17.2744 12.5479 17.2022 12.5129 17.0939C12.4778 17.0218 12.583 16.8774 12.6531 16.8053C12.7583 16.7331 12.8985 16.6609 13.0387 16.5888C13.4593 16.4444 13.915 16.3001 14.3357 16.1557C16.0533 15.5784 17.7709 15.001 19.4886 14.3876C20.2598 14.135 20.6804 13.5937 20.6804 12.9081C20.7155 10.743 20.6804 8.54186 20.6804 6.37678C20.6804 6.01593 20.5051 5.72725 20.1195 5.58291C19.6638 5.40249 19.2432 5.54683 18.8576 5.72725C16.4038 6.91805 13.9851 8.10885 11.5314 9.29964C10.8303 9.66049 10.4097 10.1657 10.4097 10.8874C10.4097 12.9442 10.4097 15.001 10.4097 17.0579C10.4097 17.1661 10.4097 17.2744 10.4447 17.3465C10.6901 18.0321 11.3211 18.4652 12.1624 18.4652C13.88 18.4652 15.5976 18.4652 17.3152 18.4652C19.0329 18.4652 20.7155 18.4652 22.4331 18.4652C22.8187 18.4652 23.1342 18.393 23.4146 18.1404C23.7651 17.8517 23.7651 17.4548 23.7651 17.0939C23.7651 15.3187 23.8002 10.7791 23.8002 10.7791ZM16.6492 10.1296C16.8245 9.66049 17.2101 9.37181 17.771 9.29964C18.1565 9.26356 18.472 9.48006 18.5421 9.84091C18.6122 10.3822 17.9813 11.0317 17.3152 11.0317C16.7894 11.0317 16.474 10.6348 16.6492 10.1296Z" fill="#FD6727"/>
<rect x="0.5" y="0.5" width="33" height="23" rx="3.5" stroke="#EEF2F6"/>
</svg>
