<svg width="28" height="20" viewBox="0 0 28 20" fill="none" xmlns="http://www.w3.org/2000/svg">
<rect x="0.5" y="0.5" width="27" height="19" rx="3.5" fill="white"/>
<path d="M19.6002 8.98263C19.5425 8.62179 19.225 8.38122 18.7919 8.38122C18.6476 8.38122 18.5321 8.38122 18.3878 8.38122C18.128 8.35115 18.0703 8.44137 18.0703 8.65186C18.0703 9.70433 18.0703 10.7267 18.0703 11.7792C18.0703 12.3205 17.5506 12.8918 16.9444 13.0121C15.0391 13.4632 13.1339 13.8841 11.2286 14.3352C11.0265 14.3953 10.7956 14.3953 10.5646 14.3953C10.478 14.3953 10.3337 14.3352 10.3048 14.245C10.276 14.1848 10.3626 14.0646 10.4203 14.0044C10.5069 13.9443 10.6224 13.8841 10.7378 13.824C11.0843 13.7037 11.4595 13.5834 11.8059 13.4632C13.2205 12.982 14.635 12.5009 16.0495 11.9897C16.6846 11.7792 17.031 11.3281 17.031 10.7568C17.0599 8.95257 17.031 7.11826 17.031 5.31402C17.031 5.01332 16.8867 4.77275 16.5691 4.65247C16.1938 4.50212 15.8474 4.6224 15.5299 4.77275C13.5091 5.76508 11.5173 6.75741 9.49652 7.74974C8.91916 8.05045 8.57275 8.47143 8.57275 9.07285C8.57275 10.7869 8.57275 12.5009 8.57275 14.2149C8.57275 14.3051 8.57275 14.3953 8.60161 14.4555C8.80369 15.0268 9.32332 15.3877 10.0161 15.3877C11.4307 15.3877 12.8452 15.3877 14.2597 15.3877C15.6742 15.3877 17.0599 15.3877 18.4744 15.3877C18.7919 15.3877 19.0517 15.3275 19.2827 15.117C19.5714 14.8765 19.5714 14.5457 19.5714 14.245C19.5714 12.7656 19.6002 8.98263 19.6002 8.98263ZM13.7112 8.44137C13.8556 8.05045 14.1731 7.80988 14.635 7.74974C14.9525 7.71967 15.2123 7.90009 15.2701 8.2008C15.3278 8.65186 14.8082 9.19313 14.2597 9.19313C13.8267 9.19313 13.5669 8.86235 13.7112 8.44137Z" fill="#FD6727"/>
<rect x="0.5" y="0.5" width="27" height="19" rx="3.5" stroke="#EEF2F6"/>
</svg>
