<svg width="58" height="40" viewBox="0 0 58 40" fill="none" xmlns="http://www.w3.org/2000/svg">
<rect x="0.5" y="0.5" width="57" height="39" rx="5.5" fill="white"/>
<path d="M39.6666 17.9651C39.5498 17.2435 38.9072 16.7623 38.0308 16.7623C37.7387 16.7623 37.505 16.7623 37.2129 16.7623C36.6871 16.7022 36.5702 16.8826 36.5702 17.3036C36.5702 19.4085 36.5702 21.4533 36.5702 23.5583C36.5702 24.6408 35.5186 25.7835 34.2918 26.0241C30.4358 26.9262 26.5799 27.7682 22.724 28.6703C22.3151 28.7906 21.8477 28.7906 21.3803 28.7906C21.205 28.7906 20.9129 28.6703 20.8545 28.4899C20.7961 28.3696 20.9713 28.129 21.0882 28.0087C21.2635 27.8884 21.4971 27.7682 21.7308 27.6479C22.4319 27.4073 23.1914 27.1668 23.8925 26.9262C26.7552 25.9639 29.6179 25.0017 32.4806 23.9793C33.7659 23.5583 34.467 22.6562 34.467 21.5135C34.5254 17.905 34.467 14.2364 34.467 10.6279C34.467 10.0265 34.1749 9.54538 33.5322 9.30482C32.7728 9.00411 32.0717 9.24467 31.429 9.54538C27.3394 11.53 23.3082 13.5147 19.2186 15.4994C18.0502 16.1008 17.3491 16.9427 17.3491 18.1456C17.3491 21.5736 17.3491 25.0017 17.3491 28.4297C17.3491 28.6101 17.3491 28.7906 17.4075 28.9109C17.8165 30.0535 18.8681 30.7752 20.2703 30.7752C23.133 30.7752 25.9957 30.7752 28.8584 30.7752C31.7211 30.7752 34.5254 30.7752 37.3882 30.7752C38.0308 30.7752 38.5566 30.6549 39.024 30.234C39.6082 29.7528 39.6082 29.0913 39.6082 28.4899C39.6082 25.531 39.6666 17.9651 39.6666 17.9651ZM27.7484 16.8826C28.0405 16.1008 28.6832 15.6196 29.6179 15.4994C30.2606 15.4392 30.7864 15.8001 30.9032 16.4015C31.0201 17.3036 29.9685 18.3861 28.8584 18.3861C27.9821 18.3861 27.4563 17.7246 27.7484 16.8826Z" fill="#FD6727"/>
<rect x="0.5" y="0.5" width="57" height="39" rx="5.5" stroke="#EEF2F6"/>
</svg>
