<svg width="40" height="40" viewBox="0 0 40 40" fill="none" xmlns="http://www.w3.org/2000/svg">
<path d="M4 4C4 1.79086 5.79086 0 8 0H24L36 12V36C36 38.2091 34.2091 40 32 40H8C5.79086 40 4 38.2091 4 36V4Z" fill="url(#paint0_linear_6726_49412)"/>
<path d="M24 0L36 12H28C25.7909 12 24 10.2091 24 8V0Z" fill="#CDD5DF"/>
<path d="M9.88989 32V25.52H12.0499L13.8499 31.766H13.0669L14.8669 25.52H17.0359V32H15.6679V25.907H15.9019L14.1469 32H12.7159L10.9789 25.961H11.2039V32H9.88989Z" fill="#4B5565"/>
<path d="M17.9319 32V25.52H19.3179V32H17.9319ZM18.8769 28.634L21.7929 25.52H23.6379L20.5599 28.634H18.8769ZM21.9369 32L18.8589 28.634H20.5599L23.8179 32H21.9369Z" fill="#4B5565"/>
<path d="M26.4711 32L24.1491 25.52H25.5891L27.3621 30.92H27.1911L28.9731 25.52H30.3411L28.0191 32H26.4711Z" fill="#4B5565"/>
<defs>
<linearGradient id="paint0_linear_6726_49412" x1="20" y1="0" x2="20" y2="40" gradientUnits="userSpaceOnUse">
<stop stop-color="#F9FAFB"/>
<stop offset="1" stop-color="#EDF0F3"/>
</linearGradient>
</defs>
</svg>
