<svg width="40" height="40" viewBox="0 0 40 40" fill="none" xmlns="http://www.w3.org/2000/svg">
<path d="M7.75 4C7.75 2.20508 9.20508 0.75 11 0.75H27C27.1212 0.75 27.2375 0.798159 27.3232 0.883885L38.1161 11.6768C38.2018 11.7625 38.25 11.8788 38.25 12V36C38.25 37.7949 36.7949 39.25 35 39.25H11C9.20507 39.25 7.75 37.7949 7.75 36V4Z" fill="white" stroke="#CDD5DF" stroke-width="1.5"/>
<path d="M27 0.5V8C27 10.2091 28.7909 12 31 12H38.5" stroke="#CDD5DF" stroke-width="1.5"/>
<rect x="0.638184" y="18" width="30.7235" height="16" rx="2" fill="#0F6AF5"/>
<path d="M4.63818 29.6V22.4H7.03818L9.03818 29.34H8.16818L10.1682 22.4H12.5782V29.6H11.0582V22.83H11.3182L9.36818 29.6H7.77818L5.84818 22.89H6.09818V29.6H4.63818Z" fill="white"/>
<path d="M13.5737 29.6V22.4H15.1137V29.6H13.5737ZM14.6237 25.86L17.8637 22.4H19.9137L16.4937 25.86H14.6237ZM18.0237 29.6L14.6037 25.86H16.4937L20.1137 29.6H18.0237Z" fill="white"/>
<path d="M23.0617 29.6L20.4817 22.4H22.0817L24.0517 28.4H23.8617L25.8417 22.4H27.3617L24.7817 29.6H23.0617Z" fill="white"/>
</svg>
