<svg width="40" height="40" viewBox="0 0 40 40" fill="none" xmlns="http://www.w3.org/2000/svg">
<path d="M7.75 4C7.75 2.20508 9.20508 0.75 11 0.75H27C27.1212 0.75 27.2375 0.798159 27.3232 0.883885L38.1161 11.6768C38.2018 11.7625 38.25 11.8788 38.25 12V36C38.25 37.7949 36.7949 39.25 35 39.25H11C9.20507 39.25 7.75 37.7949 7.75 36V4Z" fill="white" stroke="#CDD5DF" stroke-width="1.5"/>
<path d="M27 0.5V8C27 10.2091 28.7909 12 31 12H38.5" stroke="#CDD5DF" stroke-width="1.5"/>
<rect x="1.19604" y="18" width="28.6079" height="16" rx="2" fill="#0F6AF5"/>
<path d="M5.19604 29.6V22.4H7.59605L9.59605 29.34H8.72605L10.726 22.4H13.136V29.6H11.616V22.83H11.876L9.92604 29.6H8.33605L6.40604 22.89H6.65604V29.6H5.19604Z" fill="white"/>
<path d="M14.1316 29.6V22.4H17.5516C18.0849 22.4 18.5416 22.4933 18.9216 22.68C19.3083 22.8667 19.6049 23.1267 19.8116 23.46C20.0249 23.7933 20.1316 24.1833 20.1316 24.63C20.1316 25.0767 20.0249 25.47 19.8116 25.81C19.5983 26.15 19.2983 26.4167 18.9116 26.61C18.5316 26.7967 18.0783 26.89 17.5516 26.89H15.3516V25.71H17.4716C17.8249 25.71 18.0983 25.6133 18.2916 25.42C18.4916 25.22 18.5916 24.96 18.5916 24.64C18.5916 24.32 18.4916 24.0633 18.2916 23.87C18.0983 23.6767 17.8249 23.58 17.4716 23.58H15.6716V29.6H14.1316Z" fill="white"/>
<path d="M23.5239 29.6V27.7L23.6039 27.5V23.39L24.2139 23.72L21.2939 27.59L20.5839 27.06H25.8039V28.24H20.0239V27.06L23.5639 22.4H25.0839V29.6H23.5239Z" fill="white"/>
</svg>
