<svg width="40" height="40" viewBox="0 0 40 40" fill="none" xmlns="http://www.w3.org/2000/svg">
<path d="M4 4C4 1.79086 5.79086 0 8 0H24L36 12V36C36 38.2091 34.2091 40 32 40H8C5.79086 40 4 38.2091 4 36V4Z" fill="#0F6AF5"/>
<path opacity="0.3" d="M24 0L36 12H28C25.7909 12 24 10.2091 24 8V0Z" fill="white"/>
<path d="M7.27954 32V25.52H9.43954L11.2395 31.766H10.4565L12.2565 25.52H14.4255V32H13.0575V25.907H13.2915L11.5365 32H10.1055L8.36854 25.961H8.59354V32H7.27954Z" fill="white"/>
<path d="M15.3215 32V25.52H18.3995C18.8795 25.52 19.2905 25.604 19.6325 25.772C19.9805 25.94 20.2475 26.174 20.4335 26.474C20.6255 26.774 20.7215 27.125 20.7215 27.527C20.7215 27.929 20.6255 28.283 20.4335 28.589C20.2415 28.895 19.9715 29.135 19.6235 29.309C19.2815 29.477 18.8735 29.561 18.3995 29.561H16.4195V28.499H18.3275C18.6455 28.499 18.8915 28.412 19.0655 28.238C19.2455 28.058 19.3355 27.824 19.3355 27.536C19.3355 27.248 19.2455 27.017 19.0655 26.843C18.8915 26.669 18.6455 26.582 18.3275 26.582H16.7075V32H15.3215Z" fill="white"/>
<path d="M21.3684 32V25.52H22.7544V32H21.3684ZM22.0164 32V30.938H26.1924V32H22.0164ZM22.0164 29.21V28.166H25.8774V29.21H22.0164ZM22.0164 26.582V25.52H26.0844V26.582H22.0164Z" fill="white"/>
<path d="M29.9601 32.09C29.2581 32.09 28.6551 31.952 28.1511 31.676C27.6471 31.4 27.2571 31.013 26.9811 30.515C26.7111 30.017 26.5761 29.435 26.5761 28.769C26.5761 28.109 26.7141 27.53 26.9901 27.032C27.2661 26.528 27.6471 26.135 28.1331 25.853C28.6251 25.571 29.1951 25.43 29.8431 25.43C30.3771 25.43 30.8541 25.526 31.2741 25.718C31.7001 25.91 32.0421 26.174 32.3001 26.51C32.5641 26.84 32.7201 27.224 32.7681 27.662H31.3821C31.3221 27.308 31.1541 27.032 30.8781 26.834C30.6081 26.63 30.2691 26.528 29.8611 26.528C29.4831 26.528 29.1531 26.618 28.8711 26.798C28.5891 26.972 28.3701 27.224 28.2141 27.554C28.0581 27.884 27.9801 28.28 27.9801 28.742C27.9801 29.222 28.0581 29.633 28.2141 29.975C28.3701 30.311 28.5981 30.569 28.8981 30.749C29.2041 30.923 29.5791 31.01 30.0231 31.01C30.3831 31.01 30.6891 30.965 30.9411 30.875C31.1931 30.785 31.3851 30.659 31.5171 30.497L32.8311 31.019C32.4831 31.367 32.0781 31.634 31.6161 31.82C31.1601 32 30.6081 32.09 29.9601 32.09ZM31.4451 31.019V29.237L31.7241 29.516H30.0141V28.454H32.8311V31.019H31.4451Z" fill="white"/>
</svg>
