<svg width="40" height="40" viewBox="0 0 40 40" fill="none" xmlns="http://www.w3.org/2000/svg">
<path d="M7.75 4C7.75 2.20508 9.20508 0.75 11 0.75H27C27.1212 0.75 27.2375 0.798159 27.3232 0.883885L38.1161 11.6768C38.2018 11.7625 38.25 11.8788 38.25 12V36C38.25 37.7949 36.7949 39.25 35 39.25H11C9.20507 39.25 7.75 37.7949 7.75 36V4Z" fill="white" stroke="#CDD5DF" stroke-width="1.5"/>
<path d="M27 0.5V8C27 10.2091 28.7909 12 31 12H38.5" stroke="#CDD5DF" stroke-width="1.5"/>
<rect x="0.804688" y="18" width="36.3906" height="16" rx="2" fill="#0F6AF5"/>
<path d="M4.80469 29.6V22.4H7.20469L9.20469 29.34H8.33469L10.3347 22.4H12.7447V29.6H11.2247V22.83H11.4847L9.53469 29.6H7.94469L6.01469 22.89H6.26469V29.6H4.80469Z" fill="white"/>
<path d="M13.7402 29.6V22.4H17.1602C17.6936 22.4 18.1502 22.4933 18.5302 22.68C18.9169 22.8667 19.2136 23.1267 19.4202 23.46C19.6336 23.7933 19.7402 24.1833 19.7402 24.63C19.7402 25.0767 19.6336 25.47 19.4202 25.81C19.2069 26.15 18.9069 26.4167 18.5202 26.61C18.1402 26.7967 17.6869 26.89 17.1602 26.89H14.9602V25.71H17.0802C17.4336 25.71 17.7069 25.6133 17.9002 25.42C18.1002 25.22 18.2002 24.96 18.2002 24.64C18.2002 24.32 18.1002 24.0633 17.9002 23.87C17.7069 23.6767 17.4336 23.58 17.0802 23.58H15.2802V29.6H13.7402Z" fill="white"/>
<path d="M20.459 29.6V22.4H21.999V29.6H20.459ZM21.179 29.6V28.42H25.819V29.6H21.179ZM21.179 26.5V25.34H25.469V26.5H21.179ZM21.179 23.58V22.4H25.699V23.58H21.179Z" fill="white"/>
<path d="M30.0053 29.7C29.2253 29.7 28.5553 29.5467 27.9953 29.24C27.4353 28.9333 27.002 28.5033 26.6953 27.95C26.3953 27.3967 26.2453 26.75 26.2453 26.01C26.2453 25.2767 26.3986 24.6333 26.7053 24.08C27.012 23.52 27.4353 23.0833 27.9753 22.77C28.522 22.4567 29.1553 22.3 29.8753 22.3C30.4686 22.3 30.9986 22.4067 31.4653 22.62C31.9386 22.8333 32.3186 23.1267 32.6053 23.5C32.8986 23.8667 33.072 24.2933 33.1253 24.78H31.5853C31.5186 24.3867 31.332 24.08 31.0253 23.86C30.7253 23.6333 30.3486 23.52 29.8953 23.52C29.4753 23.52 29.1086 23.62 28.7953 23.82C28.482 24.0133 28.2386 24.2933 28.0653 24.66C27.892 25.0267 27.8053 25.4667 27.8053 25.98C27.8053 26.5133 27.892 26.97 28.0653 27.35C28.2386 27.7233 28.492 28.01 28.8253 28.21C29.1653 28.4033 29.582 28.5 30.0753 28.5C30.4753 28.5 30.8153 28.45 31.0953 28.35C31.3753 28.25 31.5886 28.11 31.7353 27.93L33.1953 28.51C32.8086 28.8967 32.3586 29.1933 31.8453 29.4C31.3386 29.6 30.7253 29.7 30.0053 29.7ZM31.6553 28.51V26.53L31.9653 26.84H30.0653V25.66H33.1953V28.51H31.6553Z" fill="white"/>
</svg>
