<svg width="40" height="40" viewBox="0 0 40 40" fill="none" xmlns="http://www.w3.org/2000/svg">
<path d="M4 4C4 1.79086 5.79086 0 8 0H24L36 12V36C36 38.2091 34.2091 40 32 40H8C5.79086 40 4 38.2091 4 36V4Z" fill="url(#paint0_linear_6726_49396)"/>
<path d="M24 0L36 12H28C25.7909 12 24 10.2091 24 8V0Z" fill="#CDD5DF"/>
<path d="M11.6871 32L9.86011 25.52H11.2641L12.7761 31.451H12.3351L13.6851 25.52H15.2601L16.5921 31.451H16.1601L17.6811 25.52H19.0221L17.1951 32H15.6471L14.2701 26.186H14.6301L13.2351 32H11.6871Z" fill="#4B5565"/>
<path d="M18.5416 32L20.8636 25.52H22.0516L19.9186 32H18.5416ZM23.2936 32L21.1696 25.52H22.4116L24.7336 32H23.2936ZM19.7656 29.489H23.4016V30.569H19.7656V29.489Z" fill="#4B5565"/>
<path d="M26.3568 32L24.0348 25.52H25.4748L27.2478 30.92H27.0768L28.8588 25.52H30.2268L27.9048 32H26.3568Z" fill="#4B5565"/>
<defs>
<linearGradient id="paint0_linear_6726_49396" x1="20" y1="0" x2="20" y2="40" gradientUnits="userSpaceOnUse">
<stop stop-color="#F9FAFB"/>
<stop offset="1" stop-color="#EDF0F3"/>
</linearGradient>
</defs>
</svg>
